G75*
%MOIN*%
%OFA0B0*%
%FSLAX24Y24*%
%IPPOS*%
%LPD*%
%AMOC8*
5,1,8,0,0,1.08239X$1,22.5*
%
%ADD10C,0.0000*%
%ADD11C,0.0060*%
%ADD12C,0.0099*%
%ADD13OC8,0.0440*%
%ADD14C,0.0240*%
%ADD15C,0.0080*%
%ADD16C,0.0317*%
%ADD17C,0.0240*%
%ADD18C,0.0100*%
%ADD19C,0.0120*%
%ADD20C,0.0160*%
%ADD21C,0.0320*%
D10*
X000794Y001150D02*
X006412Y001150D01*
X006451Y001152D01*
X006489Y001158D01*
X006526Y001167D01*
X006563Y001180D01*
X006598Y001197D01*
X006631Y001216D01*
X006662Y001239D01*
X006691Y001265D01*
X006717Y001294D01*
X006740Y001325D01*
X006759Y001358D01*
X006776Y001393D01*
X006789Y001430D01*
X006798Y001467D01*
X006804Y001505D01*
X006806Y001544D01*
X006806Y003400D01*
X006808Y003444D01*
X006814Y003487D01*
X006823Y003530D01*
X006836Y003571D01*
X006853Y003612D01*
X006873Y003650D01*
X006897Y003687D01*
X006923Y003722D01*
X006953Y003754D01*
X006985Y003783D01*
X007020Y003810D01*
X007056Y003833D01*
X007095Y003853D01*
X007135Y003870D01*
X007177Y003883D01*
X007220Y003892D01*
X007263Y003898D01*
X007306Y003900D01*
X008369Y003900D01*
X008368Y003900D02*
X008411Y003899D01*
X008453Y003895D01*
X008495Y003888D01*
X008537Y003877D01*
X008577Y003863D01*
X008616Y003845D01*
X008653Y003824D01*
X008688Y003801D01*
X008722Y003774D01*
X008753Y003745D01*
X008781Y003713D01*
X008807Y003679D01*
X008830Y003643D01*
X008850Y003605D01*
X008867Y003566D01*
X008880Y003526D01*
X008890Y003484D01*
X008897Y003442D01*
X008900Y003400D01*
X008900Y000794D01*
X008902Y000755D01*
X008908Y000717D01*
X008917Y000680D01*
X008930Y000643D01*
X008947Y000608D01*
X008966Y000575D01*
X008989Y000544D01*
X009015Y000515D01*
X009044Y000489D01*
X009075Y000466D01*
X009108Y000447D01*
X009143Y000430D01*
X009180Y000417D01*
X009217Y000408D01*
X009255Y000402D01*
X009294Y000400D01*
X014018Y000400D01*
X014057Y000402D01*
X014095Y000408D01*
X014132Y000417D01*
X014169Y000430D01*
X014204Y000447D01*
X014237Y000466D01*
X014268Y000489D01*
X014297Y000515D01*
X014323Y000544D01*
X014346Y000575D01*
X014365Y000608D01*
X014382Y000643D01*
X014395Y000680D01*
X014404Y000717D01*
X014410Y000755D01*
X014412Y000794D01*
X014412Y003400D01*
X014415Y003444D01*
X014422Y003488D01*
X014432Y003531D01*
X014446Y003574D01*
X014464Y003614D01*
X014485Y003653D01*
X014510Y003690D01*
X014538Y003725D01*
X014568Y003757D01*
X014602Y003787D01*
X014637Y003813D01*
X014675Y003836D01*
X014715Y003856D01*
X014757Y003872D01*
X014799Y003885D01*
X014843Y003894D01*
X014887Y003899D01*
X014932Y003900D01*
X014931Y003900D02*
X015869Y003900D01*
X015868Y003900D02*
X015911Y003899D01*
X015953Y003895D01*
X015995Y003888D01*
X016037Y003877D01*
X016077Y003863D01*
X016116Y003845D01*
X016153Y003824D01*
X016188Y003801D01*
X016222Y003774D01*
X016253Y003745D01*
X016281Y003713D01*
X016307Y003679D01*
X016330Y003643D01*
X016350Y003605D01*
X016367Y003566D01*
X016380Y003526D01*
X016390Y003484D01*
X016397Y003442D01*
X016400Y003400D01*
X016400Y002544D01*
X016402Y002505D01*
X016408Y002467D01*
X016417Y002430D01*
X016430Y002393D01*
X016447Y002358D01*
X016466Y002325D01*
X016489Y002294D01*
X016515Y002265D01*
X016544Y002239D01*
X016575Y002216D01*
X016608Y002197D01*
X016643Y002180D01*
X016680Y002167D01*
X016717Y002158D01*
X016755Y002152D01*
X016794Y002150D01*
X019006Y002150D01*
X019018Y002150D01*
X019006Y002150D02*
X019041Y002152D01*
X019075Y002157D01*
X019108Y002166D01*
X019141Y002179D01*
X019172Y002194D01*
X019201Y002213D01*
X019227Y002235D01*
X019252Y002260D01*
X019274Y002286D01*
X019293Y002315D01*
X019308Y002346D01*
X019321Y002379D01*
X019330Y002412D01*
X019335Y002446D01*
X019337Y002481D01*
X019337Y006999D01*
X019335Y007034D01*
X019330Y007068D01*
X019321Y007101D01*
X019308Y007134D01*
X019293Y007165D01*
X019274Y007194D01*
X019252Y007220D01*
X019227Y007245D01*
X019201Y007267D01*
X019172Y007286D01*
X019141Y007301D01*
X019108Y007314D01*
X019075Y007323D01*
X019041Y007328D01*
X019006Y007330D01*
X016731Y007330D01*
X016696Y007328D01*
X016662Y007323D01*
X016629Y007314D01*
X016596Y007301D01*
X016566Y007286D01*
X016536Y007267D01*
X016510Y007245D01*
X016485Y007220D01*
X016463Y007194D01*
X016444Y007165D01*
X016429Y007134D01*
X016416Y007101D01*
X016407Y007068D01*
X016402Y007034D01*
X016400Y006999D01*
X016400Y005900D01*
X016397Y005858D01*
X016390Y005816D01*
X016380Y005774D01*
X016367Y005734D01*
X016350Y005695D01*
X016330Y005657D01*
X016307Y005621D01*
X016281Y005587D01*
X016253Y005555D01*
X016222Y005526D01*
X016188Y005499D01*
X016153Y005476D01*
X016116Y005455D01*
X016077Y005437D01*
X016037Y005423D01*
X015995Y005412D01*
X015953Y005405D01*
X015911Y005401D01*
X015868Y005400D01*
X015869Y005400D02*
X014931Y005400D01*
X014932Y005400D02*
X014887Y005401D01*
X014843Y005406D01*
X014799Y005415D01*
X014757Y005428D01*
X014715Y005444D01*
X014675Y005464D01*
X014637Y005487D01*
X014602Y005513D01*
X014568Y005543D01*
X014538Y005575D01*
X014510Y005610D01*
X014485Y005647D01*
X014464Y005686D01*
X014446Y005726D01*
X014432Y005769D01*
X014422Y005812D01*
X014415Y005856D01*
X014412Y005900D01*
X014412Y007880D01*
X014410Y007919D01*
X014404Y007957D01*
X014395Y007994D01*
X014382Y008031D01*
X014365Y008066D01*
X014346Y008099D01*
X014323Y008130D01*
X014297Y008159D01*
X014268Y008185D01*
X014237Y008208D01*
X014204Y008227D01*
X014169Y008244D01*
X014132Y008257D01*
X014095Y008266D01*
X014057Y008272D01*
X014018Y008274D01*
X012900Y008274D01*
X012857Y008277D01*
X012815Y008284D01*
X012774Y008294D01*
X012733Y008307D01*
X012694Y008324D01*
X012656Y008344D01*
X012620Y008367D01*
X012587Y008393D01*
X012555Y008421D01*
X012526Y008453D01*
X012499Y008486D01*
X012475Y008521D01*
X012455Y008559D01*
X012437Y008598D01*
X012423Y008638D01*
X012412Y008679D01*
X012405Y008721D01*
X012401Y008763D01*
X012400Y008806D01*
X012400Y009619D01*
X012400Y009618D02*
X012401Y009663D01*
X012405Y009708D01*
X012414Y009752D01*
X012426Y009796D01*
X012442Y009838D01*
X012462Y009878D01*
X012485Y009917D01*
X012511Y009954D01*
X012540Y009988D01*
X012573Y010019D01*
X012607Y010048D01*
X012645Y010073D01*
X012684Y010095D01*
X012725Y010113D01*
X012767Y010128D01*
X012811Y010139D01*
X012855Y010146D01*
X012900Y010150D01*
X014537Y010150D01*
X014576Y010152D01*
X014614Y010158D01*
X014651Y010167D01*
X014688Y010180D01*
X014723Y010197D01*
X014756Y010216D01*
X014787Y010239D01*
X014816Y010265D01*
X014842Y010294D01*
X014865Y010325D01*
X014884Y010358D01*
X014901Y010393D01*
X014914Y010430D01*
X014923Y010467D01*
X014929Y010505D01*
X014931Y010544D01*
X014931Y019218D01*
X014930Y019218D02*
X014927Y019256D01*
X014921Y019294D01*
X014911Y019330D01*
X014898Y019366D01*
X014881Y019400D01*
X014861Y019432D01*
X014838Y019462D01*
X014812Y019490D01*
X014784Y019515D01*
X014753Y019537D01*
X014720Y019556D01*
X014685Y019572D01*
X014649Y019584D01*
X014612Y019593D01*
X014575Y019598D01*
X014537Y019599D01*
X008044Y019599D01*
X008043Y019599D02*
X008005Y019598D01*
X007968Y019593D01*
X007931Y019584D01*
X007895Y019572D01*
X007860Y019556D01*
X007827Y019537D01*
X007796Y019515D01*
X007768Y019490D01*
X007742Y019462D01*
X007719Y019432D01*
X007699Y019400D01*
X007682Y019366D01*
X007669Y019330D01*
X007659Y019294D01*
X007653Y019256D01*
X007650Y019218D01*
X007650Y010544D01*
X007652Y010505D01*
X007658Y010467D01*
X007667Y010430D01*
X007680Y010393D01*
X007697Y010358D01*
X007716Y010325D01*
X007739Y010294D01*
X007765Y010265D01*
X007794Y010239D01*
X007825Y010216D01*
X007858Y010197D01*
X007893Y010180D01*
X007930Y010167D01*
X007967Y010158D01*
X008005Y010152D01*
X008044Y010150D01*
X010400Y010150D01*
X010442Y010147D01*
X010484Y010140D01*
X010526Y010130D01*
X010566Y010117D01*
X010605Y010100D01*
X010643Y010080D01*
X010679Y010057D01*
X010713Y010031D01*
X010745Y010003D01*
X010774Y009972D01*
X010801Y009938D01*
X010824Y009903D01*
X010845Y009866D01*
X010863Y009827D01*
X010877Y009787D01*
X010888Y009745D01*
X010895Y009703D01*
X010899Y009661D01*
X010900Y009618D01*
X010900Y009619D02*
X010900Y008806D01*
X010899Y008763D01*
X010895Y008721D01*
X010888Y008679D01*
X010877Y008638D01*
X010863Y008598D01*
X010845Y008559D01*
X010825Y008521D01*
X010801Y008486D01*
X010774Y008453D01*
X010745Y008421D01*
X010713Y008393D01*
X010680Y008367D01*
X010644Y008344D01*
X010606Y008324D01*
X010567Y008307D01*
X010526Y008294D01*
X010485Y008284D01*
X010443Y008277D01*
X010400Y008274D01*
X009294Y008274D01*
X009255Y008272D01*
X009217Y008266D01*
X009180Y008257D01*
X009143Y008244D01*
X009108Y008227D01*
X009075Y008208D01*
X009044Y008185D01*
X009015Y008159D01*
X008989Y008130D01*
X008966Y008099D01*
X008947Y008066D01*
X008930Y008031D01*
X008917Y007994D01*
X008908Y007957D01*
X008902Y007919D01*
X008900Y007880D01*
X008900Y005900D01*
X008897Y005858D01*
X008890Y005816D01*
X008880Y005774D01*
X008867Y005734D01*
X008850Y005695D01*
X008830Y005657D01*
X008807Y005621D01*
X008781Y005587D01*
X008753Y005555D01*
X008722Y005526D01*
X008688Y005499D01*
X008653Y005476D01*
X008616Y005455D01*
X008577Y005437D01*
X008537Y005423D01*
X008495Y005412D01*
X008453Y005405D01*
X008411Y005401D01*
X008368Y005400D01*
X008369Y005400D02*
X007306Y005400D01*
X007263Y005402D01*
X007220Y005408D01*
X007177Y005417D01*
X007135Y005430D01*
X007095Y005447D01*
X007056Y005467D01*
X007020Y005490D01*
X006985Y005517D01*
X006953Y005546D01*
X006923Y005578D01*
X006897Y005613D01*
X006873Y005650D01*
X006853Y005688D01*
X006836Y005729D01*
X006823Y005770D01*
X006814Y005813D01*
X006808Y005856D01*
X006806Y005900D01*
X006806Y007843D01*
X006804Y007882D01*
X006798Y007920D01*
X006789Y007957D01*
X006776Y007994D01*
X006759Y008029D01*
X006740Y008062D01*
X006717Y008093D01*
X006691Y008122D01*
X006662Y008148D01*
X006631Y008171D01*
X006598Y008190D01*
X006563Y008207D01*
X006526Y008220D01*
X006489Y008229D01*
X006451Y008235D01*
X006412Y008237D01*
X000794Y008237D01*
X000755Y008235D01*
X000717Y008229D01*
X000680Y008220D01*
X000643Y008207D01*
X000608Y008190D01*
X000575Y008171D01*
X000544Y008148D01*
X000515Y008122D01*
X000489Y008093D01*
X000466Y008062D01*
X000447Y008029D01*
X000430Y007994D01*
X000417Y007957D01*
X000408Y007920D01*
X000402Y007882D01*
X000400Y007843D01*
X000400Y001544D01*
X000402Y001505D01*
X000408Y001467D01*
X000417Y001430D01*
X000430Y001393D01*
X000447Y001358D01*
X000466Y001325D01*
X000489Y001294D01*
X000515Y001265D01*
X000544Y001239D01*
X000575Y001216D01*
X000608Y001197D01*
X000643Y001180D01*
X000680Y001167D01*
X000717Y001158D01*
X000755Y001152D01*
X000794Y001150D01*
X008900Y007880D02*
X008900Y007900D01*
X008004Y011006D02*
X008006Y011047D01*
X008012Y011088D01*
X008022Y011128D01*
X008035Y011167D01*
X008052Y011204D01*
X008073Y011240D01*
X008097Y011274D01*
X008124Y011305D01*
X008153Y011333D01*
X008186Y011359D01*
X008220Y011381D01*
X008257Y011400D01*
X008295Y011415D01*
X008335Y011427D01*
X008375Y011435D01*
X008416Y011439D01*
X008458Y011439D01*
X008499Y011435D01*
X008539Y011427D01*
X008579Y011415D01*
X008617Y011400D01*
X008653Y011381D01*
X008688Y011359D01*
X008721Y011333D01*
X008750Y011305D01*
X008777Y011274D01*
X008801Y011240D01*
X008822Y011204D01*
X008839Y011167D01*
X008852Y011128D01*
X008862Y011088D01*
X008868Y011047D01*
X008870Y011006D01*
X008868Y010965D01*
X008862Y010924D01*
X008852Y010884D01*
X008839Y010845D01*
X008822Y010808D01*
X008801Y010772D01*
X008777Y010738D01*
X008750Y010707D01*
X008721Y010679D01*
X008688Y010653D01*
X008654Y010631D01*
X008617Y010612D01*
X008579Y010597D01*
X008539Y010585D01*
X008499Y010577D01*
X008458Y010573D01*
X008416Y010573D01*
X008375Y010577D01*
X008335Y010585D01*
X008295Y010597D01*
X008257Y010612D01*
X008221Y010631D01*
X008186Y010653D01*
X008153Y010679D01*
X008124Y010707D01*
X008097Y010738D01*
X008073Y010772D01*
X008052Y010808D01*
X008035Y010845D01*
X008022Y010884D01*
X008012Y010924D01*
X008006Y010965D01*
X008004Y011006D01*
X008004Y018755D02*
X008006Y018796D01*
X008012Y018837D01*
X008022Y018877D01*
X008035Y018916D01*
X008052Y018953D01*
X008073Y018989D01*
X008097Y019023D01*
X008124Y019054D01*
X008153Y019082D01*
X008186Y019108D01*
X008220Y019130D01*
X008257Y019149D01*
X008295Y019164D01*
X008335Y019176D01*
X008375Y019184D01*
X008416Y019188D01*
X008458Y019188D01*
X008499Y019184D01*
X008539Y019176D01*
X008579Y019164D01*
X008617Y019149D01*
X008653Y019130D01*
X008688Y019108D01*
X008721Y019082D01*
X008750Y019054D01*
X008777Y019023D01*
X008801Y018989D01*
X008822Y018953D01*
X008839Y018916D01*
X008852Y018877D01*
X008862Y018837D01*
X008868Y018796D01*
X008870Y018755D01*
X008868Y018714D01*
X008862Y018673D01*
X008852Y018633D01*
X008839Y018594D01*
X008822Y018557D01*
X008801Y018521D01*
X008777Y018487D01*
X008750Y018456D01*
X008721Y018428D01*
X008688Y018402D01*
X008654Y018380D01*
X008617Y018361D01*
X008579Y018346D01*
X008539Y018334D01*
X008499Y018326D01*
X008458Y018322D01*
X008416Y018322D01*
X008375Y018326D01*
X008335Y018334D01*
X008295Y018346D01*
X008257Y018361D01*
X008221Y018380D01*
X008186Y018402D01*
X008153Y018428D01*
X008124Y018456D01*
X008097Y018487D01*
X008073Y018521D01*
X008052Y018557D01*
X008035Y018594D01*
X008022Y018633D01*
X008012Y018673D01*
X008006Y018714D01*
X008004Y018755D01*
D11*
X008626Y017973D02*
X008726Y018000D01*
X008728Y017999D01*
X008738Y018003D01*
X008748Y018006D01*
X008750Y018009D01*
X008844Y018051D01*
X008847Y018050D01*
X008856Y018056D01*
X008866Y018060D01*
X008867Y018063D01*
X008954Y018119D01*
X008957Y018119D01*
X008964Y018126D01*
X008973Y018132D01*
X008974Y018135D01*
X009051Y018204D01*
X009054Y018204D01*
X009061Y018212D01*
X009069Y018219D01*
X009069Y018222D01*
X009134Y018303D01*
X009137Y018303D01*
X009142Y018313D01*
X009149Y018321D01*
X009148Y018324D01*
X009200Y018413D01*
X009203Y018414D01*
X009207Y018424D01*
X009212Y018434D01*
X009211Y018436D01*
X009249Y018533D01*
X009251Y018534D01*
X009253Y018545D01*
X009257Y018555D01*
X009256Y018557D01*
X009277Y018659D01*
X009280Y018660D01*
X009280Y018671D01*
X009282Y018682D01*
X009281Y018684D01*
X009286Y018785D01*
X009287Y018786D01*
X009287Y018798D01*
X009288Y018811D01*
X009287Y018812D01*
X009287Y019469D01*
X014484Y019469D01*
X014485Y019468D01*
X014538Y019469D01*
X014539Y019469D01*
X014589Y019465D01*
X014683Y019428D01*
X014755Y019358D01*
X014795Y019266D01*
X014801Y019216D01*
X014801Y010544D01*
X014795Y010492D01*
X014756Y010397D01*
X014683Y010324D01*
X014588Y010285D01*
X014537Y010280D01*
X013950Y010280D01*
X013957Y010288D01*
X014137Y010468D01*
X014481Y010468D01*
X014551Y010538D01*
X014739Y010725D01*
X014739Y011731D01*
X014668Y011801D01*
X014573Y011897D01*
X014585Y011909D01*
X014585Y012166D01*
X014438Y012312D01*
X014585Y012459D01*
X014585Y012716D01*
X014403Y012897D01*
X014395Y012897D01*
X014395Y014575D01*
X013864Y015106D01*
X013864Y015418D01*
X013520Y015762D01*
X013450Y015832D01*
X011200Y015832D01*
X011092Y015940D01*
X011174Y015940D01*
X011212Y015978D01*
X011313Y015878D01*
X011487Y015878D01*
X011527Y015918D01*
X013940Y015918D01*
X013940Y015419D01*
X013864Y015419D01*
X013864Y015360D02*
X013915Y015360D01*
X013900Y015325D02*
X013900Y015225D01*
X013938Y015133D01*
X014008Y015063D01*
X014100Y015025D01*
X014200Y015025D01*
X014292Y015063D01*
X014362Y015133D01*
X014400Y015225D01*
X014400Y015325D01*
X014362Y015417D01*
X014360Y015419D01*
X014801Y015419D01*
X014801Y015477D02*
X014360Y015477D01*
X014360Y015419D02*
X014360Y016112D01*
X014297Y016174D01*
X014297Y018612D01*
X013549Y019360D01*
X010001Y019360D01*
X009563Y018922D01*
X009440Y018799D01*
X009440Y018172D01*
X009313Y018172D01*
X009190Y018049D01*
X009190Y017876D01*
X007780Y017876D01*
X007780Y017934D02*
X009190Y017934D01*
X009190Y017876D02*
X009313Y017753D01*
X009440Y017753D01*
X009440Y016840D01*
X009433Y016832D01*
X009225Y016832D01*
X008655Y016262D01*
X008655Y015788D01*
X008725Y015718D01*
X008753Y015690D01*
X008751Y015683D01*
X008761Y015668D01*
X008761Y014298D01*
X008861Y014199D01*
X009580Y013480D01*
X010308Y013480D01*
X010253Y013424D01*
X010253Y013251D01*
X010376Y013128D01*
X010549Y013128D01*
X010672Y013251D01*
X010672Y013424D01*
X010617Y013480D01*
X012705Y013480D01*
X013342Y012843D01*
X013215Y012716D01*
X013215Y012459D01*
X013362Y012312D01*
X013215Y012166D01*
X013215Y011909D01*
X013362Y011762D01*
X013215Y011616D01*
X013215Y011517D01*
X013495Y011517D01*
X013495Y011458D01*
X013215Y011458D01*
X013215Y011359D01*
X013362Y011213D01*
X013215Y011066D01*
X013215Y010880D01*
X012832Y011262D01*
X012832Y012137D01*
X012110Y012860D01*
X012110Y012987D01*
X011987Y013110D01*
X011813Y013110D01*
X011744Y013041D01*
X011674Y013110D01*
X011501Y013110D01*
X011430Y013040D01*
X011270Y013200D01*
X011200Y013270D01*
X010913Y013270D01*
X010753Y013110D01*
X010688Y013110D01*
X010565Y012987D01*
X010565Y012813D01*
X010688Y012690D01*
X010862Y012690D01*
X010931Y012759D01*
X010968Y012723D01*
X010968Y012225D01*
X011503Y011690D01*
X011503Y011563D01*
X011626Y011440D01*
X011799Y011440D01*
X011922Y011563D01*
X011922Y011737D01*
X011799Y011860D01*
X011672Y011860D01*
X011207Y012325D01*
X011207Y012723D01*
X011218Y012733D01*
X011218Y012725D01*
X011475Y012468D01*
X011600Y012468D01*
X012343Y011725D01*
X012343Y011038D01*
X012413Y010968D01*
X013100Y010280D01*
X012952Y010280D01*
X012950Y010282D01*
X012898Y010280D01*
X012846Y010280D01*
X012846Y010280D01*
X010454Y010280D01*
X010402Y010280D01*
X010350Y010282D01*
X010348Y010280D01*
X009280Y010280D01*
X009280Y010966D01*
X009281Y010968D01*
X009280Y010979D01*
X009280Y010991D01*
X009279Y010992D01*
X009268Y011094D01*
X009269Y011096D01*
X009267Y011107D01*
X009266Y011117D01*
X009263Y011119D01*
X009237Y011219D01*
X009238Y011222D01*
X009233Y011232D01*
X009231Y011242D01*
X009228Y011243D01*
X009186Y011338D01*
X009187Y011341D01*
X009181Y011350D01*
X009177Y011359D01*
X009174Y011360D01*
X009118Y011447D01*
X009118Y011450D01*
X009111Y011458D01*
X009105Y011467D01*
X009102Y011468D01*
X009033Y011545D01*
X009033Y011547D01*
X009024Y011554D01*
X009017Y011562D01*
X009014Y011562D01*
X008934Y011627D01*
X008933Y011630D01*
X008924Y011636D01*
X008916Y011642D01*
X008913Y011642D01*
X008824Y011694D01*
X008822Y011696D01*
X008812Y011700D01*
X008803Y011706D01*
X008800Y011705D01*
X008704Y011742D01*
X008702Y011745D01*
X008692Y011747D01*
X008682Y011751D01*
X008679Y011749D01*
X008578Y011771D01*
X008576Y011773D01*
X008566Y011774D01*
X008555Y011776D01*
X008553Y011774D01*
X008451Y011780D01*
X008451Y011781D01*
X008438Y011781D01*
X008426Y011781D01*
X008425Y011781D01*
X007780Y011781D01*
X007780Y017957D01*
X008473Y017957D01*
X008474Y017956D01*
X008486Y017957D01*
X008497Y017957D01*
X008498Y017958D01*
X008600Y017969D01*
X008603Y017967D01*
X008613Y017970D01*
X008624Y017971D01*
X008626Y017973D01*
X008697Y017993D02*
X009190Y017993D01*
X009192Y018051D02*
X008849Y018051D01*
X008939Y018110D02*
X009250Y018110D01*
X009309Y018168D02*
X009011Y018168D01*
X009072Y018227D02*
X009440Y018227D01*
X009440Y018285D02*
X009120Y018285D01*
X009160Y018344D02*
X009440Y018344D01*
X009440Y018402D02*
X009194Y018402D01*
X009221Y018461D02*
X009440Y018461D01*
X009440Y018519D02*
X009243Y018519D01*
X009260Y018578D02*
X009440Y018578D01*
X009440Y018636D02*
X009273Y018636D01*
X009281Y018695D02*
X009440Y018695D01*
X009440Y018753D02*
X009285Y018753D01*
X009287Y018812D02*
X009452Y018812D01*
X009511Y018870D02*
X009287Y018870D01*
X009287Y018929D02*
X009569Y018929D01*
X009628Y018987D02*
X009287Y018987D01*
X009287Y019046D02*
X009686Y019046D01*
X009745Y019104D02*
X009287Y019104D01*
X009287Y019163D02*
X009803Y019163D01*
X009862Y019221D02*
X009287Y019221D01*
X009287Y019280D02*
X009920Y019280D01*
X009979Y019338D02*
X009287Y019338D01*
X009287Y019397D02*
X014715Y019397D01*
X014763Y019338D02*
X013571Y019338D01*
X013630Y019280D02*
X014789Y019280D01*
X014800Y019221D02*
X013688Y019221D01*
X013747Y019163D02*
X014801Y019163D01*
X014801Y019104D02*
X013805Y019104D01*
X013864Y019046D02*
X014801Y019046D01*
X014801Y018987D02*
X013922Y018987D01*
X013981Y018929D02*
X014801Y018929D01*
X014801Y018870D02*
X014039Y018870D01*
X014098Y018812D02*
X014801Y018812D01*
X014801Y018753D02*
X014156Y018753D01*
X014215Y018695D02*
X014801Y018695D01*
X014801Y018636D02*
X014273Y018636D01*
X014297Y018578D02*
X014801Y018578D01*
X014801Y018519D02*
X014297Y018519D01*
X014297Y018461D02*
X014801Y018461D01*
X014801Y018402D02*
X014297Y018402D01*
X014297Y018344D02*
X014801Y018344D01*
X014801Y018285D02*
X014297Y018285D01*
X014297Y018227D02*
X014801Y018227D01*
X014801Y018168D02*
X014297Y018168D01*
X014297Y018110D02*
X014801Y018110D01*
X014801Y018051D02*
X014297Y018051D01*
X014297Y017993D02*
X014801Y017993D01*
X014801Y017934D02*
X014297Y017934D01*
X014297Y017876D02*
X014801Y017876D01*
X014801Y017817D02*
X014297Y017817D01*
X014297Y017759D02*
X014801Y017759D01*
X014801Y017700D02*
X014297Y017700D01*
X014297Y017642D02*
X014801Y017642D01*
X014801Y017583D02*
X014297Y017583D01*
X014297Y017525D02*
X014801Y017525D01*
X014801Y017466D02*
X014297Y017466D01*
X014297Y017408D02*
X014801Y017408D01*
X014801Y017349D02*
X014297Y017349D01*
X014297Y017291D02*
X014801Y017291D01*
X014801Y017232D02*
X014297Y017232D01*
X014297Y017174D02*
X014801Y017174D01*
X014801Y017115D02*
X014297Y017115D01*
X014297Y017057D02*
X014801Y017057D01*
X014801Y016998D02*
X014297Y016998D01*
X014297Y016940D02*
X014801Y016940D01*
X014801Y016881D02*
X014297Y016881D01*
X014297Y016823D02*
X014801Y016823D01*
X014801Y016764D02*
X014297Y016764D01*
X014297Y016706D02*
X014801Y016706D01*
X014801Y016647D02*
X014297Y016647D01*
X014297Y016589D02*
X014801Y016589D01*
X014801Y016530D02*
X014297Y016530D01*
X014297Y016472D02*
X014801Y016472D01*
X014801Y016413D02*
X014297Y016413D01*
X014297Y016355D02*
X014801Y016355D01*
X014801Y016296D02*
X014297Y016296D01*
X014297Y016238D02*
X014801Y016238D01*
X014801Y016179D02*
X014297Y016179D01*
X014351Y016121D02*
X014801Y016121D01*
X014801Y016062D02*
X014360Y016062D01*
X014360Y016004D02*
X014801Y016004D01*
X014801Y015945D02*
X014360Y015945D01*
X014360Y015887D02*
X014801Y015887D01*
X014801Y015828D02*
X014360Y015828D01*
X014360Y015770D02*
X014801Y015770D01*
X014801Y015711D02*
X014360Y015711D01*
X014360Y015653D02*
X014801Y015653D01*
X014801Y015594D02*
X014360Y015594D01*
X014360Y015536D02*
X014801Y015536D01*
X014801Y015360D02*
X014385Y015360D01*
X014400Y015302D02*
X014801Y015302D01*
X014801Y015243D02*
X014400Y015243D01*
X014383Y015185D02*
X014801Y015185D01*
X014801Y015126D02*
X014355Y015126D01*
X014296Y015068D02*
X014801Y015068D01*
X014801Y015009D02*
X013961Y015009D01*
X014004Y015068D02*
X013902Y015068D01*
X013864Y015126D02*
X013945Y015126D01*
X013917Y015185D02*
X013864Y015185D01*
X013864Y015243D02*
X013900Y015243D01*
X013900Y015302D02*
X013864Y015302D01*
X013900Y015325D02*
X013938Y015417D01*
X013940Y015419D01*
X013940Y015477D02*
X013805Y015477D01*
X013747Y015536D02*
X013940Y015536D01*
X013940Y015594D02*
X013688Y015594D01*
X013630Y015653D02*
X013940Y015653D01*
X013940Y015711D02*
X013571Y015711D01*
X013513Y015770D02*
X013940Y015770D01*
X013940Y015828D02*
X013454Y015828D01*
X013400Y015713D02*
X011150Y015713D01*
X010775Y016088D01*
X010628Y016238D02*
X010532Y016238D01*
X010575Y016280D02*
X010645Y016350D01*
X010645Y017163D01*
X010825Y017343D01*
X010895Y017413D01*
X010895Y018098D01*
X010985Y018188D01*
X010985Y018362D01*
X010862Y018485D01*
X010688Y018485D01*
X010587Y018384D01*
X010487Y018485D01*
X010313Y018485D01*
X010190Y018362D01*
X010190Y018188D01*
X010259Y018119D01*
X010190Y018049D01*
X010190Y017876D01*
X010145Y017876D01*
X010190Y017876D02*
X010280Y017786D01*
X010280Y017512D01*
X010225Y017457D01*
X010155Y017387D01*
X010155Y016575D01*
X010145Y016565D01*
X010145Y018413D01*
X010262Y018530D01*
X010913Y018530D01*
X011507Y017936D01*
X013036Y017936D01*
X013126Y017846D01*
X013299Y017846D01*
X013422Y017969D01*
X013422Y018143D01*
X013299Y018266D01*
X013126Y018266D01*
X013036Y018176D01*
X011606Y018176D01*
X011082Y018700D01*
X011012Y018770D01*
X010163Y018770D01*
X010093Y018700D01*
X009975Y018582D01*
X009905Y018512D01*
X009905Y016512D01*
X009569Y016176D01*
X009499Y016106D01*
X009499Y014632D01*
X009565Y014565D01*
X009565Y014438D01*
X009688Y014315D01*
X009862Y014315D01*
X009900Y014353D01*
X010001Y014253D01*
X010174Y014253D01*
X010297Y014376D01*
X010297Y014549D01*
X010223Y014624D01*
X010293Y014624D01*
X010364Y014694D01*
X010387Y014718D01*
X013046Y014718D01*
X013003Y014674D01*
X013003Y014501D01*
X013126Y014378D01*
X013299Y014378D01*
X013422Y014501D01*
X013422Y014628D01*
X013481Y014686D01*
X013551Y014757D01*
X013551Y015043D01*
X013426Y015168D01*
X013356Y015239D01*
X013069Y015239D01*
X012913Y015082D01*
X010264Y015082D01*
X010228Y015119D01*
X010297Y015188D01*
X010297Y015362D01*
X010207Y015452D01*
X010207Y015913D01*
X010575Y016280D01*
X010591Y016296D02*
X010687Y016296D01*
X010688Y016297D02*
X010565Y016174D01*
X010565Y016001D01*
X010688Y015878D01*
X010815Y015878D01*
X011100Y015593D01*
X013350Y015593D01*
X013624Y015319D01*
X013624Y015007D01*
X013694Y014936D01*
X014155Y014475D01*
X014155Y012897D01*
X014147Y012897D01*
X013965Y012716D01*
X013965Y012459D01*
X014112Y012312D01*
X013965Y012166D01*
X013965Y011909D01*
X014112Y011762D01*
X013965Y011616D01*
X013965Y011359D01*
X013983Y011341D01*
X013957Y011315D01*
X013957Y013262D01*
X013422Y013797D01*
X013422Y013924D01*
X013299Y014047D01*
X013126Y014047D01*
X013003Y013924D01*
X013003Y013751D01*
X013126Y013628D01*
X013253Y013628D01*
X013718Y013163D01*
X013718Y012833D01*
X013695Y012856D01*
X013695Y012970D01*
X012945Y013720D01*
X012945Y013720D01*
X012845Y013820D01*
X009720Y013820D01*
X009101Y014439D01*
X009101Y015744D01*
X009707Y016350D01*
X009707Y016510D01*
X009709Y016512D01*
X009708Y016514D01*
X009737Y016543D01*
X009860Y016666D01*
X009860Y018626D01*
X010174Y018940D01*
X012565Y018940D01*
X012565Y018813D01*
X012688Y018690D01*
X012862Y018690D01*
X012985Y018813D01*
X012985Y018940D01*
X013376Y018940D01*
X013878Y018438D01*
X013878Y016257D01*
X011527Y016257D01*
X011487Y016297D01*
X011376Y016297D01*
X011579Y016530D01*
X012950Y016530D01*
X013878Y016530D01*
X013878Y016472D02*
X011528Y016472D01*
X011477Y016413D02*
X013878Y016413D01*
X013878Y016355D02*
X011426Y016355D01*
X011488Y016296D02*
X013878Y016296D01*
X014025Y016088D02*
X014088Y016088D01*
X013940Y015887D02*
X011496Y015887D01*
X011304Y015887D02*
X011146Y015887D01*
X011180Y015945D02*
X011245Y015945D01*
X011088Y016150D02*
X011525Y016650D01*
X012900Y016650D01*
X013650Y017400D01*
X013650Y018275D01*
X013213Y018713D01*
X013352Y018870D02*
X013445Y018870D01*
X013410Y018812D02*
X013504Y018812D01*
X013422Y018799D02*
X013299Y018922D01*
X013126Y018922D01*
X013003Y018799D01*
X013003Y018626D01*
X013126Y018503D01*
X013253Y018503D01*
X013530Y018225D01*
X013530Y017450D01*
X012850Y016770D01*
X011570Y016770D01*
X011567Y016773D01*
X011521Y016770D01*
X011475Y016770D01*
X011472Y016767D01*
X011467Y016766D01*
X011437Y016732D01*
X011405Y016700D01*
X011405Y016695D01*
X011112Y016360D01*
X011001Y016360D01*
X010900Y016259D01*
X010862Y016297D01*
X010688Y016297D01*
X010645Y016355D02*
X010995Y016355D01*
X010937Y016296D02*
X010863Y016296D01*
X010645Y016413D02*
X011158Y016413D01*
X011209Y016472D02*
X010645Y016472D01*
X010645Y016530D02*
X011261Y016530D01*
X011312Y016589D02*
X010645Y016589D01*
X010645Y016647D02*
X011363Y016647D01*
X011411Y016706D02*
X010645Y016706D01*
X010645Y016764D02*
X011465Y016764D01*
X010831Y017349D02*
X013429Y017349D01*
X013371Y017291D02*
X010773Y017291D01*
X010714Y017232D02*
X013312Y017232D01*
X013254Y017174D02*
X010656Y017174D01*
X010645Y017115D02*
X013195Y017115D01*
X013137Y017057D02*
X010645Y017057D01*
X010645Y016998D02*
X013078Y016998D01*
X013020Y016940D02*
X010645Y016940D01*
X010645Y016881D02*
X012961Y016881D01*
X012903Y016823D02*
X010645Y016823D01*
X010525Y017213D02*
X010525Y016400D01*
X010088Y015963D01*
X010088Y015275D01*
X010236Y015126D02*
X012956Y015126D01*
X013015Y015185D02*
X010294Y015185D01*
X010297Y015243D02*
X013624Y015243D01*
X013624Y015185D02*
X013410Y015185D01*
X013469Y015126D02*
X013624Y015126D01*
X013624Y015068D02*
X013527Y015068D01*
X013551Y015009D02*
X013624Y015009D01*
X013680Y014951D02*
X013551Y014951D01*
X013551Y014892D02*
X013738Y014892D01*
X013797Y014834D02*
X013551Y014834D01*
X013551Y014775D02*
X013855Y014775D01*
X013914Y014717D02*
X013511Y014717D01*
X013481Y014686D02*
X013481Y014686D01*
X013453Y014658D02*
X013972Y014658D01*
X014031Y014600D02*
X013422Y014600D01*
X013422Y014541D02*
X014089Y014541D01*
X014148Y014483D02*
X013405Y014483D01*
X013346Y014424D02*
X014155Y014424D01*
X014155Y014366D02*
X010288Y014366D01*
X010297Y014424D02*
X013079Y014424D01*
X013020Y014483D02*
X010297Y014483D01*
X010297Y014541D02*
X013003Y014541D01*
X013003Y014600D02*
X010247Y014600D01*
X010328Y014658D02*
X013003Y014658D01*
X013045Y014717D02*
X010386Y014717D01*
X010338Y014838D02*
X010244Y014744D01*
X010088Y014744D01*
X010088Y014463D01*
X010229Y014307D02*
X014155Y014307D01*
X014155Y014249D02*
X009292Y014249D01*
X009233Y014307D02*
X009946Y014307D01*
X009775Y014525D02*
X009619Y014681D01*
X009619Y016056D01*
X010025Y016463D01*
X010025Y018463D01*
X010213Y018650D01*
X010963Y018650D01*
X011556Y018056D01*
X013213Y018056D01*
X013422Y018051D02*
X013530Y018051D01*
X013530Y017993D02*
X013422Y017993D01*
X013387Y017934D02*
X013530Y017934D01*
X013530Y017876D02*
X013329Y017876D01*
X013530Y017817D02*
X010895Y017817D01*
X010895Y017759D02*
X013530Y017759D01*
X013530Y017700D02*
X010895Y017700D01*
X010895Y017642D02*
X013530Y017642D01*
X013530Y017583D02*
X010895Y017583D01*
X010895Y017525D02*
X013530Y017525D01*
X013530Y017466D02*
X010895Y017466D01*
X010890Y017408D02*
X013488Y017408D01*
X013652Y017232D02*
X013878Y017232D01*
X013878Y017174D02*
X013593Y017174D01*
X013535Y017115D02*
X013878Y017115D01*
X013878Y017057D02*
X013476Y017057D01*
X013418Y016998D02*
X013878Y016998D01*
X013878Y016940D02*
X013359Y016940D01*
X013301Y016881D02*
X013878Y016881D01*
X013878Y016823D02*
X013242Y016823D01*
X013184Y016764D02*
X013878Y016764D01*
X013878Y016706D02*
X013125Y016706D01*
X013067Y016647D02*
X013878Y016647D01*
X013878Y016589D02*
X013008Y016589D01*
X012950Y016530D02*
X013700Y017280D01*
X013770Y017350D01*
X013770Y018325D01*
X013422Y018672D01*
X013422Y018799D01*
X013422Y018753D02*
X013562Y018753D01*
X013621Y018695D02*
X013422Y018695D01*
X013459Y018636D02*
X013679Y018636D01*
X013738Y018578D02*
X013517Y018578D01*
X013576Y018519D02*
X013796Y018519D01*
X013855Y018461D02*
X013634Y018461D01*
X013693Y018402D02*
X013878Y018402D01*
X013878Y018344D02*
X013751Y018344D01*
X013770Y018285D02*
X013878Y018285D01*
X013878Y018227D02*
X013770Y018227D01*
X013770Y018168D02*
X013878Y018168D01*
X013878Y018110D02*
X013770Y018110D01*
X013770Y018051D02*
X013878Y018051D01*
X013878Y017993D02*
X013770Y017993D01*
X013770Y017934D02*
X013878Y017934D01*
X013878Y017876D02*
X013770Y017876D01*
X013770Y017817D02*
X013878Y017817D01*
X013878Y017759D02*
X013770Y017759D01*
X013770Y017700D02*
X013878Y017700D01*
X013878Y017642D02*
X013770Y017642D01*
X013770Y017583D02*
X013878Y017583D01*
X013878Y017525D02*
X013770Y017525D01*
X013770Y017466D02*
X013878Y017466D01*
X013878Y017408D02*
X013770Y017408D01*
X013769Y017349D02*
X013878Y017349D01*
X013878Y017291D02*
X013710Y017291D01*
X013096Y017876D02*
X010895Y017876D01*
X010895Y017934D02*
X013038Y017934D01*
X013086Y018227D02*
X011556Y018227D01*
X011497Y018285D02*
X013470Y018285D01*
X013412Y018344D02*
X011439Y018344D01*
X011380Y018402D02*
X013353Y018402D01*
X013295Y018461D02*
X011322Y018461D01*
X011263Y018519D02*
X013109Y018519D01*
X013050Y018578D02*
X011205Y018578D01*
X011146Y018636D02*
X013003Y018636D01*
X013003Y018695D02*
X012867Y018695D01*
X012925Y018753D02*
X013003Y018753D01*
X013015Y018812D02*
X012984Y018812D01*
X012985Y018870D02*
X013073Y018870D01*
X012985Y018929D02*
X013387Y018929D01*
X013339Y018227D02*
X013529Y018227D01*
X013530Y018168D02*
X013398Y018168D01*
X013422Y018110D02*
X013530Y018110D01*
X012683Y018695D02*
X011088Y018695D01*
X011082Y018700D02*
X011082Y018700D01*
X011029Y018753D02*
X012625Y018753D01*
X012566Y018812D02*
X010046Y018812D01*
X010105Y018870D02*
X012565Y018870D01*
X012565Y018929D02*
X010163Y018929D01*
X010146Y018753D02*
X009988Y018753D01*
X009929Y018695D02*
X010087Y018695D01*
X010029Y018636D02*
X009871Y018636D01*
X009860Y018578D02*
X009970Y018578D01*
X009912Y018519D02*
X009860Y018519D01*
X009860Y018461D02*
X009905Y018461D01*
X009905Y018402D02*
X009860Y018402D01*
X009860Y018344D02*
X009905Y018344D01*
X009905Y018285D02*
X009860Y018285D01*
X009860Y018227D02*
X009905Y018227D01*
X009905Y018168D02*
X009860Y018168D01*
X009860Y018110D02*
X009905Y018110D01*
X009905Y018051D02*
X009860Y018051D01*
X009860Y017993D02*
X009905Y017993D01*
X009905Y017934D02*
X009860Y017934D01*
X009860Y017876D02*
X009905Y017876D01*
X009905Y017817D02*
X009860Y017817D01*
X009860Y017759D02*
X009905Y017759D01*
X009905Y017700D02*
X009860Y017700D01*
X009860Y017642D02*
X009905Y017642D01*
X009905Y017583D02*
X009860Y017583D01*
X009860Y017525D02*
X009905Y017525D01*
X009905Y017466D02*
X009860Y017466D01*
X009860Y017408D02*
X009905Y017408D01*
X009905Y017349D02*
X009860Y017349D01*
X009860Y017291D02*
X009905Y017291D01*
X009905Y017232D02*
X009860Y017232D01*
X009860Y017174D02*
X009905Y017174D01*
X009905Y017115D02*
X009860Y017115D01*
X009860Y017057D02*
X009905Y017057D01*
X009905Y016998D02*
X009860Y016998D01*
X009860Y016940D02*
X009905Y016940D01*
X009905Y016881D02*
X009860Y016881D01*
X009860Y016823D02*
X009905Y016823D01*
X009905Y016764D02*
X009860Y016764D01*
X009860Y016706D02*
X009905Y016706D01*
X009905Y016647D02*
X009841Y016647D01*
X009783Y016589D02*
X009905Y016589D01*
X009905Y016530D02*
X009724Y016530D01*
X009737Y016543D02*
X009737Y016543D01*
X009707Y016472D02*
X009864Y016472D01*
X009806Y016413D02*
X009707Y016413D01*
X009707Y016355D02*
X009747Y016355D01*
X009689Y016296D02*
X009653Y016296D01*
X009630Y016238D02*
X009595Y016238D01*
X009572Y016179D02*
X009536Y016179D01*
X009513Y016121D02*
X009478Y016121D01*
X009499Y016062D02*
X009419Y016062D01*
X009361Y016004D02*
X009499Y016004D01*
X009499Y015945D02*
X009302Y015945D01*
X009244Y015887D02*
X009499Y015887D01*
X009499Y015828D02*
X009185Y015828D01*
X009127Y015770D02*
X009499Y015770D01*
X009499Y015711D02*
X009101Y015711D01*
X009101Y015653D02*
X009499Y015653D01*
X009499Y015594D02*
X009101Y015594D01*
X009101Y015536D02*
X009499Y015536D01*
X009499Y015477D02*
X009101Y015477D01*
X009101Y015419D02*
X009499Y015419D01*
X009499Y015360D02*
X009101Y015360D01*
X009101Y015302D02*
X009499Y015302D01*
X009499Y015243D02*
X009101Y015243D01*
X009101Y015185D02*
X009499Y015185D01*
X009499Y015126D02*
X009101Y015126D01*
X009101Y015068D02*
X009499Y015068D01*
X009499Y015009D02*
X009101Y015009D01*
X009101Y014951D02*
X009499Y014951D01*
X009499Y014892D02*
X009101Y014892D01*
X009101Y014834D02*
X009499Y014834D01*
X009499Y014775D02*
X009101Y014775D01*
X009101Y014717D02*
X009499Y014717D01*
X009499Y014658D02*
X009101Y014658D01*
X009101Y014600D02*
X009531Y014600D01*
X009565Y014541D02*
X009101Y014541D01*
X009101Y014483D02*
X009565Y014483D01*
X009579Y014424D02*
X009116Y014424D01*
X009175Y014366D02*
X009637Y014366D01*
X009409Y014132D02*
X014155Y014132D01*
X014155Y014190D02*
X009350Y014190D01*
X009467Y014073D02*
X014155Y014073D01*
X014155Y014015D02*
X013332Y014015D01*
X013391Y013956D02*
X014155Y013956D01*
X014155Y013898D02*
X013422Y013898D01*
X013422Y013839D02*
X014155Y013839D01*
X014155Y013781D02*
X013439Y013781D01*
X013498Y013722D02*
X014155Y013722D01*
X014155Y013664D02*
X013556Y013664D01*
X013615Y013605D02*
X014155Y013605D01*
X014155Y013547D02*
X013673Y013547D01*
X013732Y013488D02*
X014155Y013488D01*
X014155Y013430D02*
X013790Y013430D01*
X013849Y013371D02*
X014155Y013371D01*
X014155Y013313D02*
X013907Y013313D01*
X013957Y013254D02*
X014155Y013254D01*
X014155Y013196D02*
X013957Y013196D01*
X013957Y013137D02*
X014155Y013137D01*
X014155Y013079D02*
X013957Y013079D01*
X013957Y013020D02*
X014155Y013020D01*
X014155Y012962D02*
X013957Y012962D01*
X013957Y012903D02*
X014155Y012903D01*
X014094Y012845D02*
X013957Y012845D01*
X013957Y012786D02*
X014035Y012786D01*
X013977Y012728D02*
X013957Y012728D01*
X013957Y012669D02*
X013965Y012669D01*
X013957Y012611D02*
X013965Y012611D01*
X013957Y012552D02*
X013965Y012552D01*
X013957Y012494D02*
X013965Y012494D01*
X013957Y012435D02*
X013989Y012435D01*
X013957Y012377D02*
X014048Y012377D01*
X014106Y012318D02*
X013957Y012318D01*
X013957Y012260D02*
X014059Y012260D01*
X014000Y012201D02*
X013957Y012201D01*
X013957Y012143D02*
X013965Y012143D01*
X013957Y012084D02*
X013965Y012084D01*
X013957Y012026D02*
X013965Y012026D01*
X013957Y011967D02*
X013965Y011967D01*
X013957Y011909D02*
X013966Y011909D01*
X013957Y011850D02*
X014024Y011850D01*
X014083Y011792D02*
X013957Y011792D01*
X013957Y011733D02*
X014082Y011733D01*
X014024Y011675D02*
X013957Y011675D01*
X013957Y011616D02*
X013965Y011616D01*
X013957Y011558D02*
X013965Y011558D01*
X013957Y011499D02*
X013965Y011499D01*
X013957Y011441D02*
X013965Y011441D01*
X013957Y011382D02*
X013965Y011382D01*
X013957Y011324D02*
X013966Y011324D01*
X013838Y011275D02*
X013838Y013213D01*
X013213Y013838D01*
X013003Y013839D02*
X009701Y013839D01*
X009643Y013898D02*
X013003Y013898D01*
X013034Y013956D02*
X009584Y013956D01*
X009526Y014015D02*
X013093Y014015D01*
X013003Y013781D02*
X012885Y013781D01*
X012943Y013722D02*
X013031Y013722D01*
X013002Y013664D02*
X013089Y013664D01*
X013060Y013605D02*
X013275Y013605D01*
X013334Y013547D02*
X013119Y013547D01*
X013177Y013488D02*
X013392Y013488D01*
X013451Y013430D02*
X013236Y013430D01*
X013294Y013371D02*
X013509Y013371D01*
X013568Y013313D02*
X013353Y013313D01*
X013411Y013254D02*
X013626Y013254D01*
X013685Y013196D02*
X013470Y013196D01*
X013528Y013137D02*
X013718Y013137D01*
X013718Y013079D02*
X013587Y013079D01*
X013645Y013020D02*
X013718Y013020D01*
X013718Y012962D02*
X013695Y012962D01*
X013695Y012903D02*
X013718Y012903D01*
X013718Y012845D02*
X013706Y012845D01*
X013340Y012845D02*
X012125Y012845D01*
X012110Y012903D02*
X013282Y012903D01*
X013223Y012962D02*
X012110Y012962D01*
X012077Y013020D02*
X013165Y013020D01*
X013106Y013079D02*
X012018Y013079D01*
X011900Y012900D02*
X012713Y012088D01*
X012713Y011213D01*
X013338Y010588D01*
X013713Y010588D01*
X013900Y010775D01*
X013900Y011088D01*
X014238Y011425D01*
X014275Y011488D01*
X014619Y011681D02*
X014619Y010775D01*
X014431Y010588D01*
X014088Y010588D01*
X013838Y010338D01*
X013213Y010338D01*
X012463Y011088D01*
X012463Y011775D01*
X011650Y012588D01*
X011525Y012588D01*
X011338Y012775D01*
X011338Y012963D01*
X011150Y013150D01*
X010963Y013150D01*
X010775Y012963D01*
X010775Y012900D01*
X010565Y012903D02*
X008773Y012903D01*
X008740Y012936D02*
X008550Y012936D01*
X008550Y012952D01*
X008480Y013023D01*
X008380Y013023D01*
X008310Y012952D01*
X008310Y012679D01*
X008312Y012677D01*
X008310Y012675D01*
X008310Y012532D01*
X008321Y012521D01*
X008310Y012510D01*
X008310Y012237D01*
X008364Y012184D01*
X008345Y012177D01*
X008341Y012169D01*
X008332Y012164D01*
X008319Y012125D01*
X008300Y012088D01*
X008304Y012079D01*
X008300Y012070D01*
X008319Y012033D01*
X008332Y011994D01*
X008341Y011990D01*
X008345Y011981D01*
X008384Y011968D01*
X008594Y011863D01*
X008689Y011894D01*
X008733Y011983D01*
X008702Y012078D01*
X008698Y012079D01*
X008702Y012081D01*
X008733Y012175D01*
X008709Y012223D01*
X008800Y012314D01*
X008840Y012274D01*
X008838Y012274D01*
X008817Y012242D01*
X008790Y012216D01*
X008790Y012202D01*
X008783Y012191D01*
X008790Y012154D01*
X008790Y012116D01*
X008799Y012107D01*
X008802Y012094D01*
X008826Y012078D01*
X008790Y012042D01*
X008790Y011943D01*
X008860Y011873D01*
X009134Y011873D01*
X009145Y011865D01*
X009182Y011873D01*
X009220Y011873D01*
X009229Y011882D01*
X009242Y011885D01*
X009263Y011916D01*
X009290Y011943D01*
X009290Y011956D01*
X009298Y011967D01*
X009290Y012004D01*
X009290Y012042D01*
X009281Y012052D01*
X009278Y012065D01*
X009254Y012081D01*
X009290Y012116D01*
X009290Y012216D01*
X009279Y012227D01*
X009290Y012237D01*
X009290Y012510D01*
X009220Y012581D01*
X009121Y012581D01*
X009050Y012510D01*
X009050Y012494D01*
X008860Y012494D01*
X008800Y012434D01*
X008740Y012494D01*
X008555Y012494D01*
X008593Y012532D01*
X008593Y012609D01*
X008653Y012609D01*
X008810Y012766D01*
X008810Y012866D01*
X008809Y012867D01*
X008740Y012936D01*
X008810Y012845D02*
X010565Y012845D01*
X010592Y012786D02*
X008810Y012786D01*
X008772Y012728D02*
X010650Y012728D01*
X010565Y012962D02*
X008541Y012962D01*
X008482Y013020D02*
X010598Y013020D01*
X010657Y013079D02*
X007780Y013079D01*
X007780Y013137D02*
X010366Y013137D01*
X010307Y013196D02*
X007780Y013196D01*
X007780Y013254D02*
X010253Y013254D01*
X010253Y013313D02*
X007780Y013313D01*
X007780Y013371D02*
X010253Y013371D01*
X010258Y013430D02*
X007780Y013430D01*
X007780Y013488D02*
X009572Y013488D01*
X009513Y013547D02*
X007780Y013547D01*
X007780Y013605D02*
X009455Y013605D01*
X009396Y013664D02*
X007780Y013664D01*
X007780Y013722D02*
X009338Y013722D01*
X009279Y013781D02*
X007780Y013781D01*
X007780Y013839D02*
X009221Y013839D01*
X009162Y013898D02*
X007780Y013898D01*
X007780Y013956D02*
X009104Y013956D01*
X009045Y014015D02*
X007780Y014015D01*
X007780Y014073D02*
X008987Y014073D01*
X008928Y014132D02*
X007780Y014132D01*
X007780Y014190D02*
X008870Y014190D01*
X008811Y014249D02*
X007780Y014249D01*
X007780Y014307D02*
X008761Y014307D01*
X008761Y014366D02*
X007780Y014366D01*
X007780Y014424D02*
X008761Y014424D01*
X008761Y014483D02*
X007780Y014483D01*
X007780Y014541D02*
X008761Y014541D01*
X008761Y014600D02*
X007780Y014600D01*
X007780Y014658D02*
X008761Y014658D01*
X008761Y014717D02*
X007780Y014717D01*
X007780Y014775D02*
X008761Y014775D01*
X008761Y014834D02*
X007780Y014834D01*
X007780Y014892D02*
X008761Y014892D01*
X008761Y014951D02*
X007780Y014951D01*
X007780Y015009D02*
X008761Y015009D01*
X008761Y015068D02*
X007780Y015068D01*
X007780Y015126D02*
X008761Y015126D01*
X008761Y015185D02*
X007780Y015185D01*
X007780Y015243D02*
X008761Y015243D01*
X008761Y015302D02*
X007780Y015302D01*
X007780Y015360D02*
X008761Y015360D01*
X008761Y015419D02*
X007780Y015419D01*
X007780Y015477D02*
X008761Y015477D01*
X008761Y015536D02*
X007780Y015536D01*
X007780Y015594D02*
X008761Y015594D01*
X008761Y015653D02*
X007780Y015653D01*
X007780Y015711D02*
X008732Y015711D01*
X008673Y015770D02*
X007780Y015770D01*
X007780Y015828D02*
X008655Y015828D01*
X008655Y015887D02*
X007780Y015887D01*
X007780Y015945D02*
X008655Y015945D01*
X008655Y016004D02*
X007780Y016004D01*
X007780Y016062D02*
X008655Y016062D01*
X008655Y016121D02*
X007780Y016121D01*
X007780Y016179D02*
X008655Y016179D01*
X008655Y016238D02*
X007780Y016238D01*
X007780Y016296D02*
X008689Y016296D01*
X008747Y016355D02*
X007780Y016355D01*
X007780Y016413D02*
X008806Y016413D01*
X008864Y016472D02*
X007780Y016472D01*
X007780Y016530D02*
X008923Y016530D01*
X008981Y016589D02*
X007780Y016589D01*
X007780Y016647D02*
X009040Y016647D01*
X009098Y016706D02*
X007780Y016706D01*
X007780Y016764D02*
X009157Y016764D01*
X009215Y016823D02*
X007780Y016823D01*
X007780Y016881D02*
X009440Y016881D01*
X009440Y016940D02*
X007780Y016940D01*
X007780Y016998D02*
X009440Y016998D01*
X009440Y017057D02*
X007780Y017057D01*
X007780Y017115D02*
X009440Y017115D01*
X009440Y017174D02*
X007780Y017174D01*
X007780Y017232D02*
X009440Y017232D01*
X009440Y017291D02*
X007780Y017291D01*
X007780Y017349D02*
X009440Y017349D01*
X009440Y017408D02*
X007780Y017408D01*
X007780Y017466D02*
X009440Y017466D01*
X009440Y017525D02*
X007780Y017525D01*
X007780Y017583D02*
X009440Y017583D01*
X009440Y017642D02*
X007780Y017642D01*
X007780Y017700D02*
X009440Y017700D01*
X009307Y017759D02*
X007780Y017759D01*
X007780Y017817D02*
X009248Y017817D01*
X010145Y017817D02*
X010248Y017817D01*
X010280Y017759D02*
X010145Y017759D01*
X010145Y017700D02*
X010280Y017700D01*
X010280Y017642D02*
X010145Y017642D01*
X010145Y017583D02*
X010280Y017583D01*
X010280Y017525D02*
X010145Y017525D01*
X010145Y017466D02*
X010234Y017466D01*
X010175Y017408D02*
X010145Y017408D01*
X010145Y017349D02*
X010155Y017349D01*
X010145Y017291D02*
X010155Y017291D01*
X010145Y017232D02*
X010155Y017232D01*
X010145Y017174D02*
X010155Y017174D01*
X010145Y017115D02*
X010155Y017115D01*
X010145Y017057D02*
X010155Y017057D01*
X010145Y016998D02*
X010155Y016998D01*
X010145Y016940D02*
X010155Y016940D01*
X010145Y016881D02*
X010155Y016881D01*
X010145Y016823D02*
X010155Y016823D01*
X010145Y016764D02*
X010155Y016764D01*
X010145Y016706D02*
X010155Y016706D01*
X010145Y016647D02*
X010155Y016647D01*
X010145Y016589D02*
X010155Y016589D01*
X010275Y016525D02*
X010275Y017338D01*
X010400Y017463D01*
X010400Y017963D01*
X010250Y018110D02*
X010145Y018110D01*
X010145Y018168D02*
X010210Y018168D01*
X010190Y018227D02*
X010145Y018227D01*
X010145Y018285D02*
X010190Y018285D01*
X010190Y018344D02*
X010145Y018344D01*
X010145Y018402D02*
X010230Y018402D01*
X010193Y018461D02*
X010289Y018461D01*
X010251Y018519D02*
X010924Y018519D01*
X010886Y018461D02*
X010982Y018461D01*
X010945Y018402D02*
X011041Y018402D01*
X010985Y018344D02*
X011099Y018344D01*
X011158Y018285D02*
X010985Y018285D01*
X010985Y018227D02*
X011216Y018227D01*
X011275Y018168D02*
X010965Y018168D01*
X010907Y018110D02*
X011333Y018110D01*
X011392Y018051D02*
X010895Y018051D01*
X010895Y017993D02*
X011450Y017993D01*
X010775Y018275D02*
X010775Y017463D01*
X010525Y017213D01*
X010400Y017275D02*
X010650Y017525D01*
X010650Y018025D01*
X010400Y018275D01*
X010570Y018402D02*
X010605Y018402D01*
X010664Y018461D02*
X010511Y018461D01*
X010192Y018051D02*
X010145Y018051D01*
X010145Y017993D02*
X010190Y017993D01*
X010190Y017934D02*
X010145Y017934D01*
X010400Y017275D02*
X010400Y016463D01*
X009869Y015931D01*
X009869Y015181D01*
X010088Y014963D01*
X012963Y014963D01*
X013119Y015119D01*
X013306Y015119D01*
X013431Y014994D01*
X013431Y014806D01*
X013213Y014588D01*
X013150Y014838D02*
X010338Y014838D01*
X010088Y014744D02*
X009994Y014744D01*
X009744Y014994D01*
X009744Y015994D01*
X010275Y016525D01*
X010474Y016179D02*
X010570Y016179D01*
X010565Y016121D02*
X010415Y016121D01*
X010357Y016062D02*
X010565Y016062D01*
X010565Y016004D02*
X010298Y016004D01*
X010240Y015945D02*
X010620Y015945D01*
X010679Y015887D02*
X010207Y015887D01*
X010207Y015828D02*
X010865Y015828D01*
X010923Y015770D02*
X010207Y015770D01*
X010207Y015711D02*
X010982Y015711D01*
X011040Y015653D02*
X010207Y015653D01*
X010207Y015594D02*
X011099Y015594D01*
X010297Y015360D02*
X013583Y015360D01*
X013624Y015302D02*
X010297Y015302D01*
X010241Y015419D02*
X013524Y015419D01*
X013466Y015477D02*
X010207Y015477D01*
X010207Y015536D02*
X013407Y015536D01*
X013400Y015713D02*
X013744Y015369D01*
X013744Y015056D01*
X014275Y014525D01*
X014275Y012588D01*
X014502Y012377D02*
X014801Y012377D01*
X014801Y012435D02*
X014561Y012435D01*
X014585Y012494D02*
X014801Y012494D01*
X014801Y012552D02*
X014585Y012552D01*
X014585Y012611D02*
X014801Y012611D01*
X014801Y012669D02*
X014585Y012669D01*
X014573Y012728D02*
X014801Y012728D01*
X014801Y012786D02*
X014515Y012786D01*
X014456Y012845D02*
X014801Y012845D01*
X014801Y012903D02*
X014395Y012903D01*
X014395Y012962D02*
X014801Y012962D01*
X014801Y013020D02*
X014395Y013020D01*
X014395Y013079D02*
X014801Y013079D01*
X014801Y013137D02*
X014395Y013137D01*
X014395Y013196D02*
X014801Y013196D01*
X014801Y013254D02*
X014395Y013254D01*
X014395Y013313D02*
X014801Y013313D01*
X014801Y013371D02*
X014395Y013371D01*
X014395Y013430D02*
X014801Y013430D01*
X014801Y013488D02*
X014395Y013488D01*
X014395Y013547D02*
X014801Y013547D01*
X014801Y013605D02*
X014395Y013605D01*
X014395Y013664D02*
X014801Y013664D01*
X014801Y013722D02*
X014395Y013722D01*
X014395Y013781D02*
X014801Y013781D01*
X014801Y013839D02*
X014395Y013839D01*
X014395Y013898D02*
X014801Y013898D01*
X014801Y013956D02*
X014395Y013956D01*
X014395Y014015D02*
X014801Y014015D01*
X014801Y014073D02*
X014395Y014073D01*
X014395Y014132D02*
X014801Y014132D01*
X014801Y014190D02*
X014395Y014190D01*
X014395Y014249D02*
X014801Y014249D01*
X014801Y014307D02*
X014395Y014307D01*
X014395Y014366D02*
X014801Y014366D01*
X014801Y014424D02*
X014395Y014424D01*
X014395Y014483D02*
X014801Y014483D01*
X014801Y014541D02*
X014395Y014541D01*
X014370Y014600D02*
X014801Y014600D01*
X014801Y014658D02*
X014312Y014658D01*
X014253Y014717D02*
X014801Y014717D01*
X014801Y014775D02*
X014195Y014775D01*
X014136Y014834D02*
X014801Y014834D01*
X014801Y014892D02*
X014078Y014892D01*
X014019Y014951D02*
X014801Y014951D01*
X013213Y014900D02*
X013150Y014838D01*
X012755Y013430D02*
X010667Y013430D01*
X010672Y013371D02*
X012814Y013371D01*
X012872Y013313D02*
X010672Y013313D01*
X010672Y013254D02*
X010897Y013254D01*
X010838Y013196D02*
X010618Y013196D01*
X010559Y013137D02*
X010780Y013137D01*
X011088Y012900D02*
X011088Y012275D01*
X011713Y011650D01*
X011859Y011499D02*
X012343Y011499D01*
X012343Y011441D02*
X011800Y011441D01*
X011917Y011558D02*
X012343Y011558D01*
X012343Y011616D02*
X011922Y011616D01*
X011922Y011675D02*
X012343Y011675D01*
X012335Y011733D02*
X011922Y011733D01*
X011868Y011792D02*
X012276Y011792D01*
X012218Y011850D02*
X011809Y011850D01*
X011624Y011909D02*
X012159Y011909D01*
X012101Y011967D02*
X011565Y011967D01*
X011507Y012026D02*
X012042Y012026D01*
X011984Y012084D02*
X011448Y012084D01*
X011390Y012143D02*
X011925Y012143D01*
X011867Y012201D02*
X011331Y012201D01*
X011273Y012260D02*
X011808Y012260D01*
X011750Y012318D02*
X011214Y012318D01*
X011207Y012377D02*
X011691Y012377D01*
X011633Y012435D02*
X011207Y012435D01*
X011207Y012494D02*
X011449Y012494D01*
X011391Y012552D02*
X011207Y012552D01*
X011207Y012611D02*
X011332Y012611D01*
X011274Y012669D02*
X011207Y012669D01*
X011212Y012728D02*
X011218Y012728D01*
X011588Y012900D02*
X012588Y011900D01*
X012588Y011150D01*
X013275Y010463D01*
X013775Y010463D01*
X014150Y010838D01*
X014238Y010838D01*
X014275Y010938D01*
X014739Y010914D02*
X014801Y010914D01*
X014801Y010856D02*
X014739Y010856D01*
X014739Y010797D02*
X014801Y010797D01*
X014801Y010739D02*
X014739Y010739D01*
X014693Y010680D02*
X014801Y010680D01*
X014801Y010622D02*
X014635Y010622D01*
X014576Y010563D02*
X014801Y010563D01*
X014797Y010505D02*
X014518Y010505D01*
X014688Y010329D02*
X013999Y010329D01*
X014057Y010388D02*
X014746Y010388D01*
X014776Y010446D02*
X014116Y010446D01*
X013525Y010938D02*
X013525Y010963D01*
X013838Y011275D01*
X013495Y011499D02*
X012832Y011499D01*
X012832Y011441D02*
X013215Y011441D01*
X013215Y011382D02*
X012832Y011382D01*
X012832Y011324D02*
X013251Y011324D01*
X013309Y011265D02*
X012832Y011265D01*
X012888Y011207D02*
X013356Y011207D01*
X013297Y011148D02*
X012947Y011148D01*
X013005Y011090D02*
X013239Y011090D01*
X013215Y011031D02*
X013064Y011031D01*
X013122Y010973D02*
X013215Y010973D01*
X013215Y010914D02*
X013181Y010914D01*
X012817Y010563D02*
X009280Y010563D01*
X009280Y010505D02*
X012876Y010505D01*
X012934Y010446D02*
X009280Y010446D01*
X009280Y010388D02*
X012993Y010388D01*
X013051Y010329D02*
X009280Y010329D01*
X009280Y010622D02*
X012759Y010622D01*
X012700Y010680D02*
X009280Y010680D01*
X009280Y010739D02*
X012642Y010739D01*
X012583Y010797D02*
X009280Y010797D01*
X009280Y010856D02*
X012525Y010856D01*
X012466Y010914D02*
X009280Y010914D01*
X009281Y010973D02*
X012408Y010973D01*
X012349Y011031D02*
X009275Y011031D01*
X009268Y011090D02*
X012343Y011090D01*
X012343Y011148D02*
X009256Y011148D01*
X009240Y011207D02*
X012343Y011207D01*
X012343Y011265D02*
X009219Y011265D01*
X009193Y011324D02*
X012343Y011324D01*
X012343Y011382D02*
X009160Y011382D01*
X009122Y011441D02*
X011625Y011441D01*
X011566Y011499D02*
X009074Y011499D01*
X009021Y011558D02*
X011508Y011558D01*
X011503Y011616D02*
X008948Y011616D01*
X008857Y011675D02*
X011503Y011675D01*
X011460Y011733D02*
X008728Y011733D01*
X008696Y011909D02*
X008824Y011909D01*
X008790Y011967D02*
X008725Y011967D01*
X008719Y012026D02*
X008790Y012026D01*
X008817Y012084D02*
X008703Y012084D01*
X008722Y012143D02*
X008790Y012143D01*
X008789Y012201D02*
X008720Y012201D01*
X008746Y012260D02*
X008828Y012260D01*
X008910Y012166D02*
X009170Y012166D01*
X009258Y012084D02*
X011109Y012084D01*
X011167Y012026D02*
X009290Y012026D01*
X009297Y011967D02*
X011226Y011967D01*
X011284Y011909D02*
X009258Y011909D01*
X009170Y011993D02*
X008910Y012166D01*
X008910Y011993D02*
X009170Y011993D01*
X009290Y012143D02*
X011050Y012143D01*
X010992Y012201D02*
X009290Y012201D01*
X009290Y012260D02*
X010968Y012260D01*
X010968Y012318D02*
X009290Y012318D01*
X009290Y012377D02*
X010968Y012377D01*
X010968Y012435D02*
X009290Y012435D01*
X009290Y012494D02*
X010968Y012494D01*
X010968Y012552D02*
X009249Y012552D01*
X009170Y012461D02*
X009170Y012287D01*
X009170Y012374D02*
X008910Y012374D01*
X008801Y012435D02*
X008799Y012435D01*
X008740Y012494D02*
X008860Y012494D01*
X008690Y012374D02*
X008430Y012374D01*
X008430Y012287D02*
X008430Y012461D01*
X008430Y012582D02*
X008430Y012625D01*
X008473Y012625D01*
X008473Y012582D01*
X008430Y012582D01*
X008310Y012611D02*
X007780Y012611D01*
X007780Y012669D02*
X008310Y012669D01*
X008310Y012728D02*
X007780Y012728D01*
X007780Y012786D02*
X008310Y012786D01*
X008310Y012845D02*
X007780Y012845D01*
X007780Y012903D02*
X008310Y012903D01*
X008319Y012962D02*
X007780Y012962D01*
X007780Y013020D02*
X008378Y013020D01*
X008430Y012903D02*
X008430Y012729D01*
X008430Y012816D02*
X008690Y012816D01*
X008603Y012729D01*
X008713Y012669D02*
X010968Y012669D01*
X010968Y012611D02*
X008655Y012611D01*
X008593Y012552D02*
X009092Y012552D01*
X008690Y012374D02*
X008603Y012287D01*
X008603Y012166D02*
X008430Y012079D01*
X008603Y011993D01*
X008503Y011909D02*
X007780Y011909D01*
X007780Y011967D02*
X008386Y011967D01*
X008321Y012026D02*
X007780Y012026D01*
X007780Y012084D02*
X008302Y012084D01*
X008325Y012143D02*
X007780Y012143D01*
X007780Y012201D02*
X008346Y012201D01*
X008310Y012260D02*
X007780Y012260D01*
X007780Y012318D02*
X008310Y012318D01*
X008310Y012377D02*
X007780Y012377D01*
X007780Y012435D02*
X008310Y012435D01*
X008310Y012494D02*
X007780Y012494D01*
X007780Y012552D02*
X008310Y012552D01*
X007780Y011850D02*
X011343Y011850D01*
X011401Y011792D02*
X007780Y011792D01*
X010454Y010280D02*
X010454Y010280D01*
X010580Y008169D02*
X012720Y008169D01*
X012767Y008148D01*
X012767Y008148D01*
X012844Y008146D01*
X012846Y008144D01*
X012898Y008144D01*
X012950Y008142D01*
X012951Y008144D01*
X014018Y008144D01*
X014070Y008139D01*
X014165Y008100D01*
X014237Y008027D01*
X014277Y007932D01*
X014282Y007880D01*
X014282Y005952D01*
X014281Y005951D01*
X014282Y005899D01*
X014282Y005846D01*
X014283Y005845D01*
X014284Y005770D01*
X014301Y005732D01*
X014301Y003568D01*
X014284Y003530D01*
X014284Y003530D01*
X014283Y003455D01*
X014282Y003454D01*
X014282Y003401D01*
X014281Y003349D01*
X014282Y003348D01*
X014282Y000794D01*
X014277Y000742D01*
X014237Y000647D01*
X014165Y000574D01*
X014070Y000535D01*
X014018Y000530D01*
X009294Y000530D01*
X009242Y000535D01*
X009147Y000574D01*
X009074Y000647D01*
X009035Y000742D01*
X009030Y000794D01*
X009030Y003348D01*
X009032Y003350D01*
X009030Y003402D01*
X009030Y003454D01*
X009030Y003454D01*
X009030Y005846D01*
X009030Y005898D01*
X009032Y005950D01*
X009030Y005952D01*
X009030Y007880D01*
X009035Y007932D01*
X009074Y008027D01*
X009147Y008100D01*
X009242Y008139D01*
X009294Y008144D01*
X010349Y008144D01*
X010350Y008142D01*
X010402Y008144D01*
X010454Y008144D01*
X010456Y008146D01*
X010533Y008148D01*
X010580Y008169D01*
X010569Y008165D02*
X012731Y008165D01*
X012089Y007945D02*
X012049Y007985D01*
X011876Y007985D01*
X011804Y007913D01*
X011737Y007980D01*
X011563Y007980D01*
X011440Y007857D01*
X011440Y007735D01*
X010874Y007168D01*
X010874Y005889D01*
X010784Y005799D01*
X010784Y005626D01*
X010907Y005503D01*
X011081Y005503D01*
X011204Y005626D01*
X011204Y005799D01*
X011114Y005889D01*
X011114Y007069D01*
X011605Y007560D01*
X011737Y007560D01*
X011809Y007632D01*
X011833Y007608D01*
X011833Y007534D01*
X011909Y007458D01*
X012100Y007266D01*
X012032Y007266D01*
X011942Y007176D01*
X011757Y007176D01*
X011686Y007106D01*
X011530Y006950D01*
X011530Y005450D01*
X010761Y004680D01*
X010728Y004713D01*
X010797Y004782D01*
X010797Y004956D01*
X010728Y005025D01*
X010797Y005094D01*
X010797Y005268D01*
X010707Y005358D01*
X010707Y005512D01*
X010637Y005582D01*
X010020Y006200D01*
X010020Y006569D01*
X010176Y006725D01*
X010176Y007106D01*
X010047Y007235D01*
X010047Y007268D01*
X009924Y007391D01*
X009751Y007391D01*
X009628Y007268D01*
X009628Y007094D01*
X009697Y007025D01*
X009628Y006956D01*
X009628Y006828D01*
X009593Y006793D01*
X009593Y006100D01*
X009663Y006030D01*
X010218Y005475D01*
X010218Y004975D01*
X010378Y004815D01*
X010378Y004782D01*
X010447Y004713D01*
X010378Y004643D01*
X010378Y004530D01*
X010145Y004762D01*
X010145Y005450D01*
X009520Y006075D01*
X009520Y007288D01*
X009637Y007405D01*
X010163Y007405D01*
X010280Y007288D01*
X010280Y006672D01*
X010251Y006672D01*
X010128Y006549D01*
X010128Y006376D01*
X010251Y006253D01*
X010424Y006253D01*
X010547Y006376D01*
X010547Y006549D01*
X010520Y006577D01*
X010520Y007387D01*
X010450Y007457D01*
X010332Y007575D01*
X010262Y007645D01*
X009538Y007645D01*
X009350Y007457D01*
X009280Y007387D01*
X009280Y005975D01*
X009905Y005350D01*
X009905Y004663D01*
X010378Y004190D01*
X010378Y004157D01*
X010501Y004034D01*
X010674Y004034D01*
X010797Y004157D01*
X010797Y004331D01*
X010728Y004400D01*
X010764Y004436D01*
X010856Y004436D01*
X011770Y005350D01*
X011770Y006850D01*
X011856Y006936D01*
X011942Y006936D01*
X011856Y006936D01*
X011893Y006878D02*
X011797Y006878D01*
X011770Y006819D02*
X011846Y006819D01*
X011846Y006831D02*
X011846Y006657D01*
X011969Y006534D01*
X012143Y006534D01*
X012223Y006614D01*
X012266Y006614D01*
X012423Y006770D01*
X012499Y006846D01*
X012499Y007235D01*
X012129Y007605D01*
X013267Y007605D01*
X013418Y007455D01*
X013418Y005941D01*
X013204Y006155D01*
X012286Y006155D01*
X012206Y006235D01*
X012032Y006235D01*
X011909Y006112D01*
X011909Y005938D01*
X012032Y005815D01*
X012206Y005815D01*
X012286Y005895D01*
X013096Y005895D01*
X013280Y005711D01*
X013280Y005520D01*
X013017Y005257D01*
X012918Y005158D01*
X012918Y003382D01*
X011087Y003382D01*
X011051Y003418D01*
X010981Y003489D01*
X010632Y003489D01*
X010542Y003399D01*
X009820Y004068D01*
X009820Y004273D01*
X009860Y004313D01*
X009860Y004487D01*
X009737Y004610D01*
X009563Y004610D01*
X009440Y004487D01*
X009440Y004313D01*
X009480Y004273D01*
X009480Y004060D01*
X009477Y004058D01*
X009480Y003993D01*
X009218Y003731D01*
X009218Y002639D01*
X009128Y002549D01*
X009128Y002376D01*
X009251Y002253D01*
X009424Y002253D01*
X009547Y002376D01*
X009547Y002549D01*
X009457Y002639D01*
X009457Y003632D01*
X009618Y003792D01*
X010376Y003090D01*
X010423Y003043D01*
X010427Y003043D01*
X010430Y003040D01*
X010497Y003043D01*
X010557Y003043D01*
X010600Y002999D01*
X010983Y002999D01*
X010971Y002987D01*
X010971Y002813D01*
X011094Y002690D01*
X011268Y002690D01*
X011358Y002780D01*
X011538Y002780D01*
X012315Y002003D01*
X012315Y001876D01*
X012438Y001753D01*
X012612Y001753D01*
X012735Y001876D01*
X012735Y002049D01*
X012612Y002172D01*
X012485Y002172D01*
X011637Y003020D01*
X011358Y003020D01*
X011336Y003043D01*
X013304Y003043D01*
X013344Y003003D01*
X013518Y003003D01*
X013641Y003126D01*
X013641Y003299D01*
X013518Y003422D01*
X013344Y003422D01*
X013304Y003382D01*
X013257Y003382D01*
X013257Y005017D01*
X013520Y005280D01*
X013637Y005280D01*
X013707Y005350D01*
X013832Y005475D01*
X013832Y005825D01*
X013762Y005895D01*
X013757Y005900D01*
X013757Y007595D01*
X013658Y007695D01*
X013658Y007695D01*
X013507Y007845D01*
X013507Y007845D01*
X013408Y007945D01*
X012089Y007945D01*
X011821Y007931D02*
X011786Y007931D01*
X011650Y007770D02*
X011645Y007770D01*
X010994Y007119D01*
X010994Y005713D01*
X011204Y005708D02*
X011530Y005708D01*
X011530Y005766D02*
X011204Y005766D01*
X011179Y005825D02*
X011530Y005825D01*
X011530Y005883D02*
X011120Y005883D01*
X011114Y005942D02*
X011530Y005942D01*
X011530Y006000D02*
X011114Y006000D01*
X011114Y006059D02*
X011530Y006059D01*
X011530Y006117D02*
X011114Y006117D01*
X011114Y006176D02*
X011530Y006176D01*
X011530Y006234D02*
X011114Y006234D01*
X011114Y006293D02*
X011530Y006293D01*
X011530Y006351D02*
X011114Y006351D01*
X011114Y006410D02*
X011530Y006410D01*
X011530Y006468D02*
X011114Y006468D01*
X011114Y006527D02*
X011530Y006527D01*
X011530Y006585D02*
X011114Y006585D01*
X011114Y006644D02*
X011530Y006644D01*
X011530Y006702D02*
X011114Y006702D01*
X011114Y006761D02*
X011530Y006761D01*
X011530Y006819D02*
X011114Y006819D01*
X011114Y006878D02*
X011530Y006878D01*
X011530Y006936D02*
X011114Y006936D01*
X011114Y006995D02*
X011575Y006995D01*
X011633Y007053D02*
X011114Y007053D01*
X011156Y007112D02*
X011692Y007112D01*
X011750Y007170D02*
X011215Y007170D01*
X011273Y007229D02*
X011994Y007229D01*
X012079Y007287D02*
X011332Y007287D01*
X011390Y007346D02*
X012021Y007346D01*
X011962Y007404D02*
X011449Y007404D01*
X011507Y007463D02*
X011904Y007463D01*
X011845Y007521D02*
X011566Y007521D01*
X011757Y007580D02*
X011833Y007580D01*
X012154Y007580D02*
X013293Y007580D01*
X013351Y007521D02*
X012213Y007521D01*
X012271Y007463D02*
X013410Y007463D01*
X013418Y007404D02*
X012330Y007404D01*
X012388Y007346D02*
X013418Y007346D01*
X013418Y007287D02*
X012447Y007287D01*
X012499Y007229D02*
X013418Y007229D01*
X013418Y007170D02*
X012499Y007170D01*
X012499Y007112D02*
X013418Y007112D01*
X013418Y007053D02*
X012499Y007053D01*
X012499Y006995D02*
X013418Y006995D01*
X013418Y006936D02*
X012499Y006936D01*
X012499Y006878D02*
X013418Y006878D01*
X013418Y006819D02*
X012472Y006819D01*
X012413Y006761D02*
X013418Y006761D01*
X013418Y006702D02*
X012355Y006702D01*
X012296Y006644D02*
X013418Y006644D01*
X013418Y006585D02*
X012195Y006585D01*
X012207Y006234D02*
X013418Y006234D01*
X013418Y006176D02*
X012265Y006176D01*
X012031Y006234D02*
X011770Y006234D01*
X011770Y006176D02*
X011972Y006176D01*
X011914Y006117D02*
X011770Y006117D01*
X011770Y006059D02*
X011909Y006059D01*
X011909Y006000D02*
X011770Y006000D01*
X011770Y005942D02*
X011909Y005942D01*
X011964Y005883D02*
X011770Y005883D01*
X011770Y005825D02*
X012022Y005825D01*
X012215Y005825D02*
X013167Y005825D01*
X013108Y005883D02*
X012274Y005883D01*
X011770Y005766D02*
X013225Y005766D01*
X013280Y005708D02*
X011770Y005708D01*
X011770Y005649D02*
X013280Y005649D01*
X013280Y005591D02*
X011770Y005591D01*
X011770Y005532D02*
X013280Y005532D01*
X013233Y005474D02*
X011770Y005474D01*
X011770Y005415D02*
X013175Y005415D01*
X013116Y005357D02*
X011770Y005357D01*
X011718Y005298D02*
X013058Y005298D01*
X012999Y005240D02*
X011659Y005240D01*
X011601Y005181D02*
X012941Y005181D01*
X012918Y005123D02*
X011542Y005123D01*
X011484Y005064D02*
X012918Y005064D01*
X012918Y005006D02*
X011425Y005006D01*
X011367Y004947D02*
X012918Y004947D01*
X012918Y004889D02*
X011308Y004889D01*
X011250Y004830D02*
X012918Y004830D01*
X012918Y004772D02*
X011191Y004772D01*
X011133Y004713D02*
X012918Y004713D01*
X012918Y004655D02*
X011074Y004655D01*
X011016Y004596D02*
X012918Y004596D01*
X012918Y004538D02*
X010957Y004538D01*
X010899Y004479D02*
X012918Y004479D01*
X012918Y004421D02*
X010749Y004421D01*
X010766Y004362D02*
X012918Y004362D01*
X012918Y004304D02*
X010797Y004304D01*
X010797Y004245D02*
X012918Y004245D01*
X012918Y004187D02*
X010797Y004187D01*
X010769Y004128D02*
X012918Y004128D01*
X012918Y004070D02*
X010710Y004070D01*
X010588Y004244D02*
X010494Y004244D01*
X010025Y004713D01*
X010025Y005400D01*
X009400Y006025D01*
X009400Y007338D01*
X009588Y007525D01*
X010213Y007525D01*
X010400Y007338D01*
X010400Y006525D01*
X010338Y006463D01*
X010547Y006468D02*
X010874Y006468D01*
X010874Y006410D02*
X010547Y006410D01*
X010523Y006351D02*
X010874Y006351D01*
X010874Y006293D02*
X010465Y006293D01*
X010547Y006527D02*
X010874Y006527D01*
X010874Y006585D02*
X010520Y006585D01*
X010520Y006644D02*
X010874Y006644D01*
X010874Y006702D02*
X010520Y006702D01*
X010520Y006761D02*
X010874Y006761D01*
X010874Y006819D02*
X010520Y006819D01*
X010520Y006878D02*
X010874Y006878D01*
X010874Y006936D02*
X010520Y006936D01*
X010520Y006995D02*
X010874Y006995D01*
X010874Y007053D02*
X010520Y007053D01*
X010520Y007112D02*
X010874Y007112D01*
X010875Y007170D02*
X010520Y007170D01*
X010520Y007229D02*
X010934Y007229D01*
X010992Y007287D02*
X010520Y007287D01*
X010520Y007346D02*
X011051Y007346D01*
X011109Y007404D02*
X010503Y007404D01*
X010445Y007463D02*
X011168Y007463D01*
X011226Y007521D02*
X010386Y007521D01*
X010328Y007580D02*
X011285Y007580D01*
X011343Y007638D02*
X010269Y007638D01*
X010164Y007404D02*
X009636Y007404D01*
X009578Y007346D02*
X009705Y007346D01*
X009646Y007287D02*
X009520Y007287D01*
X009520Y007229D02*
X009628Y007229D01*
X009628Y007170D02*
X009520Y007170D01*
X009520Y007112D02*
X009628Y007112D01*
X009669Y007053D02*
X009520Y007053D01*
X009520Y006995D02*
X009666Y006995D01*
X009628Y006936D02*
X009520Y006936D01*
X009520Y006878D02*
X009628Y006878D01*
X009618Y006819D02*
X009520Y006819D01*
X009520Y006761D02*
X009593Y006761D01*
X009593Y006702D02*
X009520Y006702D01*
X009520Y006644D02*
X009593Y006644D01*
X009593Y006585D02*
X009520Y006585D01*
X009520Y006527D02*
X009593Y006527D01*
X009593Y006468D02*
X009520Y006468D01*
X009520Y006410D02*
X009593Y006410D01*
X009593Y006351D02*
X009520Y006351D01*
X009520Y006293D02*
X009593Y006293D01*
X009593Y006234D02*
X009520Y006234D01*
X009520Y006176D02*
X009593Y006176D01*
X009593Y006117D02*
X009520Y006117D01*
X009536Y006059D02*
X009634Y006059D01*
X009595Y006000D02*
X009693Y006000D01*
X009653Y005942D02*
X009751Y005942D01*
X009712Y005883D02*
X009810Y005883D01*
X009770Y005825D02*
X009868Y005825D01*
X009829Y005766D02*
X009927Y005766D01*
X009887Y005708D02*
X009985Y005708D01*
X009946Y005649D02*
X010044Y005649D01*
X010004Y005591D02*
X010102Y005591D01*
X010063Y005532D02*
X010161Y005532D01*
X010121Y005474D02*
X010218Y005474D01*
X010218Y005415D02*
X010145Y005415D01*
X010145Y005357D02*
X010218Y005357D01*
X010218Y005298D02*
X010145Y005298D01*
X010145Y005240D02*
X010218Y005240D01*
X010218Y005181D02*
X010145Y005181D01*
X010145Y005123D02*
X010218Y005123D01*
X010218Y005064D02*
X010145Y005064D01*
X010145Y005006D02*
X010218Y005006D01*
X010246Y004947D02*
X010145Y004947D01*
X010145Y004889D02*
X010304Y004889D01*
X010363Y004830D02*
X010145Y004830D01*
X010145Y004772D02*
X010388Y004772D01*
X010446Y004713D02*
X010194Y004713D01*
X010253Y004655D02*
X010389Y004655D01*
X010378Y004596D02*
X010311Y004596D01*
X010370Y004538D02*
X010378Y004538D01*
X010588Y004556D02*
X010806Y004556D01*
X011650Y005400D01*
X011650Y006900D01*
X011806Y007056D01*
X012119Y007056D01*
X011947Y006931D02*
X011846Y006831D01*
X011846Y006761D02*
X011770Y006761D01*
X011770Y006702D02*
X011846Y006702D01*
X011859Y006644D02*
X011770Y006644D01*
X011770Y006585D02*
X011918Y006585D01*
X011770Y006527D02*
X013418Y006527D01*
X013418Y006468D02*
X011770Y006468D01*
X011770Y006410D02*
X013418Y006410D01*
X013418Y006351D02*
X011770Y006351D01*
X011770Y006293D02*
X013418Y006293D01*
X013418Y006117D02*
X013242Y006117D01*
X013300Y006059D02*
X013418Y006059D01*
X013418Y006000D02*
X013359Y006000D01*
X013417Y005942D02*
X013418Y005942D01*
X013525Y005838D02*
X013400Y005713D01*
X013400Y005400D01*
X013588Y005400D01*
X013713Y005525D01*
X013713Y005775D01*
X013650Y005838D01*
X013525Y005838D01*
X013512Y005825D02*
X013663Y005825D01*
X013713Y005766D02*
X013454Y005766D01*
X013400Y005708D02*
X013713Y005708D01*
X013713Y005649D02*
X013400Y005649D01*
X013400Y005591D02*
X013713Y005591D01*
X013713Y005532D02*
X013400Y005532D01*
X013400Y005474D02*
X013661Y005474D01*
X013603Y005415D02*
X013400Y005415D01*
X013480Y005240D02*
X014301Y005240D01*
X014301Y005298D02*
X013655Y005298D01*
X013714Y005357D02*
X014301Y005357D01*
X014301Y005415D02*
X013772Y005415D01*
X013831Y005474D02*
X014301Y005474D01*
X014301Y005532D02*
X013832Y005532D01*
X013832Y005591D02*
X014301Y005591D01*
X014301Y005649D02*
X013832Y005649D01*
X013832Y005708D02*
X014301Y005708D01*
X014286Y005766D02*
X013832Y005766D01*
X013832Y005825D02*
X014283Y005825D01*
X014284Y005770D02*
X014284Y005770D01*
X014282Y005883D02*
X013774Y005883D01*
X013757Y005942D02*
X014281Y005942D01*
X014282Y006000D02*
X013757Y006000D01*
X013757Y006059D02*
X014282Y006059D01*
X014282Y006117D02*
X013757Y006117D01*
X013757Y006176D02*
X014282Y006176D01*
X014282Y006234D02*
X013757Y006234D01*
X013757Y006293D02*
X014282Y006293D01*
X014282Y006351D02*
X013757Y006351D01*
X013757Y006410D02*
X014282Y006410D01*
X014282Y006468D02*
X013757Y006468D01*
X013757Y006527D02*
X014282Y006527D01*
X014282Y006585D02*
X013757Y006585D01*
X013757Y006644D02*
X014282Y006644D01*
X014282Y006702D02*
X013757Y006702D01*
X013757Y006761D02*
X014282Y006761D01*
X014282Y006819D02*
X013757Y006819D01*
X013757Y006878D02*
X014282Y006878D01*
X014282Y006936D02*
X013757Y006936D01*
X013757Y006995D02*
X014282Y006995D01*
X014282Y007053D02*
X013757Y007053D01*
X013757Y007112D02*
X014282Y007112D01*
X014282Y007170D02*
X013757Y007170D01*
X013757Y007229D02*
X014282Y007229D01*
X014282Y007287D02*
X013757Y007287D01*
X013757Y007346D02*
X014282Y007346D01*
X014282Y007404D02*
X013757Y007404D01*
X013757Y007463D02*
X014282Y007463D01*
X014282Y007521D02*
X013757Y007521D01*
X013757Y007580D02*
X014282Y007580D01*
X014282Y007638D02*
X013715Y007638D01*
X013656Y007697D02*
X014282Y007697D01*
X014282Y007755D02*
X013598Y007755D01*
X013539Y007814D02*
X014282Y007814D01*
X014282Y007872D02*
X013481Y007872D01*
X013422Y007931D02*
X014277Y007931D01*
X014253Y007989D02*
X009059Y007989D01*
X009035Y007931D02*
X011514Y007931D01*
X011455Y007872D02*
X009030Y007872D01*
X009030Y007814D02*
X011440Y007814D01*
X011440Y007755D02*
X009030Y007755D01*
X009030Y007697D02*
X011402Y007697D01*
X011942Y006936D02*
X011947Y006931D01*
X010874Y006234D02*
X010020Y006234D01*
X010020Y006293D02*
X010210Y006293D01*
X010152Y006351D02*
X010020Y006351D01*
X010020Y006410D02*
X010128Y006410D01*
X010128Y006468D02*
X010020Y006468D01*
X010020Y006527D02*
X010128Y006527D01*
X010163Y006585D02*
X010036Y006585D01*
X010094Y006644D02*
X010222Y006644D01*
X010280Y006702D02*
X010153Y006702D01*
X010176Y006761D02*
X010280Y006761D01*
X010280Y006819D02*
X010176Y006819D01*
X010176Y006878D02*
X010280Y006878D01*
X010280Y006936D02*
X010176Y006936D01*
X010176Y006995D02*
X010280Y006995D01*
X010280Y007053D02*
X010176Y007053D01*
X010171Y007112D02*
X010280Y007112D01*
X010280Y007170D02*
X010112Y007170D01*
X010054Y007229D02*
X010280Y007229D01*
X010280Y007287D02*
X010029Y007287D01*
X009970Y007346D02*
X010222Y007346D01*
X009931Y007181D02*
X010056Y007056D01*
X010056Y006775D01*
X009900Y006619D01*
X009900Y006150D01*
X010588Y005463D01*
X010588Y005181D01*
X010709Y005357D02*
X011437Y005357D01*
X011495Y005415D02*
X010707Y005415D01*
X010707Y005474D02*
X011530Y005474D01*
X011530Y005532D02*
X011110Y005532D01*
X011169Y005591D02*
X011530Y005591D01*
X011530Y005649D02*
X011204Y005649D01*
X010877Y005532D02*
X010688Y005532D01*
X010629Y005591D02*
X010819Y005591D01*
X010784Y005649D02*
X010571Y005649D01*
X010512Y005708D02*
X010784Y005708D01*
X010784Y005766D02*
X010454Y005766D01*
X010395Y005825D02*
X010809Y005825D01*
X010867Y005883D02*
X010337Y005883D01*
X010278Y005942D02*
X010874Y005942D01*
X010874Y006000D02*
X010220Y006000D01*
X010161Y006059D02*
X010874Y006059D01*
X010874Y006117D02*
X010103Y006117D01*
X010044Y006176D02*
X010874Y006176D01*
X010338Y005525D02*
X009713Y006150D01*
X009713Y006744D01*
X009838Y006869D01*
X009838Y007181D02*
X009931Y007181D01*
X009472Y007580D02*
X009030Y007580D01*
X009030Y007638D02*
X009531Y007638D01*
X009414Y007521D02*
X009030Y007521D01*
X009030Y007463D02*
X009355Y007463D01*
X009297Y007404D02*
X009030Y007404D01*
X009030Y007346D02*
X009280Y007346D01*
X009280Y007287D02*
X009030Y007287D01*
X009030Y007229D02*
X009280Y007229D01*
X009280Y007170D02*
X009030Y007170D01*
X009030Y007112D02*
X009280Y007112D01*
X009280Y007053D02*
X009030Y007053D01*
X009030Y006995D02*
X009280Y006995D01*
X009280Y006936D02*
X009030Y006936D01*
X009030Y006878D02*
X009280Y006878D01*
X009280Y006819D02*
X009030Y006819D01*
X009030Y006761D02*
X009280Y006761D01*
X009280Y006702D02*
X009030Y006702D01*
X009030Y006644D02*
X009280Y006644D01*
X009280Y006585D02*
X009030Y006585D01*
X009030Y006527D02*
X009280Y006527D01*
X009280Y006468D02*
X009030Y006468D01*
X009030Y006410D02*
X009280Y006410D01*
X009280Y006351D02*
X009030Y006351D01*
X009030Y006293D02*
X009280Y006293D01*
X009280Y006234D02*
X009030Y006234D01*
X009030Y006176D02*
X009280Y006176D01*
X009280Y006117D02*
X009030Y006117D01*
X009030Y006059D02*
X009280Y006059D01*
X009280Y006000D02*
X009030Y006000D01*
X009031Y005942D02*
X009314Y005942D01*
X009372Y005883D02*
X009030Y005883D01*
X009030Y005846D02*
X009030Y005846D01*
X009030Y005825D02*
X009431Y005825D01*
X009489Y005766D02*
X009030Y005766D01*
X009030Y005708D02*
X009548Y005708D01*
X009606Y005649D02*
X009030Y005649D01*
X009030Y005591D02*
X009665Y005591D01*
X009723Y005532D02*
X009030Y005532D01*
X009030Y005474D02*
X009782Y005474D01*
X009840Y005415D02*
X009030Y005415D01*
X009030Y005357D02*
X009899Y005357D01*
X009905Y005298D02*
X009030Y005298D01*
X009030Y005240D02*
X009905Y005240D01*
X009905Y005181D02*
X009030Y005181D01*
X009030Y005123D02*
X009905Y005123D01*
X009905Y005064D02*
X009030Y005064D01*
X009030Y005006D02*
X009905Y005006D01*
X009905Y004947D02*
X009030Y004947D01*
X009030Y004889D02*
X009905Y004889D01*
X009905Y004830D02*
X009030Y004830D01*
X009030Y004772D02*
X009905Y004772D01*
X009905Y004713D02*
X009030Y004713D01*
X009030Y004655D02*
X009913Y004655D01*
X009972Y004596D02*
X009751Y004596D01*
X009809Y004538D02*
X010030Y004538D01*
X010089Y004479D02*
X009860Y004479D01*
X009860Y004421D02*
X010147Y004421D01*
X010206Y004362D02*
X009860Y004362D01*
X009851Y004304D02*
X010264Y004304D01*
X010323Y004245D02*
X009820Y004245D01*
X009820Y004187D02*
X010378Y004187D01*
X010406Y004128D02*
X009820Y004128D01*
X009820Y004070D02*
X010465Y004070D01*
X010197Y003719D02*
X012918Y003719D01*
X012918Y003777D02*
X010134Y003777D01*
X010071Y003836D02*
X012918Y003836D01*
X012918Y003894D02*
X010008Y003894D01*
X009945Y003953D02*
X012918Y003953D01*
X012918Y004011D02*
X009882Y004011D01*
X009650Y003994D02*
X009338Y003681D01*
X009338Y002463D01*
X009490Y002607D02*
X011711Y002607D01*
X011769Y002549D02*
X009547Y002549D01*
X009547Y002490D02*
X011828Y002490D01*
X011886Y002432D02*
X009547Y002432D01*
X009545Y002373D02*
X009678Y002373D01*
X009646Y002341D02*
X009603Y002297D01*
X009603Y002111D01*
X009635Y002079D01*
X009603Y002046D01*
X009603Y001947D01*
X009640Y001910D01*
X009603Y001873D01*
X009603Y001773D01*
X009608Y001768D01*
X009603Y001763D01*
X009603Y001636D01*
X009552Y001686D01*
X009362Y001686D01*
X009362Y001702D01*
X009292Y001773D01*
X009193Y001773D01*
X009123Y001702D01*
X009123Y001429D01*
X009125Y001427D01*
X009123Y001425D01*
X009123Y001282D01*
X009133Y001271D01*
X009123Y001260D01*
X009123Y000987D01*
X009176Y000934D01*
X009157Y000927D01*
X009153Y000919D01*
X009144Y000914D01*
X009131Y000875D01*
X009113Y000838D01*
X009116Y000829D01*
X009113Y000820D01*
X009131Y000783D01*
X009144Y000744D01*
X009153Y000740D01*
X009157Y000731D01*
X009196Y000718D01*
X009407Y000613D01*
X009501Y000644D01*
X009546Y000733D01*
X009514Y000828D01*
X009511Y000829D01*
X009514Y000831D01*
X009546Y000925D01*
X009522Y000973D01*
X009613Y001064D01*
X009652Y001024D01*
X009650Y001024D01*
X009629Y000992D01*
X009603Y000966D01*
X009603Y000952D01*
X009595Y000941D01*
X009603Y000904D01*
X009603Y000866D01*
X009612Y000857D01*
X009615Y000844D01*
X009638Y000828D01*
X009603Y000792D01*
X009603Y000693D01*
X009673Y000623D01*
X009946Y000623D01*
X009958Y000615D01*
X009995Y000623D01*
X010032Y000623D01*
X010042Y000632D01*
X010055Y000635D01*
X010076Y000666D01*
X010103Y000693D01*
X010103Y000706D01*
X010110Y000717D01*
X010103Y000754D01*
X010103Y000792D01*
X010093Y000802D01*
X010091Y000815D01*
X010067Y000831D01*
X010103Y000866D01*
X010103Y000966D01*
X010092Y000977D01*
X010103Y000987D01*
X010103Y001260D01*
X010032Y001331D01*
X009933Y001331D01*
X009863Y001260D01*
X009863Y001244D01*
X009673Y001244D01*
X009613Y001184D01*
X009552Y001244D01*
X009368Y001244D01*
X009406Y001282D01*
X009406Y001359D01*
X009466Y001359D01*
X009623Y001516D01*
X009623Y001557D01*
X009673Y001506D01*
X009772Y001506D01*
X009816Y001550D01*
X009890Y001550D01*
X009933Y001506D01*
X010032Y001506D01*
X010103Y001577D01*
X010103Y001763D01*
X010098Y001768D01*
X010103Y001773D01*
X010103Y001873D01*
X010066Y001910D01*
X010103Y001947D01*
X010103Y002046D01*
X010092Y002057D01*
X010103Y002068D01*
X010103Y002167D01*
X010066Y002204D01*
X010103Y002241D01*
X010103Y002341D01*
X010032Y002411D01*
X009716Y002411D01*
X009646Y002341D01*
X009620Y002315D02*
X009486Y002315D01*
X009428Y002256D02*
X009603Y002256D01*
X009603Y002198D02*
X009030Y002198D01*
X009030Y002256D02*
X009247Y002256D01*
X009189Y002315D02*
X009030Y002315D01*
X009030Y002373D02*
X009130Y002373D01*
X009128Y002432D02*
X009030Y002432D01*
X009030Y002490D02*
X009128Y002490D01*
X009128Y002549D02*
X009030Y002549D01*
X009030Y002607D02*
X009185Y002607D01*
X009218Y002666D02*
X009030Y002666D01*
X009030Y002724D02*
X009218Y002724D01*
X009218Y002783D02*
X009030Y002783D01*
X009030Y002841D02*
X009218Y002841D01*
X009218Y002900D02*
X009030Y002900D01*
X009030Y002958D02*
X009218Y002958D01*
X009218Y003017D02*
X009030Y003017D01*
X009030Y003075D02*
X009218Y003075D01*
X009218Y003134D02*
X009030Y003134D01*
X009030Y003192D02*
X009218Y003192D01*
X009218Y003251D02*
X009030Y003251D01*
X009030Y003309D02*
X009218Y003309D01*
X009218Y003368D02*
X009031Y003368D01*
X009030Y003426D02*
X009218Y003426D01*
X009218Y003485D02*
X009030Y003485D01*
X009030Y003543D02*
X009218Y003543D01*
X009218Y003602D02*
X009030Y003602D01*
X009030Y003660D02*
X009218Y003660D01*
X009218Y003719D02*
X009030Y003719D01*
X009030Y003777D02*
X009264Y003777D01*
X009322Y003836D02*
X009030Y003836D01*
X009030Y003894D02*
X009381Y003894D01*
X009439Y003953D02*
X009030Y003953D01*
X009030Y004011D02*
X009479Y004011D01*
X009480Y004070D02*
X009030Y004070D01*
X009030Y004128D02*
X009480Y004128D01*
X009480Y004187D02*
X009030Y004187D01*
X009030Y004245D02*
X009480Y004245D01*
X009449Y004304D02*
X009030Y004304D01*
X009030Y004362D02*
X009440Y004362D01*
X009440Y004421D02*
X009030Y004421D01*
X009030Y004479D02*
X009440Y004479D01*
X009491Y004538D02*
X009030Y004538D01*
X009030Y004596D02*
X009549Y004596D01*
X009603Y003777D02*
X009634Y003777D01*
X009697Y003719D02*
X009544Y003719D01*
X009486Y003660D02*
X009760Y003660D01*
X009823Y003602D02*
X009457Y003602D01*
X009457Y003543D02*
X009887Y003543D01*
X009950Y003485D02*
X009457Y003485D01*
X009457Y003426D02*
X010013Y003426D01*
X010076Y003368D02*
X009457Y003368D01*
X009457Y003309D02*
X010139Y003309D01*
X010202Y003251D02*
X009457Y003251D01*
X009457Y003192D02*
X010266Y003192D01*
X010329Y003134D02*
X009457Y003134D01*
X009457Y003075D02*
X010391Y003075D01*
X010583Y003017D02*
X009457Y003017D01*
X009457Y002958D02*
X010971Y002958D01*
X010971Y002900D02*
X009457Y002900D01*
X009457Y002841D02*
X010971Y002841D01*
X011002Y002783D02*
X009457Y002783D01*
X009457Y002724D02*
X011060Y002724D01*
X011181Y002900D02*
X011588Y002900D01*
X012525Y001963D01*
X012735Y001964D02*
X014282Y001964D01*
X014282Y002022D02*
X012735Y002022D01*
X012704Y002081D02*
X013329Y002081D01*
X013344Y002065D02*
X013518Y002065D01*
X013641Y002188D01*
X013641Y002315D01*
X013957Y002632D01*
X013957Y004247D01*
X013891Y004313D01*
X013891Y004440D01*
X013768Y004563D01*
X013594Y004563D01*
X013471Y004440D01*
X013471Y004266D01*
X013594Y004143D01*
X013718Y004143D01*
X013718Y002731D01*
X013472Y002485D01*
X013344Y002485D01*
X013221Y002362D01*
X013221Y002188D01*
X013344Y002065D01*
X013270Y002139D02*
X012645Y002139D01*
X012460Y002198D02*
X013221Y002198D01*
X013221Y002256D02*
X012401Y002256D01*
X012343Y002315D02*
X013221Y002315D01*
X013232Y002373D02*
X012284Y002373D01*
X012226Y002432D02*
X013291Y002432D01*
X013477Y002490D02*
X012167Y002490D01*
X012109Y002549D02*
X013535Y002549D01*
X013594Y002607D02*
X012050Y002607D01*
X011992Y002666D02*
X013652Y002666D01*
X013711Y002724D02*
X011933Y002724D01*
X011875Y002783D02*
X013718Y002783D01*
X013718Y002841D02*
X011816Y002841D01*
X011758Y002900D02*
X013718Y002900D01*
X013718Y002958D02*
X011699Y002958D01*
X011641Y003017D02*
X013330Y003017D01*
X013532Y003017D02*
X013718Y003017D01*
X013718Y003075D02*
X013591Y003075D01*
X013641Y003134D02*
X013718Y003134D01*
X013718Y003192D02*
X013641Y003192D01*
X013641Y003251D02*
X013718Y003251D01*
X013718Y003309D02*
X013632Y003309D01*
X013573Y003368D02*
X013718Y003368D01*
X013718Y003426D02*
X013257Y003426D01*
X013257Y003485D02*
X013718Y003485D01*
X013718Y003543D02*
X013257Y003543D01*
X013257Y003602D02*
X013718Y003602D01*
X013718Y003660D02*
X013257Y003660D01*
X013257Y003719D02*
X013718Y003719D01*
X013718Y003777D02*
X013257Y003777D01*
X013257Y003836D02*
X013718Y003836D01*
X013718Y003894D02*
X013257Y003894D01*
X013257Y003953D02*
X013718Y003953D01*
X013718Y004011D02*
X013257Y004011D01*
X013257Y004070D02*
X013718Y004070D01*
X013718Y004128D02*
X013257Y004128D01*
X013257Y004187D02*
X013551Y004187D01*
X013492Y004245D02*
X013257Y004245D01*
X013257Y004304D02*
X013471Y004304D01*
X013471Y004362D02*
X013257Y004362D01*
X013257Y004421D02*
X013471Y004421D01*
X013510Y004479D02*
X013257Y004479D01*
X013257Y004538D02*
X013569Y004538D01*
X013681Y004353D02*
X013838Y004197D01*
X013838Y002681D01*
X013431Y002275D01*
X013592Y002139D02*
X014282Y002139D01*
X014282Y002081D02*
X013534Y002081D01*
X013641Y002198D02*
X014282Y002198D01*
X014282Y002256D02*
X013641Y002256D01*
X013641Y002315D02*
X014282Y002315D01*
X014282Y002373D02*
X013699Y002373D01*
X013757Y002432D02*
X014282Y002432D01*
X014282Y002490D02*
X013816Y002490D01*
X013874Y002549D02*
X014282Y002549D01*
X014282Y002607D02*
X013933Y002607D01*
X013957Y002666D02*
X014282Y002666D01*
X014282Y002724D02*
X013957Y002724D01*
X013957Y002783D02*
X014282Y002783D01*
X014282Y002841D02*
X013957Y002841D01*
X013957Y002900D02*
X014282Y002900D01*
X014282Y002958D02*
X013957Y002958D01*
X013957Y003017D02*
X014282Y003017D01*
X014282Y003075D02*
X013957Y003075D01*
X013957Y003134D02*
X014282Y003134D01*
X014282Y003192D02*
X013957Y003192D01*
X013957Y003251D02*
X014282Y003251D01*
X014282Y003309D02*
X013957Y003309D01*
X013957Y003368D02*
X014281Y003368D01*
X014282Y003426D02*
X013957Y003426D01*
X013957Y003485D02*
X014283Y003485D01*
X014290Y003543D02*
X013957Y003543D01*
X013957Y003602D02*
X014301Y003602D01*
X014301Y003660D02*
X013957Y003660D01*
X013957Y003719D02*
X014301Y003719D01*
X014301Y003777D02*
X013957Y003777D01*
X013957Y003836D02*
X014301Y003836D01*
X014301Y003894D02*
X013957Y003894D01*
X013957Y003953D02*
X014301Y003953D01*
X014301Y004011D02*
X013957Y004011D01*
X013957Y004070D02*
X014301Y004070D01*
X014301Y004128D02*
X013957Y004128D01*
X013957Y004187D02*
X014301Y004187D01*
X014301Y004245D02*
X013957Y004245D01*
X013901Y004304D02*
X014301Y004304D01*
X014301Y004362D02*
X013891Y004362D01*
X013891Y004421D02*
X014301Y004421D01*
X014301Y004479D02*
X013852Y004479D01*
X013794Y004538D02*
X014301Y004538D01*
X014301Y004596D02*
X013257Y004596D01*
X013257Y004655D02*
X014301Y004655D01*
X014301Y004713D02*
X013257Y004713D01*
X013257Y004772D02*
X014301Y004772D01*
X014301Y004830D02*
X013257Y004830D01*
X013257Y004889D02*
X014301Y004889D01*
X014301Y004947D02*
X013257Y004947D01*
X013257Y005006D02*
X014301Y005006D01*
X014301Y005064D02*
X013304Y005064D01*
X013363Y005123D02*
X014301Y005123D01*
X014301Y005181D02*
X013421Y005181D01*
X012918Y003660D02*
X010261Y003660D01*
X010324Y003602D02*
X012918Y003602D01*
X012918Y003543D02*
X010387Y003543D01*
X010450Y003485D02*
X010627Y003485D01*
X010569Y003426D02*
X010513Y003426D01*
X010622Y003309D02*
X010991Y003309D01*
X011025Y003275D02*
X010931Y003369D01*
X010681Y003369D01*
X010588Y003275D01*
X010588Y003181D01*
X010650Y003119D01*
X010963Y003119D01*
X011025Y003181D01*
X011025Y003275D01*
X011025Y003251D02*
X010588Y003251D01*
X010588Y003192D02*
X011025Y003192D01*
X010977Y003134D02*
X010635Y003134D01*
X010680Y003368D02*
X010932Y003368D01*
X011044Y003426D02*
X012918Y003426D01*
X012918Y003485D02*
X010985Y003485D01*
X011302Y002724D02*
X011594Y002724D01*
X011652Y002666D02*
X009457Y002666D01*
X009766Y002291D02*
X009983Y002291D01*
X010070Y002373D02*
X011945Y002373D01*
X012003Y002315D02*
X010103Y002315D01*
X010103Y002256D02*
X012062Y002256D01*
X012120Y002198D02*
X010072Y002198D01*
X010103Y002139D02*
X012179Y002139D01*
X012237Y002081D02*
X010103Y002081D01*
X010103Y002022D02*
X012296Y002022D01*
X012315Y001964D02*
X010103Y001964D01*
X010070Y001905D02*
X012315Y001905D01*
X012344Y001847D02*
X010103Y001847D01*
X010103Y001788D02*
X012403Y001788D01*
X012647Y001788D02*
X014282Y001788D01*
X014282Y001730D02*
X010103Y001730D01*
X010103Y001671D02*
X014282Y001671D01*
X014282Y001613D02*
X010103Y001613D01*
X010080Y001554D02*
X014282Y001554D01*
X014282Y001496D02*
X009602Y001496D01*
X009623Y001554D02*
X009625Y001554D01*
X009603Y001671D02*
X009567Y001671D01*
X009603Y001730D02*
X009335Y001730D01*
X009243Y001653D02*
X009243Y001479D01*
X009243Y001566D02*
X009503Y001566D01*
X009416Y001479D01*
X009485Y001379D02*
X014282Y001379D01*
X014282Y001437D02*
X009544Y001437D01*
X009406Y001320D02*
X009922Y001320D01*
X009864Y001262D02*
X009385Y001262D01*
X009286Y001332D02*
X009286Y001375D01*
X009243Y001375D01*
X009243Y001332D01*
X009286Y001332D01*
X009243Y001211D02*
X009243Y001037D01*
X009243Y001124D02*
X009503Y001124D01*
X009416Y001037D01*
X009416Y000916D02*
X009243Y000829D01*
X009416Y000743D01*
X009525Y000794D02*
X009604Y000794D01*
X009613Y000852D02*
X009521Y000852D01*
X009541Y000911D02*
X009601Y000911D01*
X009606Y000969D02*
X009524Y000969D01*
X009576Y001028D02*
X009649Y001028D01*
X009723Y001124D02*
X009983Y001124D01*
X009983Y001037D02*
X009983Y001211D01*
X010103Y001203D02*
X014282Y001203D01*
X014282Y001145D02*
X010103Y001145D01*
X010103Y001086D02*
X014282Y001086D01*
X014282Y001028D02*
X010103Y001028D01*
X010099Y000969D02*
X014282Y000969D01*
X014282Y000911D02*
X010103Y000911D01*
X010088Y000852D02*
X014282Y000852D01*
X014282Y000794D02*
X010101Y000794D01*
X010107Y000735D02*
X014274Y000735D01*
X014250Y000677D02*
X010086Y000677D01*
X009983Y000743D02*
X009723Y000916D01*
X009983Y000916D01*
X009983Y000743D02*
X009723Y000743D01*
X009603Y000735D02*
X009545Y000735D01*
X009517Y000677D02*
X009619Y000677D01*
X009422Y000618D02*
X009953Y000618D01*
X009972Y000618D02*
X014208Y000618D01*
X014129Y000560D02*
X009183Y000560D01*
X009104Y000618D02*
X009397Y000618D01*
X009280Y000677D02*
X009062Y000677D01*
X009038Y000735D02*
X009155Y000735D01*
X009126Y000794D02*
X009030Y000794D01*
X009030Y000852D02*
X009120Y000852D01*
X009143Y000911D02*
X009030Y000911D01*
X009030Y000969D02*
X009141Y000969D01*
X009123Y001028D02*
X009030Y001028D01*
X009030Y001086D02*
X009123Y001086D01*
X009123Y001145D02*
X009030Y001145D01*
X009030Y001203D02*
X009123Y001203D01*
X009124Y001262D02*
X009030Y001262D01*
X009030Y001320D02*
X009123Y001320D01*
X009123Y001379D02*
X009030Y001379D01*
X009030Y001437D02*
X009123Y001437D01*
X009123Y001496D02*
X009030Y001496D01*
X009030Y001554D02*
X009123Y001554D01*
X009123Y001613D02*
X009030Y001613D01*
X009030Y001671D02*
X009123Y001671D01*
X009150Y001730D02*
X009030Y001730D01*
X009030Y001788D02*
X009603Y001788D01*
X009603Y001847D02*
X009030Y001847D01*
X009030Y001905D02*
X009635Y001905D01*
X009603Y001964D02*
X009030Y001964D01*
X009030Y002022D02*
X009603Y002022D01*
X009633Y002081D02*
X009030Y002081D01*
X009030Y002139D02*
X009603Y002139D01*
X009723Y002161D02*
X009723Y002248D01*
X009766Y002291D01*
X009723Y002161D02*
X009766Y002118D01*
X009983Y002118D01*
X009983Y001996D02*
X009723Y001996D01*
X009723Y001823D02*
X009983Y001823D01*
X009896Y001910D01*
X009983Y001996D01*
X009983Y001713D02*
X009983Y001626D01*
X009983Y001670D02*
X009723Y001670D01*
X009723Y001713D02*
X009723Y001626D01*
X009632Y001203D02*
X009593Y001203D01*
X010043Y001320D02*
X014282Y001320D01*
X014282Y001262D02*
X010102Y001262D01*
X012706Y001847D02*
X014282Y001847D01*
X014282Y001905D02*
X012735Y001905D01*
X010793Y004713D02*
X010729Y004713D01*
X010787Y004772D02*
X010852Y004772D01*
X010797Y004830D02*
X010910Y004830D01*
X010969Y004889D02*
X010797Y004889D01*
X010797Y004947D02*
X011027Y004947D01*
X011086Y005006D02*
X010748Y005006D01*
X010767Y005064D02*
X011144Y005064D01*
X011203Y005123D02*
X010797Y005123D01*
X010797Y005181D02*
X011261Y005181D01*
X011320Y005240D02*
X010797Y005240D01*
X010768Y005298D02*
X011378Y005298D01*
X010588Y004869D02*
X010494Y004869D01*
X010338Y005025D01*
X010338Y005525D01*
X010533Y008148D02*
X010533Y008148D01*
X009163Y008106D02*
X014149Y008106D01*
X014217Y008048D02*
X009095Y008048D01*
X006676Y007843D02*
X006676Y005954D01*
X006675Y005954D01*
X006675Y005938D01*
X006612Y006001D01*
X006612Y006275D01*
X006175Y006712D01*
X006087Y006800D01*
X005828Y006800D01*
X005768Y006860D01*
X005594Y006860D01*
X005554Y006820D01*
X005317Y006820D01*
X004987Y007150D01*
X004900Y007237D01*
X003609Y007237D01*
X003549Y007297D01*
X003376Y007297D01*
X003253Y007174D01*
X003253Y007001D01*
X003376Y006878D01*
X003375Y006878D02*
X003280Y006878D01*
X003317Y006936D02*
X003221Y006936D01*
X003200Y006957D02*
X003014Y006957D01*
X002924Y007047D01*
X002751Y007047D01*
X002628Y006924D01*
X002628Y006751D01*
X002641Y006737D01*
X002297Y006737D01*
X002237Y006797D01*
X002063Y006797D01*
X001940Y006674D01*
X001940Y006501D01*
X002059Y006382D01*
X002058Y006382D01*
X002058Y006026D01*
X001998Y006026D01*
X001998Y006382D01*
X001921Y006382D01*
X001886Y006372D01*
X001854Y006354D01*
X001828Y006328D01*
X001810Y006296D01*
X001800Y006261D01*
X001800Y006165D01*
X001741Y006224D01*
X001449Y006224D01*
X001378Y006154D01*
X001308Y006224D01*
X001016Y006224D01*
X000934Y006142D01*
X000934Y005535D01*
X001016Y005454D01*
X001308Y005454D01*
X001378Y005524D01*
X001449Y005454D01*
X001475Y005454D01*
X001475Y005405D01*
X001593Y005288D01*
X001663Y005218D01*
X001973Y005218D01*
X002063Y005128D01*
X002128Y005128D01*
X002128Y005047D01*
X002038Y004957D01*
X002038Y004957D01*
X001968Y004887D01*
X001968Y002460D01*
X001702Y002189D01*
X001075Y002189D01*
X000993Y002107D01*
X000993Y001539D01*
X001075Y001458D01*
X001800Y001458D01*
X001882Y001539D01*
X001882Y002030D01*
X002138Y002291D01*
X003162Y002291D01*
X003355Y002098D01*
X003355Y001539D01*
X003437Y001458D01*
X004162Y001458D01*
X004244Y001539D01*
X004244Y002107D01*
X004162Y002189D01*
X003604Y002189D01*
X003262Y002531D01*
X002207Y002531D01*
X002207Y004788D01*
X002297Y004878D01*
X002424Y004878D01*
X002547Y005001D01*
X002547Y005128D01*
X002612Y005128D01*
X002702Y005218D01*
X003200Y005218D01*
X003387Y005405D01*
X003436Y005454D01*
X003473Y005454D01*
X003532Y005513D01*
X003532Y005378D01*
X003614Y005296D01*
X003906Y005296D01*
X003988Y005378D01*
X003988Y005513D01*
X004047Y005454D01*
X004339Y005454D01*
X004421Y005535D01*
X004421Y006142D01*
X004339Y006224D01*
X004047Y006224D01*
X003966Y006142D01*
X003966Y006008D01*
X003906Y006067D01*
X003880Y006067D01*
X003880Y006214D01*
X003707Y006387D01*
X003690Y006405D01*
X004663Y006405D01*
X004843Y006225D01*
X004843Y005012D01*
X004663Y004832D01*
X002663Y004832D01*
X002475Y004645D01*
X002405Y004575D01*
X002405Y004100D01*
X002663Y003843D01*
X003473Y003843D01*
X003530Y003786D01*
X003530Y003288D01*
X004128Y002690D01*
X004128Y002563D01*
X004251Y002440D01*
X004424Y002440D01*
X004547Y002563D01*
X004547Y002737D01*
X004424Y002860D01*
X004297Y002860D01*
X003770Y003387D01*
X003770Y003786D01*
X003860Y003876D01*
X003860Y004049D01*
X003737Y004172D01*
X003563Y004172D01*
X003473Y004082D01*
X002762Y004082D01*
X002645Y004200D01*
X002645Y004475D01*
X002762Y004593D01*
X004762Y004593D01*
X004832Y004663D01*
X005082Y004913D01*
X005082Y006325D01*
X005012Y006395D01*
X004762Y006645D01*
X003512Y006645D01*
X003200Y006957D01*
X003258Y006995D02*
X002977Y006995D01*
X002838Y006838D02*
X003150Y006838D01*
X003463Y006525D01*
X004713Y006525D01*
X004963Y006275D01*
X004963Y004963D01*
X004713Y004713D01*
X002713Y004713D01*
X002525Y004525D01*
X002525Y004150D01*
X002713Y003963D01*
X003650Y003963D01*
X003650Y003338D01*
X004338Y002650D01*
X004547Y002666D02*
X005008Y002666D01*
X004945Y002724D02*
X004547Y002724D01*
X004502Y002783D02*
X004882Y002783D01*
X004818Y002841D02*
X004443Y002841D01*
X004258Y002900D02*
X004755Y002900D01*
X004691Y002958D02*
X004199Y002958D01*
X004141Y003017D02*
X004628Y003017D01*
X004565Y003075D02*
X004082Y003075D01*
X004024Y003134D02*
X004501Y003134D01*
X004478Y003155D02*
X005128Y002556D01*
X005128Y002438D01*
X005251Y002315D01*
X005424Y002315D01*
X005547Y002438D01*
X005547Y002612D01*
X005424Y002735D01*
X005287Y002735D01*
X004645Y003328D01*
X004645Y003786D01*
X004735Y003876D01*
X004735Y004049D01*
X004612Y004172D01*
X004438Y004172D01*
X004315Y004049D01*
X004315Y003876D01*
X004405Y003786D01*
X004405Y003322D01*
X004403Y003320D01*
X004405Y003273D01*
X004405Y003225D01*
X004407Y003223D01*
X004407Y003221D01*
X004442Y003188D01*
X004475Y003155D01*
X004478Y003155D01*
X004438Y003192D02*
X003965Y003192D01*
X003907Y003251D02*
X004405Y003251D01*
X004404Y003309D02*
X003848Y003309D01*
X003790Y003368D02*
X004405Y003368D01*
X004405Y003426D02*
X003770Y003426D01*
X003770Y003485D02*
X004405Y003485D01*
X004405Y003543D02*
X003770Y003543D01*
X003770Y003602D02*
X004405Y003602D01*
X004405Y003660D02*
X003770Y003660D01*
X003770Y003719D02*
X004405Y003719D01*
X004405Y003777D02*
X003770Y003777D01*
X003820Y003836D02*
X004355Y003836D01*
X004315Y003894D02*
X003860Y003894D01*
X003860Y003953D02*
X004315Y003953D01*
X004315Y004011D02*
X003860Y004011D01*
X003840Y004070D02*
X004335Y004070D01*
X004394Y004128D02*
X003781Y004128D01*
X003519Y004128D02*
X002988Y004128D01*
X002987Y004128D02*
X003027Y004168D01*
X003470Y004168D01*
X003533Y004230D01*
X004767Y004230D01*
X004830Y004168D01*
X005211Y004168D01*
X005251Y004128D01*
X005424Y004128D01*
X005547Y004251D01*
X005547Y004424D01*
X005507Y004464D01*
X005507Y006480D01*
X005554Y006480D01*
X005594Y006440D01*
X005768Y006440D01*
X005828Y006500D01*
X005963Y006500D01*
X006313Y006150D01*
X006313Y006001D01*
X006153Y005841D01*
X006153Y005584D01*
X006299Y005437D01*
X006153Y005291D01*
X006153Y005034D01*
X006299Y004887D01*
X006153Y004741D01*
X006153Y004484D01*
X006299Y004338D01*
X006153Y004191D01*
X006153Y004092D01*
X006432Y004092D01*
X006432Y004033D01*
X006153Y004033D01*
X006153Y003934D01*
X006334Y003753D01*
X006433Y003753D01*
X006433Y004032D01*
X006492Y004032D01*
X006492Y003753D01*
X006591Y003753D01*
X006676Y003837D01*
X006676Y003563D01*
X006591Y003647D01*
X006334Y003647D01*
X006153Y003466D01*
X006153Y003209D01*
X006299Y003062D01*
X006153Y002916D01*
X006153Y002659D01*
X006299Y002512D01*
X006153Y002366D01*
X006153Y002267D01*
X006432Y002267D01*
X006432Y002208D01*
X006153Y002208D01*
X006153Y002109D01*
X006299Y001963D01*
X006184Y001848D01*
X006082Y001950D01*
X006082Y004543D01*
X005954Y004672D01*
X005954Y004799D01*
X005831Y004922D01*
X005657Y004922D01*
X005534Y004799D01*
X005534Y004626D01*
X005657Y004503D01*
X005784Y004503D01*
X005843Y004444D01*
X005843Y001850D01*
X005913Y001780D01*
X006125Y001568D01*
X006153Y001568D01*
X006153Y001559D01*
X006334Y001378D01*
X006591Y001378D01*
X006646Y001432D01*
X006631Y001397D01*
X006558Y001324D01*
X006463Y001285D01*
X006412Y001280D01*
X000794Y001280D01*
X000742Y001285D01*
X000647Y001324D01*
X000574Y001397D01*
X000535Y001492D01*
X000530Y001544D01*
X000530Y006526D01*
X000563Y006517D01*
X000777Y006517D01*
X000777Y006951D01*
X000837Y006951D01*
X000837Y006517D01*
X001052Y006517D01*
X001087Y006526D01*
X001119Y006545D01*
X001145Y006571D01*
X001164Y006602D01*
X001173Y006638D01*
X001173Y006951D01*
X000837Y006951D01*
X000837Y007011D01*
X000777Y007011D01*
X000777Y007445D01*
X000563Y007445D01*
X000530Y007436D01*
X000530Y007843D01*
X000535Y007894D01*
X000574Y007989D01*
X006631Y007989D01*
X006670Y007894D01*
X006676Y007843D01*
X006673Y007872D02*
X000533Y007872D01*
X000530Y007814D02*
X006676Y007814D01*
X006676Y007755D02*
X006332Y007755D01*
X006342Y007745D02*
X006316Y007771D01*
X006284Y007790D01*
X006249Y007799D01*
X006034Y007799D01*
X006034Y007365D01*
X005974Y007365D01*
X005974Y007305D01*
X005639Y007305D01*
X005639Y006992D01*
X005648Y006957D01*
X005667Y006925D01*
X005693Y006899D01*
X005724Y006881D01*
X005760Y006871D01*
X005974Y006871D01*
X005974Y007305D01*
X006034Y007305D01*
X006034Y006871D01*
X006249Y006871D01*
X006284Y006881D01*
X006316Y006899D01*
X006342Y006925D01*
X006360Y006957D01*
X006370Y006992D01*
X006370Y007305D01*
X006034Y007305D01*
X006034Y007365D01*
X006370Y007365D01*
X006370Y007678D01*
X006360Y007713D01*
X006342Y007745D01*
X006365Y007697D02*
X006676Y007697D01*
X006676Y007638D02*
X006370Y007638D01*
X006370Y007580D02*
X006676Y007580D01*
X006676Y007521D02*
X006370Y007521D01*
X006370Y007463D02*
X006676Y007463D01*
X006676Y007404D02*
X006370Y007404D01*
X006370Y007287D02*
X006676Y007287D01*
X006676Y007229D02*
X006370Y007229D01*
X006370Y007170D02*
X006676Y007170D01*
X006676Y007112D02*
X006370Y007112D01*
X006370Y007053D02*
X006676Y007053D01*
X006676Y006995D02*
X006370Y006995D01*
X006348Y006936D02*
X006676Y006936D01*
X006676Y006878D02*
X006273Y006878D01*
X006127Y006761D02*
X006676Y006761D01*
X006676Y006819D02*
X005809Y006819D01*
X005736Y006878D02*
X005260Y006878D01*
X005201Y006936D02*
X005660Y006936D01*
X005639Y006995D02*
X005143Y006995D01*
X005084Y007053D02*
X005639Y007053D01*
X005639Y007112D02*
X005026Y007112D01*
X004967Y007170D02*
X005639Y007170D01*
X005639Y007229D02*
X004909Y007229D01*
X004775Y006938D02*
X005168Y006545D01*
X005168Y004507D01*
X004970Y004507D01*
X004908Y004570D01*
X003392Y004570D01*
X003330Y004507D01*
X003027Y004507D01*
X002987Y004547D01*
X002813Y004547D01*
X002690Y004424D01*
X002690Y004251D01*
X002813Y004128D01*
X002987Y004128D01*
X002812Y004128D02*
X002717Y004128D01*
X002754Y004187D02*
X002658Y004187D01*
X002645Y004245D02*
X002695Y004245D01*
X002690Y004304D02*
X002645Y004304D01*
X002645Y004362D02*
X002690Y004362D01*
X002690Y004421D02*
X002645Y004421D01*
X002649Y004479D02*
X002745Y004479D01*
X002707Y004538D02*
X002803Y004538D01*
X002997Y004538D02*
X003360Y004538D01*
X003489Y004187D02*
X004811Y004187D01*
X004715Y004070D02*
X005843Y004070D01*
X005843Y004128D02*
X005425Y004128D01*
X005484Y004187D02*
X005843Y004187D01*
X005843Y004245D02*
X005542Y004245D01*
X005547Y004304D02*
X005843Y004304D01*
X005843Y004362D02*
X005547Y004362D01*
X005547Y004421D02*
X005843Y004421D01*
X005808Y004479D02*
X005507Y004479D01*
X005507Y004538D02*
X005622Y004538D01*
X005563Y004596D02*
X005507Y004596D01*
X005507Y004655D02*
X005534Y004655D01*
X005534Y004713D02*
X005507Y004713D01*
X005507Y004772D02*
X005534Y004772D01*
X005507Y004830D02*
X005564Y004830D01*
X005507Y004889D02*
X005623Y004889D01*
X005507Y004947D02*
X006240Y004947D01*
X006298Y004889D02*
X005865Y004889D01*
X005923Y004830D02*
X006242Y004830D01*
X006183Y004772D02*
X005954Y004772D01*
X005954Y004713D02*
X006153Y004713D01*
X006153Y004655D02*
X005971Y004655D01*
X006030Y004596D02*
X006153Y004596D01*
X006153Y004538D02*
X006082Y004538D01*
X006082Y004479D02*
X006158Y004479D01*
X006216Y004421D02*
X006082Y004421D01*
X006082Y004362D02*
X006275Y004362D01*
X006265Y004304D02*
X006082Y004304D01*
X006082Y004245D02*
X006207Y004245D01*
X006153Y004187D02*
X006082Y004187D01*
X006082Y004128D02*
X006153Y004128D01*
X006082Y004070D02*
X006432Y004070D01*
X006433Y004011D02*
X006492Y004011D01*
X006492Y003953D02*
X006433Y003953D01*
X006433Y003894D02*
X006492Y003894D01*
X006492Y003836D02*
X006433Y003836D01*
X006433Y003777D02*
X006492Y003777D01*
X006615Y003777D02*
X006676Y003777D01*
X006676Y003719D02*
X006082Y003719D01*
X006082Y003777D02*
X006310Y003777D01*
X006251Y003836D02*
X006082Y003836D01*
X006082Y003894D02*
X006193Y003894D01*
X006153Y003953D02*
X006082Y003953D01*
X006082Y004011D02*
X006153Y004011D01*
X005843Y004011D02*
X004735Y004011D01*
X004735Y003953D02*
X005843Y003953D01*
X005843Y003894D02*
X004735Y003894D01*
X004695Y003836D02*
X005843Y003836D01*
X005843Y003777D02*
X004645Y003777D01*
X004645Y003719D02*
X005843Y003719D01*
X005843Y003660D02*
X004645Y003660D01*
X004645Y003602D02*
X005843Y003602D01*
X005843Y003543D02*
X004645Y003543D01*
X004645Y003485D02*
X005843Y003485D01*
X005843Y003426D02*
X004645Y003426D01*
X004645Y003368D02*
X005843Y003368D01*
X005843Y003309D02*
X004665Y003309D01*
X004728Y003251D02*
X005843Y003251D01*
X005843Y003192D02*
X004792Y003192D01*
X004855Y003134D02*
X005843Y003134D01*
X005843Y003075D02*
X004919Y003075D01*
X004982Y003017D02*
X005843Y003017D01*
X005843Y002958D02*
X005045Y002958D01*
X005109Y002900D02*
X005843Y002900D01*
X005843Y002841D02*
X005172Y002841D01*
X005235Y002783D02*
X005843Y002783D01*
X005843Y002724D02*
X005435Y002724D01*
X005494Y002666D02*
X005843Y002666D01*
X005843Y002607D02*
X005547Y002607D01*
X005547Y002549D02*
X005843Y002549D01*
X005843Y002490D02*
X005547Y002490D01*
X005541Y002432D02*
X005843Y002432D01*
X005843Y002373D02*
X005482Y002373D01*
X005338Y002525D02*
X004525Y003275D01*
X004525Y003963D01*
X004656Y004128D02*
X005250Y004128D01*
X005168Y004538D02*
X004940Y004538D01*
X004824Y004655D02*
X005168Y004655D01*
X005168Y004713D02*
X004883Y004713D01*
X004941Y004772D02*
X005168Y004772D01*
X005168Y004830D02*
X005000Y004830D01*
X005058Y004889D02*
X005168Y004889D01*
X005168Y004947D02*
X005082Y004947D01*
X005082Y005006D02*
X005168Y005006D01*
X005168Y005064D02*
X005082Y005064D01*
X005082Y005123D02*
X005168Y005123D01*
X005168Y005181D02*
X005082Y005181D01*
X005082Y005240D02*
X005168Y005240D01*
X005168Y005298D02*
X005082Y005298D01*
X005082Y005357D02*
X005168Y005357D01*
X005168Y005415D02*
X005082Y005415D01*
X005082Y005474D02*
X005168Y005474D01*
X005168Y005532D02*
X005082Y005532D01*
X005082Y005591D02*
X005168Y005591D01*
X005168Y005649D02*
X005082Y005649D01*
X005082Y005708D02*
X005168Y005708D01*
X005168Y005766D02*
X005082Y005766D01*
X005082Y005825D02*
X005168Y005825D01*
X005168Y005883D02*
X005082Y005883D01*
X005082Y005942D02*
X005168Y005942D01*
X005168Y006000D02*
X005082Y006000D01*
X005082Y006059D02*
X005168Y006059D01*
X005168Y006117D02*
X005082Y006117D01*
X005082Y006176D02*
X005168Y006176D01*
X005168Y006234D02*
X005082Y006234D01*
X005082Y006293D02*
X005168Y006293D01*
X005168Y006351D02*
X005056Y006351D01*
X004998Y006410D02*
X005168Y006410D01*
X005168Y006468D02*
X004939Y006468D01*
X004881Y006527D02*
X005168Y006527D01*
X005128Y006585D02*
X004822Y006585D01*
X004764Y006644D02*
X005069Y006644D01*
X005011Y006702D02*
X003455Y006702D01*
X003397Y006761D02*
X004952Y006761D01*
X004894Y006819D02*
X003338Y006819D01*
X003376Y006878D02*
X003549Y006878D01*
X003550Y006878D02*
X004835Y006878D01*
X004777Y006936D02*
X003608Y006936D01*
X003609Y006938D02*
X004775Y006938D01*
X004717Y006351D02*
X003744Y006351D01*
X003802Y006293D02*
X004775Y006293D01*
X004834Y006234D02*
X003861Y006234D01*
X003880Y006176D02*
X003999Y006176D01*
X003966Y006117D02*
X003880Y006117D01*
X003914Y006059D02*
X003966Y006059D01*
X003760Y006165D02*
X003588Y006338D01*
X003338Y006338D01*
X003088Y006588D01*
X002628Y006761D02*
X002274Y006761D01*
X002026Y006761D02*
X001173Y006761D01*
X001173Y006819D02*
X002628Y006819D01*
X002628Y006878D02*
X001173Y006878D01*
X001173Y006936D02*
X002639Y006936D01*
X002698Y006995D02*
X000837Y006995D01*
X000837Y007011D02*
X001173Y007011D01*
X001173Y007323D01*
X001164Y007359D01*
X001145Y007391D01*
X001119Y007417D01*
X001087Y007435D01*
X001052Y007445D01*
X000837Y007445D01*
X000837Y007011D01*
X000837Y007053D02*
X000777Y007053D01*
X000777Y007112D02*
X000837Y007112D01*
X000837Y007170D02*
X000777Y007170D01*
X000777Y007229D02*
X000837Y007229D01*
X000837Y007287D02*
X000777Y007287D01*
X000777Y007346D02*
X000837Y007346D01*
X000837Y007404D02*
X000777Y007404D01*
X000530Y007463D02*
X005639Y007463D01*
X005639Y007521D02*
X000530Y007521D01*
X000530Y007580D02*
X005639Y007580D01*
X005639Y007638D02*
X000530Y007638D01*
X000530Y007697D02*
X005644Y007697D01*
X005648Y007713D02*
X005639Y007678D01*
X005639Y007365D01*
X005974Y007365D01*
X005974Y007799D01*
X005760Y007799D01*
X005724Y007790D01*
X005693Y007771D01*
X005667Y007745D01*
X005648Y007713D01*
X005676Y007755D02*
X000530Y007755D01*
X000550Y007931D02*
X006655Y007931D01*
X006631Y007989D02*
X006558Y008062D01*
X006463Y008102D01*
X006412Y008107D01*
X000794Y008107D01*
X000742Y008102D01*
X000647Y008062D01*
X000574Y007989D01*
X000574Y007989D01*
X000633Y008048D02*
X006573Y008048D01*
X006418Y008106D02*
X000788Y008106D01*
X001132Y007404D02*
X005639Y007404D01*
X005639Y007287D02*
X003560Y007287D01*
X003365Y007287D02*
X001173Y007287D01*
X001173Y007229D02*
X003307Y007229D01*
X003253Y007170D02*
X001173Y007170D01*
X001173Y007112D02*
X003253Y007112D01*
X003253Y007053D02*
X001173Y007053D01*
X001167Y007346D02*
X005974Y007346D01*
X005974Y007404D02*
X006034Y007404D01*
X006034Y007346D02*
X006676Y007346D01*
X006676Y006702D02*
X006185Y006702D01*
X006244Y006644D02*
X006676Y006644D01*
X006676Y006585D02*
X006302Y006585D01*
X006361Y006527D02*
X006676Y006527D01*
X006676Y006468D02*
X006419Y006468D01*
X006478Y006410D02*
X006676Y006410D01*
X006676Y006351D02*
X006536Y006351D01*
X006595Y006293D02*
X006676Y006293D01*
X006676Y006234D02*
X006612Y006234D01*
X006612Y006176D02*
X006676Y006176D01*
X006676Y006117D02*
X006612Y006117D01*
X006612Y006059D02*
X006676Y006059D01*
X006676Y006000D02*
X006613Y006000D01*
X006672Y005942D02*
X006675Y005942D01*
X006312Y006000D02*
X005507Y006000D01*
X005507Y005942D02*
X006253Y005942D01*
X006195Y005883D02*
X005507Y005883D01*
X005507Y005825D02*
X006153Y005825D01*
X006153Y005766D02*
X005507Y005766D01*
X005507Y005708D02*
X006153Y005708D01*
X006153Y005649D02*
X005507Y005649D01*
X005507Y005591D02*
X006153Y005591D01*
X006205Y005532D02*
X005507Y005532D01*
X005507Y005474D02*
X006263Y005474D01*
X006277Y005415D02*
X005507Y005415D01*
X005507Y005357D02*
X006218Y005357D01*
X006160Y005298D02*
X005507Y005298D01*
X005507Y005240D02*
X006153Y005240D01*
X006153Y005181D02*
X005507Y005181D01*
X005507Y005123D02*
X006153Y005123D01*
X006153Y005064D02*
X005507Y005064D01*
X005507Y005006D02*
X006181Y005006D01*
X005744Y004713D02*
X005963Y004494D01*
X005963Y001900D01*
X006175Y001688D01*
X006463Y001688D01*
X006242Y001905D02*
X006127Y001905D01*
X006082Y001964D02*
X006298Y001964D01*
X006240Y002022D02*
X006082Y002022D01*
X006082Y002081D02*
X006181Y002081D01*
X006153Y002139D02*
X006082Y002139D01*
X006082Y002198D02*
X006153Y002198D01*
X006082Y002256D02*
X006432Y002256D01*
X006218Y002432D02*
X006082Y002432D01*
X006082Y002490D02*
X006277Y002490D01*
X006263Y002549D02*
X006082Y002549D01*
X006082Y002607D02*
X006205Y002607D01*
X006153Y002666D02*
X006082Y002666D01*
X006082Y002724D02*
X006153Y002724D01*
X006153Y002783D02*
X006082Y002783D01*
X006082Y002841D02*
X006153Y002841D01*
X006153Y002900D02*
X006082Y002900D01*
X006082Y002958D02*
X006195Y002958D01*
X006253Y003017D02*
X006082Y003017D01*
X006082Y003075D02*
X006287Y003075D01*
X006228Y003134D02*
X006082Y003134D01*
X006082Y003192D02*
X006170Y003192D01*
X006153Y003251D02*
X006082Y003251D01*
X006082Y003309D02*
X006153Y003309D01*
X006153Y003368D02*
X006082Y003368D01*
X006082Y003426D02*
X006153Y003426D01*
X006171Y003485D02*
X006082Y003485D01*
X006082Y003543D02*
X006230Y003543D01*
X006288Y003602D02*
X006082Y003602D01*
X006082Y003660D02*
X006676Y003660D01*
X006676Y003602D02*
X006637Y003602D01*
X006674Y003836D02*
X006676Y003836D01*
X006160Y002373D02*
X006082Y002373D01*
X006082Y002315D02*
X006153Y002315D01*
X005843Y002315D02*
X003478Y002315D01*
X003420Y002373D02*
X005193Y002373D01*
X005134Y002432D02*
X003361Y002432D01*
X003303Y002490D02*
X004201Y002490D01*
X004142Y002549D02*
X002207Y002549D01*
X002207Y002607D02*
X004128Y002607D01*
X004128Y002666D02*
X002207Y002666D01*
X002207Y002724D02*
X004094Y002724D01*
X004035Y002783D02*
X002207Y002783D01*
X002207Y002841D02*
X003977Y002841D01*
X003918Y002900D02*
X002207Y002900D01*
X002207Y002958D02*
X003860Y002958D01*
X003801Y003017D02*
X002207Y003017D01*
X002207Y003075D02*
X003743Y003075D01*
X003684Y003134D02*
X002207Y003134D01*
X002207Y003192D02*
X003626Y003192D01*
X003567Y003251D02*
X002207Y003251D01*
X002207Y003309D02*
X003530Y003309D01*
X003530Y003368D02*
X002207Y003368D01*
X002207Y003426D02*
X003530Y003426D01*
X003530Y003485D02*
X002207Y003485D01*
X002207Y003543D02*
X003530Y003543D01*
X003530Y003602D02*
X002207Y003602D01*
X002207Y003660D02*
X003530Y003660D01*
X003530Y003719D02*
X002207Y003719D01*
X002207Y003777D02*
X003530Y003777D01*
X003480Y003836D02*
X002207Y003836D01*
X002207Y003894D02*
X002611Y003894D01*
X002553Y003953D02*
X002207Y003953D01*
X002207Y004011D02*
X002494Y004011D01*
X002436Y004070D02*
X002207Y004070D01*
X002207Y004128D02*
X002405Y004128D01*
X002405Y004187D02*
X002207Y004187D01*
X002207Y004245D02*
X002405Y004245D01*
X002405Y004304D02*
X002207Y004304D01*
X002207Y004362D02*
X002405Y004362D01*
X002405Y004421D02*
X002207Y004421D01*
X002207Y004479D02*
X002405Y004479D01*
X002405Y004538D02*
X002207Y004538D01*
X002207Y004596D02*
X002426Y004596D01*
X002485Y004655D02*
X002207Y004655D01*
X002207Y004713D02*
X002543Y004713D01*
X002602Y004772D02*
X002207Y004772D01*
X002250Y004830D02*
X002660Y004830D01*
X002494Y004947D02*
X004777Y004947D01*
X004719Y004889D02*
X002436Y004889D01*
X002547Y005006D02*
X004836Y005006D01*
X004843Y005064D02*
X002547Y005064D01*
X002547Y005123D02*
X004843Y005123D01*
X004843Y005181D02*
X002666Y005181D01*
X002525Y005338D02*
X003150Y005338D01*
X003338Y005525D01*
X003338Y005829D01*
X003327Y005839D01*
X003493Y005474D02*
X003532Y005474D01*
X003532Y005415D02*
X003397Y005415D01*
X003339Y005357D02*
X003554Y005357D01*
X003612Y005298D02*
X003280Y005298D01*
X003222Y005240D02*
X004843Y005240D01*
X004843Y005298D02*
X003908Y005298D01*
X003967Y005357D02*
X004843Y005357D01*
X004843Y005415D02*
X003988Y005415D01*
X003988Y005474D02*
X004027Y005474D01*
X004359Y005474D02*
X004843Y005474D01*
X004843Y005532D02*
X004418Y005532D01*
X004421Y005591D02*
X004843Y005591D01*
X004843Y005649D02*
X004421Y005649D01*
X004421Y005708D02*
X004843Y005708D01*
X004843Y005766D02*
X004421Y005766D01*
X004421Y005825D02*
X004843Y005825D01*
X004843Y005883D02*
X004421Y005883D01*
X004421Y005942D02*
X004843Y005942D01*
X004843Y006000D02*
X004421Y006000D01*
X004421Y006059D02*
X004843Y006059D01*
X004843Y006117D02*
X004421Y006117D01*
X004388Y006176D02*
X004843Y006176D01*
X005507Y006176D02*
X006287Y006176D01*
X006313Y006117D02*
X005507Y006117D01*
X005507Y006059D02*
X006313Y006059D01*
X006229Y006234D02*
X005507Y006234D01*
X005507Y006293D02*
X006170Y006293D01*
X006112Y006351D02*
X005507Y006351D01*
X005507Y006410D02*
X006053Y006410D01*
X005995Y006468D02*
X005796Y006468D01*
X005566Y006468D02*
X005507Y006468D01*
X005974Y006878D02*
X006034Y006878D01*
X006034Y006936D02*
X005974Y006936D01*
X005974Y006995D02*
X006034Y006995D01*
X006034Y007053D02*
X005974Y007053D01*
X005974Y007112D02*
X006034Y007112D01*
X006034Y007170D02*
X005974Y007170D01*
X005974Y007229D02*
X006034Y007229D01*
X006034Y007287D02*
X005974Y007287D01*
X005974Y007463D02*
X006034Y007463D01*
X006034Y007521D02*
X005974Y007521D01*
X005974Y007580D02*
X006034Y007580D01*
X006034Y007638D02*
X005974Y007638D01*
X005974Y007697D02*
X006034Y007697D01*
X006034Y007755D02*
X005974Y007755D01*
X003609Y006938D02*
X003549Y006878D01*
X003760Y006165D02*
X003760Y005681D01*
X002525Y005838D02*
X002461Y005839D01*
X002461Y006211D01*
X002588Y006338D01*
X002058Y006351D02*
X001998Y006351D01*
X001998Y006293D02*
X002058Y006293D01*
X002058Y006234D02*
X001998Y006234D01*
X001998Y006176D02*
X002058Y006176D01*
X002058Y006117D02*
X001998Y006117D01*
X001998Y006059D02*
X002058Y006059D01*
X002058Y005966D02*
X001998Y005966D01*
X001998Y005611D01*
X001921Y005611D01*
X001886Y005621D01*
X001854Y005639D01*
X001828Y005665D01*
X001823Y005674D01*
X001823Y005535D01*
X001753Y005466D01*
X001762Y005457D01*
X001973Y005457D01*
X002063Y005547D01*
X002233Y005547D01*
X002233Y005674D01*
X002228Y005665D01*
X002202Y005639D01*
X002170Y005621D01*
X002135Y005611D01*
X002058Y005611D01*
X002058Y005966D01*
X002058Y005942D02*
X001998Y005942D01*
X001998Y005883D02*
X002058Y005883D01*
X002058Y005825D02*
X001998Y005825D01*
X001998Y005766D02*
X002058Y005766D01*
X002058Y005708D02*
X001998Y005708D01*
X001998Y005649D02*
X002058Y005649D01*
X002048Y005532D02*
X001819Y005532D01*
X001823Y005591D02*
X002233Y005591D01*
X002233Y005649D02*
X002212Y005649D01*
X001989Y005474D02*
X001761Y005474D01*
X001713Y005338D02*
X002150Y005338D01*
X002009Y005181D02*
X000530Y005181D01*
X000530Y005123D02*
X002128Y005123D01*
X002128Y005064D02*
X000530Y005064D01*
X000530Y005006D02*
X002086Y005006D01*
X002027Y004947D02*
X000530Y004947D01*
X000530Y004889D02*
X001969Y004889D01*
X001968Y004830D02*
X000530Y004830D01*
X000530Y004772D02*
X001968Y004772D01*
X001968Y004713D02*
X000530Y004713D01*
X000530Y004655D02*
X001968Y004655D01*
X001968Y004596D02*
X000530Y004596D01*
X000530Y004538D02*
X001968Y004538D01*
X001968Y004479D02*
X000530Y004479D01*
X000530Y004421D02*
X001968Y004421D01*
X001968Y004362D02*
X000530Y004362D01*
X000530Y004304D02*
X001968Y004304D01*
X001968Y004245D02*
X000530Y004245D01*
X000530Y004187D02*
X001968Y004187D01*
X001968Y004128D02*
X000530Y004128D01*
X000530Y004070D02*
X001968Y004070D01*
X001968Y004011D02*
X000530Y004011D01*
X000530Y003953D02*
X001968Y003953D01*
X001968Y003894D02*
X000530Y003894D01*
X000530Y003836D02*
X001968Y003836D01*
X001968Y003777D02*
X000530Y003777D01*
X000530Y003719D02*
X001968Y003719D01*
X001968Y003660D02*
X000530Y003660D01*
X000530Y003602D02*
X000839Y003602D01*
X000854Y003616D02*
X000810Y003573D01*
X000740Y003503D01*
X000740Y003317D01*
X000764Y003293D01*
X000740Y003269D01*
X000740Y003126D01*
X000751Y003115D01*
X000740Y003104D01*
X000740Y002831D01*
X000794Y002777D01*
X000775Y002771D01*
X000771Y002762D01*
X000762Y002758D01*
X000749Y002719D01*
X000730Y002682D01*
X000734Y002673D01*
X000730Y002664D01*
X000749Y002627D01*
X000762Y002588D01*
X000771Y002584D01*
X000775Y002575D01*
X000814Y002562D01*
X001024Y002457D01*
X001119Y002488D01*
X001163Y002577D01*
X001132Y002671D01*
X001128Y002673D01*
X001132Y002675D01*
X001163Y002769D01*
X001139Y002817D01*
X001240Y002918D01*
X001240Y003017D01*
X001239Y003018D01*
X001170Y003088D01*
X000985Y003088D01*
X001023Y003126D01*
X001023Y003203D01*
X001127Y003203D01*
X001170Y003246D01*
X001240Y003317D01*
X001240Y003503D01*
X001170Y003573D01*
X001127Y003616D01*
X000854Y003616D01*
X000780Y003543D02*
X000530Y003543D01*
X000530Y003485D02*
X000740Y003485D01*
X000740Y003426D02*
X000530Y003426D01*
X000530Y003368D02*
X000740Y003368D01*
X000747Y003309D02*
X000530Y003309D01*
X000530Y003251D02*
X000740Y003251D01*
X000740Y003192D02*
X000530Y003192D01*
X000530Y003134D02*
X000740Y003134D01*
X000740Y003075D02*
X000530Y003075D01*
X000530Y003017D02*
X000740Y003017D01*
X000740Y002958D02*
X000530Y002958D01*
X000530Y002900D02*
X000740Y002900D01*
X000740Y002841D02*
X000530Y002841D01*
X000530Y002783D02*
X000789Y002783D01*
X000751Y002724D02*
X000530Y002724D01*
X000530Y002666D02*
X000731Y002666D01*
X000755Y002607D02*
X000530Y002607D01*
X000530Y002549D02*
X000841Y002549D01*
X000860Y002673D02*
X001033Y002760D01*
X001148Y002724D02*
X001968Y002724D01*
X001968Y002666D02*
X001134Y002666D01*
X001153Y002607D02*
X001968Y002607D01*
X001968Y002549D02*
X001149Y002549D01*
X001120Y002490D02*
X001968Y002490D01*
X001940Y002432D02*
X000530Y002432D01*
X000530Y002490D02*
X000958Y002490D01*
X001033Y002586D02*
X000860Y002673D01*
X000860Y002881D02*
X000860Y003054D01*
X000860Y002968D02*
X001120Y002968D01*
X001033Y002881D01*
X001163Y002841D02*
X001968Y002841D01*
X001968Y002783D02*
X001156Y002783D01*
X001222Y002900D02*
X001968Y002900D01*
X001968Y002958D02*
X001240Y002958D01*
X001240Y003017D02*
X001968Y003017D01*
X001968Y003075D02*
X001183Y003075D01*
X001023Y003134D02*
X001968Y003134D01*
X001968Y003192D02*
X001023Y003192D01*
X000903Y003176D02*
X000903Y003219D01*
X000860Y003219D01*
X000860Y003176D01*
X000903Y003176D01*
X000903Y003323D02*
X001077Y003496D01*
X000903Y003496D01*
X000860Y003453D01*
X000860Y003366D01*
X000903Y003323D01*
X001077Y003323D01*
X001120Y003366D01*
X001120Y003453D01*
X001077Y003496D01*
X001141Y003602D02*
X001968Y003602D01*
X001968Y003543D02*
X001200Y003543D01*
X001240Y003485D02*
X001968Y003485D01*
X001968Y003426D02*
X001240Y003426D01*
X001240Y003368D02*
X001968Y003368D01*
X001968Y003309D02*
X001233Y003309D01*
X001174Y003251D02*
X001968Y003251D01*
X002088Y002411D02*
X003212Y002411D01*
X003800Y001823D01*
X003900Y001861D01*
X004244Y001847D02*
X005846Y001847D01*
X005843Y001905D02*
X004244Y001905D01*
X004244Y001964D02*
X005843Y001964D01*
X005843Y002022D02*
X004244Y002022D01*
X004244Y002081D02*
X005843Y002081D01*
X005843Y002139D02*
X004212Y002139D01*
X004244Y001788D02*
X005905Y001788D01*
X005963Y001730D02*
X004244Y001730D01*
X004244Y001671D02*
X006022Y001671D01*
X006080Y001613D02*
X004244Y001613D01*
X004244Y001554D02*
X006158Y001554D01*
X006216Y001496D02*
X004200Y001496D01*
X003399Y001496D02*
X001838Y001496D01*
X001882Y001554D02*
X003355Y001554D01*
X003355Y001613D02*
X001882Y001613D01*
X001882Y001671D02*
X003355Y001671D01*
X003355Y001730D02*
X001882Y001730D01*
X001882Y001788D02*
X003355Y001788D01*
X003355Y001847D02*
X001882Y001847D01*
X001882Y001905D02*
X003355Y001905D01*
X003355Y001964D02*
X001882Y001964D01*
X001882Y002022D02*
X003355Y002022D01*
X003355Y002081D02*
X001932Y002081D01*
X001989Y002139D02*
X003314Y002139D01*
X003256Y002198D02*
X002046Y002198D01*
X002104Y002256D02*
X003197Y002256D01*
X003537Y002256D02*
X005843Y002256D01*
X005843Y002198D02*
X003595Y002198D01*
X004474Y002490D02*
X005128Y002490D01*
X005128Y002549D02*
X004533Y002549D01*
X004547Y002607D02*
X005072Y002607D01*
X006275Y001437D02*
X000558Y001437D01*
X000535Y001496D02*
X001037Y001496D01*
X000993Y001554D02*
X000530Y001554D01*
X000530Y001613D02*
X000993Y001613D01*
X000993Y001671D02*
X000530Y001671D01*
X000530Y001730D02*
X000993Y001730D01*
X000993Y001788D02*
X000530Y001788D01*
X000530Y001847D02*
X000993Y001847D01*
X000993Y001905D02*
X000530Y001905D01*
X000530Y001964D02*
X000993Y001964D01*
X000993Y002022D02*
X000530Y002022D01*
X000530Y002081D02*
X000993Y002081D01*
X001025Y002139D02*
X000530Y002139D01*
X000530Y002198D02*
X001710Y002198D01*
X001767Y002256D02*
X000530Y002256D01*
X000530Y002315D02*
X001825Y002315D01*
X001882Y002373D02*
X000530Y002373D01*
X000593Y001379D02*
X006333Y001379D01*
X006548Y001320D02*
X000658Y001320D01*
X001463Y001698D02*
X001437Y001823D01*
X001525Y001838D02*
X001463Y001698D01*
X001525Y001838D02*
X002088Y002411D01*
X002088Y004838D01*
X002338Y005088D01*
X001713Y005338D02*
X001595Y005455D01*
X001595Y005839D01*
X001790Y006176D02*
X001800Y006176D01*
X001800Y006234D02*
X000530Y006234D01*
X000530Y006176D02*
X000967Y006176D01*
X000934Y006117D02*
X000530Y006117D01*
X000530Y006059D02*
X000934Y006059D01*
X000934Y006000D02*
X000530Y006000D01*
X000530Y005942D02*
X000934Y005942D01*
X000934Y005883D02*
X000530Y005883D01*
X000530Y005825D02*
X000934Y005825D01*
X000934Y005766D02*
X000530Y005766D01*
X000530Y005708D02*
X000934Y005708D01*
X000934Y005649D02*
X000530Y005649D01*
X000530Y005591D02*
X000934Y005591D01*
X000937Y005532D02*
X000530Y005532D01*
X000530Y005474D02*
X000996Y005474D01*
X001328Y005474D02*
X001429Y005474D01*
X001475Y005415D02*
X000530Y005415D01*
X000530Y005357D02*
X001524Y005357D01*
X001582Y005298D02*
X000530Y005298D01*
X000530Y005240D02*
X001641Y005240D01*
X001823Y005649D02*
X001844Y005649D01*
X001400Y006176D02*
X001357Y006176D01*
X001088Y006527D02*
X001940Y006527D01*
X001940Y006585D02*
X001154Y006585D01*
X001173Y006644D02*
X001940Y006644D01*
X001968Y006702D02*
X001173Y006702D01*
X000837Y006702D02*
X000777Y006702D01*
X000777Y006644D02*
X000837Y006644D01*
X000837Y006585D02*
X000777Y006585D01*
X000777Y006527D02*
X000837Y006527D01*
X000837Y006761D02*
X000777Y006761D01*
X000777Y006819D02*
X000837Y006819D01*
X000837Y006878D02*
X000777Y006878D01*
X000777Y006936D02*
X000837Y006936D01*
X000530Y006468D02*
X001972Y006468D01*
X002031Y006410D02*
X000530Y006410D01*
X000530Y006351D02*
X001851Y006351D01*
X001809Y006293D02*
X000530Y006293D01*
X004766Y004596D02*
X005168Y004596D01*
X006592Y001379D02*
X006612Y001379D01*
X014739Y010973D02*
X014801Y010973D01*
X014801Y011031D02*
X014739Y011031D01*
X014739Y011090D02*
X014801Y011090D01*
X014801Y011148D02*
X014739Y011148D01*
X014739Y011207D02*
X014801Y011207D01*
X014801Y011265D02*
X014739Y011265D01*
X014739Y011324D02*
X014801Y011324D01*
X014801Y011382D02*
X014739Y011382D01*
X014739Y011441D02*
X014801Y011441D01*
X014801Y011499D02*
X014739Y011499D01*
X014739Y011558D02*
X014801Y011558D01*
X014801Y011616D02*
X014739Y011616D01*
X014739Y011675D02*
X014801Y011675D01*
X014801Y011733D02*
X014737Y011733D01*
X014678Y011792D02*
X014801Y011792D01*
X014801Y011850D02*
X014620Y011850D01*
X014584Y011909D02*
X014801Y011909D01*
X014801Y011967D02*
X014585Y011967D01*
X014585Y012026D02*
X014801Y012026D01*
X014801Y012084D02*
X014585Y012084D01*
X014585Y012143D02*
X014801Y012143D01*
X014801Y012201D02*
X014550Y012201D01*
X014491Y012260D02*
X014801Y012260D01*
X014801Y012318D02*
X014444Y012318D01*
X014275Y012038D02*
X014275Y012025D01*
X014619Y011681D01*
X013332Y011733D02*
X012832Y011733D01*
X012832Y011675D02*
X013274Y011675D01*
X013215Y011616D02*
X012832Y011616D01*
X012832Y011558D02*
X013215Y011558D01*
X013333Y011792D02*
X012832Y011792D01*
X012832Y011850D02*
X013274Y011850D01*
X013216Y011909D02*
X012832Y011909D01*
X012832Y011967D02*
X013215Y011967D01*
X013215Y012026D02*
X012832Y012026D01*
X012832Y012084D02*
X013215Y012084D01*
X013215Y012143D02*
X012827Y012143D01*
X012769Y012201D02*
X013250Y012201D01*
X013309Y012260D02*
X012710Y012260D01*
X012652Y012318D02*
X013356Y012318D01*
X013298Y012377D02*
X012593Y012377D01*
X012535Y012435D02*
X013239Y012435D01*
X013215Y012494D02*
X012476Y012494D01*
X012418Y012552D02*
X013215Y012552D01*
X013215Y012611D02*
X012359Y012611D01*
X012301Y012669D02*
X013215Y012669D01*
X013227Y012728D02*
X012242Y012728D01*
X012184Y012786D02*
X013285Y012786D01*
X013048Y013137D02*
X011333Y013137D01*
X011391Y013079D02*
X011469Y013079D01*
X011274Y013196D02*
X012989Y013196D01*
X012931Y013254D02*
X011216Y013254D01*
X011270Y013200D02*
X011270Y013200D01*
X011706Y013079D02*
X011782Y013079D01*
X010963Y012728D02*
X010900Y012728D01*
X008900Y015713D02*
X008775Y015838D01*
X008775Y015900D01*
X008838Y015838D01*
X008900Y015838D01*
X008931Y015869D02*
X008931Y016034D01*
X009366Y016468D01*
X009588Y016400D02*
X008900Y015713D01*
X008775Y015900D02*
X008775Y016213D01*
X009275Y016713D01*
X009463Y016713D01*
X009588Y016588D01*
X009588Y016400D01*
X009287Y019455D02*
X014614Y019455D01*
X016742Y007196D02*
X016790Y007200D01*
X018946Y007200D01*
X018995Y007196D01*
X019044Y007181D01*
X019069Y007167D01*
X018727Y007167D01*
X018645Y007086D01*
X018645Y006361D01*
X018727Y006279D01*
X019207Y006279D01*
X019207Y003209D01*
X018727Y003209D01*
X018645Y003127D01*
X018645Y002402D01*
X018727Y002320D01*
X019082Y002320D01*
X019044Y002300D01*
X018995Y002285D01*
X018946Y002280D01*
X016794Y002280D01*
X016742Y002285D01*
X016658Y002320D01*
X017011Y002320D01*
X017093Y002402D01*
X017093Y003127D01*
X017011Y003209D01*
X016530Y003209D01*
X016530Y003348D01*
X016532Y003350D01*
X016530Y003402D01*
X016530Y003454D01*
X016530Y003454D01*
X016530Y005846D01*
X016530Y005898D01*
X016532Y005950D01*
X016530Y005952D01*
X016530Y006279D01*
X017011Y006279D01*
X017093Y006361D01*
X017093Y007086D01*
X017011Y007167D01*
X016668Y007167D01*
X016693Y007181D01*
X016742Y007196D01*
X016673Y007170D02*
X019064Y007170D01*
X018671Y007112D02*
X017067Y007112D01*
X017093Y007053D02*
X018157Y007053D01*
X018164Y007060D02*
X018094Y006990D01*
X018094Y006973D01*
X018034Y006973D01*
X017980Y006919D01*
X017969Y006930D01*
X017925Y006973D01*
X017739Y006973D01*
X017707Y006941D01*
X017701Y006947D01*
X017631Y007017D01*
X017531Y007017D01*
X017461Y006947D01*
X017461Y006947D01*
X017418Y006903D01*
X017418Y006804D01*
X017455Y006767D01*
X017418Y006730D01*
X017418Y006630D01*
X017488Y006560D01*
X017587Y006560D01*
X017663Y006636D01*
X017696Y006603D01*
X017739Y006560D01*
X017925Y006560D01*
X017980Y006614D01*
X017991Y006603D01*
X018034Y006560D01*
X018263Y006560D01*
X018334Y006630D01*
X018334Y006903D01*
X018334Y006990D01*
X018263Y007060D01*
X018164Y007060D01*
X018098Y006995D02*
X017653Y006995D01*
X017701Y006947D02*
X017701Y006947D01*
X017624Y006853D02*
X017538Y006853D01*
X017581Y006897D02*
X017581Y006723D01*
X017538Y006680D01*
X017449Y006761D02*
X017093Y006761D01*
X017093Y006819D02*
X017418Y006819D01*
X017418Y006878D02*
X017093Y006878D01*
X017093Y006936D02*
X017451Y006936D01*
X017509Y006995D02*
X017093Y006995D01*
X017093Y006702D02*
X017418Y006702D01*
X017418Y006644D02*
X017093Y006644D01*
X017093Y006585D02*
X017463Y006585D01*
X017612Y006585D02*
X017714Y006585D01*
X017789Y006680D02*
X017746Y006723D01*
X017746Y006810D01*
X017789Y006853D01*
X017876Y006853D01*
X017919Y006810D01*
X017919Y006723D01*
X017876Y006680D01*
X017789Y006680D01*
X017950Y006585D02*
X018009Y006585D01*
X018084Y006680D02*
X018040Y006723D01*
X018040Y006810D01*
X018084Y006853D01*
X018214Y006853D01*
X018214Y006940D02*
X018214Y006680D01*
X018084Y006680D01*
X018288Y006585D02*
X018645Y006585D01*
X018645Y006527D02*
X017093Y006527D01*
X017093Y006468D02*
X018645Y006468D01*
X018645Y006410D02*
X017093Y006410D01*
X017083Y006351D02*
X018654Y006351D01*
X018713Y006293D02*
X017025Y006293D01*
X017332Y005942D02*
X016531Y005942D01*
X016530Y006000D02*
X017391Y006000D01*
X017407Y006016D02*
X017284Y005893D01*
X017284Y005719D01*
X017407Y005596D01*
X017520Y005596D01*
X017535Y005582D01*
X017475Y005522D01*
X017405Y005593D01*
X017152Y005593D01*
X017070Y005511D01*
X017070Y005407D01*
X016986Y005407D01*
X016862Y005284D01*
X016721Y005143D01*
X016721Y004885D01*
X016721Y004884D01*
X016683Y004793D01*
X016683Y004694D01*
X016721Y004603D01*
X016791Y004533D01*
X016882Y004495D01*
X016981Y004495D01*
X017070Y004532D01*
X017070Y004319D01*
X017249Y004319D01*
X017249Y004261D01*
X017070Y004261D01*
X017070Y004016D01*
X017080Y003981D01*
X017098Y003949D01*
X017124Y003923D01*
X017156Y003904D01*
X017191Y003895D01*
X017249Y003895D01*
X017249Y004261D01*
X017307Y004261D01*
X017307Y003895D01*
X017365Y003895D01*
X017401Y003904D01*
X017432Y003923D01*
X017458Y003949D01*
X017471Y003970D01*
X017546Y003895D01*
X017551Y003895D01*
X017551Y003752D01*
X017627Y003676D01*
X017659Y003645D01*
X017659Y003594D01*
X017782Y003471D01*
X017956Y003471D01*
X018056Y003572D01*
X018157Y003471D01*
X018237Y003471D01*
X017981Y003216D01*
X017918Y003242D01*
X017819Y003242D01*
X017728Y003204D01*
X017658Y003134D01*
X017620Y003043D01*
X017620Y002944D01*
X017658Y002853D01*
X017728Y002783D01*
X017819Y002745D01*
X017918Y002745D01*
X018009Y002783D01*
X018010Y002784D01*
X018143Y002784D01*
X018643Y003284D01*
X018766Y003407D01*
X018766Y003956D01*
X018669Y004053D01*
X018669Y004080D01*
X018752Y004080D01*
X018875Y004203D01*
X019016Y004344D01*
X019016Y004602D01*
X019017Y004603D01*
X019055Y004694D01*
X019055Y004793D01*
X019017Y004884D01*
X018947Y004954D01*
X018856Y004992D01*
X018757Y004992D01*
X018667Y004955D01*
X018667Y005168D01*
X018488Y005168D01*
X018488Y004802D01*
X018546Y004802D01*
X018564Y004807D01*
X018558Y004793D01*
X018558Y004694D01*
X018562Y004685D01*
X018333Y004685D01*
X018262Y004615D01*
X018192Y004685D01*
X018119Y004685D01*
X018124Y004690D01*
X018196Y004762D01*
X018196Y004806D01*
X018267Y004877D01*
X018279Y004856D01*
X018305Y004830D01*
X018337Y004812D01*
X018372Y004802D01*
X018430Y004802D01*
X018430Y005168D01*
X018488Y005168D01*
X018488Y005227D01*
X018430Y005227D01*
X018430Y005593D01*
X018372Y005593D01*
X018337Y005583D01*
X018305Y005565D01*
X018279Y005539D01*
X018267Y005518D01*
X018196Y005589D01*
X018196Y005726D01*
X018119Y005802D01*
X018079Y005843D01*
X018079Y005893D01*
X017956Y006016D01*
X017782Y006016D01*
X017681Y005916D01*
X017581Y006016D01*
X017407Y006016D01*
X017284Y005883D02*
X016530Y005883D01*
X016530Y005846D02*
X016530Y005846D01*
X016530Y005825D02*
X017284Y005825D01*
X017284Y005766D02*
X016530Y005766D01*
X016530Y005708D02*
X017295Y005708D01*
X017354Y005649D02*
X016530Y005649D01*
X016530Y005591D02*
X017150Y005591D01*
X017091Y005532D02*
X016530Y005532D01*
X016530Y005474D02*
X017070Y005474D01*
X017070Y005415D02*
X016530Y005415D01*
X016530Y005357D02*
X016935Y005357D01*
X016876Y005298D02*
X016530Y005298D01*
X016530Y005240D02*
X016818Y005240D01*
X016759Y005181D02*
X016530Y005181D01*
X016530Y005123D02*
X016721Y005123D01*
X016721Y005064D02*
X016530Y005064D01*
X016530Y005006D02*
X016721Y005006D01*
X016721Y004947D02*
X016530Y004947D01*
X016530Y004889D02*
X016721Y004889D01*
X016698Y004830D02*
X016530Y004830D01*
X016530Y004772D02*
X016683Y004772D01*
X016683Y004713D02*
X016530Y004713D01*
X016530Y004655D02*
X016699Y004655D01*
X016728Y004596D02*
X016530Y004596D01*
X016530Y004538D02*
X016786Y004538D01*
X016530Y004479D02*
X017070Y004479D01*
X017070Y004421D02*
X016530Y004421D01*
X016530Y004362D02*
X017070Y004362D01*
X017070Y004245D02*
X016530Y004245D01*
X016530Y004187D02*
X017070Y004187D01*
X017070Y004128D02*
X016530Y004128D01*
X016530Y004070D02*
X017070Y004070D01*
X017071Y004011D02*
X016530Y004011D01*
X016530Y003953D02*
X017096Y003953D01*
X017249Y003953D02*
X017307Y003953D01*
X017307Y004011D02*
X017249Y004011D01*
X017249Y004070D02*
X017307Y004070D01*
X017307Y004128D02*
X017249Y004128D01*
X017249Y004187D02*
X017307Y004187D01*
X017307Y004245D02*
X017249Y004245D01*
X017249Y004304D02*
X016530Y004304D01*
X016530Y003894D02*
X017551Y003894D01*
X017551Y003836D02*
X016530Y003836D01*
X016530Y003777D02*
X017551Y003777D01*
X017585Y003719D02*
X016530Y003719D01*
X016530Y003660D02*
X017644Y003660D01*
X017659Y003602D02*
X016530Y003602D01*
X016530Y003543D02*
X017710Y003543D01*
X017769Y003485D02*
X016530Y003485D01*
X016530Y003426D02*
X018192Y003426D01*
X018144Y003485D02*
X017969Y003485D01*
X018027Y003543D02*
X018085Y003543D01*
X018133Y003368D02*
X016531Y003368D01*
X016530Y003309D02*
X018075Y003309D01*
X018016Y003251D02*
X016530Y003251D01*
X017028Y003192D02*
X017716Y003192D01*
X017658Y003134D02*
X017086Y003134D01*
X017093Y003075D02*
X017634Y003075D01*
X017620Y003017D02*
X017093Y003017D01*
X017093Y002958D02*
X017620Y002958D01*
X017639Y002900D02*
X017093Y002900D01*
X017093Y002841D02*
X017670Y002841D01*
X017730Y002783D02*
X017093Y002783D01*
X017093Y002724D02*
X018645Y002724D01*
X018645Y002666D02*
X017093Y002666D01*
X017093Y002607D02*
X018645Y002607D01*
X018645Y002549D02*
X017093Y002549D01*
X017093Y002490D02*
X018645Y002490D01*
X018645Y002432D02*
X017093Y002432D01*
X017064Y002373D02*
X018674Y002373D01*
X019072Y002315D02*
X016671Y002315D01*
X018008Y002783D02*
X018645Y002783D01*
X018645Y002841D02*
X018200Y002841D01*
X018259Y002900D02*
X018645Y002900D01*
X018645Y002958D02*
X018317Y002958D01*
X018376Y003017D02*
X018645Y003017D01*
X018645Y003075D02*
X018434Y003075D01*
X018493Y003134D02*
X018651Y003134D01*
X018710Y003192D02*
X018551Y003192D01*
X018610Y003251D02*
X019207Y003251D01*
X019207Y003309D02*
X018668Y003309D01*
X018643Y003284D02*
X018643Y003284D01*
X018727Y003368D02*
X019207Y003368D01*
X019207Y003426D02*
X018766Y003426D01*
X018766Y003485D02*
X019207Y003485D01*
X019207Y003543D02*
X018766Y003543D01*
X018766Y003602D02*
X019207Y003602D01*
X019207Y003660D02*
X018766Y003660D01*
X018766Y003719D02*
X019207Y003719D01*
X019207Y003777D02*
X018766Y003777D01*
X018766Y003836D02*
X019207Y003836D01*
X019207Y003894D02*
X018766Y003894D01*
X018766Y003953D02*
X019207Y003953D01*
X019207Y004011D02*
X018711Y004011D01*
X018669Y004070D02*
X019207Y004070D01*
X019207Y004128D02*
X018800Y004128D01*
X018859Y004187D02*
X019207Y004187D01*
X019207Y004245D02*
X018917Y004245D01*
X018976Y004304D02*
X019207Y004304D01*
X019207Y004362D02*
X019016Y004362D01*
X019016Y004421D02*
X019207Y004421D01*
X019207Y004479D02*
X019016Y004479D01*
X019016Y004538D02*
X019207Y004538D01*
X019207Y004596D02*
X019016Y004596D01*
X019038Y004655D02*
X019207Y004655D01*
X019207Y004713D02*
X019055Y004713D01*
X019055Y004772D02*
X019207Y004772D01*
X019207Y004830D02*
X019039Y004830D01*
X019013Y004889D02*
X019207Y004889D01*
X019207Y004947D02*
X018954Y004947D01*
X019207Y005006D02*
X018667Y005006D01*
X018667Y005064D02*
X019207Y005064D01*
X019207Y005123D02*
X018667Y005123D01*
X018667Y005227D02*
X018488Y005227D01*
X018488Y005593D01*
X018546Y005593D01*
X018582Y005583D01*
X018614Y005565D01*
X018640Y005539D01*
X018658Y005507D01*
X018667Y005471D01*
X018667Y005227D01*
X018667Y005240D02*
X019207Y005240D01*
X019207Y005298D02*
X018667Y005298D01*
X018667Y005357D02*
X019207Y005357D01*
X019207Y005415D02*
X018667Y005415D01*
X018667Y005474D02*
X019207Y005474D01*
X019207Y005532D02*
X018643Y005532D01*
X018554Y005591D02*
X019207Y005591D01*
X019207Y005649D02*
X018196Y005649D01*
X018196Y005591D02*
X018365Y005591D01*
X018430Y005591D02*
X018488Y005591D01*
X018488Y005532D02*
X018430Y005532D01*
X018430Y005474D02*
X018488Y005474D01*
X018488Y005415D02*
X018430Y005415D01*
X018430Y005357D02*
X018488Y005357D01*
X018488Y005298D02*
X018430Y005298D01*
X018430Y005240D02*
X018488Y005240D01*
X018488Y005181D02*
X019207Y005181D01*
X019207Y005708D02*
X018196Y005708D01*
X018155Y005766D02*
X019207Y005766D01*
X019207Y005825D02*
X018097Y005825D01*
X018079Y005883D02*
X019207Y005883D01*
X019207Y005942D02*
X018030Y005942D01*
X017972Y006000D02*
X019207Y006000D01*
X019207Y006059D02*
X016530Y006059D01*
X016530Y006117D02*
X019207Y006117D01*
X019207Y006176D02*
X016530Y006176D01*
X016530Y006234D02*
X019207Y006234D01*
X018645Y006644D02*
X018334Y006644D01*
X018334Y006702D02*
X018645Y006702D01*
X018645Y006761D02*
X018334Y006761D01*
X018334Y006819D02*
X018645Y006819D01*
X018645Y006878D02*
X018334Y006878D01*
X018334Y006936D02*
X018645Y006936D01*
X018645Y006995D02*
X018329Y006995D01*
X018271Y007053D02*
X018645Y007053D01*
X017996Y006936D02*
X017963Y006936D01*
X017766Y006000D02*
X017597Y006000D01*
X017655Y005942D02*
X017707Y005942D01*
X017526Y005591D02*
X017407Y005591D01*
X017465Y005532D02*
X017485Y005532D01*
X017475Y004873D02*
X017546Y004802D01*
X017619Y004802D01*
X017618Y004802D01*
X017542Y004726D01*
X017542Y004681D01*
X017471Y004610D01*
X017458Y004631D01*
X017432Y004657D01*
X017401Y004676D01*
X017365Y004685D01*
X017307Y004685D01*
X017307Y004319D01*
X017249Y004319D01*
X017249Y004685D01*
X017191Y004685D01*
X017174Y004680D01*
X017180Y004694D01*
X017180Y004793D01*
X017176Y004802D01*
X017405Y004802D01*
X017475Y004873D01*
X017432Y004830D02*
X017518Y004830D01*
X017588Y004772D02*
X017180Y004772D01*
X017180Y004713D02*
X017542Y004713D01*
X017515Y004655D02*
X017435Y004655D01*
X017307Y004655D02*
X017249Y004655D01*
X017249Y004596D02*
X017307Y004596D01*
X017307Y004538D02*
X017249Y004538D01*
X017249Y004479D02*
X017307Y004479D01*
X017307Y004421D02*
X017249Y004421D01*
X017249Y004362D02*
X017307Y004362D01*
X017461Y003953D02*
X017488Y003953D01*
X018147Y004713D02*
X018558Y004713D01*
X018558Y004772D02*
X018196Y004772D01*
X018220Y004830D02*
X018306Y004830D01*
X018430Y004830D02*
X018488Y004830D01*
X018488Y004889D02*
X018430Y004889D01*
X018430Y004947D02*
X018488Y004947D01*
X018488Y005006D02*
X018430Y005006D01*
X018430Y005064D02*
X018488Y005064D01*
X018488Y005123D02*
X018430Y005123D01*
X018275Y005532D02*
X018253Y005532D01*
X018223Y004655D02*
X018302Y004655D01*
D12*
X018390Y004546D02*
X018528Y004546D01*
X018528Y004034D01*
X018390Y004034D01*
X018390Y004546D01*
X018390Y004132D02*
X018528Y004132D01*
X018528Y004230D02*
X018390Y004230D01*
X018390Y004328D02*
X018528Y004328D01*
X018528Y004426D02*
X018390Y004426D01*
X018390Y004524D02*
X018528Y004524D01*
X018135Y004546D02*
X017997Y004546D01*
X018135Y004546D02*
X018135Y004034D01*
X017997Y004034D01*
X017997Y004546D01*
X017997Y004132D02*
X018135Y004132D01*
X018135Y004230D02*
X017997Y004230D01*
X017997Y004328D02*
X018135Y004328D01*
X018135Y004426D02*
X017997Y004426D01*
X017997Y004524D02*
X018135Y004524D01*
X017741Y004546D02*
X017603Y004546D01*
X017741Y004546D02*
X017741Y004034D01*
X017603Y004034D01*
X017603Y004546D01*
X017603Y004132D02*
X017741Y004132D01*
X017741Y004230D02*
X017603Y004230D01*
X017603Y004328D02*
X017741Y004328D01*
X017741Y004426D02*
X017603Y004426D01*
X017603Y004524D02*
X017741Y004524D01*
X017347Y004546D02*
X017209Y004546D01*
X017347Y004546D02*
X017347Y004034D01*
X017209Y004034D01*
X017209Y004546D01*
X017209Y004132D02*
X017347Y004132D01*
X017347Y004230D02*
X017209Y004230D01*
X017209Y004328D02*
X017347Y004328D01*
X017347Y004426D02*
X017209Y004426D01*
X017209Y004524D02*
X017347Y004524D01*
X017347Y004941D02*
X017209Y004941D01*
X017209Y005453D01*
X017347Y005453D01*
X017347Y004941D01*
X017347Y005039D02*
X017209Y005039D01*
X017209Y005137D02*
X017347Y005137D01*
X017347Y005235D02*
X017209Y005235D01*
X017209Y005333D02*
X017347Y005333D01*
X017347Y005431D02*
X017209Y005431D01*
X017603Y004941D02*
X017741Y004941D01*
X017603Y004941D02*
X017603Y005453D01*
X017741Y005453D01*
X017741Y004941D01*
X017741Y005039D02*
X017603Y005039D01*
X017603Y005137D02*
X017741Y005137D01*
X017741Y005235D02*
X017603Y005235D01*
X017603Y005333D02*
X017741Y005333D01*
X017741Y005431D02*
X017603Y005431D01*
X017997Y004941D02*
X018135Y004941D01*
X017997Y004941D02*
X017997Y005453D01*
X018135Y005453D01*
X018135Y004941D01*
X018135Y005039D02*
X017997Y005039D01*
X017997Y005137D02*
X018135Y005137D01*
X018135Y005235D02*
X017997Y005235D01*
X017997Y005333D02*
X018135Y005333D01*
X018135Y005431D02*
X017997Y005431D01*
X018390Y004941D02*
X018528Y004941D01*
X018390Y004941D02*
X018390Y005453D01*
X018528Y005453D01*
X018528Y004941D01*
X018528Y005039D02*
X018390Y005039D01*
X018390Y005137D02*
X018528Y005137D01*
X018528Y005235D02*
X018390Y005235D01*
X018390Y005333D02*
X018528Y005333D01*
X018528Y005431D02*
X018390Y005431D01*
X018784Y006418D02*
X019158Y006418D01*
X018784Y006418D02*
X018784Y007028D01*
X019158Y007028D01*
X019158Y006418D01*
X019158Y006516D02*
X018784Y006516D01*
X018784Y006614D02*
X019158Y006614D01*
X019158Y006712D02*
X018784Y006712D01*
X018784Y006810D02*
X019158Y006810D01*
X019158Y006908D02*
X018784Y006908D01*
X018784Y007006D02*
X019158Y007006D01*
X016953Y006418D02*
X016579Y006418D01*
X016579Y007028D01*
X016953Y007028D01*
X016953Y006418D01*
X016953Y006516D02*
X016579Y006516D01*
X016579Y006614D02*
X016953Y006614D01*
X016953Y006712D02*
X016579Y006712D01*
X016579Y006810D02*
X016953Y006810D01*
X016953Y006908D02*
X016579Y006908D01*
X016579Y007006D02*
X016953Y007006D01*
X016953Y003069D02*
X016579Y003069D01*
X016953Y003069D02*
X016953Y002459D01*
X016579Y002459D01*
X016579Y003069D01*
X016579Y002557D02*
X016953Y002557D01*
X016953Y002655D02*
X016579Y002655D01*
X016579Y002753D02*
X016953Y002753D01*
X016953Y002851D02*
X016579Y002851D01*
X016579Y002949D02*
X016953Y002949D01*
X016953Y003047D02*
X016579Y003047D01*
X018784Y003069D02*
X019158Y003069D01*
X019158Y002459D01*
X018784Y002459D01*
X018784Y003069D01*
X018784Y002557D02*
X019158Y002557D01*
X019158Y002655D02*
X018784Y002655D01*
X018784Y002753D02*
X019158Y002753D01*
X019158Y002851D02*
X018784Y002851D01*
X018784Y002949D02*
X019158Y002949D01*
X019158Y003047D02*
X018784Y003047D01*
X006230Y007010D02*
X005778Y007010D01*
X005778Y007660D01*
X006230Y007660D01*
X006230Y007010D01*
X006230Y007108D02*
X005778Y007108D01*
X005778Y007206D02*
X006230Y007206D01*
X006230Y007304D02*
X005778Y007304D01*
X005778Y007402D02*
X006230Y007402D01*
X006230Y007500D02*
X005778Y007500D01*
X005778Y007598D02*
X006230Y007598D01*
X004282Y005593D02*
X004104Y005593D01*
X004104Y006085D01*
X004282Y006085D01*
X004282Y005593D01*
X004282Y005691D02*
X004104Y005691D01*
X004104Y005789D02*
X004282Y005789D01*
X004282Y005887D02*
X004104Y005887D01*
X004104Y005985D02*
X004282Y005985D01*
X004282Y006083D02*
X004104Y006083D01*
X003849Y005435D02*
X003671Y005435D01*
X003671Y005927D01*
X003849Y005927D01*
X003849Y005435D01*
X003849Y005533D02*
X003671Y005533D01*
X003671Y005631D02*
X003849Y005631D01*
X003849Y005729D02*
X003671Y005729D01*
X003671Y005827D02*
X003849Y005827D01*
X003849Y005925D02*
X003671Y005925D01*
X003416Y005593D02*
X003238Y005593D01*
X003238Y006085D01*
X003416Y006085D01*
X003416Y005593D01*
X003416Y005691D02*
X003238Y005691D01*
X003238Y005789D02*
X003416Y005789D01*
X003416Y005887D02*
X003238Y005887D01*
X003238Y005985D02*
X003416Y005985D01*
X003416Y006083D02*
X003238Y006083D01*
X002983Y005750D02*
X002805Y005750D01*
X002805Y006242D01*
X002983Y006242D01*
X002983Y005750D01*
X002983Y005848D02*
X002805Y005848D01*
X002805Y005946D02*
X002983Y005946D01*
X002983Y006044D02*
X002805Y006044D01*
X002805Y006142D02*
X002983Y006142D01*
X002983Y006240D02*
X002805Y006240D01*
X002550Y005593D02*
X002372Y005593D01*
X002372Y006085D01*
X002550Y006085D01*
X002550Y005593D01*
X002550Y005691D02*
X002372Y005691D01*
X002372Y005789D02*
X002550Y005789D01*
X002550Y005887D02*
X002372Y005887D01*
X002372Y005985D02*
X002550Y005985D01*
X002550Y006083D02*
X002372Y006083D01*
X002117Y005750D02*
X001939Y005750D01*
X001939Y006242D01*
X002117Y006242D01*
X002117Y005750D01*
X002117Y005848D02*
X001939Y005848D01*
X001939Y005946D02*
X002117Y005946D01*
X002117Y006044D02*
X001939Y006044D01*
X001939Y006142D02*
X002117Y006142D01*
X002117Y006240D02*
X001939Y006240D01*
X001684Y005593D02*
X001506Y005593D01*
X001506Y006085D01*
X001684Y006085D01*
X001684Y005593D01*
X001684Y005691D02*
X001506Y005691D01*
X001506Y005789D02*
X001684Y005789D01*
X001684Y005887D02*
X001506Y005887D01*
X001506Y005985D02*
X001684Y005985D01*
X001684Y006083D02*
X001506Y006083D01*
X001251Y005593D02*
X001073Y005593D01*
X001073Y006085D01*
X001251Y006085D01*
X001251Y005593D01*
X001251Y005691D02*
X001073Y005691D01*
X001073Y005789D02*
X001251Y005789D01*
X001251Y005887D02*
X001073Y005887D01*
X001073Y005985D02*
X001251Y005985D01*
X001251Y006083D02*
X001073Y006083D01*
X001033Y006656D02*
X000581Y006656D01*
X000581Y007306D01*
X001033Y007306D01*
X001033Y006656D01*
X001033Y006754D02*
X000581Y006754D01*
X000581Y006852D02*
X001033Y006852D01*
X001033Y006950D02*
X000581Y006950D01*
X000581Y007048D02*
X001033Y007048D01*
X001033Y007146D02*
X000581Y007146D01*
X000581Y007244D02*
X001033Y007244D01*
X001132Y002049D02*
X001132Y001597D01*
X001132Y002049D02*
X001742Y002049D01*
X001742Y001597D01*
X001132Y001597D01*
X001132Y001695D02*
X001742Y001695D01*
X001742Y001793D02*
X001132Y001793D01*
X001132Y001891D02*
X001742Y001891D01*
X001742Y001989D02*
X001132Y001989D01*
X003495Y002049D02*
X003495Y001597D01*
X003495Y002049D02*
X004105Y002049D01*
X004105Y001597D01*
X003495Y001597D01*
X003495Y001695D02*
X004105Y001695D01*
X004105Y001793D02*
X003495Y001793D01*
X003495Y001891D02*
X004105Y001891D01*
X004105Y001989D02*
X003495Y001989D01*
D13*
X006463Y002238D03*
X006463Y002788D03*
X006463Y003338D03*
X006463Y004063D03*
X006463Y004613D03*
X006463Y005163D03*
X006463Y005713D03*
X006463Y001688D03*
X013525Y010938D03*
X013525Y011488D03*
X013525Y012038D03*
X013525Y012588D03*
X014275Y012588D03*
X014275Y012038D03*
X014275Y011488D03*
X014275Y010938D03*
D14*
X013025Y011650D03*
X013025Y012025D03*
X013025Y012900D03*
X013213Y013838D03*
X013213Y014213D03*
X013213Y014588D03*
X013213Y014900D03*
X012088Y014525D03*
X012088Y014150D03*
X011650Y014150D03*
X011650Y014525D03*
X011213Y014525D03*
X011213Y014150D03*
X010463Y013338D03*
X010775Y012900D03*
X011088Y012900D03*
X011588Y012900D03*
X011900Y012900D03*
X011713Y011650D03*
X012088Y011650D03*
X010463Y011650D03*
X010150Y011650D03*
X010150Y012400D03*
X010463Y012400D03*
X010150Y012900D03*
X009025Y012838D03*
X009025Y013338D03*
X010088Y014150D03*
X010088Y014463D03*
X009775Y014525D03*
X009338Y014525D03*
X008650Y014431D03*
X009338Y015275D03*
X008994Y015963D03*
X008650Y016650D03*
X007963Y017775D03*
X009400Y017963D03*
X010400Y017963D03*
X010400Y018275D03*
X010775Y018275D03*
X011150Y018838D03*
X011275Y017463D03*
X011088Y016150D03*
X011400Y016088D03*
X010775Y016088D03*
X010463Y015713D03*
X010088Y015275D03*
X010088Y014963D03*
X012775Y017463D03*
X013213Y018056D03*
X013213Y018713D03*
X012775Y018900D03*
X013963Y019306D03*
X014650Y018525D03*
X014088Y017025D03*
X013713Y016838D03*
X013713Y016463D03*
X014650Y016400D03*
X014650Y016838D03*
X014650Y014525D03*
X009463Y019306D03*
X003775Y008009D03*
X003244Y007306D03*
X003463Y007088D03*
X003088Y006588D03*
X002838Y006838D03*
X002588Y006338D03*
X002150Y006588D03*
X001213Y006338D03*
X000650Y005463D03*
X000650Y004275D03*
X001338Y003713D03*
X002338Y004713D03*
X002338Y005088D03*
X002525Y005338D03*
X002150Y005338D03*
X002900Y004338D03*
X002900Y003713D03*
X002900Y003338D03*
X002900Y002744D03*
X003900Y002650D03*
X004338Y002650D03*
X004775Y002650D03*
X005338Y002525D03*
X005338Y003338D03*
X005338Y003963D03*
X005338Y004338D03*
X005744Y004338D03*
X005744Y004713D03*
X005744Y005088D03*
X006025Y005838D03*
X005681Y006650D03*
X005275Y007088D03*
X004650Y005963D03*
X004650Y005525D03*
X004650Y005088D03*
X004150Y005088D03*
X003650Y005088D03*
X003650Y003963D03*
X004213Y003963D03*
X004525Y003963D03*
X006556Y006650D03*
X009556Y005556D03*
X010588Y005181D03*
X010588Y004869D03*
X010588Y004556D03*
X010588Y004244D03*
X009650Y004400D03*
X010806Y003213D03*
X010806Y002900D03*
X011181Y002900D03*
X011775Y001963D03*
X012150Y001963D03*
X012525Y001963D03*
X012900Y001963D03*
X013431Y002275D03*
X013431Y002900D03*
X013431Y003213D03*
X013681Y004353D03*
X014088Y004431D03*
X013588Y005588D03*
X014088Y005619D03*
X012556Y004900D03*
X012119Y004900D03*
X012119Y004463D03*
X012556Y004463D03*
X012556Y004025D03*
X012119Y004025D03*
X011681Y004025D03*
X011681Y004463D03*
X011681Y004900D03*
X010994Y005713D03*
X010744Y005900D03*
X010338Y006463D03*
X009838Y006869D03*
X009838Y007181D03*
X010338Y007775D03*
X011650Y007770D03*
X011963Y007775D03*
X012119Y007056D03*
X012056Y006744D03*
X012119Y006431D03*
X012119Y006025D03*
X013244Y007213D03*
X014088Y007400D03*
X016806Y005806D03*
X017494Y005806D03*
X017869Y005806D03*
X018931Y005806D03*
X018931Y003744D03*
X018244Y003681D03*
X017869Y003681D03*
X016806Y003744D03*
X014088Y000931D03*
X010588Y001525D03*
X010338Y001525D03*
X009338Y002463D03*
X000900Y001963D03*
D15*
X011963Y007588D02*
X011963Y007775D01*
X011963Y007588D02*
X012369Y007181D01*
X012369Y006900D01*
X012213Y006744D01*
X012056Y006744D01*
X012119Y006025D02*
X013150Y006025D01*
X013588Y005588D01*
X017025Y004503D02*
X017025Y003713D01*
X017463Y003713D01*
X017463Y003964D01*
X017454Y003973D01*
X017454Y004607D01*
X017463Y004616D01*
X017463Y004744D01*
X017190Y004744D01*
X017190Y004692D01*
X017150Y004597D01*
X017078Y004525D01*
X017025Y004503D01*
X017025Y004468D02*
X017454Y004468D01*
X017454Y004546D02*
X017099Y004546D01*
X017162Y004625D02*
X017463Y004625D01*
X017463Y004703D02*
X017190Y004703D01*
X017025Y004389D02*
X017454Y004389D01*
X017454Y004311D02*
X017025Y004311D01*
X017025Y004232D02*
X017454Y004232D01*
X017454Y004154D02*
X017025Y004154D01*
X017025Y004075D02*
X017454Y004075D01*
X017454Y003997D02*
X017025Y003997D01*
X017025Y003918D02*
X017463Y003918D01*
X017463Y003840D02*
X017025Y003840D01*
X017025Y003761D02*
X017463Y003761D01*
X017681Y003806D02*
X017681Y004281D01*
X017672Y004290D01*
X017672Y004672D01*
X017744Y004744D01*
X017994Y004744D01*
X018066Y004816D01*
X018066Y005197D01*
X018066Y005672D01*
X017931Y005806D01*
X017869Y005806D01*
X017672Y005628D02*
X017494Y005806D01*
X017672Y005628D02*
X017672Y005197D01*
X018284Y005174D02*
X018681Y005174D01*
X018681Y005096D02*
X018284Y005096D01*
X018284Y005017D02*
X018681Y005017D01*
X018681Y004972D02*
X018660Y004963D01*
X018587Y004890D01*
X018548Y004795D01*
X018548Y004744D01*
X018275Y004744D01*
X018275Y004871D01*
X018284Y004880D01*
X018284Y005515D01*
X018275Y005524D01*
X018275Y005619D01*
X018681Y005619D01*
X018681Y004972D01*
X018636Y004939D02*
X018284Y004939D01*
X018275Y004860D02*
X018575Y004860D01*
X018548Y004782D02*
X018275Y004782D01*
X018066Y004290D02*
X018066Y003859D01*
X018244Y003681D01*
X017869Y003681D02*
X017806Y003681D01*
X017681Y003806D01*
X018284Y005253D02*
X018681Y005253D01*
X018681Y005331D02*
X018284Y005331D01*
X018284Y005410D02*
X018681Y005410D01*
X018681Y005488D02*
X018284Y005488D01*
X018275Y005567D02*
X018681Y005567D01*
D16*
X018806Y004744D03*
X017869Y002994D03*
X016931Y004744D03*
D17*
X016931Y005056D01*
X017072Y005197D01*
X017278Y005197D01*
X018459Y004290D02*
X018459Y003966D01*
X018556Y003869D01*
X018556Y003494D01*
X018056Y002994D01*
X017869Y002994D01*
X018459Y004290D02*
X018665Y004290D01*
X018806Y004431D01*
X018806Y004744D01*
X014150Y015275D02*
X014150Y016025D01*
X014088Y016088D01*
X014088Y016900D01*
X014088Y018525D01*
X013463Y019150D01*
X012775Y019150D01*
X010088Y019150D01*
X009650Y018713D01*
X009650Y017963D01*
X009650Y016753D01*
X009366Y016468D01*
D18*
X008931Y015869D02*
X008900Y015713D01*
X001956Y006400D02*
X001997Y006359D01*
X002096Y006318D01*
X002204Y006318D01*
X002213Y006321D01*
X002213Y006207D01*
X002173Y006167D01*
X002173Y005607D01*
X002096Y005607D01*
X002048Y005588D01*
X001883Y005588D01*
X001883Y006167D01*
X001838Y006213D01*
X001838Y006400D01*
X001956Y006400D01*
X002005Y006356D02*
X001838Y006356D01*
X001838Y006257D02*
X002213Y006257D01*
X002173Y006159D02*
X001883Y006159D01*
X001883Y006060D02*
X002173Y006060D01*
X002173Y005962D02*
X001883Y005962D01*
X001883Y005863D02*
X002173Y005863D01*
X002173Y005765D02*
X001883Y005765D01*
X001883Y005666D02*
X002173Y005666D01*
D19*
X002894Y005996D02*
X002894Y006406D01*
X002713Y006588D01*
X002150Y006588D01*
X003463Y007088D02*
X004838Y007088D01*
X005275Y006650D01*
X005338Y006650D01*
X005681Y006650D02*
X006025Y006650D01*
X006463Y006213D01*
X006463Y005713D01*
X010463Y013338D02*
X010463Y013650D01*
D20*
X009650Y013650D01*
X008931Y014369D01*
X008931Y015869D01*
X008900Y015838D02*
X008838Y015900D01*
X009338Y016400D01*
X009275Y016463D01*
X008838Y016025D01*
X008838Y015900D01*
X008900Y015838D02*
X009525Y016463D01*
X009525Y016525D01*
X009400Y016588D01*
X009338Y016650D01*
X008838Y016150D01*
X009400Y017963D02*
X009650Y017963D01*
X011400Y016088D02*
X014025Y016088D01*
X014088Y016900D02*
X014088Y017025D01*
X012775Y018900D02*
X012775Y019150D01*
X012775Y013650D02*
X010463Y013650D01*
X012775Y013650D02*
X013525Y012900D01*
X013525Y012588D01*
X013338Y007775D02*
X011963Y007775D01*
X013338Y007775D02*
X013588Y007525D01*
X013588Y005588D01*
X013088Y005088D01*
X013088Y003213D01*
X010806Y003213D01*
X010494Y003213D01*
X009650Y003994D01*
X009650Y004400D01*
X013088Y003213D02*
X013431Y003213D01*
X005681Y006650D02*
X005338Y006650D01*
X005338Y004338D01*
X004900Y004338D01*
X004838Y004400D01*
X003463Y004400D01*
X003400Y004338D01*
X002900Y004338D01*
D21*
X014150Y015275D03*
X009366Y016468D03*
M02*
