%
M48
M72
T01C0.0120
T02C0.0157
T03C0.0197
T04C0.0240
T05C0.0866
%
T01
X900Y1963
X1338Y3713
X650Y4275
X650Y5463
X1213Y6338
X2150Y6588
X2588Y6338
X2838Y6838
X3088Y6588
X3463Y7088
X3244Y7306
X3775Y8009
X5275Y7088
X5681Y6650
X6556Y6650
X6025Y5838
X5744Y5088
X5744Y4713
X5744Y4338
X5338Y4338
X5338Y3963
X5338Y3338
X4775Y2650
X4338Y2650
X3900Y2650
X2900Y2744
X2900Y3338
X2900Y3713
X2900Y4338
X2338Y4713
X2338Y5088
X2525Y5338
X2150Y5338
X3650Y5088
X4150Y5088
X4650Y5088
X4650Y5525
X4650Y5963
X4525Y3963
X4213Y3963
X3650Y3963
X5338Y2525
X9338Y2463
X10338Y1525
X10588Y1525
X11775Y1963
X12150Y1963
X12525Y1963
X12900Y1963
X13431Y2275
X13431Y2900
X13431Y3213
X13681Y4353
X14088Y4431
X13588Y5588
X14088Y5619
X12556Y4900
X12119Y4900
X12119Y4463
X12556Y4463
X12556Y4025
X12119Y4025
X11681Y4025
X11681Y4463
X11681Y4900
X10994Y5713
X10744Y5900
X10338Y6463
X9838Y6869
X9838Y7181
X10338Y7775
X11650Y7770
X11963Y7775
X12119Y7056
X12056Y6744
X12119Y6431
X12119Y6025
X13244Y7213
X14088Y7400
X16806Y5806
X17494Y5806
X17869Y5806
X18931Y5806
X18931Y3744
X18244Y3681
X17869Y3681
X16806Y3744
X14088Y931
X11181Y2900
X10806Y2900
X10806Y3213
X10588Y4244
X10588Y4556
X10588Y4869
X10588Y5181
X9650Y4400
X9556Y5556
X10150Y11650
X10463Y11650
X10463Y12400
X10150Y12400
X10150Y12900
X10463Y13338
X10775Y12900
X11088Y12900
X11588Y12900
X11900Y12900
X13025Y12900
X13025Y12025
X13025Y11650
X12088Y11650
X11713Y11650
X13213Y13838
X13213Y14213
X13213Y14588
X13213Y14900
X12088Y14525
X12088Y14150
X11650Y14150
X11650Y14525
X11213Y14525
X11213Y14150
X10088Y14150
X10088Y14463
X9775Y14525
X9338Y14525
X8650Y14431
X9338Y15275
X8994Y15963
X8650Y16650
X7963Y17775
X9400Y17963
X10400Y17963
X10400Y18275
X10775Y18275
X11150Y18838
X11275Y17463
X11088Y16150
X11400Y16088
X10775Y16088
X10463Y15713
X10088Y15275
X10088Y14963
X9025Y13338
X9025Y12838
X13713Y16463
X13713Y16838
X14088Y17025
X14650Y16838
X14650Y16400
X13213Y18056
X13213Y18713
X12775Y18900
X13963Y19306
X14650Y18525
X12775Y17463
X14650Y14525
X9463Y19306
T02
X9366Y16468
X14150Y15275
T03
X16931Y4744
X17869Y2994
X18806Y4744
T04
X14275Y10938
X14275Y11488
X14275Y12038
X14275Y12588
X13525Y12588
X13525Y12038
X13525Y11488
X13525Y10938
X6463Y5713
X6463Y5163
X6463Y4613
X6463Y4063
X6463Y3338
X6463Y2788
X6463Y2238
X6463Y1688
T05
X8437Y11006
X8437Y18755
M30
