G75*
%MOIN*%
%OFA0B0*%
%FSLAX24Y24*%
%IPPOS*%
%LPD*%
%AMOC8*
5,1,8,0,0,1.08239X$1,22.5*
%
%ADD10C,0.0000*%
%ADD11R,0.1375X0.1375*%
%ADD12C,0.0906*%
%ADD13C,0.0116*%
%ADD14C,0.0108*%
%ADD15C,0.0107*%
%ADD16C,0.0114*%
%ADD17C,0.0108*%
%ADD18C,0.0118*%
%ADD19C,0.0120*%
%ADD20C,0.0138*%
%ADD21C,0.0138*%
%ADD22C,0.0114*%
%ADD23OC8,0.0480*%
%ADD24C,0.0106*%
%ADD25C,0.0123*%
%ADD26C,0.0119*%
%ADD27R,0.0394X0.0394*%
D10*
X000794Y001150D02*
X006412Y001150D01*
X006451Y001152D01*
X006489Y001158D01*
X006526Y001167D01*
X006563Y001180D01*
X006598Y001197D01*
X006631Y001216D01*
X006662Y001239D01*
X006691Y001265D01*
X006717Y001294D01*
X006740Y001325D01*
X006759Y001358D01*
X006776Y001393D01*
X006789Y001430D01*
X006798Y001467D01*
X006804Y001505D01*
X006806Y001544D01*
X006806Y003400D01*
X006808Y003444D01*
X006814Y003487D01*
X006823Y003530D01*
X006836Y003571D01*
X006853Y003612D01*
X006873Y003650D01*
X006897Y003687D01*
X006923Y003722D01*
X006953Y003754D01*
X006985Y003783D01*
X007020Y003810D01*
X007056Y003833D01*
X007095Y003853D01*
X007135Y003870D01*
X007177Y003883D01*
X007220Y003892D01*
X007263Y003898D01*
X007306Y003900D01*
X008369Y003900D01*
X008368Y003900D02*
X008411Y003899D01*
X008453Y003895D01*
X008495Y003888D01*
X008537Y003877D01*
X008577Y003863D01*
X008616Y003845D01*
X008653Y003824D01*
X008688Y003801D01*
X008722Y003774D01*
X008753Y003745D01*
X008781Y003713D01*
X008807Y003679D01*
X008830Y003643D01*
X008850Y003605D01*
X008867Y003566D01*
X008880Y003526D01*
X008890Y003484D01*
X008897Y003442D01*
X008900Y003400D01*
X008900Y000794D01*
X008902Y000755D01*
X008908Y000717D01*
X008917Y000680D01*
X008930Y000643D01*
X008947Y000608D01*
X008966Y000575D01*
X008989Y000544D01*
X009015Y000515D01*
X009044Y000489D01*
X009075Y000466D01*
X009108Y000447D01*
X009143Y000430D01*
X009180Y000417D01*
X009217Y000408D01*
X009255Y000402D01*
X009294Y000400D01*
X014018Y000400D01*
X014057Y000402D01*
X014095Y000408D01*
X014132Y000417D01*
X014169Y000430D01*
X014204Y000447D01*
X014237Y000466D01*
X014268Y000489D01*
X014297Y000515D01*
X014323Y000544D01*
X014346Y000575D01*
X014365Y000608D01*
X014382Y000643D01*
X014395Y000680D01*
X014404Y000717D01*
X014410Y000755D01*
X014412Y000794D01*
X014412Y003400D01*
X014415Y003444D01*
X014422Y003488D01*
X014432Y003531D01*
X014446Y003574D01*
X014464Y003614D01*
X014485Y003653D01*
X014510Y003690D01*
X014538Y003725D01*
X014568Y003757D01*
X014602Y003787D01*
X014637Y003813D01*
X014675Y003836D01*
X014715Y003856D01*
X014757Y003872D01*
X014799Y003885D01*
X014843Y003894D01*
X014887Y003899D01*
X014932Y003900D01*
X014931Y003900D02*
X015869Y003900D01*
X015868Y003900D02*
X015911Y003899D01*
X015953Y003895D01*
X015995Y003888D01*
X016037Y003877D01*
X016077Y003863D01*
X016116Y003845D01*
X016153Y003824D01*
X016188Y003801D01*
X016222Y003774D01*
X016253Y003745D01*
X016281Y003713D01*
X016307Y003679D01*
X016330Y003643D01*
X016350Y003605D01*
X016367Y003566D01*
X016380Y003526D01*
X016390Y003484D01*
X016397Y003442D01*
X016400Y003400D01*
X016400Y002544D01*
X016402Y002505D01*
X016408Y002467D01*
X016417Y002430D01*
X016430Y002393D01*
X016447Y002358D01*
X016466Y002325D01*
X016489Y002294D01*
X016515Y002265D01*
X016544Y002239D01*
X016575Y002216D01*
X016608Y002197D01*
X016643Y002180D01*
X016680Y002167D01*
X016717Y002158D01*
X016755Y002152D01*
X016794Y002150D01*
X019006Y002150D01*
X019018Y002150D01*
X019006Y002150D02*
X019041Y002152D01*
X019075Y002157D01*
X019108Y002166D01*
X019141Y002179D01*
X019172Y002194D01*
X019201Y002213D01*
X019227Y002235D01*
X019252Y002260D01*
X019274Y002286D01*
X019293Y002315D01*
X019308Y002346D01*
X019321Y002379D01*
X019330Y002412D01*
X019335Y002446D01*
X019337Y002481D01*
X019337Y006999D01*
X019335Y007034D01*
X019330Y007068D01*
X019321Y007101D01*
X019308Y007134D01*
X019293Y007165D01*
X019274Y007194D01*
X019252Y007220D01*
X019227Y007245D01*
X019201Y007267D01*
X019172Y007286D01*
X019141Y007301D01*
X019108Y007314D01*
X019075Y007323D01*
X019041Y007328D01*
X019006Y007330D01*
X016731Y007330D01*
X016696Y007328D01*
X016662Y007323D01*
X016629Y007314D01*
X016596Y007301D01*
X016566Y007286D01*
X016536Y007267D01*
X016510Y007245D01*
X016485Y007220D01*
X016463Y007194D01*
X016444Y007165D01*
X016429Y007134D01*
X016416Y007101D01*
X016407Y007068D01*
X016402Y007034D01*
X016400Y006999D01*
X016400Y005900D01*
X016397Y005858D01*
X016390Y005816D01*
X016380Y005774D01*
X016367Y005734D01*
X016350Y005695D01*
X016330Y005657D01*
X016307Y005621D01*
X016281Y005587D01*
X016253Y005555D01*
X016222Y005526D01*
X016188Y005499D01*
X016153Y005476D01*
X016116Y005455D01*
X016077Y005437D01*
X016037Y005423D01*
X015995Y005412D01*
X015953Y005405D01*
X015911Y005401D01*
X015868Y005400D01*
X015869Y005400D02*
X014931Y005400D01*
X014932Y005400D02*
X014887Y005401D01*
X014843Y005406D01*
X014799Y005415D01*
X014757Y005428D01*
X014715Y005444D01*
X014675Y005464D01*
X014637Y005487D01*
X014602Y005513D01*
X014568Y005543D01*
X014538Y005575D01*
X014510Y005610D01*
X014485Y005647D01*
X014464Y005686D01*
X014446Y005726D01*
X014432Y005769D01*
X014422Y005812D01*
X014415Y005856D01*
X014412Y005900D01*
X014412Y007880D01*
X014410Y007919D01*
X014404Y007957D01*
X014395Y007994D01*
X014382Y008031D01*
X014365Y008066D01*
X014346Y008099D01*
X014323Y008130D01*
X014297Y008159D01*
X014268Y008185D01*
X014237Y008208D01*
X014204Y008227D01*
X014169Y008244D01*
X014132Y008257D01*
X014095Y008266D01*
X014057Y008272D01*
X014018Y008274D01*
X012900Y008274D01*
X012857Y008277D01*
X012815Y008284D01*
X012774Y008294D01*
X012733Y008307D01*
X012694Y008324D01*
X012656Y008344D01*
X012620Y008367D01*
X012587Y008393D01*
X012555Y008421D01*
X012526Y008453D01*
X012499Y008486D01*
X012475Y008521D01*
X012455Y008559D01*
X012437Y008598D01*
X012423Y008638D01*
X012412Y008679D01*
X012405Y008721D01*
X012401Y008763D01*
X012400Y008806D01*
X012400Y009619D01*
X012400Y009618D02*
X012401Y009663D01*
X012405Y009708D01*
X012414Y009752D01*
X012426Y009796D01*
X012442Y009838D01*
X012462Y009878D01*
X012485Y009917D01*
X012511Y009954D01*
X012540Y009988D01*
X012573Y010019D01*
X012607Y010048D01*
X012645Y010073D01*
X012684Y010095D01*
X012725Y010113D01*
X012767Y010128D01*
X012811Y010139D01*
X012855Y010146D01*
X012900Y010150D01*
X014537Y010150D01*
X014576Y010152D01*
X014614Y010158D01*
X014651Y010167D01*
X014688Y010180D01*
X014723Y010197D01*
X014756Y010216D01*
X014787Y010239D01*
X014816Y010265D01*
X014842Y010294D01*
X014865Y010325D01*
X014884Y010358D01*
X014901Y010393D01*
X014914Y010430D01*
X014923Y010467D01*
X014929Y010505D01*
X014931Y010544D01*
X014931Y019218D01*
X014930Y019218D02*
X014927Y019256D01*
X014921Y019294D01*
X014911Y019330D01*
X014898Y019366D01*
X014881Y019400D01*
X014861Y019432D01*
X014838Y019462D01*
X014812Y019490D01*
X014784Y019515D01*
X014753Y019537D01*
X014720Y019556D01*
X014685Y019572D01*
X014649Y019584D01*
X014612Y019593D01*
X014575Y019598D01*
X014537Y019599D01*
X008044Y019599D01*
X008043Y019599D02*
X008005Y019598D01*
X007968Y019593D01*
X007931Y019584D01*
X007895Y019572D01*
X007860Y019556D01*
X007827Y019537D01*
X007796Y019515D01*
X007768Y019490D01*
X007742Y019462D01*
X007719Y019432D01*
X007699Y019400D01*
X007682Y019366D01*
X007669Y019330D01*
X007659Y019294D01*
X007653Y019256D01*
X007650Y019218D01*
X007650Y010544D01*
X007652Y010505D01*
X007658Y010467D01*
X007667Y010430D01*
X007680Y010393D01*
X007697Y010358D01*
X007716Y010325D01*
X007739Y010294D01*
X007765Y010265D01*
X007794Y010239D01*
X007825Y010216D01*
X007858Y010197D01*
X007893Y010180D01*
X007930Y010167D01*
X007967Y010158D01*
X008005Y010152D01*
X008044Y010150D01*
X010400Y010150D01*
X010442Y010147D01*
X010484Y010140D01*
X010526Y010130D01*
X010566Y010117D01*
X010605Y010100D01*
X010643Y010080D01*
X010679Y010057D01*
X010713Y010031D01*
X010745Y010003D01*
X010774Y009972D01*
X010801Y009938D01*
X010824Y009903D01*
X010845Y009866D01*
X010863Y009827D01*
X010877Y009787D01*
X010888Y009745D01*
X010895Y009703D01*
X010899Y009661D01*
X010900Y009618D01*
X010900Y009619D02*
X010900Y008806D01*
X010899Y008763D01*
X010895Y008721D01*
X010888Y008679D01*
X010877Y008638D01*
X010863Y008598D01*
X010845Y008559D01*
X010825Y008521D01*
X010801Y008486D01*
X010774Y008453D01*
X010745Y008421D01*
X010713Y008393D01*
X010680Y008367D01*
X010644Y008344D01*
X010606Y008324D01*
X010567Y008307D01*
X010526Y008294D01*
X010485Y008284D01*
X010443Y008277D01*
X010400Y008274D01*
X009294Y008274D01*
X009255Y008272D01*
X009217Y008266D01*
X009180Y008257D01*
X009143Y008244D01*
X009108Y008227D01*
X009075Y008208D01*
X009044Y008185D01*
X009015Y008159D01*
X008989Y008130D01*
X008966Y008099D01*
X008947Y008066D01*
X008930Y008031D01*
X008917Y007994D01*
X008908Y007957D01*
X008902Y007919D01*
X008900Y007880D01*
X008900Y005900D01*
X008897Y005858D01*
X008890Y005816D01*
X008880Y005774D01*
X008867Y005734D01*
X008850Y005695D01*
X008830Y005657D01*
X008807Y005621D01*
X008781Y005587D01*
X008753Y005555D01*
X008722Y005526D01*
X008688Y005499D01*
X008653Y005476D01*
X008616Y005455D01*
X008577Y005437D01*
X008537Y005423D01*
X008495Y005412D01*
X008453Y005405D01*
X008411Y005401D01*
X008368Y005400D01*
X008369Y005400D02*
X007306Y005400D01*
X007263Y005402D01*
X007220Y005408D01*
X007177Y005417D01*
X007135Y005430D01*
X007095Y005447D01*
X007056Y005467D01*
X007020Y005490D01*
X006985Y005517D01*
X006953Y005546D01*
X006923Y005578D01*
X006897Y005613D01*
X006873Y005650D01*
X006853Y005688D01*
X006836Y005729D01*
X006823Y005770D01*
X006814Y005813D01*
X006808Y005856D01*
X006806Y005900D01*
X006806Y007843D01*
X006804Y007882D01*
X006798Y007920D01*
X006789Y007957D01*
X006776Y007994D01*
X006759Y008029D01*
X006740Y008062D01*
X006717Y008093D01*
X006691Y008122D01*
X006662Y008148D01*
X006631Y008171D01*
X006598Y008190D01*
X006563Y008207D01*
X006526Y008220D01*
X006489Y008229D01*
X006451Y008235D01*
X006412Y008237D01*
X000794Y008237D01*
X000755Y008235D01*
X000717Y008229D01*
X000680Y008220D01*
X000643Y008207D01*
X000608Y008190D01*
X000575Y008171D01*
X000544Y008148D01*
X000515Y008122D01*
X000489Y008093D01*
X000466Y008062D01*
X000447Y008029D01*
X000430Y007994D01*
X000417Y007957D01*
X000408Y007920D01*
X000402Y007882D01*
X000400Y007843D01*
X000400Y001544D01*
X000402Y001505D01*
X000408Y001467D01*
X000417Y001430D01*
X000430Y001393D01*
X000447Y001358D01*
X000466Y001325D01*
X000489Y001294D01*
X000515Y001265D01*
X000544Y001239D01*
X000575Y001216D01*
X000608Y001197D01*
X000643Y001180D01*
X000680Y001167D01*
X000717Y001158D01*
X000755Y001152D01*
X000794Y001150D01*
X008900Y007880D02*
X008900Y007900D01*
X008004Y011006D02*
X008006Y011047D01*
X008012Y011088D01*
X008022Y011128D01*
X008035Y011167D01*
X008052Y011204D01*
X008073Y011240D01*
X008097Y011274D01*
X008124Y011305D01*
X008153Y011333D01*
X008186Y011359D01*
X008220Y011381D01*
X008257Y011400D01*
X008295Y011415D01*
X008335Y011427D01*
X008375Y011435D01*
X008416Y011439D01*
X008458Y011439D01*
X008499Y011435D01*
X008539Y011427D01*
X008579Y011415D01*
X008617Y011400D01*
X008653Y011381D01*
X008688Y011359D01*
X008721Y011333D01*
X008750Y011305D01*
X008777Y011274D01*
X008801Y011240D01*
X008822Y011204D01*
X008839Y011167D01*
X008852Y011128D01*
X008862Y011088D01*
X008868Y011047D01*
X008870Y011006D01*
X008868Y010965D01*
X008862Y010924D01*
X008852Y010884D01*
X008839Y010845D01*
X008822Y010808D01*
X008801Y010772D01*
X008777Y010738D01*
X008750Y010707D01*
X008721Y010679D01*
X008688Y010653D01*
X008654Y010631D01*
X008617Y010612D01*
X008579Y010597D01*
X008539Y010585D01*
X008499Y010577D01*
X008458Y010573D01*
X008416Y010573D01*
X008375Y010577D01*
X008335Y010585D01*
X008295Y010597D01*
X008257Y010612D01*
X008221Y010631D01*
X008186Y010653D01*
X008153Y010679D01*
X008124Y010707D01*
X008097Y010738D01*
X008073Y010772D01*
X008052Y010808D01*
X008035Y010845D01*
X008022Y010884D01*
X008012Y010924D01*
X008006Y010965D01*
X008004Y011006D01*
X008004Y018755D02*
X008006Y018796D01*
X008012Y018837D01*
X008022Y018877D01*
X008035Y018916D01*
X008052Y018953D01*
X008073Y018989D01*
X008097Y019023D01*
X008124Y019054D01*
X008153Y019082D01*
X008186Y019108D01*
X008220Y019130D01*
X008257Y019149D01*
X008295Y019164D01*
X008335Y019176D01*
X008375Y019184D01*
X008416Y019188D01*
X008458Y019188D01*
X008499Y019184D01*
X008539Y019176D01*
X008579Y019164D01*
X008617Y019149D01*
X008653Y019130D01*
X008688Y019108D01*
X008721Y019082D01*
X008750Y019054D01*
X008777Y019023D01*
X008801Y018989D01*
X008822Y018953D01*
X008839Y018916D01*
X008852Y018877D01*
X008862Y018837D01*
X008868Y018796D01*
X008870Y018755D01*
X008868Y018714D01*
X008862Y018673D01*
X008852Y018633D01*
X008839Y018594D01*
X008822Y018557D01*
X008801Y018521D01*
X008777Y018487D01*
X008750Y018456D01*
X008721Y018428D01*
X008688Y018402D01*
X008654Y018380D01*
X008617Y018361D01*
X008579Y018346D01*
X008539Y018334D01*
X008499Y018326D01*
X008458Y018322D01*
X008416Y018322D01*
X008375Y018326D01*
X008335Y018334D01*
X008295Y018346D01*
X008257Y018361D01*
X008221Y018380D01*
X008186Y018402D01*
X008153Y018428D01*
X008124Y018456D01*
X008097Y018487D01*
X008073Y018521D01*
X008052Y018557D01*
X008035Y018594D01*
X008022Y018633D01*
X008012Y018673D01*
X008006Y018714D01*
X008004Y018755D01*
D11*
X011650Y014525D03*
X004150Y005525D03*
X012119Y004463D03*
D12*
X008437Y011006D03*
X008437Y018755D03*
D13*
X010854Y011992D02*
X011014Y011992D01*
X010854Y011992D02*
X010854Y012526D01*
X011014Y012526D01*
X011014Y011992D01*
X011014Y012107D02*
X010854Y012107D01*
X010854Y012222D02*
X011014Y012222D01*
X011014Y012337D02*
X010854Y012337D01*
X010854Y012452D02*
X011014Y012452D01*
X011248Y011992D02*
X011408Y011992D01*
X011248Y011992D02*
X011248Y012526D01*
X011408Y012526D01*
X011408Y011992D01*
X011408Y012107D02*
X011248Y012107D01*
X011248Y012222D02*
X011408Y012222D01*
X011408Y012337D02*
X011248Y012337D01*
X011248Y012452D02*
X011408Y012452D01*
X011642Y011992D02*
X011802Y011992D01*
X011642Y011992D02*
X011642Y012526D01*
X011802Y012526D01*
X011802Y011992D01*
X011802Y012107D02*
X011642Y012107D01*
X011642Y012222D02*
X011802Y012222D01*
X011802Y012337D02*
X011642Y012337D01*
X011642Y012452D02*
X011802Y012452D01*
X012036Y011992D02*
X012196Y011992D01*
X012036Y011992D02*
X012036Y012526D01*
X012196Y012526D01*
X012196Y011992D01*
X012196Y012107D02*
X012036Y012107D01*
X012036Y012222D02*
X012196Y012222D01*
X012196Y012337D02*
X012036Y012337D01*
X012036Y012452D02*
X012196Y012452D01*
X017198Y005464D02*
X017358Y005464D01*
X017358Y004930D01*
X017198Y004930D01*
X017198Y005464D01*
X017198Y005045D02*
X017358Y005045D01*
X017358Y005160D02*
X017198Y005160D01*
X017198Y005275D02*
X017358Y005275D01*
X017358Y005390D02*
X017198Y005390D01*
X017592Y005464D02*
X017752Y005464D01*
X017752Y004930D01*
X017592Y004930D01*
X017592Y005464D01*
X017592Y005045D02*
X017752Y005045D01*
X017752Y005160D02*
X017592Y005160D01*
X017592Y005275D02*
X017752Y005275D01*
X017752Y005390D02*
X017592Y005390D01*
X017986Y005464D02*
X018146Y005464D01*
X018146Y004930D01*
X017986Y004930D01*
X017986Y005464D01*
X017986Y005045D02*
X018146Y005045D01*
X018146Y005160D02*
X017986Y005160D01*
X017986Y005275D02*
X018146Y005275D01*
X018146Y005390D02*
X017986Y005390D01*
X018379Y005464D02*
X018539Y005464D01*
X018539Y004930D01*
X018379Y004930D01*
X018379Y005464D01*
X018379Y005045D02*
X018539Y005045D01*
X018539Y005160D02*
X018379Y005160D01*
X018379Y005275D02*
X018539Y005275D01*
X018539Y005390D02*
X018379Y005390D01*
X018379Y004023D02*
X018539Y004023D01*
X018379Y004023D02*
X018379Y004557D01*
X018539Y004557D01*
X018539Y004023D01*
X018539Y004138D02*
X018379Y004138D01*
X018379Y004253D02*
X018539Y004253D01*
X018539Y004368D02*
X018379Y004368D01*
X018379Y004483D02*
X018539Y004483D01*
X018146Y004023D02*
X017986Y004023D01*
X017986Y004557D01*
X018146Y004557D01*
X018146Y004023D01*
X018146Y004138D02*
X017986Y004138D01*
X017986Y004253D02*
X018146Y004253D01*
X018146Y004368D02*
X017986Y004368D01*
X017986Y004483D02*
X018146Y004483D01*
X017752Y004023D02*
X017592Y004023D01*
X017592Y004557D01*
X017752Y004557D01*
X017752Y004023D01*
X017752Y004138D02*
X017592Y004138D01*
X017592Y004253D02*
X017752Y004253D01*
X017752Y004368D02*
X017592Y004368D01*
X017592Y004483D02*
X017752Y004483D01*
X017358Y004023D02*
X017198Y004023D01*
X017198Y004557D01*
X017358Y004557D01*
X017358Y004023D01*
X017358Y004138D02*
X017198Y004138D01*
X017198Y004253D02*
X017358Y004253D01*
X017358Y004368D02*
X017198Y004368D01*
X017198Y004483D02*
X017358Y004483D01*
X013008Y002242D02*
X012848Y002242D01*
X012848Y002776D01*
X013008Y002776D01*
X013008Y002242D01*
X013008Y002357D02*
X012848Y002357D01*
X012848Y002472D02*
X013008Y002472D01*
X013008Y002587D02*
X012848Y002587D01*
X012848Y002702D02*
X013008Y002702D01*
X012614Y002242D02*
X012454Y002242D01*
X012454Y002776D01*
X012614Y002776D01*
X012614Y002242D01*
X012614Y002357D02*
X012454Y002357D01*
X012454Y002472D02*
X012614Y002472D01*
X012614Y002587D02*
X012454Y002587D01*
X012454Y002702D02*
X012614Y002702D01*
X012221Y002242D02*
X012061Y002242D01*
X012061Y002776D01*
X012221Y002776D01*
X012221Y002242D01*
X012221Y002357D02*
X012061Y002357D01*
X012061Y002472D02*
X012221Y002472D01*
X012221Y002587D02*
X012061Y002587D01*
X012061Y002702D02*
X012221Y002702D01*
X011827Y002242D02*
X011667Y002242D01*
X011667Y002776D01*
X011827Y002776D01*
X011827Y002242D01*
X011827Y002357D02*
X011667Y002357D01*
X011667Y002472D02*
X011827Y002472D01*
X011827Y002587D02*
X011667Y002587D01*
X011667Y002702D02*
X011827Y002702D01*
X004821Y002992D02*
X004661Y002992D01*
X004661Y003526D01*
X004821Y003526D01*
X004821Y002992D01*
X004821Y003107D02*
X004661Y003107D01*
X004661Y003222D02*
X004821Y003222D01*
X004821Y003337D02*
X004661Y003337D01*
X004661Y003452D02*
X004821Y003452D01*
X004427Y002992D02*
X004267Y002992D01*
X004267Y003526D01*
X004427Y003526D01*
X004427Y002992D01*
X004427Y003107D02*
X004267Y003107D01*
X004267Y003222D02*
X004427Y003222D01*
X004427Y003337D02*
X004267Y003337D01*
X004267Y003452D02*
X004427Y003452D01*
X004033Y002992D02*
X003873Y002992D01*
X003873Y003526D01*
X004033Y003526D01*
X004033Y002992D01*
X004033Y003107D02*
X003873Y003107D01*
X003873Y003222D02*
X004033Y003222D01*
X004033Y003337D02*
X003873Y003337D01*
X003873Y003452D02*
X004033Y003452D01*
X003639Y002992D02*
X003479Y002992D01*
X003479Y003526D01*
X003639Y003526D01*
X003639Y002992D01*
X003639Y003107D02*
X003479Y003107D01*
X003479Y003222D02*
X003639Y003222D01*
X003639Y003337D02*
X003479Y003337D01*
X003479Y003452D02*
X003639Y003452D01*
D14*
X003250Y001413D02*
X002846Y001413D01*
X002846Y002053D01*
X003250Y002053D01*
X003250Y001413D01*
X003250Y001520D02*
X002846Y001520D01*
X002846Y001627D02*
X003250Y001627D01*
X003250Y001734D02*
X002846Y001734D01*
X002846Y001841D02*
X003250Y001841D01*
X003250Y001948D02*
X002846Y001948D01*
X005050Y001413D02*
X005454Y001413D01*
X005050Y001413D02*
X005050Y002053D01*
X005454Y002053D01*
X005454Y001413D01*
X005454Y001520D02*
X005050Y001520D01*
X005050Y001627D02*
X005454Y001627D01*
X005454Y001734D02*
X005050Y001734D01*
X005050Y001841D02*
X005454Y001841D01*
X005454Y001948D02*
X005050Y001948D01*
X011033Y000663D02*
X011437Y000663D01*
X011033Y000663D02*
X011033Y001303D01*
X011437Y001303D01*
X011437Y000663D01*
X011437Y000770D02*
X011033Y000770D01*
X011033Y000877D02*
X011437Y000877D01*
X011437Y000984D02*
X011033Y000984D01*
X011033Y001091D02*
X011437Y001091D01*
X011437Y001198D02*
X011033Y001198D01*
X013238Y000663D02*
X013642Y000663D01*
X013238Y000663D02*
X013238Y001303D01*
X013642Y001303D01*
X013642Y000663D01*
X013642Y000770D02*
X013238Y000770D01*
X013238Y000877D02*
X013642Y000877D01*
X013642Y000984D02*
X013238Y000984D01*
X013238Y001091D02*
X013642Y001091D01*
X013642Y001198D02*
X013238Y001198D01*
X016564Y002444D02*
X016968Y002444D01*
X016564Y002444D02*
X016564Y003084D01*
X016968Y003084D01*
X016968Y002444D01*
X016968Y002551D02*
X016564Y002551D01*
X016564Y002658D02*
X016968Y002658D01*
X016968Y002765D02*
X016564Y002765D01*
X016564Y002872D02*
X016968Y002872D01*
X016968Y002979D02*
X016564Y002979D01*
X018769Y002444D02*
X019173Y002444D01*
X018769Y002444D02*
X018769Y003084D01*
X019173Y003084D01*
X019173Y002444D01*
X019173Y002551D02*
X018769Y002551D01*
X018769Y002658D02*
X019173Y002658D01*
X019173Y002765D02*
X018769Y002765D01*
X018769Y002872D02*
X019173Y002872D01*
X019173Y002979D02*
X018769Y002979D01*
X018769Y007043D02*
X019173Y007043D01*
X019173Y006403D01*
X018769Y006403D01*
X018769Y007043D01*
X018769Y006510D02*
X019173Y006510D01*
X019173Y006617D02*
X018769Y006617D01*
X018769Y006724D02*
X019173Y006724D01*
X019173Y006831D02*
X018769Y006831D01*
X018769Y006938D02*
X019173Y006938D01*
X016968Y007043D02*
X016564Y007043D01*
X016968Y007043D02*
X016968Y006403D01*
X016564Y006403D01*
X016564Y007043D01*
X016564Y006510D02*
X016968Y006510D01*
X016968Y006617D02*
X016564Y006617D01*
X016564Y006724D02*
X016968Y006724D01*
X016968Y006831D02*
X016564Y006831D01*
X016564Y006938D02*
X016968Y006938D01*
X012829Y010413D02*
X012425Y010413D01*
X012425Y011053D01*
X012829Y011053D01*
X012829Y010413D01*
X012829Y010520D02*
X012425Y010520D01*
X012425Y010627D02*
X012829Y010627D01*
X012829Y010734D02*
X012425Y010734D01*
X012425Y010841D02*
X012829Y010841D01*
X012829Y010948D02*
X012425Y010948D01*
X010625Y010413D02*
X010221Y010413D01*
X010221Y011053D01*
X010625Y011053D01*
X010625Y010413D01*
X010625Y010520D02*
X010221Y010520D01*
X010221Y010627D02*
X010625Y010627D01*
X010625Y010734D02*
X010221Y010734D01*
X010221Y010841D02*
X010625Y010841D01*
X010625Y010948D02*
X010221Y010948D01*
D15*
X009898Y013527D02*
X009334Y013527D01*
X009898Y013527D02*
X009898Y012649D01*
X009334Y012649D01*
X009334Y013527D01*
X009334Y012755D02*
X009898Y012755D01*
X009898Y012861D02*
X009334Y012861D01*
X009334Y012967D02*
X009898Y012967D01*
X009898Y013073D02*
X009334Y013073D01*
X009334Y013179D02*
X009898Y013179D01*
X009898Y013285D02*
X009334Y013285D01*
X009334Y013391D02*
X009898Y013391D01*
X009898Y013497D02*
X009334Y013497D01*
X008716Y012649D02*
X008152Y012649D01*
X008152Y013527D01*
X008716Y013527D01*
X008716Y012649D01*
X008716Y012755D02*
X008152Y012755D01*
X008152Y012861D02*
X008716Y012861D01*
X008716Y012967D02*
X008152Y012967D01*
X008152Y013073D02*
X008716Y013073D01*
X008716Y013179D02*
X008152Y013179D01*
X008152Y013285D02*
X008716Y013285D01*
X008716Y013391D02*
X008152Y013391D01*
X008152Y013497D02*
X008716Y013497D01*
X002523Y002402D02*
X001959Y002402D01*
X002523Y002402D02*
X002523Y001524D01*
X001959Y001524D01*
X001959Y002402D01*
X001959Y001630D02*
X002523Y001630D01*
X002523Y001736D02*
X001959Y001736D01*
X001959Y001842D02*
X002523Y001842D01*
X002523Y001948D02*
X001959Y001948D01*
X001959Y002054D02*
X002523Y002054D01*
X002523Y002160D02*
X001959Y002160D01*
X001959Y002266D02*
X002523Y002266D01*
X002523Y002372D02*
X001959Y002372D01*
X001341Y001524D02*
X000777Y001524D01*
X000777Y002402D01*
X001341Y002402D01*
X001341Y001524D01*
X001341Y001630D02*
X000777Y001630D01*
X000777Y001736D02*
X001341Y001736D01*
X001341Y001842D02*
X000777Y001842D01*
X000777Y001948D02*
X001341Y001948D01*
X001341Y002054D02*
X000777Y002054D01*
X000777Y002160D02*
X001341Y002160D01*
X001341Y002266D02*
X000777Y002266D01*
X000777Y002372D02*
X001341Y002372D01*
D16*
X001628Y007186D02*
X001628Y007426D01*
X001628Y007186D02*
X001388Y007186D01*
X001388Y007426D01*
X001628Y007426D01*
X001628Y007299D02*
X001388Y007299D01*
X001388Y007412D02*
X001628Y007412D01*
X001628Y007686D02*
X001628Y007926D01*
X001628Y007686D02*
X001388Y007686D01*
X001388Y007926D01*
X001628Y007926D01*
X001628Y007799D02*
X001388Y007799D01*
X001388Y007912D02*
X001628Y007912D01*
X001037Y007926D02*
X001037Y007686D01*
X000797Y007686D01*
X000797Y007926D01*
X001037Y007926D01*
X001037Y007799D02*
X000797Y007799D01*
X000797Y007912D02*
X001037Y007912D01*
X001037Y007426D02*
X001037Y007186D01*
X000797Y007186D01*
X000797Y007426D01*
X001037Y007426D01*
X001037Y007299D02*
X000797Y007299D01*
X000797Y007412D02*
X001037Y007412D01*
X009443Y007718D02*
X009443Y007958D01*
X009443Y007718D02*
X009203Y007718D01*
X009203Y007958D01*
X009443Y007958D01*
X009443Y007831D02*
X009203Y007831D01*
X009203Y007944D02*
X009443Y007944D01*
X010034Y007958D02*
X010034Y007718D01*
X009794Y007718D01*
X009794Y007958D01*
X010034Y007958D01*
X010034Y007831D02*
X009794Y007831D01*
X009794Y007944D02*
X010034Y007944D01*
X009895Y001565D02*
X009655Y001565D01*
X009895Y001565D02*
X009895Y001325D01*
X009655Y001325D01*
X009655Y001565D01*
X009655Y001438D02*
X009895Y001438D01*
X009895Y001551D02*
X009655Y001551D01*
X009655Y000975D02*
X009895Y000975D01*
X009895Y000735D01*
X009655Y000735D01*
X009655Y000975D01*
X009655Y000848D02*
X009895Y000848D01*
X009895Y000961D02*
X009655Y000961D01*
X008825Y016843D02*
X008825Y017083D01*
X009065Y017083D01*
X009065Y016843D01*
X008825Y016843D01*
X008825Y016956D02*
X009065Y016956D01*
X009065Y017069D02*
X008825Y017069D01*
X009065Y017405D02*
X009065Y017645D01*
X009065Y017405D02*
X008825Y017405D01*
X008825Y017645D01*
X009065Y017645D01*
X009065Y017518D02*
X008825Y017518D01*
X008825Y017631D02*
X009065Y017631D01*
X008475Y017645D02*
X008475Y017405D01*
X008235Y017405D01*
X008235Y017645D01*
X008475Y017645D01*
X008475Y017518D02*
X008235Y017518D01*
X008235Y017631D02*
X008475Y017631D01*
X008235Y017083D02*
X008235Y016843D01*
X008235Y017083D02*
X008475Y017083D01*
X008475Y016843D01*
X008235Y016843D01*
X008235Y016956D02*
X008475Y016956D01*
X008475Y017069D02*
X008235Y017069D01*
D17*
X008152Y016457D02*
X008478Y016457D01*
X008478Y016093D01*
X008152Y016093D01*
X008152Y016457D01*
X008152Y016200D02*
X008478Y016200D01*
X008478Y016307D02*
X008152Y016307D01*
X008152Y016414D02*
X008478Y016414D01*
X008822Y016457D02*
X009148Y016457D01*
X009148Y016093D01*
X008822Y016093D01*
X008822Y016457D01*
X008822Y016200D02*
X009148Y016200D01*
X009148Y016307D02*
X008822Y016307D01*
X008822Y016414D02*
X009148Y016414D01*
X009916Y016531D02*
X009916Y016895D01*
X009916Y016531D02*
X009590Y016531D01*
X009590Y016895D01*
X009916Y016895D01*
X009916Y016638D02*
X009590Y016638D01*
X009590Y016745D02*
X009916Y016745D01*
X009916Y016852D02*
X009590Y016852D01*
X009590Y017520D02*
X009916Y017520D01*
X009916Y017156D01*
X009590Y017156D01*
X009590Y017520D01*
X009590Y017263D02*
X009916Y017263D01*
X009916Y017370D02*
X009590Y017370D01*
X009590Y017477D02*
X009916Y017477D01*
X010259Y017520D02*
X010585Y017520D01*
X010585Y017156D01*
X010259Y017156D01*
X010259Y017520D01*
X010259Y017263D02*
X010585Y017263D01*
X010585Y017370D02*
X010259Y017370D01*
X010259Y017477D02*
X010585Y017477D01*
X010585Y016895D02*
X010585Y016531D01*
X010259Y016531D01*
X010259Y016895D01*
X010585Y016895D01*
X010585Y016638D02*
X010259Y016638D01*
X010259Y016745D02*
X010585Y016745D01*
X010585Y016852D02*
X010259Y016852D01*
X010840Y016895D02*
X010840Y016531D01*
X010840Y016895D02*
X011166Y016895D01*
X011166Y016531D01*
X010840Y016531D01*
X010840Y016638D02*
X011166Y016638D01*
X011166Y016745D02*
X010840Y016745D01*
X010840Y016852D02*
X011166Y016852D01*
X011509Y016895D02*
X011509Y016531D01*
X011509Y016895D02*
X011835Y016895D01*
X011835Y016531D01*
X011509Y016531D01*
X011509Y016638D02*
X011835Y016638D01*
X011835Y016745D02*
X011509Y016745D01*
X011509Y016852D02*
X011835Y016852D01*
X013791Y017406D02*
X013791Y017770D01*
X013791Y017406D02*
X013465Y017406D01*
X013465Y017770D01*
X013791Y017770D01*
X013791Y017513D02*
X013465Y017513D01*
X013465Y017620D02*
X013791Y017620D01*
X013791Y017727D02*
X013465Y017727D01*
X013791Y018031D02*
X013791Y018395D01*
X013791Y018031D02*
X013465Y018031D01*
X013465Y018395D01*
X013791Y018395D01*
X013791Y018138D02*
X013465Y018138D01*
X013465Y018245D02*
X013791Y018245D01*
X013791Y018352D02*
X013465Y018352D01*
X013791Y018656D02*
X013791Y019020D01*
X013791Y018656D02*
X013465Y018656D01*
X013465Y019020D01*
X013791Y019020D01*
X013791Y018763D02*
X013465Y018763D01*
X013465Y018870D02*
X013791Y018870D01*
X013791Y018977D02*
X013465Y018977D01*
X014460Y019020D02*
X014460Y018656D01*
X014134Y018656D01*
X014134Y019020D01*
X014460Y019020D01*
X014460Y018763D02*
X014134Y018763D01*
X014134Y018870D02*
X014460Y018870D01*
X014460Y018977D02*
X014134Y018977D01*
X014460Y018395D02*
X014460Y018031D01*
X014134Y018031D01*
X014134Y018395D01*
X014460Y018395D01*
X014460Y018138D02*
X014134Y018138D01*
X014134Y018245D02*
X014460Y018245D01*
X014460Y018352D02*
X014134Y018352D01*
X014460Y017770D02*
X014460Y017406D01*
X014134Y017406D01*
X014134Y017770D01*
X014460Y017770D01*
X014460Y017513D02*
X014134Y017513D01*
X014134Y017620D02*
X014460Y017620D01*
X014460Y017727D02*
X014134Y017727D01*
X014460Y016020D02*
X014460Y015656D01*
X014134Y015656D01*
X014134Y016020D01*
X014460Y016020D01*
X014460Y015763D02*
X014134Y015763D01*
X014134Y015870D02*
X014460Y015870D01*
X014460Y015977D02*
X014134Y015977D01*
X013791Y016020D02*
X013791Y015656D01*
X013465Y015656D01*
X013465Y016020D01*
X013791Y016020D01*
X013791Y015763D02*
X013465Y015763D01*
X013465Y015870D02*
X013791Y015870D01*
X013791Y015977D02*
X013465Y015977D01*
X013465Y014207D02*
X013791Y014207D01*
X013791Y013843D01*
X013465Y013843D01*
X013465Y014207D01*
X013465Y013950D02*
X013791Y013950D01*
X013791Y014057D02*
X013465Y014057D01*
X013465Y014164D02*
X013791Y014164D01*
X014134Y014207D02*
X014460Y014207D01*
X014460Y013843D01*
X014134Y013843D01*
X014134Y014207D01*
X014134Y013950D02*
X014460Y013950D01*
X014460Y014057D02*
X014134Y014057D01*
X014134Y014164D02*
X014460Y014164D01*
X014460Y013582D02*
X014460Y013218D01*
X014134Y013218D01*
X014134Y013582D01*
X014460Y013582D01*
X014460Y013325D02*
X014134Y013325D01*
X014134Y013432D02*
X014460Y013432D01*
X014460Y013539D02*
X014134Y013539D01*
X013791Y013582D02*
X013791Y013218D01*
X013465Y013218D01*
X013465Y013582D01*
X013791Y013582D01*
X013791Y013325D02*
X013465Y013325D01*
X013465Y013432D02*
X013791Y013432D01*
X013791Y013539D02*
X013465Y013539D01*
X009572Y012270D02*
X009572Y011906D01*
X009572Y012270D02*
X009898Y012270D01*
X009898Y011906D01*
X009572Y011906D01*
X009572Y012013D02*
X009898Y012013D01*
X009898Y012120D02*
X009572Y012120D01*
X009572Y012227D02*
X009898Y012227D01*
X008902Y012270D02*
X008902Y011906D01*
X008902Y012270D02*
X009228Y012270D01*
X009228Y011906D01*
X008902Y011906D01*
X008902Y012013D02*
X009228Y012013D01*
X009228Y012120D02*
X008902Y012120D01*
X008902Y012227D02*
X009228Y012227D01*
X008822Y015468D02*
X008822Y015832D01*
X009148Y015832D01*
X009148Y015468D01*
X008822Y015468D01*
X008822Y015575D02*
X009148Y015575D01*
X009148Y015682D02*
X008822Y015682D01*
X008822Y015789D02*
X009148Y015789D01*
X008152Y015832D02*
X008152Y015468D01*
X008152Y015832D02*
X008478Y015832D01*
X008478Y015468D01*
X008152Y015468D01*
X008152Y015575D02*
X008478Y015575D01*
X008478Y015682D02*
X008152Y015682D01*
X008152Y015789D02*
X008478Y015789D01*
X009590Y019020D02*
X009916Y019020D01*
X009916Y018656D01*
X009590Y018656D01*
X009590Y019020D01*
X009590Y018763D02*
X009916Y018763D01*
X009916Y018870D02*
X009590Y018870D01*
X009590Y018977D02*
X009916Y018977D01*
X010259Y019020D02*
X010585Y019020D01*
X010585Y018656D01*
X010259Y018656D01*
X010259Y019020D01*
X010259Y018763D02*
X010585Y018763D01*
X010585Y018870D02*
X010259Y018870D01*
X010259Y018977D02*
X010585Y018977D01*
X006124Y007898D02*
X006124Y007572D01*
X006124Y007898D02*
X006488Y007898D01*
X006488Y007572D01*
X006124Y007572D01*
X006124Y007679D02*
X006488Y007679D01*
X006488Y007786D02*
X006124Y007786D01*
X006124Y007893D02*
X006488Y007893D01*
X005863Y007898D02*
X005499Y007898D01*
X005863Y007898D02*
X005863Y007572D01*
X005499Y007572D01*
X005499Y007898D01*
X005499Y007679D02*
X005863Y007679D01*
X005863Y007786D02*
X005499Y007786D01*
X005499Y007893D02*
X005863Y007893D01*
X005863Y007228D02*
X005499Y007228D01*
X005863Y007228D02*
X005863Y006902D01*
X005499Y006902D01*
X005499Y007228D01*
X005499Y007009D02*
X005863Y007009D01*
X005863Y007116D02*
X005499Y007116D01*
X005499Y007223D02*
X005863Y007223D01*
X006124Y007228D02*
X006124Y006902D01*
X006124Y007228D02*
X006488Y007228D01*
X006488Y006902D01*
X006124Y006902D01*
X006124Y007009D02*
X006488Y007009D01*
X006488Y007116D02*
X006124Y007116D01*
X006124Y007223D02*
X006488Y007223D01*
X003259Y007531D02*
X003259Y007895D01*
X003585Y007895D01*
X003585Y007531D01*
X003259Y007531D01*
X003259Y007638D02*
X003585Y007638D01*
X003585Y007745D02*
X003259Y007745D01*
X003259Y007852D02*
X003585Y007852D01*
X002590Y007895D02*
X002590Y007531D01*
X002590Y007895D02*
X002916Y007895D01*
X002916Y007531D01*
X002590Y007531D01*
X002590Y007638D02*
X002916Y007638D01*
X002916Y007745D02*
X002590Y007745D01*
X002590Y007852D02*
X002916Y007852D01*
X002301Y007929D02*
X002301Y007603D01*
X001937Y007603D01*
X001937Y007929D01*
X002301Y007929D01*
X002301Y007710D02*
X001937Y007710D01*
X001937Y007817D02*
X002301Y007817D01*
X002301Y007924D02*
X001937Y007924D01*
X002301Y007260D02*
X002301Y006934D01*
X001937Y006934D01*
X001937Y007260D01*
X002301Y007260D01*
X002301Y007041D02*
X001937Y007041D01*
X001937Y007148D02*
X002301Y007148D01*
X002301Y007255D02*
X001937Y007255D01*
X001707Y006835D02*
X001343Y006835D01*
X001707Y006835D02*
X001707Y006509D01*
X001343Y006509D01*
X001343Y006835D01*
X001343Y006616D02*
X001707Y006616D01*
X001707Y006723D02*
X001343Y006723D01*
X001343Y006830D02*
X001707Y006830D01*
X001082Y006835D02*
X001082Y006509D01*
X000718Y006509D01*
X000718Y006835D01*
X001082Y006835D01*
X001082Y006616D02*
X000718Y006616D01*
X000718Y006723D02*
X001082Y006723D01*
X001082Y006830D02*
X000718Y006830D01*
X001082Y006166D02*
X001082Y005840D01*
X000718Y005840D01*
X000718Y006166D01*
X001082Y006166D01*
X001082Y005947D02*
X000718Y005947D01*
X000718Y006054D02*
X001082Y006054D01*
X001082Y006161D02*
X000718Y006161D01*
X001343Y006166D02*
X001707Y006166D01*
X001707Y005840D01*
X001343Y005840D01*
X001343Y006166D01*
X001343Y005947D02*
X001707Y005947D01*
X001707Y006054D02*
X001343Y006054D01*
X001343Y006161D02*
X001707Y006161D01*
X001656Y003509D02*
X002020Y003509D01*
X001656Y003509D02*
X001656Y003835D01*
X002020Y003835D01*
X002020Y003509D01*
X002020Y003616D02*
X001656Y003616D01*
X001656Y003723D02*
X002020Y003723D01*
X002020Y003830D02*
X001656Y003830D01*
X001082Y003509D02*
X000718Y003509D01*
X000718Y003835D01*
X001082Y003835D01*
X001082Y003509D01*
X001082Y003616D02*
X000718Y003616D01*
X000718Y003723D02*
X001082Y003723D01*
X001082Y003830D02*
X000718Y003830D01*
X000718Y002840D02*
X001082Y002840D01*
X000718Y002840D02*
X000718Y003166D01*
X001082Y003166D01*
X001082Y002840D01*
X001082Y002947D02*
X000718Y002947D01*
X000718Y003054D02*
X001082Y003054D01*
X001082Y003161D02*
X000718Y003161D01*
X001656Y002840D02*
X002020Y002840D01*
X001656Y002840D02*
X001656Y003166D01*
X002020Y003166D01*
X002020Y002840D01*
X002020Y002947D02*
X001656Y002947D01*
X001656Y003054D02*
X002020Y003054D01*
X002020Y003161D02*
X001656Y003161D01*
X002645Y003166D02*
X002645Y002840D01*
X002281Y002840D01*
X002281Y003166D01*
X002645Y003166D01*
X002645Y002947D02*
X002281Y002947D01*
X002281Y003054D02*
X002645Y003054D01*
X002645Y003161D02*
X002281Y003161D01*
X002645Y003509D02*
X002645Y003835D01*
X002645Y003509D02*
X002281Y003509D01*
X002281Y003835D01*
X002645Y003835D01*
X002645Y003616D02*
X002281Y003616D01*
X002281Y003723D02*
X002645Y003723D01*
X002645Y003830D02*
X002281Y003830D01*
X005593Y003509D02*
X005957Y003509D01*
X005593Y003509D02*
X005593Y003835D01*
X005957Y003835D01*
X005957Y003509D01*
X005957Y003616D02*
X005593Y003616D01*
X005593Y003723D02*
X005957Y003723D01*
X005957Y003830D02*
X005593Y003830D01*
X005593Y002840D02*
X005957Y002840D01*
X005593Y002840D02*
X005593Y003166D01*
X005957Y003166D01*
X005957Y002840D01*
X005957Y002947D02*
X005593Y002947D01*
X005593Y003054D02*
X005957Y003054D01*
X005957Y003161D02*
X005593Y003161D01*
D18*
X009269Y002879D02*
X009407Y002879D01*
X009269Y002879D02*
X009269Y003273D01*
X009407Y003273D01*
X009407Y002879D01*
X009407Y002996D02*
X009269Y002996D01*
X009269Y003113D02*
X009407Y003113D01*
X009407Y003230D02*
X009269Y003230D01*
X009644Y002879D02*
X009782Y002879D01*
X009644Y002879D02*
X009644Y003273D01*
X009782Y003273D01*
X009782Y002879D01*
X009782Y002996D02*
X009644Y002996D01*
X009644Y003113D02*
X009782Y003113D01*
X009782Y003230D02*
X009644Y003230D01*
X010018Y002879D02*
X010156Y002879D01*
X010018Y002879D02*
X010018Y003273D01*
X010156Y003273D01*
X010156Y002879D01*
X010156Y002996D02*
X010018Y002996D01*
X010018Y003113D02*
X010156Y003113D01*
X010156Y003230D02*
X010018Y003230D01*
X010018Y003902D02*
X010156Y003902D01*
X010018Y003902D02*
X010018Y004296D01*
X010156Y004296D01*
X010156Y003902D01*
X010156Y004019D02*
X010018Y004019D01*
X010018Y004136D02*
X010156Y004136D01*
X010156Y004253D02*
X010018Y004253D01*
X009407Y003902D02*
X009269Y003902D01*
X009269Y004296D01*
X009407Y004296D01*
X009407Y003902D01*
X009407Y004019D02*
X009269Y004019D01*
X009269Y004136D02*
X009407Y004136D01*
X009407Y004253D02*
X009269Y004253D01*
X001781Y004129D02*
X001643Y004129D01*
X001643Y004523D01*
X001781Y004523D01*
X001781Y004129D01*
X001781Y004246D02*
X001643Y004246D01*
X001643Y004363D02*
X001781Y004363D01*
X001781Y004480D02*
X001643Y004480D01*
X001407Y004129D02*
X001269Y004129D01*
X001269Y004523D01*
X001407Y004523D01*
X001407Y004129D01*
X001407Y004246D02*
X001269Y004246D01*
X001269Y004363D02*
X001407Y004363D01*
X001407Y004480D02*
X001269Y004480D01*
X001032Y004129D02*
X000894Y004129D01*
X000894Y004523D01*
X001032Y004523D01*
X001032Y004129D01*
X001032Y004246D02*
X000894Y004246D01*
X000894Y004363D02*
X001032Y004363D01*
X001032Y004480D02*
X000894Y004480D01*
X000894Y005152D02*
X001032Y005152D01*
X000894Y005152D02*
X000894Y005546D01*
X001032Y005546D01*
X001032Y005152D01*
X001032Y005269D02*
X000894Y005269D01*
X000894Y005386D02*
X001032Y005386D01*
X001032Y005503D02*
X000894Y005503D01*
X001643Y005152D02*
X001781Y005152D01*
X001643Y005152D02*
X001643Y005546D01*
X001781Y005546D01*
X001781Y005152D01*
X001781Y005269D02*
X001643Y005269D01*
X001643Y005386D02*
X001781Y005386D01*
X001781Y005503D02*
X001643Y005503D01*
X008129Y014082D02*
X008129Y014220D01*
X008523Y014220D01*
X008523Y014082D01*
X008129Y014082D01*
X008129Y014199D02*
X008523Y014199D01*
X008129Y014456D02*
X008129Y014594D01*
X008523Y014594D01*
X008523Y014456D01*
X008129Y014456D01*
X008129Y014573D02*
X008523Y014573D01*
X008129Y014830D02*
X008129Y014968D01*
X008523Y014968D01*
X008523Y014830D01*
X008129Y014830D01*
X008129Y014947D02*
X008523Y014947D01*
X009152Y014968D02*
X009152Y014830D01*
X009152Y014968D02*
X009546Y014968D01*
X009546Y014830D01*
X009152Y014830D01*
X009152Y014947D02*
X009546Y014947D01*
X009152Y014220D02*
X009152Y014082D01*
X009152Y014220D02*
X009546Y014220D01*
X009546Y014082D01*
X009152Y014082D01*
X009152Y014199D02*
X009546Y014199D01*
D19*
X009534Y015678D02*
X009654Y015678D01*
X009534Y015678D02*
X009534Y015998D01*
X009654Y015998D01*
X009654Y015678D01*
X009654Y015797D02*
X009534Y015797D01*
X009534Y015916D02*
X009654Y015916D01*
X009834Y015678D02*
X009954Y015678D01*
X009834Y015678D02*
X009834Y015998D01*
X009954Y015998D01*
X009954Y015678D01*
X009954Y015797D02*
X009834Y015797D01*
X009834Y015916D02*
X009954Y015916D01*
X013815Y014998D02*
X013935Y014998D01*
X013935Y014678D01*
X013815Y014678D01*
X013815Y014998D01*
X013815Y014797D02*
X013935Y014797D01*
X013935Y014916D02*
X013815Y014916D01*
X014115Y014998D02*
X014235Y014998D01*
X014235Y014678D01*
X014115Y014678D01*
X014115Y014998D01*
X014115Y014797D02*
X014235Y014797D01*
X014235Y014916D02*
X014115Y014916D01*
X006329Y006240D02*
X006209Y006240D01*
X006209Y006560D01*
X006329Y006560D01*
X006329Y006240D01*
X006329Y006359D02*
X006209Y006359D01*
X006209Y006478D02*
X006329Y006478D01*
X006029Y006240D02*
X005909Y006240D01*
X005909Y006560D01*
X006029Y006560D01*
X006029Y006240D01*
X006029Y006359D02*
X005909Y006359D01*
X005909Y006478D02*
X006029Y006478D01*
X009221Y005803D02*
X009341Y005803D01*
X009221Y005803D02*
X009221Y006123D01*
X009341Y006123D01*
X009341Y005803D01*
X009341Y005922D02*
X009221Y005922D01*
X009221Y006041D02*
X009341Y006041D01*
X009521Y005803D02*
X009641Y005803D01*
X009521Y005803D02*
X009521Y006123D01*
X009641Y006123D01*
X009641Y005803D01*
X009641Y005922D02*
X009521Y005922D01*
X009521Y006041D02*
X009641Y006041D01*
X014123Y004173D02*
X014123Y004053D01*
X013803Y004053D01*
X013803Y004173D01*
X014123Y004173D01*
X014123Y004172D02*
X013803Y004172D01*
X014123Y003873D02*
X014123Y003753D01*
X013803Y003753D01*
X013803Y003873D01*
X014123Y003873D01*
X014123Y003872D02*
X013803Y003872D01*
X001060Y004628D02*
X001060Y004748D01*
X001060Y004628D02*
X000740Y004628D01*
X000740Y004748D01*
X001060Y004748D01*
X001060Y004747D02*
X000740Y004747D01*
X001060Y004928D02*
X001060Y005048D01*
X001060Y004928D02*
X000740Y004928D01*
X000740Y005048D01*
X001060Y005048D01*
X001060Y005047D02*
X000740Y005047D01*
D20*
X002860Y005131D02*
X003156Y005131D01*
X003156Y004934D02*
X002860Y004934D01*
X002860Y004738D02*
X003156Y004738D01*
X003363Y004531D02*
X003363Y004235D01*
X003559Y004235D02*
X003559Y004531D01*
X003756Y004531D02*
X003756Y004235D01*
X003953Y004235D02*
X003953Y004531D01*
X004150Y004531D02*
X004150Y004235D01*
X004347Y004235D02*
X004347Y004531D01*
X004544Y004531D02*
X004544Y004235D01*
X004741Y004235D02*
X004741Y004531D01*
X004937Y004531D02*
X004937Y004235D01*
X005144Y004934D02*
X005440Y004934D01*
X005440Y005131D02*
X005144Y005131D01*
X005144Y005328D02*
X005440Y005328D01*
X005440Y005525D02*
X005144Y005525D01*
X005144Y005722D02*
X005440Y005722D01*
X005440Y005919D02*
X005144Y005919D01*
X005144Y006116D02*
X005440Y006116D01*
X005440Y006312D02*
X005144Y006312D01*
X004937Y006519D02*
X004937Y006815D01*
X004741Y006815D02*
X004741Y006519D01*
X004544Y006519D02*
X004544Y006815D01*
X004347Y006815D02*
X004347Y006519D01*
X004150Y006519D02*
X004150Y006815D01*
X003953Y006815D02*
X003953Y006519D01*
X003756Y006519D02*
X003756Y006815D01*
X003559Y006815D02*
X003559Y006519D01*
X003363Y006519D02*
X003363Y006815D01*
X003156Y006312D02*
X002860Y006312D01*
X002860Y006116D02*
X003156Y006116D01*
X003156Y005919D02*
X002860Y005919D01*
X002860Y005722D02*
X003156Y005722D01*
X003156Y005525D02*
X002860Y005525D01*
X002860Y005328D02*
X003156Y005328D01*
X010829Y005250D02*
X011125Y005250D01*
X011125Y005053D02*
X010829Y005053D01*
X010829Y004856D02*
X011125Y004856D01*
X011125Y004659D02*
X010829Y004659D01*
X010829Y004463D02*
X011125Y004463D01*
X011125Y004266D02*
X010829Y004266D01*
X010829Y004069D02*
X011125Y004069D01*
X011125Y003872D02*
X010829Y003872D01*
X010829Y003675D02*
X011125Y003675D01*
X011331Y003469D02*
X011331Y003173D01*
X011528Y003173D02*
X011528Y003469D01*
X011725Y003469D02*
X011725Y003173D01*
X011922Y003173D02*
X011922Y003469D01*
X012119Y003469D02*
X012119Y003173D01*
X012316Y003173D02*
X012316Y003469D01*
X012512Y003469D02*
X012512Y003173D01*
X012709Y003173D02*
X012709Y003469D01*
X012906Y003469D02*
X012906Y003173D01*
X013112Y003872D02*
X013408Y003872D01*
X013408Y004069D02*
X013112Y004069D01*
X013112Y004266D02*
X013408Y004266D01*
X013408Y004463D02*
X013112Y004463D01*
X013112Y004659D02*
X013408Y004659D01*
X013408Y004856D02*
X013112Y004856D01*
X013112Y005053D02*
X013408Y005053D01*
X013408Y005250D02*
X013112Y005250D01*
X012906Y005456D02*
X012906Y005752D01*
X012709Y005752D02*
X012709Y005456D01*
X012512Y005456D02*
X012512Y005752D01*
X012316Y005752D02*
X012316Y005456D01*
X012119Y005456D02*
X012119Y005752D01*
X011922Y005752D02*
X011922Y005456D01*
X011725Y005456D02*
X011725Y005752D01*
X011528Y005752D02*
X011528Y005456D01*
X011331Y005456D02*
X011331Y005752D01*
X011256Y013235D02*
X011256Y013531D01*
X011059Y013531D02*
X011059Y013235D01*
X010863Y013235D02*
X010863Y013531D01*
X010656Y013738D02*
X010360Y013738D01*
X010360Y013934D02*
X010656Y013934D01*
X010656Y014131D02*
X010360Y014131D01*
X010360Y014328D02*
X010656Y014328D01*
X010656Y014525D02*
X010360Y014525D01*
X010360Y014722D02*
X010656Y014722D01*
X010656Y014919D02*
X010360Y014919D01*
X010360Y015116D02*
X010656Y015116D01*
X010656Y015312D02*
X010360Y015312D01*
X010863Y015519D02*
X010863Y015815D01*
X011059Y015815D02*
X011059Y015519D01*
X011256Y015519D02*
X011256Y015815D01*
X011453Y015815D02*
X011453Y015519D01*
X011650Y015519D02*
X011650Y015815D01*
X011847Y015815D02*
X011847Y015519D01*
X012044Y015519D02*
X012044Y015815D01*
X012241Y015815D02*
X012241Y015519D01*
X012437Y015519D02*
X012437Y015815D01*
X012644Y015312D02*
X012940Y015312D01*
X012940Y015116D02*
X012644Y015116D01*
X012644Y014919D02*
X012940Y014919D01*
X012940Y014722D02*
X012644Y014722D01*
X012644Y014525D02*
X012940Y014525D01*
X012940Y014328D02*
X012644Y014328D01*
X012644Y014131D02*
X012940Y014131D01*
X012940Y013934D02*
X012644Y013934D01*
X012437Y013531D02*
X012437Y013235D01*
X012241Y013235D02*
X012241Y013531D01*
X012044Y013531D02*
X012044Y013235D01*
X011847Y013235D02*
X011847Y013531D01*
X011650Y013531D02*
X011650Y013235D01*
X011453Y013235D02*
X011453Y013531D01*
D21*
X012644Y013742D02*
X012940Y013742D01*
X012940Y013734D01*
X012644Y013734D01*
X012644Y013742D01*
X005440Y004742D02*
X005144Y004742D01*
X005440Y004742D02*
X005440Y004734D01*
X005144Y004734D01*
X005144Y004742D01*
X013112Y003679D02*
X013408Y003679D01*
X013408Y003671D01*
X013112Y003671D01*
X013112Y003679D01*
D22*
X013823Y003319D02*
X013823Y003117D01*
X013823Y003319D02*
X014103Y003319D01*
X014103Y003117D01*
X013823Y003117D01*
X013823Y003230D02*
X014103Y003230D01*
X013823Y002808D02*
X013823Y002606D01*
X013823Y002808D02*
X014103Y002808D01*
X014103Y002606D01*
X013823Y002606D01*
X013823Y002719D02*
X014103Y002719D01*
X014103Y002194D02*
X014103Y001992D01*
X013823Y001992D01*
X013823Y002194D01*
X014103Y002194D01*
X014103Y002105D02*
X013823Y002105D01*
X014103Y001683D02*
X014103Y001481D01*
X013823Y001481D01*
X013823Y001683D01*
X014103Y001683D01*
X014103Y001594D02*
X013823Y001594D01*
X013823Y004668D02*
X013823Y004870D01*
X014103Y004870D01*
X014103Y004668D01*
X013823Y004668D01*
X013823Y004781D02*
X014103Y004781D01*
X013823Y005180D02*
X013823Y005382D01*
X014103Y005382D01*
X014103Y005180D01*
X013823Y005180D01*
X013823Y005293D02*
X014103Y005293D01*
X014072Y005952D02*
X014072Y006154D01*
X014072Y005952D02*
X013478Y005952D01*
X013478Y006154D01*
X014072Y006154D01*
X014072Y006065D02*
X013478Y006065D01*
X014072Y006424D02*
X014072Y006626D01*
X014072Y006424D02*
X013478Y006424D01*
X013478Y006626D01*
X014072Y006626D01*
X014072Y006537D02*
X013478Y006537D01*
X014072Y006896D02*
X014072Y007098D01*
X014072Y006896D02*
X013478Y006896D01*
X013478Y007098D01*
X014072Y007098D01*
X014072Y007009D02*
X013478Y007009D01*
X013071Y007069D02*
X013071Y006867D01*
X012791Y006867D01*
X012791Y007069D01*
X013071Y007069D01*
X013071Y006980D02*
X012791Y006980D01*
X012354Y007069D02*
X012354Y006867D01*
X012354Y007069D02*
X012634Y007069D01*
X012634Y006867D01*
X012354Y006867D01*
X012354Y006980D02*
X012634Y006980D01*
X012354Y006558D02*
X012354Y006356D01*
X012354Y006558D02*
X012634Y006558D01*
X012634Y006356D01*
X012354Y006356D01*
X012354Y006469D02*
X012634Y006469D01*
X013071Y006558D02*
X013071Y006356D01*
X012791Y006356D01*
X012791Y006558D01*
X013071Y006558D01*
X013071Y006469D02*
X012791Y006469D01*
X012867Y007354D02*
X013069Y007354D01*
X012867Y007354D02*
X012867Y007634D01*
X013069Y007634D01*
X013069Y007354D01*
X013069Y007467D02*
X012867Y007467D01*
X012867Y007580D02*
X013069Y007580D01*
X013356Y007666D02*
X013558Y007666D01*
X013356Y007666D02*
X013356Y007946D01*
X013558Y007946D01*
X013558Y007666D01*
X013558Y007779D02*
X013356Y007779D01*
X013356Y007892D02*
X013558Y007892D01*
X013867Y007666D02*
X014069Y007666D01*
X013867Y007666D02*
X013867Y007946D01*
X014069Y007946D01*
X014069Y007666D01*
X014069Y007779D02*
X013867Y007779D01*
X013867Y007892D02*
X014069Y007892D01*
X012558Y007354D02*
X012356Y007354D01*
X012356Y007634D01*
X012558Y007634D01*
X012558Y007354D01*
X012558Y007467D02*
X012356Y007467D01*
X012356Y007580D02*
X012558Y007580D01*
X010073Y005319D02*
X010073Y005117D01*
X010073Y005319D02*
X010353Y005319D01*
X010353Y005117D01*
X010073Y005117D01*
X010073Y005230D02*
X010353Y005230D01*
X010073Y004808D02*
X010073Y004606D01*
X010073Y004808D02*
X010353Y004808D01*
X010353Y004606D01*
X010073Y004606D01*
X010073Y004719D02*
X010353Y004719D01*
X009915Y004808D02*
X009915Y004606D01*
X009635Y004606D01*
X009635Y004808D01*
X009915Y004808D01*
X009915Y004719D02*
X009635Y004719D01*
X009478Y004808D02*
X009478Y004606D01*
X009198Y004606D01*
X009198Y004808D01*
X009478Y004808D01*
X009478Y004719D02*
X009198Y004719D01*
X009478Y005117D02*
X009478Y005319D01*
X009478Y005117D02*
X009198Y005117D01*
X009198Y005319D01*
X009478Y005319D01*
X009478Y005230D02*
X009198Y005230D01*
X009915Y005319D02*
X009915Y005117D01*
X009635Y005117D01*
X009635Y005319D01*
X009915Y005319D01*
X009915Y005230D02*
X009635Y005230D01*
X009478Y006668D02*
X009478Y006870D01*
X009478Y006668D02*
X009198Y006668D01*
X009198Y006870D01*
X009478Y006870D01*
X009478Y006781D02*
X009198Y006781D01*
X009478Y007180D02*
X009478Y007382D01*
X009478Y007180D02*
X009198Y007180D01*
X009198Y007382D01*
X009478Y007382D01*
X009478Y007293D02*
X009198Y007293D01*
X005130Y007916D02*
X004928Y007916D01*
X005130Y007916D02*
X005130Y007322D01*
X004928Y007322D01*
X004928Y007916D01*
X004928Y007435D02*
X005130Y007435D01*
X005130Y007548D02*
X004928Y007548D01*
X004928Y007661D02*
X005130Y007661D01*
X005130Y007774D02*
X004928Y007774D01*
X004928Y007887D02*
X005130Y007887D01*
X004657Y007916D02*
X004455Y007916D01*
X004657Y007916D02*
X004657Y007322D01*
X004455Y007322D01*
X004455Y007916D01*
X004455Y007435D02*
X004657Y007435D01*
X004657Y007548D02*
X004455Y007548D01*
X004455Y007661D02*
X004657Y007661D01*
X004657Y007774D02*
X004455Y007774D01*
X004455Y007887D02*
X004657Y007887D01*
X004185Y007916D02*
X003983Y007916D01*
X004185Y007916D02*
X004185Y007322D01*
X003983Y007322D01*
X003983Y007916D01*
X003983Y007435D02*
X004185Y007435D01*
X004185Y007548D02*
X003983Y007548D01*
X003983Y007661D02*
X004185Y007661D01*
X004185Y007774D02*
X003983Y007774D01*
X003983Y007887D02*
X004185Y007887D01*
X009915Y002569D02*
X009915Y002367D01*
X009635Y002367D01*
X009635Y002569D01*
X009915Y002569D01*
X009915Y002480D02*
X009635Y002480D01*
X009915Y002058D02*
X009915Y001856D01*
X009635Y001856D01*
X009635Y002058D01*
X009915Y002058D01*
X009915Y001969D02*
X009635Y001969D01*
X009198Y001867D02*
X009198Y002069D01*
X009478Y002069D01*
X009478Y001867D01*
X009198Y001867D01*
X009198Y001980D02*
X009478Y001980D01*
X009198Y001558D02*
X009198Y001356D01*
X009198Y001558D02*
X009478Y001558D01*
X009478Y001356D01*
X009198Y001356D01*
X009198Y001469D02*
X009478Y001469D01*
X012202Y016947D02*
X012404Y016947D01*
X012404Y016353D01*
X012202Y016353D01*
X012202Y016947D01*
X012202Y016466D02*
X012404Y016466D01*
X012404Y016579D02*
X012202Y016579D01*
X012202Y016692D02*
X012404Y016692D01*
X012404Y016805D02*
X012202Y016805D01*
X012202Y016918D02*
X012404Y016918D01*
X012674Y016947D02*
X012876Y016947D01*
X012876Y016353D01*
X012674Y016353D01*
X012674Y016947D01*
X012674Y016466D02*
X012876Y016466D01*
X012876Y016579D02*
X012674Y016579D01*
X012674Y016692D02*
X012876Y016692D01*
X012876Y016805D02*
X012674Y016805D01*
X012674Y016918D02*
X012876Y016918D01*
X013146Y016947D02*
X013348Y016947D01*
X013348Y016353D01*
X013146Y016353D01*
X013146Y016947D01*
X013146Y016466D02*
X013348Y016466D01*
X013348Y016579D02*
X013146Y016579D01*
X013146Y016692D02*
X013348Y016692D01*
X013348Y016805D02*
X013146Y016805D01*
X013146Y016918D02*
X013348Y016918D01*
D23*
X013525Y012588D03*
X013525Y012038D03*
X013525Y011488D03*
X013525Y010938D03*
X014275Y010938D03*
X014275Y011488D03*
X014275Y012038D03*
X014275Y012588D03*
X006463Y005713D03*
X006463Y005163D03*
X006463Y004613D03*
X006463Y004063D03*
X006463Y003338D03*
X006463Y002788D03*
X006463Y002238D03*
X006463Y001688D03*
D24*
X010221Y001896D02*
X010221Y002460D01*
X010705Y002460D01*
X010705Y001896D01*
X010221Y001896D01*
X010221Y002001D02*
X010705Y002001D01*
X010705Y002106D02*
X010221Y002106D01*
X010221Y002211D02*
X010705Y002211D01*
X010705Y002316D02*
X010221Y002316D01*
X010221Y002421D02*
X010705Y002421D01*
X010705Y001279D02*
X010705Y000715D01*
X010221Y000715D01*
X010221Y001279D01*
X010705Y001279D01*
X010705Y000820D02*
X010221Y000820D01*
X010221Y000925D02*
X010705Y000925D01*
X010705Y001030D02*
X010221Y001030D01*
X010221Y001135D02*
X010705Y001135D01*
X010705Y001240D02*
X010221Y001240D01*
D25*
X010600Y006314D02*
X010600Y006566D01*
X010600Y006566D01*
X010600Y006314D01*
X010600Y006314D01*
X010600Y006436D02*
X010600Y006436D01*
X010600Y006558D02*
X010600Y006558D01*
X010758Y006585D02*
X010758Y006313D01*
X010758Y006585D02*
X010758Y006585D01*
X010758Y006313D01*
X010758Y006313D01*
X010758Y006435D02*
X010758Y006435D01*
X010758Y006557D02*
X010758Y006557D01*
X010915Y006585D02*
X010915Y006313D01*
X010915Y006585D02*
X010915Y006585D01*
X010915Y006313D01*
X010915Y006313D01*
X010915Y006435D02*
X010915Y006435D01*
X010915Y006557D02*
X010915Y006557D01*
X011230Y006585D02*
X011230Y006313D01*
X011230Y006585D02*
X011230Y006585D01*
X011230Y006313D01*
X011230Y006313D01*
X011230Y006435D02*
X011230Y006435D01*
X011230Y006557D02*
X011230Y006557D01*
X011387Y006566D02*
X011387Y006314D01*
X011387Y006566D02*
X011387Y006566D01*
X011387Y006314D01*
X011387Y006314D01*
X011387Y006436D02*
X011387Y006436D01*
X011387Y006558D02*
X011387Y006558D01*
X011547Y006725D02*
X011799Y006725D01*
X011799Y006725D01*
X011547Y006725D01*
X011547Y006725D01*
X011527Y006883D02*
X011799Y006883D01*
X011799Y006883D01*
X011527Y006883D01*
X011527Y006883D01*
X011527Y007040D02*
X011799Y007040D01*
X011799Y007040D01*
X011527Y007040D01*
X011527Y007040D01*
X011527Y007197D02*
X011799Y007197D01*
X011799Y007197D01*
X011527Y007197D01*
X011527Y007197D01*
X011527Y007355D02*
X011799Y007355D01*
X011799Y007355D01*
X011527Y007355D01*
X011527Y007355D01*
X011547Y007512D02*
X011799Y007512D01*
X011799Y007512D01*
X011547Y007512D01*
X011547Y007512D01*
X011230Y007652D02*
X011230Y007924D01*
X011230Y007652D02*
X011230Y007652D01*
X011230Y007924D01*
X011230Y007924D01*
X011230Y007774D02*
X011230Y007774D01*
X011230Y007896D02*
X011230Y007896D01*
X011387Y007924D02*
X011387Y007672D01*
X011387Y007672D01*
X011387Y007924D01*
X011387Y007924D01*
X011387Y007794D02*
X011387Y007794D01*
X011387Y007916D02*
X011387Y007916D01*
X011072Y007924D02*
X011072Y007652D01*
X011072Y007652D01*
X011072Y007924D01*
X011072Y007924D01*
X011072Y007774D02*
X011072Y007774D01*
X011072Y007896D02*
X011072Y007896D01*
X010915Y007924D02*
X010915Y007652D01*
X010915Y007652D01*
X010915Y007924D01*
X010915Y007924D01*
X010915Y007774D02*
X010915Y007774D01*
X010915Y007896D02*
X010915Y007896D01*
X010758Y007924D02*
X010758Y007652D01*
X010758Y007652D01*
X010758Y007924D01*
X010758Y007924D01*
X010758Y007774D02*
X010758Y007774D01*
X010758Y007896D02*
X010758Y007896D01*
X010600Y007924D02*
X010600Y007672D01*
X010600Y007672D01*
X010600Y007924D01*
X010600Y007924D01*
X010600Y007794D02*
X010600Y007794D01*
X010600Y007916D02*
X010600Y007916D01*
X010441Y007512D02*
X010189Y007512D01*
X010189Y007512D01*
X010441Y007512D01*
X010441Y007512D01*
X010460Y007355D02*
X010188Y007355D01*
X010188Y007355D01*
X010460Y007355D01*
X010460Y007355D01*
X010460Y007197D02*
X010188Y007197D01*
X010188Y007197D01*
X010460Y007197D01*
X010460Y007197D01*
X010460Y007040D02*
X010188Y007040D01*
X010188Y007040D01*
X010460Y007040D01*
X010460Y007040D01*
X010460Y006883D02*
X010188Y006883D01*
X010188Y006883D01*
X010460Y006883D01*
X010460Y006883D01*
X010441Y006725D02*
X010189Y006725D01*
X010189Y006725D01*
X010441Y006725D01*
X010441Y006725D01*
X011631Y017407D02*
X011631Y017659D01*
X011631Y017659D01*
X011631Y017407D01*
X011631Y017407D01*
X011631Y017529D02*
X011631Y017529D01*
X011631Y017651D02*
X011631Y017651D01*
X011789Y017679D02*
X011789Y017407D01*
X011789Y017679D02*
X011789Y017679D01*
X011789Y017407D01*
X011789Y017407D01*
X011789Y017529D02*
X011789Y017529D01*
X011789Y017651D02*
X011789Y017651D01*
X011946Y017679D02*
X011946Y017407D01*
X011946Y017679D02*
X011946Y017679D01*
X011946Y017407D01*
X011946Y017407D01*
X011946Y017529D02*
X011946Y017529D01*
X011946Y017651D02*
X011946Y017651D01*
X012261Y017679D02*
X012261Y017407D01*
X012261Y017679D02*
X012261Y017679D01*
X012261Y017407D01*
X012261Y017407D01*
X012261Y017529D02*
X012261Y017529D01*
X012261Y017651D02*
X012261Y017651D01*
X012419Y017659D02*
X012419Y017407D01*
X012419Y017659D02*
X012419Y017659D01*
X012419Y017407D01*
X012419Y017407D01*
X012419Y017529D02*
X012419Y017529D01*
X012419Y017651D02*
X012419Y017651D01*
X012578Y017819D02*
X012830Y017819D01*
X012830Y017819D01*
X012578Y017819D01*
X012578Y017819D01*
X012558Y017976D02*
X012830Y017976D01*
X012830Y017976D01*
X012558Y017976D01*
X012558Y017976D01*
X012558Y018134D02*
X012830Y018134D01*
X012830Y018134D01*
X012558Y018134D01*
X012558Y018134D01*
X012558Y018291D02*
X012830Y018291D01*
X012830Y018291D01*
X012558Y018291D01*
X012558Y018291D01*
X012558Y018449D02*
X012830Y018449D01*
X012830Y018449D01*
X012558Y018449D01*
X012558Y018449D01*
X012578Y018606D02*
X012830Y018606D01*
X012830Y018606D01*
X012578Y018606D01*
X012578Y018606D01*
X012419Y018766D02*
X012419Y019018D01*
X012419Y018766D02*
X012419Y018766D01*
X012419Y019018D01*
X012419Y019018D01*
X012419Y018888D02*
X012419Y018888D01*
X012419Y019010D02*
X012419Y019010D01*
X012261Y019018D02*
X012261Y018746D01*
X012261Y018746D01*
X012261Y019018D01*
X012261Y019018D01*
X012261Y018868D02*
X012261Y018868D01*
X012261Y018990D02*
X012261Y018990D01*
X012104Y019018D02*
X012104Y018746D01*
X012104Y018746D01*
X012104Y019018D01*
X012104Y019018D01*
X012104Y018868D02*
X012104Y018868D01*
X012104Y018990D02*
X012104Y018990D01*
X011946Y019018D02*
X011946Y018746D01*
X011946Y018746D01*
X011946Y019018D01*
X011946Y019018D01*
X011946Y018868D02*
X011946Y018868D01*
X011946Y018990D02*
X011946Y018990D01*
X011789Y019018D02*
X011789Y018746D01*
X011789Y018746D01*
X011789Y019018D01*
X011789Y019018D01*
X011789Y018868D02*
X011789Y018868D01*
X011789Y018990D02*
X011789Y018990D01*
X011631Y019018D02*
X011631Y018766D01*
X011631Y018766D01*
X011631Y019018D01*
X011631Y019018D01*
X011631Y018888D02*
X011631Y018888D01*
X011631Y019010D02*
X011631Y019010D01*
X011472Y018606D02*
X011220Y018606D01*
X011220Y018606D01*
X011472Y018606D01*
X011472Y018606D01*
X011492Y018449D02*
X011220Y018449D01*
X011220Y018449D01*
X011492Y018449D01*
X011492Y018449D01*
X011492Y018291D02*
X011220Y018291D01*
X011220Y018291D01*
X011492Y018291D01*
X011492Y018291D01*
X011492Y018134D02*
X011220Y018134D01*
X011220Y018134D01*
X011492Y018134D01*
X011492Y018134D01*
X011492Y017976D02*
X011220Y017976D01*
X011220Y017976D01*
X011492Y017976D01*
X011492Y017976D01*
X011472Y017819D02*
X011220Y017819D01*
X011220Y017819D01*
X011472Y017819D01*
X011472Y017819D01*
D26*
X012104Y017681D02*
X012104Y017405D01*
X012104Y017681D02*
X012104Y017681D01*
X012104Y017405D01*
X012104Y017405D01*
X012104Y017523D02*
X012104Y017523D01*
X012104Y017641D02*
X012104Y017641D01*
X011072Y006587D02*
X011072Y006311D01*
X011072Y006587D02*
X011072Y006587D01*
X011072Y006311D01*
X011072Y006311D01*
X011072Y006429D02*
X011072Y006429D01*
X011072Y006547D02*
X011072Y006547D01*
D27*
X010994Y007119D03*
X012025Y018213D03*
M02*
