G75*
%MOIN*%
%OFA0B0*%
%FSLAX24Y24*%
%IPPOS*%
%LPD*%
%AMOC8*
5,1,8,0,0,1.08239X$1,22.5*
%
%ADD10C,0.0000*%
%ADD11R,0.1187X0.1187*%
%ADD12C,0.0099*%
%ADD13C,0.0101*%
%ADD14C,0.0098*%
%ADD15C,0.0100*%
%ADD16C,0.0100*%
%ADD17C,0.0100*%
%ADD18C,0.0083*%
%ADD19C,0.0079*%
D10*
X000794Y001150D02*
X006412Y001150D01*
X006451Y001152D01*
X006489Y001158D01*
X006526Y001167D01*
X006563Y001180D01*
X006598Y001197D01*
X006631Y001216D01*
X006662Y001239D01*
X006691Y001265D01*
X006717Y001294D01*
X006740Y001325D01*
X006759Y001358D01*
X006776Y001393D01*
X006789Y001430D01*
X006798Y001467D01*
X006804Y001505D01*
X006806Y001544D01*
X006806Y003400D01*
X006808Y003444D01*
X006814Y003487D01*
X006823Y003530D01*
X006836Y003571D01*
X006853Y003612D01*
X006873Y003650D01*
X006897Y003687D01*
X006923Y003722D01*
X006953Y003754D01*
X006985Y003783D01*
X007020Y003810D01*
X007056Y003833D01*
X007095Y003853D01*
X007135Y003870D01*
X007177Y003883D01*
X007220Y003892D01*
X007263Y003898D01*
X007306Y003900D01*
X008369Y003900D01*
X008368Y003900D02*
X008411Y003899D01*
X008453Y003895D01*
X008495Y003888D01*
X008537Y003877D01*
X008577Y003863D01*
X008616Y003845D01*
X008653Y003824D01*
X008688Y003801D01*
X008722Y003774D01*
X008753Y003745D01*
X008781Y003713D01*
X008807Y003679D01*
X008830Y003643D01*
X008850Y003605D01*
X008867Y003566D01*
X008880Y003526D01*
X008890Y003484D01*
X008897Y003442D01*
X008900Y003400D01*
X008900Y000794D01*
X008902Y000755D01*
X008908Y000717D01*
X008917Y000680D01*
X008930Y000643D01*
X008947Y000608D01*
X008966Y000575D01*
X008989Y000544D01*
X009015Y000515D01*
X009044Y000489D01*
X009075Y000466D01*
X009108Y000447D01*
X009143Y000430D01*
X009180Y000417D01*
X009217Y000408D01*
X009255Y000402D01*
X009294Y000400D01*
X014018Y000400D01*
X014057Y000402D01*
X014095Y000408D01*
X014132Y000417D01*
X014169Y000430D01*
X014204Y000447D01*
X014237Y000466D01*
X014268Y000489D01*
X014297Y000515D01*
X014323Y000544D01*
X014346Y000575D01*
X014365Y000608D01*
X014382Y000643D01*
X014395Y000680D01*
X014404Y000717D01*
X014410Y000755D01*
X014412Y000794D01*
X014412Y003400D01*
X014415Y003444D01*
X014422Y003488D01*
X014432Y003531D01*
X014446Y003574D01*
X014464Y003614D01*
X014485Y003653D01*
X014510Y003690D01*
X014538Y003725D01*
X014568Y003757D01*
X014602Y003787D01*
X014637Y003813D01*
X014675Y003836D01*
X014715Y003856D01*
X014757Y003872D01*
X014799Y003885D01*
X014843Y003894D01*
X014887Y003899D01*
X014932Y003900D01*
X014931Y003900D02*
X015869Y003900D01*
X015868Y003900D02*
X015911Y003899D01*
X015953Y003895D01*
X015995Y003888D01*
X016037Y003877D01*
X016077Y003863D01*
X016116Y003845D01*
X016153Y003824D01*
X016188Y003801D01*
X016222Y003774D01*
X016253Y003745D01*
X016281Y003713D01*
X016307Y003679D01*
X016330Y003643D01*
X016350Y003605D01*
X016367Y003566D01*
X016380Y003526D01*
X016390Y003484D01*
X016397Y003442D01*
X016400Y003400D01*
X016400Y002544D01*
X016402Y002505D01*
X016408Y002467D01*
X016417Y002430D01*
X016430Y002393D01*
X016447Y002358D01*
X016466Y002325D01*
X016489Y002294D01*
X016515Y002265D01*
X016544Y002239D01*
X016575Y002216D01*
X016608Y002197D01*
X016643Y002180D01*
X016680Y002167D01*
X016717Y002158D01*
X016755Y002152D01*
X016794Y002150D01*
X019006Y002150D01*
X019018Y002150D01*
X019006Y002150D02*
X019041Y002152D01*
X019075Y002157D01*
X019108Y002166D01*
X019141Y002179D01*
X019172Y002194D01*
X019201Y002213D01*
X019227Y002235D01*
X019252Y002260D01*
X019274Y002286D01*
X019293Y002315D01*
X019308Y002346D01*
X019321Y002379D01*
X019330Y002412D01*
X019335Y002446D01*
X019337Y002481D01*
X019337Y006999D01*
X019335Y007034D01*
X019330Y007068D01*
X019321Y007101D01*
X019308Y007134D01*
X019293Y007165D01*
X019274Y007194D01*
X019252Y007220D01*
X019227Y007245D01*
X019201Y007267D01*
X019172Y007286D01*
X019141Y007301D01*
X019108Y007314D01*
X019075Y007323D01*
X019041Y007328D01*
X019006Y007330D01*
X016731Y007330D01*
X016696Y007328D01*
X016662Y007323D01*
X016629Y007314D01*
X016596Y007301D01*
X016566Y007286D01*
X016536Y007267D01*
X016510Y007245D01*
X016485Y007220D01*
X016463Y007194D01*
X016444Y007165D01*
X016429Y007134D01*
X016416Y007101D01*
X016407Y007068D01*
X016402Y007034D01*
X016400Y006999D01*
X016400Y005900D01*
X016397Y005858D01*
X016390Y005816D01*
X016380Y005774D01*
X016367Y005734D01*
X016350Y005695D01*
X016330Y005657D01*
X016307Y005621D01*
X016281Y005587D01*
X016253Y005555D01*
X016222Y005526D01*
X016188Y005499D01*
X016153Y005476D01*
X016116Y005455D01*
X016077Y005437D01*
X016037Y005423D01*
X015995Y005412D01*
X015953Y005405D01*
X015911Y005401D01*
X015868Y005400D01*
X015869Y005400D02*
X014931Y005400D01*
X014932Y005400D02*
X014887Y005401D01*
X014843Y005406D01*
X014799Y005415D01*
X014757Y005428D01*
X014715Y005444D01*
X014675Y005464D01*
X014637Y005487D01*
X014602Y005513D01*
X014568Y005543D01*
X014538Y005575D01*
X014510Y005610D01*
X014485Y005647D01*
X014464Y005686D01*
X014446Y005726D01*
X014432Y005769D01*
X014422Y005812D01*
X014415Y005856D01*
X014412Y005900D01*
X014412Y007880D01*
X014410Y007919D01*
X014404Y007957D01*
X014395Y007994D01*
X014382Y008031D01*
X014365Y008066D01*
X014346Y008099D01*
X014323Y008130D01*
X014297Y008159D01*
X014268Y008185D01*
X014237Y008208D01*
X014204Y008227D01*
X014169Y008244D01*
X014132Y008257D01*
X014095Y008266D01*
X014057Y008272D01*
X014018Y008274D01*
X012900Y008274D01*
X012857Y008277D01*
X012815Y008284D01*
X012774Y008294D01*
X012733Y008307D01*
X012694Y008324D01*
X012656Y008344D01*
X012620Y008367D01*
X012587Y008393D01*
X012555Y008421D01*
X012526Y008453D01*
X012499Y008486D01*
X012475Y008521D01*
X012455Y008559D01*
X012437Y008598D01*
X012423Y008638D01*
X012412Y008679D01*
X012405Y008721D01*
X012401Y008763D01*
X012400Y008806D01*
X012400Y009619D01*
X012400Y009618D02*
X012401Y009663D01*
X012405Y009708D01*
X012414Y009752D01*
X012426Y009796D01*
X012442Y009838D01*
X012462Y009878D01*
X012485Y009917D01*
X012511Y009954D01*
X012540Y009988D01*
X012573Y010019D01*
X012607Y010048D01*
X012645Y010073D01*
X012684Y010095D01*
X012725Y010113D01*
X012767Y010128D01*
X012811Y010139D01*
X012855Y010146D01*
X012900Y010150D01*
X014537Y010150D01*
X014576Y010152D01*
X014614Y010158D01*
X014651Y010167D01*
X014688Y010180D01*
X014723Y010197D01*
X014756Y010216D01*
X014787Y010239D01*
X014816Y010265D01*
X014842Y010294D01*
X014865Y010325D01*
X014884Y010358D01*
X014901Y010393D01*
X014914Y010430D01*
X014923Y010467D01*
X014929Y010505D01*
X014931Y010544D01*
X014931Y019218D01*
X014930Y019218D02*
X014927Y019256D01*
X014921Y019294D01*
X014911Y019330D01*
X014898Y019366D01*
X014881Y019400D01*
X014861Y019432D01*
X014838Y019462D01*
X014812Y019490D01*
X014784Y019515D01*
X014753Y019537D01*
X014720Y019556D01*
X014685Y019572D01*
X014649Y019584D01*
X014612Y019593D01*
X014575Y019598D01*
X014537Y019599D01*
X008044Y019599D01*
X008043Y019599D02*
X008005Y019598D01*
X007968Y019593D01*
X007931Y019584D01*
X007895Y019572D01*
X007860Y019556D01*
X007827Y019537D01*
X007796Y019515D01*
X007768Y019490D01*
X007742Y019462D01*
X007719Y019432D01*
X007699Y019400D01*
X007682Y019366D01*
X007669Y019330D01*
X007659Y019294D01*
X007653Y019256D01*
X007650Y019218D01*
X007650Y010544D01*
X007652Y010505D01*
X007658Y010467D01*
X007667Y010430D01*
X007680Y010393D01*
X007697Y010358D01*
X007716Y010325D01*
X007739Y010294D01*
X007765Y010265D01*
X007794Y010239D01*
X007825Y010216D01*
X007858Y010197D01*
X007893Y010180D01*
X007930Y010167D01*
X007967Y010158D01*
X008005Y010152D01*
X008044Y010150D01*
X010400Y010150D01*
X010442Y010147D01*
X010484Y010140D01*
X010526Y010130D01*
X010566Y010117D01*
X010605Y010100D01*
X010643Y010080D01*
X010679Y010057D01*
X010713Y010031D01*
X010745Y010003D01*
X010774Y009972D01*
X010801Y009938D01*
X010824Y009903D01*
X010845Y009866D01*
X010863Y009827D01*
X010877Y009787D01*
X010888Y009745D01*
X010895Y009703D01*
X010899Y009661D01*
X010900Y009618D01*
X010900Y009619D02*
X010900Y008806D01*
X010899Y008763D01*
X010895Y008721D01*
X010888Y008679D01*
X010877Y008638D01*
X010863Y008598D01*
X010845Y008559D01*
X010825Y008521D01*
X010801Y008486D01*
X010774Y008453D01*
X010745Y008421D01*
X010713Y008393D01*
X010680Y008367D01*
X010644Y008344D01*
X010606Y008324D01*
X010567Y008307D01*
X010526Y008294D01*
X010485Y008284D01*
X010443Y008277D01*
X010400Y008274D01*
X009294Y008274D01*
X009255Y008272D01*
X009217Y008266D01*
X009180Y008257D01*
X009143Y008244D01*
X009108Y008227D01*
X009075Y008208D01*
X009044Y008185D01*
X009015Y008159D01*
X008989Y008130D01*
X008966Y008099D01*
X008947Y008066D01*
X008930Y008031D01*
X008917Y007994D01*
X008908Y007957D01*
X008902Y007919D01*
X008900Y007880D01*
X008900Y005900D01*
X008897Y005858D01*
X008890Y005816D01*
X008880Y005774D01*
X008867Y005734D01*
X008850Y005695D01*
X008830Y005657D01*
X008807Y005621D01*
X008781Y005587D01*
X008753Y005555D01*
X008722Y005526D01*
X008688Y005499D01*
X008653Y005476D01*
X008616Y005455D01*
X008577Y005437D01*
X008537Y005423D01*
X008495Y005412D01*
X008453Y005405D01*
X008411Y005401D01*
X008368Y005400D01*
X008369Y005400D02*
X007306Y005400D01*
X007263Y005402D01*
X007220Y005408D01*
X007177Y005417D01*
X007135Y005430D01*
X007095Y005447D01*
X007056Y005467D01*
X007020Y005490D01*
X006985Y005517D01*
X006953Y005546D01*
X006923Y005578D01*
X006897Y005613D01*
X006873Y005650D01*
X006853Y005688D01*
X006836Y005729D01*
X006823Y005770D01*
X006814Y005813D01*
X006808Y005856D01*
X006806Y005900D01*
X006806Y007843D01*
X006804Y007882D01*
X006798Y007920D01*
X006789Y007957D01*
X006776Y007994D01*
X006759Y008029D01*
X006740Y008062D01*
X006717Y008093D01*
X006691Y008122D01*
X006662Y008148D01*
X006631Y008171D01*
X006598Y008190D01*
X006563Y008207D01*
X006526Y008220D01*
X006489Y008229D01*
X006451Y008235D01*
X006412Y008237D01*
X000794Y008237D01*
X000755Y008235D01*
X000717Y008229D01*
X000680Y008220D01*
X000643Y008207D01*
X000608Y008190D01*
X000575Y008171D01*
X000544Y008148D01*
X000515Y008122D01*
X000489Y008093D01*
X000466Y008062D01*
X000447Y008029D01*
X000430Y007994D01*
X000417Y007957D01*
X000408Y007920D01*
X000402Y007882D01*
X000400Y007843D01*
X000400Y001544D01*
X000402Y001505D01*
X000408Y001467D01*
X000417Y001430D01*
X000430Y001393D01*
X000447Y001358D01*
X000466Y001325D01*
X000489Y001294D01*
X000515Y001265D01*
X000544Y001239D01*
X000575Y001216D01*
X000608Y001197D01*
X000643Y001180D01*
X000680Y001167D01*
X000717Y001158D01*
X000755Y001152D01*
X000794Y001150D01*
X008900Y007880D02*
X008900Y007900D01*
X008004Y011006D02*
X008006Y011047D01*
X008012Y011088D01*
X008022Y011128D01*
X008035Y011167D01*
X008052Y011204D01*
X008073Y011240D01*
X008097Y011274D01*
X008124Y011305D01*
X008153Y011333D01*
X008186Y011359D01*
X008220Y011381D01*
X008257Y011400D01*
X008295Y011415D01*
X008335Y011427D01*
X008375Y011435D01*
X008416Y011439D01*
X008458Y011439D01*
X008499Y011435D01*
X008539Y011427D01*
X008579Y011415D01*
X008617Y011400D01*
X008653Y011381D01*
X008688Y011359D01*
X008721Y011333D01*
X008750Y011305D01*
X008777Y011274D01*
X008801Y011240D01*
X008822Y011204D01*
X008839Y011167D01*
X008852Y011128D01*
X008862Y011088D01*
X008868Y011047D01*
X008870Y011006D01*
X008868Y010965D01*
X008862Y010924D01*
X008852Y010884D01*
X008839Y010845D01*
X008822Y010808D01*
X008801Y010772D01*
X008777Y010738D01*
X008750Y010707D01*
X008721Y010679D01*
X008688Y010653D01*
X008654Y010631D01*
X008617Y010612D01*
X008579Y010597D01*
X008539Y010585D01*
X008499Y010577D01*
X008458Y010573D01*
X008416Y010573D01*
X008375Y010577D01*
X008335Y010585D01*
X008295Y010597D01*
X008257Y010612D01*
X008221Y010631D01*
X008186Y010653D01*
X008153Y010679D01*
X008124Y010707D01*
X008097Y010738D01*
X008073Y010772D01*
X008052Y010808D01*
X008035Y010845D01*
X008022Y010884D01*
X008012Y010924D01*
X008006Y010965D01*
X008004Y011006D01*
X008004Y018755D02*
X008006Y018796D01*
X008012Y018837D01*
X008022Y018877D01*
X008035Y018916D01*
X008052Y018953D01*
X008073Y018989D01*
X008097Y019023D01*
X008124Y019054D01*
X008153Y019082D01*
X008186Y019108D01*
X008220Y019130D01*
X008257Y019149D01*
X008295Y019164D01*
X008335Y019176D01*
X008375Y019184D01*
X008416Y019188D01*
X008458Y019188D01*
X008499Y019184D01*
X008539Y019176D01*
X008579Y019164D01*
X008617Y019149D01*
X008653Y019130D01*
X008688Y019108D01*
X008721Y019082D01*
X008750Y019054D01*
X008777Y019023D01*
X008801Y018989D01*
X008822Y018953D01*
X008839Y018916D01*
X008852Y018877D01*
X008862Y018837D01*
X008868Y018796D01*
X008870Y018755D01*
X008868Y018714D01*
X008862Y018673D01*
X008852Y018633D01*
X008839Y018594D01*
X008822Y018557D01*
X008801Y018521D01*
X008777Y018487D01*
X008750Y018456D01*
X008721Y018428D01*
X008688Y018402D01*
X008654Y018380D01*
X008617Y018361D01*
X008579Y018346D01*
X008539Y018334D01*
X008499Y018326D01*
X008458Y018322D01*
X008416Y018322D01*
X008375Y018326D01*
X008335Y018334D01*
X008295Y018346D01*
X008257Y018361D01*
X008221Y018380D01*
X008186Y018402D01*
X008153Y018428D01*
X008124Y018456D01*
X008097Y018487D01*
X008073Y018521D01*
X008052Y018557D01*
X008035Y018594D01*
X008022Y018633D01*
X008012Y018673D01*
X008006Y018714D01*
X008004Y018755D01*
D11*
X011650Y014525D03*
X004150Y005525D03*
X012119Y004463D03*
D12*
X014060Y005964D02*
X014060Y006142D01*
X014060Y005964D02*
X013490Y005964D01*
X013490Y006142D01*
X014060Y006142D01*
X014060Y006062D02*
X013490Y006062D01*
X014060Y006436D02*
X014060Y006614D01*
X014060Y006436D02*
X013490Y006436D01*
X013490Y006614D01*
X014060Y006614D01*
X014060Y006534D02*
X013490Y006534D01*
X014060Y006908D02*
X014060Y007086D01*
X014060Y006908D02*
X013490Y006908D01*
X013490Y007086D01*
X014060Y007086D01*
X014060Y007006D02*
X013490Y007006D01*
X013059Y007057D02*
X013059Y006879D01*
X012803Y006879D01*
X012803Y007057D01*
X013059Y007057D01*
X013059Y006977D02*
X012803Y006977D01*
X012366Y007057D02*
X012366Y006879D01*
X012366Y007057D02*
X012622Y007057D01*
X012622Y006879D01*
X012366Y006879D01*
X012366Y006977D02*
X012622Y006977D01*
X012366Y006546D02*
X012366Y006368D01*
X012366Y006546D02*
X012622Y006546D01*
X012622Y006368D01*
X012366Y006368D01*
X012366Y006466D02*
X012622Y006466D01*
X013059Y006546D02*
X013059Y006368D01*
X012803Y006368D01*
X012803Y006546D01*
X013059Y006546D01*
X013059Y006466D02*
X012803Y006466D01*
X012879Y007366D02*
X013057Y007366D01*
X012879Y007366D02*
X012879Y007622D01*
X013057Y007622D01*
X013057Y007366D01*
X013057Y007464D02*
X012879Y007464D01*
X012879Y007562D02*
X013057Y007562D01*
X013368Y007678D02*
X013546Y007678D01*
X013368Y007678D02*
X013368Y007934D01*
X013546Y007934D01*
X013546Y007678D01*
X013546Y007776D02*
X013368Y007776D01*
X013368Y007874D02*
X013546Y007874D01*
X013879Y007678D02*
X014057Y007678D01*
X013879Y007678D02*
X013879Y007934D01*
X014057Y007934D01*
X014057Y007678D01*
X014057Y007776D02*
X013879Y007776D01*
X013879Y007874D02*
X014057Y007874D01*
X012546Y007366D02*
X012368Y007366D01*
X012368Y007622D01*
X012546Y007622D01*
X012546Y007366D01*
X012546Y007464D02*
X012368Y007464D01*
X012368Y007562D02*
X012546Y007562D01*
X013835Y005370D02*
X013835Y005192D01*
X013835Y005370D02*
X014091Y005370D01*
X014091Y005192D01*
X013835Y005192D01*
X013835Y005290D02*
X014091Y005290D01*
X013835Y004858D02*
X013835Y004680D01*
X013835Y004858D02*
X014091Y004858D01*
X014091Y004680D01*
X013835Y004680D01*
X013835Y004778D02*
X014091Y004778D01*
X013835Y003307D02*
X013835Y003129D01*
X013835Y003307D02*
X014091Y003307D01*
X014091Y003129D01*
X013835Y003129D01*
X013835Y003227D02*
X014091Y003227D01*
X013835Y002796D02*
X013835Y002618D01*
X013835Y002796D02*
X014091Y002796D01*
X014091Y002618D01*
X013835Y002618D01*
X013835Y002716D02*
X014091Y002716D01*
X014091Y002182D02*
X014091Y002004D01*
X013835Y002004D01*
X013835Y002182D01*
X014091Y002182D01*
X014091Y002102D02*
X013835Y002102D01*
X014091Y001671D02*
X014091Y001493D01*
X013835Y001493D01*
X013835Y001671D01*
X014091Y001671D01*
X014091Y001591D02*
X013835Y001591D01*
X013627Y000678D02*
X013253Y000678D01*
X013253Y001288D01*
X013627Y001288D01*
X013627Y000678D01*
X013627Y000776D02*
X013253Y000776D01*
X013253Y000874D02*
X013627Y000874D01*
X013627Y000972D02*
X013253Y000972D01*
X013253Y001070D02*
X013627Y001070D01*
X013627Y001168D02*
X013253Y001168D01*
X013253Y001266D02*
X013627Y001266D01*
X012997Y002253D02*
X012859Y002253D01*
X012859Y002765D01*
X012997Y002765D01*
X012997Y002253D01*
X012997Y002351D02*
X012859Y002351D01*
X012859Y002449D02*
X012997Y002449D01*
X012997Y002547D02*
X012859Y002547D01*
X012859Y002645D02*
X012997Y002645D01*
X012997Y002743D02*
X012859Y002743D01*
X012603Y002253D02*
X012465Y002253D01*
X012465Y002765D01*
X012603Y002765D01*
X012603Y002253D01*
X012603Y002351D02*
X012465Y002351D01*
X012465Y002449D02*
X012603Y002449D01*
X012603Y002547D02*
X012465Y002547D01*
X012465Y002645D02*
X012603Y002645D01*
X012603Y002743D02*
X012465Y002743D01*
X012210Y002253D02*
X012072Y002253D01*
X012072Y002765D01*
X012210Y002765D01*
X012210Y002253D01*
X012210Y002351D02*
X012072Y002351D01*
X012072Y002449D02*
X012210Y002449D01*
X012210Y002547D02*
X012072Y002547D01*
X012072Y002645D02*
X012210Y002645D01*
X012210Y002743D02*
X012072Y002743D01*
X011816Y002253D02*
X011678Y002253D01*
X011678Y002765D01*
X011816Y002765D01*
X011816Y002253D01*
X011816Y002351D02*
X011678Y002351D01*
X011678Y002449D02*
X011816Y002449D01*
X011816Y002547D02*
X011678Y002547D01*
X011678Y002645D02*
X011816Y002645D01*
X011816Y002743D02*
X011678Y002743D01*
X010237Y002444D02*
X010237Y001912D01*
X010237Y002444D02*
X010689Y002444D01*
X010689Y001912D01*
X010237Y001912D01*
X010237Y002010D02*
X010689Y002010D01*
X010689Y002108D02*
X010237Y002108D01*
X010237Y002206D02*
X010689Y002206D01*
X010689Y002304D02*
X010237Y002304D01*
X010237Y002402D02*
X010689Y002402D01*
X009903Y002379D02*
X009903Y002557D01*
X009903Y002379D02*
X009647Y002379D01*
X009647Y002557D01*
X009903Y002557D01*
X009903Y002477D02*
X009647Y002477D01*
X009903Y002046D02*
X009903Y001868D01*
X009647Y001868D01*
X009647Y002046D01*
X009903Y002046D01*
X009903Y001966D02*
X009647Y001966D01*
X009210Y001879D02*
X009210Y002057D01*
X009466Y002057D01*
X009466Y001879D01*
X009210Y001879D01*
X009210Y001977D02*
X009466Y001977D01*
X009210Y001546D02*
X009210Y001368D01*
X009210Y001546D02*
X009466Y001546D01*
X009466Y001368D01*
X009210Y001368D01*
X009210Y001466D02*
X009466Y001466D01*
X010689Y001263D02*
X010689Y000731D01*
X010237Y000731D01*
X010237Y001263D01*
X010689Y001263D01*
X010689Y000829D02*
X010237Y000829D01*
X010237Y000927D02*
X010689Y000927D01*
X010689Y001025D02*
X010237Y001025D01*
X010237Y001123D02*
X010689Y001123D01*
X010689Y001221D02*
X010237Y001221D01*
X011048Y000678D02*
X011422Y000678D01*
X011048Y000678D02*
X011048Y001288D01*
X011422Y001288D01*
X011422Y000678D01*
X011422Y000776D02*
X011048Y000776D01*
X011048Y000874D02*
X011422Y000874D01*
X011422Y000972D02*
X011048Y000972D01*
X011048Y001070D02*
X011422Y001070D01*
X011422Y001168D02*
X011048Y001168D01*
X011048Y001266D02*
X011422Y001266D01*
X010085Y004618D02*
X010085Y004796D01*
X010341Y004796D01*
X010341Y004618D01*
X010085Y004618D01*
X010085Y004716D02*
X010341Y004716D01*
X010085Y005129D02*
X010085Y005307D01*
X010341Y005307D01*
X010341Y005129D01*
X010085Y005129D01*
X010085Y005227D02*
X010341Y005227D01*
X009903Y005307D02*
X009903Y005129D01*
X009647Y005129D01*
X009647Y005307D01*
X009903Y005307D01*
X009903Y005227D02*
X009647Y005227D01*
X009466Y005307D02*
X009466Y005129D01*
X009210Y005129D01*
X009210Y005307D01*
X009466Y005307D01*
X009466Y005227D02*
X009210Y005227D01*
X009466Y004796D02*
X009466Y004618D01*
X009210Y004618D01*
X009210Y004796D01*
X009466Y004796D01*
X009466Y004716D02*
X009210Y004716D01*
X009903Y004796D02*
X009903Y004618D01*
X009647Y004618D01*
X009647Y004796D01*
X009903Y004796D01*
X009903Y004716D02*
X009647Y004716D01*
X009466Y006680D02*
X009466Y006858D01*
X009466Y006680D02*
X009210Y006680D01*
X009210Y006858D01*
X009466Y006858D01*
X009466Y006778D02*
X009210Y006778D01*
X009466Y007192D02*
X009466Y007370D01*
X009466Y007192D02*
X009210Y007192D01*
X009210Y007370D01*
X009466Y007370D01*
X009466Y007290D02*
X009210Y007290D01*
X010236Y010428D02*
X010610Y010428D01*
X010236Y010428D02*
X010236Y011038D01*
X010610Y011038D01*
X010610Y010428D01*
X010610Y010526D02*
X010236Y010526D01*
X010236Y010624D02*
X010610Y010624D01*
X010610Y010722D02*
X010236Y010722D01*
X010236Y010820D02*
X010610Y010820D01*
X010610Y010918D02*
X010236Y010918D01*
X010236Y011016D02*
X010610Y011016D01*
X010865Y012003D02*
X011003Y012003D01*
X010865Y012003D02*
X010865Y012515D01*
X011003Y012515D01*
X011003Y012003D01*
X011003Y012101D02*
X010865Y012101D01*
X010865Y012199D02*
X011003Y012199D01*
X011003Y012297D02*
X010865Y012297D01*
X010865Y012395D02*
X011003Y012395D01*
X011003Y012493D02*
X010865Y012493D01*
X011259Y012003D02*
X011397Y012003D01*
X011259Y012003D02*
X011259Y012515D01*
X011397Y012515D01*
X011397Y012003D01*
X011397Y012101D02*
X011259Y012101D01*
X011259Y012199D02*
X011397Y012199D01*
X011397Y012297D02*
X011259Y012297D01*
X011259Y012395D02*
X011397Y012395D01*
X011397Y012493D02*
X011259Y012493D01*
X011653Y012003D02*
X011791Y012003D01*
X011653Y012003D02*
X011653Y012515D01*
X011791Y012515D01*
X011791Y012003D01*
X011791Y012101D02*
X011653Y012101D01*
X011653Y012199D02*
X011791Y012199D01*
X011791Y012297D02*
X011653Y012297D01*
X011653Y012395D02*
X011791Y012395D01*
X011791Y012493D02*
X011653Y012493D01*
X012047Y012003D02*
X012185Y012003D01*
X012047Y012003D02*
X012047Y012515D01*
X012185Y012515D01*
X012185Y012003D01*
X012185Y012101D02*
X012047Y012101D01*
X012047Y012199D02*
X012185Y012199D01*
X012185Y012297D02*
X012047Y012297D01*
X012047Y012395D02*
X012185Y012395D01*
X012185Y012493D02*
X012047Y012493D01*
X012440Y010428D02*
X012814Y010428D01*
X012440Y010428D02*
X012440Y011038D01*
X012814Y011038D01*
X012814Y010428D01*
X012814Y010526D02*
X012440Y010526D01*
X012440Y010624D02*
X012814Y010624D01*
X012814Y010722D02*
X012440Y010722D01*
X012440Y010820D02*
X012814Y010820D01*
X012814Y010918D02*
X012440Y010918D01*
X012440Y011016D02*
X012814Y011016D01*
X016579Y007028D02*
X016953Y007028D01*
X016953Y006418D01*
X016579Y006418D01*
X016579Y007028D01*
X016579Y006516D02*
X016953Y006516D01*
X016953Y006614D02*
X016579Y006614D01*
X016579Y006712D02*
X016953Y006712D01*
X016953Y006810D02*
X016579Y006810D01*
X016579Y006908D02*
X016953Y006908D01*
X016953Y007006D02*
X016579Y007006D01*
X017209Y005453D02*
X017347Y005453D01*
X017347Y004941D01*
X017209Y004941D01*
X017209Y005453D01*
X017209Y005039D02*
X017347Y005039D01*
X017347Y005137D02*
X017209Y005137D01*
X017209Y005235D02*
X017347Y005235D01*
X017347Y005333D02*
X017209Y005333D01*
X017209Y005431D02*
X017347Y005431D01*
X017603Y005453D02*
X017741Y005453D01*
X017741Y004941D01*
X017603Y004941D01*
X017603Y005453D01*
X017603Y005039D02*
X017741Y005039D01*
X017741Y005137D02*
X017603Y005137D01*
X017603Y005235D02*
X017741Y005235D01*
X017741Y005333D02*
X017603Y005333D01*
X017603Y005431D02*
X017741Y005431D01*
X017997Y005453D02*
X018135Y005453D01*
X018135Y004941D01*
X017997Y004941D01*
X017997Y005453D01*
X017997Y005039D02*
X018135Y005039D01*
X018135Y005137D02*
X017997Y005137D01*
X017997Y005235D02*
X018135Y005235D01*
X018135Y005333D02*
X017997Y005333D01*
X017997Y005431D02*
X018135Y005431D01*
X018390Y005453D02*
X018528Y005453D01*
X018528Y004941D01*
X018390Y004941D01*
X018390Y005453D01*
X018390Y005039D02*
X018528Y005039D01*
X018528Y005137D02*
X018390Y005137D01*
X018390Y005235D02*
X018528Y005235D01*
X018528Y005333D02*
X018390Y005333D01*
X018390Y005431D02*
X018528Y005431D01*
X018528Y004034D02*
X018390Y004034D01*
X018390Y004546D01*
X018528Y004546D01*
X018528Y004034D01*
X018528Y004132D02*
X018390Y004132D01*
X018390Y004230D02*
X018528Y004230D01*
X018528Y004328D02*
X018390Y004328D01*
X018390Y004426D02*
X018528Y004426D01*
X018528Y004524D02*
X018390Y004524D01*
X018135Y004034D02*
X017997Y004034D01*
X017997Y004546D01*
X018135Y004546D01*
X018135Y004034D01*
X018135Y004132D02*
X017997Y004132D01*
X017997Y004230D02*
X018135Y004230D01*
X018135Y004328D02*
X017997Y004328D01*
X017997Y004426D02*
X018135Y004426D01*
X018135Y004524D02*
X017997Y004524D01*
X017741Y004034D02*
X017603Y004034D01*
X017603Y004546D01*
X017741Y004546D01*
X017741Y004034D01*
X017741Y004132D02*
X017603Y004132D01*
X017603Y004230D02*
X017741Y004230D01*
X017741Y004328D02*
X017603Y004328D01*
X017603Y004426D02*
X017741Y004426D01*
X017741Y004524D02*
X017603Y004524D01*
X017347Y004034D02*
X017209Y004034D01*
X017209Y004546D01*
X017347Y004546D01*
X017347Y004034D01*
X017347Y004132D02*
X017209Y004132D01*
X017209Y004230D02*
X017347Y004230D01*
X017347Y004328D02*
X017209Y004328D01*
X017209Y004426D02*
X017347Y004426D01*
X017347Y004524D02*
X017209Y004524D01*
X016953Y002459D02*
X016579Y002459D01*
X016579Y003069D01*
X016953Y003069D01*
X016953Y002459D01*
X016953Y002557D02*
X016579Y002557D01*
X016579Y002655D02*
X016953Y002655D01*
X016953Y002753D02*
X016579Y002753D01*
X016579Y002851D02*
X016953Y002851D01*
X016953Y002949D02*
X016579Y002949D01*
X016579Y003047D02*
X016953Y003047D01*
X018784Y002459D02*
X019158Y002459D01*
X018784Y002459D02*
X018784Y003069D01*
X019158Y003069D01*
X019158Y002459D01*
X019158Y002557D02*
X018784Y002557D01*
X018784Y002655D02*
X019158Y002655D01*
X019158Y002753D02*
X018784Y002753D01*
X018784Y002851D02*
X019158Y002851D01*
X019158Y002949D02*
X018784Y002949D01*
X018784Y003047D02*
X019158Y003047D01*
X019158Y007028D02*
X018784Y007028D01*
X019158Y007028D02*
X019158Y006418D01*
X018784Y006418D01*
X018784Y007028D01*
X018784Y006516D02*
X019158Y006516D01*
X019158Y006614D02*
X018784Y006614D01*
X018784Y006712D02*
X019158Y006712D01*
X019158Y006810D02*
X018784Y006810D01*
X018784Y006908D02*
X019158Y006908D01*
X019158Y007006D02*
X018784Y007006D01*
X013336Y016935D02*
X013158Y016935D01*
X013336Y016935D02*
X013336Y016365D01*
X013158Y016365D01*
X013158Y016935D01*
X013158Y016463D02*
X013336Y016463D01*
X013336Y016561D02*
X013158Y016561D01*
X013158Y016659D02*
X013336Y016659D01*
X013336Y016757D02*
X013158Y016757D01*
X013158Y016855D02*
X013336Y016855D01*
X012864Y016935D02*
X012686Y016935D01*
X012864Y016935D02*
X012864Y016365D01*
X012686Y016365D01*
X012686Y016935D01*
X012686Y016463D02*
X012864Y016463D01*
X012864Y016561D02*
X012686Y016561D01*
X012686Y016659D02*
X012864Y016659D01*
X012864Y016757D02*
X012686Y016757D01*
X012686Y016855D02*
X012864Y016855D01*
X012392Y016935D02*
X012214Y016935D01*
X012392Y016935D02*
X012392Y016365D01*
X012214Y016365D01*
X012214Y016935D01*
X012214Y016463D02*
X012392Y016463D01*
X012392Y016561D02*
X012214Y016561D01*
X012214Y016659D02*
X012392Y016659D01*
X012392Y016757D02*
X012214Y016757D01*
X012214Y016855D02*
X012392Y016855D01*
X005118Y007904D02*
X004940Y007904D01*
X005118Y007904D02*
X005118Y007334D01*
X004940Y007334D01*
X004940Y007904D01*
X004940Y007432D02*
X005118Y007432D01*
X005118Y007530D02*
X004940Y007530D01*
X004940Y007628D02*
X005118Y007628D01*
X005118Y007726D02*
X004940Y007726D01*
X004940Y007824D02*
X005118Y007824D01*
X004645Y007904D02*
X004467Y007904D01*
X004645Y007904D02*
X004645Y007334D01*
X004467Y007334D01*
X004467Y007904D01*
X004467Y007432D02*
X004645Y007432D01*
X004645Y007530D02*
X004467Y007530D01*
X004467Y007628D02*
X004645Y007628D01*
X004645Y007726D02*
X004467Y007726D01*
X004467Y007824D02*
X004645Y007824D01*
X004173Y007904D02*
X003995Y007904D01*
X004173Y007904D02*
X004173Y007334D01*
X003995Y007334D01*
X003995Y007904D01*
X003995Y007432D02*
X004173Y007432D01*
X004173Y007530D02*
X003995Y007530D01*
X003995Y007628D02*
X004173Y007628D01*
X004173Y007726D02*
X003995Y007726D01*
X003995Y007824D02*
X004173Y007824D01*
X004278Y003003D02*
X004416Y003003D01*
X004278Y003003D02*
X004278Y003515D01*
X004416Y003515D01*
X004416Y003003D01*
X004416Y003101D02*
X004278Y003101D01*
X004278Y003199D02*
X004416Y003199D01*
X004416Y003297D02*
X004278Y003297D01*
X004278Y003395D02*
X004416Y003395D01*
X004416Y003493D02*
X004278Y003493D01*
X004022Y003003D02*
X003884Y003003D01*
X003884Y003515D01*
X004022Y003515D01*
X004022Y003003D01*
X004022Y003101D02*
X003884Y003101D01*
X003884Y003199D02*
X004022Y003199D01*
X004022Y003297D02*
X003884Y003297D01*
X003884Y003395D02*
X004022Y003395D01*
X004022Y003493D02*
X003884Y003493D01*
X003628Y003003D02*
X003490Y003003D01*
X003490Y003515D01*
X003628Y003515D01*
X003628Y003003D01*
X003628Y003101D02*
X003490Y003101D01*
X003490Y003199D02*
X003628Y003199D01*
X003628Y003297D02*
X003490Y003297D01*
X003490Y003395D02*
X003628Y003395D01*
X003628Y003493D02*
X003490Y003493D01*
X004672Y003003D02*
X004810Y003003D01*
X004672Y003003D02*
X004672Y003515D01*
X004810Y003515D01*
X004810Y003003D01*
X004810Y003101D02*
X004672Y003101D01*
X004672Y003199D02*
X004810Y003199D01*
X004810Y003297D02*
X004672Y003297D01*
X004672Y003395D02*
X004810Y003395D01*
X004810Y003493D02*
X004672Y003493D01*
X005065Y001428D02*
X005439Y001428D01*
X005065Y001428D02*
X005065Y002038D01*
X005439Y002038D01*
X005439Y001428D01*
X005439Y001526D02*
X005065Y001526D01*
X005065Y001624D02*
X005439Y001624D01*
X005439Y001722D02*
X005065Y001722D01*
X005065Y001820D02*
X005439Y001820D01*
X005439Y001918D02*
X005065Y001918D01*
X005065Y002016D02*
X005439Y002016D01*
X003235Y001428D02*
X002861Y001428D01*
X002861Y002038D01*
X003235Y002038D01*
X003235Y001428D01*
X003235Y001526D02*
X002861Y001526D01*
X002861Y001624D02*
X003235Y001624D01*
X003235Y001722D02*
X002861Y001722D01*
X002861Y001820D02*
X003235Y001820D01*
X003235Y001918D02*
X002861Y001918D01*
X002861Y002016D02*
X003235Y002016D01*
D13*
X002506Y002385D02*
X001976Y002385D01*
X002506Y002385D02*
X002506Y001541D01*
X001976Y001541D01*
X001976Y002385D01*
X001976Y001641D02*
X002506Y001641D01*
X002506Y001741D02*
X001976Y001741D01*
X001976Y001841D02*
X002506Y001841D01*
X002506Y001941D02*
X001976Y001941D01*
X001976Y002041D02*
X002506Y002041D01*
X002506Y002141D02*
X001976Y002141D01*
X001976Y002241D02*
X002506Y002241D01*
X002506Y002341D02*
X001976Y002341D01*
X001324Y001541D02*
X000794Y001541D01*
X000794Y002385D01*
X001324Y002385D01*
X001324Y001541D01*
X001324Y001641D02*
X000794Y001641D01*
X000794Y001741D02*
X001324Y001741D01*
X001324Y001841D02*
X000794Y001841D01*
X000794Y001941D02*
X001324Y001941D01*
X001324Y002041D02*
X000794Y002041D01*
X000794Y002141D02*
X001324Y002141D01*
X001324Y002241D02*
X000794Y002241D01*
X000794Y002341D02*
X001324Y002341D01*
X001615Y007199D02*
X001615Y007413D01*
X001615Y007199D02*
X001401Y007199D01*
X001401Y007413D01*
X001615Y007413D01*
X001615Y007299D02*
X001401Y007299D01*
X001401Y007399D02*
X001615Y007399D01*
X001615Y007699D02*
X001615Y007913D01*
X001615Y007699D02*
X001401Y007699D01*
X001401Y007913D01*
X001615Y007913D01*
X001615Y007799D02*
X001401Y007799D01*
X001401Y007899D02*
X001615Y007899D01*
X001024Y007913D02*
X001024Y007699D01*
X000810Y007699D01*
X000810Y007913D01*
X001024Y007913D01*
X001024Y007799D02*
X000810Y007799D01*
X000810Y007899D02*
X001024Y007899D01*
X001024Y007413D02*
X001024Y007199D01*
X000810Y007199D01*
X000810Y007413D01*
X001024Y007413D01*
X001024Y007299D02*
X000810Y007299D01*
X000810Y007399D02*
X001024Y007399D01*
X008169Y012666D02*
X008699Y012666D01*
X008169Y012666D02*
X008169Y013510D01*
X008699Y013510D01*
X008699Y012666D01*
X008699Y012766D02*
X008169Y012766D01*
X008169Y012866D02*
X008699Y012866D01*
X008699Y012966D02*
X008169Y012966D01*
X008169Y013066D02*
X008699Y013066D01*
X008699Y013166D02*
X008169Y013166D01*
X008169Y013266D02*
X008699Y013266D01*
X008699Y013366D02*
X008169Y013366D01*
X008169Y013466D02*
X008699Y013466D01*
X009351Y013510D02*
X009881Y013510D01*
X009881Y012666D01*
X009351Y012666D01*
X009351Y013510D01*
X009351Y012766D02*
X009881Y012766D01*
X009881Y012866D02*
X009351Y012866D01*
X009351Y012966D02*
X009881Y012966D01*
X009881Y013066D02*
X009351Y013066D01*
X009351Y013166D02*
X009881Y013166D01*
X009881Y013266D02*
X009351Y013266D01*
X009351Y013366D02*
X009881Y013366D01*
X009881Y013466D02*
X009351Y013466D01*
X008838Y016856D02*
X008838Y017070D01*
X009052Y017070D01*
X009052Y016856D01*
X008838Y016856D01*
X008838Y016956D02*
X009052Y016956D01*
X009052Y017056D02*
X008838Y017056D01*
X009052Y017418D02*
X009052Y017632D01*
X009052Y017418D02*
X008838Y017418D01*
X008838Y017632D01*
X009052Y017632D01*
X009052Y017518D02*
X008838Y017518D01*
X008838Y017618D02*
X009052Y017618D01*
X008462Y017632D02*
X008462Y017418D01*
X008248Y017418D01*
X008248Y017632D01*
X008462Y017632D01*
X008462Y017518D02*
X008248Y017518D01*
X008248Y017618D02*
X008462Y017618D01*
X008248Y017070D02*
X008248Y016856D01*
X008248Y017070D02*
X008462Y017070D01*
X008462Y016856D01*
X008248Y016856D01*
X008248Y016956D02*
X008462Y016956D01*
X008462Y017056D02*
X008248Y017056D01*
X009430Y007945D02*
X009430Y007731D01*
X009216Y007731D01*
X009216Y007945D01*
X009430Y007945D01*
X009430Y007831D02*
X009216Y007831D01*
X009216Y007931D02*
X009430Y007931D01*
X010021Y007945D02*
X010021Y007731D01*
X009807Y007731D01*
X009807Y007945D01*
X010021Y007945D01*
X010021Y007831D02*
X009807Y007831D01*
X009807Y007931D02*
X010021Y007931D01*
X009882Y001552D02*
X009668Y001552D01*
X009882Y001552D02*
X009882Y001338D01*
X009668Y001338D01*
X009668Y001552D01*
X009668Y001438D02*
X009882Y001438D01*
X009882Y001538D02*
X009668Y001538D01*
X009668Y000962D02*
X009882Y000962D01*
X009882Y000748D01*
X009668Y000748D01*
X009668Y000962D01*
X009668Y000848D02*
X009882Y000848D01*
X009882Y000948D02*
X009668Y000948D01*
D14*
X011331Y003173D02*
X011331Y003469D01*
X011528Y003469D02*
X011528Y003173D01*
X011725Y003173D02*
X011725Y003469D01*
X011922Y003469D02*
X011922Y003173D01*
X012119Y003173D02*
X012119Y003469D01*
X012316Y003469D02*
X012316Y003173D01*
X012512Y003173D02*
X012512Y003469D01*
X012709Y003469D02*
X012709Y003173D01*
X012906Y003173D02*
X012906Y003469D01*
X013112Y003872D02*
X013408Y003872D01*
X013408Y004069D02*
X013112Y004069D01*
X013112Y004266D02*
X013408Y004266D01*
X013408Y004463D02*
X013112Y004463D01*
X013112Y004659D02*
X013408Y004659D01*
X013408Y004856D02*
X013112Y004856D01*
X013112Y005053D02*
X013408Y005053D01*
X013408Y005250D02*
X013112Y005250D01*
X012906Y005456D02*
X012906Y005752D01*
X012709Y005752D02*
X012709Y005456D01*
X012512Y005456D02*
X012512Y005752D01*
X012316Y005752D02*
X012316Y005456D01*
X012119Y005456D02*
X012119Y005752D01*
X011922Y005752D02*
X011922Y005456D01*
X011725Y005456D02*
X011725Y005752D01*
X011528Y005752D02*
X011528Y005456D01*
X011331Y005456D02*
X011331Y005752D01*
X011125Y005250D02*
X010829Y005250D01*
X010829Y005053D02*
X011125Y005053D01*
X011125Y004856D02*
X010829Y004856D01*
X010829Y004659D02*
X011125Y004659D01*
X011125Y004463D02*
X010829Y004463D01*
X010829Y004266D02*
X011125Y004266D01*
X011125Y004069D02*
X010829Y004069D01*
X010829Y003872D02*
X011125Y003872D01*
X011125Y003675D02*
X010829Y003675D01*
X006139Y006917D02*
X006139Y007213D01*
X006473Y007213D01*
X006473Y006917D01*
X006139Y006917D01*
X006139Y007014D02*
X006473Y007014D01*
X006473Y007111D02*
X006139Y007111D01*
X006139Y007208D02*
X006473Y007208D01*
X006139Y007587D02*
X006139Y007883D01*
X006473Y007883D01*
X006473Y007587D01*
X006139Y007587D01*
X006139Y007684D02*
X006473Y007684D01*
X006473Y007781D02*
X006139Y007781D01*
X006139Y007878D02*
X006473Y007878D01*
X005848Y007883D02*
X005514Y007883D01*
X005848Y007883D02*
X005848Y007587D01*
X005514Y007587D01*
X005514Y007883D01*
X005514Y007684D02*
X005848Y007684D01*
X005848Y007781D02*
X005514Y007781D01*
X005514Y007878D02*
X005848Y007878D01*
X005848Y007213D02*
X005514Y007213D01*
X005848Y007213D02*
X005848Y006917D01*
X005514Y006917D01*
X005514Y007213D01*
X005514Y007014D02*
X005848Y007014D01*
X005848Y007111D02*
X005514Y007111D01*
X005514Y007208D02*
X005848Y007208D01*
X005440Y006312D02*
X005144Y006312D01*
X005144Y006116D02*
X005440Y006116D01*
X005440Y005919D02*
X005144Y005919D01*
X005144Y005722D02*
X005440Y005722D01*
X005440Y005525D02*
X005144Y005525D01*
X005144Y005328D02*
X005440Y005328D01*
X005440Y005131D02*
X005144Y005131D01*
X005144Y004934D02*
X005440Y004934D01*
X004937Y004531D02*
X004937Y004235D01*
X004741Y004235D02*
X004741Y004531D01*
X004544Y004531D02*
X004544Y004235D01*
X004347Y004235D02*
X004347Y004531D01*
X004150Y004531D02*
X004150Y004235D01*
X003953Y004235D02*
X003953Y004531D01*
X003756Y004531D02*
X003756Y004235D01*
X003559Y004235D02*
X003559Y004531D01*
X003363Y004531D02*
X003363Y004235D01*
X003156Y004738D02*
X002860Y004738D01*
X002860Y004934D02*
X003156Y004934D01*
X003156Y005131D02*
X002860Y005131D01*
X002860Y005328D02*
X003156Y005328D01*
X003156Y005525D02*
X002860Y005525D01*
X002860Y005722D02*
X003156Y005722D01*
X003156Y005919D02*
X002860Y005919D01*
X002860Y006116D02*
X003156Y006116D01*
X003156Y006312D02*
X002860Y006312D01*
X003363Y006519D02*
X003363Y006815D01*
X003559Y006815D02*
X003559Y006519D01*
X003756Y006519D02*
X003756Y006815D01*
X003953Y006815D02*
X003953Y006519D01*
X004150Y006519D02*
X004150Y006815D01*
X004347Y006815D02*
X004347Y006519D01*
X004544Y006519D02*
X004544Y006815D01*
X004741Y006815D02*
X004741Y006519D01*
X004937Y006519D02*
X004937Y006815D01*
X003274Y007546D02*
X003274Y007880D01*
X003570Y007880D01*
X003570Y007546D01*
X003274Y007546D01*
X003274Y007643D02*
X003570Y007643D01*
X003570Y007740D02*
X003274Y007740D01*
X003274Y007837D02*
X003570Y007837D01*
X002605Y007880D02*
X002605Y007546D01*
X002605Y007880D02*
X002901Y007880D01*
X002901Y007546D01*
X002605Y007546D01*
X002605Y007643D02*
X002901Y007643D01*
X002901Y007740D02*
X002605Y007740D01*
X002605Y007837D02*
X002901Y007837D01*
X002286Y007914D02*
X002286Y007618D01*
X001952Y007618D01*
X001952Y007914D01*
X002286Y007914D01*
X002286Y007715D02*
X001952Y007715D01*
X001952Y007812D02*
X002286Y007812D01*
X002286Y007909D02*
X001952Y007909D01*
X002286Y007245D02*
X002286Y006949D01*
X001952Y006949D01*
X001952Y007245D01*
X002286Y007245D01*
X002286Y007046D02*
X001952Y007046D01*
X001952Y007143D02*
X002286Y007143D01*
X002286Y007240D02*
X001952Y007240D01*
X001692Y006820D02*
X001358Y006820D01*
X001692Y006820D02*
X001692Y006524D01*
X001358Y006524D01*
X001358Y006820D01*
X001358Y006621D02*
X001692Y006621D01*
X001692Y006718D02*
X001358Y006718D01*
X001358Y006815D02*
X001692Y006815D01*
X001067Y006820D02*
X001067Y006524D01*
X000733Y006524D01*
X000733Y006820D01*
X001067Y006820D01*
X001067Y006621D02*
X000733Y006621D01*
X000733Y006718D02*
X001067Y006718D01*
X001067Y006815D02*
X000733Y006815D01*
X001067Y006151D02*
X001067Y005855D01*
X000733Y005855D01*
X000733Y006151D01*
X001067Y006151D01*
X001067Y005952D02*
X000733Y005952D01*
X000733Y006049D02*
X001067Y006049D01*
X001067Y006146D02*
X000733Y006146D01*
X001358Y006151D02*
X001692Y006151D01*
X001692Y005855D01*
X001358Y005855D01*
X001358Y006151D01*
X001358Y005952D02*
X001692Y005952D01*
X001692Y006049D02*
X001358Y006049D01*
X001358Y006146D02*
X001692Y006146D01*
X001671Y003524D02*
X002005Y003524D01*
X001671Y003524D02*
X001671Y003820D01*
X002005Y003820D01*
X002005Y003524D01*
X002005Y003621D02*
X001671Y003621D01*
X001671Y003718D02*
X002005Y003718D01*
X002005Y003815D02*
X001671Y003815D01*
X001067Y003524D02*
X000733Y003524D01*
X000733Y003820D01*
X001067Y003820D01*
X001067Y003524D01*
X001067Y003621D02*
X000733Y003621D01*
X000733Y003718D02*
X001067Y003718D01*
X001067Y003815D02*
X000733Y003815D01*
X000733Y002855D02*
X001067Y002855D01*
X000733Y002855D02*
X000733Y003151D01*
X001067Y003151D01*
X001067Y002855D01*
X001067Y002952D02*
X000733Y002952D01*
X000733Y003049D02*
X001067Y003049D01*
X001067Y003146D02*
X000733Y003146D01*
X001671Y002855D02*
X002005Y002855D01*
X001671Y002855D02*
X001671Y003151D01*
X002005Y003151D01*
X002005Y002855D01*
X002005Y002952D02*
X001671Y002952D01*
X001671Y003049D02*
X002005Y003049D01*
X002005Y003146D02*
X001671Y003146D01*
X002630Y003151D02*
X002630Y002855D01*
X002296Y002855D01*
X002296Y003151D01*
X002630Y003151D01*
X002630Y002952D02*
X002296Y002952D01*
X002296Y003049D02*
X002630Y003049D01*
X002630Y003146D02*
X002296Y003146D01*
X002630Y003524D02*
X002630Y003820D01*
X002630Y003524D02*
X002296Y003524D01*
X002296Y003820D01*
X002630Y003820D01*
X002630Y003621D02*
X002296Y003621D01*
X002296Y003718D02*
X002630Y003718D01*
X002630Y003815D02*
X002296Y003815D01*
X005608Y003524D02*
X005942Y003524D01*
X005608Y003524D02*
X005608Y003820D01*
X005942Y003820D01*
X005942Y003524D01*
X005942Y003621D02*
X005608Y003621D01*
X005608Y003718D02*
X005942Y003718D01*
X005942Y003815D02*
X005608Y003815D01*
X005608Y002855D02*
X005942Y002855D01*
X005608Y002855D02*
X005608Y003151D01*
X005942Y003151D01*
X005942Y002855D01*
X005942Y002952D02*
X005608Y002952D01*
X005608Y003049D02*
X005942Y003049D01*
X005942Y003146D02*
X005608Y003146D01*
X008917Y011921D02*
X008917Y012255D01*
X009213Y012255D01*
X009213Y011921D01*
X008917Y011921D01*
X008917Y012018D02*
X009213Y012018D01*
X009213Y012115D02*
X008917Y012115D01*
X008917Y012212D02*
X009213Y012212D01*
X009587Y012255D02*
X009587Y011921D01*
X009587Y012255D02*
X009883Y012255D01*
X009883Y011921D01*
X009587Y011921D01*
X009587Y012018D02*
X009883Y012018D01*
X009883Y012115D02*
X009587Y012115D01*
X009587Y012212D02*
X009883Y012212D01*
X010863Y013235D02*
X010863Y013531D01*
X011059Y013531D02*
X011059Y013235D01*
X011256Y013235D02*
X011256Y013531D01*
X011453Y013531D02*
X011453Y013235D01*
X011650Y013235D02*
X011650Y013531D01*
X011847Y013531D02*
X011847Y013235D01*
X012044Y013235D02*
X012044Y013531D01*
X012241Y013531D02*
X012241Y013235D01*
X012437Y013235D02*
X012437Y013531D01*
X012644Y013934D02*
X012940Y013934D01*
X012940Y014131D02*
X012644Y014131D01*
X012644Y014328D02*
X012940Y014328D01*
X012940Y014525D02*
X012644Y014525D01*
X012644Y014722D02*
X012940Y014722D01*
X012940Y014919D02*
X012644Y014919D01*
X012644Y015116D02*
X012940Y015116D01*
X012940Y015312D02*
X012644Y015312D01*
X012437Y015519D02*
X012437Y015815D01*
X012241Y015815D02*
X012241Y015519D01*
X012044Y015519D02*
X012044Y015815D01*
X011847Y015815D02*
X011847Y015519D01*
X011650Y015519D02*
X011650Y015815D01*
X011453Y015815D02*
X011453Y015519D01*
X011256Y015519D02*
X011256Y015815D01*
X011059Y015815D02*
X011059Y015519D01*
X010863Y015519D02*
X010863Y015815D01*
X010656Y015312D02*
X010360Y015312D01*
X010360Y015116D02*
X010656Y015116D01*
X010656Y014919D02*
X010360Y014919D01*
X010360Y014722D02*
X010656Y014722D01*
X010656Y014525D02*
X010360Y014525D01*
X010360Y014328D02*
X010656Y014328D01*
X010656Y014131D02*
X010360Y014131D01*
X010360Y013934D02*
X010656Y013934D01*
X010656Y013738D02*
X010360Y013738D01*
X008837Y015483D02*
X008837Y015817D01*
X009133Y015817D01*
X009133Y015483D01*
X008837Y015483D01*
X008837Y015580D02*
X009133Y015580D01*
X009133Y015677D02*
X008837Y015677D01*
X008837Y015774D02*
X009133Y015774D01*
X009133Y016442D02*
X008837Y016442D01*
X009133Y016442D02*
X009133Y016108D01*
X008837Y016108D01*
X008837Y016442D01*
X008837Y016205D02*
X009133Y016205D01*
X009133Y016302D02*
X008837Y016302D01*
X008837Y016399D02*
X009133Y016399D01*
X009901Y016546D02*
X009901Y016880D01*
X009901Y016546D02*
X009605Y016546D01*
X009605Y016880D01*
X009901Y016880D01*
X009901Y016643D02*
X009605Y016643D01*
X009605Y016740D02*
X009901Y016740D01*
X009901Y016837D02*
X009605Y016837D01*
X009605Y017505D02*
X009901Y017505D01*
X009901Y017171D01*
X009605Y017171D01*
X009605Y017505D01*
X009605Y017268D02*
X009901Y017268D01*
X009901Y017365D02*
X009605Y017365D01*
X009605Y017462D02*
X009901Y017462D01*
X010274Y017505D02*
X010570Y017505D01*
X010570Y017171D01*
X010274Y017171D01*
X010274Y017505D01*
X010274Y017268D02*
X010570Y017268D01*
X010570Y017365D02*
X010274Y017365D01*
X010274Y017462D02*
X010570Y017462D01*
X010570Y016880D02*
X010570Y016546D01*
X010274Y016546D01*
X010274Y016880D01*
X010570Y016880D01*
X010570Y016643D02*
X010274Y016643D01*
X010274Y016740D02*
X010570Y016740D01*
X010570Y016837D02*
X010274Y016837D01*
X010855Y016880D02*
X010855Y016546D01*
X010855Y016880D02*
X011151Y016880D01*
X011151Y016546D01*
X010855Y016546D01*
X010855Y016643D02*
X011151Y016643D01*
X011151Y016740D02*
X010855Y016740D01*
X010855Y016837D02*
X011151Y016837D01*
X011524Y016880D02*
X011524Y016546D01*
X011524Y016880D02*
X011820Y016880D01*
X011820Y016546D01*
X011524Y016546D01*
X011524Y016643D02*
X011820Y016643D01*
X011820Y016740D02*
X011524Y016740D01*
X011524Y016837D02*
X011820Y016837D01*
X013776Y017421D02*
X013776Y017755D01*
X013776Y017421D02*
X013480Y017421D01*
X013480Y017755D01*
X013776Y017755D01*
X013776Y017518D02*
X013480Y017518D01*
X013480Y017615D02*
X013776Y017615D01*
X013776Y017712D02*
X013480Y017712D01*
X013776Y018046D02*
X013776Y018380D01*
X013776Y018046D02*
X013480Y018046D01*
X013480Y018380D01*
X013776Y018380D01*
X013776Y018143D02*
X013480Y018143D01*
X013480Y018240D02*
X013776Y018240D01*
X013776Y018337D02*
X013480Y018337D01*
X013776Y018671D02*
X013776Y019005D01*
X013776Y018671D02*
X013480Y018671D01*
X013480Y019005D01*
X013776Y019005D01*
X013776Y018768D02*
X013480Y018768D01*
X013480Y018865D02*
X013776Y018865D01*
X013776Y018962D02*
X013480Y018962D01*
X014445Y019005D02*
X014445Y018671D01*
X014149Y018671D01*
X014149Y019005D01*
X014445Y019005D01*
X014445Y018768D02*
X014149Y018768D01*
X014149Y018865D02*
X014445Y018865D01*
X014445Y018962D02*
X014149Y018962D01*
X014445Y018380D02*
X014445Y018046D01*
X014149Y018046D01*
X014149Y018380D01*
X014445Y018380D01*
X014445Y018143D02*
X014149Y018143D01*
X014149Y018240D02*
X014445Y018240D01*
X014445Y018337D02*
X014149Y018337D01*
X014445Y017755D02*
X014445Y017421D01*
X014149Y017421D01*
X014149Y017755D01*
X014445Y017755D01*
X014445Y017518D02*
X014149Y017518D01*
X014149Y017615D02*
X014445Y017615D01*
X014445Y017712D02*
X014149Y017712D01*
X014445Y016005D02*
X014445Y015671D01*
X014149Y015671D01*
X014149Y016005D01*
X014445Y016005D01*
X014445Y015768D02*
X014149Y015768D01*
X014149Y015865D02*
X014445Y015865D01*
X014445Y015962D02*
X014149Y015962D01*
X013776Y016005D02*
X013776Y015671D01*
X013480Y015671D01*
X013480Y016005D01*
X013776Y016005D01*
X013776Y015768D02*
X013480Y015768D01*
X013480Y015865D02*
X013776Y015865D01*
X013776Y015962D02*
X013480Y015962D01*
X013480Y014192D02*
X013776Y014192D01*
X013776Y013858D01*
X013480Y013858D01*
X013480Y014192D01*
X013480Y013955D02*
X013776Y013955D01*
X013776Y014052D02*
X013480Y014052D01*
X013480Y014149D02*
X013776Y014149D01*
X014149Y014192D02*
X014445Y014192D01*
X014445Y013858D01*
X014149Y013858D01*
X014149Y014192D01*
X014149Y013955D02*
X014445Y013955D01*
X014445Y014052D02*
X014149Y014052D01*
X014149Y014149D02*
X014445Y014149D01*
X014445Y013567D02*
X014445Y013233D01*
X014149Y013233D01*
X014149Y013567D01*
X014445Y013567D01*
X014445Y013330D02*
X014149Y013330D01*
X014149Y013427D02*
X014445Y013427D01*
X014445Y013524D02*
X014149Y013524D01*
X013776Y013567D02*
X013776Y013233D01*
X013480Y013233D01*
X013480Y013567D01*
X013776Y013567D01*
X013776Y013330D02*
X013480Y013330D01*
X013480Y013427D02*
X013776Y013427D01*
X013776Y013524D02*
X013480Y013524D01*
X008167Y015483D02*
X008167Y015817D01*
X008463Y015817D01*
X008463Y015483D01*
X008167Y015483D01*
X008167Y015580D02*
X008463Y015580D01*
X008463Y015677D02*
X008167Y015677D01*
X008167Y015774D02*
X008463Y015774D01*
X008463Y016442D02*
X008167Y016442D01*
X008463Y016442D02*
X008463Y016108D01*
X008167Y016108D01*
X008167Y016442D01*
X008167Y016205D02*
X008463Y016205D01*
X008463Y016302D02*
X008167Y016302D01*
X008167Y016399D02*
X008463Y016399D01*
X009605Y019005D02*
X009901Y019005D01*
X009901Y018671D01*
X009605Y018671D01*
X009605Y019005D01*
X009605Y018768D02*
X009901Y018768D01*
X009901Y018865D02*
X009605Y018865D01*
X009605Y018962D02*
X009901Y018962D01*
X010274Y019005D02*
X010570Y019005D01*
X010570Y018671D01*
X010274Y018671D01*
X010274Y019005D01*
X010274Y018768D02*
X010570Y018768D01*
X010570Y018865D02*
X010274Y018865D01*
X010274Y018962D02*
X010570Y018962D01*
D15*
X009163Y014957D02*
X009163Y014841D01*
X009163Y014957D02*
X009535Y014957D01*
X009535Y014841D01*
X009163Y014841D01*
X009163Y014940D02*
X009535Y014940D01*
X009163Y014209D02*
X009163Y014093D01*
X009163Y014209D02*
X009535Y014209D01*
X009535Y014093D01*
X009163Y014093D01*
X009163Y014192D02*
X009535Y014192D01*
X008140Y014209D02*
X008140Y014093D01*
X008140Y014209D02*
X008512Y014209D01*
X008512Y014093D01*
X008140Y014093D01*
X008140Y014192D02*
X008512Y014192D01*
X008140Y014467D02*
X008140Y014583D01*
X008512Y014583D01*
X008512Y014467D01*
X008140Y014467D01*
X008140Y014566D02*
X008512Y014566D01*
X008140Y014841D02*
X008140Y014957D01*
X008512Y014957D01*
X008512Y014841D01*
X008140Y014841D01*
X008140Y014940D02*
X008512Y014940D01*
X001770Y005163D02*
X001654Y005163D01*
X001654Y005535D01*
X001770Y005535D01*
X001770Y005163D01*
X001770Y005262D02*
X001654Y005262D01*
X001654Y005361D02*
X001770Y005361D01*
X001770Y005460D02*
X001654Y005460D01*
X001021Y005163D02*
X000905Y005163D01*
X000905Y005535D01*
X001021Y005535D01*
X001021Y005163D01*
X001021Y005262D02*
X000905Y005262D01*
X000905Y005361D02*
X001021Y005361D01*
X001021Y005460D02*
X000905Y005460D01*
X000905Y004140D02*
X001021Y004140D01*
X000905Y004140D02*
X000905Y004512D01*
X001021Y004512D01*
X001021Y004140D01*
X001021Y004239D02*
X000905Y004239D01*
X000905Y004338D02*
X001021Y004338D01*
X001021Y004437D02*
X000905Y004437D01*
X001280Y004140D02*
X001396Y004140D01*
X001280Y004140D02*
X001280Y004512D01*
X001396Y004512D01*
X001396Y004140D01*
X001396Y004239D02*
X001280Y004239D01*
X001280Y004338D02*
X001396Y004338D01*
X001396Y004437D02*
X001280Y004437D01*
X001654Y004140D02*
X001770Y004140D01*
X001654Y004140D02*
X001654Y004512D01*
X001770Y004512D01*
X001770Y004140D01*
X001770Y004239D02*
X001654Y004239D01*
X001654Y004338D02*
X001770Y004338D01*
X001770Y004437D02*
X001654Y004437D01*
X009280Y003913D02*
X009396Y003913D01*
X009280Y003913D02*
X009280Y004285D01*
X009396Y004285D01*
X009396Y003913D01*
X009396Y004012D02*
X009280Y004012D01*
X009280Y004111D02*
X009396Y004111D01*
X009396Y004210D02*
X009280Y004210D01*
X010029Y003913D02*
X010145Y003913D01*
X010029Y003913D02*
X010029Y004285D01*
X010145Y004285D01*
X010145Y003913D01*
X010145Y004012D02*
X010029Y004012D01*
X010029Y004111D02*
X010145Y004111D01*
X010145Y004210D02*
X010029Y004210D01*
X010029Y002890D02*
X010145Y002890D01*
X010029Y002890D02*
X010029Y003262D01*
X010145Y003262D01*
X010145Y002890D01*
X010145Y002989D02*
X010029Y002989D01*
X010029Y003088D02*
X010145Y003088D01*
X010145Y003187D02*
X010029Y003187D01*
X009771Y002890D02*
X009655Y002890D01*
X009655Y003262D01*
X009771Y003262D01*
X009771Y002890D01*
X009771Y002989D02*
X009655Y002989D01*
X009655Y003088D02*
X009771Y003088D01*
X009771Y003187D02*
X009655Y003187D01*
X009396Y002890D02*
X009280Y002890D01*
X009280Y003262D01*
X009396Y003262D01*
X009396Y002890D01*
X009396Y002989D02*
X009280Y002989D01*
X009280Y003088D02*
X009396Y003088D01*
X009396Y003187D02*
X009280Y003187D01*
D16*
X009331Y005813D02*
X009231Y005813D01*
X009231Y006113D01*
X009331Y006113D01*
X009331Y005813D01*
X009331Y005912D02*
X009231Y005912D01*
X009231Y006011D02*
X009331Y006011D01*
X009331Y006110D02*
X009231Y006110D01*
X009531Y005813D02*
X009631Y005813D01*
X009531Y005813D02*
X009531Y006113D01*
X009631Y006113D01*
X009631Y005813D01*
X009631Y005912D02*
X009531Y005912D01*
X009531Y006011D02*
X009631Y006011D01*
X009631Y006110D02*
X009531Y006110D01*
X006319Y006250D02*
X006219Y006250D01*
X006219Y006550D01*
X006319Y006550D01*
X006319Y006250D01*
X006319Y006349D02*
X006219Y006349D01*
X006219Y006448D02*
X006319Y006448D01*
X006319Y006547D02*
X006219Y006547D01*
X006019Y006250D02*
X005919Y006250D01*
X005919Y006550D01*
X006019Y006550D01*
X006019Y006250D01*
X006019Y006349D02*
X005919Y006349D01*
X005919Y006448D02*
X006019Y006448D01*
X006019Y006547D02*
X005919Y006547D01*
X001050Y005038D02*
X001050Y004938D01*
X000750Y004938D01*
X000750Y005038D01*
X001050Y005038D01*
X001050Y005037D02*
X000750Y005037D01*
X001050Y004738D02*
X001050Y004638D01*
X000750Y004638D01*
X000750Y004738D01*
X001050Y004738D01*
X001050Y004737D02*
X000750Y004737D01*
X009544Y015688D02*
X009644Y015688D01*
X009544Y015688D02*
X009544Y015988D01*
X009644Y015988D01*
X009644Y015688D01*
X009644Y015787D02*
X009544Y015787D01*
X009544Y015886D02*
X009644Y015886D01*
X009644Y015985D02*
X009544Y015985D01*
X009844Y015688D02*
X009944Y015688D01*
X009844Y015688D02*
X009844Y015988D01*
X009944Y015988D01*
X009944Y015688D01*
X009944Y015787D02*
X009844Y015787D01*
X009844Y015886D02*
X009944Y015886D01*
X009944Y015985D02*
X009844Y015985D01*
X013825Y014988D02*
X013925Y014988D01*
X013925Y014688D01*
X013825Y014688D01*
X013825Y014988D01*
X013825Y014787D02*
X013925Y014787D01*
X013925Y014886D02*
X013825Y014886D01*
X013825Y014985D02*
X013925Y014985D01*
X014125Y014988D02*
X014225Y014988D01*
X014225Y014688D01*
X014125Y014688D01*
X014125Y014988D01*
X014125Y014787D02*
X014225Y014787D01*
X014225Y014886D02*
X014125Y014886D01*
X014125Y014985D02*
X014225Y014985D01*
X014113Y004163D02*
X014113Y004063D01*
X013813Y004063D01*
X013813Y004163D01*
X014113Y004163D01*
X014113Y004162D02*
X013813Y004162D01*
X014113Y003863D02*
X014113Y003763D01*
X013813Y003763D01*
X013813Y003863D01*
X014113Y003863D01*
X014113Y003862D02*
X013813Y003862D01*
D17*
X013407Y003678D02*
X013113Y003678D01*
X013407Y003678D02*
X013407Y003672D01*
X013113Y003672D01*
X013113Y003678D01*
X005439Y004741D02*
X005145Y004741D01*
X005439Y004741D02*
X005439Y004735D01*
X005145Y004735D01*
X005145Y004741D01*
X012645Y013741D02*
X012939Y013741D01*
X012939Y013735D01*
X012645Y013735D01*
X012645Y013741D01*
D18*
X012419Y017407D02*
X012419Y017659D01*
X012419Y017659D01*
X012419Y017407D01*
X012419Y017407D01*
X012419Y017489D02*
X012419Y017489D01*
X012419Y017571D02*
X012419Y017571D01*
X012419Y017653D02*
X012419Y017653D01*
X012261Y017679D02*
X012261Y017407D01*
X012261Y017679D02*
X012261Y017679D01*
X012261Y017407D01*
X012261Y017407D01*
X012261Y017489D02*
X012261Y017489D01*
X012261Y017571D02*
X012261Y017571D01*
X012261Y017653D02*
X012261Y017653D01*
X011946Y017679D02*
X011946Y017407D01*
X011946Y017679D02*
X011946Y017679D01*
X011946Y017407D01*
X011946Y017407D01*
X011946Y017489D02*
X011946Y017489D01*
X011946Y017571D02*
X011946Y017571D01*
X011946Y017653D02*
X011946Y017653D01*
X011789Y017679D02*
X011789Y017407D01*
X011789Y017679D02*
X011789Y017679D01*
X011789Y017407D01*
X011789Y017407D01*
X011789Y017489D02*
X011789Y017489D01*
X011789Y017571D02*
X011789Y017571D01*
X011789Y017653D02*
X011789Y017653D01*
X011631Y017659D02*
X011631Y017407D01*
X011631Y017659D02*
X011631Y017659D01*
X011631Y017407D01*
X011631Y017407D01*
X011631Y017489D02*
X011631Y017489D01*
X011631Y017571D02*
X011631Y017571D01*
X011631Y017653D02*
X011631Y017653D01*
X011472Y017819D02*
X011220Y017819D01*
X011220Y017819D01*
X011472Y017819D01*
X011472Y017819D01*
X011492Y017976D02*
X011220Y017976D01*
X011220Y017976D01*
X011492Y017976D01*
X011492Y017976D01*
X011492Y018134D02*
X011220Y018134D01*
X011220Y018134D01*
X011492Y018134D01*
X011492Y018134D01*
X011492Y018291D02*
X011220Y018291D01*
X011220Y018291D01*
X011492Y018291D01*
X011492Y018291D01*
X011492Y018449D02*
X011220Y018449D01*
X011220Y018449D01*
X011492Y018449D01*
X011492Y018449D01*
X011472Y018606D02*
X011220Y018606D01*
X011220Y018606D01*
X011472Y018606D01*
X011472Y018606D01*
X011631Y018766D02*
X011631Y019018D01*
X011631Y018766D02*
X011631Y018766D01*
X011631Y019018D01*
X011631Y019018D01*
X011631Y018848D02*
X011631Y018848D01*
X011631Y018930D02*
X011631Y018930D01*
X011631Y019012D02*
X011631Y019012D01*
X011789Y019018D02*
X011789Y018746D01*
X011789Y018746D01*
X011789Y019018D01*
X011789Y019018D01*
X011789Y018828D02*
X011789Y018828D01*
X011789Y018910D02*
X011789Y018910D01*
X011789Y018992D02*
X011789Y018992D01*
X011946Y019018D02*
X011946Y018746D01*
X011946Y018746D01*
X011946Y019018D01*
X011946Y019018D01*
X011946Y018828D02*
X011946Y018828D01*
X011946Y018910D02*
X011946Y018910D01*
X011946Y018992D02*
X011946Y018992D01*
X012104Y019018D02*
X012104Y018746D01*
X012104Y018746D01*
X012104Y019018D01*
X012104Y019018D01*
X012104Y018828D02*
X012104Y018828D01*
X012104Y018910D02*
X012104Y018910D01*
X012104Y018992D02*
X012104Y018992D01*
X012261Y019018D02*
X012261Y018746D01*
X012261Y018746D01*
X012261Y019018D01*
X012261Y019018D01*
X012261Y018828D02*
X012261Y018828D01*
X012261Y018910D02*
X012261Y018910D01*
X012261Y018992D02*
X012261Y018992D01*
X012419Y019018D02*
X012419Y018766D01*
X012419Y018766D01*
X012419Y019018D01*
X012419Y019018D01*
X012419Y018848D02*
X012419Y018848D01*
X012419Y018930D02*
X012419Y018930D01*
X012419Y019012D02*
X012419Y019012D01*
X012578Y018606D02*
X012830Y018606D01*
X012830Y018606D01*
X012578Y018606D01*
X012578Y018606D01*
X012558Y018449D02*
X012830Y018449D01*
X012830Y018449D01*
X012558Y018449D01*
X012558Y018449D01*
X012558Y018291D02*
X012830Y018291D01*
X012830Y018291D01*
X012558Y018291D01*
X012558Y018291D01*
X012558Y018134D02*
X012830Y018134D01*
X012830Y018134D01*
X012558Y018134D01*
X012558Y018134D01*
X012558Y017976D02*
X012830Y017976D01*
X012830Y017976D01*
X012558Y017976D01*
X012558Y017976D01*
X012578Y017819D02*
X012830Y017819D01*
X012830Y017819D01*
X012578Y017819D01*
X012578Y017819D01*
X011387Y007924D02*
X011387Y007672D01*
X011387Y007672D01*
X011387Y007924D01*
X011387Y007924D01*
X011387Y007754D02*
X011387Y007754D01*
X011387Y007836D02*
X011387Y007836D01*
X011387Y007918D02*
X011387Y007918D01*
X011230Y007924D02*
X011230Y007652D01*
X011230Y007652D01*
X011230Y007924D01*
X011230Y007924D01*
X011230Y007734D02*
X011230Y007734D01*
X011230Y007816D02*
X011230Y007816D01*
X011230Y007898D02*
X011230Y007898D01*
X011072Y007924D02*
X011072Y007652D01*
X011072Y007652D01*
X011072Y007924D01*
X011072Y007924D01*
X011072Y007734D02*
X011072Y007734D01*
X011072Y007816D02*
X011072Y007816D01*
X011072Y007898D02*
X011072Y007898D01*
X010915Y007924D02*
X010915Y007652D01*
X010915Y007652D01*
X010915Y007924D01*
X010915Y007924D01*
X010915Y007734D02*
X010915Y007734D01*
X010915Y007816D02*
X010915Y007816D01*
X010915Y007898D02*
X010915Y007898D01*
X010758Y007924D02*
X010758Y007652D01*
X010758Y007652D01*
X010758Y007924D01*
X010758Y007924D01*
X010758Y007734D02*
X010758Y007734D01*
X010758Y007816D02*
X010758Y007816D01*
X010758Y007898D02*
X010758Y007898D01*
X010600Y007924D02*
X010600Y007672D01*
X010600Y007672D01*
X010600Y007924D01*
X010600Y007924D01*
X010600Y007754D02*
X010600Y007754D01*
X010600Y007836D02*
X010600Y007836D01*
X010600Y007918D02*
X010600Y007918D01*
X010441Y007512D02*
X010189Y007512D01*
X010189Y007512D01*
X010441Y007512D01*
X010441Y007512D01*
X010460Y007355D02*
X010188Y007355D01*
X010188Y007355D01*
X010460Y007355D01*
X010460Y007355D01*
X010460Y007197D02*
X010188Y007197D01*
X010188Y007197D01*
X010460Y007197D01*
X010460Y007197D01*
X010460Y007040D02*
X010188Y007040D01*
X010188Y007040D01*
X010460Y007040D01*
X010460Y007040D01*
X010460Y006883D02*
X010188Y006883D01*
X010188Y006883D01*
X010460Y006883D01*
X010460Y006883D01*
X010441Y006725D02*
X010189Y006725D01*
X010189Y006725D01*
X010441Y006725D01*
X010441Y006725D01*
X010600Y006566D02*
X010600Y006314D01*
X010600Y006566D02*
X010600Y006566D01*
X010600Y006314D01*
X010600Y006314D01*
X010600Y006396D02*
X010600Y006396D01*
X010600Y006478D02*
X010600Y006478D01*
X010600Y006560D02*
X010600Y006560D01*
X010758Y006585D02*
X010758Y006313D01*
X010758Y006585D02*
X010758Y006585D01*
X010758Y006313D01*
X010758Y006313D01*
X010758Y006395D02*
X010758Y006395D01*
X010758Y006477D02*
X010758Y006477D01*
X010758Y006559D02*
X010758Y006559D01*
X010915Y006585D02*
X010915Y006313D01*
X010915Y006585D02*
X010915Y006585D01*
X010915Y006313D01*
X010915Y006313D01*
X010915Y006395D02*
X010915Y006395D01*
X010915Y006477D02*
X010915Y006477D01*
X010915Y006559D02*
X010915Y006559D01*
X011230Y006585D02*
X011230Y006313D01*
X011230Y006585D02*
X011230Y006585D01*
X011230Y006313D01*
X011230Y006313D01*
X011230Y006395D02*
X011230Y006395D01*
X011230Y006477D02*
X011230Y006477D01*
X011230Y006559D02*
X011230Y006559D01*
X011387Y006566D02*
X011387Y006314D01*
X011387Y006566D02*
X011387Y006566D01*
X011387Y006314D01*
X011387Y006314D01*
X011387Y006396D02*
X011387Y006396D01*
X011387Y006478D02*
X011387Y006478D01*
X011387Y006560D02*
X011387Y006560D01*
X011547Y006725D02*
X011799Y006725D01*
X011799Y006725D01*
X011547Y006725D01*
X011547Y006725D01*
X011527Y006883D02*
X011799Y006883D01*
X011799Y006883D01*
X011527Y006883D01*
X011527Y006883D01*
X011527Y007040D02*
X011799Y007040D01*
X011799Y007040D01*
X011527Y007040D01*
X011527Y007040D01*
X011527Y007197D02*
X011799Y007197D01*
X011799Y007197D01*
X011527Y007197D01*
X011527Y007197D01*
X011527Y007355D02*
X011799Y007355D01*
X011799Y007355D01*
X011527Y007355D01*
X011527Y007355D01*
X011547Y007512D02*
X011799Y007512D01*
X011799Y007512D01*
X011547Y007512D01*
X011547Y007512D01*
D19*
X011072Y006587D02*
X011072Y006311D01*
X011072Y006587D02*
X011072Y006587D01*
X011072Y006311D01*
X011072Y006311D01*
X011072Y006389D02*
X011072Y006389D01*
X011072Y006467D02*
X011072Y006467D01*
X011072Y006545D02*
X011072Y006545D01*
X012104Y017405D02*
X012104Y017681D01*
X012104Y017681D01*
X012104Y017405D01*
X012104Y017405D01*
X012104Y017483D02*
X012104Y017483D01*
X012104Y017561D02*
X012104Y017561D01*
X012104Y017639D02*
X012104Y017639D01*
M02*
