G75*
%MOIN*%
%OFA0B0*%
%FSLAX24Y24*%
%IPPOS*%
%LPD*%
%AMOC8*
5,1,8,0,0,1.08239X$1,22.5*
%
%ADD10C,0.0000*%
%ADD11C,0.0101*%
%ADD12C,0.0098*%
%ADD13C,0.0099*%
%ADD14C,0.0142*%
%ADD15C,0.0100*%
%ADD16C,0.0118*%
%ADD17C,0.0101*%
%ADD18C,0.0130*%
%ADD19C,0.0100*%
%ADD20C,0.0099*%
%ADD21C,0.0100*%
D10*
X000588Y000721D02*
X000588Y019224D01*
X000587Y019224D02*
X000589Y019270D01*
X000594Y019316D01*
X000603Y019362D01*
X000616Y019407D01*
X000632Y019450D01*
X000651Y019492D01*
X000674Y019533D01*
X000700Y019571D01*
X000729Y019608D01*
X000760Y019642D01*
X000794Y019673D01*
X000831Y019702D01*
X000869Y019728D01*
X000910Y019751D01*
X000952Y019770D01*
X000995Y019786D01*
X001040Y019799D01*
X001086Y019808D01*
X001132Y019813D01*
X001178Y019815D01*
X019682Y019815D01*
X019728Y019813D01*
X019774Y019808D01*
X019820Y019799D01*
X019865Y019786D01*
X019908Y019770D01*
X019950Y019751D01*
X019991Y019728D01*
X020029Y019702D01*
X020066Y019673D01*
X020100Y019642D01*
X020131Y019608D01*
X020160Y019571D01*
X020186Y019533D01*
X020209Y019492D01*
X020228Y019450D01*
X020244Y019407D01*
X020257Y019362D01*
X020266Y019316D01*
X020271Y019270D01*
X020273Y019224D01*
X020273Y000721D01*
X020271Y000675D01*
X020266Y000629D01*
X020257Y000583D01*
X020244Y000538D01*
X020228Y000495D01*
X020209Y000453D01*
X020186Y000412D01*
X020160Y000374D01*
X020131Y000337D01*
X020100Y000303D01*
X020066Y000272D01*
X020029Y000243D01*
X019991Y000217D01*
X019950Y000194D01*
X019908Y000175D01*
X019865Y000159D01*
X019820Y000146D01*
X019774Y000137D01*
X019728Y000132D01*
X019682Y000130D01*
X001178Y000130D01*
X001132Y000132D01*
X001086Y000137D01*
X001040Y000146D01*
X000995Y000159D01*
X000952Y000175D01*
X000910Y000194D01*
X000869Y000217D01*
X000831Y000243D01*
X000794Y000272D01*
X000760Y000303D01*
X000729Y000337D01*
X000700Y000374D01*
X000674Y000412D01*
X000651Y000453D01*
X000632Y000495D01*
X000616Y000538D01*
X000603Y000583D01*
X000594Y000629D01*
X000589Y000675D01*
X000587Y000721D01*
X000942Y001114D02*
X000944Y001164D01*
X000950Y001214D01*
X000960Y001263D01*
X000974Y001311D01*
X000991Y001358D01*
X001012Y001403D01*
X001037Y001447D01*
X001065Y001488D01*
X001097Y001527D01*
X001131Y001564D01*
X001168Y001598D01*
X001208Y001628D01*
X001250Y001655D01*
X001294Y001679D01*
X001340Y001700D01*
X001387Y001716D01*
X001435Y001729D01*
X001485Y001738D01*
X001534Y001743D01*
X001585Y001744D01*
X001635Y001741D01*
X001684Y001734D01*
X001733Y001723D01*
X001781Y001708D01*
X001827Y001690D01*
X001872Y001668D01*
X001915Y001642D01*
X001956Y001613D01*
X001995Y001581D01*
X002031Y001546D01*
X002063Y001508D01*
X002093Y001468D01*
X002120Y001425D01*
X002143Y001381D01*
X002162Y001335D01*
X002178Y001287D01*
X002190Y001238D01*
X002198Y001189D01*
X002202Y001139D01*
X002202Y001089D01*
X002198Y001039D01*
X002190Y000990D01*
X002178Y000941D01*
X002162Y000893D01*
X002143Y000847D01*
X002120Y000803D01*
X002093Y000760D01*
X002063Y000720D01*
X002031Y000682D01*
X001995Y000647D01*
X001956Y000615D01*
X001915Y000586D01*
X001872Y000560D01*
X001827Y000538D01*
X001781Y000520D01*
X001733Y000505D01*
X001684Y000494D01*
X001635Y000487D01*
X001585Y000484D01*
X001534Y000485D01*
X001485Y000490D01*
X001435Y000499D01*
X001387Y000512D01*
X001340Y000528D01*
X001294Y000549D01*
X001250Y000573D01*
X001208Y000600D01*
X001168Y000630D01*
X001131Y000664D01*
X001097Y000701D01*
X001065Y000740D01*
X001037Y000781D01*
X001012Y000825D01*
X000991Y000870D01*
X000974Y000917D01*
X000960Y000965D01*
X000950Y001014D01*
X000944Y001064D01*
X000942Y001114D01*
X002286Y004514D02*
X002288Y004540D01*
X002294Y004566D01*
X002304Y004591D01*
X002317Y004614D01*
X002333Y004634D01*
X002353Y004652D01*
X002375Y004667D01*
X002398Y004679D01*
X002424Y004687D01*
X002450Y004691D01*
X002476Y004691D01*
X002502Y004687D01*
X002528Y004679D01*
X002552Y004667D01*
X002573Y004652D01*
X002593Y004634D01*
X002609Y004614D01*
X002622Y004591D01*
X002632Y004566D01*
X002638Y004540D01*
X002640Y004514D01*
X002638Y004488D01*
X002632Y004462D01*
X002622Y004437D01*
X002609Y004414D01*
X002593Y004394D01*
X002573Y004376D01*
X002551Y004361D01*
X002528Y004349D01*
X002502Y004341D01*
X002476Y004337D01*
X002450Y004337D01*
X002424Y004341D01*
X002398Y004349D01*
X002374Y004361D01*
X002353Y004376D01*
X002333Y004394D01*
X002317Y004414D01*
X002304Y004437D01*
X002294Y004462D01*
X002288Y004488D01*
X002286Y004514D01*
X002286Y006246D02*
X002288Y006272D01*
X002294Y006298D01*
X002304Y006323D01*
X002317Y006346D01*
X002333Y006366D01*
X002353Y006384D01*
X002375Y006399D01*
X002398Y006411D01*
X002424Y006419D01*
X002450Y006423D01*
X002476Y006423D01*
X002502Y006419D01*
X002528Y006411D01*
X002552Y006399D01*
X002573Y006384D01*
X002593Y006366D01*
X002609Y006346D01*
X002622Y006323D01*
X002632Y006298D01*
X002638Y006272D01*
X002640Y006246D01*
X002638Y006220D01*
X002632Y006194D01*
X002622Y006169D01*
X002609Y006146D01*
X002593Y006126D01*
X002573Y006108D01*
X002551Y006093D01*
X002528Y006081D01*
X002502Y006073D01*
X002476Y006069D01*
X002450Y006069D01*
X002424Y006073D01*
X002398Y006081D01*
X002374Y006093D01*
X002353Y006108D01*
X002333Y006126D01*
X002317Y006146D01*
X002304Y006169D01*
X002294Y006194D01*
X002288Y006220D01*
X002286Y006246D01*
X000942Y018831D02*
X000944Y018881D01*
X000950Y018931D01*
X000960Y018980D01*
X000974Y019028D01*
X000991Y019075D01*
X001012Y019120D01*
X001037Y019164D01*
X001065Y019205D01*
X001097Y019244D01*
X001131Y019281D01*
X001168Y019315D01*
X001208Y019345D01*
X001250Y019372D01*
X001294Y019396D01*
X001340Y019417D01*
X001387Y019433D01*
X001435Y019446D01*
X001485Y019455D01*
X001534Y019460D01*
X001585Y019461D01*
X001635Y019458D01*
X001684Y019451D01*
X001733Y019440D01*
X001781Y019425D01*
X001827Y019407D01*
X001872Y019385D01*
X001915Y019359D01*
X001956Y019330D01*
X001995Y019298D01*
X002031Y019263D01*
X002063Y019225D01*
X002093Y019185D01*
X002120Y019142D01*
X002143Y019098D01*
X002162Y019052D01*
X002178Y019004D01*
X002190Y018955D01*
X002198Y018906D01*
X002202Y018856D01*
X002202Y018806D01*
X002198Y018756D01*
X002190Y018707D01*
X002178Y018658D01*
X002162Y018610D01*
X002143Y018564D01*
X002120Y018520D01*
X002093Y018477D01*
X002063Y018437D01*
X002031Y018399D01*
X001995Y018364D01*
X001956Y018332D01*
X001915Y018303D01*
X001872Y018277D01*
X001827Y018255D01*
X001781Y018237D01*
X001733Y018222D01*
X001684Y018211D01*
X001635Y018204D01*
X001585Y018201D01*
X001534Y018202D01*
X001485Y018207D01*
X001435Y018216D01*
X001387Y018229D01*
X001340Y018245D01*
X001294Y018266D01*
X001250Y018290D01*
X001208Y018317D01*
X001168Y018347D01*
X001131Y018381D01*
X001097Y018418D01*
X001065Y018457D01*
X001037Y018498D01*
X001012Y018542D01*
X000991Y018587D01*
X000974Y018634D01*
X000960Y018682D01*
X000950Y018731D01*
X000944Y018781D01*
X000942Y018831D01*
X018659Y018831D02*
X018661Y018881D01*
X018667Y018931D01*
X018677Y018980D01*
X018691Y019028D01*
X018708Y019075D01*
X018729Y019120D01*
X018754Y019164D01*
X018782Y019205D01*
X018814Y019244D01*
X018848Y019281D01*
X018885Y019315D01*
X018925Y019345D01*
X018967Y019372D01*
X019011Y019396D01*
X019057Y019417D01*
X019104Y019433D01*
X019152Y019446D01*
X019202Y019455D01*
X019251Y019460D01*
X019302Y019461D01*
X019352Y019458D01*
X019401Y019451D01*
X019450Y019440D01*
X019498Y019425D01*
X019544Y019407D01*
X019589Y019385D01*
X019632Y019359D01*
X019673Y019330D01*
X019712Y019298D01*
X019748Y019263D01*
X019780Y019225D01*
X019810Y019185D01*
X019837Y019142D01*
X019860Y019098D01*
X019879Y019052D01*
X019895Y019004D01*
X019907Y018955D01*
X019915Y018906D01*
X019919Y018856D01*
X019919Y018806D01*
X019915Y018756D01*
X019907Y018707D01*
X019895Y018658D01*
X019879Y018610D01*
X019860Y018564D01*
X019837Y018520D01*
X019810Y018477D01*
X019780Y018437D01*
X019748Y018399D01*
X019712Y018364D01*
X019673Y018332D01*
X019632Y018303D01*
X019589Y018277D01*
X019544Y018255D01*
X019498Y018237D01*
X019450Y018222D01*
X019401Y018211D01*
X019352Y018204D01*
X019302Y018201D01*
X019251Y018202D01*
X019202Y018207D01*
X019152Y018216D01*
X019104Y018229D01*
X019057Y018245D01*
X019011Y018266D01*
X018967Y018290D01*
X018925Y018317D01*
X018885Y018347D01*
X018848Y018381D01*
X018814Y018418D01*
X018782Y018457D01*
X018754Y018498D01*
X018729Y018542D01*
X018708Y018587D01*
X018691Y018634D01*
X018677Y018682D01*
X018667Y018731D01*
X018661Y018781D01*
X018659Y018831D01*
X018659Y001114D02*
X018661Y001164D01*
X018667Y001214D01*
X018677Y001263D01*
X018691Y001311D01*
X018708Y001358D01*
X018729Y001403D01*
X018754Y001447D01*
X018782Y001488D01*
X018814Y001527D01*
X018848Y001564D01*
X018885Y001598D01*
X018925Y001628D01*
X018967Y001655D01*
X019011Y001679D01*
X019057Y001700D01*
X019104Y001716D01*
X019152Y001729D01*
X019202Y001738D01*
X019251Y001743D01*
X019302Y001744D01*
X019352Y001741D01*
X019401Y001734D01*
X019450Y001723D01*
X019498Y001708D01*
X019544Y001690D01*
X019589Y001668D01*
X019632Y001642D01*
X019673Y001613D01*
X019712Y001581D01*
X019748Y001546D01*
X019780Y001508D01*
X019810Y001468D01*
X019837Y001425D01*
X019860Y001381D01*
X019879Y001335D01*
X019895Y001287D01*
X019907Y001238D01*
X019915Y001189D01*
X019919Y001139D01*
X019919Y001089D01*
X019915Y001039D01*
X019907Y000990D01*
X019895Y000941D01*
X019879Y000893D01*
X019860Y000847D01*
X019837Y000803D01*
X019810Y000760D01*
X019780Y000720D01*
X019748Y000682D01*
X019712Y000647D01*
X019673Y000615D01*
X019632Y000586D01*
X019589Y000560D01*
X019544Y000538D01*
X019498Y000520D01*
X019450Y000505D01*
X019401Y000494D01*
X019352Y000487D01*
X019302Y000484D01*
X019251Y000485D01*
X019202Y000490D01*
X019152Y000499D01*
X019104Y000512D01*
X019057Y000528D01*
X019011Y000549D01*
X018967Y000573D01*
X018925Y000600D01*
X018885Y000630D01*
X018848Y000664D01*
X018814Y000701D01*
X018782Y000740D01*
X018754Y000781D01*
X018729Y000825D01*
X018708Y000870D01*
X018691Y000917D01*
X018677Y000965D01*
X018667Y001014D01*
X018661Y001064D01*
X018659Y001114D01*
D11*
X014195Y001345D02*
X013981Y001345D01*
X014195Y001345D02*
X014195Y001131D01*
X013981Y001131D01*
X013981Y001345D01*
X013981Y001231D02*
X014195Y001231D01*
X014195Y001331D02*
X013981Y001331D01*
X013981Y000754D02*
X014195Y000754D01*
X014195Y000540D01*
X013981Y000540D01*
X013981Y000754D01*
X013981Y000640D02*
X014195Y000640D01*
X014195Y000740D02*
X013981Y000740D01*
X016607Y007896D02*
X017137Y007896D01*
X016607Y007896D02*
X016607Y008740D01*
X017137Y008740D01*
X017137Y007896D01*
X017137Y007996D02*
X016607Y007996D01*
X016607Y008096D02*
X017137Y008096D01*
X017137Y008196D02*
X016607Y008196D01*
X016607Y008296D02*
X017137Y008296D01*
X017137Y008396D02*
X016607Y008396D01*
X016607Y008496D02*
X017137Y008496D01*
X017137Y008596D02*
X016607Y008596D01*
X016607Y008696D02*
X017137Y008696D01*
X017788Y008740D02*
X018318Y008740D01*
X018318Y007896D01*
X017788Y007896D01*
X017788Y008740D01*
X017788Y007996D02*
X018318Y007996D01*
X018318Y008096D02*
X017788Y008096D01*
X017788Y008196D02*
X018318Y008196D01*
X018318Y008296D02*
X017788Y008296D01*
X017788Y008396D02*
X018318Y008396D01*
X018318Y008496D02*
X017788Y008496D01*
X017788Y008596D02*
X018318Y008596D01*
X018318Y008696D02*
X017788Y008696D01*
X008503Y009868D02*
X008503Y010082D01*
X008797Y010082D01*
X008797Y009868D01*
X008503Y009868D01*
X008503Y009968D02*
X008797Y009968D01*
X008797Y010068D02*
X008503Y010068D01*
X008503Y010616D02*
X008503Y010830D01*
X008797Y010830D01*
X008797Y010616D01*
X008503Y010616D01*
X008503Y010716D02*
X008797Y010716D01*
X008797Y010816D02*
X008503Y010816D01*
X003820Y008782D02*
X003606Y008782D01*
X003820Y008782D02*
X003820Y008568D01*
X003606Y008568D01*
X003606Y008782D01*
X003606Y008668D02*
X003820Y008668D01*
X003820Y008768D02*
X003606Y008768D01*
X003320Y008782D02*
X003106Y008782D01*
X003320Y008782D02*
X003320Y008568D01*
X003106Y008568D01*
X003106Y008782D01*
X003106Y008668D02*
X003320Y008668D01*
X003320Y008768D02*
X003106Y008768D01*
X003106Y008192D02*
X003320Y008192D01*
X003320Y007978D01*
X003106Y007978D01*
X003106Y008192D01*
X003106Y008078D02*
X003320Y008078D01*
X003320Y008178D02*
X003106Y008178D01*
X003606Y008192D02*
X003820Y008192D01*
X003820Y007978D01*
X003606Y007978D01*
X003606Y008192D01*
X003606Y008078D02*
X003820Y008078D01*
X003820Y008178D02*
X003606Y008178D01*
D12*
X003195Y009672D02*
X002899Y009672D01*
X003195Y009672D02*
X003195Y009338D01*
X002899Y009338D01*
X002899Y009672D01*
X002899Y009435D02*
X003195Y009435D01*
X003195Y009532D02*
X002899Y009532D01*
X002899Y009629D02*
X003195Y009629D01*
X003195Y010297D02*
X002899Y010297D01*
X003195Y010297D02*
X003195Y009963D01*
X002899Y009963D01*
X002899Y010297D01*
X002899Y010060D02*
X003195Y010060D01*
X003195Y010157D02*
X002899Y010157D01*
X002899Y010254D02*
X003195Y010254D01*
X003195Y010588D02*
X002899Y010588D01*
X002899Y010922D01*
X003195Y010922D01*
X003195Y010588D01*
X003195Y010685D02*
X002899Y010685D01*
X002899Y010782D02*
X003195Y010782D01*
X003195Y010879D02*
X002899Y010879D01*
X002899Y011213D02*
X003195Y011213D01*
X002899Y011213D02*
X002899Y011547D01*
X003195Y011547D01*
X003195Y011213D01*
X003195Y011310D02*
X002899Y011310D01*
X002899Y011407D02*
X003195Y011407D01*
X003195Y011504D02*
X002899Y011504D01*
X002526Y011213D02*
X002230Y011213D01*
X002230Y011547D01*
X002526Y011547D01*
X002526Y011213D01*
X002526Y011310D02*
X002230Y011310D01*
X002230Y011407D02*
X002526Y011407D01*
X002526Y011504D02*
X002230Y011504D01*
X002230Y010588D02*
X002526Y010588D01*
X002230Y010588D02*
X002230Y010922D01*
X002526Y010922D01*
X002526Y010588D01*
X002526Y010685D02*
X002230Y010685D01*
X002230Y010782D02*
X002526Y010782D01*
X002526Y010879D02*
X002230Y010879D01*
X002230Y010297D02*
X002526Y010297D01*
X002526Y009963D01*
X002230Y009963D01*
X002230Y010297D01*
X002230Y010060D02*
X002526Y010060D01*
X002526Y010157D02*
X002230Y010157D01*
X002230Y010254D02*
X002526Y010254D01*
X002526Y009672D02*
X002230Y009672D01*
X002526Y009672D02*
X002526Y009338D01*
X002230Y009338D01*
X002230Y009672D01*
X002230Y009435D02*
X002526Y009435D01*
X002526Y009532D02*
X002230Y009532D01*
X002230Y009629D02*
X002526Y009629D01*
X005921Y009613D02*
X006255Y009613D01*
X006255Y009317D01*
X005921Y009317D01*
X005921Y009613D01*
X005921Y009414D02*
X006255Y009414D01*
X006255Y009511D02*
X005921Y009511D01*
X005921Y009608D02*
X006255Y009608D01*
X006255Y009866D02*
X005921Y009866D01*
X005921Y010162D01*
X006255Y010162D01*
X006255Y009866D01*
X006255Y009963D02*
X005921Y009963D01*
X005921Y010060D02*
X006255Y010060D01*
X006255Y010157D02*
X005921Y010157D01*
X005921Y010535D02*
X006255Y010535D01*
X005921Y010535D02*
X005921Y010831D01*
X006255Y010831D01*
X006255Y010535D01*
X006255Y010632D02*
X005921Y010632D01*
X005921Y010729D02*
X006255Y010729D01*
X006255Y010826D02*
X005921Y010826D01*
X006546Y010831D02*
X006546Y010535D01*
X006546Y010831D02*
X006880Y010831D01*
X006880Y010535D01*
X006546Y010535D01*
X006546Y010632D02*
X006880Y010632D01*
X006880Y010729D02*
X006546Y010729D01*
X006546Y010826D02*
X006880Y010826D01*
X007171Y010831D02*
X007171Y010535D01*
X007171Y010831D02*
X007505Y010831D01*
X007505Y010535D01*
X007171Y010535D01*
X007171Y010632D02*
X007505Y010632D01*
X007505Y010729D02*
X007171Y010729D01*
X007171Y010826D02*
X007505Y010826D01*
X007171Y010162D02*
X007171Y009866D01*
X007171Y010162D02*
X007505Y010162D01*
X007505Y009866D01*
X007171Y009866D01*
X007171Y009963D02*
X007505Y009963D01*
X007505Y010060D02*
X007171Y010060D01*
X007171Y010157D02*
X007505Y010157D01*
X006546Y010162D02*
X006546Y009866D01*
X006546Y010162D02*
X006880Y010162D01*
X006880Y009866D01*
X006546Y009866D01*
X006546Y009963D02*
X006880Y009963D01*
X006880Y010060D02*
X006546Y010060D01*
X006546Y010157D02*
X006880Y010157D01*
X006255Y008943D02*
X005921Y008943D01*
X006255Y008943D02*
X006255Y008647D01*
X005921Y008647D01*
X005921Y008943D01*
X005921Y008744D02*
X006255Y008744D01*
X006255Y008841D02*
X005921Y008841D01*
X005921Y008938D02*
X006255Y008938D01*
X009171Y009866D02*
X009171Y010162D01*
X009505Y010162D01*
X009505Y009866D01*
X009171Y009866D01*
X009171Y009963D02*
X009505Y009963D01*
X009505Y010060D02*
X009171Y010060D01*
X009171Y010157D02*
X009505Y010157D01*
X009796Y010162D02*
X009796Y009866D01*
X009796Y010162D02*
X010130Y010162D01*
X010130Y009866D01*
X009796Y009866D01*
X009796Y009963D02*
X010130Y009963D01*
X010130Y010060D02*
X009796Y010060D01*
X009796Y010157D02*
X010130Y010157D01*
X010421Y009866D02*
X010755Y009866D01*
X010421Y009866D02*
X010421Y010162D01*
X010755Y010162D01*
X010755Y009866D01*
X010755Y009963D02*
X010421Y009963D01*
X010421Y010060D02*
X010755Y010060D01*
X010755Y010157D02*
X010421Y010157D01*
X010421Y010535D02*
X010755Y010535D01*
X010421Y010535D02*
X010421Y010831D01*
X010755Y010831D01*
X010755Y010535D01*
X010755Y010632D02*
X010421Y010632D01*
X010421Y010729D02*
X010755Y010729D01*
X010755Y010826D02*
X010421Y010826D01*
X009796Y010831D02*
X009796Y010535D01*
X009796Y010831D02*
X010130Y010831D01*
X010130Y010535D01*
X009796Y010535D01*
X009796Y010632D02*
X010130Y010632D01*
X010130Y010729D02*
X009796Y010729D01*
X009796Y010826D02*
X010130Y010826D01*
X009171Y010831D02*
X009171Y010535D01*
X009171Y010831D02*
X009505Y010831D01*
X009505Y010535D01*
X009171Y010535D01*
X009171Y010632D02*
X009505Y010632D01*
X009505Y010729D02*
X009171Y010729D01*
X009171Y010826D02*
X009505Y010826D01*
X010421Y009613D02*
X010755Y009613D01*
X010755Y009317D01*
X010421Y009317D01*
X010421Y009613D01*
X010421Y009414D02*
X010755Y009414D01*
X010755Y009511D02*
X010421Y009511D01*
X010421Y009608D02*
X010755Y009608D01*
X010755Y008943D02*
X010421Y008943D01*
X010755Y008943D02*
X010755Y008647D01*
X010421Y008647D01*
X010421Y008943D01*
X010421Y008744D02*
X010755Y008744D01*
X010755Y008841D02*
X010421Y008841D01*
X010421Y008938D02*
X010755Y008938D01*
X011605Y007266D02*
X011605Y006932D01*
X011605Y007266D02*
X011901Y007266D01*
X011901Y006932D01*
X011605Y006932D01*
X011605Y007029D02*
X011901Y007029D01*
X011901Y007126D02*
X011605Y007126D01*
X011605Y007223D02*
X011901Y007223D01*
X012274Y007266D02*
X012274Y006932D01*
X012274Y007266D02*
X012570Y007266D01*
X012570Y006932D01*
X012274Y006932D01*
X012274Y007029D02*
X012570Y007029D01*
X012570Y007126D02*
X012274Y007126D01*
X012274Y007223D02*
X012570Y007223D01*
X012839Y007682D02*
X012839Y008016D01*
X012839Y007682D02*
X012543Y007682D01*
X012543Y008016D01*
X012839Y008016D01*
X012839Y007779D02*
X012543Y007779D01*
X012543Y007876D02*
X012839Y007876D01*
X012839Y007973D02*
X012543Y007973D01*
X013508Y008016D02*
X013508Y007682D01*
X013212Y007682D01*
X013212Y008016D01*
X013508Y008016D01*
X013508Y007779D02*
X013212Y007779D01*
X013212Y007876D02*
X013508Y007876D01*
X013508Y007973D02*
X013212Y007973D01*
X013574Y006891D02*
X013574Y006557D01*
X013574Y006891D02*
X013870Y006891D01*
X013870Y006557D01*
X013574Y006557D01*
X013574Y006654D02*
X013870Y006654D01*
X013870Y006751D02*
X013574Y006751D01*
X013574Y006848D02*
X013870Y006848D01*
X014243Y006891D02*
X014243Y006557D01*
X014243Y006891D02*
X014539Y006891D01*
X014539Y006557D01*
X014243Y006557D01*
X014243Y006654D02*
X014539Y006654D01*
X014539Y006751D02*
X014243Y006751D01*
X014243Y006848D02*
X014539Y006848D01*
X014761Y006557D02*
X015057Y006557D01*
X014761Y006557D02*
X014761Y006891D01*
X015057Y006891D01*
X015057Y006557D01*
X015057Y006654D02*
X014761Y006654D01*
X014761Y006751D02*
X015057Y006751D01*
X015057Y006848D02*
X014761Y006848D01*
X015431Y006557D02*
X015727Y006557D01*
X015431Y006557D02*
X015431Y006891D01*
X015727Y006891D01*
X015727Y006557D01*
X015727Y006654D02*
X015431Y006654D01*
X015431Y006751D02*
X015727Y006751D01*
X015727Y006848D02*
X015431Y006848D01*
X016046Y005442D02*
X016380Y005442D01*
X016046Y005442D02*
X016046Y005738D01*
X016380Y005738D01*
X016380Y005442D01*
X016380Y005539D02*
X016046Y005539D01*
X016046Y005636D02*
X016380Y005636D01*
X016380Y005733D02*
X016046Y005733D01*
X016046Y004772D02*
X016380Y004772D01*
X016046Y004772D02*
X016046Y005068D01*
X016380Y005068D01*
X016380Y004772D01*
X016380Y004869D02*
X016046Y004869D01*
X016046Y004966D02*
X016380Y004966D01*
X016380Y005063D02*
X016046Y005063D01*
X016046Y003988D02*
X016046Y003692D01*
X016046Y003988D02*
X016380Y003988D01*
X016380Y003692D01*
X016046Y003692D01*
X016046Y003789D02*
X016380Y003789D01*
X016380Y003886D02*
X016046Y003886D01*
X016046Y003983D02*
X016380Y003983D01*
X016046Y003318D02*
X016046Y003022D01*
X016046Y003318D02*
X016380Y003318D01*
X016380Y003022D01*
X016046Y003022D01*
X016046Y003119D02*
X016380Y003119D01*
X016380Y003216D02*
X016046Y003216D01*
X016046Y003313D02*
X016380Y003313D01*
X015046Y003318D02*
X015046Y003022D01*
X015046Y003318D02*
X015380Y003318D01*
X015380Y003022D01*
X015046Y003022D01*
X015046Y003119D02*
X015380Y003119D01*
X015380Y003216D02*
X015046Y003216D01*
X015046Y003313D02*
X015380Y003313D01*
X015046Y003692D02*
X015046Y003988D01*
X015380Y003988D01*
X015380Y003692D01*
X015046Y003692D01*
X015046Y003789D02*
X015380Y003789D01*
X015380Y003886D02*
X015046Y003886D01*
X015046Y003983D02*
X015380Y003983D01*
X014296Y003988D02*
X014296Y003692D01*
X014296Y003988D02*
X014630Y003988D01*
X014630Y003692D01*
X014296Y003692D01*
X014296Y003789D02*
X014630Y003789D01*
X014630Y003886D02*
X014296Y003886D01*
X014296Y003983D02*
X014630Y003983D01*
X014296Y003318D02*
X014296Y003022D01*
X014296Y003318D02*
X014630Y003318D01*
X014630Y003022D01*
X014296Y003022D01*
X014296Y003119D02*
X014630Y003119D01*
X014630Y003216D02*
X014296Y003216D01*
X014296Y003313D02*
X014630Y003313D01*
X014296Y002738D02*
X014296Y002442D01*
X014296Y002738D02*
X014630Y002738D01*
X014630Y002442D01*
X014296Y002442D01*
X014296Y002539D02*
X014630Y002539D01*
X014630Y002636D02*
X014296Y002636D01*
X014296Y002733D02*
X014630Y002733D01*
X014296Y002068D02*
X014296Y001772D01*
X014296Y002068D02*
X014630Y002068D01*
X014630Y001772D01*
X014296Y001772D01*
X014296Y001869D02*
X014630Y001869D01*
X014630Y001966D02*
X014296Y001966D01*
X014296Y002063D02*
X014630Y002063D01*
X013380Y004225D02*
X013046Y004225D01*
X013380Y004225D02*
X013380Y003929D01*
X013046Y003929D01*
X013046Y004225D01*
X013046Y004026D02*
X013380Y004026D01*
X013380Y004123D02*
X013046Y004123D01*
X013046Y004220D02*
X013380Y004220D01*
X013380Y004894D02*
X013046Y004894D01*
X013380Y004894D02*
X013380Y004598D01*
X013046Y004598D01*
X013046Y004894D01*
X013046Y004695D02*
X013380Y004695D01*
X013380Y004792D02*
X013046Y004792D01*
X013046Y004889D02*
X013380Y004889D01*
X013380Y005179D02*
X013046Y005179D01*
X013046Y005475D01*
X013380Y005475D01*
X013380Y005179D01*
X013380Y005276D02*
X013046Y005276D01*
X013046Y005373D02*
X013380Y005373D01*
X013380Y005470D02*
X013046Y005470D01*
X013046Y005848D02*
X013380Y005848D01*
X013046Y005848D02*
X013046Y006144D01*
X013380Y006144D01*
X013380Y005848D01*
X013380Y005945D02*
X013046Y005945D01*
X013046Y006042D02*
X013380Y006042D01*
X013380Y006139D02*
X013046Y006139D01*
X012570Y004266D02*
X012570Y003932D01*
X012274Y003932D01*
X012274Y004266D01*
X012570Y004266D01*
X012570Y004029D02*
X012274Y004029D01*
X012274Y004126D02*
X012570Y004126D01*
X012570Y004223D02*
X012274Y004223D01*
X011901Y004266D02*
X011901Y003932D01*
X011605Y003932D01*
X011605Y004266D01*
X011901Y004266D01*
X011901Y004029D02*
X011605Y004029D01*
X011605Y004126D02*
X011901Y004126D01*
X011901Y004223D02*
X011605Y004223D01*
X011320Y004266D02*
X011320Y003932D01*
X011024Y003932D01*
X011024Y004266D01*
X011320Y004266D01*
X011320Y004029D02*
X011024Y004029D01*
X011024Y004126D02*
X011320Y004126D01*
X011320Y004223D02*
X011024Y004223D01*
X010651Y004266D02*
X010651Y003932D01*
X010355Y003932D01*
X010355Y004266D01*
X010651Y004266D01*
X010651Y004029D02*
X010355Y004029D01*
X010355Y004126D02*
X010651Y004126D01*
X010651Y004223D02*
X010355Y004223D01*
X009380Y002863D02*
X009046Y002863D01*
X009380Y002863D02*
X009380Y002567D01*
X009046Y002567D01*
X009046Y002863D01*
X009046Y002664D02*
X009380Y002664D01*
X009380Y002761D02*
X009046Y002761D01*
X009046Y002858D02*
X009380Y002858D01*
X008421Y002863D02*
X008421Y002567D01*
X008421Y002863D02*
X008755Y002863D01*
X008755Y002567D01*
X008421Y002567D01*
X008421Y002664D02*
X008755Y002664D01*
X008755Y002761D02*
X008421Y002761D01*
X008421Y002858D02*
X008755Y002858D01*
X007796Y002863D02*
X007796Y002567D01*
X007796Y002863D02*
X008130Y002863D01*
X008130Y002567D01*
X007796Y002567D01*
X007796Y002664D02*
X008130Y002664D01*
X008130Y002761D02*
X007796Y002761D01*
X007796Y002858D02*
X008130Y002858D01*
X007171Y002863D02*
X007171Y002567D01*
X007171Y002863D02*
X007505Y002863D01*
X007505Y002567D01*
X007171Y002567D01*
X007171Y002664D02*
X007505Y002664D01*
X007505Y002761D02*
X007171Y002761D01*
X007171Y002858D02*
X007505Y002858D01*
X007171Y002193D02*
X007171Y001897D01*
X007171Y002193D02*
X007505Y002193D01*
X007505Y001897D01*
X007171Y001897D01*
X007171Y001994D02*
X007505Y001994D01*
X007505Y002091D02*
X007171Y002091D01*
X007171Y002188D02*
X007505Y002188D01*
X007796Y002193D02*
X007796Y001897D01*
X007796Y002193D02*
X008130Y002193D01*
X008130Y001897D01*
X007796Y001897D01*
X007796Y001994D02*
X008130Y001994D01*
X008130Y002091D02*
X007796Y002091D01*
X007796Y002188D02*
X008130Y002188D01*
X008421Y002193D02*
X008421Y001897D01*
X008421Y002193D02*
X008755Y002193D01*
X008755Y001897D01*
X008421Y001897D01*
X008421Y001994D02*
X008755Y001994D01*
X008755Y002091D02*
X008421Y002091D01*
X008421Y002188D02*
X008755Y002188D01*
X009046Y002193D02*
X009380Y002193D01*
X009380Y001897D01*
X009046Y001897D01*
X009046Y002193D01*
X009046Y001994D02*
X009380Y001994D01*
X009380Y002091D02*
X009046Y002091D01*
X009046Y002188D02*
X009380Y002188D01*
X006255Y003335D02*
X005921Y003335D01*
X005921Y003631D01*
X006255Y003631D01*
X006255Y003335D01*
X006255Y003432D02*
X005921Y003432D01*
X005921Y003529D02*
X006255Y003529D01*
X006255Y003626D02*
X005921Y003626D01*
X005921Y004004D02*
X006255Y004004D01*
X005921Y004004D02*
X005921Y004300D01*
X006255Y004300D01*
X006255Y004004D01*
X006255Y004101D02*
X005921Y004101D01*
X005921Y004198D02*
X006255Y004198D01*
X006255Y004295D02*
X005921Y004295D01*
X005383Y004338D02*
X005087Y004338D01*
X005087Y004672D01*
X005383Y004672D01*
X005383Y004338D01*
X005383Y004435D02*
X005087Y004435D01*
X005087Y004532D02*
X005383Y004532D01*
X005383Y004629D02*
X005087Y004629D01*
X005087Y004963D02*
X005383Y004963D01*
X005087Y004963D02*
X005087Y005297D01*
X005383Y005297D01*
X005383Y004963D01*
X005383Y005060D02*
X005087Y005060D01*
X005087Y005157D02*
X005383Y005157D01*
X005383Y005254D02*
X005087Y005254D01*
X005087Y005588D02*
X005383Y005588D01*
X005087Y005588D02*
X005087Y005922D01*
X005383Y005922D01*
X005383Y005588D01*
X005383Y005685D02*
X005087Y005685D01*
X005087Y005782D02*
X005383Y005782D01*
X005383Y005879D02*
X005087Y005879D01*
X004714Y005588D02*
X004418Y005588D01*
X004418Y005922D01*
X004714Y005922D01*
X004714Y005588D01*
X004714Y005685D02*
X004418Y005685D01*
X004418Y005782D02*
X004714Y005782D01*
X004714Y005879D02*
X004418Y005879D01*
X004418Y004963D02*
X004714Y004963D01*
X004418Y004963D02*
X004418Y005297D01*
X004714Y005297D01*
X004714Y004963D01*
X004714Y005060D02*
X004418Y005060D01*
X004418Y005157D02*
X004714Y005157D01*
X004714Y005254D02*
X004418Y005254D01*
X004418Y004338D02*
X004714Y004338D01*
X004418Y004338D02*
X004418Y004672D01*
X004714Y004672D01*
X004714Y004338D01*
X004714Y004435D02*
X004418Y004435D01*
X004418Y004532D02*
X004714Y004532D01*
X004714Y004629D02*
X004418Y004629D01*
X004418Y004047D02*
X004714Y004047D01*
X004714Y003713D01*
X004418Y003713D01*
X004418Y004047D01*
X004418Y003810D02*
X004714Y003810D01*
X004714Y003907D02*
X004418Y003907D01*
X004418Y004004D02*
X004714Y004004D01*
X005087Y004047D02*
X005383Y004047D01*
X005383Y003713D01*
X005087Y003713D01*
X005087Y004047D01*
X005087Y003810D02*
X005383Y003810D01*
X005383Y003907D02*
X005087Y003907D01*
X005087Y004004D02*
X005383Y004004D01*
X005383Y003088D02*
X005087Y003088D01*
X005087Y003422D01*
X005383Y003422D01*
X005383Y003088D01*
X005383Y003185D02*
X005087Y003185D01*
X005087Y003282D02*
X005383Y003282D01*
X005383Y003379D02*
X005087Y003379D01*
X004714Y003088D02*
X004418Y003088D01*
X004418Y003422D01*
X004714Y003422D01*
X004714Y003088D01*
X004714Y003185D02*
X004418Y003185D01*
X004418Y003282D02*
X004714Y003282D01*
X004714Y003379D02*
X004418Y003379D01*
X012543Y009994D02*
X012543Y010328D01*
X012839Y010328D01*
X012839Y009994D01*
X012543Y009994D01*
X012543Y010091D02*
X012839Y010091D01*
X012839Y010188D02*
X012543Y010188D01*
X012543Y010285D02*
X012839Y010285D01*
X013212Y010328D02*
X013212Y009994D01*
X013212Y010328D02*
X013508Y010328D01*
X013508Y009994D01*
X013212Y009994D01*
X013212Y010091D02*
X013508Y010091D01*
X013508Y010188D02*
X013212Y010188D01*
X013212Y010285D02*
X013508Y010285D01*
X014827Y012037D02*
X015161Y012037D01*
X015161Y011741D01*
X014827Y011741D01*
X014827Y012037D01*
X014827Y011838D02*
X015161Y011838D01*
X015161Y011935D02*
X014827Y011935D01*
X014827Y012032D02*
X015161Y012032D01*
X015161Y012706D02*
X014827Y012706D01*
X015161Y012706D02*
X015161Y012410D01*
X014827Y012410D01*
X014827Y012706D01*
X014827Y012507D02*
X015161Y012507D01*
X015161Y012604D02*
X014827Y012604D01*
X014827Y012701D02*
X015161Y012701D01*
X013942Y017006D02*
X013608Y017006D01*
X013942Y017006D02*
X013942Y016710D01*
X013608Y016710D01*
X013608Y017006D01*
X013608Y016807D02*
X013942Y016807D01*
X013942Y016904D02*
X013608Y016904D01*
X013608Y017001D02*
X013942Y017001D01*
X013942Y017675D02*
X013608Y017675D01*
X013942Y017675D02*
X013942Y017379D01*
X013608Y017379D01*
X013608Y017675D01*
X013608Y017476D02*
X013942Y017476D01*
X013942Y017573D02*
X013608Y017573D01*
X013608Y017670D02*
X013942Y017670D01*
X008380Y017675D02*
X008046Y017675D01*
X008380Y017675D02*
X008380Y017379D01*
X008046Y017379D01*
X008046Y017675D01*
X008046Y017476D02*
X008380Y017476D01*
X008380Y017573D02*
X008046Y017573D01*
X008046Y017670D02*
X008380Y017670D01*
X008380Y017006D02*
X008046Y017006D01*
X008380Y017006D02*
X008380Y016710D01*
X008046Y016710D01*
X008046Y017006D01*
X008046Y016807D02*
X008380Y016807D01*
X008380Y016904D02*
X008046Y016904D01*
X008046Y017001D02*
X008380Y017001D01*
D13*
X007461Y016899D02*
X007461Y016737D01*
X007009Y016737D01*
X007009Y016899D01*
X007461Y016899D01*
X007461Y016835D02*
X007009Y016835D01*
X007461Y017237D02*
X007461Y017399D01*
X007461Y017237D02*
X007009Y017237D01*
X007009Y017399D01*
X007461Y017399D01*
X007461Y017335D02*
X007009Y017335D01*
X007461Y017737D02*
X007461Y017899D01*
X007461Y017737D02*
X007009Y017737D01*
X007009Y017899D01*
X007461Y017899D01*
X007461Y017835D02*
X007009Y017835D01*
X007461Y016399D02*
X007461Y016237D01*
X007009Y016237D01*
X007009Y016399D01*
X007461Y016399D01*
X007461Y016335D02*
X007009Y016335D01*
X007461Y015649D02*
X007461Y015487D01*
X007009Y015487D01*
X007009Y015649D01*
X007461Y015649D01*
X007461Y015585D02*
X007009Y015585D01*
X007461Y015149D02*
X007461Y014987D01*
X007009Y014987D01*
X007009Y015149D01*
X007461Y015149D01*
X007461Y015085D02*
X007009Y015085D01*
X007461Y014649D02*
X007461Y014487D01*
X007009Y014487D01*
X007009Y014649D01*
X007461Y014649D01*
X007461Y014585D02*
X007009Y014585D01*
X007461Y014149D02*
X007461Y013987D01*
X007009Y013987D01*
X007009Y014149D01*
X007461Y014149D01*
X007461Y014085D02*
X007009Y014085D01*
X007461Y013399D02*
X007461Y013237D01*
X007009Y013237D01*
X007009Y013399D01*
X007461Y013399D01*
X007461Y013335D02*
X007009Y013335D01*
X007461Y012899D02*
X007461Y012737D01*
X007009Y012737D01*
X007009Y012899D01*
X007461Y012899D01*
X007461Y012835D02*
X007009Y012835D01*
X007461Y012399D02*
X007461Y012237D01*
X007009Y012237D01*
X007009Y012399D01*
X007461Y012399D01*
X007461Y012335D02*
X007009Y012335D01*
X007461Y011899D02*
X007461Y011737D01*
X007009Y011737D01*
X007009Y011899D01*
X007461Y011899D01*
X007461Y011835D02*
X007009Y011835D01*
X005041Y011899D02*
X005041Y011737D01*
X004589Y011737D01*
X004589Y011899D01*
X005041Y011899D01*
X005041Y011835D02*
X004589Y011835D01*
X005041Y012237D02*
X005041Y012399D01*
X005041Y012237D02*
X004589Y012237D01*
X004589Y012399D01*
X005041Y012399D01*
X005041Y012335D02*
X004589Y012335D01*
X005041Y012737D02*
X005041Y012899D01*
X005041Y012737D02*
X004589Y012737D01*
X004589Y012899D01*
X005041Y012899D01*
X005041Y012835D02*
X004589Y012835D01*
X005041Y013237D02*
X005041Y013399D01*
X005041Y013237D02*
X004589Y013237D01*
X004589Y013399D01*
X005041Y013399D01*
X005041Y013335D02*
X004589Y013335D01*
X005041Y013987D02*
X005041Y014149D01*
X005041Y013987D02*
X004589Y013987D01*
X004589Y014149D01*
X005041Y014149D01*
X005041Y014085D02*
X004589Y014085D01*
X005041Y014487D02*
X005041Y014649D01*
X005041Y014487D02*
X004589Y014487D01*
X004589Y014649D01*
X005041Y014649D01*
X005041Y014585D02*
X004589Y014585D01*
X005041Y014987D02*
X005041Y015149D01*
X005041Y014987D02*
X004589Y014987D01*
X004589Y015149D01*
X005041Y015149D01*
X005041Y015085D02*
X004589Y015085D01*
X005041Y015487D02*
X005041Y015649D01*
X005041Y015487D02*
X004589Y015487D01*
X004589Y015649D01*
X005041Y015649D01*
X005041Y015585D02*
X004589Y015585D01*
X005041Y016237D02*
X005041Y016399D01*
X005041Y016237D02*
X004589Y016237D01*
X004589Y016399D01*
X005041Y016399D01*
X005041Y016335D02*
X004589Y016335D01*
X005041Y016737D02*
X005041Y016899D01*
X005041Y016737D02*
X004589Y016737D01*
X004589Y016899D01*
X005041Y016899D01*
X005041Y016835D02*
X004589Y016835D01*
X005041Y017237D02*
X005041Y017399D01*
X005041Y017237D02*
X004589Y017237D01*
X004589Y017399D01*
X005041Y017399D01*
X005041Y017335D02*
X004589Y017335D01*
X005041Y017737D02*
X005041Y017899D01*
X005041Y017737D02*
X004589Y017737D01*
X004589Y017899D01*
X005041Y017899D01*
X005041Y017835D02*
X004589Y017835D01*
X010541Y017899D02*
X010541Y017737D01*
X010089Y017737D01*
X010089Y017899D01*
X010541Y017899D01*
X010541Y017835D02*
X010089Y017835D01*
X010541Y017399D02*
X010541Y017237D01*
X010089Y017237D01*
X010089Y017399D01*
X010541Y017399D01*
X010541Y017335D02*
X010089Y017335D01*
X010541Y016899D02*
X010541Y016737D01*
X010089Y016737D01*
X010089Y016899D01*
X010541Y016899D01*
X010541Y016835D02*
X010089Y016835D01*
X010541Y016399D02*
X010541Y016237D01*
X010089Y016237D01*
X010089Y016399D01*
X010541Y016399D01*
X010541Y016335D02*
X010089Y016335D01*
X010541Y015649D02*
X010541Y015487D01*
X010089Y015487D01*
X010089Y015649D01*
X010541Y015649D01*
X010541Y015585D02*
X010089Y015585D01*
X010541Y015149D02*
X010541Y014987D01*
X010089Y014987D01*
X010089Y015149D01*
X010541Y015149D01*
X010541Y015085D02*
X010089Y015085D01*
X010541Y014649D02*
X010541Y014487D01*
X010089Y014487D01*
X010089Y014649D01*
X010541Y014649D01*
X010541Y014585D02*
X010089Y014585D01*
X010541Y014149D02*
X010541Y013987D01*
X010089Y013987D01*
X010089Y014149D01*
X010541Y014149D01*
X010541Y014085D02*
X010089Y014085D01*
X010541Y013399D02*
X010541Y013237D01*
X010089Y013237D01*
X010089Y013399D01*
X010541Y013399D01*
X010541Y013335D02*
X010089Y013335D01*
X010541Y012899D02*
X010541Y012737D01*
X010089Y012737D01*
X010089Y012899D01*
X010541Y012899D01*
X010541Y012835D02*
X010089Y012835D01*
X010541Y012399D02*
X010541Y012237D01*
X010089Y012237D01*
X010089Y012399D01*
X010541Y012399D01*
X010541Y012335D02*
X010089Y012335D01*
X010541Y011899D02*
X010541Y011737D01*
X010089Y011737D01*
X010089Y011899D01*
X010541Y011899D01*
X010541Y011835D02*
X010089Y011835D01*
X012961Y011899D02*
X012961Y011737D01*
X012509Y011737D01*
X012509Y011899D01*
X012961Y011899D01*
X012961Y011835D02*
X012509Y011835D01*
X012961Y012237D02*
X012961Y012399D01*
X012961Y012237D02*
X012509Y012237D01*
X012509Y012399D01*
X012961Y012399D01*
X012961Y012335D02*
X012509Y012335D01*
X012961Y012737D02*
X012961Y012899D01*
X012961Y012737D02*
X012509Y012737D01*
X012509Y012899D01*
X012961Y012899D01*
X012961Y012835D02*
X012509Y012835D01*
X012961Y013237D02*
X012961Y013399D01*
X012961Y013237D02*
X012509Y013237D01*
X012509Y013399D01*
X012961Y013399D01*
X012961Y013335D02*
X012509Y013335D01*
X012961Y013987D02*
X012961Y014149D01*
X012961Y013987D02*
X012509Y013987D01*
X012509Y014149D01*
X012961Y014149D01*
X012961Y014085D02*
X012509Y014085D01*
X012961Y014487D02*
X012961Y014649D01*
X012961Y014487D02*
X012509Y014487D01*
X012509Y014649D01*
X012961Y014649D01*
X012961Y014585D02*
X012509Y014585D01*
X012961Y014987D02*
X012961Y015149D01*
X012961Y014987D02*
X012509Y014987D01*
X012509Y015149D01*
X012961Y015149D01*
X012961Y015085D02*
X012509Y015085D01*
X012961Y015487D02*
X012961Y015649D01*
X012961Y015487D02*
X012509Y015487D01*
X012509Y015649D01*
X012961Y015649D01*
X012961Y015585D02*
X012509Y015585D01*
X012961Y016237D02*
X012961Y016399D01*
X012961Y016237D02*
X012509Y016237D01*
X012509Y016399D01*
X012961Y016399D01*
X012961Y016335D02*
X012509Y016335D01*
X012961Y016737D02*
X012961Y016899D01*
X012961Y016737D02*
X012509Y016737D01*
X012509Y016899D01*
X012961Y016899D01*
X012961Y016835D02*
X012509Y016835D01*
X012961Y017237D02*
X012961Y017399D01*
X012961Y017237D02*
X012509Y017237D01*
X012509Y017399D01*
X012961Y017399D01*
X012961Y017335D02*
X012509Y017335D01*
X012961Y017737D02*
X012961Y017899D01*
X012961Y017737D02*
X012509Y017737D01*
X012509Y017899D01*
X012961Y017899D01*
X012961Y017835D02*
X012509Y017835D01*
X016166Y017899D02*
X016166Y017737D01*
X015714Y017737D01*
X015714Y017899D01*
X016166Y017899D01*
X016166Y017835D02*
X015714Y017835D01*
X016166Y017399D02*
X016166Y017237D01*
X015714Y017237D01*
X015714Y017399D01*
X016166Y017399D01*
X016166Y017335D02*
X015714Y017335D01*
X016166Y016899D02*
X016166Y016737D01*
X015714Y016737D01*
X015714Y016899D01*
X016166Y016899D01*
X016166Y016835D02*
X015714Y016835D01*
X016166Y016399D02*
X016166Y016237D01*
X015714Y016237D01*
X015714Y016399D01*
X016166Y016399D01*
X016166Y016335D02*
X015714Y016335D01*
X016166Y015649D02*
X016166Y015487D01*
X015714Y015487D01*
X015714Y015649D01*
X016166Y015649D01*
X016166Y015585D02*
X015714Y015585D01*
X016166Y015149D02*
X016166Y014987D01*
X015714Y014987D01*
X015714Y015149D01*
X016166Y015149D01*
X016166Y015085D02*
X015714Y015085D01*
X016166Y014649D02*
X016166Y014487D01*
X015714Y014487D01*
X015714Y014649D01*
X016166Y014649D01*
X016166Y014585D02*
X015714Y014585D01*
X016166Y014149D02*
X016166Y013987D01*
X015714Y013987D01*
X015714Y014149D01*
X016166Y014149D01*
X016166Y014085D02*
X015714Y014085D01*
X016166Y013399D02*
X016166Y013237D01*
X015714Y013237D01*
X015714Y013399D01*
X016166Y013399D01*
X016166Y013335D02*
X015714Y013335D01*
X016166Y012899D02*
X016166Y012737D01*
X015714Y012737D01*
X015714Y012899D01*
X016166Y012899D01*
X016166Y012835D02*
X015714Y012835D01*
X016166Y012399D02*
X016166Y012237D01*
X015714Y012237D01*
X015714Y012399D01*
X016166Y012399D01*
X016166Y012335D02*
X015714Y012335D01*
X016166Y011899D02*
X016166Y011737D01*
X015714Y011737D01*
X015714Y011899D01*
X016166Y011899D01*
X016166Y011835D02*
X015714Y011835D01*
X018586Y011899D02*
X018586Y011737D01*
X018134Y011737D01*
X018134Y011899D01*
X018586Y011899D01*
X018586Y011835D02*
X018134Y011835D01*
X018586Y012237D02*
X018586Y012399D01*
X018586Y012237D02*
X018134Y012237D01*
X018134Y012399D01*
X018586Y012399D01*
X018586Y012335D02*
X018134Y012335D01*
X018586Y012737D02*
X018586Y012899D01*
X018586Y012737D02*
X018134Y012737D01*
X018134Y012899D01*
X018586Y012899D01*
X018586Y012835D02*
X018134Y012835D01*
X018586Y013237D02*
X018586Y013399D01*
X018586Y013237D02*
X018134Y013237D01*
X018134Y013399D01*
X018586Y013399D01*
X018586Y013335D02*
X018134Y013335D01*
X018586Y013987D02*
X018586Y014149D01*
X018586Y013987D02*
X018134Y013987D01*
X018134Y014149D01*
X018586Y014149D01*
X018586Y014085D02*
X018134Y014085D01*
X018586Y014487D02*
X018586Y014649D01*
X018586Y014487D02*
X018134Y014487D01*
X018134Y014649D01*
X018586Y014649D01*
X018586Y014585D02*
X018134Y014585D01*
X018586Y014987D02*
X018586Y015149D01*
X018586Y014987D02*
X018134Y014987D01*
X018134Y015149D01*
X018586Y015149D01*
X018586Y015085D02*
X018134Y015085D01*
X018586Y015487D02*
X018586Y015649D01*
X018586Y015487D02*
X018134Y015487D01*
X018134Y015649D01*
X018586Y015649D01*
X018586Y015585D02*
X018134Y015585D01*
X018586Y016237D02*
X018586Y016399D01*
X018586Y016237D02*
X018134Y016237D01*
X018134Y016399D01*
X018586Y016399D01*
X018586Y016335D02*
X018134Y016335D01*
X018586Y016737D02*
X018586Y016899D01*
X018586Y016737D02*
X018134Y016737D01*
X018134Y016899D01*
X018586Y016899D01*
X018586Y016835D02*
X018134Y016835D01*
X018586Y017237D02*
X018586Y017399D01*
X018586Y017237D02*
X018134Y017237D01*
X018134Y017399D01*
X018586Y017399D01*
X018586Y017335D02*
X018134Y017335D01*
X018586Y017737D02*
X018586Y017899D01*
X018586Y017737D02*
X018134Y017737D01*
X018134Y017899D01*
X018586Y017899D01*
X018586Y017835D02*
X018134Y017835D01*
X018257Y006566D02*
X018419Y006566D01*
X018419Y006114D01*
X018257Y006114D01*
X018257Y006566D01*
X018257Y006212D02*
X018419Y006212D01*
X018419Y006310D02*
X018257Y006310D01*
X018257Y006408D02*
X018419Y006408D01*
X018419Y006506D02*
X018257Y006506D01*
X017919Y006566D02*
X017757Y006566D01*
X017919Y006566D02*
X017919Y006114D01*
X017757Y006114D01*
X017757Y006566D01*
X017757Y006212D02*
X017919Y006212D01*
X017919Y006310D02*
X017757Y006310D01*
X017757Y006408D02*
X017919Y006408D01*
X017919Y006506D02*
X017757Y006506D01*
X017419Y006566D02*
X017257Y006566D01*
X017419Y006566D02*
X017419Y006114D01*
X017257Y006114D01*
X017257Y006566D01*
X017257Y006212D02*
X017419Y006212D01*
X017419Y006310D02*
X017257Y006310D01*
X017257Y006408D02*
X017419Y006408D01*
X017419Y006506D02*
X017257Y006506D01*
X016919Y006566D02*
X016757Y006566D01*
X016919Y006566D02*
X016919Y006114D01*
X016757Y006114D01*
X016757Y006566D01*
X016757Y006212D02*
X016919Y006212D01*
X016919Y006310D02*
X016757Y006310D01*
X016757Y006408D02*
X016919Y006408D01*
X016919Y006506D02*
X016757Y006506D01*
X016757Y004146D02*
X016919Y004146D01*
X016919Y003694D01*
X016757Y003694D01*
X016757Y004146D01*
X016757Y003792D02*
X016919Y003792D01*
X016919Y003890D02*
X016757Y003890D01*
X016757Y003988D02*
X016919Y003988D01*
X016919Y004086D02*
X016757Y004086D01*
X017257Y004146D02*
X017419Y004146D01*
X017419Y003694D01*
X017257Y003694D01*
X017257Y004146D01*
X017257Y003792D02*
X017419Y003792D01*
X017419Y003890D02*
X017257Y003890D01*
X017257Y003988D02*
X017419Y003988D01*
X017419Y004086D02*
X017257Y004086D01*
X017757Y004146D02*
X017919Y004146D01*
X017919Y003694D01*
X017757Y003694D01*
X017757Y004146D01*
X017757Y003792D02*
X017919Y003792D01*
X017919Y003890D02*
X017757Y003890D01*
X017757Y003988D02*
X017919Y003988D01*
X017919Y004086D02*
X017757Y004086D01*
X018257Y004146D02*
X018419Y004146D01*
X018419Y003694D01*
X018257Y003694D01*
X018257Y004146D01*
X018257Y003792D02*
X018419Y003792D01*
X018419Y003890D02*
X018257Y003890D01*
X018257Y003988D02*
X018419Y003988D01*
X018419Y004086D02*
X018257Y004086D01*
X012822Y003556D02*
X012822Y002854D01*
X012822Y003556D02*
X013104Y003556D01*
X013104Y002854D01*
X012822Y002854D01*
X012822Y002952D02*
X013104Y002952D01*
X013104Y003050D02*
X012822Y003050D01*
X012822Y003148D02*
X013104Y003148D01*
X013104Y003246D02*
X012822Y003246D01*
X012822Y003344D02*
X013104Y003344D01*
X013104Y003442D02*
X012822Y003442D01*
X012822Y003540D02*
X013104Y003540D01*
X011479Y003556D02*
X011479Y002854D01*
X011197Y002854D01*
X011197Y003556D01*
X011479Y003556D01*
X011479Y002952D02*
X011197Y002952D01*
X011197Y003050D02*
X011479Y003050D01*
X011479Y003148D02*
X011197Y003148D01*
X011197Y003246D02*
X011479Y003246D01*
X011479Y003344D02*
X011197Y003344D01*
X011197Y003442D02*
X011479Y003442D01*
X011479Y003540D02*
X011197Y003540D01*
X011479Y001156D02*
X011479Y000454D01*
X011197Y000454D01*
X011197Y001156D01*
X011479Y001156D01*
X011479Y000552D02*
X011197Y000552D01*
X011197Y000650D02*
X011479Y000650D01*
X011479Y000748D02*
X011197Y000748D01*
X011197Y000846D02*
X011479Y000846D01*
X011479Y000944D02*
X011197Y000944D01*
X011197Y001042D02*
X011479Y001042D01*
X011479Y001140D02*
X011197Y001140D01*
X012822Y001156D02*
X012822Y000454D01*
X012822Y001156D02*
X013104Y001156D01*
X013104Y000454D01*
X012822Y000454D01*
X012822Y000552D02*
X013104Y000552D01*
X013104Y000650D02*
X012822Y000650D01*
X012822Y000748D02*
X013104Y000748D01*
X013104Y000846D02*
X012822Y000846D01*
X012822Y000944D02*
X013104Y000944D01*
X013104Y001042D02*
X012822Y001042D01*
X012822Y001140D02*
X013104Y001140D01*
D14*
X014551Y013307D02*
X014551Y014109D01*
X014551Y013307D02*
X013749Y013307D01*
X013749Y014109D01*
X014551Y014109D01*
X014551Y013448D02*
X013749Y013448D01*
X013749Y013589D02*
X014551Y013589D01*
X014551Y013730D02*
X013749Y013730D01*
X013749Y013871D02*
X014551Y013871D01*
X014551Y014012D02*
X013749Y014012D01*
X013749Y015276D02*
X013749Y016078D01*
X014551Y016078D01*
X014551Y015276D01*
X013749Y015276D01*
X013749Y015417D02*
X014551Y015417D01*
X014551Y015558D02*
X013749Y015558D01*
X013749Y015699D02*
X014551Y015699D01*
X014551Y015840D02*
X013749Y015840D01*
X013749Y015981D02*
X014551Y015981D01*
X008187Y016078D02*
X008187Y015276D01*
X008187Y016078D02*
X008989Y016078D01*
X008989Y015276D01*
X008187Y015276D01*
X008187Y015417D02*
X008989Y015417D01*
X008989Y015558D02*
X008187Y015558D01*
X008187Y015699D02*
X008989Y015699D01*
X008989Y015840D02*
X008187Y015840D01*
X008187Y015981D02*
X008989Y015981D01*
X008989Y014109D02*
X008989Y013307D01*
X008187Y013307D01*
X008187Y014109D01*
X008989Y014109D01*
X008989Y013448D02*
X008187Y013448D01*
X008187Y013589D02*
X008989Y013589D01*
X008989Y013730D02*
X008187Y013730D01*
X008187Y013871D02*
X008989Y013871D01*
X008989Y014012D02*
X008187Y014012D01*
D15*
X008083Y012744D02*
X008083Y012648D01*
X008083Y012744D02*
X008337Y012744D01*
X008337Y012648D01*
X008083Y012648D01*
X008083Y012429D02*
X008083Y012333D01*
X008083Y012429D02*
X008337Y012429D01*
X008337Y012333D01*
X008083Y012333D01*
X008083Y012114D02*
X008083Y012018D01*
X008083Y012114D02*
X008337Y012114D01*
X008337Y012018D01*
X008083Y012018D01*
X008083Y011799D02*
X008083Y011703D01*
X008083Y011799D02*
X008337Y011799D01*
X008337Y011703D01*
X008083Y011703D01*
X008713Y011703D02*
X008713Y011799D01*
X008967Y011799D01*
X008967Y011703D01*
X008713Y011703D01*
X008713Y012018D02*
X008713Y012114D01*
X008967Y012114D01*
X008967Y012018D01*
X008713Y012018D01*
X008713Y012333D02*
X008713Y012429D01*
X008967Y012429D01*
X008967Y012333D01*
X008713Y012333D01*
X008713Y012648D02*
X008713Y012744D01*
X008967Y012744D01*
X008967Y012648D01*
X008713Y012648D01*
X008642Y008873D02*
X008624Y008873D01*
X008642Y008873D02*
X008642Y008501D01*
X008624Y008501D01*
X008624Y008873D01*
X008642Y008600D02*
X008624Y008600D01*
X008624Y008699D02*
X008642Y008699D01*
X008642Y008798D02*
X008624Y008798D01*
X008445Y008873D02*
X008427Y008873D01*
X008445Y008873D02*
X008445Y008501D01*
X008427Y008501D01*
X008427Y008873D01*
X008445Y008600D02*
X008427Y008600D01*
X008427Y008699D02*
X008445Y008699D01*
X008445Y008798D02*
X008427Y008798D01*
X008248Y008873D02*
X008230Y008873D01*
X008248Y008873D02*
X008248Y008501D01*
X008230Y008501D01*
X008230Y008873D01*
X008248Y008600D02*
X008230Y008600D01*
X008230Y008699D02*
X008248Y008699D01*
X008248Y008798D02*
X008230Y008798D01*
X008052Y008873D02*
X008034Y008873D01*
X008052Y008873D02*
X008052Y008501D01*
X008034Y008501D01*
X008034Y008873D01*
X008052Y008600D02*
X008034Y008600D01*
X008034Y008699D02*
X008052Y008699D01*
X008052Y008798D02*
X008034Y008798D01*
X007855Y008873D02*
X007837Y008873D01*
X007855Y008873D02*
X007855Y008501D01*
X007837Y008501D01*
X007837Y008873D01*
X007855Y008600D02*
X007837Y008600D01*
X007837Y008699D02*
X007855Y008699D01*
X007855Y008798D02*
X007837Y008798D01*
X007658Y008873D02*
X007640Y008873D01*
X007658Y008873D02*
X007658Y008501D01*
X007640Y008501D01*
X007640Y008873D01*
X007658Y008600D02*
X007640Y008600D01*
X007640Y008699D02*
X007658Y008699D01*
X007658Y008798D02*
X007640Y008798D01*
X007461Y008873D02*
X007443Y008873D01*
X007461Y008873D02*
X007461Y008501D01*
X007443Y008501D01*
X007443Y008873D01*
X007461Y008600D02*
X007443Y008600D01*
X007443Y008699D02*
X007461Y008699D01*
X007461Y008798D02*
X007443Y008798D01*
X007264Y008873D02*
X007246Y008873D01*
X007264Y008873D02*
X007264Y008501D01*
X007246Y008501D01*
X007246Y008873D01*
X007264Y008600D02*
X007246Y008600D01*
X007246Y008699D02*
X007264Y008699D01*
X007264Y008798D02*
X007246Y008798D01*
X007067Y008873D02*
X007049Y008873D01*
X007067Y008873D02*
X007067Y008501D01*
X007049Y008501D01*
X007049Y008873D01*
X007067Y008600D02*
X007049Y008600D01*
X007049Y008699D02*
X007067Y008699D01*
X007067Y008798D02*
X007049Y008798D01*
X006870Y008873D02*
X006852Y008873D01*
X006870Y008873D02*
X006870Y008501D01*
X006852Y008501D01*
X006852Y008873D01*
X006870Y008600D02*
X006852Y008600D01*
X006852Y008699D02*
X006870Y008699D01*
X006870Y008798D02*
X006852Y008798D01*
X006280Y007928D02*
X005908Y007928D01*
X006280Y007928D02*
X006280Y007910D01*
X005908Y007910D01*
X005908Y007928D01*
X005908Y007731D02*
X006280Y007731D01*
X006280Y007713D01*
X005908Y007713D01*
X005908Y007731D01*
X005908Y007534D02*
X006280Y007534D01*
X006280Y007516D01*
X005908Y007516D01*
X005908Y007534D01*
X005908Y007337D02*
X006280Y007337D01*
X006280Y007319D01*
X005908Y007319D01*
X005908Y007337D01*
X005908Y007140D02*
X006280Y007140D01*
X006280Y007122D01*
X005908Y007122D01*
X005908Y007140D01*
X005908Y006944D02*
X006280Y006944D01*
X006280Y006926D01*
X005908Y006926D01*
X005908Y006944D01*
X005908Y006747D02*
X006280Y006747D01*
X006280Y006729D01*
X005908Y006729D01*
X005908Y006747D01*
X005908Y006550D02*
X006280Y006550D01*
X006280Y006532D01*
X005908Y006532D01*
X005908Y006550D01*
X005908Y006353D02*
X006280Y006353D01*
X006280Y006335D01*
X005908Y006335D01*
X005908Y006353D01*
X005908Y006156D02*
X006280Y006156D01*
X006280Y006138D01*
X005908Y006138D01*
X005908Y006156D01*
X005908Y005959D02*
X006280Y005959D01*
X006280Y005941D01*
X005908Y005941D01*
X005908Y005959D01*
X005908Y005763D02*
X006280Y005763D01*
X006280Y005745D01*
X005908Y005745D01*
X005908Y005763D01*
X005908Y005566D02*
X006280Y005566D01*
X006280Y005548D01*
X005908Y005548D01*
X005908Y005566D01*
X005908Y005369D02*
X006280Y005369D01*
X006280Y005351D01*
X005908Y005351D01*
X005908Y005369D01*
X005908Y005172D02*
X006280Y005172D01*
X006280Y005154D01*
X005908Y005154D01*
X005908Y005172D01*
X005908Y004975D02*
X006280Y004975D01*
X006280Y004957D01*
X005908Y004957D01*
X005908Y004975D01*
X006852Y004384D02*
X006870Y004384D01*
X006870Y004012D01*
X006852Y004012D01*
X006852Y004384D01*
X006870Y004111D02*
X006852Y004111D01*
X006852Y004210D02*
X006870Y004210D01*
X006870Y004309D02*
X006852Y004309D01*
X007049Y004384D02*
X007067Y004384D01*
X007067Y004012D01*
X007049Y004012D01*
X007049Y004384D01*
X007067Y004111D02*
X007049Y004111D01*
X007049Y004210D02*
X007067Y004210D01*
X007067Y004309D02*
X007049Y004309D01*
X007246Y004384D02*
X007264Y004384D01*
X007264Y004012D01*
X007246Y004012D01*
X007246Y004384D01*
X007264Y004111D02*
X007246Y004111D01*
X007246Y004210D02*
X007264Y004210D01*
X007264Y004309D02*
X007246Y004309D01*
X007443Y004384D02*
X007461Y004384D01*
X007461Y004012D01*
X007443Y004012D01*
X007443Y004384D01*
X007461Y004111D02*
X007443Y004111D01*
X007443Y004210D02*
X007461Y004210D01*
X007461Y004309D02*
X007443Y004309D01*
X007640Y004384D02*
X007658Y004384D01*
X007658Y004012D01*
X007640Y004012D01*
X007640Y004384D01*
X007658Y004111D02*
X007640Y004111D01*
X007640Y004210D02*
X007658Y004210D01*
X007658Y004309D02*
X007640Y004309D01*
X007837Y004384D02*
X007855Y004384D01*
X007855Y004012D01*
X007837Y004012D01*
X007837Y004384D01*
X007855Y004111D02*
X007837Y004111D01*
X007837Y004210D02*
X007855Y004210D01*
X007855Y004309D02*
X007837Y004309D01*
X008034Y004384D02*
X008052Y004384D01*
X008052Y004012D01*
X008034Y004012D01*
X008034Y004384D01*
X008052Y004111D02*
X008034Y004111D01*
X008034Y004210D02*
X008052Y004210D01*
X008052Y004309D02*
X008034Y004309D01*
X008230Y004384D02*
X008248Y004384D01*
X008248Y004012D01*
X008230Y004012D01*
X008230Y004384D01*
X008248Y004111D02*
X008230Y004111D01*
X008230Y004210D02*
X008248Y004210D01*
X008248Y004309D02*
X008230Y004309D01*
X008427Y004384D02*
X008445Y004384D01*
X008445Y004012D01*
X008427Y004012D01*
X008427Y004384D01*
X008445Y004111D02*
X008427Y004111D01*
X008427Y004210D02*
X008445Y004210D01*
X008445Y004309D02*
X008427Y004309D01*
X008624Y004384D02*
X008642Y004384D01*
X008642Y004012D01*
X008624Y004012D01*
X008624Y004384D01*
X008642Y004111D02*
X008624Y004111D01*
X008624Y004210D02*
X008642Y004210D01*
X008642Y004309D02*
X008624Y004309D01*
X008821Y004384D02*
X008839Y004384D01*
X008839Y004012D01*
X008821Y004012D01*
X008821Y004384D01*
X008839Y004111D02*
X008821Y004111D01*
X008821Y004210D02*
X008839Y004210D01*
X008839Y004309D02*
X008821Y004309D01*
X009018Y004384D02*
X009036Y004384D01*
X009036Y004012D01*
X009018Y004012D01*
X009018Y004384D01*
X009036Y004111D02*
X009018Y004111D01*
X009018Y004210D02*
X009036Y004210D01*
X009036Y004309D02*
X009018Y004309D01*
X009215Y004384D02*
X009233Y004384D01*
X009233Y004012D01*
X009215Y004012D01*
X009215Y004384D01*
X009233Y004111D02*
X009215Y004111D01*
X009215Y004210D02*
X009233Y004210D01*
X009233Y004309D02*
X009215Y004309D01*
X009412Y004384D02*
X009430Y004384D01*
X009430Y004012D01*
X009412Y004012D01*
X009412Y004384D01*
X009430Y004111D02*
X009412Y004111D01*
X009412Y004210D02*
X009430Y004210D01*
X009430Y004309D02*
X009412Y004309D01*
X009608Y004384D02*
X009626Y004384D01*
X009626Y004012D01*
X009608Y004012D01*
X009608Y004384D01*
X009626Y004111D02*
X009608Y004111D01*
X009608Y004210D02*
X009626Y004210D01*
X009626Y004309D02*
X009608Y004309D01*
X009805Y004384D02*
X009823Y004384D01*
X009823Y004012D01*
X009805Y004012D01*
X009805Y004384D01*
X009823Y004111D02*
X009805Y004111D01*
X009805Y004210D02*
X009823Y004210D01*
X009823Y004309D02*
X009805Y004309D01*
X010396Y004975D02*
X010768Y004975D01*
X010768Y004957D01*
X010396Y004957D01*
X010396Y004975D01*
X010396Y005172D02*
X010768Y005172D01*
X010768Y005154D01*
X010396Y005154D01*
X010396Y005172D01*
X010396Y005369D02*
X010768Y005369D01*
X010768Y005351D01*
X010396Y005351D01*
X010396Y005369D01*
X010396Y005566D02*
X010768Y005566D01*
X010768Y005548D01*
X010396Y005548D01*
X010396Y005566D01*
X010396Y005763D02*
X010768Y005763D01*
X010768Y005745D01*
X010396Y005745D01*
X010396Y005763D01*
X010396Y005959D02*
X010768Y005959D01*
X010768Y005941D01*
X010396Y005941D01*
X010396Y005959D01*
X010396Y006156D02*
X010768Y006156D01*
X010768Y006138D01*
X010396Y006138D01*
X010396Y006156D01*
X010396Y006353D02*
X010768Y006353D01*
X010768Y006335D01*
X010396Y006335D01*
X010396Y006353D01*
X010396Y006550D02*
X010768Y006550D01*
X010768Y006532D01*
X010396Y006532D01*
X010396Y006550D01*
X010396Y006747D02*
X010768Y006747D01*
X010768Y006729D01*
X010396Y006729D01*
X010396Y006747D01*
X010396Y006944D02*
X010768Y006944D01*
X010768Y006926D01*
X010396Y006926D01*
X010396Y006944D01*
X010396Y007140D02*
X010768Y007140D01*
X010768Y007122D01*
X010396Y007122D01*
X010396Y007140D01*
X010396Y007337D02*
X010768Y007337D01*
X010768Y007319D01*
X010396Y007319D01*
X010396Y007337D01*
X010396Y007534D02*
X010768Y007534D01*
X010768Y007516D01*
X010396Y007516D01*
X010396Y007534D01*
X010396Y007731D02*
X010768Y007731D01*
X010768Y007713D01*
X010396Y007713D01*
X010396Y007731D01*
X010396Y007928D02*
X010768Y007928D01*
X010768Y007910D01*
X010396Y007910D01*
X010396Y007928D01*
X009823Y008873D02*
X009805Y008873D01*
X009823Y008873D02*
X009823Y008501D01*
X009805Y008501D01*
X009805Y008873D01*
X009823Y008600D02*
X009805Y008600D01*
X009805Y008699D02*
X009823Y008699D01*
X009823Y008798D02*
X009805Y008798D01*
X009626Y008873D02*
X009608Y008873D01*
X009626Y008873D02*
X009626Y008501D01*
X009608Y008501D01*
X009608Y008873D01*
X009626Y008600D02*
X009608Y008600D01*
X009608Y008699D02*
X009626Y008699D01*
X009626Y008798D02*
X009608Y008798D01*
X009430Y008873D02*
X009412Y008873D01*
X009430Y008873D02*
X009430Y008501D01*
X009412Y008501D01*
X009412Y008873D01*
X009430Y008600D02*
X009412Y008600D01*
X009412Y008699D02*
X009430Y008699D01*
X009430Y008798D02*
X009412Y008798D01*
X009233Y008873D02*
X009215Y008873D01*
X009233Y008873D02*
X009233Y008501D01*
X009215Y008501D01*
X009215Y008873D01*
X009233Y008600D02*
X009215Y008600D01*
X009215Y008699D02*
X009233Y008699D01*
X009233Y008798D02*
X009215Y008798D01*
X009036Y008873D02*
X009018Y008873D01*
X009036Y008873D02*
X009036Y008501D01*
X009018Y008501D01*
X009018Y008873D01*
X009036Y008600D02*
X009018Y008600D01*
X009018Y008699D02*
X009036Y008699D01*
X009036Y008798D02*
X009018Y008798D01*
X008839Y008873D02*
X008821Y008873D01*
X008839Y008873D02*
X008839Y008501D01*
X008821Y008501D01*
X008821Y008873D01*
X008839Y008600D02*
X008821Y008600D01*
X008821Y008699D02*
X008839Y008699D01*
X008839Y008798D02*
X008821Y008798D01*
X013615Y011703D02*
X013615Y011799D01*
X013869Y011799D01*
X013869Y011703D01*
X013615Y011703D01*
X013615Y012018D02*
X013615Y012114D01*
X013869Y012114D01*
X013869Y012018D01*
X013615Y012018D01*
X013615Y012333D02*
X013615Y012429D01*
X013869Y012429D01*
X013869Y012333D01*
X013615Y012333D01*
X013615Y012648D02*
X013615Y012744D01*
X013869Y012744D01*
X013869Y012648D01*
X013615Y012648D01*
X014245Y012648D02*
X014245Y012744D01*
X014499Y012744D01*
X014499Y012648D01*
X014245Y012648D01*
X014245Y012429D02*
X014245Y012333D01*
X014245Y012429D02*
X014499Y012429D01*
X014499Y012333D01*
X014245Y012333D01*
X014245Y012114D02*
X014245Y012018D01*
X014245Y012114D02*
X014499Y012114D01*
X014499Y012018D01*
X014245Y012018D01*
X014245Y011799D02*
X014245Y011703D01*
X014245Y011799D02*
X014499Y011799D01*
X014499Y011703D01*
X014245Y011703D01*
X019021Y011400D02*
X019021Y011304D01*
X019021Y011400D02*
X019275Y011400D01*
X019275Y011304D01*
X019021Y011304D01*
X019021Y011085D02*
X019021Y010989D01*
X019021Y011085D02*
X019275Y011085D01*
X019275Y010989D01*
X019021Y010989D01*
X019021Y010771D02*
X019021Y010675D01*
X019021Y010771D02*
X019275Y010771D01*
X019275Y010675D01*
X019021Y010675D01*
X019021Y010456D02*
X019021Y010360D01*
X019021Y010456D02*
X019275Y010456D01*
X019275Y010360D01*
X019021Y010360D01*
X019651Y010360D02*
X019651Y010456D01*
X019905Y010456D01*
X019905Y010360D01*
X019651Y010360D01*
X019651Y010675D02*
X019651Y010771D01*
X019905Y010771D01*
X019905Y010675D01*
X019651Y010675D01*
X019651Y010989D02*
X019651Y011085D01*
X019905Y011085D01*
X019905Y010989D01*
X019651Y010989D01*
X019651Y011304D02*
X019651Y011400D01*
X019905Y011400D01*
X019905Y011304D01*
X019651Y011304D01*
X015196Y006149D02*
X015196Y005935D01*
X015196Y006149D02*
X015214Y006149D01*
X015214Y005935D01*
X015196Y005935D01*
X015196Y006034D02*
X015214Y006034D01*
X015214Y006133D02*
X015196Y006133D01*
X014999Y006149D02*
X014999Y005935D01*
X014999Y006149D02*
X015017Y006149D01*
X015017Y005935D01*
X014999Y005935D01*
X014999Y006034D02*
X015017Y006034D01*
X015017Y006133D02*
X014999Y006133D01*
X014802Y006149D02*
X014802Y005935D01*
X014802Y006149D02*
X014820Y006149D01*
X014820Y005935D01*
X014802Y005935D01*
X014802Y006034D02*
X014820Y006034D01*
X014820Y006133D02*
X014802Y006133D01*
X014605Y006149D02*
X014605Y005935D01*
X014605Y006149D02*
X014623Y006149D01*
X014623Y005935D01*
X014605Y005935D01*
X014605Y006034D02*
X014623Y006034D01*
X014623Y006133D02*
X014605Y006133D01*
X014409Y006149D02*
X014409Y005935D01*
X014409Y006149D02*
X014427Y006149D01*
X014427Y005935D01*
X014409Y005935D01*
X014409Y006034D02*
X014427Y006034D01*
X014427Y006133D02*
X014409Y006133D01*
X014212Y006149D02*
X014212Y005935D01*
X014212Y006149D02*
X014230Y006149D01*
X014230Y005935D01*
X014212Y005935D01*
X014212Y006034D02*
X014230Y006034D01*
X014230Y006133D02*
X014212Y006133D01*
X014032Y005756D02*
X013818Y005756D01*
X014032Y005756D02*
X014032Y005738D01*
X013818Y005738D01*
X013818Y005756D01*
X013818Y005559D02*
X014032Y005559D01*
X014032Y005541D01*
X013818Y005541D01*
X013818Y005559D01*
X013818Y005362D02*
X014032Y005362D01*
X014032Y005344D01*
X013818Y005344D01*
X013818Y005362D01*
X013818Y005166D02*
X014032Y005166D01*
X014032Y005148D01*
X013818Y005148D01*
X013818Y005166D01*
X013818Y004969D02*
X014032Y004969D01*
X014032Y004951D01*
X013818Y004951D01*
X013818Y004969D01*
X013818Y004772D02*
X014032Y004772D01*
X014032Y004754D01*
X013818Y004754D01*
X013818Y004772D01*
X014230Y004575D02*
X014230Y004361D01*
X014212Y004361D01*
X014212Y004575D01*
X014230Y004575D01*
X014230Y004460D02*
X014212Y004460D01*
X014212Y004559D02*
X014230Y004559D01*
X014427Y004575D02*
X014427Y004361D01*
X014409Y004361D01*
X014409Y004575D01*
X014427Y004575D01*
X014427Y004460D02*
X014409Y004460D01*
X014409Y004559D02*
X014427Y004559D01*
X014623Y004575D02*
X014623Y004361D01*
X014605Y004361D01*
X014605Y004575D01*
X014623Y004575D01*
X014623Y004460D02*
X014605Y004460D01*
X014605Y004559D02*
X014623Y004559D01*
X014820Y004575D02*
X014820Y004361D01*
X014802Y004361D01*
X014802Y004575D01*
X014820Y004575D01*
X014820Y004460D02*
X014802Y004460D01*
X014802Y004559D02*
X014820Y004559D01*
X015017Y004575D02*
X015017Y004361D01*
X014999Y004361D01*
X014999Y004575D01*
X015017Y004575D01*
X015017Y004460D02*
X014999Y004460D01*
X014999Y004559D02*
X015017Y004559D01*
X015214Y004575D02*
X015214Y004361D01*
X015196Y004361D01*
X015196Y004575D01*
X015214Y004575D01*
X015214Y004460D02*
X015196Y004460D01*
X015196Y004559D02*
X015214Y004559D01*
X015393Y004754D02*
X015607Y004754D01*
X015393Y004754D02*
X015393Y004772D01*
X015607Y004772D01*
X015607Y004754D01*
X015607Y004951D02*
X015393Y004951D01*
X015393Y004969D01*
X015607Y004969D01*
X015607Y004951D01*
X015607Y005148D02*
X015393Y005148D01*
X015393Y005166D01*
X015607Y005166D01*
X015607Y005148D01*
X015607Y005344D02*
X015393Y005344D01*
X015393Y005362D01*
X015607Y005362D01*
X015607Y005344D01*
X015607Y005541D02*
X015393Y005541D01*
X015393Y005559D01*
X015607Y005559D01*
X015607Y005541D01*
X015607Y005738D02*
X015393Y005738D01*
X015393Y005756D01*
X015607Y005756D01*
X015607Y005738D01*
X003889Y005647D02*
X003005Y005647D01*
X003005Y005743D01*
X003889Y005743D01*
X003889Y005647D01*
X003889Y005332D02*
X003005Y005332D01*
X003005Y005428D01*
X003889Y005428D01*
X003889Y005332D01*
X003889Y005017D02*
X003005Y005017D01*
X003005Y005113D01*
X003889Y005113D01*
X003889Y005017D01*
X003889Y004702D02*
X003005Y004702D01*
X003005Y004798D01*
X003889Y004798D01*
X003889Y004702D01*
X003889Y005962D02*
X003005Y005962D01*
X003005Y006058D01*
X003889Y006058D01*
X003889Y005962D01*
D16*
X003880Y006818D02*
X003014Y006818D01*
X003014Y007486D01*
X003880Y007486D01*
X003880Y006818D01*
X003880Y006935D02*
X003014Y006935D01*
X003014Y007052D02*
X003880Y007052D01*
X003880Y007169D02*
X003014Y007169D01*
X003014Y007286D02*
X003880Y007286D01*
X003880Y007403D02*
X003014Y007403D01*
X001715Y006818D02*
X000849Y006818D01*
X000849Y007486D01*
X001715Y007486D01*
X001715Y006818D01*
X001715Y006935D02*
X000849Y006935D01*
X000849Y007052D02*
X001715Y007052D01*
X001715Y007169D02*
X000849Y007169D01*
X000849Y007286D02*
X001715Y007286D01*
X001715Y007403D02*
X000849Y007403D01*
X000849Y003274D02*
X001715Y003274D01*
X000849Y003274D02*
X000849Y003942D01*
X001715Y003942D01*
X001715Y003274D01*
X001715Y003391D02*
X000849Y003391D01*
X000849Y003508D02*
X001715Y003508D01*
X001715Y003625D02*
X000849Y003625D01*
X000849Y003742D02*
X001715Y003742D01*
X001715Y003859D02*
X000849Y003859D01*
X003014Y003274D02*
X003880Y003274D01*
X003014Y003274D02*
X003014Y003942D01*
X003880Y003942D01*
X003880Y003274D01*
X003880Y003391D02*
X003014Y003391D01*
X003014Y003508D02*
X003880Y003508D01*
X003880Y003625D02*
X003014Y003625D01*
X003014Y003742D02*
X003880Y003742D01*
X003880Y003859D02*
X003014Y003859D01*
D17*
X015948Y007905D02*
X015948Y008285D01*
X015948Y007905D02*
X015168Y007905D01*
X015168Y008285D01*
X015948Y008285D01*
X015948Y008005D02*
X015168Y008005D01*
X015168Y008105D02*
X015948Y008105D01*
X015948Y008205D02*
X015168Y008205D01*
X015948Y008815D02*
X015948Y009195D01*
X015948Y008815D02*
X015168Y008815D01*
X015168Y009195D01*
X015948Y009195D01*
X015948Y008915D02*
X015168Y008915D01*
X015168Y009015D02*
X015948Y009015D01*
X015948Y009115D02*
X015168Y009115D01*
X015948Y009725D02*
X015948Y010105D01*
X015948Y009725D02*
X015168Y009725D01*
X015168Y010105D01*
X015948Y010105D01*
X015948Y009825D02*
X015168Y009825D01*
X015168Y009925D02*
X015948Y009925D01*
X015948Y010025D02*
X015168Y010025D01*
D18*
X013486Y009648D02*
X013486Y008362D01*
X012750Y008362D01*
X012750Y009648D01*
X013486Y009648D01*
X013486Y008491D02*
X012750Y008491D01*
X012750Y008620D02*
X013486Y008620D01*
X013486Y008749D02*
X012750Y008749D01*
X012750Y008878D02*
X013486Y008878D01*
X013486Y009007D02*
X012750Y009007D01*
X012750Y009136D02*
X013486Y009136D01*
X013486Y009265D02*
X012750Y009265D01*
X012750Y009394D02*
X013486Y009394D01*
X013486Y009523D02*
X012750Y009523D01*
D19*
X016712Y009580D02*
X017112Y009580D01*
X017112Y009180D01*
X016712Y009180D01*
X016712Y009580D01*
X016712Y009279D02*
X017112Y009279D01*
X017112Y009378D02*
X016712Y009378D01*
X016712Y009477D02*
X017112Y009477D01*
X017112Y009576D02*
X016712Y009576D01*
X016712Y010455D02*
X017112Y010455D01*
X017112Y010055D01*
X016712Y010055D01*
X016712Y010455D01*
X016712Y010154D02*
X017112Y010154D01*
X017112Y010253D02*
X016712Y010253D01*
X016712Y010352D02*
X017112Y010352D01*
X017112Y010451D02*
X016712Y010451D01*
X017814Y010055D02*
X018214Y010055D01*
X017814Y010055D02*
X017814Y010455D01*
X018214Y010455D01*
X018214Y010055D01*
X018214Y010154D02*
X017814Y010154D01*
X017814Y010253D02*
X018214Y010253D01*
X018214Y010352D02*
X017814Y010352D01*
X017814Y010451D02*
X018214Y010451D01*
X018214Y009180D02*
X017814Y009180D01*
X017814Y009580D01*
X018214Y009580D01*
X018214Y009180D01*
X018214Y009279D02*
X017814Y009279D01*
X017814Y009378D02*
X018214Y009378D01*
X018214Y009477D02*
X017814Y009477D01*
X017814Y009576D02*
X018214Y009576D01*
D20*
X011799Y009330D02*
X011799Y009862D01*
X012251Y009862D01*
X012251Y009330D01*
X011799Y009330D01*
X011799Y009428D02*
X012251Y009428D01*
X012251Y009526D02*
X011799Y009526D01*
X011799Y009624D02*
X012251Y009624D01*
X012251Y009722D02*
X011799Y009722D01*
X011799Y009820D02*
X012251Y009820D01*
X012251Y008680D02*
X012251Y008148D01*
X011799Y008148D01*
X011799Y008680D01*
X012251Y008680D01*
X012251Y008246D02*
X011799Y008246D01*
X011799Y008344D02*
X012251Y008344D01*
X012251Y008442D02*
X011799Y008442D01*
X011799Y008540D02*
X012251Y008540D01*
X012251Y008638D02*
X011799Y008638D01*
D21*
X011344Y006651D02*
X011344Y006003D01*
X011344Y006651D02*
X011676Y006651D01*
X011676Y006003D01*
X011344Y006003D01*
X011344Y006102D02*
X011676Y006102D01*
X011676Y006201D02*
X011344Y006201D01*
X011344Y006300D02*
X011676Y006300D01*
X011676Y006399D02*
X011344Y006399D01*
X011344Y006498D02*
X011676Y006498D01*
X011676Y006597D02*
X011344Y006597D01*
X012250Y006651D02*
X012250Y006003D01*
X012250Y006651D02*
X012582Y006651D01*
X012582Y006003D01*
X012250Y006003D01*
X012250Y006102D02*
X012582Y006102D01*
X012582Y006201D02*
X012250Y006201D01*
X012250Y006300D02*
X012582Y006300D01*
X012582Y006399D02*
X012250Y006399D01*
X012250Y006498D02*
X012582Y006498D01*
X012582Y006597D02*
X012250Y006597D01*
X012250Y005194D02*
X012250Y004546D01*
X012250Y005194D02*
X012582Y005194D01*
X012582Y004546D01*
X012250Y004546D01*
X012250Y004645D02*
X012582Y004645D01*
X012582Y004744D02*
X012250Y004744D01*
X012250Y004843D02*
X012582Y004843D01*
X012582Y004942D02*
X012250Y004942D01*
X012250Y005041D02*
X012582Y005041D01*
X012582Y005140D02*
X012250Y005140D01*
X011344Y005194D02*
X011344Y004546D01*
X011344Y005194D02*
X011676Y005194D01*
X011676Y004546D01*
X011344Y004546D01*
X011344Y004645D02*
X011676Y004645D01*
X011676Y004744D02*
X011344Y004744D01*
X011344Y004843D02*
X011676Y004843D01*
X011676Y004942D02*
X011344Y004942D01*
X011344Y005041D02*
X011676Y005041D01*
X011676Y005140D02*
X011344Y005140D01*
M02*
