%
M48
M72
T01C0.0120
T02C0.0197
T03C0.0394
T04C0.0866
%
T01
X4461Y4899
X4461Y5399
X4461Y6149
X4461Y7399
X4961Y8711
X5868Y7024
X6618Y7024
X7149Y7555
X7899Y7086
X7899Y6461
X6243Y6243
X6680Y4211
X7180Y4211
X7680Y4024
X7680Y3649
X6930Y3649
X6399Y3649
X7149Y8711
X8274Y8711
X7680Y12243
X7680Y12618
X7180Y12805
X6680Y12805
X6930Y12243
X6399Y12243
X4461Y13493
X4461Y13993
X4461Y14743
X4461Y15993
X4961Y17305
X5868Y15618
X6243Y14836
X6618Y15618
X7149Y16149
X7899Y15680
X7899Y15055
X8274Y17305
X7149Y17305
X11993Y15993
X11993Y14743
X11993Y13993
X11993Y13493
X13774Y14836
X14149Y15618
X14680Y16149
X15430Y15680
X15430Y15055
X13399Y15618
X12493Y17305
X14680Y17305
X15805Y17305
X14711Y12805
X15211Y12618
X15211Y12243
X14461Y12243
X14211Y12805
X13930Y12243
X14680Y8711
X15805Y8711
X14680Y7555
X14149Y7024
X13399Y7024
X13774Y6243
X15430Y6461
X15430Y7086
X14711Y4211
X15211Y4024
X15211Y3649
X14461Y3649
X13930Y3649
X14211Y4211
X11993Y4899
X11993Y5399
X11993Y6149
X11993Y7399
X12493Y8711
T02
X12649Y9086
X13723Y11759
X14215Y11759
X14707Y11759
X15199Y11759
X13305Y13368
X12649Y17680
X7668Y11759
X7176Y11759
X6684Y11759
X6192Y11759
X5774Y13368
X5118Y9086
X5774Y4774
X6192Y3165
X6684Y3165
X7176Y3165
X7668Y3165
X13305Y4774
X13723Y3165
X14215Y3165
X14707Y3165
X15199Y3165
X5118Y17680
T03
X9430Y15243
X9430Y14680
X9430Y14118
X10430Y14118
X10430Y14680
X10430Y15243
X6743Y10930
X6180Y10930
X5618Y10930
X5618Y9930
X6180Y9930
X6743Y9930
X9430Y6649
X9430Y6086
X9430Y5524
X10430Y5524
X10430Y6086
X10430Y6649
T04
X3936Y3374
X3936Y8885
X3936Y11967
X3936Y17479
X11467Y17479
X11467Y11967
X11467Y8885
X11467Y3374
M30
