G75*
%MOIN*%
%OFA0B0*%
%FSLAX24Y24*%
%IPPOS*%
%LPD*%
%AMOC8*
5,1,8,0,0,1.08239X$1,22.5*
%
%ADD10C,0.0000*%
%ADD11C,0.0060*%
%ADD12C,0.0100*%
%ADD13C,0.0070*%
%ADD14C,0.0050*%
%ADD15C,0.0030*%
%ADD16R,0.0098X0.0098*%
%ADD17C,0.0080*%
%ADD18C,0.0020*%
D10*
X003149Y002980D02*
X003149Y009279D01*
X003148Y009279D02*
X003150Y009318D01*
X003156Y009356D01*
X003165Y009393D01*
X003178Y009430D01*
X003195Y009465D01*
X003214Y009498D01*
X003237Y009529D01*
X003263Y009558D01*
X003292Y009584D01*
X003323Y009607D01*
X003356Y009626D01*
X003391Y009643D01*
X003428Y009656D01*
X003465Y009665D01*
X003503Y009671D01*
X003542Y009673D01*
X003540Y009670D02*
X004560Y009670D01*
X004565Y009670D02*
X004618Y009673D01*
X004672Y009679D01*
X004724Y009689D01*
X004776Y009703D01*
X004826Y009721D01*
X004876Y009742D01*
X004923Y009767D01*
X004969Y009795D01*
X005012Y009826D01*
X005054Y009860D01*
X005092Y009897D01*
X005128Y009936D01*
X005161Y009979D01*
X005191Y010023D01*
X005218Y010069D01*
X005241Y010118D01*
X005261Y010167D01*
X005277Y010218D01*
X005290Y010270D01*
X005299Y010323D01*
X005304Y010376D01*
X005305Y010430D01*
X005421Y010930D02*
X005423Y010957D01*
X005429Y010984D01*
X005438Y011010D01*
X005451Y011034D01*
X005467Y011057D01*
X005486Y011076D01*
X005508Y011093D01*
X005532Y011107D01*
X005557Y011117D01*
X005584Y011124D01*
X005611Y011127D01*
X005639Y011126D01*
X005666Y011121D01*
X005692Y011113D01*
X005716Y011101D01*
X005739Y011085D01*
X005760Y011067D01*
X005777Y011046D01*
X005792Y011022D01*
X005803Y010997D01*
X005811Y010971D01*
X005815Y010944D01*
X005815Y010916D01*
X005811Y010889D01*
X005803Y010863D01*
X005792Y010838D01*
X005777Y010814D01*
X005760Y010793D01*
X005739Y010775D01*
X005717Y010759D01*
X005692Y010747D01*
X005666Y010739D01*
X005639Y010734D01*
X005611Y010733D01*
X005584Y010736D01*
X005557Y010743D01*
X005532Y010753D01*
X005508Y010767D01*
X005486Y010784D01*
X005467Y010803D01*
X005451Y010826D01*
X005438Y010850D01*
X005429Y010876D01*
X005423Y010903D01*
X005421Y010930D01*
X005983Y010930D02*
X005985Y010957D01*
X005991Y010984D01*
X006000Y011010D01*
X006013Y011034D01*
X006029Y011057D01*
X006048Y011076D01*
X006070Y011093D01*
X006094Y011107D01*
X006119Y011117D01*
X006146Y011124D01*
X006173Y011127D01*
X006201Y011126D01*
X006228Y011121D01*
X006254Y011113D01*
X006278Y011101D01*
X006301Y011085D01*
X006322Y011067D01*
X006339Y011046D01*
X006354Y011022D01*
X006365Y010997D01*
X006373Y010971D01*
X006377Y010944D01*
X006377Y010916D01*
X006373Y010889D01*
X006365Y010863D01*
X006354Y010838D01*
X006339Y010814D01*
X006322Y010793D01*
X006301Y010775D01*
X006279Y010759D01*
X006254Y010747D01*
X006228Y010739D01*
X006201Y010734D01*
X006173Y010733D01*
X006146Y010736D01*
X006119Y010743D01*
X006094Y010753D01*
X006070Y010767D01*
X006048Y010784D01*
X006029Y010803D01*
X006013Y010826D01*
X006000Y010850D01*
X005991Y010876D01*
X005985Y010903D01*
X005983Y010930D01*
X006546Y010930D02*
X006548Y010957D01*
X006554Y010984D01*
X006563Y011010D01*
X006576Y011034D01*
X006592Y011057D01*
X006611Y011076D01*
X006633Y011093D01*
X006657Y011107D01*
X006682Y011117D01*
X006709Y011124D01*
X006736Y011127D01*
X006764Y011126D01*
X006791Y011121D01*
X006817Y011113D01*
X006841Y011101D01*
X006864Y011085D01*
X006885Y011067D01*
X006902Y011046D01*
X006917Y011022D01*
X006928Y010997D01*
X006936Y010971D01*
X006940Y010944D01*
X006940Y010916D01*
X006936Y010889D01*
X006928Y010863D01*
X006917Y010838D01*
X006902Y010814D01*
X006885Y010793D01*
X006864Y010775D01*
X006842Y010759D01*
X006817Y010747D01*
X006791Y010739D01*
X006764Y010734D01*
X006736Y010733D01*
X006709Y010736D01*
X006682Y010743D01*
X006657Y010753D01*
X006633Y010767D01*
X006611Y010784D01*
X006592Y010803D01*
X006576Y010826D01*
X006563Y010850D01*
X006554Y010876D01*
X006548Y010903D01*
X006546Y010930D01*
X006546Y009930D02*
X006548Y009957D01*
X006554Y009984D01*
X006563Y010010D01*
X006576Y010034D01*
X006592Y010057D01*
X006611Y010076D01*
X006633Y010093D01*
X006657Y010107D01*
X006682Y010117D01*
X006709Y010124D01*
X006736Y010127D01*
X006764Y010126D01*
X006791Y010121D01*
X006817Y010113D01*
X006841Y010101D01*
X006864Y010085D01*
X006885Y010067D01*
X006902Y010046D01*
X006917Y010022D01*
X006928Y009997D01*
X006936Y009971D01*
X006940Y009944D01*
X006940Y009916D01*
X006936Y009889D01*
X006928Y009863D01*
X006917Y009838D01*
X006902Y009814D01*
X006885Y009793D01*
X006864Y009775D01*
X006842Y009759D01*
X006817Y009747D01*
X006791Y009739D01*
X006764Y009734D01*
X006736Y009733D01*
X006709Y009736D01*
X006682Y009743D01*
X006657Y009753D01*
X006633Y009767D01*
X006611Y009784D01*
X006592Y009803D01*
X006576Y009826D01*
X006563Y009850D01*
X006554Y009876D01*
X006548Y009903D01*
X006546Y009930D01*
X005983Y009930D02*
X005985Y009957D01*
X005991Y009984D01*
X006000Y010010D01*
X006013Y010034D01*
X006029Y010057D01*
X006048Y010076D01*
X006070Y010093D01*
X006094Y010107D01*
X006119Y010117D01*
X006146Y010124D01*
X006173Y010127D01*
X006201Y010126D01*
X006228Y010121D01*
X006254Y010113D01*
X006278Y010101D01*
X006301Y010085D01*
X006322Y010067D01*
X006339Y010046D01*
X006354Y010022D01*
X006365Y009997D01*
X006373Y009971D01*
X006377Y009944D01*
X006377Y009916D01*
X006373Y009889D01*
X006365Y009863D01*
X006354Y009838D01*
X006339Y009814D01*
X006322Y009793D01*
X006301Y009775D01*
X006279Y009759D01*
X006254Y009747D01*
X006228Y009739D01*
X006201Y009734D01*
X006173Y009733D01*
X006146Y009736D01*
X006119Y009743D01*
X006094Y009753D01*
X006070Y009767D01*
X006048Y009784D01*
X006029Y009803D01*
X006013Y009826D01*
X006000Y009850D01*
X005991Y009876D01*
X005985Y009903D01*
X005983Y009930D01*
X005421Y009930D02*
X005423Y009957D01*
X005429Y009984D01*
X005438Y010010D01*
X005451Y010034D01*
X005467Y010057D01*
X005486Y010076D01*
X005508Y010093D01*
X005532Y010107D01*
X005557Y010117D01*
X005584Y010124D01*
X005611Y010127D01*
X005639Y010126D01*
X005666Y010121D01*
X005692Y010113D01*
X005716Y010101D01*
X005739Y010085D01*
X005760Y010067D01*
X005777Y010046D01*
X005792Y010022D01*
X005803Y009997D01*
X005811Y009971D01*
X005815Y009944D01*
X005815Y009916D01*
X005811Y009889D01*
X005803Y009863D01*
X005792Y009838D01*
X005777Y009814D01*
X005760Y009793D01*
X005739Y009775D01*
X005717Y009759D01*
X005692Y009747D01*
X005666Y009739D01*
X005639Y009734D01*
X005611Y009733D01*
X005584Y009736D01*
X005557Y009743D01*
X005532Y009753D01*
X005508Y009767D01*
X005486Y009784D01*
X005467Y009803D01*
X005451Y009826D01*
X005438Y009850D01*
X005429Y009876D01*
X005423Y009903D01*
X005421Y009930D01*
X005305Y010430D02*
X005303Y010484D01*
X005297Y010537D01*
X005288Y010589D01*
X005275Y010641D01*
X005258Y010692D01*
X005237Y010742D01*
X005213Y010789D01*
X005186Y010835D01*
X005155Y010879D01*
X005122Y010921D01*
X005085Y010960D01*
X005046Y010997D01*
X005004Y011030D01*
X004960Y011061D01*
X004914Y011088D01*
X004867Y011112D01*
X004817Y011133D01*
X004766Y011150D01*
X004714Y011163D01*
X004662Y011172D01*
X004609Y011178D01*
X004555Y011180D01*
X004560Y011180D02*
X003540Y011180D01*
X003542Y011180D02*
X003503Y011182D01*
X003465Y011188D01*
X003428Y011197D01*
X003391Y011210D01*
X003356Y011227D01*
X003323Y011246D01*
X003292Y011269D01*
X003263Y011295D01*
X003237Y011324D01*
X003214Y011355D01*
X003195Y011388D01*
X003178Y011423D01*
X003165Y011460D01*
X003156Y011497D01*
X003150Y011535D01*
X003148Y011574D01*
X003149Y011574D02*
X003149Y017873D01*
X003148Y017873D02*
X003150Y017912D01*
X003156Y017950D01*
X003165Y017987D01*
X003178Y018024D01*
X003195Y018059D01*
X003214Y018092D01*
X003237Y018123D01*
X003263Y018152D01*
X003292Y018178D01*
X003323Y018201D01*
X003356Y018220D01*
X003391Y018237D01*
X003428Y018250D01*
X003465Y018259D01*
X003503Y018265D01*
X003542Y018267D01*
X008786Y018267D01*
X008825Y018265D01*
X008863Y018259D01*
X008900Y018250D01*
X008937Y018237D01*
X008972Y018220D01*
X009005Y018201D01*
X009036Y018178D01*
X009065Y018152D01*
X009091Y018123D01*
X009114Y018092D01*
X009133Y018059D01*
X009150Y018024D01*
X009163Y017987D01*
X009172Y017950D01*
X009178Y017912D01*
X009180Y017873D01*
X009180Y017868D02*
X009180Y016305D01*
X009182Y016251D01*
X009188Y016198D01*
X009197Y016146D01*
X009210Y016094D01*
X009227Y016043D01*
X009248Y015993D01*
X009272Y015946D01*
X009299Y015900D01*
X009330Y015856D01*
X009363Y015814D01*
X009400Y015775D01*
X009439Y015738D01*
X009481Y015705D01*
X009525Y015674D01*
X009571Y015647D01*
X009618Y015623D01*
X009668Y015602D01*
X009719Y015585D01*
X009771Y015572D01*
X009823Y015563D01*
X009876Y015557D01*
X009930Y015555D01*
X009233Y015243D02*
X009235Y015270D01*
X009241Y015297D01*
X009250Y015323D01*
X009263Y015347D01*
X009279Y015370D01*
X009298Y015389D01*
X009320Y015406D01*
X009344Y015420D01*
X009369Y015430D01*
X009396Y015437D01*
X009423Y015440D01*
X009451Y015439D01*
X009478Y015434D01*
X009504Y015426D01*
X009528Y015414D01*
X009551Y015398D01*
X009572Y015380D01*
X009589Y015359D01*
X009604Y015335D01*
X009615Y015310D01*
X009623Y015284D01*
X009627Y015257D01*
X009627Y015229D01*
X009623Y015202D01*
X009615Y015176D01*
X009604Y015151D01*
X009589Y015127D01*
X009572Y015106D01*
X009551Y015088D01*
X009529Y015072D01*
X009504Y015060D01*
X009478Y015052D01*
X009451Y015047D01*
X009423Y015046D01*
X009396Y015049D01*
X009369Y015056D01*
X009344Y015066D01*
X009320Y015080D01*
X009298Y015097D01*
X009279Y015116D01*
X009263Y015139D01*
X009250Y015163D01*
X009241Y015189D01*
X009235Y015216D01*
X009233Y015243D01*
X009233Y014680D02*
X009235Y014707D01*
X009241Y014734D01*
X009250Y014760D01*
X009263Y014784D01*
X009279Y014807D01*
X009298Y014826D01*
X009320Y014843D01*
X009344Y014857D01*
X009369Y014867D01*
X009396Y014874D01*
X009423Y014877D01*
X009451Y014876D01*
X009478Y014871D01*
X009504Y014863D01*
X009528Y014851D01*
X009551Y014835D01*
X009572Y014817D01*
X009589Y014796D01*
X009604Y014772D01*
X009615Y014747D01*
X009623Y014721D01*
X009627Y014694D01*
X009627Y014666D01*
X009623Y014639D01*
X009615Y014613D01*
X009604Y014588D01*
X009589Y014564D01*
X009572Y014543D01*
X009551Y014525D01*
X009529Y014509D01*
X009504Y014497D01*
X009478Y014489D01*
X009451Y014484D01*
X009423Y014483D01*
X009396Y014486D01*
X009369Y014493D01*
X009344Y014503D01*
X009320Y014517D01*
X009298Y014534D01*
X009279Y014553D01*
X009263Y014576D01*
X009250Y014600D01*
X009241Y014626D01*
X009235Y014653D01*
X009233Y014680D01*
X009233Y014118D02*
X009235Y014145D01*
X009241Y014172D01*
X009250Y014198D01*
X009263Y014222D01*
X009279Y014245D01*
X009298Y014264D01*
X009320Y014281D01*
X009344Y014295D01*
X009369Y014305D01*
X009396Y014312D01*
X009423Y014315D01*
X009451Y014314D01*
X009478Y014309D01*
X009504Y014301D01*
X009528Y014289D01*
X009551Y014273D01*
X009572Y014255D01*
X009589Y014234D01*
X009604Y014210D01*
X009615Y014185D01*
X009623Y014159D01*
X009627Y014132D01*
X009627Y014104D01*
X009623Y014077D01*
X009615Y014051D01*
X009604Y014026D01*
X009589Y014002D01*
X009572Y013981D01*
X009551Y013963D01*
X009529Y013947D01*
X009504Y013935D01*
X009478Y013927D01*
X009451Y013922D01*
X009423Y013921D01*
X009396Y013924D01*
X009369Y013931D01*
X009344Y013941D01*
X009320Y013955D01*
X009298Y013972D01*
X009279Y013991D01*
X009263Y014014D01*
X009250Y014038D01*
X009241Y014064D01*
X009235Y014091D01*
X009233Y014118D01*
X009180Y013055D02*
X009180Y011555D01*
X009180Y011574D02*
X009178Y011535D01*
X009172Y011497D01*
X009163Y011460D01*
X009150Y011423D01*
X009133Y011388D01*
X009114Y011355D01*
X009091Y011324D01*
X009065Y011295D01*
X009036Y011269D01*
X009005Y011246D01*
X008972Y011227D01*
X008937Y011210D01*
X008900Y011197D01*
X008863Y011188D01*
X008825Y011182D01*
X008786Y011180D01*
X008790Y011180D02*
X007800Y011180D01*
X007805Y011180D02*
X007751Y011178D01*
X007698Y011172D01*
X007646Y011163D01*
X007594Y011150D01*
X007543Y011133D01*
X007493Y011112D01*
X007446Y011088D01*
X007400Y011061D01*
X007356Y011030D01*
X007314Y010997D01*
X007275Y010960D01*
X007238Y010921D01*
X007205Y010879D01*
X007174Y010835D01*
X007147Y010789D01*
X007123Y010742D01*
X007102Y010692D01*
X007085Y010641D01*
X007072Y010589D01*
X007063Y010537D01*
X007057Y010484D01*
X007055Y010430D01*
X007057Y010376D01*
X007063Y010322D01*
X007072Y010268D01*
X007086Y010216D01*
X007103Y010164D01*
X007124Y010114D01*
X007148Y010066D01*
X007176Y010019D01*
X007207Y009975D01*
X007241Y009932D01*
X007278Y009893D01*
X007317Y009856D01*
X007360Y009822D01*
X007404Y009791D01*
X007451Y009763D01*
X007499Y009739D01*
X007549Y009718D01*
X007601Y009701D01*
X007653Y009687D01*
X007707Y009678D01*
X007761Y009672D01*
X007815Y009670D01*
X008790Y009670D01*
X008786Y009673D02*
X008825Y009671D01*
X008863Y009665D01*
X008900Y009656D01*
X008937Y009643D01*
X008972Y009626D01*
X009005Y009607D01*
X009036Y009584D01*
X009065Y009558D01*
X009091Y009529D01*
X009114Y009498D01*
X009133Y009465D01*
X009150Y009430D01*
X009163Y009393D01*
X009172Y009356D01*
X009178Y009318D01*
X009180Y009279D01*
X009180Y009274D02*
X009180Y007711D01*
X009182Y007657D01*
X009188Y007604D01*
X009197Y007552D01*
X009210Y007500D01*
X009227Y007449D01*
X009248Y007399D01*
X009272Y007352D01*
X009299Y007306D01*
X009330Y007262D01*
X009363Y007220D01*
X009400Y007181D01*
X009439Y007144D01*
X009481Y007111D01*
X009525Y007080D01*
X009571Y007053D01*
X009618Y007029D01*
X009668Y007008D01*
X009719Y006991D01*
X009771Y006978D01*
X009823Y006969D01*
X009876Y006963D01*
X009930Y006961D01*
X009233Y006649D02*
X009235Y006676D01*
X009241Y006703D01*
X009250Y006729D01*
X009263Y006753D01*
X009279Y006776D01*
X009298Y006795D01*
X009320Y006812D01*
X009344Y006826D01*
X009369Y006836D01*
X009396Y006843D01*
X009423Y006846D01*
X009451Y006845D01*
X009478Y006840D01*
X009504Y006832D01*
X009528Y006820D01*
X009551Y006804D01*
X009572Y006786D01*
X009589Y006765D01*
X009604Y006741D01*
X009615Y006716D01*
X009623Y006690D01*
X009627Y006663D01*
X009627Y006635D01*
X009623Y006608D01*
X009615Y006582D01*
X009604Y006557D01*
X009589Y006533D01*
X009572Y006512D01*
X009551Y006494D01*
X009529Y006478D01*
X009504Y006466D01*
X009478Y006458D01*
X009451Y006453D01*
X009423Y006452D01*
X009396Y006455D01*
X009369Y006462D01*
X009344Y006472D01*
X009320Y006486D01*
X009298Y006503D01*
X009279Y006522D01*
X009263Y006545D01*
X009250Y006569D01*
X009241Y006595D01*
X009235Y006622D01*
X009233Y006649D01*
X009233Y006086D02*
X009235Y006113D01*
X009241Y006140D01*
X009250Y006166D01*
X009263Y006190D01*
X009279Y006213D01*
X009298Y006232D01*
X009320Y006249D01*
X009344Y006263D01*
X009369Y006273D01*
X009396Y006280D01*
X009423Y006283D01*
X009451Y006282D01*
X009478Y006277D01*
X009504Y006269D01*
X009528Y006257D01*
X009551Y006241D01*
X009572Y006223D01*
X009589Y006202D01*
X009604Y006178D01*
X009615Y006153D01*
X009623Y006127D01*
X009627Y006100D01*
X009627Y006072D01*
X009623Y006045D01*
X009615Y006019D01*
X009604Y005994D01*
X009589Y005970D01*
X009572Y005949D01*
X009551Y005931D01*
X009529Y005915D01*
X009504Y005903D01*
X009478Y005895D01*
X009451Y005890D01*
X009423Y005889D01*
X009396Y005892D01*
X009369Y005899D01*
X009344Y005909D01*
X009320Y005923D01*
X009298Y005940D01*
X009279Y005959D01*
X009263Y005982D01*
X009250Y006006D01*
X009241Y006032D01*
X009235Y006059D01*
X009233Y006086D01*
X009233Y005524D02*
X009235Y005551D01*
X009241Y005578D01*
X009250Y005604D01*
X009263Y005628D01*
X009279Y005651D01*
X009298Y005670D01*
X009320Y005687D01*
X009344Y005701D01*
X009369Y005711D01*
X009396Y005718D01*
X009423Y005721D01*
X009451Y005720D01*
X009478Y005715D01*
X009504Y005707D01*
X009528Y005695D01*
X009551Y005679D01*
X009572Y005661D01*
X009589Y005640D01*
X009604Y005616D01*
X009615Y005591D01*
X009623Y005565D01*
X009627Y005538D01*
X009627Y005510D01*
X009623Y005483D01*
X009615Y005457D01*
X009604Y005432D01*
X009589Y005408D01*
X009572Y005387D01*
X009551Y005369D01*
X009529Y005353D01*
X009504Y005341D01*
X009478Y005333D01*
X009451Y005328D01*
X009423Y005327D01*
X009396Y005330D01*
X009369Y005337D01*
X009344Y005347D01*
X009320Y005361D01*
X009298Y005378D01*
X009279Y005397D01*
X009263Y005420D01*
X009250Y005444D01*
X009241Y005470D01*
X009235Y005497D01*
X009233Y005524D01*
X009180Y004461D02*
X009180Y002961D01*
X009180Y002980D02*
X009178Y002941D01*
X009172Y002903D01*
X009163Y002866D01*
X009150Y002829D01*
X009133Y002794D01*
X009114Y002761D01*
X009091Y002730D01*
X009065Y002701D01*
X009036Y002675D01*
X009005Y002652D01*
X008972Y002633D01*
X008937Y002616D01*
X008900Y002603D01*
X008863Y002594D01*
X008825Y002588D01*
X008786Y002586D01*
X003542Y002586D01*
X003503Y002588D01*
X003465Y002594D01*
X003428Y002603D01*
X003391Y002616D01*
X003356Y002633D01*
X003323Y002652D01*
X003292Y002675D01*
X003263Y002701D01*
X003237Y002730D01*
X003214Y002761D01*
X003195Y002794D01*
X003178Y002829D01*
X003165Y002866D01*
X003156Y002903D01*
X003150Y002941D01*
X003148Y002980D01*
X003503Y003374D02*
X003505Y003415D01*
X003511Y003456D01*
X003521Y003496D01*
X003534Y003535D01*
X003551Y003572D01*
X003572Y003608D01*
X003596Y003642D01*
X003623Y003673D01*
X003652Y003701D01*
X003685Y003727D01*
X003719Y003749D01*
X003756Y003768D01*
X003794Y003783D01*
X003834Y003795D01*
X003874Y003803D01*
X003915Y003807D01*
X003957Y003807D01*
X003998Y003803D01*
X004038Y003795D01*
X004078Y003783D01*
X004116Y003768D01*
X004152Y003749D01*
X004187Y003727D01*
X004220Y003701D01*
X004249Y003673D01*
X004276Y003642D01*
X004300Y003608D01*
X004321Y003572D01*
X004338Y003535D01*
X004351Y003496D01*
X004361Y003456D01*
X004367Y003415D01*
X004369Y003374D01*
X004367Y003333D01*
X004361Y003292D01*
X004351Y003252D01*
X004338Y003213D01*
X004321Y003176D01*
X004300Y003140D01*
X004276Y003106D01*
X004249Y003075D01*
X004220Y003047D01*
X004187Y003021D01*
X004153Y002999D01*
X004116Y002980D01*
X004078Y002965D01*
X004038Y002953D01*
X003998Y002945D01*
X003957Y002941D01*
X003915Y002941D01*
X003874Y002945D01*
X003834Y002953D01*
X003794Y002965D01*
X003756Y002980D01*
X003720Y002999D01*
X003685Y003021D01*
X003652Y003047D01*
X003623Y003075D01*
X003596Y003106D01*
X003572Y003140D01*
X003551Y003176D01*
X003534Y003213D01*
X003521Y003252D01*
X003511Y003292D01*
X003505Y003333D01*
X003503Y003374D01*
X003503Y008885D02*
X003505Y008926D01*
X003511Y008967D01*
X003521Y009007D01*
X003534Y009046D01*
X003551Y009083D01*
X003572Y009119D01*
X003596Y009153D01*
X003623Y009184D01*
X003652Y009212D01*
X003685Y009238D01*
X003719Y009260D01*
X003756Y009279D01*
X003794Y009294D01*
X003834Y009306D01*
X003874Y009314D01*
X003915Y009318D01*
X003957Y009318D01*
X003998Y009314D01*
X004038Y009306D01*
X004078Y009294D01*
X004116Y009279D01*
X004152Y009260D01*
X004187Y009238D01*
X004220Y009212D01*
X004249Y009184D01*
X004276Y009153D01*
X004300Y009119D01*
X004321Y009083D01*
X004338Y009046D01*
X004351Y009007D01*
X004361Y008967D01*
X004367Y008926D01*
X004369Y008885D01*
X004367Y008844D01*
X004361Y008803D01*
X004351Y008763D01*
X004338Y008724D01*
X004321Y008687D01*
X004300Y008651D01*
X004276Y008617D01*
X004249Y008586D01*
X004220Y008558D01*
X004187Y008532D01*
X004153Y008510D01*
X004116Y008491D01*
X004078Y008476D01*
X004038Y008464D01*
X003998Y008456D01*
X003957Y008452D01*
X003915Y008452D01*
X003874Y008456D01*
X003834Y008464D01*
X003794Y008476D01*
X003756Y008491D01*
X003720Y008510D01*
X003685Y008532D01*
X003652Y008558D01*
X003623Y008586D01*
X003596Y008617D01*
X003572Y008651D01*
X003551Y008687D01*
X003534Y008724D01*
X003521Y008763D01*
X003511Y008803D01*
X003505Y008844D01*
X003503Y008885D01*
X003503Y011967D02*
X003505Y012008D01*
X003511Y012049D01*
X003521Y012089D01*
X003534Y012128D01*
X003551Y012165D01*
X003572Y012201D01*
X003596Y012235D01*
X003623Y012266D01*
X003652Y012294D01*
X003685Y012320D01*
X003719Y012342D01*
X003756Y012361D01*
X003794Y012376D01*
X003834Y012388D01*
X003874Y012396D01*
X003915Y012400D01*
X003957Y012400D01*
X003998Y012396D01*
X004038Y012388D01*
X004078Y012376D01*
X004116Y012361D01*
X004152Y012342D01*
X004187Y012320D01*
X004220Y012294D01*
X004249Y012266D01*
X004276Y012235D01*
X004300Y012201D01*
X004321Y012165D01*
X004338Y012128D01*
X004351Y012089D01*
X004361Y012049D01*
X004367Y012008D01*
X004369Y011967D01*
X004367Y011926D01*
X004361Y011885D01*
X004351Y011845D01*
X004338Y011806D01*
X004321Y011769D01*
X004300Y011733D01*
X004276Y011699D01*
X004249Y011668D01*
X004220Y011640D01*
X004187Y011614D01*
X004153Y011592D01*
X004116Y011573D01*
X004078Y011558D01*
X004038Y011546D01*
X003998Y011538D01*
X003957Y011534D01*
X003915Y011534D01*
X003874Y011538D01*
X003834Y011546D01*
X003794Y011558D01*
X003756Y011573D01*
X003720Y011592D01*
X003685Y011614D01*
X003652Y011640D01*
X003623Y011668D01*
X003596Y011699D01*
X003572Y011733D01*
X003551Y011769D01*
X003534Y011806D01*
X003521Y011845D01*
X003511Y011885D01*
X003505Y011926D01*
X003503Y011967D01*
X007810Y009670D02*
X007815Y009670D01*
X009930Y006961D02*
X009984Y006963D01*
X010037Y006969D01*
X010089Y006978D01*
X010141Y006991D01*
X010192Y007008D01*
X010242Y007029D01*
X010289Y007053D01*
X010335Y007080D01*
X010379Y007111D01*
X010421Y007144D01*
X010460Y007181D01*
X010497Y007220D01*
X010530Y007262D01*
X010561Y007306D01*
X010588Y007352D01*
X010612Y007399D01*
X010633Y007449D01*
X010650Y007500D01*
X010663Y007552D01*
X010672Y007604D01*
X010678Y007657D01*
X010680Y007711D01*
X010680Y009279D01*
X010682Y009318D01*
X010688Y009356D01*
X010697Y009393D01*
X010710Y009430D01*
X010727Y009465D01*
X010746Y009498D01*
X010769Y009529D01*
X010795Y009558D01*
X010824Y009584D01*
X010855Y009607D01*
X010888Y009626D01*
X010923Y009643D01*
X010960Y009656D01*
X010997Y009665D01*
X011035Y009671D01*
X011074Y009673D01*
X016317Y009673D01*
X016356Y009671D01*
X016394Y009665D01*
X016431Y009656D01*
X016468Y009643D01*
X016503Y009626D01*
X016536Y009607D01*
X016567Y009584D01*
X016596Y009558D01*
X016622Y009529D01*
X016645Y009498D01*
X016664Y009465D01*
X016681Y009430D01*
X016694Y009393D01*
X016703Y009356D01*
X016709Y009318D01*
X016711Y009279D01*
X016711Y002980D01*
X016709Y002941D01*
X016703Y002903D01*
X016694Y002866D01*
X016681Y002829D01*
X016664Y002794D01*
X016645Y002761D01*
X016622Y002730D01*
X016596Y002701D01*
X016567Y002675D01*
X016536Y002652D01*
X016503Y002633D01*
X016468Y002616D01*
X016431Y002603D01*
X016394Y002594D01*
X016356Y002588D01*
X016317Y002586D01*
X011074Y002586D01*
X011035Y002588D01*
X010997Y002594D01*
X010960Y002603D01*
X010923Y002616D01*
X010888Y002633D01*
X010855Y002652D01*
X010824Y002675D01*
X010795Y002701D01*
X010769Y002730D01*
X010746Y002761D01*
X010727Y002794D01*
X010710Y002829D01*
X010697Y002866D01*
X010688Y002903D01*
X010682Y002941D01*
X010680Y002980D01*
X010680Y004461D01*
X009930Y005211D02*
X009876Y005209D01*
X009823Y005203D01*
X009771Y005194D01*
X009719Y005181D01*
X009668Y005164D01*
X009618Y005143D01*
X009571Y005119D01*
X009525Y005092D01*
X009481Y005061D01*
X009439Y005028D01*
X009400Y004991D01*
X009363Y004952D01*
X009330Y004910D01*
X009299Y004866D01*
X009272Y004820D01*
X009248Y004773D01*
X009227Y004723D01*
X009210Y004672D01*
X009197Y004620D01*
X009188Y004568D01*
X009182Y004515D01*
X009180Y004461D01*
X009930Y005211D02*
X009984Y005209D01*
X010037Y005203D01*
X010089Y005194D01*
X010141Y005181D01*
X010192Y005164D01*
X010242Y005143D01*
X010289Y005119D01*
X010335Y005092D01*
X010379Y005061D01*
X010421Y005028D01*
X010460Y004991D01*
X010497Y004952D01*
X010530Y004910D01*
X010561Y004866D01*
X010588Y004820D01*
X010612Y004773D01*
X010633Y004723D01*
X010650Y004672D01*
X010663Y004620D01*
X010672Y004568D01*
X010678Y004515D01*
X010680Y004461D01*
X010233Y005524D02*
X010235Y005551D01*
X010241Y005578D01*
X010250Y005604D01*
X010263Y005628D01*
X010279Y005651D01*
X010298Y005670D01*
X010320Y005687D01*
X010344Y005701D01*
X010369Y005711D01*
X010396Y005718D01*
X010423Y005721D01*
X010451Y005720D01*
X010478Y005715D01*
X010504Y005707D01*
X010528Y005695D01*
X010551Y005679D01*
X010572Y005661D01*
X010589Y005640D01*
X010604Y005616D01*
X010615Y005591D01*
X010623Y005565D01*
X010627Y005538D01*
X010627Y005510D01*
X010623Y005483D01*
X010615Y005457D01*
X010604Y005432D01*
X010589Y005408D01*
X010572Y005387D01*
X010551Y005369D01*
X010529Y005353D01*
X010504Y005341D01*
X010478Y005333D01*
X010451Y005328D01*
X010423Y005327D01*
X010396Y005330D01*
X010369Y005337D01*
X010344Y005347D01*
X010320Y005361D01*
X010298Y005378D01*
X010279Y005397D01*
X010263Y005420D01*
X010250Y005444D01*
X010241Y005470D01*
X010235Y005497D01*
X010233Y005524D01*
X010233Y006086D02*
X010235Y006113D01*
X010241Y006140D01*
X010250Y006166D01*
X010263Y006190D01*
X010279Y006213D01*
X010298Y006232D01*
X010320Y006249D01*
X010344Y006263D01*
X010369Y006273D01*
X010396Y006280D01*
X010423Y006283D01*
X010451Y006282D01*
X010478Y006277D01*
X010504Y006269D01*
X010528Y006257D01*
X010551Y006241D01*
X010572Y006223D01*
X010589Y006202D01*
X010604Y006178D01*
X010615Y006153D01*
X010623Y006127D01*
X010627Y006100D01*
X010627Y006072D01*
X010623Y006045D01*
X010615Y006019D01*
X010604Y005994D01*
X010589Y005970D01*
X010572Y005949D01*
X010551Y005931D01*
X010529Y005915D01*
X010504Y005903D01*
X010478Y005895D01*
X010451Y005890D01*
X010423Y005889D01*
X010396Y005892D01*
X010369Y005899D01*
X010344Y005909D01*
X010320Y005923D01*
X010298Y005940D01*
X010279Y005959D01*
X010263Y005982D01*
X010250Y006006D01*
X010241Y006032D01*
X010235Y006059D01*
X010233Y006086D01*
X010233Y006649D02*
X010235Y006676D01*
X010241Y006703D01*
X010250Y006729D01*
X010263Y006753D01*
X010279Y006776D01*
X010298Y006795D01*
X010320Y006812D01*
X010344Y006826D01*
X010369Y006836D01*
X010396Y006843D01*
X010423Y006846D01*
X010451Y006845D01*
X010478Y006840D01*
X010504Y006832D01*
X010528Y006820D01*
X010551Y006804D01*
X010572Y006786D01*
X010589Y006765D01*
X010604Y006741D01*
X010615Y006716D01*
X010623Y006690D01*
X010627Y006663D01*
X010627Y006635D01*
X010623Y006608D01*
X010615Y006582D01*
X010604Y006557D01*
X010589Y006533D01*
X010572Y006512D01*
X010551Y006494D01*
X010529Y006478D01*
X010504Y006466D01*
X010478Y006458D01*
X010451Y006453D01*
X010423Y006452D01*
X010396Y006455D01*
X010369Y006462D01*
X010344Y006472D01*
X010320Y006486D01*
X010298Y006503D01*
X010279Y006522D01*
X010263Y006545D01*
X010250Y006569D01*
X010241Y006595D01*
X010235Y006622D01*
X010233Y006649D01*
X011034Y008885D02*
X011036Y008926D01*
X011042Y008967D01*
X011052Y009007D01*
X011065Y009046D01*
X011082Y009083D01*
X011103Y009119D01*
X011127Y009153D01*
X011154Y009184D01*
X011183Y009212D01*
X011216Y009238D01*
X011250Y009260D01*
X011287Y009279D01*
X011325Y009294D01*
X011365Y009306D01*
X011405Y009314D01*
X011446Y009318D01*
X011488Y009318D01*
X011529Y009314D01*
X011569Y009306D01*
X011609Y009294D01*
X011647Y009279D01*
X011683Y009260D01*
X011718Y009238D01*
X011751Y009212D01*
X011780Y009184D01*
X011807Y009153D01*
X011831Y009119D01*
X011852Y009083D01*
X011869Y009046D01*
X011882Y009007D01*
X011892Y008967D01*
X011898Y008926D01*
X011900Y008885D01*
X011898Y008844D01*
X011892Y008803D01*
X011882Y008763D01*
X011869Y008724D01*
X011852Y008687D01*
X011831Y008651D01*
X011807Y008617D01*
X011780Y008586D01*
X011751Y008558D01*
X011718Y008532D01*
X011684Y008510D01*
X011647Y008491D01*
X011609Y008476D01*
X011569Y008464D01*
X011529Y008456D01*
X011488Y008452D01*
X011446Y008452D01*
X011405Y008456D01*
X011365Y008464D01*
X011325Y008476D01*
X011287Y008491D01*
X011251Y008510D01*
X011216Y008532D01*
X011183Y008558D01*
X011154Y008586D01*
X011127Y008617D01*
X011103Y008651D01*
X011082Y008687D01*
X011065Y008724D01*
X011052Y008763D01*
X011042Y008803D01*
X011036Y008844D01*
X011034Y008885D01*
X011074Y011180D02*
X016317Y011180D01*
X016356Y011182D01*
X016394Y011188D01*
X016431Y011197D01*
X016468Y011210D01*
X016503Y011227D01*
X016536Y011246D01*
X016567Y011269D01*
X016596Y011295D01*
X016622Y011324D01*
X016645Y011355D01*
X016664Y011388D01*
X016681Y011423D01*
X016694Y011460D01*
X016703Y011497D01*
X016709Y011535D01*
X016711Y011574D01*
X016711Y017873D01*
X016709Y017912D01*
X016703Y017950D01*
X016694Y017987D01*
X016681Y018024D01*
X016664Y018059D01*
X016645Y018092D01*
X016622Y018123D01*
X016596Y018152D01*
X016567Y018178D01*
X016536Y018201D01*
X016503Y018220D01*
X016468Y018237D01*
X016431Y018250D01*
X016394Y018259D01*
X016356Y018265D01*
X016317Y018267D01*
X011074Y018267D01*
X011035Y018265D01*
X010997Y018259D01*
X010960Y018250D01*
X010923Y018237D01*
X010888Y018220D01*
X010855Y018201D01*
X010824Y018178D01*
X010795Y018152D01*
X010769Y018123D01*
X010746Y018092D01*
X010727Y018059D01*
X010710Y018024D01*
X010697Y017987D01*
X010688Y017950D01*
X010682Y017912D01*
X010680Y017873D01*
X010680Y016305D01*
X010678Y016251D01*
X010672Y016198D01*
X010663Y016146D01*
X010650Y016094D01*
X010633Y016043D01*
X010612Y015993D01*
X010588Y015946D01*
X010561Y015900D01*
X010530Y015856D01*
X010497Y015814D01*
X010460Y015775D01*
X010421Y015738D01*
X010379Y015705D01*
X010335Y015674D01*
X010289Y015647D01*
X010242Y015623D01*
X010192Y015602D01*
X010141Y015585D01*
X010089Y015572D01*
X010037Y015563D01*
X009984Y015557D01*
X009930Y015555D01*
X010233Y015243D02*
X010235Y015270D01*
X010241Y015297D01*
X010250Y015323D01*
X010263Y015347D01*
X010279Y015370D01*
X010298Y015389D01*
X010320Y015406D01*
X010344Y015420D01*
X010369Y015430D01*
X010396Y015437D01*
X010423Y015440D01*
X010451Y015439D01*
X010478Y015434D01*
X010504Y015426D01*
X010528Y015414D01*
X010551Y015398D01*
X010572Y015380D01*
X010589Y015359D01*
X010604Y015335D01*
X010615Y015310D01*
X010623Y015284D01*
X010627Y015257D01*
X010627Y015229D01*
X010623Y015202D01*
X010615Y015176D01*
X010604Y015151D01*
X010589Y015127D01*
X010572Y015106D01*
X010551Y015088D01*
X010529Y015072D01*
X010504Y015060D01*
X010478Y015052D01*
X010451Y015047D01*
X010423Y015046D01*
X010396Y015049D01*
X010369Y015056D01*
X010344Y015066D01*
X010320Y015080D01*
X010298Y015097D01*
X010279Y015116D01*
X010263Y015139D01*
X010250Y015163D01*
X010241Y015189D01*
X010235Y015216D01*
X010233Y015243D01*
X010233Y014680D02*
X010235Y014707D01*
X010241Y014734D01*
X010250Y014760D01*
X010263Y014784D01*
X010279Y014807D01*
X010298Y014826D01*
X010320Y014843D01*
X010344Y014857D01*
X010369Y014867D01*
X010396Y014874D01*
X010423Y014877D01*
X010451Y014876D01*
X010478Y014871D01*
X010504Y014863D01*
X010528Y014851D01*
X010551Y014835D01*
X010572Y014817D01*
X010589Y014796D01*
X010604Y014772D01*
X010615Y014747D01*
X010623Y014721D01*
X010627Y014694D01*
X010627Y014666D01*
X010623Y014639D01*
X010615Y014613D01*
X010604Y014588D01*
X010589Y014564D01*
X010572Y014543D01*
X010551Y014525D01*
X010529Y014509D01*
X010504Y014497D01*
X010478Y014489D01*
X010451Y014484D01*
X010423Y014483D01*
X010396Y014486D01*
X010369Y014493D01*
X010344Y014503D01*
X010320Y014517D01*
X010298Y014534D01*
X010279Y014553D01*
X010263Y014576D01*
X010250Y014600D01*
X010241Y014626D01*
X010235Y014653D01*
X010233Y014680D01*
X010233Y014118D02*
X010235Y014145D01*
X010241Y014172D01*
X010250Y014198D01*
X010263Y014222D01*
X010279Y014245D01*
X010298Y014264D01*
X010320Y014281D01*
X010344Y014295D01*
X010369Y014305D01*
X010396Y014312D01*
X010423Y014315D01*
X010451Y014314D01*
X010478Y014309D01*
X010504Y014301D01*
X010528Y014289D01*
X010551Y014273D01*
X010572Y014255D01*
X010589Y014234D01*
X010604Y014210D01*
X010615Y014185D01*
X010623Y014159D01*
X010627Y014132D01*
X010627Y014104D01*
X010623Y014077D01*
X010615Y014051D01*
X010604Y014026D01*
X010589Y014002D01*
X010572Y013981D01*
X010551Y013963D01*
X010529Y013947D01*
X010504Y013935D01*
X010478Y013927D01*
X010451Y013922D01*
X010423Y013921D01*
X010396Y013924D01*
X010369Y013931D01*
X010344Y013941D01*
X010320Y013955D01*
X010298Y013972D01*
X010279Y013991D01*
X010263Y014014D01*
X010250Y014038D01*
X010241Y014064D01*
X010235Y014091D01*
X010233Y014118D01*
X009930Y013805D02*
X009876Y013803D01*
X009823Y013797D01*
X009771Y013788D01*
X009719Y013775D01*
X009668Y013758D01*
X009618Y013737D01*
X009571Y013713D01*
X009525Y013686D01*
X009481Y013655D01*
X009439Y013622D01*
X009400Y013585D01*
X009363Y013546D01*
X009330Y013504D01*
X009299Y013460D01*
X009272Y013414D01*
X009248Y013367D01*
X009227Y013317D01*
X009210Y013266D01*
X009197Y013214D01*
X009188Y013162D01*
X009182Y013109D01*
X009180Y013055D01*
X009930Y013805D02*
X009984Y013803D01*
X010037Y013797D01*
X010089Y013788D01*
X010141Y013775D01*
X010192Y013758D01*
X010242Y013737D01*
X010289Y013713D01*
X010335Y013686D01*
X010379Y013655D01*
X010421Y013622D01*
X010460Y013585D01*
X010497Y013546D01*
X010530Y013504D01*
X010561Y013460D01*
X010588Y013414D01*
X010612Y013367D01*
X010633Y013317D01*
X010650Y013266D01*
X010663Y013214D01*
X010672Y013162D01*
X010678Y013109D01*
X010680Y013055D01*
X010680Y011574D01*
X010682Y011535D01*
X010688Y011497D01*
X010697Y011460D01*
X010710Y011423D01*
X010727Y011388D01*
X010746Y011355D01*
X010769Y011324D01*
X010795Y011295D01*
X010824Y011269D01*
X010855Y011246D01*
X010888Y011227D01*
X010923Y011210D01*
X010960Y011197D01*
X010997Y011188D01*
X011035Y011182D01*
X011074Y011180D01*
X011034Y011967D02*
X011036Y012008D01*
X011042Y012049D01*
X011052Y012089D01*
X011065Y012128D01*
X011082Y012165D01*
X011103Y012201D01*
X011127Y012235D01*
X011154Y012266D01*
X011183Y012294D01*
X011216Y012320D01*
X011250Y012342D01*
X011287Y012361D01*
X011325Y012376D01*
X011365Y012388D01*
X011405Y012396D01*
X011446Y012400D01*
X011488Y012400D01*
X011529Y012396D01*
X011569Y012388D01*
X011609Y012376D01*
X011647Y012361D01*
X011683Y012342D01*
X011718Y012320D01*
X011751Y012294D01*
X011780Y012266D01*
X011807Y012235D01*
X011831Y012201D01*
X011852Y012165D01*
X011869Y012128D01*
X011882Y012089D01*
X011892Y012049D01*
X011898Y012008D01*
X011900Y011967D01*
X011898Y011926D01*
X011892Y011885D01*
X011882Y011845D01*
X011869Y011806D01*
X011852Y011769D01*
X011831Y011733D01*
X011807Y011699D01*
X011780Y011668D01*
X011751Y011640D01*
X011718Y011614D01*
X011684Y011592D01*
X011647Y011573D01*
X011609Y011558D01*
X011569Y011546D01*
X011529Y011538D01*
X011488Y011534D01*
X011446Y011534D01*
X011405Y011538D01*
X011365Y011546D01*
X011325Y011558D01*
X011287Y011573D01*
X011251Y011592D01*
X011216Y011614D01*
X011183Y011640D01*
X011154Y011668D01*
X011127Y011699D01*
X011103Y011733D01*
X011082Y011769D01*
X011065Y011806D01*
X011052Y011845D01*
X011042Y011885D01*
X011036Y011926D01*
X011034Y011967D01*
X011034Y017479D02*
X011036Y017520D01*
X011042Y017561D01*
X011052Y017601D01*
X011065Y017640D01*
X011082Y017677D01*
X011103Y017713D01*
X011127Y017747D01*
X011154Y017778D01*
X011183Y017806D01*
X011216Y017832D01*
X011250Y017854D01*
X011287Y017873D01*
X011325Y017888D01*
X011365Y017900D01*
X011405Y017908D01*
X011446Y017912D01*
X011488Y017912D01*
X011529Y017908D01*
X011569Y017900D01*
X011609Y017888D01*
X011647Y017873D01*
X011683Y017854D01*
X011718Y017832D01*
X011751Y017806D01*
X011780Y017778D01*
X011807Y017747D01*
X011831Y017713D01*
X011852Y017677D01*
X011869Y017640D01*
X011882Y017601D01*
X011892Y017561D01*
X011898Y017520D01*
X011900Y017479D01*
X011898Y017438D01*
X011892Y017397D01*
X011882Y017357D01*
X011869Y017318D01*
X011852Y017281D01*
X011831Y017245D01*
X011807Y017211D01*
X011780Y017180D01*
X011751Y017152D01*
X011718Y017126D01*
X011684Y017104D01*
X011647Y017085D01*
X011609Y017070D01*
X011569Y017058D01*
X011529Y017050D01*
X011488Y017046D01*
X011446Y017046D01*
X011405Y017050D01*
X011365Y017058D01*
X011325Y017070D01*
X011287Y017085D01*
X011251Y017104D01*
X011216Y017126D01*
X011183Y017152D01*
X011154Y017180D01*
X011127Y017211D01*
X011103Y017245D01*
X011082Y017281D01*
X011065Y017318D01*
X011052Y017357D01*
X011042Y017397D01*
X011036Y017438D01*
X011034Y017479D01*
X003503Y017479D02*
X003505Y017520D01*
X003511Y017561D01*
X003521Y017601D01*
X003534Y017640D01*
X003551Y017677D01*
X003572Y017713D01*
X003596Y017747D01*
X003623Y017778D01*
X003652Y017806D01*
X003685Y017832D01*
X003719Y017854D01*
X003756Y017873D01*
X003794Y017888D01*
X003834Y017900D01*
X003874Y017908D01*
X003915Y017912D01*
X003957Y017912D01*
X003998Y017908D01*
X004038Y017900D01*
X004078Y017888D01*
X004116Y017873D01*
X004152Y017854D01*
X004187Y017832D01*
X004220Y017806D01*
X004249Y017778D01*
X004276Y017747D01*
X004300Y017713D01*
X004321Y017677D01*
X004338Y017640D01*
X004351Y017601D01*
X004361Y017561D01*
X004367Y017520D01*
X004369Y017479D01*
X004367Y017438D01*
X004361Y017397D01*
X004351Y017357D01*
X004338Y017318D01*
X004321Y017281D01*
X004300Y017245D01*
X004276Y017211D01*
X004249Y017180D01*
X004220Y017152D01*
X004187Y017126D01*
X004153Y017104D01*
X004116Y017085D01*
X004078Y017070D01*
X004038Y017058D01*
X003998Y017050D01*
X003957Y017046D01*
X003915Y017046D01*
X003874Y017050D01*
X003834Y017058D01*
X003794Y017070D01*
X003756Y017085D01*
X003720Y017104D01*
X003685Y017126D01*
X003652Y017152D01*
X003623Y017180D01*
X003596Y017211D01*
X003572Y017245D01*
X003551Y017281D01*
X003534Y017318D01*
X003521Y017357D01*
X003511Y017397D01*
X003505Y017438D01*
X003503Y017479D01*
X011034Y003374D02*
X011036Y003415D01*
X011042Y003456D01*
X011052Y003496D01*
X011065Y003535D01*
X011082Y003572D01*
X011103Y003608D01*
X011127Y003642D01*
X011154Y003673D01*
X011183Y003701D01*
X011216Y003727D01*
X011250Y003749D01*
X011287Y003768D01*
X011325Y003783D01*
X011365Y003795D01*
X011405Y003803D01*
X011446Y003807D01*
X011488Y003807D01*
X011529Y003803D01*
X011569Y003795D01*
X011609Y003783D01*
X011647Y003768D01*
X011683Y003749D01*
X011718Y003727D01*
X011751Y003701D01*
X011780Y003673D01*
X011807Y003642D01*
X011831Y003608D01*
X011852Y003572D01*
X011869Y003535D01*
X011882Y003496D01*
X011892Y003456D01*
X011898Y003415D01*
X011900Y003374D01*
X011898Y003333D01*
X011892Y003292D01*
X011882Y003252D01*
X011869Y003213D01*
X011852Y003176D01*
X011831Y003140D01*
X011807Y003106D01*
X011780Y003075D01*
X011751Y003047D01*
X011718Y003021D01*
X011684Y002999D01*
X011647Y002980D01*
X011609Y002965D01*
X011569Y002953D01*
X011529Y002945D01*
X011488Y002941D01*
X011446Y002941D01*
X011405Y002945D01*
X011365Y002953D01*
X011325Y002965D01*
X011287Y002980D01*
X011251Y002999D01*
X011216Y003021D01*
X011183Y003047D01*
X011154Y003075D01*
X011127Y003106D01*
X011103Y003140D01*
X011082Y003176D01*
X011065Y003213D01*
X011052Y003252D01*
X011042Y003292D01*
X011036Y003333D01*
X011034Y003374D01*
D11*
X012118Y004711D02*
X012118Y005586D01*
X012211Y005586D01*
X012211Y004711D01*
X012118Y004711D01*
X004680Y004711D02*
X004680Y005586D01*
X004586Y005586D01*
X004586Y004711D01*
X004680Y004711D01*
X004586Y013305D02*
X004680Y013305D01*
X004680Y014180D01*
X004586Y014180D01*
X004586Y013305D01*
X012118Y013305D02*
X012118Y014180D01*
X012211Y014180D01*
X012211Y013305D01*
X012118Y013305D01*
D12*
X008961Y013868D02*
X008649Y013680D01*
X008649Y014055D01*
X008961Y013868D01*
X008149Y013868D01*
X008149Y013024D01*
X007961Y013336D01*
X008336Y013336D01*
X008149Y013024D01*
X015493Y013336D02*
X015680Y013024D01*
X015868Y013336D01*
X015493Y013336D01*
X015680Y013024D02*
X015680Y013868D01*
X016493Y013868D01*
X016180Y013680D01*
X016180Y014055D01*
X016493Y013868D01*
X016180Y005461D02*
X016180Y005086D01*
X016493Y005274D01*
X016180Y005461D01*
X016493Y005274D02*
X015680Y005274D01*
X015680Y004430D01*
X015493Y004743D01*
X015868Y004743D01*
X015680Y004430D01*
X008961Y005274D02*
X008649Y005086D01*
X008649Y005461D01*
X008961Y005274D01*
X008149Y005274D01*
X008149Y004430D01*
X007961Y004743D01*
X008336Y004743D01*
X008149Y004430D01*
D13*
X008434Y004278D02*
X008687Y004658D01*
X008873Y004621D02*
X008873Y004811D01*
X009000Y004938D01*
X009000Y005002D01*
X008873Y004811D02*
X008746Y004938D01*
X008746Y005002D01*
X008434Y004658D02*
X008687Y004278D01*
X015965Y004278D02*
X016219Y004658D01*
X016404Y004621D02*
X016404Y004811D01*
X016531Y004938D01*
X016531Y005002D01*
X016404Y004811D02*
X016278Y004938D01*
X016278Y005002D01*
X015965Y004658D02*
X016219Y004278D01*
X016219Y012871D02*
X015965Y013252D01*
X016219Y013252D02*
X015965Y012871D01*
X016404Y013215D02*
X016404Y013405D01*
X016531Y013532D01*
X016531Y013595D01*
X016404Y013405D02*
X016278Y013532D01*
X016278Y013595D01*
X009000Y013532D02*
X009000Y013595D01*
X009000Y013532D02*
X008873Y013405D01*
X008873Y013215D01*
X008687Y013252D02*
X008434Y012871D01*
X008687Y012871D02*
X008434Y013252D01*
X008746Y013532D02*
X008873Y013405D01*
X008746Y013532D02*
X008746Y013595D01*
D14*
X007162Y016393D02*
X007162Y016573D01*
X006982Y016573D02*
X006982Y016438D01*
X007027Y016393D01*
X007162Y016393D01*
X006867Y016483D02*
X006687Y016483D01*
X006687Y016528D02*
X006732Y016573D01*
X006822Y016573D01*
X006867Y016528D01*
X006867Y016483D01*
X006822Y016393D02*
X006732Y016393D01*
X006687Y016438D01*
X006687Y016528D01*
X006585Y016438D02*
X006585Y016393D01*
X006540Y016393D01*
X006540Y016438D01*
X006585Y016438D01*
X006425Y016438D02*
X006425Y016573D01*
X006425Y016438D02*
X006380Y016393D01*
X006335Y016438D01*
X006290Y016393D01*
X006245Y016438D01*
X006245Y016573D01*
X006094Y016573D02*
X006094Y016393D01*
X006049Y016393D02*
X006139Y016393D01*
X006094Y016573D02*
X006049Y016573D01*
X006094Y016663D02*
X006094Y016708D01*
X005897Y016663D02*
X005897Y016393D01*
X005852Y016393D02*
X005942Y016393D01*
X005746Y016393D02*
X005656Y016393D01*
X005701Y016393D02*
X005701Y016663D01*
X005656Y016663D01*
X005541Y016528D02*
X005496Y016573D01*
X005406Y016573D01*
X005361Y016528D01*
X005361Y016438D01*
X005406Y016393D01*
X005496Y016393D01*
X005541Y016438D01*
X005541Y016528D01*
X005259Y016438D02*
X005259Y016393D01*
X005214Y016393D01*
X005214Y016438D01*
X005259Y016438D01*
X005099Y016438D02*
X005054Y016393D01*
X005009Y016438D01*
X004964Y016393D01*
X004919Y016438D01*
X004919Y016573D01*
X004805Y016573D02*
X004805Y016438D01*
X004760Y016393D01*
X004715Y016438D01*
X004670Y016393D01*
X004625Y016438D01*
X004625Y016573D01*
X004510Y016573D02*
X004510Y016438D01*
X004465Y016393D01*
X004420Y016438D01*
X004375Y016393D01*
X004330Y016438D01*
X004330Y016573D01*
X005099Y016573D02*
X005099Y016438D01*
X005852Y016663D02*
X005897Y016663D01*
X011861Y016573D02*
X011861Y016438D01*
X011906Y016393D01*
X011951Y016438D01*
X011996Y016393D01*
X012041Y016438D01*
X012041Y016573D01*
X012156Y016573D02*
X012156Y016438D01*
X012201Y016393D01*
X012246Y016438D01*
X012291Y016393D01*
X012336Y016438D01*
X012336Y016573D01*
X012451Y016573D02*
X012451Y016438D01*
X012496Y016393D01*
X012541Y016438D01*
X012586Y016393D01*
X012631Y016438D01*
X012631Y016573D01*
X012745Y016438D02*
X012790Y016438D01*
X012790Y016393D01*
X012745Y016393D01*
X012745Y016438D01*
X012893Y016438D02*
X012938Y016393D01*
X013028Y016393D01*
X013073Y016438D01*
X013073Y016528D01*
X013028Y016573D01*
X012938Y016573D01*
X012893Y016528D01*
X012893Y016438D01*
X013187Y016393D02*
X013277Y016393D01*
X013232Y016393D02*
X013232Y016663D01*
X013187Y016663D01*
X013384Y016663D02*
X013429Y016663D01*
X013429Y016393D01*
X013384Y016393D02*
X013474Y016393D01*
X013580Y016393D02*
X013670Y016393D01*
X013625Y016393D02*
X013625Y016573D01*
X013580Y016573D01*
X013625Y016663D02*
X013625Y016708D01*
X013776Y016573D02*
X013776Y016438D01*
X013822Y016393D01*
X013867Y016438D01*
X013912Y016393D01*
X013957Y016438D01*
X013957Y016573D01*
X014071Y016438D02*
X014071Y016393D01*
X014116Y016393D01*
X014116Y016438D01*
X014071Y016438D01*
X014218Y016438D02*
X014218Y016528D01*
X014264Y016573D01*
X014354Y016573D01*
X014399Y016528D01*
X014399Y016483D01*
X014218Y016483D01*
X014218Y016438D02*
X014264Y016393D01*
X014354Y016393D01*
X014513Y016438D02*
X014558Y016393D01*
X014693Y016393D01*
X014693Y016573D01*
X014513Y016573D02*
X014513Y016438D01*
X013625Y008114D02*
X013625Y008069D01*
X013625Y007979D02*
X013625Y007799D01*
X013580Y007799D02*
X013670Y007799D01*
X013776Y007844D02*
X013822Y007799D01*
X013867Y007844D01*
X013912Y007799D01*
X013957Y007844D01*
X013957Y007979D01*
X014071Y007844D02*
X014071Y007799D01*
X014116Y007799D01*
X014116Y007844D01*
X014071Y007844D01*
X014218Y007844D02*
X014218Y007934D01*
X014264Y007979D01*
X014354Y007979D01*
X014399Y007934D01*
X014399Y007889D01*
X014218Y007889D01*
X014218Y007844D02*
X014264Y007799D01*
X014354Y007799D01*
X014513Y007844D02*
X014558Y007799D01*
X014693Y007799D01*
X014693Y007979D01*
X014513Y007979D02*
X014513Y007844D01*
X013776Y007844D02*
X013776Y007979D01*
X013625Y007979D02*
X013580Y007979D01*
X013429Y008069D02*
X013429Y007799D01*
X013384Y007799D02*
X013474Y007799D01*
X013277Y007799D02*
X013187Y007799D01*
X013232Y007799D02*
X013232Y008069D01*
X013187Y008069D01*
X013073Y007934D02*
X013028Y007979D01*
X012938Y007979D01*
X012893Y007934D01*
X012893Y007844D01*
X012938Y007799D01*
X013028Y007799D01*
X013073Y007844D01*
X013073Y007934D01*
X013384Y008069D02*
X013429Y008069D01*
X012790Y007844D02*
X012790Y007799D01*
X012745Y007799D01*
X012745Y007844D01*
X012790Y007844D01*
X012631Y007844D02*
X012631Y007979D01*
X012631Y007844D02*
X012586Y007799D01*
X012541Y007844D01*
X012496Y007799D01*
X012451Y007844D01*
X012451Y007979D01*
X012336Y007979D02*
X012336Y007844D01*
X012291Y007799D01*
X012246Y007844D01*
X012201Y007799D01*
X012156Y007844D01*
X012156Y007979D01*
X012041Y007979D02*
X012041Y007844D01*
X011996Y007799D01*
X011951Y007844D01*
X011906Y007799D01*
X011861Y007844D01*
X011861Y007979D01*
X007162Y007979D02*
X007162Y007799D01*
X007027Y007799D01*
X006982Y007844D01*
X006982Y007979D01*
X006867Y007934D02*
X006867Y007889D01*
X006687Y007889D01*
X006687Y007934D02*
X006732Y007979D01*
X006822Y007979D01*
X006867Y007934D01*
X006822Y007799D02*
X006732Y007799D01*
X006687Y007844D01*
X006687Y007934D01*
X006585Y007844D02*
X006585Y007799D01*
X006540Y007799D01*
X006540Y007844D01*
X006585Y007844D01*
X006425Y007844D02*
X006425Y007979D01*
X006425Y007844D02*
X006380Y007799D01*
X006335Y007844D01*
X006290Y007799D01*
X006245Y007844D01*
X006245Y007979D01*
X006094Y007979D02*
X006094Y007799D01*
X006049Y007799D02*
X006139Y007799D01*
X006094Y007979D02*
X006049Y007979D01*
X006094Y008069D02*
X006094Y008114D01*
X005897Y008069D02*
X005897Y007799D01*
X005852Y007799D02*
X005942Y007799D01*
X005746Y007799D02*
X005656Y007799D01*
X005701Y007799D02*
X005701Y008069D01*
X005656Y008069D01*
X005541Y007934D02*
X005496Y007979D01*
X005406Y007979D01*
X005361Y007934D01*
X005361Y007844D01*
X005406Y007799D01*
X005496Y007799D01*
X005541Y007844D01*
X005541Y007934D01*
X005259Y007844D02*
X005259Y007799D01*
X005214Y007799D01*
X005214Y007844D01*
X005259Y007844D01*
X005099Y007844D02*
X005054Y007799D01*
X005009Y007844D01*
X004964Y007799D01*
X004919Y007844D01*
X004919Y007979D01*
X004805Y007979D02*
X004805Y007844D01*
X004760Y007799D01*
X004715Y007844D01*
X004670Y007799D01*
X004625Y007844D01*
X004625Y007979D01*
X004510Y007979D02*
X004510Y007844D01*
X004465Y007799D01*
X004420Y007844D01*
X004375Y007799D01*
X004330Y007844D01*
X004330Y007979D01*
X005099Y007979D02*
X005099Y007844D01*
X005852Y008069D02*
X005897Y008069D01*
D15*
X004971Y007681D02*
X004866Y007681D01*
X004831Y007646D01*
X004831Y007541D01*
X004971Y007541D01*
X004936Y007460D02*
X004971Y007425D01*
X004971Y007355D01*
X004936Y007320D01*
X004796Y007460D01*
X004936Y007460D01*
X004936Y007320D02*
X004796Y007320D01*
X004761Y007355D01*
X004761Y007425D01*
X004796Y007460D01*
X004971Y007239D02*
X004971Y007099D01*
X004971Y007169D02*
X004761Y007169D01*
X004831Y007099D01*
X004866Y006871D02*
X004971Y006871D01*
X004866Y006871D02*
X004831Y006836D01*
X004831Y006731D01*
X004971Y006731D01*
X004936Y006650D02*
X004971Y006615D01*
X004971Y006545D01*
X004936Y006510D01*
X004796Y006650D01*
X004936Y006650D01*
X004796Y006650D02*
X004761Y006615D01*
X004761Y006545D01*
X004796Y006510D01*
X004936Y006510D01*
X004936Y006429D02*
X004971Y006394D01*
X004971Y006324D01*
X004936Y006289D01*
X004796Y006429D01*
X004936Y006429D01*
X004796Y006429D02*
X004761Y006394D01*
X004761Y006324D01*
X004796Y006289D01*
X004936Y006289D01*
X004971Y006208D02*
X004971Y006068D01*
X004971Y006138D02*
X004761Y006138D01*
X004831Y006068D01*
X004852Y004530D02*
X004922Y004530D01*
X004957Y004495D01*
X004957Y004460D01*
X004922Y004425D01*
X004957Y004390D01*
X004957Y004355D01*
X004922Y004320D01*
X004852Y004320D01*
X004817Y004355D01*
X004741Y004355D02*
X004741Y004320D01*
X004706Y004320D01*
X004706Y004355D01*
X004741Y004355D01*
X004625Y004355D02*
X004625Y004390D01*
X004590Y004425D01*
X004485Y004425D01*
X004485Y004355D01*
X004520Y004320D01*
X004590Y004320D01*
X004625Y004355D01*
X004555Y004495D02*
X004485Y004425D01*
X004555Y004495D02*
X004625Y004530D01*
X004817Y004495D02*
X004852Y004530D01*
X004887Y004425D02*
X004922Y004425D01*
X005038Y004390D02*
X005108Y004320D01*
X005178Y004390D01*
X005178Y004530D01*
X005038Y004530D02*
X005038Y004390D01*
X004404Y004530D02*
X004264Y004320D01*
X004183Y004320D02*
X004183Y004460D01*
X004043Y004460D02*
X004043Y004355D01*
X004078Y004320D01*
X004183Y004320D01*
X003962Y004355D02*
X003962Y004495D01*
X003822Y004355D01*
X003857Y004320D01*
X003927Y004320D01*
X003962Y004355D01*
X003822Y004355D02*
X003822Y004495D01*
X003857Y004530D01*
X003927Y004530D01*
X003962Y004495D01*
X003741Y004320D02*
X003601Y004320D01*
X003671Y004320D02*
X003671Y004530D01*
X003601Y004460D01*
X007386Y005665D02*
X007421Y005630D01*
X007386Y005665D02*
X007386Y005735D01*
X007421Y005770D01*
X007456Y005770D01*
X007596Y005630D01*
X007596Y005770D01*
X007596Y005851D02*
X007596Y005886D01*
X007561Y005886D01*
X007561Y005851D01*
X007596Y005851D01*
X007596Y005962D02*
X007456Y006102D01*
X007421Y006102D01*
X007386Y006067D01*
X007386Y005997D01*
X007421Y005962D01*
X007596Y005962D02*
X007596Y006102D01*
X007596Y006183D02*
X007456Y006183D01*
X007456Y006288D01*
X007491Y006323D01*
X007596Y006323D01*
X007603Y007539D02*
X007603Y007679D01*
X007603Y007609D02*
X007392Y007609D01*
X007462Y007539D01*
X007462Y007760D02*
X007567Y007760D01*
X007603Y007795D01*
X007603Y007900D01*
X007462Y007900D01*
X008817Y007022D02*
X009028Y007022D01*
X008957Y007022D02*
X009028Y007128D01*
X008957Y007022D02*
X008887Y007128D01*
X008887Y006942D02*
X008852Y006942D01*
X008817Y006907D01*
X008817Y006837D01*
X008852Y006801D01*
X008887Y006942D02*
X009028Y006801D01*
X009028Y006942D01*
X009028Y006726D02*
X008992Y006726D01*
X008992Y006691D01*
X009028Y006691D01*
X009028Y006726D01*
X009028Y006610D02*
X009028Y006470D01*
X008887Y006610D01*
X008852Y006610D01*
X008817Y006575D01*
X008817Y006505D01*
X008852Y006470D01*
X011133Y004460D02*
X011203Y004530D01*
X011203Y004320D01*
X011133Y004320D02*
X011273Y004320D01*
X011353Y004355D02*
X011494Y004495D01*
X011494Y004355D01*
X011459Y004320D01*
X011389Y004320D01*
X011353Y004355D01*
X011353Y004495D01*
X011389Y004530D01*
X011459Y004530D01*
X011494Y004495D01*
X011574Y004460D02*
X011574Y004355D01*
X011610Y004320D01*
X011715Y004320D01*
X011715Y004460D01*
X011795Y004320D02*
X011936Y004530D01*
X012016Y004425D02*
X012122Y004425D01*
X012157Y004390D01*
X012157Y004355D01*
X012122Y004320D01*
X012051Y004320D01*
X012016Y004355D01*
X012016Y004425D01*
X012087Y004495D01*
X012157Y004530D01*
X012237Y004355D02*
X012272Y004355D01*
X012272Y004320D01*
X012237Y004320D01*
X012237Y004355D01*
X012348Y004355D02*
X012383Y004320D01*
X012453Y004320D01*
X012488Y004355D01*
X012488Y004390D01*
X012453Y004425D01*
X012418Y004425D01*
X012453Y004425D02*
X012488Y004460D01*
X012488Y004495D01*
X012453Y004530D01*
X012383Y004530D01*
X012348Y004495D01*
X012569Y004530D02*
X012569Y004390D01*
X012639Y004320D01*
X012709Y004390D01*
X012709Y004530D01*
X012502Y006068D02*
X012502Y006208D01*
X012502Y006138D02*
X012292Y006138D01*
X012362Y006068D01*
X012327Y006289D02*
X012292Y006324D01*
X012292Y006394D01*
X012327Y006429D01*
X012467Y006289D01*
X012502Y006324D01*
X012502Y006394D01*
X012467Y006429D01*
X012327Y006429D01*
X012327Y006510D02*
X012292Y006545D01*
X012292Y006615D01*
X012327Y006650D01*
X012467Y006510D01*
X012502Y006545D01*
X012502Y006615D01*
X012467Y006650D01*
X012327Y006650D01*
X012362Y006731D02*
X012362Y006836D01*
X012397Y006871D01*
X012502Y006871D01*
X012502Y006731D02*
X012362Y006731D01*
X012327Y006510D02*
X012467Y006510D01*
X012467Y006289D02*
X012327Y006289D01*
X012362Y007099D02*
X012292Y007169D01*
X012502Y007169D01*
X012502Y007099D02*
X012502Y007239D01*
X012467Y007320D02*
X012327Y007460D01*
X012467Y007460D01*
X012502Y007425D01*
X012502Y007355D01*
X012467Y007320D01*
X012327Y007320D01*
X012292Y007355D01*
X012292Y007425D01*
X012327Y007460D01*
X012362Y007541D02*
X012362Y007646D01*
X012397Y007681D01*
X012502Y007681D01*
X012502Y007541D02*
X012362Y007541D01*
X012655Y009330D02*
X012795Y009330D01*
X012725Y009330D02*
X012725Y009540D01*
X012655Y009470D01*
X012876Y009505D02*
X012876Y009365D01*
X013016Y009505D01*
X013016Y009365D01*
X012981Y009330D01*
X012911Y009330D01*
X012876Y009365D01*
X012876Y009505D02*
X012911Y009540D01*
X012981Y009540D01*
X013016Y009505D01*
X013097Y009505D02*
X013097Y009365D01*
X013237Y009505D01*
X013237Y009365D01*
X013202Y009330D01*
X013132Y009330D01*
X013097Y009365D01*
X013097Y009505D02*
X013132Y009540D01*
X013202Y009540D01*
X013237Y009505D01*
X013318Y009470D02*
X013423Y009470D01*
X013458Y009435D01*
X013458Y009330D01*
X013318Y009330D02*
X013318Y009470D01*
X014994Y007900D02*
X015134Y007900D01*
X015134Y007795D01*
X015099Y007760D01*
X014994Y007760D01*
X015134Y007679D02*
X015134Y007539D01*
X015134Y007609D02*
X014924Y007609D01*
X014994Y007539D01*
X015022Y006323D02*
X015127Y006323D01*
X015022Y006323D02*
X014987Y006288D01*
X014987Y006183D01*
X015127Y006183D01*
X015127Y006102D02*
X015127Y005962D01*
X014987Y006102D01*
X014952Y006102D01*
X014917Y006067D01*
X014917Y005997D01*
X014952Y005962D01*
X015092Y005886D02*
X015127Y005886D01*
X015127Y005851D01*
X015092Y005851D01*
X015092Y005886D01*
X015127Y005770D02*
X015127Y005630D01*
X014987Y005770D01*
X014952Y005770D01*
X014917Y005735D01*
X014917Y005665D01*
X014952Y005630D01*
X016349Y006505D02*
X016384Y006470D01*
X016349Y006505D02*
X016349Y006575D01*
X016384Y006610D01*
X016419Y006610D01*
X016559Y006470D01*
X016559Y006610D01*
X016559Y006691D02*
X016559Y006726D01*
X016524Y006726D01*
X016524Y006691D01*
X016559Y006691D01*
X016559Y006801D02*
X016419Y006942D01*
X016384Y006942D01*
X016349Y006907D01*
X016349Y006837D01*
X016384Y006801D01*
X016559Y006801D02*
X016559Y006942D01*
X016559Y007022D02*
X016349Y007022D01*
X016419Y007128D02*
X016489Y007022D01*
X016559Y007128D01*
X016391Y009289D02*
X016286Y009289D01*
X016251Y009324D01*
X016251Y009394D01*
X016286Y009429D01*
X016391Y009429D01*
X016391Y009499D02*
X016391Y009289D01*
X016170Y009359D02*
X016030Y009359D01*
X016030Y009394D02*
X016065Y009429D01*
X016135Y009429D01*
X016170Y009394D01*
X016170Y009359D01*
X016135Y009289D02*
X016065Y009289D01*
X016030Y009324D01*
X016030Y009394D01*
X015953Y009289D02*
X015883Y009289D01*
X015918Y009289D02*
X015918Y009499D01*
X015883Y009499D01*
X015741Y009470D02*
X015636Y009400D01*
X015741Y009330D01*
X015636Y009330D02*
X015636Y009540D01*
X015555Y009505D02*
X015520Y009540D01*
X015450Y009540D01*
X015415Y009505D01*
X015555Y009505D02*
X015555Y009470D01*
X015415Y009330D01*
X015555Y009330D01*
X015339Y009330D02*
X015304Y009330D01*
X015304Y009365D01*
X015339Y009365D01*
X015339Y009330D01*
X015223Y009330D02*
X015083Y009330D01*
X015223Y009470D01*
X015223Y009505D01*
X015188Y009540D01*
X015118Y009540D01*
X015083Y009505D01*
X012639Y012914D02*
X012569Y012984D01*
X012569Y013124D01*
X012488Y013089D02*
X012488Y013054D01*
X012453Y013019D01*
X012488Y012984D01*
X012488Y012949D01*
X012453Y012914D01*
X012383Y012914D01*
X012348Y012949D01*
X012272Y012949D02*
X012272Y012914D01*
X012237Y012914D01*
X012237Y012949D01*
X012272Y012949D01*
X012157Y012949D02*
X012157Y012984D01*
X012122Y013019D01*
X012016Y013019D01*
X012016Y012949D01*
X012051Y012914D01*
X012122Y012914D01*
X012157Y012949D01*
X012087Y013089D02*
X012016Y013019D01*
X012087Y013089D02*
X012157Y013124D01*
X012348Y013089D02*
X012383Y013124D01*
X012453Y013124D01*
X012488Y013089D01*
X012453Y013019D02*
X012418Y013019D01*
X012639Y012914D02*
X012709Y012984D01*
X012709Y013124D01*
X011936Y013124D02*
X011795Y012914D01*
X011715Y012914D02*
X011715Y013054D01*
X011715Y012914D02*
X011610Y012914D01*
X011574Y012949D01*
X011574Y013054D01*
X011494Y013089D02*
X011353Y012949D01*
X011389Y012914D01*
X011459Y012914D01*
X011494Y012949D01*
X011494Y013089D01*
X011459Y013124D01*
X011389Y013124D01*
X011353Y013089D01*
X011353Y012949D01*
X011273Y012914D02*
X011133Y012914D01*
X011203Y012914D02*
X011203Y013124D01*
X011133Y013054D01*
X012362Y014661D02*
X012292Y014731D01*
X012502Y014731D01*
X012502Y014661D02*
X012502Y014801D01*
X012467Y014882D02*
X012327Y015022D01*
X012467Y015022D01*
X012502Y014987D01*
X012502Y014917D01*
X012467Y014882D01*
X012327Y014882D01*
X012292Y014917D01*
X012292Y014987D01*
X012327Y015022D01*
X012327Y015103D02*
X012292Y015138D01*
X012292Y015208D01*
X012327Y015243D01*
X012467Y015103D01*
X012502Y015138D01*
X012502Y015208D01*
X012467Y015243D01*
X012327Y015243D01*
X012362Y015324D02*
X012362Y015429D01*
X012397Y015464D01*
X012502Y015464D01*
X012502Y015324D02*
X012362Y015324D01*
X012327Y015103D02*
X012467Y015103D01*
X012502Y015693D02*
X012502Y015833D01*
X012502Y015763D02*
X012292Y015763D01*
X012362Y015693D01*
X012327Y015914D02*
X012292Y015949D01*
X012292Y016019D01*
X012327Y016054D01*
X012467Y015914D01*
X012502Y015949D01*
X012502Y016019D01*
X012467Y016054D01*
X012327Y016054D01*
X012362Y016135D02*
X012362Y016240D01*
X012397Y016275D01*
X012502Y016275D01*
X012502Y016135D02*
X012362Y016135D01*
X012327Y015914D02*
X012467Y015914D01*
X012655Y017924D02*
X012795Y017924D01*
X012725Y017924D02*
X012725Y018134D01*
X012655Y018064D01*
X012876Y018099D02*
X012876Y017959D01*
X013016Y018099D01*
X013016Y017959D01*
X012981Y017924D01*
X012911Y017924D01*
X012876Y017959D01*
X012876Y018099D02*
X012911Y018134D01*
X012981Y018134D01*
X013016Y018099D01*
X013097Y018099D02*
X013097Y017959D01*
X013237Y018099D01*
X013237Y017959D01*
X013202Y017924D01*
X013132Y017924D01*
X013097Y017959D01*
X013097Y018099D02*
X013132Y018134D01*
X013202Y018134D01*
X013237Y018099D01*
X013318Y018064D02*
X013423Y018064D01*
X013458Y018029D01*
X013458Y017924D01*
X013318Y017924D02*
X013318Y018064D01*
X014994Y016494D02*
X015134Y016494D01*
X015134Y016389D01*
X015099Y016353D01*
X014994Y016353D01*
X015134Y016273D02*
X015134Y016133D01*
X015134Y016203D02*
X014924Y016203D01*
X014994Y016133D01*
X015022Y014916D02*
X015127Y014916D01*
X015022Y014916D02*
X014987Y014881D01*
X014987Y014776D01*
X015127Y014776D01*
X015127Y014695D02*
X015127Y014555D01*
X014987Y014695D01*
X014952Y014695D01*
X014917Y014660D01*
X014917Y014590D01*
X014952Y014555D01*
X015092Y014480D02*
X015127Y014480D01*
X015127Y014445D01*
X015092Y014445D01*
X015092Y014480D01*
X015127Y014364D02*
X015127Y014224D01*
X014987Y014364D01*
X014952Y014364D01*
X014917Y014329D01*
X014917Y014259D01*
X014952Y014224D01*
X016349Y015099D02*
X016384Y015064D01*
X016349Y015099D02*
X016349Y015169D01*
X016384Y015204D01*
X016419Y015204D01*
X016559Y015064D01*
X016559Y015204D01*
X016559Y015285D02*
X016559Y015320D01*
X016524Y015320D01*
X016524Y015285D01*
X016559Y015285D01*
X016559Y015395D02*
X016419Y015535D01*
X016384Y015535D01*
X016349Y015500D01*
X016349Y015430D01*
X016384Y015395D01*
X016559Y015395D02*
X016559Y015535D01*
X016559Y015616D02*
X016349Y015616D01*
X016419Y015721D02*
X016489Y015616D01*
X016559Y015721D01*
X016391Y017883D02*
X016286Y017883D01*
X016251Y017918D01*
X016251Y017988D01*
X016286Y018023D01*
X016391Y018023D01*
X016391Y018093D02*
X016391Y017883D01*
X016170Y017953D02*
X016030Y017953D01*
X016030Y017988D02*
X016065Y018023D01*
X016135Y018023D01*
X016170Y017988D01*
X016170Y017953D01*
X016135Y017883D02*
X016065Y017883D01*
X016030Y017918D01*
X016030Y017988D01*
X015953Y017883D02*
X015883Y017883D01*
X015918Y017883D02*
X015918Y018093D01*
X015883Y018093D01*
X015741Y018064D02*
X015636Y017994D01*
X015741Y017924D01*
X015636Y017924D02*
X015636Y018134D01*
X015555Y018099D02*
X015520Y018134D01*
X015450Y018134D01*
X015415Y018099D01*
X015555Y018099D02*
X015555Y018064D01*
X015415Y017924D01*
X015555Y017924D01*
X015339Y017924D02*
X015304Y017924D01*
X015304Y017959D01*
X015339Y017959D01*
X015339Y017924D01*
X015223Y017924D02*
X015083Y017924D01*
X015223Y018064D01*
X015223Y018099D01*
X015188Y018134D01*
X015118Y018134D01*
X015083Y018099D01*
X009028Y015721D02*
X008957Y015616D01*
X008887Y015721D01*
X008817Y015616D02*
X009028Y015616D01*
X009028Y015535D02*
X009028Y015395D01*
X008887Y015535D01*
X008852Y015535D01*
X008817Y015500D01*
X008817Y015430D01*
X008852Y015395D01*
X008992Y015320D02*
X009028Y015320D01*
X009028Y015285D01*
X008992Y015285D01*
X008992Y015320D01*
X009028Y015204D02*
X009028Y015064D01*
X008887Y015204D01*
X008852Y015204D01*
X008817Y015169D01*
X008817Y015099D01*
X008852Y015064D01*
X007596Y014916D02*
X007491Y014916D01*
X007456Y014881D01*
X007456Y014776D01*
X007596Y014776D01*
X007596Y014695D02*
X007596Y014555D01*
X007456Y014695D01*
X007421Y014695D01*
X007386Y014660D01*
X007386Y014590D01*
X007421Y014555D01*
X007561Y014480D02*
X007596Y014480D01*
X007596Y014445D01*
X007561Y014445D01*
X007561Y014480D01*
X007596Y014364D02*
X007596Y014224D01*
X007456Y014364D01*
X007421Y014364D01*
X007386Y014329D01*
X007386Y014259D01*
X007421Y014224D01*
X007462Y016133D02*
X007392Y016203D01*
X007603Y016203D01*
X007603Y016133D02*
X007603Y016273D01*
X007567Y016353D02*
X007603Y016389D01*
X007603Y016494D01*
X007462Y016494D01*
X007462Y016353D02*
X007567Y016353D01*
X007552Y017924D02*
X007692Y018064D01*
X007692Y018099D01*
X007657Y018134D01*
X007587Y018134D01*
X007552Y018099D01*
X007552Y017924D02*
X007692Y017924D01*
X007773Y017924D02*
X007808Y017924D01*
X007808Y017959D01*
X007773Y017959D01*
X007773Y017924D01*
X007884Y017924D02*
X008024Y018064D01*
X008024Y018099D01*
X007989Y018134D01*
X007919Y018134D01*
X007884Y018099D01*
X007884Y017924D02*
X008024Y017924D01*
X008105Y017924D02*
X008105Y018134D01*
X008210Y018064D02*
X008105Y017994D01*
X008210Y017924D01*
X008351Y017883D02*
X008421Y017883D01*
X008386Y017883D02*
X008386Y018093D01*
X008351Y018093D01*
X008499Y017988D02*
X008534Y018023D01*
X008604Y018023D01*
X008639Y017988D01*
X008639Y017953D01*
X008499Y017953D01*
X008499Y017918D02*
X008499Y017988D01*
X008499Y017918D02*
X008534Y017883D01*
X008604Y017883D01*
X008720Y017918D02*
X008720Y017988D01*
X008755Y018023D01*
X008860Y018023D01*
X008860Y018093D02*
X008860Y017883D01*
X008755Y017883D01*
X008720Y017918D01*
X005927Y017924D02*
X005927Y018029D01*
X005892Y018064D01*
X005787Y018064D01*
X005787Y017924D01*
X005706Y017959D02*
X005671Y017924D01*
X005601Y017924D01*
X005566Y017959D01*
X005706Y018099D01*
X005706Y017959D01*
X005706Y018099D02*
X005671Y018134D01*
X005601Y018134D01*
X005566Y018099D01*
X005566Y017959D01*
X005485Y017959D02*
X005450Y017924D01*
X005380Y017924D01*
X005345Y017959D01*
X005485Y018099D01*
X005485Y017959D01*
X005485Y018099D02*
X005450Y018134D01*
X005380Y018134D01*
X005345Y018099D01*
X005345Y017959D01*
X005264Y017924D02*
X005124Y017924D01*
X005194Y017924D02*
X005194Y018134D01*
X005124Y018064D01*
X004971Y016275D02*
X004866Y016275D01*
X004831Y016240D01*
X004831Y016135D01*
X004971Y016135D01*
X004936Y016054D02*
X004971Y016019D01*
X004971Y015949D01*
X004936Y015914D01*
X004796Y016054D01*
X004936Y016054D01*
X004796Y016054D02*
X004761Y016019D01*
X004761Y015949D01*
X004796Y015914D01*
X004936Y015914D01*
X004971Y015833D02*
X004971Y015693D01*
X004971Y015763D02*
X004761Y015763D01*
X004831Y015693D01*
X004866Y015464D02*
X004971Y015464D01*
X004866Y015464D02*
X004831Y015429D01*
X004831Y015324D01*
X004971Y015324D01*
X004936Y015243D02*
X004971Y015208D01*
X004971Y015138D01*
X004936Y015103D01*
X004796Y015243D01*
X004936Y015243D01*
X004936Y015103D02*
X004796Y015103D01*
X004761Y015138D01*
X004761Y015208D01*
X004796Y015243D01*
X004796Y015022D02*
X004936Y014882D01*
X004971Y014917D01*
X004971Y014987D01*
X004936Y015022D01*
X004796Y015022D01*
X004761Y014987D01*
X004761Y014917D01*
X004796Y014882D01*
X004936Y014882D01*
X004971Y014801D02*
X004971Y014661D01*
X004971Y014731D02*
X004761Y014731D01*
X004831Y014661D01*
X004852Y013124D02*
X004922Y013124D01*
X004957Y013089D01*
X004957Y013054D01*
X004922Y013019D01*
X004957Y012984D01*
X004957Y012949D01*
X004922Y012914D01*
X004852Y012914D01*
X004817Y012949D01*
X004741Y012949D02*
X004741Y012914D01*
X004706Y012914D01*
X004706Y012949D01*
X004741Y012949D01*
X004625Y012949D02*
X004625Y012984D01*
X004590Y013019D01*
X004485Y013019D01*
X004485Y012949D01*
X004520Y012914D01*
X004590Y012914D01*
X004625Y012949D01*
X004555Y013089D02*
X004485Y013019D01*
X004555Y013089D02*
X004625Y013124D01*
X004817Y013089D02*
X004852Y013124D01*
X004887Y013019D02*
X004922Y013019D01*
X005038Y012984D02*
X005038Y013124D01*
X005178Y013124D02*
X005178Y012984D01*
X005108Y012914D01*
X005038Y012984D01*
X004404Y013124D02*
X004264Y012914D01*
X004183Y012914D02*
X004183Y013054D01*
X004043Y013054D02*
X004043Y012949D01*
X004078Y012914D01*
X004183Y012914D01*
X003962Y012949D02*
X003962Y013089D01*
X003822Y012949D01*
X003857Y012914D01*
X003927Y012914D01*
X003962Y012949D01*
X003822Y012949D02*
X003822Y013089D01*
X003857Y013124D01*
X003927Y013124D01*
X003962Y013089D01*
X003741Y012914D02*
X003601Y012914D01*
X003671Y012914D02*
X003671Y013124D01*
X003601Y013054D01*
X005194Y009540D02*
X005194Y009330D01*
X005124Y009330D02*
X005264Y009330D01*
X005345Y009365D02*
X005485Y009505D01*
X005485Y009365D01*
X005450Y009330D01*
X005380Y009330D01*
X005345Y009365D01*
X005345Y009505D01*
X005380Y009540D01*
X005450Y009540D01*
X005485Y009505D01*
X005566Y009505D02*
X005601Y009540D01*
X005671Y009540D01*
X005706Y009505D01*
X005566Y009365D01*
X005601Y009330D01*
X005671Y009330D01*
X005706Y009365D01*
X005706Y009505D01*
X005787Y009470D02*
X005892Y009470D01*
X005927Y009435D01*
X005927Y009330D01*
X005787Y009330D02*
X005787Y009470D01*
X005566Y009505D02*
X005566Y009365D01*
X005194Y009540D02*
X005124Y009470D01*
X007552Y009505D02*
X007587Y009540D01*
X007657Y009540D01*
X007692Y009505D01*
X007692Y009470D01*
X007552Y009330D01*
X007692Y009330D01*
X007773Y009330D02*
X007808Y009330D01*
X007808Y009365D01*
X007773Y009365D01*
X007773Y009330D01*
X007884Y009330D02*
X008024Y009470D01*
X008024Y009505D01*
X007989Y009540D01*
X007919Y009540D01*
X007884Y009505D01*
X007884Y009330D02*
X008024Y009330D01*
X008105Y009330D02*
X008105Y009540D01*
X008210Y009470D02*
X008105Y009400D01*
X008210Y009330D01*
X008351Y009289D02*
X008421Y009289D01*
X008386Y009289D02*
X008386Y009499D01*
X008351Y009499D01*
X008499Y009394D02*
X008534Y009429D01*
X008604Y009429D01*
X008639Y009394D01*
X008639Y009359D01*
X008499Y009359D01*
X008499Y009324D02*
X008499Y009394D01*
X008499Y009324D02*
X008534Y009289D01*
X008604Y009289D01*
X008720Y009324D02*
X008720Y009394D01*
X008755Y009429D01*
X008860Y009429D01*
X008860Y009499D02*
X008860Y009289D01*
X008755Y009289D01*
X008720Y009324D01*
D16*
X008586Y008662D03*
X016118Y008662D03*
X016118Y017256D03*
X008586Y017256D03*
D17*
X007030Y017199D02*
X007030Y017411D01*
X006880Y016745D02*
X006542Y016745D01*
X006892Y016030D02*
X007030Y015892D01*
X007030Y014593D02*
X007030Y014455D01*
X006892Y014455D01*
X005593Y014455D02*
X005455Y014455D01*
X005455Y014593D01*
X005455Y015892D02*
X005455Y016030D01*
X005593Y016030D01*
X005741Y012859D02*
X005741Y011334D01*
X008119Y011334D01*
X008119Y012859D01*
X008013Y012859D01*
X005847Y012859D01*
X005741Y012859D01*
X005941Y012558D02*
X007919Y012558D01*
X008110Y011384D02*
X008119Y011334D01*
X005750Y011384D02*
X005741Y011334D01*
X007030Y008817D02*
X007030Y008606D01*
X006880Y008151D02*
X006542Y008151D01*
X006892Y007436D02*
X007030Y007298D01*
X007030Y005999D02*
X007030Y005861D01*
X006892Y005861D01*
X005593Y005861D02*
X005455Y005861D01*
X005455Y005999D01*
X005455Y007298D02*
X005455Y007436D01*
X005593Y007436D01*
X005741Y004265D02*
X005741Y002740D01*
X008119Y002740D01*
X008119Y004265D01*
X008013Y004265D01*
X005847Y004265D01*
X005741Y004265D01*
X005941Y003964D02*
X007919Y003964D01*
X008110Y002790D02*
X008119Y002740D01*
X005750Y002790D02*
X005741Y002740D01*
X012986Y005861D02*
X013124Y005861D01*
X012986Y005861D02*
X012986Y005999D01*
X012986Y007298D02*
X012986Y007436D01*
X013124Y007436D01*
X014073Y008151D02*
X014412Y008151D01*
X014562Y008606D02*
X014562Y008817D01*
X014423Y007436D02*
X014561Y007298D01*
X014561Y005999D02*
X014561Y005861D01*
X014423Y005861D01*
X013379Y004265D02*
X013272Y004265D01*
X013272Y002740D01*
X015651Y002740D01*
X015651Y004265D01*
X015544Y004265D01*
X013379Y004265D01*
X013472Y003964D02*
X015451Y003964D01*
X015642Y002790D02*
X015651Y002740D01*
X013281Y002790D02*
X013272Y002740D01*
X013272Y011334D02*
X015651Y011334D01*
X015651Y012859D01*
X015544Y012859D01*
X013379Y012859D01*
X013272Y012859D01*
X013272Y011334D01*
X013281Y011384D01*
X013472Y012558D02*
X015451Y012558D01*
X015642Y011384D02*
X015651Y011334D01*
X014561Y014455D02*
X014423Y014455D01*
X014561Y014455D02*
X014561Y014593D01*
X014561Y015892D02*
X014423Y016030D01*
X014412Y016745D02*
X014073Y016745D01*
X014562Y017199D02*
X014562Y017411D01*
X013124Y016030D02*
X012986Y016030D01*
X012986Y015892D01*
X012986Y014593D02*
X012986Y014455D01*
X013124Y014455D01*
D18*
X013379Y012859D02*
X013379Y012663D01*
X013282Y012663D01*
X013329Y012460D02*
X013329Y012066D01*
X013477Y012024D02*
X013477Y011728D01*
X013379Y011728D01*
X013379Y011482D01*
X013281Y011384D01*
X013231Y011426D02*
X013329Y011525D01*
X013329Y011820D01*
X013282Y011728D02*
X013379Y011728D01*
X013329Y011525D02*
X015593Y011525D01*
X015692Y011426D01*
X015642Y011384D02*
X015544Y011482D01*
X013379Y011482D01*
X013477Y012024D02*
X015446Y012024D01*
X015446Y011728D01*
X015544Y011728D01*
X015544Y011482D01*
X015593Y011525D02*
X015593Y011820D01*
X015641Y011728D02*
X015544Y011728D01*
X015593Y012066D02*
X015593Y012460D01*
X015641Y012663D02*
X015544Y012663D01*
X015544Y012859D01*
X015298Y012860D02*
X015298Y012663D01*
X015101Y012663D01*
X015101Y012860D01*
X014806Y012860D02*
X014806Y012663D01*
X014609Y012663D01*
X014609Y012860D01*
X014314Y012860D02*
X014314Y012663D01*
X014117Y012663D01*
X014117Y012860D01*
X013821Y012860D02*
X013821Y012663D01*
X013625Y012663D01*
X013625Y012860D01*
X008110Y012663D02*
X008013Y012663D01*
X008013Y012859D01*
X007767Y012860D02*
X007767Y012663D01*
X007570Y012663D01*
X007570Y012860D01*
X007274Y012860D02*
X007274Y012663D01*
X007078Y012663D01*
X007078Y012860D01*
X006782Y012860D02*
X006782Y012663D01*
X006586Y012663D01*
X006586Y012860D01*
X006290Y012860D02*
X006290Y012663D01*
X006093Y012663D01*
X006093Y012860D01*
X005847Y012859D02*
X005847Y012663D01*
X005750Y012663D01*
X005798Y012460D02*
X005798Y012066D01*
X005946Y012024D02*
X005946Y011728D01*
X005847Y011728D01*
X005847Y011482D01*
X005750Y011384D01*
X005700Y011426D02*
X005798Y011525D01*
X005798Y011820D01*
X005750Y011728D02*
X005847Y011728D01*
X005798Y011525D02*
X008062Y011525D01*
X008160Y011426D01*
X008110Y011384D02*
X008013Y011482D01*
X005847Y011482D01*
X005946Y012024D02*
X007914Y012024D01*
X007914Y011728D01*
X008013Y011728D01*
X008013Y011482D01*
X008062Y011525D02*
X008062Y011820D01*
X008110Y011728D02*
X008013Y011728D01*
X008062Y012066D02*
X008062Y012460D01*
X008013Y004265D02*
X008013Y004069D01*
X008110Y004069D01*
X008062Y003866D02*
X008062Y003472D01*
X007914Y003430D02*
X005946Y003430D01*
X005946Y003134D01*
X005847Y003134D01*
X005847Y002888D01*
X005750Y002790D01*
X005700Y002832D02*
X005798Y002931D01*
X005798Y003226D01*
X005750Y003134D02*
X005847Y003134D01*
X005798Y002931D02*
X008062Y002931D01*
X008160Y002832D01*
X008110Y002790D02*
X008013Y002888D01*
X005847Y002888D01*
X005798Y003472D02*
X005798Y003866D01*
X005847Y004069D02*
X005750Y004069D01*
X005847Y004069D02*
X005847Y004265D01*
X006093Y004266D02*
X006093Y004069D01*
X006290Y004069D01*
X006290Y004266D01*
X006586Y004266D02*
X006586Y004069D01*
X006782Y004069D01*
X006782Y004266D01*
X007078Y004266D02*
X007078Y004069D01*
X007274Y004069D01*
X007274Y004266D01*
X007570Y004266D02*
X007570Y004069D01*
X007767Y004069D01*
X007767Y004266D01*
X007914Y003430D02*
X007914Y003134D01*
X008013Y003134D01*
X008013Y002888D01*
X008062Y002931D02*
X008062Y003226D01*
X008110Y003134D02*
X008013Y003134D01*
X013231Y002832D02*
X013329Y002931D01*
X013329Y003226D01*
X013282Y003134D02*
X013379Y003134D01*
X013379Y002888D01*
X013281Y002790D01*
X013379Y002888D02*
X015544Y002888D01*
X015642Y002790D01*
X015692Y002832D02*
X015593Y002931D01*
X013329Y002931D01*
X013379Y003134D02*
X013477Y003134D01*
X013477Y003430D01*
X015446Y003430D01*
X015446Y003134D01*
X015544Y003134D01*
X015544Y002888D01*
X015593Y002931D02*
X015593Y003226D01*
X015641Y003134D02*
X015544Y003134D01*
X015593Y003472D02*
X015593Y003866D01*
X015641Y004069D02*
X015544Y004069D01*
X015544Y004265D01*
X015298Y004266D02*
X015298Y004069D01*
X015101Y004069D01*
X015101Y004266D01*
X014806Y004266D02*
X014806Y004069D01*
X014609Y004069D01*
X014609Y004266D01*
X014314Y004266D02*
X014314Y004069D01*
X014117Y004069D01*
X014117Y004266D01*
X013821Y004266D02*
X013821Y004069D01*
X013625Y004069D01*
X013625Y004266D01*
X013379Y004265D02*
X013379Y004069D01*
X013282Y004069D01*
X013329Y003866D02*
X013329Y003472D01*
M02*
