G75*
%MOIN*%
%OFA0B0*%
%FSLAX24Y24*%
%IPPOS*%
%LPD*%
%AMOC8*
5,1,8,0,0,1.08239X$1,22.5*
%
%ADD10C,0.0000*%
%ADD11C,0.1300*%
%ADD12C,0.0780*%
%ADD13C,0.0394*%
%ADD14C,0.0437*%
%ADD15C,0.0108*%
%ADD16C,0.0114*%
%ADD17C,0.0130*%
%ADD18C,0.0115*%
%ADD19C,0.0516*%
%ADD20C,0.0116*%
%ADD21C,0.0120*%
%ADD22C,0.1142*%
D10*
X000588Y000721D02*
X000588Y019224D01*
X000587Y019224D02*
X000589Y019270D01*
X000594Y019316D01*
X000603Y019362D01*
X000616Y019407D01*
X000632Y019450D01*
X000651Y019492D01*
X000674Y019533D01*
X000700Y019571D01*
X000729Y019608D01*
X000760Y019642D01*
X000794Y019673D01*
X000831Y019702D01*
X000869Y019728D01*
X000910Y019751D01*
X000952Y019770D01*
X000995Y019786D01*
X001040Y019799D01*
X001086Y019808D01*
X001132Y019813D01*
X001178Y019815D01*
X019682Y019815D01*
X019728Y019813D01*
X019774Y019808D01*
X019820Y019799D01*
X019865Y019786D01*
X019908Y019770D01*
X019950Y019751D01*
X019991Y019728D01*
X020029Y019702D01*
X020066Y019673D01*
X020100Y019642D01*
X020131Y019608D01*
X020160Y019571D01*
X020186Y019533D01*
X020209Y019492D01*
X020228Y019450D01*
X020244Y019407D01*
X020257Y019362D01*
X020266Y019316D01*
X020271Y019270D01*
X020273Y019224D01*
X020273Y000721D01*
X020271Y000675D01*
X020266Y000629D01*
X020257Y000583D01*
X020244Y000538D01*
X020228Y000495D01*
X020209Y000453D01*
X020186Y000412D01*
X020160Y000374D01*
X020131Y000337D01*
X020100Y000303D01*
X020066Y000272D01*
X020029Y000243D01*
X019991Y000217D01*
X019950Y000194D01*
X019908Y000175D01*
X019865Y000159D01*
X019820Y000146D01*
X019774Y000137D01*
X019728Y000132D01*
X019682Y000130D01*
X001178Y000130D01*
X001132Y000132D01*
X001086Y000137D01*
X001040Y000146D01*
X000995Y000159D01*
X000952Y000175D01*
X000910Y000194D01*
X000869Y000217D01*
X000831Y000243D01*
X000794Y000272D01*
X000760Y000303D01*
X000729Y000337D01*
X000700Y000374D01*
X000674Y000412D01*
X000651Y000453D01*
X000632Y000495D01*
X000616Y000538D01*
X000603Y000583D01*
X000594Y000629D01*
X000589Y000675D01*
X000587Y000721D01*
X000942Y001114D02*
X000944Y001164D01*
X000950Y001214D01*
X000960Y001263D01*
X000974Y001311D01*
X000991Y001358D01*
X001012Y001403D01*
X001037Y001447D01*
X001065Y001488D01*
X001097Y001527D01*
X001131Y001564D01*
X001168Y001598D01*
X001208Y001628D01*
X001250Y001655D01*
X001294Y001679D01*
X001340Y001700D01*
X001387Y001716D01*
X001435Y001729D01*
X001485Y001738D01*
X001534Y001743D01*
X001585Y001744D01*
X001635Y001741D01*
X001684Y001734D01*
X001733Y001723D01*
X001781Y001708D01*
X001827Y001690D01*
X001872Y001668D01*
X001915Y001642D01*
X001956Y001613D01*
X001995Y001581D01*
X002031Y001546D01*
X002063Y001508D01*
X002093Y001468D01*
X002120Y001425D01*
X002143Y001381D01*
X002162Y001335D01*
X002178Y001287D01*
X002190Y001238D01*
X002198Y001189D01*
X002202Y001139D01*
X002202Y001089D01*
X002198Y001039D01*
X002190Y000990D01*
X002178Y000941D01*
X002162Y000893D01*
X002143Y000847D01*
X002120Y000803D01*
X002093Y000760D01*
X002063Y000720D01*
X002031Y000682D01*
X001995Y000647D01*
X001956Y000615D01*
X001915Y000586D01*
X001872Y000560D01*
X001827Y000538D01*
X001781Y000520D01*
X001733Y000505D01*
X001684Y000494D01*
X001635Y000487D01*
X001585Y000484D01*
X001534Y000485D01*
X001485Y000490D01*
X001435Y000499D01*
X001387Y000512D01*
X001340Y000528D01*
X001294Y000549D01*
X001250Y000573D01*
X001208Y000600D01*
X001168Y000630D01*
X001131Y000664D01*
X001097Y000701D01*
X001065Y000740D01*
X001037Y000781D01*
X001012Y000825D01*
X000991Y000870D01*
X000974Y000917D01*
X000960Y000965D01*
X000950Y001014D01*
X000944Y001064D01*
X000942Y001114D01*
X002286Y004514D02*
X002288Y004540D01*
X002294Y004566D01*
X002304Y004591D01*
X002317Y004614D01*
X002333Y004634D01*
X002353Y004652D01*
X002375Y004667D01*
X002398Y004679D01*
X002424Y004687D01*
X002450Y004691D01*
X002476Y004691D01*
X002502Y004687D01*
X002528Y004679D01*
X002552Y004667D01*
X002573Y004652D01*
X002593Y004634D01*
X002609Y004614D01*
X002622Y004591D01*
X002632Y004566D01*
X002638Y004540D01*
X002640Y004514D01*
X002638Y004488D01*
X002632Y004462D01*
X002622Y004437D01*
X002609Y004414D01*
X002593Y004394D01*
X002573Y004376D01*
X002551Y004361D01*
X002528Y004349D01*
X002502Y004341D01*
X002476Y004337D01*
X002450Y004337D01*
X002424Y004341D01*
X002398Y004349D01*
X002374Y004361D01*
X002353Y004376D01*
X002333Y004394D01*
X002317Y004414D01*
X002304Y004437D01*
X002294Y004462D01*
X002288Y004488D01*
X002286Y004514D01*
X002286Y006246D02*
X002288Y006272D01*
X002294Y006298D01*
X002304Y006323D01*
X002317Y006346D01*
X002333Y006366D01*
X002353Y006384D01*
X002375Y006399D01*
X002398Y006411D01*
X002424Y006419D01*
X002450Y006423D01*
X002476Y006423D01*
X002502Y006419D01*
X002528Y006411D01*
X002552Y006399D01*
X002573Y006384D01*
X002593Y006366D01*
X002609Y006346D01*
X002622Y006323D01*
X002632Y006298D01*
X002638Y006272D01*
X002640Y006246D01*
X002638Y006220D01*
X002632Y006194D01*
X002622Y006169D01*
X002609Y006146D01*
X002593Y006126D01*
X002573Y006108D01*
X002551Y006093D01*
X002528Y006081D01*
X002502Y006073D01*
X002476Y006069D01*
X002450Y006069D01*
X002424Y006073D01*
X002398Y006081D01*
X002374Y006093D01*
X002353Y006108D01*
X002333Y006126D01*
X002317Y006146D01*
X002304Y006169D01*
X002294Y006194D01*
X002288Y006220D01*
X002286Y006246D01*
X000942Y018831D02*
X000944Y018881D01*
X000950Y018931D01*
X000960Y018980D01*
X000974Y019028D01*
X000991Y019075D01*
X001012Y019120D01*
X001037Y019164D01*
X001065Y019205D01*
X001097Y019244D01*
X001131Y019281D01*
X001168Y019315D01*
X001208Y019345D01*
X001250Y019372D01*
X001294Y019396D01*
X001340Y019417D01*
X001387Y019433D01*
X001435Y019446D01*
X001485Y019455D01*
X001534Y019460D01*
X001585Y019461D01*
X001635Y019458D01*
X001684Y019451D01*
X001733Y019440D01*
X001781Y019425D01*
X001827Y019407D01*
X001872Y019385D01*
X001915Y019359D01*
X001956Y019330D01*
X001995Y019298D01*
X002031Y019263D01*
X002063Y019225D01*
X002093Y019185D01*
X002120Y019142D01*
X002143Y019098D01*
X002162Y019052D01*
X002178Y019004D01*
X002190Y018955D01*
X002198Y018906D01*
X002202Y018856D01*
X002202Y018806D01*
X002198Y018756D01*
X002190Y018707D01*
X002178Y018658D01*
X002162Y018610D01*
X002143Y018564D01*
X002120Y018520D01*
X002093Y018477D01*
X002063Y018437D01*
X002031Y018399D01*
X001995Y018364D01*
X001956Y018332D01*
X001915Y018303D01*
X001872Y018277D01*
X001827Y018255D01*
X001781Y018237D01*
X001733Y018222D01*
X001684Y018211D01*
X001635Y018204D01*
X001585Y018201D01*
X001534Y018202D01*
X001485Y018207D01*
X001435Y018216D01*
X001387Y018229D01*
X001340Y018245D01*
X001294Y018266D01*
X001250Y018290D01*
X001208Y018317D01*
X001168Y018347D01*
X001131Y018381D01*
X001097Y018418D01*
X001065Y018457D01*
X001037Y018498D01*
X001012Y018542D01*
X000991Y018587D01*
X000974Y018634D01*
X000960Y018682D01*
X000950Y018731D01*
X000944Y018781D01*
X000942Y018831D01*
X018659Y018831D02*
X018661Y018881D01*
X018667Y018931D01*
X018677Y018980D01*
X018691Y019028D01*
X018708Y019075D01*
X018729Y019120D01*
X018754Y019164D01*
X018782Y019205D01*
X018814Y019244D01*
X018848Y019281D01*
X018885Y019315D01*
X018925Y019345D01*
X018967Y019372D01*
X019011Y019396D01*
X019057Y019417D01*
X019104Y019433D01*
X019152Y019446D01*
X019202Y019455D01*
X019251Y019460D01*
X019302Y019461D01*
X019352Y019458D01*
X019401Y019451D01*
X019450Y019440D01*
X019498Y019425D01*
X019544Y019407D01*
X019589Y019385D01*
X019632Y019359D01*
X019673Y019330D01*
X019712Y019298D01*
X019748Y019263D01*
X019780Y019225D01*
X019810Y019185D01*
X019837Y019142D01*
X019860Y019098D01*
X019879Y019052D01*
X019895Y019004D01*
X019907Y018955D01*
X019915Y018906D01*
X019919Y018856D01*
X019919Y018806D01*
X019915Y018756D01*
X019907Y018707D01*
X019895Y018658D01*
X019879Y018610D01*
X019860Y018564D01*
X019837Y018520D01*
X019810Y018477D01*
X019780Y018437D01*
X019748Y018399D01*
X019712Y018364D01*
X019673Y018332D01*
X019632Y018303D01*
X019589Y018277D01*
X019544Y018255D01*
X019498Y018237D01*
X019450Y018222D01*
X019401Y018211D01*
X019352Y018204D01*
X019302Y018201D01*
X019251Y018202D01*
X019202Y018207D01*
X019152Y018216D01*
X019104Y018229D01*
X019057Y018245D01*
X019011Y018266D01*
X018967Y018290D01*
X018925Y018317D01*
X018885Y018347D01*
X018848Y018381D01*
X018814Y018418D01*
X018782Y018457D01*
X018754Y018498D01*
X018729Y018542D01*
X018708Y018587D01*
X018691Y018634D01*
X018677Y018682D01*
X018667Y018731D01*
X018661Y018781D01*
X018659Y018831D01*
X018659Y001114D02*
X018661Y001164D01*
X018667Y001214D01*
X018677Y001263D01*
X018691Y001311D01*
X018708Y001358D01*
X018729Y001403D01*
X018754Y001447D01*
X018782Y001488D01*
X018814Y001527D01*
X018848Y001564D01*
X018885Y001598D01*
X018925Y001628D01*
X018967Y001655D01*
X019011Y001679D01*
X019057Y001700D01*
X019104Y001716D01*
X019152Y001729D01*
X019202Y001738D01*
X019251Y001743D01*
X019302Y001744D01*
X019352Y001741D01*
X019401Y001734D01*
X019450Y001723D01*
X019498Y001708D01*
X019544Y001690D01*
X019589Y001668D01*
X019632Y001642D01*
X019673Y001613D01*
X019712Y001581D01*
X019748Y001546D01*
X019780Y001508D01*
X019810Y001468D01*
X019837Y001425D01*
X019860Y001381D01*
X019879Y001335D01*
X019895Y001287D01*
X019907Y001238D01*
X019915Y001189D01*
X019919Y001139D01*
X019919Y001089D01*
X019915Y001039D01*
X019907Y000990D01*
X019895Y000941D01*
X019879Y000893D01*
X019860Y000847D01*
X019837Y000803D01*
X019810Y000760D01*
X019780Y000720D01*
X019748Y000682D01*
X019712Y000647D01*
X019673Y000615D01*
X019632Y000586D01*
X019589Y000560D01*
X019544Y000538D01*
X019498Y000520D01*
X019450Y000505D01*
X019401Y000494D01*
X019352Y000487D01*
X019302Y000484D01*
X019251Y000485D01*
X019202Y000490D01*
X019152Y000499D01*
X019104Y000512D01*
X019057Y000528D01*
X019011Y000549D01*
X018967Y000573D01*
X018925Y000600D01*
X018885Y000630D01*
X018848Y000664D01*
X018814Y000701D01*
X018782Y000740D01*
X018754Y000781D01*
X018729Y000825D01*
X018708Y000870D01*
X018691Y000917D01*
X018677Y000965D01*
X018667Y001014D01*
X018661Y001064D01*
X018659Y001114D01*
D11*
X019289Y001114D03*
X001572Y001114D03*
X001572Y018831D03*
X019289Y018831D03*
D12*
X016588Y019005D03*
X015588Y019005D03*
X014588Y019005D03*
X011088Y019005D03*
X010088Y019005D03*
X009088Y019005D03*
X005588Y019005D03*
X004588Y019005D03*
X003588Y019005D03*
X002338Y016630D03*
X002338Y015630D03*
X002338Y014630D03*
X002338Y013630D03*
X001338Y013630D03*
X001338Y012630D03*
X001338Y014630D03*
X001338Y015630D03*
X001338Y016630D03*
X001338Y008380D03*
X002338Y008380D03*
X003338Y002130D03*
X004338Y002130D03*
X005338Y002130D03*
X006338Y002130D03*
X006338Y000880D03*
X005338Y000880D03*
X004338Y000880D03*
X003338Y000880D03*
X007588Y000880D03*
X008588Y000880D03*
X009588Y000880D03*
X016088Y002380D03*
X017088Y002380D03*
X019463Y003130D03*
X019463Y004130D03*
X019463Y005130D03*
X019463Y006130D03*
X019463Y007130D03*
X019463Y008380D03*
X019463Y009380D03*
D13*
X002463Y006246D03*
X002463Y004514D03*
D14*
X001390Y009767D03*
X001390Y010259D03*
X001390Y010751D03*
X001390Y011243D03*
D15*
X003559Y008687D02*
X003885Y008687D01*
X003885Y008323D01*
X003559Y008323D01*
X003559Y008687D01*
X003559Y008430D02*
X003885Y008430D01*
X003885Y008537D02*
X003559Y008537D01*
X003559Y008644D02*
X003885Y008644D01*
X004228Y008687D02*
X004554Y008687D01*
X004554Y008323D01*
X004228Y008323D01*
X004228Y008687D01*
X004228Y008430D02*
X004554Y008430D01*
X004554Y008537D02*
X004228Y008537D01*
X004228Y008644D02*
X004554Y008644D01*
X004093Y005878D02*
X004093Y005552D01*
X004093Y005878D02*
X004457Y005878D01*
X004457Y005552D01*
X004093Y005552D01*
X004093Y005659D02*
X004457Y005659D01*
X004457Y005766D02*
X004093Y005766D01*
X004093Y005873D02*
X004457Y005873D01*
X004778Y005875D02*
X005104Y005875D01*
X005104Y005511D01*
X004778Y005511D01*
X004778Y005875D01*
X004778Y005618D02*
X005104Y005618D01*
X005104Y005725D02*
X004778Y005725D01*
X004778Y005832D02*
X005104Y005832D01*
X005447Y005875D02*
X005773Y005875D01*
X005773Y005511D01*
X005447Y005511D01*
X005447Y005875D01*
X005447Y005618D02*
X005773Y005618D01*
X005773Y005725D02*
X005447Y005725D01*
X005447Y005832D02*
X005773Y005832D01*
X004093Y005208D02*
X004093Y004882D01*
X004093Y005208D02*
X004457Y005208D01*
X004457Y004882D01*
X004093Y004882D01*
X004093Y004989D02*
X004457Y004989D01*
X004457Y005096D02*
X004093Y005096D01*
X004093Y005203D02*
X004457Y005203D01*
X003280Y005169D02*
X003280Y004843D01*
X003280Y005169D02*
X003762Y005169D01*
X003762Y004843D01*
X003280Y004843D01*
X003280Y004950D02*
X003762Y004950D01*
X003762Y005057D02*
X003280Y005057D01*
X003280Y005164D02*
X003762Y005164D01*
X003280Y005591D02*
X003280Y005917D01*
X003762Y005917D01*
X003762Y005591D01*
X003280Y005591D01*
X003280Y005698D02*
X003762Y005698D01*
X003762Y005805D02*
X003280Y005805D01*
X003280Y005912D02*
X003762Y005912D01*
X002414Y005543D02*
X002414Y005217D01*
X002414Y005543D02*
X002896Y005543D01*
X002896Y005217D01*
X002414Y005217D01*
X002414Y005324D02*
X002896Y005324D01*
X002896Y005431D02*
X002414Y005431D01*
X002414Y005538D02*
X002896Y005538D01*
X002082Y005552D02*
X002082Y005878D01*
X002082Y005552D02*
X001718Y005552D01*
X001718Y005878D01*
X002082Y005878D01*
X002082Y005659D02*
X001718Y005659D01*
X001718Y005766D02*
X002082Y005766D01*
X002082Y005873D02*
X001718Y005873D01*
X002082Y005208D02*
X002082Y004882D01*
X001718Y004882D01*
X001718Y005208D01*
X002082Y005208D01*
X002082Y004989D02*
X001718Y004989D01*
X001718Y005096D02*
X002082Y005096D01*
X002082Y005203D02*
X001718Y005203D01*
X001718Y004128D02*
X002082Y004128D01*
X002082Y003802D01*
X001718Y003802D01*
X001718Y004128D01*
X001718Y003909D02*
X002082Y003909D01*
X002082Y004016D02*
X001718Y004016D01*
X001718Y004123D02*
X002082Y004123D01*
X002082Y003458D02*
X001718Y003458D01*
X002082Y003458D02*
X002082Y003132D01*
X001718Y003132D01*
X001718Y003458D01*
X001718Y003239D02*
X002082Y003239D01*
X002082Y003346D02*
X001718Y003346D01*
X001718Y003453D02*
X002082Y003453D01*
X008362Y012396D02*
X008362Y013114D01*
X008688Y013114D01*
X008688Y012396D01*
X008362Y012396D01*
X008362Y012503D02*
X008688Y012503D01*
X008688Y012610D02*
X008362Y012610D01*
X008362Y012717D02*
X008688Y012717D01*
X008688Y012824D02*
X008362Y012824D01*
X008362Y012931D02*
X008688Y012931D01*
X008688Y013038D02*
X008362Y013038D01*
X008953Y013114D02*
X008953Y012396D01*
X008953Y013114D02*
X009279Y013114D01*
X009279Y012396D01*
X008953Y012396D01*
X008953Y012503D02*
X009279Y012503D01*
X009279Y012610D02*
X008953Y012610D01*
X008953Y012717D02*
X009279Y012717D01*
X009279Y012824D02*
X008953Y012824D01*
X008953Y012931D02*
X009279Y012931D01*
X009279Y013038D02*
X008953Y013038D01*
X014268Y007996D02*
X014268Y007278D01*
X014268Y007996D02*
X014594Y007996D01*
X014594Y007278D01*
X014268Y007278D01*
X014268Y007385D02*
X014594Y007385D01*
X014594Y007492D02*
X014268Y007492D01*
X014268Y007599D02*
X014594Y007599D01*
X014594Y007706D02*
X014268Y007706D01*
X014268Y007813D02*
X014594Y007813D01*
X014594Y007920D02*
X014268Y007920D01*
X015449Y007996D02*
X015449Y007278D01*
X015449Y007996D02*
X015775Y007996D01*
X015775Y007278D01*
X015449Y007278D01*
X015449Y007385D02*
X015775Y007385D01*
X015775Y007492D02*
X015449Y007492D01*
X015449Y007599D02*
X015775Y007599D01*
X015775Y007706D02*
X015449Y007706D01*
X015449Y007813D02*
X015775Y007813D01*
X015775Y007920D02*
X015449Y007920D01*
X015449Y012396D02*
X015449Y013114D01*
X015775Y013114D01*
X015775Y012396D01*
X015449Y012396D01*
X015449Y012503D02*
X015775Y012503D01*
X015775Y012610D02*
X015449Y012610D01*
X015449Y012717D02*
X015775Y012717D01*
X015775Y012824D02*
X015449Y012824D01*
X015449Y012931D02*
X015775Y012931D01*
X015775Y013038D02*
X015449Y013038D01*
X014858Y013114D02*
X014858Y012396D01*
X014858Y013114D02*
X015184Y013114D01*
X015184Y012396D01*
X014858Y012396D01*
X014858Y012503D02*
X015184Y012503D01*
X015184Y012610D02*
X014858Y012610D01*
X014858Y012717D02*
X015184Y012717D01*
X015184Y012824D02*
X014858Y012824D01*
X014858Y012931D02*
X015184Y012931D01*
X015184Y013038D02*
X014858Y013038D01*
D16*
X013321Y002008D02*
X013081Y002008D01*
X013081Y002720D01*
X013321Y002720D01*
X013321Y002008D01*
X013321Y002121D02*
X013081Y002121D01*
X013081Y002234D02*
X013321Y002234D01*
X013321Y002347D02*
X013081Y002347D01*
X013081Y002460D02*
X013321Y002460D01*
X013321Y002573D02*
X013081Y002573D01*
X013081Y002686D02*
X013321Y002686D01*
X012829Y002008D02*
X012589Y002008D01*
X012589Y002720D01*
X012829Y002720D01*
X012829Y002008D01*
X012829Y002121D02*
X012589Y002121D01*
X012589Y002234D02*
X012829Y002234D01*
X012829Y002347D02*
X012589Y002347D01*
X012589Y002460D02*
X012829Y002460D01*
X012829Y002573D02*
X012589Y002573D01*
X012589Y002686D02*
X012829Y002686D01*
X012337Y002008D02*
X012097Y002008D01*
X012097Y002720D01*
X012337Y002720D01*
X012337Y002008D01*
X012337Y002121D02*
X012097Y002121D01*
X012097Y002234D02*
X012337Y002234D01*
X012337Y002347D02*
X012097Y002347D01*
X012097Y002460D02*
X012337Y002460D01*
X012337Y002573D02*
X012097Y002573D01*
X012097Y002686D02*
X012337Y002686D01*
X011845Y002008D02*
X011605Y002008D01*
X011605Y002720D01*
X011845Y002720D01*
X011845Y002008D01*
X011845Y002121D02*
X011605Y002121D01*
X011605Y002234D02*
X011845Y002234D01*
X011845Y002347D02*
X011605Y002347D01*
X011605Y002460D02*
X011845Y002460D01*
X011845Y002573D02*
X011605Y002573D01*
X011605Y002686D02*
X011845Y002686D01*
D17*
X011108Y000589D02*
X010372Y000589D01*
X010372Y001679D01*
X011108Y001679D01*
X011108Y000589D01*
X011108Y000718D02*
X010372Y000718D01*
X010372Y000847D02*
X011108Y000847D01*
X011108Y000976D02*
X010372Y000976D01*
X010372Y001105D02*
X011108Y001105D01*
X011108Y001234D02*
X010372Y001234D01*
X010372Y001363D02*
X011108Y001363D01*
X011108Y001492D02*
X010372Y001492D01*
X010372Y001621D02*
X011108Y001621D01*
X013817Y000589D02*
X014553Y000589D01*
X013817Y000589D02*
X013817Y001679D01*
X014553Y001679D01*
X014553Y000589D01*
X014553Y000718D02*
X013817Y000718D01*
X013817Y000847D02*
X014553Y000847D01*
X014553Y000976D02*
X013817Y000976D01*
X013817Y001105D02*
X014553Y001105D01*
X014553Y001234D02*
X013817Y001234D01*
X013817Y001363D02*
X014553Y001363D01*
X014553Y001492D02*
X013817Y001492D01*
X013817Y001621D02*
X014553Y001621D01*
D18*
X003936Y006585D02*
X003738Y006585D01*
X003738Y006901D01*
X003936Y006901D01*
X003936Y006585D01*
X003936Y006699D02*
X003738Y006699D01*
X003738Y006813D02*
X003936Y006813D01*
X003188Y006585D02*
X002990Y006585D01*
X002990Y006901D01*
X003188Y006901D01*
X003188Y006585D01*
X003188Y006699D02*
X002990Y006699D01*
X002990Y006813D02*
X003188Y006813D01*
X003188Y007605D02*
X002990Y007605D01*
X002990Y007921D01*
X003188Y007921D01*
X003188Y007605D01*
X003188Y007719D02*
X002990Y007719D01*
X002990Y007833D02*
X003188Y007833D01*
X003364Y007605D02*
X003562Y007605D01*
X003364Y007605D02*
X003364Y007921D01*
X003562Y007921D01*
X003562Y007605D01*
X003562Y007719D02*
X003364Y007719D01*
X003364Y007833D02*
X003562Y007833D01*
X003738Y007605D02*
X003936Y007605D01*
X003738Y007605D02*
X003738Y007921D01*
X003936Y007921D01*
X003936Y007605D01*
X003936Y007719D02*
X003738Y007719D01*
X003738Y007833D02*
X003936Y007833D01*
D19*
X003463Y013539D03*
X003463Y014130D03*
X003463Y014721D03*
D20*
X013863Y004262D02*
X014037Y004262D01*
X013863Y004262D02*
X013863Y004686D01*
X014037Y004686D01*
X014037Y004262D01*
X014037Y004377D02*
X013863Y004377D01*
X013863Y004492D02*
X014037Y004492D01*
X014037Y004607D02*
X013863Y004607D01*
X014263Y004262D02*
X014437Y004262D01*
X014263Y004262D02*
X014263Y004686D01*
X014437Y004686D01*
X014437Y004262D01*
X014437Y004377D02*
X014263Y004377D01*
X014263Y004492D02*
X014437Y004492D01*
X014437Y004607D02*
X014263Y004607D01*
D21*
X014310Y004474D02*
X013990Y004474D01*
D22*
X015838Y001130D03*
X017338Y001130D03*
M02*
