G75*
%MOIN*%
%OFA0B0*%
%FSLAX24Y24*%
%IPPOS*%
%LPD*%
%AMOC8*
5,1,8,0,0,1.08239X$1,22.5*
%
%ADD10C,0.0000*%
%ADD11C,0.0100*%
%ADD12C,0.0080*%
%ADD13C,0.0060*%
D10*
X000425Y000238D02*
X015425Y000238D01*
X015455Y000240D01*
X015485Y000245D01*
X015514Y000254D01*
X015541Y000267D01*
X015567Y000282D01*
X015591Y000301D01*
X015612Y000322D01*
X015631Y000346D01*
X015646Y000372D01*
X015659Y000399D01*
X015668Y000428D01*
X015673Y000458D01*
X015675Y000488D01*
X015675Y007738D01*
X015673Y007768D01*
X015668Y007798D01*
X015659Y007827D01*
X015646Y007854D01*
X015631Y007880D01*
X015612Y007904D01*
X015591Y007925D01*
X015567Y007944D01*
X015541Y007959D01*
X015514Y007972D01*
X015485Y007981D01*
X015455Y007986D01*
X015425Y007988D01*
X000425Y007988D01*
X000395Y007986D01*
X000365Y007981D01*
X000336Y007972D01*
X000309Y007959D01*
X000283Y007944D01*
X000259Y007925D01*
X000238Y007904D01*
X000219Y007880D01*
X000204Y007854D01*
X000191Y007827D01*
X000182Y007798D01*
X000177Y007768D01*
X000175Y007738D01*
X000175Y000488D01*
X000177Y000458D01*
X000182Y000428D01*
X000191Y000399D01*
X000204Y000372D01*
X000219Y000346D01*
X000238Y000322D01*
X000259Y000301D01*
X000283Y000282D01*
X000309Y000267D01*
X000336Y000254D01*
X000365Y000245D01*
X000395Y000240D01*
X000425Y000238D01*
D11*
X007819Y003850D02*
X008085Y004250D01*
X007819Y004250D02*
X008085Y003850D01*
X008739Y004050D02*
X009006Y004050D01*
X009660Y004184D02*
X009794Y004050D01*
X009794Y003850D01*
X009794Y004050D02*
X009927Y004184D01*
X009927Y004250D01*
X009660Y004250D02*
X009660Y004184D01*
X009660Y004600D02*
X009794Y004733D01*
X009727Y004733D02*
X009927Y004733D01*
X009727Y004733D02*
X009660Y004800D01*
X009660Y004934D01*
X009727Y005000D01*
X009927Y005000D01*
X009927Y004600D01*
X009006Y004600D02*
X008739Y005000D01*
X009006Y005000D02*
X008739Y004600D01*
X008085Y004800D02*
X007819Y004800D01*
X007819Y005550D02*
X008085Y005550D01*
X008739Y005550D02*
X009006Y005550D01*
X009660Y005550D02*
X009727Y005483D01*
X009927Y005483D01*
X009660Y005550D02*
X009660Y005684D01*
X009727Y005750D01*
X009927Y005750D01*
X009927Y005350D01*
X009957Y007128D02*
X009863Y007128D01*
X009863Y007221D01*
X009957Y007221D01*
X009957Y007128D01*
X009653Y007221D02*
X009653Y007408D01*
X009560Y007501D01*
X009373Y007501D01*
X009279Y007408D01*
X009279Y007314D01*
X009653Y007314D01*
X009653Y007221D02*
X009560Y007128D01*
X009373Y007128D01*
X009045Y007221D02*
X008952Y007128D01*
X008672Y007128D01*
X008672Y007501D01*
X009045Y007501D02*
X009045Y007221D01*
X010191Y007221D02*
X010191Y007501D01*
X010565Y007501D02*
X010565Y007221D01*
X010471Y007128D01*
X010378Y007221D01*
X010284Y007128D01*
X010191Y007221D01*
X010783Y007128D02*
X010970Y007128D01*
X010876Y007128D02*
X010876Y007501D01*
X010970Y007501D01*
X010876Y007688D02*
X010876Y007781D01*
X011281Y007688D02*
X011281Y007128D01*
X011188Y007128D02*
X011375Y007128D01*
X011593Y007128D02*
X011780Y007128D01*
X011687Y007128D02*
X011687Y007688D01*
X011780Y007688D01*
X012014Y007408D02*
X012107Y007501D01*
X012294Y007501D01*
X012388Y007408D01*
X012388Y007221D01*
X012294Y007128D01*
X012107Y007128D01*
X012014Y007221D01*
X012014Y007408D01*
X012598Y007221D02*
X012598Y007128D01*
X012692Y007128D01*
X012692Y007221D01*
X012598Y007221D01*
X012926Y007221D02*
X012926Y007501D01*
X013299Y007501D02*
X013299Y007221D01*
X013206Y007128D01*
X013112Y007221D01*
X013019Y007128D01*
X012926Y007221D01*
X013533Y007221D02*
X013533Y007501D01*
X013907Y007501D02*
X013907Y007221D01*
X013814Y007128D01*
X013720Y007221D01*
X013627Y007128D01*
X013533Y007221D01*
X014141Y007221D02*
X014141Y007501D01*
X014515Y007501D02*
X014515Y007221D01*
X014421Y007128D01*
X014328Y007221D01*
X014234Y007128D01*
X014141Y007221D01*
X011375Y007688D02*
X011281Y007688D01*
X005154Y007688D02*
X005154Y007128D01*
X004780Y007128D02*
X004780Y007688D01*
X004546Y007688D02*
X004173Y007688D01*
X004359Y007688D02*
X004359Y007128D01*
X004780Y007128D02*
X005154Y007688D01*
X003331Y007501D02*
X003331Y007128D01*
X003144Y007128D02*
X003144Y007408D01*
X003051Y007501D01*
X002957Y007408D01*
X002957Y007128D01*
X002723Y007221D02*
X002630Y007128D01*
X002443Y007128D01*
X002349Y007221D01*
X002349Y007408D01*
X002443Y007501D01*
X002630Y007501D01*
X002723Y007408D01*
X002723Y007221D01*
X003144Y007408D02*
X003237Y007501D01*
X003331Y007501D01*
X002115Y007501D02*
X001929Y007501D01*
X002022Y007595D02*
X002022Y007221D01*
X001929Y007128D01*
X001710Y007221D02*
X001617Y007128D01*
X001430Y007128D01*
X001337Y007221D01*
X001337Y007408D01*
X001430Y007501D01*
X001617Y007501D01*
X001710Y007408D01*
X001710Y007221D01*
X001102Y007314D02*
X000916Y007501D01*
X000822Y007501D01*
X001102Y007501D02*
X001102Y007128D01*
X001481Y006511D02*
X001387Y006418D01*
X001387Y006324D01*
X001761Y006324D01*
X001761Y006231D02*
X001761Y006418D01*
X001667Y006511D01*
X001481Y006511D01*
X001761Y006231D02*
X001667Y006138D01*
X001481Y006138D01*
X001979Y006138D02*
X002166Y006138D01*
X002073Y006138D02*
X002073Y006698D01*
X002166Y006698D01*
X002400Y006511D02*
X002400Y006138D01*
X002680Y006138D01*
X002774Y006231D01*
X002774Y006511D01*
X003008Y006511D02*
X003288Y006511D01*
X003381Y006418D01*
X003381Y006231D01*
X003288Y006138D01*
X003008Y006138D01*
X003008Y006698D01*
X003616Y006418D02*
X003709Y006511D01*
X003896Y006511D01*
X003989Y006418D01*
X003989Y006231D01*
X003896Y006138D01*
X003709Y006138D01*
X003616Y006231D01*
X003616Y006418D01*
X004223Y006418D02*
X004223Y006138D01*
X004410Y006138D02*
X004410Y006418D01*
X004317Y006511D01*
X004223Y006418D01*
X004410Y006418D02*
X004503Y006511D01*
X004597Y006511D01*
X004597Y006138D01*
X004242Y005521D02*
X004056Y005148D01*
X003869Y005521D01*
X003635Y005615D02*
X003541Y005708D01*
X003354Y005708D01*
X003261Y005615D01*
X003635Y005241D01*
X003541Y005148D01*
X003354Y005148D01*
X003261Y005241D01*
X003261Y005615D01*
X003635Y005615D02*
X003635Y005241D01*
X003027Y005241D02*
X003027Y005148D01*
X002934Y005148D01*
X002934Y005241D01*
X003027Y005241D01*
X002723Y005241D02*
X002349Y005615D01*
X002349Y005241D01*
X002443Y005148D01*
X002630Y005148D01*
X002723Y005241D01*
X002723Y005615D01*
X002630Y005708D01*
X002443Y005708D01*
X002349Y005615D01*
X002115Y005615D02*
X002115Y005521D01*
X002022Y005428D01*
X001742Y005428D01*
X001742Y005241D02*
X001742Y005615D01*
X001835Y005708D01*
X002022Y005708D01*
X002115Y005615D01*
X002115Y005241D02*
X002022Y005148D01*
X001835Y005148D01*
X001742Y005241D01*
D12*
X001733Y004135D02*
X001733Y003922D01*
X001627Y003815D01*
X001520Y003922D01*
X001520Y004135D01*
X001365Y004135D02*
X001205Y004135D01*
X001151Y004082D01*
X001151Y004029D01*
X001205Y003975D01*
X001365Y003975D01*
X001205Y003975D02*
X001151Y003922D01*
X001151Y003868D01*
X001205Y003815D01*
X001365Y003815D01*
X001365Y004135D01*
X000997Y004029D02*
X000890Y004135D01*
X000783Y004029D01*
X000783Y003815D01*
X000522Y003815D02*
X000522Y004135D01*
X000628Y004135D02*
X000415Y004135D01*
X000783Y003975D02*
X000997Y003975D01*
X000997Y004029D02*
X000997Y003815D01*
X002195Y002698D02*
X002125Y002628D01*
X002125Y002558D01*
X002195Y002488D01*
X002405Y002488D01*
X002405Y002278D02*
X002405Y002698D01*
X002195Y002698D01*
X002195Y002488D02*
X002125Y002418D01*
X002125Y002348D01*
X002195Y002278D01*
X002405Y002278D01*
X002725Y002278D02*
X002725Y002698D01*
X002865Y002698D02*
X002585Y002698D01*
X003045Y002698D02*
X003045Y002278D01*
X003326Y002698D01*
X003326Y002278D01*
X003019Y001948D02*
X002879Y001948D01*
X002949Y001948D02*
X002949Y001528D01*
X003019Y001528D02*
X002879Y001528D01*
X002712Y001528D02*
X002712Y001948D01*
X002431Y001528D01*
X002431Y001948D01*
X001562Y000760D02*
X001615Y000707D01*
X001615Y000493D01*
X001562Y000440D01*
X001455Y000440D01*
X001401Y000493D01*
X001401Y000600D01*
X001508Y000600D01*
X001401Y000707D02*
X001455Y000760D01*
X001562Y000760D01*
X001247Y000760D02*
X001033Y000440D01*
X001033Y000760D01*
X000878Y000760D02*
X000718Y000760D01*
X000665Y000707D01*
X000665Y000493D01*
X000718Y000440D01*
X000878Y000440D01*
X000878Y000760D01*
X001247Y000760D02*
X001247Y000440D01*
X004629Y000528D02*
X004843Y000528D01*
X004736Y000528D02*
X004736Y000848D01*
X004843Y000741D01*
X004997Y000794D02*
X005051Y000848D01*
X005211Y000848D01*
X005211Y000528D01*
X005051Y000528D01*
X004997Y000581D01*
X004997Y000794D01*
X005366Y000848D02*
X005579Y000848D01*
X005579Y000528D01*
X005366Y000528D01*
X005472Y000688D02*
X005579Y000688D01*
X005734Y000528D02*
X005948Y000528D01*
X005948Y000848D01*
X006317Y000794D02*
X006370Y000848D01*
X006477Y000848D01*
X006530Y000794D01*
X006685Y000794D02*
X006738Y000848D01*
X006898Y000848D01*
X006898Y000528D01*
X006738Y000528D01*
X006685Y000581D01*
X006685Y000794D01*
X007053Y000848D02*
X007267Y000848D01*
X007267Y000528D01*
X007053Y000528D01*
X007160Y000688D02*
X007267Y000688D01*
X007421Y000528D02*
X007635Y000528D01*
X007635Y000848D01*
X006530Y000528D02*
X006317Y000741D01*
X006317Y000794D01*
X006317Y000528D02*
X006530Y000528D01*
X010727Y000806D02*
X010727Y001019D01*
X010781Y001073D01*
X010941Y001073D01*
X010941Y000753D01*
X010781Y000753D01*
X010727Y000806D01*
X011096Y000753D02*
X011096Y001073D01*
X011309Y001073D02*
X011096Y000753D01*
X011309Y000753D02*
X011309Y001073D01*
X011464Y001019D02*
X011517Y001073D01*
X011624Y001073D01*
X011677Y001019D01*
X011677Y000806D01*
X011624Y000753D01*
X011517Y000753D01*
X011464Y000806D01*
X011464Y000913D01*
X011571Y000913D01*
X011893Y001903D02*
X011753Y002043D01*
X011753Y002323D01*
X012033Y002323D02*
X012033Y002043D01*
X011893Y001903D01*
X012213Y001973D02*
X012283Y001903D01*
X012423Y001903D01*
X012493Y001973D01*
X012493Y002113D02*
X012353Y002183D01*
X012283Y002183D01*
X012213Y002113D01*
X012213Y001973D01*
X012493Y002113D02*
X012493Y002323D01*
X012213Y002323D01*
X013065Y002323D02*
X013345Y002323D01*
X013205Y002323D02*
X013205Y001903D01*
X013526Y001903D02*
X013526Y002183D01*
X013666Y002323D01*
X013806Y002183D01*
X013806Y001903D01*
X013986Y001973D02*
X014056Y001903D01*
X014266Y001903D01*
X014266Y002323D01*
X014056Y002323D01*
X013986Y002253D01*
X013986Y002183D01*
X014056Y002113D01*
X014266Y002113D01*
X014446Y002043D02*
X014446Y002323D01*
X014727Y002323D02*
X014727Y002043D01*
X014586Y001903D01*
X014446Y002043D01*
X014056Y002113D02*
X013986Y002043D01*
X013986Y001973D01*
X013806Y002113D02*
X013526Y002113D01*
X014965Y002442D02*
X015035Y002371D01*
X015105Y002371D01*
X015175Y002442D01*
X015175Y002652D01*
X015385Y002652D02*
X015385Y002442D01*
X015315Y002371D01*
X015245Y002371D01*
X015175Y002442D01*
X014965Y002442D02*
X014965Y002652D01*
X015385Y002652D01*
X014965Y002832D02*
X014965Y003112D01*
X014965Y002972D02*
X015385Y002972D01*
X015385Y003292D02*
X014965Y003292D01*
X014965Y003573D02*
X015385Y003292D01*
X015385Y003573D02*
X014965Y003573D01*
X014965Y004996D02*
X014965Y005277D01*
X014965Y005137D02*
X015385Y005137D01*
X015315Y005457D02*
X015035Y005457D01*
X014965Y005527D01*
X014965Y005667D01*
X015035Y005737D01*
X015315Y005737D01*
X015385Y005667D01*
X015385Y005527D01*
X015315Y005457D01*
X015385Y005917D02*
X014965Y005917D01*
X015105Y006057D01*
X014965Y006198D01*
X015385Y006198D01*
X011671Y004010D02*
X011671Y003797D01*
X011564Y003690D01*
X011457Y003797D01*
X011457Y004010D01*
X011302Y004010D02*
X011142Y004010D01*
X011089Y003957D01*
X011089Y003904D01*
X011142Y003850D01*
X011302Y003850D01*
X011142Y003850D02*
X011089Y003797D01*
X011089Y003743D01*
X011142Y003690D01*
X011302Y003690D01*
X011302Y004010D01*
X010934Y003904D02*
X010827Y004010D01*
X010721Y003904D01*
X010721Y003690D01*
X010459Y003690D02*
X010459Y004010D01*
X010566Y004010D02*
X010352Y004010D01*
X010721Y003850D02*
X010934Y003850D01*
X010934Y003904D02*
X010934Y003690D01*
X014965Y001661D02*
X015035Y001731D01*
X015315Y001731D01*
X015385Y001661D01*
X015385Y001521D01*
X015315Y001451D01*
X015035Y001451D01*
X014965Y001521D01*
X014965Y001661D01*
X015175Y001911D02*
X015175Y002191D01*
X015315Y001271D02*
X014965Y001271D01*
X015315Y001271D02*
X015385Y001200D01*
X015385Y001060D01*
X015315Y000990D01*
X014965Y000990D01*
X014965Y000810D02*
X014965Y000530D01*
X014965Y000670D02*
X015385Y000670D01*
D13*
X013800Y002500D02*
X012050Y002500D01*
X012033Y002502D01*
X012016Y002506D01*
X012000Y002513D01*
X011986Y002523D01*
X011973Y002536D01*
X011963Y002550D01*
X011956Y002566D01*
X011952Y002583D01*
X011950Y002600D01*
X011950Y003250D01*
X011952Y003267D01*
X011956Y003284D01*
X011963Y003300D01*
X011973Y003314D01*
X011986Y003327D01*
X012000Y003337D01*
X012016Y003344D01*
X012033Y003348D01*
X012050Y003350D01*
X013800Y003350D01*
X013817Y003348D01*
X013834Y003344D01*
X013850Y003337D01*
X013864Y003327D01*
X013877Y003314D01*
X013887Y003300D01*
X013894Y003284D01*
X013898Y003267D01*
X013900Y003250D01*
X013900Y002600D01*
X013898Y002583D01*
X013894Y002566D01*
X013887Y002550D01*
X013877Y002536D01*
X013864Y002523D01*
X013850Y002513D01*
X013834Y002506D01*
X013817Y002502D01*
X013800Y002500D01*
X003538Y003413D02*
X003538Y004063D01*
X003536Y004080D01*
X003532Y004097D01*
X003525Y004113D01*
X003515Y004127D01*
X003502Y004140D01*
X003488Y004150D01*
X003472Y004157D01*
X003455Y004161D01*
X003438Y004163D01*
X002288Y004163D01*
X002271Y004161D01*
X002254Y004157D01*
X002238Y004150D01*
X002224Y004140D01*
X002211Y004127D01*
X002201Y004113D01*
X002194Y004097D01*
X002190Y004080D01*
X002188Y004063D01*
X002188Y003413D01*
X002190Y003396D01*
X002194Y003379D01*
X002201Y003363D01*
X002211Y003349D01*
X002224Y003336D01*
X002238Y003326D01*
X002254Y003319D01*
X002271Y003315D01*
X002288Y003313D01*
X003438Y003313D01*
X003455Y003315D01*
X003472Y003319D01*
X003488Y003326D01*
X003502Y003336D01*
X003515Y003349D01*
X003525Y003363D01*
X003532Y003379D01*
X003536Y003396D01*
X003538Y003413D01*
M02*
