%
M48
M72
T01C0.0118
T02C0.0197
T03C0.0236
T04C0.0394
T05C0.1260
%
T01
X33531Y23335
X32429Y23650
X32154Y24122
X32508Y24280
X32390Y25461
X33492Y26602
X33571Y26917
X33256Y27508
X32390Y27823
X32114Y26839
X34949Y27626
X35697Y26839
X36051Y26248
X36563Y26878
X36327Y27232
X36563Y28138
X36445Y28650
X36996Y28689
X37547Y28571
X38059Y28020
X38138Y27272
X38374Y26917
X38335Y26406
X39083Y26602
X39201Y26287
X39870Y26917
X39870Y27232
X39752Y27508
X39713Y27823
X39909Y28059
X39555Y28098
X39949Y28689
X39870Y29004
X39791Y29319
X39555Y29516
X38965Y29752
X38335Y30303
X38020Y30539
X38217Y31130
X38335Y31524
X38335Y31839
X39240Y31701
X39319Y31366
X39713Y30933
X39280Y30421
X40106Y30067
X40421Y30303
X41091Y30461
X41366Y30657
X40657Y31012
X40657Y31406
X40106Y31957
X39949Y32311
X40461Y32193
X41091Y32350
X41366Y32587
X40657Y32902
X40657Y33295
X39870Y32941
X39555Y32862
X39634Y33335
X39831Y34043
X40185Y34043
X39949Y34594
X39791Y34870
X39831Y35185
X39831Y35500
X40106Y35736
X40657Y35776
X40657Y35185
X40657Y34791
X41091Y34240
X41366Y34594
X38413Y34398
X38098Y34161
X37783Y34161
X38413Y33925
X37429Y33138
X37193Y32941
X36957Y33138
X36839Y32823
X36839Y32508
X37232Y32154
X37154Y31760
X37350Y31524
X37154Y31287
X37350Y31051
X37311Y30618
X36091Y30697
X35382Y31366
X35185Y31602
X35028Y31878
X34870Y32154
X35461Y32035
X35776Y32744
X35972Y32980
X35421Y32941
X34988Y32783
X33886Y32665
X33886Y32350
X33728Y31484
X33925Y30776
X34988Y30264
X35067Y29949
X35618Y29673
X36524Y29594
X37508Y29713
X37823Y29713
X39280Y28886
X40382Y28413
X41091Y28571
X41366Y28728
X41524Y27941
X40657Y27626
X40657Y27232
X40185Y26720
X40185Y26327
X40657Y26406
X41091Y26681
X41366Y26957
X42114Y26839
X41602Y26091
X40933Y25146
X40933Y24870
X41130Y24634
X41130Y24319
X40815Y24476
X40815Y24004
X40854Y23531
X40894Y23177
X41996Y23059
X41563Y21760
X39240Y23689
X39870Y24201
X39909Y24988
X39437Y25165
X39988Y25500
X38650Y25539
X38098Y25461
X38256Y24909
X38256Y24555
X37508Y24909
X36720Y24280
X35854Y24280
X35461Y23925
X35146Y23965
X35539Y23531
X35539Y23217
X35776Y22547
X34634Y22114
X34319Y22114
X34004Y22114
X34240Y21602
X36681Y22823
X37075Y22193
X37469Y23059
X38374Y22902
X38374Y23335
X35697Y25264
X34043Y23965
X37429Y27232
X39043Y27390
X40657Y29122
X40657Y29516
X37823Y32783
X36366Y32114
X34870Y33886
X35028Y34201
X35500Y34083
X37075Y34437
X37311Y35539
X36760Y35618
X36091Y35736
X36484Y36248
X36366Y36681
X37705Y36681
X37823Y36051
X38335Y35697
X38059Y35461
X34437Y36681
X33650Y35146
X31602Y34280
X33217Y34555
X33571Y33413
X32232Y31957
X32390Y29870
X34319Y29752
X34949Y29004
X41996Y24949
T02
X32075Y24900
X33531Y25465
X33728Y24900
X33531Y27740
X33728Y28305
X32075Y28305
T03
X35441Y35970
X35441Y35470
X35441Y34970
X35441Y36470
T04
X32878Y29406
X31878Y29406
X31878Y30406
X32878Y30406
X32878Y31406
X32878Y32406
X31878Y32406
X31878Y31406
X31878Y33406
X32878Y33406
X39878Y36406
X40878Y36406
X41878Y36406
X41878Y35406
X41878Y34406
X41878Y33406
X41878Y32406
X41878Y31406
X41878Y30406
X41878Y29406
X41878Y28406
X41878Y27406
X38878Y22406
X37878Y22406
T05
X32350Y22154
X32350Y35933
M30
