G75*
G70*
%OFA0B0*%
%FSLAX24Y24*%
%IPPOS*%
%LPD*%
%AMOC8*
5,1,8,0,0,1.08239X$1,22.5*
%
%ADD10C,0.0594*%
%ADD11C,0.0436*%
%ADD12C,0.0397*%
%ADD13C,0.0079*%
%ADD14C,0.0238*%
%ADD15C,0.0394*%
%ADD16C,0.0236*%
D10*
X037878Y022406D03*
X038878Y022406D03*
X041878Y027406D03*
X041878Y028406D03*
X041878Y029406D03*
X041878Y030406D03*
X041878Y031406D03*
X041878Y032406D03*
X041878Y033406D03*
X041878Y034406D03*
X041878Y035406D03*
X041878Y036406D03*
X040878Y036406D03*
X039878Y036406D03*
X032878Y033406D03*
X031878Y033406D03*
X031878Y032406D03*
X032878Y032406D03*
X032878Y031406D03*
X031878Y031406D03*
X031878Y030406D03*
X032878Y030406D03*
X032878Y029406D03*
X031878Y029406D03*
D11*
X035441Y034970D03*
X035441Y035470D03*
X035441Y035970D03*
X035441Y036470D03*
D12*
X033728Y028305D03*
X032075Y028305D03*
X032075Y024900D03*
X033728Y024900D03*
D13*
X031506Y021366D02*
X031506Y029269D01*
X031542Y029181D01*
X031654Y029070D01*
X031799Y029009D01*
X031957Y029009D01*
X032102Y029070D01*
X032214Y029181D01*
X032274Y029327D01*
X032274Y029484D01*
X032214Y029630D01*
X032102Y029741D01*
X031957Y029802D01*
X031799Y029802D01*
X031654Y029741D01*
X031542Y029630D01*
X031506Y029542D01*
X031506Y030269D01*
X031542Y030181D01*
X031654Y030070D01*
X031799Y030009D01*
X031957Y030009D01*
X032102Y030070D01*
X032214Y030181D01*
X032274Y030327D01*
X032274Y030484D01*
X032214Y030630D01*
X032102Y030741D01*
X032030Y030771D01*
X032450Y031191D01*
X032450Y031624D01*
X032683Y031857D01*
X033156Y031857D01*
X033237Y031939D01*
X033434Y032135D01*
X033434Y032883D01*
X033710Y033159D01*
X033710Y033243D01*
X033789Y033323D01*
X033789Y033504D01*
X033661Y033632D01*
X033480Y033632D01*
X033352Y033504D01*
X033352Y033323D01*
X033417Y033259D01*
X033238Y033080D01*
X033157Y032998D01*
X033157Y032687D01*
X033102Y032741D01*
X032957Y032802D01*
X032799Y032802D01*
X032654Y032741D01*
X032542Y032630D01*
X032482Y032484D01*
X032482Y032327D01*
X032542Y032181D01*
X032588Y032135D01*
X032569Y032135D01*
X032451Y032017D01*
X032451Y032047D01*
X032323Y032175D01*
X032208Y032175D01*
X032214Y032181D01*
X032274Y032327D01*
X032274Y032484D01*
X032214Y032630D01*
X032102Y032741D01*
X031957Y032802D01*
X031799Y032802D01*
X031654Y032741D01*
X031542Y032630D01*
X031506Y032542D01*
X031506Y033269D01*
X031542Y033181D01*
X031654Y033070D01*
X031799Y033009D01*
X031957Y033009D01*
X032102Y033070D01*
X032214Y033181D01*
X032274Y033327D01*
X032274Y033484D01*
X032214Y033630D01*
X032102Y033741D01*
X031957Y033802D01*
X031799Y033802D01*
X031654Y033741D01*
X031542Y033630D01*
X031506Y033542D01*
X031506Y034067D01*
X031512Y034061D01*
X031693Y034061D01*
X031821Y034189D01*
X031821Y034370D01*
X031693Y034498D01*
X031512Y034498D01*
X031506Y034492D01*
X031506Y036778D01*
X034225Y036778D01*
X034219Y036772D01*
X031506Y036772D01*
X031506Y036695D02*
X032179Y036695D01*
X032197Y036702D02*
X031915Y036585D01*
X031698Y036369D01*
X031581Y036086D01*
X031581Y035780D01*
X031698Y035497D01*
X031915Y035281D01*
X032197Y035164D01*
X032503Y035164D01*
X032786Y035281D01*
X033003Y035497D01*
X033120Y035780D01*
X033120Y036086D01*
X033003Y036369D01*
X032786Y036585D01*
X032503Y036702D01*
X032197Y036702D01*
X031992Y036617D02*
X031506Y036617D01*
X031506Y036540D02*
X031870Y036540D01*
X031792Y036463D02*
X031506Y036463D01*
X031506Y036386D02*
X031715Y036386D01*
X031673Y036308D02*
X031506Y036308D01*
X031506Y036231D02*
X031641Y036231D01*
X031609Y036154D02*
X031506Y036154D01*
X031506Y036077D02*
X031581Y036077D01*
X031581Y035999D02*
X031506Y035999D01*
X031506Y035922D02*
X031581Y035922D01*
X031581Y035845D02*
X031506Y035845D01*
X031506Y035768D02*
X031586Y035768D01*
X031618Y035690D02*
X031506Y035690D01*
X031506Y035613D02*
X031650Y035613D01*
X031682Y035536D02*
X031506Y035536D01*
X031506Y035459D02*
X031737Y035459D01*
X031814Y035382D02*
X031506Y035382D01*
X031506Y035304D02*
X031891Y035304D01*
X032045Y035227D02*
X031506Y035227D01*
X031506Y035150D02*
X033431Y035150D01*
X033431Y035227D02*
X032656Y035227D01*
X032810Y035304D02*
X033499Y035304D01*
X033559Y035364D02*
X033431Y035236D01*
X033431Y035055D01*
X033559Y034927D01*
X033740Y034927D01*
X033868Y035055D01*
X033868Y035236D01*
X033740Y035364D01*
X033559Y035364D01*
X033800Y035304D02*
X034653Y035304D01*
X034653Y035227D02*
X033868Y035227D01*
X033868Y035150D02*
X034653Y035150D01*
X034653Y035073D02*
X033868Y035073D01*
X033808Y034995D02*
X034653Y034995D01*
X034653Y034918D02*
X031506Y034918D01*
X031506Y034841D02*
X034653Y034841D01*
X034653Y034764D02*
X033317Y034764D01*
X033307Y034774D02*
X033126Y034774D01*
X032998Y034646D01*
X032998Y034465D01*
X033126Y034337D01*
X033307Y034337D01*
X033435Y034465D01*
X033435Y034646D01*
X033307Y034774D01*
X033394Y034686D02*
X034700Y034686D01*
X034734Y034653D02*
X034967Y034419D01*
X034937Y034419D01*
X034809Y034291D01*
X034809Y034110D01*
X034937Y033982D01*
X035118Y033982D01*
X035246Y034110D01*
X035246Y034140D01*
X035282Y034105D01*
X035282Y033992D01*
X035410Y033864D01*
X035590Y033864D01*
X035718Y033992D01*
X035718Y034173D01*
X035590Y034301D01*
X035478Y034301D01*
X034930Y034849D01*
X034930Y035763D01*
X035123Y035957D01*
X035123Y035907D01*
X035172Y035791D01*
X035242Y035720D01*
X035172Y035650D01*
X035123Y035534D01*
X035123Y035407D01*
X035172Y035291D01*
X035214Y035249D01*
X035213Y035248D01*
X035163Y035198D01*
X035124Y035140D01*
X035097Y035075D01*
X035083Y035006D01*
X035083Y034990D01*
X035421Y034990D01*
X035421Y034951D01*
X035083Y034951D01*
X035083Y034935D01*
X035097Y034866D01*
X035124Y034801D01*
X035163Y034743D01*
X035213Y034693D01*
X035272Y034654D01*
X035337Y034627D01*
X035406Y034613D01*
X035421Y034613D01*
X035421Y034951D01*
X035461Y034951D01*
X035461Y034990D01*
X035798Y034990D01*
X035798Y035006D01*
X035785Y035075D01*
X035758Y035140D01*
X035719Y035198D01*
X035669Y035248D01*
X035668Y035249D01*
X035710Y035291D01*
X035758Y035407D01*
X035758Y035534D01*
X035710Y035650D01*
X035640Y035720D01*
X035710Y035791D01*
X035758Y035907D01*
X035758Y036034D01*
X035710Y036150D01*
X035640Y036220D01*
X035710Y036291D01*
X035758Y036407D01*
X035758Y036534D01*
X035710Y036650D01*
X035621Y036740D01*
X035528Y036778D01*
X036154Y036778D01*
X036148Y036772D01*
X035543Y036772D01*
X035666Y036695D02*
X036148Y036695D01*
X036148Y036772D02*
X036148Y036591D01*
X036276Y036463D01*
X036390Y036463D01*
X036266Y036339D01*
X036266Y036158D01*
X036394Y036030D01*
X036575Y036030D01*
X036654Y036109D01*
X036860Y036109D01*
X037216Y035753D01*
X037093Y035630D01*
X037093Y035449D01*
X037221Y035321D01*
X037251Y035321D01*
X037251Y034570D01*
X037165Y034655D01*
X036984Y034655D01*
X036856Y034527D01*
X036856Y034347D01*
X036984Y034219D01*
X037165Y034219D01*
X037251Y034304D01*
X037251Y033986D01*
X037332Y033905D01*
X037960Y033277D01*
X037960Y032956D01*
X037913Y033002D01*
X037732Y033002D01*
X037604Y032874D01*
X037604Y032693D01*
X037732Y032565D01*
X037913Y032565D01*
X037960Y032611D01*
X037960Y031702D01*
X038041Y031621D01*
X038116Y031546D01*
X038116Y031433D01*
X038201Y031348D01*
X038126Y031348D01*
X037998Y031220D01*
X037998Y031039D01*
X038126Y030911D01*
X038307Y030911D01*
X038435Y031039D01*
X038435Y031220D01*
X038350Y031305D01*
X038425Y031305D01*
X038553Y031433D01*
X038553Y031614D01*
X038486Y031681D01*
X038553Y031748D01*
X038553Y031929D01*
X038425Y032057D01*
X038395Y032057D01*
X038395Y033431D01*
X038313Y033513D01*
X037879Y033948D01*
X037941Y034010D01*
X038008Y033943D01*
X038189Y033943D01*
X038195Y033949D01*
X038195Y033835D01*
X038323Y033707D01*
X038504Y033707D01*
X038632Y033835D01*
X038632Y034016D01*
X038504Y034144D01*
X038323Y034144D01*
X038317Y034138D01*
X038317Y034185D01*
X038323Y034179D01*
X038504Y034179D01*
X038632Y034307D01*
X038632Y034488D01*
X038504Y034616D01*
X038323Y034616D01*
X038195Y034488D01*
X038195Y034374D01*
X038189Y034380D01*
X038008Y034380D01*
X037941Y034313D01*
X037874Y034380D01*
X037693Y034380D01*
X037686Y034373D01*
X037686Y035676D01*
X037056Y036305D01*
X036975Y036387D01*
X036654Y036387D01*
X036575Y036466D01*
X036460Y036466D01*
X036585Y036591D01*
X036585Y036772D01*
X036578Y036778D01*
X037493Y036778D01*
X037486Y036772D01*
X037486Y036591D01*
X037614Y036463D01*
X036578Y036463D01*
X036534Y036540D02*
X037537Y036540D01*
X037486Y036617D02*
X036585Y036617D01*
X036585Y036695D02*
X037486Y036695D01*
X037487Y036772D02*
X036584Y036772D01*
X036275Y036463D02*
X035758Y036463D01*
X035756Y036540D02*
X036198Y036540D01*
X036148Y036617D02*
X035724Y036617D01*
X035749Y036386D02*
X036313Y036386D01*
X036266Y036308D02*
X035717Y036308D01*
X035651Y036231D02*
X036266Y036231D01*
X036269Y036154D02*
X035706Y036154D01*
X035741Y036077D02*
X036347Y036077D01*
X036213Y035922D02*
X037047Y035922D01*
X037124Y035845D02*
X036291Y035845D01*
X036309Y035827D02*
X036181Y035955D01*
X036000Y035955D01*
X035872Y035827D01*
X035872Y035646D01*
X036000Y035518D01*
X036181Y035518D01*
X036309Y035646D01*
X036309Y035827D01*
X036309Y035768D02*
X036601Y035768D01*
X036541Y035709D02*
X036541Y035596D01*
X036464Y035518D01*
X036464Y032326D01*
X036457Y032333D01*
X036276Y032333D01*
X036148Y032205D01*
X036148Y032024D01*
X036276Y031896D01*
X036457Y031896D01*
X036464Y031903D01*
X036464Y029813D01*
X036433Y029813D01*
X036305Y029685D01*
X036305Y029504D01*
X036433Y029376D01*
X036614Y029376D01*
X036621Y029383D01*
X036621Y028986D01*
X036702Y028905D01*
X036803Y028804D01*
X036778Y028779D01*
X036778Y028599D01*
X036906Y028471D01*
X037087Y028471D01*
X037111Y028495D01*
X037175Y028432D01*
X037726Y027881D01*
X037889Y027881D01*
X037969Y027801D01*
X038150Y027801D01*
X038277Y027929D01*
X038277Y028110D01*
X038150Y028238D01*
X037969Y028238D01*
X037889Y028158D01*
X037841Y028158D01*
X037371Y028628D01*
X037371Y028825D01*
X037056Y029140D01*
X037056Y031076D01*
X037063Y031069D01*
X037132Y031069D01*
X037132Y030961D01*
X037256Y030837D01*
X037221Y030837D01*
X037093Y030709D01*
X037093Y030528D01*
X037221Y030400D01*
X037401Y030400D01*
X037529Y030528D01*
X037529Y030709D01*
X037405Y030833D01*
X037441Y030833D01*
X037569Y030961D01*
X037569Y031142D01*
X037441Y031270D01*
X037372Y031270D01*
X037372Y031305D01*
X037441Y031305D01*
X037569Y031433D01*
X037569Y031614D01*
X037441Y031742D01*
X037372Y031742D01*
X037372Y031850D01*
X037287Y031935D01*
X037323Y031935D01*
X037451Y032063D01*
X037451Y032244D01*
X037323Y032372D01*
X037214Y032372D01*
X037214Y032723D01*
X037283Y032723D01*
X037411Y032850D01*
X037411Y032919D01*
X037520Y032919D01*
X037648Y033047D01*
X037648Y033228D01*
X037520Y033356D01*
X037339Y033356D01*
X037211Y033228D01*
X037211Y033159D01*
X037175Y033159D01*
X037175Y033228D01*
X037047Y033356D01*
X036866Y033356D01*
X036741Y033231D01*
X036741Y035400D01*
X036850Y035400D01*
X036978Y035528D01*
X036978Y035709D01*
X036850Y035837D01*
X036669Y035837D01*
X036541Y035709D01*
X036541Y035690D02*
X036309Y035690D01*
X036276Y035613D02*
X036541Y035613D01*
X036482Y035536D02*
X036199Y035536D01*
X035982Y035536D02*
X035757Y035536D01*
X035758Y035459D02*
X036464Y035459D01*
X036464Y035382D02*
X035748Y035382D01*
X035716Y035304D02*
X036464Y035304D01*
X036464Y035227D02*
X035690Y035227D01*
X035751Y035150D02*
X036464Y035150D01*
X036464Y035073D02*
X035785Y035073D01*
X035798Y034995D02*
X036464Y034995D01*
X036464Y034918D02*
X035795Y034918D01*
X035798Y034935D02*
X035798Y034951D01*
X035461Y034951D01*
X035461Y034613D01*
X035476Y034613D01*
X035545Y034627D01*
X035610Y034654D01*
X035669Y034693D01*
X035719Y034743D01*
X035758Y034801D01*
X035785Y034866D01*
X035798Y034935D01*
X035774Y034841D02*
X036464Y034841D01*
X036464Y034764D02*
X035733Y034764D01*
X035659Y034686D02*
X036464Y034686D01*
X036464Y034609D02*
X035170Y034609D01*
X035223Y034686D02*
X035093Y034686D01*
X035149Y034764D02*
X035015Y034764D01*
X034938Y034841D02*
X035108Y034841D01*
X035087Y034918D02*
X034930Y034918D01*
X034930Y034995D02*
X035083Y034995D01*
X035097Y035073D02*
X034930Y035073D01*
X034930Y035150D02*
X035131Y035150D01*
X035192Y035227D02*
X034930Y035227D01*
X034930Y035304D02*
X035166Y035304D01*
X035134Y035382D02*
X034930Y035382D01*
X034930Y035459D02*
X035123Y035459D01*
X035124Y035536D02*
X034930Y035536D01*
X034930Y035613D02*
X035156Y035613D01*
X035212Y035690D02*
X034930Y035690D01*
X034934Y035768D02*
X035195Y035768D01*
X035149Y035845D02*
X035012Y035845D01*
X035089Y035922D02*
X035123Y035922D01*
X034928Y036154D02*
X033092Y036154D01*
X033120Y036077D02*
X034851Y036077D01*
X034774Y035999D02*
X033120Y035999D01*
X033120Y035922D02*
X034696Y035922D01*
X034653Y035878D02*
X034653Y034734D01*
X034734Y034653D01*
X034777Y034609D02*
X033435Y034609D01*
X033435Y034532D02*
X034855Y034532D01*
X034932Y034455D02*
X033425Y034455D01*
X033348Y034377D02*
X034895Y034377D01*
X034818Y034300D02*
X031821Y034300D01*
X031821Y034223D02*
X034809Y034223D01*
X034809Y034146D02*
X031777Y034146D01*
X031700Y034068D02*
X034851Y034068D01*
X034928Y033991D02*
X031506Y033991D01*
X031506Y033914D02*
X035360Y033914D01*
X035283Y033991D02*
X035127Y033991D01*
X035204Y034068D02*
X035282Y034068D01*
X035500Y034083D02*
X034791Y034791D01*
X034791Y035821D01*
X035441Y036470D01*
X035123Y036463D02*
X034528Y036463D01*
X034527Y036463D02*
X034655Y036591D01*
X034655Y036772D01*
X035339Y036772D01*
X035354Y036778D02*
X035261Y036740D01*
X035172Y036650D01*
X035123Y036534D01*
X035123Y036407D01*
X035140Y036366D01*
X034653Y035878D01*
X034653Y035845D02*
X033120Y035845D01*
X033115Y035768D02*
X034653Y035768D01*
X034653Y035690D02*
X033083Y035690D01*
X033051Y035613D02*
X034653Y035613D01*
X034653Y035536D02*
X033019Y035536D01*
X032964Y035459D02*
X034653Y035459D01*
X034653Y035382D02*
X032887Y035382D01*
X033431Y035073D02*
X031506Y035073D01*
X031506Y034995D02*
X033491Y034995D01*
X033116Y034764D02*
X031506Y034764D01*
X031506Y034686D02*
X033039Y034686D01*
X032998Y034609D02*
X031506Y034609D01*
X031506Y034532D02*
X032998Y034532D01*
X033008Y034455D02*
X031736Y034455D01*
X031813Y034377D02*
X033085Y034377D01*
X032957Y033802D02*
X032799Y033802D01*
X032654Y033741D01*
X032542Y033630D01*
X032482Y033484D01*
X032482Y033327D01*
X032542Y033181D01*
X032654Y033070D01*
X032799Y033009D01*
X032957Y033009D01*
X033102Y033070D01*
X033214Y033181D01*
X033274Y033327D01*
X033274Y033484D01*
X033214Y033630D01*
X033102Y033741D01*
X032957Y033802D01*
X033059Y033759D02*
X036464Y033759D01*
X036464Y033682D02*
X033162Y033682D01*
X033224Y033605D02*
X033454Y033605D01*
X033376Y033528D02*
X033256Y033528D01*
X033274Y033451D02*
X033352Y033451D01*
X033352Y033373D02*
X033274Y033373D01*
X033261Y033296D02*
X033379Y033296D01*
X033377Y033219D02*
X033229Y033219D01*
X033174Y033142D02*
X033300Y033142D01*
X033222Y033064D02*
X033090Y033064D01*
X033157Y032987D02*
X031506Y032987D01*
X031506Y032910D02*
X033157Y032910D01*
X033157Y032833D02*
X031506Y032833D01*
X031506Y032755D02*
X031687Y032755D01*
X031590Y032678D02*
X031506Y032678D01*
X031506Y032601D02*
X031530Y032601D01*
X031506Y033064D02*
X031666Y033064D01*
X031582Y033142D02*
X031506Y033142D01*
X031506Y033219D02*
X031526Y033219D01*
X031506Y033605D02*
X031532Y033605D01*
X031506Y033682D02*
X031594Y033682D01*
X031506Y033759D02*
X031697Y033759D01*
X031506Y033837D02*
X036464Y033837D01*
X036464Y033914D02*
X035640Y033914D01*
X035717Y033991D02*
X036464Y033991D01*
X036464Y034068D02*
X035718Y034068D01*
X035718Y034146D02*
X036464Y034146D01*
X036464Y034223D02*
X035669Y034223D01*
X035591Y034300D02*
X036464Y034300D01*
X036464Y034377D02*
X035401Y034377D01*
X035324Y034455D02*
X036464Y034455D01*
X036464Y034532D02*
X035247Y034532D01*
X035421Y034686D02*
X035461Y034686D01*
X035461Y034764D02*
X035421Y034764D01*
X035421Y034841D02*
X035461Y034841D01*
X035461Y034918D02*
X035421Y034918D01*
X035725Y035613D02*
X035905Y035613D01*
X035872Y035690D02*
X035670Y035690D01*
X035687Y035768D02*
X035872Y035768D01*
X035890Y035845D02*
X035733Y035845D01*
X035758Y035922D02*
X035968Y035922D01*
X035758Y035999D02*
X036970Y035999D01*
X036892Y036077D02*
X036622Y036077D01*
X036484Y036248D02*
X036917Y036248D01*
X037547Y035618D01*
X037547Y034083D01*
X038256Y033374D01*
X038256Y031917D01*
X038335Y031839D01*
X038553Y031828D02*
X038708Y031828D01*
X038708Y031751D02*
X038553Y031751D01*
X038493Y031674D02*
X038708Y031674D01*
X038708Y031597D02*
X038553Y031597D01*
X038553Y031520D02*
X038708Y031520D01*
X038708Y031442D02*
X038553Y031442D01*
X038485Y031365D02*
X038708Y031365D01*
X038708Y031288D02*
X038368Y031288D01*
X038435Y031211D02*
X038708Y031211D01*
X038708Y031133D02*
X038435Y031133D01*
X038435Y031056D02*
X038708Y031056D01*
X038708Y030979D02*
X038374Y030979D01*
X038059Y030979D02*
X037569Y030979D01*
X037569Y031056D02*
X037998Y031056D01*
X037998Y031133D02*
X037569Y031133D01*
X037500Y031211D02*
X037998Y031211D01*
X038065Y031288D02*
X037372Y031288D01*
X037501Y031365D02*
X038184Y031365D01*
X038116Y031442D02*
X037569Y031442D01*
X037569Y031520D02*
X038116Y031520D01*
X038065Y031597D02*
X037569Y031597D01*
X037509Y031674D02*
X037988Y031674D01*
X037960Y031751D02*
X037372Y031751D01*
X037372Y031828D02*
X037960Y031828D01*
X037960Y031906D02*
X037317Y031906D01*
X037371Y031983D02*
X037960Y031983D01*
X037960Y032060D02*
X037448Y032060D01*
X037451Y032137D02*
X037960Y032137D01*
X037960Y032215D02*
X037451Y032215D01*
X037403Y032292D02*
X037960Y032292D01*
X037960Y032369D02*
X037326Y032369D01*
X037214Y032446D02*
X037960Y032446D01*
X037960Y032524D02*
X037214Y032524D01*
X037214Y032601D02*
X037697Y032601D01*
X037619Y032678D02*
X037214Y032678D01*
X037316Y032755D02*
X037604Y032755D01*
X037604Y032833D02*
X037393Y032833D01*
X037411Y032910D02*
X037640Y032910D01*
X037587Y032987D02*
X037718Y032987D01*
X037648Y033064D02*
X037960Y033064D01*
X037960Y032987D02*
X037928Y032987D01*
X037960Y033142D02*
X037648Y033142D01*
X037648Y033219D02*
X037960Y033219D01*
X037941Y033296D02*
X037580Y033296D01*
X037786Y033451D02*
X036741Y033451D01*
X036741Y033528D02*
X037709Y033528D01*
X037632Y033605D02*
X036741Y033605D01*
X036741Y033682D02*
X037555Y033682D01*
X037477Y033759D02*
X036741Y033759D01*
X036741Y033837D02*
X037400Y033837D01*
X037323Y033914D02*
X036741Y033914D01*
X036741Y033991D02*
X037251Y033991D01*
X037251Y034068D02*
X036741Y034068D01*
X036741Y034146D02*
X037251Y034146D01*
X037251Y034223D02*
X037170Y034223D01*
X037247Y034300D02*
X037251Y034300D01*
X036980Y034223D02*
X036741Y034223D01*
X036741Y034300D02*
X036903Y034300D01*
X036856Y034377D02*
X036741Y034377D01*
X036741Y034455D02*
X036856Y034455D01*
X036861Y034532D02*
X036741Y034532D01*
X036741Y034609D02*
X036938Y034609D01*
X036741Y034686D02*
X037251Y034686D01*
X037251Y034609D02*
X037212Y034609D01*
X037251Y034764D02*
X036741Y034764D01*
X036741Y034841D02*
X037251Y034841D01*
X037251Y034918D02*
X036741Y034918D01*
X036741Y034995D02*
X037251Y034995D01*
X037251Y035073D02*
X036741Y035073D01*
X036741Y035150D02*
X037251Y035150D01*
X037251Y035227D02*
X036741Y035227D01*
X036741Y035304D02*
X037251Y035304D01*
X037160Y035382D02*
X036741Y035382D01*
X036602Y035461D02*
X036760Y035618D01*
X036978Y035613D02*
X037093Y035613D01*
X037093Y035536D02*
X036978Y035536D01*
X036909Y035459D02*
X037093Y035459D01*
X037311Y035539D02*
X037390Y035461D01*
X037390Y034043D01*
X038098Y033335D01*
X038098Y031760D01*
X038335Y031524D01*
X038553Y031906D02*
X038708Y031906D01*
X038708Y031983D02*
X038499Y031983D01*
X038395Y032060D02*
X038708Y032060D01*
X038708Y032137D02*
X038395Y032137D01*
X038395Y032215D02*
X038708Y032215D01*
X038708Y032292D02*
X038395Y032292D01*
X038395Y032369D02*
X038708Y032369D01*
X038708Y032446D02*
X038395Y032446D01*
X038395Y032524D02*
X038708Y032524D01*
X038708Y032601D02*
X038395Y032601D01*
X038395Y032678D02*
X038708Y032678D01*
X038708Y032755D02*
X038395Y032755D01*
X038395Y032833D02*
X038708Y032833D01*
X038708Y032910D02*
X038395Y032910D01*
X038395Y032987D02*
X038708Y032987D01*
X038708Y033064D02*
X038395Y033064D01*
X038395Y033142D02*
X038708Y033142D01*
X038708Y033219D02*
X038395Y033219D01*
X038395Y033296D02*
X038708Y033296D01*
X038708Y033373D02*
X038395Y033373D01*
X038376Y033451D02*
X038708Y033451D01*
X038708Y033528D02*
X038298Y033528D01*
X038313Y033513D02*
X038313Y033513D01*
X038221Y033605D02*
X038708Y033605D01*
X038708Y033682D02*
X038144Y033682D01*
X038067Y033759D02*
X038270Y033759D01*
X038195Y033837D02*
X037989Y033837D01*
X037912Y033914D02*
X038195Y033914D01*
X037960Y033991D02*
X037922Y033991D01*
X037876Y034377D02*
X038006Y034377D01*
X038191Y034377D02*
X038195Y034377D01*
X038195Y034455D02*
X037686Y034455D01*
X037686Y034532D02*
X038239Y034532D01*
X038316Y034609D02*
X037686Y034609D01*
X037686Y034686D02*
X038708Y034686D01*
X038708Y034609D02*
X038511Y034609D01*
X038588Y034532D02*
X038708Y034532D01*
X038708Y034455D02*
X038632Y034455D01*
X038632Y034377D02*
X038708Y034377D01*
X038708Y034300D02*
X038625Y034300D01*
X038548Y034223D02*
X038708Y034223D01*
X038708Y034146D02*
X038317Y034146D01*
X038579Y034068D02*
X038708Y034068D01*
X038708Y033991D02*
X038632Y033991D01*
X038632Y033914D02*
X038708Y033914D01*
X038708Y033837D02*
X038632Y033837D01*
X038557Y033759D02*
X038708Y033759D01*
X039143Y033759D02*
X041697Y033759D01*
X041654Y033741D02*
X041542Y033630D01*
X041482Y033484D01*
X041482Y033327D01*
X041542Y033181D01*
X041654Y033070D01*
X041799Y033009D01*
X041957Y033009D01*
X042102Y033070D01*
X042214Y033181D01*
X042250Y033269D01*
X042250Y032542D01*
X042214Y032630D01*
X042102Y032741D01*
X041957Y032802D01*
X041799Y032802D01*
X041654Y032741D01*
X041585Y032672D01*
X041585Y032677D01*
X041457Y032805D01*
X041276Y032805D01*
X041148Y032677D01*
X041148Y032569D01*
X041000Y032569D01*
X040872Y032441D01*
X040872Y032260D01*
X041000Y032132D01*
X041181Y032132D01*
X041309Y032260D01*
X041309Y032368D01*
X041457Y032368D01*
X041482Y032393D01*
X041482Y032327D01*
X041542Y032181D01*
X041654Y032070D01*
X041799Y032009D01*
X041957Y032009D01*
X042102Y032070D01*
X042214Y032181D01*
X042250Y032269D01*
X042250Y031542D01*
X042214Y031630D01*
X042102Y031741D01*
X041957Y031802D01*
X041799Y031802D01*
X041654Y031741D01*
X041542Y031630D01*
X041482Y031484D01*
X041482Y031327D01*
X041542Y031181D01*
X041654Y031070D01*
X041799Y031009D01*
X041957Y031009D01*
X042102Y031070D01*
X042214Y031181D01*
X042250Y031269D01*
X042250Y030542D01*
X042214Y030630D01*
X042102Y030741D01*
X041957Y030802D01*
X041799Y030802D01*
X041654Y030741D01*
X041585Y030672D01*
X041585Y030748D01*
X041457Y030876D01*
X041276Y030876D01*
X041148Y030748D01*
X041148Y030679D01*
X041000Y030679D01*
X040872Y030551D01*
X040872Y030370D01*
X041000Y030242D01*
X041181Y030242D01*
X041309Y030370D01*
X041309Y030439D01*
X041457Y030439D01*
X041482Y030464D01*
X041482Y030327D01*
X041542Y030181D01*
X041654Y030070D01*
X041799Y030009D01*
X041957Y030009D01*
X042102Y030070D01*
X042214Y030181D01*
X042250Y030269D01*
X042250Y029542D01*
X042214Y029630D01*
X042102Y029741D01*
X041957Y029802D01*
X041799Y029802D01*
X041654Y029741D01*
X041542Y029630D01*
X041482Y029484D01*
X041482Y029327D01*
X041542Y029181D01*
X041654Y029070D01*
X041799Y029009D01*
X041957Y029009D01*
X042102Y029070D01*
X042214Y029181D01*
X042250Y029269D01*
X042250Y028542D01*
X042214Y028630D01*
X042102Y028741D01*
X041957Y028802D01*
X041799Y028802D01*
X041654Y028741D01*
X041585Y028672D01*
X041585Y028819D01*
X041457Y028947D01*
X041276Y028947D01*
X041148Y028819D01*
X041148Y028789D01*
X041000Y028789D01*
X040872Y028661D01*
X040872Y028480D01*
X041000Y028352D01*
X041181Y028352D01*
X041309Y028480D01*
X041309Y028510D01*
X041457Y028510D01*
X041518Y028571D01*
X041482Y028484D01*
X041482Y028327D01*
X041542Y028181D01*
X041564Y028159D01*
X041433Y028159D01*
X041305Y028031D01*
X041305Y027850D01*
X041433Y027723D01*
X041614Y027723D01*
X041742Y027850D01*
X041742Y028031D01*
X041739Y028034D01*
X041799Y028009D01*
X041957Y028009D01*
X042102Y028070D01*
X042214Y028181D01*
X042250Y028269D01*
X042250Y027542D01*
X042214Y027630D01*
X042102Y027741D01*
X041957Y027802D01*
X041799Y027802D01*
X041654Y027741D01*
X041542Y027630D01*
X041482Y027484D01*
X041482Y027327D01*
X041542Y027181D01*
X041654Y027070D01*
X041799Y027009D01*
X041957Y027009D01*
X041990Y027023D01*
X041896Y026929D01*
X041896Y026748D01*
X042024Y026620D01*
X042205Y026620D01*
X042250Y026666D01*
X042250Y021366D01*
X031506Y021366D01*
X031506Y021401D02*
X032157Y021401D01*
X032197Y021384D02*
X032503Y021384D01*
X032786Y021501D01*
X033003Y021718D01*
X033120Y022001D01*
X033120Y022307D01*
X033003Y022589D01*
X032786Y022806D01*
X032503Y022923D01*
X032197Y022923D01*
X031915Y022806D01*
X031698Y022589D01*
X031581Y022307D01*
X031581Y022001D01*
X031698Y021718D01*
X031915Y021501D01*
X032197Y021384D01*
X031970Y021478D02*
X031506Y021478D01*
X031506Y021555D02*
X031861Y021555D01*
X031783Y021633D02*
X031506Y021633D01*
X031506Y021710D02*
X031706Y021710D01*
X031669Y021787D02*
X031506Y021787D01*
X031506Y021864D02*
X031637Y021864D01*
X031605Y021942D02*
X031506Y021942D01*
X031506Y022019D02*
X031581Y022019D01*
X031581Y022096D02*
X031506Y022096D01*
X031506Y022173D02*
X031581Y022173D01*
X031581Y022251D02*
X031506Y022251D01*
X031506Y022328D02*
X031590Y022328D01*
X031622Y022405D02*
X031506Y022405D01*
X031506Y022482D02*
X031654Y022482D01*
X031686Y022560D02*
X031506Y022560D01*
X031506Y022637D02*
X031746Y022637D01*
X031823Y022714D02*
X031506Y022714D01*
X031506Y022791D02*
X031900Y022791D01*
X032066Y022869D02*
X031506Y022869D01*
X031506Y022946D02*
X034180Y022946D01*
X034180Y023023D02*
X031506Y023023D01*
X031506Y023100D02*
X034180Y023100D01*
X034180Y023178D02*
X033683Y023178D01*
X033622Y023116D02*
X033750Y023244D01*
X033750Y023425D01*
X033622Y023553D01*
X033441Y023553D01*
X033313Y023425D01*
X033313Y023244D01*
X033441Y023116D01*
X033622Y023116D01*
X033750Y023255D02*
X034180Y023255D01*
X034180Y023332D02*
X033750Y023332D01*
X033750Y023409D02*
X034180Y023409D01*
X034180Y023487D02*
X033689Y023487D01*
X033374Y023487D02*
X032575Y023487D01*
X032520Y023431D02*
X032648Y023559D01*
X032648Y023740D01*
X032520Y023868D01*
X032339Y023868D01*
X032211Y023740D01*
X032211Y023559D01*
X032339Y023431D01*
X032520Y023431D01*
X032648Y023564D02*
X034180Y023564D01*
X034180Y023632D02*
X034180Y022487D01*
X034026Y022333D01*
X033913Y022333D01*
X033786Y022205D01*
X033786Y022024D01*
X033913Y021896D01*
X034094Y021896D01*
X034161Y021963D01*
X034228Y021896D01*
X034409Y021896D01*
X034476Y021963D01*
X034539Y021900D01*
X034395Y021756D01*
X034331Y021821D01*
X034150Y021821D01*
X034022Y021693D01*
X034022Y021512D01*
X034150Y021384D01*
X034331Y021384D01*
X034410Y021464D01*
X034494Y021464D01*
X034928Y021897D01*
X035009Y021978D01*
X035009Y022250D01*
X034930Y022329D01*
X034930Y023826D01*
X034976Y023826D01*
X035055Y023746D01*
X035236Y023746D01*
X035283Y023793D01*
X035370Y023707D01*
X035406Y023707D01*
X035321Y023622D01*
X035321Y023441D01*
X035388Y023374D01*
X035321Y023307D01*
X035321Y023126D01*
X035449Y022998D01*
X035630Y022998D01*
X035758Y023126D01*
X035758Y023307D01*
X035691Y023374D01*
X035758Y023441D01*
X035758Y023622D01*
X035630Y023750D01*
X035594Y023750D01*
X035679Y023835D01*
X035679Y024016D01*
X035551Y024144D01*
X035370Y024144D01*
X035323Y024096D01*
X035236Y024183D01*
X035055Y024183D01*
X034976Y024103D01*
X034930Y024103D01*
X034930Y026624D01*
X035557Y027251D01*
X035639Y027332D01*
X035639Y029455D01*
X035709Y029455D01*
X035837Y029583D01*
X035837Y029764D01*
X035713Y029887D01*
X035993Y030167D01*
X035993Y030485D01*
X036000Y030478D01*
X036181Y030478D01*
X036309Y030606D01*
X036309Y030787D01*
X036181Y030915D01*
X036000Y030915D01*
X035993Y030908D01*
X035993Y032450D01*
X036151Y032608D01*
X036151Y032850D01*
X036191Y032890D01*
X036191Y033071D01*
X036063Y033199D01*
X035882Y033199D01*
X035754Y033071D01*
X035754Y032963D01*
X035685Y032963D01*
X035640Y032917D01*
X035640Y033031D01*
X035512Y033159D01*
X035331Y033159D01*
X035203Y033031D01*
X035203Y032878D01*
X035079Y033002D01*
X034898Y033002D01*
X034770Y032874D01*
X034770Y032693D01*
X034898Y032565D01*
X035079Y032565D01*
X035207Y032693D01*
X035207Y032847D01*
X035331Y032723D01*
X035512Y032723D01*
X035557Y032768D01*
X035557Y032654D01*
X035558Y032653D01*
X035558Y032247D01*
X035551Y032254D01*
X035370Y032254D01*
X035242Y032126D01*
X035242Y031972D01*
X035118Y032096D01*
X035089Y032096D01*
X035089Y032244D01*
X034961Y032372D01*
X034780Y032372D01*
X034652Y032244D01*
X034652Y032063D01*
X034780Y031935D01*
X034809Y031935D01*
X034809Y031787D01*
X034937Y031660D01*
X034967Y031660D01*
X034967Y031512D01*
X035095Y031384D01*
X035163Y031384D01*
X035163Y031276D01*
X035291Y031148D01*
X035472Y031148D01*
X035558Y031233D01*
X035558Y030321D01*
X035281Y030044D01*
X035157Y030167D01*
X034976Y030167D01*
X034849Y030039D01*
X034849Y029858D01*
X034976Y029730D01*
X035046Y029730D01*
X035046Y027837D01*
X035039Y027844D01*
X034858Y027844D01*
X034730Y027716D01*
X034730Y027536D01*
X034858Y027408D01*
X034928Y027408D01*
X034338Y026817D01*
X034338Y023866D01*
X034262Y023942D01*
X034262Y024055D01*
X034134Y024183D01*
X033953Y024183D01*
X033825Y024055D01*
X033825Y023874D01*
X033953Y023746D01*
X034066Y023746D01*
X034180Y023632D01*
X034171Y023641D02*
X032648Y023641D01*
X032648Y023718D02*
X034093Y023718D01*
X033904Y023795D02*
X032592Y023795D01*
X032598Y024061D02*
X032726Y024189D01*
X032726Y024370D01*
X032598Y024498D01*
X032417Y024498D01*
X032289Y024370D01*
X032289Y024295D01*
X032244Y024340D01*
X032063Y024340D01*
X031935Y024213D01*
X031935Y024032D01*
X032063Y023904D01*
X032244Y023904D01*
X032372Y024032D01*
X032372Y024107D01*
X032417Y024061D01*
X032598Y024061D01*
X032642Y024104D02*
X033874Y024104D01*
X033825Y024027D02*
X032368Y024027D01*
X032372Y024104D02*
X032374Y024104D01*
X032290Y023950D02*
X033825Y023950D01*
X033826Y023873D02*
X031506Y023873D01*
X031506Y023950D02*
X032017Y023950D01*
X031940Y024027D02*
X031506Y024027D01*
X031506Y024104D02*
X031935Y024104D01*
X031935Y024182D02*
X031506Y024182D01*
X031506Y024259D02*
X031982Y024259D01*
X032059Y024336D02*
X031506Y024336D01*
X031506Y024413D02*
X032333Y024413D01*
X032289Y024336D02*
X032248Y024336D01*
X032230Y024558D02*
X032279Y024564D01*
X032294Y024564D01*
X032307Y024558D01*
X032325Y024564D01*
X032329Y024564D01*
X032331Y024566D01*
X032347Y024572D01*
X032378Y024575D01*
X032382Y024574D01*
X032385Y024576D01*
X032388Y024576D01*
X032391Y024580D01*
X032418Y024596D01*
X032448Y024607D01*
X032452Y024607D01*
X032454Y024609D01*
X032457Y024610D01*
X032459Y024614D01*
X032481Y024637D01*
X032508Y024653D01*
X032512Y024654D01*
X032514Y024657D01*
X032517Y024659D01*
X032518Y024663D01*
X032535Y024690D01*
X032557Y024712D01*
X032561Y024714D01*
X032562Y024717D01*
X032564Y024719D01*
X032564Y024724D01*
X032575Y024754D01*
X032592Y024781D01*
X032595Y024783D01*
X032595Y024786D01*
X032597Y024789D01*
X032596Y024793D01*
X032600Y024825D01*
X032610Y024855D01*
X032613Y024858D01*
X032612Y024861D01*
X032614Y024864D01*
X032612Y024868D01*
X032608Y024900D01*
X032612Y024931D01*
X032614Y024935D01*
X032612Y024938D01*
X032613Y024941D01*
X032610Y024944D01*
X032600Y024974D01*
X032596Y025006D01*
X032597Y025010D01*
X032595Y025013D01*
X032595Y025016D01*
X032592Y025019D01*
X032575Y025046D01*
X032564Y025076D01*
X032564Y025080D01*
X032562Y025082D01*
X032561Y025085D01*
X032557Y025087D01*
X032535Y025109D01*
X032518Y025136D01*
X032517Y025140D01*
X032514Y025142D01*
X032512Y025145D01*
X032508Y025146D01*
X032481Y025163D01*
X032459Y025185D01*
X032457Y025189D01*
X032454Y025190D01*
X032452Y025192D01*
X032448Y025192D01*
X032418Y025203D01*
X032391Y025220D01*
X032388Y025223D01*
X032385Y025223D01*
X032382Y025225D01*
X032378Y025224D01*
X032347Y025228D01*
X032331Y025233D01*
X032329Y025235D01*
X032325Y025235D01*
X032307Y025241D01*
X032294Y025235D01*
X032279Y025235D01*
X032230Y025241D01*
X032223Y025235D01*
X031926Y025235D01*
X031920Y025241D01*
X031870Y025235D01*
X031856Y025235D01*
X031843Y025241D01*
X031825Y025235D01*
X031820Y025235D01*
X031818Y025233D01*
X031803Y025228D01*
X031771Y025224D01*
X031767Y025225D01*
X031765Y025223D01*
X031762Y025223D01*
X031759Y025220D01*
X031732Y025203D01*
X031702Y025192D01*
X031698Y025192D01*
X031695Y025190D01*
X031692Y025189D01*
X031691Y025185D01*
X031668Y025163D01*
X031641Y025146D01*
X031637Y025145D01*
X031635Y025142D01*
X031633Y025140D01*
X031632Y025136D01*
X031615Y025109D01*
X031592Y025087D01*
X031589Y025085D01*
X031588Y025082D01*
X031585Y025080D01*
X031585Y025076D01*
X031575Y025046D01*
X031558Y025019D01*
X031555Y025016D01*
X031554Y025013D01*
X031553Y025010D01*
X031553Y025006D01*
X031550Y024974D01*
X031539Y024944D01*
X031537Y024941D01*
X031537Y024938D01*
X031536Y024935D01*
X031538Y024931D01*
X031541Y024900D01*
X031538Y024868D01*
X031536Y024864D01*
X031537Y024861D01*
X031537Y024858D01*
X031539Y024855D01*
X031550Y024825D01*
X031553Y024793D01*
X031553Y024789D01*
X031554Y024786D01*
X031555Y024783D01*
X031558Y024781D01*
X031575Y024754D01*
X031585Y024724D01*
X031585Y024719D01*
X031588Y024717D01*
X031589Y024714D01*
X031592Y024712D01*
X031615Y024690D01*
X031632Y024663D01*
X031633Y024659D01*
X031635Y024657D01*
X031637Y024654D01*
X031641Y024653D01*
X031668Y024637D01*
X031691Y024614D01*
X031692Y024610D01*
X031695Y024609D01*
X031698Y024607D01*
X031702Y024607D01*
X031732Y024596D01*
X031759Y024580D01*
X031762Y024576D01*
X031765Y024576D01*
X031767Y024574D01*
X031771Y024575D01*
X031803Y024572D01*
X031818Y024566D01*
X031820Y024564D01*
X031825Y024564D01*
X031843Y024558D01*
X031856Y024564D01*
X031870Y024564D01*
X031920Y024558D01*
X031926Y024564D01*
X032223Y024564D01*
X032230Y024558D01*
X032336Y024568D02*
X033467Y024568D01*
X033472Y024566D02*
X033474Y024564D01*
X033478Y024564D01*
X033496Y024558D01*
X033509Y024564D01*
X033524Y024564D01*
X033573Y024558D01*
X033580Y024564D01*
X033877Y024564D01*
X033884Y024558D01*
X033933Y024564D01*
X033948Y024564D01*
X033961Y024558D01*
X033978Y024564D01*
X033983Y024564D01*
X033985Y024566D01*
X034000Y024572D01*
X034032Y024575D01*
X034036Y024574D01*
X034038Y024576D01*
X034042Y024576D01*
X034044Y024580D01*
X034071Y024596D01*
X034101Y024607D01*
X034105Y024607D01*
X034108Y024609D01*
X034111Y024610D01*
X034112Y024614D01*
X034135Y024637D01*
X034162Y024653D01*
X034166Y024654D01*
X034168Y024657D01*
X034170Y024659D01*
X034171Y024663D01*
X034188Y024690D01*
X034211Y024712D01*
X034215Y024714D01*
X034216Y024717D01*
X034218Y024719D01*
X034218Y024724D01*
X034228Y024754D01*
X034245Y024781D01*
X034249Y024783D01*
X034249Y024786D01*
X034251Y024789D01*
X034250Y024793D01*
X034253Y024825D01*
X034264Y024855D01*
X034266Y024858D01*
X034266Y024861D01*
X034267Y024864D01*
X034265Y024868D01*
X034262Y024900D01*
X034265Y024931D01*
X034267Y024935D01*
X034266Y024938D01*
X034266Y024941D01*
X034264Y024944D01*
X034253Y024974D01*
X034250Y025006D01*
X034251Y025010D01*
X034249Y025013D01*
X034249Y025016D01*
X034245Y025019D01*
X034228Y025046D01*
X034218Y025076D01*
X034218Y025080D01*
X034216Y025082D01*
X034215Y025085D01*
X034211Y025087D01*
X034188Y025109D01*
X034171Y025136D01*
X034170Y025140D01*
X034168Y025142D01*
X034166Y025145D01*
X034162Y025146D01*
X034135Y025163D01*
X034112Y025185D01*
X034111Y025189D01*
X034108Y025190D01*
X034105Y025192D01*
X034101Y025192D01*
X034071Y025203D01*
X034044Y025220D01*
X034042Y025223D01*
X034038Y025223D01*
X034036Y025225D01*
X034032Y025224D01*
X034000Y025228D01*
X033985Y025233D01*
X033983Y025235D01*
X033978Y025235D01*
X033961Y025241D01*
X033948Y025235D01*
X033933Y025235D01*
X033884Y025241D01*
X033877Y025235D01*
X033638Y025235D01*
X033769Y025366D01*
X033769Y025563D01*
X033630Y025702D01*
X033433Y025702D01*
X033294Y025563D01*
X033294Y025366D01*
X033433Y025227D01*
X033449Y025227D01*
X033425Y025224D01*
X033421Y025225D01*
X033418Y025223D01*
X033415Y025223D01*
X033412Y025220D01*
X033386Y025203D01*
X033355Y025192D01*
X033351Y025192D01*
X033349Y025190D01*
X033346Y025189D01*
X033344Y025185D01*
X033322Y025163D01*
X033295Y025146D01*
X033291Y025145D01*
X033289Y025142D01*
X033286Y025140D01*
X033285Y025136D01*
X033268Y025109D01*
X033246Y025087D01*
X033242Y025085D01*
X033241Y025082D01*
X033239Y025080D01*
X033239Y025076D01*
X033228Y025046D01*
X033211Y025019D01*
X033208Y025016D01*
X033208Y025013D01*
X033206Y025010D01*
X033207Y025006D01*
X033203Y024974D01*
X033193Y024944D01*
X033190Y024941D01*
X033191Y024938D01*
X033190Y024935D01*
X033191Y024931D01*
X033195Y024900D01*
X033191Y024868D01*
X033190Y024864D01*
X033191Y024861D01*
X033190Y024858D01*
X033193Y024855D01*
X033203Y024825D01*
X033207Y024793D01*
X033206Y024789D01*
X033208Y024786D01*
X033208Y024783D01*
X033211Y024781D01*
X033228Y024754D01*
X033239Y024724D01*
X033239Y024719D01*
X033241Y024717D01*
X033242Y024714D01*
X033246Y024712D01*
X033268Y024690D01*
X033285Y024663D01*
X033286Y024659D01*
X033289Y024657D01*
X033291Y024654D01*
X033295Y024653D01*
X033322Y024637D01*
X033344Y024614D01*
X033346Y024610D01*
X033349Y024609D01*
X033351Y024607D01*
X033355Y024607D01*
X033386Y024596D01*
X033412Y024580D01*
X033415Y024576D01*
X033418Y024576D01*
X033421Y024574D01*
X033425Y024575D01*
X033457Y024572D01*
X033472Y024566D01*
X033488Y024708D02*
X033446Y024722D01*
X033409Y024746D01*
X033378Y024777D01*
X033354Y024814D01*
X033340Y024856D01*
X033335Y024900D01*
X033340Y024943D01*
X033354Y024985D01*
X033378Y025022D01*
X033409Y025054D01*
X033446Y025077D01*
X033488Y025092D01*
X033531Y025096D01*
X033925Y025096D01*
X033969Y025092D01*
X034011Y025077D01*
X034048Y025054D01*
X034079Y025022D01*
X034103Y024985D01*
X034117Y024943D01*
X034122Y024900D01*
X034117Y024856D01*
X034103Y024814D01*
X034079Y024777D01*
X034048Y024746D01*
X034011Y024722D01*
X033446Y024722D01*
X033488Y024708D02*
X033531Y024703D01*
X033925Y024703D01*
X033969Y024708D01*
X034011Y024722D01*
X034093Y024800D02*
X033363Y024800D01*
X033337Y024877D02*
X034119Y024877D01*
X034113Y024954D02*
X033343Y024954D01*
X033387Y025031D02*
X034070Y025031D01*
X034189Y025109D02*
X034338Y025109D01*
X034338Y025186D02*
X034112Y025186D01*
X034237Y025031D02*
X034338Y025031D01*
X034338Y024954D02*
X034260Y024954D01*
X034264Y024877D02*
X034338Y024877D01*
X034338Y024800D02*
X034250Y024800D01*
X034218Y024722D02*
X034338Y024722D01*
X034338Y024645D02*
X034149Y024645D01*
X033989Y024568D02*
X034338Y024568D01*
X034338Y024491D02*
X032606Y024491D01*
X032683Y024413D02*
X034338Y024413D01*
X034338Y024336D02*
X032726Y024336D01*
X032726Y024259D02*
X034338Y024259D01*
X034338Y024182D02*
X034135Y024182D01*
X034212Y024104D02*
X034338Y024104D01*
X034338Y024027D02*
X034262Y024027D01*
X034262Y023950D02*
X034338Y023950D01*
X034331Y023873D02*
X034338Y023873D01*
X034319Y023689D02*
X034043Y023965D01*
X033952Y024182D02*
X032719Y024182D01*
X032410Y024491D02*
X031506Y024491D01*
X031506Y024568D02*
X031814Y024568D01*
X031834Y024708D02*
X031793Y024722D01*
X031755Y024746D01*
X031724Y024777D01*
X031701Y024814D01*
X031686Y024856D01*
X031681Y024900D01*
X031686Y024943D01*
X031701Y024985D01*
X031724Y025022D01*
X031755Y025054D01*
X031793Y025077D01*
X031834Y025092D01*
X031878Y025096D01*
X032272Y025096D01*
X032315Y025092D01*
X032357Y025077D01*
X032394Y025054D01*
X032426Y025022D01*
X032449Y024985D01*
X032464Y024943D01*
X032469Y024900D01*
X032464Y024856D01*
X032449Y024814D01*
X032426Y024777D01*
X032394Y024746D01*
X032357Y024722D01*
X032315Y024708D01*
X032272Y024703D01*
X031878Y024703D01*
X031834Y024708D01*
X031792Y024722D02*
X032357Y024722D01*
X032440Y024800D02*
X031710Y024800D01*
X031684Y024877D02*
X032466Y024877D01*
X032460Y024954D02*
X031690Y024954D01*
X031733Y025031D02*
X032417Y025031D01*
X032536Y025109D02*
X033268Y025109D01*
X033219Y025031D02*
X032584Y025031D01*
X032607Y024954D02*
X033196Y024954D01*
X033192Y024877D02*
X032611Y024877D01*
X032597Y024800D02*
X033206Y024800D01*
X033239Y024722D02*
X032564Y024722D01*
X032495Y024645D02*
X033308Y024645D01*
X033345Y025186D02*
X032459Y025186D01*
X032480Y025242D02*
X032608Y025370D01*
X032608Y025551D01*
X032480Y025679D01*
X032299Y025679D01*
X032171Y025551D01*
X032171Y025370D01*
X032299Y025242D01*
X032480Y025242D01*
X032501Y025263D02*
X033397Y025263D01*
X033319Y025340D02*
X032578Y025340D01*
X032608Y025418D02*
X033294Y025418D01*
X033294Y025495D02*
X032608Y025495D01*
X032587Y025572D02*
X033303Y025572D01*
X033380Y025649D02*
X032510Y025649D01*
X032269Y025649D02*
X031506Y025649D01*
X031506Y025572D02*
X032192Y025572D01*
X032171Y025495D02*
X031506Y025495D01*
X031506Y025418D02*
X032171Y025418D01*
X032201Y025340D02*
X031506Y025340D01*
X031506Y025263D02*
X032278Y025263D01*
X031691Y025186D02*
X031506Y025186D01*
X031506Y025109D02*
X031614Y025109D01*
X031566Y025031D02*
X031506Y025031D01*
X031506Y024954D02*
X031543Y024954D01*
X031539Y024877D02*
X031506Y024877D01*
X031506Y024800D02*
X031553Y024800D01*
X031585Y024722D02*
X031506Y024722D01*
X031506Y024645D02*
X031655Y024645D01*
X031506Y023795D02*
X032266Y023795D01*
X032211Y023718D02*
X031506Y023718D01*
X031506Y023641D02*
X032211Y023641D01*
X032211Y023564D02*
X031506Y023564D01*
X031506Y023487D02*
X032283Y023487D01*
X031506Y023409D02*
X033313Y023409D01*
X033313Y023332D02*
X031506Y023332D01*
X031506Y023255D02*
X033313Y023255D01*
X033380Y023178D02*
X031506Y023178D01*
X032634Y022869D02*
X034180Y022869D01*
X034180Y022791D02*
X032801Y022791D01*
X032878Y022714D02*
X034180Y022714D01*
X034180Y022637D02*
X032955Y022637D01*
X033015Y022560D02*
X034180Y022560D01*
X034176Y022482D02*
X033047Y022482D01*
X033079Y022405D02*
X034099Y022405D01*
X033909Y022328D02*
X033111Y022328D01*
X033120Y022251D02*
X033832Y022251D01*
X033786Y022173D02*
X033120Y022173D01*
X033120Y022096D02*
X033786Y022096D01*
X033790Y022019D02*
X033120Y022019D01*
X033095Y021942D02*
X033868Y021942D01*
X034004Y022114D02*
X034319Y022429D01*
X034319Y023689D01*
X034791Y023965D02*
X034791Y026681D01*
X035500Y027390D01*
X035500Y029555D01*
X035618Y029673D01*
X035765Y029511D02*
X036305Y029511D01*
X036305Y029588D02*
X035837Y029588D01*
X035837Y029666D02*
X036305Y029666D01*
X036363Y029743D02*
X035837Y029743D01*
X035780Y029820D02*
X036464Y029820D01*
X036464Y029897D02*
X035724Y029897D01*
X035801Y029975D02*
X036464Y029975D01*
X036464Y030052D02*
X035878Y030052D01*
X035955Y030129D02*
X036464Y030129D01*
X036464Y030206D02*
X035993Y030206D01*
X035993Y030284D02*
X036464Y030284D01*
X036464Y030361D02*
X035993Y030361D01*
X035993Y030438D02*
X036464Y030438D01*
X036464Y030515D02*
X036218Y030515D01*
X036295Y030593D02*
X036464Y030593D01*
X036464Y030670D02*
X036309Y030670D01*
X036309Y030747D02*
X036464Y030747D01*
X036464Y030824D02*
X036272Y030824D01*
X036195Y030902D02*
X036464Y030902D01*
X036464Y030979D02*
X035993Y030979D01*
X035993Y031056D02*
X036464Y031056D01*
X036464Y031133D02*
X035993Y031133D01*
X035993Y031211D02*
X036464Y031211D01*
X036464Y031288D02*
X035993Y031288D01*
X035993Y031365D02*
X036464Y031365D01*
X036464Y031442D02*
X035993Y031442D01*
X035993Y031520D02*
X036464Y031520D01*
X036464Y031597D02*
X035993Y031597D01*
X035993Y031674D02*
X036464Y031674D01*
X036464Y031751D02*
X035993Y031751D01*
X035993Y031828D02*
X036464Y031828D01*
X036266Y031906D02*
X035993Y031906D01*
X035993Y031983D02*
X036188Y031983D01*
X036148Y032060D02*
X035993Y032060D01*
X035993Y032137D02*
X036148Y032137D01*
X036158Y032215D02*
X035993Y032215D01*
X035993Y032292D02*
X036235Y032292D01*
X036464Y032369D02*
X035993Y032369D01*
X035993Y032446D02*
X036464Y032446D01*
X036464Y032524D02*
X036066Y032524D01*
X036144Y032601D02*
X036464Y032601D01*
X036464Y032678D02*
X036151Y032678D01*
X036151Y032755D02*
X036464Y032755D01*
X036464Y032833D02*
X036151Y032833D01*
X036191Y032910D02*
X036464Y032910D01*
X036464Y032987D02*
X036191Y032987D01*
X036191Y033064D02*
X036464Y033064D01*
X036464Y033142D02*
X036120Y033142D01*
X035972Y032980D02*
X036012Y032941D01*
X036012Y032665D01*
X035854Y032508D01*
X035854Y030224D01*
X035343Y029713D01*
X035343Y027429D01*
X034634Y026720D01*
X034634Y022114D01*
X034497Y021942D02*
X034455Y021942D01*
X034503Y021864D02*
X033063Y021864D01*
X033031Y021787D02*
X034116Y021787D01*
X034039Y021710D02*
X032995Y021710D01*
X032918Y021633D02*
X034022Y021633D01*
X034022Y021555D02*
X032840Y021555D01*
X032730Y021478D02*
X034055Y021478D01*
X034133Y021401D02*
X032544Y021401D01*
X034140Y021942D02*
X034182Y021942D01*
X034319Y022114D02*
X034476Y022272D01*
X034476Y026760D01*
X035185Y027469D01*
X035185Y029752D01*
X035697Y030264D01*
X035697Y032665D01*
X035776Y032744D01*
X035557Y032755D02*
X035545Y032755D01*
X035557Y032678D02*
X035192Y032678D01*
X035207Y032755D02*
X035298Y032755D01*
X035221Y032833D02*
X035207Y032833D01*
X035203Y032910D02*
X035171Y032910D01*
X035203Y032987D02*
X035093Y032987D01*
X035236Y033064D02*
X033615Y033064D01*
X033538Y032987D02*
X034883Y032987D01*
X034806Y032910D02*
X033460Y032910D01*
X033434Y032833D02*
X033744Y032833D01*
X033795Y032884D02*
X033667Y032756D01*
X033667Y032575D01*
X033734Y032508D01*
X033667Y032441D01*
X033667Y032260D01*
X033795Y032132D01*
X033976Y032132D01*
X034104Y032260D01*
X034104Y032441D01*
X034037Y032508D01*
X034104Y032575D01*
X034104Y032756D01*
X033976Y032884D01*
X033795Y032884D01*
X033667Y032755D02*
X033434Y032755D01*
X033434Y032678D02*
X033667Y032678D01*
X033667Y032601D02*
X033434Y032601D01*
X033434Y032524D02*
X033719Y032524D01*
X033673Y032446D02*
X033434Y032446D01*
X033434Y032369D02*
X033667Y032369D01*
X033667Y032292D02*
X033434Y032292D01*
X033434Y032215D02*
X033713Y032215D01*
X033790Y032137D02*
X033434Y032137D01*
X033359Y032060D02*
X034655Y032060D01*
X034652Y032137D02*
X033982Y032137D01*
X034059Y032215D02*
X034652Y032215D01*
X034700Y032292D02*
X034104Y032292D01*
X034104Y032369D02*
X034777Y032369D01*
X034963Y032369D02*
X035558Y032369D01*
X035558Y032292D02*
X035041Y032292D01*
X035089Y032215D02*
X035331Y032215D01*
X035254Y032137D02*
X035089Y032137D01*
X035154Y032060D02*
X035242Y032060D01*
X035231Y031983D02*
X035242Y031983D01*
X034809Y031906D02*
X033204Y031906D01*
X033282Y031983D02*
X034732Y031983D01*
X034809Y031828D02*
X032655Y031828D01*
X032677Y031751D02*
X032577Y031751D01*
X032654Y031741D02*
X032542Y031630D01*
X032482Y031484D01*
X032482Y031327D01*
X032542Y031181D01*
X032654Y031070D01*
X032799Y031009D01*
X032957Y031009D01*
X033102Y031070D01*
X033214Y031181D01*
X033274Y031327D01*
X033274Y031484D01*
X033214Y031630D01*
X033102Y031741D01*
X032957Y031802D01*
X032799Y031802D01*
X032654Y031741D01*
X032586Y031674D02*
X032500Y031674D01*
X032528Y031597D02*
X032450Y031597D01*
X032450Y031520D02*
X032496Y031520D01*
X032482Y031442D02*
X032450Y031442D01*
X032450Y031365D02*
X032482Y031365D01*
X032498Y031288D02*
X032450Y031288D01*
X032450Y031211D02*
X032530Y031211D01*
X032590Y031133D02*
X032393Y031133D01*
X032315Y031056D02*
X032686Y031056D01*
X032755Y030824D02*
X032084Y030824D01*
X032089Y030747D02*
X032606Y030747D01*
X032594Y030738D02*
X032545Y030690D01*
X032505Y030634D01*
X032474Y030573D01*
X032452Y030508D01*
X032443Y030445D01*
X032839Y030445D01*
X032839Y030841D01*
X032776Y030831D01*
X032711Y030810D01*
X032649Y030779D01*
X032594Y030738D01*
X032531Y030670D02*
X032174Y030670D01*
X032229Y030593D02*
X032484Y030593D01*
X032455Y030515D02*
X032261Y030515D01*
X032274Y030438D02*
X032839Y030438D01*
X032839Y030445D02*
X032839Y030366D01*
X032917Y030366D01*
X032917Y029970D01*
X032980Y029980D01*
X033045Y030001D01*
X033107Y030032D01*
X033162Y030073D01*
X033211Y030121D01*
X033251Y030177D01*
X033282Y030238D01*
X033303Y030303D01*
X033313Y030366D01*
X032917Y030366D01*
X032917Y030445D01*
X032839Y030445D01*
X032839Y030515D02*
X032917Y030515D01*
X032917Y030445D02*
X032917Y030841D01*
X032980Y030831D01*
X033045Y030810D01*
X033107Y030779D01*
X033162Y030738D01*
X033211Y030690D01*
X033251Y030634D01*
X033282Y030573D01*
X033303Y030508D01*
X033313Y030445D01*
X032917Y030445D01*
X032917Y030438D02*
X035558Y030438D01*
X035558Y030361D02*
X033313Y030361D01*
X033297Y030284D02*
X035521Y030284D01*
X035443Y030206D02*
X033266Y030206D01*
X033216Y030129D02*
X034938Y030129D01*
X034861Y030052D02*
X033133Y030052D01*
X032946Y029975D02*
X034849Y029975D01*
X034849Y029897D02*
X032608Y029897D01*
X032608Y029961D02*
X032480Y030089D01*
X032299Y030089D01*
X032171Y029961D01*
X032171Y029780D01*
X032299Y029652D01*
X032480Y029652D01*
X032608Y029780D01*
X032608Y029961D01*
X032594Y029975D02*
X032809Y029975D01*
X032839Y029975D02*
X032917Y029975D01*
X032917Y030052D02*
X032839Y030052D01*
X032839Y030129D02*
X032917Y030129D01*
X032917Y030206D02*
X032839Y030206D01*
X032839Y030284D02*
X032917Y030284D01*
X032917Y030361D02*
X032839Y030361D01*
X032839Y030366D02*
X032839Y029970D01*
X032776Y029980D01*
X032711Y030001D01*
X032649Y030032D01*
X032594Y030073D01*
X032545Y030121D01*
X032505Y030177D01*
X032474Y030238D01*
X032452Y030303D01*
X032443Y030366D01*
X032839Y030366D01*
X032839Y030593D02*
X032917Y030593D01*
X032917Y030670D02*
X032839Y030670D01*
X032839Y030747D02*
X032917Y030747D01*
X032917Y030824D02*
X032839Y030824D01*
X033001Y030824D02*
X033707Y030824D01*
X033707Y030866D02*
X033707Y030685D01*
X033835Y030557D01*
X034016Y030557D01*
X034144Y030685D01*
X034144Y030866D01*
X034016Y030994D01*
X033835Y030994D01*
X033707Y030866D01*
X033742Y030902D02*
X032161Y030902D01*
X032238Y030979D02*
X033820Y030979D01*
X034031Y030979D02*
X035558Y030979D01*
X035558Y031056D02*
X033070Y031056D01*
X033166Y031133D02*
X035558Y031133D01*
X035558Y031211D02*
X035535Y031211D01*
X035229Y031211D02*
X033226Y031211D01*
X033258Y031288D02*
X033616Y031288D01*
X033638Y031266D02*
X033819Y031266D01*
X033947Y031394D01*
X033947Y031575D01*
X033819Y031703D01*
X033638Y031703D01*
X033510Y031575D01*
X033510Y031394D01*
X033638Y031266D01*
X033539Y031365D02*
X033274Y031365D01*
X033274Y031442D02*
X033510Y031442D01*
X033510Y031520D02*
X033260Y031520D01*
X033228Y031597D02*
X033532Y031597D01*
X033609Y031674D02*
X033170Y031674D01*
X033079Y031751D02*
X034845Y031751D01*
X034923Y031674D02*
X033848Y031674D01*
X033925Y031597D02*
X034967Y031597D01*
X034967Y031520D02*
X033947Y031520D01*
X033947Y031442D02*
X035036Y031442D01*
X035163Y031365D02*
X033918Y031365D01*
X033841Y031288D02*
X035163Y031288D01*
X035558Y030902D02*
X034108Y030902D01*
X034144Y030824D02*
X035558Y030824D01*
X035558Y030747D02*
X034144Y030747D01*
X034128Y030670D02*
X035558Y030670D01*
X035558Y030593D02*
X034051Y030593D01*
X033799Y030593D02*
X033272Y030593D01*
X033301Y030515D02*
X035558Y030515D01*
X035366Y030129D02*
X035195Y030129D01*
X035273Y030052D02*
X035289Y030052D01*
X034964Y029743D02*
X033099Y029743D01*
X033102Y029741D02*
X032957Y029802D01*
X032799Y029802D01*
X032654Y029741D01*
X032542Y029630D01*
X032482Y029484D01*
X032482Y029327D01*
X032542Y029181D01*
X032654Y029070D01*
X032799Y029009D01*
X032957Y029009D01*
X033102Y029070D01*
X033214Y029181D01*
X033274Y029327D01*
X033274Y029484D01*
X033214Y029630D01*
X033102Y029741D01*
X033178Y029666D02*
X035046Y029666D01*
X035046Y029588D02*
X033231Y029588D01*
X033263Y029511D02*
X035046Y029511D01*
X035046Y029434D02*
X033274Y029434D01*
X033274Y029357D02*
X035046Y029357D01*
X035046Y029280D02*
X033255Y029280D01*
X033223Y029202D02*
X035046Y029202D01*
X035046Y029125D02*
X033158Y029125D01*
X033050Y029048D02*
X035046Y029048D01*
X035046Y028971D02*
X031506Y028971D01*
X031506Y029048D02*
X031706Y029048D01*
X031598Y029125D02*
X031506Y029125D01*
X031506Y029202D02*
X031533Y029202D01*
X031506Y028893D02*
X035046Y028893D01*
X035046Y028816D02*
X031506Y028816D01*
X031506Y028739D02*
X035046Y028739D01*
X035046Y028662D02*
X031506Y028662D01*
X031506Y028584D02*
X031684Y028584D01*
X031691Y028591D02*
X031668Y028568D01*
X031641Y028551D01*
X031637Y028550D01*
X031635Y028548D01*
X031633Y028546D01*
X031632Y028542D01*
X031615Y028515D01*
X031592Y028492D01*
X031589Y028491D01*
X031588Y028488D01*
X031585Y028485D01*
X031585Y028481D01*
X031575Y028451D01*
X031558Y028424D01*
X031555Y028422D01*
X031554Y028418D01*
X031553Y028416D01*
X031553Y028412D01*
X031550Y028380D01*
X031539Y028350D01*
X031537Y028347D01*
X031537Y028344D01*
X031536Y028340D01*
X031538Y028337D01*
X031541Y028305D01*
X031538Y028274D01*
X031536Y028270D01*
X031537Y028267D01*
X031537Y028264D01*
X031539Y028260D01*
X031550Y028230D01*
X031553Y028199D01*
X031553Y028195D01*
X031554Y028192D01*
X031555Y028189D01*
X031558Y028186D01*
X031575Y028159D01*
X031585Y028129D01*
X031585Y028125D01*
X031588Y028123D01*
X031589Y028120D01*
X031592Y028118D01*
X031615Y028095D01*
X031632Y028068D01*
X031633Y028064D01*
X031635Y028063D01*
X031637Y028060D01*
X031641Y028059D01*
X031668Y028042D01*
X031691Y028020D01*
X031692Y028016D01*
X031695Y028015D01*
X031698Y028012D01*
X031702Y028012D01*
X031732Y028002D01*
X031759Y027985D01*
X031762Y027982D01*
X031765Y027981D01*
X031767Y027980D01*
X031771Y027981D01*
X031803Y027977D01*
X031818Y027972D01*
X031820Y027970D01*
X031825Y027970D01*
X031843Y027963D01*
X031856Y027970D01*
X031870Y027970D01*
X031920Y027964D01*
X031926Y027970D01*
X032223Y027970D01*
X032226Y027968D01*
X032171Y027913D01*
X032171Y027732D01*
X032299Y027604D01*
X032480Y027604D01*
X032608Y027732D01*
X032608Y027913D01*
X032480Y028041D01*
X032481Y028042D01*
X032508Y028059D01*
X032512Y028060D01*
X032514Y028063D01*
X032517Y028064D01*
X032518Y028068D01*
X032535Y028095D01*
X032557Y028118D01*
X032561Y028120D01*
X032562Y028123D01*
X032564Y028125D01*
X032564Y028129D01*
X032575Y028159D01*
X032592Y028186D01*
X032595Y028189D01*
X032595Y028192D01*
X032597Y028195D01*
X032596Y028199D01*
X032600Y028230D01*
X032610Y028260D01*
X032613Y028264D01*
X032612Y028267D01*
X032614Y028270D01*
X032612Y028274D01*
X032608Y028305D01*
X032612Y028337D01*
X032614Y028340D01*
X032612Y028344D01*
X032613Y028347D01*
X032610Y028350D01*
X032600Y028380D01*
X032596Y028412D01*
X032597Y028416D01*
X032595Y028418D01*
X032595Y028422D01*
X032592Y028424D01*
X032575Y028451D01*
X032564Y028481D01*
X032564Y028485D01*
X032562Y028488D01*
X032561Y028491D01*
X032557Y028492D01*
X032535Y028515D01*
X032518Y028542D01*
X032517Y028546D01*
X032514Y028548D01*
X032512Y028550D01*
X032508Y028551D01*
X032481Y028568D01*
X032459Y028591D01*
X032457Y028594D01*
X032454Y028596D01*
X032452Y028598D01*
X032448Y028598D01*
X032418Y028608D01*
X032391Y028625D01*
X032388Y028628D01*
X032385Y028629D01*
X032382Y028631D01*
X032378Y028630D01*
X032347Y028633D01*
X032331Y028638D01*
X032329Y028641D01*
X032325Y028641D01*
X032307Y028647D01*
X032294Y028641D01*
X032279Y028641D01*
X032230Y028646D01*
X032223Y028641D01*
X031926Y028641D01*
X031920Y028646D01*
X031870Y028641D01*
X031856Y028641D01*
X031843Y028647D01*
X031825Y028641D01*
X031820Y028641D01*
X031818Y028638D01*
X031803Y028633D01*
X031771Y028630D01*
X031767Y028631D01*
X031765Y028629D01*
X031762Y028628D01*
X031759Y028625D01*
X031732Y028608D01*
X031702Y028598D01*
X031698Y028598D01*
X031695Y028596D01*
X031692Y028594D01*
X031691Y028591D01*
X031607Y028507D02*
X031506Y028507D01*
X031506Y028430D02*
X031561Y028430D01*
X031540Y028353D02*
X031506Y028353D01*
X031506Y028275D02*
X031538Y028275D01*
X031553Y028198D02*
X031506Y028198D01*
X031506Y028121D02*
X031588Y028121D01*
X031666Y028044D02*
X031506Y028044D01*
X031506Y027966D02*
X031833Y027966D01*
X031849Y027966D02*
X031898Y027966D01*
X031923Y027966D02*
X032224Y027966D01*
X032171Y027889D02*
X031506Y027889D01*
X031506Y027812D02*
X032171Y027812D01*
X032171Y027735D02*
X031506Y027735D01*
X031506Y027657D02*
X032246Y027657D01*
X032533Y027657D02*
X033097Y027657D01*
X033037Y027598D02*
X033037Y027417D01*
X033165Y027289D01*
X033346Y027289D01*
X033474Y027417D01*
X033474Y027502D01*
X033630Y027502D01*
X033769Y027642D01*
X033769Y027839D01*
X033638Y027970D01*
X033877Y027970D01*
X033884Y027964D01*
X033933Y027970D01*
X033948Y027970D01*
X033961Y027963D01*
X033978Y027970D01*
X033983Y027970D01*
X033985Y027972D01*
X034000Y027977D01*
X034032Y027981D01*
X034036Y027980D01*
X034038Y027981D01*
X034042Y027982D01*
X034044Y027985D01*
X034071Y028002D01*
X034101Y028012D01*
X034105Y028012D01*
X034108Y028015D01*
X034111Y028016D01*
X034112Y028020D01*
X034135Y028042D01*
X034162Y028059D01*
X034166Y028060D01*
X034168Y028063D01*
X034170Y028064D01*
X034171Y028068D01*
X034188Y028095D01*
X034211Y028118D01*
X034215Y028120D01*
X034216Y028123D01*
X034218Y028125D01*
X034218Y028129D01*
X034228Y028159D01*
X034245Y028186D01*
X034249Y028189D01*
X034249Y028192D01*
X034251Y028195D01*
X034250Y028199D01*
X034253Y028230D01*
X034264Y028260D01*
X034266Y028264D01*
X034266Y028267D01*
X034267Y028270D01*
X034265Y028274D01*
X034262Y028305D01*
X034265Y028337D01*
X034267Y028340D01*
X034266Y028344D01*
X034266Y028347D01*
X034264Y028350D01*
X034253Y028380D01*
X034250Y028412D01*
X034251Y028416D01*
X034249Y028418D01*
X034249Y028422D01*
X034245Y028424D01*
X034228Y028451D01*
X034218Y028481D01*
X034218Y028485D01*
X034216Y028488D01*
X034215Y028491D01*
X034211Y028492D01*
X034188Y028515D01*
X034171Y028542D01*
X034170Y028546D01*
X034168Y028548D01*
X034166Y028550D01*
X034162Y028551D01*
X034135Y028568D01*
X034112Y028591D01*
X034111Y028594D01*
X034108Y028596D01*
X034105Y028598D01*
X034101Y028598D01*
X034071Y028608D01*
X034044Y028625D01*
X034042Y028628D01*
X034038Y028629D01*
X034036Y028631D01*
X034032Y028630D01*
X034000Y028633D01*
X033985Y028638D01*
X033983Y028641D01*
X033978Y028641D01*
X033961Y028647D01*
X033948Y028641D01*
X033933Y028641D01*
X033884Y028646D01*
X033877Y028641D01*
X033580Y028641D01*
X033573Y028646D01*
X033524Y028641D01*
X033509Y028641D01*
X033496Y028647D01*
X033478Y028641D01*
X033474Y028641D01*
X033472Y028638D01*
X033457Y028633D01*
X033425Y028630D01*
X033421Y028631D01*
X033418Y028629D01*
X033415Y028628D01*
X033412Y028625D01*
X033386Y028608D01*
X033355Y028598D01*
X033351Y028598D01*
X033349Y028596D01*
X033346Y028594D01*
X033344Y028591D01*
X033322Y028568D01*
X033295Y028551D01*
X033291Y028550D01*
X033289Y028548D01*
X033286Y028546D01*
X033285Y028542D01*
X033268Y028515D01*
X033246Y028492D01*
X033242Y028491D01*
X033241Y028488D01*
X033239Y028485D01*
X033239Y028481D01*
X033228Y028451D01*
X033211Y028424D01*
X033208Y028422D01*
X033208Y028418D01*
X033206Y028416D01*
X033207Y028412D01*
X033203Y028380D01*
X033193Y028350D01*
X033190Y028347D01*
X033191Y028344D01*
X033190Y028340D01*
X033191Y028337D01*
X033195Y028305D01*
X033191Y028274D01*
X033190Y028270D01*
X033191Y028267D01*
X033190Y028264D01*
X033193Y028260D01*
X033203Y028230D01*
X033207Y028199D01*
X033206Y028195D01*
X033208Y028192D01*
X033208Y028189D01*
X033211Y028186D01*
X033228Y028159D01*
X033239Y028129D01*
X033239Y028125D01*
X033241Y028123D01*
X033242Y028120D01*
X033246Y028118D01*
X033268Y028095D01*
X033285Y028068D01*
X033286Y028064D01*
X033289Y028063D01*
X033291Y028060D01*
X033295Y028059D01*
X033322Y028042D01*
X033344Y028020D01*
X033346Y028016D01*
X033349Y028015D01*
X033351Y028012D01*
X033355Y028012D01*
X033386Y028002D01*
X033412Y027985D01*
X033415Y027982D01*
X033418Y027981D01*
X033421Y027980D01*
X033425Y027981D01*
X033449Y027978D01*
X033433Y027978D01*
X033294Y027839D01*
X033294Y027726D01*
X033165Y027726D01*
X033037Y027598D01*
X033037Y027580D02*
X031506Y027580D01*
X031506Y027503D02*
X033037Y027503D01*
X033037Y027426D02*
X031506Y027426D01*
X031506Y027349D02*
X033106Y027349D01*
X033405Y027349D02*
X034869Y027349D01*
X034840Y027426D02*
X033474Y027426D01*
X033631Y027503D02*
X034763Y027503D01*
X034730Y027580D02*
X033708Y027580D01*
X033769Y027657D02*
X034730Y027657D01*
X034749Y027735D02*
X033769Y027735D01*
X033769Y027812D02*
X034826Y027812D01*
X035046Y027889D02*
X033719Y027889D01*
X033641Y027966D02*
X033881Y027966D01*
X033906Y027966D02*
X033954Y027966D01*
X033970Y027966D02*
X035046Y027966D01*
X035046Y028044D02*
X034138Y028044D01*
X034215Y028121D02*
X035046Y028121D01*
X035046Y028198D02*
X034250Y028198D01*
X034265Y028275D02*
X035046Y028275D01*
X035046Y028353D02*
X034263Y028353D01*
X034242Y028430D02*
X035046Y028430D01*
X035046Y028507D02*
X034196Y028507D01*
X034119Y028584D02*
X035046Y028584D01*
X035639Y028584D02*
X036226Y028584D01*
X036226Y028559D02*
X036354Y028431D01*
X036388Y028431D01*
X036468Y028352D01*
X036345Y028228D01*
X036345Y028047D01*
X036473Y027919D01*
X036653Y027919D01*
X036777Y028043D01*
X037369Y027450D01*
X037450Y027369D01*
X038589Y027369D01*
X038670Y027450D01*
X038867Y027647D01*
X038867Y028277D01*
X039257Y028667D01*
X039370Y028667D01*
X039498Y028795D01*
X039498Y028976D01*
X039370Y029104D01*
X039189Y029104D01*
X039061Y028976D01*
X039061Y028864D01*
X038671Y028473D01*
X038590Y028392D01*
X038590Y027762D01*
X038474Y027647D01*
X037565Y027647D01*
X036658Y028554D01*
X036663Y028559D01*
X036663Y028740D01*
X036535Y028868D01*
X036354Y028868D01*
X036226Y028740D01*
X036226Y028559D01*
X036278Y028507D02*
X035639Y028507D01*
X035639Y028430D02*
X036390Y028430D01*
X036467Y028353D02*
X035639Y028353D01*
X035639Y028275D02*
X036392Y028275D01*
X036345Y028198D02*
X035639Y028198D01*
X035639Y028121D02*
X036345Y028121D01*
X036348Y028044D02*
X035639Y028044D01*
X035639Y027966D02*
X036425Y027966D01*
X036701Y027966D02*
X036853Y027966D01*
X036930Y027889D02*
X035639Y027889D01*
X035639Y027812D02*
X037008Y027812D01*
X037085Y027735D02*
X035639Y027735D01*
X035639Y027657D02*
X037162Y027657D01*
X037239Y027580D02*
X035639Y027580D01*
X035639Y027503D02*
X037317Y027503D01*
X037394Y027426D02*
X036442Y027426D01*
X036417Y027451D02*
X036236Y027451D01*
X036108Y027323D01*
X036108Y027142D01*
X036236Y027014D01*
X036390Y027014D01*
X036345Y026968D01*
X036345Y026787D01*
X036473Y026660D01*
X036653Y026660D01*
X036781Y026787D01*
X036781Y026968D01*
X036653Y027096D01*
X036500Y027096D01*
X036545Y027142D01*
X036545Y027323D01*
X036417Y027451D01*
X036519Y027349D02*
X038825Y027349D01*
X038825Y027299D02*
X038953Y027171D01*
X039134Y027171D01*
X039262Y027299D01*
X039262Y027480D01*
X039134Y027608D01*
X038953Y027608D01*
X038825Y027480D01*
X038825Y027299D01*
X038853Y027271D02*
X036545Y027271D01*
X036545Y027194D02*
X038930Y027194D01*
X039156Y027194D02*
X039652Y027194D01*
X039652Y027142D02*
X039719Y027075D01*
X039652Y027008D01*
X039652Y026827D01*
X039780Y026699D01*
X039961Y026699D01*
X040089Y026827D01*
X040089Y027008D01*
X040021Y027075D01*
X040089Y027142D01*
X040089Y027323D01*
X039970Y027441D01*
X039970Y027598D01*
X039884Y027685D01*
X039931Y027732D01*
X039931Y027913D01*
X039803Y028041D01*
X039774Y028041D01*
X039774Y028189D01*
X039646Y028317D01*
X039465Y028317D01*
X039337Y028189D01*
X039337Y028008D01*
X039465Y027880D01*
X039494Y027880D01*
X039494Y027732D01*
X039581Y027646D01*
X039534Y027598D01*
X039534Y027417D01*
X039652Y027299D01*
X039652Y027142D01*
X039677Y027117D02*
X038483Y027117D01*
X038464Y027136D02*
X038284Y027136D01*
X038156Y027008D01*
X038156Y026827D01*
X038284Y026699D01*
X038464Y026699D01*
X038592Y026827D01*
X038592Y027008D01*
X038464Y027136D01*
X038561Y027040D02*
X039683Y027040D01*
X039652Y026962D02*
X038592Y026962D01*
X038592Y026885D02*
X039652Y026885D01*
X039671Y026808D02*
X039186Y026808D01*
X039173Y026821D02*
X038992Y026821D01*
X038864Y026693D01*
X038864Y026512D01*
X038992Y026384D01*
X039173Y026384D01*
X039301Y026512D01*
X039301Y026693D01*
X039173Y026821D01*
X039263Y026731D02*
X039748Y026731D01*
X039992Y026731D02*
X040872Y026731D01*
X040872Y026772D02*
X040872Y026591D01*
X041000Y026463D01*
X041181Y026463D01*
X041309Y026591D01*
X041309Y026738D01*
X041457Y026738D01*
X041585Y026866D01*
X041585Y027047D01*
X041457Y027175D01*
X041276Y027175D01*
X041148Y027047D01*
X041148Y026900D01*
X041000Y026900D01*
X040872Y026772D01*
X040908Y026808D02*
X040069Y026808D01*
X040089Y026885D02*
X040986Y026885D01*
X041148Y026962D02*
X040089Y026962D01*
X040057Y027040D02*
X040541Y027040D01*
X040567Y027014D02*
X040748Y027014D01*
X040876Y027142D01*
X040876Y027323D01*
X040770Y027429D01*
X040876Y027536D01*
X040876Y027716D01*
X040748Y027844D01*
X040567Y027844D01*
X040439Y027716D01*
X040439Y027536D01*
X040545Y027429D01*
X040439Y027323D01*
X040439Y027142D01*
X040567Y027014D01*
X040464Y027117D02*
X040063Y027117D01*
X040089Y027194D02*
X040439Y027194D01*
X040439Y027271D02*
X040089Y027271D01*
X040063Y027349D02*
X040465Y027349D01*
X040542Y027426D02*
X039985Y027426D01*
X039970Y027503D02*
X040472Y027503D01*
X040439Y027580D02*
X039970Y027580D01*
X039911Y027657D02*
X040439Y027657D01*
X040457Y027735D02*
X039931Y027735D01*
X039931Y027812D02*
X040535Y027812D01*
X040780Y027812D02*
X041344Y027812D01*
X041305Y027889D02*
X039931Y027889D01*
X039878Y027966D02*
X041305Y027966D01*
X041317Y028044D02*
X039774Y028044D01*
X039774Y028121D02*
X041395Y028121D01*
X041535Y028198D02*
X040476Y028198D01*
X040472Y028195D02*
X040600Y028323D01*
X040600Y028504D01*
X040472Y028632D01*
X040291Y028632D01*
X040163Y028504D01*
X040163Y028323D01*
X040291Y028195D01*
X040472Y028195D01*
X040553Y028275D02*
X041503Y028275D01*
X041482Y028353D02*
X041181Y028353D01*
X041258Y028430D02*
X041482Y028430D01*
X041491Y028507D02*
X041309Y028507D01*
X041000Y028353D02*
X040600Y028353D01*
X040600Y028430D02*
X040923Y028430D01*
X040872Y028507D02*
X040597Y028507D01*
X040520Y028584D02*
X040872Y028584D01*
X040872Y028662D02*
X039252Y028662D01*
X039174Y028584D02*
X040244Y028584D01*
X040167Y028507D02*
X039097Y028507D01*
X039020Y028430D02*
X040163Y028430D01*
X040163Y028353D02*
X038943Y028353D01*
X038867Y028275D02*
X039423Y028275D01*
X039346Y028198D02*
X038867Y028198D01*
X038867Y028121D02*
X039337Y028121D01*
X039337Y028044D02*
X038867Y028044D01*
X038867Y027966D02*
X039378Y027966D01*
X039455Y027889D02*
X038867Y027889D01*
X038867Y027812D02*
X039494Y027812D01*
X039494Y027735D02*
X038867Y027735D01*
X038867Y027657D02*
X039569Y027657D01*
X039534Y027580D02*
X039162Y027580D01*
X039239Y027503D02*
X039534Y027503D01*
X039534Y027426D02*
X039262Y027426D01*
X039262Y027349D02*
X039602Y027349D01*
X039652Y027271D02*
X039234Y027271D01*
X038925Y027580D02*
X038800Y027580D01*
X038848Y027503D02*
X038723Y027503D01*
X038646Y027426D02*
X038825Y027426D01*
X038728Y027705D02*
X038531Y027508D01*
X037508Y027508D01*
X036445Y028571D01*
X036445Y028650D01*
X036663Y028662D02*
X036778Y028662D01*
X036778Y028739D02*
X036663Y028739D01*
X036587Y028816D02*
X036791Y028816D01*
X036714Y028893D02*
X035639Y028893D01*
X035639Y028816D02*
X036302Y028816D01*
X036226Y028739D02*
X035639Y028739D01*
X035639Y028662D02*
X036226Y028662D01*
X036663Y028584D02*
X036792Y028584D01*
X036869Y028507D02*
X036705Y028507D01*
X036782Y028430D02*
X037177Y028430D01*
X037175Y028432D02*
X037175Y028432D01*
X037254Y028353D02*
X036859Y028353D01*
X036937Y028275D02*
X037332Y028275D01*
X037409Y028198D02*
X037014Y028198D01*
X037091Y028121D02*
X037486Y028121D01*
X037563Y028044D02*
X037168Y028044D01*
X037246Y027966D02*
X037640Y027966D01*
X037718Y027889D02*
X037323Y027889D01*
X037400Y027812D02*
X037958Y027812D01*
X038160Y027812D02*
X038590Y027812D01*
X038590Y027889D02*
X038237Y027889D01*
X038277Y027966D02*
X038590Y027966D01*
X038590Y028044D02*
X038277Y028044D01*
X038267Y028121D02*
X038590Y028121D01*
X038590Y028198D02*
X038189Y028198D01*
X038059Y028020D02*
X037783Y028020D01*
X037232Y028571D01*
X037232Y028768D01*
X036917Y029083D01*
X036917Y032272D01*
X037075Y032429D01*
X037075Y032823D01*
X037193Y032941D01*
X037175Y033219D02*
X037211Y033219D01*
X037278Y033296D02*
X037107Y033296D01*
X036806Y033296D02*
X036741Y033296D01*
X036741Y033373D02*
X037864Y033373D01*
X037949Y032601D02*
X037960Y032601D01*
X036839Y032508D02*
X036760Y032429D01*
X036760Y029043D01*
X036996Y028807D01*
X036996Y028689D01*
X037226Y028971D02*
X039061Y028971D01*
X039061Y028893D02*
X037303Y028893D01*
X037371Y028816D02*
X039014Y028816D01*
X038936Y028739D02*
X037371Y028739D01*
X037371Y028662D02*
X038859Y028662D01*
X038782Y028584D02*
X037415Y028584D01*
X037492Y028507D02*
X038705Y028507D01*
X038627Y028430D02*
X037569Y028430D01*
X037647Y028353D02*
X038590Y028353D01*
X038590Y028275D02*
X037724Y028275D01*
X037801Y028198D02*
X037929Y028198D01*
X037477Y027735D02*
X038562Y027735D01*
X038485Y027657D02*
X037554Y027657D01*
X038187Y027040D02*
X036710Y027040D01*
X036781Y026962D02*
X038156Y026962D01*
X038156Y026885D02*
X036781Y026885D01*
X036781Y026808D02*
X038175Y026808D01*
X038252Y026731D02*
X036725Y026731D01*
X036401Y026731D02*
X035898Y026731D01*
X035915Y026748D02*
X035787Y026620D01*
X035606Y026620D01*
X035478Y026748D01*
X035478Y026929D01*
X035606Y027057D01*
X035787Y027057D01*
X035915Y026929D01*
X035915Y026748D01*
X035915Y026808D02*
X036345Y026808D01*
X036345Y026885D02*
X035915Y026885D01*
X035882Y026962D02*
X036345Y026962D01*
X036211Y027040D02*
X035805Y027040D01*
X035589Y027040D02*
X035346Y027040D01*
X035423Y027117D02*
X036133Y027117D01*
X036108Y027194D02*
X035500Y027194D01*
X035578Y027271D02*
X036108Y027271D01*
X036134Y027349D02*
X035639Y027349D01*
X035639Y027426D02*
X036211Y027426D01*
X036520Y027117D02*
X038265Y027117D01*
X038573Y026808D02*
X038979Y026808D01*
X038902Y026731D02*
X038496Y026731D01*
X038425Y026624D02*
X038244Y026624D01*
X038116Y026496D01*
X038116Y026315D01*
X038244Y026187D01*
X038425Y026187D01*
X038553Y026315D01*
X038553Y026496D01*
X038425Y026624D01*
X038473Y026576D02*
X038864Y026576D01*
X038864Y026653D02*
X035821Y026653D01*
X035961Y026466D02*
X035833Y026339D01*
X035833Y026158D01*
X035961Y026030D01*
X036142Y026030D01*
X036270Y026158D01*
X036270Y026339D01*
X036142Y026466D01*
X035961Y026466D01*
X035916Y026422D02*
X034930Y026422D01*
X034930Y026499D02*
X038119Y026499D01*
X038116Y026422D02*
X036186Y026422D01*
X036264Y026344D02*
X038116Y026344D01*
X038164Y026267D02*
X036270Y026267D01*
X036270Y026190D02*
X038241Y026190D01*
X038428Y026190D02*
X040013Y026190D01*
X039967Y026236D02*
X040095Y026108D01*
X040276Y026108D01*
X040403Y026236D01*
X040403Y026417D01*
X040276Y026545D01*
X040095Y026545D01*
X039967Y026417D01*
X039967Y026236D01*
X039967Y026267D02*
X038505Y026267D01*
X038553Y026344D02*
X039967Y026344D01*
X039971Y026422D02*
X039211Y026422D01*
X039288Y026499D02*
X040048Y026499D01*
X040322Y026499D02*
X040442Y026499D01*
X040439Y026496D02*
X040439Y026315D01*
X040567Y026187D01*
X040748Y026187D01*
X040876Y026315D01*
X040876Y026496D01*
X040748Y026624D01*
X040567Y026624D01*
X040439Y026496D01*
X040439Y026422D02*
X040399Y026422D01*
X040403Y026344D02*
X040439Y026344D01*
X040403Y026267D02*
X040487Y026267D01*
X040564Y026190D02*
X040357Y026190D01*
X040280Y026113D02*
X041384Y026113D01*
X041384Y026181D02*
X041384Y026000D01*
X041512Y025872D01*
X041693Y025872D01*
X041821Y026000D01*
X041821Y026181D01*
X041693Y026309D01*
X041512Y026309D01*
X041384Y026181D01*
X041393Y026190D02*
X040751Y026190D01*
X040828Y026267D02*
X041470Y026267D01*
X041384Y026035D02*
X036147Y026035D01*
X036225Y026113D02*
X040090Y026113D01*
X040079Y025718D02*
X039898Y025718D01*
X039770Y025590D01*
X039770Y025410D01*
X039898Y025282D01*
X040079Y025282D01*
X040207Y025410D01*
X040207Y025590D01*
X040079Y025718D01*
X040148Y025649D02*
X042250Y025649D01*
X042250Y025572D02*
X040207Y025572D01*
X040207Y025495D02*
X042250Y025495D01*
X042250Y025418D02*
X040207Y025418D01*
X040137Y025340D02*
X040819Y025340D01*
X040843Y025364D02*
X040763Y025284D01*
X040441Y025284D01*
X040332Y025239D01*
X040128Y025035D01*
X040128Y025079D01*
X040000Y025207D01*
X039819Y025207D01*
X039691Y025079D01*
X039691Y024898D01*
X039698Y024891D01*
X038945Y024891D01*
X038836Y024846D01*
X038474Y024484D01*
X038474Y024646D01*
X038388Y024732D01*
X038474Y024819D01*
X038474Y025000D01*
X038346Y025128D01*
X038165Y025128D01*
X038037Y025000D01*
X038037Y024819D01*
X038124Y024732D01*
X038037Y024646D01*
X038037Y024465D01*
X038165Y024337D01*
X038327Y024337D01*
X037031Y023040D01*
X036773Y023040D01*
X036772Y023041D01*
X036591Y023041D01*
X036590Y023040D01*
X035914Y023040D01*
X035805Y022995D01*
X035524Y022715D01*
X035479Y022606D01*
X035479Y022488D01*
X035524Y022379D01*
X035608Y022296D01*
X035717Y022251D01*
X035835Y022251D01*
X035943Y022296D01*
X036095Y022448D01*
X037212Y022448D01*
X037321Y022493D01*
X037405Y022576D01*
X038156Y023327D01*
X038156Y023244D01*
X038282Y023118D01*
X038156Y022992D01*
X038156Y022811D01*
X038284Y022683D01*
X038464Y022683D01*
X038592Y022811D01*
X038592Y022992D01*
X038466Y023118D01*
X038592Y023244D01*
X038592Y023425D01*
X038464Y023553D01*
X038381Y023553D01*
X039127Y024298D01*
X039659Y024298D01*
X039652Y024291D01*
X039652Y024110D01*
X039780Y023982D01*
X039961Y023982D01*
X040089Y024110D01*
X040089Y024291D01*
X040081Y024298D01*
X040165Y024298D01*
X040274Y024343D01*
X040357Y024427D01*
X040623Y024692D01*
X040722Y024692D01*
X040597Y024567D01*
X040597Y024386D01*
X040724Y024258D01*
X040905Y024258D01*
X040911Y024264D01*
X040911Y024228D01*
X040952Y024188D01*
X040952Y024176D01*
X040905Y024222D01*
X040724Y024222D01*
X040597Y024094D01*
X040597Y023913D01*
X040724Y023786D01*
X040905Y023786D01*
X040952Y023832D01*
X040952Y023743D01*
X040945Y023750D01*
X040764Y023750D01*
X040636Y023622D01*
X040636Y023441D01*
X040742Y023335D01*
X040675Y023268D01*
X040675Y023087D01*
X040803Y022959D01*
X040984Y022959D01*
X041112Y023087D01*
X041112Y023199D01*
X041148Y023235D01*
X041229Y023317D01*
X041229Y024109D01*
X041348Y024228D01*
X041348Y024409D01*
X041281Y024476D01*
X041348Y024543D01*
X041348Y024724D01*
X041220Y024852D01*
X041197Y024852D01*
X041229Y024929D01*
X041229Y025047D01*
X041184Y025156D01*
X041151Y025189D01*
X041151Y025236D01*
X041024Y025364D01*
X040843Y025364D01*
X041047Y025340D02*
X042250Y025340D01*
X042250Y025263D02*
X041125Y025263D01*
X041154Y025186D02*
X042250Y025186D01*
X042250Y025109D02*
X042145Y025109D01*
X042087Y025167D02*
X041906Y025167D01*
X041778Y025039D01*
X041778Y024858D01*
X041906Y024730D01*
X042087Y024730D01*
X042214Y024858D01*
X042214Y025039D01*
X042087Y025167D01*
X042214Y025031D02*
X042250Y025031D01*
X042250Y024954D02*
X042214Y024954D01*
X042214Y024877D02*
X042250Y024877D01*
X042250Y024800D02*
X042156Y024800D01*
X042250Y024722D02*
X041348Y024722D01*
X041348Y024645D02*
X042250Y024645D01*
X042250Y024568D02*
X041348Y024568D01*
X041296Y024491D02*
X042250Y024491D01*
X042250Y024413D02*
X041344Y024413D01*
X041348Y024336D02*
X042250Y024336D01*
X042250Y024259D02*
X041348Y024259D01*
X041302Y024182D02*
X042250Y024182D01*
X042250Y024104D02*
X041229Y024104D01*
X041229Y024027D02*
X042250Y024027D01*
X042250Y023950D02*
X041229Y023950D01*
X041229Y023873D02*
X042250Y023873D01*
X042250Y023795D02*
X041229Y023795D01*
X041229Y023718D02*
X042250Y023718D01*
X042250Y023641D02*
X041229Y023641D01*
X041229Y023564D02*
X042250Y023564D01*
X042250Y023487D02*
X041229Y023487D01*
X041229Y023409D02*
X042250Y023409D01*
X042250Y023332D02*
X041229Y023332D01*
X041168Y023255D02*
X041883Y023255D01*
X041906Y023277D02*
X041778Y023150D01*
X041778Y022969D01*
X041906Y022841D01*
X042087Y022841D01*
X042214Y022969D01*
X042214Y023150D01*
X042087Y023277D01*
X041906Y023277D01*
X041806Y023178D02*
X041112Y023178D01*
X041112Y023100D02*
X041778Y023100D01*
X041778Y023023D02*
X041048Y023023D01*
X040894Y023177D02*
X041091Y023374D01*
X041091Y024280D01*
X041130Y024319D01*
X040952Y024182D02*
X040946Y024182D01*
X040911Y024259D02*
X040906Y024259D01*
X040724Y024259D02*
X040089Y024259D01*
X040089Y024182D02*
X040684Y024182D01*
X040607Y024104D02*
X040083Y024104D01*
X040005Y024027D02*
X040597Y024027D01*
X040597Y023950D02*
X038778Y023950D01*
X038701Y023873D02*
X039115Y023873D01*
X039150Y023907D02*
X039022Y023779D01*
X039022Y023599D01*
X039150Y023471D01*
X039331Y023471D01*
X039459Y023599D01*
X039459Y023779D01*
X039331Y023907D01*
X039150Y023907D01*
X039038Y023795D02*
X038624Y023795D01*
X038547Y023718D02*
X039022Y023718D01*
X039022Y023641D02*
X038469Y023641D01*
X038392Y023564D02*
X039056Y023564D01*
X039134Y023487D02*
X038531Y023487D01*
X038592Y023409D02*
X040668Y023409D01*
X040636Y023487D02*
X039347Y023487D01*
X039424Y023564D02*
X040636Y023564D01*
X040655Y023641D02*
X039459Y023641D01*
X039459Y023718D02*
X040732Y023718D01*
X040715Y023795D02*
X039443Y023795D01*
X039365Y023873D02*
X040637Y023873D01*
X040915Y023795D02*
X040952Y023795D01*
X040740Y023332D02*
X038592Y023332D01*
X038592Y023255D02*
X040675Y023255D01*
X040675Y023178D02*
X038526Y023178D01*
X038484Y023100D02*
X040675Y023100D01*
X040739Y023023D02*
X038561Y023023D01*
X038592Y022946D02*
X041800Y022946D01*
X041878Y022869D02*
X038592Y022869D01*
X038573Y022791D02*
X038774Y022791D01*
X038799Y022802D02*
X038654Y022741D01*
X038542Y022630D01*
X038482Y022484D01*
X038482Y022327D01*
X038542Y022181D01*
X038654Y022070D01*
X038799Y022009D01*
X038957Y022009D01*
X039102Y022070D01*
X039214Y022181D01*
X039274Y022327D01*
X039274Y022484D01*
X039214Y022630D01*
X039102Y022741D01*
X038957Y022802D01*
X038799Y022802D01*
X038982Y022791D02*
X042250Y022791D01*
X042250Y022714D02*
X039130Y022714D01*
X039207Y022637D02*
X042250Y022637D01*
X042250Y022560D02*
X039243Y022560D01*
X039274Y022482D02*
X042250Y022482D01*
X042250Y022405D02*
X039274Y022405D01*
X039274Y022328D02*
X042250Y022328D01*
X042250Y022251D02*
X039243Y022251D01*
X039206Y022173D02*
X042250Y022173D01*
X042250Y022096D02*
X039129Y022096D01*
X038980Y022019D02*
X042250Y022019D01*
X042250Y021942D02*
X041690Y021942D01*
X041653Y021978D02*
X041473Y021978D01*
X041345Y021850D01*
X041345Y021669D01*
X041473Y021541D01*
X041653Y021541D01*
X041781Y021669D01*
X041781Y021850D01*
X041653Y021978D01*
X041767Y021864D02*
X042250Y021864D01*
X042250Y021787D02*
X041781Y021787D01*
X041781Y021710D02*
X042250Y021710D01*
X042250Y021633D02*
X041745Y021633D01*
X041668Y021555D02*
X042250Y021555D01*
X042250Y021478D02*
X034509Y021478D01*
X034586Y021555D02*
X041458Y021555D01*
X041381Y021633D02*
X034664Y021633D01*
X034741Y021710D02*
X041345Y021710D01*
X041345Y021787D02*
X034818Y021787D01*
X034895Y021864D02*
X041359Y021864D01*
X041436Y021942D02*
X034973Y021942D01*
X035009Y022019D02*
X036940Y022019D01*
X036984Y021974D02*
X037165Y021974D01*
X037293Y022102D01*
X037293Y022283D01*
X037165Y022411D01*
X036984Y022411D01*
X036856Y022283D01*
X036856Y022102D01*
X036984Y021974D01*
X036863Y022096D02*
X035009Y022096D01*
X035009Y022173D02*
X036856Y022173D01*
X036856Y022251D02*
X035009Y022251D01*
X034931Y022328D02*
X035576Y022328D01*
X035514Y022405D02*
X034930Y022405D01*
X034930Y022482D02*
X035482Y022482D01*
X035479Y022560D02*
X034930Y022560D01*
X034930Y022637D02*
X035492Y022637D01*
X035524Y022714D02*
X034930Y022714D01*
X034930Y022791D02*
X035601Y022791D01*
X035678Y022869D02*
X034930Y022869D01*
X034930Y022946D02*
X035755Y022946D01*
X035655Y023023D02*
X035872Y023023D01*
X035732Y023100D02*
X037091Y023100D01*
X037168Y023178D02*
X035758Y023178D01*
X035758Y023255D02*
X037245Y023255D01*
X037323Y023332D02*
X035733Y023332D01*
X035726Y023409D02*
X037400Y023409D01*
X037477Y023487D02*
X035758Y023487D01*
X035758Y023564D02*
X037554Y023564D01*
X037632Y023641D02*
X035739Y023641D01*
X035662Y023718D02*
X037709Y023718D01*
X037786Y023795D02*
X035640Y023795D01*
X035679Y023873D02*
X037863Y023873D01*
X037940Y023950D02*
X035679Y023950D01*
X035668Y024027D02*
X038018Y024027D01*
X038095Y024104D02*
X036854Y024104D01*
X036811Y024061D02*
X036939Y024189D01*
X036939Y024370D01*
X036811Y024498D01*
X036630Y024498D01*
X036502Y024370D01*
X036502Y024189D01*
X036630Y024061D01*
X036811Y024061D01*
X036932Y024182D02*
X038172Y024182D01*
X038249Y024259D02*
X036939Y024259D01*
X036939Y024336D02*
X038327Y024336D01*
X038474Y024491D02*
X038481Y024491D01*
X038474Y024568D02*
X038558Y024568D01*
X038636Y024645D02*
X038474Y024645D01*
X038398Y024722D02*
X038713Y024722D01*
X038790Y024800D02*
X038455Y024800D01*
X038474Y024877D02*
X038912Y024877D01*
X038474Y024954D02*
X039691Y024954D01*
X039691Y025031D02*
X038443Y025031D01*
X038366Y025109D02*
X039721Y025109D01*
X039798Y025186D02*
X035915Y025186D01*
X035915Y025173D02*
X035787Y025045D01*
X035606Y025045D01*
X035478Y025173D01*
X035478Y025354D01*
X035606Y025482D01*
X035787Y025482D01*
X035915Y025354D01*
X035915Y025173D01*
X035915Y025263D02*
X037987Y025263D01*
X038008Y025242D02*
X038189Y025242D01*
X038317Y025370D01*
X038317Y025551D01*
X038189Y025679D01*
X038008Y025679D01*
X037880Y025551D01*
X037880Y025370D01*
X038008Y025242D01*
X037910Y025340D02*
X035915Y025340D01*
X035852Y025418D02*
X037880Y025418D01*
X037880Y025495D02*
X034930Y025495D01*
X034930Y025572D02*
X037901Y025572D01*
X037978Y025649D02*
X034930Y025649D01*
X034930Y025726D02*
X038528Y025726D01*
X038559Y025758D02*
X038431Y025630D01*
X038431Y025449D01*
X038559Y025321D01*
X038740Y025321D01*
X038868Y025449D01*
X038868Y025630D01*
X038740Y025758D01*
X038559Y025758D01*
X038451Y025649D02*
X038219Y025649D01*
X038296Y025572D02*
X038431Y025572D01*
X038431Y025495D02*
X038317Y025495D01*
X038317Y025418D02*
X038463Y025418D01*
X038540Y025340D02*
X038287Y025340D01*
X038210Y025263D02*
X040389Y025263D01*
X040279Y025186D02*
X040021Y025186D01*
X040098Y025109D02*
X040201Y025109D01*
X039839Y025340D02*
X038759Y025340D01*
X038837Y025418D02*
X039770Y025418D01*
X039770Y025495D02*
X038868Y025495D01*
X038868Y025572D02*
X039770Y025572D01*
X039829Y025649D02*
X038849Y025649D01*
X038771Y025726D02*
X042250Y025726D01*
X042250Y025804D02*
X034930Y025804D01*
X034930Y025881D02*
X041503Y025881D01*
X041426Y025958D02*
X034930Y025958D01*
X034930Y026035D02*
X035955Y026035D01*
X035878Y026113D02*
X034930Y026113D01*
X034930Y026190D02*
X035833Y026190D01*
X035833Y026267D02*
X034930Y026267D01*
X034930Y026344D02*
X035839Y026344D01*
X035573Y026653D02*
X034960Y026653D01*
X034930Y026576D02*
X038196Y026576D01*
X038550Y026499D02*
X038877Y026499D01*
X038955Y026422D02*
X038553Y026422D01*
X039301Y026576D02*
X040519Y026576D01*
X040796Y026576D02*
X040887Y026576D01*
X040873Y026499D02*
X040964Y026499D01*
X040876Y026422D02*
X042250Y026422D01*
X042250Y026499D02*
X041217Y026499D01*
X041294Y026576D02*
X042250Y026576D01*
X042238Y026653D02*
X042250Y026653D01*
X041990Y026653D02*
X041309Y026653D01*
X041309Y026731D02*
X041913Y026731D01*
X041896Y026808D02*
X041526Y026808D01*
X041585Y026885D02*
X041896Y026885D01*
X041929Y026962D02*
X041585Y026962D01*
X041585Y027040D02*
X041726Y027040D01*
X041606Y027117D02*
X041515Y027117D01*
X041537Y027194D02*
X040876Y027194D01*
X040876Y027271D02*
X041505Y027271D01*
X041482Y027349D02*
X040850Y027349D01*
X040773Y027426D02*
X041482Y027426D01*
X041489Y027503D02*
X040843Y027503D01*
X040876Y027580D02*
X041521Y027580D01*
X041570Y027657D02*
X040876Y027657D01*
X040858Y027735D02*
X041421Y027735D01*
X041626Y027735D02*
X041647Y027735D01*
X041704Y027812D02*
X042250Y027812D01*
X042250Y027889D02*
X041742Y027889D01*
X041742Y027966D02*
X042250Y027966D01*
X042250Y028044D02*
X042040Y028044D01*
X042154Y028121D02*
X042250Y028121D01*
X042250Y028198D02*
X042221Y028198D01*
X042233Y028584D02*
X042250Y028584D01*
X042250Y028662D02*
X042182Y028662D01*
X042250Y028739D02*
X042105Y028739D01*
X042250Y028816D02*
X041585Y028816D01*
X041585Y028739D02*
X041651Y028739D01*
X041510Y028893D02*
X042250Y028893D01*
X042250Y028971D02*
X040815Y028971D01*
X040876Y029032D02*
X040748Y028904D01*
X040567Y028904D01*
X040439Y029032D01*
X040439Y029213D01*
X040545Y029319D01*
X040439Y029425D01*
X040439Y029606D01*
X040567Y029734D01*
X040748Y029734D01*
X040876Y029606D01*
X040876Y029425D01*
X040770Y029319D01*
X040876Y029213D01*
X040876Y029032D01*
X040876Y029048D02*
X041706Y029048D01*
X041598Y029125D02*
X040876Y029125D01*
X040876Y029202D02*
X041533Y029202D01*
X041501Y029280D02*
X040809Y029280D01*
X040807Y029357D02*
X041482Y029357D01*
X041482Y029434D02*
X040876Y029434D01*
X040876Y029511D02*
X041493Y029511D01*
X041525Y029588D02*
X040876Y029588D01*
X040816Y029666D02*
X041578Y029666D01*
X041657Y029743D02*
X039183Y029743D01*
X039183Y029820D02*
X042250Y029820D01*
X042250Y029743D02*
X042099Y029743D01*
X042178Y029666D02*
X042250Y029666D01*
X042250Y029588D02*
X042231Y029588D01*
X042250Y029897D02*
X039143Y029897D01*
X039143Y029883D02*
X039143Y031233D01*
X039228Y031148D01*
X039409Y031148D01*
X039537Y031276D01*
X039537Y031457D01*
X039421Y031573D01*
X039459Y031610D01*
X039459Y031791D01*
X039331Y031919D01*
X039150Y031919D01*
X039143Y031912D01*
X039143Y035088D01*
X039612Y035558D01*
X039612Y035410D01*
X039740Y035282D01*
X039921Y035282D01*
X040049Y035410D01*
X040049Y035590D01*
X039921Y035718D01*
X039773Y035718D01*
X039888Y035834D01*
X040085Y035834D01*
X040510Y036259D01*
X040542Y036181D01*
X040654Y036070D01*
X040799Y036009D01*
X040957Y036009D01*
X041102Y036070D01*
X041214Y036181D01*
X041274Y036327D01*
X041274Y036484D01*
X041214Y036630D01*
X041102Y036741D01*
X041014Y036778D01*
X041742Y036778D01*
X041654Y036741D01*
X041542Y036630D01*
X041482Y036484D01*
X041482Y036327D01*
X041542Y036181D01*
X041654Y036070D01*
X041799Y036009D01*
X041957Y036009D01*
X042102Y036070D01*
X042214Y036181D01*
X042250Y036269D01*
X042250Y035542D01*
X042214Y035630D01*
X042102Y035741D01*
X041957Y035802D01*
X041799Y035802D01*
X041654Y035741D01*
X041542Y035630D01*
X041482Y035484D01*
X041482Y035327D01*
X041542Y035181D01*
X041654Y035070D01*
X041799Y035009D01*
X041957Y035009D01*
X042102Y035070D01*
X042214Y035181D01*
X042250Y035269D01*
X042250Y034542D01*
X042214Y034630D01*
X042102Y034741D01*
X041957Y034802D01*
X041799Y034802D01*
X041654Y034741D01*
X041585Y034672D01*
X041585Y034685D01*
X041457Y034813D01*
X041276Y034813D01*
X041148Y034685D01*
X041148Y034504D01*
X041276Y034376D01*
X041457Y034376D01*
X041482Y034401D01*
X041482Y034327D01*
X041542Y034181D01*
X041654Y034070D01*
X041799Y034009D01*
X041957Y034009D01*
X042102Y034070D01*
X042214Y034181D01*
X042250Y034269D01*
X042250Y033542D01*
X042214Y033630D01*
X042102Y033741D01*
X041957Y033802D01*
X041799Y033802D01*
X041654Y033741D01*
X041594Y033682D02*
X039143Y033682D01*
X039143Y033605D02*
X041532Y033605D01*
X041500Y033528D02*
X039750Y033528D01*
X039724Y033553D02*
X039543Y033553D01*
X039415Y033425D01*
X039415Y033244D01*
X039543Y033116D01*
X039724Y033116D01*
X039852Y033244D01*
X039852Y033425D01*
X039724Y033553D01*
X039827Y033451D02*
X040504Y033451D01*
X040567Y033514D02*
X040439Y033386D01*
X040439Y033205D01*
X040545Y033098D01*
X040439Y032992D01*
X040439Y032811D01*
X040567Y032683D01*
X040748Y032683D01*
X040876Y032811D01*
X040876Y032992D01*
X040770Y033098D01*
X040876Y033205D01*
X040876Y033386D01*
X040748Y033514D01*
X040567Y033514D01*
X040439Y033373D02*
X039852Y033373D01*
X039852Y033296D02*
X040439Y033296D01*
X040439Y033219D02*
X039827Y033219D01*
X039780Y033159D02*
X039652Y033031D01*
X039652Y032850D01*
X039780Y032723D01*
X039961Y032723D01*
X040089Y032850D01*
X040089Y033031D01*
X039961Y033159D01*
X039780Y033159D01*
X039762Y033142D02*
X039750Y033142D01*
X039685Y033064D02*
X039143Y033064D01*
X039143Y032987D02*
X039652Y032987D01*
X039652Y032910D02*
X039143Y032910D01*
X039143Y032833D02*
X039670Y032833D01*
X039747Y032755D02*
X039143Y032755D01*
X039143Y032678D02*
X041149Y032678D01*
X041148Y032601D02*
X039143Y032601D01*
X039143Y032524D02*
X039853Y032524D01*
X039858Y032529D02*
X039730Y032401D01*
X039730Y032221D01*
X039858Y032093D01*
X040039Y032093D01*
X040167Y032221D01*
X040167Y032401D01*
X040039Y032529D01*
X039858Y032529D01*
X039775Y032446D02*
X039143Y032446D01*
X039143Y032369D02*
X039730Y032369D01*
X039730Y032292D02*
X039143Y032292D01*
X039143Y032215D02*
X039736Y032215D01*
X039814Y032137D02*
X039143Y032137D01*
X039143Y032060D02*
X040284Y032060D01*
X040242Y032102D02*
X040370Y031974D01*
X040551Y031974D01*
X040679Y032102D01*
X040679Y032283D01*
X040551Y032411D01*
X040370Y032411D01*
X040242Y032283D01*
X040242Y032102D01*
X040242Y032137D02*
X040084Y032137D01*
X040161Y032215D02*
X040242Y032215D01*
X040251Y032292D02*
X040167Y032292D01*
X040167Y032369D02*
X040328Y032369D01*
X040122Y032446D02*
X040878Y032446D01*
X040872Y032369D02*
X040593Y032369D01*
X040671Y032292D02*
X040872Y032292D01*
X040917Y032215D02*
X040679Y032215D01*
X040679Y032137D02*
X040995Y032137D01*
X041186Y032137D02*
X041586Y032137D01*
X041528Y032215D02*
X041264Y032215D01*
X041309Y032292D02*
X041496Y032292D01*
X041482Y032369D02*
X041458Y032369D01*
X041584Y032678D02*
X041590Y032678D01*
X041506Y032755D02*
X041687Y032755D01*
X041666Y033064D02*
X040804Y033064D01*
X040813Y033142D02*
X041582Y033142D01*
X041526Y033219D02*
X040876Y033219D01*
X040876Y033296D02*
X041494Y033296D01*
X041482Y033373D02*
X040876Y033373D01*
X040811Y033451D02*
X041482Y033451D01*
X041181Y034022D02*
X041000Y034022D01*
X040872Y034150D01*
X040872Y034331D01*
X041000Y034459D01*
X041181Y034459D01*
X041309Y034331D01*
X041309Y034150D01*
X041181Y034022D01*
X041228Y034068D02*
X041656Y034068D01*
X041577Y034146D02*
X041305Y034146D01*
X041309Y034223D02*
X041525Y034223D01*
X041493Y034300D02*
X041309Y034300D01*
X041274Y034377D02*
X041262Y034377D01*
X041197Y034455D02*
X041185Y034455D01*
X041148Y034532D02*
X039143Y034532D01*
X039143Y034609D02*
X040531Y034609D01*
X040567Y034573D02*
X040439Y034701D01*
X040439Y034882D01*
X040545Y034988D01*
X040439Y035095D01*
X040439Y035276D01*
X040567Y035403D01*
X040748Y035403D01*
X040876Y035276D01*
X040876Y035095D01*
X040770Y034988D01*
X040876Y034882D01*
X040876Y034701D01*
X040748Y034573D01*
X040567Y034573D01*
X040454Y034686D02*
X039917Y034686D01*
X039882Y034652D02*
X040010Y034780D01*
X040010Y034961D01*
X039882Y035089D01*
X039701Y035089D01*
X039573Y034961D01*
X039573Y034780D01*
X039701Y034652D01*
X039882Y034652D01*
X039994Y034764D02*
X040439Y034764D01*
X040439Y034841D02*
X040010Y034841D01*
X040010Y034918D02*
X040475Y034918D01*
X040538Y034995D02*
X039975Y034995D01*
X039898Y035073D02*
X040461Y035073D01*
X040439Y035150D02*
X039204Y035150D01*
X039143Y035073D02*
X039685Y035073D01*
X039608Y034995D02*
X039143Y034995D01*
X039143Y034918D02*
X039573Y034918D01*
X039573Y034841D02*
X039143Y034841D01*
X039143Y034764D02*
X039589Y034764D01*
X039666Y034686D02*
X039143Y034686D01*
X039143Y034455D02*
X040996Y034455D01*
X040919Y034377D02*
X039143Y034377D01*
X039143Y034300D02*
X040872Y034300D01*
X040872Y034223D02*
X040314Y034223D01*
X040276Y034262D02*
X040095Y034262D01*
X040008Y034175D01*
X039921Y034262D01*
X039740Y034262D01*
X039612Y034134D01*
X039612Y033953D01*
X039740Y033825D01*
X039921Y033825D01*
X040008Y033912D01*
X040095Y033825D01*
X040276Y033825D01*
X040403Y033953D01*
X040403Y034134D01*
X040276Y034262D01*
X040392Y034146D02*
X040876Y034146D01*
X040953Y034068D02*
X040403Y034068D01*
X040403Y033991D02*
X042250Y033991D01*
X042250Y033914D02*
X040365Y033914D01*
X040287Y033837D02*
X042250Y033837D01*
X042250Y033759D02*
X042059Y033759D01*
X042162Y033682D02*
X042250Y033682D01*
X042250Y033605D02*
X042224Y033605D01*
X042229Y033219D02*
X042250Y033219D01*
X042250Y033142D02*
X042174Y033142D01*
X042250Y033064D02*
X042090Y033064D01*
X042250Y032987D02*
X040876Y032987D01*
X040876Y032910D02*
X042250Y032910D01*
X042250Y032833D02*
X040876Y032833D01*
X040820Y032755D02*
X041226Y032755D01*
X040955Y032524D02*
X040045Y032524D01*
X039993Y032755D02*
X040495Y032755D01*
X040439Y032833D02*
X040071Y032833D01*
X040089Y032910D02*
X040439Y032910D01*
X040439Y032987D02*
X040089Y032987D01*
X040056Y033064D02*
X040511Y033064D01*
X040502Y033142D02*
X039978Y033142D01*
X039518Y033142D02*
X039143Y033142D01*
X039143Y033219D02*
X039441Y033219D01*
X039415Y033296D02*
X039143Y033296D01*
X039143Y033373D02*
X039415Y033373D01*
X039441Y033451D02*
X039143Y033451D01*
X039143Y033528D02*
X039518Y033528D01*
X039728Y033837D02*
X039143Y033837D01*
X039143Y033914D02*
X039651Y033914D01*
X039612Y033991D02*
X039143Y033991D01*
X039143Y034068D02*
X039612Y034068D01*
X039624Y034146D02*
X039143Y034146D01*
X039143Y034223D02*
X039701Y034223D01*
X039960Y034223D02*
X040056Y034223D01*
X040083Y033837D02*
X039933Y033837D01*
X040784Y034609D02*
X041148Y034609D01*
X041149Y034686D02*
X040861Y034686D01*
X040876Y034764D02*
X041226Y034764D01*
X041506Y034764D02*
X041707Y034764D01*
X041598Y034686D02*
X041583Y034686D01*
X041482Y034377D02*
X041458Y034377D01*
X042049Y034764D02*
X042250Y034764D01*
X042250Y034841D02*
X040876Y034841D01*
X040840Y034918D02*
X042250Y034918D01*
X042250Y034995D02*
X040777Y034995D01*
X040854Y035073D02*
X041651Y035073D01*
X041573Y035150D02*
X040876Y035150D01*
X040876Y035227D02*
X041523Y035227D01*
X041491Y035304D02*
X040847Y035304D01*
X040770Y035382D02*
X041482Y035382D01*
X041482Y035459D02*
X040049Y035459D01*
X040049Y035536D02*
X041503Y035536D01*
X041535Y035613D02*
X040804Y035613D01*
X040748Y035557D02*
X040876Y035685D01*
X040876Y035866D01*
X040748Y035994D01*
X040567Y035994D01*
X040439Y035866D01*
X040439Y035685D01*
X040567Y035557D01*
X040748Y035557D01*
X040876Y035690D02*
X041603Y035690D01*
X041717Y035768D02*
X040876Y035768D01*
X040876Y035845D02*
X042250Y035845D01*
X042250Y035922D02*
X040820Y035922D01*
X040646Y036077D02*
X040328Y036077D01*
X040405Y036154D02*
X040569Y036154D01*
X040521Y036231D02*
X040482Y036231D01*
X040461Y036406D02*
X040878Y036406D01*
X041029Y036772D02*
X041727Y036772D01*
X041607Y036695D02*
X041149Y036695D01*
X041219Y036617D02*
X041537Y036617D01*
X041505Y036540D02*
X041251Y036540D01*
X041274Y036463D02*
X041482Y036463D01*
X041482Y036386D02*
X041274Y036386D01*
X041267Y036308D02*
X041489Y036308D01*
X041521Y036231D02*
X041235Y036231D01*
X041187Y036154D02*
X041569Y036154D01*
X041646Y036077D02*
X041109Y036077D01*
X040495Y035922D02*
X040174Y035922D01*
X040251Y035999D02*
X042250Y035999D01*
X042250Y036077D02*
X042109Y036077D01*
X042187Y036154D02*
X042250Y036154D01*
X042250Y036231D02*
X042235Y036231D01*
X042250Y035768D02*
X042039Y035768D01*
X042153Y035690D02*
X042250Y035690D01*
X042250Y035613D02*
X042221Y035613D01*
X042233Y035227D02*
X042250Y035227D01*
X042250Y035150D02*
X042183Y035150D01*
X042250Y035073D02*
X042105Y035073D01*
X042157Y034686D02*
X042250Y034686D01*
X042250Y034609D02*
X042222Y034609D01*
X042231Y034223D02*
X042250Y034223D01*
X042250Y034146D02*
X042178Y034146D01*
X042250Y034068D02*
X042100Y034068D01*
X040439Y035227D02*
X039282Y035227D01*
X039359Y035304D02*
X039718Y035304D01*
X039640Y035382D02*
X039436Y035382D01*
X039513Y035459D02*
X039612Y035459D01*
X039612Y035536D02*
X039590Y035536D01*
X039822Y035768D02*
X040439Y035768D01*
X040439Y035845D02*
X040096Y035845D01*
X040028Y035972D02*
X040461Y036406D01*
X039878Y036406D02*
X039878Y036217D01*
X038846Y035185D01*
X038846Y030776D01*
X038610Y030539D01*
X038020Y030539D01*
X038190Y030678D02*
X038110Y030758D01*
X037929Y030758D01*
X037801Y030630D01*
X037801Y030449D01*
X037929Y030321D01*
X038110Y030321D01*
X038116Y030327D01*
X038116Y030213D01*
X038244Y030085D01*
X038425Y030085D01*
X038553Y030213D01*
X038553Y030394D01*
X038546Y030401D01*
X038668Y030401D01*
X038865Y030598D01*
X038865Y029961D01*
X038746Y029842D01*
X038746Y029661D01*
X038874Y029534D01*
X039055Y029534D01*
X039183Y029661D01*
X039183Y029842D01*
X039143Y029883D01*
X039143Y029975D02*
X042250Y029975D01*
X042250Y030052D02*
X042060Y030052D01*
X042162Y030129D02*
X042250Y030129D01*
X042250Y030206D02*
X042224Y030206D01*
X042229Y030593D02*
X042250Y030593D01*
X042250Y030670D02*
X042174Y030670D01*
X042250Y030747D02*
X042089Y030747D01*
X042250Y030824D02*
X041508Y030824D01*
X041585Y030747D02*
X041667Y030747D01*
X041686Y031056D02*
X040876Y031056D01*
X040876Y031102D02*
X040770Y031209D01*
X040876Y031315D01*
X040876Y031496D01*
X040748Y031624D01*
X040567Y031624D01*
X040439Y031496D01*
X040439Y031315D01*
X040545Y031209D01*
X040439Y031102D01*
X040439Y030921D01*
X040567Y030793D01*
X040748Y030793D01*
X040876Y030921D01*
X040876Y031102D01*
X040845Y031133D02*
X041590Y031133D01*
X041530Y031211D02*
X040771Y031211D01*
X040849Y031288D02*
X041498Y031288D01*
X041482Y031365D02*
X040876Y031365D01*
X040876Y031442D02*
X041482Y031442D01*
X041496Y031520D02*
X040852Y031520D01*
X040775Y031597D02*
X041528Y031597D01*
X041586Y031674D02*
X039459Y031674D01*
X039459Y031751D02*
X041677Y031751D01*
X041676Y032060D02*
X040637Y032060D01*
X040560Y031983D02*
X042250Y031983D01*
X042250Y032060D02*
X042080Y032060D01*
X042170Y032137D02*
X042250Y032137D01*
X042250Y032215D02*
X042228Y032215D01*
X042250Y031906D02*
X039344Y031906D01*
X039421Y031828D02*
X042250Y031828D01*
X042250Y031751D02*
X042079Y031751D01*
X042170Y031674D02*
X042250Y031674D01*
X042250Y031597D02*
X042228Y031597D01*
X042226Y031211D02*
X042250Y031211D01*
X042250Y031133D02*
X042166Y031133D01*
X042250Y031056D02*
X042070Y031056D01*
X042250Y030979D02*
X040876Y030979D01*
X040856Y030902D02*
X042250Y030902D01*
X041482Y030438D02*
X041309Y030438D01*
X041300Y030361D02*
X041482Y030361D01*
X041500Y030284D02*
X041222Y030284D01*
X040959Y030284D02*
X040640Y030284D01*
X040640Y030213D02*
X040512Y030085D01*
X040331Y030085D01*
X040203Y030213D01*
X040203Y030394D01*
X040331Y030522D01*
X040512Y030522D01*
X040640Y030394D01*
X040640Y030213D01*
X040633Y030206D02*
X041532Y030206D01*
X041594Y030129D02*
X040556Y030129D01*
X040640Y030361D02*
X040881Y030361D01*
X040872Y030438D02*
X040595Y030438D01*
X040518Y030515D02*
X040872Y030515D01*
X040914Y030593D02*
X039143Y030593D01*
X039143Y030670D02*
X040991Y030670D01*
X041148Y030747D02*
X039143Y030747D01*
X039143Y030824D02*
X040536Y030824D01*
X040459Y030902D02*
X039143Y030902D01*
X039143Y030979D02*
X040439Y030979D01*
X040439Y031056D02*
X039143Y031056D01*
X039143Y031133D02*
X040470Y031133D01*
X040544Y031211D02*
X039472Y031211D01*
X039537Y031288D02*
X040466Y031288D01*
X040439Y031365D02*
X039537Y031365D01*
X039537Y031442D02*
X040439Y031442D01*
X040463Y031520D02*
X039474Y031520D01*
X039445Y031597D02*
X040540Y031597D01*
X040362Y031983D02*
X039143Y031983D01*
X039143Y031211D02*
X039166Y031211D01*
X038708Y030902D02*
X037510Y030902D01*
X037414Y030824D02*
X038699Y030824D01*
X038708Y030833D02*
X038553Y030678D01*
X038190Y030678D01*
X038121Y030747D02*
X038622Y030747D01*
X038708Y030833D02*
X038708Y035243D01*
X039594Y036129D01*
X039542Y036181D01*
X039482Y036327D01*
X039482Y036484D01*
X039542Y036630D01*
X039654Y036741D01*
X039742Y036778D01*
X037917Y036778D01*
X037923Y036772D01*
X039727Y036772D01*
X039607Y036695D02*
X037923Y036695D01*
X037923Y036772D02*
X037923Y036591D01*
X037795Y036463D01*
X037614Y036463D01*
X037795Y036463D02*
X039482Y036463D01*
X039482Y036386D02*
X036976Y036386D01*
X037053Y036308D02*
X039489Y036308D01*
X039521Y036231D02*
X037952Y036231D01*
X037913Y036270D02*
X037732Y036270D01*
X037604Y036142D01*
X037604Y035961D01*
X037732Y035833D01*
X037913Y035833D01*
X038041Y035961D01*
X038041Y036142D01*
X037913Y036270D01*
X038029Y036154D02*
X039569Y036154D01*
X039542Y036077D02*
X038041Y036077D01*
X038041Y035999D02*
X039465Y035999D01*
X039387Y035922D02*
X038003Y035922D01*
X037926Y035845D02*
X038174Y035845D01*
X038116Y035787D02*
X038116Y035606D01*
X038244Y035478D01*
X038425Y035478D01*
X038553Y035606D01*
X038553Y035787D01*
X038425Y035915D01*
X038244Y035915D01*
X038116Y035787D01*
X038116Y035768D02*
X037594Y035768D01*
X037517Y035845D02*
X037720Y035845D01*
X037643Y035922D02*
X037439Y035922D01*
X037362Y035999D02*
X037604Y035999D01*
X037604Y036077D02*
X037285Y036077D01*
X037208Y036154D02*
X037617Y036154D01*
X037694Y036231D02*
X037130Y036231D01*
X037201Y035768D02*
X036919Y035768D01*
X036978Y035690D02*
X037153Y035690D01*
X037671Y035690D02*
X038116Y035690D01*
X038116Y035613D02*
X037686Y035613D01*
X037686Y035536D02*
X038187Y035536D01*
X038483Y035536D02*
X039001Y035536D01*
X038924Y035459D02*
X037686Y035459D01*
X037686Y035382D02*
X038847Y035382D01*
X038769Y035304D02*
X037686Y035304D01*
X037686Y035227D02*
X038708Y035227D01*
X038708Y035150D02*
X037686Y035150D01*
X037686Y035073D02*
X038708Y035073D01*
X038708Y034995D02*
X037686Y034995D01*
X037686Y034918D02*
X038708Y034918D01*
X038708Y034841D02*
X037686Y034841D01*
X037686Y034764D02*
X038708Y034764D01*
X039004Y035146D02*
X039831Y035972D01*
X040028Y035972D01*
X039949Y035690D02*
X040439Y035690D01*
X040511Y035613D02*
X040026Y035613D01*
X040021Y035382D02*
X040545Y035382D01*
X040468Y035304D02*
X039944Y035304D01*
X039310Y035845D02*
X038495Y035845D01*
X038553Y035768D02*
X039233Y035768D01*
X039156Y035690D02*
X038553Y035690D01*
X038553Y035613D02*
X039078Y035613D01*
X039004Y035146D02*
X039004Y029791D01*
X038965Y029752D01*
X039110Y029588D02*
X039337Y029588D01*
X039337Y029606D02*
X039337Y029458D01*
X038274Y029458D01*
X038041Y029690D01*
X038041Y029803D01*
X037913Y029931D01*
X037732Y029931D01*
X037665Y029864D01*
X037598Y029931D01*
X037417Y029931D01*
X037289Y029803D01*
X037289Y029622D01*
X037417Y029494D01*
X037598Y029494D01*
X037665Y029561D01*
X037732Y029494D01*
X037845Y029494D01*
X038159Y029180D01*
X038274Y029180D01*
X039380Y029180D01*
X039613Y028946D01*
X039694Y028865D01*
X039700Y028865D01*
X039780Y028786D01*
X039961Y028786D01*
X040089Y028913D01*
X040089Y029094D01*
X039961Y029222D01*
X039780Y029222D01*
X039755Y029197D01*
X039650Y029302D01*
X039774Y029425D01*
X039774Y029606D01*
X039646Y029734D01*
X039465Y029734D01*
X039337Y029606D01*
X039396Y029666D02*
X039183Y029666D01*
X039337Y029511D02*
X038220Y029511D01*
X038143Y029588D02*
X038819Y029588D01*
X038746Y029666D02*
X038066Y029666D01*
X038041Y029743D02*
X038746Y029743D01*
X038746Y029820D02*
X038024Y029820D01*
X037947Y029897D02*
X038801Y029897D01*
X038865Y029975D02*
X037056Y029975D01*
X037056Y030052D02*
X038865Y030052D01*
X038865Y030129D02*
X038470Y030129D01*
X038547Y030206D02*
X038865Y030206D01*
X038865Y030284D02*
X038553Y030284D01*
X038553Y030361D02*
X038865Y030361D01*
X038865Y030438D02*
X038705Y030438D01*
X038782Y030515D02*
X038865Y030515D01*
X038860Y030593D02*
X038865Y030593D01*
X039143Y030515D02*
X040325Y030515D01*
X040247Y030438D02*
X039143Y030438D01*
X039143Y030361D02*
X040203Y030361D01*
X040203Y030284D02*
X039143Y030284D01*
X039143Y030206D02*
X040209Y030206D01*
X040286Y030129D02*
X039143Y030129D01*
X039143Y030052D02*
X041696Y030052D01*
X041224Y030824D02*
X040779Y030824D01*
X040499Y029666D02*
X039714Y029666D01*
X039774Y029588D02*
X040439Y029588D01*
X040439Y029511D02*
X039774Y029511D01*
X039774Y029434D02*
X040439Y029434D01*
X040508Y029357D02*
X039705Y029357D01*
X039673Y029280D02*
X040506Y029280D01*
X040439Y029202D02*
X039981Y029202D01*
X040058Y029125D02*
X040439Y029125D01*
X040439Y029048D02*
X040089Y029048D01*
X040089Y028971D02*
X040500Y028971D01*
X040068Y028893D02*
X041222Y028893D01*
X041148Y028816D02*
X039991Y028816D01*
X039870Y029004D02*
X039752Y029004D01*
X039437Y029319D01*
X038217Y029319D01*
X037823Y029713D01*
X037699Y029897D02*
X037632Y029897D01*
X037384Y029897D02*
X037056Y029897D01*
X037056Y029820D02*
X037307Y029820D01*
X037289Y029743D02*
X037056Y029743D01*
X037056Y029666D02*
X037289Y029666D01*
X037323Y029588D02*
X037056Y029588D01*
X037056Y029511D02*
X037400Y029511D01*
X037615Y029511D02*
X037715Y029511D01*
X037905Y029434D02*
X037056Y029434D01*
X037056Y029357D02*
X037982Y029357D01*
X038060Y029280D02*
X037056Y029280D01*
X037056Y029202D02*
X038137Y029202D01*
X037148Y029048D02*
X039133Y029048D01*
X039280Y028886D02*
X038728Y028335D01*
X038728Y027705D01*
X039687Y028275D02*
X040211Y028275D01*
X040288Y028198D02*
X039764Y028198D01*
X039749Y028816D02*
X039498Y028816D01*
X039498Y028893D02*
X039666Y028893D01*
X039589Y028971D02*
X039498Y028971D01*
X039512Y029048D02*
X039426Y029048D01*
X039435Y029125D02*
X037071Y029125D01*
X036621Y029125D02*
X035639Y029125D01*
X035639Y029048D02*
X036621Y029048D01*
X036636Y028971D02*
X035639Y028971D01*
X035639Y029202D02*
X036621Y029202D01*
X036621Y029280D02*
X035639Y029280D01*
X035639Y029357D02*
X036621Y029357D01*
X036524Y029594D02*
X036602Y029673D01*
X036602Y035461D01*
X037686Y034377D02*
X037691Y034377D01*
X036464Y033605D02*
X033688Y033605D01*
X033765Y033528D02*
X036464Y033528D01*
X036464Y033451D02*
X033789Y033451D01*
X033789Y033373D02*
X036464Y033373D01*
X036464Y033296D02*
X033762Y033296D01*
X033710Y033219D02*
X036464Y033219D01*
X035825Y033142D02*
X035530Y033142D01*
X035607Y033064D02*
X035754Y033064D01*
X035754Y032987D02*
X035640Y032987D01*
X035313Y033142D02*
X033692Y033142D01*
X033571Y033217D02*
X033295Y032941D01*
X033295Y032193D01*
X033098Y031996D01*
X032626Y031996D01*
X032311Y031681D01*
X032311Y031248D01*
X031878Y030815D01*
X031878Y030406D01*
X032162Y030129D02*
X032540Y030129D01*
X032517Y030052D02*
X032622Y030052D01*
X032490Y030206D02*
X032224Y030206D01*
X032256Y030284D02*
X032459Y030284D01*
X032443Y030361D02*
X032274Y030361D01*
X032263Y030052D02*
X032060Y030052D01*
X032185Y029975D02*
X031506Y029975D01*
X031506Y030052D02*
X031696Y030052D01*
X031594Y030129D02*
X031506Y030129D01*
X031506Y030206D02*
X031532Y030206D01*
X031506Y029897D02*
X032171Y029897D01*
X032171Y029820D02*
X031506Y029820D01*
X031506Y029743D02*
X031657Y029743D01*
X031578Y029666D02*
X031506Y029666D01*
X031506Y029588D02*
X031525Y029588D01*
X032099Y029743D02*
X032208Y029743D01*
X032178Y029666D02*
X032285Y029666D01*
X032231Y029588D02*
X032525Y029588D01*
X032493Y029511D02*
X032263Y029511D01*
X032274Y029434D02*
X032482Y029434D01*
X032482Y029357D02*
X032274Y029357D01*
X032255Y029280D02*
X032501Y029280D01*
X032533Y029202D02*
X032223Y029202D01*
X032158Y029125D02*
X032598Y029125D01*
X032706Y029048D02*
X032050Y029048D01*
X031878Y028502D02*
X031834Y028497D01*
X031793Y028482D01*
X031755Y028459D01*
X031724Y028428D01*
X031701Y028391D01*
X031686Y028349D01*
X031681Y028305D01*
X031686Y028261D01*
X031701Y028220D01*
X031724Y028182D01*
X031755Y028151D01*
X031793Y028128D01*
X031834Y028113D01*
X031878Y028108D01*
X032272Y028108D01*
X032315Y028113D01*
X032357Y028128D01*
X032394Y028151D01*
X032426Y028182D01*
X032449Y028220D01*
X032464Y028261D01*
X032469Y028305D01*
X032464Y028349D01*
X032449Y028391D01*
X032426Y028428D01*
X032394Y028459D01*
X032357Y028482D01*
X032315Y028497D01*
X032272Y028502D01*
X031878Y028502D01*
X031726Y028430D02*
X032424Y028430D01*
X032462Y028353D02*
X031687Y028353D01*
X031684Y028275D02*
X032465Y028275D01*
X032435Y028198D02*
X031714Y028198D01*
X031812Y028121D02*
X032338Y028121D01*
X032484Y028044D02*
X033319Y028044D01*
X033242Y028121D02*
X032561Y028121D01*
X032596Y028198D02*
X033207Y028198D01*
X033192Y028275D02*
X032611Y028275D01*
X032609Y028353D02*
X033194Y028353D01*
X033215Y028430D02*
X032588Y028430D01*
X032542Y028507D02*
X033261Y028507D01*
X033338Y028584D02*
X032465Y028584D01*
X032555Y027966D02*
X033421Y027966D01*
X033344Y027889D02*
X032608Y027889D01*
X032608Y027812D02*
X033294Y027812D01*
X033294Y027735D02*
X032608Y027735D01*
X033368Y028198D02*
X034089Y028198D01*
X034079Y028182D02*
X034048Y028151D01*
X034011Y028128D01*
X033969Y028113D01*
X033925Y028108D01*
X033531Y028108D01*
X033488Y028113D01*
X033446Y028128D01*
X033409Y028151D01*
X033378Y028182D01*
X033354Y028220D01*
X033340Y028261D01*
X033335Y028305D01*
X033340Y028349D01*
X033354Y028391D01*
X033378Y028428D01*
X033409Y028459D01*
X033446Y028482D01*
X033488Y028497D01*
X033531Y028502D01*
X033925Y028502D01*
X033969Y028497D01*
X034011Y028482D01*
X034048Y028459D01*
X034079Y028428D01*
X034103Y028391D01*
X034117Y028349D01*
X034122Y028305D01*
X034117Y028261D01*
X034103Y028220D01*
X034079Y028182D01*
X034119Y028275D02*
X033338Y028275D01*
X033341Y028353D02*
X034116Y028353D01*
X034077Y028430D02*
X033380Y028430D01*
X033466Y028121D02*
X033991Y028121D01*
X034792Y027271D02*
X031506Y027271D01*
X031506Y027194D02*
X034714Y027194D01*
X034637Y027117D02*
X033680Y027117D01*
X033661Y027136D02*
X033480Y027136D01*
X033352Y027008D01*
X033352Y026827D01*
X033380Y026799D01*
X033274Y026693D01*
X033274Y026512D01*
X033402Y026384D01*
X033583Y026384D01*
X033711Y026512D01*
X033711Y026693D01*
X033683Y026720D01*
X033789Y026827D01*
X033789Y027008D01*
X033661Y027136D01*
X033758Y027040D02*
X034560Y027040D01*
X034483Y026962D02*
X033789Y026962D01*
X033789Y026885D02*
X034405Y026885D01*
X034338Y026808D02*
X033770Y026808D01*
X033693Y026731D02*
X034338Y026731D01*
X034338Y026653D02*
X033711Y026653D01*
X033711Y026576D02*
X034338Y026576D01*
X034338Y026499D02*
X033698Y026499D01*
X033620Y026422D02*
X034338Y026422D01*
X034338Y026344D02*
X031506Y026344D01*
X031506Y026267D02*
X034338Y026267D01*
X034338Y026190D02*
X031506Y026190D01*
X031506Y026113D02*
X034338Y026113D01*
X034338Y026035D02*
X031506Y026035D01*
X031506Y025958D02*
X034338Y025958D01*
X034338Y025881D02*
X031506Y025881D01*
X031506Y025804D02*
X034338Y025804D01*
X034338Y025726D02*
X031506Y025726D01*
X031506Y026422D02*
X033364Y026422D01*
X033287Y026499D02*
X031506Y026499D01*
X031506Y026576D02*
X033274Y026576D01*
X033274Y026653D02*
X032238Y026653D01*
X032205Y026620D02*
X032333Y026748D01*
X032333Y026929D01*
X032205Y027057D01*
X032024Y027057D01*
X031896Y026929D01*
X031896Y026748D01*
X032024Y026620D01*
X032205Y026620D01*
X032315Y026731D02*
X033311Y026731D01*
X033371Y026808D02*
X032333Y026808D01*
X032333Y026885D02*
X033352Y026885D01*
X033352Y026962D02*
X032299Y026962D01*
X032222Y027040D02*
X033384Y027040D01*
X033461Y027117D02*
X031506Y027117D01*
X031506Y027040D02*
X032006Y027040D01*
X031929Y026962D02*
X031506Y026962D01*
X031506Y026885D02*
X031896Y026885D01*
X031896Y026808D02*
X031506Y026808D01*
X031506Y026731D02*
X031913Y026731D01*
X031990Y026653D02*
X031506Y026653D01*
X033683Y025649D02*
X034338Y025649D01*
X034338Y025572D02*
X033760Y025572D01*
X033769Y025495D02*
X034338Y025495D01*
X034338Y025418D02*
X033769Y025418D01*
X033743Y025340D02*
X034338Y025340D01*
X034338Y025263D02*
X033666Y025263D01*
X034930Y025263D02*
X035478Y025263D01*
X035478Y025186D02*
X034930Y025186D01*
X034930Y025109D02*
X035543Y025109D01*
X035478Y025340D02*
X034930Y025340D01*
X034930Y025418D02*
X035542Y025418D01*
X035851Y025109D02*
X037398Y025109D01*
X037417Y025128D02*
X037289Y025000D01*
X037289Y024819D01*
X037417Y024691D01*
X037598Y024691D01*
X037726Y024819D01*
X037726Y025000D01*
X037598Y025128D01*
X037417Y025128D01*
X037321Y025031D02*
X034930Y025031D01*
X034930Y024954D02*
X037289Y024954D01*
X037289Y024877D02*
X034930Y024877D01*
X034930Y024800D02*
X037309Y024800D01*
X037386Y024722D02*
X034930Y024722D01*
X034930Y024645D02*
X038037Y024645D01*
X038037Y024568D02*
X034930Y024568D01*
X034930Y024491D02*
X035757Y024491D01*
X035764Y024498D02*
X035636Y024370D01*
X035636Y024189D01*
X035764Y024061D01*
X035945Y024061D01*
X036073Y024189D01*
X036073Y024370D01*
X035945Y024498D01*
X035764Y024498D01*
X035679Y024413D02*
X034930Y024413D01*
X034930Y024336D02*
X035636Y024336D01*
X035636Y024259D02*
X034930Y024259D01*
X034930Y024182D02*
X035054Y024182D01*
X034977Y024104D02*
X034930Y024104D01*
X034791Y023965D02*
X035146Y023965D01*
X035315Y024104D02*
X035331Y024104D01*
X035237Y024182D02*
X035643Y024182D01*
X035590Y024104D02*
X035721Y024104D01*
X035988Y024104D02*
X036587Y024104D01*
X036509Y024182D02*
X036065Y024182D01*
X036073Y024259D02*
X036502Y024259D01*
X036502Y024336D02*
X036073Y024336D01*
X036029Y024413D02*
X036545Y024413D01*
X036623Y024491D02*
X035952Y024491D01*
X036818Y024491D02*
X038037Y024491D01*
X038089Y024413D02*
X036896Y024413D01*
X037630Y024722D02*
X038114Y024722D01*
X038057Y024800D02*
X037707Y024800D01*
X037726Y024877D02*
X038037Y024877D01*
X038037Y024954D02*
X037726Y024954D01*
X037695Y025031D02*
X038069Y025031D01*
X038146Y025109D02*
X037618Y025109D01*
X038856Y024027D02*
X039735Y024027D01*
X039658Y024104D02*
X038933Y024104D01*
X039010Y024182D02*
X039652Y024182D01*
X039652Y024259D02*
X039087Y024259D01*
X040257Y024336D02*
X040646Y024336D01*
X040597Y024413D02*
X040344Y024413D01*
X040421Y024491D02*
X040597Y024491D01*
X040598Y024568D02*
X040499Y024568D01*
X040576Y024645D02*
X040675Y024645D01*
X041208Y024877D02*
X041778Y024877D01*
X041778Y024954D02*
X041229Y024954D01*
X041229Y025031D02*
X041778Y025031D01*
X041847Y025109D02*
X041204Y025109D01*
X041273Y024800D02*
X041836Y024800D01*
X041702Y025881D02*
X042250Y025881D01*
X042250Y025958D02*
X041779Y025958D01*
X041821Y026035D02*
X042250Y026035D01*
X042250Y026113D02*
X041821Y026113D01*
X041812Y026190D02*
X042250Y026190D01*
X042250Y026267D02*
X041735Y026267D01*
X042250Y026344D02*
X040876Y026344D01*
X040872Y026653D02*
X039301Y026653D01*
X040774Y027040D02*
X041148Y027040D01*
X041217Y027117D02*
X040851Y027117D01*
X042109Y027735D02*
X042250Y027735D01*
X042250Y027657D02*
X042186Y027657D01*
X042234Y027580D02*
X042250Y027580D01*
X042250Y029048D02*
X042050Y029048D01*
X042158Y029125D02*
X042250Y029125D01*
X042250Y029202D02*
X042223Y029202D01*
X040950Y028739D02*
X039441Y028739D01*
X039750Y029202D02*
X039760Y029202D01*
X038200Y030129D02*
X037056Y030129D01*
X037056Y030206D02*
X038122Y030206D01*
X038116Y030284D02*
X037056Y030284D01*
X037056Y030361D02*
X037889Y030361D01*
X037812Y030438D02*
X037440Y030438D01*
X037517Y030515D02*
X037801Y030515D01*
X037801Y030593D02*
X037529Y030593D01*
X037529Y030670D02*
X037841Y030670D01*
X037919Y030747D02*
X037491Y030747D01*
X037208Y030824D02*
X037056Y030824D01*
X037056Y030747D02*
X037131Y030747D01*
X037093Y030670D02*
X037056Y030670D01*
X037056Y030593D02*
X037093Y030593D01*
X037105Y030515D02*
X037056Y030515D01*
X037056Y030438D02*
X037182Y030438D01*
X037191Y030902D02*
X037056Y030902D01*
X037056Y030979D02*
X037132Y030979D01*
X037132Y031056D02*
X037056Y031056D01*
X035558Y032446D02*
X034099Y032446D01*
X034053Y032524D02*
X035558Y032524D01*
X035558Y032601D02*
X035114Y032601D01*
X034862Y032601D02*
X034104Y032601D01*
X034104Y032678D02*
X034785Y032678D01*
X034770Y032755D02*
X034104Y032755D01*
X034027Y032833D02*
X034770Y032833D01*
X033571Y033217D02*
X033571Y033413D01*
X033157Y032755D02*
X033069Y032755D01*
X032687Y032755D02*
X032069Y032755D01*
X032166Y032678D02*
X032590Y032678D01*
X032530Y032601D02*
X032226Y032601D01*
X032258Y032524D02*
X032498Y032524D01*
X032482Y032446D02*
X032274Y032446D01*
X032274Y032369D02*
X032482Y032369D01*
X032496Y032292D02*
X032260Y032292D01*
X032228Y032215D02*
X032528Y032215D01*
X032586Y032137D02*
X032360Y032137D01*
X032438Y032060D02*
X032494Y032060D01*
X032666Y033064D02*
X032090Y033064D01*
X032174Y033142D02*
X032582Y033142D01*
X032526Y033219D02*
X032229Y033219D01*
X032261Y033296D02*
X032494Y033296D01*
X032482Y033373D02*
X032274Y033373D01*
X032274Y033451D02*
X032482Y033451D01*
X032500Y033528D02*
X032256Y033528D01*
X032224Y033605D02*
X032532Y033605D01*
X032594Y033682D02*
X032162Y033682D01*
X032059Y033759D02*
X032697Y033759D01*
X033060Y036231D02*
X035005Y036231D01*
X035083Y036308D02*
X033028Y036308D01*
X032986Y036386D02*
X035132Y036386D01*
X035126Y036540D02*
X034605Y036540D01*
X034655Y036617D02*
X035158Y036617D01*
X035216Y036695D02*
X034655Y036695D01*
X034655Y036772D02*
X034649Y036778D01*
X035354Y036778D01*
X034527Y036463D02*
X034347Y036463D01*
X034219Y036591D01*
X034219Y036772D01*
X034219Y036695D02*
X032522Y036695D01*
X032709Y036617D02*
X034219Y036617D01*
X034269Y036540D02*
X032831Y036540D01*
X032909Y036463D02*
X034346Y036463D01*
X037873Y036540D02*
X039505Y036540D01*
X039537Y036617D02*
X037923Y036617D01*
X042069Y032755D02*
X042250Y032755D01*
X042250Y032678D02*
X042166Y032678D01*
X042226Y032601D02*
X042250Y032601D01*
X036375Y029434D02*
X035639Y029434D01*
X034887Y029820D02*
X032608Y029820D01*
X032572Y029743D02*
X032657Y029743D01*
X032578Y029666D02*
X032494Y029666D01*
X033225Y030670D02*
X033722Y030670D01*
X033707Y030747D02*
X033150Y030747D01*
X035269Y026962D02*
X035512Y026962D01*
X035478Y026885D02*
X035192Y026885D01*
X035114Y026808D02*
X035478Y026808D01*
X035496Y026731D02*
X035037Y026731D01*
X034791Y023965D02*
X034791Y022272D01*
X034870Y022193D01*
X034870Y022035D01*
X034437Y021602D01*
X034240Y021602D01*
X034364Y021787D02*
X034426Y021787D01*
X034348Y021401D02*
X042250Y021401D01*
X042250Y022869D02*
X042114Y022869D01*
X042192Y022946D02*
X042250Y022946D01*
X042250Y023023D02*
X042214Y023023D01*
X042214Y023100D02*
X042250Y023100D01*
X042250Y023178D02*
X042186Y023178D01*
X042250Y023255D02*
X042109Y023255D01*
X038626Y022714D02*
X038495Y022714D01*
X038549Y022637D02*
X038207Y022637D01*
X038214Y022630D02*
X038102Y022741D01*
X037957Y022802D01*
X037799Y022802D01*
X037654Y022741D01*
X037542Y022630D01*
X037482Y022484D01*
X037482Y022327D01*
X037542Y022181D01*
X037654Y022070D01*
X037799Y022009D01*
X037957Y022009D01*
X038102Y022070D01*
X038214Y022181D01*
X038274Y022327D01*
X038274Y022484D01*
X038214Y022630D01*
X038243Y022560D02*
X038513Y022560D01*
X038482Y022482D02*
X038274Y022482D01*
X038274Y022405D02*
X038482Y022405D01*
X038482Y022328D02*
X038274Y022328D01*
X038243Y022251D02*
X038513Y022251D01*
X038550Y022173D02*
X038206Y022173D01*
X038129Y022096D02*
X038627Y022096D01*
X038776Y022019D02*
X037980Y022019D01*
X037776Y022019D02*
X037210Y022019D01*
X037287Y022096D02*
X037627Y022096D01*
X037550Y022173D02*
X037293Y022173D01*
X037293Y022251D02*
X037513Y022251D01*
X037482Y022328D02*
X037249Y022328D01*
X037171Y022405D02*
X037482Y022405D01*
X037482Y022482D02*
X037296Y022482D01*
X037388Y022560D02*
X037513Y022560D01*
X037549Y022637D02*
X037465Y022637D01*
X037542Y022714D02*
X037626Y022714D01*
X037620Y022791D02*
X037774Y022791D01*
X037697Y022869D02*
X038156Y022869D01*
X038156Y022946D02*
X037774Y022946D01*
X037851Y023023D02*
X038187Y023023D01*
X038264Y023100D02*
X037929Y023100D01*
X038006Y023178D02*
X038222Y023178D01*
X038156Y023255D02*
X038083Y023255D01*
X038175Y022791D02*
X037982Y022791D01*
X038130Y022714D02*
X038253Y022714D01*
X036978Y022405D02*
X036052Y022405D01*
X035975Y022328D02*
X036901Y022328D01*
X035424Y023023D02*
X034930Y023023D01*
X034930Y023100D02*
X035347Y023100D01*
X035321Y023178D02*
X034930Y023178D01*
X034930Y023255D02*
X035321Y023255D01*
X035346Y023332D02*
X034930Y023332D01*
X034930Y023409D02*
X035353Y023409D01*
X035321Y023487D02*
X034930Y023487D01*
X034930Y023564D02*
X035321Y023564D01*
X035340Y023641D02*
X034930Y023641D01*
X034930Y023718D02*
X035359Y023718D01*
X035006Y023795D02*
X034930Y023795D01*
D14*
X035146Y023965D03*
X035461Y023925D03*
X035539Y023531D03*
X035539Y023217D03*
X035776Y022547D03*
X034634Y022114D03*
X034319Y022114D03*
X034004Y022114D03*
X034240Y021602D03*
X033531Y023335D03*
X032429Y023650D03*
X032154Y024122D03*
X032508Y024280D03*
X032390Y025461D03*
X033492Y026602D03*
X033571Y026917D03*
X033256Y027508D03*
X032390Y027823D03*
X032114Y026839D03*
X034949Y027626D03*
X035697Y026839D03*
X036051Y026248D03*
X036563Y026878D03*
X036327Y027232D03*
X036563Y028138D03*
X036445Y028650D03*
X036996Y028689D03*
X037547Y028571D03*
X038059Y028020D03*
X038138Y027272D03*
X038374Y026917D03*
X038335Y026406D03*
X039083Y026602D03*
X039201Y026287D03*
X039870Y026917D03*
X039870Y027232D03*
X039752Y027508D03*
X039713Y027823D03*
X039909Y028059D03*
X039555Y028098D03*
X039949Y028689D03*
X039870Y029004D03*
X039791Y029319D03*
X039555Y029516D03*
X038965Y029752D03*
X038335Y030303D03*
X038020Y030539D03*
X038217Y031130D03*
X038335Y031524D03*
X038335Y031839D03*
X039240Y031701D03*
X039319Y031366D03*
X039713Y030933D03*
X039280Y030421D03*
X040106Y030067D03*
X040421Y030303D03*
X041091Y030461D03*
X041366Y030657D03*
X040657Y031012D03*
X040657Y031406D03*
X040106Y031957D03*
X039949Y032311D03*
X040461Y032193D03*
X041091Y032350D03*
X041366Y032587D03*
X040657Y032902D03*
X040657Y033295D03*
X039870Y032941D03*
X039555Y032862D03*
X039634Y033335D03*
X039831Y034043D03*
X040185Y034043D03*
X039949Y034594D03*
X039791Y034870D03*
X039831Y035185D03*
X039831Y035500D03*
X040106Y035736D03*
X040657Y035776D03*
X040657Y035185D03*
X040657Y034791D03*
X041091Y034240D03*
X041366Y034594D03*
X038413Y034398D03*
X038098Y034161D03*
X037783Y034161D03*
X038413Y033925D03*
X037429Y033138D03*
X037193Y032941D03*
X036957Y033138D03*
X036839Y032823D03*
X036839Y032508D03*
X037232Y032154D03*
X037154Y031760D03*
X037350Y031524D03*
X037154Y031287D03*
X037350Y031051D03*
X037311Y030618D03*
X036091Y030697D03*
X035382Y031366D03*
X035185Y031602D03*
X035028Y031878D03*
X034870Y032154D03*
X035461Y032035D03*
X035776Y032744D03*
X035972Y032980D03*
X035421Y032941D03*
X034988Y032783D03*
X033886Y032665D03*
X033886Y032350D03*
X033728Y031484D03*
X033925Y030776D03*
X034988Y030264D03*
X035067Y029949D03*
X035618Y029673D03*
X036524Y029594D03*
X037508Y029713D03*
X037823Y029713D03*
X039280Y028886D03*
X040382Y028413D03*
X041091Y028571D03*
X041366Y028728D03*
X041524Y027941D03*
X040657Y027626D03*
X040657Y027232D03*
X040185Y026720D03*
X040185Y026327D03*
X040657Y026406D03*
X041091Y026681D03*
X041366Y026957D03*
X042114Y026839D03*
X041602Y026091D03*
X040933Y025146D03*
X040933Y024870D03*
X041130Y024634D03*
X041130Y024319D03*
X040815Y024476D03*
X040815Y024004D03*
X040854Y023531D03*
X040894Y023177D03*
X041996Y023059D03*
X041563Y021760D03*
X039240Y023689D03*
X039870Y024201D03*
X039909Y024988D03*
X039437Y025165D03*
X039988Y025500D03*
X038650Y025539D03*
X038098Y025461D03*
X038256Y024909D03*
X038256Y024555D03*
X037508Y024909D03*
X036720Y024280D03*
X035854Y024280D03*
X035697Y025264D03*
X034043Y023965D03*
X036681Y022823D03*
X037075Y022193D03*
X037469Y023059D03*
X038374Y022902D03*
X038374Y023335D03*
X041996Y024949D03*
X039043Y027390D03*
X037429Y027232D03*
X034949Y029004D03*
X034319Y029752D03*
X032390Y029870D03*
X032232Y031957D03*
X033571Y033413D03*
X033217Y034555D03*
X033650Y035146D03*
X035028Y034201D03*
X034870Y033886D03*
X035500Y034083D03*
X037075Y034437D03*
X037311Y035539D03*
X036760Y035618D03*
X036091Y035736D03*
X036484Y036248D03*
X036366Y036681D03*
X037705Y036681D03*
X037823Y036051D03*
X038335Y035697D03*
X038059Y035461D03*
X034437Y036681D03*
X031602Y034280D03*
X036366Y032114D03*
X037823Y032783D03*
X040657Y029516D03*
X040657Y029122D03*
D15*
X040500Y024988D02*
X040106Y024594D01*
X039004Y024594D01*
X037154Y022744D01*
X035972Y022744D01*
X035776Y022547D01*
X040500Y024988D02*
X040933Y024988D01*
D16*
X040933Y024870D01*
X040933Y024988D02*
X040933Y025146D01*
M02*
