G75*
G70*
%OFA0B0*%
%FSLAX24Y24*%
%IPPOS*%
%LPD*%
%AMOC8*
5,1,8,0,0,1.08239X$1,22.5*
%
%ADD10C,0.0594*%
%ADD11C,0.0436*%
%ADD12C,0.0397*%
%ADD13C,0.0079*%
%ADD14C,0.0238*%
D10*
X037878Y022406D03*
X038878Y022406D03*
X041878Y027406D03*
X041878Y028406D03*
X041878Y029406D03*
X041878Y030406D03*
X041878Y031406D03*
X041878Y032406D03*
X041878Y033406D03*
X041878Y034406D03*
X041878Y035406D03*
X041878Y036406D03*
X040878Y036406D03*
X039878Y036406D03*
X032878Y033406D03*
X031878Y033406D03*
X031878Y032406D03*
X032878Y032406D03*
X032878Y031406D03*
X031878Y031406D03*
X031878Y030406D03*
X032878Y030406D03*
X032878Y029406D03*
X031878Y029406D03*
D11*
X035441Y034970D03*
X035441Y035470D03*
X035441Y035970D03*
X035441Y036470D03*
D12*
X033728Y028305D03*
X032075Y028305D03*
X032075Y024900D03*
X033728Y024900D03*
D13*
X031506Y024847D02*
X031506Y021366D01*
X042250Y021366D01*
X042250Y027269D01*
X042214Y027181D01*
X042102Y027070D01*
X041957Y027009D01*
X041799Y027009D01*
X041654Y027070D01*
X041542Y027181D01*
X041482Y027327D01*
X041482Y027484D01*
X041542Y027630D01*
X041654Y027741D01*
X041799Y027802D01*
X041957Y027802D01*
X042102Y027741D01*
X042214Y027630D01*
X042250Y027542D01*
X042250Y028269D01*
X042214Y028181D01*
X042102Y028070D01*
X041957Y028009D01*
X041799Y028009D01*
X041654Y028070D01*
X041542Y028181D01*
X041482Y028327D01*
X041482Y028484D01*
X041518Y028571D01*
X041457Y028510D01*
X041309Y028510D01*
X041309Y028480D01*
X041181Y028352D01*
X041000Y028352D01*
X040872Y028480D01*
X040872Y028661D01*
X041000Y028789D01*
X041148Y028789D01*
X041148Y028819D01*
X041276Y028947D01*
X041457Y028947D01*
X041585Y028819D01*
X041585Y028672D01*
X041654Y028741D01*
X041799Y028802D01*
X041957Y028802D01*
X042102Y028741D01*
X042214Y028630D01*
X042250Y028542D01*
X042250Y029269D01*
X042214Y029181D01*
X042102Y029070D01*
X041957Y029009D01*
X041799Y029009D01*
X041654Y029070D01*
X041542Y029181D01*
X041482Y029327D01*
X041482Y029484D01*
X041542Y029630D01*
X041654Y029741D01*
X041799Y029802D01*
X041957Y029802D01*
X042102Y029741D01*
X042214Y029630D01*
X042250Y029542D01*
X042250Y030269D01*
X042214Y030181D01*
X042102Y030070D01*
X041957Y030009D01*
X041799Y030009D01*
X041654Y030070D01*
X041542Y030181D01*
X041482Y030327D01*
X041482Y030464D01*
X041457Y030439D01*
X041309Y030439D01*
X041309Y030370D01*
X041181Y030242D01*
X041000Y030242D01*
X040872Y030370D01*
X040872Y030551D01*
X041000Y030679D01*
X041148Y030679D01*
X041148Y030748D01*
X041276Y030876D01*
X041457Y030876D01*
X041585Y030748D01*
X041585Y030672D01*
X041654Y030741D01*
X041799Y030802D01*
X041957Y030802D01*
X042102Y030741D01*
X042214Y030630D01*
X042250Y030542D01*
X042250Y031269D01*
X042214Y031181D01*
X042102Y031070D01*
X041957Y031009D01*
X041799Y031009D01*
X041654Y031070D01*
X041542Y031181D01*
X041482Y031327D01*
X041482Y031484D01*
X041542Y031630D01*
X041654Y031741D01*
X041799Y031802D01*
X041957Y031802D01*
X042102Y031741D01*
X042214Y031630D01*
X042250Y031542D01*
X042250Y032269D01*
X042214Y032181D01*
X042102Y032070D01*
X041957Y032009D01*
X041799Y032009D01*
X041654Y032070D01*
X041542Y032181D01*
X041482Y032327D01*
X041482Y032393D01*
X041457Y032368D01*
X041309Y032368D01*
X041309Y032260D01*
X041181Y032132D01*
X041000Y032132D01*
X040872Y032260D01*
X040872Y032441D01*
X041000Y032569D01*
X041148Y032569D01*
X041148Y032677D01*
X041276Y032805D01*
X041457Y032805D01*
X041585Y032677D01*
X041585Y032672D01*
X041654Y032741D01*
X041799Y032802D01*
X041957Y032802D01*
X042102Y032741D01*
X042214Y032630D01*
X042250Y032542D01*
X042250Y033269D01*
X042214Y033181D01*
X042102Y033070D01*
X041957Y033009D01*
X041799Y033009D01*
X041654Y033070D01*
X041542Y033181D01*
X041482Y033327D01*
X041482Y033484D01*
X041542Y033630D01*
X041654Y033741D01*
X041799Y033802D01*
X041957Y033802D01*
X042102Y033741D01*
X042214Y033630D01*
X042250Y033542D01*
X042250Y034269D01*
X042214Y034181D01*
X042102Y034070D01*
X041957Y034009D01*
X041799Y034009D01*
X041654Y034070D01*
X041542Y034181D01*
X041482Y034327D01*
X041482Y034401D01*
X041457Y034376D01*
X041276Y034376D01*
X041148Y034504D01*
X041148Y034685D01*
X041276Y034813D01*
X041457Y034813D01*
X041585Y034685D01*
X041585Y034672D01*
X041654Y034741D01*
X041799Y034802D01*
X041957Y034802D01*
X042102Y034741D01*
X042214Y034630D01*
X042250Y034542D01*
X042250Y035269D01*
X042214Y035181D01*
X042102Y035070D01*
X041957Y035009D01*
X041799Y035009D01*
X041654Y035070D01*
X041542Y035181D01*
X041482Y035327D01*
X041482Y035484D01*
X041542Y035630D01*
X041654Y035741D01*
X041799Y035802D01*
X041957Y035802D01*
X042102Y035741D01*
X042214Y035630D01*
X042250Y035542D01*
X042250Y036176D01*
X042211Y036121D01*
X042162Y036073D01*
X042107Y036032D01*
X042045Y036001D01*
X041980Y035980D01*
X041917Y035970D01*
X041917Y036366D01*
X041839Y036366D01*
X041839Y035970D01*
X041776Y035980D01*
X041711Y036001D01*
X041649Y036032D01*
X041594Y036073D01*
X041545Y036121D01*
X041505Y036177D01*
X041474Y036238D01*
X041452Y036303D01*
X041443Y036366D01*
X041839Y036366D01*
X041839Y036445D01*
X041443Y036445D01*
X041452Y036508D01*
X041474Y036573D01*
X041505Y036634D01*
X041545Y036690D01*
X041594Y036738D01*
X041648Y036778D01*
X041014Y036778D01*
X041102Y036741D01*
X041214Y036630D01*
X041274Y036484D01*
X041274Y036327D01*
X041214Y036181D01*
X041102Y036070D01*
X040957Y036009D01*
X040799Y036009D01*
X040654Y036070D01*
X040542Y036181D01*
X040482Y036327D01*
X040482Y036484D01*
X040542Y036630D01*
X040654Y036741D01*
X040742Y036778D01*
X040014Y036778D01*
X040102Y036741D01*
X040214Y036630D01*
X040274Y036484D01*
X040274Y036327D01*
X040214Y036181D01*
X040102Y036070D01*
X039957Y036009D01*
X039799Y036009D01*
X039654Y036070D01*
X039542Y036181D01*
X039482Y036327D01*
X039482Y036484D01*
X039542Y036630D01*
X039654Y036741D01*
X039742Y036778D01*
X035528Y036778D01*
X035621Y036740D01*
X035710Y036650D01*
X035758Y036534D01*
X035758Y036407D01*
X035710Y036291D01*
X035668Y036249D01*
X035669Y036248D01*
X035719Y036198D01*
X035758Y036140D01*
X035785Y036075D01*
X035798Y036006D01*
X035798Y035990D01*
X035461Y035990D01*
X035461Y035951D01*
X035798Y035951D01*
X035798Y035935D01*
X035785Y035866D01*
X035758Y035801D01*
X035719Y035743D01*
X035669Y035693D01*
X035668Y035692D01*
X035710Y035650D01*
X035758Y035534D01*
X035758Y035407D01*
X035710Y035291D01*
X035640Y035220D01*
X035710Y035150D01*
X035758Y035034D01*
X035758Y034907D01*
X035710Y034791D01*
X035621Y034701D01*
X035504Y034653D01*
X035378Y034653D01*
X035261Y034701D01*
X035172Y034791D01*
X035123Y034907D01*
X035123Y035034D01*
X035172Y035150D01*
X035242Y035220D01*
X035172Y035291D01*
X035123Y035407D01*
X035123Y035534D01*
X035172Y035650D01*
X035214Y035692D01*
X035213Y035693D01*
X035163Y035743D01*
X035124Y035801D01*
X035097Y035866D01*
X035083Y035935D01*
X035083Y035951D01*
X035421Y035951D01*
X035421Y035990D01*
X035083Y035990D01*
X035083Y036006D01*
X035097Y036075D01*
X035124Y036140D01*
X035163Y036198D01*
X035213Y036248D01*
X035214Y036249D01*
X035172Y036291D01*
X035123Y036407D01*
X035123Y036534D01*
X035172Y036650D01*
X035261Y036740D01*
X035354Y036778D01*
X031506Y036778D01*
X031506Y033635D01*
X031545Y033690D01*
X031594Y033738D01*
X031649Y033779D01*
X031711Y033810D01*
X031776Y033831D01*
X031839Y033841D01*
X031839Y033445D01*
X031917Y033445D01*
X031917Y033841D01*
X031980Y033831D01*
X032045Y033810D01*
X032107Y033779D01*
X032162Y033738D01*
X032211Y033690D01*
X032251Y033634D01*
X032282Y033573D01*
X032303Y033508D01*
X032313Y033445D01*
X031917Y033445D01*
X031917Y033366D01*
X031917Y032970D01*
X031980Y032980D01*
X032045Y033001D01*
X032107Y033032D01*
X032162Y033073D01*
X032211Y033121D01*
X032251Y033177D01*
X032282Y033238D01*
X032303Y033303D01*
X032313Y033366D01*
X031917Y033366D01*
X031839Y033366D01*
X031839Y032970D01*
X031776Y032980D01*
X031711Y033001D01*
X031649Y033032D01*
X031594Y033073D01*
X031545Y033121D01*
X031506Y033176D01*
X031506Y032542D01*
X031542Y032630D01*
X031654Y032741D01*
X031799Y032802D01*
X031957Y032802D01*
X032102Y032741D01*
X032172Y032672D01*
X032172Y032683D01*
X032254Y032765D01*
X032578Y033089D01*
X032545Y033121D01*
X032505Y033177D01*
X032474Y033238D01*
X032452Y033303D01*
X032443Y033366D01*
X032839Y033366D01*
X032839Y033445D01*
X032839Y033841D01*
X032776Y033831D01*
X032711Y033810D01*
X032649Y033779D01*
X032594Y033738D01*
X032545Y033690D01*
X032505Y033634D01*
X032474Y033573D01*
X032452Y033508D01*
X032443Y033445D01*
X032839Y033445D01*
X032917Y033445D01*
X032917Y033841D01*
X032980Y033831D01*
X033045Y033810D01*
X033107Y033779D01*
X033162Y033738D01*
X033211Y033690D01*
X033247Y033640D01*
X033277Y033670D01*
X033314Y033707D01*
X033314Y033707D01*
X033395Y033788D01*
X034659Y033788D01*
X034652Y033795D01*
X034652Y033976D01*
X034780Y034104D01*
X034961Y034104D01*
X035089Y033976D01*
X035089Y033795D01*
X035081Y033788D01*
X036699Y033788D01*
X036780Y033707D01*
X036780Y033707D01*
X036975Y033513D01*
X037093Y033513D01*
X037290Y033316D01*
X037298Y033316D01*
X037339Y033356D01*
X037520Y033356D01*
X037648Y033228D01*
X037648Y033047D01*
X037520Y032919D01*
X037411Y032919D01*
X037411Y032850D01*
X037283Y032723D01*
X037102Y032723D01*
X037057Y032768D01*
X037057Y032732D01*
X036990Y032665D01*
X037057Y032598D01*
X037057Y032417D01*
X036929Y032289D01*
X036748Y032289D01*
X036620Y032417D01*
X036620Y032598D01*
X036687Y032665D01*
X036620Y032732D01*
X036620Y032913D01*
X036645Y032938D01*
X036582Y033002D01*
X036582Y033120D01*
X036506Y033196D01*
X036066Y033196D01*
X036191Y033071D01*
X036191Y032890D01*
X036063Y032762D01*
X035994Y032762D01*
X035994Y032654D01*
X035866Y032526D01*
X035685Y032526D01*
X035557Y032654D01*
X035557Y032835D01*
X035685Y032963D01*
X035754Y032963D01*
X035754Y033071D01*
X035879Y033196D01*
X033865Y033196D01*
X033788Y033120D01*
X033707Y033038D01*
X033550Y033038D01*
X033277Y032765D01*
X033195Y032684D01*
X033160Y032684D01*
X033214Y032630D01*
X033274Y032484D01*
X033274Y032327D01*
X033214Y032181D01*
X033102Y032070D01*
X032957Y032009D01*
X032799Y032009D01*
X032765Y032024D01*
X032765Y031787D01*
X032799Y031802D01*
X032957Y031802D01*
X033102Y031741D01*
X033214Y031630D01*
X033274Y031484D01*
X033274Y031327D01*
X033214Y031181D01*
X033102Y031070D01*
X032957Y031009D01*
X032799Y031009D01*
X032654Y031070D01*
X032542Y031181D01*
X032482Y031327D01*
X032482Y031484D01*
X032517Y031570D01*
X032516Y031572D01*
X032450Y031506D01*
X032450Y030206D01*
X032019Y029776D01*
X032102Y029741D01*
X032214Y029630D01*
X032274Y029484D01*
X032274Y029327D01*
X032214Y029181D01*
X032102Y029070D01*
X031957Y029009D01*
X031799Y029009D01*
X031654Y029070D01*
X031542Y029181D01*
X031506Y029269D01*
X031506Y028358D01*
X031517Y028415D01*
X031517Y028415D01*
X031537Y028462D01*
X031545Y028483D01*
X031545Y028483D01*
X031572Y028523D01*
X031586Y028545D01*
X031586Y028545D01*
X031586Y028545D01*
X031639Y028597D01*
X031700Y028638D01*
X031768Y028666D01*
X031841Y028681D01*
X032065Y028681D01*
X032065Y028315D01*
X032085Y028315D01*
X032647Y028315D01*
X032647Y028342D01*
X032633Y028415D01*
X032604Y028483D01*
X032563Y028545D01*
X032511Y028597D01*
X032450Y028638D01*
X032450Y028638D01*
X032381Y028666D01*
X032309Y028681D01*
X032085Y028681D01*
X032085Y028315D01*
X032085Y028295D01*
X032647Y028295D01*
X032647Y028268D01*
X032633Y028196D01*
X032633Y028196D01*
X032615Y028153D01*
X032604Y028127D01*
X032604Y028127D01*
X032576Y028085D01*
X032563Y028066D01*
X032563Y028066D01*
X032511Y028013D01*
X032511Y028013D01*
X032450Y027972D01*
X032450Y027972D01*
X032381Y027944D01*
X032381Y027944D01*
X032309Y027930D01*
X032085Y027930D01*
X032085Y028295D01*
X032065Y028295D01*
X032065Y027930D01*
X031841Y027930D01*
X031768Y027944D01*
X031768Y027944D01*
X031700Y027972D01*
X031700Y027972D01*
X031639Y028013D01*
X031639Y028013D01*
X031586Y028066D01*
X031586Y028066D01*
X031545Y028127D01*
X031545Y028127D01*
X031517Y028196D01*
X031517Y028196D01*
X031506Y028252D01*
X031506Y024952D01*
X031517Y025009D01*
X031517Y025009D01*
X031533Y025049D01*
X031545Y025078D01*
X031545Y025078D01*
X031572Y025118D01*
X031586Y025139D01*
X031586Y025139D01*
X031639Y025191D01*
X031639Y025191D01*
X031700Y025232D01*
X031700Y025232D01*
X031768Y025261D01*
X031768Y025261D01*
X031841Y025275D01*
X032065Y025275D01*
X032065Y024909D01*
X032065Y024890D01*
X031506Y024890D01*
X031506Y024909D01*
X032065Y024909D01*
X032085Y024909D01*
X032647Y024909D01*
X032647Y024937D01*
X032633Y025009D01*
X032633Y025009D01*
X032604Y025078D01*
X032563Y025139D01*
X032511Y025191D01*
X032450Y025232D01*
X032450Y025232D01*
X032381Y025261D01*
X032309Y025275D01*
X032085Y025275D01*
X032085Y024909D01*
X032085Y024890D01*
X032647Y024890D01*
X032647Y024863D01*
X032633Y024790D01*
X032633Y024790D01*
X032613Y024743D01*
X032604Y024722D01*
X032604Y024722D01*
X032579Y024683D01*
X032563Y024660D01*
X032563Y024660D01*
X032511Y024608D01*
X032450Y024567D01*
X032381Y024538D01*
X032309Y024524D01*
X032085Y024524D01*
X032085Y024890D01*
X032065Y024890D01*
X032065Y024524D01*
X031841Y024524D01*
X031768Y024538D01*
X031700Y024567D01*
X031700Y024567D01*
X031639Y024608D01*
X031639Y024608D01*
X031586Y024660D01*
X031586Y024660D01*
X031545Y024722D01*
X031545Y024722D01*
X031517Y024790D01*
X031517Y024790D01*
X031506Y024847D01*
X031506Y024800D02*
X031515Y024800D01*
X031506Y024722D02*
X031545Y024722D01*
X031506Y024645D02*
X031601Y024645D01*
X031506Y024568D02*
X031698Y024568D01*
X031793Y024722D02*
X031834Y024708D01*
X031878Y024703D01*
X032272Y024703D01*
X032315Y024708D01*
X032357Y024722D01*
X032394Y024746D01*
X032426Y024777D01*
X032449Y024814D01*
X032464Y024856D01*
X032469Y024900D01*
X032464Y024943D01*
X032449Y024985D01*
X032426Y025022D01*
X032394Y025054D01*
X032357Y025077D01*
X032315Y025092D01*
X032272Y025096D01*
X031878Y025096D01*
X031834Y025092D01*
X031793Y025077D01*
X031755Y025054D01*
X031724Y025022D01*
X031701Y024985D01*
X031686Y024943D01*
X031681Y024900D01*
X031686Y024856D01*
X031701Y024814D01*
X031724Y024777D01*
X031755Y024746D01*
X031793Y024722D01*
X031792Y024722D02*
X032357Y024722D01*
X032440Y024800D02*
X031710Y024800D01*
X031684Y024877D02*
X032466Y024877D01*
X032460Y024954D02*
X031690Y024954D01*
X031733Y025031D02*
X032417Y025031D01*
X032563Y025139D02*
X032563Y025139D01*
X032584Y025109D02*
X033219Y025109D01*
X033235Y025132D02*
X033199Y025078D01*
X033199Y025078D01*
X033194Y025067D01*
X033170Y025009D01*
X033156Y024937D01*
X033156Y024909D01*
X033718Y024909D01*
X033718Y024890D01*
X033156Y024890D01*
X033156Y024863D01*
X033170Y024790D01*
X033199Y024722D01*
X033199Y024722D01*
X033240Y024660D01*
X033292Y024608D01*
X033354Y024567D01*
X033422Y024538D01*
X033495Y024524D01*
X033719Y024524D01*
X033719Y024890D01*
X033738Y024890D01*
X033738Y024909D01*
X034301Y024909D01*
X034301Y024937D01*
X034286Y025009D01*
X034258Y025078D01*
X034217Y025139D01*
X034165Y025191D01*
X034165Y025191D01*
X034103Y025232D01*
X034035Y025261D01*
X034035Y025261D01*
X033962Y025275D01*
X033738Y025275D01*
X033738Y024909D01*
X033719Y024909D01*
X033719Y025275D01*
X033678Y025275D01*
X033769Y025366D01*
X033769Y025563D01*
X033630Y025702D01*
X033433Y025702D01*
X033294Y025563D01*
X033294Y025366D01*
X033406Y025254D01*
X033354Y025232D01*
X033354Y025232D01*
X033292Y025191D01*
X033240Y025139D01*
X033235Y025132D01*
X033240Y025139D02*
X033240Y025139D01*
X033287Y025186D02*
X032517Y025186D01*
X032511Y025191D02*
X032511Y025191D01*
X032604Y025078D02*
X032604Y025078D01*
X032624Y025031D02*
X033180Y025031D01*
X033170Y025009D02*
X033170Y025009D01*
X033159Y024954D02*
X032644Y024954D01*
X032647Y024877D02*
X033156Y024877D01*
X033168Y024800D02*
X032635Y024800D01*
X032605Y024722D02*
X033198Y024722D01*
X033170Y024790D02*
X033170Y024790D01*
X033240Y024660D02*
X033240Y024660D01*
X033255Y024645D02*
X032548Y024645D01*
X032563Y024660D02*
X032563Y024660D01*
X032451Y024568D02*
X033352Y024568D01*
X033354Y024567D02*
X033354Y024567D01*
X033292Y024608D02*
X033292Y024608D01*
X033409Y024746D02*
X033446Y024722D01*
X033488Y024708D01*
X033531Y024703D01*
X033925Y024703D01*
X033969Y024708D01*
X034011Y024722D01*
X033446Y024722D01*
X033409Y024746D02*
X033378Y024777D01*
X033354Y024814D01*
X033340Y024856D01*
X033335Y024900D01*
X033340Y024943D01*
X033354Y024985D01*
X033378Y025022D01*
X033409Y025054D01*
X033446Y025077D01*
X033488Y025092D01*
X033531Y025096D01*
X033925Y025096D01*
X033969Y025092D01*
X034011Y025077D01*
X034048Y025054D01*
X034079Y025022D01*
X034103Y024985D01*
X034117Y024943D01*
X034122Y024900D01*
X034117Y024856D01*
X034103Y024814D01*
X034079Y024777D01*
X034048Y024746D01*
X034011Y024722D01*
X034093Y024800D02*
X033363Y024800D01*
X033337Y024877D02*
X034119Y024877D01*
X034113Y024954D02*
X033343Y024954D01*
X033387Y025031D02*
X034070Y025031D01*
X034217Y025139D02*
X034217Y025139D01*
X034237Y025109D02*
X034416Y025109D01*
X034416Y025186D02*
X034170Y025186D01*
X034103Y025232D02*
X034103Y025232D01*
X034023Y025263D02*
X034416Y025263D01*
X034416Y025340D02*
X033743Y025340D01*
X033738Y025263D02*
X033719Y025263D01*
X033719Y025186D02*
X033738Y025186D01*
X033738Y025109D02*
X033719Y025109D01*
X033719Y025031D02*
X033738Y025031D01*
X033738Y024954D02*
X033719Y024954D01*
X033738Y024890D02*
X034301Y024890D01*
X034301Y024863D01*
X034286Y024790D01*
X034286Y024790D01*
X034263Y024734D01*
X034258Y024722D01*
X034258Y024722D01*
X034224Y024671D01*
X034217Y024660D01*
X034217Y024660D01*
X034217Y024660D01*
X034165Y024608D01*
X034103Y024567D01*
X034035Y024538D01*
X033962Y024524D01*
X033738Y024524D01*
X033738Y024890D01*
X033738Y024877D02*
X033719Y024877D01*
X033719Y024800D02*
X033738Y024800D01*
X033738Y024722D02*
X033719Y024722D01*
X033719Y024645D02*
X033738Y024645D01*
X033738Y024568D02*
X033719Y024568D01*
X034105Y024568D02*
X034416Y024568D01*
X034416Y024645D02*
X034202Y024645D01*
X034258Y024722D02*
X034416Y024722D01*
X034416Y024800D02*
X034288Y024800D01*
X034301Y024877D02*
X034416Y024877D01*
X034416Y024954D02*
X034297Y024954D01*
X034286Y025009D02*
X034286Y025009D01*
X034277Y025031D02*
X034416Y025031D01*
X034258Y025078D02*
X034258Y025078D01*
X034416Y025418D02*
X033769Y025418D01*
X033769Y025495D02*
X034404Y025495D01*
X034416Y025482D02*
X034416Y023986D01*
X034498Y023905D01*
X035324Y023078D01*
X035369Y023078D01*
X035449Y022998D01*
X035630Y022998D01*
X035758Y023126D01*
X035758Y023307D01*
X035691Y023374D01*
X035758Y023441D01*
X035758Y023622D01*
X035630Y023750D01*
X035449Y023750D01*
X035369Y023670D01*
X035321Y023670D01*
X035241Y023751D01*
X035364Y023874D01*
X035364Y024055D01*
X035236Y024183D01*
X035055Y024183D01*
X034932Y024060D01*
X034851Y024140D01*
X034851Y025636D01*
X033867Y026620D01*
X033867Y026817D01*
X033789Y026895D01*
X033789Y027008D01*
X033661Y027136D01*
X033480Y027136D01*
X033352Y027008D01*
X033352Y026827D01*
X033380Y026799D01*
X033274Y026693D01*
X033274Y026512D01*
X033402Y026384D01*
X033514Y026384D01*
X034416Y025482D01*
X034326Y025572D02*
X033760Y025572D01*
X033683Y025649D02*
X034249Y025649D01*
X034172Y025726D02*
X031506Y025726D01*
X031506Y025649D02*
X033380Y025649D01*
X033303Y025572D02*
X031506Y025572D01*
X031506Y025495D02*
X033294Y025495D01*
X033294Y025418D02*
X031506Y025418D01*
X031506Y025340D02*
X033319Y025340D01*
X033397Y025263D02*
X032370Y025263D01*
X032381Y025261D02*
X032381Y025261D01*
X032085Y025263D02*
X032065Y025263D01*
X032065Y025186D02*
X032085Y025186D01*
X032085Y025109D02*
X032065Y025109D01*
X032065Y025031D02*
X032085Y025031D01*
X032085Y024954D02*
X032065Y024954D01*
X032065Y024877D02*
X032085Y024877D01*
X032085Y024800D02*
X032065Y024800D01*
X032065Y024722D02*
X032085Y024722D01*
X032085Y024645D02*
X032065Y024645D01*
X032065Y024568D02*
X032085Y024568D01*
X032063Y024340D02*
X031935Y024213D01*
X031935Y024032D01*
X032063Y023904D01*
X032244Y023904D01*
X032372Y024032D01*
X032372Y024107D01*
X032417Y024061D01*
X032598Y024061D01*
X032726Y024189D01*
X032726Y024370D01*
X032598Y024498D01*
X032417Y024498D01*
X032289Y024370D01*
X032289Y024295D01*
X032244Y024340D01*
X032063Y024340D01*
X032059Y024336D02*
X031506Y024336D01*
X031506Y024259D02*
X031982Y024259D01*
X031935Y024182D02*
X031506Y024182D01*
X031506Y024104D02*
X031935Y024104D01*
X031940Y024027D02*
X031506Y024027D01*
X031506Y023950D02*
X032017Y023950D01*
X032290Y023950D02*
X033825Y023950D01*
X033825Y023874D02*
X033825Y024055D01*
X033953Y024183D01*
X034134Y024183D01*
X034262Y024055D01*
X034262Y023874D01*
X034134Y023746D01*
X033953Y023746D01*
X033825Y023874D01*
X033826Y023873D02*
X031506Y023873D01*
X031506Y023795D02*
X033904Y023795D01*
X033825Y024027D02*
X032368Y024027D01*
X032372Y024104D02*
X032374Y024104D01*
X032289Y024336D02*
X032248Y024336D01*
X032333Y024413D02*
X031506Y024413D01*
X031506Y024491D02*
X032410Y024491D01*
X032606Y024491D02*
X034416Y024491D01*
X034416Y024413D02*
X032683Y024413D01*
X032726Y024336D02*
X034416Y024336D01*
X034416Y024259D02*
X032726Y024259D01*
X032719Y024182D02*
X033952Y024182D01*
X033874Y024104D02*
X032642Y024104D01*
X031506Y023718D02*
X034684Y023718D01*
X034761Y023641D02*
X031506Y023641D01*
X031506Y023564D02*
X034838Y023564D01*
X034916Y023487D02*
X031506Y023487D01*
X031506Y023409D02*
X034993Y023409D01*
X035070Y023332D02*
X031506Y023332D01*
X031506Y023255D02*
X035147Y023255D01*
X035225Y023178D02*
X031506Y023178D01*
X031506Y023100D02*
X035302Y023100D01*
X035382Y023217D02*
X034555Y024043D01*
X034555Y025539D01*
X033492Y026602D01*
X033274Y026576D02*
X031506Y026576D01*
X031506Y026499D02*
X033287Y026499D01*
X033364Y026422D02*
X031506Y026422D01*
X031506Y026344D02*
X033554Y026344D01*
X033631Y026267D02*
X031506Y026267D01*
X031506Y026190D02*
X033708Y026190D01*
X033786Y026113D02*
X031506Y026113D01*
X031506Y026035D02*
X033863Y026035D01*
X033940Y025958D02*
X031506Y025958D01*
X031506Y025881D02*
X034017Y025881D01*
X034095Y025804D02*
X031506Y025804D01*
X031506Y025263D02*
X031780Y025263D01*
X031633Y025186D02*
X031506Y025186D01*
X031506Y025109D02*
X031566Y025109D01*
X031526Y025031D02*
X031506Y025031D01*
X031506Y024954D02*
X031506Y024954D01*
X033292Y025191D02*
X033292Y025191D01*
X034135Y024182D02*
X034416Y024182D01*
X034416Y024104D02*
X034212Y024104D01*
X034262Y024027D02*
X034416Y024027D01*
X034452Y023950D02*
X034262Y023950D01*
X034260Y023873D02*
X034530Y023873D01*
X034607Y023795D02*
X034183Y023795D01*
X034713Y024083D02*
X034713Y025579D01*
X033728Y026563D01*
X033728Y026760D01*
X033571Y026917D01*
X033352Y026885D02*
X031506Y026885D01*
X031506Y026808D02*
X033371Y026808D01*
X033311Y026731D02*
X031506Y026731D01*
X031506Y026653D02*
X033274Y026653D01*
X033352Y026962D02*
X031506Y026962D01*
X031506Y027040D02*
X033384Y027040D01*
X033461Y027117D02*
X031506Y027117D01*
X031506Y027194D02*
X036108Y027194D01*
X036108Y027142D02*
X036236Y027014D01*
X036417Y027014D01*
X036541Y027137D01*
X037923Y025755D01*
X039104Y025755D01*
X039475Y025384D01*
X039347Y025384D01*
X039219Y025256D01*
X039219Y025075D01*
X039347Y024947D01*
X039527Y024947D01*
X039655Y025075D01*
X039655Y025203D01*
X039736Y025123D01*
X039691Y025079D01*
X039691Y024898D01*
X039819Y024770D01*
X040000Y024770D01*
X040128Y024898D01*
X040128Y025079D01*
X040048Y025158D01*
X040048Y025203D01*
X039970Y025282D01*
X040079Y025282D01*
X040207Y025410D01*
X040207Y025590D01*
X040079Y025718D01*
X039898Y025718D01*
X039818Y025639D01*
X039809Y025639D01*
X039335Y026113D01*
X039419Y026197D01*
X039419Y026378D01*
X039291Y026506D01*
X039110Y026506D01*
X038982Y026378D01*
X038982Y026197D01*
X038989Y026190D01*
X038077Y026190D01*
X035481Y028786D01*
X035481Y029298D01*
X034458Y030321D01*
X034458Y031463D01*
X034025Y031896D01*
X034025Y032180D01*
X034104Y032260D01*
X034104Y032441D01*
X034037Y032508D01*
X034104Y032575D01*
X034104Y032756D01*
X033976Y032884D01*
X033795Y032884D01*
X033667Y032756D01*
X033667Y032643D01*
X033511Y032487D01*
X033511Y032214D01*
X033590Y032135D01*
X033590Y031742D01*
X033671Y031660D01*
X034023Y031309D01*
X034023Y030987D01*
X034016Y030994D01*
X033835Y030994D01*
X033707Y030866D01*
X033707Y030685D01*
X033835Y030557D01*
X034016Y030557D01*
X034023Y030564D01*
X034023Y030167D01*
X034104Y030086D01*
X034224Y029966D01*
X034100Y029842D01*
X034100Y029661D01*
X034228Y029534D01*
X034409Y029534D01*
X034533Y029657D01*
X034967Y029222D01*
X034858Y029222D01*
X034730Y029094D01*
X034730Y028913D01*
X034858Y028786D01*
X035039Y028786D01*
X035046Y028793D01*
X035046Y028632D01*
X035128Y028550D01*
X036232Y027446D01*
X036108Y027323D01*
X036108Y027142D01*
X036133Y027117D02*
X033680Y027117D01*
X033758Y027040D02*
X036211Y027040D01*
X036443Y027040D02*
X036638Y027040D01*
X036561Y027117D02*
X036520Y027117D01*
X036715Y026962D02*
X033789Y026962D01*
X033799Y026885D02*
X036793Y026885D01*
X036870Y026808D02*
X033867Y026808D01*
X033867Y026731D02*
X036947Y026731D01*
X037024Y026653D02*
X033867Y026653D01*
X033911Y026576D02*
X037102Y026576D01*
X037179Y026499D02*
X033989Y026499D01*
X034066Y026422D02*
X035916Y026422D01*
X035961Y026466D02*
X035833Y026339D01*
X035833Y026158D01*
X035961Y026030D01*
X036142Y026030D01*
X036270Y026158D01*
X036270Y026339D01*
X036142Y026466D01*
X035961Y026466D01*
X035839Y026344D02*
X034143Y026344D01*
X034220Y026267D02*
X035833Y026267D01*
X035833Y026190D02*
X034298Y026190D01*
X034375Y026113D02*
X035878Y026113D01*
X035955Y026035D02*
X034452Y026035D01*
X034529Y025958D02*
X037720Y025958D01*
X037797Y025881D02*
X034607Y025881D01*
X034684Y025804D02*
X037874Y025804D01*
X037980Y025894D02*
X035185Y028689D01*
X035185Y029201D01*
X034161Y030224D01*
X034161Y031366D01*
X033728Y031799D01*
X033728Y032193D01*
X033650Y032272D01*
X033650Y032429D01*
X033886Y032665D01*
X034104Y032678D02*
X034785Y032678D01*
X034770Y032693D02*
X034898Y032565D01*
X035079Y032565D01*
X035207Y032693D01*
X035207Y032874D01*
X035079Y033002D01*
X034898Y033002D01*
X034770Y032874D01*
X034770Y032693D01*
X034770Y032755D02*
X034104Y032755D01*
X034027Y032833D02*
X034770Y032833D01*
X034806Y032910D02*
X033421Y032910D01*
X033498Y032987D02*
X034883Y032987D01*
X035093Y032987D02*
X035754Y032987D01*
X035754Y033064D02*
X033733Y033064D01*
X033810Y033142D02*
X035825Y033142D01*
X036120Y033142D02*
X036560Y033142D01*
X036582Y033064D02*
X036191Y033064D01*
X036191Y032987D02*
X036596Y032987D01*
X036620Y032910D02*
X036191Y032910D01*
X036134Y032833D02*
X036620Y032833D01*
X036620Y032755D02*
X035994Y032755D01*
X035994Y032678D02*
X036674Y032678D01*
X036623Y032601D02*
X035941Y032601D01*
X035610Y032601D02*
X035114Y032601D01*
X035192Y032678D02*
X035557Y032678D01*
X035557Y032755D02*
X035207Y032755D01*
X035207Y032833D02*
X035557Y032833D01*
X035632Y032910D02*
X035171Y032910D01*
X034862Y032601D02*
X034104Y032601D01*
X034053Y032524D02*
X036620Y032524D01*
X036620Y032446D02*
X034099Y032446D01*
X034104Y032369D02*
X034777Y032369D01*
X034780Y032372D02*
X034652Y032244D01*
X034652Y032063D01*
X034780Y031935D01*
X034809Y031935D01*
X034809Y031787D01*
X034937Y031660D01*
X034967Y031660D01*
X034967Y031512D01*
X035095Y031384D01*
X035163Y031384D01*
X035163Y031276D01*
X035291Y031148D01*
X035472Y031148D01*
X035600Y031276D01*
X035600Y031457D01*
X035472Y031585D01*
X035403Y031585D01*
X035403Y031693D01*
X035276Y031821D01*
X035246Y031821D01*
X035246Y031968D01*
X035118Y032096D01*
X035089Y032096D01*
X035089Y032244D01*
X034961Y032372D01*
X034780Y032372D01*
X034700Y032292D02*
X034104Y032292D01*
X034059Y032215D02*
X034652Y032215D01*
X034652Y032137D02*
X034025Y032137D01*
X034025Y032060D02*
X034655Y032060D01*
X034732Y031983D02*
X034025Y031983D01*
X034025Y031906D02*
X034809Y031906D01*
X034809Y031828D02*
X034092Y031828D01*
X034169Y031751D02*
X034845Y031751D01*
X034923Y031674D02*
X034247Y031674D01*
X034324Y031597D02*
X034967Y031597D01*
X034967Y031520D02*
X034401Y031520D01*
X034458Y031442D02*
X035036Y031442D01*
X035163Y031365D02*
X034458Y031365D01*
X034458Y031288D02*
X035163Y031288D01*
X035229Y031211D02*
X034458Y031211D01*
X034458Y031133D02*
X036999Y031133D01*
X036935Y031197D02*
X037063Y031069D01*
X037132Y031069D01*
X037132Y030961D01*
X037260Y030833D01*
X037441Y030833D01*
X037569Y030961D01*
X037569Y031142D01*
X037441Y031270D01*
X037372Y031270D01*
X037372Y031305D01*
X037441Y031305D01*
X037569Y031433D01*
X037569Y031614D01*
X037441Y031742D01*
X037372Y031742D01*
X037372Y031850D01*
X037244Y031978D01*
X037063Y031978D01*
X036935Y031850D01*
X036935Y031669D01*
X037063Y031541D01*
X037132Y031541D01*
X037132Y031506D01*
X037063Y031506D01*
X036935Y031378D01*
X036935Y031197D01*
X036935Y031211D02*
X035535Y031211D01*
X035600Y031288D02*
X036935Y031288D01*
X036935Y031365D02*
X035600Y031365D01*
X035600Y031442D02*
X037000Y031442D01*
X037132Y031520D02*
X035537Y031520D01*
X035403Y031597D02*
X037008Y031597D01*
X036935Y031674D02*
X035403Y031674D01*
X035345Y031751D02*
X036935Y031751D01*
X036935Y031828D02*
X035246Y031828D01*
X035246Y031906D02*
X036991Y031906D01*
X037317Y031906D02*
X038116Y031906D01*
X038116Y031929D02*
X038116Y031748D01*
X038183Y031681D01*
X038116Y031614D01*
X038116Y031433D01*
X038244Y031305D01*
X038425Y031305D01*
X038553Y031433D01*
X038553Y031614D01*
X038486Y031681D01*
X038553Y031748D01*
X038553Y031929D01*
X038425Y032057D01*
X038244Y032057D01*
X038116Y031929D01*
X038170Y031983D02*
X035231Y031983D01*
X035154Y032060D02*
X039901Y032060D01*
X039888Y032047D02*
X039888Y031866D01*
X040016Y031738D01*
X040197Y031738D01*
X040325Y031866D01*
X040325Y032047D01*
X040197Y032175D01*
X040016Y032175D01*
X039888Y032047D01*
X039888Y031983D02*
X038499Y031983D01*
X038553Y031906D02*
X039136Y031906D01*
X039150Y031919D02*
X039022Y031791D01*
X039022Y031610D01*
X039138Y031494D01*
X039100Y031457D01*
X039100Y031276D01*
X039180Y031196D01*
X039180Y030718D01*
X039259Y030640D01*
X039189Y030640D01*
X039061Y030512D01*
X039061Y030331D01*
X039189Y030203D01*
X039370Y030203D01*
X039377Y030210D01*
X039377Y029849D01*
X039261Y029733D01*
X039180Y029652D01*
X039180Y029380D01*
X039495Y029065D01*
X039495Y028979D01*
X039370Y029104D01*
X039189Y029104D01*
X039061Y028976D01*
X039061Y028795D01*
X039189Y028667D01*
X039370Y028667D01*
X039495Y028793D01*
X039495Y028592D01*
X039576Y028511D01*
X039576Y028511D01*
X039814Y028273D01*
X039752Y028210D01*
X039646Y028317D01*
X039465Y028317D01*
X039337Y028189D01*
X039337Y028008D01*
X039465Y027880D01*
X039494Y027880D01*
X039494Y027732D01*
X039581Y027646D01*
X039534Y027598D01*
X039534Y027417D01*
X039652Y027299D01*
X039652Y027142D01*
X039719Y027075D01*
X039652Y027008D01*
X039652Y026827D01*
X039780Y026699D01*
X039961Y026699D01*
X039967Y026705D01*
X039967Y026630D01*
X040095Y026502D01*
X040276Y026502D01*
X040283Y026509D01*
X040283Y023943D01*
X039616Y023277D01*
X038628Y023277D01*
X038592Y023312D01*
X038592Y023425D01*
X038464Y023553D01*
X038284Y023553D01*
X038156Y023425D01*
X038156Y023244D01*
X038284Y023116D01*
X038396Y023116D01*
X038513Y022999D01*
X039731Y022999D01*
X039812Y023080D01*
X040560Y023828D01*
X040560Y026857D01*
X040479Y026938D01*
X040284Y027132D01*
X040284Y028195D01*
X040203Y028277D01*
X040009Y028471D01*
X040039Y028471D01*
X040167Y028599D01*
X040167Y028779D01*
X040061Y028886D01*
X040089Y028913D01*
X040089Y029094D01*
X039982Y029201D01*
X040010Y029228D01*
X040010Y029409D01*
X039882Y029537D01*
X039774Y029537D01*
X039774Y029538D01*
X039812Y029576D01*
X039812Y030676D01*
X039773Y030715D01*
X039803Y030715D01*
X039931Y030843D01*
X039931Y031024D01*
X039803Y031151D01*
X039694Y031151D01*
X039694Y031502D01*
X039613Y031584D01*
X039459Y031738D01*
X039459Y031791D01*
X039331Y031919D01*
X039150Y031919D01*
X039059Y031828D02*
X038553Y031828D01*
X038553Y031751D02*
X039022Y031751D01*
X039022Y031674D02*
X038493Y031674D01*
X038553Y031597D02*
X039035Y031597D01*
X039113Y031520D02*
X038553Y031520D01*
X038553Y031442D02*
X039100Y031442D01*
X039100Y031365D02*
X038485Y031365D01*
X038184Y031365D02*
X037501Y031365D01*
X037569Y031442D02*
X038116Y031442D01*
X038116Y031520D02*
X037569Y031520D01*
X037569Y031597D02*
X038116Y031597D01*
X038176Y031674D02*
X037509Y031674D01*
X037372Y031751D02*
X038116Y031751D01*
X038116Y031828D02*
X037372Y031828D01*
X037372Y031288D02*
X039100Y031288D01*
X039166Y031211D02*
X037500Y031211D01*
X037569Y031133D02*
X039180Y031133D01*
X039180Y031056D02*
X037569Y031056D01*
X037569Y030979D02*
X039180Y030979D01*
X039180Y030902D02*
X037510Y030902D01*
X037191Y030902D02*
X034458Y030902D01*
X034458Y030979D02*
X037132Y030979D01*
X037132Y031056D02*
X034458Y031056D01*
X034458Y030824D02*
X039180Y030824D01*
X039180Y030747D02*
X038121Y030747D01*
X038110Y030758D02*
X037929Y030758D01*
X037801Y030630D01*
X037801Y030449D01*
X037929Y030321D01*
X038110Y030321D01*
X038238Y030449D01*
X038238Y030630D01*
X038110Y030758D01*
X038198Y030670D02*
X039228Y030670D01*
X039142Y030593D02*
X038238Y030593D01*
X038238Y030515D02*
X039065Y030515D01*
X039061Y030438D02*
X038227Y030438D01*
X038150Y030361D02*
X039061Y030361D01*
X039108Y030284D02*
X035207Y030284D01*
X035207Y030354D02*
X035207Y030173D01*
X035079Y030045D01*
X034898Y030045D01*
X034770Y030173D01*
X034770Y030354D01*
X034898Y030482D01*
X035079Y030482D01*
X035207Y030354D01*
X035200Y030361D02*
X037889Y030361D01*
X037812Y030438D02*
X035123Y030438D01*
X035207Y030206D02*
X039185Y030206D01*
X039374Y030206D02*
X039377Y030206D01*
X039377Y030129D02*
X035162Y030129D01*
X035085Y030052D02*
X039377Y030052D01*
X039377Y029975D02*
X034804Y029975D01*
X034727Y030052D02*
X034891Y030052D01*
X034814Y030129D02*
X034650Y030129D01*
X034572Y030206D02*
X034770Y030206D01*
X034770Y030284D02*
X034495Y030284D01*
X034458Y030361D02*
X034776Y030361D01*
X034854Y030438D02*
X034458Y030438D01*
X034458Y030515D02*
X037801Y030515D01*
X037801Y030593D02*
X034458Y030593D01*
X034458Y030670D02*
X037841Y030670D01*
X037919Y030747D02*
X034458Y030747D01*
X034023Y030515D02*
X033261Y030515D01*
X033274Y030484D02*
X033214Y030630D01*
X033102Y030741D01*
X032957Y030802D01*
X032799Y030802D01*
X032654Y030741D01*
X032542Y030630D01*
X032482Y030484D01*
X032482Y030327D01*
X032542Y030181D01*
X032654Y030070D01*
X032799Y030009D01*
X032957Y030009D01*
X033102Y030070D01*
X033214Y030181D01*
X033274Y030327D01*
X033274Y030484D01*
X033274Y030438D02*
X034023Y030438D01*
X034023Y030361D02*
X033274Y030361D01*
X033256Y030284D02*
X034023Y030284D01*
X034023Y030206D02*
X033224Y030206D01*
X033162Y030129D02*
X034060Y030129D01*
X034138Y030052D02*
X033060Y030052D01*
X032957Y029802D02*
X032799Y029802D01*
X032654Y029741D01*
X032542Y029630D01*
X032482Y029484D01*
X032482Y029327D01*
X032542Y029181D01*
X032654Y029070D01*
X032799Y029009D01*
X032957Y029009D01*
X033102Y029070D01*
X033214Y029181D01*
X033274Y029327D01*
X033274Y029484D01*
X033214Y029630D01*
X033102Y029741D01*
X032957Y029802D01*
X033099Y029743D02*
X034100Y029743D01*
X034100Y029820D02*
X032064Y029820D01*
X032099Y029743D02*
X032657Y029743D01*
X032578Y029666D02*
X032178Y029666D01*
X032231Y029588D02*
X032525Y029588D01*
X032493Y029511D02*
X032263Y029511D01*
X032274Y029434D02*
X032482Y029434D01*
X032482Y029357D02*
X032274Y029357D01*
X032255Y029280D02*
X032501Y029280D01*
X032533Y029202D02*
X032223Y029202D01*
X032158Y029125D02*
X032598Y029125D01*
X032706Y029048D02*
X032050Y029048D01*
X031706Y029048D02*
X031506Y029048D01*
X031506Y029125D02*
X031598Y029125D01*
X031533Y029202D02*
X031506Y029202D01*
X031506Y028971D02*
X034730Y028971D01*
X034730Y029048D02*
X033050Y029048D01*
X033158Y029125D02*
X034761Y029125D01*
X034838Y029202D02*
X033223Y029202D01*
X033255Y029280D02*
X034910Y029280D01*
X034833Y029357D02*
X033274Y029357D01*
X033274Y029434D02*
X034756Y029434D01*
X034678Y029511D02*
X033263Y029511D01*
X033231Y029588D02*
X034173Y029588D01*
X034100Y029666D02*
X033178Y029666D01*
X032696Y030052D02*
X032295Y030052D01*
X032218Y029975D02*
X034215Y029975D01*
X034155Y029897D02*
X032141Y029897D01*
X031878Y029831D02*
X031878Y029406D01*
X031878Y029831D02*
X032311Y030264D01*
X032311Y031563D01*
X032469Y031720D01*
X032469Y032035D01*
X032311Y032193D01*
X032311Y032626D01*
X032665Y032980D01*
X033098Y032980D01*
X033335Y033217D01*
X033335Y033531D01*
X033453Y033650D01*
X036642Y033650D01*
X036917Y033374D01*
X037035Y033374D01*
X037232Y033177D01*
X037390Y033177D01*
X037429Y033138D01*
X037580Y033296D02*
X039415Y033296D01*
X039415Y033244D02*
X039543Y033116D01*
X039724Y033116D01*
X039852Y033244D01*
X039852Y033425D01*
X039724Y033553D01*
X039543Y033553D01*
X039415Y033425D01*
X039415Y033244D01*
X039441Y033219D02*
X037648Y033219D01*
X037648Y033142D02*
X039518Y033142D01*
X039465Y033081D02*
X039337Y032953D01*
X039337Y032772D01*
X039465Y032644D01*
X039646Y032644D01*
X039752Y032750D01*
X039780Y032723D01*
X039961Y032723D01*
X040089Y032850D01*
X040089Y033031D01*
X039961Y033159D01*
X039780Y033159D01*
X039673Y033053D01*
X039646Y033081D01*
X039465Y033081D01*
X039448Y033064D02*
X037648Y033064D01*
X037587Y032987D02*
X039371Y032987D01*
X039337Y032910D02*
X037411Y032910D01*
X037393Y032833D02*
X039337Y032833D01*
X039353Y032755D02*
X037316Y032755D01*
X037070Y032755D02*
X037057Y032755D01*
X037003Y032678D02*
X039430Y032678D01*
X039680Y032678D02*
X041149Y032678D01*
X041148Y032601D02*
X037054Y032601D01*
X037057Y032524D02*
X040955Y032524D01*
X040878Y032446D02*
X037057Y032446D01*
X037009Y032369D02*
X040872Y032369D01*
X040872Y032292D02*
X036932Y032292D01*
X036746Y032292D02*
X035041Y032292D01*
X035089Y032215D02*
X040917Y032215D01*
X040995Y032137D02*
X040234Y032137D01*
X040312Y032060D02*
X041676Y032060D01*
X041586Y032137D02*
X041186Y032137D01*
X041264Y032215D02*
X041528Y032215D01*
X041496Y032292D02*
X041309Y032292D01*
X041458Y032369D02*
X041482Y032369D01*
X041584Y032678D02*
X041590Y032678D01*
X041506Y032755D02*
X041687Y032755D01*
X041666Y033064D02*
X040056Y033064D01*
X040089Y032987D02*
X042250Y032987D01*
X042250Y032910D02*
X040089Y032910D01*
X040071Y032833D02*
X042250Y032833D01*
X042250Y032755D02*
X042069Y032755D01*
X042166Y032678D02*
X042250Y032678D01*
X042250Y032601D02*
X042226Y032601D01*
X042228Y032215D02*
X042250Y032215D01*
X042250Y032137D02*
X042170Y032137D01*
X042250Y032060D02*
X042080Y032060D01*
X042250Y031983D02*
X040325Y031983D01*
X040325Y031906D02*
X042250Y031906D01*
X042250Y031828D02*
X040287Y031828D01*
X040210Y031751D02*
X041677Y031751D01*
X041586Y031674D02*
X039522Y031674D01*
X039459Y031751D02*
X040003Y031751D01*
X039926Y031828D02*
X039421Y031828D01*
X039344Y031906D02*
X039888Y031906D01*
X039978Y032137D02*
X035089Y032137D01*
X034963Y032369D02*
X036668Y032369D01*
X036839Y032823D02*
X036839Y032941D01*
X036720Y033059D01*
X036720Y033177D01*
X036563Y033335D01*
X033807Y033335D01*
X033650Y033177D01*
X033492Y033177D01*
X033138Y032823D01*
X032705Y032823D01*
X032469Y032587D01*
X032469Y032232D01*
X032626Y032075D01*
X032626Y031657D01*
X032878Y031406D01*
X033170Y031674D02*
X033657Y031674D01*
X033590Y031751D02*
X033079Y031751D01*
X033228Y031597D02*
X033735Y031597D01*
X033812Y031520D02*
X033260Y031520D01*
X033274Y031442D02*
X033889Y031442D01*
X033966Y031365D02*
X033274Y031365D01*
X033258Y031288D02*
X034023Y031288D01*
X034023Y031211D02*
X033226Y031211D01*
X033166Y031133D02*
X034023Y031133D01*
X034023Y031056D02*
X033070Y031056D01*
X033089Y030747D02*
X033707Y030747D01*
X033707Y030824D02*
X032450Y030824D01*
X032450Y030747D02*
X032667Y030747D01*
X032582Y030670D02*
X032450Y030670D01*
X032450Y030593D02*
X032527Y030593D01*
X032495Y030515D02*
X032450Y030515D01*
X032450Y030438D02*
X032482Y030438D01*
X032482Y030361D02*
X032450Y030361D01*
X032450Y030284D02*
X032500Y030284D01*
X032532Y030206D02*
X032450Y030206D01*
X032373Y030129D02*
X032594Y030129D01*
X033229Y030593D02*
X033799Y030593D01*
X033722Y030670D02*
X033174Y030670D01*
X033742Y030902D02*
X032450Y030902D01*
X032450Y030979D02*
X033820Y030979D01*
X034319Y031406D02*
X033886Y031839D01*
X033886Y032350D01*
X033625Y032601D02*
X033226Y032601D01*
X033258Y032524D02*
X033548Y032524D01*
X033511Y032446D02*
X033274Y032446D01*
X033274Y032369D02*
X033511Y032369D01*
X033511Y032292D02*
X033260Y032292D01*
X033228Y032215D02*
X033511Y032215D01*
X033588Y032137D02*
X033170Y032137D01*
X033080Y032060D02*
X033590Y032060D01*
X033590Y031983D02*
X032765Y031983D01*
X032765Y031906D02*
X033590Y031906D01*
X033590Y031828D02*
X032765Y031828D01*
X032496Y031520D02*
X032464Y031520D01*
X032450Y031442D02*
X032482Y031442D01*
X032482Y031365D02*
X032450Y031365D01*
X032450Y031288D02*
X032498Y031288D01*
X032530Y031211D02*
X032450Y031211D01*
X032450Y031133D02*
X032590Y031133D01*
X032686Y031056D02*
X032450Y031056D01*
X034319Y031406D02*
X034319Y030264D01*
X035343Y029240D01*
X035343Y028728D01*
X038020Y026051D01*
X039201Y026051D01*
X039752Y025500D01*
X039988Y025500D01*
X039829Y025649D02*
X039799Y025649D01*
X039722Y025726D02*
X040283Y025726D01*
X040283Y025649D02*
X040148Y025649D01*
X040207Y025572D02*
X040283Y025572D01*
X040283Y025495D02*
X040207Y025495D01*
X040207Y025418D02*
X040283Y025418D01*
X040283Y025340D02*
X040137Y025340D01*
X040283Y025263D02*
X039988Y025263D01*
X040048Y025186D02*
X040283Y025186D01*
X040283Y025109D02*
X040098Y025109D01*
X040128Y025031D02*
X040283Y025031D01*
X040283Y024954D02*
X040128Y024954D01*
X040107Y024877D02*
X040283Y024877D01*
X040283Y024800D02*
X040030Y024800D01*
X039909Y024988D02*
X039909Y025146D01*
X039161Y025894D01*
X037980Y025894D01*
X038008Y025679D02*
X037880Y025551D01*
X037880Y025370D01*
X038008Y025242D01*
X038121Y025242D01*
X038353Y025009D01*
X038353Y024380D01*
X038435Y024298D01*
X039022Y023711D01*
X039022Y023599D01*
X039150Y023471D01*
X039331Y023471D01*
X039459Y023599D01*
X039459Y023779D01*
X039331Y023907D01*
X039218Y023907D01*
X038631Y024494D01*
X038631Y025124D01*
X038317Y025438D01*
X038317Y025551D01*
X038189Y025679D01*
X038008Y025679D01*
X037978Y025649D02*
X034838Y025649D01*
X034851Y025572D02*
X037901Y025572D01*
X037880Y025495D02*
X034851Y025495D01*
X034851Y025418D02*
X037880Y025418D01*
X037910Y025340D02*
X034851Y025340D01*
X034851Y025263D02*
X037987Y025263D01*
X038177Y025186D02*
X034851Y025186D01*
X034851Y025109D02*
X038254Y025109D01*
X038332Y025031D02*
X034851Y025031D01*
X034851Y024954D02*
X038353Y024954D01*
X038353Y024877D02*
X034851Y024877D01*
X034851Y024800D02*
X038353Y024800D01*
X038353Y024722D02*
X034851Y024722D01*
X034851Y024645D02*
X038353Y024645D01*
X038353Y024568D02*
X034851Y024568D01*
X034851Y024491D02*
X038353Y024491D01*
X038353Y024413D02*
X034851Y024413D01*
X034851Y024336D02*
X038397Y024336D01*
X038474Y024259D02*
X034851Y024259D01*
X034851Y024182D02*
X035054Y024182D01*
X034977Y024104D02*
X034887Y024104D01*
X034713Y024083D02*
X035264Y023531D01*
X035539Y023531D01*
X035758Y023564D02*
X039056Y023564D01*
X039022Y023641D02*
X035739Y023641D01*
X035662Y023718D02*
X039015Y023718D01*
X038937Y023795D02*
X035285Y023795D01*
X035273Y023718D02*
X035417Y023718D01*
X035363Y023873D02*
X038860Y023873D01*
X038783Y023950D02*
X035364Y023950D01*
X035364Y024027D02*
X038706Y024027D01*
X038628Y024104D02*
X035315Y024104D01*
X035237Y024182D02*
X038551Y024182D01*
X038492Y024437D02*
X038492Y025067D01*
X038098Y025461D01*
X038317Y025495D02*
X039364Y025495D01*
X039287Y025572D02*
X038296Y025572D01*
X038219Y025649D02*
X039210Y025649D01*
X039132Y025726D02*
X034761Y025726D01*
X036147Y026035D02*
X037642Y026035D01*
X037565Y026113D02*
X036225Y026113D01*
X036270Y026190D02*
X037488Y026190D01*
X037411Y026267D02*
X036270Y026267D01*
X036264Y026344D02*
X037333Y026344D01*
X037256Y026422D02*
X036186Y026422D01*
X037150Y027117D02*
X037236Y027117D01*
X037211Y027142D02*
X037339Y027014D01*
X037520Y027014D01*
X037648Y027142D01*
X037648Y027323D01*
X037520Y027451D01*
X037339Y027451D01*
X037211Y027323D01*
X037211Y027142D01*
X037211Y027194D02*
X037073Y027194D01*
X036996Y027271D02*
X037211Y027271D01*
X037236Y027349D02*
X036919Y027349D01*
X036841Y027426D02*
X037314Y027426D01*
X037545Y027426D02*
X037983Y027426D01*
X037919Y027362D02*
X037919Y027181D01*
X038047Y027053D01*
X038228Y027053D01*
X038356Y027181D01*
X038356Y027362D01*
X038228Y027490D01*
X038047Y027490D01*
X037919Y027362D01*
X037919Y027349D02*
X037622Y027349D01*
X037648Y027271D02*
X037919Y027271D01*
X037919Y027194D02*
X037648Y027194D01*
X037623Y027117D02*
X037984Y027117D01*
X038292Y027117D02*
X039677Y027117D01*
X039683Y027040D02*
X037545Y027040D01*
X037382Y026885D02*
X039652Y026885D01*
X039652Y026962D02*
X037305Y026962D01*
X037313Y027040D02*
X037228Y027040D01*
X037459Y026808D02*
X039671Y026808D01*
X039748Y026731D02*
X037536Y026731D01*
X037614Y026653D02*
X039967Y026653D01*
X040020Y026576D02*
X037691Y026576D01*
X037768Y026499D02*
X039103Y026499D01*
X039026Y026422D02*
X037845Y026422D01*
X037923Y026344D02*
X038982Y026344D01*
X038982Y026267D02*
X038000Y026267D01*
X038338Y025418D02*
X039441Y025418D01*
X039303Y025340D02*
X038415Y025340D01*
X038492Y025263D02*
X039226Y025263D01*
X039219Y025186D02*
X038569Y025186D01*
X038631Y025109D02*
X039219Y025109D01*
X039262Y025031D02*
X038631Y025031D01*
X038631Y024954D02*
X039339Y024954D01*
X039535Y024954D02*
X039691Y024954D01*
X039691Y025031D02*
X039612Y025031D01*
X039655Y025109D02*
X039721Y025109D01*
X039673Y025186D02*
X039655Y025186D01*
X039712Y024877D02*
X038631Y024877D01*
X038631Y024800D02*
X039789Y024800D01*
X039780Y024419D02*
X039652Y024291D01*
X039652Y024110D01*
X039780Y023982D01*
X039961Y023982D01*
X040089Y024110D01*
X040089Y024291D01*
X039961Y024419D01*
X039780Y024419D01*
X039774Y024413D02*
X038712Y024413D01*
X038789Y024336D02*
X039697Y024336D01*
X039652Y024259D02*
X038866Y024259D01*
X038944Y024182D02*
X039652Y024182D01*
X039658Y024104D02*
X039021Y024104D01*
X039098Y024027D02*
X039735Y024027D01*
X040005Y024027D02*
X040283Y024027D01*
X040283Y023950D02*
X039175Y023950D01*
X039365Y023873D02*
X040212Y023873D01*
X040135Y023795D02*
X039443Y023795D01*
X039459Y023718D02*
X040057Y023718D01*
X039980Y023641D02*
X039459Y023641D01*
X039424Y023564D02*
X039903Y023564D01*
X039826Y023487D02*
X039347Y023487D01*
X039134Y023487D02*
X038531Y023487D01*
X038592Y023409D02*
X039748Y023409D01*
X039671Y023332D02*
X038592Y023332D01*
X038571Y023138D02*
X038374Y023335D01*
X038217Y023487D02*
X035758Y023487D01*
X035726Y023409D02*
X038156Y023409D01*
X038156Y023332D02*
X035733Y023332D01*
X035758Y023255D02*
X037355Y023255D01*
X037378Y023277D02*
X037250Y023150D01*
X037250Y022969D01*
X037378Y022841D01*
X037559Y022841D01*
X037687Y022969D01*
X037687Y023150D01*
X037559Y023277D01*
X037378Y023277D01*
X037278Y023178D02*
X035758Y023178D01*
X035732Y023100D02*
X037250Y023100D01*
X037250Y023023D02*
X036790Y023023D01*
X036772Y023041D02*
X036591Y023041D01*
X036463Y022913D01*
X036463Y022732D01*
X036591Y022604D01*
X036772Y022604D01*
X036900Y022732D01*
X036900Y022913D01*
X036772Y023041D01*
X036867Y022946D02*
X037273Y022946D01*
X037350Y022869D02*
X036900Y022869D01*
X036900Y022791D02*
X037774Y022791D01*
X037799Y022802D02*
X037654Y022741D01*
X037542Y022630D01*
X037482Y022484D01*
X037482Y022327D01*
X037542Y022181D01*
X037654Y022070D01*
X037799Y022009D01*
X037957Y022009D01*
X038102Y022070D01*
X038214Y022181D01*
X038274Y022327D01*
X038274Y022484D01*
X038214Y022630D01*
X038102Y022741D01*
X037957Y022802D01*
X037799Y022802D01*
X037982Y022791D02*
X042250Y022791D01*
X042250Y022714D02*
X038130Y022714D01*
X038207Y022637D02*
X042250Y022637D01*
X042250Y022560D02*
X038243Y022560D01*
X038274Y022482D02*
X042250Y022482D01*
X042250Y022405D02*
X038274Y022405D01*
X038274Y022328D02*
X042250Y022328D01*
X042250Y022251D02*
X038243Y022251D01*
X038206Y022173D02*
X042250Y022173D01*
X042250Y022096D02*
X038129Y022096D01*
X037980Y022019D02*
X042250Y022019D01*
X042250Y021942D02*
X034770Y021942D01*
X034724Y021896D02*
X034852Y022024D01*
X034852Y022205D01*
X034724Y022333D01*
X034543Y022333D01*
X034476Y022266D01*
X034409Y022333D01*
X034228Y022333D01*
X034161Y022266D01*
X034094Y022333D01*
X033913Y022333D01*
X033786Y022205D01*
X033786Y022024D01*
X033913Y021896D01*
X034094Y021896D01*
X034161Y021963D01*
X034228Y021896D01*
X034409Y021896D01*
X034476Y021963D01*
X034543Y021896D01*
X034724Y021896D01*
X034848Y022019D02*
X037776Y022019D01*
X037627Y022096D02*
X034852Y022096D01*
X034852Y022173D02*
X037550Y022173D01*
X037513Y022251D02*
X034806Y022251D01*
X034729Y022328D02*
X037482Y022328D01*
X037482Y022405D02*
X035942Y022405D01*
X035994Y022457D02*
X035866Y022329D01*
X035685Y022329D01*
X035557Y022457D01*
X035557Y022638D01*
X035685Y022766D01*
X035866Y022766D01*
X035994Y022638D01*
X035994Y022457D01*
X035994Y022482D02*
X037482Y022482D01*
X037513Y022560D02*
X035994Y022560D01*
X035994Y022637D02*
X036558Y022637D01*
X036481Y022714D02*
X035918Y022714D01*
X035634Y022714D02*
X032878Y022714D01*
X032955Y022637D02*
X035557Y022637D01*
X035557Y022560D02*
X033015Y022560D01*
X033003Y022589D02*
X032786Y022806D01*
X032503Y022923D01*
X032197Y022923D01*
X031915Y022806D01*
X031698Y022589D01*
X031581Y022307D01*
X031581Y022001D01*
X031698Y021718D01*
X031915Y021501D01*
X032197Y021384D01*
X032503Y021384D01*
X032786Y021501D01*
X033003Y021718D01*
X033120Y022001D01*
X033120Y022307D01*
X033003Y022589D01*
X033047Y022482D02*
X035557Y022482D01*
X035609Y022405D02*
X033079Y022405D01*
X033111Y022328D02*
X033909Y022328D01*
X033832Y022251D02*
X033120Y022251D01*
X033120Y022173D02*
X033786Y022173D01*
X033786Y022096D02*
X033120Y022096D01*
X033120Y022019D02*
X033790Y022019D01*
X033868Y021942D02*
X033095Y021942D01*
X033063Y021864D02*
X042250Y021864D01*
X042250Y021787D02*
X034364Y021787D01*
X034331Y021821D02*
X034150Y021821D01*
X034022Y021693D01*
X034022Y021512D01*
X034150Y021384D01*
X034331Y021384D01*
X034459Y021512D01*
X034459Y021693D01*
X034331Y021821D01*
X034441Y021710D02*
X042250Y021710D01*
X042250Y021633D02*
X034459Y021633D01*
X034459Y021555D02*
X042250Y021555D01*
X042250Y021478D02*
X034425Y021478D01*
X034348Y021401D02*
X042250Y021401D01*
X042250Y022869D02*
X037587Y022869D01*
X037664Y022946D02*
X042250Y022946D01*
X042250Y023023D02*
X041048Y023023D01*
X041112Y023087D02*
X041112Y023268D01*
X041006Y023374D01*
X041073Y023441D01*
X041073Y023622D01*
X041048Y023647D01*
X041424Y024023D01*
X041505Y024104D01*
X041505Y024455D01*
X041348Y024612D01*
X041348Y024724D01*
X041220Y024852D01*
X041151Y024852D01*
X041151Y024961D01*
X041104Y025008D01*
X041151Y025055D01*
X041151Y025236D01*
X041024Y025364D01*
X040843Y025364D01*
X040715Y025236D01*
X040715Y025055D01*
X040762Y025008D01*
X040715Y024961D01*
X040715Y024780D01*
X040843Y024652D01*
X040911Y024652D01*
X040911Y024543D01*
X040979Y024476D01*
X040911Y024409D01*
X040911Y024228D01*
X041039Y024100D01*
X041109Y024100D01*
X041033Y024025D01*
X041033Y024094D01*
X040905Y024222D01*
X040724Y024222D01*
X040597Y024094D01*
X040597Y023913D01*
X040724Y023786D01*
X040794Y023786D01*
X040716Y023707D01*
X040716Y023702D01*
X040636Y023622D01*
X040636Y023441D01*
X040742Y023335D01*
X040675Y023268D01*
X040675Y023087D01*
X040803Y022959D01*
X040984Y022959D01*
X041112Y023087D01*
X041112Y023100D02*
X042250Y023100D01*
X042250Y023178D02*
X041112Y023178D01*
X041112Y023255D02*
X042250Y023255D01*
X042250Y023332D02*
X041048Y023332D01*
X041041Y023409D02*
X042250Y023409D01*
X042250Y023487D02*
X041073Y023487D01*
X041073Y023564D02*
X042250Y023564D01*
X042250Y023641D02*
X041054Y023641D01*
X041119Y023718D02*
X042250Y023718D01*
X042250Y023795D02*
X041196Y023795D01*
X041274Y023873D02*
X042250Y023873D01*
X042250Y023950D02*
X041351Y023950D01*
X041428Y024027D02*
X042250Y024027D01*
X042250Y024104D02*
X041505Y024104D01*
X041505Y024182D02*
X042250Y024182D01*
X042250Y024259D02*
X041505Y024259D01*
X041505Y024336D02*
X042250Y024336D01*
X042250Y024413D02*
X041505Y024413D01*
X041469Y024491D02*
X042250Y024491D01*
X042250Y024568D02*
X041392Y024568D01*
X041348Y024645D02*
X042250Y024645D01*
X042250Y024722D02*
X041348Y024722D01*
X041273Y024800D02*
X042250Y024800D01*
X042250Y024877D02*
X041151Y024877D01*
X041151Y024954D02*
X042250Y024954D01*
X042250Y025031D02*
X041128Y025031D01*
X041151Y025109D02*
X042250Y025109D01*
X042250Y025186D02*
X041151Y025186D01*
X041125Y025263D02*
X042250Y025263D01*
X042250Y025340D02*
X041047Y025340D01*
X040819Y025340D02*
X040560Y025340D01*
X040560Y025263D02*
X040742Y025263D01*
X040715Y025186D02*
X040560Y025186D01*
X040560Y025109D02*
X040715Y025109D01*
X040739Y025031D02*
X040560Y025031D01*
X040560Y024954D02*
X040715Y024954D01*
X040715Y024877D02*
X040560Y024877D01*
X040560Y024800D02*
X040715Y024800D01*
X040772Y024722D02*
X040560Y024722D01*
X040560Y024645D02*
X040911Y024645D01*
X040911Y024568D02*
X040560Y024568D01*
X040560Y024491D02*
X040964Y024491D01*
X040916Y024413D02*
X040560Y024413D01*
X040560Y024336D02*
X040911Y024336D01*
X040911Y024259D02*
X040560Y024259D01*
X040560Y024182D02*
X040684Y024182D01*
X040607Y024104D02*
X040560Y024104D01*
X040560Y024027D02*
X040597Y024027D01*
X040597Y023950D02*
X040560Y023950D01*
X040560Y023873D02*
X040637Y023873D01*
X040715Y023795D02*
X040527Y023795D01*
X040450Y023718D02*
X040727Y023718D01*
X040655Y023641D02*
X040373Y023641D01*
X040295Y023564D02*
X040636Y023564D01*
X040636Y023487D02*
X040218Y023487D01*
X040141Y023409D02*
X040668Y023409D01*
X040740Y023332D02*
X040064Y023332D01*
X039986Y023255D02*
X040675Y023255D01*
X040675Y023178D02*
X039909Y023178D01*
X039832Y023100D02*
X040675Y023100D01*
X040739Y023023D02*
X039755Y023023D01*
X039673Y023138D02*
X038571Y023138D01*
X038489Y023023D02*
X037687Y023023D01*
X037687Y023100D02*
X038412Y023100D01*
X038222Y023178D02*
X037659Y023178D01*
X037582Y023255D02*
X038156Y023255D01*
X037626Y022714D02*
X036881Y022714D01*
X036804Y022637D02*
X037549Y022637D01*
X036572Y023023D02*
X035655Y023023D01*
X035539Y023217D02*
X035382Y023217D01*
X035424Y023023D02*
X031506Y023023D01*
X031506Y022946D02*
X036495Y022946D01*
X036463Y022869D02*
X032634Y022869D01*
X032801Y022791D02*
X036463Y022791D01*
X034539Y022328D02*
X034414Y022328D01*
X034224Y022328D02*
X034099Y022328D01*
X034140Y021942D02*
X034182Y021942D01*
X034116Y021787D02*
X033031Y021787D01*
X032995Y021710D02*
X034039Y021710D01*
X034022Y021633D02*
X032918Y021633D01*
X032840Y021555D02*
X034022Y021555D01*
X034055Y021478D02*
X032730Y021478D01*
X032544Y021401D02*
X034133Y021401D01*
X034455Y021942D02*
X034497Y021942D01*
X032157Y021401D02*
X031506Y021401D01*
X031506Y021478D02*
X031970Y021478D01*
X031861Y021555D02*
X031506Y021555D01*
X031506Y021633D02*
X031783Y021633D01*
X031706Y021710D02*
X031506Y021710D01*
X031506Y021787D02*
X031669Y021787D01*
X031637Y021864D02*
X031506Y021864D01*
X031506Y021942D02*
X031605Y021942D01*
X031581Y022019D02*
X031506Y022019D01*
X031506Y022096D02*
X031581Y022096D01*
X031581Y022173D02*
X031506Y022173D01*
X031506Y022251D02*
X031581Y022251D01*
X031590Y022328D02*
X031506Y022328D01*
X031506Y022405D02*
X031622Y022405D01*
X031654Y022482D02*
X031506Y022482D01*
X031506Y022560D02*
X031686Y022560D01*
X031746Y022637D02*
X031506Y022637D01*
X031506Y022714D02*
X031823Y022714D01*
X031900Y022791D02*
X031506Y022791D01*
X031506Y022869D02*
X032066Y022869D01*
X031506Y027271D02*
X036108Y027271D01*
X036134Y027349D02*
X031506Y027349D01*
X031506Y027426D02*
X036211Y027426D01*
X036175Y027503D02*
X033631Y027503D01*
X033630Y027502D02*
X033769Y027642D01*
X033769Y027839D01*
X033678Y027930D01*
X033719Y027930D01*
X033719Y028295D01*
X033738Y028295D01*
X033738Y027930D01*
X033962Y027930D01*
X034035Y027944D01*
X034103Y027972D01*
X034103Y027972D01*
X034165Y028013D01*
X034217Y028066D01*
X034219Y028069D01*
X034258Y028127D01*
X034258Y028127D01*
X034260Y028132D01*
X034286Y028196D01*
X034301Y028268D01*
X034301Y028295D01*
X033738Y028295D01*
X033738Y028315D01*
X033719Y028315D01*
X033719Y028681D01*
X033495Y028681D01*
X033422Y028666D01*
X033354Y028638D01*
X033292Y028597D01*
X033240Y028545D01*
X033240Y028545D01*
X033240Y028545D01*
X033235Y028537D01*
X033199Y028483D01*
X033195Y028474D01*
X033170Y028415D01*
X033170Y028415D01*
X033156Y028342D01*
X033156Y028315D01*
X033718Y028315D01*
X033718Y028295D01*
X033156Y028295D01*
X033156Y028268D01*
X033170Y028196D01*
X033170Y028196D01*
X033199Y028127D01*
X033240Y028066D01*
X033292Y028013D01*
X033354Y027972D01*
X033406Y027951D01*
X033294Y027839D01*
X033294Y027642D01*
X033433Y027502D01*
X033630Y027502D01*
X033708Y027580D02*
X036098Y027580D01*
X036020Y027657D02*
X033769Y027657D01*
X033769Y027735D02*
X035943Y027735D01*
X035866Y027812D02*
X033769Y027812D01*
X033719Y027889D02*
X035789Y027889D01*
X035711Y027966D02*
X034089Y027966D01*
X034035Y027944D02*
X034035Y027944D01*
X034165Y028013D02*
X034165Y028013D01*
X034195Y028044D02*
X035634Y028044D01*
X035557Y028121D02*
X034254Y028121D01*
X034217Y028066D02*
X034217Y028066D01*
X034286Y028196D02*
X034286Y028196D01*
X034287Y028198D02*
X035480Y028198D01*
X035402Y028275D02*
X034301Y028275D01*
X034301Y028315D02*
X034301Y028342D01*
X034286Y028415D01*
X034258Y028483D01*
X034217Y028545D01*
X034165Y028597D01*
X034165Y028597D01*
X034103Y028638D01*
X034035Y028666D01*
X033962Y028681D01*
X033738Y028681D01*
X033738Y028315D01*
X034301Y028315D01*
X034299Y028353D02*
X035325Y028353D01*
X035248Y028430D02*
X034280Y028430D01*
X034286Y028415D02*
X034286Y028415D01*
X034258Y028483D02*
X034258Y028483D01*
X034242Y028507D02*
X035171Y028507D01*
X035093Y028584D02*
X034177Y028584D01*
X034217Y028545D02*
X034217Y028545D01*
X034103Y028638D02*
X034103Y028638D01*
X034046Y028662D02*
X035046Y028662D01*
X035046Y028739D02*
X031506Y028739D01*
X031506Y028816D02*
X034828Y028816D01*
X034751Y028893D02*
X031506Y028893D01*
X031506Y028662D02*
X031757Y028662D01*
X031626Y028584D02*
X031506Y028584D01*
X031506Y028507D02*
X031561Y028507D01*
X031523Y028430D02*
X031506Y028430D01*
X031506Y028315D02*
X032065Y028315D01*
X032065Y028295D01*
X031506Y028295D01*
X031506Y028315D01*
X031506Y028198D02*
X031516Y028198D01*
X031506Y028121D02*
X031549Y028121D01*
X031506Y028044D02*
X031608Y028044D01*
X031506Y027966D02*
X031714Y027966D01*
X031793Y028128D02*
X031834Y028113D01*
X031878Y028108D01*
X032272Y028108D01*
X032315Y028113D01*
X032357Y028128D01*
X032394Y028151D01*
X032426Y028182D01*
X032449Y028220D01*
X032464Y028261D01*
X032469Y028305D01*
X032464Y028349D01*
X032449Y028391D01*
X032426Y028428D01*
X032394Y028459D01*
X032357Y028482D01*
X032315Y028497D01*
X032272Y028502D01*
X031878Y028502D01*
X031834Y028497D01*
X031793Y028482D01*
X031755Y028459D01*
X031724Y028428D01*
X031701Y028391D01*
X031686Y028349D01*
X031681Y028305D01*
X031686Y028261D01*
X031701Y028220D01*
X031724Y028182D01*
X031755Y028151D01*
X031793Y028128D01*
X031812Y028121D02*
X032338Y028121D01*
X032435Y028198D02*
X031714Y028198D01*
X031684Y028275D02*
X032465Y028275D01*
X032462Y028353D02*
X031687Y028353D01*
X031726Y028430D02*
X032424Y028430D01*
X032563Y028545D02*
X032563Y028545D01*
X032588Y028507D02*
X033215Y028507D01*
X033199Y028483D02*
X033199Y028483D01*
X033177Y028430D02*
X032627Y028430D01*
X032633Y028415D02*
X032633Y028415D01*
X032645Y028353D02*
X033158Y028353D01*
X033156Y028275D02*
X032647Y028275D01*
X032633Y028198D02*
X033170Y028198D01*
X033199Y028127D02*
X033199Y028127D01*
X033203Y028121D02*
X032600Y028121D01*
X032541Y028044D02*
X033262Y028044D01*
X033240Y028066D02*
X033240Y028066D01*
X033292Y028013D02*
X033292Y028013D01*
X033354Y027972D02*
X033354Y027972D01*
X033368Y027966D02*
X032435Y027966D01*
X032085Y027966D02*
X032065Y027966D01*
X032065Y028044D02*
X032085Y028044D01*
X032085Y028121D02*
X032065Y028121D01*
X032065Y028198D02*
X032085Y028198D01*
X032085Y028275D02*
X032065Y028275D01*
X032065Y028353D02*
X032085Y028353D01*
X032085Y028430D02*
X032065Y028430D01*
X032065Y028507D02*
X032085Y028507D01*
X032085Y028584D02*
X032065Y028584D01*
X032065Y028662D02*
X032085Y028662D01*
X032392Y028662D02*
X033411Y028662D01*
X033280Y028584D02*
X032524Y028584D01*
X032511Y028597D02*
X032511Y028597D01*
X032604Y028483D02*
X032604Y028483D01*
X033340Y028349D02*
X033335Y028305D01*
X033340Y028261D01*
X033354Y028220D01*
X033378Y028182D01*
X033409Y028151D01*
X033446Y028128D01*
X033488Y028113D01*
X033531Y028108D01*
X033925Y028108D01*
X033969Y028113D01*
X034011Y028128D01*
X034048Y028151D01*
X034079Y028182D01*
X034103Y028220D01*
X034117Y028261D01*
X034122Y028305D01*
X034117Y028349D01*
X034103Y028391D01*
X034079Y028428D01*
X034048Y028459D01*
X034011Y028482D01*
X033969Y028497D01*
X033925Y028502D01*
X033531Y028502D01*
X033488Y028497D01*
X033446Y028482D01*
X033409Y028459D01*
X033378Y028428D01*
X033354Y028391D01*
X033340Y028349D01*
X033341Y028353D02*
X034116Y028353D01*
X034119Y028275D02*
X033338Y028275D01*
X033368Y028198D02*
X034089Y028198D01*
X033991Y028121D02*
X033466Y028121D01*
X033719Y028121D02*
X033738Y028121D01*
X033738Y028198D02*
X033719Y028198D01*
X033719Y028275D02*
X033738Y028275D01*
X033738Y028353D02*
X033719Y028353D01*
X033719Y028430D02*
X033738Y028430D01*
X033738Y028507D02*
X033719Y028507D01*
X033719Y028584D02*
X033738Y028584D01*
X033738Y028662D02*
X033719Y028662D01*
X033380Y028430D02*
X034077Y028430D01*
X033738Y028044D02*
X033719Y028044D01*
X033719Y027966D02*
X033738Y027966D01*
X033344Y027889D02*
X031506Y027889D01*
X031506Y027812D02*
X033294Y027812D01*
X033294Y027735D02*
X031506Y027735D01*
X031506Y027657D02*
X033294Y027657D01*
X033355Y027580D02*
X031506Y027580D01*
X031506Y027503D02*
X033432Y027503D01*
X035528Y028739D02*
X036226Y028739D01*
X036226Y028740D02*
X036226Y028559D01*
X036354Y028431D01*
X036535Y028431D01*
X036663Y028559D01*
X036663Y028740D01*
X036535Y028868D01*
X036354Y028868D01*
X036226Y028740D01*
X036226Y028662D02*
X035605Y028662D01*
X035683Y028584D02*
X036226Y028584D01*
X036278Y028507D02*
X035760Y028507D01*
X035837Y028430D02*
X037379Y028430D01*
X037329Y028480D02*
X037457Y028352D01*
X037638Y028352D01*
X037766Y028480D01*
X037766Y028661D01*
X037638Y028789D01*
X037457Y028789D01*
X037329Y028661D01*
X037329Y028480D01*
X037329Y028507D02*
X037123Y028507D01*
X037087Y028471D02*
X037214Y028599D01*
X037214Y028779D01*
X037087Y028907D01*
X036906Y028907D01*
X036778Y028779D01*
X036778Y028599D01*
X036906Y028471D01*
X037087Y028471D01*
X037200Y028584D02*
X037329Y028584D01*
X037329Y028662D02*
X037214Y028662D01*
X037214Y028739D02*
X037406Y028739D01*
X037178Y028816D02*
X039061Y028816D01*
X039061Y028893D02*
X037101Y028893D01*
X036892Y028893D02*
X035481Y028893D01*
X035481Y028816D02*
X036302Y028816D01*
X036587Y028816D02*
X036814Y028816D01*
X036778Y028739D02*
X036663Y028739D01*
X036663Y028662D02*
X036778Y028662D01*
X036792Y028584D02*
X036663Y028584D01*
X036611Y028507D02*
X036869Y028507D01*
X036657Y028353D02*
X037457Y028353D01*
X037638Y028353D02*
X039735Y028353D01*
X039687Y028275D02*
X039812Y028275D01*
X039657Y028430D02*
X037715Y028430D01*
X037766Y028507D02*
X039580Y028507D01*
X039503Y028584D02*
X037766Y028584D01*
X037765Y028662D02*
X039495Y028662D01*
X039495Y028739D02*
X039441Y028739D01*
X039634Y028650D02*
X040146Y028138D01*
X040146Y027075D01*
X040421Y026799D01*
X040421Y023886D01*
X039673Y023138D01*
X039240Y023689D02*
X038492Y024437D01*
X038635Y024491D02*
X040283Y024491D01*
X040283Y024568D02*
X038631Y024568D01*
X038631Y024645D02*
X040283Y024645D01*
X040283Y024722D02*
X038631Y024722D01*
X039966Y024413D02*
X040283Y024413D01*
X040283Y024336D02*
X040044Y024336D01*
X040089Y024259D02*
X040283Y024259D01*
X040283Y024182D02*
X040089Y024182D01*
X040083Y024104D02*
X040283Y024104D01*
X040946Y024182D02*
X040958Y024182D01*
X041023Y024104D02*
X041035Y024104D01*
X041033Y024027D02*
X041036Y024027D01*
X041366Y024161D02*
X041366Y024398D01*
X041130Y024634D01*
X041366Y024161D02*
X040854Y023650D01*
X040854Y023531D01*
X040560Y025418D02*
X042250Y025418D01*
X042250Y025495D02*
X040560Y025495D01*
X040560Y025572D02*
X042250Y025572D01*
X042250Y025649D02*
X040560Y025649D01*
X040560Y025726D02*
X042250Y025726D01*
X042250Y025804D02*
X040560Y025804D01*
X040560Y025881D02*
X042250Y025881D01*
X042250Y025958D02*
X040560Y025958D01*
X040560Y026035D02*
X042250Y026035D01*
X042250Y026113D02*
X040560Y026113D01*
X040560Y026190D02*
X042250Y026190D01*
X042250Y026267D02*
X040560Y026267D01*
X040560Y026344D02*
X042250Y026344D01*
X042250Y026422D02*
X040560Y026422D01*
X040560Y026499D02*
X040964Y026499D01*
X041000Y026463D02*
X041181Y026463D01*
X041309Y026591D01*
X041309Y026738D01*
X041457Y026738D01*
X041585Y026866D01*
X041585Y027047D01*
X041457Y027175D01*
X041276Y027175D01*
X041148Y027047D01*
X041148Y026900D01*
X041000Y026900D01*
X040872Y026772D01*
X040872Y026591D01*
X041000Y026463D01*
X040887Y026576D02*
X040560Y026576D01*
X040560Y026653D02*
X040872Y026653D01*
X040872Y026731D02*
X040560Y026731D01*
X040560Y026808D02*
X040908Y026808D01*
X040986Y026885D02*
X040532Y026885D01*
X040454Y026962D02*
X041148Y026962D01*
X041148Y027040D02*
X040377Y027040D01*
X040300Y027117D02*
X041217Y027117D01*
X041515Y027117D02*
X041606Y027117D01*
X041585Y027040D02*
X041726Y027040D01*
X041585Y026962D02*
X042250Y026962D01*
X042250Y026885D02*
X041585Y026885D01*
X041526Y026808D02*
X042250Y026808D01*
X042250Y026731D02*
X041309Y026731D01*
X041309Y026653D02*
X042250Y026653D01*
X042250Y026576D02*
X041294Y026576D01*
X041217Y026499D02*
X042250Y026499D01*
X042250Y027040D02*
X042030Y027040D01*
X042150Y027117D02*
X042250Y027117D01*
X042250Y027194D02*
X042219Y027194D01*
X042234Y027580D02*
X042250Y027580D01*
X042250Y027657D02*
X042186Y027657D01*
X042250Y027735D02*
X042109Y027735D01*
X042250Y027812D02*
X040284Y027812D01*
X040284Y027889D02*
X042250Y027889D01*
X042250Y027966D02*
X040284Y027966D01*
X040284Y028044D02*
X041716Y028044D01*
X041602Y028121D02*
X040284Y028121D01*
X040282Y028198D02*
X041535Y028198D01*
X041503Y028275D02*
X040204Y028275D01*
X040203Y028277D02*
X040203Y028277D01*
X040127Y028353D02*
X041000Y028353D01*
X040923Y028430D02*
X040050Y028430D01*
X040076Y028507D02*
X040872Y028507D01*
X040872Y028584D02*
X040153Y028584D01*
X040167Y028662D02*
X040872Y028662D01*
X040950Y028739D02*
X040167Y028739D01*
X040131Y028816D02*
X041148Y028816D01*
X041222Y028893D02*
X040068Y028893D01*
X040089Y028971D02*
X042250Y028971D01*
X042250Y029048D02*
X042050Y029048D01*
X042158Y029125D02*
X042250Y029125D01*
X042250Y029202D02*
X042223Y029202D01*
X042250Y028893D02*
X041510Y028893D01*
X041585Y028816D02*
X042250Y028816D01*
X042250Y028739D02*
X042105Y028739D01*
X042182Y028662D02*
X042250Y028662D01*
X042250Y028584D02*
X042233Y028584D01*
X042221Y028198D02*
X042250Y028198D01*
X042250Y028121D02*
X042154Y028121D01*
X042250Y028044D02*
X042040Y028044D01*
X041647Y027735D02*
X040284Y027735D01*
X040284Y027657D02*
X041570Y027657D01*
X041521Y027580D02*
X040284Y027580D01*
X040284Y027503D02*
X041489Y027503D01*
X041482Y027426D02*
X040284Y027426D01*
X040284Y027349D02*
X041482Y027349D01*
X041505Y027271D02*
X040284Y027271D01*
X040284Y027194D02*
X041537Y027194D01*
X041482Y028353D02*
X041181Y028353D01*
X041258Y028430D02*
X041482Y028430D01*
X041491Y028507D02*
X041309Y028507D01*
X041585Y028739D02*
X041651Y028739D01*
X041706Y029048D02*
X040089Y029048D01*
X040058Y029125D02*
X041598Y029125D01*
X041533Y029202D02*
X039984Y029202D01*
X040010Y029280D02*
X041501Y029280D01*
X041482Y029357D02*
X040010Y029357D01*
X039985Y029434D02*
X041482Y029434D01*
X041493Y029511D02*
X039908Y029511D01*
X039812Y029588D02*
X041525Y029588D01*
X041578Y029666D02*
X039812Y029666D01*
X039812Y029743D02*
X041657Y029743D01*
X041696Y030052D02*
X040325Y030052D01*
X040325Y029976D02*
X040197Y029849D01*
X040016Y029849D01*
X039888Y029976D01*
X039888Y030157D01*
X040016Y030285D01*
X040197Y030285D01*
X040325Y030157D01*
X040325Y029976D01*
X040323Y029975D02*
X042250Y029975D01*
X042250Y030052D02*
X042060Y030052D01*
X042162Y030129D02*
X042250Y030129D01*
X042250Y030206D02*
X042224Y030206D01*
X042250Y029897D02*
X040246Y029897D01*
X040325Y030129D02*
X041594Y030129D01*
X041532Y030206D02*
X040276Y030206D01*
X040198Y030284D02*
X040959Y030284D01*
X040881Y030361D02*
X039812Y030361D01*
X039812Y030438D02*
X040872Y030438D01*
X040872Y030515D02*
X039812Y030515D01*
X039812Y030593D02*
X040914Y030593D01*
X040991Y030670D02*
X039812Y030670D01*
X039836Y030747D02*
X041148Y030747D01*
X041224Y030824D02*
X039913Y030824D01*
X039931Y030902D02*
X042250Y030902D01*
X042250Y030979D02*
X039931Y030979D01*
X039899Y031056D02*
X041686Y031056D01*
X041590Y031133D02*
X039821Y031133D01*
X039694Y031211D02*
X041530Y031211D01*
X041498Y031288D02*
X039694Y031288D01*
X039694Y031365D02*
X041482Y031365D01*
X041482Y031442D02*
X039694Y031442D01*
X039677Y031520D02*
X041496Y031520D01*
X041528Y031597D02*
X039599Y031597D01*
X039555Y031445D02*
X039555Y031169D01*
X039476Y031091D01*
X039476Y030815D01*
X039673Y030618D01*
X039673Y029634D01*
X039555Y029516D01*
X039319Y029594D02*
X039319Y029437D01*
X039634Y029122D01*
X039634Y028650D01*
X039495Y029048D02*
X039426Y029048D01*
X039435Y029125D02*
X035481Y029125D01*
X035481Y029048D02*
X039133Y029048D01*
X039061Y028971D02*
X035481Y028971D01*
X035481Y029202D02*
X039357Y029202D01*
X039280Y029280D02*
X035481Y029280D01*
X035422Y029357D02*
X039203Y029357D01*
X039180Y029434D02*
X036672Y029434D01*
X036614Y029376D02*
X036742Y029504D01*
X036742Y029685D01*
X036614Y029813D01*
X036433Y029813D01*
X036305Y029685D01*
X036305Y029504D01*
X036433Y029376D01*
X036614Y029376D01*
X036742Y029511D02*
X037400Y029511D01*
X037417Y029494D02*
X037598Y029494D01*
X037665Y029561D01*
X037732Y029494D01*
X037913Y029494D01*
X038041Y029622D01*
X038041Y029803D01*
X037913Y029931D01*
X037732Y029931D01*
X037665Y029864D01*
X037598Y029931D01*
X037417Y029931D01*
X037289Y029803D01*
X037289Y029622D01*
X037417Y029494D01*
X037323Y029588D02*
X036742Y029588D01*
X036742Y029666D02*
X037289Y029666D01*
X037289Y029743D02*
X036684Y029743D01*
X036363Y029743D02*
X035837Y029743D01*
X035837Y029764D02*
X035709Y029892D01*
X035528Y029892D01*
X035400Y029764D01*
X035400Y029583D01*
X035528Y029455D01*
X035709Y029455D01*
X035837Y029583D01*
X035837Y029764D01*
X035780Y029820D02*
X037307Y029820D01*
X037384Y029897D02*
X034881Y029897D01*
X034959Y029820D02*
X035456Y029820D01*
X035400Y029743D02*
X035036Y029743D01*
X035113Y029666D02*
X035400Y029666D01*
X035400Y029588D02*
X035190Y029588D01*
X035268Y029511D02*
X035471Y029511D01*
X035345Y029434D02*
X036375Y029434D01*
X036305Y029511D02*
X035765Y029511D01*
X035837Y029588D02*
X036305Y029588D01*
X036305Y029666D02*
X035837Y029666D01*
X034601Y029588D02*
X034464Y029588D01*
X035914Y028353D02*
X036469Y028353D01*
X036473Y028356D02*
X036345Y028228D01*
X036345Y028047D01*
X036473Y027919D01*
X036653Y027919D01*
X036781Y028047D01*
X036781Y028228D01*
X036653Y028356D01*
X036473Y028356D01*
X036392Y028275D02*
X035992Y028275D01*
X036069Y028198D02*
X036345Y028198D01*
X036345Y028121D02*
X036146Y028121D01*
X036223Y028044D02*
X036348Y028044D01*
X036301Y027966D02*
X036425Y027966D01*
X036378Y027889D02*
X037881Y027889D01*
X037841Y027929D02*
X037969Y027801D01*
X038150Y027801D01*
X038277Y027929D01*
X038277Y028110D01*
X038150Y028238D01*
X037969Y028238D01*
X037841Y028110D01*
X037841Y027929D01*
X037841Y027966D02*
X036701Y027966D01*
X036778Y028044D02*
X037841Y028044D01*
X037851Y028121D02*
X036781Y028121D01*
X036781Y028198D02*
X037929Y028198D01*
X038189Y028198D02*
X039346Y028198D01*
X039337Y028121D02*
X038267Y028121D01*
X038277Y028044D02*
X039337Y028044D01*
X039378Y027966D02*
X038277Y027966D01*
X038237Y027889D02*
X039455Y027889D01*
X039494Y027812D02*
X038160Y027812D01*
X037958Y027812D02*
X036455Y027812D01*
X036532Y027735D02*
X039494Y027735D01*
X039569Y027657D02*
X036610Y027657D01*
X036687Y027580D02*
X039534Y027580D01*
X039534Y027503D02*
X036764Y027503D01*
X036734Y028275D02*
X039423Y028275D01*
X039118Y028739D02*
X037688Y028739D01*
X037715Y029511D02*
X037615Y029511D01*
X037930Y029511D02*
X039180Y029511D01*
X039180Y029588D02*
X039110Y029588D01*
X039055Y029534D02*
X039183Y029661D01*
X039183Y029842D01*
X039055Y029970D01*
X038874Y029970D01*
X038746Y029842D01*
X038746Y029661D01*
X038874Y029534D01*
X039055Y029534D01*
X039183Y029666D02*
X039194Y029666D01*
X039183Y029743D02*
X039271Y029743D01*
X039348Y029820D02*
X039183Y029820D01*
X039128Y029897D02*
X039377Y029897D01*
X039516Y029791D02*
X039319Y029594D01*
X039516Y029791D02*
X039516Y030579D01*
X039319Y030776D01*
X039319Y031366D01*
X039555Y031445D02*
X039299Y031701D01*
X039240Y031701D01*
X039993Y032755D02*
X041226Y032755D01*
X041582Y033142D02*
X039978Y033142D01*
X039827Y033219D02*
X041526Y033219D01*
X041494Y033296D02*
X039852Y033296D01*
X039852Y033373D02*
X041482Y033373D01*
X041482Y033451D02*
X039827Y033451D01*
X039750Y033528D02*
X041500Y033528D01*
X041532Y033605D02*
X036883Y033605D01*
X036960Y033528D02*
X039518Y033528D01*
X039441Y033451D02*
X037155Y033451D01*
X037232Y033373D02*
X039415Y033373D01*
X039662Y033064D02*
X039685Y033064D01*
X039750Y033142D02*
X039762Y033142D01*
X039740Y033825D02*
X039921Y033825D01*
X040008Y033912D01*
X040095Y033825D01*
X040276Y033825D01*
X040403Y033953D01*
X040403Y034134D01*
X040276Y034262D01*
X040095Y034262D01*
X040008Y034175D01*
X039921Y034262D01*
X039740Y034262D01*
X039612Y034134D01*
X039612Y033953D01*
X039740Y033825D01*
X039728Y033837D02*
X035089Y033837D01*
X035089Y033914D02*
X035360Y033914D01*
X035410Y033864D02*
X035590Y033864D01*
X035718Y033992D01*
X035718Y034173D01*
X035590Y034301D01*
X035410Y034301D01*
X035282Y034173D01*
X035282Y033992D01*
X035410Y033864D01*
X035283Y033991D02*
X035074Y033991D01*
X034996Y034068D02*
X035282Y034068D01*
X035282Y034146D02*
X031506Y034146D01*
X031506Y034223D02*
X035331Y034223D01*
X035409Y034300D02*
X031506Y034300D01*
X031506Y034377D02*
X037691Y034377D01*
X037693Y034380D02*
X037565Y034252D01*
X037565Y034071D01*
X037693Y033943D01*
X037874Y033943D01*
X037941Y034010D01*
X038008Y033943D01*
X038189Y033943D01*
X038317Y034071D01*
X038317Y034252D01*
X038189Y034380D01*
X038008Y034380D01*
X037941Y034313D01*
X037874Y034380D01*
X037693Y034380D01*
X037613Y034300D02*
X035591Y034300D01*
X035669Y034223D02*
X037565Y034223D01*
X037565Y034146D02*
X035718Y034146D01*
X035718Y034068D02*
X037568Y034068D01*
X037645Y033991D02*
X035717Y033991D01*
X035640Y033914D02*
X039651Y033914D01*
X039612Y033991D02*
X038237Y033991D01*
X038314Y034068D02*
X039612Y034068D01*
X039624Y034146D02*
X038317Y034146D01*
X038317Y034223D02*
X039701Y034223D01*
X039857Y034377D02*
X038191Y034377D01*
X038269Y034300D02*
X040872Y034300D01*
X040872Y034331D02*
X040872Y034150D01*
X041000Y034022D01*
X041181Y034022D01*
X041309Y034150D01*
X041309Y034331D01*
X041181Y034459D01*
X041000Y034459D01*
X040872Y034331D01*
X040919Y034377D02*
X040041Y034377D01*
X040039Y034376D02*
X040167Y034504D01*
X040167Y034685D01*
X040039Y034813D01*
X040010Y034813D01*
X040010Y034961D01*
X039962Y035008D01*
X040049Y035095D01*
X040049Y035276D01*
X039982Y035343D01*
X040049Y035410D01*
X040049Y035518D01*
X040197Y035518D01*
X040325Y035646D01*
X040325Y035827D01*
X040197Y035955D01*
X040016Y035955D01*
X039888Y035827D01*
X039888Y035718D01*
X039740Y035718D01*
X039612Y035590D01*
X039612Y035410D01*
X039679Y035343D01*
X039612Y035276D01*
X039612Y035095D01*
X039660Y035047D01*
X039573Y034961D01*
X039573Y034780D01*
X039701Y034652D01*
X039730Y034652D01*
X039730Y034504D01*
X039858Y034376D01*
X040039Y034376D01*
X040118Y034455D02*
X040996Y034455D01*
X041148Y034532D02*
X040167Y034532D01*
X040167Y034609D02*
X041148Y034609D01*
X041149Y034686D02*
X040166Y034686D01*
X040089Y034764D02*
X041226Y034764D01*
X041506Y034764D02*
X041707Y034764D01*
X041598Y034686D02*
X041583Y034686D01*
X041482Y034377D02*
X041458Y034377D01*
X041493Y034300D02*
X041309Y034300D01*
X041309Y034223D02*
X041525Y034223D01*
X041577Y034146D02*
X041305Y034146D01*
X041228Y034068D02*
X041656Y034068D01*
X041697Y033759D02*
X036728Y033759D01*
X036805Y033682D02*
X041594Y033682D01*
X042059Y033759D02*
X042250Y033759D01*
X042250Y033682D02*
X042162Y033682D01*
X042224Y033605D02*
X042250Y033605D01*
X042250Y033837D02*
X040287Y033837D01*
X040365Y033914D02*
X042250Y033914D01*
X042250Y033991D02*
X040403Y033991D01*
X040403Y034068D02*
X040953Y034068D01*
X040876Y034146D02*
X040392Y034146D01*
X040314Y034223D02*
X040872Y034223D01*
X041185Y034455D02*
X041197Y034455D01*
X041262Y034377D02*
X041274Y034377D01*
X041651Y035073D02*
X040027Y035073D01*
X040049Y035150D02*
X041573Y035150D01*
X041523Y035227D02*
X040049Y035227D01*
X040020Y035304D02*
X041491Y035304D01*
X041482Y035382D02*
X040021Y035382D01*
X040049Y035459D02*
X041482Y035459D01*
X041503Y035536D02*
X040215Y035536D01*
X040292Y035613D02*
X041535Y035613D01*
X041603Y035690D02*
X040325Y035690D01*
X040325Y035768D02*
X041717Y035768D01*
X041716Y035999D02*
X035798Y035999D01*
X035796Y035922D02*
X039983Y035922D01*
X039906Y035845D02*
X035776Y035845D01*
X035735Y035768D02*
X036601Y035768D01*
X036541Y035709D02*
X036541Y035528D01*
X036669Y035400D01*
X036850Y035400D01*
X036978Y035528D01*
X036978Y035709D01*
X036850Y035837D01*
X036669Y035837D01*
X036541Y035709D01*
X036541Y035690D02*
X035670Y035690D01*
X035725Y035613D02*
X036541Y035613D01*
X036541Y035536D02*
X035757Y035536D01*
X035758Y035459D02*
X036610Y035459D01*
X036909Y035459D02*
X037093Y035459D01*
X037093Y035449D02*
X037221Y035321D01*
X037401Y035321D01*
X037529Y035449D01*
X037529Y035630D01*
X037401Y035758D01*
X037221Y035758D01*
X037093Y035630D01*
X037093Y035449D01*
X037093Y035536D02*
X036978Y035536D01*
X036978Y035613D02*
X037093Y035613D01*
X037153Y035690D02*
X036978Y035690D01*
X036919Y035768D02*
X039888Y035768D01*
X039712Y035690D02*
X037469Y035690D01*
X037529Y035613D02*
X037903Y035613D01*
X037841Y035551D02*
X037841Y035370D01*
X037969Y035242D01*
X038150Y035242D01*
X038277Y035370D01*
X038277Y035551D01*
X038150Y035679D01*
X037969Y035679D01*
X037841Y035551D01*
X037841Y035536D02*
X037529Y035536D01*
X037529Y035459D02*
X037841Y035459D01*
X037841Y035382D02*
X037462Y035382D01*
X037160Y035382D02*
X035748Y035382D01*
X035716Y035304D02*
X037906Y035304D01*
X038212Y035304D02*
X039641Y035304D01*
X039640Y035382D02*
X038277Y035382D01*
X038277Y035459D02*
X039612Y035459D01*
X039612Y035536D02*
X038277Y035536D01*
X038215Y035613D02*
X039635Y035613D01*
X039612Y035227D02*
X035647Y035227D01*
X035710Y035150D02*
X039612Y035150D01*
X039634Y035073D02*
X035742Y035073D01*
X035758Y034995D02*
X039608Y034995D01*
X039573Y034918D02*
X035758Y034918D01*
X035731Y034841D02*
X039573Y034841D01*
X039589Y034764D02*
X035683Y034764D01*
X035585Y034686D02*
X039666Y034686D01*
X039730Y034609D02*
X031506Y034609D01*
X031506Y034532D02*
X039730Y034532D01*
X039780Y034455D02*
X031506Y034455D01*
X031506Y034686D02*
X035297Y034686D01*
X035199Y034764D02*
X031506Y034764D01*
X031506Y034841D02*
X035151Y034841D01*
X035123Y034918D02*
X031506Y034918D01*
X031506Y034995D02*
X035123Y034995D01*
X035140Y035073D02*
X031506Y035073D01*
X031506Y035150D02*
X035172Y035150D01*
X035235Y035227D02*
X032656Y035227D01*
X032786Y035281D02*
X033003Y035497D01*
X033120Y035780D01*
X033120Y036086D01*
X033003Y036369D01*
X032786Y036585D01*
X032503Y036702D01*
X032197Y036702D01*
X031915Y036585D01*
X031698Y036369D01*
X031581Y036086D01*
X031581Y035780D01*
X031698Y035497D01*
X031915Y035281D01*
X032197Y035164D01*
X032503Y035164D01*
X032786Y035281D01*
X032810Y035304D02*
X035166Y035304D01*
X035134Y035382D02*
X032887Y035382D01*
X032964Y035459D02*
X035123Y035459D01*
X035124Y035536D02*
X033019Y035536D01*
X033051Y035613D02*
X035156Y035613D01*
X035212Y035690D02*
X033083Y035690D01*
X033115Y035768D02*
X035146Y035768D01*
X035106Y035845D02*
X033120Y035845D01*
X033120Y035922D02*
X035086Y035922D01*
X035083Y035999D02*
X033120Y035999D01*
X033120Y036077D02*
X035098Y036077D01*
X035134Y036154D02*
X033092Y036154D01*
X033060Y036231D02*
X035196Y036231D01*
X035164Y036308D02*
X033028Y036308D01*
X032986Y036386D02*
X035132Y036386D01*
X035123Y036463D02*
X032909Y036463D01*
X032831Y036540D02*
X035126Y036540D01*
X035158Y036617D02*
X032709Y036617D01*
X032522Y036695D02*
X035216Y036695D01*
X035339Y036772D02*
X031506Y036772D01*
X031506Y036695D02*
X032179Y036695D01*
X031992Y036617D02*
X031506Y036617D01*
X031506Y036540D02*
X031870Y036540D01*
X031792Y036463D02*
X031506Y036463D01*
X031506Y036386D02*
X031715Y036386D01*
X031673Y036308D02*
X031506Y036308D01*
X031506Y036231D02*
X031641Y036231D01*
X031609Y036154D02*
X031506Y036154D01*
X031506Y036077D02*
X031581Y036077D01*
X031581Y035999D02*
X031506Y035999D01*
X031506Y035922D02*
X031581Y035922D01*
X031581Y035845D02*
X031506Y035845D01*
X031506Y035768D02*
X031586Y035768D01*
X031618Y035690D02*
X031506Y035690D01*
X031506Y035613D02*
X031650Y035613D01*
X031682Y035536D02*
X031506Y035536D01*
X031506Y035459D02*
X031737Y035459D01*
X031814Y035382D02*
X031506Y035382D01*
X031506Y035304D02*
X031891Y035304D01*
X032045Y035227D02*
X031506Y035227D01*
X031506Y034068D02*
X034744Y034068D01*
X034667Y033991D02*
X031506Y033991D01*
X031506Y033914D02*
X034652Y033914D01*
X034652Y033837D02*
X032944Y033837D01*
X032917Y033837D02*
X032839Y033837D01*
X032812Y033837D02*
X031944Y033837D01*
X031917Y033837D02*
X031839Y033837D01*
X031812Y033837D02*
X031506Y033837D01*
X031506Y033759D02*
X031623Y033759D01*
X031540Y033682D02*
X031506Y033682D01*
X031839Y033682D02*
X031917Y033682D01*
X031917Y033605D02*
X031839Y033605D01*
X031839Y033528D02*
X031917Y033528D01*
X031917Y033451D02*
X031839Y033451D01*
X031917Y033373D02*
X032839Y033373D01*
X032839Y033451D02*
X032917Y033451D01*
X032917Y033528D02*
X032839Y033528D01*
X032839Y033605D02*
X032917Y033605D01*
X032917Y033682D02*
X032839Y033682D01*
X032839Y033759D02*
X032917Y033759D01*
X033133Y033759D02*
X033366Y033759D01*
X033289Y033682D02*
X033216Y033682D01*
X033571Y033413D02*
X033650Y033492D01*
X036602Y033492D01*
X036957Y033138D01*
X037922Y033991D02*
X037960Y033991D01*
X038006Y034377D02*
X037876Y034377D01*
X039960Y034223D02*
X040056Y034223D01*
X040083Y033837D02*
X039933Y033837D01*
X040010Y034841D02*
X042250Y034841D01*
X042250Y034918D02*
X040010Y034918D01*
X039975Y034995D02*
X042250Y034995D01*
X042250Y035073D02*
X042105Y035073D01*
X042183Y035150D02*
X042250Y035150D01*
X042250Y035227D02*
X042233Y035227D01*
X042221Y035613D02*
X042250Y035613D01*
X042250Y035690D02*
X042153Y035690D01*
X042250Y035768D02*
X042039Y035768D01*
X042250Y035845D02*
X040306Y035845D01*
X040229Y035922D02*
X042250Y035922D01*
X042250Y035999D02*
X042040Y035999D01*
X041917Y035999D02*
X041839Y035999D01*
X041839Y036077D02*
X041917Y036077D01*
X041917Y036154D02*
X041839Y036154D01*
X041839Y036231D02*
X041917Y036231D01*
X041917Y036308D02*
X041839Y036308D01*
X041839Y036386D02*
X041274Y036386D01*
X041274Y036463D02*
X041445Y036463D01*
X041463Y036540D02*
X041251Y036540D01*
X041219Y036617D02*
X041496Y036617D01*
X041550Y036695D02*
X041149Y036695D01*
X041029Y036772D02*
X041640Y036772D01*
X041452Y036308D02*
X041267Y036308D01*
X041235Y036231D02*
X041477Y036231D01*
X041522Y036154D02*
X041187Y036154D01*
X041109Y036077D02*
X041590Y036077D01*
X042166Y036077D02*
X042250Y036077D01*
X042250Y036154D02*
X042234Y036154D01*
X042250Y034764D02*
X042049Y034764D01*
X042157Y034686D02*
X042250Y034686D01*
X042250Y034609D02*
X042222Y034609D01*
X042231Y034223D02*
X042250Y034223D01*
X042250Y034146D02*
X042178Y034146D01*
X042250Y034068D02*
X042100Y034068D01*
X042229Y033219D02*
X042250Y033219D01*
X042250Y033142D02*
X042174Y033142D01*
X042250Y033064D02*
X042090Y033064D01*
X042079Y031751D02*
X042250Y031751D01*
X042250Y031674D02*
X042170Y031674D01*
X042228Y031597D02*
X042250Y031597D01*
X042226Y031211D02*
X042250Y031211D01*
X042250Y031133D02*
X042166Y031133D01*
X042250Y031056D02*
X042070Y031056D01*
X042250Y030824D02*
X041508Y030824D01*
X041585Y030747D02*
X041667Y030747D01*
X041482Y030438D02*
X041309Y030438D01*
X041300Y030361D02*
X041482Y030361D01*
X041500Y030284D02*
X041222Y030284D01*
X042089Y030747D02*
X042250Y030747D01*
X042250Y030670D02*
X042174Y030670D01*
X042229Y030593D02*
X042250Y030593D01*
X042250Y029820D02*
X039812Y029820D01*
X039812Y029897D02*
X039967Y029897D01*
X039890Y029975D02*
X039812Y029975D01*
X039812Y030052D02*
X039888Y030052D01*
X039888Y030129D02*
X039812Y030129D01*
X039812Y030206D02*
X039937Y030206D01*
X040014Y030284D02*
X039812Y030284D01*
X038819Y029588D02*
X038008Y029588D01*
X038041Y029666D02*
X038746Y029666D01*
X038746Y029743D02*
X038041Y029743D01*
X038024Y029820D02*
X038746Y029820D01*
X038801Y029897D02*
X037947Y029897D01*
X037699Y029897D02*
X037632Y029897D01*
X038293Y027426D02*
X039534Y027426D01*
X039602Y027349D02*
X038356Y027349D01*
X038356Y027271D02*
X039652Y027271D01*
X039652Y027194D02*
X038356Y027194D01*
X039298Y026499D02*
X040283Y026499D01*
X040283Y026422D02*
X039375Y026422D01*
X039419Y026344D02*
X040283Y026344D01*
X040283Y026267D02*
X039419Y026267D01*
X039412Y026190D02*
X040283Y026190D01*
X040283Y026113D02*
X039335Y026113D01*
X039413Y026035D02*
X040283Y026035D01*
X040283Y025958D02*
X039490Y025958D01*
X039567Y025881D02*
X040283Y025881D01*
X040283Y025804D02*
X039644Y025804D01*
X042231Y029588D02*
X042250Y029588D01*
X042250Y029666D02*
X042178Y029666D01*
X042250Y029743D02*
X042099Y029743D01*
X033744Y032833D02*
X033344Y032833D01*
X033267Y032755D02*
X033667Y032755D01*
X033667Y032678D02*
X033166Y032678D01*
X032553Y033064D02*
X032150Y033064D01*
X032225Y033142D02*
X032531Y033142D01*
X032484Y033219D02*
X032272Y033219D01*
X032301Y033296D02*
X032455Y033296D01*
X032443Y033451D02*
X032312Y033451D01*
X032297Y033528D02*
X032459Y033528D01*
X032490Y033605D02*
X032266Y033605D01*
X032216Y033682D02*
X032540Y033682D01*
X032623Y033759D02*
X032133Y033759D01*
X031917Y033759D02*
X031839Y033759D01*
X031839Y033296D02*
X031917Y033296D01*
X031917Y033219D02*
X031839Y033219D01*
X031839Y033142D02*
X031917Y033142D01*
X031917Y033064D02*
X031839Y033064D01*
X031839Y032987D02*
X031917Y032987D01*
X032002Y032987D02*
X032476Y032987D01*
X032399Y032910D02*
X031506Y032910D01*
X031506Y032987D02*
X031754Y032987D01*
X031605Y033064D02*
X031506Y033064D01*
X031506Y033142D02*
X031531Y033142D01*
X031506Y032833D02*
X032321Y032833D01*
X032244Y032755D02*
X032069Y032755D01*
X032166Y032678D02*
X032172Y032678D01*
X031687Y032755D02*
X031506Y032755D01*
X031506Y032678D02*
X031590Y032678D01*
X031530Y032601D02*
X031506Y032601D01*
X035784Y036077D02*
X036347Y036077D01*
X036394Y036030D02*
X036575Y036030D01*
X036703Y036158D01*
X036703Y036339D01*
X036575Y036466D01*
X036394Y036466D01*
X036266Y036339D01*
X036266Y036158D01*
X036394Y036030D01*
X036269Y036154D02*
X035748Y036154D01*
X035686Y036231D02*
X036266Y036231D01*
X036266Y036308D02*
X035717Y036308D01*
X035749Y036386D02*
X036313Y036386D01*
X036390Y036463D02*
X035758Y036463D01*
X035756Y036540D02*
X039505Y036540D01*
X039482Y036463D02*
X036578Y036463D01*
X036656Y036386D02*
X039482Y036386D01*
X039489Y036308D02*
X036703Y036308D01*
X036703Y036231D02*
X039521Y036231D01*
X039569Y036154D02*
X036699Y036154D01*
X036622Y036077D02*
X039646Y036077D01*
X040109Y036077D02*
X040646Y036077D01*
X040569Y036154D02*
X040187Y036154D01*
X040235Y036231D02*
X040521Y036231D01*
X040489Y036308D02*
X040267Y036308D01*
X040274Y036386D02*
X040482Y036386D01*
X040482Y036463D02*
X040274Y036463D01*
X040251Y036540D02*
X040505Y036540D01*
X040537Y036617D02*
X040219Y036617D01*
X040149Y036695D02*
X040607Y036695D01*
X040727Y036772D02*
X040029Y036772D01*
X039727Y036772D02*
X035543Y036772D01*
X035666Y036695D02*
X039607Y036695D01*
X039537Y036617D02*
X035724Y036617D01*
D14*
X036366Y036681D03*
X036484Y036248D03*
X036091Y035736D03*
X036760Y035618D03*
X037311Y035539D03*
X037823Y036051D03*
X038335Y035697D03*
X038059Y035461D03*
X038413Y034398D03*
X038098Y034161D03*
X037783Y034161D03*
X038413Y033925D03*
X037429Y033138D03*
X037193Y032941D03*
X036957Y033138D03*
X036839Y032823D03*
X036839Y032508D03*
X037232Y032154D03*
X037154Y031760D03*
X037350Y031524D03*
X037154Y031287D03*
X037350Y031051D03*
X037311Y030618D03*
X038020Y030539D03*
X038335Y030303D03*
X037823Y029713D03*
X037508Y029713D03*
X036524Y029594D03*
X035618Y029673D03*
X035067Y029949D03*
X034988Y030264D03*
X034319Y029752D03*
X034949Y029004D03*
X036445Y028650D03*
X036563Y028138D03*
X036996Y028689D03*
X037547Y028571D03*
X038059Y028020D03*
X038138Y027272D03*
X038374Y026917D03*
X038335Y026406D03*
X039083Y026602D03*
X039201Y026287D03*
X039870Y026917D03*
X039870Y027232D03*
X039752Y027508D03*
X039713Y027823D03*
X039909Y028059D03*
X039555Y028098D03*
X039949Y028689D03*
X039870Y029004D03*
X039791Y029319D03*
X039555Y029516D03*
X038965Y029752D03*
X039280Y028886D03*
X040382Y028413D03*
X041091Y028571D03*
X041366Y028728D03*
X041524Y027941D03*
X040657Y027626D03*
X040657Y027232D03*
X040185Y026720D03*
X040185Y026327D03*
X040657Y026406D03*
X041091Y026681D03*
X041366Y026957D03*
X042114Y026839D03*
X041602Y026091D03*
X040933Y025146D03*
X040933Y024870D03*
X041130Y024634D03*
X041130Y024319D03*
X040815Y024476D03*
X040815Y024004D03*
X040854Y023531D03*
X040894Y023177D03*
X041996Y023059D03*
X041563Y021760D03*
X039240Y023689D03*
X039870Y024201D03*
X039909Y024988D03*
X039437Y025165D03*
X039988Y025500D03*
X038650Y025539D03*
X038098Y025461D03*
X038256Y024909D03*
X038256Y024555D03*
X037508Y024909D03*
X036720Y024280D03*
X035854Y024280D03*
X035461Y023925D03*
X035146Y023965D03*
X035539Y023531D03*
X035539Y023217D03*
X035776Y022547D03*
X034634Y022114D03*
X034319Y022114D03*
X034004Y022114D03*
X034240Y021602D03*
X033531Y023335D03*
X032429Y023650D03*
X032154Y024122D03*
X032508Y024280D03*
X032390Y025461D03*
X033492Y026602D03*
X033571Y026917D03*
X033256Y027508D03*
X032390Y027823D03*
X032114Y026839D03*
X034949Y027626D03*
X035697Y026839D03*
X036051Y026248D03*
X036563Y026878D03*
X036327Y027232D03*
X037429Y027232D03*
X039043Y027390D03*
X040657Y029122D03*
X040657Y029516D03*
X040106Y030067D03*
X040421Y030303D03*
X041091Y030461D03*
X041366Y030657D03*
X040657Y031012D03*
X040657Y031406D03*
X040106Y031957D03*
X039949Y032311D03*
X040461Y032193D03*
X041091Y032350D03*
X041366Y032587D03*
X040657Y032902D03*
X040657Y033295D03*
X039870Y032941D03*
X039555Y032862D03*
X039634Y033335D03*
X039831Y034043D03*
X040185Y034043D03*
X039949Y034594D03*
X039791Y034870D03*
X039831Y035185D03*
X039831Y035500D03*
X040106Y035736D03*
X040657Y035776D03*
X040657Y035185D03*
X040657Y034791D03*
X041091Y034240D03*
X041366Y034594D03*
X037823Y032783D03*
X038335Y031839D03*
X038335Y031524D03*
X038217Y031130D03*
X039319Y031366D03*
X039240Y031701D03*
X039713Y030933D03*
X039280Y030421D03*
X036091Y030697D03*
X035382Y031366D03*
X035185Y031602D03*
X035028Y031878D03*
X034870Y032154D03*
X035461Y032035D03*
X035776Y032744D03*
X035972Y032980D03*
X035421Y032941D03*
X034988Y032783D03*
X033886Y032665D03*
X033886Y032350D03*
X033728Y031484D03*
X033925Y030776D03*
X032390Y029870D03*
X032232Y031957D03*
X033571Y033413D03*
X033217Y034555D03*
X033650Y035146D03*
X035028Y034201D03*
X034870Y033886D03*
X035500Y034083D03*
X037075Y034437D03*
X037705Y036681D03*
X034437Y036681D03*
X031602Y034280D03*
X036366Y032114D03*
X035697Y025264D03*
X034043Y023965D03*
X036681Y022823D03*
X037075Y022193D03*
X037469Y023059D03*
X038374Y022902D03*
X038374Y023335D03*
X041996Y024949D03*
M02*
