G75*
G70*
%OFA0B0*%
%FSLAX24Y24*%
%IPPOS*%
%LPD*%
%AMOC8*
5,1,8,0,0,1.08239X$1,22.5*
%
%ADD10C,0.0030*%
%ADD11C,0.0100*%
%ADD12C,0.0079*%
%ADD13C,0.0050*%
%ADD14R,0.0630X0.0197*%
%ADD15C,0.0090*%
%ADD16C,0.0080*%
%ADD17R,0.0197X0.0630*%
%ADD18C,0.0200*%
D10*
X039493Y021385D02*
X039541Y021337D01*
X039638Y021337D01*
X039686Y021385D01*
X039686Y021482D01*
X039638Y021530D01*
X039589Y021530D01*
X039493Y021482D01*
X039493Y021627D01*
X039686Y021627D01*
X039787Y021627D02*
X039787Y021433D01*
X039884Y021337D01*
X039981Y021433D01*
X039981Y021627D01*
X039981Y021730D02*
X039787Y022021D01*
X039686Y022021D02*
X039493Y022021D01*
X039589Y022021D02*
X039589Y021730D01*
X039787Y021730D02*
X039981Y022021D01*
X039981Y022124D02*
X039787Y022414D01*
X039686Y022366D02*
X039686Y022269D01*
X039638Y022221D01*
X039493Y022221D01*
X039589Y022221D02*
X039686Y022124D01*
X039787Y022124D02*
X039981Y022414D01*
X039686Y022366D02*
X039638Y022414D01*
X039493Y022414D01*
X039493Y022124D01*
X033816Y031225D02*
X033864Y031273D01*
X033864Y031322D01*
X033816Y031370D01*
X033574Y031370D01*
X033574Y031322D02*
X033574Y031418D01*
X033622Y031520D02*
X033671Y031520D01*
X033719Y031568D01*
X033719Y031665D01*
X033767Y031713D01*
X033816Y031713D01*
X033864Y031665D01*
X033864Y031568D01*
X033816Y031520D01*
X033767Y031520D01*
X033719Y031568D01*
X033719Y031665D02*
X033671Y031713D01*
X033622Y031713D01*
X033574Y031665D01*
X033574Y031568D01*
X033622Y031520D01*
X036351Y034315D02*
X036544Y034315D01*
X036592Y034363D01*
X036592Y034460D01*
X036544Y034508D01*
X036447Y034508D01*
X036447Y034412D01*
X036351Y034508D02*
X036302Y034460D01*
X036302Y034363D01*
X036351Y034315D01*
X036656Y034363D02*
X036656Y034460D01*
X036705Y034508D01*
X036898Y034315D01*
X036947Y034363D01*
X036947Y034460D01*
X036898Y034508D01*
X036705Y034508D01*
X036656Y034363D02*
X036705Y034315D01*
X036898Y034315D01*
X036802Y034214D02*
X036850Y034165D01*
X036850Y034020D01*
X036947Y034020D02*
X036656Y034020D01*
X036656Y034165D01*
X036705Y034214D01*
X036802Y034214D01*
X037208Y034165D02*
X037256Y034214D01*
X037353Y034214D01*
X037401Y034165D01*
X037401Y034020D01*
X037498Y034020D02*
X037208Y034020D01*
X037208Y034165D01*
X037304Y034315D02*
X037208Y034412D01*
X037498Y034412D01*
X037562Y034460D02*
X037610Y034508D01*
X037659Y034508D01*
X037707Y034460D01*
X037707Y034315D01*
X037707Y034460D02*
X037755Y034508D01*
X037804Y034508D01*
X037852Y034460D01*
X037852Y034315D01*
X037562Y034315D01*
X037562Y034460D01*
X037498Y034508D02*
X037498Y034315D01*
X037956Y034315D02*
X038149Y034315D01*
X038246Y034412D01*
X038149Y034508D01*
X037956Y034508D01*
D11*
X041135Y034145D02*
X041135Y034072D01*
X041172Y034035D01*
X041245Y034035D01*
X041282Y034072D01*
X041282Y034145D01*
X041245Y034182D01*
X041172Y034182D01*
X041135Y034145D01*
X041172Y032292D02*
X041135Y032255D01*
X041135Y032182D01*
X041172Y032145D01*
X041245Y032145D01*
X041282Y032182D01*
X041282Y032255D01*
X041245Y032292D01*
X041172Y032292D01*
X041172Y030402D02*
X041135Y030365D01*
X041135Y030292D01*
X041172Y030255D01*
X041245Y030255D01*
X041282Y030292D01*
X041282Y030365D01*
X041245Y030402D01*
X041172Y030402D01*
X041172Y028512D02*
X041135Y028476D01*
X041135Y028402D01*
X041172Y028366D01*
X041245Y028366D01*
X041282Y028402D01*
X041282Y028476D01*
X041245Y028512D01*
X041172Y028512D01*
X039752Y028259D02*
X039752Y028185D01*
X039715Y028148D01*
X039642Y028148D01*
X039605Y028185D01*
X039605Y028259D01*
X039642Y028295D01*
X039715Y028295D01*
X039752Y028259D01*
X041332Y026743D02*
X041332Y026670D01*
X041369Y026633D01*
X041442Y026633D01*
X041479Y026670D01*
X041479Y026743D01*
X041442Y026780D01*
X041369Y026780D01*
X041332Y026743D01*
X037655Y025030D02*
X037655Y024957D01*
X037618Y024920D01*
X037545Y024920D01*
X037508Y024957D01*
X037508Y025030D01*
X037545Y025067D01*
X037618Y025067D01*
X037655Y025030D01*
X035418Y022292D02*
X035345Y022292D01*
X035308Y022255D01*
X035308Y022182D01*
X035345Y022145D01*
X035418Y022145D01*
X035455Y022182D01*
X035455Y022255D01*
X035418Y022292D01*
X034421Y029364D02*
X034347Y029364D01*
X034310Y029401D01*
X034310Y029474D01*
X034347Y029511D01*
X034421Y029511D01*
X034457Y029474D01*
X034457Y029401D01*
X034421Y029364D01*
X032931Y034133D02*
X032998Y034199D01*
X032998Y034466D01*
X032931Y034533D01*
X032731Y034533D01*
X032731Y034133D01*
X032931Y034133D01*
X032537Y034133D02*
X032537Y034533D01*
X032270Y034533D02*
X032537Y034133D01*
X032270Y034133D02*
X032270Y034533D01*
X032077Y034466D02*
X032010Y034533D01*
X031877Y034533D01*
X031810Y034466D01*
X031810Y034199D01*
X031877Y034133D01*
X032010Y034133D01*
X032077Y034199D01*
X032077Y034333D01*
X031943Y034333D01*
D12*
X031957Y023768D02*
X032980Y023768D01*
X032705Y023965D02*
X032429Y024122D01*
X032705Y024280D01*
X032705Y023965D01*
X032665Y024043D02*
X032547Y024122D01*
X032665Y024122D01*
X032665Y024043D01*
X032665Y024122D02*
X032665Y024201D01*
X032469Y024122D01*
X032980Y024476D02*
X031957Y024476D01*
X032626Y024791D02*
X033177Y024791D01*
X034083Y024772D02*
X034083Y024102D01*
X034476Y024102D01*
X034476Y024772D01*
X034083Y024772D01*
X034240Y024791D02*
X034240Y025106D01*
X034594Y024772D02*
X034594Y024102D01*
X034988Y024102D01*
X034988Y024772D01*
X034594Y024772D01*
X034732Y024988D02*
X035402Y024988D01*
X035402Y025382D01*
X034732Y025382D01*
X034732Y024988D01*
X035106Y024772D02*
X035106Y024102D01*
X035500Y024102D01*
X035500Y024772D01*
X035106Y024772D01*
X035618Y025146D02*
X037429Y025146D01*
X037429Y023413D01*
X035618Y023413D01*
X035618Y025146D01*
X036012Y025343D02*
X037035Y025343D01*
X036760Y025539D02*
X036484Y025697D01*
X036760Y025854D01*
X036760Y025539D01*
X036720Y025618D02*
X036602Y025697D01*
X036720Y025697D01*
X036720Y025618D01*
X036720Y025697D02*
X036720Y025776D01*
X036524Y025697D01*
X037035Y026051D02*
X036012Y026051D01*
X036209Y026287D02*
X036839Y026287D01*
X036839Y026720D02*
X036839Y027035D01*
X036839Y027469D02*
X036209Y027469D01*
X036445Y027744D02*
X035028Y027744D01*
X035028Y028531D01*
X036445Y028531D01*
X036445Y027744D01*
X037075Y027547D02*
X037705Y027547D01*
X037508Y027429D02*
X038138Y027429D01*
X038138Y026327D01*
X037508Y026327D01*
X037508Y027429D01*
X037705Y027980D02*
X037705Y028295D01*
X037705Y028728D02*
X037075Y028728D01*
X038335Y029024D02*
X038335Y028354D01*
X038728Y028354D01*
X038728Y029024D01*
X038335Y029024D01*
X038295Y029437D02*
X038571Y029437D01*
X038571Y029713D01*
X038846Y029024D02*
X038846Y028354D01*
X039240Y028354D01*
X039240Y029024D01*
X038846Y029024D01*
X039358Y029024D02*
X039358Y028354D01*
X039752Y028354D01*
X039752Y029024D01*
X039358Y029024D01*
X040106Y028650D02*
X040106Y028571D01*
X041130Y028571D01*
X041209Y028650D01*
X041209Y028571D01*
X041130Y028571D01*
X041209Y028177D02*
X040106Y028177D01*
X040106Y028098D01*
X039713Y027941D02*
X039713Y026681D01*
X038374Y026681D01*
X038374Y028177D01*
X039476Y028177D01*
X039713Y027941D01*
X040106Y026760D02*
X040106Y026681D01*
X041130Y026681D01*
X041209Y026760D01*
X041209Y026681D01*
X041130Y026681D01*
X041366Y026524D02*
X040539Y026524D01*
X040539Y026366D01*
X039929Y026169D02*
X039929Y026563D01*
X039260Y026563D01*
X039260Y026169D01*
X039929Y026169D01*
X039929Y026091D02*
X039260Y026091D01*
X039260Y025697D01*
X039929Y025697D01*
X039929Y026091D01*
X039929Y025618D02*
X039260Y025618D01*
X039260Y025224D01*
X039929Y025224D01*
X039929Y025618D01*
X039929Y025146D02*
X039260Y025146D01*
X039260Y024752D01*
X039929Y024752D01*
X039929Y025146D01*
X039929Y024673D02*
X039260Y024673D01*
X039260Y024280D01*
X039929Y024280D01*
X039929Y024673D01*
X040539Y024398D02*
X040539Y024240D01*
X041366Y024240D01*
X041366Y023768D02*
X040539Y023768D01*
X040539Y023610D01*
X039929Y023453D02*
X039260Y023453D01*
X039260Y023846D01*
X039929Y023846D01*
X039929Y023453D01*
X039102Y023531D02*
X039102Y023138D01*
X038433Y023138D01*
X038433Y023531D01*
X039102Y023531D01*
X038689Y023689D02*
X038059Y023689D01*
X038315Y023531D02*
X037646Y023531D01*
X037646Y023138D01*
X038315Y023138D01*
X038315Y023531D01*
X037429Y022862D02*
X037429Y021839D01*
X037232Y022114D02*
X037075Y022390D01*
X036917Y022114D01*
X037232Y022114D01*
X037154Y022154D02*
X037075Y022154D01*
X037075Y022272D01*
X036996Y022154D01*
X037075Y022154D01*
X037154Y022154D02*
X037075Y022350D01*
X036720Y021839D02*
X036720Y022862D01*
X036642Y023335D02*
X035618Y023335D01*
X035618Y021366D01*
X036642Y021366D01*
X036642Y023335D01*
X035343Y023571D02*
X035343Y023846D01*
X035067Y023846D01*
X034122Y023846D02*
X033846Y023846D01*
X033846Y023571D01*
X033846Y022626D02*
X033846Y022350D01*
X034122Y022350D01*
X034201Y022016D02*
X033807Y022016D01*
X033807Y021346D01*
X034201Y021346D01*
X034201Y022016D01*
X034319Y021996D02*
X035421Y021996D01*
X035421Y021366D01*
X034319Y021366D01*
X034319Y021996D01*
X035067Y022350D02*
X035185Y022350D01*
X035343Y022508D01*
X035343Y022626D01*
X038059Y024870D02*
X038217Y024870D01*
X038217Y024713D01*
X038217Y024870D02*
X038689Y024870D01*
X038433Y025028D02*
X039102Y025028D01*
X039102Y025421D01*
X038433Y025421D01*
X038433Y025028D01*
X038315Y025028D02*
X037646Y025028D01*
X037646Y025421D01*
X038315Y025421D01*
X038315Y025028D01*
X038610Y025579D02*
X037508Y025579D01*
X037508Y026209D01*
X038610Y026209D01*
X038610Y025579D01*
X038728Y025559D02*
X039122Y025559D01*
X039122Y026228D01*
X038728Y026228D01*
X038728Y025559D01*
X041378Y026906D02*
X041378Y029906D01*
X041378Y032906D01*
X041378Y035906D01*
X042378Y035906D01*
X042378Y036906D01*
X039378Y036906D01*
X039378Y035906D01*
X042378Y035906D01*
X042378Y032906D01*
X041378Y032906D01*
X042378Y032906D01*
X042378Y029906D01*
X041378Y029906D01*
X042378Y029906D01*
X042378Y026906D01*
X041378Y026906D01*
X041209Y028098D02*
X041209Y028177D01*
X041209Y029988D02*
X041209Y030067D01*
X040106Y030067D01*
X040106Y029988D01*
X039752Y029929D02*
X039752Y030598D01*
X039358Y030598D01*
X039358Y029929D01*
X039752Y029929D01*
X040106Y030461D02*
X040106Y030539D01*
X040106Y030461D02*
X041130Y030461D01*
X041209Y030539D01*
X041209Y030461D01*
X041130Y030461D01*
X041209Y031878D02*
X041209Y031957D01*
X040106Y031957D01*
X040106Y031878D01*
X039752Y031976D02*
X039358Y031976D01*
X039358Y031307D01*
X039752Y031307D01*
X039752Y031976D01*
X039752Y032173D02*
X039752Y032843D01*
X039358Y032843D01*
X039358Y032173D01*
X039752Y032173D01*
X040106Y032350D02*
X040106Y032429D01*
X040106Y032350D02*
X041130Y032350D01*
X041209Y032429D01*
X041209Y032350D01*
X041130Y032350D01*
X041209Y033768D02*
X041209Y033846D01*
X040106Y033846D01*
X040106Y033768D01*
X039752Y033728D02*
X038728Y033728D01*
X038728Y035697D01*
X039752Y035697D01*
X039752Y033728D01*
X040106Y034240D02*
X040106Y034319D01*
X040106Y034240D02*
X041130Y034240D01*
X041209Y034319D01*
X041209Y034240D01*
X041130Y034240D01*
X041209Y035657D02*
X041209Y035736D01*
X040106Y035736D01*
X040106Y035657D01*
X038610Y035894D02*
X038610Y035067D01*
X038453Y035067D01*
X038059Y036681D02*
X036484Y036681D01*
X035691Y036720D02*
X035691Y034720D01*
X035191Y034720D01*
X035191Y036720D01*
X035691Y036720D01*
X035106Y036720D02*
X035106Y035618D01*
X034476Y035618D01*
X034476Y036720D01*
X035106Y036720D01*
X034398Y036720D02*
X034398Y035618D01*
X033768Y035618D01*
X033768Y036720D01*
X034398Y036720D01*
X034417Y035539D02*
X033748Y035539D01*
X033748Y035146D01*
X034417Y035146D01*
X034417Y035539D01*
X034594Y035520D02*
X034594Y034850D01*
X034988Y034850D01*
X034988Y035520D01*
X034594Y035520D01*
X034417Y035067D02*
X033748Y035067D01*
X033748Y034673D01*
X034417Y034673D01*
X034417Y035067D01*
X034417Y034594D02*
X033748Y034594D01*
X033748Y034201D01*
X034417Y034201D01*
X034417Y034594D01*
X033378Y033706D02*
X033178Y033906D01*
X032578Y033906D01*
X032378Y033706D01*
X032378Y031106D01*
X032578Y030906D01*
X033178Y030906D01*
X033378Y030706D01*
X033378Y030106D01*
X033178Y029906D01*
X033078Y029906D01*
X033378Y029606D01*
X033378Y029206D01*
X033078Y028906D01*
X032678Y028906D01*
X032378Y029206D01*
X032378Y029106D01*
X032178Y028906D01*
X031578Y028906D01*
X031378Y029106D01*
X031378Y030706D01*
X031578Y030906D01*
X032178Y030906D01*
X032378Y030706D01*
X032578Y030906D01*
X032378Y031106D02*
X032178Y030906D01*
X032378Y030706D02*
X032378Y030106D01*
X032378Y029706D01*
X032378Y029606D01*
X032678Y029906D01*
X032578Y029906D01*
X032378Y029706D01*
X032378Y029606D02*
X032378Y029206D01*
X032378Y029106D02*
X032578Y028906D01*
X032678Y028906D01*
X033078Y028906D02*
X033178Y028906D01*
X033378Y029106D01*
X033378Y029206D01*
X033378Y029606D02*
X033378Y029706D01*
X033178Y029906D01*
X033078Y029906D02*
X032678Y029906D01*
X032578Y029906D02*
X032378Y030106D01*
X033492Y029811D02*
X033492Y030480D01*
X033886Y030480D01*
X033886Y029811D01*
X033492Y029811D01*
X033492Y030677D02*
X033886Y030677D01*
X033886Y031346D01*
X033492Y031346D01*
X033492Y030677D01*
X033178Y030906D02*
X033378Y031106D01*
X033378Y033706D01*
X032378Y033706D02*
X032178Y033906D01*
X031578Y033906D01*
X031378Y033706D01*
X031378Y031106D01*
X031578Y030906D01*
X034634Y029713D02*
X034909Y029437D01*
X034634Y029437D01*
X034634Y029713D01*
X034831Y029260D02*
X034831Y028591D01*
X034437Y028591D01*
X034437Y029260D01*
X034831Y029260D01*
X034831Y028433D02*
X034437Y028433D01*
X034437Y027764D01*
X034831Y027764D01*
X034831Y028433D01*
X034240Y028413D02*
X034240Y028098D01*
X034555Y027587D02*
X035579Y027587D01*
X035579Y026484D01*
X034555Y026484D01*
X034555Y027587D01*
X034555Y026484D02*
X034555Y026406D01*
X035579Y026406D01*
X035579Y025618D01*
X034555Y025618D01*
X034555Y026406D01*
X035579Y026406D02*
X035579Y026484D01*
X033177Y028413D02*
X032626Y028413D01*
X034634Y033098D02*
X034634Y033374D01*
X034909Y033374D01*
X035933Y035067D02*
X036091Y035067D01*
X035933Y035067D02*
X035933Y035894D01*
X038295Y033374D02*
X038571Y033374D01*
X038571Y033098D01*
X042154Y025972D02*
X042154Y024791D01*
X042154Y023217D02*
X042154Y022035D01*
X041366Y021484D02*
X040539Y021484D01*
X040539Y021642D01*
D13*
X034949Y036091D02*
X034634Y036091D01*
X034791Y036248D01*
X034791Y036169D01*
X034752Y036169D01*
X034791Y036248D01*
X034831Y036169D01*
X034791Y036169D01*
X034791Y036248D02*
X034713Y036130D01*
X034870Y036130D01*
X034791Y036248D01*
X034949Y036091D01*
X034909Y036130D02*
X034673Y036130D01*
X034240Y036091D02*
X034083Y036248D01*
X034083Y036169D01*
X034043Y036169D01*
X034083Y036248D01*
X034122Y036169D01*
X034083Y036169D01*
X034083Y036248D02*
X034004Y036130D01*
X034161Y036130D01*
X034083Y036248D01*
X033925Y036091D01*
X034240Y036091D01*
X034201Y036130D02*
X033965Y036130D01*
D14*
X037075Y022606D03*
D15*
X037767Y022923D02*
X037996Y022923D01*
X037882Y022809D02*
X037882Y023038D01*
X038886Y023038D02*
X038886Y022809D01*
D16*
X035283Y022449D02*
X035244Y022409D01*
D17*
X032213Y024122D03*
X036268Y025697D03*
D18*
X032454Y029406D02*
X032456Y029447D01*
X032462Y029487D01*
X032472Y029527D01*
X032485Y029566D01*
X032503Y029603D01*
X032523Y029638D01*
X032547Y029672D01*
X032575Y029702D01*
X032605Y029730D01*
X032637Y029755D01*
X032672Y029777D01*
X032709Y029795D01*
X032747Y029809D01*
X032787Y029820D01*
X032827Y029827D01*
X032868Y029830D01*
X032909Y029829D01*
X032949Y029824D01*
X032989Y029815D01*
X033028Y029802D01*
X033066Y029786D01*
X033102Y029766D01*
X033135Y029743D01*
X033167Y029716D01*
X033195Y029687D01*
X033221Y029655D01*
X033243Y029621D01*
X033263Y029585D01*
X033278Y029547D01*
X033290Y029507D01*
X033298Y029467D01*
X033302Y029426D01*
X033302Y029386D01*
X033298Y029345D01*
X033290Y029305D01*
X033278Y029265D01*
X033263Y029227D01*
X033243Y029191D01*
X033221Y029157D01*
X033195Y029125D01*
X033167Y029096D01*
X033135Y029069D01*
X033102Y029046D01*
X033066Y029026D01*
X033028Y029010D01*
X032989Y028997D01*
X032949Y028988D01*
X032909Y028983D01*
X032868Y028982D01*
X032827Y028985D01*
X032787Y028992D01*
X032747Y029003D01*
X032709Y029017D01*
X032672Y029035D01*
X032637Y029057D01*
X032605Y029082D01*
X032575Y029110D01*
X032547Y029140D01*
X032523Y029174D01*
X032503Y029209D01*
X032485Y029246D01*
X032472Y029285D01*
X032462Y029325D01*
X032456Y029365D01*
X032454Y029406D01*
M02*
