G75*
G70*
%OFA0B0*%
%FSLAX24Y24*%
%IPPOS*%
%LPD*%
%AMOC8*
5,1,8,0,0,1.08239X$1,22.5*
%
%ADD10C,0.0000*%
D10*
X031366Y021169D02*
X031366Y036917D01*
X042390Y036917D01*
X042390Y021169D01*
X031366Y021169D01*
X031720Y022154D02*
X031722Y022204D01*
X031728Y022254D01*
X031738Y022303D01*
X031752Y022351D01*
X031769Y022398D01*
X031790Y022443D01*
X031815Y022487D01*
X031843Y022528D01*
X031875Y022567D01*
X031909Y022604D01*
X031946Y022638D01*
X031986Y022668D01*
X032028Y022695D01*
X032072Y022719D01*
X032118Y022740D01*
X032165Y022756D01*
X032213Y022769D01*
X032263Y022778D01*
X032312Y022783D01*
X032363Y022784D01*
X032413Y022781D01*
X032462Y022774D01*
X032511Y022763D01*
X032559Y022748D01*
X032605Y022730D01*
X032650Y022708D01*
X032693Y022682D01*
X032734Y022653D01*
X032773Y022621D01*
X032809Y022586D01*
X032841Y022548D01*
X032871Y022508D01*
X032898Y022465D01*
X032921Y022421D01*
X032940Y022375D01*
X032956Y022327D01*
X032968Y022278D01*
X032976Y022229D01*
X032980Y022179D01*
X032980Y022129D01*
X032976Y022079D01*
X032968Y022030D01*
X032956Y021981D01*
X032940Y021933D01*
X032921Y021887D01*
X032898Y021843D01*
X032871Y021800D01*
X032841Y021760D01*
X032809Y021722D01*
X032773Y021687D01*
X032734Y021655D01*
X032693Y021626D01*
X032650Y021600D01*
X032605Y021578D01*
X032559Y021560D01*
X032511Y021545D01*
X032462Y021534D01*
X032413Y021527D01*
X032363Y021524D01*
X032312Y021525D01*
X032263Y021530D01*
X032213Y021539D01*
X032165Y021552D01*
X032118Y021568D01*
X032072Y021589D01*
X032028Y021613D01*
X031986Y021640D01*
X031946Y021670D01*
X031909Y021704D01*
X031875Y021741D01*
X031843Y021780D01*
X031815Y021821D01*
X031790Y021865D01*
X031769Y021910D01*
X031752Y021957D01*
X031738Y022005D01*
X031728Y022054D01*
X031722Y022104D01*
X031720Y022154D01*
X031878Y024781D02*
X032272Y024781D01*
X032272Y024782D02*
X032292Y024784D01*
X032312Y024789D01*
X032331Y024798D01*
X032348Y024810D01*
X032362Y024824D01*
X032374Y024841D01*
X032383Y024860D01*
X032388Y024880D01*
X032390Y024900D01*
X032388Y024920D01*
X032383Y024940D01*
X032374Y024959D01*
X032362Y024976D01*
X032348Y024990D01*
X032331Y025002D01*
X032312Y025011D01*
X032292Y025016D01*
X032272Y025018D01*
X031878Y025018D01*
X031858Y025016D01*
X031838Y025011D01*
X031819Y025002D01*
X031802Y024990D01*
X031788Y024976D01*
X031776Y024959D01*
X031767Y024940D01*
X031762Y024920D01*
X031760Y024900D01*
X031762Y024880D01*
X031767Y024860D01*
X031776Y024841D01*
X031788Y024824D01*
X031802Y024810D01*
X031819Y024798D01*
X031838Y024789D01*
X031858Y024784D01*
X031878Y024782D01*
X033531Y024781D02*
X033925Y024781D01*
X033925Y024782D02*
X033945Y024784D01*
X033965Y024789D01*
X033984Y024798D01*
X034001Y024810D01*
X034015Y024824D01*
X034027Y024841D01*
X034036Y024860D01*
X034041Y024880D01*
X034043Y024900D01*
X034041Y024920D01*
X034036Y024940D01*
X034027Y024959D01*
X034015Y024976D01*
X034001Y024990D01*
X033984Y025002D01*
X033965Y025011D01*
X033945Y025016D01*
X033925Y025018D01*
X033531Y025018D01*
X033511Y025016D01*
X033491Y025011D01*
X033472Y025002D01*
X033455Y024990D01*
X033441Y024976D01*
X033429Y024959D01*
X033420Y024940D01*
X033415Y024920D01*
X033413Y024900D01*
X033415Y024880D01*
X033420Y024860D01*
X033429Y024841D01*
X033441Y024824D01*
X033455Y024810D01*
X033472Y024798D01*
X033491Y024789D01*
X033511Y024784D01*
X033531Y024782D01*
X033433Y025465D02*
X033435Y025484D01*
X033440Y025503D01*
X033450Y025519D01*
X033462Y025534D01*
X033477Y025546D01*
X033493Y025556D01*
X033512Y025561D01*
X033531Y025563D01*
X033550Y025561D01*
X033569Y025556D01*
X033585Y025546D01*
X033600Y025534D01*
X033612Y025519D01*
X033622Y025503D01*
X033627Y025484D01*
X033629Y025465D01*
X033627Y025446D01*
X033622Y025427D01*
X033612Y025411D01*
X033600Y025396D01*
X033585Y025384D01*
X033569Y025374D01*
X033550Y025369D01*
X033531Y025367D01*
X033512Y025369D01*
X033493Y025374D01*
X033477Y025384D01*
X033462Y025396D01*
X033450Y025411D01*
X033440Y025427D01*
X033435Y025446D01*
X033433Y025465D01*
X033433Y027740D02*
X033435Y027759D01*
X033440Y027778D01*
X033450Y027794D01*
X033462Y027809D01*
X033477Y027821D01*
X033493Y027831D01*
X033512Y027836D01*
X033531Y027838D01*
X033550Y027836D01*
X033569Y027831D01*
X033585Y027821D01*
X033600Y027809D01*
X033612Y027794D01*
X033622Y027778D01*
X033627Y027759D01*
X033629Y027740D01*
X033627Y027721D01*
X033622Y027702D01*
X033612Y027686D01*
X033600Y027671D01*
X033585Y027659D01*
X033569Y027649D01*
X033550Y027644D01*
X033531Y027642D01*
X033512Y027644D01*
X033493Y027649D01*
X033477Y027659D01*
X033462Y027671D01*
X033450Y027686D01*
X033440Y027702D01*
X033435Y027721D01*
X033433Y027740D01*
X033531Y028187D02*
X033925Y028187D01*
X033945Y028189D01*
X033965Y028194D01*
X033984Y028203D01*
X034001Y028215D01*
X034015Y028229D01*
X034027Y028246D01*
X034036Y028265D01*
X034041Y028285D01*
X034043Y028305D01*
X034041Y028325D01*
X034036Y028345D01*
X034027Y028364D01*
X034015Y028381D01*
X034001Y028395D01*
X033984Y028407D01*
X033965Y028416D01*
X033945Y028421D01*
X033925Y028423D01*
X033531Y028423D01*
X033511Y028421D01*
X033491Y028416D01*
X033472Y028407D01*
X033455Y028395D01*
X033441Y028381D01*
X033429Y028364D01*
X033420Y028345D01*
X033415Y028325D01*
X033413Y028305D01*
X033415Y028285D01*
X033420Y028265D01*
X033429Y028246D01*
X033441Y028229D01*
X033455Y028215D01*
X033472Y028203D01*
X033491Y028194D01*
X033511Y028189D01*
X033531Y028187D01*
X032272Y028187D02*
X031878Y028187D01*
X031858Y028189D01*
X031838Y028194D01*
X031819Y028203D01*
X031802Y028215D01*
X031788Y028229D01*
X031776Y028246D01*
X031767Y028265D01*
X031762Y028285D01*
X031760Y028305D01*
X031762Y028325D01*
X031767Y028345D01*
X031776Y028364D01*
X031788Y028381D01*
X031802Y028395D01*
X031819Y028407D01*
X031838Y028416D01*
X031858Y028421D01*
X031878Y028423D01*
X032272Y028423D01*
X032292Y028421D01*
X032312Y028416D01*
X032331Y028407D01*
X032348Y028395D01*
X032362Y028381D01*
X032374Y028364D01*
X032383Y028345D01*
X032388Y028325D01*
X032390Y028305D01*
X032388Y028285D01*
X032383Y028265D01*
X032374Y028246D01*
X032362Y028229D01*
X032348Y028215D01*
X032331Y028203D01*
X032312Y028194D01*
X032292Y028189D01*
X032272Y028187D01*
X031720Y035933D02*
X031722Y035983D01*
X031728Y036033D01*
X031738Y036082D01*
X031752Y036130D01*
X031769Y036177D01*
X031790Y036222D01*
X031815Y036266D01*
X031843Y036307D01*
X031875Y036346D01*
X031909Y036383D01*
X031946Y036417D01*
X031986Y036447D01*
X032028Y036474D01*
X032072Y036498D01*
X032118Y036519D01*
X032165Y036535D01*
X032213Y036548D01*
X032263Y036557D01*
X032312Y036562D01*
X032363Y036563D01*
X032413Y036560D01*
X032462Y036553D01*
X032511Y036542D01*
X032559Y036527D01*
X032605Y036509D01*
X032650Y036487D01*
X032693Y036461D01*
X032734Y036432D01*
X032773Y036400D01*
X032809Y036365D01*
X032841Y036327D01*
X032871Y036287D01*
X032898Y036244D01*
X032921Y036200D01*
X032940Y036154D01*
X032956Y036106D01*
X032968Y036057D01*
X032976Y036008D01*
X032980Y035958D01*
X032980Y035908D01*
X032976Y035858D01*
X032968Y035809D01*
X032956Y035760D01*
X032940Y035712D01*
X032921Y035666D01*
X032898Y035622D01*
X032871Y035579D01*
X032841Y035539D01*
X032809Y035501D01*
X032773Y035466D01*
X032734Y035434D01*
X032693Y035405D01*
X032650Y035379D01*
X032605Y035357D01*
X032559Y035339D01*
X032511Y035324D01*
X032462Y035313D01*
X032413Y035306D01*
X032363Y035303D01*
X032312Y035304D01*
X032263Y035309D01*
X032213Y035318D01*
X032165Y035331D01*
X032118Y035347D01*
X032072Y035368D01*
X032028Y035392D01*
X031986Y035419D01*
X031946Y035449D01*
X031909Y035483D01*
X031875Y035520D01*
X031843Y035559D01*
X031815Y035600D01*
X031790Y035644D01*
X031769Y035689D01*
X031752Y035736D01*
X031738Y035784D01*
X031728Y035833D01*
X031722Y035883D01*
X031720Y035933D01*
M02*
