%
M48
M72
T01C0.0120
T02C0.0157
T03C0.0197
T04C0.0236
T05C0.0276
T06C0.0354
T07C0.0400
T08C0.0630
T09C0.1260
%
T01
X1213Y2630
X1963Y2630
X2713Y2630
X3838Y2630
X4150Y3005
X5619Y3036
X6588Y3568
X6963Y3255
X8213Y3568
X8590Y2693
X9213Y2036
X9775Y2693
X9494Y3755
X8713Y4786
X9119Y5068
X9119Y5411
X8400Y5193
X8400Y5693
X7557Y5693
X6869Y5693
X6682Y5411
X6869Y6568
X6682Y7036
X6682Y7349
X7275Y8130
X7557Y7880
X8338Y7880
X8088Y6974
X8088Y6630
X7557Y6568
X5525Y8529
X5275Y8786
X5057Y8536
X4275Y7755
X4275Y7286
X4275Y6974
X3994Y9193
X3463Y9505
X3463Y9818
X5525Y9873
X5525Y10623
X7338Y11380
X8088Y11380
X8650Y10693
X8650Y10005
X8884Y9568
X8275Y9130
X7224Y9161
X7213Y9505
X9588Y11693
X9869Y11380
X9963Y10693
X9963Y9568
X9713Y9318
X10494Y8818
X9838Y7880
X9807Y6974
X10057Y6755
X9807Y6536
X9807Y6193
X10088Y6005
X9807Y5818
X11057Y5380
X11057Y4630
X11900Y3443
X12838Y4380
X13588Y3505
X14025Y3755
X13775Y4380
X12838Y5630
X11963Y6286
X11057Y6286
X11307Y7130
X11057Y7536
X11307Y7755
X11650Y7755
X12025Y7786
X12838Y8630
X13150Y8443
X13463Y8630
X13150Y8818
X13150Y9193
X13463Y9380
X13150Y9568
X12838Y9380
X12057Y9005
X11744Y9005
X13025Y7318
X13025Y7005
X13025Y6693
X13963Y7786
X14713Y8536
X14713Y9474
X16275Y9224
X16275Y8880
X16275Y8536
X16275Y8193
X16275Y6630
X17432Y5818
X17963Y5818
X18463Y6911
X18650Y7786
X19463Y10130
X19900Y11693
X18963Y12130
X18838Y13068
X18838Y13568
X18838Y15318
X18838Y15818
X19900Y15318
X19900Y17568
X15369Y11380
X14150Y11380
X12838Y11380
X12838Y12818
X13463Y13068
X12838Y13661
X12838Y15068
X7838Y12536
X7338Y12818
X7338Y13661
X7338Y15068
X3744Y13068
X2775Y12286
X2463Y12286
X2150Y12286
X1213Y6255
X1213Y5380
X1213Y4505
X12213Y2130
X12713Y2255
X14463Y2568
X15650Y4380
X17088Y4755
X18088Y4755
T02
X15650Y6193
X13775Y6193
X14838Y3193
X13338Y3005
X6275Y8318
X3573Y10267
X2838Y11818
X5713Y12380
X6025Y12630
X5713Y12943
X6025Y13193
X5963Y13693
X6275Y13693
X6588Y13693
X6025Y14318
X5713Y14630
X6025Y14880
X5713Y15193
X6025Y15443
X5963Y15943
X6275Y15943
X6588Y15943
X6025Y16568
X5713Y16880
X6025Y17130
X5713Y17380
X6025Y17693
X6713Y18693
X7213Y18693
X7713Y18693
X11275Y17693
X11525Y17380
X11775Y17693
X11775Y17068
X11275Y17068
X11400Y15943
X11713Y15943
X12025Y15943
X11525Y15443
X11213Y15130
X11525Y14880
X11213Y14630
X11525Y14318
X11400Y13693
X11713Y13693
X12025Y13693
X11525Y13193
X11213Y12880
X11525Y12630
X11213Y12380
X11525Y12068
X11400Y11443
X11713Y11443
X12025Y11443
X15025Y11443
X16838Y12380
X17150Y12630
X16838Y12880
X17150Y13193
X17025Y13693
X17338Y13693
X17650Y13693
X17150Y14318
X16838Y14630
X17150Y14880
X16838Y15130
X17150Y15443
X17025Y15943
X17338Y15943
X17650Y15943
X17400Y17068
X17150Y17380
X16900Y17693
X17400Y17693
X16900Y17068
X14525Y14943
X14150Y14943
X13775Y14943
X13775Y14443
X14150Y14443
X14525Y14443
X17150Y12068
X17025Y11443
X17338Y11443
X17650Y11443
X13338Y18693
X12838Y18693
X12338Y18693
X8963Y14943
X8588Y14943
X8213Y14943
X8213Y14443
X8588Y14443
X8963Y14443
X6025Y12068
X5963Y11443
X6275Y11443
X6588Y11443
X6025Y4599
T03
X1390Y9767
X1390Y10259
X1390Y10751
X1390Y11243
X15025Y9005
X17463Y8943
X17463Y8505
X17463Y9380
T04
X14338Y10380
X10150Y8474
X4682Y6380
X8588Y15911
X8588Y16474
X14150Y16474
X14150Y15911
X17213Y5443
X17713Y5443
X18213Y5443
T05
X3463Y13539
X3463Y14130
X3463Y14721
T06
X2463Y6246
X2463Y4514
T07
X3338Y2130
X4338Y2130
X5338Y2130
X6338Y2130
X6338Y880
X5338Y880
X4338Y880
X3338Y880
X7338Y880
X8338Y880
X9338Y880
X16088Y2380
X17088Y2380
X19463Y3130
X19463Y4130
X19463Y5130
X19463Y6130
X19463Y7130
X19463Y8380
X19463Y9380
X16588Y19005
X15588Y19005
X14588Y19005
X11088Y19005
X10088Y19005
X9088Y19005
X5588Y19005
X4588Y19005
X3588Y19005
X2338Y16630
X2338Y15630
X2338Y14630
X2338Y13630
X1338Y13630
X1338Y12630
X1338Y14630
X1338Y15630
X1338Y16630
X1338Y8380
X2338Y8380
T08
X15838Y1130
X17338Y1130
T09
X1572Y1114
X19289Y1114
X19289Y18831
X1572Y18831
M30
