G75*
%MOIN*%
%OFA0B0*%
%FSLAX24Y24*%
%IPPOS*%
%LPD*%
%AMOC8*
5,1,8,0,0,1.08239X$1,22.5*
%
%ADD10C,0.0000*%
%ADD11C,0.0906*%
%ADD12C,0.0116*%
%ADD13C,0.0108*%
%ADD14OC8,0.0480*%
%ADD15C,0.0106*%
%ADD16C,0.0114*%
D10*
X000794Y001150D02*
X006412Y001150D01*
X006451Y001152D01*
X006489Y001158D01*
X006526Y001167D01*
X006563Y001180D01*
X006598Y001197D01*
X006631Y001216D01*
X006662Y001239D01*
X006691Y001265D01*
X006717Y001294D01*
X006740Y001325D01*
X006759Y001358D01*
X006776Y001393D01*
X006789Y001430D01*
X006798Y001467D01*
X006804Y001505D01*
X006806Y001544D01*
X006806Y003400D01*
X006808Y003444D01*
X006814Y003487D01*
X006823Y003530D01*
X006836Y003571D01*
X006853Y003612D01*
X006873Y003650D01*
X006897Y003687D01*
X006923Y003722D01*
X006953Y003754D01*
X006985Y003783D01*
X007020Y003810D01*
X007056Y003833D01*
X007095Y003853D01*
X007135Y003870D01*
X007177Y003883D01*
X007220Y003892D01*
X007263Y003898D01*
X007306Y003900D01*
X008369Y003900D01*
X008368Y003900D02*
X008411Y003899D01*
X008453Y003895D01*
X008495Y003888D01*
X008537Y003877D01*
X008577Y003863D01*
X008616Y003845D01*
X008653Y003824D01*
X008688Y003801D01*
X008722Y003774D01*
X008753Y003745D01*
X008781Y003713D01*
X008807Y003679D01*
X008830Y003643D01*
X008850Y003605D01*
X008867Y003566D01*
X008880Y003526D01*
X008890Y003484D01*
X008897Y003442D01*
X008900Y003400D01*
X008900Y000794D01*
X008902Y000755D01*
X008908Y000717D01*
X008917Y000680D01*
X008930Y000643D01*
X008947Y000608D01*
X008966Y000575D01*
X008989Y000544D01*
X009015Y000515D01*
X009044Y000489D01*
X009075Y000466D01*
X009108Y000447D01*
X009143Y000430D01*
X009180Y000417D01*
X009217Y000408D01*
X009255Y000402D01*
X009294Y000400D01*
X014018Y000400D01*
X014057Y000402D01*
X014095Y000408D01*
X014132Y000417D01*
X014169Y000430D01*
X014204Y000447D01*
X014237Y000466D01*
X014268Y000489D01*
X014297Y000515D01*
X014323Y000544D01*
X014346Y000575D01*
X014365Y000608D01*
X014382Y000643D01*
X014395Y000680D01*
X014404Y000717D01*
X014410Y000755D01*
X014412Y000794D01*
X014412Y003400D01*
X014415Y003444D01*
X014422Y003488D01*
X014432Y003531D01*
X014446Y003574D01*
X014464Y003614D01*
X014485Y003653D01*
X014510Y003690D01*
X014538Y003725D01*
X014568Y003757D01*
X014602Y003787D01*
X014637Y003813D01*
X014675Y003836D01*
X014715Y003856D01*
X014757Y003872D01*
X014799Y003885D01*
X014843Y003894D01*
X014887Y003899D01*
X014932Y003900D01*
X014931Y003900D02*
X015869Y003900D01*
X015868Y003900D02*
X015911Y003899D01*
X015953Y003895D01*
X015995Y003888D01*
X016037Y003877D01*
X016077Y003863D01*
X016116Y003845D01*
X016153Y003824D01*
X016188Y003801D01*
X016222Y003774D01*
X016253Y003745D01*
X016281Y003713D01*
X016307Y003679D01*
X016330Y003643D01*
X016350Y003605D01*
X016367Y003566D01*
X016380Y003526D01*
X016390Y003484D01*
X016397Y003442D01*
X016400Y003400D01*
X016400Y002544D01*
X016402Y002505D01*
X016408Y002467D01*
X016417Y002430D01*
X016430Y002393D01*
X016447Y002358D01*
X016466Y002325D01*
X016489Y002294D01*
X016515Y002265D01*
X016544Y002239D01*
X016575Y002216D01*
X016608Y002197D01*
X016643Y002180D01*
X016680Y002167D01*
X016717Y002158D01*
X016755Y002152D01*
X016794Y002150D01*
X019006Y002150D01*
X019018Y002150D01*
X019006Y002150D02*
X019041Y002152D01*
X019075Y002157D01*
X019108Y002166D01*
X019141Y002179D01*
X019172Y002194D01*
X019201Y002213D01*
X019227Y002235D01*
X019252Y002260D01*
X019274Y002286D01*
X019293Y002315D01*
X019308Y002346D01*
X019321Y002379D01*
X019330Y002412D01*
X019335Y002446D01*
X019337Y002481D01*
X019337Y006999D01*
X019335Y007034D01*
X019330Y007068D01*
X019321Y007101D01*
X019308Y007134D01*
X019293Y007165D01*
X019274Y007194D01*
X019252Y007220D01*
X019227Y007245D01*
X019201Y007267D01*
X019172Y007286D01*
X019141Y007301D01*
X019108Y007314D01*
X019075Y007323D01*
X019041Y007328D01*
X019006Y007330D01*
X016731Y007330D01*
X016696Y007328D01*
X016662Y007323D01*
X016629Y007314D01*
X016596Y007301D01*
X016566Y007286D01*
X016536Y007267D01*
X016510Y007245D01*
X016485Y007220D01*
X016463Y007194D01*
X016444Y007165D01*
X016429Y007134D01*
X016416Y007101D01*
X016407Y007068D01*
X016402Y007034D01*
X016400Y006999D01*
X016400Y005900D01*
X016397Y005858D01*
X016390Y005816D01*
X016380Y005774D01*
X016367Y005734D01*
X016350Y005695D01*
X016330Y005657D01*
X016307Y005621D01*
X016281Y005587D01*
X016253Y005555D01*
X016222Y005526D01*
X016188Y005499D01*
X016153Y005476D01*
X016116Y005455D01*
X016077Y005437D01*
X016037Y005423D01*
X015995Y005412D01*
X015953Y005405D01*
X015911Y005401D01*
X015868Y005400D01*
X015869Y005400D02*
X014931Y005400D01*
X014932Y005400D02*
X014887Y005401D01*
X014843Y005406D01*
X014799Y005415D01*
X014757Y005428D01*
X014715Y005444D01*
X014675Y005464D01*
X014637Y005487D01*
X014602Y005513D01*
X014568Y005543D01*
X014538Y005575D01*
X014510Y005610D01*
X014485Y005647D01*
X014464Y005686D01*
X014446Y005726D01*
X014432Y005769D01*
X014422Y005812D01*
X014415Y005856D01*
X014412Y005900D01*
X014412Y007880D01*
X014410Y007919D01*
X014404Y007957D01*
X014395Y007994D01*
X014382Y008031D01*
X014365Y008066D01*
X014346Y008099D01*
X014323Y008130D01*
X014297Y008159D01*
X014268Y008185D01*
X014237Y008208D01*
X014204Y008227D01*
X014169Y008244D01*
X014132Y008257D01*
X014095Y008266D01*
X014057Y008272D01*
X014018Y008274D01*
X012900Y008274D01*
X012857Y008277D01*
X012815Y008284D01*
X012774Y008294D01*
X012733Y008307D01*
X012694Y008324D01*
X012656Y008344D01*
X012620Y008367D01*
X012587Y008393D01*
X012555Y008421D01*
X012526Y008453D01*
X012499Y008486D01*
X012475Y008521D01*
X012455Y008559D01*
X012437Y008598D01*
X012423Y008638D01*
X012412Y008679D01*
X012405Y008721D01*
X012401Y008763D01*
X012400Y008806D01*
X012400Y009619D01*
X012400Y009618D02*
X012401Y009663D01*
X012405Y009708D01*
X012414Y009752D01*
X012426Y009796D01*
X012442Y009838D01*
X012462Y009878D01*
X012485Y009917D01*
X012511Y009954D01*
X012540Y009988D01*
X012573Y010019D01*
X012607Y010048D01*
X012645Y010073D01*
X012684Y010095D01*
X012725Y010113D01*
X012767Y010128D01*
X012811Y010139D01*
X012855Y010146D01*
X012900Y010150D01*
X014537Y010150D01*
X014576Y010152D01*
X014614Y010158D01*
X014651Y010167D01*
X014688Y010180D01*
X014723Y010197D01*
X014756Y010216D01*
X014787Y010239D01*
X014816Y010265D01*
X014842Y010294D01*
X014865Y010325D01*
X014884Y010358D01*
X014901Y010393D01*
X014914Y010430D01*
X014923Y010467D01*
X014929Y010505D01*
X014931Y010544D01*
X014931Y019218D01*
X014930Y019218D02*
X014927Y019256D01*
X014921Y019294D01*
X014911Y019330D01*
X014898Y019366D01*
X014881Y019400D01*
X014861Y019432D01*
X014838Y019462D01*
X014812Y019490D01*
X014784Y019515D01*
X014753Y019537D01*
X014720Y019556D01*
X014685Y019572D01*
X014649Y019584D01*
X014612Y019593D01*
X014575Y019598D01*
X014537Y019599D01*
X008044Y019599D01*
X008043Y019599D02*
X008005Y019598D01*
X007968Y019593D01*
X007931Y019584D01*
X007895Y019572D01*
X007860Y019556D01*
X007827Y019537D01*
X007796Y019515D01*
X007768Y019490D01*
X007742Y019462D01*
X007719Y019432D01*
X007699Y019400D01*
X007682Y019366D01*
X007669Y019330D01*
X007659Y019294D01*
X007653Y019256D01*
X007650Y019218D01*
X007650Y010544D01*
X007652Y010505D01*
X007658Y010467D01*
X007667Y010430D01*
X007680Y010393D01*
X007697Y010358D01*
X007716Y010325D01*
X007739Y010294D01*
X007765Y010265D01*
X007794Y010239D01*
X007825Y010216D01*
X007858Y010197D01*
X007893Y010180D01*
X007930Y010167D01*
X007967Y010158D01*
X008005Y010152D01*
X008044Y010150D01*
X010400Y010150D01*
X010442Y010147D01*
X010484Y010140D01*
X010526Y010130D01*
X010566Y010117D01*
X010605Y010100D01*
X010643Y010080D01*
X010679Y010057D01*
X010713Y010031D01*
X010745Y010003D01*
X010774Y009972D01*
X010801Y009938D01*
X010824Y009903D01*
X010845Y009866D01*
X010863Y009827D01*
X010877Y009787D01*
X010888Y009745D01*
X010895Y009703D01*
X010899Y009661D01*
X010900Y009618D01*
X010900Y009619D02*
X010900Y008806D01*
X010899Y008763D01*
X010895Y008721D01*
X010888Y008679D01*
X010877Y008638D01*
X010863Y008598D01*
X010845Y008559D01*
X010825Y008521D01*
X010801Y008486D01*
X010774Y008453D01*
X010745Y008421D01*
X010713Y008393D01*
X010680Y008367D01*
X010644Y008344D01*
X010606Y008324D01*
X010567Y008307D01*
X010526Y008294D01*
X010485Y008284D01*
X010443Y008277D01*
X010400Y008274D01*
X009294Y008274D01*
X009255Y008272D01*
X009217Y008266D01*
X009180Y008257D01*
X009143Y008244D01*
X009108Y008227D01*
X009075Y008208D01*
X009044Y008185D01*
X009015Y008159D01*
X008989Y008130D01*
X008966Y008099D01*
X008947Y008066D01*
X008930Y008031D01*
X008917Y007994D01*
X008908Y007957D01*
X008902Y007919D01*
X008900Y007880D01*
X008900Y005900D01*
X008897Y005858D01*
X008890Y005816D01*
X008880Y005774D01*
X008867Y005734D01*
X008850Y005695D01*
X008830Y005657D01*
X008807Y005621D01*
X008781Y005587D01*
X008753Y005555D01*
X008722Y005526D01*
X008688Y005499D01*
X008653Y005476D01*
X008616Y005455D01*
X008577Y005437D01*
X008537Y005423D01*
X008495Y005412D01*
X008453Y005405D01*
X008411Y005401D01*
X008368Y005400D01*
X008369Y005400D02*
X007306Y005400D01*
X007263Y005402D01*
X007220Y005408D01*
X007177Y005417D01*
X007135Y005430D01*
X007095Y005447D01*
X007056Y005467D01*
X007020Y005490D01*
X006985Y005517D01*
X006953Y005546D01*
X006923Y005578D01*
X006897Y005613D01*
X006873Y005650D01*
X006853Y005688D01*
X006836Y005729D01*
X006823Y005770D01*
X006814Y005813D01*
X006808Y005856D01*
X006806Y005900D01*
X006806Y007843D01*
X006804Y007882D01*
X006798Y007920D01*
X006789Y007957D01*
X006776Y007994D01*
X006759Y008029D01*
X006740Y008062D01*
X006717Y008093D01*
X006691Y008122D01*
X006662Y008148D01*
X006631Y008171D01*
X006598Y008190D01*
X006563Y008207D01*
X006526Y008220D01*
X006489Y008229D01*
X006451Y008235D01*
X006412Y008237D01*
X000794Y008237D01*
X000755Y008235D01*
X000717Y008229D01*
X000680Y008220D01*
X000643Y008207D01*
X000608Y008190D01*
X000575Y008171D01*
X000544Y008148D01*
X000515Y008122D01*
X000489Y008093D01*
X000466Y008062D01*
X000447Y008029D01*
X000430Y007994D01*
X000417Y007957D01*
X000408Y007920D01*
X000402Y007882D01*
X000400Y007843D01*
X000400Y001544D01*
X000402Y001505D01*
X000408Y001467D01*
X000417Y001430D01*
X000430Y001393D01*
X000447Y001358D01*
X000466Y001325D01*
X000489Y001294D01*
X000515Y001265D01*
X000544Y001239D01*
X000575Y001216D01*
X000608Y001197D01*
X000643Y001180D01*
X000680Y001167D01*
X000717Y001158D01*
X000755Y001152D01*
X000794Y001150D01*
X008900Y007880D02*
X008900Y007900D01*
X008004Y011006D02*
X008006Y011047D01*
X008012Y011088D01*
X008022Y011128D01*
X008035Y011167D01*
X008052Y011204D01*
X008073Y011240D01*
X008097Y011274D01*
X008124Y011305D01*
X008153Y011333D01*
X008186Y011359D01*
X008220Y011381D01*
X008257Y011400D01*
X008295Y011415D01*
X008335Y011427D01*
X008375Y011435D01*
X008416Y011439D01*
X008458Y011439D01*
X008499Y011435D01*
X008539Y011427D01*
X008579Y011415D01*
X008617Y011400D01*
X008653Y011381D01*
X008688Y011359D01*
X008721Y011333D01*
X008750Y011305D01*
X008777Y011274D01*
X008801Y011240D01*
X008822Y011204D01*
X008839Y011167D01*
X008852Y011128D01*
X008862Y011088D01*
X008868Y011047D01*
X008870Y011006D01*
X008868Y010965D01*
X008862Y010924D01*
X008852Y010884D01*
X008839Y010845D01*
X008822Y010808D01*
X008801Y010772D01*
X008777Y010738D01*
X008750Y010707D01*
X008721Y010679D01*
X008688Y010653D01*
X008654Y010631D01*
X008617Y010612D01*
X008579Y010597D01*
X008539Y010585D01*
X008499Y010577D01*
X008458Y010573D01*
X008416Y010573D01*
X008375Y010577D01*
X008335Y010585D01*
X008295Y010597D01*
X008257Y010612D01*
X008221Y010631D01*
X008186Y010653D01*
X008153Y010679D01*
X008124Y010707D01*
X008097Y010738D01*
X008073Y010772D01*
X008052Y010808D01*
X008035Y010845D01*
X008022Y010884D01*
X008012Y010924D01*
X008006Y010965D01*
X008004Y011006D01*
X008004Y018755D02*
X008006Y018796D01*
X008012Y018837D01*
X008022Y018877D01*
X008035Y018916D01*
X008052Y018953D01*
X008073Y018989D01*
X008097Y019023D01*
X008124Y019054D01*
X008153Y019082D01*
X008186Y019108D01*
X008220Y019130D01*
X008257Y019149D01*
X008295Y019164D01*
X008335Y019176D01*
X008375Y019184D01*
X008416Y019188D01*
X008458Y019188D01*
X008499Y019184D01*
X008539Y019176D01*
X008579Y019164D01*
X008617Y019149D01*
X008653Y019130D01*
X008688Y019108D01*
X008721Y019082D01*
X008750Y019054D01*
X008777Y019023D01*
X008801Y018989D01*
X008822Y018953D01*
X008839Y018916D01*
X008852Y018877D01*
X008862Y018837D01*
X008868Y018796D01*
X008870Y018755D01*
X008868Y018714D01*
X008862Y018673D01*
X008852Y018633D01*
X008839Y018594D01*
X008822Y018557D01*
X008801Y018521D01*
X008777Y018487D01*
X008750Y018456D01*
X008721Y018428D01*
X008688Y018402D01*
X008654Y018380D01*
X008617Y018361D01*
X008579Y018346D01*
X008539Y018334D01*
X008499Y018326D01*
X008458Y018322D01*
X008416Y018322D01*
X008375Y018326D01*
X008335Y018334D01*
X008295Y018346D01*
X008257Y018361D01*
X008221Y018380D01*
X008186Y018402D01*
X008153Y018428D01*
X008124Y018456D01*
X008097Y018487D01*
X008073Y018521D01*
X008052Y018557D01*
X008035Y018594D01*
X008022Y018633D01*
X008012Y018673D01*
X008006Y018714D01*
X008004Y018755D01*
D11*
X008437Y018755D03*
X008437Y011006D03*
D12*
X017198Y004930D02*
X017358Y004930D01*
X017198Y004930D02*
X017198Y005464D01*
X017358Y005464D01*
X017358Y004930D01*
X017358Y005045D02*
X017198Y005045D01*
X017198Y005160D02*
X017358Y005160D01*
X017358Y005275D02*
X017198Y005275D01*
X017198Y005390D02*
X017358Y005390D01*
X017592Y004930D02*
X017752Y004930D01*
X017592Y004930D02*
X017592Y005464D01*
X017752Y005464D01*
X017752Y004930D01*
X017752Y005045D02*
X017592Y005045D01*
X017592Y005160D02*
X017752Y005160D01*
X017752Y005275D02*
X017592Y005275D01*
X017592Y005390D02*
X017752Y005390D01*
X017986Y004930D02*
X018146Y004930D01*
X017986Y004930D02*
X017986Y005464D01*
X018146Y005464D01*
X018146Y004930D01*
X018146Y005045D02*
X017986Y005045D01*
X017986Y005160D02*
X018146Y005160D01*
X018146Y005275D02*
X017986Y005275D01*
X017986Y005390D02*
X018146Y005390D01*
X018379Y004930D02*
X018539Y004930D01*
X018379Y004930D02*
X018379Y005464D01*
X018539Y005464D01*
X018539Y004930D01*
X018539Y005045D02*
X018379Y005045D01*
X018379Y005160D02*
X018539Y005160D01*
X018539Y005275D02*
X018379Y005275D01*
X018379Y005390D02*
X018539Y005390D01*
X018539Y004557D02*
X018379Y004557D01*
X018539Y004557D02*
X018539Y004023D01*
X018379Y004023D01*
X018379Y004557D01*
X018379Y004138D02*
X018539Y004138D01*
X018539Y004253D02*
X018379Y004253D01*
X018379Y004368D02*
X018539Y004368D01*
X018539Y004483D02*
X018379Y004483D01*
X018146Y004557D02*
X017986Y004557D01*
X018146Y004557D02*
X018146Y004023D01*
X017986Y004023D01*
X017986Y004557D01*
X017986Y004138D02*
X018146Y004138D01*
X018146Y004253D02*
X017986Y004253D01*
X017986Y004368D02*
X018146Y004368D01*
X018146Y004483D02*
X017986Y004483D01*
X017752Y004557D02*
X017592Y004557D01*
X017752Y004557D02*
X017752Y004023D01*
X017592Y004023D01*
X017592Y004557D01*
X017592Y004138D02*
X017752Y004138D01*
X017752Y004253D02*
X017592Y004253D01*
X017592Y004368D02*
X017752Y004368D01*
X017752Y004483D02*
X017592Y004483D01*
X017358Y004557D02*
X017198Y004557D01*
X017358Y004557D02*
X017358Y004023D01*
X017198Y004023D01*
X017198Y004557D01*
X017198Y004138D02*
X017358Y004138D01*
X017358Y004253D02*
X017198Y004253D01*
X017198Y004368D02*
X017358Y004368D01*
X017358Y004483D02*
X017198Y004483D01*
D13*
X016968Y003084D02*
X016564Y003084D01*
X016968Y003084D02*
X016968Y002444D01*
X016564Y002444D01*
X016564Y003084D01*
X016564Y002551D02*
X016968Y002551D01*
X016968Y002658D02*
X016564Y002658D01*
X016564Y002765D02*
X016968Y002765D01*
X016968Y002872D02*
X016564Y002872D01*
X016564Y002979D02*
X016968Y002979D01*
X018769Y003084D02*
X019173Y003084D01*
X019173Y002444D01*
X018769Y002444D01*
X018769Y003084D01*
X018769Y002551D02*
X019173Y002551D01*
X019173Y002658D02*
X018769Y002658D01*
X018769Y002765D02*
X019173Y002765D01*
X019173Y002872D02*
X018769Y002872D01*
X018769Y002979D02*
X019173Y002979D01*
X019173Y006403D02*
X018769Y006403D01*
X018769Y007043D01*
X019173Y007043D01*
X019173Y006403D01*
X019173Y006510D02*
X018769Y006510D01*
X018769Y006617D02*
X019173Y006617D01*
X019173Y006724D02*
X018769Y006724D01*
X018769Y006831D02*
X019173Y006831D01*
X019173Y006938D02*
X018769Y006938D01*
X016968Y006403D02*
X016564Y006403D01*
X016564Y007043D01*
X016968Y007043D01*
X016968Y006403D01*
X016968Y006510D02*
X016564Y006510D01*
X016564Y006617D02*
X016968Y006617D01*
X016968Y006724D02*
X016564Y006724D01*
X016564Y006831D02*
X016968Y006831D01*
X016968Y006938D02*
X016564Y006938D01*
D14*
X014275Y010938D03*
X014275Y011488D03*
X014275Y012038D03*
X014275Y012588D03*
X013525Y012588D03*
X013525Y012038D03*
X013525Y011488D03*
X013525Y010938D03*
X006463Y005713D03*
X006463Y005163D03*
X006463Y004613D03*
X006463Y004063D03*
X006463Y003338D03*
X006463Y002788D03*
X006463Y002238D03*
X006463Y001688D03*
D15*
X003479Y001581D02*
X003479Y002065D01*
X004121Y002065D01*
X004121Y001581D01*
X003479Y001581D01*
X003479Y001686D02*
X004121Y001686D01*
X004121Y001791D02*
X003479Y001791D01*
X003479Y001896D02*
X004121Y001896D01*
X004121Y002001D02*
X003479Y002001D01*
X001116Y002065D02*
X001116Y001581D01*
X001116Y002065D02*
X001758Y002065D01*
X001758Y001581D01*
X001116Y001581D01*
X001116Y001686D02*
X001758Y001686D01*
X001758Y001791D02*
X001116Y001791D01*
X001116Y001896D02*
X001758Y001896D01*
X001758Y002001D02*
X001116Y002001D01*
X001049Y006640D02*
X000565Y006640D01*
X000565Y007322D01*
X001049Y007322D01*
X001049Y006640D01*
X001049Y006745D02*
X000565Y006745D01*
X000565Y006850D02*
X001049Y006850D01*
X001049Y006955D02*
X000565Y006955D01*
X000565Y007060D02*
X001049Y007060D01*
X001049Y007165D02*
X000565Y007165D01*
X000565Y007270D02*
X001049Y007270D01*
X005762Y006994D02*
X006246Y006994D01*
X005762Y006994D02*
X005762Y007676D01*
X006246Y007676D01*
X006246Y006994D01*
X006246Y007099D02*
X005762Y007099D01*
X005762Y007204D02*
X006246Y007204D01*
X006246Y007309D02*
X005762Y007309D01*
X005762Y007414D02*
X006246Y007414D01*
X006246Y007519D02*
X005762Y007519D01*
X005762Y007624D02*
X006246Y007624D01*
D16*
X004294Y005581D02*
X004092Y005581D01*
X004092Y006097D01*
X004294Y006097D01*
X004294Y005581D01*
X004294Y005694D02*
X004092Y005694D01*
X004092Y005807D02*
X004294Y005807D01*
X004294Y005920D02*
X004092Y005920D01*
X004092Y006033D02*
X004294Y006033D01*
X003861Y005423D02*
X003659Y005423D01*
X003659Y005939D01*
X003861Y005939D01*
X003861Y005423D01*
X003861Y005536D02*
X003659Y005536D01*
X003659Y005649D02*
X003861Y005649D01*
X003861Y005762D02*
X003659Y005762D01*
X003659Y005875D02*
X003861Y005875D01*
X003428Y005581D02*
X003226Y005581D01*
X003226Y006097D01*
X003428Y006097D01*
X003428Y005581D01*
X003428Y005694D02*
X003226Y005694D01*
X003226Y005807D02*
X003428Y005807D01*
X003428Y005920D02*
X003226Y005920D01*
X003226Y006033D02*
X003428Y006033D01*
X002995Y005738D02*
X002793Y005738D01*
X002793Y006254D01*
X002995Y006254D01*
X002995Y005738D01*
X002995Y005851D02*
X002793Y005851D01*
X002793Y005964D02*
X002995Y005964D01*
X002995Y006077D02*
X002793Y006077D01*
X002793Y006190D02*
X002995Y006190D01*
X002562Y005581D02*
X002360Y005581D01*
X002360Y006097D01*
X002562Y006097D01*
X002562Y005581D01*
X002562Y005694D02*
X002360Y005694D01*
X002360Y005807D02*
X002562Y005807D01*
X002562Y005920D02*
X002360Y005920D01*
X002360Y006033D02*
X002562Y006033D01*
X002129Y005738D02*
X001927Y005738D01*
X001927Y006254D01*
X002129Y006254D01*
X002129Y005738D01*
X002129Y005851D02*
X001927Y005851D01*
X001927Y005964D02*
X002129Y005964D01*
X002129Y006077D02*
X001927Y006077D01*
X001927Y006190D02*
X002129Y006190D01*
X001696Y005581D02*
X001494Y005581D01*
X001494Y006097D01*
X001696Y006097D01*
X001696Y005581D01*
X001696Y005694D02*
X001494Y005694D01*
X001494Y005807D02*
X001696Y005807D01*
X001696Y005920D02*
X001494Y005920D01*
X001494Y006033D02*
X001696Y006033D01*
X001263Y005581D02*
X001061Y005581D01*
X001061Y006097D01*
X001263Y006097D01*
X001263Y005581D01*
X001263Y005694D02*
X001061Y005694D01*
X001061Y005807D02*
X001263Y005807D01*
X001263Y005920D02*
X001061Y005920D01*
X001061Y006033D02*
X001263Y006033D01*
M02*
