%
M48
M72
T01C0.0120
T02C0.0157
T03C0.0236
T04C0.0240
T05C0.0400
%
T01
X2863Y1988
X2863Y2300
X5425Y3488
X5550Y3988
X5550Y4456
X6675Y4863
X7113Y4863
X7550Y4863
X7550Y5300
X7113Y5300
X6675Y5300
X7113Y5738
X7550Y5738
X9081Y5394
X8644Y4800
X8644Y4456
X8581Y3894
X8269Y3894
X7488Y3738
X7331Y3456
X5550Y5144
X5550Y5863
X6019Y6863
X7363Y6863
X7675Y6863
X8331Y6769
X1175Y4050
X863Y3925
X13988Y2363
X13988Y2050
T02
X2175Y1238
X2488Y1238
X2800Y1238
X3488Y1925
X3800Y1925
X6113Y1175
X8113Y1425
X8425Y1425
X8738Y1425
X10675Y1175
X11175Y1175
X10925Y1488
X10675Y1800
X11175Y1800
X12925Y2050
X12925Y2363
X14019Y3050
X14019Y3363
X15175Y4113
X15175Y4800
X15175Y6425
X15175Y7113
X11488Y7331
X10925Y7331
X10363Y7331
X10675Y6300
X11175Y6300
X10925Y5988
X10675Y5675
X11175Y5675
X10925Y5081
X11488Y5081
X10363Y5081
X10675Y4050
X10925Y3738
X11175Y4050
X11175Y3425
X10675Y3425
X10925Y2831
X11488Y2831
X10363Y2831
X8738Y2769
X8425Y2769
X8113Y2769
X4113Y4300
X3800Y4300
X3488Y4300
X2831Y3175
X2519Y3175
X2206Y3175
X738Y5550
X738Y5925
X3488Y7175
X3800Y7175
X4113Y7175
T03
X2581Y5925
X2581Y5550
T04
X6025Y7488
X6575Y7488
X7125Y7488
X7675Y7488
T05
X14363Y6613
X14363Y5613
X14363Y4613
M30
