G75*
%MOIN*%
%OFA0B0*%
%FSLAX24Y24*%
%IPPOS*%
%LPD*%
%AMOC8*
5,1,8,0,0,1.08239X$1,22.5*
%
%ADD10C,0.0000*%
%ADD11C,0.0101*%
D10*
X000425Y000238D02*
X015425Y000238D01*
X015455Y000240D01*
X015485Y000245D01*
X015514Y000254D01*
X015541Y000267D01*
X015567Y000282D01*
X015591Y000301D01*
X015612Y000322D01*
X015631Y000346D01*
X015646Y000372D01*
X015659Y000399D01*
X015668Y000428D01*
X015673Y000458D01*
X015675Y000488D01*
X015675Y007738D01*
X015673Y007768D01*
X015668Y007798D01*
X015659Y007827D01*
X015646Y007854D01*
X015631Y007880D01*
X015612Y007904D01*
X015591Y007925D01*
X015567Y007944D01*
X015541Y007959D01*
X015514Y007972D01*
X015485Y007981D01*
X015455Y007986D01*
X015425Y007988D01*
X000425Y007988D01*
X000395Y007986D01*
X000365Y007981D01*
X000336Y007972D01*
X000309Y007959D01*
X000283Y007944D01*
X000259Y007925D01*
X000238Y007904D01*
X000219Y007880D01*
X000204Y007854D01*
X000191Y007827D01*
X000182Y007798D01*
X000177Y007768D01*
X000175Y007738D01*
X000175Y000488D01*
X000177Y000458D01*
X000182Y000428D01*
X000191Y000399D01*
X000204Y000372D01*
X000219Y000346D01*
X000238Y000322D01*
X000259Y000301D01*
X000283Y000282D01*
X000309Y000267D01*
X000336Y000254D01*
X000365Y000245D01*
X000395Y000240D01*
X000425Y000238D01*
D11*
X002383Y004003D02*
X002743Y004003D01*
X002743Y003473D01*
X002383Y003473D01*
X002383Y004003D01*
X002383Y003573D02*
X002743Y003573D01*
X002743Y003673D02*
X002383Y003673D01*
X002383Y003773D02*
X002743Y003773D01*
X002743Y003873D02*
X002383Y003873D01*
X002383Y003973D02*
X002743Y003973D01*
X002983Y004003D02*
X003343Y004003D01*
X003343Y003473D01*
X002983Y003473D01*
X002983Y004003D01*
X002983Y003573D02*
X003343Y003573D01*
X003343Y003673D02*
X002983Y003673D01*
X002983Y003773D02*
X003343Y003773D01*
X003343Y003873D02*
X002983Y003873D01*
X002983Y003973D02*
X003343Y003973D01*
X012145Y002660D02*
X012505Y002660D01*
X012145Y002660D02*
X012145Y003190D01*
X012505Y003190D01*
X012505Y002660D01*
X012505Y002760D02*
X012145Y002760D01*
X012145Y002860D02*
X012505Y002860D01*
X012505Y002960D02*
X012145Y002960D01*
X012145Y003060D02*
X012505Y003060D01*
X012505Y003160D02*
X012145Y003160D01*
X012745Y002660D02*
X013105Y002660D01*
X012745Y002660D02*
X012745Y003190D01*
X013105Y003190D01*
X013105Y002660D01*
X013105Y002760D02*
X012745Y002760D01*
X012745Y002860D02*
X013105Y002860D01*
X013105Y002960D02*
X012745Y002960D01*
X012745Y003060D02*
X013105Y003060D01*
X013105Y003160D02*
X012745Y003160D01*
X013345Y002660D02*
X013705Y002660D01*
X013345Y002660D02*
X013345Y003190D01*
X013705Y003190D01*
X013705Y002660D01*
X013705Y002760D02*
X013345Y002760D01*
X013345Y002860D02*
X013705Y002860D01*
X013705Y002960D02*
X013345Y002960D01*
X013345Y003060D02*
X013705Y003060D01*
X013705Y003160D02*
X013345Y003160D01*
M02*
