G75*
%MOIN*%
%OFA0B0*%
%FSLAX24Y24*%
%IPPOS*%
%LPD*%
%AMOC8*
5,1,8,0,0,1.08239X$1,22.5*
%
%ADD10C,0.0130*%
%ADD11C,0.0000*%
%ADD12C,0.0740*%
%ADD13OC8,0.0440*%
%ADD14C,0.0101*%
%ADD15C,0.0100*%
%ADD16C,0.0060*%
%ADD17C,0.0277*%
%ADD18C,0.0240*%
%ADD19C,0.0080*%
%ADD20C,0.0356*%
%ADD21C,0.0320*%
%ADD22C,0.0560*%
%ADD23C,0.0400*%
%ADD24C,0.0120*%
%ADD25C,0.0240*%
D10*
X012316Y005990D02*
X012377Y006052D01*
X012377Y006299D01*
X012316Y006237D02*
X012439Y006237D01*
X012653Y006175D02*
X012653Y006052D01*
X012714Y005990D01*
X012838Y005990D01*
X012900Y006052D01*
X012900Y006175D01*
X012838Y006237D01*
X012714Y006237D01*
X012653Y006175D01*
X013113Y006175D02*
X013113Y006052D01*
X013175Y005990D01*
X013360Y005990D01*
X013360Y006360D01*
X013360Y006237D02*
X013175Y006237D01*
X013113Y006175D01*
D11*
X015425Y000238D02*
X000425Y000238D01*
X000395Y000240D01*
X000365Y000245D01*
X000336Y000254D01*
X000309Y000267D01*
X000283Y000282D01*
X000259Y000301D01*
X000238Y000322D01*
X000219Y000346D01*
X000204Y000372D01*
X000191Y000399D01*
X000182Y000428D01*
X000177Y000458D01*
X000175Y000488D01*
X000175Y007738D01*
X000177Y007768D01*
X000182Y007798D01*
X000191Y007827D01*
X000204Y007854D01*
X000219Y007880D01*
X000238Y007904D01*
X000259Y007925D01*
X000283Y007944D01*
X000309Y007959D01*
X000336Y007972D01*
X000365Y007981D01*
X000395Y007986D01*
X000425Y007988D01*
X015425Y007988D01*
X015455Y007986D01*
X015485Y007981D01*
X015514Y007972D01*
X015541Y007959D01*
X015567Y007944D01*
X015591Y007925D01*
X015612Y007904D01*
X015631Y007880D01*
X015646Y007854D01*
X015659Y007827D01*
X015668Y007798D01*
X015673Y007768D01*
X015675Y007738D01*
X015675Y000488D01*
X015673Y000458D01*
X015668Y000428D01*
X015659Y000399D01*
X015646Y000372D01*
X015631Y000346D01*
X015612Y000322D01*
X015591Y000301D01*
X015567Y000282D01*
X015541Y000267D01*
X015514Y000254D01*
X015485Y000245D01*
X015455Y000240D01*
X015425Y000238D01*
D12*
X014363Y004613D03*
X014363Y005613D03*
X014363Y006613D03*
D13*
X007675Y007488D03*
X007125Y007488D03*
X006575Y007488D03*
X006025Y007488D03*
D14*
X003343Y004003D02*
X002983Y004003D01*
X003343Y004003D02*
X003343Y003473D01*
X002983Y003473D01*
X002983Y004003D01*
X002983Y003573D02*
X003343Y003573D01*
X003343Y003673D02*
X002983Y003673D01*
X002983Y003773D02*
X003343Y003773D01*
X003343Y003873D02*
X002983Y003873D01*
X002983Y003973D02*
X003343Y003973D01*
X002743Y004003D02*
X002383Y004003D01*
X002743Y004003D02*
X002743Y003473D01*
X002383Y003473D01*
X002383Y004003D01*
X002383Y003573D02*
X002743Y003573D01*
X002743Y003673D02*
X002383Y003673D01*
X002383Y003773D02*
X002743Y003773D01*
X002743Y003873D02*
X002383Y003873D01*
X002383Y003973D02*
X002743Y003973D01*
X012145Y002660D02*
X012505Y002660D01*
X012145Y002660D02*
X012145Y003190D01*
X012505Y003190D01*
X012505Y002660D01*
X012505Y002760D02*
X012145Y002760D01*
X012145Y002860D02*
X012505Y002860D01*
X012505Y002960D02*
X012145Y002960D01*
X012145Y003060D02*
X012505Y003060D01*
X012505Y003160D02*
X012145Y003160D01*
X012745Y002660D02*
X013105Y002660D01*
X012745Y002660D02*
X012745Y003190D01*
X013105Y003190D01*
X013105Y002660D01*
X013105Y002760D02*
X012745Y002760D01*
X012745Y002860D02*
X013105Y002860D01*
X013105Y002960D02*
X012745Y002960D01*
X012745Y003060D02*
X013105Y003060D01*
X013105Y003160D02*
X012745Y003160D01*
X013345Y002660D02*
X013705Y002660D01*
X013345Y002660D02*
X013345Y003190D01*
X013705Y003190D01*
X013705Y002660D01*
X013705Y002760D02*
X013345Y002760D01*
X013345Y002860D02*
X013705Y002860D01*
X013705Y002960D02*
X013345Y002960D01*
X013345Y003060D02*
X013705Y003060D01*
X013705Y003160D02*
X013345Y003160D01*
D15*
X013550Y003456D02*
X011925Y003456D01*
X011925Y004363D01*
X013550Y004363D01*
X013550Y003456D01*
X013550Y003488D02*
X011925Y003488D01*
X011925Y003587D02*
X013550Y003587D01*
X013550Y003685D02*
X011925Y003685D01*
X011925Y003784D02*
X013550Y003784D01*
X013550Y003882D02*
X011925Y003882D01*
X011925Y003981D02*
X013550Y003981D01*
X013550Y004079D02*
X011925Y004079D01*
X011925Y004178D02*
X013550Y004178D01*
X013550Y004276D02*
X011925Y004276D01*
X008950Y005913D02*
X008950Y006013D01*
X008950Y005913D02*
X008650Y005913D01*
X008650Y006013D01*
X008950Y006013D01*
X008950Y006012D02*
X008650Y006012D01*
X008950Y006213D02*
X008950Y006313D01*
X008950Y006213D02*
X008650Y006213D01*
X008650Y006313D01*
X008950Y006313D01*
X008950Y006312D02*
X008650Y006312D01*
X008200Y006313D02*
X008200Y006213D01*
X007900Y006213D01*
X007900Y006313D01*
X008200Y006313D01*
X008200Y006312D02*
X007900Y006312D01*
X008200Y006013D02*
X008200Y005913D01*
X007900Y005913D01*
X007900Y006013D01*
X008200Y006013D01*
X008200Y006012D02*
X007900Y006012D01*
D16*
X007802Y006113D02*
X007760Y006070D01*
X007760Y005855D01*
X007842Y005773D01*
X007930Y005773D01*
X007930Y005000D01*
X008000Y004930D01*
X008434Y004497D01*
X008434Y004369D01*
X008557Y004246D01*
X008731Y004246D01*
X008854Y004369D01*
X008854Y004543D01*
X008769Y004628D01*
X008854Y004713D01*
X008854Y004840D01*
X008920Y004907D01*
X008920Y005773D01*
X009008Y005773D01*
X009090Y005855D01*
X009090Y006070D01*
X009048Y006113D01*
X009062Y006127D01*
X009080Y006158D01*
X009090Y006194D01*
X009090Y006242D01*
X008820Y006242D01*
X008820Y006283D01*
X008780Y006283D01*
X008780Y006452D01*
X008632Y006452D01*
X008596Y006443D01*
X008564Y006425D01*
X008538Y006398D01*
X008520Y006367D01*
X008510Y006331D01*
X008510Y006283D01*
X008780Y006283D01*
X008780Y006242D01*
X008510Y006242D01*
X008510Y006194D01*
X008520Y006158D01*
X008538Y006127D01*
X008552Y006113D01*
X008510Y006070D01*
X008510Y005855D01*
X008592Y005773D01*
X008680Y005773D01*
X008680Y005010D01*
X008557Y005010D01*
X008434Y004887D01*
X008434Y004836D01*
X008170Y005100D01*
X008170Y005773D01*
X008258Y005773D01*
X008340Y005855D01*
X008340Y006070D01*
X008298Y006113D01*
X008312Y006127D01*
X008330Y006158D01*
X008340Y006194D01*
X008340Y006242D01*
X008070Y006242D01*
X008070Y006283D01*
X008030Y006283D01*
X008030Y006452D01*
X007882Y006452D01*
X007846Y006443D01*
X007814Y006425D01*
X007788Y006398D01*
X007770Y006367D01*
X007760Y006331D01*
X007760Y006283D01*
X008030Y006283D01*
X008030Y006242D01*
X007760Y006242D01*
X007760Y006194D01*
X007770Y006158D01*
X007788Y006127D01*
X007802Y006113D01*
X007777Y006088D02*
X007070Y006088D01*
X007128Y006146D02*
X007777Y006146D01*
X007760Y006205D02*
X007187Y006205D01*
X007245Y006263D02*
X008030Y006263D01*
X008070Y006263D02*
X008780Y006263D01*
X008820Y006263D02*
X009545Y006263D01*
X009545Y006205D02*
X009090Y006205D01*
X009073Y006146D02*
X009545Y006146D01*
X009545Y006088D02*
X009073Y006088D01*
X009090Y006029D02*
X009545Y006029D01*
X009545Y005971D02*
X009090Y005971D01*
X009090Y005912D02*
X009545Y005912D01*
X009545Y005854D02*
X009089Y005854D01*
X009031Y005795D02*
X009545Y005795D01*
X009545Y005737D02*
X008920Y005737D01*
X008920Y005678D02*
X009545Y005678D01*
X009545Y005620D02*
X008920Y005620D01*
X008920Y005561D02*
X009545Y005561D01*
X009545Y005503D02*
X008920Y005503D01*
X008920Y005444D02*
X009545Y005444D01*
X009545Y005386D02*
X008920Y005386D01*
X008920Y005327D02*
X009545Y005327D01*
X009545Y005269D02*
X008920Y005269D01*
X008920Y005210D02*
X009545Y005210D01*
X009545Y005152D02*
X008920Y005152D01*
X008920Y005093D02*
X009545Y005093D01*
X009545Y005035D02*
X008920Y005035D01*
X008920Y004976D02*
X009545Y004976D01*
X009545Y004918D02*
X008920Y004918D01*
X008872Y004859D02*
X009545Y004859D01*
X009545Y004801D02*
X008854Y004801D01*
X008854Y004742D02*
X009545Y004742D01*
X009545Y004684D02*
X008824Y004684D01*
X008772Y004625D02*
X009545Y004625D01*
X009545Y004567D02*
X008830Y004567D01*
X008854Y004508D02*
X009545Y004508D01*
X009545Y004450D02*
X008854Y004450D01*
X008854Y004391D02*
X009545Y004391D01*
X009545Y004333D02*
X008817Y004333D01*
X008759Y004274D02*
X009545Y004274D01*
X009545Y004216D02*
X003381Y004216D01*
X003416Y004180D02*
X003117Y004479D01*
X003041Y004555D01*
X002831Y004555D01*
X002831Y005277D01*
X002895Y005340D01*
X002951Y005476D01*
X002951Y005999D01*
X002895Y006135D01*
X002791Y006239D01*
X002655Y006295D01*
X002508Y006295D01*
X002372Y006239D01*
X002268Y006135D01*
X002211Y005999D01*
X002211Y005476D01*
X002268Y005340D01*
X002331Y005277D01*
X002331Y004555D01*
X002246Y004555D01*
X001371Y003680D01*
X000305Y003680D01*
X000305Y007737D01*
X000309Y007769D01*
X000340Y007822D01*
X000394Y007853D01*
X000425Y007858D01*
X015425Y007858D01*
X015456Y007853D01*
X015510Y007822D01*
X015541Y007769D01*
X015545Y007738D01*
X015545Y000487D01*
X015541Y000456D01*
X015510Y000403D01*
X015456Y000372D01*
X015425Y000367D01*
X000425Y000367D01*
X000394Y000372D01*
X000340Y000403D01*
X000309Y000456D01*
X000305Y000488D01*
X000305Y002545D01*
X003059Y002545D01*
X003121Y002483D01*
X004061Y002483D01*
X003753Y002175D01*
X003438Y002175D01*
X003346Y002137D01*
X003276Y002067D01*
X003238Y001975D01*
X003238Y001875D01*
X003276Y001783D01*
X003326Y001732D01*
X003100Y001732D01*
X003002Y001830D01*
X003072Y001901D01*
X003072Y002074D01*
X003003Y002144D01*
X003072Y002213D01*
X003072Y002387D01*
X002949Y002510D01*
X002776Y002510D01*
X002653Y002387D01*
X002653Y002385D01*
X002618Y002350D01*
X002493Y002225D01*
X002493Y001813D01*
X002563Y001743D01*
X002938Y001368D01*
X004037Y001368D01*
X004107Y001438D01*
X004600Y001930D01*
X011813Y001930D01*
X012243Y001500D01*
X012313Y001430D01*
X013412Y001430D01*
X013861Y001879D01*
X013901Y001840D01*
X014074Y001840D01*
X014197Y001963D01*
X014197Y002137D01*
X014128Y002206D01*
X014197Y002276D01*
X014197Y002449D01*
X014074Y002572D01*
X013901Y002572D01*
X013778Y002449D01*
X013778Y002322D01*
X013250Y001795D01*
X012475Y001795D01*
X012045Y002225D01*
X012033Y002236D01*
X012317Y002520D01*
X012563Y002520D01*
X012625Y002582D01*
X012675Y002532D01*
X012675Y002000D01*
X012713Y001908D01*
X012783Y001838D01*
X012875Y001800D01*
X012975Y001800D01*
X013067Y001838D01*
X013137Y001908D01*
X013175Y002000D01*
X013175Y002532D01*
X013225Y002582D01*
X013287Y002520D01*
X013763Y002520D01*
X013845Y002602D01*
X013845Y003248D01*
X013815Y003278D01*
X013815Y003320D01*
X013771Y003427D01*
X013690Y003508D01*
X013690Y004420D01*
X013608Y004502D01*
X011867Y004502D01*
X011785Y004420D01*
X011785Y003758D01*
X011270Y003242D01*
X010370Y003242D01*
X010350Y003245D01*
X010338Y003249D01*
X010327Y003256D01*
X010318Y003265D01*
X010311Y003275D01*
X010307Y003287D01*
X010305Y003307D01*
X010305Y004730D01*
X010305Y004732D01*
X010307Y004733D01*
X011505Y004733D01*
X011511Y004727D01*
X011555Y004732D01*
X011570Y004725D01*
X011591Y004733D01*
X011604Y004733D01*
X011610Y004738D01*
X011615Y004739D01*
X011628Y004736D01*
X011636Y004741D01*
X011646Y004742D01*
X011654Y004753D01*
X011661Y004757D01*
X011669Y004760D01*
X011682Y004760D01*
X011689Y004767D01*
X011698Y004770D01*
X011704Y004782D01*
X011710Y004787D01*
X011717Y004792D01*
X011729Y004795D01*
X011734Y004803D01*
X011743Y004808D01*
X011746Y004821D01*
X011750Y004828D01*
X011756Y004834D01*
X011768Y004839D01*
X011771Y004849D01*
X011778Y004856D01*
X011778Y004869D01*
X011780Y004876D01*
X011785Y004884D01*
X011795Y004892D01*
X011796Y004901D01*
X011801Y004910D01*
X011798Y004922D01*
X011799Y004928D01*
X011805Y004934D01*
X011805Y004947D01*
X011812Y004968D01*
X011805Y004982D01*
X011810Y005026D01*
X011805Y005033D01*
X011805Y005192D01*
X011810Y005199D01*
X011805Y005243D01*
X011812Y005257D01*
X011805Y005278D01*
X011805Y005291D01*
X011799Y005297D01*
X011798Y005303D01*
X011801Y005315D01*
X011796Y005324D01*
X011795Y005333D01*
X011785Y005341D01*
X011780Y005348D01*
X011778Y005356D01*
X011778Y005369D01*
X011771Y005376D01*
X011768Y005385D01*
X011756Y005391D01*
X011750Y005397D01*
X011746Y005404D01*
X011743Y005417D01*
X011734Y005422D01*
X011729Y005430D01*
X011717Y005433D01*
X011710Y005438D01*
X011704Y005443D01*
X011698Y005455D01*
X011689Y005458D01*
X011682Y005465D01*
X011669Y005465D01*
X011661Y005468D01*
X011654Y005472D01*
X011646Y005483D01*
X011636Y005484D01*
X011628Y005489D01*
X011615Y005486D01*
X011610Y005487D01*
X011604Y005492D01*
X011591Y005492D01*
X011570Y005500D01*
X011555Y005493D01*
X011511Y005498D01*
X011505Y005492D01*
X010370Y005492D01*
X010350Y005495D01*
X010338Y005499D01*
X010327Y005506D01*
X010318Y005515D01*
X010311Y005525D01*
X010307Y005537D01*
X010305Y005557D01*
X010305Y006793D01*
X010307Y006813D01*
X010311Y006825D01*
X010318Y006835D01*
X010327Y006844D01*
X010338Y006851D01*
X010350Y006855D01*
X010370Y006858D01*
X011505Y006858D01*
X011511Y006852D01*
X011555Y006857D01*
X011570Y006850D01*
X011591Y006858D01*
X011604Y006858D01*
X011610Y006863D01*
X011615Y006864D01*
X011628Y006861D01*
X011636Y006866D01*
X011646Y006867D01*
X011654Y006878D01*
X011661Y006882D01*
X011669Y006885D01*
X011682Y006885D01*
X011689Y006892D01*
X011698Y006895D01*
X011704Y006907D01*
X011710Y006912D01*
X011717Y006917D01*
X011729Y006920D01*
X011734Y006928D01*
X011743Y006933D01*
X011746Y006946D01*
X011750Y006953D01*
X011756Y006959D01*
X011768Y006964D01*
X011771Y006974D01*
X011778Y006981D01*
X011778Y006994D01*
X011780Y007002D01*
X011785Y007009D01*
X011795Y007017D01*
X011796Y007026D01*
X011801Y007035D01*
X011798Y007047D01*
X011799Y007053D01*
X011805Y007059D01*
X011805Y007072D01*
X011812Y007093D01*
X011805Y007107D01*
X011810Y007151D01*
X011805Y007158D01*
X011805Y007317D01*
X011810Y007324D01*
X011805Y007368D01*
X011812Y007382D01*
X011805Y007403D01*
X011805Y007416D01*
X011799Y007422D01*
X011798Y007428D01*
X011801Y007440D01*
X011796Y007449D01*
X011795Y007458D01*
X011785Y007466D01*
X011780Y007473D01*
X011778Y007481D01*
X011778Y007494D01*
X011771Y007501D01*
X011768Y007510D01*
X011756Y007516D01*
X011750Y007522D01*
X011746Y007529D01*
X011743Y007542D01*
X011734Y007547D01*
X011729Y007555D01*
X011717Y007558D01*
X011710Y007563D01*
X011704Y007568D01*
X011698Y007580D01*
X011689Y007583D01*
X011682Y007590D01*
X011669Y007590D01*
X011661Y007593D01*
X011654Y007597D01*
X011646Y007608D01*
X011636Y007609D01*
X011628Y007614D01*
X011615Y007611D01*
X011610Y007612D01*
X011604Y007617D01*
X011591Y007617D01*
X011570Y007625D01*
X011555Y007618D01*
X011511Y007623D01*
X011505Y007617D01*
X009845Y007617D01*
X009839Y007623D01*
X009795Y007618D01*
X009780Y007625D01*
X009759Y007617D01*
X009746Y007617D01*
X009740Y007612D01*
X009735Y007611D01*
X009722Y007614D01*
X009714Y007609D01*
X009704Y007608D01*
X009696Y007597D01*
X009689Y007593D01*
X009681Y007590D01*
X009668Y007590D01*
X009661Y007583D01*
X009652Y007580D01*
X009646Y007568D01*
X009640Y007563D01*
X009633Y007558D01*
X009621Y007555D01*
X009616Y007547D01*
X009607Y007542D01*
X009604Y007529D01*
X009600Y007522D01*
X009594Y007516D01*
X009582Y007510D01*
X009579Y007501D01*
X009572Y007494D01*
X009572Y007481D01*
X009570Y007473D01*
X009565Y007466D01*
X009555Y007458D01*
X009554Y007449D01*
X009549Y007440D01*
X009552Y007428D01*
X009551Y007422D01*
X009545Y007416D01*
X009545Y007403D01*
X009538Y007382D01*
X009545Y007368D01*
X009540Y007324D01*
X009545Y007317D01*
X009545Y003432D01*
X009543Y003412D01*
X009539Y003400D01*
X009532Y003390D01*
X009523Y003381D01*
X009512Y003374D01*
X009500Y003370D01*
X009480Y003367D01*
X003604Y003367D01*
X003492Y003479D01*
X003492Y004104D01*
X003416Y004180D01*
X003416Y004180D01*
X003439Y004157D02*
X005423Y004157D01*
X005463Y004197D02*
X005340Y004074D01*
X005340Y003901D01*
X005463Y003778D01*
X005637Y003778D01*
X005727Y003868D01*
X007188Y003868D01*
X007278Y003778D01*
X007278Y003651D01*
X007401Y003528D01*
X007574Y003528D01*
X007697Y003651D01*
X007697Y003824D01*
X007574Y003947D01*
X007447Y003947D01*
X007357Y004037D01*
X007287Y004107D01*
X005727Y004107D01*
X005637Y004197D01*
X005463Y004197D01*
X005364Y004099D02*
X003492Y004099D01*
X003492Y004040D02*
X005340Y004040D01*
X005340Y003982D02*
X003492Y003982D01*
X003492Y003923D02*
X005340Y003923D01*
X005376Y003865D02*
X003492Y003865D01*
X003492Y003806D02*
X005434Y003806D01*
X005665Y003806D02*
X007249Y003806D01*
X007278Y003748D02*
X003492Y003748D01*
X003492Y003689D02*
X007278Y003689D01*
X007298Y003631D02*
X003492Y003631D01*
X003492Y003572D02*
X007356Y003572D01*
X007488Y003738D02*
X007238Y003988D01*
X005550Y003988D01*
X005677Y004157D02*
X009545Y004157D01*
X009545Y004099D02*
X007296Y004099D01*
X007355Y004040D02*
X009545Y004040D01*
X009545Y003982D02*
X007413Y003982D01*
X007599Y003923D02*
X009545Y003923D01*
X009545Y003865D02*
X007657Y003865D01*
X007697Y003806D02*
X009545Y003806D01*
X009545Y003748D02*
X007697Y003748D01*
X007697Y003689D02*
X009545Y003689D01*
X009545Y003631D02*
X007677Y003631D01*
X007619Y003572D02*
X009545Y003572D01*
X009545Y003514D02*
X003492Y003514D01*
X003516Y003455D02*
X009545Y003455D01*
X009536Y003397D02*
X003575Y003397D01*
X002956Y003269D02*
X002956Y003113D01*
X002894Y003050D01*
X002144Y003050D01*
X002081Y003113D01*
X002081Y003581D01*
X002363Y003863D01*
X002956Y003269D01*
X002945Y003280D02*
X002081Y003280D01*
X002081Y003338D02*
X002887Y003338D01*
X002828Y003397D02*
X002081Y003397D01*
X002081Y003455D02*
X002770Y003455D01*
X002711Y003514D02*
X002081Y003514D01*
X002081Y003572D02*
X002653Y003572D01*
X002594Y003631D02*
X002131Y003631D01*
X002189Y003689D02*
X002536Y003689D01*
X002563Y003738D02*
X002625Y003225D01*
X002206Y003175D01*
X002081Y003163D02*
X002956Y003163D01*
X002956Y003221D02*
X002081Y003221D01*
X002090Y003104D02*
X002948Y003104D01*
X003085Y002519D02*
X000305Y002519D01*
X000305Y002461D02*
X002726Y002461D01*
X002668Y002402D02*
X000305Y002402D01*
X000305Y002344D02*
X002611Y002344D01*
X002553Y002285D02*
X000305Y002285D01*
X000305Y002227D02*
X002494Y002227D01*
X002493Y002168D02*
X000305Y002168D01*
X000305Y002110D02*
X002493Y002110D01*
X002493Y002051D02*
X000305Y002051D01*
X000305Y001993D02*
X002493Y001993D01*
X002493Y001934D02*
X000305Y001934D01*
X000305Y001876D02*
X002493Y001876D01*
X002493Y001817D02*
X000305Y001817D01*
X000305Y001759D02*
X002547Y001759D01*
X002605Y001700D02*
X000305Y001700D01*
X000305Y001642D02*
X002664Y001642D01*
X002722Y001583D02*
X000305Y001583D01*
X000305Y001525D02*
X002781Y001525D01*
X002839Y001466D02*
X000305Y001466D01*
X000305Y001408D02*
X002898Y001408D01*
X002988Y001488D02*
X002613Y001863D01*
X002613Y002175D01*
X002738Y002300D01*
X002863Y002300D01*
X003072Y002285D02*
X003863Y002285D01*
X003805Y002227D02*
X003072Y002227D01*
X003027Y002168D02*
X003421Y002168D01*
X003318Y002110D02*
X003037Y002110D01*
X003072Y002051D02*
X003269Y002051D01*
X003245Y001993D02*
X003072Y001993D01*
X003072Y001934D02*
X003238Y001934D01*
X003238Y001876D02*
X003047Y001876D01*
X003015Y001817D02*
X003262Y001817D01*
X003300Y001759D02*
X003074Y001759D01*
X003050Y001613D02*
X002863Y001800D01*
X002863Y001988D01*
X003072Y002344D02*
X003922Y002344D01*
X003980Y002402D02*
X003057Y002402D01*
X002999Y002461D02*
X004039Y002461D01*
X004488Y002175D02*
X003925Y001613D01*
X003050Y001613D01*
X002988Y001488D02*
X003988Y001488D01*
X004550Y002050D01*
X011863Y002050D01*
X012363Y001550D01*
X013363Y001550D01*
X013863Y002050D01*
X013988Y002050D01*
X014197Y002051D02*
X015545Y002051D01*
X015545Y001993D02*
X014197Y001993D01*
X014168Y001934D02*
X015545Y001934D01*
X015545Y001876D02*
X014110Y001876D01*
X013865Y001876D02*
X013858Y001876D01*
X013799Y001817D02*
X015545Y001817D01*
X015545Y001759D02*
X013741Y001759D01*
X013682Y001700D02*
X015545Y001700D01*
X015545Y001642D02*
X013624Y001642D01*
X013565Y001583D02*
X015545Y001583D01*
X015545Y001525D02*
X013507Y001525D01*
X013448Y001466D02*
X015545Y001466D01*
X015545Y001408D02*
X004077Y001408D01*
X004136Y001466D02*
X012277Y001466D01*
X012218Y001525D02*
X004194Y001525D01*
X004253Y001583D02*
X012160Y001583D01*
X012101Y001642D02*
X004311Y001642D01*
X004370Y001700D02*
X012043Y001700D01*
X011984Y001759D02*
X004428Y001759D01*
X004487Y001817D02*
X011926Y001817D01*
X011867Y001876D02*
X004545Y001876D01*
X004488Y002175D02*
X011925Y002175D01*
X012425Y001675D01*
X013300Y001675D01*
X013988Y002363D01*
X014197Y002344D02*
X015545Y002344D01*
X015545Y002402D02*
X014197Y002402D01*
X014186Y002461D02*
X015545Y002461D01*
X015545Y002519D02*
X014128Y002519D01*
X013847Y002519D02*
X013175Y002519D01*
X013175Y002461D02*
X013789Y002461D01*
X013778Y002402D02*
X013175Y002402D01*
X013175Y002344D02*
X013778Y002344D01*
X013740Y002285D02*
X013175Y002285D01*
X013175Y002227D02*
X013682Y002227D01*
X013623Y002168D02*
X013175Y002168D01*
X013175Y002110D02*
X013565Y002110D01*
X013506Y002051D02*
X013175Y002051D01*
X013172Y001993D02*
X013448Y001993D01*
X013389Y001934D02*
X013148Y001934D01*
X013104Y001876D02*
X013331Y001876D01*
X013272Y001817D02*
X013016Y001817D01*
X012834Y001817D02*
X012453Y001817D01*
X012394Y001876D02*
X012746Y001876D01*
X012702Y001934D02*
X012336Y001934D01*
X012277Y001993D02*
X012678Y001993D01*
X012675Y002051D02*
X012219Y002051D01*
X012160Y002110D02*
X012675Y002110D01*
X012675Y002168D02*
X012102Y002168D01*
X012045Y002225D02*
X012045Y002225D01*
X012043Y002227D02*
X012675Y002227D01*
X012675Y002285D02*
X012082Y002285D01*
X012140Y002344D02*
X012675Y002344D01*
X012675Y002402D02*
X012199Y002402D01*
X012257Y002461D02*
X012675Y002461D01*
X012675Y002519D02*
X012316Y002519D01*
X012620Y002578D02*
X012630Y002578D01*
X013220Y002578D02*
X013230Y002578D01*
X013820Y002578D02*
X015545Y002578D01*
X015545Y002636D02*
X013845Y002636D01*
X013845Y002695D02*
X015545Y002695D01*
X015545Y002753D02*
X013845Y002753D01*
X013845Y002812D02*
X015545Y002812D01*
X015545Y002870D02*
X013845Y002870D01*
X013845Y002929D02*
X015545Y002929D01*
X015545Y002987D02*
X013845Y002987D01*
X013845Y003046D02*
X015545Y003046D01*
X015545Y003104D02*
X013845Y003104D01*
X013845Y003163D02*
X015545Y003163D01*
X015545Y003221D02*
X013845Y003221D01*
X013815Y003280D02*
X015545Y003280D01*
X015545Y003338D02*
X013808Y003338D01*
X013783Y003397D02*
X015545Y003397D01*
X015545Y003455D02*
X013743Y003455D01*
X013690Y003514D02*
X015545Y003514D01*
X015545Y003572D02*
X013690Y003572D01*
X013690Y003631D02*
X015545Y003631D01*
X015545Y003689D02*
X013690Y003689D01*
X013690Y003748D02*
X015545Y003748D01*
X015545Y003806D02*
X013690Y003806D01*
X013690Y003865D02*
X015545Y003865D01*
X015545Y003923D02*
X013690Y003923D01*
X013690Y003982D02*
X015545Y003982D01*
X015545Y004040D02*
X013690Y004040D01*
X013690Y004099D02*
X015545Y004099D01*
X015545Y004157D02*
X014465Y004157D01*
X014454Y004153D02*
X014623Y004223D01*
X014752Y004352D01*
X014822Y004521D01*
X014822Y004704D01*
X014752Y004873D01*
X014623Y005002D01*
X014454Y005072D01*
X014271Y005072D01*
X014102Y005002D01*
X013973Y004873D01*
X013903Y004704D01*
X013903Y004521D01*
X013973Y004352D01*
X014102Y004223D01*
X014271Y004153D01*
X014454Y004153D01*
X014606Y004216D02*
X015545Y004216D01*
X015545Y004274D02*
X014675Y004274D01*
X014733Y004333D02*
X015545Y004333D01*
X015545Y004391D02*
X014769Y004391D01*
X014793Y004450D02*
X015545Y004450D01*
X015545Y004508D02*
X014817Y004508D01*
X014822Y004567D02*
X015545Y004567D01*
X015545Y004625D02*
X014822Y004625D01*
X014822Y004684D02*
X015545Y004684D01*
X015545Y004742D02*
X014807Y004742D01*
X014783Y004801D02*
X015545Y004801D01*
X015545Y004859D02*
X014758Y004859D01*
X014708Y004918D02*
X015545Y004918D01*
X015545Y004976D02*
X014650Y004976D01*
X014546Y005035D02*
X015545Y005035D01*
X015545Y005093D02*
X011805Y005093D01*
X011805Y005035D02*
X014179Y005035D01*
X014075Y004976D02*
X011808Y004976D01*
X011800Y004918D02*
X014017Y004918D01*
X013967Y004859D02*
X011778Y004859D01*
X011733Y004801D02*
X013942Y004801D01*
X013918Y004742D02*
X011642Y004742D01*
X011814Y004450D02*
X010305Y004450D01*
X010305Y004508D02*
X013908Y004508D01*
X013903Y004567D02*
X010305Y004567D01*
X010305Y004625D02*
X013903Y004625D01*
X013903Y004684D02*
X010305Y004684D01*
X010305Y004391D02*
X011785Y004391D01*
X011785Y004333D02*
X010305Y004333D01*
X010305Y004274D02*
X011785Y004274D01*
X011785Y004216D02*
X010305Y004216D01*
X010305Y004157D02*
X011785Y004157D01*
X011785Y004099D02*
X010305Y004099D01*
X010305Y004040D02*
X011785Y004040D01*
X011785Y003982D02*
X010305Y003982D01*
X010305Y003923D02*
X011785Y003923D01*
X011785Y003865D02*
X010305Y003865D01*
X010305Y003806D02*
X011785Y003806D01*
X011775Y003748D02*
X010305Y003748D01*
X010305Y003689D02*
X011716Y003689D01*
X011658Y003631D02*
X010305Y003631D01*
X010305Y003572D02*
X011599Y003572D01*
X011541Y003514D02*
X010305Y003514D01*
X010305Y003455D02*
X011482Y003455D01*
X011424Y003397D02*
X010305Y003397D01*
X010305Y003338D02*
X011365Y003338D01*
X011307Y003280D02*
X010310Y003280D01*
X011488Y002831D02*
X011675Y002956D01*
X013690Y004157D02*
X014260Y004157D01*
X014119Y004216D02*
X013690Y004216D01*
X013690Y004274D02*
X014050Y004274D01*
X013992Y004333D02*
X013690Y004333D01*
X013690Y004391D02*
X013956Y004391D01*
X013932Y004450D02*
X013661Y004450D01*
X014102Y005223D02*
X014271Y005153D01*
X014454Y005153D01*
X014623Y005223D01*
X014752Y005352D01*
X014822Y005521D01*
X014822Y005704D01*
X014752Y005873D01*
X014623Y006002D01*
X014454Y006072D01*
X014271Y006072D01*
X014102Y006002D01*
X013973Y005873D01*
X013903Y005704D01*
X013903Y005521D01*
X013973Y005352D01*
X014102Y005223D01*
X014132Y005210D02*
X011809Y005210D01*
X011808Y005269D02*
X014056Y005269D01*
X013997Y005327D02*
X011796Y005327D01*
X011767Y005386D02*
X013959Y005386D01*
X013934Y005444D02*
X011703Y005444D01*
X011805Y005152D02*
X015545Y005152D01*
X015545Y005210D02*
X014593Y005210D01*
X014669Y005269D02*
X015545Y005269D01*
X015545Y005327D02*
X014728Y005327D01*
X014766Y005386D02*
X015545Y005386D01*
X015545Y005444D02*
X014791Y005444D01*
X014815Y005503D02*
X015545Y005503D01*
X015545Y005561D02*
X014822Y005561D01*
X014822Y005620D02*
X015545Y005620D01*
X015545Y005678D02*
X014822Y005678D01*
X014809Y005737D02*
X015545Y005737D01*
X015545Y005795D02*
X014785Y005795D01*
X014761Y005854D02*
X015545Y005854D01*
X015545Y005912D02*
X014714Y005912D01*
X014655Y005971D02*
X015545Y005971D01*
X015545Y006029D02*
X014559Y006029D01*
X014454Y006153D02*
X014623Y006223D01*
X014752Y006352D01*
X014822Y006521D01*
X014822Y006704D01*
X014752Y006873D01*
X014623Y007002D01*
X014454Y007072D01*
X014271Y007072D01*
X014102Y007002D01*
X013973Y006873D01*
X013903Y006704D01*
X013903Y006521D01*
X013973Y006352D01*
X014102Y006223D01*
X014271Y006153D01*
X014454Y006153D01*
X014580Y006205D02*
X015545Y006205D01*
X015545Y006263D02*
X014664Y006263D01*
X014722Y006322D02*
X015545Y006322D01*
X015545Y006380D02*
X014764Y006380D01*
X014788Y006439D02*
X015545Y006439D01*
X015545Y006497D02*
X014813Y006497D01*
X014822Y006556D02*
X015545Y006556D01*
X015545Y006614D02*
X014822Y006614D01*
X014822Y006673D02*
X015545Y006673D01*
X015545Y006731D02*
X014811Y006731D01*
X014787Y006790D02*
X015545Y006790D01*
X015545Y006848D02*
X014763Y006848D01*
X014719Y006907D02*
X015545Y006907D01*
X015545Y006965D02*
X014661Y006965D01*
X014572Y007024D02*
X015545Y007024D01*
X015545Y007082D02*
X011809Y007082D01*
X011809Y007141D02*
X015545Y007141D01*
X015545Y007199D02*
X011805Y007199D01*
X011805Y007258D02*
X015545Y007258D01*
X015545Y007316D02*
X011805Y007316D01*
X011809Y007375D02*
X015545Y007375D01*
X015545Y007433D02*
X011800Y007433D01*
X011778Y007492D02*
X015545Y007492D01*
X015545Y007550D02*
X011732Y007550D01*
X011637Y007609D02*
X015545Y007609D01*
X015545Y007667D02*
X007934Y007667D01*
X007985Y007616D02*
X007803Y007797D01*
X007547Y007797D01*
X007400Y007651D01*
X007253Y007797D01*
X006997Y007797D01*
X006850Y007651D01*
X006703Y007797D01*
X006605Y007797D01*
X006605Y007518D01*
X006545Y007518D01*
X006545Y007797D01*
X006447Y007797D01*
X006300Y007651D01*
X006153Y007797D01*
X005897Y007797D01*
X005715Y007616D01*
X005715Y007359D01*
X005721Y007353D01*
X005430Y007062D01*
X005430Y006039D01*
X005340Y005949D01*
X005340Y005776D01*
X005463Y005653D01*
X005637Y005653D01*
X005760Y005776D01*
X005760Y005949D01*
X005670Y006039D01*
X005670Y006963D01*
X005891Y007183D01*
X005897Y007178D01*
X006153Y007178D01*
X006300Y007324D01*
X006447Y007178D01*
X006545Y007178D01*
X006545Y007457D01*
X006605Y007457D01*
X006605Y007178D01*
X006703Y007178D01*
X006850Y007324D01*
X006965Y007209D01*
X006931Y007175D01*
X006769Y007012D01*
X006166Y007012D01*
X006106Y007072D01*
X005932Y007072D01*
X005809Y006949D01*
X005809Y006776D01*
X005932Y006653D01*
X006106Y006653D01*
X006166Y006713D01*
X006893Y006713D01*
X007143Y006963D01*
X007166Y006963D01*
X007153Y006949D01*
X007153Y006822D01*
X005969Y005639D01*
X003943Y005639D01*
X003670Y005912D01*
X005340Y005912D01*
X005340Y005854D02*
X003729Y005854D01*
X003787Y005795D02*
X005340Y005795D01*
X005379Y005737D02*
X003846Y005737D01*
X003904Y005678D02*
X005437Y005678D01*
X005663Y005678D02*
X006008Y005678D01*
X006067Y005737D02*
X005721Y005737D01*
X005760Y005795D02*
X006125Y005795D01*
X006184Y005854D02*
X005760Y005854D01*
X005760Y005912D02*
X006242Y005912D01*
X006301Y005971D02*
X005739Y005971D01*
X005680Y006029D02*
X006359Y006029D01*
X006418Y006088D02*
X005670Y006088D01*
X005670Y006146D02*
X006476Y006146D01*
X006535Y006205D02*
X005670Y006205D01*
X005670Y006263D02*
X006593Y006263D01*
X006652Y006322D02*
X005670Y006322D01*
X005670Y006380D02*
X006710Y006380D01*
X006769Y006439D02*
X005670Y006439D01*
X005670Y006497D02*
X006827Y006497D01*
X006886Y006556D02*
X005670Y006556D01*
X005670Y006614D02*
X006944Y006614D01*
X007003Y006673D02*
X006126Y006673D01*
X005912Y006673D02*
X005670Y006673D01*
X005670Y006731D02*
X005853Y006731D01*
X005809Y006790D02*
X005670Y006790D01*
X005670Y006848D02*
X005809Y006848D01*
X005809Y006907D02*
X005670Y006907D01*
X005672Y006965D02*
X005824Y006965D01*
X005883Y007024D02*
X005731Y007024D01*
X005789Y007082D02*
X006839Y007082D01*
X006897Y007141D02*
X005848Y007141D01*
X006155Y007024D02*
X006780Y007024D01*
X006725Y007199D02*
X006956Y007199D01*
X006917Y007258D02*
X006783Y007258D01*
X006842Y007316D02*
X006858Y007316D01*
X006605Y007316D02*
X006545Y007316D01*
X006545Y007258D02*
X006605Y007258D01*
X006605Y007199D02*
X006545Y007199D01*
X006425Y007199D02*
X006175Y007199D01*
X006233Y007258D02*
X006367Y007258D01*
X006308Y007316D02*
X006292Y007316D01*
X006545Y007375D02*
X006605Y007375D01*
X006605Y007433D02*
X006545Y007433D01*
X006545Y007550D02*
X006605Y007550D01*
X006605Y007609D02*
X006545Y007609D01*
X006545Y007667D02*
X006605Y007667D01*
X006605Y007726D02*
X006545Y007726D01*
X006545Y007784D02*
X006605Y007784D01*
X006717Y007784D02*
X006983Y007784D01*
X006925Y007726D02*
X006775Y007726D01*
X006834Y007667D02*
X006866Y007667D01*
X007267Y007784D02*
X007533Y007784D01*
X007475Y007726D02*
X007325Y007726D01*
X007384Y007667D02*
X007416Y007667D01*
X007817Y007784D02*
X015532Y007784D01*
X015545Y007726D02*
X007875Y007726D01*
X007985Y007616D02*
X007985Y007359D01*
X007888Y007262D01*
X008050Y007262D01*
X008333Y006979D01*
X008418Y006979D01*
X008541Y006856D01*
X008541Y006682D01*
X008418Y006559D01*
X008244Y006559D01*
X008121Y006682D01*
X008121Y006767D01*
X007925Y006963D01*
X007872Y006963D01*
X007885Y006949D01*
X007885Y006776D01*
X007762Y006653D01*
X007635Y006653D01*
X006326Y005344D01*
X006256Y005274D01*
X003782Y005274D01*
X003375Y005680D01*
X003305Y005750D01*
X003305Y006313D01*
X003125Y006493D01*
X001850Y006493D01*
X001607Y006250D01*
X001607Y003969D01*
X001350Y003711D01*
X000907Y003711D01*
X000903Y003715D01*
X000776Y003715D01*
X000653Y003838D01*
X000653Y004012D01*
X000776Y004135D01*
X000949Y004135D01*
X000965Y004119D01*
X000965Y004137D01*
X001088Y004260D01*
X001215Y004260D01*
X001243Y004287D01*
X001243Y006412D01*
X001313Y006482D01*
X001688Y006857D01*
X003287Y006857D01*
X003357Y006787D01*
X003670Y006475D01*
X003670Y005912D01*
X003670Y005971D02*
X005361Y005971D01*
X005420Y006029D02*
X003670Y006029D01*
X003670Y006088D02*
X005430Y006088D01*
X005430Y006146D02*
X003670Y006146D01*
X003670Y006205D02*
X005430Y006205D01*
X005430Y006263D02*
X003670Y006263D01*
X003670Y006322D02*
X005430Y006322D01*
X005430Y006380D02*
X003670Y006380D01*
X003670Y006439D02*
X005430Y006439D01*
X005430Y006497D02*
X003648Y006497D01*
X003589Y006556D02*
X005430Y006556D01*
X005430Y006614D02*
X003531Y006614D01*
X003472Y006673D02*
X005430Y006673D01*
X005430Y006731D02*
X003414Y006731D01*
X003355Y006790D02*
X005430Y006790D01*
X005430Y006848D02*
X003297Y006848D01*
X003238Y006738D02*
X001738Y006738D01*
X001363Y006363D01*
X001363Y004238D01*
X001175Y004050D01*
X001044Y004216D02*
X000305Y004216D01*
X000305Y004274D02*
X001229Y004274D01*
X001243Y004333D02*
X000305Y004333D01*
X000305Y004391D02*
X001243Y004391D01*
X001243Y004450D02*
X000305Y004450D01*
X000305Y004508D02*
X001243Y004508D01*
X001243Y004567D02*
X000305Y004567D01*
X000305Y004625D02*
X001243Y004625D01*
X001243Y004684D02*
X000305Y004684D01*
X000305Y004742D02*
X001243Y004742D01*
X001243Y004801D02*
X000305Y004801D01*
X000305Y004859D02*
X001243Y004859D01*
X001243Y004918D02*
X000305Y004918D01*
X000305Y004976D02*
X001243Y004976D01*
X001243Y005035D02*
X000305Y005035D01*
X000305Y005093D02*
X001243Y005093D01*
X001243Y005152D02*
X000305Y005152D01*
X000305Y005210D02*
X001243Y005210D01*
X001243Y005269D02*
X000305Y005269D01*
X000305Y005327D02*
X001243Y005327D01*
X001243Y005386D02*
X000305Y005386D01*
X000305Y005444D02*
X001243Y005444D01*
X001243Y005503D02*
X000305Y005503D01*
X000305Y005561D02*
X001243Y005561D01*
X001243Y005620D02*
X000305Y005620D01*
X000305Y005678D02*
X001243Y005678D01*
X001243Y005737D02*
X000305Y005737D01*
X000305Y005795D02*
X001243Y005795D01*
X001243Y005854D02*
X000305Y005854D01*
X000305Y005912D02*
X001243Y005912D01*
X001243Y005971D02*
X000305Y005971D01*
X000305Y006029D02*
X001243Y006029D01*
X001243Y006088D02*
X000305Y006088D01*
X000305Y006146D02*
X001243Y006146D01*
X001243Y006205D02*
X000305Y006205D01*
X000305Y006263D02*
X001243Y006263D01*
X001243Y006322D02*
X000305Y006322D01*
X000305Y006380D02*
X001243Y006380D01*
X001269Y006439D02*
X000305Y006439D01*
X000305Y006497D02*
X001327Y006497D01*
X001386Y006556D02*
X000305Y006556D01*
X000305Y006614D02*
X001444Y006614D01*
X001503Y006673D02*
X000305Y006673D01*
X000305Y006731D02*
X001561Y006731D01*
X001620Y006790D02*
X000305Y006790D01*
X000305Y006848D02*
X001678Y006848D01*
X001800Y006613D02*
X001488Y006300D01*
X001488Y004019D01*
X001300Y003831D01*
X000956Y003831D01*
X000863Y003925D01*
X000653Y003923D02*
X000305Y003923D01*
X000305Y003865D02*
X000653Y003865D01*
X000684Y003806D02*
X000305Y003806D01*
X000305Y003748D02*
X000743Y003748D01*
X000653Y003982D02*
X000305Y003982D01*
X000305Y004040D02*
X000681Y004040D01*
X000739Y004099D02*
X000305Y004099D01*
X000305Y004157D02*
X000985Y004157D01*
X001561Y003923D02*
X001614Y003923D01*
X001607Y003982D02*
X001673Y003982D01*
X001731Y004040D02*
X001607Y004040D01*
X001607Y004099D02*
X001790Y004099D01*
X001848Y004157D02*
X001607Y004157D01*
X001607Y004216D02*
X001907Y004216D01*
X001965Y004274D02*
X001607Y004274D01*
X001607Y004333D02*
X002024Y004333D01*
X002082Y004391D02*
X001607Y004391D01*
X001607Y004450D02*
X002141Y004450D01*
X002199Y004508D02*
X001607Y004508D01*
X001607Y004567D02*
X002331Y004567D01*
X002331Y004625D02*
X001607Y004625D01*
X001607Y004684D02*
X002331Y004684D01*
X002331Y004742D02*
X001607Y004742D01*
X001607Y004801D02*
X002331Y004801D01*
X002331Y004859D02*
X001607Y004859D01*
X001607Y004918D02*
X002331Y004918D01*
X002331Y004976D02*
X001607Y004976D01*
X001607Y005035D02*
X002331Y005035D01*
X002331Y005093D02*
X001607Y005093D01*
X001607Y005152D02*
X002331Y005152D01*
X002331Y005210D02*
X001607Y005210D01*
X001607Y005269D02*
X002331Y005269D01*
X002281Y005327D02*
X001607Y005327D01*
X001607Y005386D02*
X002249Y005386D01*
X002225Y005444D02*
X001607Y005444D01*
X001607Y005503D02*
X002211Y005503D01*
X002211Y005561D02*
X001607Y005561D01*
X001607Y005620D02*
X002211Y005620D01*
X002211Y005678D02*
X001607Y005678D01*
X001607Y005737D02*
X002211Y005737D01*
X002211Y005795D02*
X001607Y005795D01*
X001607Y005854D02*
X002211Y005854D01*
X002211Y005912D02*
X001607Y005912D01*
X001607Y005971D02*
X002211Y005971D01*
X002224Y006029D02*
X001607Y006029D01*
X001607Y006088D02*
X002248Y006088D01*
X002279Y006146D02*
X001607Y006146D01*
X001607Y006205D02*
X002338Y006205D01*
X002430Y006263D02*
X001620Y006263D01*
X001679Y006322D02*
X003296Y006322D01*
X003305Y006263D02*
X002732Y006263D01*
X002825Y006205D02*
X003305Y006205D01*
X003305Y006146D02*
X002883Y006146D01*
X002914Y006088D02*
X003305Y006088D01*
X003305Y006029D02*
X002939Y006029D01*
X002951Y005971D02*
X003305Y005971D01*
X003305Y005912D02*
X002951Y005912D01*
X002951Y005854D02*
X003305Y005854D01*
X003305Y005795D02*
X002951Y005795D01*
X002951Y005737D02*
X003319Y005737D01*
X003377Y005678D02*
X002951Y005678D01*
X002951Y005620D02*
X003436Y005620D01*
X003494Y005561D02*
X002951Y005561D01*
X002951Y005503D02*
X003553Y005503D01*
X003611Y005444D02*
X002938Y005444D01*
X002914Y005386D02*
X003670Y005386D01*
X003728Y005327D02*
X002882Y005327D01*
X002831Y005269D02*
X007930Y005269D01*
X007930Y005327D02*
X006309Y005327D01*
X006368Y005386D02*
X007930Y005386D01*
X007930Y005444D02*
X006426Y005444D01*
X006485Y005503D02*
X007930Y005503D01*
X007930Y005561D02*
X006543Y005561D01*
X006602Y005620D02*
X007930Y005620D01*
X007930Y005678D02*
X006660Y005678D01*
X006719Y005737D02*
X007930Y005737D01*
X007819Y005795D02*
X006777Y005795D01*
X006836Y005854D02*
X007761Y005854D01*
X007760Y005912D02*
X006894Y005912D01*
X006953Y005971D02*
X007760Y005971D01*
X007760Y006029D02*
X007011Y006029D01*
X007304Y006322D02*
X007760Y006322D01*
X007777Y006380D02*
X007362Y006380D01*
X007421Y006439D02*
X007838Y006439D01*
X008030Y006439D02*
X008070Y006439D01*
X008070Y006452D02*
X008070Y006283D01*
X008340Y006283D01*
X008340Y006331D01*
X008330Y006367D01*
X008312Y006398D01*
X008286Y006425D01*
X008254Y006443D01*
X008218Y006452D01*
X008070Y006452D01*
X008070Y006380D02*
X008030Y006380D01*
X008030Y006322D02*
X008070Y006322D01*
X008323Y006380D02*
X008527Y006380D01*
X008510Y006322D02*
X008340Y006322D01*
X008340Y006205D02*
X008510Y006205D01*
X008527Y006146D02*
X008323Y006146D01*
X008323Y006088D02*
X008527Y006088D01*
X008510Y006029D02*
X008340Y006029D01*
X008340Y005971D02*
X008510Y005971D01*
X008510Y005912D02*
X008340Y005912D01*
X008339Y005854D02*
X008511Y005854D01*
X008569Y005795D02*
X008281Y005795D01*
X008170Y005737D02*
X008680Y005737D01*
X008680Y005678D02*
X008170Y005678D01*
X008170Y005620D02*
X008680Y005620D01*
X008680Y005561D02*
X008170Y005561D01*
X008170Y005503D02*
X008680Y005503D01*
X008680Y005444D02*
X008170Y005444D01*
X008170Y005386D02*
X008680Y005386D01*
X008680Y005327D02*
X008170Y005327D01*
X008170Y005269D02*
X008680Y005269D01*
X008680Y005210D02*
X008170Y005210D01*
X008170Y005152D02*
X008680Y005152D01*
X008680Y005093D02*
X008177Y005093D01*
X008235Y005035D02*
X008680Y005035D01*
X008800Y004956D02*
X008800Y005963D01*
X008820Y006283D02*
X009090Y006283D01*
X009090Y006331D01*
X009080Y006367D01*
X009062Y006398D01*
X009036Y006425D01*
X009004Y006443D01*
X008968Y006452D01*
X008820Y006452D01*
X008820Y006283D01*
X008820Y006322D02*
X008780Y006322D01*
X008780Y006380D02*
X008820Y006380D01*
X008820Y006439D02*
X008780Y006439D01*
X008588Y006439D02*
X008262Y006439D01*
X008189Y006614D02*
X007596Y006614D01*
X007538Y006556D02*
X009545Y006556D01*
X009545Y006614D02*
X008474Y006614D01*
X008532Y006673D02*
X009545Y006673D01*
X009545Y006731D02*
X008541Y006731D01*
X008541Y006790D02*
X009545Y006790D01*
X009545Y006848D02*
X008541Y006848D01*
X008490Y006907D02*
X009545Y006907D01*
X009545Y006965D02*
X008432Y006965D01*
X008289Y007024D02*
X009545Y007024D01*
X009545Y007082D02*
X008230Y007082D01*
X008172Y007141D02*
X009545Y007141D01*
X009545Y007199D02*
X008113Y007199D01*
X008055Y007258D02*
X009545Y007258D01*
X009545Y007316D02*
X007942Y007316D01*
X007985Y007375D02*
X009541Y007375D01*
X009550Y007433D02*
X007985Y007433D01*
X007985Y007492D02*
X009572Y007492D01*
X009618Y007550D02*
X007985Y007550D01*
X007985Y007609D02*
X009713Y007609D01*
X010333Y006848D02*
X013962Y006848D01*
X013938Y006790D02*
X010305Y006790D01*
X010305Y006731D02*
X013914Y006731D01*
X013903Y006673D02*
X010305Y006673D01*
X010305Y006614D02*
X013903Y006614D01*
X013903Y006556D02*
X010305Y006556D01*
X010305Y006497D02*
X013278Y006497D01*
X013296Y006515D02*
X013205Y006425D01*
X013205Y006392D01*
X013111Y006392D01*
X013020Y006301D01*
X013006Y006288D01*
X012993Y006301D01*
X012904Y006390D01*
X012902Y006392D01*
X012839Y006392D01*
X012774Y006392D01*
X012774Y006392D01*
X012650Y006392D01*
X012577Y006318D01*
X012503Y006392D01*
X012442Y006454D01*
X012313Y006454D01*
X012252Y006392D01*
X012252Y006392D01*
X012161Y006301D01*
X012161Y006173D01*
X012220Y006113D01*
X012161Y006054D01*
X012161Y005926D01*
X012252Y005835D01*
X012380Y005835D01*
X012442Y005897D01*
X012515Y005970D01*
X012589Y005897D01*
X012650Y005835D01*
X012715Y005835D01*
X012902Y005835D01*
X013006Y005939D01*
X013049Y005897D01*
X013111Y005835D01*
X013176Y005835D01*
X013424Y005835D01*
X013515Y005926D01*
X013515Y006301D01*
X013515Y006425D01*
X013424Y006515D01*
X013296Y006515D01*
X013219Y006439D02*
X012457Y006439D01*
X012515Y006380D02*
X012638Y006380D01*
X012580Y006322D02*
X012574Y006322D01*
X012298Y006439D02*
X010305Y006439D01*
X010305Y006380D02*
X012240Y006380D01*
X012181Y006322D02*
X010305Y006322D01*
X010305Y006263D02*
X012161Y006263D01*
X012161Y006205D02*
X010305Y006205D01*
X010305Y006146D02*
X012187Y006146D01*
X012194Y006088D02*
X010305Y006088D01*
X010305Y006029D02*
X012161Y006029D01*
X012161Y005971D02*
X010305Y005971D01*
X010305Y005912D02*
X012175Y005912D01*
X012233Y005854D02*
X010305Y005854D01*
X010305Y005795D02*
X013940Y005795D01*
X013916Y005737D02*
X010305Y005737D01*
X010305Y005678D02*
X013903Y005678D01*
X013903Y005620D02*
X010305Y005620D01*
X010305Y005561D02*
X013903Y005561D01*
X013910Y005503D02*
X010332Y005503D01*
X009545Y006322D02*
X009090Y006322D01*
X009073Y006380D02*
X009545Y006380D01*
X009545Y006439D02*
X009012Y006439D01*
X009545Y006497D02*
X007479Y006497D01*
X007782Y006673D02*
X008130Y006673D01*
X008121Y006731D02*
X007841Y006731D01*
X007885Y006790D02*
X008098Y006790D01*
X008040Y006848D02*
X007885Y006848D01*
X007885Y006907D02*
X007981Y006907D01*
X007675Y006863D02*
X006206Y005394D01*
X003831Y005394D01*
X003425Y005800D01*
X003425Y006363D01*
X003175Y006613D01*
X001800Y006613D01*
X001796Y006439D02*
X003179Y006439D01*
X003238Y006380D02*
X001737Y006380D01*
X000305Y006907D02*
X005430Y006907D01*
X005430Y006965D02*
X000305Y006965D01*
X000305Y007024D02*
X005430Y007024D01*
X005450Y007082D02*
X000305Y007082D01*
X000305Y007141D02*
X005508Y007141D01*
X005567Y007199D02*
X000305Y007199D01*
X000305Y007258D02*
X005625Y007258D01*
X005684Y007316D02*
X000305Y007316D01*
X000305Y007375D02*
X005715Y007375D01*
X005715Y007433D02*
X000305Y007433D01*
X000305Y007492D02*
X005715Y007492D01*
X005715Y007550D02*
X000305Y007550D01*
X000305Y007609D02*
X005715Y007609D01*
X005766Y007667D02*
X000305Y007667D01*
X000305Y007726D02*
X005825Y007726D01*
X005883Y007784D02*
X000318Y007784D01*
X000375Y007843D02*
X015475Y007843D01*
X014153Y007024D02*
X011796Y007024D01*
X011768Y006965D02*
X014064Y006965D01*
X014006Y006907D02*
X011704Y006907D01*
X012902Y006392D02*
X012902Y006392D01*
X012914Y006380D02*
X013099Y006380D01*
X013040Y006322D02*
X012972Y006322D01*
X012993Y006301D02*
X012993Y006301D01*
X013442Y006497D02*
X013912Y006497D01*
X013937Y006439D02*
X013501Y006439D01*
X013515Y006380D02*
X013961Y006380D01*
X014003Y006322D02*
X013515Y006322D01*
X013515Y006263D02*
X014061Y006263D01*
X014145Y006205D02*
X013515Y006205D01*
X013515Y006146D02*
X015545Y006146D01*
X015545Y006088D02*
X013515Y006088D01*
X013515Y006029D02*
X014166Y006029D01*
X014070Y005971D02*
X013515Y005971D01*
X013501Y005912D02*
X014011Y005912D01*
X013964Y005854D02*
X013443Y005854D01*
X013092Y005854D02*
X012921Y005854D01*
X012979Y005912D02*
X013034Y005912D01*
X013049Y005897D02*
X013049Y005897D01*
X012632Y005854D02*
X012399Y005854D01*
X012442Y005897D02*
X012442Y005897D01*
X012457Y005912D02*
X012573Y005912D01*
X012589Y005897D02*
X012589Y005897D01*
X008800Y004956D02*
X008644Y004800D01*
X008464Y004918D02*
X008352Y004918D01*
X008294Y004976D02*
X008523Y004976D01*
X008434Y004859D02*
X008411Y004859D01*
X008247Y004684D02*
X002831Y004684D01*
X002831Y004742D02*
X008188Y004742D01*
X008130Y004801D02*
X002831Y004801D01*
X002831Y004859D02*
X008071Y004859D01*
X008013Y004918D02*
X002831Y004918D01*
X002831Y004976D02*
X007954Y004976D01*
X007930Y005035D02*
X002831Y005035D01*
X002831Y005093D02*
X007930Y005093D01*
X007930Y005152D02*
X002831Y005152D01*
X002831Y005210D02*
X007930Y005210D01*
X008050Y005050D02*
X008050Y005963D01*
X007061Y006731D02*
X006912Y006731D01*
X006970Y006790D02*
X007120Y006790D01*
X007153Y006848D02*
X007029Y006848D01*
X007087Y006907D02*
X007153Y006907D01*
X007363Y006863D02*
X006019Y005519D01*
X003894Y005519D01*
X003550Y005863D01*
X003550Y006425D01*
X003238Y006738D01*
X005550Y007013D02*
X005550Y005863D01*
X005550Y007013D02*
X006025Y007488D01*
X006284Y007667D02*
X006316Y007667D01*
X006375Y007726D02*
X006225Y007726D01*
X006167Y007784D02*
X006433Y007784D01*
X008050Y005050D02*
X008644Y004456D01*
X008434Y004450D02*
X003147Y004450D01*
X003117Y004479D02*
X003117Y004479D01*
X003088Y004508D02*
X008422Y004508D01*
X008364Y004567D02*
X002831Y004567D01*
X002831Y004625D02*
X008305Y004625D01*
X008434Y004391D02*
X003205Y004391D01*
X003264Y004333D02*
X008470Y004333D01*
X008529Y004274D02*
X003322Y004274D01*
X003225Y004000D02*
X002863Y004300D01*
X002613Y004300D01*
X002613Y004331D01*
X002581Y004363D01*
X003225Y004000D02*
X003163Y003738D01*
X002477Y003748D02*
X002248Y003748D01*
X002306Y003806D02*
X002419Y003806D01*
X001556Y003865D02*
X001503Y003865D01*
X001497Y003806D02*
X001444Y003806D01*
X001439Y003748D02*
X001386Y003748D01*
X001380Y003689D02*
X000305Y003689D01*
X000305Y001349D02*
X015545Y001349D01*
X015545Y001291D02*
X000305Y001291D01*
X000305Y001232D02*
X015545Y001232D01*
X015545Y001174D02*
X000305Y001174D01*
X000305Y001115D02*
X015545Y001115D01*
X015545Y001057D02*
X000305Y001057D01*
X000305Y000998D02*
X015545Y000998D01*
X015545Y000940D02*
X000305Y000940D01*
X000305Y000881D02*
X015545Y000881D01*
X015545Y000823D02*
X000305Y000823D01*
X000305Y000764D02*
X015545Y000764D01*
X015545Y000706D02*
X000305Y000706D01*
X000305Y000647D02*
X015545Y000647D01*
X015545Y000589D02*
X000305Y000589D01*
X000305Y000530D02*
X015545Y000530D01*
X015543Y000472D02*
X000307Y000472D01*
X000334Y000413D02*
X015516Y000413D01*
X015545Y002110D02*
X014197Y002110D01*
X014166Y002168D02*
X015545Y002168D01*
X015545Y002227D02*
X014148Y002227D01*
X014197Y002285D02*
X015545Y002285D01*
X007191Y003865D02*
X005724Y003865D01*
D17*
X004113Y004300D03*
X003800Y004300D03*
X003488Y004300D03*
X002831Y003175D03*
X002519Y003175D03*
X002206Y003175D03*
X003488Y001925D03*
X003800Y001925D03*
X002800Y001238D03*
X002488Y001238D03*
X002175Y001238D03*
X006113Y001175D03*
X008113Y001425D03*
X008425Y001425D03*
X008738Y001425D03*
X010675Y001175D03*
X011175Y001175D03*
X010925Y001488D03*
X010675Y001800D03*
X011175Y001800D03*
X012925Y002050D03*
X012925Y002363D03*
X014019Y003050D03*
X014019Y003363D03*
X015175Y004113D03*
X015175Y004800D03*
X015175Y006425D03*
X015175Y007113D03*
X011488Y007331D03*
X010925Y007331D03*
X010363Y007331D03*
X010675Y006300D03*
X011175Y006300D03*
X010925Y005988D03*
X010675Y005675D03*
X011175Y005675D03*
X010925Y005081D03*
X011488Y005081D03*
X010363Y005081D03*
X010675Y004050D03*
X010925Y003738D03*
X011175Y004050D03*
X011175Y003425D03*
X010675Y003425D03*
X010925Y002831D03*
X011488Y002831D03*
X010363Y002831D03*
X008738Y002769D03*
X008425Y002769D03*
X008113Y002769D03*
X000738Y005550D03*
X000738Y005925D03*
X003488Y007175D03*
X003800Y007175D03*
X004113Y007175D03*
D18*
X006019Y006863D03*
X007363Y006863D03*
X007675Y006863D03*
X008331Y006769D03*
X007550Y005738D03*
X007113Y005738D03*
X007113Y005300D03*
X007550Y005300D03*
X006675Y005300D03*
X006675Y004863D03*
X007113Y004863D03*
X007550Y004863D03*
X008644Y004800D03*
X008644Y004456D03*
X008581Y003894D03*
X008269Y003894D03*
X007488Y003738D03*
X007331Y003456D03*
X005550Y003988D03*
X005550Y004456D03*
X005550Y005144D03*
X005550Y005863D03*
X009081Y005394D03*
X005425Y003488D03*
X002863Y002300D03*
X002863Y001988D03*
X000863Y003925D03*
X001175Y004050D03*
X013988Y002363D03*
X013988Y002050D03*
D19*
X011797Y002710D02*
X011788Y002683D01*
X011773Y002660D01*
X011753Y002640D01*
X011729Y002625D01*
X011703Y002616D01*
X011686Y002614D01*
X004178Y002614D01*
X004176Y002613D01*
X003175Y002613D01*
X003113Y002675D01*
X000315Y002675D01*
X000315Y003550D01*
X001925Y003550D01*
X001925Y003050D01*
X002081Y002894D01*
X002956Y002894D01*
X003113Y003050D01*
X003113Y003238D01*
X007239Y003238D01*
X007240Y003236D01*
X007422Y003236D01*
X007424Y003238D01*
X009488Y003238D01*
X009529Y003242D01*
X009569Y003256D01*
X009604Y003278D01*
X009634Y003308D01*
X009656Y003344D01*
X009670Y003383D01*
X009675Y003425D01*
X009675Y007363D01*
X009678Y007390D01*
X009687Y007417D01*
X009702Y007440D01*
X009722Y007460D01*
X009746Y007475D01*
X009772Y007484D01*
X009800Y007488D01*
X011550Y007488D01*
X011578Y007484D01*
X011604Y007475D01*
X011628Y007460D01*
X011648Y007440D01*
X011663Y007417D01*
X011672Y007390D01*
X011675Y007363D01*
X011675Y007113D01*
X011672Y007085D01*
X011663Y007058D01*
X011648Y007035D01*
X011628Y007015D01*
X011604Y007000D01*
X011578Y006991D01*
X011550Y006988D01*
X010363Y006988D01*
X010321Y006983D01*
X010281Y006969D01*
X010246Y006947D01*
X010216Y006917D01*
X010194Y006881D01*
X010180Y006842D01*
X010175Y006800D01*
X010175Y005550D01*
X010180Y005508D01*
X010194Y005469D01*
X010216Y005433D01*
X010246Y005403D01*
X010281Y005381D01*
X010321Y005367D01*
X010363Y005363D01*
X011550Y005363D01*
X011578Y005359D01*
X011604Y005350D01*
X011628Y005335D01*
X011648Y005315D01*
X011663Y005292D01*
X011672Y005265D01*
X011675Y005238D01*
X011675Y004988D01*
X011672Y004960D01*
X011663Y004933D01*
X011648Y004910D01*
X011628Y004890D01*
X011604Y004875D01*
X011578Y004866D01*
X011550Y004863D01*
X010300Y004863D01*
X010272Y004859D01*
X010246Y004850D01*
X010222Y004835D01*
X010202Y004815D01*
X010187Y004792D01*
X010178Y004765D01*
X010175Y004738D01*
X010175Y003300D01*
X010180Y003258D01*
X010194Y003219D01*
X010216Y003183D01*
X010246Y003153D01*
X010281Y003131D01*
X010321Y003117D01*
X010363Y003113D01*
X011675Y003113D01*
X011703Y003109D01*
X011729Y003100D01*
X011753Y003085D01*
X011773Y003065D01*
X011788Y003042D01*
X011797Y003015D01*
X011800Y002988D01*
X011800Y002738D01*
X011797Y002710D01*
X011800Y002750D02*
X000315Y002750D01*
X000315Y002828D02*
X011800Y002828D01*
X011800Y002907D02*
X002969Y002907D01*
X003048Y002985D02*
X011800Y002985D01*
X011774Y003064D02*
X003113Y003064D01*
X003113Y003142D02*
X010264Y003142D01*
X010193Y003221D02*
X003113Y003221D01*
X003567Y003221D01*
X003613Y003175D02*
X003113Y003206D01*
X003113Y003300D01*
X002925Y003488D01*
X002925Y004081D01*
X002831Y004175D01*
X002300Y004175D01*
X002206Y004081D01*
X002206Y003894D01*
X001925Y003613D01*
X001925Y003269D01*
X001300Y003300D01*
X001363Y003488D01*
X002300Y004425D01*
X002988Y004425D01*
X003363Y004050D01*
X003363Y003425D01*
X003613Y003175D01*
X003488Y003299D02*
X003113Y003299D01*
X003035Y003378D02*
X003410Y003378D01*
X003363Y003456D02*
X002956Y003456D01*
X002925Y003535D02*
X003363Y003535D01*
X003363Y003613D02*
X002925Y003613D01*
X002925Y003692D02*
X003363Y003692D01*
X003363Y003770D02*
X002925Y003770D01*
X002925Y003849D02*
X003363Y003849D01*
X003363Y003927D02*
X002925Y003927D01*
X002925Y004006D02*
X003363Y004006D01*
X003328Y004084D02*
X002922Y004084D01*
X002844Y004163D02*
X003250Y004163D01*
X003171Y004241D02*
X002116Y004241D01*
X002038Y004163D02*
X002288Y004163D01*
X002209Y004084D02*
X001959Y004084D01*
X001881Y004006D02*
X002206Y004006D01*
X002206Y003927D02*
X001802Y003927D01*
X001724Y003849D02*
X002161Y003849D01*
X002083Y003770D02*
X001645Y003770D01*
X001567Y003692D02*
X002004Y003692D01*
X001926Y003613D02*
X001488Y003613D01*
X001410Y003535D02*
X001925Y003535D01*
X000315Y003535D01*
X000315Y003456D02*
X001925Y003456D01*
X001352Y003456D01*
X001326Y003378D02*
X001925Y003378D01*
X000315Y003378D01*
X000315Y003299D02*
X001925Y003299D01*
X001320Y003299D01*
X001925Y003221D02*
X000315Y003221D01*
X000315Y003142D02*
X001925Y003142D01*
X001925Y003064D02*
X000315Y003064D01*
X000315Y002985D02*
X001990Y002985D01*
X002068Y002907D02*
X000315Y002907D01*
X002195Y004320D02*
X003093Y004320D01*
X003014Y004398D02*
X002273Y004398D01*
X003116Y002671D02*
X011780Y002671D01*
X010175Y003299D02*
X009625Y003299D01*
X009668Y003378D02*
X010175Y003378D01*
X010175Y003456D02*
X009675Y003456D01*
X009675Y003535D02*
X010175Y003535D01*
X010175Y003613D02*
X009675Y003613D01*
X009675Y003692D02*
X010175Y003692D01*
X010175Y003770D02*
X009675Y003770D01*
X009675Y003849D02*
X010175Y003849D01*
X010175Y003927D02*
X009675Y003927D01*
X009675Y004006D02*
X010175Y004006D01*
X010175Y004084D02*
X009675Y004084D01*
X009675Y004163D02*
X010175Y004163D01*
X010175Y004241D02*
X009675Y004241D01*
X009675Y004320D02*
X010175Y004320D01*
X010175Y004398D02*
X009675Y004398D01*
X009675Y004477D02*
X010175Y004477D01*
X010175Y004555D02*
X009675Y004555D01*
X009675Y004634D02*
X010175Y004634D01*
X010175Y004712D02*
X009675Y004712D01*
X009675Y004791D02*
X010187Y004791D01*
X009675Y004869D02*
X011587Y004869D01*
X011668Y004948D02*
X009675Y004948D01*
X009675Y005026D02*
X011675Y005026D01*
X011675Y005105D02*
X009675Y005105D01*
X009675Y005183D02*
X011675Y005183D01*
X011672Y005262D02*
X009675Y005262D01*
X009675Y005340D02*
X011620Y005340D01*
X010230Y005419D02*
X009675Y005419D01*
X009675Y005497D02*
X010184Y005497D01*
X010175Y005576D02*
X009675Y005576D01*
X009675Y005654D02*
X010175Y005654D01*
X010175Y005733D02*
X009675Y005733D01*
X009675Y005811D02*
X010175Y005811D01*
X010175Y005890D02*
X009675Y005890D01*
X009675Y005968D02*
X010175Y005968D01*
X010175Y006047D02*
X009675Y006047D01*
X009675Y006125D02*
X010175Y006125D01*
X010175Y006204D02*
X009675Y006204D01*
X009675Y006282D02*
X010175Y006282D01*
X010175Y006361D02*
X009675Y006361D01*
X009675Y006439D02*
X010175Y006439D01*
X010175Y006518D02*
X009675Y006518D01*
X009675Y006596D02*
X010175Y006596D01*
X010175Y006675D02*
X009675Y006675D01*
X009675Y006753D02*
X010175Y006753D01*
X010179Y006832D02*
X009675Y006832D01*
X009675Y006910D02*
X010212Y006910D01*
X009675Y006989D02*
X011559Y006989D01*
X011666Y007067D02*
X009675Y007067D01*
X009675Y007146D02*
X011675Y007146D01*
X011675Y007224D02*
X009675Y007224D01*
X009675Y007303D02*
X011675Y007303D01*
X011673Y007381D02*
X009677Y007381D01*
X009721Y007460D02*
X011629Y007460D01*
D20*
X002581Y005925D03*
X002581Y005550D03*
D21*
X002581Y004363D01*
X003488Y001925D02*
X003800Y001925D01*
X011425Y002988D02*
X011675Y002956D01*
X011988Y003550D02*
X013238Y003550D01*
X012925Y002925D02*
X012925Y002363D01*
X012925Y002050D01*
D22*
X002581Y005550D02*
X002581Y005925D01*
D23*
X011425Y002988D02*
X011988Y003550D01*
X013238Y003550D02*
X013525Y003263D01*
X013525Y002925D01*
D24*
X008331Y006769D02*
X007988Y007113D01*
X007675Y007113D01*
X007675Y007488D01*
X007675Y007113D02*
X007081Y007113D01*
X006831Y006863D01*
X006019Y006863D01*
D25*
X012325Y002925D02*
X012325Y002825D01*
X011894Y002394D01*
X004269Y002394D01*
X003800Y001925D01*
M02*
