G75*
%MOIN*%
%OFA0B0*%
%FSLAX24Y24*%
%IPPOS*%
%LPD*%
%AMOC8*
5,1,8,0,0,1.08239X$1,22.5*
%
%ADD10C,0.0000*%
%ADD11R,0.1750X0.1000*%
%ADD12C,0.0780*%
%ADD13OC8,0.0480*%
%ADD14C,0.0110*%
%ADD15C,0.0120*%
D10*
X000425Y000238D02*
X015425Y000238D01*
X015455Y000240D01*
X015485Y000245D01*
X015514Y000254D01*
X015541Y000267D01*
X015567Y000282D01*
X015591Y000301D01*
X015612Y000322D01*
X015631Y000346D01*
X015646Y000372D01*
X015659Y000399D01*
X015668Y000428D01*
X015673Y000458D01*
X015675Y000488D01*
X015675Y007738D01*
X015673Y007768D01*
X015668Y007798D01*
X015659Y007827D01*
X015646Y007854D01*
X015631Y007880D01*
X015612Y007904D01*
X015591Y007925D01*
X015567Y007944D01*
X015541Y007959D01*
X015514Y007972D01*
X015485Y007981D01*
X015455Y007986D01*
X015425Y007988D01*
X000425Y007988D01*
X000395Y007986D01*
X000365Y007981D01*
X000336Y007972D01*
X000309Y007959D01*
X000283Y007944D01*
X000259Y007925D01*
X000238Y007904D01*
X000219Y007880D01*
X000204Y007854D01*
X000191Y007827D01*
X000182Y007798D01*
X000177Y007768D01*
X000175Y007738D01*
X000175Y000488D01*
X000177Y000458D01*
X000182Y000428D01*
X000191Y000399D01*
X000204Y000372D01*
X000219Y000346D01*
X000238Y000322D01*
X000259Y000301D01*
X000283Y000282D01*
X000309Y000267D01*
X000336Y000254D01*
X000365Y000245D01*
X000395Y000240D01*
X000425Y000238D01*
D11*
X001113Y001363D03*
X001113Y003113D03*
X012738Y003925D03*
X012738Y000925D03*
D12*
X014363Y004613D03*
X014363Y005613D03*
X014363Y006613D03*
D13*
X007675Y007488D03*
X007125Y007488D03*
X006575Y007488D03*
X006025Y007488D03*
D14*
X003358Y004018D02*
X002968Y004018D01*
X003358Y004018D02*
X003358Y003458D01*
X002968Y003458D01*
X002968Y004018D01*
X002968Y003567D02*
X003358Y003567D01*
X003358Y003676D02*
X002968Y003676D01*
X002968Y003785D02*
X003358Y003785D01*
X003358Y003894D02*
X002968Y003894D01*
X002968Y004003D02*
X003358Y004003D01*
X002758Y004018D02*
X002368Y004018D01*
X002758Y004018D02*
X002758Y003458D01*
X002368Y003458D01*
X002368Y004018D01*
X002368Y003567D02*
X002758Y003567D01*
X002758Y003676D02*
X002368Y003676D01*
X002368Y003785D02*
X002758Y003785D01*
X002758Y003894D02*
X002368Y003894D01*
X002368Y004003D02*
X002758Y004003D01*
X012130Y002645D02*
X012520Y002645D01*
X012130Y002645D02*
X012130Y003205D01*
X012520Y003205D01*
X012520Y002645D01*
X012520Y002754D02*
X012130Y002754D01*
X012130Y002863D02*
X012520Y002863D01*
X012520Y002972D02*
X012130Y002972D01*
X012130Y003081D02*
X012520Y003081D01*
X012520Y003190D02*
X012130Y003190D01*
X012730Y002645D02*
X013120Y002645D01*
X012730Y002645D02*
X012730Y003205D01*
X013120Y003205D01*
X013120Y002645D01*
X013120Y002754D02*
X012730Y002754D01*
X012730Y002863D02*
X013120Y002863D01*
X013120Y002972D02*
X012730Y002972D01*
X012730Y003081D02*
X013120Y003081D01*
X013120Y003190D02*
X012730Y003190D01*
X013330Y002645D02*
X013720Y002645D01*
X013330Y002645D02*
X013330Y003205D01*
X013720Y003205D01*
X013720Y002645D01*
X013720Y002754D02*
X013330Y002754D01*
X013330Y002863D02*
X013720Y002863D01*
X013720Y002972D02*
X013330Y002972D01*
X013330Y003081D02*
X013720Y003081D01*
X013720Y003190D02*
X013330Y003190D01*
D15*
X008960Y005903D02*
X008960Y006023D01*
X008960Y005903D02*
X008640Y005903D01*
X008640Y006023D01*
X008960Y006023D01*
X008960Y006022D02*
X008640Y006022D01*
X008960Y006203D02*
X008960Y006323D01*
X008960Y006203D02*
X008640Y006203D01*
X008640Y006323D01*
X008960Y006323D01*
X008960Y006322D02*
X008640Y006322D01*
X008210Y006323D02*
X008210Y006203D01*
X007890Y006203D01*
X007890Y006323D01*
X008210Y006323D01*
X008210Y006322D02*
X007890Y006322D01*
X008210Y006023D02*
X008210Y005903D01*
X007890Y005903D01*
X007890Y006023D01*
X008210Y006023D01*
X008210Y006022D02*
X007890Y006022D01*
M02*
