%
M48
M72
T01C0.0120
T02C0.0157
T03C0.0197
T04C0.0236
T05C0.0276
T06C0.0354
T07C0.0400
T08C0.0630
T09C0.1260
%
T01
X1213Y2693
X1963Y2693
X2713Y2693
X3838Y2693
X3463Y4380
X1213Y4505
X1213Y5380
X1213Y6255
X4275Y6974
X4275Y7286
X4275Y7755
X5057Y8536
X5275Y8786
X5525Y8529
X6682Y7349
X6682Y7036
X6869Y6568
X7557Y6568
X8088Y6630
X8088Y6974
X8338Y7880
X7557Y7880
X7275Y8130
X7224Y9161
X7213Y9505
X8275Y9130
X8884Y9568
X8650Y10068
X8650Y10755
X8088Y11505
X7338Y11505
X7838Y12661
X7338Y12943
X7338Y15130
X9588Y11818
X9838Y11568
X9963Y10755
X10947Y11068
X9963Y9568
X9713Y9318
X10588Y8818
X9838Y7880
X9807Y6974
X10057Y6755
X9807Y6536
X9807Y6193
X10088Y6005
X9807Y5818
X9119Y5411
X9119Y5068
X8713Y4786
X8400Y5193
X8400Y5693
X7557Y5693
X6869Y5693
X6682Y5411
X6650Y3661
X5619Y3036
X8213Y3568
X8715Y2693
X9338Y2068
X9775Y2693
X9494Y3755
X11057Y4630
X11057Y5380
X11057Y6286
X11307Y7130
X11057Y7536
X11275Y7755
X11494Y7974
X11682Y9005
X11994Y9005
X12713Y9193
X12713Y9630
X13150Y9630
X13150Y9193
X13588Y9193
X13588Y9630
X13588Y8755
X13150Y8755
X12713Y8755
X13463Y7974
X13838Y7974
X12994Y7318
X12994Y7005
X12994Y6693
X12838Y5724
X11963Y6286
X12838Y4411
X13588Y4411
X14025Y3818
X13588Y3568
X14463Y2568
X12713Y2255
X12213Y2130
X11900Y3443
X15588Y4443
X17088Y4349
X18088Y4349
X17963Y5318
X17432Y5318
X18557Y6349
X16557Y7630
X16557Y7974
X16025Y6755
X16213Y6099
X15713Y9224
X15713Y9630
X15400Y11568
X14150Y11536
X12838Y11536
X12838Y12943
X13463Y13130
X12838Y15130
X18838Y15380
X18838Y15880
X19900Y15318
X18838Y13693
X18838Y13193
X18963Y12255
X19900Y11880
X19463Y10255
X19900Y17568
X5525Y10623
X5525Y9935
X3994Y9193
X3463Y9505
X3463Y9818
X2775Y12286
X2463Y12286
X2150Y12286
X3744Y13068
T02
X2838Y11818
X3573Y10267
X5713Y12505
X6025Y12755
X5713Y13005
X6025Y13318
X5963Y13786
X6275Y13786
X6588Y13786
X6025Y14380
X5713Y14693
X6025Y14943
X5713Y15255
X6025Y15505
X5963Y15974
X6275Y15974
X6588Y15974
X6025Y16568
X5713Y16880
X6025Y17130
X5713Y17380
X6025Y17693
X6713Y18693
X7213Y18693
X7713Y18693
X11213Y15193
X11525Y14943
X11213Y14693
X11525Y14380
X11400Y13786
X11713Y13786
X12025Y13786
X11525Y13318
X11213Y13005
X11525Y12755
X11213Y12505
X11525Y12193
X11400Y11599
X11713Y11599
X12025Y11599
X15025Y11693
X16838Y12505
X17150Y12755
X16838Y13005
X17150Y13318
X17025Y13786
X17338Y13786
X17650Y13786
X17150Y14380
X16838Y14693
X17150Y14943
X16838Y15193
X17150Y15505
X17025Y15974
X17338Y15974
X17650Y15974
X17400Y17068
X17150Y17380
X16900Y17693
X17400Y17693
X16900Y17068
X14525Y15005
X14150Y15005
X13775Y15005
X13775Y14630
X14150Y14630
X14525Y14630
X17150Y12193
X17025Y11599
X17338Y11599
X17650Y11599
X15650Y6255
X13775Y6255
X14838Y3255
X13338Y3005
X6275Y8318
X6275Y11599
X5963Y11599
X6025Y12193
X6588Y11599
X8213Y14630
X8588Y14630
X8963Y14630
X8963Y15005
X8588Y15005
X8213Y15005
X11400Y15974
X11713Y15974
X12025Y15974
X11525Y15505
X11275Y17068
X11525Y17380
X11275Y17693
X11775Y17693
X11775Y17068
X12338Y18693
X12838Y18693
X13338Y18693
X6025Y4599
T03
X1390Y9767
X1390Y10259
X1390Y10751
X1390Y11243
X15025Y9411
X17088Y7568
T04
X17525Y7568
X17713Y5005
X17213Y5005
X18213Y5005
X13900Y10630
X10150Y8474
X4682Y6380
X8588Y15974
X8588Y16536
X14150Y16536
X14150Y15974
T05
X3463Y14721
X3463Y14130
X3463Y13539
T06
X2463Y6246
X2463Y4514
T07
X3338Y2130
X4338Y2130
X5338Y2130
X6338Y2130
X6338Y880
X5338Y880
X4338Y880
X3338Y880
X7588Y880
X8588Y880
X9588Y880
X16088Y2380
X17088Y2380
X19463Y3130
X19463Y4130
X19463Y5130
X19463Y6130
X19463Y7130
X19463Y8380
X19463Y9380
X16588Y19005
X15588Y19005
X14588Y19005
X11088Y19005
X10088Y19005
X9088Y19005
X5588Y19005
X4588Y19005
X3588Y19005
X2338Y16630
X2338Y15630
X2338Y14630
X2338Y13630
X1338Y13630
X1338Y12630
X1338Y14630
X1338Y15630
X1338Y16630
X1338Y8380
X2338Y8380
T08
X15838Y1130
X17338Y1130
T09
X1572Y1114
X19289Y1114
X19289Y18831
X1572Y18831
M30
