G75*
%MOIN*%
%OFA0B0*%
%FSLAX24Y24*%
%IPPOS*%
%LPD*%
%AMOC8*
5,1,8,0,0,1.08239X$1,22.5*
%
%ADD10C,0.0000*%
%ADD11C,0.0130*%
%ADD12C,0.0080*%
%ADD13C,0.0060*%
%ADD14C,0.0050*%
%ADD15C,0.0200*%
%ADD16C,0.0030*%
%ADD17C,0.0090*%
%ADD18C,0.0003*%
%ADD19C,0.0055*%
%ADD20C,0.0020*%
%ADD21R,0.0197X0.0344*%
%ADD22C,0.0030*%
D10*
X000588Y000721D02*
X000588Y019224D01*
X000587Y019224D02*
X000589Y019270D01*
X000594Y019316D01*
X000603Y019362D01*
X000616Y019407D01*
X000632Y019450D01*
X000651Y019492D01*
X000674Y019533D01*
X000700Y019571D01*
X000729Y019608D01*
X000760Y019642D01*
X000794Y019673D01*
X000831Y019702D01*
X000869Y019728D01*
X000910Y019751D01*
X000952Y019770D01*
X000995Y019786D01*
X001040Y019799D01*
X001086Y019808D01*
X001132Y019813D01*
X001178Y019815D01*
X019682Y019815D01*
X019728Y019813D01*
X019774Y019808D01*
X019820Y019799D01*
X019865Y019786D01*
X019908Y019770D01*
X019950Y019751D01*
X019991Y019728D01*
X020029Y019702D01*
X020066Y019673D01*
X020100Y019642D01*
X020131Y019608D01*
X020160Y019571D01*
X020186Y019533D01*
X020209Y019492D01*
X020228Y019450D01*
X020244Y019407D01*
X020257Y019362D01*
X020266Y019316D01*
X020271Y019270D01*
X020273Y019224D01*
X020273Y000721D01*
X020271Y000675D01*
X020266Y000629D01*
X020257Y000583D01*
X020244Y000538D01*
X020228Y000495D01*
X020209Y000453D01*
X020186Y000412D01*
X020160Y000374D01*
X020131Y000337D01*
X020100Y000303D01*
X020066Y000272D01*
X020029Y000243D01*
X019991Y000217D01*
X019950Y000194D01*
X019908Y000175D01*
X019865Y000159D01*
X019820Y000146D01*
X019774Y000137D01*
X019728Y000132D01*
X019682Y000130D01*
X001178Y000130D01*
X001132Y000132D01*
X001086Y000137D01*
X001040Y000146D01*
X000995Y000159D01*
X000952Y000175D01*
X000910Y000194D01*
X000869Y000217D01*
X000831Y000243D01*
X000794Y000272D01*
X000760Y000303D01*
X000729Y000337D01*
X000700Y000374D01*
X000674Y000412D01*
X000651Y000453D01*
X000632Y000495D01*
X000616Y000538D01*
X000603Y000583D01*
X000594Y000629D01*
X000589Y000675D01*
X000587Y000721D01*
X000942Y001114D02*
X000944Y001164D01*
X000950Y001214D01*
X000960Y001263D01*
X000974Y001311D01*
X000991Y001358D01*
X001012Y001403D01*
X001037Y001447D01*
X001065Y001488D01*
X001097Y001527D01*
X001131Y001564D01*
X001168Y001598D01*
X001208Y001628D01*
X001250Y001655D01*
X001294Y001679D01*
X001340Y001700D01*
X001387Y001716D01*
X001435Y001729D01*
X001485Y001738D01*
X001534Y001743D01*
X001585Y001744D01*
X001635Y001741D01*
X001684Y001734D01*
X001733Y001723D01*
X001781Y001708D01*
X001827Y001690D01*
X001872Y001668D01*
X001915Y001642D01*
X001956Y001613D01*
X001995Y001581D01*
X002031Y001546D01*
X002063Y001508D01*
X002093Y001468D01*
X002120Y001425D01*
X002143Y001381D01*
X002162Y001335D01*
X002178Y001287D01*
X002190Y001238D01*
X002198Y001189D01*
X002202Y001139D01*
X002202Y001089D01*
X002198Y001039D01*
X002190Y000990D01*
X002178Y000941D01*
X002162Y000893D01*
X002143Y000847D01*
X002120Y000803D01*
X002093Y000760D01*
X002063Y000720D01*
X002031Y000682D01*
X001995Y000647D01*
X001956Y000615D01*
X001915Y000586D01*
X001872Y000560D01*
X001827Y000538D01*
X001781Y000520D01*
X001733Y000505D01*
X001684Y000494D01*
X001635Y000487D01*
X001585Y000484D01*
X001534Y000485D01*
X001485Y000490D01*
X001435Y000499D01*
X001387Y000512D01*
X001340Y000528D01*
X001294Y000549D01*
X001250Y000573D01*
X001208Y000600D01*
X001168Y000630D01*
X001131Y000664D01*
X001097Y000701D01*
X001065Y000740D01*
X001037Y000781D01*
X001012Y000825D01*
X000991Y000870D01*
X000974Y000917D01*
X000960Y000965D01*
X000950Y001014D01*
X000944Y001064D01*
X000942Y001114D01*
X002286Y004514D02*
X002288Y004540D01*
X002294Y004566D01*
X002304Y004591D01*
X002317Y004614D01*
X002333Y004634D01*
X002353Y004652D01*
X002375Y004667D01*
X002398Y004679D01*
X002424Y004687D01*
X002450Y004691D01*
X002476Y004691D01*
X002502Y004687D01*
X002528Y004679D01*
X002552Y004667D01*
X002573Y004652D01*
X002593Y004634D01*
X002609Y004614D01*
X002622Y004591D01*
X002632Y004566D01*
X002638Y004540D01*
X002640Y004514D01*
X002638Y004488D01*
X002632Y004462D01*
X002622Y004437D01*
X002609Y004414D01*
X002593Y004394D01*
X002573Y004376D01*
X002551Y004361D01*
X002528Y004349D01*
X002502Y004341D01*
X002476Y004337D01*
X002450Y004337D01*
X002424Y004341D01*
X002398Y004349D01*
X002374Y004361D01*
X002353Y004376D01*
X002333Y004394D01*
X002317Y004414D01*
X002304Y004437D01*
X002294Y004462D01*
X002288Y004488D01*
X002286Y004514D01*
X002286Y006246D02*
X002288Y006272D01*
X002294Y006298D01*
X002304Y006323D01*
X002317Y006346D01*
X002333Y006366D01*
X002353Y006384D01*
X002375Y006399D01*
X002398Y006411D01*
X002424Y006419D01*
X002450Y006423D01*
X002476Y006423D01*
X002502Y006419D01*
X002528Y006411D01*
X002552Y006399D01*
X002573Y006384D01*
X002593Y006366D01*
X002609Y006346D01*
X002622Y006323D01*
X002632Y006298D01*
X002638Y006272D01*
X002640Y006246D01*
X002638Y006220D01*
X002632Y006194D01*
X002622Y006169D01*
X002609Y006146D01*
X002593Y006126D01*
X002573Y006108D01*
X002551Y006093D01*
X002528Y006081D01*
X002502Y006073D01*
X002476Y006069D01*
X002450Y006069D01*
X002424Y006073D01*
X002398Y006081D01*
X002374Y006093D01*
X002353Y006108D01*
X002333Y006126D01*
X002317Y006146D01*
X002304Y006169D01*
X002294Y006194D01*
X002288Y006220D01*
X002286Y006246D01*
X000942Y018831D02*
X000944Y018881D01*
X000950Y018931D01*
X000960Y018980D01*
X000974Y019028D01*
X000991Y019075D01*
X001012Y019120D01*
X001037Y019164D01*
X001065Y019205D01*
X001097Y019244D01*
X001131Y019281D01*
X001168Y019315D01*
X001208Y019345D01*
X001250Y019372D01*
X001294Y019396D01*
X001340Y019417D01*
X001387Y019433D01*
X001435Y019446D01*
X001485Y019455D01*
X001534Y019460D01*
X001585Y019461D01*
X001635Y019458D01*
X001684Y019451D01*
X001733Y019440D01*
X001781Y019425D01*
X001827Y019407D01*
X001872Y019385D01*
X001915Y019359D01*
X001956Y019330D01*
X001995Y019298D01*
X002031Y019263D01*
X002063Y019225D01*
X002093Y019185D01*
X002120Y019142D01*
X002143Y019098D01*
X002162Y019052D01*
X002178Y019004D01*
X002190Y018955D01*
X002198Y018906D01*
X002202Y018856D01*
X002202Y018806D01*
X002198Y018756D01*
X002190Y018707D01*
X002178Y018658D01*
X002162Y018610D01*
X002143Y018564D01*
X002120Y018520D01*
X002093Y018477D01*
X002063Y018437D01*
X002031Y018399D01*
X001995Y018364D01*
X001956Y018332D01*
X001915Y018303D01*
X001872Y018277D01*
X001827Y018255D01*
X001781Y018237D01*
X001733Y018222D01*
X001684Y018211D01*
X001635Y018204D01*
X001585Y018201D01*
X001534Y018202D01*
X001485Y018207D01*
X001435Y018216D01*
X001387Y018229D01*
X001340Y018245D01*
X001294Y018266D01*
X001250Y018290D01*
X001208Y018317D01*
X001168Y018347D01*
X001131Y018381D01*
X001097Y018418D01*
X001065Y018457D01*
X001037Y018498D01*
X001012Y018542D01*
X000991Y018587D01*
X000974Y018634D01*
X000960Y018682D01*
X000950Y018731D01*
X000944Y018781D01*
X000942Y018831D01*
X018659Y018831D02*
X018661Y018881D01*
X018667Y018931D01*
X018677Y018980D01*
X018691Y019028D01*
X018708Y019075D01*
X018729Y019120D01*
X018754Y019164D01*
X018782Y019205D01*
X018814Y019244D01*
X018848Y019281D01*
X018885Y019315D01*
X018925Y019345D01*
X018967Y019372D01*
X019011Y019396D01*
X019057Y019417D01*
X019104Y019433D01*
X019152Y019446D01*
X019202Y019455D01*
X019251Y019460D01*
X019302Y019461D01*
X019352Y019458D01*
X019401Y019451D01*
X019450Y019440D01*
X019498Y019425D01*
X019544Y019407D01*
X019589Y019385D01*
X019632Y019359D01*
X019673Y019330D01*
X019712Y019298D01*
X019748Y019263D01*
X019780Y019225D01*
X019810Y019185D01*
X019837Y019142D01*
X019860Y019098D01*
X019879Y019052D01*
X019895Y019004D01*
X019907Y018955D01*
X019915Y018906D01*
X019919Y018856D01*
X019919Y018806D01*
X019915Y018756D01*
X019907Y018707D01*
X019895Y018658D01*
X019879Y018610D01*
X019860Y018564D01*
X019837Y018520D01*
X019810Y018477D01*
X019780Y018437D01*
X019748Y018399D01*
X019712Y018364D01*
X019673Y018332D01*
X019632Y018303D01*
X019589Y018277D01*
X019544Y018255D01*
X019498Y018237D01*
X019450Y018222D01*
X019401Y018211D01*
X019352Y018204D01*
X019302Y018201D01*
X019251Y018202D01*
X019202Y018207D01*
X019152Y018216D01*
X019104Y018229D01*
X019057Y018245D01*
X019011Y018266D01*
X018967Y018290D01*
X018925Y018317D01*
X018885Y018347D01*
X018848Y018381D01*
X018814Y018418D01*
X018782Y018457D01*
X018754Y018498D01*
X018729Y018542D01*
X018708Y018587D01*
X018691Y018634D01*
X018677Y018682D01*
X018667Y018731D01*
X018661Y018781D01*
X018659Y018831D01*
X018659Y001114D02*
X018661Y001164D01*
X018667Y001214D01*
X018677Y001263D01*
X018691Y001311D01*
X018708Y001358D01*
X018729Y001403D01*
X018754Y001447D01*
X018782Y001488D01*
X018814Y001527D01*
X018848Y001564D01*
X018885Y001598D01*
X018925Y001628D01*
X018967Y001655D01*
X019011Y001679D01*
X019057Y001700D01*
X019104Y001716D01*
X019152Y001729D01*
X019202Y001738D01*
X019251Y001743D01*
X019302Y001744D01*
X019352Y001741D01*
X019401Y001734D01*
X019450Y001723D01*
X019498Y001708D01*
X019544Y001690D01*
X019589Y001668D01*
X019632Y001642D01*
X019673Y001613D01*
X019712Y001581D01*
X019748Y001546D01*
X019780Y001508D01*
X019810Y001468D01*
X019837Y001425D01*
X019860Y001381D01*
X019879Y001335D01*
X019895Y001287D01*
X019907Y001238D01*
X019915Y001189D01*
X019919Y001139D01*
X019919Y001089D01*
X019915Y001039D01*
X019907Y000990D01*
X019895Y000941D01*
X019879Y000893D01*
X019860Y000847D01*
X019837Y000803D01*
X019810Y000760D01*
X019780Y000720D01*
X019748Y000682D01*
X019712Y000647D01*
X019673Y000615D01*
X019632Y000586D01*
X019589Y000560D01*
X019544Y000538D01*
X019498Y000520D01*
X019450Y000505D01*
X019401Y000494D01*
X019352Y000487D01*
X019302Y000484D01*
X019251Y000485D01*
X019202Y000490D01*
X019152Y000499D01*
X019104Y000512D01*
X019057Y000528D01*
X019011Y000549D01*
X018967Y000573D01*
X018925Y000600D01*
X018885Y000630D01*
X018848Y000664D01*
X018814Y000701D01*
X018782Y000740D01*
X018754Y000781D01*
X018729Y000825D01*
X018708Y000870D01*
X018691Y000917D01*
X018677Y000965D01*
X018667Y001014D01*
X018661Y001064D01*
X018659Y001114D01*
D11*
X015934Y006383D02*
X016023Y006471D01*
X015934Y006383D02*
X015758Y006383D01*
X015669Y006471D01*
X015669Y006559D01*
X015758Y006648D01*
X015934Y006648D01*
X016023Y006736D01*
X016023Y006825D01*
X015934Y006913D01*
X015758Y006913D01*
X015669Y006825D01*
X015415Y006913D02*
X015061Y006913D01*
X015238Y006913D02*
X015238Y006383D01*
X014807Y006471D02*
X014719Y006383D01*
X014542Y006383D01*
X014454Y006471D01*
X014454Y006648D01*
X014542Y006736D01*
X014719Y006736D01*
X014807Y006648D01*
X014807Y006471D01*
X014200Y006559D02*
X014023Y006736D01*
X013934Y006736D01*
X014200Y006736D02*
X014200Y006383D01*
X013693Y006383D02*
X013693Y006913D01*
X013516Y006736D01*
X013340Y006913D01*
X013340Y006383D01*
X013086Y006471D02*
X012997Y006383D01*
X012820Y006383D01*
X012732Y006471D01*
X012732Y006559D01*
X012820Y006648D01*
X012909Y006648D01*
X012820Y006648D02*
X012732Y006736D01*
X012732Y006825D01*
X012820Y006913D01*
X012997Y006913D01*
X013086Y006825D01*
X012478Y006825D02*
X012389Y006913D01*
X012213Y006913D01*
X012124Y006825D01*
X012124Y006736D01*
X012478Y006383D01*
X012124Y006383D01*
X011262Y006383D02*
X010997Y006383D01*
X010909Y006471D01*
X010909Y006559D01*
X010997Y006648D01*
X011262Y006648D01*
X011262Y006383D02*
X011262Y006913D01*
X010997Y006913D01*
X010909Y006825D01*
X010909Y006736D01*
X010997Y006648D01*
X010655Y006825D02*
X010655Y006471D01*
X010566Y006383D01*
X010389Y006383D01*
X010301Y006471D01*
X010301Y006648D01*
X010478Y006648D01*
X010655Y006825D02*
X010566Y006913D01*
X010389Y006913D01*
X010301Y006825D01*
X010047Y006825D02*
X010047Y006471D01*
X009959Y006383D01*
X009782Y006383D01*
X009693Y006471D01*
X009693Y006825D02*
X009782Y006913D01*
X009959Y006913D01*
X010047Y006825D01*
X008831Y006736D02*
X008655Y006383D01*
X008478Y006736D01*
X008224Y006736D02*
X008047Y006913D01*
X008047Y006383D01*
X008224Y006383D02*
X007870Y006383D01*
X007616Y006383D02*
X007528Y006383D01*
X007528Y006471D01*
X007616Y006471D01*
X007616Y006383D01*
X007312Y006471D02*
X007224Y006383D01*
X007047Y006383D01*
X006959Y006471D01*
X006959Y006559D01*
X007047Y006648D01*
X007135Y006648D01*
X007047Y006648D02*
X006959Y006736D01*
X006959Y006825D01*
X007047Y006913D01*
X007224Y006913D01*
X007312Y006825D01*
D12*
X008708Y005818D02*
X008708Y005608D01*
X008708Y005818D02*
X008778Y005888D01*
X008988Y005888D01*
X008988Y005608D01*
X009169Y005608D02*
X009379Y005608D01*
X009449Y005678D01*
X009449Y005818D01*
X009379Y005888D01*
X009169Y005888D01*
X009169Y005537D01*
X009239Y005467D01*
X009309Y005467D01*
X009065Y005208D02*
X009065Y004928D01*
X008995Y004858D01*
X008855Y004858D01*
X008785Y004928D01*
X008785Y005208D01*
X008855Y005278D01*
X008995Y005278D01*
X009065Y005208D01*
X008605Y005278D02*
X008535Y005278D01*
X008535Y004858D01*
X008605Y004858D02*
X008465Y004858D01*
X008298Y004858D02*
X008158Y004858D01*
X008228Y004858D02*
X008228Y005278D01*
X008298Y005278D01*
X007991Y005138D02*
X007921Y005138D01*
X007921Y004858D01*
X007991Y004858D02*
X007851Y004858D01*
X007684Y004858D02*
X007544Y004998D01*
X007404Y004858D01*
X007404Y005278D01*
X007684Y005278D02*
X007684Y004858D01*
X007921Y005278D02*
X007921Y005348D01*
X006470Y004945D02*
X006470Y004865D01*
X006390Y004785D01*
X006230Y004785D01*
X006149Y004705D01*
X006149Y004625D01*
X006230Y004545D01*
X006390Y004545D01*
X006470Y004625D01*
X006470Y004945D02*
X006390Y005025D01*
X006230Y005025D01*
X006149Y004945D01*
X005954Y005025D02*
X005954Y004545D01*
X005794Y004705D01*
X005634Y004545D01*
X005634Y005025D01*
X005438Y005025D02*
X005198Y005025D01*
X005118Y004945D01*
X005118Y004625D01*
X005198Y004545D01*
X005438Y004545D01*
X005438Y005025D01*
X005478Y003934D02*
X005198Y003934D01*
X005128Y003863D01*
X005128Y003653D01*
X005548Y003653D01*
X005548Y003863D01*
X005478Y003934D01*
X005548Y003473D02*
X005128Y003473D01*
X005548Y003193D01*
X005128Y003193D01*
X005198Y003013D02*
X005338Y003013D01*
X005338Y002873D01*
X005198Y003013D02*
X005128Y002943D01*
X005128Y002803D01*
X005198Y002733D01*
X005478Y002733D01*
X005548Y002803D01*
X005548Y002943D01*
X005478Y003013D01*
X003548Y002943D02*
X003478Y003013D01*
X003408Y003013D01*
X003338Y002943D01*
X003268Y003013D01*
X003198Y003013D01*
X003128Y002943D01*
X003128Y002803D01*
X003198Y002733D01*
X003338Y002873D02*
X003338Y002943D01*
X003548Y002943D02*
X003548Y002803D01*
X003478Y002733D01*
X003198Y003193D02*
X003198Y003263D01*
X003128Y003263D01*
X003128Y003193D01*
X003198Y003193D01*
X003198Y003423D02*
X003128Y003493D01*
X003128Y003633D01*
X003198Y003703D01*
X003268Y003703D01*
X003338Y003633D01*
X003338Y003563D01*
X003338Y003633D02*
X003408Y003703D01*
X003478Y003703D01*
X003548Y003633D01*
X003548Y003493D01*
X003478Y003423D01*
X003548Y003883D02*
X003268Y003883D01*
X003128Y004024D01*
X003268Y004164D01*
X003548Y004164D01*
X002157Y006733D02*
X001997Y006733D01*
X002077Y006733D02*
X002077Y007213D01*
X002157Y007213D02*
X001997Y007213D01*
X001813Y007213D02*
X001573Y007213D01*
X001493Y007133D01*
X001493Y006973D01*
X001573Y006893D01*
X001813Y006893D01*
X001653Y006893D02*
X001493Y006733D01*
X001813Y006733D02*
X001813Y007213D01*
X002007Y009170D02*
X001867Y009310D01*
X001867Y009590D01*
X002147Y009590D02*
X002147Y009310D01*
X002007Y009170D01*
X002327Y009240D02*
X002397Y009170D01*
X002537Y009170D01*
X002607Y009240D01*
X002767Y009240D02*
X002767Y009170D01*
X002837Y009170D01*
X002837Y009240D01*
X002767Y009240D01*
X003018Y009240D02*
X003088Y009170D01*
X003228Y009170D01*
X003298Y009240D01*
X003158Y009380D02*
X003088Y009380D01*
X003018Y009310D01*
X003018Y009240D01*
X003088Y009380D02*
X003018Y009450D01*
X003018Y009520D01*
X003088Y009590D01*
X003228Y009590D01*
X003298Y009520D01*
X003228Y009920D02*
X003298Y009990D01*
X003228Y009920D02*
X003088Y009920D01*
X003018Y009990D01*
X003018Y010060D01*
X003088Y010130D01*
X003228Y010130D01*
X003298Y010200D01*
X003298Y010270D01*
X003228Y010340D01*
X003088Y010340D01*
X003018Y010270D01*
X002837Y010340D02*
X002627Y010340D01*
X002557Y010270D01*
X002557Y009990D01*
X002627Y009920D01*
X002837Y009920D01*
X002837Y010340D01*
X002767Y010670D02*
X002627Y010670D01*
X002557Y010740D01*
X002377Y010670D02*
X002097Y010670D01*
X002377Y010670D02*
X002377Y011090D01*
X002557Y011020D02*
X002627Y011090D01*
X002767Y011090D01*
X002837Y011020D01*
X002837Y010740D01*
X002767Y010670D01*
X003018Y010740D02*
X003018Y010810D01*
X003088Y010880D01*
X003228Y010880D01*
X003298Y010950D01*
X003298Y011020D01*
X003228Y011090D01*
X003088Y011090D01*
X003018Y011020D01*
X003018Y010740D02*
X003088Y010670D01*
X003228Y010670D01*
X003298Y010740D01*
X003878Y010647D02*
X003878Y010326D01*
X004198Y010647D01*
X004278Y010647D01*
X004358Y010566D01*
X004358Y010406D01*
X004278Y010326D01*
X004358Y010143D02*
X004358Y009983D01*
X004358Y010063D02*
X003878Y010063D01*
X003878Y009983D02*
X003878Y010143D01*
X003958Y010842D02*
X003878Y010922D01*
X003878Y011082D01*
X003958Y011162D01*
X003958Y010842D02*
X004278Y010842D01*
X004358Y010922D01*
X004358Y011082D01*
X004278Y011162D01*
X003298Y011490D02*
X003298Y011770D01*
X003228Y011840D01*
X003088Y011840D01*
X003018Y011770D01*
X003018Y011630D02*
X003158Y011630D01*
X003018Y011630D02*
X003018Y011490D01*
X003088Y011420D01*
X003228Y011420D01*
X003298Y011490D01*
X002837Y011420D02*
X002837Y011840D01*
X002557Y011420D01*
X002557Y011840D01*
X002377Y011840D02*
X002167Y011840D01*
X002097Y011770D01*
X002097Y011490D01*
X002167Y011420D01*
X002377Y011420D01*
X002377Y011840D01*
X002237Y010340D02*
X002097Y010200D01*
X002097Y009920D01*
X002097Y010130D02*
X002377Y010130D01*
X002377Y010200D02*
X002237Y010340D01*
X002377Y010200D02*
X002377Y009920D01*
X002397Y009590D02*
X002327Y009520D01*
X002327Y009450D01*
X002397Y009380D01*
X002327Y009310D01*
X002327Y009240D01*
X002397Y009380D02*
X002467Y009380D01*
X002607Y009520D02*
X002537Y009590D01*
X002397Y009590D01*
X004088Y012389D02*
X004228Y012389D01*
X004298Y012459D01*
X004158Y012599D02*
X004088Y012599D01*
X004018Y012529D01*
X004018Y012459D01*
X004088Y012389D01*
X004088Y012599D02*
X004018Y012669D01*
X004018Y012739D01*
X004088Y012809D01*
X004228Y012809D01*
X004298Y012739D01*
X004298Y013420D02*
X004018Y013420D01*
X004298Y013420D02*
X004018Y013700D01*
X004018Y013770D01*
X004088Y013840D01*
X004228Y013840D01*
X004298Y013770D01*
X004298Y014420D02*
X004018Y014420D01*
X004158Y014420D02*
X004158Y014840D01*
X004298Y014700D01*
X004880Y014703D02*
X004960Y014623D01*
X004880Y014703D02*
X004880Y014863D01*
X004960Y014943D01*
X005040Y014943D01*
X005121Y014863D01*
X005121Y014703D01*
X005201Y014623D01*
X005281Y014623D01*
X005361Y014703D01*
X005361Y014863D01*
X005281Y014943D01*
X005361Y015139D02*
X005361Y015379D01*
X005281Y015459D01*
X005121Y015459D01*
X005040Y015379D01*
X005040Y015139D01*
X004880Y015139D02*
X005361Y015139D01*
X005361Y015654D02*
X004880Y015654D01*
X005040Y015654D02*
X005361Y015975D01*
X005121Y015734D02*
X004880Y015975D01*
X004298Y015770D02*
X004228Y015840D01*
X004088Y015840D01*
X004018Y015770D01*
X004298Y015490D01*
X004228Y015420D01*
X004088Y015420D01*
X004018Y015490D01*
X004018Y015770D01*
X004298Y015770D02*
X004298Y015490D01*
X004228Y016420D02*
X004088Y016420D01*
X004018Y016490D01*
X004018Y016630D01*
X004158Y016630D01*
X004298Y016490D02*
X004228Y016420D01*
X004298Y016490D02*
X004298Y016770D01*
X004228Y016840D01*
X004088Y016840D01*
X004018Y016770D01*
X003837Y016840D02*
X003557Y016420D01*
X003557Y016840D01*
X003377Y016840D02*
X003167Y016840D01*
X003097Y016770D01*
X003097Y016490D01*
X003167Y016420D01*
X003377Y016420D01*
X003377Y016840D01*
X003219Y017170D02*
X003219Y017590D01*
X003008Y017590D01*
X002938Y017520D01*
X002938Y017380D01*
X003008Y017310D01*
X003219Y017310D01*
X003079Y017310D02*
X002938Y017170D01*
X002758Y017240D02*
X002758Y017520D01*
X002688Y017590D01*
X002548Y017590D01*
X002478Y017520D01*
X002478Y017240D02*
X002548Y017170D01*
X002688Y017170D01*
X002758Y017240D01*
X002054Y017170D02*
X002054Y017590D01*
X001844Y017590D01*
X001774Y017520D01*
X001774Y017380D01*
X001844Y017310D01*
X002054Y017310D01*
X001914Y017310D02*
X001774Y017170D01*
X001594Y017240D02*
X001594Y017520D01*
X001524Y017590D01*
X001383Y017590D01*
X001313Y017520D01*
X001133Y017520D02*
X001063Y017590D01*
X000923Y017590D01*
X000853Y017520D01*
X000853Y017450D01*
X001133Y017170D01*
X000853Y017170D01*
X001313Y017240D02*
X001383Y017170D01*
X001524Y017170D01*
X001594Y017240D01*
X003837Y016840D02*
X003837Y016420D01*
X003877Y017920D02*
X004017Y017920D01*
X004087Y017990D01*
X003807Y018270D01*
X003807Y017990D01*
X003877Y017920D01*
X004087Y017990D02*
X004087Y018270D01*
X004017Y018340D01*
X003877Y018340D01*
X003807Y018270D01*
X004268Y018340D02*
X004548Y018340D01*
X004408Y018340D02*
X004408Y017920D01*
X004728Y017990D02*
X004728Y018270D01*
X004798Y018340D01*
X004938Y018340D01*
X005008Y018270D01*
X005008Y017990D01*
X004938Y017920D01*
X004798Y017920D01*
X004728Y017990D01*
X005188Y017920D02*
X005188Y018340D01*
X005329Y018200D01*
X005469Y018340D01*
X005469Y017920D01*
X008882Y014170D02*
X008783Y014071D01*
X008783Y013972D01*
X008832Y013922D01*
X009031Y014120D01*
X009080Y014071D02*
X008981Y014170D01*
X008882Y014170D01*
X009080Y014071D02*
X009080Y013972D01*
X008981Y013873D01*
X008755Y013745D02*
X008755Y013646D01*
X008606Y013498D01*
X008408Y013696D01*
X008606Y013894D02*
X008755Y013745D01*
X009193Y014184D02*
X009243Y014135D01*
X009292Y014184D01*
X009243Y014234D01*
X009193Y014184D01*
X009370Y014361D02*
X009222Y014510D01*
X009370Y014361D02*
X009469Y014361D01*
X009469Y014460D01*
X009568Y014460D01*
X009568Y014559D01*
X009420Y014708D01*
X009587Y014875D02*
X009785Y014677D01*
X009736Y014628D02*
X009835Y014727D01*
X009953Y014845D02*
X010052Y014944D01*
X010003Y014894D02*
X009705Y015191D01*
X009755Y015241D01*
X009922Y015408D02*
X010220Y015111D01*
X010269Y015161D02*
X010170Y015062D01*
X010347Y015338D02*
X010248Y015437D01*
X010248Y015536D01*
X010347Y015635D01*
X010446Y015635D01*
X010545Y015536D01*
X010545Y015437D01*
X010446Y015338D01*
X010347Y015338D01*
X009972Y015458D02*
X009922Y015408D01*
X009488Y014974D02*
X009439Y015024D01*
X009587Y014875D02*
X009637Y014925D01*
X010658Y015649D02*
X010708Y015599D01*
X010757Y015649D01*
X010708Y015699D01*
X010658Y015649D01*
X010835Y015826D02*
X010687Y015975D01*
X010835Y015826D02*
X010934Y015826D01*
X010934Y015925D01*
X011033Y015925D01*
X011033Y016024D01*
X010885Y016173D01*
X011012Y016300D02*
X011161Y016152D01*
X011260Y016152D01*
X011260Y016251D01*
X011359Y016251D01*
X011359Y016350D01*
X011210Y016498D01*
X011338Y016626D02*
X011486Y016477D01*
X011585Y016477D01*
X011585Y016576D01*
X011685Y016576D01*
X011685Y016675D01*
X011536Y016824D01*
X011000Y017920D02*
X011000Y018340D01*
X010860Y018200D01*
X010720Y018340D01*
X010720Y017920D01*
X010539Y017990D02*
X010469Y017920D01*
X010329Y017920D01*
X010259Y017990D01*
X010259Y018270D01*
X010329Y018340D01*
X010469Y018340D01*
X010539Y018270D01*
X010539Y017990D01*
X010079Y018340D02*
X009799Y018340D01*
X009939Y018340D02*
X009939Y017920D01*
X009619Y017920D02*
X009338Y017920D01*
X009479Y017920D02*
X009479Y018340D01*
X009619Y018200D01*
X014807Y018200D02*
X014807Y018270D01*
X014877Y018340D01*
X015017Y018340D01*
X015087Y018270D01*
X015268Y018340D02*
X015548Y018340D01*
X015408Y018340D02*
X015408Y017920D01*
X015728Y017990D02*
X015728Y018270D01*
X015798Y018340D01*
X015938Y018340D01*
X016008Y018270D01*
X016008Y017990D01*
X015938Y017920D01*
X015798Y017920D01*
X015728Y017990D01*
X016188Y017920D02*
X016188Y018340D01*
X016329Y018200D01*
X016469Y018340D01*
X016469Y017920D01*
X015087Y017920D02*
X014807Y018200D01*
X014807Y017920D02*
X015087Y017920D01*
X018923Y009427D02*
X018923Y009147D01*
X018923Y009287D02*
X018503Y009287D01*
X018573Y008967D02*
X018923Y008967D01*
X018923Y008687D02*
X018573Y008687D01*
X018503Y008757D01*
X018503Y008897D01*
X018573Y008967D01*
X018573Y008507D02*
X018503Y008436D01*
X018503Y008226D01*
X018923Y008226D01*
X018923Y008436D01*
X018853Y008507D01*
X018783Y008507D01*
X018713Y008436D01*
X018713Y008226D01*
X018713Y008436D02*
X018643Y008507D01*
X018573Y008507D01*
X016048Y006028D02*
X016048Y005608D01*
X015768Y005608D01*
X015587Y005678D02*
X015517Y005748D01*
X015307Y005748D01*
X015307Y005818D02*
X015307Y005608D01*
X015517Y005608D01*
X015587Y005678D01*
X015517Y005888D02*
X015377Y005888D01*
X015307Y005818D01*
X015127Y005888D02*
X015127Y005678D01*
X015057Y005608D01*
X014847Y005608D01*
X014847Y005537D02*
X014917Y005467D01*
X014987Y005467D01*
X014847Y005537D02*
X014847Y005888D01*
X014667Y005818D02*
X014667Y005678D01*
X014597Y005608D01*
X014456Y005608D01*
X014386Y005678D01*
X014386Y005818D01*
X014456Y005888D01*
X014597Y005888D01*
X014667Y005818D01*
X014206Y005888D02*
X014206Y005678D01*
X014136Y005608D01*
X013926Y005608D01*
X013926Y005888D01*
X013746Y005888D02*
X013606Y005888D01*
X013676Y005958D02*
X013676Y005678D01*
X013606Y005608D01*
X013292Y005208D02*
X013292Y004928D01*
X013222Y004858D01*
X013055Y004858D02*
X012915Y004858D01*
X012985Y004858D02*
X012985Y005138D01*
X013055Y005138D01*
X012985Y005278D02*
X012985Y005348D01*
X012748Y005138D02*
X012538Y005138D01*
X012468Y005068D01*
X012468Y004858D01*
X012288Y004928D02*
X012288Y005068D01*
X012218Y005138D01*
X012078Y005138D01*
X012008Y005068D01*
X012008Y004998D01*
X012288Y004998D01*
X012288Y004928D02*
X012218Y004858D01*
X012078Y004858D01*
X011828Y004858D02*
X011547Y004858D01*
X011547Y005138D02*
X011828Y004858D01*
X011828Y005138D02*
X011547Y005138D01*
X011778Y005608D02*
X011988Y005608D01*
X012058Y005678D01*
X012058Y005818D01*
X011988Y005888D01*
X011778Y005888D01*
X011778Y006028D02*
X011778Y005608D01*
X012238Y005608D02*
X012238Y005818D01*
X012308Y005888D01*
X012518Y005888D01*
X012518Y005608D01*
X012698Y005608D02*
X012698Y005818D01*
X012768Y005888D01*
X012908Y005888D01*
X012908Y005748D02*
X012698Y005748D01*
X012698Y005608D02*
X012908Y005608D01*
X012979Y005678D01*
X012908Y005748D01*
X012748Y005138D02*
X012748Y004858D01*
X013222Y005138D02*
X013362Y005138D01*
X013536Y005138D02*
X013606Y005138D01*
X013746Y004998D01*
X013746Y004858D02*
X013746Y005138D01*
X013926Y005068D02*
X013926Y004858D01*
X014136Y004858D01*
X014206Y004928D01*
X014136Y004998D01*
X013926Y004998D01*
X013926Y005068D02*
X013996Y005138D01*
X014136Y005138D01*
X014386Y005278D02*
X014386Y004858D01*
X014667Y004858D02*
X014667Y005278D01*
X014527Y005138D01*
X014386Y005278D01*
X015307Y005138D02*
X015307Y004787D01*
X015377Y004717D01*
X015447Y004717D01*
X015517Y004858D02*
X015307Y004858D01*
X015517Y004858D02*
X015587Y004928D01*
X015587Y005138D01*
X015768Y005068D02*
X015768Y004928D01*
X015838Y004858D01*
X016048Y004858D01*
X016048Y005278D01*
X016048Y005138D02*
X015838Y005138D01*
X015768Y005068D01*
X015884Y004400D02*
X015884Y004080D01*
X016044Y003920D01*
X016204Y004080D01*
X016204Y004400D01*
X016399Y004320D02*
X016399Y004240D01*
X016479Y004160D01*
X016640Y004160D01*
X016720Y004240D01*
X016720Y004320D01*
X016640Y004400D01*
X016479Y004400D01*
X016399Y004320D01*
X016479Y004160D02*
X016399Y004080D01*
X016399Y004000D01*
X016479Y003920D01*
X016640Y003920D01*
X016720Y004000D01*
X016720Y004080D01*
X016640Y004160D01*
X016915Y003920D02*
X017235Y003920D01*
X017075Y003920D02*
X017075Y004400D01*
X017235Y004240D01*
X018659Y002465D02*
X018940Y002465D01*
X018799Y002465D02*
X018799Y002045D01*
X019120Y002115D02*
X019120Y002395D01*
X019190Y002465D01*
X019330Y002465D01*
X019400Y002395D01*
X019400Y002115D01*
X019330Y002045D01*
X019190Y002045D01*
X019120Y002115D01*
X019580Y002255D02*
X019580Y002395D01*
X019650Y002465D01*
X019860Y002465D01*
X019860Y002045D01*
X019860Y002185D02*
X019650Y002185D01*
X019580Y002255D01*
X014611Y002255D02*
X014611Y002115D01*
X014541Y002045D01*
X014401Y002185D02*
X014401Y002255D01*
X014330Y002325D01*
X014260Y002325D01*
X014190Y002255D01*
X014190Y002115D01*
X014260Y002045D01*
X014401Y002255D02*
X014471Y002325D01*
X014541Y002325D01*
X014611Y002255D01*
X014260Y002505D02*
X014260Y002575D01*
X014190Y002575D01*
X014190Y002505D01*
X014260Y002505D01*
X014260Y002736D02*
X014190Y002806D01*
X014190Y002946D01*
X014260Y003016D01*
X014330Y003016D01*
X014401Y002946D01*
X014401Y002876D01*
X014401Y002946D02*
X014471Y003016D01*
X014541Y003016D01*
X014611Y002946D01*
X014611Y002806D01*
X014541Y002736D01*
X014611Y003196D02*
X014330Y003196D01*
X014190Y003336D01*
X014330Y003476D01*
X014611Y003476D01*
X013485Y003525D02*
X013325Y003525D01*
X013405Y003525D02*
X013405Y003045D01*
X013485Y003045D02*
X013325Y003045D01*
X013142Y003045D02*
X012821Y003365D01*
X012821Y003445D01*
X012901Y003525D01*
X013062Y003525D01*
X013142Y003445D01*
X013142Y003045D02*
X012821Y003045D01*
X012626Y003125D02*
X012546Y003045D01*
X012386Y003045D01*
X012306Y003125D01*
X012110Y003205D02*
X011790Y003205D01*
X011790Y003365D02*
X011870Y003365D01*
X012110Y003365D01*
X012030Y003525D02*
X012030Y003045D01*
X011870Y003045D02*
X011870Y003525D01*
X011595Y003445D02*
X011515Y003525D01*
X011354Y003525D01*
X011274Y003445D01*
X011274Y003365D01*
X011595Y003045D01*
X011274Y003045D01*
X010798Y002966D02*
X010798Y003176D01*
X010728Y003246D01*
X010448Y003246D01*
X010378Y003176D01*
X010378Y002966D01*
X010798Y002966D01*
X010798Y002786D02*
X010378Y002786D01*
X010798Y002505D01*
X010378Y002505D01*
X010448Y002325D02*
X010378Y002255D01*
X010378Y002115D01*
X010448Y002045D01*
X010728Y002045D01*
X010798Y002115D01*
X010798Y002255D01*
X010728Y002325D01*
X010588Y002325D02*
X010588Y002185D01*
X010588Y002325D02*
X010448Y002325D01*
X009798Y002286D02*
X009378Y002286D01*
X009798Y002005D01*
X009378Y002005D01*
X009448Y001825D02*
X009588Y001825D01*
X009588Y001685D01*
X009448Y001545D02*
X009378Y001615D01*
X009378Y001755D01*
X009448Y001825D01*
X009728Y001825D02*
X009798Y001755D01*
X009798Y001615D01*
X009728Y001545D01*
X009448Y001545D01*
X008798Y001545D02*
X008798Y001755D01*
X008728Y001825D01*
X008588Y001825D01*
X008518Y001755D01*
X008518Y001545D01*
X008518Y001685D02*
X008378Y001825D01*
X008378Y002005D02*
X008658Y002286D01*
X008378Y002286D02*
X008658Y002005D01*
X008798Y001545D02*
X008378Y001545D01*
X007798Y001483D02*
X007798Y001763D01*
X007798Y001623D02*
X007378Y001623D01*
X007378Y001943D02*
X007658Y002223D01*
X007658Y001943D02*
X007378Y002223D01*
X007778Y003045D02*
X007778Y003525D01*
X007938Y003525D02*
X007618Y003525D01*
X008134Y003445D02*
X008134Y003285D01*
X008214Y003205D01*
X008454Y003205D01*
X008454Y003045D02*
X008454Y003525D01*
X008214Y003525D01*
X008134Y003445D01*
X008294Y003205D02*
X008134Y003045D01*
X008649Y003045D02*
X008649Y003365D01*
X008810Y003525D01*
X008970Y003365D01*
X008970Y003045D01*
X009165Y003125D02*
X009165Y003525D01*
X008970Y003285D02*
X008649Y003285D01*
X009165Y003125D02*
X009245Y003045D01*
X009405Y003045D01*
X009485Y003125D01*
X009485Y003525D01*
X009448Y002746D02*
X009378Y002676D01*
X009378Y002466D01*
X009798Y002466D01*
X009798Y002676D01*
X009728Y002746D01*
X009448Y002746D01*
X011273Y001871D02*
X011273Y000347D01*
X011283Y000397D01*
X011273Y000347D02*
X013652Y000347D01*
X013643Y000397D01*
X013652Y000347D02*
X013652Y001871D01*
X013546Y001871D01*
X011380Y001871D01*
X011273Y001871D01*
X012626Y003125D02*
X012626Y003445D01*
X012546Y003525D01*
X012386Y003525D01*
X012306Y003445D01*
X010837Y004858D02*
X010907Y004928D01*
X010837Y004998D01*
X010627Y004998D01*
X010627Y005068D02*
X010627Y004858D01*
X010837Y004858D01*
X010837Y005138D02*
X010697Y005138D01*
X010627Y005068D01*
X010446Y005138D02*
X010236Y005138D01*
X010166Y005068D01*
X010166Y004858D01*
X009986Y004928D02*
X009986Y005068D01*
X009916Y005138D01*
X009706Y005138D01*
X009706Y005278D02*
X009706Y004858D01*
X009916Y004858D01*
X009986Y004928D01*
X010446Y004858D02*
X010446Y005138D01*
X010466Y005608D02*
X010607Y005608D01*
X010677Y005678D01*
X010677Y005818D01*
X010607Y005888D01*
X010466Y005888D01*
X010396Y005818D01*
X010396Y005748D01*
X010677Y005748D01*
X010857Y005678D02*
X010857Y005958D01*
X010927Y006028D01*
X011137Y006028D01*
X011137Y005608D01*
X010927Y005608D01*
X010857Y005678D01*
X010216Y005608D02*
X010006Y005608D01*
X009936Y005678D01*
X010006Y005748D01*
X010146Y005748D01*
X010216Y005818D01*
X010146Y005888D01*
X009936Y005888D01*
X009756Y005888D02*
X009686Y005888D01*
X009686Y005608D01*
X009756Y005608D02*
X009616Y005608D01*
X009686Y006028D02*
X009686Y006098D01*
D13*
X010993Y002998D02*
X010993Y002772D01*
X011333Y002772D01*
X011276Y002630D02*
X011333Y002573D01*
X011333Y002460D01*
X011276Y002403D01*
X011050Y002403D01*
X010993Y002460D01*
X010993Y002573D01*
X011050Y002630D01*
X011050Y002262D02*
X010993Y002205D01*
X010993Y002092D01*
X011050Y002035D01*
X011163Y002092D02*
X011163Y002205D01*
X011106Y002262D01*
X011050Y002262D01*
X011163Y002092D02*
X011220Y002035D01*
X011276Y002035D01*
X011333Y002092D01*
X011333Y002205D01*
X011276Y002262D01*
X013680Y002205D02*
X013680Y002092D01*
X013737Y002035D01*
X013850Y002092D02*
X013850Y002205D01*
X013794Y002262D01*
X013737Y002262D01*
X013680Y002205D01*
X013680Y002403D02*
X013680Y002573D01*
X013737Y002630D01*
X013964Y002630D01*
X014021Y002573D01*
X014021Y002403D01*
X013680Y002403D01*
X013680Y002772D02*
X013907Y002772D01*
X014021Y002885D01*
X013907Y002998D01*
X013680Y002998D01*
X013850Y002998D02*
X013850Y002772D01*
X013964Y002262D02*
X014021Y002205D01*
X014021Y002092D01*
X013964Y002035D01*
X013907Y002035D01*
X013850Y002092D01*
X018468Y002706D02*
X018468Y002819D01*
X018525Y002876D01*
X018638Y002876D01*
X018638Y002762D01*
X018751Y002649D02*
X018525Y002649D01*
X018468Y002706D01*
X018751Y002649D02*
X018808Y002706D01*
X018808Y002819D01*
X018751Y002876D01*
X018808Y003017D02*
X018468Y003017D01*
X018468Y003244D02*
X018808Y003244D01*
X018808Y003385D02*
X018808Y003556D01*
X018751Y003612D01*
X018525Y003612D01*
X018468Y003556D01*
X018468Y003385D01*
X018808Y003385D01*
X018808Y003017D02*
X018468Y003244D01*
X006496Y003318D02*
X006155Y003318D01*
X006269Y003204D01*
X006155Y003091D01*
X006496Y003091D01*
X006439Y002949D02*
X006496Y002893D01*
X006496Y002779D01*
X006439Y002723D01*
X006382Y002723D01*
X006325Y002779D01*
X006325Y002893D01*
X006269Y002949D01*
X006212Y002949D01*
X006155Y002893D01*
X006155Y002779D01*
X006212Y002723D01*
X006155Y003459D02*
X006155Y003629D01*
X006212Y003686D01*
X006439Y003686D01*
X006496Y003629D01*
X006496Y003459D01*
X006155Y003459D01*
X006155Y003827D02*
X006155Y003941D01*
X006155Y003884D02*
X006496Y003884D01*
X006496Y003827D02*
X006496Y003941D01*
X006439Y004073D02*
X006212Y004073D01*
X006155Y004130D01*
X006155Y004243D01*
X006212Y004300D01*
X006439Y004300D01*
X006496Y004243D01*
X006496Y004130D01*
X006439Y004073D01*
X004558Y004196D02*
X004218Y004196D01*
X004331Y004196D02*
X004558Y004423D01*
X004388Y004252D02*
X004218Y004423D01*
X004218Y004054D02*
X004218Y003827D01*
X004558Y003827D01*
X004501Y003686D02*
X004558Y003629D01*
X004558Y003516D01*
X004501Y003459D01*
X004275Y003459D01*
X004218Y003516D01*
X004218Y003629D01*
X004275Y003686D01*
X004218Y003318D02*
X004558Y003318D01*
X004558Y003091D02*
X004218Y003091D01*
X004331Y003204D01*
X004218Y003318D01*
X004275Y002949D02*
X004218Y002893D01*
X004218Y002779D01*
X004275Y002723D01*
X004388Y002779D02*
X004388Y002893D01*
X004331Y002949D01*
X004275Y002949D01*
X004388Y002779D02*
X004445Y002723D01*
X004501Y002723D01*
X004558Y002779D01*
X004558Y002893D01*
X004501Y002949D01*
X002672Y007473D02*
X002558Y007473D01*
X002615Y007473D02*
X002615Y007813D01*
X002672Y007813D02*
X002558Y007813D01*
X002426Y007813D02*
X002256Y007813D01*
X002199Y007756D01*
X002199Y007643D01*
X002256Y007586D01*
X002426Y007586D01*
X002313Y007586D02*
X002199Y007473D01*
X002426Y007473D02*
X002426Y007813D01*
X001788Y007756D02*
X001788Y007529D01*
X001731Y007473D01*
X001618Y007473D01*
X001561Y007529D01*
X001561Y007643D01*
X001674Y007643D01*
X001561Y007756D02*
X001618Y007813D01*
X001731Y007813D01*
X001788Y007756D01*
X001419Y007813D02*
X001419Y007473D01*
X001193Y007473D02*
X001193Y007813D01*
X001051Y007813D02*
X000881Y007813D01*
X000824Y007756D01*
X000824Y007529D01*
X000881Y007473D01*
X001051Y007473D01*
X001051Y007813D01*
X001419Y007813D02*
X001193Y007473D01*
D14*
X002904Y007570D02*
X002904Y006940D01*
X004022Y006940D02*
X004022Y007570D01*
X005535Y007637D02*
X014007Y007637D01*
X014775Y007630D02*
X015275Y007630D01*
X016025Y007630D02*
X016275Y007630D01*
X016275Y012755D01*
X016025Y012755D01*
X016533Y012183D02*
X016578Y012183D01*
X016623Y012138D01*
X016623Y012003D01*
X016533Y012003D01*
X016488Y012048D01*
X016488Y012138D01*
X016533Y012183D01*
X016713Y012093D02*
X016623Y012003D01*
X016713Y012093D02*
X016758Y012183D01*
X016713Y011889D02*
X016533Y011889D01*
X016488Y011844D01*
X016488Y011754D01*
X016533Y011709D01*
X016713Y011889D01*
X016758Y011844D01*
X016758Y011754D01*
X016713Y011709D01*
X016533Y011709D01*
X016533Y011594D02*
X016488Y011549D01*
X016488Y011459D01*
X016533Y011414D01*
X016713Y011414D01*
X016758Y011459D01*
X016758Y011549D01*
X016713Y011594D01*
X016758Y011300D02*
X016488Y011300D01*
X016623Y011300D02*
X016623Y011119D01*
X016488Y011119D02*
X016758Y011119D01*
X016623Y010710D02*
X016488Y010710D01*
X016623Y010710D02*
X016668Y010665D01*
X016668Y010575D01*
X016623Y010530D01*
X016668Y010424D02*
X016668Y010334D01*
X016713Y010379D02*
X016533Y010379D01*
X016488Y010424D01*
X016488Y010530D02*
X016758Y010530D01*
X016623Y010219D02*
X016533Y010219D01*
X016488Y010174D01*
X016488Y010084D01*
X016533Y010039D01*
X016623Y010039D01*
X016668Y010084D01*
X016668Y010174D01*
X016623Y010219D01*
X016623Y009924D02*
X016533Y009924D01*
X016488Y009879D01*
X016488Y009789D01*
X016533Y009744D01*
X016623Y009744D01*
X016668Y009789D01*
X016668Y009879D01*
X016623Y009924D01*
X016668Y009638D02*
X016668Y009548D01*
X016713Y009593D02*
X016533Y009593D01*
X016488Y009638D01*
X016578Y009433D02*
X016578Y009253D01*
X016623Y009253D02*
X016668Y009298D01*
X016668Y009388D01*
X016623Y009433D01*
X016578Y009433D01*
X016488Y009388D02*
X016488Y009298D01*
X016533Y009253D01*
X016623Y009253D01*
X016668Y009139D02*
X016488Y009139D01*
X016488Y009004D01*
X016533Y008959D01*
X016668Y008959D01*
X016758Y008807D02*
X016488Y008807D01*
X016488Y008762D02*
X016488Y008852D01*
X016533Y008648D02*
X016488Y008603D01*
X016488Y008468D01*
X016758Y008468D01*
X016758Y008603D01*
X016713Y008648D01*
X016668Y008648D01*
X016623Y008603D01*
X016623Y008468D01*
X016623Y008603D02*
X016578Y008648D01*
X016533Y008648D01*
X016758Y008762D02*
X016758Y008807D01*
X018543Y007419D02*
X018633Y007509D01*
X018813Y007509D01*
X018813Y007329D02*
X018633Y007329D01*
X018543Y007419D01*
X018588Y007215D02*
X018543Y007170D01*
X018543Y007079D01*
X018588Y007034D01*
X018588Y006932D02*
X018543Y006932D01*
X018543Y006887D01*
X018588Y006887D01*
X018588Y006932D01*
X018588Y006773D02*
X018543Y006728D01*
X018543Y006638D01*
X018588Y006592D01*
X018678Y006683D02*
X018678Y006728D01*
X018633Y006773D01*
X018588Y006773D01*
X018678Y006728D02*
X018723Y006773D01*
X018768Y006773D01*
X018813Y006728D01*
X018813Y006638D01*
X018768Y006592D01*
X018768Y006228D02*
X018813Y006183D01*
X018813Y006093D01*
X018768Y006048D01*
X018768Y006228D02*
X018723Y006228D01*
X018543Y006048D01*
X018543Y006228D01*
X018768Y007034D02*
X018813Y007079D01*
X018813Y007170D01*
X018768Y007215D01*
X018723Y007215D01*
X018678Y007170D01*
X018633Y007215D01*
X018588Y007215D01*
X018678Y007170D02*
X018678Y007125D01*
X018543Y005228D02*
X018543Y005048D01*
X018543Y005138D02*
X018813Y005138D01*
X018723Y005048D01*
X018768Y004259D02*
X018588Y004259D01*
X018543Y004214D01*
X018543Y004124D01*
X018588Y004079D01*
X018768Y004259D01*
X018813Y004214D01*
X018813Y004124D01*
X018768Y004079D01*
X018588Y004079D01*
X018318Y010769D02*
X018318Y010814D01*
X018408Y010904D01*
X018498Y010904D02*
X018318Y010904D01*
X018363Y011018D02*
X018408Y011018D01*
X018408Y011199D01*
X018453Y011199D02*
X018363Y011199D01*
X018318Y011154D01*
X018318Y011063D01*
X018363Y011018D01*
X018498Y011063D02*
X018498Y011154D01*
X018453Y011199D01*
X018498Y011313D02*
X018498Y011448D01*
X018453Y011493D01*
X018363Y011493D01*
X018318Y011448D01*
X018318Y011313D01*
X018228Y011313D02*
X018498Y011313D01*
X018498Y011608D02*
X018363Y011608D01*
X018318Y011653D01*
X018318Y011788D01*
X018498Y011788D01*
X018498Y011902D02*
X018318Y011902D01*
X018498Y011902D02*
X018498Y012037D01*
X018453Y012083D01*
X018318Y012083D01*
X018708Y012144D02*
X018753Y012099D01*
X018843Y012099D01*
X018888Y012144D01*
X018888Y012279D01*
X018978Y012279D02*
X018708Y012279D01*
X018708Y012144D01*
X018888Y012189D02*
X018978Y012099D01*
X019278Y012148D02*
X019278Y012283D01*
X019323Y012328D01*
X019368Y012283D01*
X019368Y012193D01*
X019413Y012148D01*
X019458Y012193D01*
X019458Y012328D01*
X019458Y012443D02*
X019323Y012443D01*
X019278Y012488D01*
X019278Y012623D01*
X019458Y012623D01*
X019368Y012737D02*
X019368Y012917D01*
X019413Y012917D02*
X019323Y012917D01*
X019278Y012872D01*
X019278Y012782D01*
X019323Y012737D01*
X019368Y012737D01*
X019458Y012782D02*
X019458Y012872D01*
X019413Y012917D01*
X019458Y013032D02*
X019458Y013167D01*
X019413Y013212D01*
X019323Y013212D01*
X019278Y013167D01*
X019278Y013032D01*
X019458Y013318D02*
X019458Y013408D01*
X019458Y013363D02*
X019278Y013363D01*
X019278Y013408D01*
X019188Y013363D02*
X019143Y013363D01*
X018978Y013073D02*
X018708Y013073D01*
X018708Y013163D02*
X018708Y012983D01*
X018798Y012868D02*
X018708Y012778D01*
X018798Y012688D01*
X018978Y012688D01*
X018978Y012574D02*
X018708Y012574D01*
X018708Y012438D01*
X018753Y012393D01*
X018843Y012393D01*
X018888Y012438D01*
X018888Y012574D01*
X018843Y012688D02*
X018843Y012868D01*
X018798Y012868D02*
X018978Y012868D01*
X018498Y012921D02*
X018498Y012786D01*
X018453Y012672D02*
X018363Y012672D01*
X018318Y012627D01*
X018318Y012537D01*
X018363Y012492D01*
X018408Y012492D01*
X018408Y012672D01*
X018453Y012672D02*
X018498Y012627D01*
X018498Y012537D01*
X018318Y012786D02*
X018318Y012921D01*
X018363Y012966D01*
X018453Y012966D01*
X018498Y012921D01*
X018318Y013077D02*
X018318Y013122D01*
X018408Y013212D01*
X018498Y013212D02*
X018318Y013212D01*
X018318Y013327D02*
X018498Y013327D01*
X018498Y013462D01*
X018453Y013507D01*
X018318Y013507D01*
X018363Y013621D02*
X018318Y013666D01*
X018318Y013756D01*
X018363Y013801D01*
X018453Y013801D01*
X018498Y013756D01*
X018498Y013666D01*
X018453Y013621D01*
X018363Y013621D01*
X018318Y013916D02*
X018318Y014051D01*
X018363Y014096D01*
X018408Y014051D01*
X018408Y013961D01*
X018453Y013916D01*
X018498Y013961D01*
X018498Y014096D01*
X018708Y014047D02*
X018978Y014047D01*
X018978Y014153D02*
X018933Y014198D01*
X018753Y014198D01*
X018798Y014243D02*
X018798Y014153D01*
X018843Y014047D02*
X018798Y014002D01*
X018798Y013912D01*
X018843Y013867D01*
X018978Y013867D01*
X018933Y013752D02*
X018843Y013752D01*
X018798Y013707D01*
X018798Y013617D01*
X018843Y013572D01*
X018888Y013572D01*
X018888Y013752D01*
X018933Y013752D02*
X018978Y013707D01*
X018978Y013617D01*
X019188Y013703D02*
X019458Y013703D01*
X019458Y013523D01*
X019758Y013507D02*
X019938Y013507D01*
X019848Y013507D02*
X019758Y013417D01*
X019758Y013372D01*
X019803Y013261D02*
X019893Y013261D01*
X019938Y013216D01*
X019938Y013081D01*
X019983Y013081D02*
X019758Y013081D01*
X019758Y013216D01*
X019803Y013261D01*
X020028Y013171D02*
X020028Y013126D01*
X019983Y013081D01*
X019938Y012966D02*
X019668Y012786D01*
X019803Y012672D02*
X019893Y012672D01*
X019938Y012627D01*
X019938Y012537D01*
X019893Y012492D01*
X019803Y012492D01*
X019758Y012537D01*
X019758Y012627D01*
X019803Y012672D01*
X019803Y012377D02*
X019758Y012332D01*
X019758Y012242D01*
X019803Y012197D01*
X019938Y012197D01*
X019938Y012083D02*
X019938Y011992D01*
X019938Y012037D02*
X019668Y012037D01*
X019668Y012083D01*
X019458Y011988D02*
X019458Y011898D01*
X019458Y011988D02*
X019413Y012033D01*
X019323Y012033D01*
X019278Y011988D01*
X019278Y011898D01*
X019323Y011853D01*
X019368Y011853D01*
X019368Y012033D01*
X019668Y011739D02*
X019938Y011739D01*
X019938Y011841D02*
X019938Y011886D01*
X019893Y011886D01*
X019893Y011841D01*
X019938Y011841D01*
X019803Y011739D02*
X019758Y011694D01*
X019758Y011604D01*
X019803Y011559D01*
X019938Y011559D01*
X019893Y011399D02*
X019938Y011354D01*
X019893Y011399D02*
X019713Y011399D01*
X019758Y011444D02*
X019758Y011354D01*
X019758Y011248D02*
X019758Y011203D01*
X019803Y011158D01*
X019758Y011113D01*
X019803Y011068D01*
X019938Y011068D01*
X019938Y011158D02*
X019803Y011158D01*
X019758Y011248D02*
X019938Y011248D01*
X019938Y010953D02*
X019938Y010863D01*
X019938Y010908D02*
X019668Y010908D01*
X019668Y010953D01*
X019668Y012377D02*
X019938Y012377D01*
X019893Y013621D02*
X019803Y013621D01*
X019758Y013666D01*
X019758Y013756D01*
X019803Y013801D01*
X019893Y013801D01*
X019938Y013756D01*
X019938Y013666D01*
X019893Y013621D01*
X019893Y013904D02*
X019938Y013904D01*
X019938Y013949D01*
X019893Y013949D01*
X019893Y013904D01*
X019758Y014059D02*
X019758Y014104D01*
X019848Y014194D01*
X019938Y014194D02*
X019758Y014194D01*
X019803Y014309D02*
X019893Y014309D01*
X019938Y014354D01*
X019938Y014489D01*
X020028Y014489D02*
X019758Y014489D01*
X019758Y014354D01*
X019803Y014309D01*
X019458Y014247D02*
X019458Y014157D01*
X019458Y014247D02*
X019413Y014292D01*
X019323Y014292D01*
X019278Y014247D01*
X019278Y014157D01*
X019323Y014112D01*
X019368Y014112D01*
X019368Y014292D01*
X019278Y014403D02*
X019278Y014448D01*
X019368Y014538D01*
X019458Y014538D02*
X019278Y014538D01*
X019323Y014652D02*
X019458Y014652D01*
X019458Y014788D01*
X019413Y014833D01*
X019368Y014788D01*
X019368Y014652D01*
X019323Y014652D02*
X019278Y014697D01*
X019278Y014788D01*
X019278Y014947D02*
X019413Y014947D01*
X019458Y014992D01*
X019413Y015037D01*
X019458Y015082D01*
X019413Y015127D01*
X019278Y015127D01*
X019278Y015242D02*
X019278Y015377D01*
X019323Y015422D01*
X019413Y015422D01*
X019458Y015377D01*
X019458Y015242D01*
X019188Y015242D01*
X019278Y015532D02*
X019278Y015577D01*
X019368Y015667D01*
X019458Y015667D02*
X019278Y015667D01*
X019323Y015782D02*
X019458Y015782D01*
X019458Y015917D01*
X019413Y015962D01*
X019368Y015917D01*
X019368Y015782D01*
X019323Y015782D02*
X019278Y015827D01*
X019278Y015917D01*
X019323Y016077D02*
X019323Y016257D01*
X019458Y016257D02*
X019188Y016257D01*
X019188Y016077D02*
X019458Y016077D01*
X019668Y016126D02*
X019938Y016306D01*
X019668Y016420D02*
X019938Y016601D01*
X019938Y016703D02*
X019938Y016748D01*
X019893Y016748D01*
X019893Y016703D01*
X019938Y016703D01*
X019803Y016703D02*
X019803Y016748D01*
X019758Y016748D01*
X019758Y016703D01*
X019803Y016703D01*
X019803Y016862D02*
X019893Y016862D01*
X019938Y016907D01*
X019938Y017042D01*
X020028Y017042D02*
X019758Y017042D01*
X019758Y016907D01*
X019803Y016862D01*
X019758Y017149D02*
X019758Y017239D01*
X019713Y017194D02*
X019893Y017194D01*
X019938Y017149D01*
X019938Y017345D02*
X019893Y017390D01*
X019713Y017390D01*
X019758Y017435D02*
X019758Y017345D01*
X019803Y017550D02*
X019938Y017550D01*
X019803Y017550D02*
X019758Y017595D01*
X019758Y017685D01*
X019803Y017730D01*
X019668Y017730D02*
X019938Y017730D01*
X019458Y017685D02*
X019458Y017595D01*
X019413Y017550D01*
X019233Y017550D01*
X019188Y017595D01*
X019188Y017685D01*
X019233Y017730D01*
X019413Y017730D01*
X019458Y017685D01*
X019458Y017435D02*
X019458Y017300D01*
X019413Y017255D01*
X019323Y017255D01*
X019278Y017300D01*
X019278Y017435D01*
X019548Y017435D01*
X019413Y017141D02*
X019323Y017141D01*
X019278Y017096D01*
X019278Y017006D01*
X019323Y016961D01*
X019368Y016961D01*
X019368Y017141D01*
X019413Y017141D02*
X019458Y017096D01*
X019458Y017006D01*
X019458Y016846D02*
X019278Y016846D01*
X019278Y016711D01*
X019323Y016666D01*
X019458Y016666D01*
X018978Y016560D02*
X018933Y016605D01*
X018753Y016605D01*
X018798Y016650D02*
X018798Y016560D01*
X018843Y016453D02*
X018798Y016408D01*
X018798Y016318D01*
X018843Y016273D01*
X018888Y016273D01*
X018888Y016453D01*
X018933Y016453D02*
X018843Y016453D01*
X018933Y016453D02*
X018978Y016408D01*
X018978Y016318D01*
X018978Y016159D02*
X018798Y016159D01*
X018888Y016159D02*
X018798Y016068D01*
X018798Y016023D01*
X018798Y015913D02*
X018798Y015868D01*
X018843Y015823D01*
X018798Y015778D01*
X018843Y015733D01*
X018978Y015733D01*
X018978Y015823D02*
X018843Y015823D01*
X018798Y015913D02*
X018978Y015913D01*
X018978Y015618D02*
X018978Y015483D01*
X018933Y015438D01*
X018888Y015483D01*
X018888Y015573D01*
X018843Y015618D01*
X018798Y015573D01*
X018798Y015438D01*
X018588Y015275D02*
X018318Y015275D01*
X018318Y015139D01*
X018363Y015094D01*
X018453Y015094D01*
X018498Y015139D01*
X018498Y015275D01*
X018453Y015389D02*
X018363Y015389D01*
X018318Y015434D01*
X018318Y015524D01*
X018363Y015569D01*
X018453Y015569D01*
X018498Y015524D01*
X018498Y015434D01*
X018453Y015389D01*
X018453Y014980D02*
X018363Y014980D01*
X018318Y014935D01*
X018318Y014845D01*
X018363Y014800D01*
X018408Y014800D01*
X018408Y014980D01*
X018453Y014980D02*
X018498Y014935D01*
X018498Y014845D01*
X018498Y014685D02*
X018318Y014685D01*
X018318Y014550D01*
X018363Y014505D01*
X018498Y014505D01*
X018708Y014644D02*
X018753Y014689D01*
X018978Y014689D01*
X018843Y014734D02*
X018843Y014644D01*
X018843Y014849D02*
X018798Y014894D01*
X018798Y014984D01*
X018843Y015029D01*
X018933Y015029D01*
X018978Y014984D01*
X018978Y014894D01*
X018933Y014849D01*
X018843Y014849D01*
X019713Y014935D02*
X019893Y014935D01*
X019938Y014890D01*
X019893Y014783D02*
X019848Y014738D01*
X019848Y014603D01*
X019803Y014603D02*
X019938Y014603D01*
X019938Y014738D01*
X019893Y014783D01*
X019758Y014738D02*
X019758Y014648D01*
X019803Y014603D01*
X019758Y014890D02*
X019758Y014980D01*
X019893Y015082D02*
X019938Y015082D01*
X019938Y015127D01*
X019893Y015127D01*
X019893Y015082D01*
X019893Y015242D02*
X019758Y015242D01*
X019893Y015242D02*
X019938Y015287D01*
X019893Y015332D01*
X019938Y015377D01*
X019893Y015422D01*
X019758Y015422D01*
X019758Y015536D02*
X019893Y015536D01*
X019938Y015581D01*
X019893Y015626D01*
X019938Y015672D01*
X019893Y015717D01*
X019758Y015717D01*
X019758Y015831D02*
X019893Y015831D01*
X019938Y015876D01*
X019893Y015921D01*
X019938Y015966D01*
X019893Y016011D01*
X019758Y016011D01*
X018978Y017104D02*
X018978Y017194D01*
X018933Y017239D01*
X018843Y017239D01*
X018798Y017194D01*
X018798Y017104D01*
X018843Y017059D01*
X018888Y017059D01*
X018888Y017239D01*
X018843Y017353D02*
X018798Y017398D01*
X018798Y017489D01*
X018843Y017534D01*
X018798Y017640D02*
X018798Y017730D01*
X018753Y017685D02*
X018933Y017685D01*
X018978Y017640D01*
X018978Y017534D02*
X018708Y017534D01*
X018843Y017353D02*
X018978Y017353D01*
X018498Y017435D02*
X018228Y017435D01*
X018318Y017390D02*
X018318Y017300D01*
X018363Y017255D01*
X018498Y017255D01*
X018498Y017141D02*
X018498Y017051D01*
X018498Y017096D02*
X018318Y017096D01*
X018318Y017141D01*
X018228Y017096D02*
X018183Y017096D01*
X018363Y016944D02*
X018318Y016899D01*
X018318Y016764D01*
X018408Y016809D02*
X018408Y016899D01*
X018363Y016944D01*
X018498Y016944D02*
X018498Y016809D01*
X018453Y016764D01*
X018408Y016809D01*
X018498Y016355D02*
X018498Y016265D01*
X018498Y016310D02*
X018318Y016310D01*
X018318Y016355D01*
X018228Y016310D02*
X018183Y016310D01*
X018363Y016159D02*
X018318Y016113D01*
X018318Y015978D01*
X018408Y016023D02*
X018408Y016113D01*
X018363Y016159D01*
X018498Y016159D02*
X018498Y016023D01*
X018453Y015978D01*
X018408Y016023D01*
X018318Y017390D02*
X018363Y017435D01*
X018228Y017550D02*
X018228Y017730D01*
X018228Y017640D02*
X018498Y017640D01*
X014650Y012755D02*
X009525Y012755D01*
X008132Y012755D02*
X005535Y012755D01*
X005535Y007637D01*
X005562Y001613D02*
X005472Y001613D01*
X005427Y001568D01*
X005607Y001388D01*
X005562Y001343D01*
X005472Y001343D01*
X005427Y001388D01*
X005427Y001568D01*
X005562Y001613D02*
X005607Y001568D01*
X005607Y001388D01*
X005927Y001388D02*
X005927Y001568D01*
X005972Y001613D01*
X006107Y001613D01*
X006107Y001343D01*
X005972Y001343D01*
X005927Y001388D01*
X006222Y001343D02*
X006222Y001613D01*
X006402Y001613D02*
X006222Y001343D01*
X006402Y001343D02*
X006402Y001613D01*
X006517Y001568D02*
X006562Y001613D01*
X006652Y001613D01*
X006697Y001568D01*
X006697Y001388D01*
X006652Y001343D01*
X006562Y001343D01*
X006517Y001388D01*
X006517Y001478D01*
X006607Y001478D01*
X004607Y001523D02*
X004517Y001613D01*
X004517Y001343D01*
X004607Y001343D02*
X004427Y001343D01*
X003607Y001343D02*
X003427Y001523D01*
X003427Y001568D01*
X003472Y001613D01*
X003562Y001613D01*
X003607Y001568D01*
X003607Y001343D02*
X003427Y001343D01*
D15*
X015781Y003224D02*
X016315Y003224D01*
X016812Y003224D02*
X017346Y003224D01*
X017079Y003491D02*
X017079Y002957D01*
D16*
X017588Y003630D02*
X017586Y003650D01*
X017582Y003669D01*
X017574Y003687D01*
X017564Y003703D01*
X017551Y003718D01*
X017536Y003731D01*
X017520Y003741D01*
X017502Y003749D01*
X017483Y003753D01*
X017463Y003755D01*
X015213Y003755D01*
X015193Y003753D01*
X015174Y003749D01*
X015156Y003741D01*
X015140Y003731D01*
X015125Y003718D01*
X015112Y003703D01*
X015102Y003687D01*
X015094Y003669D01*
X015090Y003650D01*
X015088Y003630D01*
X015088Y000443D01*
X015090Y000423D01*
X015094Y000404D01*
X015102Y000386D01*
X015112Y000370D01*
X015125Y000355D01*
X015140Y000342D01*
X015156Y000332D01*
X015174Y000324D01*
X015193Y000320D01*
X015213Y000318D01*
X018025Y000318D01*
X018045Y000320D01*
X018064Y000324D01*
X018082Y000332D01*
X018098Y000342D01*
X018113Y000355D01*
X018126Y000370D01*
X018136Y000386D01*
X018144Y000404D01*
X018148Y000423D01*
X018150Y000443D01*
X018150Y001693D01*
X018148Y001713D01*
X018144Y001732D01*
X018136Y001750D01*
X018126Y001766D01*
X018113Y001781D01*
X018098Y001794D01*
X018082Y001804D01*
X018064Y001812D01*
X018045Y001816D01*
X018025Y001818D01*
X017713Y001818D01*
X017693Y001820D01*
X017674Y001824D01*
X017656Y001832D01*
X017640Y001842D01*
X017625Y001855D01*
X017612Y001870D01*
X017602Y001886D01*
X017594Y001904D01*
X017590Y001923D01*
X017588Y001943D01*
X017588Y003630D01*
X018338Y002005D02*
X018338Y007505D01*
X018340Y007525D01*
X018344Y007544D01*
X018352Y007562D01*
X018362Y007578D01*
X018375Y007593D01*
X018390Y007606D01*
X018406Y007616D01*
X018424Y007624D01*
X018443Y007628D01*
X018463Y007630D01*
X019963Y007630D01*
X019983Y007632D01*
X020002Y007636D01*
X020020Y007644D01*
X020036Y007654D01*
X020051Y007667D01*
X020064Y007682D01*
X020074Y007698D01*
X020082Y007716D01*
X020086Y007735D01*
X020088Y007755D01*
X020088Y009755D01*
X020086Y009775D01*
X020082Y009794D01*
X020074Y009812D01*
X020064Y009828D01*
X020051Y009843D01*
X020036Y009856D01*
X020020Y009866D01*
X020002Y009874D01*
X019983Y009878D01*
X019963Y009880D01*
X018463Y009880D01*
X018443Y009878D01*
X018424Y009874D01*
X018406Y009866D01*
X018390Y009856D01*
X018375Y009843D01*
X018362Y009828D01*
X018352Y009812D01*
X018344Y009794D01*
X018340Y009775D01*
X018338Y009755D01*
X018338Y007755D01*
X018340Y007735D01*
X018344Y007716D01*
X018352Y007698D01*
X018362Y007682D01*
X018375Y007667D01*
X018390Y007654D01*
X018406Y007644D01*
X018424Y007636D01*
X018443Y007632D01*
X018463Y007630D01*
X019963Y007630D02*
X019983Y007628D01*
X020002Y007624D01*
X020020Y007616D01*
X020036Y007606D01*
X020051Y007593D01*
X020064Y007578D01*
X020074Y007562D01*
X020082Y007544D01*
X020086Y007525D01*
X020088Y007505D01*
X020088Y002005D01*
X020086Y001985D01*
X020082Y001966D01*
X020074Y001948D01*
X020064Y001932D01*
X020051Y001917D01*
X020036Y001904D01*
X020020Y001894D01*
X020002Y001886D01*
X019983Y001882D01*
X019963Y001880D01*
X018463Y001880D01*
X018443Y001882D01*
X018424Y001886D01*
X018406Y001894D01*
X018390Y001904D01*
X018375Y001917D01*
X018362Y001932D01*
X018352Y001948D01*
X018344Y001966D01*
X018340Y001985D01*
X018338Y002005D01*
X014775Y003630D02*
X014775Y000380D01*
X014773Y000360D01*
X014769Y000341D01*
X014761Y000323D01*
X014751Y000307D01*
X014738Y000292D01*
X014723Y000279D01*
X014707Y000269D01*
X014689Y000261D01*
X014670Y000257D01*
X014650Y000255D01*
X010275Y000255D01*
X010255Y000257D01*
X010236Y000261D01*
X010218Y000269D01*
X010202Y000279D01*
X010187Y000292D01*
X010174Y000307D01*
X010164Y000323D01*
X010156Y000341D01*
X010152Y000360D01*
X010150Y000380D01*
X010150Y003630D01*
X010088Y003630D02*
X010088Y000380D01*
X010086Y000360D01*
X010082Y000341D01*
X010074Y000323D01*
X010064Y000307D01*
X010051Y000292D01*
X010036Y000279D01*
X010020Y000269D01*
X010002Y000261D01*
X009983Y000257D01*
X009963Y000255D01*
X007213Y000255D01*
X007193Y000257D01*
X007174Y000261D01*
X007156Y000269D01*
X007140Y000279D01*
X007125Y000292D01*
X007112Y000307D01*
X007102Y000323D01*
X007094Y000341D01*
X007090Y000360D01*
X007088Y000380D01*
X007088Y003630D01*
X007090Y003650D01*
X007094Y003669D01*
X007102Y003687D01*
X007112Y003703D01*
X007125Y003718D01*
X007140Y003731D01*
X007156Y003741D01*
X007174Y003749D01*
X007193Y003753D01*
X007213Y003755D01*
X009963Y003755D01*
X009983Y003753D01*
X010002Y003749D01*
X010020Y003741D01*
X010036Y003731D01*
X010051Y003718D01*
X010064Y003703D01*
X010074Y003687D01*
X010082Y003669D01*
X010086Y003650D01*
X010088Y003630D01*
X010150Y003630D02*
X010152Y003650D01*
X010156Y003669D01*
X010164Y003687D01*
X010174Y003703D01*
X010187Y003718D01*
X010202Y003731D01*
X010218Y003741D01*
X010236Y003749D01*
X010255Y003753D01*
X010275Y003755D01*
X014650Y003755D01*
X014670Y003753D01*
X014689Y003749D01*
X014707Y003741D01*
X014723Y003731D01*
X014738Y003718D01*
X014751Y003703D01*
X014761Y003687D01*
X014769Y003669D01*
X014773Y003650D01*
X014775Y003630D01*
X006838Y005130D02*
X006838Y001818D01*
X006838Y001568D01*
X006838Y000380D01*
X006836Y000360D01*
X006832Y000341D01*
X006824Y000323D01*
X006814Y000307D01*
X006801Y000292D01*
X006786Y000279D01*
X006770Y000269D01*
X006752Y000261D01*
X006733Y000257D01*
X006713Y000255D01*
X003025Y000255D01*
X003005Y000257D01*
X002986Y000261D01*
X002968Y000269D01*
X002952Y000279D01*
X002937Y000292D01*
X002924Y000307D01*
X002914Y000323D01*
X002906Y000341D01*
X002902Y000360D01*
X002900Y000380D01*
X002900Y001568D01*
X002902Y001588D01*
X002906Y001607D01*
X002914Y001625D01*
X002924Y001641D01*
X002937Y001656D01*
X002952Y001669D01*
X002968Y001679D01*
X002986Y001687D01*
X003005Y001691D01*
X003025Y001693D01*
X006713Y001693D01*
X006733Y001695D01*
X006752Y001699D01*
X006770Y001707D01*
X006786Y001717D01*
X006801Y001730D01*
X006814Y001745D01*
X006824Y001761D01*
X006832Y001779D01*
X006836Y001798D01*
X006838Y001818D01*
X006713Y001693D02*
X006733Y001691D01*
X006752Y001687D01*
X006770Y001679D01*
X006786Y001669D01*
X006801Y001656D01*
X006814Y001641D01*
X006824Y001625D01*
X006832Y001607D01*
X006836Y001588D01*
X006838Y001568D01*
X004588Y004693D02*
X003025Y004693D01*
X003005Y004691D01*
X002986Y004687D01*
X002968Y004679D01*
X002952Y004669D01*
X002937Y004656D01*
X002924Y004641D01*
X002914Y004625D01*
X002906Y004607D01*
X002902Y004588D01*
X002900Y004568D01*
X002900Y001818D01*
X002902Y001798D01*
X002906Y001779D01*
X002914Y001761D01*
X002924Y001745D01*
X002937Y001730D01*
X002952Y001717D01*
X002968Y001707D01*
X002986Y001699D01*
X003005Y001695D01*
X003025Y001693D01*
X004588Y004693D02*
X004608Y004695D01*
X004627Y004699D01*
X004645Y004707D01*
X004661Y004717D01*
X004676Y004730D01*
X004689Y004745D01*
X004699Y004761D01*
X004707Y004779D01*
X004711Y004798D01*
X004713Y004818D01*
X004713Y005130D01*
X004715Y005150D01*
X004719Y005169D01*
X004727Y005187D01*
X004737Y005203D01*
X004750Y005218D01*
X004765Y005231D01*
X004781Y005241D01*
X004799Y005249D01*
X004818Y005253D01*
X004838Y005255D01*
X006713Y005255D01*
X006733Y005253D01*
X006752Y005249D01*
X006770Y005241D01*
X006786Y005231D01*
X006801Y005218D01*
X006814Y005203D01*
X006824Y005187D01*
X006832Y005169D01*
X006836Y005150D01*
X006838Y005130D01*
X004463Y008943D02*
X002713Y008943D01*
X000838Y008943D01*
X000818Y008945D01*
X000799Y008949D01*
X000781Y008957D01*
X000765Y008967D01*
X000750Y008980D01*
X000737Y008995D01*
X000727Y009011D01*
X000719Y009029D01*
X000715Y009048D01*
X000713Y009068D01*
X000713Y011943D01*
X000712Y011943D02*
X000714Y011970D01*
X000720Y011996D01*
X000729Y012021D01*
X000742Y012045D01*
X000758Y012066D01*
X000777Y012085D01*
X000798Y012101D01*
X000822Y012114D01*
X000847Y012123D01*
X000873Y012129D01*
X000900Y012131D01*
X000900Y012130D02*
X004400Y012130D01*
X004400Y012131D02*
X004427Y012129D01*
X004453Y012123D01*
X004478Y012114D01*
X004502Y012101D01*
X004523Y012085D01*
X004542Y012066D01*
X004558Y012045D01*
X004571Y012021D01*
X004580Y011996D01*
X004586Y011970D01*
X004588Y011943D01*
X004588Y009068D01*
X004586Y009048D01*
X004582Y009029D01*
X004574Y009011D01*
X004564Y008995D01*
X004551Y008980D01*
X004536Y008967D01*
X004520Y008957D01*
X004502Y008949D01*
X004483Y008945D01*
X004463Y008943D01*
X002838Y008818D02*
X002838Y006693D01*
X002836Y006673D01*
X002832Y006654D01*
X002824Y006636D01*
X002814Y006620D01*
X002801Y006605D01*
X002786Y006592D01*
X002770Y006582D01*
X002752Y006574D01*
X002733Y006570D01*
X002713Y006568D01*
X000838Y006568D01*
X000818Y006570D01*
X000799Y006574D01*
X000781Y006582D01*
X000765Y006592D01*
X000750Y006605D01*
X000737Y006620D01*
X000727Y006636D01*
X000719Y006654D01*
X000715Y006673D01*
X000713Y006693D01*
X000713Y008818D01*
X000715Y008838D01*
X000719Y008857D01*
X000727Y008875D01*
X000737Y008891D01*
X000750Y008906D01*
X000765Y008919D01*
X000781Y008929D01*
X000799Y008937D01*
X000818Y008941D01*
X000838Y008943D01*
X002713Y008943D02*
X002733Y008941D01*
X002752Y008937D01*
X002770Y008929D01*
X002786Y008919D01*
X002801Y008906D01*
X002814Y008891D01*
X002824Y008875D01*
X002832Y008857D01*
X002836Y008838D01*
X002838Y008818D01*
X004400Y012130D02*
X004427Y012132D01*
X004453Y012138D01*
X004478Y012147D01*
X004502Y012160D01*
X004523Y012176D01*
X004542Y012195D01*
X004558Y012216D01*
X004571Y012240D01*
X004580Y012265D01*
X004586Y012291D01*
X004588Y012318D01*
X004588Y017505D01*
X004591Y017527D01*
X004590Y017550D01*
X004587Y017572D01*
X004580Y017594D01*
X004570Y017615D01*
X004558Y017633D01*
X004543Y017650D01*
X004525Y017665D01*
X004506Y017677D01*
X004485Y017686D01*
X004463Y017692D01*
X004463Y017693D02*
X003150Y017693D01*
X000838Y017693D01*
X000818Y017691D01*
X000799Y017687D01*
X000781Y017679D01*
X000765Y017669D01*
X000750Y017656D01*
X000737Y017641D01*
X000727Y017625D01*
X000719Y017607D01*
X000715Y017588D01*
X000713Y017568D01*
X000713Y012318D01*
X000712Y012318D02*
X000714Y012291D01*
X000720Y012265D01*
X000729Y012240D01*
X000742Y012216D01*
X000758Y012195D01*
X000777Y012176D01*
X000798Y012160D01*
X000822Y012147D01*
X000847Y012138D01*
X000873Y012132D01*
X000900Y012130D01*
X003150Y013255D02*
X003150Y015005D01*
X003152Y015025D01*
X003156Y015044D01*
X003164Y015062D01*
X003174Y015078D01*
X003187Y015093D01*
X003202Y015106D01*
X003218Y015116D01*
X003236Y015124D01*
X003255Y015128D01*
X003275Y015130D01*
X003650Y015130D01*
X003670Y015128D01*
X003689Y015124D01*
X003707Y015116D01*
X003723Y015106D01*
X003738Y015093D01*
X003751Y015078D01*
X003761Y015062D01*
X003769Y015044D01*
X003773Y015025D01*
X003775Y015005D01*
X003775Y014943D01*
X004713Y015318D01*
X004713Y014568D01*
X004715Y014548D01*
X004719Y014529D01*
X004727Y014511D01*
X004737Y014495D01*
X004750Y014480D01*
X004765Y014467D01*
X004781Y014457D01*
X004799Y014449D01*
X004818Y014445D01*
X004838Y014443D01*
X005400Y014443D01*
X005420Y014445D01*
X005439Y014449D01*
X005457Y014457D01*
X005473Y014467D01*
X005488Y014480D01*
X005501Y014495D01*
X005511Y014511D01*
X005519Y014529D01*
X005523Y014548D01*
X005525Y014568D01*
X005525Y016005D01*
X005523Y016025D01*
X005519Y016044D01*
X005511Y016062D01*
X005501Y016078D01*
X005488Y016093D01*
X005473Y016106D01*
X005457Y016116D01*
X005439Y016124D01*
X005420Y016128D01*
X005400Y016130D01*
X004838Y016130D01*
X004818Y016128D01*
X004799Y016124D01*
X004781Y016116D01*
X004765Y016106D01*
X004750Y016093D01*
X004737Y016078D01*
X004727Y016062D01*
X004719Y016044D01*
X004715Y016025D01*
X004713Y016005D01*
X004713Y015318D01*
X003775Y014943D02*
X003775Y013255D01*
X003773Y013235D01*
X003769Y013216D01*
X003761Y013198D01*
X003751Y013182D01*
X003738Y013167D01*
X003723Y013154D01*
X003707Y013144D01*
X003689Y013136D01*
X003670Y013132D01*
X003650Y013130D01*
X003275Y013130D01*
X003255Y013132D01*
X003236Y013136D01*
X003218Y013144D01*
X003202Y013154D01*
X003187Y013167D01*
X003174Y013182D01*
X003164Y013198D01*
X003156Y013216D01*
X003152Y013235D01*
X003150Y013255D01*
X004463Y017693D02*
X006025Y017693D01*
X006045Y017695D01*
X006064Y017699D01*
X006082Y017707D01*
X006098Y017717D01*
X006113Y017730D01*
X006126Y017745D01*
X006136Y017761D01*
X006144Y017779D01*
X006148Y017798D01*
X006150Y017818D01*
X006150Y019505D01*
X006148Y019525D01*
X006144Y019544D01*
X006136Y019562D01*
X006126Y019578D01*
X006113Y019593D01*
X006098Y019606D01*
X006082Y019616D01*
X006064Y019624D01*
X006045Y019628D01*
X006025Y019630D01*
X003150Y019630D01*
X003130Y019628D01*
X003111Y019624D01*
X003093Y019616D01*
X003077Y019606D01*
X003062Y019593D01*
X003049Y019578D01*
X003039Y019562D01*
X003031Y019544D01*
X003027Y019525D01*
X003025Y019505D01*
X003025Y017818D01*
X003027Y017798D01*
X003031Y017779D01*
X003039Y017761D01*
X003049Y017745D01*
X003062Y017730D01*
X003077Y017717D01*
X003093Y017707D01*
X003111Y017699D01*
X003130Y017695D01*
X003150Y017693D01*
X008525Y017818D02*
X008525Y019505D01*
X008527Y019525D01*
X008531Y019544D01*
X008539Y019562D01*
X008549Y019578D01*
X008562Y019593D01*
X008577Y019606D01*
X008593Y019616D01*
X008611Y019624D01*
X008630Y019628D01*
X008650Y019630D01*
X011525Y019630D01*
X011545Y019628D01*
X011564Y019624D01*
X011582Y019616D01*
X011598Y019606D01*
X011613Y019593D01*
X011626Y019578D01*
X011636Y019562D01*
X011644Y019544D01*
X011648Y019525D01*
X011650Y019505D01*
X011650Y017818D01*
X011648Y017798D01*
X011644Y017779D01*
X011636Y017761D01*
X011626Y017745D01*
X011613Y017730D01*
X011598Y017717D01*
X011582Y017707D01*
X011564Y017699D01*
X011545Y017695D01*
X011525Y017693D01*
X008650Y017693D01*
X008630Y017695D01*
X008611Y017699D01*
X008593Y017707D01*
X008577Y017717D01*
X008562Y017730D01*
X008549Y017745D01*
X008539Y017761D01*
X008531Y017779D01*
X008527Y017798D01*
X008525Y017818D01*
X014025Y017818D02*
X014025Y019505D01*
X014027Y019525D01*
X014031Y019544D01*
X014039Y019562D01*
X014049Y019578D01*
X014062Y019593D01*
X014077Y019606D01*
X014093Y019616D01*
X014111Y019624D01*
X014130Y019628D01*
X014150Y019630D01*
X017025Y019630D01*
X017045Y019628D01*
X017064Y019624D01*
X017082Y019616D01*
X017098Y019606D01*
X017113Y019593D01*
X017126Y019578D01*
X017136Y019562D01*
X017144Y019544D01*
X017148Y019525D01*
X017150Y019505D01*
X017150Y017818D01*
X017148Y017798D01*
X017144Y017779D01*
X017136Y017761D01*
X017126Y017745D01*
X017113Y017730D01*
X017098Y017717D01*
X017082Y017707D01*
X017064Y017699D01*
X017045Y017695D01*
X017025Y017693D01*
X014150Y017693D01*
X014130Y017695D01*
X014111Y017699D01*
X014093Y017707D01*
X014077Y017717D01*
X014062Y017730D01*
X014049Y017745D01*
X014039Y017761D01*
X014031Y017779D01*
X014027Y017798D01*
X014025Y017818D01*
D17*
X017820Y009709D02*
X017880Y009709D01*
X018000Y009709D02*
X018241Y009709D01*
X018061Y009120D02*
X017820Y008880D01*
X017820Y008706D02*
X017820Y008526D01*
X017880Y008466D01*
X017940Y008526D01*
X017940Y008706D01*
X018000Y008706D02*
X017820Y008706D01*
X018000Y008706D02*
X018061Y008646D01*
X018061Y008526D01*
X018000Y008292D02*
X017820Y008292D01*
X017820Y008172D02*
X018000Y008172D01*
X018061Y008232D01*
X018000Y008292D01*
X018000Y008172D02*
X018061Y008112D01*
X018061Y008052D01*
X017820Y008052D01*
X017940Y007463D02*
X018181Y007463D01*
X018181Y007223D02*
X017940Y007223D01*
X017820Y007343D01*
X017940Y007463D01*
X017940Y007049D02*
X017880Y007049D01*
X017820Y006989D01*
X017820Y006869D01*
X017880Y006809D01*
X017880Y006661D02*
X017820Y006661D01*
X017820Y006601D01*
X017880Y006601D01*
X017880Y006661D01*
X017880Y006427D02*
X017820Y006367D01*
X017820Y006247D01*
X017880Y006187D01*
X018000Y006307D02*
X018000Y006367D01*
X017940Y006427D01*
X017880Y006427D01*
X018000Y006367D02*
X018061Y006427D01*
X018121Y006427D01*
X018181Y006367D01*
X018181Y006247D01*
X018121Y006187D01*
X018061Y005598D02*
X017820Y005358D01*
X017820Y005184D02*
X017820Y005004D01*
X017880Y004944D01*
X017940Y005004D01*
X017940Y005184D01*
X018000Y005184D02*
X017820Y005184D01*
X018000Y005184D02*
X018061Y005124D01*
X018061Y005004D01*
X018061Y005358D02*
X017820Y005598D01*
X017820Y004770D02*
X018000Y004770D01*
X018061Y004710D01*
X018000Y004650D01*
X017820Y004650D01*
X017820Y004530D02*
X018061Y004530D01*
X018061Y004590D01*
X018000Y004650D01*
X017940Y003941D02*
X018181Y003941D01*
X018181Y003701D02*
X017940Y003701D01*
X017820Y003821D01*
X017940Y003941D01*
X017940Y003527D02*
X017880Y003527D01*
X017820Y003467D01*
X017820Y003347D01*
X017880Y003287D01*
X017880Y003139D02*
X017820Y003139D01*
X017820Y003079D01*
X017880Y003079D01*
X017880Y003139D01*
X017880Y002905D02*
X017820Y002845D01*
X017820Y002725D01*
X017880Y002665D01*
X018000Y002785D02*
X018000Y002845D01*
X017940Y002905D01*
X017880Y002905D01*
X018000Y002845D02*
X018061Y002905D01*
X018121Y002905D01*
X018181Y002845D01*
X018181Y002725D01*
X018121Y002665D01*
X018241Y002113D02*
X018000Y002113D01*
X017880Y002113D02*
X017820Y002113D01*
X018121Y003287D02*
X018181Y003347D01*
X018181Y003467D01*
X018121Y003527D01*
X018061Y003527D01*
X018000Y003467D01*
X017940Y003527D01*
X018000Y003467D02*
X018000Y003407D01*
X018121Y006809D02*
X018181Y006869D01*
X018181Y006989D01*
X018121Y007049D01*
X018061Y007049D01*
X018000Y006989D01*
X017940Y007049D01*
X018000Y006989D02*
X018000Y006929D01*
X018061Y008880D02*
X017820Y009120D01*
D18*
X013444Y014483D02*
X013450Y014489D01*
X013448Y014499D01*
X013437Y014502D01*
X013422Y014505D01*
X013396Y014511D01*
X013388Y014519D01*
X013385Y014534D01*
X013378Y014567D01*
X013373Y014673D01*
X013376Y014723D01*
X013384Y014751D01*
X013395Y014758D01*
X013411Y014760D01*
X013440Y014762D01*
X013449Y014769D01*
X013450Y014777D01*
X013445Y014785D01*
X013437Y014787D01*
X013423Y014789D01*
X013290Y014789D01*
X013277Y014782D01*
X013255Y014763D01*
X013184Y014679D01*
X013155Y014641D01*
X013138Y014624D01*
X013126Y014638D01*
X013083Y014696D01*
X013037Y014755D01*
X013012Y014782D01*
X012992Y014784D01*
X012924Y014784D01*
X012871Y014787D01*
X012858Y014784D01*
X012853Y014776D01*
X012857Y014769D01*
X013024Y014769D01*
X013023Y014771D02*
X012856Y014771D01*
X012856Y014772D02*
X013022Y014772D01*
X013020Y014774D02*
X012855Y014774D01*
X012854Y014775D02*
X013019Y014775D01*
X013017Y014777D02*
X012854Y014777D01*
X012855Y014778D02*
X013016Y014778D01*
X013015Y014780D02*
X012856Y014780D01*
X012857Y014781D02*
X013013Y014781D01*
X013006Y014783D02*
X012857Y014783D01*
X012859Y014784D02*
X012922Y014784D01*
X012920Y014760D02*
X013033Y014760D01*
X013034Y014759D02*
X012921Y014759D01*
X012920Y014760D02*
X012929Y014746D01*
X012929Y014725D01*
X012923Y014674D01*
X012923Y014520D01*
X013087Y014520D01*
X013087Y014521D02*
X012923Y014521D01*
X012923Y014520D02*
X012913Y014510D01*
X012893Y014505D01*
X012865Y014502D01*
X013152Y014502D01*
X013123Y014504D01*
X013100Y014507D01*
X013088Y014515D01*
X013084Y014533D01*
X013093Y014597D01*
X013095Y014611D01*
X013101Y014612D01*
X013107Y014609D01*
X013149Y014555D01*
X013175Y014519D01*
X013201Y014488D01*
X013207Y014482D01*
X013211Y014483D01*
X013219Y014490D01*
X013200Y014490D01*
X013201Y014488D02*
X013218Y014488D01*
X013219Y014490D02*
X013270Y014540D01*
X013306Y014581D01*
X013328Y014605D01*
X013338Y014606D01*
X013347Y014603D01*
X013346Y014587D01*
X013342Y014563D01*
X013327Y014539D01*
X013305Y014516D01*
X013279Y014507D01*
X013269Y014505D01*
X013423Y014505D01*
X013416Y014506D02*
X013276Y014506D01*
X013282Y014508D02*
X013410Y014508D01*
X013403Y014509D02*
X013286Y014509D01*
X013291Y014511D02*
X013397Y014511D01*
X013395Y014512D02*
X013295Y014512D01*
X013299Y014514D02*
X013393Y014514D01*
X013392Y014515D02*
X013304Y014515D01*
X013306Y014517D02*
X013390Y014517D01*
X013389Y014518D02*
X013308Y014518D01*
X013309Y014520D02*
X013388Y014520D01*
X013388Y014521D02*
X013311Y014521D01*
X013312Y014523D02*
X013388Y014523D01*
X013387Y014524D02*
X013313Y014524D01*
X013315Y014526D02*
X013387Y014526D01*
X013387Y014527D02*
X013316Y014527D01*
X013318Y014529D02*
X013386Y014529D01*
X013386Y014530D02*
X013319Y014530D01*
X013321Y014532D02*
X013386Y014532D01*
X013385Y014533D02*
X013322Y014533D01*
X013323Y014535D02*
X013385Y014535D01*
X013385Y014536D02*
X013325Y014536D01*
X013326Y014538D02*
X013384Y014538D01*
X013384Y014539D02*
X013328Y014539D01*
X013329Y014541D02*
X013384Y014541D01*
X013384Y014542D02*
X013329Y014542D01*
X013330Y014544D02*
X013383Y014544D01*
X013383Y014545D02*
X013331Y014545D01*
X013332Y014547D02*
X013383Y014547D01*
X013382Y014548D02*
X013333Y014548D01*
X013334Y014550D02*
X013382Y014550D01*
X013382Y014551D02*
X013335Y014551D01*
X013336Y014553D02*
X013381Y014553D01*
X013381Y014554D02*
X013337Y014554D01*
X013338Y014556D02*
X013381Y014556D01*
X013380Y014557D02*
X013339Y014557D01*
X013340Y014559D02*
X013380Y014559D01*
X013380Y014560D02*
X013341Y014560D01*
X013342Y014562D02*
X013379Y014562D01*
X013379Y014563D02*
X013342Y014563D01*
X013343Y014565D02*
X013379Y014565D01*
X013378Y014566D02*
X013343Y014566D01*
X013343Y014568D02*
X013378Y014568D01*
X013378Y014569D02*
X013343Y014569D01*
X013344Y014571D02*
X013378Y014571D01*
X013378Y014572D02*
X013344Y014572D01*
X013344Y014574D02*
X013378Y014574D01*
X013378Y014575D02*
X013344Y014575D01*
X013345Y014577D02*
X013378Y014577D01*
X013378Y014578D02*
X013345Y014578D01*
X013345Y014580D02*
X013378Y014580D01*
X013378Y014581D02*
X013345Y014581D01*
X013346Y014583D02*
X013378Y014583D01*
X013378Y014584D02*
X013346Y014584D01*
X013346Y014586D02*
X013377Y014586D01*
X013377Y014587D02*
X013346Y014587D01*
X013346Y014589D02*
X013377Y014589D01*
X013377Y014590D02*
X013347Y014590D01*
X013347Y014592D02*
X013377Y014592D01*
X013377Y014593D02*
X013347Y014593D01*
X013347Y014595D02*
X013377Y014595D01*
X013377Y014596D02*
X013347Y014596D01*
X013347Y014598D02*
X013377Y014598D01*
X013377Y014599D02*
X013347Y014599D01*
X013347Y014601D02*
X013377Y014601D01*
X013377Y014602D02*
X013347Y014602D01*
X013344Y014604D02*
X013377Y014604D01*
X013377Y014605D02*
X013340Y014605D01*
X013333Y014605D02*
X013110Y014605D01*
X013111Y014604D02*
X013327Y014604D01*
X013326Y014602D02*
X013112Y014602D01*
X013114Y014601D02*
X013325Y014601D01*
X013323Y014599D02*
X013115Y014599D01*
X013116Y014598D02*
X013322Y014598D01*
X013321Y014596D02*
X013117Y014596D01*
X013118Y014595D02*
X013319Y014595D01*
X013318Y014593D02*
X013119Y014593D01*
X013121Y014592D02*
X013316Y014592D01*
X013315Y014590D02*
X013122Y014590D01*
X013123Y014589D02*
X013314Y014589D01*
X013312Y014587D02*
X013124Y014587D01*
X013125Y014586D02*
X013311Y014586D01*
X013310Y014584D02*
X013126Y014584D01*
X013128Y014583D02*
X013308Y014583D01*
X013307Y014581D02*
X013129Y014581D01*
X013130Y014580D02*
X013305Y014580D01*
X013304Y014578D02*
X013131Y014578D01*
X013132Y014577D02*
X013303Y014577D01*
X013301Y014575D02*
X013133Y014575D01*
X013135Y014574D02*
X013300Y014574D01*
X013299Y014572D02*
X013136Y014572D01*
X013137Y014571D02*
X013298Y014571D01*
X013296Y014569D02*
X013138Y014569D01*
X013139Y014568D02*
X013295Y014568D01*
X013294Y014566D02*
X013140Y014566D01*
X013142Y014565D02*
X013292Y014565D01*
X013291Y014563D02*
X013143Y014563D01*
X013144Y014562D02*
X013290Y014562D01*
X013288Y014560D02*
X013145Y014560D01*
X013146Y014559D02*
X013287Y014559D01*
X013286Y014557D02*
X013147Y014557D01*
X013149Y014556D02*
X013284Y014556D01*
X013283Y014554D02*
X013150Y014554D01*
X013151Y014553D02*
X013282Y014553D01*
X013280Y014551D02*
X013152Y014551D01*
X013153Y014550D02*
X013279Y014550D01*
X013278Y014548D02*
X013154Y014548D01*
X013155Y014547D02*
X013276Y014547D01*
X013275Y014545D02*
X013156Y014545D01*
X013157Y014544D02*
X013274Y014544D01*
X013272Y014542D02*
X013158Y014542D01*
X013159Y014541D02*
X013271Y014541D01*
X013270Y014539D02*
X013161Y014539D01*
X013162Y014538D02*
X013268Y014538D01*
X013267Y014536D02*
X013163Y014536D01*
X013164Y014535D02*
X013265Y014535D01*
X013264Y014533D02*
X013165Y014533D01*
X013166Y014532D02*
X013262Y014532D01*
X013261Y014530D02*
X013167Y014530D01*
X013168Y014529D02*
X013259Y014529D01*
X013258Y014527D02*
X013169Y014527D01*
X013170Y014526D02*
X013256Y014526D01*
X013254Y014524D02*
X013171Y014524D01*
X013172Y014523D02*
X013253Y014523D01*
X013251Y014521D02*
X013174Y014521D01*
X013175Y014520D02*
X013250Y014520D01*
X013248Y014518D02*
X013176Y014518D01*
X013177Y014517D02*
X013247Y014517D01*
X013245Y014515D02*
X013178Y014515D01*
X013180Y014514D02*
X013244Y014514D01*
X013242Y014512D02*
X013181Y014512D01*
X013182Y014511D02*
X013241Y014511D01*
X013239Y014509D02*
X013183Y014509D01*
X013185Y014508D02*
X013238Y014508D01*
X013236Y014506D02*
X013186Y014506D01*
X013187Y014505D02*
X013235Y014505D01*
X013233Y014503D02*
X013188Y014503D01*
X013190Y014502D02*
X013231Y014502D01*
X013230Y014500D02*
X013191Y014500D01*
X013192Y014499D02*
X013228Y014499D01*
X013227Y014497D02*
X013193Y014497D01*
X013195Y014496D02*
X013225Y014496D01*
X013224Y014494D02*
X013196Y014494D01*
X013197Y014493D02*
X013222Y014493D01*
X013221Y014491D02*
X013198Y014491D01*
X013202Y014487D02*
X013216Y014487D01*
X013214Y014485D02*
X013204Y014485D01*
X013205Y014484D02*
X013212Y014484D01*
X013209Y014482D02*
X013207Y014482D01*
X013161Y014493D02*
X012857Y014493D01*
X012858Y014494D02*
X013161Y014494D01*
X013161Y014495D02*
X013152Y014502D01*
X013154Y014500D02*
X012864Y014500D01*
X012862Y014499D02*
X013156Y014499D01*
X013158Y014497D02*
X012861Y014497D01*
X012860Y014496D02*
X013160Y014496D01*
X013161Y014495D02*
X013158Y014483D01*
X013147Y014482D01*
X013125Y014482D01*
X013052Y014487D01*
X012940Y014486D01*
X012909Y014483D01*
X012878Y014482D01*
X012861Y014482D01*
X012850Y014486D01*
X012865Y014502D01*
X012879Y014503D02*
X013132Y014503D01*
X013116Y014505D02*
X012893Y014505D01*
X012899Y014506D02*
X013105Y014506D01*
X013099Y014508D02*
X012905Y014508D01*
X012911Y014509D02*
X013097Y014509D01*
X013094Y014511D02*
X012914Y014511D01*
X012916Y014512D02*
X013092Y014512D01*
X013090Y014514D02*
X012917Y014514D01*
X012919Y014515D02*
X013088Y014515D01*
X013088Y014517D02*
X012920Y014517D01*
X012922Y014518D02*
X013088Y014518D01*
X013087Y014523D02*
X012923Y014523D01*
X012923Y014524D02*
X013086Y014524D01*
X013086Y014526D02*
X012923Y014526D01*
X012923Y014527D02*
X013086Y014527D01*
X013085Y014529D02*
X012923Y014529D01*
X012923Y014530D02*
X013085Y014530D01*
X013085Y014532D02*
X012923Y014532D01*
X012923Y014533D02*
X013084Y014533D01*
X013085Y014535D02*
X012923Y014535D01*
X012923Y014536D02*
X013085Y014536D01*
X013085Y014538D02*
X012923Y014538D01*
X012923Y014539D02*
X013085Y014539D01*
X013085Y014541D02*
X012923Y014541D01*
X012923Y014542D02*
X013086Y014542D01*
X013086Y014544D02*
X012923Y014544D01*
X012923Y014545D02*
X013086Y014545D01*
X013086Y014547D02*
X012923Y014547D01*
X012923Y014548D02*
X013087Y014548D01*
X013087Y014550D02*
X012923Y014550D01*
X012923Y014551D02*
X013087Y014551D01*
X013087Y014553D02*
X012923Y014553D01*
X012923Y014554D02*
X013087Y014554D01*
X013088Y014556D02*
X012923Y014556D01*
X012923Y014557D02*
X013088Y014557D01*
X013088Y014559D02*
X012923Y014559D01*
X012923Y014560D02*
X013088Y014560D01*
X013088Y014562D02*
X012923Y014562D01*
X012923Y014563D02*
X013089Y014563D01*
X013089Y014565D02*
X012923Y014565D01*
X012923Y014566D02*
X013089Y014566D01*
X013089Y014568D02*
X012923Y014568D01*
X012923Y014569D02*
X013089Y014569D01*
X013090Y014571D02*
X012923Y014571D01*
X012923Y014572D02*
X013090Y014572D01*
X013090Y014574D02*
X012923Y014574D01*
X012923Y014575D02*
X013090Y014575D01*
X013091Y014577D02*
X012923Y014577D01*
X012923Y014578D02*
X013091Y014578D01*
X013091Y014580D02*
X012923Y014580D01*
X012923Y014581D02*
X013091Y014581D01*
X013091Y014583D02*
X012923Y014583D01*
X012923Y014584D02*
X013092Y014584D01*
X013092Y014586D02*
X012923Y014586D01*
X012923Y014587D02*
X013092Y014587D01*
X013092Y014589D02*
X012923Y014589D01*
X012923Y014590D02*
X013092Y014590D01*
X013093Y014592D02*
X012923Y014592D01*
X012923Y014593D02*
X013093Y014593D01*
X013093Y014595D02*
X012923Y014595D01*
X012923Y014596D02*
X013093Y014596D01*
X013093Y014598D02*
X012923Y014598D01*
X012923Y014599D02*
X013094Y014599D01*
X013094Y014601D02*
X012923Y014601D01*
X012923Y014602D02*
X013094Y014602D01*
X013094Y014604D02*
X012923Y014604D01*
X012923Y014605D02*
X013095Y014605D01*
X013095Y014607D02*
X012923Y014607D01*
X012923Y014608D02*
X013095Y014608D01*
X013095Y014610D02*
X012923Y014610D01*
X012923Y014611D02*
X013098Y014611D01*
X013102Y014611D02*
X013376Y014611D01*
X013376Y014610D02*
X013105Y014610D01*
X013108Y014608D02*
X013376Y014608D01*
X013376Y014607D02*
X013109Y014607D01*
X013135Y014628D02*
X012923Y014628D01*
X012923Y014627D02*
X013136Y014627D01*
X013137Y014625D02*
X012923Y014625D01*
X012923Y014624D02*
X013376Y014624D01*
X013376Y014625D02*
X013139Y014625D01*
X013141Y014627D02*
X013376Y014627D01*
X013375Y014628D02*
X013142Y014628D01*
X013144Y014630D02*
X013375Y014630D01*
X013375Y014631D02*
X013145Y014631D01*
X013147Y014633D02*
X013375Y014633D01*
X013375Y014634D02*
X013148Y014634D01*
X013150Y014636D02*
X013375Y014636D01*
X013375Y014637D02*
X013151Y014637D01*
X013153Y014639D02*
X013375Y014639D01*
X013375Y014640D02*
X013154Y014640D01*
X013156Y014642D02*
X013375Y014642D01*
X013375Y014643D02*
X013157Y014643D01*
X013158Y014645D02*
X013375Y014645D01*
X013375Y014646D02*
X013159Y014646D01*
X013160Y014648D02*
X013375Y014648D01*
X013374Y014649D02*
X013161Y014649D01*
X013163Y014651D02*
X013374Y014651D01*
X013374Y014652D02*
X013164Y014652D01*
X013165Y014654D02*
X013374Y014654D01*
X013374Y014655D02*
X013166Y014655D01*
X013167Y014657D02*
X013374Y014657D01*
X013374Y014658D02*
X013168Y014658D01*
X013169Y014660D02*
X013374Y014660D01*
X013374Y014661D02*
X013171Y014661D01*
X013172Y014663D02*
X013374Y014663D01*
X013374Y014664D02*
X013173Y014664D01*
X013174Y014666D02*
X013374Y014666D01*
X013374Y014667D02*
X013175Y014667D01*
X013176Y014669D02*
X013374Y014669D01*
X013373Y014670D02*
X013177Y014670D01*
X013179Y014672D02*
X013373Y014672D01*
X013373Y014673D02*
X013180Y014673D01*
X013181Y014675D02*
X013373Y014675D01*
X013374Y014676D02*
X013182Y014676D01*
X013183Y014678D02*
X013374Y014678D01*
X013374Y014679D02*
X013184Y014679D01*
X013186Y014681D02*
X013374Y014681D01*
X013374Y014682D02*
X013187Y014682D01*
X013188Y014684D02*
X013374Y014684D01*
X013374Y014685D02*
X013189Y014685D01*
X013191Y014687D02*
X013374Y014687D01*
X013374Y014688D02*
X013192Y014688D01*
X013193Y014690D02*
X013374Y014690D01*
X013374Y014691D02*
X013195Y014691D01*
X013196Y014693D02*
X013375Y014693D01*
X013375Y014694D02*
X013197Y014694D01*
X013198Y014696D02*
X013375Y014696D01*
X013375Y014697D02*
X013200Y014697D01*
X013201Y014699D02*
X013375Y014699D01*
X013375Y014700D02*
X013202Y014700D01*
X013203Y014702D02*
X013375Y014702D01*
X013375Y014703D02*
X013205Y014703D01*
X013206Y014705D02*
X013375Y014705D01*
X013375Y014706D02*
X013207Y014706D01*
X013208Y014708D02*
X013375Y014708D01*
X013375Y014709D02*
X013210Y014709D01*
X013211Y014711D02*
X013376Y014711D01*
X013376Y014712D02*
X013212Y014712D01*
X013214Y014714D02*
X013376Y014714D01*
X013376Y014715D02*
X013215Y014715D01*
X013216Y014717D02*
X013376Y014717D01*
X013376Y014718D02*
X013217Y014718D01*
X013219Y014720D02*
X013376Y014720D01*
X013376Y014721D02*
X013220Y014721D01*
X013221Y014723D02*
X013376Y014723D01*
X013377Y014724D02*
X013222Y014724D01*
X013224Y014726D02*
X013377Y014726D01*
X013377Y014727D02*
X013225Y014727D01*
X013226Y014729D02*
X013378Y014729D01*
X013378Y014730D02*
X013228Y014730D01*
X013229Y014732D02*
X013379Y014732D01*
X013379Y014733D02*
X013230Y014733D01*
X013231Y014735D02*
X013380Y014735D01*
X013380Y014736D02*
X013233Y014736D01*
X013234Y014738D02*
X013380Y014738D01*
X013381Y014739D02*
X013235Y014739D01*
X013236Y014741D02*
X013381Y014741D01*
X013382Y014742D02*
X013238Y014742D01*
X013239Y014744D02*
X013382Y014744D01*
X013383Y014745D02*
X013240Y014745D01*
X013241Y014747D02*
X013383Y014747D01*
X013384Y014748D02*
X013243Y014748D01*
X013244Y014750D02*
X013384Y014750D01*
X013384Y014751D02*
X013245Y014751D01*
X013247Y014753D02*
X013387Y014753D01*
X013389Y014754D02*
X013248Y014754D01*
X013249Y014756D02*
X013392Y014756D01*
X013394Y014757D02*
X013250Y014757D01*
X013252Y014759D02*
X013400Y014759D01*
X013413Y014760D02*
X013253Y014760D01*
X013254Y014762D02*
X013434Y014762D01*
X013442Y014763D02*
X013255Y014763D01*
X013257Y014765D02*
X013444Y014765D01*
X013446Y014766D02*
X013259Y014766D01*
X013261Y014768D02*
X013448Y014768D01*
X013449Y014769D02*
X013262Y014769D01*
X013264Y014771D02*
X013450Y014771D01*
X013450Y014772D02*
X013266Y014772D01*
X013268Y014774D02*
X013450Y014774D01*
X013450Y014775D02*
X013269Y014775D01*
X013271Y014777D02*
X013450Y014777D01*
X013450Y014778D02*
X013273Y014778D01*
X013275Y014780D02*
X013449Y014780D01*
X013448Y014781D02*
X013276Y014781D01*
X013278Y014783D02*
X013447Y014783D01*
X013446Y014784D02*
X013281Y014784D01*
X013284Y014786D02*
X013443Y014786D01*
X013437Y014787D02*
X013287Y014787D01*
X013290Y014789D02*
X013426Y014789D01*
X013376Y014622D02*
X012923Y014622D01*
X012923Y014621D02*
X013376Y014621D01*
X013376Y014619D02*
X012923Y014619D01*
X012923Y014618D02*
X013376Y014618D01*
X013376Y014616D02*
X012923Y014616D01*
X012923Y014614D02*
X013376Y014614D01*
X013376Y014613D02*
X012923Y014613D01*
X012923Y014630D02*
X013134Y014630D01*
X013132Y014631D02*
X012923Y014631D01*
X012923Y014633D02*
X013131Y014633D01*
X013130Y014634D02*
X012923Y014634D01*
X012923Y014636D02*
X013128Y014636D01*
X013127Y014637D02*
X012923Y014637D01*
X012923Y014639D02*
X013126Y014639D01*
X013125Y014640D02*
X012923Y014640D01*
X012923Y014642D02*
X013124Y014642D01*
X013123Y014643D02*
X012923Y014643D01*
X012923Y014645D02*
X013122Y014645D01*
X013120Y014646D02*
X012923Y014646D01*
X012923Y014648D02*
X013119Y014648D01*
X013118Y014649D02*
X012923Y014649D01*
X012923Y014651D02*
X013117Y014651D01*
X013116Y014652D02*
X012923Y014652D01*
X012923Y014654D02*
X013115Y014654D01*
X013114Y014655D02*
X012923Y014655D01*
X012923Y014657D02*
X013113Y014657D01*
X013111Y014658D02*
X012923Y014658D01*
X012923Y014660D02*
X013110Y014660D01*
X013109Y014661D02*
X012923Y014661D01*
X012923Y014663D02*
X013108Y014663D01*
X013107Y014664D02*
X012923Y014664D01*
X012923Y014666D02*
X013106Y014666D01*
X013105Y014667D02*
X012923Y014667D01*
X012923Y014669D02*
X013104Y014669D01*
X013103Y014670D02*
X012923Y014670D01*
X012923Y014672D02*
X013101Y014672D01*
X013100Y014673D02*
X012923Y014673D01*
X012923Y014675D02*
X013099Y014675D01*
X013098Y014676D02*
X012924Y014676D01*
X012924Y014678D02*
X013097Y014678D01*
X013096Y014679D02*
X012924Y014679D01*
X012924Y014681D02*
X013095Y014681D01*
X013094Y014682D02*
X012924Y014682D01*
X012924Y014684D02*
X013093Y014684D01*
X013091Y014685D02*
X012925Y014685D01*
X012925Y014687D02*
X013090Y014687D01*
X013089Y014688D02*
X012925Y014688D01*
X012925Y014690D02*
X013088Y014690D01*
X013087Y014691D02*
X012925Y014691D01*
X012926Y014693D02*
X013086Y014693D01*
X013085Y014694D02*
X012926Y014694D01*
X012926Y014696D02*
X013084Y014696D01*
X013083Y014697D02*
X012926Y014697D01*
X012926Y014699D02*
X013081Y014699D01*
X013080Y014700D02*
X012926Y014700D01*
X012927Y014702D02*
X013079Y014702D01*
X013078Y014703D02*
X012927Y014703D01*
X012927Y014705D02*
X013077Y014705D01*
X013075Y014706D02*
X012927Y014706D01*
X012927Y014708D02*
X013074Y014708D01*
X013073Y014709D02*
X012927Y014709D01*
X012928Y014711D02*
X013072Y014711D01*
X013071Y014712D02*
X012928Y014712D01*
X012928Y014714D02*
X013070Y014714D01*
X013068Y014715D02*
X012928Y014715D01*
X012928Y014717D02*
X013067Y014717D01*
X013066Y014718D02*
X012929Y014718D01*
X012929Y014720D02*
X013065Y014720D01*
X013064Y014721D02*
X012929Y014721D01*
X012929Y014723D02*
X013063Y014723D01*
X013061Y014724D02*
X012929Y014724D01*
X012929Y014726D02*
X013060Y014726D01*
X013059Y014727D02*
X012929Y014727D01*
X012929Y014729D02*
X013058Y014729D01*
X013057Y014730D02*
X012929Y014730D01*
X012929Y014732D02*
X013056Y014732D01*
X013054Y014733D02*
X012929Y014733D01*
X012929Y014735D02*
X013053Y014735D01*
X013052Y014736D02*
X012929Y014736D01*
X012929Y014738D02*
X013051Y014738D01*
X013050Y014739D02*
X012929Y014739D01*
X012929Y014741D02*
X013049Y014741D01*
X013047Y014742D02*
X012929Y014742D01*
X012929Y014744D02*
X013046Y014744D01*
X013045Y014745D02*
X012929Y014745D01*
X012929Y014747D02*
X013044Y014747D01*
X013043Y014748D02*
X012928Y014748D01*
X012927Y014750D02*
X013042Y014750D01*
X013040Y014751D02*
X012926Y014751D01*
X012925Y014753D02*
X013039Y014753D01*
X013038Y014754D02*
X012924Y014754D01*
X012923Y014756D02*
X013037Y014756D01*
X013035Y014757D02*
X012922Y014757D01*
X012920Y014760D02*
X012889Y014765D01*
X012865Y014766D01*
X013027Y014766D01*
X013028Y014765D02*
X012892Y014765D01*
X012901Y014763D02*
X013030Y014763D01*
X013031Y014762D02*
X012910Y014762D01*
X012896Y014786D02*
X012865Y014786D01*
X012857Y014769D02*
X012865Y014766D01*
X012861Y014768D02*
X013026Y014768D01*
X013043Y014487D02*
X012851Y014487D01*
X012852Y014485D02*
X012934Y014485D01*
X012919Y014484D02*
X012856Y014484D01*
X012860Y014482D02*
X012891Y014482D01*
X012855Y014491D02*
X013160Y014491D01*
X013160Y014490D02*
X012854Y014490D01*
X012853Y014488D02*
X013160Y014488D01*
X013159Y014487D02*
X013054Y014487D01*
X013076Y014485D02*
X013159Y014485D01*
X013159Y014484D02*
X013097Y014484D01*
X013119Y014482D02*
X013152Y014482D01*
X013262Y014493D02*
X013263Y014488D01*
X013270Y014485D01*
X013282Y014484D01*
X013304Y014488D01*
X013353Y014488D01*
X013400Y014485D01*
X013432Y014481D01*
X013444Y014483D01*
X013445Y014484D02*
X013409Y014484D01*
X013421Y014482D02*
X013441Y014482D01*
X013447Y014485D02*
X013394Y014485D01*
X013370Y014487D02*
X013448Y014487D01*
X013450Y014488D02*
X013263Y014488D01*
X013263Y014490D02*
X013450Y014490D01*
X013450Y014491D02*
X013263Y014491D01*
X013262Y014493D02*
X013450Y014493D01*
X013449Y014494D02*
X013263Y014494D01*
X013262Y014493D02*
X013263Y014499D01*
X013448Y014499D01*
X013449Y014497D02*
X013263Y014497D01*
X013263Y014496D02*
X013449Y014496D01*
X013443Y014500D02*
X013265Y014500D01*
X013263Y014499D02*
X013269Y014505D01*
X013268Y014503D02*
X013430Y014503D01*
X013438Y014502D02*
X013266Y014502D01*
X013266Y014487D02*
X013298Y014487D01*
X013290Y014485D02*
X013269Y014485D01*
D19*
X013313Y014341D02*
X013233Y014321D01*
X013157Y014314D01*
X013084Y014320D01*
X013029Y014332D01*
X012983Y014346D01*
X012927Y014374D01*
X012880Y014406D01*
X012827Y014461D01*
X012801Y014503D01*
X012777Y014556D01*
X012769Y014608D01*
X012768Y014667D01*
X012776Y014706D01*
X012795Y014751D01*
X012825Y014804D01*
X012862Y014844D01*
X012894Y014870D01*
X012940Y014899D01*
X012981Y014920D01*
X013015Y014932D01*
X013050Y014942D01*
X013083Y014948D01*
X013121Y014952D01*
X013154Y014951D01*
X013146Y014952D02*
X013173Y014952D01*
X013222Y014948D01*
X013262Y014941D01*
X013323Y014921D01*
X013381Y014894D01*
X013432Y014859D01*
X013479Y014811D01*
X013510Y014765D01*
X013530Y014717D01*
X013539Y014676D01*
X013540Y014630D01*
X013538Y014583D01*
X013523Y014532D01*
X013496Y014481D01*
X013446Y014422D01*
X013385Y014376D01*
X013313Y014341D01*
D20*
X013299Y001872D02*
X013299Y001675D01*
X013103Y001675D01*
X013103Y001872D01*
X012807Y001872D02*
X012807Y001675D01*
X012610Y001675D01*
X012610Y001872D01*
X012315Y001872D02*
X012315Y001675D01*
X012118Y001675D01*
X012118Y001872D01*
X011823Y001872D02*
X011823Y001675D01*
X011626Y001675D01*
X011626Y001872D01*
X011380Y001871D02*
X011380Y001675D01*
X011283Y001675D01*
X011479Y000986D02*
X013447Y000986D01*
X013447Y000740D01*
X013546Y000740D01*
X013546Y000494D01*
X013643Y000397D01*
X013546Y000494D02*
X011380Y000494D01*
X011283Y000397D01*
X011380Y000494D02*
X011380Y000740D01*
X011479Y000740D01*
X011479Y000986D01*
X011380Y000740D02*
X011283Y000740D01*
X013546Y000740D02*
X013642Y000740D01*
X013642Y001675D02*
X013546Y001675D01*
X013546Y001871D01*
D21*
X013201Y000814D03*
X012709Y000814D03*
X012217Y000814D03*
X011725Y000814D03*
D22*
X003967Y006999D02*
X003967Y007515D01*
X002963Y007515D01*
X002963Y006999D01*
X003967Y006999D01*
M02*
