G75*
%MOIN*%
%OFA0B0*%
%FSLAX24Y24*%
%IPPOS*%
%LPD*%
%AMOC8*
5,1,8,0,0,1.08239X$1,22.5*
%
%ADD10C,0.0000*%
%ADD11R,0.0875X0.1500*%
%ADD12C,0.0101*%
%ADD13C,0.0098*%
%ADD14C,0.0099*%
%ADD15C,0.0142*%
%ADD16C,0.0100*%
%ADD17C,0.0118*%
%ADD18C,0.0285*%
%ADD19C,0.0100*%
%ADD20C,0.0099*%
%ADD21C,0.0100*%
D10*
X000588Y000721D02*
X000588Y019224D01*
X000587Y019224D02*
X000589Y019270D01*
X000594Y019316D01*
X000603Y019362D01*
X000616Y019407D01*
X000632Y019450D01*
X000651Y019492D01*
X000674Y019533D01*
X000700Y019571D01*
X000729Y019608D01*
X000760Y019642D01*
X000794Y019673D01*
X000831Y019702D01*
X000869Y019728D01*
X000910Y019751D01*
X000952Y019770D01*
X000995Y019786D01*
X001040Y019799D01*
X001086Y019808D01*
X001132Y019813D01*
X001178Y019815D01*
X019682Y019815D01*
X019728Y019813D01*
X019774Y019808D01*
X019820Y019799D01*
X019865Y019786D01*
X019908Y019770D01*
X019950Y019751D01*
X019991Y019728D01*
X020029Y019702D01*
X020066Y019673D01*
X020100Y019642D01*
X020131Y019608D01*
X020160Y019571D01*
X020186Y019533D01*
X020209Y019492D01*
X020228Y019450D01*
X020244Y019407D01*
X020257Y019362D01*
X020266Y019316D01*
X020271Y019270D01*
X020273Y019224D01*
X020273Y000721D01*
X020271Y000675D01*
X020266Y000629D01*
X020257Y000583D01*
X020244Y000538D01*
X020228Y000495D01*
X020209Y000453D01*
X020186Y000412D01*
X020160Y000374D01*
X020131Y000337D01*
X020100Y000303D01*
X020066Y000272D01*
X020029Y000243D01*
X019991Y000217D01*
X019950Y000194D01*
X019908Y000175D01*
X019865Y000159D01*
X019820Y000146D01*
X019774Y000137D01*
X019728Y000132D01*
X019682Y000130D01*
X001178Y000130D01*
X001132Y000132D01*
X001086Y000137D01*
X001040Y000146D01*
X000995Y000159D01*
X000952Y000175D01*
X000910Y000194D01*
X000869Y000217D01*
X000831Y000243D01*
X000794Y000272D01*
X000760Y000303D01*
X000729Y000337D01*
X000700Y000374D01*
X000674Y000412D01*
X000651Y000453D01*
X000632Y000495D01*
X000616Y000538D01*
X000603Y000583D01*
X000594Y000629D01*
X000589Y000675D01*
X000587Y000721D01*
X000942Y001114D02*
X000944Y001164D01*
X000950Y001214D01*
X000960Y001263D01*
X000974Y001311D01*
X000991Y001358D01*
X001012Y001403D01*
X001037Y001447D01*
X001065Y001488D01*
X001097Y001527D01*
X001131Y001564D01*
X001168Y001598D01*
X001208Y001628D01*
X001250Y001655D01*
X001294Y001679D01*
X001340Y001700D01*
X001387Y001716D01*
X001435Y001729D01*
X001485Y001738D01*
X001534Y001743D01*
X001585Y001744D01*
X001635Y001741D01*
X001684Y001734D01*
X001733Y001723D01*
X001781Y001708D01*
X001827Y001690D01*
X001872Y001668D01*
X001915Y001642D01*
X001956Y001613D01*
X001995Y001581D01*
X002031Y001546D01*
X002063Y001508D01*
X002093Y001468D01*
X002120Y001425D01*
X002143Y001381D01*
X002162Y001335D01*
X002178Y001287D01*
X002190Y001238D01*
X002198Y001189D01*
X002202Y001139D01*
X002202Y001089D01*
X002198Y001039D01*
X002190Y000990D01*
X002178Y000941D01*
X002162Y000893D01*
X002143Y000847D01*
X002120Y000803D01*
X002093Y000760D01*
X002063Y000720D01*
X002031Y000682D01*
X001995Y000647D01*
X001956Y000615D01*
X001915Y000586D01*
X001872Y000560D01*
X001827Y000538D01*
X001781Y000520D01*
X001733Y000505D01*
X001684Y000494D01*
X001635Y000487D01*
X001585Y000484D01*
X001534Y000485D01*
X001485Y000490D01*
X001435Y000499D01*
X001387Y000512D01*
X001340Y000528D01*
X001294Y000549D01*
X001250Y000573D01*
X001208Y000600D01*
X001168Y000630D01*
X001131Y000664D01*
X001097Y000701D01*
X001065Y000740D01*
X001037Y000781D01*
X001012Y000825D01*
X000991Y000870D01*
X000974Y000917D01*
X000960Y000965D01*
X000950Y001014D01*
X000944Y001064D01*
X000942Y001114D01*
X002286Y004514D02*
X002288Y004540D01*
X002294Y004566D01*
X002304Y004591D01*
X002317Y004614D01*
X002333Y004634D01*
X002353Y004652D01*
X002375Y004667D01*
X002398Y004679D01*
X002424Y004687D01*
X002450Y004691D01*
X002476Y004691D01*
X002502Y004687D01*
X002528Y004679D01*
X002552Y004667D01*
X002573Y004652D01*
X002593Y004634D01*
X002609Y004614D01*
X002622Y004591D01*
X002632Y004566D01*
X002638Y004540D01*
X002640Y004514D01*
X002638Y004488D01*
X002632Y004462D01*
X002622Y004437D01*
X002609Y004414D01*
X002593Y004394D01*
X002573Y004376D01*
X002551Y004361D01*
X002528Y004349D01*
X002502Y004341D01*
X002476Y004337D01*
X002450Y004337D01*
X002424Y004341D01*
X002398Y004349D01*
X002374Y004361D01*
X002353Y004376D01*
X002333Y004394D01*
X002317Y004414D01*
X002304Y004437D01*
X002294Y004462D01*
X002288Y004488D01*
X002286Y004514D01*
X002286Y006246D02*
X002288Y006272D01*
X002294Y006298D01*
X002304Y006323D01*
X002317Y006346D01*
X002333Y006366D01*
X002353Y006384D01*
X002375Y006399D01*
X002398Y006411D01*
X002424Y006419D01*
X002450Y006423D01*
X002476Y006423D01*
X002502Y006419D01*
X002528Y006411D01*
X002552Y006399D01*
X002573Y006384D01*
X002593Y006366D01*
X002609Y006346D01*
X002622Y006323D01*
X002632Y006298D01*
X002638Y006272D01*
X002640Y006246D01*
X002638Y006220D01*
X002632Y006194D01*
X002622Y006169D01*
X002609Y006146D01*
X002593Y006126D01*
X002573Y006108D01*
X002551Y006093D01*
X002528Y006081D01*
X002502Y006073D01*
X002476Y006069D01*
X002450Y006069D01*
X002424Y006073D01*
X002398Y006081D01*
X002374Y006093D01*
X002353Y006108D01*
X002333Y006126D01*
X002317Y006146D01*
X002304Y006169D01*
X002294Y006194D01*
X002288Y006220D01*
X002286Y006246D01*
X000942Y018831D02*
X000944Y018881D01*
X000950Y018931D01*
X000960Y018980D01*
X000974Y019028D01*
X000991Y019075D01*
X001012Y019120D01*
X001037Y019164D01*
X001065Y019205D01*
X001097Y019244D01*
X001131Y019281D01*
X001168Y019315D01*
X001208Y019345D01*
X001250Y019372D01*
X001294Y019396D01*
X001340Y019417D01*
X001387Y019433D01*
X001435Y019446D01*
X001485Y019455D01*
X001534Y019460D01*
X001585Y019461D01*
X001635Y019458D01*
X001684Y019451D01*
X001733Y019440D01*
X001781Y019425D01*
X001827Y019407D01*
X001872Y019385D01*
X001915Y019359D01*
X001956Y019330D01*
X001995Y019298D01*
X002031Y019263D01*
X002063Y019225D01*
X002093Y019185D01*
X002120Y019142D01*
X002143Y019098D01*
X002162Y019052D01*
X002178Y019004D01*
X002190Y018955D01*
X002198Y018906D01*
X002202Y018856D01*
X002202Y018806D01*
X002198Y018756D01*
X002190Y018707D01*
X002178Y018658D01*
X002162Y018610D01*
X002143Y018564D01*
X002120Y018520D01*
X002093Y018477D01*
X002063Y018437D01*
X002031Y018399D01*
X001995Y018364D01*
X001956Y018332D01*
X001915Y018303D01*
X001872Y018277D01*
X001827Y018255D01*
X001781Y018237D01*
X001733Y018222D01*
X001684Y018211D01*
X001635Y018204D01*
X001585Y018201D01*
X001534Y018202D01*
X001485Y018207D01*
X001435Y018216D01*
X001387Y018229D01*
X001340Y018245D01*
X001294Y018266D01*
X001250Y018290D01*
X001208Y018317D01*
X001168Y018347D01*
X001131Y018381D01*
X001097Y018418D01*
X001065Y018457D01*
X001037Y018498D01*
X001012Y018542D01*
X000991Y018587D01*
X000974Y018634D01*
X000960Y018682D01*
X000950Y018731D01*
X000944Y018781D01*
X000942Y018831D01*
X018659Y018831D02*
X018661Y018881D01*
X018667Y018931D01*
X018677Y018980D01*
X018691Y019028D01*
X018708Y019075D01*
X018729Y019120D01*
X018754Y019164D01*
X018782Y019205D01*
X018814Y019244D01*
X018848Y019281D01*
X018885Y019315D01*
X018925Y019345D01*
X018967Y019372D01*
X019011Y019396D01*
X019057Y019417D01*
X019104Y019433D01*
X019152Y019446D01*
X019202Y019455D01*
X019251Y019460D01*
X019302Y019461D01*
X019352Y019458D01*
X019401Y019451D01*
X019450Y019440D01*
X019498Y019425D01*
X019544Y019407D01*
X019589Y019385D01*
X019632Y019359D01*
X019673Y019330D01*
X019712Y019298D01*
X019748Y019263D01*
X019780Y019225D01*
X019810Y019185D01*
X019837Y019142D01*
X019860Y019098D01*
X019879Y019052D01*
X019895Y019004D01*
X019907Y018955D01*
X019915Y018906D01*
X019919Y018856D01*
X019919Y018806D01*
X019915Y018756D01*
X019907Y018707D01*
X019895Y018658D01*
X019879Y018610D01*
X019860Y018564D01*
X019837Y018520D01*
X019810Y018477D01*
X019780Y018437D01*
X019748Y018399D01*
X019712Y018364D01*
X019673Y018332D01*
X019632Y018303D01*
X019589Y018277D01*
X019544Y018255D01*
X019498Y018237D01*
X019450Y018222D01*
X019401Y018211D01*
X019352Y018204D01*
X019302Y018201D01*
X019251Y018202D01*
X019202Y018207D01*
X019152Y018216D01*
X019104Y018229D01*
X019057Y018245D01*
X019011Y018266D01*
X018967Y018290D01*
X018925Y018317D01*
X018885Y018347D01*
X018848Y018381D01*
X018814Y018418D01*
X018782Y018457D01*
X018754Y018498D01*
X018729Y018542D01*
X018708Y018587D01*
X018691Y018634D01*
X018677Y018682D01*
X018667Y018731D01*
X018661Y018781D01*
X018659Y018831D01*
X018659Y001114D02*
X018661Y001164D01*
X018667Y001214D01*
X018677Y001263D01*
X018691Y001311D01*
X018708Y001358D01*
X018729Y001403D01*
X018754Y001447D01*
X018782Y001488D01*
X018814Y001527D01*
X018848Y001564D01*
X018885Y001598D01*
X018925Y001628D01*
X018967Y001655D01*
X019011Y001679D01*
X019057Y001700D01*
X019104Y001716D01*
X019152Y001729D01*
X019202Y001738D01*
X019251Y001743D01*
X019302Y001744D01*
X019352Y001741D01*
X019401Y001734D01*
X019450Y001723D01*
X019498Y001708D01*
X019544Y001690D01*
X019589Y001668D01*
X019632Y001642D01*
X019673Y001613D01*
X019712Y001581D01*
X019748Y001546D01*
X019780Y001508D01*
X019810Y001468D01*
X019837Y001425D01*
X019860Y001381D01*
X019879Y001335D01*
X019895Y001287D01*
X019907Y001238D01*
X019915Y001189D01*
X019919Y001139D01*
X019919Y001089D01*
X019915Y001039D01*
X019907Y000990D01*
X019895Y000941D01*
X019879Y000893D01*
X019860Y000847D01*
X019837Y000803D01*
X019810Y000760D01*
X019780Y000720D01*
X019748Y000682D01*
X019712Y000647D01*
X019673Y000615D01*
X019632Y000586D01*
X019589Y000560D01*
X019544Y000538D01*
X019498Y000520D01*
X019450Y000505D01*
X019401Y000494D01*
X019352Y000487D01*
X019302Y000484D01*
X019251Y000485D01*
X019202Y000490D01*
X019152Y000499D01*
X019104Y000512D01*
X019057Y000528D01*
X019011Y000549D01*
X018967Y000573D01*
X018925Y000600D01*
X018885Y000630D01*
X018848Y000664D01*
X018814Y000701D01*
X018782Y000740D01*
X018754Y000781D01*
X018729Y000825D01*
X018708Y000870D01*
X018691Y000917D01*
X018677Y000965D01*
X018667Y001014D01*
X018661Y001064D01*
X018659Y001114D01*
D11*
X017150Y012693D03*
X017150Y014880D03*
X017150Y017068D03*
X011525Y017068D03*
X011525Y014880D03*
X011525Y012693D03*
X006025Y012693D03*
X006025Y014880D03*
X006025Y017068D03*
D12*
X008503Y010892D02*
X008503Y010678D01*
X008503Y010892D02*
X008797Y010892D01*
X008797Y010678D01*
X008503Y010678D01*
X008503Y010778D02*
X008797Y010778D01*
X008797Y010878D02*
X008503Y010878D01*
X008503Y010144D02*
X008503Y009930D01*
X008503Y010144D02*
X008797Y010144D01*
X008797Y009930D01*
X008503Y009930D01*
X008503Y010030D02*
X008797Y010030D01*
X008797Y010130D02*
X008503Y010130D01*
X003820Y008782D02*
X003606Y008782D01*
X003820Y008782D02*
X003820Y008568D01*
X003606Y008568D01*
X003606Y008782D01*
X003606Y008668D02*
X003820Y008668D01*
X003820Y008768D02*
X003606Y008768D01*
X003320Y008782D02*
X003106Y008782D01*
X003320Y008782D02*
X003320Y008568D01*
X003106Y008568D01*
X003106Y008782D01*
X003106Y008668D02*
X003320Y008668D01*
X003320Y008768D02*
X003106Y008768D01*
X003106Y008192D02*
X003320Y008192D01*
X003320Y007978D01*
X003106Y007978D01*
X003106Y008192D01*
X003106Y008078D02*
X003320Y008078D01*
X003320Y008178D02*
X003106Y008178D01*
X003606Y008192D02*
X003820Y008192D01*
X003820Y007978D01*
X003606Y007978D01*
X003606Y008192D01*
X003606Y008078D02*
X003820Y008078D01*
X003820Y008178D02*
X003606Y008178D01*
X013981Y001345D02*
X014195Y001345D01*
X014195Y001131D01*
X013981Y001131D01*
X013981Y001345D01*
X013981Y001231D02*
X014195Y001231D01*
X014195Y001331D02*
X013981Y001331D01*
X013981Y000754D02*
X014195Y000754D01*
X014195Y000540D01*
X013981Y000540D01*
X013981Y000754D01*
X013981Y000640D02*
X014195Y000640D01*
X014195Y000740D02*
X013981Y000740D01*
X016718Y008249D02*
X016718Y008779D01*
X016718Y008249D02*
X015638Y008249D01*
X015638Y008779D01*
X016718Y008779D01*
X016718Y008349D02*
X015638Y008349D01*
X015638Y008449D02*
X016718Y008449D01*
X016718Y008549D02*
X015638Y008549D01*
X015638Y008649D02*
X016718Y008649D01*
X016718Y008749D02*
X015638Y008749D01*
X016718Y010044D02*
X016718Y010574D01*
X016718Y010044D02*
X015638Y010044D01*
X015638Y010574D01*
X016718Y010574D01*
X016718Y010144D02*
X015638Y010144D01*
X015638Y010244D02*
X016718Y010244D01*
X016718Y010344D02*
X015638Y010344D01*
X015638Y010444D02*
X016718Y010444D01*
X016718Y010544D02*
X015638Y010544D01*
X017353Y009892D02*
X017353Y009362D01*
X017353Y009892D02*
X018197Y009892D01*
X018197Y009362D01*
X017353Y009362D01*
X017353Y009462D02*
X018197Y009462D01*
X018197Y009562D02*
X017353Y009562D01*
X017353Y009662D02*
X018197Y009662D01*
X018197Y009762D02*
X017353Y009762D01*
X017353Y009862D02*
X018197Y009862D01*
X018197Y008711D02*
X018197Y008181D01*
X017353Y008181D01*
X017353Y008711D01*
X018197Y008711D01*
X018197Y008281D02*
X017353Y008281D01*
X017353Y008381D02*
X018197Y008381D01*
X018197Y008481D02*
X017353Y008481D01*
X017353Y008581D02*
X018197Y008581D01*
X018197Y008681D02*
X017353Y008681D01*
D13*
X016774Y009244D02*
X016774Y009578D01*
X017070Y009578D01*
X017070Y009244D01*
X016774Y009244D01*
X016774Y009341D02*
X017070Y009341D01*
X017070Y009438D02*
X016774Y009438D01*
X016774Y009535D02*
X017070Y009535D01*
X016105Y009578D02*
X016105Y009244D01*
X016105Y009578D02*
X016401Y009578D01*
X016401Y009244D01*
X016105Y009244D01*
X016105Y009341D02*
X016401Y009341D01*
X016401Y009438D02*
X016105Y009438D01*
X016105Y009535D02*
X016401Y009535D01*
X015727Y006651D02*
X015431Y006651D01*
X015431Y006985D01*
X015727Y006985D01*
X015727Y006651D01*
X015727Y006748D02*
X015431Y006748D01*
X015431Y006845D02*
X015727Y006845D01*
X015727Y006942D02*
X015431Y006942D01*
X015057Y006651D02*
X014761Y006651D01*
X014761Y006985D01*
X015057Y006985D01*
X015057Y006651D01*
X015057Y006748D02*
X014761Y006748D01*
X014761Y006845D02*
X015057Y006845D01*
X015057Y006942D02*
X014761Y006942D01*
X014243Y006985D02*
X014243Y006651D01*
X014243Y006985D02*
X014539Y006985D01*
X014539Y006651D01*
X014243Y006651D01*
X014243Y006748D02*
X014539Y006748D01*
X014539Y006845D02*
X014243Y006845D01*
X014243Y006942D02*
X014539Y006942D01*
X013574Y006985D02*
X013574Y006651D01*
X013574Y006985D02*
X013870Y006985D01*
X013870Y006651D01*
X013574Y006651D01*
X013574Y006748D02*
X013870Y006748D01*
X013870Y006845D02*
X013574Y006845D01*
X013574Y006942D02*
X013870Y006942D01*
X013380Y005910D02*
X013046Y005910D01*
X013046Y006206D01*
X013380Y006206D01*
X013380Y005910D01*
X013380Y006007D02*
X013046Y006007D01*
X013046Y006104D02*
X013380Y006104D01*
X013380Y006201D02*
X013046Y006201D01*
X013046Y005241D02*
X013380Y005241D01*
X013046Y005241D02*
X013046Y005537D01*
X013380Y005537D01*
X013380Y005241D01*
X013380Y005338D02*
X013046Y005338D01*
X013046Y005435D02*
X013380Y005435D01*
X013380Y005532D02*
X013046Y005532D01*
X013046Y004894D02*
X013380Y004894D01*
X013380Y004598D01*
X013046Y004598D01*
X013046Y004894D01*
X013046Y004695D02*
X013380Y004695D01*
X013380Y004792D02*
X013046Y004792D01*
X013046Y004889D02*
X013380Y004889D01*
X013380Y004225D02*
X013046Y004225D01*
X013380Y004225D02*
X013380Y003929D01*
X013046Y003929D01*
X013046Y004225D01*
X013046Y004026D02*
X013380Y004026D01*
X013380Y004123D02*
X013046Y004123D01*
X013046Y004220D02*
X013380Y004220D01*
X012570Y004266D02*
X012570Y003932D01*
X012274Y003932D01*
X012274Y004266D01*
X012570Y004266D01*
X012570Y004029D02*
X012274Y004029D01*
X012274Y004126D02*
X012570Y004126D01*
X012570Y004223D02*
X012274Y004223D01*
X011901Y004266D02*
X011901Y003932D01*
X011605Y003932D01*
X011605Y004266D01*
X011901Y004266D01*
X011901Y004029D02*
X011605Y004029D01*
X011605Y004126D02*
X011901Y004126D01*
X011901Y004223D02*
X011605Y004223D01*
X011320Y004266D02*
X011320Y003932D01*
X011024Y003932D01*
X011024Y004266D01*
X011320Y004266D01*
X011320Y004029D02*
X011024Y004029D01*
X011024Y004126D02*
X011320Y004126D01*
X011320Y004223D02*
X011024Y004223D01*
X010651Y004266D02*
X010651Y003932D01*
X010355Y003932D01*
X010355Y004266D01*
X010651Y004266D01*
X010651Y004029D02*
X010355Y004029D01*
X010355Y004126D02*
X010651Y004126D01*
X010651Y004223D02*
X010355Y004223D01*
X009505Y002863D02*
X009171Y002863D01*
X009505Y002863D02*
X009505Y002567D01*
X009171Y002567D01*
X009171Y002863D01*
X009171Y002664D02*
X009505Y002664D01*
X009505Y002761D02*
X009171Y002761D01*
X009171Y002858D02*
X009505Y002858D01*
X008546Y002863D02*
X008546Y002567D01*
X008546Y002863D02*
X008880Y002863D01*
X008880Y002567D01*
X008546Y002567D01*
X008546Y002664D02*
X008880Y002664D01*
X008880Y002761D02*
X008546Y002761D01*
X008546Y002858D02*
X008880Y002858D01*
X007921Y002863D02*
X007921Y002567D01*
X007921Y002863D02*
X008255Y002863D01*
X008255Y002567D01*
X007921Y002567D01*
X007921Y002664D02*
X008255Y002664D01*
X008255Y002761D02*
X007921Y002761D01*
X007921Y002858D02*
X008255Y002858D01*
X007296Y002863D02*
X007296Y002567D01*
X007296Y002863D02*
X007630Y002863D01*
X007630Y002567D01*
X007296Y002567D01*
X007296Y002664D02*
X007630Y002664D01*
X007630Y002761D02*
X007296Y002761D01*
X007296Y002858D02*
X007630Y002858D01*
X007296Y002193D02*
X007296Y001897D01*
X007296Y002193D02*
X007630Y002193D01*
X007630Y001897D01*
X007296Y001897D01*
X007296Y001994D02*
X007630Y001994D01*
X007630Y002091D02*
X007296Y002091D01*
X007296Y002188D02*
X007630Y002188D01*
X007921Y002193D02*
X007921Y001897D01*
X007921Y002193D02*
X008255Y002193D01*
X008255Y001897D01*
X007921Y001897D01*
X007921Y001994D02*
X008255Y001994D01*
X008255Y002091D02*
X007921Y002091D01*
X007921Y002188D02*
X008255Y002188D01*
X008546Y002193D02*
X008546Y001897D01*
X008546Y002193D02*
X008880Y002193D01*
X008880Y001897D01*
X008546Y001897D01*
X008546Y001994D02*
X008880Y001994D01*
X008880Y002091D02*
X008546Y002091D01*
X008546Y002188D02*
X008880Y002188D01*
X009171Y002193D02*
X009505Y002193D01*
X009505Y001897D01*
X009171Y001897D01*
X009171Y002193D01*
X009171Y001994D02*
X009505Y001994D01*
X009505Y002091D02*
X009171Y002091D01*
X009171Y002188D02*
X009505Y002188D01*
X006255Y003335D02*
X005921Y003335D01*
X005921Y003631D01*
X006255Y003631D01*
X006255Y003335D01*
X006255Y003432D02*
X005921Y003432D01*
X005921Y003529D02*
X006255Y003529D01*
X006255Y003626D02*
X005921Y003626D01*
X005921Y004004D02*
X006255Y004004D01*
X005921Y004004D02*
X005921Y004300D01*
X006255Y004300D01*
X006255Y004004D01*
X006255Y004101D02*
X005921Y004101D01*
X005921Y004198D02*
X006255Y004198D01*
X006255Y004295D02*
X005921Y004295D01*
X005383Y004338D02*
X005087Y004338D01*
X005087Y004672D01*
X005383Y004672D01*
X005383Y004338D01*
X005383Y004435D02*
X005087Y004435D01*
X005087Y004532D02*
X005383Y004532D01*
X005383Y004629D02*
X005087Y004629D01*
X005087Y004963D02*
X005383Y004963D01*
X005087Y004963D02*
X005087Y005297D01*
X005383Y005297D01*
X005383Y004963D01*
X005383Y005060D02*
X005087Y005060D01*
X005087Y005157D02*
X005383Y005157D01*
X005383Y005254D02*
X005087Y005254D01*
X005087Y005588D02*
X005383Y005588D01*
X005087Y005588D02*
X005087Y005922D01*
X005383Y005922D01*
X005383Y005588D01*
X005383Y005685D02*
X005087Y005685D01*
X005087Y005782D02*
X005383Y005782D01*
X005383Y005879D02*
X005087Y005879D01*
X004714Y005588D02*
X004418Y005588D01*
X004418Y005922D01*
X004714Y005922D01*
X004714Y005588D01*
X004714Y005685D02*
X004418Y005685D01*
X004418Y005782D02*
X004714Y005782D01*
X004714Y005879D02*
X004418Y005879D01*
X004418Y004963D02*
X004714Y004963D01*
X004418Y004963D02*
X004418Y005297D01*
X004714Y005297D01*
X004714Y004963D01*
X004714Y005060D02*
X004418Y005060D01*
X004418Y005157D02*
X004714Y005157D01*
X004714Y005254D02*
X004418Y005254D01*
X004418Y004338D02*
X004714Y004338D01*
X004418Y004338D02*
X004418Y004672D01*
X004714Y004672D01*
X004714Y004338D01*
X004714Y004435D02*
X004418Y004435D01*
X004418Y004532D02*
X004714Y004532D01*
X004714Y004629D02*
X004418Y004629D01*
X004418Y004047D02*
X004714Y004047D01*
X004714Y003713D01*
X004418Y003713D01*
X004418Y004047D01*
X004418Y003810D02*
X004714Y003810D01*
X004714Y003907D02*
X004418Y003907D01*
X004418Y004004D02*
X004714Y004004D01*
X005087Y004047D02*
X005383Y004047D01*
X005383Y003713D01*
X005087Y003713D01*
X005087Y004047D01*
X005087Y003810D02*
X005383Y003810D01*
X005383Y003907D02*
X005087Y003907D01*
X005087Y004004D02*
X005383Y004004D01*
X005383Y003088D02*
X005087Y003088D01*
X005087Y003422D01*
X005383Y003422D01*
X005383Y003088D01*
X005383Y003185D02*
X005087Y003185D01*
X005087Y003282D02*
X005383Y003282D01*
X005383Y003379D02*
X005087Y003379D01*
X004714Y003088D02*
X004418Y003088D01*
X004418Y003422D01*
X004714Y003422D01*
X004714Y003088D01*
X004714Y003185D02*
X004418Y003185D01*
X004418Y003282D02*
X004714Y003282D01*
X004714Y003379D02*
X004418Y003379D01*
X005921Y008943D02*
X006255Y008943D01*
X006255Y008647D01*
X005921Y008647D01*
X005921Y008943D01*
X005921Y008744D02*
X006255Y008744D01*
X006255Y008841D02*
X005921Y008841D01*
X005921Y008938D02*
X006255Y008938D01*
X006255Y009613D02*
X005921Y009613D01*
X006255Y009613D02*
X006255Y009317D01*
X005921Y009317D01*
X005921Y009613D01*
X005921Y009414D02*
X006255Y009414D01*
X006255Y009511D02*
X005921Y009511D01*
X005921Y009608D02*
X006255Y009608D01*
X006255Y009929D02*
X005921Y009929D01*
X005921Y010225D01*
X006255Y010225D01*
X006255Y009929D01*
X006255Y010026D02*
X005921Y010026D01*
X005921Y010123D02*
X006255Y010123D01*
X006255Y010220D02*
X005921Y010220D01*
X005921Y010598D02*
X006255Y010598D01*
X005921Y010598D02*
X005921Y010894D01*
X006255Y010894D01*
X006255Y010598D01*
X006255Y010695D02*
X005921Y010695D01*
X005921Y010792D02*
X006255Y010792D01*
X006255Y010889D02*
X005921Y010889D01*
X006546Y010894D02*
X006546Y010598D01*
X006546Y010894D02*
X006880Y010894D01*
X006880Y010598D01*
X006546Y010598D01*
X006546Y010695D02*
X006880Y010695D01*
X006880Y010792D02*
X006546Y010792D01*
X006546Y010889D02*
X006880Y010889D01*
X007171Y010894D02*
X007171Y010598D01*
X007171Y010894D02*
X007505Y010894D01*
X007505Y010598D01*
X007171Y010598D01*
X007171Y010695D02*
X007505Y010695D01*
X007505Y010792D02*
X007171Y010792D01*
X007171Y010889D02*
X007505Y010889D01*
X007171Y010225D02*
X007171Y009929D01*
X007171Y010225D02*
X007505Y010225D01*
X007505Y009929D01*
X007171Y009929D01*
X007171Y010026D02*
X007505Y010026D01*
X007505Y010123D02*
X007171Y010123D01*
X007171Y010220D02*
X007505Y010220D01*
X006546Y010225D02*
X006546Y009929D01*
X006546Y010225D02*
X006880Y010225D01*
X006880Y009929D01*
X006546Y009929D01*
X006546Y010026D02*
X006880Y010026D01*
X006880Y010123D02*
X006546Y010123D01*
X006546Y010220D02*
X006880Y010220D01*
X009171Y010225D02*
X009171Y009929D01*
X009171Y010225D02*
X009505Y010225D01*
X009505Y009929D01*
X009171Y009929D01*
X009171Y010026D02*
X009505Y010026D01*
X009505Y010123D02*
X009171Y010123D01*
X009171Y010220D02*
X009505Y010220D01*
X009796Y010225D02*
X009796Y009929D01*
X009796Y010225D02*
X010130Y010225D01*
X010130Y009929D01*
X009796Y009929D01*
X009796Y010026D02*
X010130Y010026D01*
X010130Y010123D02*
X009796Y010123D01*
X009796Y010220D02*
X010130Y010220D01*
X010421Y009929D02*
X010755Y009929D01*
X010421Y009929D02*
X010421Y010225D01*
X010755Y010225D01*
X010755Y009929D01*
X010755Y010026D02*
X010421Y010026D01*
X010421Y010123D02*
X010755Y010123D01*
X010755Y010220D02*
X010421Y010220D01*
X010421Y010598D02*
X010755Y010598D01*
X010421Y010598D02*
X010421Y010894D01*
X010755Y010894D01*
X010755Y010598D01*
X010755Y010695D02*
X010421Y010695D01*
X010421Y010792D02*
X010755Y010792D01*
X010755Y010889D02*
X010421Y010889D01*
X009796Y010894D02*
X009796Y010598D01*
X009796Y010894D02*
X010130Y010894D01*
X010130Y010598D01*
X009796Y010598D01*
X009796Y010695D02*
X010130Y010695D01*
X010130Y010792D02*
X009796Y010792D01*
X009796Y010889D02*
X010130Y010889D01*
X009171Y010894D02*
X009171Y010598D01*
X009171Y010894D02*
X009505Y010894D01*
X009505Y010598D01*
X009171Y010598D01*
X009171Y010695D02*
X009505Y010695D01*
X009505Y010792D02*
X009171Y010792D01*
X009171Y010889D02*
X009505Y010889D01*
X010421Y009613D02*
X010755Y009613D01*
X010755Y009317D01*
X010421Y009317D01*
X010421Y009613D01*
X010421Y009414D02*
X010755Y009414D01*
X010755Y009511D02*
X010421Y009511D01*
X010421Y009608D02*
X010755Y009608D01*
X010755Y008943D02*
X010421Y008943D01*
X010755Y008943D02*
X010755Y008647D01*
X010421Y008647D01*
X010421Y008943D01*
X010421Y008744D02*
X010755Y008744D01*
X010755Y008841D02*
X010421Y008841D01*
X010421Y008938D02*
X010755Y008938D01*
X011855Y008172D02*
X011855Y007838D01*
X011855Y008172D02*
X012151Y008172D01*
X012151Y007838D01*
X011855Y007838D01*
X011855Y007935D02*
X012151Y007935D01*
X012151Y008032D02*
X011855Y008032D01*
X011855Y008129D02*
X012151Y008129D01*
X012524Y008172D02*
X012524Y007838D01*
X012524Y008172D02*
X012820Y008172D01*
X012820Y007838D01*
X012524Y007838D01*
X012524Y007935D02*
X012820Y007935D01*
X012820Y008032D02*
X012524Y008032D01*
X012524Y008129D02*
X012820Y008129D01*
X012274Y007266D02*
X012274Y006932D01*
X012274Y007266D02*
X012570Y007266D01*
X012570Y006932D01*
X012274Y006932D01*
X012274Y007029D02*
X012570Y007029D01*
X012570Y007126D02*
X012274Y007126D01*
X012274Y007223D02*
X012570Y007223D01*
X011605Y007266D02*
X011605Y006932D01*
X011605Y007266D02*
X011901Y007266D01*
X011901Y006932D01*
X011605Y006932D01*
X011605Y007029D02*
X011901Y007029D01*
X011901Y007126D02*
X011605Y007126D01*
X011605Y007223D02*
X011901Y007223D01*
X014296Y004050D02*
X014296Y003754D01*
X014296Y004050D02*
X014630Y004050D01*
X014630Y003754D01*
X014296Y003754D01*
X014296Y003851D02*
X014630Y003851D01*
X014630Y003948D02*
X014296Y003948D01*
X014296Y004045D02*
X014630Y004045D01*
X015046Y004050D02*
X015046Y003754D01*
X015046Y004050D02*
X015380Y004050D01*
X015380Y003754D01*
X015046Y003754D01*
X015046Y003851D02*
X015380Y003851D01*
X015380Y003948D02*
X015046Y003948D01*
X015046Y004045D02*
X015380Y004045D01*
X015046Y003381D02*
X015046Y003085D01*
X015046Y003381D02*
X015380Y003381D01*
X015380Y003085D01*
X015046Y003085D01*
X015046Y003182D02*
X015380Y003182D01*
X015380Y003279D02*
X015046Y003279D01*
X015046Y003376D02*
X015380Y003376D01*
X016046Y003381D02*
X016046Y003085D01*
X016046Y003381D02*
X016380Y003381D01*
X016380Y003085D01*
X016046Y003085D01*
X016046Y003182D02*
X016380Y003182D01*
X016380Y003279D02*
X016046Y003279D01*
X016046Y003376D02*
X016380Y003376D01*
X016046Y003754D02*
X016046Y004050D01*
X016380Y004050D01*
X016380Y003754D01*
X016046Y003754D01*
X016046Y003851D02*
X016380Y003851D01*
X016380Y003948D02*
X016046Y003948D01*
X016046Y004045D02*
X016380Y004045D01*
X016380Y004835D02*
X016046Y004835D01*
X016046Y005131D01*
X016380Y005131D01*
X016380Y004835D01*
X016380Y004932D02*
X016046Y004932D01*
X016046Y005029D02*
X016380Y005029D01*
X016380Y005126D02*
X016046Y005126D01*
X016046Y005504D02*
X016380Y005504D01*
X016046Y005504D02*
X016046Y005800D01*
X016380Y005800D01*
X016380Y005504D01*
X016380Y005601D02*
X016046Y005601D01*
X016046Y005698D02*
X016380Y005698D01*
X016380Y005795D02*
X016046Y005795D01*
X014296Y003381D02*
X014296Y003085D01*
X014296Y003381D02*
X014630Y003381D01*
X014630Y003085D01*
X014296Y003085D01*
X014296Y003182D02*
X014630Y003182D01*
X014630Y003279D02*
X014296Y003279D01*
X014296Y003376D02*
X014630Y003376D01*
X014296Y002738D02*
X014296Y002442D01*
X014296Y002738D02*
X014630Y002738D01*
X014630Y002442D01*
X014296Y002442D01*
X014296Y002539D02*
X014630Y002539D01*
X014630Y002636D02*
X014296Y002636D01*
X014296Y002733D02*
X014630Y002733D01*
X014296Y002068D02*
X014296Y001772D01*
X014296Y002068D02*
X014630Y002068D01*
X014630Y001772D01*
X014296Y001772D01*
X014296Y001869D02*
X014630Y001869D01*
X014630Y001966D02*
X014296Y001966D01*
X014296Y002063D02*
X014630Y002063D01*
X014827Y012162D02*
X015161Y012162D01*
X015161Y011866D01*
X014827Y011866D01*
X014827Y012162D01*
X014827Y011963D02*
X015161Y011963D01*
X015161Y012060D02*
X014827Y012060D01*
X014827Y012157D02*
X015161Y012157D01*
X015161Y012831D02*
X014827Y012831D01*
X015161Y012831D02*
X015161Y012535D01*
X014827Y012535D01*
X014827Y012831D01*
X014827Y012632D02*
X015161Y012632D01*
X015161Y012729D02*
X014827Y012729D01*
X014827Y012826D02*
X015161Y012826D01*
X013942Y017068D02*
X013608Y017068D01*
X013942Y017068D02*
X013942Y016772D01*
X013608Y016772D01*
X013608Y017068D01*
X013608Y016869D02*
X013942Y016869D01*
X013942Y016966D02*
X013608Y016966D01*
X013608Y017063D02*
X013942Y017063D01*
X013942Y017738D02*
X013608Y017738D01*
X013942Y017738D02*
X013942Y017442D01*
X013608Y017442D01*
X013608Y017738D01*
X013608Y017539D02*
X013942Y017539D01*
X013942Y017636D02*
X013608Y017636D01*
X013608Y017733D02*
X013942Y017733D01*
X008380Y017738D02*
X008046Y017738D01*
X008380Y017738D02*
X008380Y017442D01*
X008046Y017442D01*
X008046Y017738D01*
X008046Y017539D02*
X008380Y017539D01*
X008380Y017636D02*
X008046Y017636D01*
X008046Y017733D02*
X008380Y017733D01*
X008380Y017068D02*
X008046Y017068D01*
X008380Y017068D02*
X008380Y016772D01*
X008046Y016772D01*
X008046Y017068D01*
X008046Y016869D02*
X008380Y016869D01*
X008380Y016966D02*
X008046Y016966D01*
X008046Y017063D02*
X008380Y017063D01*
X003195Y011213D02*
X002899Y011213D01*
X002899Y011547D01*
X003195Y011547D01*
X003195Y011213D01*
X003195Y011310D02*
X002899Y011310D01*
X002899Y011407D02*
X003195Y011407D01*
X003195Y011504D02*
X002899Y011504D01*
X002526Y011213D02*
X002230Y011213D01*
X002230Y011547D01*
X002526Y011547D01*
X002526Y011213D01*
X002526Y011310D02*
X002230Y011310D01*
X002230Y011407D02*
X002526Y011407D01*
X002526Y011504D02*
X002230Y011504D01*
X002230Y010588D02*
X002526Y010588D01*
X002230Y010588D02*
X002230Y010922D01*
X002526Y010922D01*
X002526Y010588D01*
X002526Y010685D02*
X002230Y010685D01*
X002230Y010782D02*
X002526Y010782D01*
X002526Y010879D02*
X002230Y010879D01*
X002230Y010297D02*
X002526Y010297D01*
X002526Y009963D01*
X002230Y009963D01*
X002230Y010297D01*
X002230Y010060D02*
X002526Y010060D01*
X002526Y010157D02*
X002230Y010157D01*
X002230Y010254D02*
X002526Y010254D01*
X002899Y010297D02*
X003195Y010297D01*
X003195Y009963D01*
X002899Y009963D01*
X002899Y010297D01*
X002899Y010060D02*
X003195Y010060D01*
X003195Y010157D02*
X002899Y010157D01*
X002899Y010254D02*
X003195Y010254D01*
X003195Y010588D02*
X002899Y010588D01*
X002899Y010922D01*
X003195Y010922D01*
X003195Y010588D01*
X003195Y010685D02*
X002899Y010685D01*
X002899Y010782D02*
X003195Y010782D01*
X003195Y010879D02*
X002899Y010879D01*
X002899Y009672D02*
X003195Y009672D01*
X003195Y009338D01*
X002899Y009338D01*
X002899Y009672D01*
X002899Y009435D02*
X003195Y009435D01*
X003195Y009532D02*
X002899Y009532D01*
X002899Y009629D02*
X003195Y009629D01*
X002526Y009672D02*
X002230Y009672D01*
X002526Y009672D02*
X002526Y009338D01*
X002230Y009338D01*
X002230Y009672D01*
X002230Y009435D02*
X002526Y009435D01*
X002526Y009532D02*
X002230Y009532D01*
X002230Y009629D02*
X002526Y009629D01*
D14*
X005041Y011862D02*
X005041Y012024D01*
X005041Y011862D02*
X004589Y011862D01*
X004589Y012024D01*
X005041Y012024D01*
X005041Y011960D02*
X004589Y011960D01*
X005041Y012362D02*
X005041Y012524D01*
X005041Y012362D02*
X004589Y012362D01*
X004589Y012524D01*
X005041Y012524D01*
X005041Y012460D02*
X004589Y012460D01*
X005041Y012862D02*
X005041Y013024D01*
X005041Y012862D02*
X004589Y012862D01*
X004589Y013024D01*
X005041Y013024D01*
X005041Y012960D02*
X004589Y012960D01*
X005041Y013362D02*
X005041Y013524D01*
X005041Y013362D02*
X004589Y013362D01*
X004589Y013524D01*
X005041Y013524D01*
X005041Y013460D02*
X004589Y013460D01*
X005041Y014049D02*
X005041Y014211D01*
X005041Y014049D02*
X004589Y014049D01*
X004589Y014211D01*
X005041Y014211D01*
X005041Y014147D02*
X004589Y014147D01*
X005041Y014549D02*
X005041Y014711D01*
X005041Y014549D02*
X004589Y014549D01*
X004589Y014711D01*
X005041Y014711D01*
X005041Y014647D02*
X004589Y014647D01*
X005041Y015049D02*
X005041Y015211D01*
X005041Y015049D02*
X004589Y015049D01*
X004589Y015211D01*
X005041Y015211D01*
X005041Y015147D02*
X004589Y015147D01*
X005041Y015549D02*
X005041Y015711D01*
X005041Y015549D02*
X004589Y015549D01*
X004589Y015711D01*
X005041Y015711D01*
X005041Y015647D02*
X004589Y015647D01*
X005041Y016237D02*
X005041Y016399D01*
X005041Y016237D02*
X004589Y016237D01*
X004589Y016399D01*
X005041Y016399D01*
X005041Y016335D02*
X004589Y016335D01*
X005041Y016737D02*
X005041Y016899D01*
X005041Y016737D02*
X004589Y016737D01*
X004589Y016899D01*
X005041Y016899D01*
X005041Y016835D02*
X004589Y016835D01*
X005041Y017237D02*
X005041Y017399D01*
X005041Y017237D02*
X004589Y017237D01*
X004589Y017399D01*
X005041Y017399D01*
X005041Y017335D02*
X004589Y017335D01*
X005041Y017737D02*
X005041Y017899D01*
X005041Y017737D02*
X004589Y017737D01*
X004589Y017899D01*
X005041Y017899D01*
X005041Y017835D02*
X004589Y017835D01*
X007461Y017899D02*
X007461Y017737D01*
X007009Y017737D01*
X007009Y017899D01*
X007461Y017899D01*
X007461Y017835D02*
X007009Y017835D01*
X007461Y017399D02*
X007461Y017237D01*
X007009Y017237D01*
X007009Y017399D01*
X007461Y017399D01*
X007461Y017335D02*
X007009Y017335D01*
X007461Y016899D02*
X007461Y016737D01*
X007009Y016737D01*
X007009Y016899D01*
X007461Y016899D01*
X007461Y016835D02*
X007009Y016835D01*
X007461Y016399D02*
X007461Y016237D01*
X007009Y016237D01*
X007009Y016399D01*
X007461Y016399D01*
X007461Y016335D02*
X007009Y016335D01*
X007461Y015711D02*
X007461Y015549D01*
X007009Y015549D01*
X007009Y015711D01*
X007461Y015711D01*
X007461Y015647D02*
X007009Y015647D01*
X007461Y015211D02*
X007461Y015049D01*
X007009Y015049D01*
X007009Y015211D01*
X007461Y015211D01*
X007461Y015147D02*
X007009Y015147D01*
X007461Y014711D02*
X007461Y014549D01*
X007009Y014549D01*
X007009Y014711D01*
X007461Y014711D01*
X007461Y014647D02*
X007009Y014647D01*
X007461Y014211D02*
X007461Y014049D01*
X007009Y014049D01*
X007009Y014211D01*
X007461Y014211D01*
X007461Y014147D02*
X007009Y014147D01*
X007461Y013524D02*
X007461Y013362D01*
X007009Y013362D01*
X007009Y013524D01*
X007461Y013524D01*
X007461Y013460D02*
X007009Y013460D01*
X007461Y013024D02*
X007461Y012862D01*
X007009Y012862D01*
X007009Y013024D01*
X007461Y013024D01*
X007461Y012960D02*
X007009Y012960D01*
X007461Y012524D02*
X007461Y012362D01*
X007009Y012362D01*
X007009Y012524D01*
X007461Y012524D01*
X007461Y012460D02*
X007009Y012460D01*
X007461Y012024D02*
X007461Y011862D01*
X007009Y011862D01*
X007009Y012024D01*
X007461Y012024D01*
X007461Y011960D02*
X007009Y011960D01*
X010541Y012024D02*
X010541Y011862D01*
X010089Y011862D01*
X010089Y012024D01*
X010541Y012024D01*
X010541Y011960D02*
X010089Y011960D01*
X010541Y012362D02*
X010541Y012524D01*
X010541Y012362D02*
X010089Y012362D01*
X010089Y012524D01*
X010541Y012524D01*
X010541Y012460D02*
X010089Y012460D01*
X010541Y012862D02*
X010541Y013024D01*
X010541Y012862D02*
X010089Y012862D01*
X010089Y013024D01*
X010541Y013024D01*
X010541Y012960D02*
X010089Y012960D01*
X010541Y013362D02*
X010541Y013524D01*
X010541Y013362D02*
X010089Y013362D01*
X010089Y013524D01*
X010541Y013524D01*
X010541Y013460D02*
X010089Y013460D01*
X010541Y014049D02*
X010541Y014211D01*
X010541Y014049D02*
X010089Y014049D01*
X010089Y014211D01*
X010541Y014211D01*
X010541Y014147D02*
X010089Y014147D01*
X010541Y014549D02*
X010541Y014711D01*
X010541Y014549D02*
X010089Y014549D01*
X010089Y014711D01*
X010541Y014711D01*
X010541Y014647D02*
X010089Y014647D01*
X010541Y015049D02*
X010541Y015211D01*
X010541Y015049D02*
X010089Y015049D01*
X010089Y015211D01*
X010541Y015211D01*
X010541Y015147D02*
X010089Y015147D01*
X010541Y015549D02*
X010541Y015711D01*
X010541Y015549D02*
X010089Y015549D01*
X010089Y015711D01*
X010541Y015711D01*
X010541Y015647D02*
X010089Y015647D01*
X010541Y016237D02*
X010541Y016399D01*
X010541Y016237D02*
X010089Y016237D01*
X010089Y016399D01*
X010541Y016399D01*
X010541Y016335D02*
X010089Y016335D01*
X010541Y016737D02*
X010541Y016899D01*
X010541Y016737D02*
X010089Y016737D01*
X010089Y016899D01*
X010541Y016899D01*
X010541Y016835D02*
X010089Y016835D01*
X010541Y017237D02*
X010541Y017399D01*
X010541Y017237D02*
X010089Y017237D01*
X010089Y017399D01*
X010541Y017399D01*
X010541Y017335D02*
X010089Y017335D01*
X010541Y017737D02*
X010541Y017899D01*
X010541Y017737D02*
X010089Y017737D01*
X010089Y017899D01*
X010541Y017899D01*
X010541Y017835D02*
X010089Y017835D01*
X012961Y017899D02*
X012961Y017737D01*
X012509Y017737D01*
X012509Y017899D01*
X012961Y017899D01*
X012961Y017835D02*
X012509Y017835D01*
X012961Y017399D02*
X012961Y017237D01*
X012509Y017237D01*
X012509Y017399D01*
X012961Y017399D01*
X012961Y017335D02*
X012509Y017335D01*
X012961Y016899D02*
X012961Y016737D01*
X012509Y016737D01*
X012509Y016899D01*
X012961Y016899D01*
X012961Y016835D02*
X012509Y016835D01*
X012961Y016399D02*
X012961Y016237D01*
X012509Y016237D01*
X012509Y016399D01*
X012961Y016399D01*
X012961Y016335D02*
X012509Y016335D01*
X012961Y015711D02*
X012961Y015549D01*
X012509Y015549D01*
X012509Y015711D01*
X012961Y015711D01*
X012961Y015647D02*
X012509Y015647D01*
X012961Y015211D02*
X012961Y015049D01*
X012509Y015049D01*
X012509Y015211D01*
X012961Y015211D01*
X012961Y015147D02*
X012509Y015147D01*
X012961Y014711D02*
X012961Y014549D01*
X012509Y014549D01*
X012509Y014711D01*
X012961Y014711D01*
X012961Y014647D02*
X012509Y014647D01*
X012961Y014211D02*
X012961Y014049D01*
X012509Y014049D01*
X012509Y014211D01*
X012961Y014211D01*
X012961Y014147D02*
X012509Y014147D01*
X012961Y013524D02*
X012961Y013362D01*
X012509Y013362D01*
X012509Y013524D01*
X012961Y013524D01*
X012961Y013460D02*
X012509Y013460D01*
X012961Y013024D02*
X012961Y012862D01*
X012509Y012862D01*
X012509Y013024D01*
X012961Y013024D01*
X012961Y012960D02*
X012509Y012960D01*
X012961Y012524D02*
X012961Y012362D01*
X012509Y012362D01*
X012509Y012524D01*
X012961Y012524D01*
X012961Y012460D02*
X012509Y012460D01*
X012961Y012024D02*
X012961Y011862D01*
X012509Y011862D01*
X012509Y012024D01*
X012961Y012024D01*
X012961Y011960D02*
X012509Y011960D01*
X016166Y012024D02*
X016166Y011862D01*
X015714Y011862D01*
X015714Y012024D01*
X016166Y012024D01*
X016166Y011960D02*
X015714Y011960D01*
X016166Y012362D02*
X016166Y012524D01*
X016166Y012362D02*
X015714Y012362D01*
X015714Y012524D01*
X016166Y012524D01*
X016166Y012460D02*
X015714Y012460D01*
X016166Y012862D02*
X016166Y013024D01*
X016166Y012862D02*
X015714Y012862D01*
X015714Y013024D01*
X016166Y013024D01*
X016166Y012960D02*
X015714Y012960D01*
X016166Y013362D02*
X016166Y013524D01*
X016166Y013362D02*
X015714Y013362D01*
X015714Y013524D01*
X016166Y013524D01*
X016166Y013460D02*
X015714Y013460D01*
X016166Y014049D02*
X016166Y014211D01*
X016166Y014049D02*
X015714Y014049D01*
X015714Y014211D01*
X016166Y014211D01*
X016166Y014147D02*
X015714Y014147D01*
X016166Y014549D02*
X016166Y014711D01*
X016166Y014549D02*
X015714Y014549D01*
X015714Y014711D01*
X016166Y014711D01*
X016166Y014647D02*
X015714Y014647D01*
X016166Y015049D02*
X016166Y015211D01*
X016166Y015049D02*
X015714Y015049D01*
X015714Y015211D01*
X016166Y015211D01*
X016166Y015147D02*
X015714Y015147D01*
X016166Y015549D02*
X016166Y015711D01*
X016166Y015549D02*
X015714Y015549D01*
X015714Y015711D01*
X016166Y015711D01*
X016166Y015647D02*
X015714Y015647D01*
X016166Y016237D02*
X016166Y016399D01*
X016166Y016237D02*
X015714Y016237D01*
X015714Y016399D01*
X016166Y016399D01*
X016166Y016335D02*
X015714Y016335D01*
X016166Y016737D02*
X016166Y016899D01*
X016166Y016737D02*
X015714Y016737D01*
X015714Y016899D01*
X016166Y016899D01*
X016166Y016835D02*
X015714Y016835D01*
X016166Y017237D02*
X016166Y017399D01*
X016166Y017237D02*
X015714Y017237D01*
X015714Y017399D01*
X016166Y017399D01*
X016166Y017335D02*
X015714Y017335D01*
X016166Y017737D02*
X016166Y017899D01*
X016166Y017737D02*
X015714Y017737D01*
X015714Y017899D01*
X016166Y017899D01*
X016166Y017835D02*
X015714Y017835D01*
X018586Y017899D02*
X018586Y017737D01*
X018134Y017737D01*
X018134Y017899D01*
X018586Y017899D01*
X018586Y017835D02*
X018134Y017835D01*
X018586Y017399D02*
X018586Y017237D01*
X018134Y017237D01*
X018134Y017399D01*
X018586Y017399D01*
X018586Y017335D02*
X018134Y017335D01*
X018586Y016899D02*
X018586Y016737D01*
X018134Y016737D01*
X018134Y016899D01*
X018586Y016899D01*
X018586Y016835D02*
X018134Y016835D01*
X018586Y016399D02*
X018586Y016237D01*
X018134Y016237D01*
X018134Y016399D01*
X018586Y016399D01*
X018586Y016335D02*
X018134Y016335D01*
X018586Y015711D02*
X018586Y015549D01*
X018134Y015549D01*
X018134Y015711D01*
X018586Y015711D01*
X018586Y015647D02*
X018134Y015647D01*
X018586Y015211D02*
X018586Y015049D01*
X018134Y015049D01*
X018134Y015211D01*
X018586Y015211D01*
X018586Y015147D02*
X018134Y015147D01*
X018586Y014711D02*
X018586Y014549D01*
X018134Y014549D01*
X018134Y014711D01*
X018586Y014711D01*
X018586Y014647D02*
X018134Y014647D01*
X018586Y014211D02*
X018586Y014049D01*
X018134Y014049D01*
X018134Y014211D01*
X018586Y014211D01*
X018586Y014147D02*
X018134Y014147D01*
X018586Y013524D02*
X018586Y013362D01*
X018134Y013362D01*
X018134Y013524D01*
X018586Y013524D01*
X018586Y013460D02*
X018134Y013460D01*
X018586Y013024D02*
X018586Y012862D01*
X018134Y012862D01*
X018134Y013024D01*
X018586Y013024D01*
X018586Y012960D02*
X018134Y012960D01*
X018586Y012524D02*
X018586Y012362D01*
X018134Y012362D01*
X018134Y012524D01*
X018586Y012524D01*
X018586Y012460D02*
X018134Y012460D01*
X018586Y012024D02*
X018586Y011862D01*
X018134Y011862D01*
X018134Y012024D01*
X018586Y012024D01*
X018586Y011960D02*
X018134Y011960D01*
X018257Y006129D02*
X018419Y006129D01*
X018419Y005677D01*
X018257Y005677D01*
X018257Y006129D01*
X018257Y005775D02*
X018419Y005775D01*
X018419Y005873D02*
X018257Y005873D01*
X018257Y005971D02*
X018419Y005971D01*
X018419Y006069D02*
X018257Y006069D01*
X017919Y006129D02*
X017757Y006129D01*
X017919Y006129D02*
X017919Y005677D01*
X017757Y005677D01*
X017757Y006129D01*
X017757Y005775D02*
X017919Y005775D01*
X017919Y005873D02*
X017757Y005873D01*
X017757Y005971D02*
X017919Y005971D01*
X017919Y006069D02*
X017757Y006069D01*
X017419Y006129D02*
X017257Y006129D01*
X017419Y006129D02*
X017419Y005677D01*
X017257Y005677D01*
X017257Y006129D01*
X017257Y005775D02*
X017419Y005775D01*
X017419Y005873D02*
X017257Y005873D01*
X017257Y005971D02*
X017419Y005971D01*
X017419Y006069D02*
X017257Y006069D01*
X016919Y006129D02*
X016757Y006129D01*
X016919Y006129D02*
X016919Y005677D01*
X016757Y005677D01*
X016757Y006129D01*
X016757Y005775D02*
X016919Y005775D01*
X016919Y005873D02*
X016757Y005873D01*
X016757Y005971D02*
X016919Y005971D01*
X016919Y006069D02*
X016757Y006069D01*
X016757Y003709D02*
X016919Y003709D01*
X016919Y003257D01*
X016757Y003257D01*
X016757Y003709D01*
X016757Y003355D02*
X016919Y003355D01*
X016919Y003453D02*
X016757Y003453D01*
X016757Y003551D02*
X016919Y003551D01*
X016919Y003649D02*
X016757Y003649D01*
X017257Y003709D02*
X017419Y003709D01*
X017419Y003257D01*
X017257Y003257D01*
X017257Y003709D01*
X017257Y003355D02*
X017419Y003355D01*
X017419Y003453D02*
X017257Y003453D01*
X017257Y003551D02*
X017419Y003551D01*
X017419Y003649D02*
X017257Y003649D01*
X017757Y003709D02*
X017919Y003709D01*
X017919Y003257D01*
X017757Y003257D01*
X017757Y003709D01*
X017757Y003355D02*
X017919Y003355D01*
X017919Y003453D02*
X017757Y003453D01*
X017757Y003551D02*
X017919Y003551D01*
X017919Y003649D02*
X017757Y003649D01*
X018257Y003709D02*
X018419Y003709D01*
X018419Y003257D01*
X018257Y003257D01*
X018257Y003709D01*
X018257Y003355D02*
X018419Y003355D01*
X018419Y003453D02*
X018257Y003453D01*
X018257Y003551D02*
X018419Y003551D01*
X018419Y003649D02*
X018257Y003649D01*
X012822Y003556D02*
X012822Y002854D01*
X012822Y003556D02*
X013104Y003556D01*
X013104Y002854D01*
X012822Y002854D01*
X012822Y002952D02*
X013104Y002952D01*
X013104Y003050D02*
X012822Y003050D01*
X012822Y003148D02*
X013104Y003148D01*
X013104Y003246D02*
X012822Y003246D01*
X012822Y003344D02*
X013104Y003344D01*
X013104Y003442D02*
X012822Y003442D01*
X012822Y003540D02*
X013104Y003540D01*
X011479Y003556D02*
X011479Y002854D01*
X011197Y002854D01*
X011197Y003556D01*
X011479Y003556D01*
X011479Y002952D02*
X011197Y002952D01*
X011197Y003050D02*
X011479Y003050D01*
X011479Y003148D02*
X011197Y003148D01*
X011197Y003246D02*
X011479Y003246D01*
X011479Y003344D02*
X011197Y003344D01*
X011197Y003442D02*
X011479Y003442D01*
X011479Y003540D02*
X011197Y003540D01*
X011479Y001156D02*
X011479Y000454D01*
X011197Y000454D01*
X011197Y001156D01*
X011479Y001156D01*
X011479Y000552D02*
X011197Y000552D01*
X011197Y000650D02*
X011479Y000650D01*
X011479Y000748D02*
X011197Y000748D01*
X011197Y000846D02*
X011479Y000846D01*
X011479Y000944D02*
X011197Y000944D01*
X011197Y001042D02*
X011479Y001042D01*
X011479Y001140D02*
X011197Y001140D01*
X012822Y001156D02*
X012822Y000454D01*
X012822Y001156D02*
X013104Y001156D01*
X013104Y000454D01*
X012822Y000454D01*
X012822Y000552D02*
X013104Y000552D01*
X013104Y000650D02*
X012822Y000650D01*
X012822Y000748D02*
X013104Y000748D01*
X013104Y000846D02*
X012822Y000846D01*
X012822Y000944D02*
X013104Y000944D01*
X013104Y001042D02*
X012822Y001042D01*
X012822Y001140D02*
X013104Y001140D01*
D15*
X014551Y013432D02*
X014551Y014234D01*
X014551Y013432D02*
X013749Y013432D01*
X013749Y014234D01*
X014551Y014234D01*
X014551Y013573D02*
X013749Y013573D01*
X013749Y013714D02*
X014551Y013714D01*
X014551Y013855D02*
X013749Y013855D01*
X013749Y013996D02*
X014551Y013996D01*
X014551Y014137D02*
X013749Y014137D01*
X013749Y015401D02*
X013749Y016203D01*
X014551Y016203D01*
X014551Y015401D01*
X013749Y015401D01*
X013749Y015542D02*
X014551Y015542D01*
X014551Y015683D02*
X013749Y015683D01*
X013749Y015824D02*
X014551Y015824D01*
X014551Y015965D02*
X013749Y015965D01*
X013749Y016106D02*
X014551Y016106D01*
X008187Y016203D02*
X008187Y015401D01*
X008187Y016203D02*
X008989Y016203D01*
X008989Y015401D01*
X008187Y015401D01*
X008187Y015542D02*
X008989Y015542D01*
X008989Y015683D02*
X008187Y015683D01*
X008187Y015824D02*
X008989Y015824D01*
X008989Y015965D02*
X008187Y015965D01*
X008187Y016106D02*
X008989Y016106D01*
X008989Y014234D02*
X008989Y013432D01*
X008187Y013432D01*
X008187Y014234D01*
X008989Y014234D01*
X008989Y013573D02*
X008187Y013573D01*
X008187Y013714D02*
X008989Y013714D01*
X008989Y013855D02*
X008187Y013855D01*
X008187Y013996D02*
X008989Y013996D01*
X008989Y014137D02*
X008187Y014137D01*
D16*
X008083Y012869D02*
X008083Y012773D01*
X008083Y012869D02*
X008337Y012869D01*
X008337Y012773D01*
X008083Y012773D01*
X008083Y012554D02*
X008083Y012458D01*
X008083Y012554D02*
X008337Y012554D01*
X008337Y012458D01*
X008083Y012458D01*
X008083Y012239D02*
X008083Y012143D01*
X008083Y012239D02*
X008337Y012239D01*
X008337Y012143D01*
X008083Y012143D01*
X008083Y011924D02*
X008083Y011828D01*
X008083Y011924D02*
X008337Y011924D01*
X008337Y011828D01*
X008083Y011828D01*
X008713Y011828D02*
X008713Y011924D01*
X008967Y011924D01*
X008967Y011828D01*
X008713Y011828D01*
X008713Y012143D02*
X008713Y012239D01*
X008967Y012239D01*
X008967Y012143D01*
X008713Y012143D01*
X008713Y012458D02*
X008713Y012554D01*
X008967Y012554D01*
X008967Y012458D01*
X008713Y012458D01*
X008713Y012773D02*
X008713Y012869D01*
X008967Y012869D01*
X008967Y012773D01*
X008713Y012773D01*
X008642Y008873D02*
X008624Y008873D01*
X008642Y008873D02*
X008642Y008501D01*
X008624Y008501D01*
X008624Y008873D01*
X008642Y008600D02*
X008624Y008600D01*
X008624Y008699D02*
X008642Y008699D01*
X008642Y008798D02*
X008624Y008798D01*
X008445Y008873D02*
X008427Y008873D01*
X008445Y008873D02*
X008445Y008501D01*
X008427Y008501D01*
X008427Y008873D01*
X008445Y008600D02*
X008427Y008600D01*
X008427Y008699D02*
X008445Y008699D01*
X008445Y008798D02*
X008427Y008798D01*
X008248Y008873D02*
X008230Y008873D01*
X008248Y008873D02*
X008248Y008501D01*
X008230Y008501D01*
X008230Y008873D01*
X008248Y008600D02*
X008230Y008600D01*
X008230Y008699D02*
X008248Y008699D01*
X008248Y008798D02*
X008230Y008798D01*
X008052Y008873D02*
X008034Y008873D01*
X008052Y008873D02*
X008052Y008501D01*
X008034Y008501D01*
X008034Y008873D01*
X008052Y008600D02*
X008034Y008600D01*
X008034Y008699D02*
X008052Y008699D01*
X008052Y008798D02*
X008034Y008798D01*
X007855Y008873D02*
X007837Y008873D01*
X007855Y008873D02*
X007855Y008501D01*
X007837Y008501D01*
X007837Y008873D01*
X007855Y008600D02*
X007837Y008600D01*
X007837Y008699D02*
X007855Y008699D01*
X007855Y008798D02*
X007837Y008798D01*
X007658Y008873D02*
X007640Y008873D01*
X007658Y008873D02*
X007658Y008501D01*
X007640Y008501D01*
X007640Y008873D01*
X007658Y008600D02*
X007640Y008600D01*
X007640Y008699D02*
X007658Y008699D01*
X007658Y008798D02*
X007640Y008798D01*
X007461Y008873D02*
X007443Y008873D01*
X007461Y008873D02*
X007461Y008501D01*
X007443Y008501D01*
X007443Y008873D01*
X007461Y008600D02*
X007443Y008600D01*
X007443Y008699D02*
X007461Y008699D01*
X007461Y008798D02*
X007443Y008798D01*
X007264Y008873D02*
X007246Y008873D01*
X007264Y008873D02*
X007264Y008501D01*
X007246Y008501D01*
X007246Y008873D01*
X007264Y008600D02*
X007246Y008600D01*
X007246Y008699D02*
X007264Y008699D01*
X007264Y008798D02*
X007246Y008798D01*
X007067Y008873D02*
X007049Y008873D01*
X007067Y008873D02*
X007067Y008501D01*
X007049Y008501D01*
X007049Y008873D01*
X007067Y008600D02*
X007049Y008600D01*
X007049Y008699D02*
X007067Y008699D01*
X007067Y008798D02*
X007049Y008798D01*
X006870Y008873D02*
X006852Y008873D01*
X006870Y008873D02*
X006870Y008501D01*
X006852Y008501D01*
X006852Y008873D01*
X006870Y008600D02*
X006852Y008600D01*
X006852Y008699D02*
X006870Y008699D01*
X006870Y008798D02*
X006852Y008798D01*
X006280Y007928D02*
X005908Y007928D01*
X006280Y007928D02*
X006280Y007910D01*
X005908Y007910D01*
X005908Y007928D01*
X005908Y007731D02*
X006280Y007731D01*
X006280Y007713D01*
X005908Y007713D01*
X005908Y007731D01*
X005908Y007534D02*
X006280Y007534D01*
X006280Y007516D01*
X005908Y007516D01*
X005908Y007534D01*
X005908Y007337D02*
X006280Y007337D01*
X006280Y007319D01*
X005908Y007319D01*
X005908Y007337D01*
X005908Y007140D02*
X006280Y007140D01*
X006280Y007122D01*
X005908Y007122D01*
X005908Y007140D01*
X005908Y006944D02*
X006280Y006944D01*
X006280Y006926D01*
X005908Y006926D01*
X005908Y006944D01*
X005908Y006747D02*
X006280Y006747D01*
X006280Y006729D01*
X005908Y006729D01*
X005908Y006747D01*
X005908Y006550D02*
X006280Y006550D01*
X006280Y006532D01*
X005908Y006532D01*
X005908Y006550D01*
X005908Y006353D02*
X006280Y006353D01*
X006280Y006335D01*
X005908Y006335D01*
X005908Y006353D01*
X005908Y006156D02*
X006280Y006156D01*
X006280Y006138D01*
X005908Y006138D01*
X005908Y006156D01*
X005908Y005959D02*
X006280Y005959D01*
X006280Y005941D01*
X005908Y005941D01*
X005908Y005959D01*
X005908Y005763D02*
X006280Y005763D01*
X006280Y005745D01*
X005908Y005745D01*
X005908Y005763D01*
X005908Y005566D02*
X006280Y005566D01*
X006280Y005548D01*
X005908Y005548D01*
X005908Y005566D01*
X005908Y005369D02*
X006280Y005369D01*
X006280Y005351D01*
X005908Y005351D01*
X005908Y005369D01*
X005908Y005172D02*
X006280Y005172D01*
X006280Y005154D01*
X005908Y005154D01*
X005908Y005172D01*
X005908Y004975D02*
X006280Y004975D01*
X006280Y004957D01*
X005908Y004957D01*
X005908Y004975D01*
X006852Y004384D02*
X006870Y004384D01*
X006870Y004012D01*
X006852Y004012D01*
X006852Y004384D01*
X006870Y004111D02*
X006852Y004111D01*
X006852Y004210D02*
X006870Y004210D01*
X006870Y004309D02*
X006852Y004309D01*
X007049Y004384D02*
X007067Y004384D01*
X007067Y004012D01*
X007049Y004012D01*
X007049Y004384D01*
X007067Y004111D02*
X007049Y004111D01*
X007049Y004210D02*
X007067Y004210D01*
X007067Y004309D02*
X007049Y004309D01*
X007246Y004384D02*
X007264Y004384D01*
X007264Y004012D01*
X007246Y004012D01*
X007246Y004384D01*
X007264Y004111D02*
X007246Y004111D01*
X007246Y004210D02*
X007264Y004210D01*
X007264Y004309D02*
X007246Y004309D01*
X007443Y004384D02*
X007461Y004384D01*
X007461Y004012D01*
X007443Y004012D01*
X007443Y004384D01*
X007461Y004111D02*
X007443Y004111D01*
X007443Y004210D02*
X007461Y004210D01*
X007461Y004309D02*
X007443Y004309D01*
X007640Y004384D02*
X007658Y004384D01*
X007658Y004012D01*
X007640Y004012D01*
X007640Y004384D01*
X007658Y004111D02*
X007640Y004111D01*
X007640Y004210D02*
X007658Y004210D01*
X007658Y004309D02*
X007640Y004309D01*
X007837Y004384D02*
X007855Y004384D01*
X007855Y004012D01*
X007837Y004012D01*
X007837Y004384D01*
X007855Y004111D02*
X007837Y004111D01*
X007837Y004210D02*
X007855Y004210D01*
X007855Y004309D02*
X007837Y004309D01*
X008034Y004384D02*
X008052Y004384D01*
X008052Y004012D01*
X008034Y004012D01*
X008034Y004384D01*
X008052Y004111D02*
X008034Y004111D01*
X008034Y004210D02*
X008052Y004210D01*
X008052Y004309D02*
X008034Y004309D01*
X008230Y004384D02*
X008248Y004384D01*
X008248Y004012D01*
X008230Y004012D01*
X008230Y004384D01*
X008248Y004111D02*
X008230Y004111D01*
X008230Y004210D02*
X008248Y004210D01*
X008248Y004309D02*
X008230Y004309D01*
X008427Y004384D02*
X008445Y004384D01*
X008445Y004012D01*
X008427Y004012D01*
X008427Y004384D01*
X008445Y004111D02*
X008427Y004111D01*
X008427Y004210D02*
X008445Y004210D01*
X008445Y004309D02*
X008427Y004309D01*
X008624Y004384D02*
X008642Y004384D01*
X008642Y004012D01*
X008624Y004012D01*
X008624Y004384D01*
X008642Y004111D02*
X008624Y004111D01*
X008624Y004210D02*
X008642Y004210D01*
X008642Y004309D02*
X008624Y004309D01*
X008821Y004384D02*
X008839Y004384D01*
X008839Y004012D01*
X008821Y004012D01*
X008821Y004384D01*
X008839Y004111D02*
X008821Y004111D01*
X008821Y004210D02*
X008839Y004210D01*
X008839Y004309D02*
X008821Y004309D01*
X009018Y004384D02*
X009036Y004384D01*
X009036Y004012D01*
X009018Y004012D01*
X009018Y004384D01*
X009036Y004111D02*
X009018Y004111D01*
X009018Y004210D02*
X009036Y004210D01*
X009036Y004309D02*
X009018Y004309D01*
X009215Y004384D02*
X009233Y004384D01*
X009233Y004012D01*
X009215Y004012D01*
X009215Y004384D01*
X009233Y004111D02*
X009215Y004111D01*
X009215Y004210D02*
X009233Y004210D01*
X009233Y004309D02*
X009215Y004309D01*
X009412Y004384D02*
X009430Y004384D01*
X009430Y004012D01*
X009412Y004012D01*
X009412Y004384D01*
X009430Y004111D02*
X009412Y004111D01*
X009412Y004210D02*
X009430Y004210D01*
X009430Y004309D02*
X009412Y004309D01*
X009608Y004384D02*
X009626Y004384D01*
X009626Y004012D01*
X009608Y004012D01*
X009608Y004384D01*
X009626Y004111D02*
X009608Y004111D01*
X009608Y004210D02*
X009626Y004210D01*
X009626Y004309D02*
X009608Y004309D01*
X009805Y004384D02*
X009823Y004384D01*
X009823Y004012D01*
X009805Y004012D01*
X009805Y004384D01*
X009823Y004111D02*
X009805Y004111D01*
X009805Y004210D02*
X009823Y004210D01*
X009823Y004309D02*
X009805Y004309D01*
X010396Y004975D02*
X010768Y004975D01*
X010768Y004957D01*
X010396Y004957D01*
X010396Y004975D01*
X010396Y005172D02*
X010768Y005172D01*
X010768Y005154D01*
X010396Y005154D01*
X010396Y005172D01*
X010396Y005369D02*
X010768Y005369D01*
X010768Y005351D01*
X010396Y005351D01*
X010396Y005369D01*
X010396Y005566D02*
X010768Y005566D01*
X010768Y005548D01*
X010396Y005548D01*
X010396Y005566D01*
X010396Y005763D02*
X010768Y005763D01*
X010768Y005745D01*
X010396Y005745D01*
X010396Y005763D01*
X010396Y005959D02*
X010768Y005959D01*
X010768Y005941D01*
X010396Y005941D01*
X010396Y005959D01*
X010396Y006156D02*
X010768Y006156D01*
X010768Y006138D01*
X010396Y006138D01*
X010396Y006156D01*
X010396Y006353D02*
X010768Y006353D01*
X010768Y006335D01*
X010396Y006335D01*
X010396Y006353D01*
X010396Y006550D02*
X010768Y006550D01*
X010768Y006532D01*
X010396Y006532D01*
X010396Y006550D01*
X010396Y006747D02*
X010768Y006747D01*
X010768Y006729D01*
X010396Y006729D01*
X010396Y006747D01*
X010396Y006944D02*
X010768Y006944D01*
X010768Y006926D01*
X010396Y006926D01*
X010396Y006944D01*
X010396Y007140D02*
X010768Y007140D01*
X010768Y007122D01*
X010396Y007122D01*
X010396Y007140D01*
X010396Y007337D02*
X010768Y007337D01*
X010768Y007319D01*
X010396Y007319D01*
X010396Y007337D01*
X010396Y007534D02*
X010768Y007534D01*
X010768Y007516D01*
X010396Y007516D01*
X010396Y007534D01*
X010396Y007731D02*
X010768Y007731D01*
X010768Y007713D01*
X010396Y007713D01*
X010396Y007731D01*
X010396Y007928D02*
X010768Y007928D01*
X010768Y007910D01*
X010396Y007910D01*
X010396Y007928D01*
X009823Y008873D02*
X009805Y008873D01*
X009823Y008873D02*
X009823Y008501D01*
X009805Y008501D01*
X009805Y008873D01*
X009823Y008600D02*
X009805Y008600D01*
X009805Y008699D02*
X009823Y008699D01*
X009823Y008798D02*
X009805Y008798D01*
X009626Y008873D02*
X009608Y008873D01*
X009626Y008873D02*
X009626Y008501D01*
X009608Y008501D01*
X009608Y008873D01*
X009626Y008600D02*
X009608Y008600D01*
X009608Y008699D02*
X009626Y008699D01*
X009626Y008798D02*
X009608Y008798D01*
X009430Y008873D02*
X009412Y008873D01*
X009430Y008873D02*
X009430Y008501D01*
X009412Y008501D01*
X009412Y008873D01*
X009430Y008600D02*
X009412Y008600D01*
X009412Y008699D02*
X009430Y008699D01*
X009430Y008798D02*
X009412Y008798D01*
X009233Y008873D02*
X009215Y008873D01*
X009233Y008873D02*
X009233Y008501D01*
X009215Y008501D01*
X009215Y008873D01*
X009233Y008600D02*
X009215Y008600D01*
X009215Y008699D02*
X009233Y008699D01*
X009233Y008798D02*
X009215Y008798D01*
X009036Y008873D02*
X009018Y008873D01*
X009036Y008873D02*
X009036Y008501D01*
X009018Y008501D01*
X009018Y008873D01*
X009036Y008600D02*
X009018Y008600D01*
X009018Y008699D02*
X009036Y008699D01*
X009036Y008798D02*
X009018Y008798D01*
X008839Y008873D02*
X008821Y008873D01*
X008839Y008873D02*
X008839Y008501D01*
X008821Y008501D01*
X008821Y008873D01*
X008839Y008600D02*
X008821Y008600D01*
X008821Y008699D02*
X008839Y008699D01*
X008839Y008798D02*
X008821Y008798D01*
X013583Y011828D02*
X013583Y011924D01*
X013837Y011924D01*
X013837Y011828D01*
X013583Y011828D01*
X013583Y012143D02*
X013583Y012239D01*
X013837Y012239D01*
X013837Y012143D01*
X013583Y012143D01*
X013583Y012458D02*
X013583Y012554D01*
X013837Y012554D01*
X013837Y012458D01*
X013583Y012458D01*
X013583Y012773D02*
X013583Y012869D01*
X013837Y012869D01*
X013837Y012773D01*
X013583Y012773D01*
X014213Y012773D02*
X014213Y012869D01*
X014467Y012869D01*
X014467Y012773D01*
X014213Y012773D01*
X014213Y012554D02*
X014213Y012458D01*
X014213Y012554D02*
X014467Y012554D01*
X014467Y012458D01*
X014213Y012458D01*
X014213Y012239D02*
X014213Y012143D01*
X014213Y012239D02*
X014467Y012239D01*
X014467Y012143D01*
X014213Y012143D01*
X014213Y011924D02*
X014213Y011828D01*
X014213Y011924D02*
X014467Y011924D01*
X014467Y011828D01*
X014213Y011828D01*
X019021Y011557D02*
X019021Y011461D01*
X019021Y011557D02*
X019275Y011557D01*
X019275Y011461D01*
X019021Y011461D01*
X019021Y011242D02*
X019021Y011146D01*
X019021Y011242D02*
X019275Y011242D01*
X019275Y011146D01*
X019021Y011146D01*
X019021Y010927D02*
X019021Y010831D01*
X019021Y010927D02*
X019275Y010927D01*
X019275Y010831D01*
X019021Y010831D01*
X019021Y010612D02*
X019021Y010516D01*
X019021Y010612D02*
X019275Y010612D01*
X019275Y010516D01*
X019021Y010516D01*
X019651Y010516D02*
X019651Y010612D01*
X019905Y010612D01*
X019905Y010516D01*
X019651Y010516D01*
X019651Y010831D02*
X019651Y010927D01*
X019905Y010927D01*
X019905Y010831D01*
X019651Y010831D01*
X019651Y011146D02*
X019651Y011242D01*
X019905Y011242D01*
X019905Y011146D01*
X019651Y011146D01*
X019651Y011461D02*
X019651Y011557D01*
X019905Y011557D01*
X019905Y011461D01*
X019651Y011461D01*
X015196Y006212D02*
X015196Y005998D01*
X015196Y006212D02*
X015214Y006212D01*
X015214Y005998D01*
X015196Y005998D01*
X015196Y006097D02*
X015214Y006097D01*
X015214Y006196D02*
X015196Y006196D01*
X014999Y006212D02*
X014999Y005998D01*
X014999Y006212D02*
X015017Y006212D01*
X015017Y005998D01*
X014999Y005998D01*
X014999Y006097D02*
X015017Y006097D01*
X015017Y006196D02*
X014999Y006196D01*
X014802Y006212D02*
X014802Y005998D01*
X014802Y006212D02*
X014820Y006212D01*
X014820Y005998D01*
X014802Y005998D01*
X014802Y006097D02*
X014820Y006097D01*
X014820Y006196D02*
X014802Y006196D01*
X014605Y006212D02*
X014605Y005998D01*
X014605Y006212D02*
X014623Y006212D01*
X014623Y005998D01*
X014605Y005998D01*
X014605Y006097D02*
X014623Y006097D01*
X014623Y006196D02*
X014605Y006196D01*
X014409Y006212D02*
X014409Y005998D01*
X014409Y006212D02*
X014427Y006212D01*
X014427Y005998D01*
X014409Y005998D01*
X014409Y006097D02*
X014427Y006097D01*
X014427Y006196D02*
X014409Y006196D01*
X014212Y006212D02*
X014212Y005998D01*
X014212Y006212D02*
X014230Y006212D01*
X014230Y005998D01*
X014212Y005998D01*
X014212Y006097D02*
X014230Y006097D01*
X014230Y006196D02*
X014212Y006196D01*
X014032Y005819D02*
X013818Y005819D01*
X014032Y005819D02*
X014032Y005801D01*
X013818Y005801D01*
X013818Y005819D01*
X013818Y005622D02*
X014032Y005622D01*
X014032Y005604D01*
X013818Y005604D01*
X013818Y005622D01*
X013818Y005425D02*
X014032Y005425D01*
X014032Y005407D01*
X013818Y005407D01*
X013818Y005425D01*
X013818Y005228D02*
X014032Y005228D01*
X014032Y005210D01*
X013818Y005210D01*
X013818Y005228D01*
X013818Y005031D02*
X014032Y005031D01*
X014032Y005013D01*
X013818Y005013D01*
X013818Y005031D01*
X013818Y004834D02*
X014032Y004834D01*
X014032Y004816D01*
X013818Y004816D01*
X013818Y004834D01*
X014230Y004637D02*
X014230Y004423D01*
X014212Y004423D01*
X014212Y004637D01*
X014230Y004637D01*
X014230Y004522D02*
X014212Y004522D01*
X014212Y004621D02*
X014230Y004621D01*
X014427Y004637D02*
X014427Y004423D01*
X014409Y004423D01*
X014409Y004637D01*
X014427Y004637D01*
X014427Y004522D02*
X014409Y004522D01*
X014409Y004621D02*
X014427Y004621D01*
X014623Y004637D02*
X014623Y004423D01*
X014605Y004423D01*
X014605Y004637D01*
X014623Y004637D01*
X014623Y004522D02*
X014605Y004522D01*
X014605Y004621D02*
X014623Y004621D01*
X014820Y004637D02*
X014820Y004423D01*
X014802Y004423D01*
X014802Y004637D01*
X014820Y004637D01*
X014820Y004522D02*
X014802Y004522D01*
X014802Y004621D02*
X014820Y004621D01*
X015017Y004637D02*
X015017Y004423D01*
X014999Y004423D01*
X014999Y004637D01*
X015017Y004637D01*
X015017Y004522D02*
X014999Y004522D01*
X014999Y004621D02*
X015017Y004621D01*
X015214Y004637D02*
X015214Y004423D01*
X015196Y004423D01*
X015196Y004637D01*
X015214Y004637D01*
X015214Y004522D02*
X015196Y004522D01*
X015196Y004621D02*
X015214Y004621D01*
X015393Y004816D02*
X015607Y004816D01*
X015393Y004816D02*
X015393Y004834D01*
X015607Y004834D01*
X015607Y004816D01*
X015607Y005013D02*
X015393Y005013D01*
X015393Y005031D01*
X015607Y005031D01*
X015607Y005013D01*
X015607Y005210D02*
X015393Y005210D01*
X015393Y005228D01*
X015607Y005228D01*
X015607Y005210D01*
X015607Y005407D02*
X015393Y005407D01*
X015393Y005425D01*
X015607Y005425D01*
X015607Y005407D01*
X015607Y005604D02*
X015393Y005604D01*
X015393Y005622D01*
X015607Y005622D01*
X015607Y005604D01*
X015607Y005801D02*
X015393Y005801D01*
X015393Y005819D01*
X015607Y005819D01*
X015607Y005801D01*
X003889Y005647D02*
X003005Y005647D01*
X003005Y005743D01*
X003889Y005743D01*
X003889Y005647D01*
X003889Y005332D02*
X003005Y005332D01*
X003005Y005428D01*
X003889Y005428D01*
X003889Y005332D01*
X003889Y005017D02*
X003005Y005017D01*
X003005Y005113D01*
X003889Y005113D01*
X003889Y005017D01*
X003889Y004702D02*
X003005Y004702D01*
X003005Y004798D01*
X003889Y004798D01*
X003889Y004702D01*
X003889Y005962D02*
X003005Y005962D01*
X003005Y006058D01*
X003889Y006058D01*
X003889Y005962D01*
D17*
X003880Y006818D02*
X003014Y006818D01*
X003014Y007486D01*
X003880Y007486D01*
X003880Y006818D01*
X003880Y006935D02*
X003014Y006935D01*
X003014Y007052D02*
X003880Y007052D01*
X003880Y007169D02*
X003014Y007169D01*
X003014Y007286D02*
X003880Y007286D01*
X003880Y007403D02*
X003014Y007403D01*
X001715Y006818D02*
X000849Y006818D01*
X000849Y007486D01*
X001715Y007486D01*
X001715Y006818D01*
X001715Y006935D02*
X000849Y006935D01*
X000849Y007052D02*
X001715Y007052D01*
X001715Y007169D02*
X000849Y007169D01*
X000849Y007286D02*
X001715Y007286D01*
X001715Y007403D02*
X000849Y007403D01*
X000849Y003274D02*
X001715Y003274D01*
X000849Y003274D02*
X000849Y003942D01*
X001715Y003942D01*
X001715Y003274D01*
X001715Y003391D02*
X000849Y003391D01*
X000849Y003508D02*
X001715Y003508D01*
X001715Y003625D02*
X000849Y003625D01*
X000849Y003742D02*
X001715Y003742D01*
X001715Y003859D02*
X000849Y003859D01*
X003014Y003274D02*
X003880Y003274D01*
X003014Y003274D02*
X003014Y003942D01*
X003880Y003942D01*
X003880Y003274D01*
X003880Y003391D02*
X003014Y003391D01*
X003014Y003508D02*
X003880Y003508D01*
X003880Y003625D02*
X003014Y003625D01*
X003014Y003742D02*
X003880Y003742D01*
X003880Y003859D02*
X003014Y003859D01*
D18*
X014446Y008603D02*
X014446Y010219D01*
X014446Y008603D02*
X012480Y008603D01*
X012480Y010219D01*
X014446Y010219D01*
X014446Y008887D02*
X012480Y008887D01*
X012480Y009171D02*
X014446Y009171D01*
X014446Y009455D02*
X012480Y009455D01*
X012480Y009739D02*
X014446Y009739D01*
X014446Y010023D02*
X012480Y010023D01*
D19*
X016837Y007768D02*
X017237Y007768D01*
X017237Y007368D01*
X016837Y007368D01*
X016837Y007768D01*
X016837Y007467D02*
X017237Y007467D01*
X017237Y007566D02*
X016837Y007566D01*
X016837Y007665D02*
X017237Y007665D01*
X017237Y007764D02*
X016837Y007764D01*
X017939Y007368D02*
X018339Y007368D01*
X017939Y007368D02*
X017939Y007768D01*
X018339Y007768D01*
X018339Y007368D01*
X018339Y007467D02*
X017939Y007467D01*
X017939Y007566D02*
X018339Y007566D01*
X018339Y007665D02*
X017939Y007665D01*
X017939Y007764D02*
X018339Y007764D01*
X018527Y010336D02*
X018127Y010336D01*
X018127Y010736D01*
X018527Y010736D01*
X018527Y010336D01*
X018527Y010435D02*
X018127Y010435D01*
X018127Y010534D02*
X018527Y010534D01*
X018527Y010633D02*
X018127Y010633D01*
X018127Y010732D02*
X018527Y010732D01*
X017424Y010736D02*
X017024Y010736D01*
X017424Y010736D02*
X017424Y010336D01*
X017024Y010336D01*
X017024Y010736D01*
X017024Y010435D02*
X017424Y010435D01*
X017424Y010534D02*
X017024Y010534D01*
X017024Y010633D02*
X017424Y010633D01*
X017424Y010732D02*
X017024Y010732D01*
D20*
X011612Y010268D02*
X011612Y009736D01*
X011612Y010268D02*
X012064Y010268D01*
X012064Y009736D01*
X011612Y009736D01*
X011612Y009834D02*
X012064Y009834D01*
X012064Y009932D02*
X011612Y009932D01*
X011612Y010030D02*
X012064Y010030D01*
X012064Y010128D02*
X011612Y010128D01*
X011612Y010226D02*
X012064Y010226D01*
X012064Y009087D02*
X012064Y008555D01*
X011612Y008555D01*
X011612Y009087D01*
X012064Y009087D01*
X012064Y008653D02*
X011612Y008653D01*
X011612Y008751D02*
X012064Y008751D01*
X012064Y008849D02*
X011612Y008849D01*
X011612Y008947D02*
X012064Y008947D01*
X012064Y009045D02*
X011612Y009045D01*
D21*
X011344Y006651D02*
X011344Y006003D01*
X011344Y006651D02*
X011676Y006651D01*
X011676Y006003D01*
X011344Y006003D01*
X011344Y006102D02*
X011676Y006102D01*
X011676Y006201D02*
X011344Y006201D01*
X011344Y006300D02*
X011676Y006300D01*
X011676Y006399D02*
X011344Y006399D01*
X011344Y006498D02*
X011676Y006498D01*
X011676Y006597D02*
X011344Y006597D01*
X012250Y006651D02*
X012250Y006003D01*
X012250Y006651D02*
X012582Y006651D01*
X012582Y006003D01*
X012250Y006003D01*
X012250Y006102D02*
X012582Y006102D01*
X012582Y006201D02*
X012250Y006201D01*
X012250Y006300D02*
X012582Y006300D01*
X012582Y006399D02*
X012250Y006399D01*
X012250Y006498D02*
X012582Y006498D01*
X012582Y006597D02*
X012250Y006597D01*
X012250Y005194D02*
X012250Y004546D01*
X012250Y005194D02*
X012582Y005194D01*
X012582Y004546D01*
X012250Y004546D01*
X012250Y004645D02*
X012582Y004645D01*
X012582Y004744D02*
X012250Y004744D01*
X012250Y004843D02*
X012582Y004843D01*
X012582Y004942D02*
X012250Y004942D01*
X012250Y005041D02*
X012582Y005041D01*
X012582Y005140D02*
X012250Y005140D01*
X011344Y005194D02*
X011344Y004546D01*
X011344Y005194D02*
X011676Y005194D01*
X011676Y004546D01*
X011344Y004546D01*
X011344Y004645D02*
X011676Y004645D01*
X011676Y004744D02*
X011344Y004744D01*
X011344Y004843D02*
X011676Y004843D01*
X011676Y004942D02*
X011344Y004942D01*
X011344Y005041D02*
X011676Y005041D01*
X011676Y005140D02*
X011344Y005140D01*
M02*
