G75*
%MOIN*%
%OFA0B0*%
%FSLAX24Y24*%
%IPPOS*%
%LPD*%
%AMOC8*
5,1,8,0,0,1.08239X$1,22.5*
%
%ADD10C,0.0000*%
%ADD11C,0.0120*%
%ADD12C,0.0050*%
%ADD13C,0.0080*%
%ADD14C,0.0060*%
%ADD15C,0.0200*%
%ADD16C,0.0070*%
%ADD17C,0.0003*%
%ADD18C,0.0055*%
%ADD19C,0.0040*%
%ADD20C,0.0110*%
%ADD21C,0.0150*%
%ADD22R,0.0098X0.0098*%
%ADD23C,0.0030*%
%ADD24R,0.0300X0.0340*%
%ADD25C,0.0100*%
%ADD26C,0.0020*%
%ADD27R,0.0148X0.2559*%
D10*
X000588Y000721D02*
X000588Y019224D01*
X000587Y019224D02*
X000589Y019270D01*
X000594Y019316D01*
X000603Y019362D01*
X000616Y019407D01*
X000632Y019450D01*
X000651Y019492D01*
X000674Y019533D01*
X000700Y019571D01*
X000729Y019608D01*
X000760Y019642D01*
X000794Y019673D01*
X000831Y019702D01*
X000869Y019728D01*
X000910Y019751D01*
X000952Y019770D01*
X000995Y019786D01*
X001040Y019799D01*
X001086Y019808D01*
X001132Y019813D01*
X001178Y019815D01*
X019682Y019815D01*
X019728Y019813D01*
X019774Y019808D01*
X019820Y019799D01*
X019865Y019786D01*
X019908Y019770D01*
X019950Y019751D01*
X019991Y019728D01*
X020029Y019702D01*
X020066Y019673D01*
X020100Y019642D01*
X020131Y019608D01*
X020160Y019571D01*
X020186Y019533D01*
X020209Y019492D01*
X020228Y019450D01*
X020244Y019407D01*
X020257Y019362D01*
X020266Y019316D01*
X020271Y019270D01*
X020273Y019224D01*
X020273Y000721D01*
X020271Y000675D01*
X020266Y000629D01*
X020257Y000583D01*
X020244Y000538D01*
X020228Y000495D01*
X020209Y000453D01*
X020186Y000412D01*
X020160Y000374D01*
X020131Y000337D01*
X020100Y000303D01*
X020066Y000272D01*
X020029Y000243D01*
X019991Y000217D01*
X019950Y000194D01*
X019908Y000175D01*
X019865Y000159D01*
X019820Y000146D01*
X019774Y000137D01*
X019728Y000132D01*
X019682Y000130D01*
X001178Y000130D01*
X001132Y000132D01*
X001086Y000137D01*
X001040Y000146D01*
X000995Y000159D01*
X000952Y000175D01*
X000910Y000194D01*
X000869Y000217D01*
X000831Y000243D01*
X000794Y000272D01*
X000760Y000303D01*
X000729Y000337D01*
X000700Y000374D01*
X000674Y000412D01*
X000651Y000453D01*
X000632Y000495D01*
X000616Y000538D01*
X000603Y000583D01*
X000594Y000629D01*
X000589Y000675D01*
X000587Y000721D01*
X000942Y001114D02*
X000944Y001164D01*
X000950Y001214D01*
X000960Y001263D01*
X000974Y001311D01*
X000991Y001358D01*
X001012Y001403D01*
X001037Y001447D01*
X001065Y001488D01*
X001097Y001527D01*
X001131Y001564D01*
X001168Y001598D01*
X001208Y001628D01*
X001250Y001655D01*
X001294Y001679D01*
X001340Y001700D01*
X001387Y001716D01*
X001435Y001729D01*
X001485Y001738D01*
X001534Y001743D01*
X001585Y001744D01*
X001635Y001741D01*
X001684Y001734D01*
X001733Y001723D01*
X001781Y001708D01*
X001827Y001690D01*
X001872Y001668D01*
X001915Y001642D01*
X001956Y001613D01*
X001995Y001581D01*
X002031Y001546D01*
X002063Y001508D01*
X002093Y001468D01*
X002120Y001425D01*
X002143Y001381D01*
X002162Y001335D01*
X002178Y001287D01*
X002190Y001238D01*
X002198Y001189D01*
X002202Y001139D01*
X002202Y001089D01*
X002198Y001039D01*
X002190Y000990D01*
X002178Y000941D01*
X002162Y000893D01*
X002143Y000847D01*
X002120Y000803D01*
X002093Y000760D01*
X002063Y000720D01*
X002031Y000682D01*
X001995Y000647D01*
X001956Y000615D01*
X001915Y000586D01*
X001872Y000560D01*
X001827Y000538D01*
X001781Y000520D01*
X001733Y000505D01*
X001684Y000494D01*
X001635Y000487D01*
X001585Y000484D01*
X001534Y000485D01*
X001485Y000490D01*
X001435Y000499D01*
X001387Y000512D01*
X001340Y000528D01*
X001294Y000549D01*
X001250Y000573D01*
X001208Y000600D01*
X001168Y000630D01*
X001131Y000664D01*
X001097Y000701D01*
X001065Y000740D01*
X001037Y000781D01*
X001012Y000825D01*
X000991Y000870D01*
X000974Y000917D01*
X000960Y000965D01*
X000950Y001014D01*
X000944Y001064D01*
X000942Y001114D01*
X002286Y004514D02*
X002288Y004540D01*
X002294Y004566D01*
X002304Y004591D01*
X002317Y004614D01*
X002333Y004634D01*
X002353Y004652D01*
X002375Y004667D01*
X002398Y004679D01*
X002424Y004687D01*
X002450Y004691D01*
X002476Y004691D01*
X002502Y004687D01*
X002528Y004679D01*
X002552Y004667D01*
X002573Y004652D01*
X002593Y004634D01*
X002609Y004614D01*
X002622Y004591D01*
X002632Y004566D01*
X002638Y004540D01*
X002640Y004514D01*
X002638Y004488D01*
X002632Y004462D01*
X002622Y004437D01*
X002609Y004414D01*
X002593Y004394D01*
X002573Y004376D01*
X002551Y004361D01*
X002528Y004349D01*
X002502Y004341D01*
X002476Y004337D01*
X002450Y004337D01*
X002424Y004341D01*
X002398Y004349D01*
X002374Y004361D01*
X002353Y004376D01*
X002333Y004394D01*
X002317Y004414D01*
X002304Y004437D01*
X002294Y004462D01*
X002288Y004488D01*
X002286Y004514D01*
X002286Y006246D02*
X002288Y006272D01*
X002294Y006298D01*
X002304Y006323D01*
X002317Y006346D01*
X002333Y006366D01*
X002353Y006384D01*
X002375Y006399D01*
X002398Y006411D01*
X002424Y006419D01*
X002450Y006423D01*
X002476Y006423D01*
X002502Y006419D01*
X002528Y006411D01*
X002552Y006399D01*
X002573Y006384D01*
X002593Y006366D01*
X002609Y006346D01*
X002622Y006323D01*
X002632Y006298D01*
X002638Y006272D01*
X002640Y006246D01*
X002638Y006220D01*
X002632Y006194D01*
X002622Y006169D01*
X002609Y006146D01*
X002593Y006126D01*
X002573Y006108D01*
X002551Y006093D01*
X002528Y006081D01*
X002502Y006073D01*
X002476Y006069D01*
X002450Y006069D01*
X002424Y006073D01*
X002398Y006081D01*
X002374Y006093D01*
X002353Y006108D01*
X002333Y006126D01*
X002317Y006146D01*
X002304Y006169D01*
X002294Y006194D01*
X002288Y006220D01*
X002286Y006246D01*
X000942Y018831D02*
X000944Y018881D01*
X000950Y018931D01*
X000960Y018980D01*
X000974Y019028D01*
X000991Y019075D01*
X001012Y019120D01*
X001037Y019164D01*
X001065Y019205D01*
X001097Y019244D01*
X001131Y019281D01*
X001168Y019315D01*
X001208Y019345D01*
X001250Y019372D01*
X001294Y019396D01*
X001340Y019417D01*
X001387Y019433D01*
X001435Y019446D01*
X001485Y019455D01*
X001534Y019460D01*
X001585Y019461D01*
X001635Y019458D01*
X001684Y019451D01*
X001733Y019440D01*
X001781Y019425D01*
X001827Y019407D01*
X001872Y019385D01*
X001915Y019359D01*
X001956Y019330D01*
X001995Y019298D01*
X002031Y019263D01*
X002063Y019225D01*
X002093Y019185D01*
X002120Y019142D01*
X002143Y019098D01*
X002162Y019052D01*
X002178Y019004D01*
X002190Y018955D01*
X002198Y018906D01*
X002202Y018856D01*
X002202Y018806D01*
X002198Y018756D01*
X002190Y018707D01*
X002178Y018658D01*
X002162Y018610D01*
X002143Y018564D01*
X002120Y018520D01*
X002093Y018477D01*
X002063Y018437D01*
X002031Y018399D01*
X001995Y018364D01*
X001956Y018332D01*
X001915Y018303D01*
X001872Y018277D01*
X001827Y018255D01*
X001781Y018237D01*
X001733Y018222D01*
X001684Y018211D01*
X001635Y018204D01*
X001585Y018201D01*
X001534Y018202D01*
X001485Y018207D01*
X001435Y018216D01*
X001387Y018229D01*
X001340Y018245D01*
X001294Y018266D01*
X001250Y018290D01*
X001208Y018317D01*
X001168Y018347D01*
X001131Y018381D01*
X001097Y018418D01*
X001065Y018457D01*
X001037Y018498D01*
X001012Y018542D01*
X000991Y018587D01*
X000974Y018634D01*
X000960Y018682D01*
X000950Y018731D01*
X000944Y018781D01*
X000942Y018831D01*
X018659Y018831D02*
X018661Y018881D01*
X018667Y018931D01*
X018677Y018980D01*
X018691Y019028D01*
X018708Y019075D01*
X018729Y019120D01*
X018754Y019164D01*
X018782Y019205D01*
X018814Y019244D01*
X018848Y019281D01*
X018885Y019315D01*
X018925Y019345D01*
X018967Y019372D01*
X019011Y019396D01*
X019057Y019417D01*
X019104Y019433D01*
X019152Y019446D01*
X019202Y019455D01*
X019251Y019460D01*
X019302Y019461D01*
X019352Y019458D01*
X019401Y019451D01*
X019450Y019440D01*
X019498Y019425D01*
X019544Y019407D01*
X019589Y019385D01*
X019632Y019359D01*
X019673Y019330D01*
X019712Y019298D01*
X019748Y019263D01*
X019780Y019225D01*
X019810Y019185D01*
X019837Y019142D01*
X019860Y019098D01*
X019879Y019052D01*
X019895Y019004D01*
X019907Y018955D01*
X019915Y018906D01*
X019919Y018856D01*
X019919Y018806D01*
X019915Y018756D01*
X019907Y018707D01*
X019895Y018658D01*
X019879Y018610D01*
X019860Y018564D01*
X019837Y018520D01*
X019810Y018477D01*
X019780Y018437D01*
X019748Y018399D01*
X019712Y018364D01*
X019673Y018332D01*
X019632Y018303D01*
X019589Y018277D01*
X019544Y018255D01*
X019498Y018237D01*
X019450Y018222D01*
X019401Y018211D01*
X019352Y018204D01*
X019302Y018201D01*
X019251Y018202D01*
X019202Y018207D01*
X019152Y018216D01*
X019104Y018229D01*
X019057Y018245D01*
X019011Y018266D01*
X018967Y018290D01*
X018925Y018317D01*
X018885Y018347D01*
X018848Y018381D01*
X018814Y018418D01*
X018782Y018457D01*
X018754Y018498D01*
X018729Y018542D01*
X018708Y018587D01*
X018691Y018634D01*
X018677Y018682D01*
X018667Y018731D01*
X018661Y018781D01*
X018659Y018831D01*
X018659Y001114D02*
X018661Y001164D01*
X018667Y001214D01*
X018677Y001263D01*
X018691Y001311D01*
X018708Y001358D01*
X018729Y001403D01*
X018754Y001447D01*
X018782Y001488D01*
X018814Y001527D01*
X018848Y001564D01*
X018885Y001598D01*
X018925Y001628D01*
X018967Y001655D01*
X019011Y001679D01*
X019057Y001700D01*
X019104Y001716D01*
X019152Y001729D01*
X019202Y001738D01*
X019251Y001743D01*
X019302Y001744D01*
X019352Y001741D01*
X019401Y001734D01*
X019450Y001723D01*
X019498Y001708D01*
X019544Y001690D01*
X019589Y001668D01*
X019632Y001642D01*
X019673Y001613D01*
X019712Y001581D01*
X019748Y001546D01*
X019780Y001508D01*
X019810Y001468D01*
X019837Y001425D01*
X019860Y001381D01*
X019879Y001335D01*
X019895Y001287D01*
X019907Y001238D01*
X019915Y001189D01*
X019919Y001139D01*
X019919Y001089D01*
X019915Y001039D01*
X019907Y000990D01*
X019895Y000941D01*
X019879Y000893D01*
X019860Y000847D01*
X019837Y000803D01*
X019810Y000760D01*
X019780Y000720D01*
X019748Y000682D01*
X019712Y000647D01*
X019673Y000615D01*
X019632Y000586D01*
X019589Y000560D01*
X019544Y000538D01*
X019498Y000520D01*
X019450Y000505D01*
X019401Y000494D01*
X019352Y000487D01*
X019302Y000484D01*
X019251Y000485D01*
X019202Y000490D01*
X019152Y000499D01*
X019104Y000512D01*
X019057Y000528D01*
X019011Y000549D01*
X018967Y000573D01*
X018925Y000600D01*
X018885Y000630D01*
X018848Y000664D01*
X018814Y000701D01*
X018782Y000740D01*
X018754Y000781D01*
X018729Y000825D01*
X018708Y000870D01*
X018691Y000917D01*
X018677Y000965D01*
X018667Y001014D01*
X018661Y001064D01*
X018659Y001114D01*
D11*
X016751Y010909D02*
X016824Y010982D01*
X016751Y010909D02*
X016604Y010909D01*
X016531Y010982D01*
X016531Y011276D01*
X016604Y011349D01*
X016751Y011349D01*
X016824Y011276D01*
X016309Y011276D02*
X016235Y011349D01*
X016089Y011349D01*
X016015Y011276D01*
X016015Y010982D01*
X016089Y010909D01*
X016235Y010909D01*
X016309Y010982D01*
X016309Y011129D01*
X016162Y011129D01*
X015793Y011202D02*
X015720Y011129D01*
X015500Y011129D01*
X015720Y011129D02*
X015793Y011056D01*
X015793Y010982D01*
X015720Y010909D01*
X015500Y010909D01*
X015500Y011349D01*
X015720Y011349D01*
X015793Y011276D01*
X015793Y011202D01*
X014762Y011202D02*
X014762Y011276D01*
X014688Y011349D01*
X014542Y011349D01*
X014468Y011276D01*
X014246Y011276D02*
X014246Y011202D01*
X014173Y011129D01*
X014246Y011056D01*
X014246Y010982D01*
X014173Y010909D01*
X014026Y010909D01*
X013953Y010982D01*
X014099Y011129D02*
X014173Y011129D01*
X014246Y011276D02*
X014173Y011349D01*
X014026Y011349D01*
X013953Y011276D01*
X013731Y011349D02*
X013731Y010909D01*
X013437Y010909D02*
X013437Y011349D01*
X013584Y011202D01*
X013731Y011349D01*
X013227Y011202D02*
X013154Y011202D01*
X013007Y011056D01*
X013007Y011202D02*
X013007Y010909D01*
X012785Y010982D02*
X012785Y011129D01*
X012712Y011202D01*
X012565Y011202D01*
X012492Y011129D01*
X012492Y010982D01*
X012565Y010909D01*
X012712Y010909D01*
X012785Y010982D01*
X012270Y011349D02*
X011976Y011349D01*
X012123Y011349D02*
X012123Y010909D01*
X011754Y010982D02*
X011681Y010909D01*
X011534Y010909D01*
X011460Y010982D01*
X011534Y011129D02*
X011681Y011129D01*
X011754Y011056D01*
X011754Y010982D01*
X011534Y011129D02*
X011460Y011202D01*
X011460Y011276D01*
X011534Y011349D01*
X011681Y011349D01*
X011754Y011276D01*
X014468Y010909D02*
X014762Y011202D01*
X014762Y010909D02*
X014468Y010909D01*
D12*
X018949Y012405D02*
X019219Y012405D01*
X019219Y012585D01*
X019174Y012700D02*
X019129Y012745D01*
X019129Y012880D01*
X019084Y012880D02*
X019219Y012880D01*
X019219Y012745D01*
X019174Y012700D01*
X019039Y012745D02*
X019039Y012835D01*
X019084Y012880D01*
X019039Y012994D02*
X019174Y012994D01*
X019219Y013039D01*
X019219Y013174D01*
X019264Y013174D02*
X019039Y013174D01*
X019084Y013289D02*
X019174Y013289D01*
X019219Y013334D01*
X019219Y013424D01*
X019174Y013469D01*
X019084Y013469D01*
X019039Y013424D01*
X019039Y013334D01*
X019084Y013289D01*
X019264Y013174D02*
X019309Y013129D01*
X019309Y013084D01*
X019449Y013289D02*
X019539Y013379D01*
X019449Y013469D01*
X019719Y013469D01*
X019674Y013584D02*
X019629Y013629D01*
X019629Y013764D01*
X019584Y013764D02*
X019719Y013764D01*
X019719Y013629D01*
X019674Y013584D01*
X019539Y013629D02*
X019539Y013719D01*
X019584Y013764D01*
X019629Y013878D02*
X019539Y013968D01*
X019539Y014013D01*
X019539Y014124D02*
X019539Y014214D01*
X019494Y014169D02*
X019674Y014169D01*
X019719Y014214D01*
X019719Y014320D02*
X019719Y014410D01*
X019719Y014365D02*
X019539Y014365D01*
X019539Y014320D01*
X019449Y014365D02*
X019404Y014365D01*
X019219Y014414D02*
X019174Y014369D01*
X019129Y014414D01*
X019129Y014549D01*
X019084Y014549D02*
X019219Y014549D01*
X019219Y014414D01*
X019039Y014414D02*
X019039Y014504D01*
X019084Y014549D01*
X019039Y014664D02*
X019039Y014799D01*
X019084Y014844D01*
X019219Y014844D01*
X019174Y014959D02*
X019084Y014959D01*
X019039Y015004D01*
X019039Y015139D01*
X018949Y015139D02*
X019219Y015139D01*
X019219Y015004D01*
X019174Y014959D01*
X019219Y014664D02*
X019039Y014664D01*
X019539Y014652D02*
X019539Y014517D01*
X019719Y014517D01*
X019719Y014697D02*
X019584Y014697D01*
X019539Y014652D01*
X019584Y014811D02*
X019539Y014856D01*
X019539Y014946D01*
X019584Y014991D01*
X019629Y014991D01*
X019629Y014811D01*
X019674Y014811D02*
X019584Y014811D01*
X019674Y014811D02*
X019719Y014856D01*
X019719Y014946D01*
X019719Y015106D02*
X019719Y015286D01*
X019539Y015286D02*
X019719Y015106D01*
X019539Y015106D02*
X019539Y015286D01*
X019539Y015695D02*
X019719Y015875D01*
X019719Y015785D02*
X019719Y015740D01*
X019674Y015695D01*
X019629Y015695D01*
X019539Y015785D01*
X019494Y015785D01*
X019449Y015740D01*
X019494Y015695D01*
X019539Y015695D01*
X019629Y015875D02*
X019719Y015785D01*
X019674Y016285D02*
X019494Y016285D01*
X019449Y016330D01*
X019449Y016420D01*
X019494Y016465D01*
X019674Y016465D01*
X019719Y016420D01*
X019719Y016330D01*
X019674Y016285D01*
X019719Y016579D02*
X019719Y016669D01*
X019719Y016624D02*
X019449Y016624D01*
X019449Y016579D01*
X019449Y016776D02*
X019449Y016821D01*
X019719Y016821D01*
X019719Y016776D02*
X019719Y016866D01*
X019719Y016972D02*
X019719Y017062D01*
X019719Y017017D02*
X019539Y017017D01*
X019539Y016972D01*
X019449Y017017D02*
X019404Y017017D01*
X019449Y017169D02*
X019719Y017169D01*
X019629Y017259D01*
X019719Y017349D01*
X019449Y017349D01*
X019219Y017103D02*
X019084Y017103D01*
X019039Y017058D01*
X019039Y016923D01*
X019219Y016923D01*
X019219Y016808D02*
X019219Y016673D01*
X019174Y016628D01*
X019084Y016628D01*
X019039Y016673D01*
X019039Y016808D01*
X019264Y016808D01*
X019309Y016763D01*
X019309Y016718D01*
X019219Y016522D02*
X019219Y016432D01*
X019219Y016477D02*
X019039Y016477D01*
X019039Y016432D01*
X018949Y016477D02*
X018904Y016477D01*
X019039Y016317D02*
X019039Y016182D01*
X019084Y016137D01*
X019129Y016182D01*
X019129Y016272D01*
X019174Y016317D01*
X019219Y016272D01*
X019219Y016137D01*
X019129Y016023D02*
X019129Y015843D01*
X019084Y015843D02*
X019039Y015888D01*
X019039Y015978D01*
X019084Y016023D01*
X019129Y016023D01*
X019219Y015978D02*
X019219Y015888D01*
X019174Y015843D01*
X019084Y015843D01*
X019174Y015728D02*
X018994Y015728D01*
X018949Y015683D01*
X018949Y015548D01*
X019219Y015548D01*
X019219Y015683D01*
X019174Y015728D01*
X019219Y013968D02*
X019174Y013923D01*
X018994Y013923D01*
X019039Y013878D02*
X019039Y013968D01*
X019039Y013764D02*
X019219Y013764D01*
X019219Y013629D01*
X019174Y013584D01*
X019039Y013584D01*
X019449Y013289D02*
X019719Y013289D01*
X019719Y012880D02*
X019719Y012745D01*
X019674Y012700D01*
X019539Y012700D01*
X019584Y012585D02*
X019539Y012540D01*
X019539Y012405D01*
X019449Y012405D02*
X019719Y012405D01*
X019719Y012540D01*
X019674Y012585D01*
X019584Y012585D01*
X019539Y012880D02*
X019764Y012880D01*
X019809Y012835D01*
X019809Y012790D01*
X019719Y013878D02*
X019539Y013878D01*
X018088Y005393D02*
X018088Y004193D01*
X018088Y003993D01*
X009936Y001693D02*
X009936Y001513D01*
X009891Y001468D01*
X009756Y001468D01*
X009756Y001738D01*
X009891Y001738D01*
X009936Y001693D01*
X009641Y001738D02*
X009641Y001468D01*
X009461Y001738D01*
X009461Y001468D01*
X009347Y001513D02*
X009347Y001603D01*
X009256Y001603D01*
X009166Y001693D02*
X009211Y001738D01*
X009301Y001738D01*
X009347Y001693D01*
X009347Y001513D02*
X009301Y001468D01*
X009211Y001468D01*
X009166Y001513D01*
X009166Y001693D01*
X008811Y001648D02*
X008631Y001468D01*
X008516Y001468D02*
X008426Y001558D01*
X008471Y001558D02*
X008336Y001558D01*
X008336Y001468D02*
X008336Y001738D01*
X008471Y001738D01*
X008516Y001693D01*
X008516Y001603D01*
X008471Y001558D01*
X008631Y001648D02*
X008811Y001468D01*
X007811Y001468D02*
X007631Y001648D01*
X007516Y001738D02*
X007336Y001738D01*
X007426Y001738D02*
X007426Y001468D01*
X007631Y001468D02*
X007811Y001648D01*
X005452Y009261D02*
X005622Y009379D01*
X005452Y009261D02*
X005363Y009388D01*
X005376Y009460D01*
X005503Y009549D01*
X005389Y009621D02*
X005347Y009591D01*
X005228Y009761D01*
X005186Y009731D02*
X005271Y009791D01*
X005343Y009778D01*
X005402Y009693D01*
X005389Y009621D01*
X005233Y009574D02*
X005173Y009659D01*
X005186Y009731D01*
X005121Y009825D02*
X005078Y009795D01*
X005049Y009837D01*
X005091Y009867D01*
X005121Y009825D01*
X005019Y009969D02*
X004947Y009982D01*
X004960Y010054D01*
X004888Y010067D01*
X004901Y010139D01*
X005028Y010228D01*
X004931Y010366D02*
X004761Y010248D01*
X004732Y010290D02*
X004791Y010205D01*
X004931Y010366D02*
X004901Y010409D01*
X005016Y010426D02*
X005058Y010455D01*
X004889Y010607D02*
X004635Y010429D01*
X004605Y010471D02*
X004664Y010386D01*
X004538Y010567D02*
X004478Y010652D01*
X004508Y010610D02*
X004762Y010788D01*
X004732Y010830D01*
X004534Y010843D02*
X004547Y010915D01*
X004487Y011000D01*
X004415Y011012D01*
X004330Y010953D01*
X004318Y010881D01*
X004377Y010796D01*
X004449Y010784D01*
X004534Y010843D01*
X004859Y010649D02*
X004889Y010607D01*
X005147Y010058D02*
X005019Y009969D01*
X004265Y011047D02*
X004223Y011017D01*
X004193Y011059D01*
X004235Y011089D01*
X004265Y011047D01*
X004164Y011191D02*
X004291Y011280D01*
X004164Y011191D02*
X004092Y011204D01*
X004105Y011276D01*
X004033Y011288D01*
X004045Y011360D01*
X004172Y011449D01*
X004101Y011552D02*
X003974Y011463D01*
X003902Y011475D01*
X003914Y011547D01*
X003842Y011560D01*
X003855Y011632D01*
X003982Y011721D01*
X003911Y011823D02*
X003784Y011734D01*
X003712Y011747D01*
X003724Y011819D01*
X003652Y011832D01*
X003665Y011904D01*
X003792Y011992D01*
X004329Y012949D02*
X002951Y012949D01*
X002951Y015311D01*
X004329Y015311D01*
X004329Y012949D01*
X008400Y010711D02*
X008400Y010111D01*
X008500Y010511D02*
X008800Y010511D01*
X008800Y010561D01*
X008500Y010561D01*
X008500Y010511D01*
X008900Y010711D02*
X008900Y010111D01*
D13*
X010070Y008332D02*
X010228Y008175D01*
X010228Y004710D01*
X010070Y004553D01*
X006606Y004553D01*
X006448Y004710D01*
X006448Y008175D01*
X006606Y008332D01*
X010070Y008332D01*
X011845Y006583D02*
X012081Y006583D01*
X012593Y005835D02*
X012593Y005363D01*
X012081Y004614D02*
X011845Y004614D01*
X011333Y005363D02*
X011333Y005835D01*
X013117Y008121D02*
X015481Y008121D01*
X015481Y010701D01*
X013117Y010701D01*
X013925Y006105D02*
X013925Y005967D01*
X013925Y006105D02*
X014063Y006105D01*
X015362Y006105D02*
X015500Y006105D01*
X015500Y005967D01*
X015500Y004668D02*
X015362Y004530D01*
X014063Y004530D02*
X013925Y004530D01*
X013925Y004668D01*
X010088Y001130D02*
X009838Y001380D01*
X009338Y001380D01*
X009088Y001130D01*
X008838Y001380D01*
X008338Y001380D01*
X008088Y001130D01*
X007838Y001380D01*
X007338Y001380D01*
X007088Y001130D01*
X007088Y000630D01*
X007338Y000380D01*
X007838Y000380D01*
X008088Y000630D01*
X008338Y000380D01*
X008838Y000380D01*
X009088Y000630D01*
X009338Y000380D01*
X009838Y000380D01*
X010088Y000630D01*
X010088Y001130D01*
X009183Y003108D02*
X009183Y003528D01*
X009323Y003528D02*
X009042Y003528D01*
X008862Y003458D02*
X008862Y003318D01*
X008792Y003248D01*
X008582Y003248D01*
X008722Y003248D02*
X008862Y003108D01*
X008582Y003108D02*
X008582Y003528D01*
X008792Y003528D01*
X008862Y003458D01*
X008402Y003388D02*
X008402Y003108D01*
X008402Y003318D02*
X008122Y003318D01*
X008122Y003388D02*
X008262Y003528D01*
X008402Y003388D01*
X008122Y003388D02*
X008122Y003108D01*
X007941Y003178D02*
X007941Y003528D01*
X007661Y003528D02*
X007661Y003178D01*
X007731Y003108D01*
X007871Y003108D01*
X007941Y003178D01*
X006885Y003114D02*
X006885Y002834D01*
X006815Y002764D01*
X006605Y002764D01*
X006605Y003184D01*
X006815Y003184D01*
X006885Y003114D01*
X006425Y003184D02*
X006425Y002764D01*
X006285Y002904D01*
X006145Y002764D01*
X006145Y003184D01*
X005964Y003114D02*
X005894Y003184D01*
X005754Y003184D01*
X005684Y003114D01*
X005684Y003044D01*
X005754Y002974D01*
X005894Y002974D01*
X005964Y002904D01*
X005964Y002834D01*
X005894Y002764D01*
X005754Y002764D01*
X005684Y002834D01*
X005588Y002630D02*
X005838Y002380D01*
X006088Y002630D01*
X006588Y002630D01*
X006838Y002380D01*
X006838Y001880D01*
X006588Y001630D01*
X006088Y001630D01*
X005838Y001880D01*
X005588Y001630D01*
X005088Y001630D01*
X004838Y001880D01*
X004588Y001630D01*
X004088Y001630D01*
X003838Y001880D01*
X003588Y001630D01*
X003088Y001630D01*
X002838Y001880D01*
X002838Y002380D01*
X003088Y002630D01*
X003588Y002630D01*
X003838Y002380D01*
X004088Y002630D01*
X004588Y002630D01*
X004838Y002380D01*
X005088Y002630D01*
X005588Y002630D01*
X005588Y001380D02*
X005088Y001380D01*
X004838Y001130D01*
X004588Y001380D01*
X004088Y001380D01*
X003838Y001130D01*
X003588Y001380D01*
X003088Y001380D01*
X002838Y001130D01*
X002838Y000630D01*
X003088Y000380D01*
X003588Y000380D01*
X003838Y000630D01*
X004088Y000380D01*
X004588Y000380D01*
X004838Y000630D01*
X005088Y000380D01*
X005588Y000380D01*
X005838Y000630D01*
X006088Y000380D01*
X006588Y000380D01*
X006838Y000630D01*
X006838Y001130D01*
X006588Y001380D01*
X006088Y001380D01*
X005838Y001130D01*
X005588Y001380D01*
X003002Y001523D02*
X002506Y001424D01*
X002429Y001601D02*
X002676Y001849D01*
X002804Y001722D02*
X002705Y001226D01*
X002429Y001601D02*
X002329Y001601D01*
X002230Y001700D01*
X002230Y001799D01*
X002478Y002047D01*
X002252Y002075D02*
X002252Y002274D01*
X002053Y002274D01*
X001855Y002075D01*
X002004Y002224D02*
X002202Y002026D01*
X002252Y002075D02*
X002053Y001877D01*
X002058Y002608D02*
X001988Y002678D01*
X002058Y002608D02*
X002198Y002608D01*
X002269Y002678D01*
X002269Y002748D01*
X002198Y002818D01*
X002128Y002818D01*
X002198Y002818D02*
X002269Y002888D01*
X002269Y002958D01*
X002198Y003028D01*
X002058Y003028D01*
X001988Y002958D01*
X001828Y002678D02*
X001828Y002608D01*
X001758Y002608D01*
X001758Y002678D01*
X001828Y002678D01*
X001578Y002678D02*
X001508Y002608D01*
X001368Y002608D01*
X001298Y002678D01*
X001438Y002818D02*
X001508Y002818D01*
X001578Y002748D01*
X001578Y002678D01*
X001508Y002818D02*
X001578Y002888D01*
X001578Y002958D01*
X001508Y003028D01*
X001368Y003028D01*
X001298Y002958D01*
X001951Y003884D02*
X002778Y003884D01*
X002729Y003028D02*
X002729Y002748D01*
X002589Y002608D01*
X002449Y002748D01*
X002449Y003028D01*
X003762Y004160D02*
X003762Y004514D01*
X003762Y006246D02*
X003762Y006600D01*
X002778Y006876D02*
X001951Y006876D01*
X002128Y007295D02*
X002268Y007295D01*
X002198Y007295D02*
X002198Y007715D01*
X002128Y007715D02*
X002268Y007715D01*
X002435Y007715D02*
X002645Y007715D01*
X002715Y007645D01*
X002715Y007505D01*
X002645Y007435D01*
X002435Y007435D01*
X002575Y007435D02*
X002715Y007295D01*
X002435Y007295D02*
X002435Y007715D01*
X002588Y007880D02*
X002088Y007880D01*
X001838Y008130D01*
X001588Y007880D01*
X001088Y007880D01*
X000838Y008130D01*
X000838Y008630D01*
X001088Y008880D01*
X001588Y008880D01*
X001838Y008630D01*
X002088Y008880D01*
X002588Y008880D01*
X002838Y008630D01*
X002838Y008130D01*
X002588Y007880D01*
X001803Y009216D02*
X001803Y011794D01*
X000622Y011794D01*
X000622Y009216D01*
X001803Y009216D01*
X001940Y011733D02*
X002080Y011733D01*
X002010Y011733D02*
X002010Y012153D01*
X001940Y012153D02*
X002080Y012153D01*
X002247Y012083D02*
X002317Y012153D01*
X002457Y012153D01*
X002528Y012083D01*
X002528Y012013D01*
X002247Y011733D01*
X002528Y011733D01*
X002708Y011803D02*
X002778Y011733D01*
X002918Y011733D01*
X002988Y011803D01*
X002988Y012083D02*
X002918Y012153D01*
X002778Y012153D01*
X002708Y012083D01*
X002708Y011803D01*
X001838Y012380D02*
X001838Y012880D01*
X001588Y013130D01*
X001838Y013380D01*
X001838Y013880D01*
X001588Y014130D01*
X001838Y014380D01*
X001838Y014880D01*
X001588Y015130D01*
X001838Y015380D01*
X001838Y015880D01*
X001588Y016130D01*
X001838Y016380D01*
X001838Y016880D01*
X001588Y017130D01*
X001088Y017130D01*
X000838Y016880D01*
X000838Y016380D01*
X001088Y016130D01*
X000838Y015880D01*
X000838Y015380D01*
X001088Y015130D01*
X000838Y014880D01*
X000838Y014380D01*
X001088Y014130D01*
X000838Y013880D01*
X000838Y013380D01*
X001088Y013130D01*
X000838Y012880D01*
X000838Y012380D01*
X001088Y012130D01*
X001588Y012130D01*
X001838Y012380D01*
X002088Y013130D02*
X002588Y013130D01*
X002838Y013380D01*
X002838Y013880D01*
X002588Y014130D01*
X002838Y014380D01*
X002838Y014880D01*
X002588Y015130D01*
X002838Y015380D01*
X002838Y015880D01*
X002588Y016130D01*
X002838Y016380D01*
X002838Y016880D01*
X002588Y017130D01*
X002088Y017130D01*
X001838Y016880D01*
X001838Y016380D01*
X002088Y016130D01*
X001838Y015880D01*
X001838Y015380D01*
X002088Y015130D01*
X001838Y014880D01*
X001838Y014380D01*
X002088Y014130D01*
X001838Y013880D01*
X001838Y013380D01*
X002088Y013130D01*
X003073Y016514D02*
X003213Y016514D01*
X003283Y016584D01*
X003283Y016724D01*
X003143Y016724D01*
X003283Y016864D02*
X003213Y016934D01*
X003073Y016934D01*
X003003Y016864D01*
X003003Y016584D01*
X003073Y016514D01*
X003463Y016514D02*
X003463Y016934D01*
X003743Y016514D01*
X003743Y016934D01*
X003924Y016934D02*
X004134Y016934D01*
X004204Y016864D01*
X004204Y016584D01*
X004134Y016514D01*
X003924Y016514D01*
X003924Y016934D01*
X003118Y017365D02*
X003048Y017295D01*
X002908Y017295D01*
X002838Y017365D01*
X002838Y017645D01*
X002908Y017715D01*
X003048Y017715D01*
X003118Y017645D01*
X003175Y017920D02*
X003315Y017920D01*
X003385Y017990D01*
X003385Y018270D01*
X003315Y018340D01*
X003175Y018340D01*
X003105Y018270D01*
X003105Y017990D01*
X003175Y017920D01*
X002925Y017920D02*
X002925Y018340D01*
X002785Y018200D01*
X002645Y018340D01*
X002645Y017920D01*
X002588Y017715D02*
X002378Y017715D01*
X002378Y017295D01*
X002378Y017435D02*
X002588Y017435D01*
X002658Y017505D01*
X002658Y017645D01*
X002588Y017715D01*
X002518Y017435D02*
X002658Y017295D01*
X002016Y017295D02*
X001736Y017295D01*
X002016Y017575D01*
X002016Y017645D01*
X001946Y017715D01*
X001806Y017715D01*
X001736Y017645D01*
X001556Y017645D02*
X001486Y017715D01*
X001346Y017715D01*
X001276Y017645D01*
X001276Y017365D01*
X001346Y017295D01*
X001486Y017295D01*
X001556Y017365D01*
X001096Y017295D02*
X000955Y017435D01*
X001026Y017435D02*
X000815Y017435D01*
X000815Y017295D02*
X000815Y017715D01*
X001026Y017715D01*
X001096Y017645D01*
X001096Y017505D01*
X001026Y017435D01*
X003088Y018755D02*
X003338Y018505D01*
X003838Y018505D01*
X004088Y018755D01*
X004338Y018505D01*
X004838Y018505D01*
X005088Y018755D01*
X005338Y018505D01*
X005838Y018505D01*
X006088Y018755D01*
X006088Y019255D01*
X005838Y019505D01*
X005338Y019505D01*
X005088Y019255D01*
X004838Y019505D01*
X004338Y019505D01*
X004088Y019255D01*
X003838Y019505D01*
X003338Y019505D01*
X003088Y019255D01*
X003088Y018755D01*
X003565Y018340D02*
X003846Y018340D01*
X003705Y018340D02*
X003705Y017920D01*
X004026Y017990D02*
X004306Y018270D01*
X004306Y017990D01*
X004236Y017920D01*
X004096Y017920D01*
X004026Y017990D01*
X004026Y018270D01*
X004096Y018340D01*
X004236Y018340D01*
X004306Y018270D01*
X008145Y018340D02*
X008145Y017920D01*
X008425Y017920D02*
X008425Y018340D01*
X008285Y018200D01*
X008145Y018340D01*
X008605Y018270D02*
X008605Y017990D01*
X008675Y017920D01*
X008815Y017920D01*
X008885Y017990D01*
X008885Y018270D01*
X008815Y018340D01*
X008675Y018340D01*
X008605Y018270D01*
X008838Y018505D02*
X009338Y018505D01*
X009588Y018755D01*
X009838Y018505D01*
X010338Y018505D01*
X010588Y018755D01*
X010838Y018505D01*
X011338Y018505D01*
X011588Y018755D01*
X011588Y019255D01*
X011338Y019505D01*
X010838Y019505D01*
X010588Y019255D01*
X010338Y019505D01*
X009838Y019505D01*
X009588Y019255D01*
X009338Y019505D01*
X008838Y019505D01*
X008588Y019255D01*
X008588Y018755D01*
X008838Y018505D01*
X009065Y018340D02*
X009346Y018340D01*
X009205Y018340D02*
X009205Y017920D01*
X009526Y017920D02*
X009806Y017920D01*
X009666Y017920D02*
X009666Y018340D01*
X009526Y018200D01*
X013645Y018340D02*
X013645Y017920D01*
X013925Y017920D02*
X013925Y018340D01*
X013785Y018200D01*
X013645Y018340D01*
X014105Y018270D02*
X014105Y017990D01*
X014175Y017920D01*
X014315Y017920D01*
X014385Y017990D01*
X014385Y018270D01*
X014315Y018340D01*
X014175Y018340D01*
X014105Y018270D01*
X014338Y018505D02*
X014838Y018505D01*
X015088Y018755D01*
X015338Y018505D01*
X015838Y018505D01*
X016088Y018755D01*
X016338Y018505D01*
X016838Y018505D01*
X017088Y018755D01*
X017088Y019255D01*
X016838Y019505D01*
X016338Y019505D01*
X016088Y019255D01*
X015838Y019505D01*
X015338Y019505D01*
X015088Y019255D01*
X014838Y019505D01*
X014338Y019505D01*
X014088Y019255D01*
X014088Y018755D01*
X014338Y018505D01*
X014565Y018340D02*
X014846Y018340D01*
X014705Y018340D02*
X014705Y017920D01*
X015026Y017920D02*
X015306Y018200D01*
X015306Y018270D01*
X015236Y018340D01*
X015096Y018340D01*
X015026Y018270D01*
X015026Y017920D02*
X015306Y017920D01*
X018409Y010115D02*
X018409Y009835D01*
X018409Y009975D02*
X018829Y009975D01*
X018963Y009630D02*
X019213Y009880D01*
X019713Y009880D01*
X019963Y009630D01*
X019963Y009130D01*
X019713Y008880D01*
X019963Y008630D01*
X019963Y008130D01*
X019713Y007880D01*
X019213Y007880D01*
X018963Y008130D01*
X018963Y008630D01*
X019213Y008880D01*
X018963Y009130D01*
X018963Y009630D01*
X018829Y009584D02*
X018759Y009654D01*
X018409Y009654D01*
X018409Y009374D02*
X018759Y009374D01*
X018829Y009444D01*
X018829Y009584D01*
X018759Y009194D02*
X018829Y009124D01*
X018829Y008914D01*
X018409Y008914D01*
X018409Y009124D01*
X018479Y009194D01*
X018549Y009194D01*
X018619Y009124D01*
X018619Y008914D01*
X018619Y009124D02*
X018689Y009194D01*
X018759Y009194D01*
X019213Y007630D02*
X019713Y007630D01*
X019963Y007380D01*
X019963Y006880D01*
X019713Y006630D01*
X019963Y006380D01*
X019963Y005880D01*
X019713Y005630D01*
X019963Y005380D01*
X019963Y004880D01*
X019713Y004630D01*
X019963Y004380D01*
X019963Y003880D01*
X019713Y003630D01*
X019963Y003380D01*
X019963Y002880D01*
X019713Y002630D01*
X019213Y002630D01*
X018963Y002880D01*
X018963Y003380D01*
X019213Y003630D01*
X018963Y003880D01*
X018963Y004380D01*
X019213Y004630D01*
X018963Y004880D01*
X018963Y005380D01*
X019213Y005630D01*
X018963Y005880D01*
X018963Y006380D01*
X019213Y006630D01*
X018963Y006880D01*
X018963Y007380D01*
X019213Y007630D01*
X019340Y002465D02*
X019270Y002395D01*
X019270Y002115D01*
X019340Y002045D01*
X019480Y002045D01*
X019550Y002115D01*
X019550Y002395D01*
X019480Y002465D01*
X019340Y002465D01*
X019089Y002395D02*
X019089Y002255D01*
X019019Y002185D01*
X018809Y002185D01*
X018809Y002045D02*
X018809Y002465D01*
X019019Y002465D01*
X019089Y002395D01*
X019730Y002465D02*
X020010Y002465D01*
X019870Y002465D02*
X019870Y002045D01*
D14*
X018826Y003973D02*
X018712Y003973D01*
X018656Y004029D01*
X018883Y004256D01*
X018883Y004029D01*
X018826Y003973D01*
X018656Y004029D02*
X018656Y004256D01*
X018712Y004313D01*
X018826Y004313D01*
X018883Y004256D01*
X018588Y004123D02*
X018588Y004493D01*
X018588Y004893D01*
X018588Y005263D01*
X018656Y005199D02*
X018769Y005313D01*
X018769Y004973D01*
X018656Y004973D02*
X018883Y004973D01*
X018588Y004893D02*
X018561Y004891D01*
X018534Y004886D01*
X018508Y004876D01*
X018484Y004864D01*
X018462Y004848D01*
X018442Y004830D01*
X018425Y004808D01*
X018410Y004785D01*
X018400Y004760D01*
X018392Y004734D01*
X018388Y004707D01*
X018388Y004679D01*
X018392Y004652D01*
X018400Y004626D01*
X018410Y004601D01*
X018425Y004578D01*
X018442Y004556D01*
X018462Y004538D01*
X018484Y004522D01*
X018508Y004510D01*
X018534Y004500D01*
X018561Y004495D01*
X018588Y004493D01*
X018588Y004123D02*
X018586Y004100D01*
X018581Y004077D01*
X018572Y004055D01*
X018559Y004035D01*
X018544Y004017D01*
X018526Y004002D01*
X018506Y003989D01*
X018484Y003980D01*
X018461Y003975D01*
X018438Y003973D01*
X016738Y003973D01*
X016715Y003975D01*
X016692Y003980D01*
X016670Y003989D01*
X016650Y004002D01*
X016632Y004017D01*
X016617Y004035D01*
X016604Y004055D01*
X016595Y004077D01*
X016590Y004100D01*
X016588Y004123D01*
X016588Y005263D01*
X016590Y005286D01*
X016595Y005309D01*
X016604Y005331D01*
X016617Y005351D01*
X016632Y005369D01*
X016650Y005384D01*
X016670Y005397D01*
X016692Y005406D01*
X016715Y005411D01*
X016738Y005413D01*
X018438Y005413D01*
X018461Y005411D01*
X018484Y005406D01*
X018506Y005397D01*
X018526Y005384D01*
X018544Y005369D01*
X018559Y005351D01*
X018572Y005331D01*
X018581Y005309D01*
X018586Y005286D01*
X018588Y005263D01*
X018593Y005973D02*
X018820Y006199D01*
X018820Y006256D01*
X018763Y006313D01*
X018650Y006313D01*
X018593Y006256D01*
X018593Y005973D02*
X018820Y005973D01*
X018139Y007193D02*
X017785Y007193D01*
X017785Y007942D01*
X018139Y007942D01*
X018139Y007922D01*
X017785Y007942D02*
X017037Y007942D01*
X017037Y007922D01*
X017037Y007213D02*
X017037Y007193D01*
X017785Y007193D01*
X018139Y007213D02*
X018139Y007193D01*
X018244Y009130D02*
X017307Y009130D01*
X017307Y009224D01*
X018244Y009224D01*
X018244Y009130D01*
X018327Y010162D02*
X017972Y010162D01*
X017972Y010910D01*
X018327Y010910D01*
X018327Y010891D01*
X017972Y010910D02*
X017224Y010910D01*
X017224Y010891D01*
X017224Y010182D02*
X017224Y010162D01*
X017972Y010162D01*
X018327Y010182D02*
X018327Y010162D01*
X018000Y011693D02*
X017350Y011693D01*
X017350Y011773D01*
X016950Y011773D01*
X016950Y011693D01*
X016300Y011693D01*
X016300Y013693D01*
X018000Y013693D01*
X018000Y011693D01*
X017350Y011693D02*
X016950Y011693D01*
X016950Y013880D02*
X016300Y013880D01*
X016300Y015880D01*
X018000Y015880D01*
X018000Y013880D01*
X017350Y013880D01*
X017350Y013960D01*
X016950Y013960D01*
X016950Y013880D01*
X017350Y013880D01*
X017350Y016068D02*
X016950Y016068D01*
X016950Y016148D01*
X017350Y016148D01*
X017350Y016068D01*
X018000Y016068D01*
X018000Y018068D01*
X016300Y018068D01*
X016300Y016068D01*
X016950Y016068D01*
X014682Y015224D02*
X014682Y015130D01*
X013619Y015130D01*
X013619Y015224D01*
X014682Y015224D01*
X012375Y015880D02*
X012375Y013880D01*
X011725Y013880D01*
X011725Y013960D01*
X011325Y013960D01*
X011325Y013880D01*
X010675Y013880D01*
X010675Y015880D01*
X012375Y015880D01*
X012375Y016068D02*
X011725Y016068D01*
X011725Y016148D01*
X011325Y016148D01*
X011325Y016068D01*
X010675Y016068D01*
X010675Y018068D01*
X012375Y018068D01*
X012375Y016068D01*
X011725Y016068D02*
X011325Y016068D01*
X011325Y013880D02*
X011725Y013880D01*
X012375Y013693D02*
X012375Y011693D01*
X011725Y011693D01*
X011725Y011773D01*
X011325Y011773D01*
X011325Y011693D01*
X010675Y011693D01*
X010675Y013693D01*
X012375Y013693D01*
X011725Y011693D02*
X011325Y011693D01*
X011557Y009630D02*
X011557Y009536D01*
X012119Y009536D01*
X012119Y009630D01*
X011557Y009630D01*
X006994Y009818D02*
X006994Y010068D01*
X006994Y009818D02*
X006432Y009818D01*
X006432Y010068D01*
X006432Y010755D02*
X006432Y011005D01*
X006994Y011005D01*
X006994Y010755D01*
X006875Y011693D02*
X006225Y011693D01*
X006225Y011773D01*
X005825Y011773D01*
X005825Y011693D01*
X005175Y011693D01*
X005175Y013693D01*
X006875Y013693D01*
X006875Y011693D01*
X006225Y011693D02*
X005825Y011693D01*
X005825Y013880D02*
X005175Y013880D01*
X005175Y015880D01*
X006875Y015880D01*
X006875Y013880D01*
X006225Y013880D01*
X006225Y013960D01*
X005825Y013960D01*
X005825Y013880D01*
X006225Y013880D01*
X008057Y015130D02*
X008057Y015224D01*
X009119Y015224D01*
X009119Y015130D01*
X008057Y015130D01*
X006875Y016068D02*
X006225Y016068D01*
X006225Y016148D01*
X005825Y016148D01*
X005825Y016068D01*
X005175Y016068D01*
X005175Y018068D01*
X006875Y018068D01*
X006875Y016068D01*
X006225Y016068D02*
X005825Y016068D01*
X004427Y016161D02*
X004370Y016104D01*
X004427Y016161D02*
X004427Y016274D01*
X004370Y016331D01*
X004313Y016331D01*
X004257Y016274D01*
X004257Y016161D01*
X004200Y016104D01*
X004143Y016104D01*
X004087Y016161D01*
X004087Y016274D01*
X004143Y016331D01*
X004087Y015963D02*
X004087Y015793D01*
X004143Y015736D01*
X004257Y015736D01*
X004313Y015793D01*
X004313Y015963D01*
X003973Y015963D01*
X003739Y015967D02*
X003739Y015854D01*
X003683Y015797D01*
X003569Y015854D02*
X003569Y015967D01*
X003626Y016024D01*
X003683Y016024D01*
X003739Y015967D01*
X003569Y015854D02*
X003513Y015797D01*
X003456Y015797D01*
X003399Y015854D01*
X003399Y015967D01*
X003456Y016024D01*
X003220Y015762D02*
X002993Y015535D01*
X003050Y015479D01*
X003163Y015479D01*
X003220Y015535D01*
X003220Y015762D01*
X003163Y015819D01*
X003050Y015819D01*
X002993Y015762D01*
X002993Y015535D01*
X003399Y015486D02*
X003399Y015656D01*
X003739Y015656D01*
X003739Y015486D01*
X003683Y015429D01*
X003626Y015429D01*
X003569Y015486D01*
X003569Y015656D01*
X003569Y015486D02*
X003513Y015429D01*
X003456Y015429D01*
X003399Y015486D01*
X004087Y015424D02*
X004200Y015594D01*
X004313Y015424D01*
X004427Y015594D02*
X004087Y015594D01*
X003163Y012788D02*
X003050Y012788D01*
X002993Y012731D01*
X003106Y012618D02*
X003163Y012618D01*
X003220Y012561D01*
X003220Y012504D01*
X003163Y012448D01*
X003050Y012448D01*
X002993Y012504D01*
X003163Y012618D02*
X003220Y012674D01*
X003220Y012731D01*
X003163Y012788D01*
X004243Y008881D02*
X004243Y008654D01*
X004243Y008513D02*
X004243Y008286D01*
X004243Y008145D02*
X004243Y007974D01*
X004300Y007918D01*
X004526Y007918D01*
X004583Y007974D01*
X004583Y008145D01*
X004243Y008145D01*
X004413Y008400D02*
X004413Y008513D01*
X004583Y008513D02*
X004583Y008286D01*
X004805Y008286D02*
X004805Y008513D01*
X005146Y008513D01*
X005146Y008286D01*
X005146Y008145D02*
X005146Y007974D01*
X005089Y007918D01*
X004862Y007918D01*
X004805Y007974D01*
X004805Y008145D01*
X005146Y008145D01*
X004975Y008400D02*
X004975Y008513D01*
X004805Y008654D02*
X004805Y008881D01*
X005146Y008881D01*
X004583Y008881D02*
X004243Y008881D01*
X004243Y008513D02*
X004583Y008513D01*
X004470Y007776D02*
X004583Y007663D01*
X004243Y007663D01*
X004243Y007776D02*
X004243Y007549D01*
X004805Y007606D02*
X004862Y007549D01*
X005089Y007549D01*
X004862Y007776D01*
X004805Y007720D01*
X004805Y007606D01*
X004862Y007776D02*
X005089Y007776D01*
X005146Y007720D01*
X005146Y007606D01*
X005089Y007549D01*
X005275Y004786D02*
X005494Y004786D01*
X005494Y004224D01*
X005275Y004224D01*
X004557Y004224D02*
X004307Y004224D01*
X004307Y004786D01*
X004557Y004786D01*
X010124Y003423D02*
X010124Y003196D01*
X010124Y003309D02*
X010464Y003309D01*
X010464Y003054D02*
X010464Y002827D01*
X010124Y002827D01*
X010124Y003054D01*
X010294Y002941D02*
X010294Y002827D01*
X010351Y002686D02*
X010407Y002686D01*
X010464Y002629D01*
X010464Y002516D01*
X010407Y002459D01*
X010294Y002516D02*
X010294Y002629D01*
X010351Y002686D01*
X010181Y002686D02*
X010124Y002629D01*
X010124Y002516D01*
X010181Y002459D01*
X010237Y002459D01*
X010294Y002516D01*
X010464Y002318D02*
X010464Y002091D01*
X010124Y002091D01*
X010124Y002318D01*
X010294Y002204D02*
X010294Y002091D01*
X010294Y001949D02*
X010181Y001949D01*
X010124Y001893D01*
X010124Y001723D01*
X010464Y001723D01*
X010351Y001723D02*
X010351Y001893D01*
X010294Y001949D01*
X010351Y001836D02*
X010464Y001949D01*
X010747Y001273D02*
X010747Y002737D01*
X010749Y002758D01*
X010754Y002778D01*
X010762Y002798D01*
X010773Y002816D01*
X010786Y002832D01*
X010802Y002845D01*
X010820Y002856D01*
X010840Y002864D01*
X010860Y002869D01*
X010881Y002871D01*
X011041Y002989D02*
X010629Y002989D01*
X010629Y001021D01*
X011041Y001021D01*
X010881Y001139D02*
X010860Y001141D01*
X010840Y001146D01*
X010820Y001154D01*
X010802Y001165D01*
X010786Y001178D01*
X010773Y001194D01*
X010762Y001212D01*
X010754Y001232D01*
X010749Y001252D01*
X010747Y001273D01*
X011635Y001021D02*
X012046Y001021D01*
X012046Y002989D01*
X011635Y002989D01*
X011795Y002871D02*
X011816Y002869D01*
X011836Y002864D01*
X011856Y002856D01*
X011874Y002845D01*
X011890Y002832D01*
X011903Y002816D01*
X011914Y002798D01*
X011922Y002778D01*
X011927Y002758D01*
X011929Y002737D01*
X011928Y002737D02*
X011928Y001273D01*
X011929Y001273D02*
X011927Y001252D01*
X011922Y001232D01*
X011914Y001212D01*
X011903Y001194D01*
X011890Y001178D01*
X011874Y001165D01*
X011856Y001154D01*
X011836Y001146D01*
X011816Y001141D01*
X011795Y001139D01*
X012254Y001021D02*
X012254Y002989D01*
X012666Y002989D01*
X012506Y002871D02*
X012485Y002869D01*
X012465Y002864D01*
X012445Y002856D01*
X012427Y002845D01*
X012411Y002832D01*
X012398Y002816D01*
X012387Y002798D01*
X012379Y002778D01*
X012374Y002758D01*
X012372Y002737D01*
X012372Y001273D01*
X012374Y001252D01*
X012379Y001232D01*
X012387Y001212D01*
X012398Y001194D01*
X012411Y001178D01*
X012427Y001165D01*
X012445Y001154D01*
X012465Y001146D01*
X012485Y001141D01*
X012506Y001139D01*
X012666Y001021D02*
X012254Y001021D01*
X013260Y001021D02*
X013671Y001021D01*
X013671Y002989D01*
X013260Y002989D01*
X013420Y002871D02*
X013441Y002869D01*
X013461Y002864D01*
X013481Y002856D01*
X013499Y002845D01*
X013515Y002832D01*
X013528Y002816D01*
X013539Y002798D01*
X013547Y002778D01*
X013552Y002758D01*
X013554Y002737D01*
X013553Y002737D02*
X013553Y001273D01*
X013554Y001273D02*
X013552Y001252D01*
X013547Y001232D01*
X013539Y001212D01*
X013528Y001194D01*
X013515Y001178D01*
X013499Y001165D01*
X013481Y001154D01*
X013461Y001146D01*
X013441Y001141D01*
X013420Y001139D01*
X013780Y001723D02*
X013780Y001893D01*
X013837Y001949D01*
X013893Y001949D01*
X013950Y001893D01*
X013950Y001723D01*
X013950Y001893D02*
X014007Y001949D01*
X014064Y001949D01*
X014120Y001893D01*
X014120Y001723D01*
X013780Y001723D01*
X013837Y002091D02*
X014064Y002091D01*
X014120Y002148D01*
X014120Y002261D01*
X014064Y002318D01*
X013837Y002318D01*
X013780Y002261D01*
X013780Y002148D01*
X013837Y002091D01*
X013837Y002459D02*
X014064Y002459D01*
X014120Y002516D01*
X014120Y002629D01*
X014064Y002686D01*
X013837Y002686D01*
X013780Y002629D01*
X013780Y002516D01*
X013837Y002459D01*
X013780Y002827D02*
X013780Y003054D01*
X013780Y002941D02*
X014120Y002941D01*
X014064Y003196D02*
X013837Y003196D01*
X013780Y003252D01*
X013780Y003366D01*
X013837Y003423D01*
X014064Y003196D01*
X014120Y003252D01*
X014120Y003366D01*
X014064Y003423D01*
X013837Y003423D01*
X014399Y001032D02*
X014569Y001032D01*
X014626Y000975D01*
X014626Y000918D01*
X014569Y000861D01*
X014399Y000861D01*
X014399Y000691D02*
X014569Y000691D01*
X014626Y000748D01*
X014626Y000805D01*
X014569Y000861D01*
X014399Y000691D02*
X014399Y001032D01*
X014767Y001032D02*
X014994Y001032D01*
X014881Y001032D02*
X014881Y000691D01*
D15*
X014955Y002255D02*
X015488Y002255D01*
X017705Y002255D02*
X018238Y002255D01*
X017971Y002522D02*
X017971Y001988D01*
D16*
X017945Y002744D02*
X018008Y002807D01*
X018008Y002934D01*
X017882Y002934D01*
X018008Y003061D02*
X017945Y003124D01*
X017818Y003124D01*
X017755Y003061D01*
X017755Y002807D01*
X017818Y002744D01*
X017945Y002744D01*
X018169Y002744D02*
X018169Y003124D01*
X018423Y002744D01*
X018423Y003124D01*
X018583Y003124D02*
X018774Y003124D01*
X018837Y003061D01*
X018837Y002807D01*
X018774Y002744D01*
X018583Y002744D01*
X018583Y003124D01*
X018679Y006665D02*
X018806Y006792D01*
X018806Y007045D01*
X018552Y007045D02*
X018552Y006792D01*
X018679Y006665D01*
X018391Y006728D02*
X018328Y006665D01*
X018201Y006665D01*
X018138Y006728D01*
X017994Y006728D02*
X017994Y006665D01*
X017931Y006665D01*
X017931Y006728D01*
X017994Y006728D01*
X017770Y006728D02*
X017770Y006792D01*
X017707Y006855D01*
X017643Y006855D01*
X017707Y006855D02*
X017770Y006919D01*
X017770Y006982D01*
X017707Y007045D01*
X017580Y007045D01*
X017516Y006982D01*
X017516Y006728D02*
X017580Y006665D01*
X017707Y006665D01*
X017770Y006728D01*
X018138Y006982D02*
X018201Y007045D01*
X018328Y007045D01*
X018391Y006982D01*
X018391Y006919D01*
X018328Y006855D01*
X018391Y006792D01*
X018391Y006728D01*
X018328Y006855D02*
X018265Y006855D01*
D17*
X004513Y009736D02*
X004502Y009732D01*
X004485Y009732D01*
X004454Y009733D01*
X004423Y009736D01*
X004311Y009737D01*
X004238Y009732D01*
X004216Y009732D01*
X004205Y009733D01*
X004202Y009745D01*
X004211Y009752D01*
X004240Y009754D01*
X004263Y009757D01*
X004275Y009765D01*
X004279Y009908D01*
X004270Y009847D01*
X004268Y009861D01*
X004262Y009862D01*
X004256Y009859D01*
X004214Y009805D01*
X004188Y009769D01*
X004162Y009738D01*
X004156Y009732D01*
X004152Y009733D01*
X004144Y009740D01*
X004093Y009790D01*
X004057Y009831D01*
X004234Y009831D01*
X004235Y009832D02*
X004056Y009832D01*
X004057Y009831D02*
X004035Y009855D01*
X004253Y009855D01*
X004254Y009856D02*
X003987Y009856D01*
X003987Y009855D02*
X004021Y009855D01*
X004025Y009856D02*
X004016Y009853D01*
X004017Y009837D01*
X004021Y009813D01*
X003984Y009813D01*
X003984Y009814D02*
X004021Y009814D01*
X004021Y009813D02*
X004036Y009789D01*
X003979Y009789D01*
X003979Y009790D02*
X004035Y009790D01*
X004036Y009789D02*
X004058Y009766D01*
X004084Y009757D01*
X004094Y009755D01*
X004100Y009749D01*
X004101Y009743D01*
X004100Y009738D01*
X004093Y009735D01*
X004081Y009734D01*
X004059Y009738D01*
X004010Y009738D01*
X003963Y009735D01*
X003931Y009731D01*
X003919Y009733D01*
X003913Y009739D01*
X003915Y009749D01*
X003926Y009752D01*
X003941Y009755D01*
X003967Y009761D01*
X003975Y009769D01*
X003978Y009784D01*
X003985Y009817D01*
X003990Y009923D01*
X003987Y009973D01*
X003979Y010001D01*
X003968Y010008D01*
X004112Y010008D01*
X004111Y010009D02*
X003956Y010009D01*
X003952Y010010D02*
X003923Y010012D01*
X003914Y010019D01*
X003913Y010027D01*
X003918Y010035D01*
X003926Y010037D01*
X003940Y010039D01*
X004073Y010039D01*
X004086Y010032D01*
X003916Y010032D01*
X003917Y010033D02*
X004083Y010033D01*
X004086Y010032D02*
X004108Y010013D01*
X004179Y009929D01*
X004208Y009891D01*
X003988Y009891D01*
X003988Y009892D02*
X004207Y009892D01*
X004208Y009891D02*
X004225Y009874D01*
X004237Y009888D01*
X004280Y009946D01*
X004326Y010005D01*
X004351Y010032D01*
X004371Y010034D01*
X004439Y010034D01*
X004492Y010037D01*
X004505Y010034D01*
X004510Y010026D01*
X004506Y010019D01*
X004498Y010016D01*
X004474Y010015D01*
X004443Y010010D01*
X004434Y009996D01*
X004434Y009975D01*
X004302Y009975D01*
X004301Y009973D02*
X004434Y009973D01*
X004434Y009972D02*
X004300Y009972D01*
X004299Y009970D02*
X004434Y009970D01*
X004435Y009969D02*
X004298Y009969D01*
X004297Y009967D02*
X004435Y009967D01*
X004435Y009966D02*
X004295Y009966D01*
X004294Y009964D02*
X004435Y009964D01*
X004435Y009963D02*
X004293Y009963D01*
X004292Y009961D02*
X004435Y009961D01*
X004436Y009960D02*
X004291Y009960D01*
X004290Y009958D02*
X004436Y009958D01*
X004436Y009957D02*
X004288Y009957D01*
X004287Y009955D02*
X004436Y009955D01*
X004436Y009954D02*
X004286Y009954D01*
X004285Y009952D02*
X004436Y009952D01*
X004437Y009951D02*
X004284Y009951D01*
X004283Y009949D02*
X004437Y009949D01*
X004437Y009948D02*
X004281Y009948D01*
X004280Y009946D02*
X004437Y009946D01*
X004437Y009945D02*
X004279Y009945D01*
X004278Y009943D02*
X004438Y009943D01*
X004438Y009942D02*
X004277Y009942D01*
X004276Y009940D02*
X004438Y009940D01*
X004438Y009939D02*
X004275Y009939D01*
X004273Y009937D02*
X004438Y009937D01*
X004438Y009936D02*
X004272Y009936D01*
X004271Y009934D02*
X004439Y009934D01*
X004439Y009933D02*
X004270Y009933D01*
X004269Y009931D02*
X004439Y009931D01*
X004439Y009930D02*
X004268Y009930D01*
X004267Y009928D02*
X004439Y009928D01*
X004439Y009927D02*
X004266Y009927D01*
X004265Y009925D02*
X004440Y009925D01*
X004440Y009924D02*
X004440Y009770D01*
X004450Y009760D01*
X004470Y009755D01*
X004498Y009752D01*
X004513Y009736D01*
X004389Y009736D01*
X004435Y009735D02*
X004510Y009735D01*
X004511Y009738D02*
X004204Y009738D01*
X004203Y009739D02*
X004510Y009739D01*
X004508Y009741D02*
X004203Y009741D01*
X004203Y009742D02*
X004507Y009742D01*
X004506Y009744D02*
X004202Y009744D01*
X004202Y009745D02*
X004504Y009745D01*
X004503Y009747D02*
X004204Y009747D01*
X004206Y009748D02*
X004501Y009748D01*
X004500Y009750D02*
X004208Y009750D01*
X004210Y009751D02*
X004498Y009751D01*
X004490Y009753D02*
X004223Y009753D01*
X004242Y009754D02*
X004476Y009754D01*
X004467Y009756D02*
X004254Y009756D01*
X004263Y009757D02*
X004461Y009757D01*
X004455Y009759D02*
X004266Y009759D01*
X004268Y009760D02*
X004450Y009760D01*
X004448Y009762D02*
X004270Y009762D01*
X004272Y009763D02*
X004447Y009763D01*
X004445Y009765D02*
X004275Y009765D01*
X004275Y009766D02*
X004444Y009766D01*
X004442Y009768D02*
X004275Y009768D01*
X004275Y009769D02*
X004441Y009769D01*
X004440Y009771D02*
X004275Y009771D01*
X004275Y009772D02*
X004440Y009772D01*
X004440Y009774D02*
X004275Y009774D01*
X004275Y009775D02*
X004440Y009775D01*
X004440Y009777D02*
X004275Y009777D01*
X004275Y009778D02*
X004440Y009778D01*
X004440Y009780D02*
X004275Y009780D01*
X004275Y009781D02*
X004440Y009781D01*
X004440Y009783D02*
X004275Y009783D01*
X004275Y009784D02*
X004440Y009784D01*
X004440Y009786D02*
X004275Y009786D01*
X004275Y009787D02*
X004440Y009787D01*
X004440Y009789D02*
X004276Y009789D01*
X004276Y009790D02*
X004440Y009790D01*
X004440Y009792D02*
X004276Y009792D01*
X004276Y009793D02*
X004440Y009793D01*
X004440Y009795D02*
X004276Y009795D01*
X004276Y009796D02*
X004440Y009796D01*
X004440Y009798D02*
X004276Y009798D01*
X004276Y009799D02*
X004440Y009799D01*
X004440Y009801D02*
X004276Y009801D01*
X004276Y009802D02*
X004440Y009802D01*
X004440Y009804D02*
X004276Y009804D01*
X004276Y009805D02*
X004440Y009805D01*
X004440Y009807D02*
X004276Y009807D01*
X004276Y009808D02*
X004440Y009808D01*
X004440Y009810D02*
X004276Y009810D01*
X004276Y009811D02*
X004440Y009811D01*
X004440Y009813D02*
X004276Y009813D01*
X004276Y009814D02*
X004440Y009814D01*
X004440Y009816D02*
X004276Y009816D01*
X004276Y009817D02*
X004440Y009817D01*
X004440Y009819D02*
X004276Y009819D01*
X004276Y009820D02*
X004440Y009820D01*
X004440Y009822D02*
X004276Y009822D01*
X004276Y009823D02*
X004440Y009823D01*
X004440Y009825D02*
X004277Y009825D01*
X004277Y009826D02*
X004440Y009826D01*
X004440Y009828D02*
X004277Y009828D01*
X004277Y009829D02*
X004440Y009829D01*
X004440Y009831D02*
X004277Y009831D01*
X004277Y009832D02*
X004440Y009832D01*
X004440Y009834D02*
X004277Y009834D01*
X004277Y009835D02*
X004440Y009835D01*
X004440Y009837D02*
X004277Y009837D01*
X004277Y009838D02*
X004440Y009838D01*
X004440Y009840D02*
X004277Y009840D01*
X004277Y009841D02*
X004440Y009841D01*
X004440Y009843D02*
X004277Y009843D01*
X004277Y009844D02*
X004440Y009844D01*
X004440Y009846D02*
X004277Y009846D01*
X004277Y009847D02*
X004440Y009847D01*
X004440Y009849D02*
X004277Y009849D01*
X004277Y009850D02*
X004440Y009850D01*
X004440Y009852D02*
X004277Y009852D01*
X004277Y009853D02*
X004440Y009853D01*
X004440Y009855D02*
X004277Y009855D01*
X004277Y009856D02*
X004440Y009856D01*
X004440Y009858D02*
X004277Y009858D01*
X004277Y009859D02*
X004440Y009859D01*
X004440Y009861D02*
X004278Y009861D01*
X004278Y009862D02*
X004440Y009862D01*
X004440Y009864D02*
X004278Y009864D01*
X004278Y009865D02*
X004440Y009865D01*
X004440Y009867D02*
X004278Y009867D01*
X004278Y009868D02*
X004440Y009868D01*
X004440Y009870D02*
X004278Y009870D01*
X004278Y009871D02*
X004440Y009871D01*
X004440Y009873D02*
X004278Y009873D01*
X004278Y009874D02*
X004440Y009874D01*
X004440Y009876D02*
X004278Y009876D01*
X004278Y009877D02*
X004440Y009877D01*
X004440Y009879D02*
X004278Y009879D01*
X004278Y009880D02*
X004440Y009880D01*
X004440Y009882D02*
X004278Y009882D01*
X004278Y009883D02*
X004440Y009883D01*
X004440Y009885D02*
X004278Y009885D01*
X004278Y009886D02*
X004440Y009886D01*
X004440Y009888D02*
X004278Y009888D01*
X004278Y009889D02*
X004440Y009889D01*
X004440Y009891D02*
X004278Y009891D01*
X004278Y009892D02*
X004440Y009892D01*
X004440Y009894D02*
X004278Y009894D01*
X004277Y009894D02*
X004241Y009894D01*
X004240Y009892D02*
X004277Y009892D01*
X004276Y009891D02*
X004239Y009891D01*
X004238Y009889D02*
X004276Y009889D01*
X004276Y009888D02*
X004237Y009888D01*
X004235Y009886D02*
X004276Y009886D01*
X004275Y009885D02*
X004234Y009885D01*
X004233Y009883D02*
X004275Y009883D01*
X004275Y009882D02*
X004232Y009882D01*
X004230Y009880D02*
X004275Y009880D01*
X004275Y009879D02*
X004229Y009879D01*
X004228Y009877D02*
X004274Y009877D01*
X004274Y009876D02*
X004226Y009876D01*
X004225Y009874D02*
X004274Y009874D01*
X004274Y009873D02*
X003987Y009873D01*
X003988Y009874D02*
X004224Y009874D01*
X004223Y009876D02*
X003988Y009876D01*
X003988Y009877D02*
X004221Y009877D01*
X004220Y009879D02*
X003988Y009879D01*
X003988Y009880D02*
X004218Y009880D01*
X004217Y009882D02*
X003988Y009882D01*
X003988Y009883D02*
X004215Y009883D01*
X004214Y009885D02*
X003988Y009885D01*
X003988Y009886D02*
X004212Y009886D01*
X004211Y009888D02*
X003988Y009888D01*
X003988Y009889D02*
X004209Y009889D01*
X004206Y009894D02*
X003988Y009894D01*
X003989Y009895D02*
X004204Y009895D01*
X004203Y009897D02*
X003989Y009897D01*
X003989Y009898D02*
X004202Y009898D01*
X004201Y009900D02*
X003989Y009900D01*
X003989Y009901D02*
X004200Y009901D01*
X004199Y009903D02*
X003989Y009903D01*
X003989Y009904D02*
X004198Y009904D01*
X004196Y009906D02*
X003989Y009906D01*
X003989Y009907D02*
X004195Y009907D01*
X004194Y009909D02*
X003989Y009909D01*
X003989Y009910D02*
X004193Y009910D01*
X004192Y009912D02*
X003989Y009912D01*
X003989Y009913D02*
X004191Y009913D01*
X004190Y009915D02*
X003989Y009915D01*
X003990Y009916D02*
X004188Y009916D01*
X004187Y009918D02*
X003990Y009918D01*
X003990Y009919D02*
X004186Y009919D01*
X004185Y009921D02*
X003990Y009921D01*
X003990Y009922D02*
X004184Y009922D01*
X004183Y009924D02*
X003990Y009924D01*
X003990Y009925D02*
X004182Y009925D01*
X004180Y009927D02*
X003990Y009927D01*
X003990Y009928D02*
X004179Y009928D01*
X004178Y009930D02*
X003989Y009930D01*
X003989Y009931D02*
X004177Y009931D01*
X004176Y009933D02*
X003989Y009933D01*
X003989Y009934D02*
X004174Y009934D01*
X004173Y009936D02*
X003989Y009936D01*
X003989Y009937D02*
X004172Y009937D01*
X004170Y009939D02*
X003989Y009939D01*
X003989Y009940D02*
X004169Y009940D01*
X004168Y009942D02*
X003989Y009942D01*
X003989Y009943D02*
X004167Y009943D01*
X004165Y009945D02*
X003989Y009945D01*
X003988Y009946D02*
X004164Y009946D01*
X004163Y009948D02*
X003988Y009948D01*
X003988Y009949D02*
X004162Y009949D01*
X004160Y009951D02*
X003988Y009951D01*
X003988Y009952D02*
X004159Y009952D01*
X004158Y009954D02*
X003988Y009954D01*
X003988Y009955D02*
X004156Y009955D01*
X004155Y009957D02*
X003988Y009957D01*
X003988Y009958D02*
X004154Y009958D01*
X004153Y009960D02*
X003988Y009960D01*
X003988Y009961D02*
X004151Y009961D01*
X004150Y009963D02*
X003987Y009963D01*
X003987Y009964D02*
X004149Y009964D01*
X004148Y009966D02*
X003987Y009966D01*
X003987Y009967D02*
X004146Y009967D01*
X004145Y009969D02*
X003987Y009969D01*
X003987Y009970D02*
X004144Y009970D01*
X004143Y009972D02*
X003987Y009972D01*
X003987Y009973D02*
X004141Y009973D01*
X004140Y009975D02*
X003986Y009975D01*
X003986Y009976D02*
X004139Y009976D01*
X004137Y009978D02*
X003985Y009978D01*
X003985Y009979D02*
X004136Y009979D01*
X004135Y009981D02*
X003985Y009981D01*
X003984Y009982D02*
X004134Y009982D01*
X004132Y009984D02*
X003984Y009984D01*
X003983Y009985D02*
X004131Y009985D01*
X004130Y009987D02*
X003983Y009987D01*
X003982Y009988D02*
X004129Y009988D01*
X004127Y009990D02*
X003982Y009990D01*
X003982Y009991D02*
X004126Y009991D01*
X004125Y009993D02*
X003981Y009993D01*
X003981Y009994D02*
X004123Y009994D01*
X004122Y009996D02*
X003980Y009996D01*
X003980Y009997D02*
X004121Y009997D01*
X004120Y009999D02*
X003979Y009999D01*
X003979Y010000D02*
X004118Y010000D01*
X004117Y010002D02*
X003977Y010002D01*
X003975Y010003D02*
X004116Y010003D01*
X004115Y010005D02*
X003973Y010005D01*
X003970Y010006D02*
X004113Y010006D01*
X004110Y010011D02*
X003938Y010011D01*
X003952Y010010D02*
X003968Y010008D01*
X003922Y010012D02*
X004108Y010012D01*
X004107Y010014D02*
X003920Y010014D01*
X003918Y010015D02*
X004105Y010015D01*
X004103Y010017D02*
X003916Y010017D01*
X003914Y010018D02*
X004101Y010018D01*
X004100Y010020D02*
X003914Y010020D01*
X003914Y010021D02*
X004098Y010021D01*
X004096Y010023D02*
X003913Y010023D01*
X003913Y010024D02*
X004095Y010024D01*
X004093Y010026D02*
X003913Y010026D01*
X003913Y010027D02*
X004091Y010027D01*
X004089Y010029D02*
X003914Y010029D01*
X003915Y010030D02*
X004088Y010030D01*
X004080Y010035D02*
X003918Y010035D01*
X003924Y010036D02*
X004077Y010036D01*
X004075Y010038D02*
X003933Y010038D01*
X003987Y009871D02*
X004273Y009871D01*
X004273Y009870D02*
X003987Y009870D01*
X003987Y009868D02*
X004273Y009868D01*
X004273Y009867D02*
X003987Y009867D01*
X003987Y009865D02*
X004273Y009865D01*
X004272Y009864D02*
X003987Y009864D01*
X003987Y009862D02*
X004272Y009862D01*
X004272Y009861D02*
X004268Y009861D01*
X004268Y009859D02*
X004272Y009859D01*
X004271Y009858D02*
X004268Y009858D01*
X004268Y009856D02*
X004271Y009856D01*
X004271Y009855D02*
X004269Y009855D01*
X004269Y009853D02*
X004271Y009853D01*
X004271Y009852D02*
X004269Y009852D01*
X004269Y009850D02*
X004270Y009850D01*
X004270Y009849D02*
X004270Y009849D01*
X004270Y009847D02*
X004270Y009847D01*
X004260Y009861D02*
X003987Y009861D01*
X003987Y009859D02*
X004257Y009859D01*
X004255Y009858D02*
X003987Y009858D01*
X003987Y009853D02*
X004017Y009853D01*
X004016Y009852D02*
X003986Y009852D01*
X003986Y009850D02*
X004016Y009850D01*
X004016Y009849D02*
X003986Y009849D01*
X003986Y009847D02*
X004016Y009847D01*
X004016Y009846D02*
X003986Y009846D01*
X003986Y009844D02*
X004016Y009844D01*
X004016Y009843D02*
X003986Y009843D01*
X003986Y009841D02*
X004017Y009841D01*
X004017Y009840D02*
X003986Y009840D01*
X003986Y009838D02*
X004017Y009838D01*
X004017Y009837D02*
X003986Y009837D01*
X003986Y009835D02*
X004017Y009835D01*
X004017Y009834D02*
X003986Y009834D01*
X003986Y009832D02*
X004018Y009832D01*
X004018Y009831D02*
X003985Y009831D01*
X003985Y009829D02*
X004018Y009829D01*
X004018Y009828D02*
X003985Y009828D01*
X003985Y009826D02*
X004019Y009826D01*
X004019Y009825D02*
X003985Y009825D01*
X003985Y009823D02*
X004019Y009823D01*
X004019Y009822D02*
X003985Y009822D01*
X003985Y009820D02*
X004020Y009820D01*
X004020Y009819D02*
X003985Y009819D01*
X003985Y009817D02*
X004020Y009817D01*
X004020Y009816D02*
X003985Y009816D01*
X003984Y009811D02*
X004022Y009811D01*
X004023Y009810D02*
X003983Y009810D01*
X003983Y009808D02*
X004024Y009808D01*
X004025Y009807D02*
X003983Y009807D01*
X003982Y009805D02*
X004026Y009805D01*
X004027Y009804D02*
X003982Y009804D01*
X003982Y009802D02*
X004027Y009802D01*
X004028Y009801D02*
X003981Y009801D01*
X003981Y009799D02*
X004029Y009799D01*
X004030Y009798D02*
X003981Y009798D01*
X003980Y009796D02*
X004031Y009796D01*
X004032Y009795D02*
X003980Y009795D01*
X003980Y009793D02*
X004033Y009793D01*
X004034Y009792D02*
X003979Y009792D01*
X003979Y009787D02*
X004037Y009787D01*
X004039Y009786D02*
X003978Y009786D01*
X003978Y009784D02*
X004040Y009784D01*
X004042Y009783D02*
X003978Y009783D01*
X003977Y009781D02*
X004043Y009781D01*
X004045Y009780D02*
X003977Y009780D01*
X003977Y009778D02*
X004046Y009778D01*
X004047Y009777D02*
X003976Y009777D01*
X003976Y009775D02*
X004049Y009775D01*
X004050Y009774D02*
X003976Y009774D01*
X003975Y009772D02*
X004052Y009772D01*
X004053Y009771D02*
X003975Y009771D01*
X003975Y009769D02*
X004055Y009769D01*
X004056Y009768D02*
X003974Y009768D01*
X003972Y009766D02*
X004058Y009766D01*
X004061Y009765D02*
X003971Y009765D01*
X003969Y009763D02*
X004066Y009763D01*
X004070Y009762D02*
X003968Y009762D01*
X003964Y009760D02*
X004074Y009760D01*
X004079Y009759D02*
X003957Y009759D01*
X003951Y009757D02*
X004083Y009757D01*
X004090Y009756D02*
X003944Y009756D01*
X003937Y009754D02*
X004095Y009754D01*
X004096Y009753D02*
X003930Y009753D01*
X003923Y009751D02*
X004098Y009751D01*
X004099Y009750D02*
X003918Y009750D01*
X003915Y009748D02*
X004100Y009748D01*
X004100Y009747D02*
X003914Y009747D01*
X003914Y009745D02*
X004100Y009745D01*
X004101Y009744D02*
X003914Y009744D01*
X003913Y009742D02*
X004101Y009742D01*
X004100Y009741D02*
X003913Y009741D01*
X003913Y009739D02*
X004100Y009739D01*
X004099Y009738D02*
X004060Y009738D01*
X004068Y009736D02*
X004096Y009736D01*
X004090Y009735D02*
X004076Y009735D01*
X004112Y009771D02*
X004189Y009771D01*
X004190Y009772D02*
X004111Y009772D01*
X004109Y009774D02*
X004191Y009774D01*
X004192Y009775D02*
X004108Y009775D01*
X004106Y009777D02*
X004193Y009777D01*
X004195Y009778D02*
X004105Y009778D01*
X004103Y009780D02*
X004196Y009780D01*
X004197Y009781D02*
X004102Y009781D01*
X004100Y009783D02*
X004198Y009783D01*
X004199Y009784D02*
X004099Y009784D01*
X004097Y009786D02*
X004200Y009786D01*
X004201Y009787D02*
X004096Y009787D01*
X004094Y009789D02*
X004202Y009789D01*
X004203Y009790D02*
X004093Y009790D01*
X004091Y009792D02*
X004204Y009792D01*
X004205Y009793D02*
X004090Y009793D01*
X004089Y009795D02*
X004206Y009795D01*
X004208Y009796D02*
X004087Y009796D01*
X004086Y009798D02*
X004209Y009798D01*
X004210Y009799D02*
X004085Y009799D01*
X004083Y009801D02*
X004211Y009801D01*
X004212Y009802D02*
X004082Y009802D01*
X004081Y009804D02*
X004213Y009804D01*
X004214Y009805D02*
X004079Y009805D01*
X004078Y009807D02*
X004215Y009807D01*
X004216Y009808D02*
X004077Y009808D01*
X004075Y009810D02*
X004218Y009810D01*
X004219Y009811D02*
X004074Y009811D01*
X004073Y009813D02*
X004220Y009813D01*
X004221Y009814D02*
X004071Y009814D01*
X004070Y009816D02*
X004222Y009816D01*
X004223Y009817D02*
X004069Y009817D01*
X004068Y009819D02*
X004225Y009819D01*
X004226Y009820D02*
X004066Y009820D01*
X004065Y009822D02*
X004227Y009822D01*
X004228Y009823D02*
X004064Y009823D01*
X004062Y009825D02*
X004229Y009825D01*
X004230Y009826D02*
X004061Y009826D01*
X004060Y009828D02*
X004232Y009828D01*
X004233Y009829D02*
X004058Y009829D01*
X004054Y009834D02*
X004236Y009834D01*
X004237Y009835D02*
X004053Y009835D01*
X004051Y009837D02*
X004239Y009837D01*
X004240Y009838D02*
X004050Y009838D01*
X004049Y009840D02*
X004241Y009840D01*
X004242Y009841D02*
X004047Y009841D01*
X004046Y009843D02*
X004243Y009843D01*
X004244Y009844D02*
X004045Y009844D01*
X004043Y009846D02*
X004246Y009846D01*
X004247Y009847D02*
X004042Y009847D01*
X004040Y009849D02*
X004248Y009849D01*
X004249Y009850D02*
X004039Y009850D01*
X004038Y009852D02*
X004250Y009852D01*
X004251Y009853D02*
X004036Y009853D01*
X004035Y009855D02*
X004025Y009856D01*
X004007Y009738D02*
X003914Y009738D01*
X003916Y009736D02*
X003983Y009736D01*
X003961Y009735D02*
X003917Y009735D01*
X003919Y009733D02*
X003949Y009733D01*
X003937Y009732D02*
X003926Y009732D01*
X004114Y009769D02*
X004188Y009769D01*
X004187Y009768D02*
X004115Y009768D01*
X004117Y009766D02*
X004186Y009766D01*
X004184Y009765D02*
X004119Y009765D01*
X004120Y009763D02*
X004183Y009763D01*
X004182Y009762D02*
X004122Y009762D01*
X004123Y009760D02*
X004181Y009760D01*
X004179Y009759D02*
X004125Y009759D01*
X004126Y009757D02*
X004178Y009757D01*
X004177Y009756D02*
X004128Y009756D01*
X004129Y009754D02*
X004176Y009754D01*
X004174Y009753D02*
X004131Y009753D01*
X004132Y009751D02*
X004173Y009751D01*
X004172Y009750D02*
X004134Y009750D01*
X004135Y009748D02*
X004170Y009748D01*
X004169Y009747D02*
X004137Y009747D01*
X004138Y009745D02*
X004168Y009745D01*
X004167Y009744D02*
X004140Y009744D01*
X004141Y009742D02*
X004165Y009742D01*
X004164Y009741D02*
X004143Y009741D01*
X004145Y009739D02*
X004163Y009739D01*
X004162Y009738D02*
X004146Y009738D01*
X004148Y009736D02*
X004160Y009736D01*
X004159Y009735D02*
X004150Y009735D01*
X004151Y009733D02*
X004157Y009733D01*
X004204Y009736D02*
X004301Y009736D01*
X004279Y009735D02*
X004204Y009735D01*
X004205Y009733D02*
X004257Y009733D01*
X004242Y009895D02*
X004277Y009895D01*
X004278Y009895D02*
X004440Y009895D01*
X004440Y009897D02*
X004279Y009897D01*
X004279Y009898D02*
X004440Y009898D01*
X004440Y009900D02*
X004279Y009900D01*
X004278Y009900D02*
X004246Y009900D01*
X004247Y009901D02*
X004278Y009901D01*
X004279Y009901D02*
X004440Y009901D01*
X004440Y009903D02*
X004279Y009903D01*
X004278Y009903D02*
X004248Y009903D01*
X004249Y009904D02*
X004278Y009904D01*
X004279Y009904D02*
X004440Y009904D01*
X004440Y009906D02*
X004279Y009906D01*
X004250Y009906D01*
X004251Y009907D02*
X004279Y009907D01*
X004440Y009907D01*
X004440Y009909D02*
X004252Y009909D01*
X004253Y009910D02*
X004440Y009910D01*
X004440Y009912D02*
X004255Y009912D01*
X004256Y009913D02*
X004440Y009913D01*
X004440Y009915D02*
X004257Y009915D01*
X004258Y009916D02*
X004440Y009916D01*
X004440Y009918D02*
X004259Y009918D01*
X004260Y009919D02*
X004440Y009919D01*
X004440Y009921D02*
X004261Y009921D01*
X004262Y009922D02*
X004440Y009922D01*
X004440Y009924D02*
X004263Y009924D01*
X004277Y009898D02*
X004245Y009898D01*
X004243Y009897D02*
X004277Y009897D01*
X004304Y009976D02*
X004434Y009976D01*
X004434Y009975D02*
X004440Y009924D01*
X004434Y009978D02*
X004305Y009978D01*
X004306Y009979D02*
X004434Y009979D01*
X004434Y009981D02*
X004307Y009981D01*
X004308Y009982D02*
X004434Y009982D01*
X004434Y009984D02*
X004309Y009984D01*
X004311Y009985D02*
X004434Y009985D01*
X004434Y009987D02*
X004312Y009987D01*
X004313Y009988D02*
X004434Y009988D01*
X004434Y009990D02*
X004314Y009990D01*
X004315Y009991D02*
X004434Y009991D01*
X004434Y009993D02*
X004316Y009993D01*
X004318Y009994D02*
X004434Y009994D01*
X004434Y009996D02*
X004319Y009996D01*
X004320Y009997D02*
X004435Y009997D01*
X004436Y009999D02*
X004321Y009999D01*
X004322Y010000D02*
X004437Y010000D01*
X004438Y010002D02*
X004323Y010002D01*
X004325Y010003D02*
X004439Y010003D01*
X004440Y010005D02*
X004326Y010005D01*
X004327Y010006D02*
X004441Y010006D01*
X004442Y010008D02*
X004329Y010008D01*
X004330Y010009D02*
X004443Y010009D01*
X004449Y010011D02*
X004331Y010011D01*
X004333Y010012D02*
X004458Y010012D01*
X004468Y010014D02*
X004334Y010014D01*
X004336Y010015D02*
X004485Y010015D01*
X004500Y010017D02*
X004337Y010017D01*
X004338Y010018D02*
X004504Y010018D01*
X004506Y010020D02*
X004340Y010020D01*
X004341Y010021D02*
X004507Y010021D01*
X004508Y010023D02*
X004342Y010023D01*
X004344Y010024D02*
X004509Y010024D01*
X004510Y010026D02*
X004345Y010026D01*
X004347Y010027D02*
X004509Y010027D01*
X004508Y010029D02*
X004348Y010029D01*
X004349Y010030D02*
X004507Y010030D01*
X004506Y010032D02*
X004351Y010032D01*
X004366Y010033D02*
X004505Y010033D01*
X004501Y010035D02*
X004456Y010035D01*
X004483Y010036D02*
X004494Y010036D01*
X004505Y009733D02*
X004451Y009733D01*
D18*
X004483Y009656D02*
X004436Y009624D01*
X004380Y009596D01*
X004334Y009582D01*
X004279Y009570D01*
X004206Y009564D01*
X004130Y009571D01*
X004050Y009591D01*
X003978Y009626D01*
X003917Y009672D01*
X003867Y009731D01*
X003840Y009782D01*
X003825Y009833D01*
X003823Y009880D01*
X003824Y009926D01*
X003833Y009967D01*
X003853Y010015D01*
X003884Y010061D01*
X003931Y010109D01*
X003982Y010144D01*
X004040Y010171D01*
X004101Y010191D01*
X004141Y010198D01*
X004190Y010202D01*
X004217Y010202D01*
X004209Y010201D02*
X004242Y010202D01*
X004280Y010198D01*
X004313Y010192D01*
X004348Y010182D01*
X004382Y010170D01*
X004423Y010149D01*
X004469Y010120D01*
X004501Y010094D01*
X004538Y010054D01*
X004568Y010001D01*
X004587Y009956D01*
X004595Y009917D01*
X004594Y009858D01*
X004586Y009806D01*
X004562Y009753D01*
X004536Y009711D01*
X004483Y009656D01*
D19*
X008230Y011704D02*
X008821Y011704D01*
X008821Y012994D02*
X008230Y012994D01*
X003932Y015318D02*
X003932Y016380D01*
X003994Y016380D01*
X013730Y012994D02*
X014321Y012994D01*
X014321Y011704D02*
X013730Y011704D01*
X019168Y011681D02*
X019758Y011681D01*
X019758Y010391D02*
X019168Y010391D01*
D20*
X014982Y007779D02*
X014982Y007704D01*
X014907Y007629D01*
X014982Y007554D01*
X014982Y007479D01*
X014907Y007404D01*
X014757Y007404D01*
X014682Y007479D01*
X014499Y007479D02*
X014499Y007404D01*
X014424Y007404D01*
X014424Y007479D01*
X014499Y007479D01*
X014209Y007404D02*
X013908Y007404D01*
X014059Y007404D02*
X014059Y007854D01*
X013908Y007704D01*
X013693Y007704D02*
X013543Y007404D01*
X013393Y007704D01*
X014682Y007779D02*
X014757Y007854D01*
X014907Y007854D01*
X014982Y007779D01*
X014907Y007629D02*
X014832Y007629D01*
D21*
X012150Y011868D02*
X012152Y011881D01*
X012157Y011894D01*
X012166Y011905D01*
X012177Y011912D01*
X012190Y011917D01*
X012203Y011918D01*
X012217Y011915D01*
X012229Y011909D01*
X012239Y011900D01*
X012246Y011888D01*
X012250Y011875D01*
X012250Y011861D01*
X012246Y011848D01*
X012239Y011836D01*
X012229Y011827D01*
X012217Y011821D01*
X012203Y011818D01*
X012190Y011819D01*
X012177Y011824D01*
X012166Y011831D01*
X012157Y011842D01*
X012152Y011855D01*
X012150Y011868D01*
X012150Y014055D02*
X012152Y014068D01*
X012157Y014081D01*
X012166Y014092D01*
X012177Y014099D01*
X012190Y014104D01*
X012203Y014105D01*
X012217Y014102D01*
X012229Y014096D01*
X012239Y014087D01*
X012246Y014075D01*
X012250Y014062D01*
X012250Y014048D01*
X012246Y014035D01*
X012239Y014023D01*
X012229Y014014D01*
X012217Y014008D01*
X012203Y014005D01*
X012190Y014006D01*
X012177Y014011D01*
X012166Y014018D01*
X012157Y014029D01*
X012152Y014042D01*
X012150Y014055D01*
X012150Y016243D02*
X012152Y016256D01*
X012157Y016269D01*
X012166Y016280D01*
X012177Y016287D01*
X012190Y016292D01*
X012203Y016293D01*
X012217Y016290D01*
X012229Y016284D01*
X012239Y016275D01*
X012246Y016263D01*
X012250Y016250D01*
X012250Y016236D01*
X012246Y016223D01*
X012239Y016211D01*
X012229Y016202D01*
X012217Y016196D01*
X012203Y016193D01*
X012190Y016194D01*
X012177Y016199D01*
X012166Y016206D01*
X012157Y016217D01*
X012152Y016230D01*
X012150Y016243D01*
X006650Y016243D02*
X006652Y016256D01*
X006657Y016269D01*
X006666Y016280D01*
X006677Y016287D01*
X006690Y016292D01*
X006703Y016293D01*
X006717Y016290D01*
X006729Y016284D01*
X006739Y016275D01*
X006746Y016263D01*
X006750Y016250D01*
X006750Y016236D01*
X006746Y016223D01*
X006739Y016211D01*
X006729Y016202D01*
X006717Y016196D01*
X006703Y016193D01*
X006690Y016194D01*
X006677Y016199D01*
X006666Y016206D01*
X006657Y016217D01*
X006652Y016230D01*
X006650Y016243D01*
X006650Y014055D02*
X006652Y014068D01*
X006657Y014081D01*
X006666Y014092D01*
X006677Y014099D01*
X006690Y014104D01*
X006703Y014105D01*
X006717Y014102D01*
X006729Y014096D01*
X006739Y014087D01*
X006746Y014075D01*
X006750Y014062D01*
X006750Y014048D01*
X006746Y014035D01*
X006739Y014023D01*
X006729Y014014D01*
X006717Y014008D01*
X006703Y014005D01*
X006690Y014006D01*
X006677Y014011D01*
X006666Y014018D01*
X006657Y014029D01*
X006652Y014042D01*
X006650Y014055D01*
X006650Y011868D02*
X006652Y011881D01*
X006657Y011894D01*
X006666Y011905D01*
X006677Y011912D01*
X006690Y011917D01*
X006703Y011918D01*
X006717Y011915D01*
X006729Y011909D01*
X006739Y011900D01*
X006746Y011888D01*
X006750Y011875D01*
X006750Y011861D01*
X006746Y011848D01*
X006739Y011836D01*
X006729Y011827D01*
X006717Y011821D01*
X006703Y011818D01*
X006690Y011819D01*
X006677Y011824D01*
X006666Y011831D01*
X006657Y011842D01*
X006652Y011855D01*
X006650Y011868D01*
X017775Y011868D02*
X017777Y011881D01*
X017782Y011894D01*
X017791Y011905D01*
X017802Y011912D01*
X017815Y011917D01*
X017828Y011918D01*
X017842Y011915D01*
X017854Y011909D01*
X017864Y011900D01*
X017871Y011888D01*
X017875Y011875D01*
X017875Y011861D01*
X017871Y011848D01*
X017864Y011836D01*
X017854Y011827D01*
X017842Y011821D01*
X017828Y011818D01*
X017815Y011819D01*
X017802Y011824D01*
X017791Y011831D01*
X017782Y011842D01*
X017777Y011855D01*
X017775Y011868D01*
X017775Y014055D02*
X017777Y014068D01*
X017782Y014081D01*
X017791Y014092D01*
X017802Y014099D01*
X017815Y014104D01*
X017828Y014105D01*
X017842Y014102D01*
X017854Y014096D01*
X017864Y014087D01*
X017871Y014075D01*
X017875Y014062D01*
X017875Y014048D01*
X017871Y014035D01*
X017864Y014023D01*
X017854Y014014D01*
X017842Y014008D01*
X017828Y014005D01*
X017815Y014006D01*
X017802Y014011D01*
X017791Y014018D01*
X017782Y014029D01*
X017777Y014042D01*
X017775Y014055D01*
X017775Y016243D02*
X017777Y016256D01*
X017782Y016269D01*
X017791Y016280D01*
X017802Y016287D01*
X017815Y016292D01*
X017828Y016293D01*
X017842Y016290D01*
X017854Y016284D01*
X017864Y016275D01*
X017871Y016263D01*
X017875Y016250D01*
X017875Y016236D01*
X017871Y016223D01*
X017864Y016211D01*
X017854Y016202D01*
X017842Y016196D01*
X017828Y016193D01*
X017815Y016194D01*
X017802Y016199D01*
X017791Y016206D01*
X017782Y016217D01*
X017777Y016230D01*
X017775Y016243D01*
D22*
X003713Y008331D03*
X003213Y008331D03*
X014088Y000893D03*
D23*
X013266Y001414D02*
X012660Y001414D01*
X012660Y002596D01*
X013266Y002596D01*
X013266Y001414D01*
X013156Y001481D02*
X012770Y001481D01*
X012755Y001483D01*
X012741Y001488D01*
X012728Y001496D01*
X012718Y001506D01*
X012710Y001519D01*
X012705Y001533D01*
X012703Y001548D01*
X012703Y002462D01*
X012705Y002477D01*
X012710Y002491D01*
X012718Y002504D01*
X012728Y002514D01*
X012741Y002522D01*
X012755Y002527D01*
X012770Y002529D01*
X013156Y002529D01*
X013171Y002527D01*
X013185Y002522D01*
X013198Y002514D01*
X013208Y002504D01*
X013216Y002491D01*
X013221Y002477D01*
X013223Y002462D01*
X013223Y001548D01*
X013221Y001533D01*
X013216Y001519D01*
X013208Y001506D01*
X013198Y001496D01*
X013185Y001488D01*
X013171Y001483D01*
X013156Y001481D01*
X011641Y001414D02*
X011035Y001414D01*
X011035Y002596D01*
X011641Y002596D01*
X011641Y001414D01*
X011531Y001481D02*
X011145Y001481D01*
X011130Y001483D01*
X011116Y001488D01*
X011103Y001496D01*
X011093Y001506D01*
X011085Y001519D01*
X011080Y001533D01*
X011078Y001548D01*
X011078Y002462D01*
X011080Y002477D01*
X011085Y002491D01*
X011093Y002504D01*
X011103Y002514D01*
X011116Y002522D01*
X011130Y002527D01*
X011145Y002529D01*
X011531Y002529D01*
X011546Y002527D01*
X011560Y002522D01*
X011573Y002514D01*
X011583Y002504D01*
X011591Y002491D01*
X011596Y002477D01*
X011598Y002462D01*
X011598Y001548D01*
X011596Y001533D01*
X011591Y001519D01*
X011583Y001506D01*
X011573Y001496D01*
X011560Y001488D01*
X011546Y001483D01*
X011531Y001481D01*
D24*
X015646Y009411D03*
X015746Y009411D03*
D25*
X009802Y004868D02*
X009804Y004888D01*
X009809Y004908D01*
X009819Y004926D01*
X009831Y004943D01*
X009846Y004957D01*
X009864Y004967D01*
X009883Y004975D01*
X009903Y004979D01*
X009923Y004979D01*
X009943Y004975D01*
X009962Y004967D01*
X009980Y004957D01*
X009995Y004943D01*
X010007Y004926D01*
X010017Y004908D01*
X010022Y004888D01*
X010024Y004868D01*
X010022Y004848D01*
X010017Y004828D01*
X010007Y004810D01*
X009995Y004793D01*
X009980Y004779D01*
X009962Y004769D01*
X009943Y004761D01*
X009923Y004757D01*
X009903Y004757D01*
X009883Y004761D01*
X009864Y004769D01*
X009846Y004779D01*
X009831Y004793D01*
X009819Y004810D01*
X009809Y004828D01*
X009804Y004848D01*
X009802Y004868D01*
D26*
X001754Y009275D02*
X001656Y009373D01*
X001360Y009373D01*
X001360Y009225D01*
X001114Y009225D02*
X001114Y009373D01*
X000721Y009373D01*
X001656Y009373D02*
X001656Y011637D01*
X001754Y011735D01*
X001656Y011637D02*
X001360Y011637D01*
X001360Y011785D01*
X001114Y011785D02*
X001114Y011637D01*
X000721Y011637D01*
D27*
X000696Y010505D03*
M02*
