G75*
%MOIN*%
%OFA0B0*%
%FSLAX24Y24*%
%IPPOS*%
%LPD*%
%AMOC8*
5,1,8,0,0,1.08239X$1,22.5*
%
%ADD10C,0.0000*%
%ADD11C,0.0060*%
%ADD12C,0.0100*%
%ADD13C,0.0070*%
%ADD14C,0.0050*%
%ADD15C,0.0030*%
%ADD16R,0.0098X0.0098*%
%ADD17C,0.0080*%
%ADD18C,0.0020*%
D10*
X000100Y000494D02*
X000100Y006793D01*
X000102Y006832D01*
X000108Y006870D01*
X000117Y006907D01*
X000130Y006944D01*
X000147Y006979D01*
X000166Y007012D01*
X000189Y007043D01*
X000215Y007072D01*
X000244Y007098D01*
X000275Y007121D01*
X000308Y007140D01*
X000343Y007157D01*
X000380Y007170D01*
X000417Y007179D01*
X000455Y007185D01*
X000494Y007187D01*
X005737Y007187D01*
X005776Y007185D01*
X005814Y007179D01*
X005851Y007170D01*
X005888Y007157D01*
X005923Y007140D01*
X005956Y007121D01*
X005987Y007098D01*
X006016Y007072D01*
X006042Y007043D01*
X006065Y007012D01*
X006084Y006979D01*
X006101Y006944D01*
X006114Y006907D01*
X006123Y006870D01*
X006129Y006832D01*
X006131Y006793D01*
X006131Y000494D01*
X006129Y000455D01*
X006123Y000417D01*
X006114Y000380D01*
X006101Y000343D01*
X006084Y000308D01*
X006065Y000275D01*
X006042Y000244D01*
X006016Y000215D01*
X005987Y000189D01*
X005956Y000166D01*
X005923Y000147D01*
X005888Y000130D01*
X005851Y000117D01*
X005814Y000108D01*
X005776Y000102D01*
X005737Y000100D01*
X000494Y000100D01*
X000455Y000102D01*
X000417Y000108D01*
X000380Y000117D01*
X000343Y000130D01*
X000308Y000147D01*
X000275Y000166D01*
X000244Y000189D01*
X000215Y000215D01*
X000189Y000244D01*
X000166Y000275D01*
X000147Y000308D01*
X000130Y000343D01*
X000117Y000380D01*
X000108Y000417D01*
X000102Y000455D01*
X000100Y000494D01*
X000454Y000887D02*
X000456Y000928D01*
X000462Y000969D01*
X000472Y001009D01*
X000485Y001048D01*
X000502Y001085D01*
X000523Y001121D01*
X000547Y001155D01*
X000574Y001186D01*
X000603Y001214D01*
X000636Y001240D01*
X000670Y001262D01*
X000707Y001281D01*
X000745Y001296D01*
X000785Y001308D01*
X000825Y001316D01*
X000866Y001320D01*
X000908Y001320D01*
X000949Y001316D01*
X000989Y001308D01*
X001029Y001296D01*
X001067Y001281D01*
X001103Y001262D01*
X001138Y001240D01*
X001171Y001214D01*
X001200Y001186D01*
X001227Y001155D01*
X001251Y001121D01*
X001272Y001085D01*
X001289Y001048D01*
X001302Y001009D01*
X001312Y000969D01*
X001318Y000928D01*
X001320Y000887D01*
X001318Y000846D01*
X001312Y000805D01*
X001302Y000765D01*
X001289Y000726D01*
X001272Y000689D01*
X001251Y000653D01*
X001227Y000619D01*
X001200Y000588D01*
X001171Y000560D01*
X001138Y000534D01*
X001104Y000512D01*
X001067Y000493D01*
X001029Y000478D01*
X000989Y000466D01*
X000949Y000458D01*
X000908Y000454D01*
X000866Y000454D01*
X000825Y000458D01*
X000785Y000466D01*
X000745Y000478D01*
X000707Y000493D01*
X000671Y000512D01*
X000636Y000534D01*
X000603Y000560D01*
X000574Y000588D01*
X000547Y000619D01*
X000523Y000653D01*
X000502Y000689D01*
X000485Y000726D01*
X000472Y000765D01*
X000462Y000805D01*
X000456Y000846D01*
X000454Y000887D01*
X000454Y006399D02*
X000456Y006440D01*
X000462Y006481D01*
X000472Y006521D01*
X000485Y006560D01*
X000502Y006597D01*
X000523Y006633D01*
X000547Y006667D01*
X000574Y006698D01*
X000603Y006726D01*
X000636Y006752D01*
X000670Y006774D01*
X000707Y006793D01*
X000745Y006808D01*
X000785Y006820D01*
X000825Y006828D01*
X000866Y006832D01*
X000908Y006832D01*
X000949Y006828D01*
X000989Y006820D01*
X001029Y006808D01*
X001067Y006793D01*
X001103Y006774D01*
X001138Y006752D01*
X001171Y006726D01*
X001200Y006698D01*
X001227Y006667D01*
X001251Y006633D01*
X001272Y006597D01*
X001289Y006560D01*
X001302Y006521D01*
X001312Y006481D01*
X001318Y006440D01*
X001320Y006399D01*
X001318Y006358D01*
X001312Y006317D01*
X001302Y006277D01*
X001289Y006238D01*
X001272Y006201D01*
X001251Y006165D01*
X001227Y006131D01*
X001200Y006100D01*
X001171Y006072D01*
X001138Y006046D01*
X001104Y006024D01*
X001067Y006005D01*
X001029Y005990D01*
X000989Y005978D01*
X000949Y005970D01*
X000908Y005966D01*
X000866Y005966D01*
X000825Y005970D01*
X000785Y005978D01*
X000745Y005990D01*
X000707Y006005D01*
X000671Y006024D01*
X000636Y006046D01*
X000603Y006072D01*
X000574Y006100D01*
X000547Y006131D01*
X000523Y006165D01*
X000502Y006201D01*
X000485Y006238D01*
X000472Y006277D01*
X000462Y006317D01*
X000456Y006358D01*
X000454Y006399D01*
D11*
X001538Y003100D02*
X001538Y002225D01*
X001631Y002225D01*
X001631Y003100D01*
X001538Y003100D01*
D12*
X004913Y002256D02*
X005100Y001944D01*
X005288Y002256D01*
X004913Y002256D01*
X005100Y001944D02*
X005100Y002788D01*
X005913Y002788D01*
X005600Y002600D01*
X005600Y002975D01*
X005913Y002788D01*
D13*
X005951Y002515D02*
X005951Y002452D01*
X005824Y002325D01*
X005824Y002135D01*
X005639Y002172D02*
X005385Y001791D01*
X005639Y001791D02*
X005385Y002172D01*
X005698Y002452D02*
X005698Y002515D01*
X005698Y002452D02*
X005824Y002325D01*
D14*
X004113Y005313D02*
X003978Y005313D01*
X003933Y005358D01*
X003933Y005493D01*
X003819Y005448D02*
X003819Y005403D01*
X003638Y005403D01*
X003638Y005448D02*
X003684Y005493D01*
X003774Y005493D01*
X003819Y005448D01*
X003774Y005313D02*
X003684Y005313D01*
X003638Y005358D01*
X003638Y005448D01*
X003536Y005358D02*
X003536Y005313D01*
X003491Y005313D01*
X003491Y005358D01*
X003536Y005358D01*
X003377Y005358D02*
X003377Y005493D01*
X003377Y005358D02*
X003332Y005313D01*
X003287Y005358D01*
X003242Y005313D01*
X003196Y005358D01*
X003196Y005493D01*
X003045Y005493D02*
X003045Y005313D01*
X003000Y005313D02*
X003090Y005313D01*
X003045Y005493D02*
X003000Y005493D01*
X003045Y005583D02*
X003045Y005628D01*
X002849Y005583D02*
X002849Y005313D01*
X002804Y005313D02*
X002894Y005313D01*
X002697Y005313D02*
X002607Y005313D01*
X002652Y005313D02*
X002652Y005583D01*
X002607Y005583D01*
X002493Y005448D02*
X002448Y005493D01*
X002358Y005493D01*
X002313Y005448D01*
X002313Y005358D01*
X002358Y005313D01*
X002448Y005313D01*
X002493Y005358D01*
X002493Y005448D01*
X002210Y005358D02*
X002210Y005313D01*
X002165Y005313D01*
X002165Y005358D01*
X002210Y005358D01*
X002051Y005358D02*
X002051Y005493D01*
X002051Y005358D02*
X002006Y005313D01*
X001961Y005358D01*
X001916Y005313D01*
X001871Y005358D01*
X001871Y005493D01*
X001756Y005493D02*
X001756Y005358D01*
X001711Y005313D01*
X001666Y005358D01*
X001621Y005313D01*
X001576Y005358D01*
X001576Y005493D01*
X001461Y005493D02*
X001461Y005358D01*
X001416Y005313D01*
X001371Y005358D01*
X001326Y005313D01*
X001281Y005358D01*
X001281Y005493D01*
X002804Y005583D02*
X002849Y005583D01*
X004113Y005493D02*
X004113Y005313D01*
D15*
X004344Y005123D02*
X004554Y005123D01*
X004554Y005053D02*
X004554Y005193D01*
X004519Y005273D02*
X004554Y005309D01*
X004554Y005414D01*
X004414Y005414D01*
X004414Y005273D02*
X004519Y005273D01*
X004344Y005123D02*
X004414Y005053D01*
X004442Y003836D02*
X004547Y003836D01*
X004442Y003836D02*
X004407Y003801D01*
X004407Y003696D01*
X004547Y003696D01*
X004547Y003615D02*
X004547Y003475D01*
X004407Y003615D01*
X004372Y003615D01*
X004337Y003580D01*
X004337Y003510D01*
X004372Y003475D01*
X004512Y003400D02*
X004512Y003365D01*
X004547Y003365D01*
X004547Y003400D01*
X004512Y003400D01*
X004547Y003284D02*
X004547Y003144D01*
X004407Y003284D01*
X004372Y003284D01*
X004337Y003249D01*
X004337Y003179D01*
X004372Y003144D01*
X005769Y004019D02*
X005804Y003984D01*
X005769Y004019D02*
X005769Y004089D01*
X005804Y004124D01*
X005839Y004124D01*
X005979Y003984D01*
X005979Y004124D01*
X005979Y004205D02*
X005944Y004205D01*
X005944Y004240D01*
X005979Y004240D01*
X005979Y004205D01*
X005979Y004315D02*
X005839Y004455D01*
X005804Y004455D01*
X005769Y004420D01*
X005769Y004350D01*
X005804Y004315D01*
X005979Y004315D02*
X005979Y004455D01*
X005979Y004536D02*
X005769Y004536D01*
X005839Y004641D02*
X005909Y004536D01*
X005979Y004641D01*
X005811Y006803D02*
X005706Y006803D01*
X005671Y006838D01*
X005671Y006908D01*
X005706Y006943D01*
X005811Y006943D01*
X005811Y007013D02*
X005811Y006803D01*
X005590Y006873D02*
X005450Y006873D01*
X005450Y006908D02*
X005485Y006943D01*
X005555Y006943D01*
X005590Y006908D01*
X005590Y006873D01*
X005555Y006803D02*
X005485Y006803D01*
X005450Y006838D01*
X005450Y006908D01*
X005373Y006803D02*
X005303Y006803D01*
X005338Y006803D02*
X005338Y007013D01*
X005303Y007013D01*
X005161Y006984D02*
X005056Y006914D01*
X005161Y006844D01*
X005056Y006844D02*
X005056Y007054D01*
X004975Y007019D02*
X004975Y006984D01*
X004835Y006844D01*
X004975Y006844D01*
X004975Y007019D02*
X004940Y007054D01*
X004870Y007054D01*
X004835Y007019D01*
X004759Y006879D02*
X004724Y006879D01*
X004724Y006844D01*
X004759Y006844D01*
X004759Y006879D01*
X004643Y006844D02*
X004503Y006844D01*
X004643Y006984D01*
X004643Y007019D01*
X004608Y007054D01*
X004538Y007054D01*
X004503Y007019D01*
X002878Y006949D02*
X002878Y006844D01*
X002878Y006949D02*
X002843Y006984D01*
X002738Y006984D01*
X002738Y006844D01*
X002657Y006879D02*
X002622Y006844D01*
X002552Y006844D01*
X002517Y006879D01*
X002657Y007019D01*
X002657Y006879D01*
X002657Y007019D02*
X002622Y007054D01*
X002552Y007054D01*
X002517Y007019D01*
X002517Y006879D01*
X002436Y006879D02*
X002401Y006844D01*
X002331Y006844D01*
X002296Y006879D01*
X002436Y007019D01*
X002436Y006879D01*
X002436Y007019D02*
X002401Y007054D01*
X002331Y007054D01*
X002296Y007019D01*
X002296Y006879D01*
X002215Y006844D02*
X002075Y006844D01*
X002145Y006844D02*
X002145Y007054D01*
X002075Y006984D01*
X001922Y005195D02*
X001817Y005195D01*
X001782Y005160D01*
X001782Y005055D01*
X001922Y005055D01*
X001887Y004974D02*
X001922Y004939D01*
X001922Y004869D01*
X001887Y004834D01*
X001747Y004974D01*
X001887Y004974D01*
X001747Y004974D02*
X001712Y004939D01*
X001712Y004869D01*
X001747Y004834D01*
X001887Y004834D01*
X001922Y004753D02*
X001922Y004613D01*
X001922Y004683D02*
X001712Y004683D01*
X001782Y004613D01*
X001817Y004384D02*
X001922Y004384D01*
X001817Y004384D02*
X001782Y004349D01*
X001782Y004244D01*
X001922Y004244D01*
X001887Y004163D02*
X001922Y004128D01*
X001922Y004058D01*
X001887Y004023D01*
X001747Y004163D01*
X001887Y004163D01*
X001887Y004023D02*
X001747Y004023D01*
X001712Y004058D01*
X001712Y004128D01*
X001747Y004163D01*
X001747Y003942D02*
X001887Y003802D01*
X001922Y003837D01*
X001922Y003907D01*
X001887Y003942D01*
X001747Y003942D01*
X001712Y003907D01*
X001712Y003837D01*
X001747Y003802D01*
X001887Y003802D01*
X001922Y003721D02*
X001922Y003581D01*
X001922Y003651D02*
X001712Y003651D01*
X001782Y003581D01*
X001803Y002044D02*
X001768Y002009D01*
X001803Y002044D02*
X001873Y002044D01*
X001908Y002009D01*
X001908Y001974D01*
X001873Y001939D01*
X001908Y001904D01*
X001908Y001869D01*
X001873Y001834D01*
X001803Y001834D01*
X001768Y001869D01*
X001692Y001869D02*
X001692Y001834D01*
X001657Y001834D01*
X001657Y001869D01*
X001692Y001869D01*
X001577Y001869D02*
X001542Y001834D01*
X001471Y001834D01*
X001436Y001869D01*
X001436Y001939D01*
X001542Y001939D01*
X001577Y001904D01*
X001577Y001869D01*
X001507Y002009D02*
X001436Y001939D01*
X001507Y002009D02*
X001577Y002044D01*
X001356Y002044D02*
X001215Y001834D01*
X001135Y001834D02*
X001135Y001974D01*
X001135Y001834D02*
X001030Y001834D01*
X000994Y001869D01*
X000994Y001974D01*
X000914Y002009D02*
X000914Y001869D01*
X000879Y001834D01*
X000809Y001834D01*
X000773Y001869D01*
X000914Y002009D01*
X000879Y002044D01*
X000809Y002044D01*
X000773Y002009D01*
X000773Y001869D01*
X000693Y001834D02*
X000553Y001834D01*
X000623Y001834D02*
X000623Y002044D01*
X000553Y001974D01*
X001838Y001939D02*
X001873Y001939D01*
X001989Y001904D02*
X002059Y001834D01*
X002129Y001904D01*
X002129Y002044D01*
X001989Y002044D02*
X001989Y001904D01*
D16*
X005538Y006176D03*
D17*
X003982Y006119D02*
X003982Y006331D01*
X003832Y005665D02*
X003493Y005665D01*
X003843Y004950D02*
X003981Y004812D01*
X003981Y003513D02*
X003981Y003375D01*
X003843Y003375D01*
X002544Y003375D02*
X002406Y003375D01*
X002406Y003513D01*
X002406Y004812D02*
X002406Y004950D01*
X002544Y004950D01*
X002692Y001779D02*
X002692Y000254D01*
X005071Y000254D01*
X005071Y001779D01*
X004964Y001779D01*
X002799Y001779D01*
X002692Y001779D01*
X002892Y001478D02*
X004871Y001478D01*
X005062Y000304D02*
X005071Y000254D01*
X002701Y000304D02*
X002692Y000254D01*
D18*
X002701Y000304D02*
X002799Y000402D01*
X002799Y000648D01*
X002702Y000648D01*
X002799Y000648D02*
X002897Y000648D01*
X002897Y000944D01*
X004866Y000944D01*
X004866Y000648D01*
X004964Y000648D01*
X004964Y000402D01*
X005062Y000304D01*
X005112Y000346D02*
X005013Y000445D01*
X002749Y000445D01*
X002651Y000346D01*
X002749Y000445D02*
X002749Y000740D01*
X002749Y000986D02*
X002749Y001380D01*
X002702Y001583D02*
X002799Y001583D01*
X002799Y001779D01*
X003045Y001780D02*
X003045Y001583D01*
X003241Y001583D01*
X003241Y001780D01*
X003537Y001780D02*
X003537Y001583D01*
X003734Y001583D01*
X003734Y001780D01*
X004029Y001780D02*
X004029Y001583D01*
X004226Y001583D01*
X004226Y001780D01*
X004521Y001780D02*
X004521Y001583D01*
X004718Y001583D01*
X004718Y001780D01*
X004964Y001779D02*
X004964Y001583D01*
X005061Y001583D01*
X005013Y001380D02*
X005013Y000986D01*
X005013Y000740D02*
X005013Y000445D01*
X004964Y000402D02*
X002799Y000402D01*
X004964Y000648D02*
X005061Y000648D01*
M02*
