G75*
%MOIN*%
%OFA0B0*%
%FSLAX24Y24*%
%IPPOS*%
%LPD*%
%AMOC8*
5,1,8,0,0,1.08239X$1,22.5*
%
%ADD10C,0.0000*%
%ADD11C,0.0906*%
%ADD12C,0.0107*%
%ADD13C,0.0114*%
%ADD14C,0.0134*%
%ADD15R,0.0394X0.0394*%
%ADD16C,0.0108*%
%ADD17C,0.0130*%
%ADD18C,0.0437*%
%ADD19C,0.0118*%
%ADD20C,0.0120*%
D10*
X000100Y000494D02*
X000100Y006793D01*
X000102Y006832D01*
X000108Y006870D01*
X000117Y006907D01*
X000130Y006944D01*
X000147Y006979D01*
X000166Y007012D01*
X000189Y007043D01*
X000215Y007072D01*
X000244Y007098D01*
X000275Y007121D01*
X000308Y007140D01*
X000343Y007157D01*
X000380Y007170D01*
X000417Y007179D01*
X000455Y007185D01*
X000494Y007187D01*
X005737Y007187D01*
X005776Y007185D01*
X005814Y007179D01*
X005851Y007170D01*
X005888Y007157D01*
X005923Y007140D01*
X005956Y007121D01*
X005987Y007098D01*
X006016Y007072D01*
X006042Y007043D01*
X006065Y007012D01*
X006084Y006979D01*
X006101Y006944D01*
X006114Y006907D01*
X006123Y006870D01*
X006129Y006832D01*
X006131Y006793D01*
X006131Y000494D01*
X006129Y000455D01*
X006123Y000417D01*
X006114Y000380D01*
X006101Y000343D01*
X006084Y000308D01*
X006065Y000275D01*
X006042Y000244D01*
X006016Y000215D01*
X005987Y000189D01*
X005956Y000166D01*
X005923Y000147D01*
X005888Y000130D01*
X005851Y000117D01*
X005814Y000108D01*
X005776Y000102D01*
X005737Y000100D01*
X000494Y000100D01*
X000455Y000102D01*
X000417Y000108D01*
X000380Y000117D01*
X000343Y000130D01*
X000308Y000147D01*
X000275Y000166D01*
X000244Y000189D01*
X000215Y000215D01*
X000189Y000244D01*
X000166Y000275D01*
X000147Y000308D01*
X000130Y000343D01*
X000117Y000380D01*
X000108Y000417D01*
X000102Y000455D01*
X000100Y000494D01*
X000454Y000887D02*
X000456Y000928D01*
X000462Y000969D01*
X000472Y001009D01*
X000485Y001048D01*
X000502Y001085D01*
X000523Y001121D01*
X000547Y001155D01*
X000574Y001186D01*
X000603Y001214D01*
X000636Y001240D01*
X000670Y001262D01*
X000707Y001281D01*
X000745Y001296D01*
X000785Y001308D01*
X000825Y001316D01*
X000866Y001320D01*
X000908Y001320D01*
X000949Y001316D01*
X000989Y001308D01*
X001029Y001296D01*
X001067Y001281D01*
X001103Y001262D01*
X001138Y001240D01*
X001171Y001214D01*
X001200Y001186D01*
X001227Y001155D01*
X001251Y001121D01*
X001272Y001085D01*
X001289Y001048D01*
X001302Y001009D01*
X001312Y000969D01*
X001318Y000928D01*
X001320Y000887D01*
X001318Y000846D01*
X001312Y000805D01*
X001302Y000765D01*
X001289Y000726D01*
X001272Y000689D01*
X001251Y000653D01*
X001227Y000619D01*
X001200Y000588D01*
X001171Y000560D01*
X001138Y000534D01*
X001104Y000512D01*
X001067Y000493D01*
X001029Y000478D01*
X000989Y000466D01*
X000949Y000458D01*
X000908Y000454D01*
X000866Y000454D01*
X000825Y000458D01*
X000785Y000466D01*
X000745Y000478D01*
X000707Y000493D01*
X000671Y000512D01*
X000636Y000534D01*
X000603Y000560D01*
X000574Y000588D01*
X000547Y000619D01*
X000523Y000653D01*
X000502Y000689D01*
X000485Y000726D01*
X000472Y000765D01*
X000462Y000805D01*
X000456Y000846D01*
X000454Y000887D01*
X000454Y006399D02*
X000456Y006440D01*
X000462Y006481D01*
X000472Y006521D01*
X000485Y006560D01*
X000502Y006597D01*
X000523Y006633D01*
X000547Y006667D01*
X000574Y006698D01*
X000603Y006726D01*
X000636Y006752D01*
X000670Y006774D01*
X000707Y006793D01*
X000745Y006808D01*
X000785Y006820D01*
X000825Y006828D01*
X000866Y006832D01*
X000908Y006832D01*
X000949Y006828D01*
X000989Y006820D01*
X001029Y006808D01*
X001067Y006793D01*
X001103Y006774D01*
X001138Y006752D01*
X001171Y006726D01*
X001200Y006698D01*
X001227Y006667D01*
X001251Y006633D01*
X001272Y006597D01*
X001289Y006560D01*
X001302Y006521D01*
X001312Y006481D01*
X001318Y006440D01*
X001320Y006399D01*
X001318Y006358D01*
X001312Y006317D01*
X001302Y006277D01*
X001289Y006238D01*
X001272Y006201D01*
X001251Y006165D01*
X001227Y006131D01*
X001200Y006100D01*
X001171Y006072D01*
X001138Y006046D01*
X001104Y006024D01*
X001067Y006005D01*
X001029Y005990D01*
X000989Y005978D01*
X000949Y005970D01*
X000908Y005966D01*
X000866Y005966D01*
X000825Y005970D01*
X000785Y005978D01*
X000745Y005990D01*
X000707Y006005D01*
X000671Y006024D01*
X000636Y006046D01*
X000603Y006072D01*
X000574Y006100D01*
X000547Y006131D01*
X000523Y006165D01*
X000502Y006201D01*
X000485Y006238D01*
X000472Y006277D01*
X000462Y006317D01*
X000456Y006358D01*
X000454Y006399D01*
D11*
X000887Y006399D03*
X000887Y000887D03*
D12*
X001104Y002224D02*
X000540Y002224D01*
X000540Y003102D01*
X001104Y003102D01*
X001104Y002224D01*
X001104Y002330D02*
X000540Y002330D01*
X000540Y002436D02*
X001104Y002436D01*
X001104Y002542D02*
X000540Y002542D01*
X000540Y002648D02*
X001104Y002648D01*
X001104Y002754D02*
X000540Y002754D01*
X000540Y002860D02*
X001104Y002860D01*
X001104Y002966D02*
X000540Y002966D01*
X000540Y003072D02*
X001104Y003072D01*
X001721Y003102D02*
X002285Y003102D01*
X002285Y002224D01*
X001721Y002224D01*
X001721Y003102D01*
X001721Y002330D02*
X002285Y002330D01*
X002285Y002436D02*
X001721Y002436D01*
X001721Y002542D02*
X002285Y002542D01*
X002285Y002648D02*
X001721Y002648D01*
X001721Y002754D02*
X002285Y002754D01*
X002285Y002860D02*
X001721Y002860D01*
X001721Y002966D02*
X002285Y002966D01*
X002285Y003072D02*
X001721Y003072D01*
D13*
X003023Y002628D02*
X003263Y002628D01*
X003263Y001916D01*
X003023Y001916D01*
X003023Y002628D01*
X003023Y002029D02*
X003263Y002029D01*
X003263Y002142D02*
X003023Y002142D01*
X003023Y002255D02*
X003263Y002255D01*
X003263Y002368D02*
X003023Y002368D01*
X003023Y002481D02*
X003263Y002481D01*
X003263Y002594D02*
X003023Y002594D01*
X003515Y002628D02*
X003755Y002628D01*
X003755Y001916D01*
X003515Y001916D01*
X003515Y002628D01*
X003515Y002029D02*
X003755Y002029D01*
X003755Y002142D02*
X003515Y002142D01*
X003515Y002255D02*
X003755Y002255D01*
X003755Y002368D02*
X003515Y002368D01*
X003515Y002481D02*
X003755Y002481D01*
X003755Y002594D02*
X003515Y002594D01*
X004007Y002628D02*
X004247Y002628D01*
X004247Y001916D01*
X004007Y001916D01*
X004007Y002628D01*
X004007Y002029D02*
X004247Y002029D01*
X004247Y002142D02*
X004007Y002142D01*
X004007Y002255D02*
X004247Y002255D01*
X004247Y002368D02*
X004007Y002368D01*
X004007Y002481D02*
X004247Y002481D01*
X004247Y002594D02*
X004007Y002594D01*
X004499Y002628D02*
X004739Y002628D01*
X004739Y001916D01*
X004499Y001916D01*
X004499Y002628D01*
X004499Y002029D02*
X004739Y002029D01*
X004739Y002142D02*
X004499Y002142D01*
X004499Y002255D02*
X004739Y002255D01*
X004739Y002368D02*
X004499Y002368D01*
X004499Y002481D02*
X004739Y002481D01*
X004739Y002594D02*
X004499Y002594D01*
X005418Y006050D02*
X005658Y006050D01*
X005658Y005810D01*
X005418Y005810D01*
X005418Y006050D01*
X005418Y005923D02*
X005658Y005923D01*
X005658Y006036D02*
X005418Y006036D01*
X005418Y006640D02*
X005658Y006640D01*
X005658Y006400D01*
X005418Y006400D01*
X005418Y006640D01*
X005418Y006513D02*
X005658Y006513D01*
X005658Y006626D02*
X005418Y006626D01*
D14*
X004091Y004667D02*
X003871Y004667D01*
X004091Y004667D02*
X004091Y004643D01*
X003871Y004643D01*
X003871Y004667D01*
X003871Y004470D02*
X004091Y004470D01*
X004091Y004446D01*
X003871Y004446D01*
X003871Y004470D01*
X003871Y004273D02*
X004091Y004273D01*
X004091Y004249D01*
X003871Y004249D01*
X003871Y004273D01*
X003871Y004076D02*
X004091Y004076D01*
X004091Y004052D01*
X003871Y004052D01*
X003871Y004076D01*
X003871Y003879D02*
X004091Y003879D01*
X004091Y003855D01*
X003871Y003855D01*
X003871Y003879D01*
X003871Y003682D02*
X004091Y003682D01*
X004091Y003658D01*
X003871Y003658D01*
X003871Y003682D01*
X003674Y003485D02*
X003674Y003265D01*
X003674Y003485D02*
X003698Y003485D01*
X003698Y003265D01*
X003674Y003265D01*
X003674Y003398D02*
X003698Y003398D01*
X003477Y003485D02*
X003477Y003265D01*
X003477Y003485D02*
X003501Y003485D01*
X003501Y003265D01*
X003477Y003265D01*
X003477Y003398D02*
X003501Y003398D01*
X003280Y003485D02*
X003280Y003265D01*
X003280Y003485D02*
X003304Y003485D01*
X003304Y003265D01*
X003280Y003265D01*
X003280Y003398D02*
X003304Y003398D01*
X003083Y003485D02*
X003083Y003265D01*
X003083Y003485D02*
X003107Y003485D01*
X003107Y003265D01*
X003083Y003265D01*
X003083Y003398D02*
X003107Y003398D01*
X002886Y003485D02*
X002886Y003265D01*
X002886Y003485D02*
X002910Y003485D01*
X002910Y003265D01*
X002886Y003265D01*
X002886Y003398D02*
X002910Y003398D01*
X002690Y003485D02*
X002690Y003265D01*
X002690Y003485D02*
X002714Y003485D01*
X002714Y003265D01*
X002690Y003265D01*
X002690Y003398D02*
X002714Y003398D01*
X002516Y003658D02*
X002296Y003658D01*
X002296Y003682D01*
X002516Y003682D01*
X002516Y003658D01*
X002516Y003855D02*
X002296Y003855D01*
X002296Y003879D01*
X002516Y003879D01*
X002516Y003855D01*
X002516Y004052D02*
X002296Y004052D01*
X002296Y004076D01*
X002516Y004076D01*
X002516Y004052D01*
X002516Y004249D02*
X002296Y004249D01*
X002296Y004273D01*
X002516Y004273D01*
X002516Y004249D01*
X002516Y004446D02*
X002296Y004446D01*
X002296Y004470D01*
X002516Y004470D01*
X002516Y004446D01*
X002516Y004643D02*
X002296Y004643D01*
X002296Y004667D01*
X002516Y004667D01*
X002516Y004643D01*
X002714Y004840D02*
X002714Y005060D01*
X002714Y004840D02*
X002690Y004840D01*
X002690Y005060D01*
X002714Y005060D01*
X002714Y004973D02*
X002690Y004973D01*
X002910Y005060D02*
X002910Y004840D01*
X002886Y004840D01*
X002886Y005060D01*
X002910Y005060D01*
X002910Y004973D02*
X002886Y004973D01*
X003107Y005060D02*
X003107Y004840D01*
X003083Y004840D01*
X003083Y005060D01*
X003107Y005060D01*
X003107Y004973D02*
X003083Y004973D01*
X003304Y005060D02*
X003304Y004840D01*
X003280Y004840D01*
X003280Y005060D01*
X003304Y005060D01*
X003304Y004973D02*
X003280Y004973D01*
X003501Y005060D02*
X003501Y004840D01*
X003477Y004840D01*
X003477Y005060D01*
X003501Y005060D01*
X003501Y004973D02*
X003477Y004973D01*
X003698Y005060D02*
X003698Y004840D01*
X003674Y004840D01*
X003674Y005060D01*
X003698Y005060D01*
X003698Y004973D02*
X003674Y004973D01*
D15*
X003194Y004163D03*
D16*
X002657Y005727D02*
X002293Y005727D01*
X002293Y006053D01*
X002657Y006053D01*
X002657Y005727D01*
X002657Y005834D02*
X002293Y005834D01*
X002293Y005941D02*
X002657Y005941D01*
X002657Y006048D02*
X002293Y006048D01*
X002293Y006397D02*
X002657Y006397D01*
X002293Y006397D02*
X002293Y006723D01*
X002657Y006723D01*
X002657Y006397D01*
X002657Y006504D02*
X002293Y006504D01*
X002293Y006611D02*
X002657Y006611D01*
X002657Y006718D02*
X002293Y006718D01*
X001272Y005095D02*
X001272Y004731D01*
X001272Y005095D02*
X001598Y005095D01*
X001598Y004731D01*
X001272Y004731D01*
X001272Y004838D02*
X001598Y004838D01*
X001598Y004945D02*
X001272Y004945D01*
X001272Y005052D02*
X001598Y005052D01*
X001272Y004470D02*
X001272Y004106D01*
X001272Y004470D02*
X001598Y004470D01*
X001598Y004106D01*
X001272Y004106D01*
X001272Y004213D02*
X001598Y004213D01*
X001598Y004320D02*
X001272Y004320D01*
X001272Y004427D02*
X001598Y004427D01*
X001272Y003845D02*
X001272Y003481D01*
X001272Y003845D02*
X001598Y003845D01*
X001598Y003481D01*
X001272Y003481D01*
X001272Y003588D02*
X001598Y003588D01*
X001598Y003695D02*
X001272Y003695D01*
X001272Y003802D02*
X001598Y003802D01*
X000602Y003845D02*
X000602Y003481D01*
X000602Y003845D02*
X000928Y003845D01*
X000928Y003481D01*
X000602Y003481D01*
X000602Y003588D02*
X000928Y003588D01*
X000928Y003695D02*
X000602Y003695D01*
X000602Y003802D02*
X000928Y003802D01*
X000602Y004106D02*
X000602Y004470D01*
X000928Y004470D01*
X000928Y004106D01*
X000602Y004106D01*
X000602Y004213D02*
X000928Y004213D01*
X000928Y004320D02*
X000602Y004320D01*
X000602Y004427D02*
X000928Y004427D01*
X000602Y004731D02*
X000602Y005095D01*
X000928Y005095D01*
X000928Y004731D01*
X000602Y004731D01*
X000602Y004838D02*
X000928Y004838D01*
X000928Y004945D02*
X000602Y004945D01*
X000602Y005052D02*
X000928Y005052D01*
X004991Y005043D02*
X004991Y005407D01*
X004991Y005043D02*
X004665Y005043D01*
X004665Y005407D01*
X004991Y005407D01*
X004991Y005150D02*
X004665Y005150D01*
X004665Y005257D02*
X004991Y005257D01*
X004991Y005364D02*
X004665Y005364D01*
X005032Y005727D02*
X005032Y006053D01*
X005032Y005727D02*
X004668Y005727D01*
X004668Y006053D01*
X005032Y006053D01*
X005032Y005834D02*
X004668Y005834D01*
X004668Y005941D02*
X005032Y005941D01*
X005032Y006048D02*
X004668Y006048D01*
X005032Y006397D02*
X005032Y006723D01*
X005032Y006397D02*
X004668Y006397D01*
X004668Y006723D01*
X005032Y006723D01*
X005032Y006504D02*
X004668Y006504D01*
X004668Y006611D02*
X005032Y006611D01*
X005032Y006718D02*
X004668Y006718D01*
X005660Y005407D02*
X005660Y005043D01*
X005334Y005043D01*
X005334Y005407D01*
X005660Y005407D01*
X005660Y005150D02*
X005334Y005150D01*
X005334Y005257D02*
X005660Y005257D01*
X005660Y005364D02*
X005334Y005364D01*
X005334Y004418D02*
X005660Y004418D01*
X005334Y004418D02*
X005334Y004782D01*
X005660Y004782D01*
X005660Y004418D01*
X005660Y004525D02*
X005334Y004525D01*
X005334Y004632D02*
X005660Y004632D01*
X005660Y004739D02*
X005334Y004739D01*
X004991Y004418D02*
X004665Y004418D01*
X004665Y004782D01*
X004991Y004782D01*
X004991Y004418D01*
X004991Y004525D02*
X004665Y004525D01*
X004665Y004632D02*
X004991Y004632D01*
X004991Y004739D02*
X004665Y004739D01*
X004665Y003793D02*
X004991Y003793D01*
X004665Y003793D02*
X004665Y004157D01*
X004991Y004157D01*
X004991Y003793D01*
X004991Y003900D02*
X004665Y003900D01*
X004665Y004007D02*
X004991Y004007D01*
X004991Y004114D02*
X004665Y004114D01*
X004991Y003532D02*
X004991Y003168D01*
X004665Y003168D01*
X004665Y003532D01*
X004991Y003532D01*
X004991Y003275D02*
X004665Y003275D01*
X004665Y003382D02*
X004991Y003382D01*
X004991Y003489D02*
X004665Y003489D01*
X005660Y003532D02*
X005660Y003168D01*
X005334Y003168D01*
X005334Y003532D01*
X005660Y003532D01*
X005660Y003275D02*
X005334Y003275D01*
X005334Y003382D02*
X005660Y003382D01*
X005660Y003489D02*
X005334Y003489D01*
X005334Y003793D02*
X005660Y003793D01*
X005334Y003793D02*
X005334Y004157D01*
X005660Y004157D01*
X005660Y003793D01*
X005660Y003900D02*
X005334Y003900D01*
X005334Y004007D02*
X005660Y004007D01*
X005660Y004114D02*
X005334Y004114D01*
D17*
X005236Y001586D02*
X005972Y001586D01*
X005972Y000496D01*
X005236Y000496D01*
X005236Y001586D01*
X005236Y000625D02*
X005972Y000625D01*
X005972Y000754D02*
X005236Y000754D01*
X005236Y000883D02*
X005972Y000883D01*
X005972Y001012D02*
X005236Y001012D01*
X005236Y001141D02*
X005972Y001141D01*
X005972Y001270D02*
X005236Y001270D01*
X005236Y001399D02*
X005972Y001399D01*
X005972Y001528D02*
X005236Y001528D01*
X002527Y001586D02*
X001791Y001586D01*
X002527Y001586D02*
X002527Y000496D01*
X001791Y000496D01*
X001791Y001586D01*
X001791Y000625D02*
X002527Y000625D01*
X002527Y000754D02*
X001791Y000754D01*
X001791Y000883D02*
X002527Y000883D01*
X002527Y001012D02*
X001791Y001012D01*
X001791Y001141D02*
X002527Y001141D01*
X002527Y001270D02*
X001791Y001270D01*
X001791Y001399D02*
X002527Y001399D01*
X002527Y001528D02*
X001791Y001528D01*
D18*
X003143Y000679D03*
X003635Y000679D03*
X004127Y000679D03*
X004619Y000679D03*
D19*
X003977Y005782D02*
X003977Y005920D01*
X004371Y005920D01*
X004371Y005782D01*
X003977Y005782D01*
X003977Y005899D02*
X004371Y005899D01*
X003977Y006530D02*
X003977Y006668D01*
X004371Y006668D01*
X004371Y006530D01*
X003977Y006530D01*
X003977Y006647D02*
X004371Y006647D01*
X002954Y006668D02*
X002954Y006530D01*
X002954Y006668D02*
X003348Y006668D01*
X003348Y006530D01*
X002954Y006530D01*
X002954Y006647D02*
X003348Y006647D01*
X002954Y006294D02*
X002954Y006156D01*
X002954Y006294D02*
X003348Y006294D01*
X003348Y006156D01*
X002954Y006156D01*
X002954Y006273D02*
X003348Y006273D01*
X002954Y005920D02*
X002954Y005782D01*
X002954Y005920D02*
X003348Y005920D01*
X003348Y005782D01*
X002954Y005782D01*
X002954Y005899D02*
X003348Y005899D01*
D20*
X003453Y006440D02*
X003573Y006440D01*
X003453Y006440D02*
X003453Y006760D01*
X003573Y006760D01*
X003573Y006440D01*
X003573Y006559D02*
X003453Y006559D01*
X003453Y006678D02*
X003573Y006678D01*
X003753Y006440D02*
X003873Y006440D01*
X003753Y006440D02*
X003753Y006760D01*
X003873Y006760D01*
X003873Y006440D01*
X003873Y006559D02*
X003753Y006559D01*
X003753Y006678D02*
X003873Y006678D01*
M02*
