G75*
%MOIN*%
%OFA0B0*%
%FSLAX24Y24*%
%IPPOS*%
%LPD*%
%AMOC8*
5,1,8,0,0,1.08239X$1,22.5*
%
%ADD10C,0.0000*%
%ADD11C,0.0906*%
%ADD12C,0.0437*%
D10*
X000100Y000494D02*
X000100Y006793D01*
X000102Y006832D01*
X000108Y006870D01*
X000117Y006907D01*
X000130Y006944D01*
X000147Y006979D01*
X000166Y007012D01*
X000189Y007043D01*
X000215Y007072D01*
X000244Y007098D01*
X000275Y007121D01*
X000308Y007140D01*
X000343Y007157D01*
X000380Y007170D01*
X000417Y007179D01*
X000455Y007185D01*
X000494Y007187D01*
X005737Y007187D01*
X005776Y007185D01*
X005814Y007179D01*
X005851Y007170D01*
X005888Y007157D01*
X005923Y007140D01*
X005956Y007121D01*
X005987Y007098D01*
X006016Y007072D01*
X006042Y007043D01*
X006065Y007012D01*
X006084Y006979D01*
X006101Y006944D01*
X006114Y006907D01*
X006123Y006870D01*
X006129Y006832D01*
X006131Y006793D01*
X006131Y000494D01*
X006129Y000455D01*
X006123Y000417D01*
X006114Y000380D01*
X006101Y000343D01*
X006084Y000308D01*
X006065Y000275D01*
X006042Y000244D01*
X006016Y000215D01*
X005987Y000189D01*
X005956Y000166D01*
X005923Y000147D01*
X005888Y000130D01*
X005851Y000117D01*
X005814Y000108D01*
X005776Y000102D01*
X005737Y000100D01*
X000494Y000100D01*
X000455Y000102D01*
X000417Y000108D01*
X000380Y000117D01*
X000343Y000130D01*
X000308Y000147D01*
X000275Y000166D01*
X000244Y000189D01*
X000215Y000215D01*
X000189Y000244D01*
X000166Y000275D01*
X000147Y000308D01*
X000130Y000343D01*
X000117Y000380D01*
X000108Y000417D01*
X000102Y000455D01*
X000100Y000494D01*
X000454Y000887D02*
X000456Y000928D01*
X000462Y000969D01*
X000472Y001009D01*
X000485Y001048D01*
X000502Y001085D01*
X000523Y001121D01*
X000547Y001155D01*
X000574Y001186D01*
X000603Y001214D01*
X000636Y001240D01*
X000670Y001262D01*
X000707Y001281D01*
X000745Y001296D01*
X000785Y001308D01*
X000825Y001316D01*
X000866Y001320D01*
X000908Y001320D01*
X000949Y001316D01*
X000989Y001308D01*
X001029Y001296D01*
X001067Y001281D01*
X001103Y001262D01*
X001138Y001240D01*
X001171Y001214D01*
X001200Y001186D01*
X001227Y001155D01*
X001251Y001121D01*
X001272Y001085D01*
X001289Y001048D01*
X001302Y001009D01*
X001312Y000969D01*
X001318Y000928D01*
X001320Y000887D01*
X001318Y000846D01*
X001312Y000805D01*
X001302Y000765D01*
X001289Y000726D01*
X001272Y000689D01*
X001251Y000653D01*
X001227Y000619D01*
X001200Y000588D01*
X001171Y000560D01*
X001138Y000534D01*
X001104Y000512D01*
X001067Y000493D01*
X001029Y000478D01*
X000989Y000466D01*
X000949Y000458D01*
X000908Y000454D01*
X000866Y000454D01*
X000825Y000458D01*
X000785Y000466D01*
X000745Y000478D01*
X000707Y000493D01*
X000671Y000512D01*
X000636Y000534D01*
X000603Y000560D01*
X000574Y000588D01*
X000547Y000619D01*
X000523Y000653D01*
X000502Y000689D01*
X000485Y000726D01*
X000472Y000765D01*
X000462Y000805D01*
X000456Y000846D01*
X000454Y000887D01*
X000454Y006399D02*
X000456Y006440D01*
X000462Y006481D01*
X000472Y006521D01*
X000485Y006560D01*
X000502Y006597D01*
X000523Y006633D01*
X000547Y006667D01*
X000574Y006698D01*
X000603Y006726D01*
X000636Y006752D01*
X000670Y006774D01*
X000707Y006793D01*
X000745Y006808D01*
X000785Y006820D01*
X000825Y006828D01*
X000866Y006832D01*
X000908Y006832D01*
X000949Y006828D01*
X000989Y006820D01*
X001029Y006808D01*
X001067Y006793D01*
X001103Y006774D01*
X001138Y006752D01*
X001171Y006726D01*
X001200Y006698D01*
X001227Y006667D01*
X001251Y006633D01*
X001272Y006597D01*
X001289Y006560D01*
X001302Y006521D01*
X001312Y006481D01*
X001318Y006440D01*
X001320Y006399D01*
X001318Y006358D01*
X001312Y006317D01*
X001302Y006277D01*
X001289Y006238D01*
X001272Y006201D01*
X001251Y006165D01*
X001227Y006131D01*
X001200Y006100D01*
X001171Y006072D01*
X001138Y006046D01*
X001104Y006024D01*
X001067Y006005D01*
X001029Y005990D01*
X000989Y005978D01*
X000949Y005970D01*
X000908Y005966D01*
X000866Y005966D01*
X000825Y005970D01*
X000785Y005978D01*
X000745Y005990D01*
X000707Y006005D01*
X000671Y006024D01*
X000636Y006046D01*
X000603Y006072D01*
X000574Y006100D01*
X000547Y006131D01*
X000523Y006165D01*
X000502Y006201D01*
X000485Y006238D01*
X000472Y006277D01*
X000462Y006317D01*
X000456Y006358D01*
X000454Y006399D01*
D11*
X000887Y006399D03*
X000887Y000887D03*
D12*
X003143Y000679D03*
X003635Y000679D03*
X004127Y000679D03*
X004619Y000679D03*
M02*
