G75*
G70*
%OFA0B0*%
%FSLAX24Y24*%
%IPPOS*%
%LPD*%
%AMOC8*
5,1,8,0,0,1.08239X$1,22.5*
%
%ADD10C,0.0030*%
%ADD11C,0.0079*%
%ADD12C,0.0140*%
%ADD13C,0.0100*%
D10*
X038444Y023074D02*
X038637Y023364D01*
X038637Y023468D02*
X038444Y023758D01*
X038637Y023758D02*
X038444Y023468D01*
X038444Y023364D02*
X038637Y023074D01*
X038738Y023074D02*
X038835Y023171D01*
X038787Y023171D02*
X038932Y023171D01*
X038932Y023074D02*
X038932Y023364D01*
X038787Y023364D01*
X038738Y023316D01*
X038738Y023219D01*
X038787Y023171D01*
X039033Y023219D02*
X039226Y023219D01*
X039328Y023364D02*
X039521Y023364D01*
X039424Y023364D02*
X039424Y023074D01*
X039446Y022971D02*
X039446Y022680D01*
X039639Y022971D01*
X039639Y022680D01*
X039740Y022729D02*
X039740Y022825D01*
X039837Y022825D01*
X039740Y022729D02*
X039789Y022680D01*
X039885Y022680D01*
X039934Y022729D01*
X039934Y022922D01*
X039885Y022971D01*
X039789Y022971D01*
X039740Y022922D01*
X039816Y023074D02*
X039816Y023364D01*
X039622Y023074D01*
X039622Y023364D01*
X039622Y023468D02*
X039622Y023758D01*
X039521Y023758D02*
X039328Y023758D01*
X039424Y023758D02*
X039424Y023468D01*
X039622Y023468D02*
X039816Y023758D01*
X039816Y023468D01*
X039767Y023861D02*
X039816Y023910D01*
X039767Y023861D02*
X039671Y023861D01*
X039622Y023910D01*
X039622Y024007D01*
X039671Y024055D01*
X039719Y024055D01*
X039816Y024007D01*
X039816Y024152D01*
X039622Y024152D01*
X039521Y024152D02*
X039521Y023958D01*
X039424Y023861D01*
X039328Y023958D01*
X039328Y024152D01*
X039328Y024255D02*
X039328Y024545D01*
X039226Y024545D02*
X039081Y024545D01*
X039033Y024497D01*
X039033Y024304D01*
X039081Y024255D01*
X039226Y024255D01*
X039226Y024545D01*
X039226Y024649D02*
X039226Y024842D01*
X039130Y024939D01*
X039033Y024842D01*
X039033Y024649D01*
X039033Y024794D02*
X039226Y024794D01*
X039328Y024842D02*
X039376Y024794D01*
X039521Y024794D01*
X039622Y024746D02*
X039622Y024939D01*
X039521Y024939D02*
X039376Y024939D01*
X039328Y024891D01*
X039328Y024842D01*
X039376Y024794D02*
X039328Y024746D01*
X039328Y024697D01*
X039376Y024649D01*
X039521Y024649D01*
X039521Y024939D01*
X039521Y025043D02*
X039376Y025043D01*
X039328Y025091D01*
X039328Y025139D01*
X039376Y025188D01*
X039521Y025188D01*
X039622Y025139D02*
X039622Y025333D01*
X039521Y025333D02*
X039376Y025333D01*
X039328Y025284D01*
X039328Y025236D01*
X039376Y025188D01*
X039226Y025188D02*
X039033Y025188D01*
X039033Y025236D02*
X039033Y025043D01*
X038932Y024939D02*
X038738Y024939D01*
X038835Y024939D02*
X038835Y024649D01*
X038835Y025043D02*
X038835Y025333D01*
X038932Y025333D02*
X038738Y025333D01*
X039033Y025236D02*
X039130Y025333D01*
X039226Y025236D01*
X039226Y025043D01*
X039521Y025043D02*
X039521Y025333D01*
X039622Y025139D02*
X039719Y025043D01*
X039816Y025139D01*
X039816Y025333D01*
X039816Y024939D02*
X039816Y024746D01*
X039719Y024649D01*
X039622Y024746D01*
X039671Y024545D02*
X039767Y024545D01*
X039816Y024497D01*
X039816Y024304D01*
X039767Y024255D01*
X039671Y024255D01*
X039622Y024304D01*
X039622Y024400D01*
X039719Y024400D01*
X039622Y024497D02*
X039671Y024545D01*
X039521Y024545D02*
X039328Y024255D01*
X039521Y024255D02*
X039521Y024545D01*
X039226Y023613D02*
X039033Y023613D01*
X038932Y023758D02*
X038738Y023758D01*
X038835Y023758D02*
X038835Y023468D01*
X039199Y022971D02*
X039345Y022971D01*
X039345Y022680D01*
X039199Y022680D01*
X039151Y022729D01*
X039151Y022922D01*
X039199Y022971D01*
X040833Y027247D02*
X040929Y027247D01*
X040978Y027296D01*
X041079Y027296D02*
X041127Y027247D01*
X041224Y027247D01*
X041272Y027296D01*
X041272Y027489D01*
X041224Y027538D01*
X041127Y027538D01*
X041079Y027489D01*
X040978Y027489D02*
X040929Y027538D01*
X040833Y027538D01*
X040784Y027489D01*
X040784Y027441D01*
X040833Y027392D01*
X040784Y027344D01*
X040784Y027296D01*
X040833Y027247D01*
X040833Y027392D02*
X040881Y027392D01*
X040978Y028113D02*
X040784Y028307D01*
X040784Y028355D01*
X040833Y028404D01*
X040929Y028404D01*
X040978Y028355D01*
X041079Y028355D02*
X041127Y028404D01*
X041224Y028404D01*
X041272Y028355D01*
X041272Y028162D01*
X041224Y028113D01*
X041127Y028113D01*
X041079Y028162D01*
X040978Y028113D02*
X040784Y028113D01*
X040784Y029255D02*
X040978Y029255D01*
X040881Y029255D02*
X040881Y029545D01*
X040978Y029449D01*
X041079Y029497D02*
X041127Y029545D01*
X041224Y029545D01*
X041272Y029497D01*
X041272Y029304D01*
X041224Y029255D01*
X041127Y029255D01*
X041079Y029304D01*
X041127Y030043D02*
X041272Y030043D01*
X041272Y030333D01*
X041127Y030333D01*
X041079Y030284D01*
X041079Y030236D01*
X041127Y030188D01*
X041272Y030188D01*
X041127Y030188D02*
X041079Y030139D01*
X041079Y030091D01*
X041127Y030043D01*
X040978Y030091D02*
X040929Y030043D01*
X040833Y030043D01*
X040784Y030091D01*
X040784Y030139D01*
X040833Y030188D01*
X040881Y030188D01*
X040833Y030188D02*
X040784Y030236D01*
X040784Y030284D01*
X040833Y030333D01*
X040929Y030333D01*
X040978Y030284D01*
X040978Y031263D02*
X040784Y031457D01*
X040784Y031505D01*
X040833Y031553D01*
X040929Y031553D01*
X040978Y031505D01*
X041079Y031505D02*
X041079Y031457D01*
X041127Y031408D01*
X041272Y031408D01*
X041127Y031408D02*
X041079Y031360D01*
X041079Y031311D01*
X041127Y031263D01*
X041272Y031263D01*
X041272Y031553D01*
X041127Y031553D01*
X041079Y031505D01*
X040978Y031263D02*
X040784Y031263D01*
X040802Y032523D02*
X040802Y032813D01*
X040899Y032716D01*
X041000Y032716D02*
X041049Y032668D01*
X041194Y032668D01*
X041194Y032813D02*
X041049Y032813D01*
X041000Y032765D01*
X041000Y032716D01*
X041049Y032668D02*
X041000Y032620D01*
X041000Y032571D01*
X041049Y032523D01*
X041194Y032523D01*
X041194Y032813D01*
X040899Y032523D02*
X040706Y032523D01*
X040833Y033232D02*
X040929Y033232D01*
X040978Y033280D01*
X041079Y033232D02*
X041079Y033425D01*
X041176Y033522D01*
X041272Y033425D01*
X041272Y033232D01*
X041272Y033377D02*
X041079Y033377D01*
X040978Y033473D02*
X040929Y033522D01*
X040833Y033522D01*
X040784Y033473D01*
X040784Y033425D01*
X040833Y033377D01*
X040784Y033328D01*
X040784Y033280D01*
X040833Y033232D01*
X040833Y033377D02*
X040881Y033377D01*
X040899Y034413D02*
X040706Y034606D01*
X040706Y034655D01*
X040754Y034703D01*
X040851Y034703D01*
X040899Y034655D01*
X041000Y034606D02*
X041000Y034413D01*
X040899Y034413D02*
X040706Y034413D01*
X041000Y034558D02*
X041194Y034558D01*
X041194Y034606D02*
X041194Y034413D01*
X041194Y034606D02*
X041097Y034703D01*
X041000Y034606D01*
X040682Y034837D02*
X040634Y034789D01*
X040440Y034789D01*
X040392Y034837D01*
X040392Y034934D01*
X040440Y034982D01*
X040537Y034982D01*
X040537Y034885D01*
X040634Y034982D02*
X040682Y034934D01*
X040682Y034837D01*
X040682Y035083D02*
X040392Y035277D01*
X040682Y035277D01*
X040682Y035378D02*
X040682Y035523D01*
X040634Y035571D01*
X040440Y035571D01*
X040392Y035523D01*
X040392Y035378D01*
X040682Y035378D01*
X040881Y035412D02*
X040881Y035121D01*
X040978Y035121D02*
X040784Y035121D01*
X040682Y035083D02*
X040392Y035083D01*
X040288Y035044D02*
X039998Y035237D01*
X039998Y035338D02*
X040192Y035532D01*
X040240Y035532D01*
X040288Y035484D01*
X040288Y035387D01*
X040240Y035338D01*
X040288Y035237D02*
X039998Y035044D01*
X039998Y034943D02*
X040095Y034846D01*
X040095Y034894D02*
X040095Y034749D01*
X039998Y034749D02*
X040288Y034749D01*
X040288Y034894D01*
X040240Y034943D01*
X040143Y034943D01*
X040095Y034894D01*
X039998Y035338D02*
X039998Y035532D01*
X039658Y035592D02*
X039368Y035398D01*
X039368Y035592D02*
X039658Y035398D01*
X039658Y035297D02*
X039658Y035103D01*
X039658Y035200D02*
X039368Y035200D01*
X039368Y035693D02*
X039562Y035886D01*
X039610Y035886D01*
X039658Y035838D01*
X039658Y035741D01*
X039610Y035693D01*
X039368Y035693D02*
X039368Y035886D01*
X040881Y035412D02*
X040978Y035315D01*
X041079Y035315D02*
X041079Y035121D01*
X041079Y035266D02*
X041272Y035266D01*
X041272Y035315D02*
X041176Y035412D01*
X041079Y035315D01*
X041272Y035315D02*
X041272Y035121D01*
X038635Y033948D02*
X038635Y033803D01*
X038345Y033803D01*
X038345Y033948D01*
X038393Y033997D01*
X038586Y033997D01*
X038635Y033948D01*
X038635Y033702D02*
X038345Y033702D01*
X038635Y033508D01*
X038345Y033508D01*
X038241Y033508D02*
X037951Y033702D01*
X037847Y033702D02*
X037557Y033508D01*
X037606Y033407D02*
X037847Y033407D01*
X037847Y033508D02*
X037557Y033702D01*
X037557Y033803D02*
X037557Y033997D01*
X037557Y033900D02*
X037847Y033900D01*
X037751Y033803D01*
X037951Y033851D02*
X037999Y033803D01*
X038193Y033997D01*
X037999Y033997D01*
X037951Y033948D01*
X037951Y033851D01*
X037999Y033803D02*
X038193Y033803D01*
X038241Y033851D01*
X038241Y033948D01*
X038193Y033997D01*
X038241Y033702D02*
X037951Y033508D01*
X037999Y033407D02*
X038241Y033407D01*
X038345Y033359D02*
X038393Y033407D01*
X038490Y033407D01*
X038490Y033310D01*
X038586Y033214D02*
X038393Y033214D01*
X038345Y033262D01*
X038345Y033359D01*
X038241Y033214D02*
X037999Y033214D01*
X037951Y033262D01*
X037951Y033359D01*
X037999Y033407D01*
X037847Y033214D02*
X037606Y033214D01*
X037557Y033262D01*
X037557Y033359D01*
X037606Y033407D01*
X037557Y033113D02*
X037751Y033113D01*
X037847Y033016D01*
X037751Y032919D01*
X037557Y032919D01*
X037702Y032919D02*
X037702Y033113D01*
X037951Y033113D02*
X038144Y033113D01*
X038241Y033016D01*
X038144Y032919D01*
X037951Y032919D01*
X038096Y032919D02*
X038096Y033113D01*
X038586Y033214D02*
X038635Y033262D01*
X038635Y033359D01*
X038586Y033407D01*
X036960Y033443D02*
X036814Y033443D01*
X036766Y033395D01*
X036766Y033298D01*
X036814Y033250D01*
X036960Y033250D01*
X036960Y033153D02*
X036960Y033443D01*
X036863Y033250D02*
X036766Y033153D01*
X036665Y033201D02*
X036616Y033153D01*
X036520Y033153D01*
X036471Y033201D01*
X036370Y033201D02*
X036177Y033395D01*
X036177Y033201D01*
X036225Y033153D01*
X036322Y033153D01*
X036370Y033201D01*
X036370Y033395D01*
X036322Y033443D01*
X036225Y033443D01*
X036177Y033395D01*
X036471Y033395D02*
X036520Y033443D01*
X036616Y033443D01*
X036665Y033395D01*
X036665Y033201D01*
X036685Y033010D02*
X036588Y033010D01*
X036636Y033010D02*
X036636Y032720D01*
X036588Y032720D02*
X036685Y032720D01*
X036488Y032720D02*
X036488Y033010D01*
X036295Y032720D01*
X036295Y033010D01*
X035761Y033113D02*
X035761Y033404D01*
X035615Y033404D01*
X035567Y033355D01*
X035567Y033259D01*
X035615Y033210D01*
X035761Y033210D01*
X035664Y033210D02*
X035567Y033113D01*
X035466Y033113D02*
X035272Y033404D01*
X035171Y033404D02*
X035171Y033259D01*
X035075Y033307D01*
X035026Y033307D01*
X034978Y033259D01*
X034978Y033162D01*
X035026Y033113D01*
X035123Y033113D01*
X035171Y033162D01*
X035272Y033113D02*
X035466Y033404D01*
X035171Y033404D02*
X034978Y033404D01*
X035105Y033940D02*
X035057Y033989D01*
X035057Y034182D01*
X035105Y034230D01*
X035250Y034230D01*
X035250Y033940D01*
X035105Y033940D01*
X035351Y033940D02*
X035351Y034230D01*
X035545Y034230D02*
X035351Y033940D01*
X035545Y033940D02*
X035545Y034230D01*
X035646Y034182D02*
X035694Y034230D01*
X035791Y034230D01*
X035839Y034182D01*
X035839Y033989D01*
X035791Y033940D01*
X035694Y033940D01*
X035646Y033989D01*
X035646Y034085D01*
X035743Y034085D01*
X036255Y033989D02*
X036255Y034182D01*
X036304Y034230D01*
X036449Y034230D01*
X036449Y033940D01*
X036304Y033940D01*
X036255Y033989D01*
X036550Y033940D02*
X036550Y034230D01*
X036744Y034230D02*
X036550Y033940D01*
X036744Y033940D02*
X036744Y034230D01*
X036845Y034182D02*
X036893Y034230D01*
X036990Y034230D01*
X037038Y034182D01*
X037038Y033989D01*
X036990Y033940D01*
X036893Y033940D01*
X036845Y033989D01*
X036845Y034085D01*
X036941Y034085D01*
X035013Y034951D02*
X034819Y034951D01*
X034916Y034855D02*
X034916Y035048D01*
X034718Y035048D02*
X034670Y035097D01*
X034573Y035097D01*
X034524Y035048D01*
X034524Y035000D01*
X034573Y034951D01*
X034524Y034903D01*
X034524Y034855D01*
X034573Y034806D01*
X034670Y034806D01*
X034718Y034855D01*
X034621Y034951D02*
X034573Y034951D01*
X034423Y034903D02*
X034327Y034806D01*
X034230Y034903D01*
X034230Y035097D01*
X034129Y035048D02*
X034080Y035097D01*
X033983Y035097D01*
X033935Y035048D01*
X033935Y035000D01*
X033983Y034951D01*
X033935Y034903D01*
X033935Y034855D01*
X033983Y034806D01*
X034080Y034806D01*
X034129Y034855D01*
X034032Y034951D02*
X033983Y034951D01*
X033983Y035318D02*
X033935Y035367D01*
X033983Y035318D02*
X034080Y035318D01*
X034129Y035367D01*
X034129Y035560D01*
X034080Y035608D01*
X033983Y035608D01*
X033935Y035560D01*
X033834Y035608D02*
X033834Y035318D01*
X033640Y035318D01*
X033539Y035318D02*
X033539Y035608D01*
X033491Y035463D02*
X033346Y035318D01*
X033539Y035415D02*
X033346Y035608D01*
X034230Y035560D02*
X034278Y035608D01*
X034423Y035608D01*
X034423Y035318D01*
X034278Y035318D01*
X034230Y035367D01*
X034230Y035560D01*
X034278Y035791D02*
X034230Y035839D01*
X034230Y036032D01*
X034278Y036081D01*
X034423Y036081D01*
X034423Y035791D01*
X034278Y035791D01*
X034524Y035791D02*
X034524Y036081D01*
X034718Y036081D02*
X034524Y035791D01*
X034524Y035608D02*
X034524Y035318D01*
X034621Y035415D01*
X034718Y035318D01*
X034718Y035608D01*
X034819Y035560D02*
X034867Y035608D01*
X034964Y035608D01*
X035013Y035560D01*
X035013Y035512D01*
X034964Y035463D01*
X034867Y035463D01*
X034819Y035415D01*
X034819Y035367D01*
X034867Y035318D01*
X034964Y035318D01*
X035013Y035367D01*
X034964Y035791D02*
X034867Y035791D01*
X034819Y035839D01*
X034819Y035936D01*
X034916Y035936D01*
X035013Y036032D02*
X035013Y035839D01*
X034964Y035791D01*
X034718Y035791D02*
X034718Y036081D01*
X034819Y036032D02*
X034867Y036081D01*
X034964Y036081D01*
X035013Y036032D01*
X034964Y036302D02*
X035013Y036351D01*
X034964Y036302D02*
X034867Y036302D01*
X034819Y036351D01*
X034819Y036399D01*
X034867Y036448D01*
X034964Y036448D01*
X035013Y036496D01*
X035013Y036544D01*
X034964Y036593D01*
X034867Y036593D01*
X034819Y036544D01*
X034718Y036593D02*
X034718Y036302D01*
X034621Y036399D01*
X034524Y036302D01*
X034524Y036593D01*
X034423Y036593D02*
X034278Y036593D01*
X034230Y036544D01*
X034230Y036351D01*
X034278Y036302D01*
X034423Y036302D01*
X034423Y036593D01*
X034129Y036593D02*
X034032Y036593D01*
X034080Y036593D02*
X034080Y036302D01*
X034032Y036302D02*
X034129Y036302D01*
X033932Y036351D02*
X033884Y036302D01*
X033787Y036302D01*
X033739Y036351D01*
X033739Y036544D01*
X033787Y036593D01*
X033884Y036593D01*
X033932Y036544D01*
X033932Y036351D01*
X034423Y035097D02*
X034423Y034903D01*
X035057Y032459D02*
X035250Y032459D01*
X035250Y032314D01*
X035153Y032362D01*
X035105Y032362D01*
X035057Y032314D01*
X035057Y032217D01*
X035105Y032169D01*
X035202Y032169D01*
X035250Y032217D01*
X035351Y032169D02*
X035545Y032459D01*
X035646Y032459D02*
X035839Y032459D01*
X035743Y032459D02*
X035743Y032169D01*
X035545Y032169D02*
X035351Y032459D01*
X036255Y032169D02*
X036449Y032169D01*
X036352Y032169D02*
X036352Y032459D01*
X036449Y032362D01*
X036550Y032410D02*
X036598Y032459D01*
X036695Y032459D01*
X036744Y032410D01*
X036744Y032217D01*
X036695Y032169D01*
X036598Y032169D01*
X036550Y032217D01*
X036550Y032026D02*
X036744Y031735D01*
X036550Y031735D02*
X036744Y032026D01*
X036845Y032026D02*
X037038Y032026D01*
X036941Y032026D02*
X036941Y031735D01*
X036845Y032169D02*
X036941Y032265D01*
X036893Y032265D02*
X037038Y032265D01*
X037038Y032169D02*
X037038Y032459D01*
X036893Y032459D01*
X036845Y032410D01*
X036845Y032314D01*
X036893Y032265D01*
X036449Y031977D02*
X036401Y032026D01*
X036304Y032026D01*
X036255Y031977D01*
X036255Y031929D01*
X036304Y031881D01*
X036255Y031832D01*
X036255Y031784D01*
X036304Y031735D01*
X036401Y031735D01*
X036449Y031784D01*
X036352Y031881D02*
X036304Y031881D01*
X036264Y031238D02*
X036216Y031190D01*
X036216Y031142D01*
X036264Y031093D01*
X036216Y031045D01*
X036216Y030996D01*
X036264Y030948D01*
X036361Y030948D01*
X036410Y030996D01*
X036511Y031045D02*
X036511Y031238D01*
X036410Y031190D02*
X036361Y031238D01*
X036264Y031238D01*
X036264Y031093D02*
X036313Y031093D01*
X036511Y031045D02*
X036607Y030948D01*
X036704Y031045D01*
X036704Y031238D01*
X036805Y031190D02*
X036805Y031142D01*
X036854Y031093D01*
X036805Y031045D01*
X036805Y030996D01*
X036854Y030948D01*
X036951Y030948D01*
X036999Y030996D01*
X036902Y031093D02*
X036854Y031093D01*
X036805Y031190D02*
X036854Y031238D01*
X036951Y031238D01*
X036999Y031190D01*
X036783Y030412D02*
X036589Y030412D01*
X036488Y030412D02*
X036488Y030218D01*
X036392Y030121D01*
X036295Y030218D01*
X036295Y030412D01*
X036589Y030266D02*
X036589Y030170D01*
X036638Y030121D01*
X036735Y030121D01*
X036783Y030170D01*
X036783Y030266D02*
X036686Y030315D01*
X036638Y030315D01*
X036589Y030266D01*
X036783Y030266D02*
X036783Y030412D01*
X035800Y030412D02*
X035800Y030121D01*
X035800Y030218D02*
X035655Y030218D01*
X035606Y030266D01*
X035606Y030363D01*
X035655Y030412D01*
X035800Y030412D01*
X035703Y030218D02*
X035606Y030121D01*
X035505Y030170D02*
X035457Y030121D01*
X035360Y030121D01*
X035312Y030170D01*
X035211Y030121D02*
X035017Y030315D01*
X035017Y030363D01*
X035066Y030412D01*
X035162Y030412D01*
X035211Y030363D01*
X035312Y030363D02*
X035360Y030412D01*
X035457Y030412D01*
X035505Y030363D01*
X035505Y030170D01*
X035211Y030121D02*
X035017Y030121D01*
X035281Y030791D02*
X035378Y030791D01*
X035427Y030839D01*
X035233Y031032D01*
X035233Y030839D01*
X035281Y030791D01*
X035427Y030839D02*
X035427Y031032D01*
X035378Y031081D01*
X035281Y031081D01*
X035233Y031032D01*
X035211Y031184D02*
X035017Y031378D01*
X035017Y031426D01*
X035066Y031475D01*
X035162Y031475D01*
X035211Y031426D01*
X035312Y031426D02*
X035360Y031475D01*
X035457Y031475D01*
X035505Y031426D01*
X035505Y031233D01*
X035457Y031184D01*
X035360Y031184D01*
X035312Y031233D01*
X035211Y031184D02*
X035017Y031184D01*
X034540Y031251D02*
X034395Y031251D01*
X034347Y031202D01*
X034347Y031154D01*
X034395Y031106D01*
X034540Y031106D01*
X034540Y031396D01*
X034395Y031396D01*
X034347Y031347D01*
X034347Y031299D01*
X034395Y031251D01*
X034245Y031396D02*
X034245Y031106D01*
X034052Y031106D01*
X035528Y030936D02*
X035721Y030936D01*
X035800Y031184D02*
X035800Y031475D01*
X035655Y031475D01*
X035606Y031426D01*
X035606Y031329D01*
X035655Y031281D01*
X035800Y031281D01*
X035703Y031281D02*
X035606Y031184D01*
D11*
X036012Y031602D02*
X034752Y031602D01*
X034752Y032587D01*
X036012Y032587D01*
X037272Y032587D01*
X037272Y031602D01*
X036012Y031602D01*
X036012Y030657D01*
X034752Y030657D01*
X034752Y031602D01*
X034673Y030933D02*
X033965Y030933D01*
X033965Y030146D01*
X034673Y030146D01*
X034673Y030933D01*
X034752Y030657D02*
X034752Y029713D01*
X036012Y029713D01*
X037272Y029713D01*
X037272Y030657D01*
X036012Y030657D01*
X036012Y029713D01*
X037272Y030657D02*
X037272Y031602D01*
X036012Y031602D02*
X036012Y032587D01*
X036012Y033571D01*
X034752Y033571D01*
X034752Y034476D01*
X036012Y034476D01*
X037272Y034476D01*
X037272Y033571D01*
X036012Y033571D01*
X036012Y034476D01*
X037193Y035067D02*
X037350Y035067D01*
X037193Y035067D02*
X037193Y035894D01*
X037744Y036681D02*
X038531Y036681D01*
X039083Y035894D02*
X039083Y035067D01*
X038925Y035067D01*
X037272Y033571D02*
X037272Y032587D01*
X034752Y032587D02*
X034752Y033571D01*
X040539Y025736D02*
X040539Y025579D01*
X040539Y025736D02*
X041366Y025736D01*
X042154Y025185D02*
X042154Y022823D01*
X041366Y022272D02*
X040539Y022272D01*
X040539Y022429D01*
D12*
X038890Y021795D02*
X038890Y021422D01*
X038054Y021608D02*
X037680Y021608D01*
X037867Y021422D02*
X037867Y021795D01*
D13*
X031895Y025837D02*
X031628Y025837D01*
X031895Y025837D02*
X031628Y026104D01*
X031628Y026171D01*
X031694Y026238D01*
X031828Y026238D01*
X031895Y026171D01*
X032088Y026171D02*
X032155Y026238D01*
X032288Y026238D01*
X032355Y026171D01*
X032549Y026171D02*
X032815Y025904D01*
X032749Y025837D01*
X032615Y025837D01*
X032549Y025904D01*
X032549Y026171D01*
X032615Y026238D01*
X032749Y026238D01*
X032815Y026171D01*
X032815Y025904D01*
X033009Y025837D02*
X033276Y025837D01*
X033009Y026104D01*
X033009Y026171D01*
X033076Y026238D01*
X033209Y026238D01*
X033276Y026171D01*
X032912Y026507D02*
X032779Y026774D01*
X032585Y026707D02*
X032318Y026707D01*
X032385Y026907D02*
X032585Y026707D01*
X032385Y026507D02*
X032385Y026907D01*
X032125Y026573D02*
X032058Y026573D01*
X032058Y026507D01*
X032125Y026507D01*
X032125Y026573D01*
X031895Y026573D02*
X031628Y026840D01*
X031628Y026573D01*
X031694Y026507D01*
X031828Y026507D01*
X031895Y026573D01*
X031895Y026840D01*
X031828Y026907D01*
X031694Y026907D01*
X031628Y026840D01*
X032088Y026171D02*
X032088Y026104D01*
X032355Y025837D01*
X032088Y025837D01*
X032912Y026507D02*
X033046Y026774D01*
X033700Y026907D02*
X033966Y026907D01*
X033833Y026907D02*
X033833Y026507D01*
X034160Y026507D02*
X034160Y026907D01*
X034427Y026907D02*
X034160Y026507D01*
X034427Y026507D02*
X034427Y026907D01*
X035081Y026840D02*
X035147Y026907D01*
X035281Y026907D01*
X035348Y026840D01*
X035541Y026840D02*
X035541Y026774D01*
X035608Y026707D01*
X035541Y026640D01*
X035541Y026573D01*
X035608Y026507D01*
X035741Y026507D01*
X035808Y026573D01*
X035675Y026707D02*
X035608Y026707D01*
X035541Y026840D02*
X035608Y026907D01*
X035741Y026907D01*
X035808Y026840D01*
X036001Y026907D02*
X036001Y026507D01*
X036268Y026507D02*
X036268Y026907D01*
X036135Y026774D01*
X036001Y026907D01*
X036452Y026774D02*
X036519Y026774D01*
X036652Y026640D01*
X036652Y026507D02*
X036652Y026774D01*
X036846Y026707D02*
X036912Y026774D01*
X037046Y026774D01*
X037112Y026707D01*
X037112Y026573D01*
X037046Y026507D01*
X036912Y026507D01*
X036846Y026573D01*
X036846Y026707D01*
X037306Y026907D02*
X037573Y026907D01*
X037439Y026907D02*
X037439Y026507D01*
X037536Y026238D02*
X037803Y025971D01*
X037736Y026038D02*
X037536Y025837D01*
X037343Y025837D02*
X037343Y026104D01*
X037343Y025971D02*
X037209Y026104D01*
X037142Y026104D01*
X036892Y026104D02*
X036759Y026104D01*
X036692Y026038D01*
X036692Y025837D01*
X036892Y025837D01*
X036959Y025904D01*
X036892Y025971D01*
X036692Y025971D01*
X036499Y026104D02*
X036365Y026104D01*
X036432Y026171D02*
X036432Y025904D01*
X036365Y025837D01*
X036125Y025904D02*
X036058Y025837D01*
X036125Y025904D02*
X036125Y026171D01*
X036192Y026104D02*
X036058Y026104D01*
X035885Y026104D02*
X035885Y025904D01*
X035818Y025837D01*
X035751Y025904D01*
X035685Y025837D01*
X035618Y025904D01*
X035618Y026104D01*
X035424Y026038D02*
X035358Y026104D01*
X035224Y026104D01*
X035157Y026038D01*
X035157Y025904D01*
X035224Y025837D01*
X035358Y025837D01*
X035424Y025904D01*
X035424Y026038D01*
X034964Y026104D02*
X034964Y025837D01*
X034964Y025971D02*
X034830Y026104D01*
X034764Y026104D01*
X034580Y025971D02*
X034380Y025837D01*
X034197Y025837D02*
X033996Y025837D01*
X033930Y025904D01*
X033996Y025971D01*
X034130Y025971D01*
X034197Y026038D01*
X034130Y026104D01*
X033930Y026104D01*
X034380Y026104D02*
X034580Y025971D01*
X034580Y025837D02*
X034580Y026238D01*
X035081Y026507D02*
X035348Y026507D01*
X035081Y026774D01*
X035081Y026840D01*
X037766Y026840D02*
X037833Y026907D01*
X037967Y026907D01*
X038033Y026840D01*
X038033Y026774D01*
X037967Y026707D01*
X037833Y026707D01*
X037766Y026640D01*
X037766Y026573D01*
X037833Y026507D01*
X037967Y026507D01*
X038033Y026573D01*
X037803Y026238D02*
X037803Y025837D01*
X038437Y025971D02*
X038437Y026104D01*
X038570Y026238D01*
X038764Y026171D02*
X038831Y026238D01*
X038964Y026238D01*
X039031Y026171D01*
X039031Y025904D01*
X038964Y025837D01*
X038831Y025837D01*
X038764Y025904D01*
X038570Y025837D02*
X038437Y025971D01*
X039204Y025837D02*
X039338Y025971D01*
X039338Y026104D01*
X039204Y026238D01*
M02*
