G75*
G70*
%OFA0B0*%
%FSLAX24Y24*%
%IPPOS*%
%LPD*%
%AMOC8*
5,1,8,0,0,1.08239X$1,22.5*
%
%ADD10C,0.1300*%
%ADD11R,0.0197X0.0276*%
%ADD12R,0.0827X0.0591*%
%ADD13R,0.1615X0.0512*%
%ADD14R,0.0512X0.0257*%
%ADD15R,0.0316X0.0434*%
%ADD16C,0.0000*%
%ADD17C,0.0001*%
%ADD18C,0.0075*%
%ADD19R,0.0316X0.0709*%
%ADD20R,0.0276X0.0197*%
%ADD21R,0.0434X0.0316*%
%ADD22R,0.0512X0.0394*%
%ADD23R,0.0650X0.0276*%
%ADD24R,0.0749X0.0512*%
%ADD25C,0.0634*%
%ADD26C,0.0749*%
%ADD27R,0.0749X0.1142*%
%ADD28R,0.0197X0.0197*%
%ADD29R,0.0394X0.0158*%
%ADD30R,0.0158X0.0394*%
%ADD31R,0.0394X0.0512*%
%ADD32R,0.0355X0.0138*%
%ADD33R,0.0355X0.0827*%
%ADD34R,0.0138X0.0355*%
%ADD35C,0.0476*%
%ADD36R,0.0158X0.0276*%
%ADD37R,0.0276X0.0158*%
%ADD38R,0.0552X0.0158*%
%ADD39C,0.0237*%
%ADD40C,0.0437*%
%ADD41R,0.0276X0.0650*%
%ADD42R,0.0512X0.0749*%
D10*
X032350Y022154D03*
X032350Y035933D03*
D11*
X033906Y035343D03*
X034260Y035343D03*
X034260Y034870D03*
X033906Y034870D03*
X033906Y034398D03*
X034260Y034398D03*
X039417Y026366D03*
X039772Y026366D03*
X039772Y025894D03*
X039417Y025894D03*
X039417Y025421D03*
X039772Y025421D03*
X039772Y024988D03*
X039417Y024988D03*
X039417Y024516D03*
X039772Y024516D03*
X038945Y025224D03*
X038591Y025224D03*
X038157Y025224D03*
X037803Y025224D03*
X039417Y023650D03*
X039772Y023650D03*
X038945Y023335D03*
X038591Y023335D03*
X038157Y023335D03*
X037803Y023335D03*
X035244Y025185D03*
X034890Y025185D03*
D12*
X035067Y026012D03*
X035067Y027193D03*
X036130Y022941D03*
X036130Y021760D03*
X039240Y034122D03*
X039240Y035303D03*
D13*
X036524Y024811D03*
X036524Y023748D03*
D14*
X037862Y023906D03*
X037862Y024280D03*
X037862Y024654D03*
X038886Y024654D03*
X038886Y024280D03*
X038886Y023906D03*
X037035Y026504D03*
X036012Y026504D03*
X036012Y026878D03*
X036012Y027252D03*
X036878Y027764D03*
X036878Y028138D03*
X036878Y028512D03*
X037902Y028512D03*
X037902Y027764D03*
X037035Y027252D03*
D15*
X037764Y025894D03*
X038354Y025894D03*
X035165Y021681D03*
X034575Y021681D03*
D16*
X039129Y022829D02*
X039149Y022759D01*
X039181Y022694D01*
X039225Y022636D01*
X039278Y022587D01*
X039340Y022549D01*
X039408Y022523D01*
X039479Y022510D01*
X039552Y022510D01*
X039623Y022523D01*
X039691Y022549D01*
X039753Y022587D01*
X039807Y022636D01*
X039850Y022694D01*
X039883Y022759D01*
X039903Y022829D01*
X039909Y022902D01*
X039903Y022974D01*
X039883Y023044D01*
X039850Y023109D01*
X039807Y023167D01*
X039753Y023216D01*
X039691Y023254D01*
X039623Y023280D01*
X039552Y023294D01*
X039479Y023294D01*
X039408Y023280D01*
X039340Y023254D01*
X039278Y023216D01*
X039225Y023167D01*
X039181Y023109D01*
X039149Y023044D01*
X039129Y022974D01*
X039122Y022902D01*
X039129Y022829D01*
X034084Y028965D02*
X034137Y029014D01*
X034181Y029072D01*
X034214Y029137D01*
X034233Y029207D01*
X034240Y029280D01*
X034233Y029352D01*
X034214Y029422D01*
X034181Y029487D01*
X034137Y029545D01*
X034084Y029594D01*
X034022Y029632D01*
X033954Y029658D01*
X033883Y029672D01*
X033810Y029672D01*
X033739Y029658D01*
X033671Y029632D01*
X033609Y029594D01*
X033556Y029545D01*
X033512Y029487D01*
X033479Y029422D01*
X033459Y029352D01*
X033453Y029280D01*
X033459Y029207D01*
X033479Y029137D01*
X033512Y029072D01*
X033556Y029014D01*
X033609Y028965D01*
X033671Y028927D01*
X033739Y028901D01*
X033810Y028888D01*
X033883Y028888D01*
X033954Y028901D01*
X034022Y028927D01*
X034084Y028965D01*
X034164Y033297D02*
X034237Y033297D01*
X034309Y033310D01*
X034376Y033337D01*
X034438Y033375D01*
X034492Y033424D01*
X034536Y033482D01*
X034568Y033547D01*
X034588Y033617D01*
X034594Y033689D01*
X034588Y033761D01*
X034568Y033831D01*
X034536Y033896D01*
X034492Y033954D01*
X034438Y034003D01*
X034376Y034041D01*
X034309Y034068D01*
X034237Y034081D01*
X034164Y034081D01*
X034093Y034068D01*
X034025Y034041D01*
X033964Y034003D01*
X033910Y033954D01*
X033866Y033896D01*
X033834Y033831D01*
X033814Y033761D01*
X033807Y033689D01*
X033814Y033617D01*
X033834Y033547D01*
X033866Y033482D01*
X033910Y033424D01*
X033964Y033375D01*
X034025Y033337D01*
X034093Y033310D01*
X034164Y033297D01*
D17*
X034162Y033297D02*
X034239Y033297D01*
X034245Y033298D02*
X034157Y033298D01*
X034152Y033299D02*
X034250Y033299D01*
X034255Y033300D02*
X034146Y033300D01*
X034141Y033301D02*
X034261Y033301D01*
X034266Y033302D02*
X034136Y033302D01*
X034130Y033303D02*
X034271Y033303D01*
X034277Y033304D02*
X034125Y033304D01*
X034120Y033305D02*
X034282Y033305D01*
X034287Y033306D02*
X034114Y033306D01*
X034109Y033307D02*
X034293Y033307D01*
X034298Y033308D02*
X034104Y033308D01*
X034098Y033309D02*
X034303Y033309D01*
X034309Y033310D02*
X034093Y033310D01*
X034090Y033311D02*
X034311Y033311D01*
X034314Y033312D02*
X034088Y033312D01*
X034085Y033313D02*
X034316Y033313D01*
X034319Y033314D02*
X034083Y033314D01*
X034080Y033315D02*
X034321Y033315D01*
X034324Y033316D02*
X034078Y033316D01*
X034075Y033317D02*
X034327Y033317D01*
X034329Y033318D02*
X034072Y033318D01*
X034070Y033319D02*
X034332Y033319D01*
X034334Y033320D02*
X034067Y033320D01*
X034065Y033321D02*
X034337Y033321D01*
X034340Y033322D02*
X034062Y033322D01*
X034059Y033323D02*
X034342Y033323D01*
X034345Y033324D02*
X034057Y033324D01*
X034054Y033325D02*
X034347Y033325D01*
X034350Y033326D02*
X034052Y033326D01*
X034049Y033327D02*
X034352Y033327D01*
X034355Y033328D02*
X034047Y033328D01*
X034044Y033329D02*
X034358Y033329D01*
X034360Y033330D02*
X034041Y033330D01*
X034039Y033331D02*
X034363Y033331D01*
X034365Y033332D02*
X034036Y033332D01*
X034034Y033333D02*
X034368Y033333D01*
X034370Y033334D02*
X034031Y033334D01*
X034029Y033335D02*
X034373Y033335D01*
X034376Y033336D02*
X034026Y033336D01*
X034024Y033337D02*
X034377Y033337D01*
X034379Y033338D02*
X034022Y033338D01*
X034021Y033339D02*
X034381Y033339D01*
X034382Y033340D02*
X034019Y033340D01*
X034018Y033341D02*
X034384Y033341D01*
X034386Y033342D02*
X034016Y033342D01*
X034014Y033343D02*
X034387Y033343D01*
X034389Y033344D02*
X034013Y033344D01*
X034011Y033345D02*
X034390Y033345D01*
X034392Y033346D02*
X034010Y033346D01*
X034008Y033347D02*
X034394Y033347D01*
X034395Y033348D02*
X034006Y033348D01*
X034005Y033349D02*
X034397Y033349D01*
X034398Y033350D02*
X034003Y033350D01*
X034001Y033351D02*
X034400Y033351D01*
X034402Y033352D02*
X034000Y033352D01*
X033998Y033353D02*
X034403Y033353D01*
X034405Y033354D02*
X033997Y033354D01*
X033995Y033355D02*
X034407Y033355D01*
X034408Y033356D02*
X033993Y033356D01*
X033992Y033357D02*
X034410Y033357D01*
X034411Y033358D02*
X033990Y033358D01*
X033989Y033359D02*
X034413Y033359D01*
X034415Y033360D02*
X033987Y033360D01*
X033985Y033361D02*
X034416Y033361D01*
X034418Y033362D02*
X033984Y033362D01*
X033982Y033363D02*
X034419Y033363D01*
X034421Y033364D02*
X033981Y033364D01*
X033979Y033365D02*
X034423Y033365D01*
X034424Y033366D02*
X033977Y033366D01*
X033976Y033367D02*
X034426Y033367D01*
X034428Y033368D02*
X033974Y033368D01*
X033972Y033369D02*
X034429Y033369D01*
X034431Y033370D02*
X033971Y033370D01*
X033969Y033371D02*
X034432Y033371D01*
X034434Y033372D02*
X033968Y033372D01*
X033966Y033373D02*
X034436Y033373D01*
X034437Y033374D02*
X033964Y033374D01*
X033963Y033375D02*
X034439Y033375D01*
X034440Y033376D02*
X033962Y033376D01*
X033961Y033377D02*
X034441Y033377D01*
X034442Y033378D02*
X033960Y033378D01*
X033959Y033379D02*
X034443Y033379D01*
X034444Y033380D02*
X033958Y033380D01*
X033956Y033381D02*
X034445Y033381D01*
X034446Y033382D02*
X033955Y033382D01*
X033954Y033383D02*
X034447Y033383D01*
X034448Y033384D02*
X033953Y033384D01*
X033952Y033385D02*
X034450Y033385D01*
X034451Y033386D02*
X033951Y033386D01*
X033950Y033387D02*
X034452Y033387D01*
X034453Y033388D02*
X033949Y033388D01*
X033948Y033389D02*
X034454Y033389D01*
X034455Y033390D02*
X033947Y033390D01*
X033945Y033391D02*
X034456Y033391D01*
X034457Y033392D02*
X033944Y033392D01*
X033943Y033393D02*
X034458Y033393D01*
X034459Y033394D02*
X033942Y033394D01*
X033941Y033395D02*
X034460Y033395D01*
X034462Y033396D02*
X033940Y033396D01*
X033939Y033397D02*
X034463Y033397D01*
X034464Y033398D02*
X033938Y033398D01*
X033937Y033399D02*
X034465Y033399D01*
X034466Y033400D02*
X033936Y033400D01*
X033935Y033401D02*
X034467Y033401D01*
X034468Y033402D02*
X033933Y033402D01*
X033932Y033403D02*
X034469Y033403D01*
X034470Y033404D02*
X033931Y033404D01*
X033930Y033405D02*
X034471Y033405D01*
X034473Y033406D02*
X033929Y033406D01*
X033928Y033407D02*
X034474Y033407D01*
X034475Y033408D02*
X033927Y033408D01*
X033926Y033409D02*
X034476Y033409D01*
X034477Y033410D02*
X033925Y033410D01*
X033924Y033411D02*
X034478Y033411D01*
X034479Y033412D02*
X033922Y033412D01*
X033921Y033413D02*
X034480Y033413D01*
X034481Y033414D02*
X033920Y033414D01*
X033919Y033415D02*
X034482Y033415D01*
X034483Y033416D02*
X033918Y033416D01*
X033917Y033417D02*
X034485Y033417D01*
X034486Y033418D02*
X033916Y033418D01*
X033915Y033419D02*
X034487Y033419D01*
X034488Y033420D02*
X033914Y033420D01*
X033913Y033421D02*
X034489Y033421D01*
X034490Y033422D02*
X033912Y033422D01*
X033910Y033423D02*
X034491Y033423D01*
X034492Y033424D02*
X033909Y033424D01*
X033909Y033425D02*
X034493Y033425D01*
X034494Y033426D02*
X033908Y033426D01*
X033907Y033427D02*
X034494Y033427D01*
X034495Y033428D02*
X033906Y033428D01*
X033906Y033429D02*
X034496Y033429D01*
X034497Y033430D02*
X033905Y033430D01*
X033904Y033431D02*
X034497Y033431D01*
X034498Y033432D02*
X033903Y033432D01*
X033903Y033433D02*
X034499Y033433D01*
X034500Y033434D02*
X033902Y033434D01*
X033901Y033435D02*
X034500Y033435D01*
X034501Y033436D02*
X033900Y033436D01*
X033900Y033437D02*
X034502Y033437D01*
X034503Y033438D02*
X033899Y033438D01*
X033898Y033439D02*
X034503Y033439D01*
X034504Y033440D02*
X033897Y033440D01*
X033897Y033441D02*
X034505Y033441D01*
X034506Y033442D02*
X033896Y033442D01*
X033895Y033443D02*
X034506Y033443D01*
X034507Y033444D02*
X033894Y033444D01*
X033894Y033445D02*
X034508Y033445D01*
X034509Y033446D02*
X033893Y033446D01*
X033892Y033447D02*
X034509Y033447D01*
X034510Y033448D02*
X033891Y033448D01*
X033891Y033449D02*
X034511Y033449D01*
X034512Y033450D02*
X033890Y033450D01*
X033889Y033451D02*
X034512Y033451D01*
X034513Y033452D02*
X033888Y033452D01*
X033888Y033453D02*
X034514Y033453D01*
X034515Y033454D02*
X033887Y033454D01*
X033886Y033455D02*
X034515Y033455D01*
X034516Y033456D02*
X033885Y033456D01*
X033885Y033457D02*
X034517Y033457D01*
X034518Y033458D02*
X033884Y033458D01*
X033883Y033459D02*
X034518Y033459D01*
X034519Y033460D02*
X033882Y033460D01*
X033882Y033461D02*
X034520Y033461D01*
X034521Y033462D02*
X033881Y033462D01*
X033880Y033463D02*
X034522Y033463D01*
X034522Y033464D02*
X033879Y033464D01*
X033879Y033465D02*
X034523Y033465D01*
X034524Y033466D02*
X033878Y033466D01*
X033877Y033467D02*
X034525Y033467D01*
X034525Y033468D02*
X033876Y033468D01*
X033876Y033469D02*
X034526Y033469D01*
X034527Y033470D02*
X033875Y033470D01*
X033874Y033471D02*
X034528Y033471D01*
X034528Y033472D02*
X033873Y033472D01*
X033873Y033473D02*
X034529Y033473D01*
X034530Y033474D02*
X033872Y033474D01*
X033871Y033475D02*
X034531Y033475D01*
X034531Y033476D02*
X033870Y033476D01*
X033869Y033477D02*
X034532Y033477D01*
X034533Y033478D02*
X033869Y033478D01*
X033868Y033479D02*
X034534Y033479D01*
X034534Y033480D02*
X033867Y033480D01*
X033866Y033481D02*
X034535Y033481D01*
X034536Y033482D02*
X033866Y033482D01*
X033865Y033483D02*
X034536Y033483D01*
X034537Y033484D02*
X033865Y033484D01*
X033864Y033485D02*
X034537Y033485D01*
X034538Y033486D02*
X033864Y033486D01*
X033863Y033487D02*
X034538Y033487D01*
X034539Y033488D02*
X033863Y033488D01*
X033862Y033489D02*
X034539Y033489D01*
X034540Y033490D02*
X033862Y033490D01*
X033861Y033491D02*
X034540Y033491D01*
X034541Y033492D02*
X033861Y033492D01*
X033860Y033493D02*
X034541Y033493D01*
X034542Y033494D02*
X033860Y033494D01*
X033859Y033495D02*
X034542Y033495D01*
X034543Y033496D02*
X033859Y033496D01*
X033858Y033497D02*
X034543Y033497D01*
X034544Y033498D02*
X033858Y033498D01*
X033857Y033499D02*
X034544Y033499D01*
X034545Y033500D02*
X033857Y033500D01*
X033856Y033501D02*
X034545Y033501D01*
X034546Y033502D02*
X033856Y033502D01*
X033855Y033503D02*
X034546Y033503D01*
X034547Y033504D02*
X033855Y033504D01*
X033854Y033505D02*
X034547Y033505D01*
X034548Y033506D02*
X033854Y033506D01*
X033853Y033507D02*
X034548Y033507D01*
X034549Y033508D02*
X033853Y033508D01*
X033852Y033509D02*
X034549Y033509D01*
X034550Y033510D02*
X033852Y033510D01*
X033851Y033511D02*
X034550Y033511D01*
X034551Y033512D02*
X033851Y033512D01*
X033850Y033513D02*
X034551Y033513D01*
X034552Y033514D02*
X033850Y033514D01*
X033849Y033515D02*
X034552Y033515D01*
X034553Y033516D02*
X033849Y033516D01*
X033848Y033517D02*
X034553Y033517D01*
X034554Y033518D02*
X033848Y033518D01*
X033847Y033519D02*
X034554Y033519D01*
X034555Y033520D02*
X033847Y033520D01*
X033846Y033521D02*
X034555Y033521D01*
X034556Y033522D02*
X033846Y033522D01*
X033845Y033523D02*
X034556Y033523D01*
X034557Y033524D02*
X033845Y033524D01*
X033844Y033525D02*
X034557Y033525D01*
X034558Y033526D02*
X033844Y033526D01*
X033843Y033527D02*
X034558Y033527D01*
X034559Y033528D02*
X033843Y033528D01*
X033842Y033529D02*
X034559Y033529D01*
X034560Y033530D02*
X033842Y033530D01*
X033841Y033531D02*
X034560Y033531D01*
X034561Y033532D02*
X033841Y033532D01*
X033840Y033533D02*
X034561Y033533D01*
X034562Y033534D02*
X033840Y033534D01*
X033839Y033535D02*
X034562Y033535D01*
X034563Y033536D02*
X033839Y033536D01*
X033838Y033537D02*
X034563Y033537D01*
X034564Y033538D02*
X033838Y033538D01*
X033837Y033539D02*
X034564Y033539D01*
X034565Y033540D02*
X033837Y033540D01*
X033836Y033541D02*
X034565Y033541D01*
X034566Y033542D02*
X033836Y033542D01*
X033835Y033543D02*
X034566Y033543D01*
X034567Y033544D02*
X033835Y033544D01*
X033834Y033545D02*
X034567Y033545D01*
X034568Y033546D02*
X033834Y033546D01*
X033834Y033547D02*
X034568Y033547D01*
X034568Y033548D02*
X033833Y033548D01*
X033833Y033549D02*
X034569Y033549D01*
X034569Y033550D02*
X033833Y033550D01*
X033832Y033551D02*
X034569Y033551D01*
X034569Y033552D02*
X033832Y033552D01*
X033832Y033553D02*
X034570Y033553D01*
X034570Y033554D02*
X033832Y033554D01*
X033831Y033555D02*
X034570Y033555D01*
X034571Y033556D02*
X033831Y033556D01*
X033831Y033557D02*
X034571Y033557D01*
X034571Y033558D02*
X033830Y033558D01*
X033830Y033559D02*
X034571Y033559D01*
X034572Y033560D02*
X033830Y033560D01*
X033830Y033561D02*
X034572Y033561D01*
X034572Y033562D02*
X033829Y033562D01*
X033829Y033563D02*
X034573Y033563D01*
X034573Y033564D02*
X033829Y033564D01*
X033828Y033565D02*
X034573Y033565D01*
X034573Y033566D02*
X033828Y033566D01*
X033828Y033567D02*
X034574Y033567D01*
X034574Y033568D02*
X033828Y033568D01*
X033827Y033569D02*
X034574Y033569D01*
X034575Y033570D02*
X033827Y033570D01*
X033827Y033571D02*
X034575Y033571D01*
X034575Y033572D02*
X033826Y033572D01*
X033826Y033573D02*
X034575Y033573D01*
X034576Y033574D02*
X033826Y033574D01*
X033826Y033575D02*
X034576Y033575D01*
X034576Y033576D02*
X033825Y033576D01*
X033825Y033577D02*
X034577Y033577D01*
X034577Y033578D02*
X033825Y033578D01*
X033824Y033579D02*
X034577Y033579D01*
X034577Y033580D02*
X033824Y033580D01*
X033824Y033581D02*
X034578Y033581D01*
X034578Y033582D02*
X033824Y033582D01*
X033823Y033583D02*
X034578Y033583D01*
X034579Y033584D02*
X033823Y033584D01*
X033823Y033585D02*
X034579Y033585D01*
X034579Y033586D02*
X033822Y033586D01*
X033822Y033587D02*
X034579Y033587D01*
X034580Y033588D02*
X033822Y033588D01*
X033822Y033589D02*
X034580Y033589D01*
X034580Y033590D02*
X033821Y033590D01*
X033821Y033591D02*
X034581Y033591D01*
X034581Y033592D02*
X033821Y033592D01*
X033820Y033593D02*
X034581Y033593D01*
X034581Y033594D02*
X033820Y033594D01*
X033820Y033595D02*
X034582Y033595D01*
X034582Y033596D02*
X033820Y033596D01*
X033819Y033597D02*
X034582Y033597D01*
X034582Y033598D02*
X033819Y033598D01*
X033819Y033599D02*
X034583Y033599D01*
X034583Y033600D02*
X033819Y033600D01*
X033818Y033601D02*
X034583Y033601D01*
X034584Y033602D02*
X033818Y033602D01*
X033818Y033603D02*
X034584Y033603D01*
X034584Y033604D02*
X033817Y033604D01*
X033817Y033605D02*
X034584Y033605D01*
X034585Y033606D02*
X033817Y033606D01*
X033817Y033607D02*
X034585Y033607D01*
X034585Y033608D02*
X033816Y033608D01*
X033816Y033609D02*
X034586Y033609D01*
X034586Y033610D02*
X033816Y033610D01*
X033815Y033611D02*
X034586Y033611D01*
X034586Y033612D02*
X033815Y033612D01*
X033815Y033613D02*
X034587Y033613D01*
X034587Y033614D02*
X033815Y033614D01*
X033814Y033615D02*
X034587Y033615D01*
X034588Y033616D02*
X033814Y033616D01*
X033814Y033617D02*
X034588Y033617D01*
X034588Y033618D02*
X033814Y033618D01*
X033814Y033619D02*
X034588Y033619D01*
X034588Y033620D02*
X033813Y033620D01*
X033813Y033621D02*
X034588Y033621D01*
X034588Y033622D02*
X033813Y033622D01*
X033813Y033623D02*
X034588Y033623D01*
X034588Y033624D02*
X033813Y033624D01*
X033813Y033625D02*
X034589Y033625D01*
X034589Y033626D02*
X033813Y033626D01*
X033813Y033627D02*
X034589Y033627D01*
X034589Y033628D02*
X033813Y033628D01*
X033813Y033629D02*
X034589Y033629D01*
X034589Y033630D02*
X033813Y033630D01*
X033812Y033631D02*
X034589Y033631D01*
X034589Y033632D02*
X033812Y033632D01*
X033812Y033633D02*
X034589Y033633D01*
X034589Y033634D02*
X033812Y033634D01*
X033812Y033635D02*
X034589Y033635D01*
X034590Y033636D02*
X033812Y033636D01*
X033812Y033637D02*
X034590Y033637D01*
X034590Y033638D02*
X033812Y033638D01*
X033812Y033639D02*
X034590Y033639D01*
X034590Y033640D02*
X033812Y033640D01*
X033812Y033641D02*
X034590Y033641D01*
X034590Y033642D02*
X033811Y033642D01*
X033811Y033643D02*
X034590Y033643D01*
X034590Y033644D02*
X033811Y033644D01*
X033811Y033645D02*
X034590Y033645D01*
X034591Y033646D02*
X033811Y033646D01*
X033811Y033647D02*
X034591Y033647D01*
X034591Y033648D02*
X033811Y033648D01*
X033811Y033649D02*
X034591Y033649D01*
X034591Y033650D02*
X033811Y033650D01*
X033811Y033651D02*
X034591Y033651D01*
X034591Y033652D02*
X033811Y033652D01*
X033810Y033653D02*
X034591Y033653D01*
X034591Y033654D02*
X033810Y033654D01*
X033810Y033655D02*
X034591Y033655D01*
X034591Y033656D02*
X033810Y033656D01*
X033810Y033657D02*
X034592Y033657D01*
X034592Y033658D02*
X033810Y033658D01*
X033810Y033659D02*
X034592Y033659D01*
X034592Y033660D02*
X033810Y033660D01*
X033810Y033661D02*
X034592Y033661D01*
X034592Y033662D02*
X033810Y033662D01*
X033809Y033663D02*
X034592Y033663D01*
X034592Y033664D02*
X033809Y033664D01*
X033809Y033665D02*
X034592Y033665D01*
X034592Y033666D02*
X033809Y033666D01*
X033809Y033667D02*
X034592Y033667D01*
X034593Y033668D02*
X033809Y033668D01*
X033809Y033669D02*
X034593Y033669D01*
X034593Y033670D02*
X033809Y033670D01*
X033809Y033671D02*
X034593Y033671D01*
X034593Y033672D02*
X033809Y033672D01*
X033809Y033673D02*
X034593Y033673D01*
X034593Y033674D02*
X033808Y033674D01*
X033808Y033675D02*
X034593Y033675D01*
X034593Y033676D02*
X033808Y033676D01*
X033808Y033677D02*
X034593Y033677D01*
X034593Y033678D02*
X033808Y033678D01*
X033808Y033679D02*
X034594Y033679D01*
X034594Y033680D02*
X033808Y033680D01*
X033808Y033681D02*
X034594Y033681D01*
X034594Y033682D02*
X033808Y033682D01*
X033808Y033683D02*
X034594Y033683D01*
X034594Y033684D02*
X033808Y033684D01*
X033807Y033685D02*
X034594Y033685D01*
X034594Y033686D02*
X033807Y033686D01*
X033807Y033687D02*
X034594Y033687D01*
X034594Y033688D02*
X033807Y033688D01*
X033807Y033689D02*
X034594Y033689D01*
X034594Y033690D02*
X033807Y033690D01*
X033807Y033691D02*
X034594Y033691D01*
X034594Y033692D02*
X033807Y033692D01*
X033807Y033693D02*
X034594Y033693D01*
X034594Y033694D02*
X033808Y033694D01*
X033808Y033695D02*
X034594Y033695D01*
X034594Y033696D02*
X033808Y033696D01*
X033808Y033697D02*
X034594Y033697D01*
X034594Y033698D02*
X033808Y033698D01*
X033808Y033699D02*
X034594Y033699D01*
X034593Y033700D02*
X033808Y033700D01*
X033808Y033701D02*
X034593Y033701D01*
X034593Y033702D02*
X033808Y033702D01*
X033808Y033703D02*
X034593Y033703D01*
X034593Y033704D02*
X033808Y033704D01*
X033809Y033705D02*
X034593Y033705D01*
X034593Y033706D02*
X033809Y033706D01*
X033809Y033707D02*
X034593Y033707D01*
X034593Y033708D02*
X033809Y033708D01*
X033809Y033709D02*
X034593Y033709D01*
X034593Y033710D02*
X033809Y033710D01*
X033809Y033711D02*
X034592Y033711D01*
X034592Y033712D02*
X033809Y033712D01*
X033809Y033713D02*
X034592Y033713D01*
X034592Y033714D02*
X033809Y033714D01*
X033809Y033715D02*
X034592Y033715D01*
X034592Y033716D02*
X033810Y033716D01*
X033810Y033717D02*
X034592Y033717D01*
X034592Y033718D02*
X033810Y033718D01*
X033810Y033719D02*
X034592Y033719D01*
X034592Y033720D02*
X033810Y033720D01*
X033810Y033721D02*
X034592Y033721D01*
X034591Y033722D02*
X033810Y033722D01*
X033810Y033723D02*
X034591Y033723D01*
X034591Y033724D02*
X033810Y033724D01*
X033810Y033725D02*
X034591Y033725D01*
X034591Y033726D02*
X033811Y033726D01*
X033811Y033727D02*
X034591Y033727D01*
X034591Y033728D02*
X033811Y033728D01*
X033811Y033729D02*
X034591Y033729D01*
X034591Y033730D02*
X033811Y033730D01*
X033811Y033731D02*
X034591Y033731D01*
X034591Y033732D02*
X033811Y033732D01*
X033811Y033733D02*
X034590Y033733D01*
X034590Y033734D02*
X033811Y033734D01*
X033811Y033735D02*
X034590Y033735D01*
X034590Y033736D02*
X033811Y033736D01*
X033812Y033737D02*
X034590Y033737D01*
X034590Y033738D02*
X033812Y033738D01*
X033812Y033739D02*
X034590Y033739D01*
X034590Y033740D02*
X033812Y033740D01*
X033812Y033741D02*
X034590Y033741D01*
X034590Y033742D02*
X033812Y033742D01*
X033812Y033743D02*
X034589Y033743D01*
X034589Y033744D02*
X033812Y033744D01*
X033812Y033745D02*
X034589Y033745D01*
X034589Y033746D02*
X033812Y033746D01*
X033812Y033747D02*
X034589Y033747D01*
X034589Y033748D02*
X033813Y033748D01*
X033813Y033749D02*
X034589Y033749D01*
X034589Y033750D02*
X033813Y033750D01*
X033813Y033751D02*
X034589Y033751D01*
X034589Y033752D02*
X033813Y033752D01*
X033813Y033753D02*
X034589Y033753D01*
X034588Y033754D02*
X033813Y033754D01*
X033813Y033755D02*
X034588Y033755D01*
X034588Y033756D02*
X033813Y033756D01*
X033813Y033757D02*
X034588Y033757D01*
X034588Y033758D02*
X033813Y033758D01*
X033814Y033759D02*
X034588Y033759D01*
X034588Y033760D02*
X033814Y033760D01*
X033814Y033761D02*
X034588Y033761D01*
X034588Y033762D02*
X033814Y033762D01*
X033814Y033763D02*
X034587Y033763D01*
X034587Y033764D02*
X033815Y033764D01*
X033815Y033765D02*
X034587Y033765D01*
X034586Y033766D02*
X033815Y033766D01*
X033815Y033767D02*
X034586Y033767D01*
X034586Y033768D02*
X033816Y033768D01*
X033816Y033769D02*
X034586Y033769D01*
X034585Y033770D02*
X033816Y033770D01*
X033817Y033771D02*
X034585Y033771D01*
X034585Y033772D02*
X033817Y033772D01*
X033817Y033773D02*
X034584Y033773D01*
X034584Y033774D02*
X033817Y033774D01*
X033818Y033775D02*
X034584Y033775D01*
X034584Y033776D02*
X033818Y033776D01*
X033818Y033777D02*
X034583Y033777D01*
X034583Y033778D02*
X033819Y033778D01*
X033819Y033779D02*
X034583Y033779D01*
X034583Y033780D02*
X033819Y033780D01*
X033819Y033781D02*
X034582Y033781D01*
X034582Y033782D02*
X033820Y033782D01*
X033820Y033783D02*
X034582Y033783D01*
X034581Y033784D02*
X033820Y033784D01*
X033820Y033785D02*
X034581Y033785D01*
X034581Y033786D02*
X033821Y033786D01*
X033821Y033787D02*
X034581Y033787D01*
X034580Y033788D02*
X033821Y033788D01*
X033822Y033789D02*
X034580Y033789D01*
X034580Y033790D02*
X033822Y033790D01*
X033822Y033791D02*
X034579Y033791D01*
X034579Y033792D02*
X033822Y033792D01*
X033823Y033793D02*
X034579Y033793D01*
X034579Y033794D02*
X033823Y033794D01*
X033823Y033795D02*
X034578Y033795D01*
X034578Y033796D02*
X033824Y033796D01*
X033824Y033797D02*
X034578Y033797D01*
X034577Y033798D02*
X033824Y033798D01*
X033824Y033799D02*
X034577Y033799D01*
X034577Y033800D02*
X033825Y033800D01*
X033825Y033801D02*
X034577Y033801D01*
X034576Y033802D02*
X033825Y033802D01*
X033826Y033803D02*
X034576Y033803D01*
X034576Y033804D02*
X033826Y033804D01*
X033826Y033805D02*
X034575Y033805D01*
X034575Y033806D02*
X033826Y033806D01*
X033827Y033807D02*
X034575Y033807D01*
X034575Y033808D02*
X033827Y033808D01*
X033827Y033809D02*
X034574Y033809D01*
X034574Y033810D02*
X033828Y033810D01*
X033828Y033811D02*
X034574Y033811D01*
X034573Y033812D02*
X033828Y033812D01*
X033828Y033813D02*
X034573Y033813D01*
X034573Y033814D02*
X033829Y033814D01*
X033829Y033815D02*
X034573Y033815D01*
X034572Y033816D02*
X033829Y033816D01*
X033830Y033817D02*
X034572Y033817D01*
X034572Y033818D02*
X033830Y033818D01*
X033830Y033819D02*
X034571Y033819D01*
X034571Y033820D02*
X033830Y033820D01*
X033831Y033821D02*
X034571Y033821D01*
X034571Y033822D02*
X033831Y033822D01*
X033831Y033823D02*
X034570Y033823D01*
X034570Y033824D02*
X033832Y033824D01*
X033832Y033825D02*
X034570Y033825D01*
X034569Y033826D02*
X033832Y033826D01*
X033832Y033827D02*
X034569Y033827D01*
X034569Y033828D02*
X033833Y033828D01*
X033833Y033829D02*
X034569Y033829D01*
X034568Y033830D02*
X033833Y033830D01*
X033834Y033831D02*
X034568Y033831D01*
X034568Y033832D02*
X033834Y033832D01*
X033834Y033833D02*
X034567Y033833D01*
X034567Y033834D02*
X033835Y033834D01*
X033835Y033835D02*
X034566Y033835D01*
X034566Y033836D02*
X033836Y033836D01*
X033836Y033837D02*
X034565Y033837D01*
X034565Y033838D02*
X033837Y033838D01*
X033837Y033839D02*
X034564Y033839D01*
X034564Y033840D02*
X033838Y033840D01*
X033838Y033841D02*
X034563Y033841D01*
X034563Y033842D02*
X033839Y033842D01*
X033839Y033843D02*
X034562Y033843D01*
X034562Y033844D02*
X033840Y033844D01*
X033840Y033845D02*
X034561Y033845D01*
X034561Y033846D02*
X033841Y033846D01*
X033841Y033847D02*
X034560Y033847D01*
X034560Y033848D02*
X033842Y033848D01*
X033842Y033849D02*
X034559Y033849D01*
X034559Y033850D02*
X033843Y033850D01*
X033843Y033851D02*
X034558Y033851D01*
X034558Y033852D02*
X033844Y033852D01*
X033844Y033853D02*
X034557Y033853D01*
X034557Y033854D02*
X033845Y033854D01*
X033845Y033855D02*
X034556Y033855D01*
X034556Y033856D02*
X033846Y033856D01*
X033846Y033857D02*
X034555Y033857D01*
X034555Y033858D02*
X033847Y033858D01*
X033847Y033859D02*
X034554Y033859D01*
X034554Y033860D02*
X033848Y033860D01*
X033848Y033861D02*
X034553Y033861D01*
X034553Y033862D02*
X033849Y033862D01*
X033849Y033863D02*
X034552Y033863D01*
X034552Y033864D02*
X033850Y033864D01*
X033850Y033865D02*
X034551Y033865D01*
X034551Y033866D02*
X033851Y033866D01*
X033851Y033867D02*
X034550Y033867D01*
X034550Y033868D02*
X033852Y033868D01*
X033852Y033869D02*
X034549Y033869D01*
X034549Y033870D02*
X033853Y033870D01*
X033853Y033871D02*
X034548Y033871D01*
X034548Y033872D02*
X033854Y033872D01*
X033854Y033873D02*
X034547Y033873D01*
X034547Y033874D02*
X033855Y033874D01*
X033855Y033875D02*
X034546Y033875D01*
X034546Y033876D02*
X033856Y033876D01*
X033856Y033877D02*
X034545Y033877D01*
X034545Y033878D02*
X033857Y033878D01*
X033857Y033879D02*
X034544Y033879D01*
X034544Y033880D02*
X033858Y033880D01*
X033858Y033881D02*
X034543Y033881D01*
X034543Y033882D02*
X033859Y033882D01*
X033859Y033883D02*
X034542Y033883D01*
X034542Y033884D02*
X033860Y033884D01*
X033860Y033885D02*
X034541Y033885D01*
X034541Y033886D02*
X033861Y033886D01*
X033861Y033887D02*
X034540Y033887D01*
X034540Y033888D02*
X033862Y033888D01*
X033862Y033889D02*
X034539Y033889D01*
X034539Y033890D02*
X033863Y033890D01*
X033863Y033891D02*
X034538Y033891D01*
X034538Y033892D02*
X033864Y033892D01*
X033864Y033893D02*
X034537Y033893D01*
X034537Y033894D02*
X033865Y033894D01*
X033865Y033895D02*
X034536Y033895D01*
X034536Y033896D02*
X033866Y033896D01*
X033866Y033897D02*
X034535Y033897D01*
X034534Y033898D02*
X033867Y033898D01*
X033868Y033899D02*
X034534Y033899D01*
X034533Y033900D02*
X033869Y033900D01*
X033869Y033901D02*
X034532Y033901D01*
X034531Y033902D02*
X033870Y033902D01*
X033871Y033903D02*
X034531Y033903D01*
X034530Y033904D02*
X033872Y033904D01*
X033872Y033905D02*
X034529Y033905D01*
X034528Y033906D02*
X033873Y033906D01*
X033874Y033907D02*
X034528Y033907D01*
X034527Y033908D02*
X033875Y033908D01*
X033876Y033909D02*
X034526Y033909D01*
X034525Y033910D02*
X033876Y033910D01*
X033877Y033911D02*
X034525Y033911D01*
X034524Y033912D02*
X033878Y033912D01*
X033879Y033913D02*
X034523Y033913D01*
X034522Y033914D02*
X033879Y033914D01*
X033880Y033915D02*
X034522Y033915D01*
X034521Y033916D02*
X033881Y033916D01*
X033882Y033917D02*
X034520Y033917D01*
X034519Y033918D02*
X033882Y033918D01*
X033883Y033919D02*
X034519Y033919D01*
X034518Y033920D02*
X033884Y033920D01*
X033885Y033921D02*
X034517Y033921D01*
X034516Y033922D02*
X033885Y033922D01*
X033886Y033923D02*
X034516Y033923D01*
X034515Y033924D02*
X033887Y033924D01*
X033888Y033925D02*
X034514Y033925D01*
X034513Y033926D02*
X033888Y033926D01*
X033889Y033927D02*
X034512Y033927D01*
X034512Y033928D02*
X033890Y033928D01*
X033891Y033929D02*
X034511Y033929D01*
X034510Y033930D02*
X033891Y033930D01*
X033892Y033931D02*
X034509Y033931D01*
X034509Y033932D02*
X033893Y033932D01*
X033894Y033933D02*
X034508Y033933D01*
X034507Y033934D02*
X033894Y033934D01*
X033895Y033935D02*
X034506Y033935D01*
X034506Y033936D02*
X033896Y033936D01*
X033897Y033937D02*
X034505Y033937D01*
X034504Y033938D02*
X033897Y033938D01*
X033898Y033939D02*
X034503Y033939D01*
X034503Y033940D02*
X033899Y033940D01*
X033900Y033941D02*
X034502Y033941D01*
X034501Y033942D02*
X033900Y033942D01*
X033901Y033943D02*
X034500Y033943D01*
X034500Y033944D02*
X033902Y033944D01*
X033903Y033945D02*
X034499Y033945D01*
X034498Y033946D02*
X033903Y033946D01*
X033904Y033947D02*
X034497Y033947D01*
X034497Y033948D02*
X033905Y033948D01*
X033906Y033949D02*
X034496Y033949D01*
X034495Y033950D02*
X033906Y033950D01*
X033907Y033951D02*
X034494Y033951D01*
X034494Y033952D02*
X033908Y033952D01*
X033909Y033953D02*
X034493Y033953D01*
X034492Y033954D02*
X033909Y033954D01*
X033910Y033955D02*
X034491Y033955D01*
X034490Y033956D02*
X033911Y033956D01*
X033913Y033957D02*
X034489Y033957D01*
X034488Y033958D02*
X033914Y033958D01*
X033915Y033959D02*
X034487Y033959D01*
X034486Y033960D02*
X033916Y033960D01*
X033917Y033961D02*
X034485Y033961D01*
X034484Y033962D02*
X033918Y033962D01*
X033919Y033963D02*
X034482Y033963D01*
X034481Y033964D02*
X033920Y033964D01*
X033921Y033965D02*
X034480Y033965D01*
X034479Y033966D02*
X033922Y033966D01*
X033924Y033967D02*
X034478Y033967D01*
X034477Y033968D02*
X033925Y033968D01*
X033926Y033969D02*
X034476Y033969D01*
X034475Y033970D02*
X033927Y033970D01*
X033928Y033971D02*
X034474Y033971D01*
X034473Y033972D02*
X033929Y033972D01*
X033930Y033973D02*
X034471Y033973D01*
X034470Y033974D02*
X033931Y033974D01*
X033932Y033975D02*
X034469Y033975D01*
X034468Y033976D02*
X033933Y033976D01*
X033934Y033977D02*
X034467Y033977D01*
X034466Y033978D02*
X033936Y033978D01*
X033937Y033979D02*
X034465Y033979D01*
X034464Y033980D02*
X033938Y033980D01*
X033939Y033981D02*
X034463Y033981D01*
X034462Y033982D02*
X033940Y033982D01*
X033941Y033983D02*
X034461Y033983D01*
X034459Y033984D02*
X033942Y033984D01*
X033943Y033985D02*
X034458Y033985D01*
X034457Y033986D02*
X033944Y033986D01*
X033945Y033987D02*
X034456Y033987D01*
X034455Y033988D02*
X033947Y033988D01*
X033948Y033989D02*
X034454Y033989D01*
X034453Y033990D02*
X033949Y033990D01*
X033950Y033991D02*
X034452Y033991D01*
X034451Y033992D02*
X033951Y033992D01*
X033952Y033993D02*
X034450Y033993D01*
X034448Y033994D02*
X033953Y033994D01*
X033954Y033995D02*
X034447Y033995D01*
X034446Y033996D02*
X033955Y033996D01*
X033956Y033997D02*
X034445Y033997D01*
X034444Y033998D02*
X033957Y033998D01*
X033959Y033999D02*
X034443Y033999D01*
X034442Y034000D02*
X033960Y034000D01*
X033961Y034001D02*
X034441Y034001D01*
X034440Y034002D02*
X033962Y034002D01*
X033963Y034003D02*
X034439Y034003D01*
X034437Y034004D02*
X033964Y034004D01*
X033966Y034005D02*
X034436Y034005D01*
X034434Y034006D02*
X033968Y034006D01*
X033969Y034007D02*
X034432Y034007D01*
X034431Y034008D02*
X033971Y034008D01*
X033972Y034009D02*
X034429Y034009D01*
X034428Y034010D02*
X033974Y034010D01*
X033976Y034011D02*
X034426Y034011D01*
X034424Y034012D02*
X033977Y034012D01*
X033979Y034013D02*
X034423Y034013D01*
X034421Y034014D02*
X033980Y034014D01*
X033982Y034015D02*
X034420Y034015D01*
X034418Y034016D02*
X033984Y034016D01*
X033985Y034017D02*
X034416Y034017D01*
X034415Y034018D02*
X033987Y034018D01*
X033989Y034019D02*
X034413Y034019D01*
X034411Y034020D02*
X033990Y034020D01*
X033992Y034021D02*
X034410Y034021D01*
X034408Y034022D02*
X033993Y034022D01*
X033995Y034023D02*
X034407Y034023D01*
X034405Y034024D02*
X033997Y034024D01*
X033998Y034025D02*
X034403Y034025D01*
X034402Y034026D02*
X034000Y034026D01*
X034001Y034027D02*
X034400Y034027D01*
X034399Y034028D02*
X034003Y034028D01*
X034005Y034029D02*
X034397Y034029D01*
X034395Y034030D02*
X034006Y034030D01*
X034008Y034031D02*
X034394Y034031D01*
X034392Y034032D02*
X034009Y034032D01*
X034011Y034033D02*
X034390Y034033D01*
X034389Y034034D02*
X034013Y034034D01*
X034014Y034035D02*
X034387Y034035D01*
X034386Y034036D02*
X034016Y034036D01*
X034018Y034037D02*
X034384Y034037D01*
X034382Y034038D02*
X034019Y034038D01*
X034021Y034039D02*
X034381Y034039D01*
X034379Y034040D02*
X034022Y034040D01*
X034024Y034041D02*
X034378Y034041D01*
X034376Y034042D02*
X034026Y034042D01*
X034028Y034043D02*
X034373Y034043D01*
X034371Y034044D02*
X034031Y034044D01*
X034034Y034045D02*
X034368Y034045D01*
X034365Y034046D02*
X034036Y034046D01*
X034039Y034047D02*
X034363Y034047D01*
X034360Y034048D02*
X034041Y034048D01*
X034044Y034049D02*
X034358Y034049D01*
X034355Y034050D02*
X034046Y034050D01*
X034049Y034051D02*
X034353Y034051D01*
X034350Y034052D02*
X034052Y034052D01*
X034054Y034053D02*
X034347Y034053D01*
X034345Y034054D02*
X034057Y034054D01*
X034059Y034055D02*
X034342Y034055D01*
X034340Y034056D02*
X034062Y034056D01*
X034065Y034057D02*
X034337Y034057D01*
X034334Y034058D02*
X034067Y034058D01*
X034070Y034059D02*
X034332Y034059D01*
X034329Y034060D02*
X034072Y034060D01*
X034075Y034061D02*
X034327Y034061D01*
X034324Y034062D02*
X034077Y034062D01*
X034080Y034063D02*
X034322Y034063D01*
X034319Y034064D02*
X034083Y034064D01*
X034085Y034065D02*
X034316Y034065D01*
X034314Y034066D02*
X034088Y034066D01*
X034090Y034067D02*
X034311Y034067D01*
X034309Y034068D02*
X034093Y034068D01*
X034098Y034069D02*
X034304Y034069D01*
X034298Y034070D02*
X034103Y034070D01*
X034109Y034071D02*
X034293Y034071D01*
X034287Y034072D02*
X034114Y034072D01*
X034119Y034073D02*
X034282Y034073D01*
X034277Y034074D02*
X034125Y034074D01*
X034130Y034075D02*
X034271Y034075D01*
X034266Y034076D02*
X034135Y034076D01*
X034141Y034077D02*
X034261Y034077D01*
X034255Y034078D02*
X034146Y034078D01*
X034151Y034079D02*
X034250Y034079D01*
X034245Y034080D02*
X034157Y034080D01*
X034162Y034081D02*
X034239Y034081D01*
X033886Y029671D02*
X033807Y029671D01*
X033801Y029670D02*
X033892Y029670D01*
X033897Y029669D02*
X033796Y029669D01*
X033791Y029668D02*
X033902Y029668D01*
X033908Y029667D02*
X033785Y029667D01*
X033780Y029666D02*
X033913Y029666D01*
X033918Y029665D02*
X033775Y029665D01*
X033769Y029664D02*
X033924Y029664D01*
X033929Y029663D02*
X033764Y029663D01*
X033759Y029662D02*
X033934Y029662D01*
X033940Y029661D02*
X033753Y029661D01*
X033748Y029660D02*
X033945Y029660D01*
X033950Y029659D02*
X033743Y029659D01*
X033738Y029658D02*
X033955Y029658D01*
X033957Y029657D02*
X033735Y029657D01*
X033733Y029656D02*
X033960Y029656D01*
X033963Y029655D02*
X033730Y029655D01*
X033728Y029654D02*
X033965Y029654D01*
X033968Y029653D02*
X033725Y029653D01*
X033723Y029652D02*
X033970Y029652D01*
X033973Y029651D02*
X033720Y029651D01*
X033717Y029650D02*
X033976Y029650D01*
X033978Y029649D02*
X033715Y029649D01*
X033712Y029648D02*
X033981Y029648D01*
X033983Y029647D02*
X033710Y029647D01*
X033707Y029646D02*
X033986Y029646D01*
X033988Y029645D02*
X033704Y029645D01*
X033702Y029644D02*
X033991Y029644D01*
X033994Y029643D02*
X033699Y029643D01*
X033697Y029642D02*
X033996Y029642D01*
X033999Y029641D02*
X033694Y029641D01*
X033692Y029640D02*
X034001Y029640D01*
X034004Y029639D02*
X033689Y029639D01*
X033686Y029638D02*
X034006Y029638D01*
X034009Y029637D02*
X033684Y029637D01*
X033681Y029636D02*
X034012Y029636D01*
X034014Y029635D02*
X033679Y029635D01*
X033676Y029634D02*
X034017Y029634D01*
X034019Y029633D02*
X033674Y029633D01*
X033671Y029632D02*
X034022Y029632D01*
X034024Y029631D02*
X033669Y029631D01*
X033668Y029630D02*
X034025Y029630D01*
X034027Y029629D02*
X033666Y029629D01*
X033665Y029628D02*
X034028Y029628D01*
X034030Y029627D02*
X033663Y029627D01*
X033661Y029626D02*
X034032Y029626D01*
X034033Y029625D02*
X033660Y029625D01*
X033658Y029624D02*
X034035Y029624D01*
X034036Y029623D02*
X033656Y029623D01*
X033655Y029622D02*
X034038Y029622D01*
X034040Y029621D02*
X033653Y029621D01*
X033652Y029620D02*
X034041Y029620D01*
X034043Y029619D02*
X033650Y029619D01*
X033648Y029618D02*
X034045Y029618D01*
X034046Y029617D02*
X033647Y029617D01*
X033645Y029616D02*
X034048Y029616D01*
X034049Y029615D02*
X033644Y029615D01*
X033642Y029614D02*
X034051Y029614D01*
X034053Y029613D02*
X033640Y029613D01*
X033639Y029612D02*
X034054Y029612D01*
X034056Y029611D02*
X033637Y029611D01*
X033635Y029610D02*
X034057Y029610D01*
X034059Y029609D02*
X033634Y029609D01*
X033632Y029608D02*
X034061Y029608D01*
X034062Y029607D02*
X033631Y029607D01*
X033629Y029606D02*
X034064Y029606D01*
X034066Y029605D02*
X033627Y029605D01*
X033626Y029604D02*
X034067Y029604D01*
X034069Y029603D02*
X033624Y029603D01*
X033623Y029602D02*
X034070Y029602D01*
X034072Y029601D02*
X033621Y029601D01*
X033619Y029600D02*
X034074Y029600D01*
X034075Y029599D02*
X033618Y029599D01*
X033616Y029598D02*
X034077Y029598D01*
X034078Y029597D02*
X033614Y029597D01*
X033613Y029596D02*
X034080Y029596D01*
X034082Y029595D02*
X033611Y029595D01*
X033610Y029594D02*
X034083Y029594D01*
X034085Y029593D02*
X033608Y029593D01*
X033607Y029592D02*
X034086Y029592D01*
X034087Y029591D02*
X033606Y029591D01*
X033605Y029590D02*
X034088Y029590D01*
X034089Y029589D02*
X033604Y029589D01*
X033603Y029588D02*
X034090Y029588D01*
X034091Y029587D02*
X033602Y029587D01*
X033601Y029586D02*
X034092Y029586D01*
X034093Y029585D02*
X033600Y029585D01*
X033599Y029584D02*
X034094Y029584D01*
X034095Y029583D02*
X033597Y029583D01*
X033596Y029582D02*
X034097Y029582D01*
X034098Y029581D02*
X033595Y029581D01*
X033594Y029580D02*
X034099Y029580D01*
X034100Y029579D02*
X033593Y029579D01*
X033592Y029578D02*
X034101Y029578D01*
X034102Y029577D02*
X033591Y029577D01*
X033590Y029576D02*
X034103Y029576D01*
X034104Y029575D02*
X033589Y029575D01*
X033588Y029574D02*
X034105Y029574D01*
X034106Y029573D02*
X033586Y029573D01*
X033585Y029572D02*
X034108Y029572D01*
X034109Y029571D02*
X033584Y029571D01*
X033583Y029570D02*
X034110Y029570D01*
X034111Y029569D02*
X033582Y029569D01*
X033581Y029568D02*
X034112Y029568D01*
X034113Y029567D02*
X033580Y029567D01*
X033579Y029566D02*
X034114Y029566D01*
X034115Y029565D02*
X033578Y029565D01*
X033577Y029564D02*
X034116Y029564D01*
X034117Y029563D02*
X033576Y029563D01*
X033574Y029562D02*
X034118Y029562D01*
X034120Y029561D02*
X033573Y029561D01*
X033572Y029560D02*
X034121Y029560D01*
X034122Y029559D02*
X033571Y029559D01*
X033570Y029558D02*
X034123Y029558D01*
X034124Y029557D02*
X033569Y029557D01*
X033568Y029556D02*
X034125Y029556D01*
X034126Y029555D02*
X033567Y029555D01*
X033566Y029554D02*
X034127Y029554D01*
X034128Y029553D02*
X033565Y029553D01*
X033563Y029552D02*
X034129Y029552D01*
X034131Y029551D02*
X033562Y029551D01*
X033561Y029550D02*
X034132Y029550D01*
X034133Y029549D02*
X033560Y029549D01*
X033559Y029548D02*
X034134Y029548D01*
X034135Y029547D02*
X033558Y029547D01*
X033557Y029546D02*
X034136Y029546D01*
X034137Y029545D02*
X033556Y029545D01*
X033555Y029544D02*
X034138Y029544D01*
X034139Y029543D02*
X033554Y029543D01*
X033553Y029542D02*
X034139Y029542D01*
X034140Y029541D02*
X033553Y029541D01*
X033552Y029540D02*
X034141Y029540D01*
X034142Y029539D02*
X033551Y029539D01*
X033550Y029538D02*
X034142Y029538D01*
X034143Y029537D02*
X033550Y029537D01*
X033549Y029536D02*
X034144Y029536D01*
X034145Y029535D02*
X033548Y029535D01*
X033547Y029534D02*
X034145Y029534D01*
X034146Y029533D02*
X033547Y029533D01*
X033546Y029532D02*
X034147Y029532D01*
X034148Y029531D02*
X033545Y029531D01*
X033544Y029530D02*
X034149Y029530D01*
X034149Y029529D02*
X033544Y029529D01*
X033543Y029528D02*
X034150Y029528D01*
X034151Y029527D02*
X033542Y029527D01*
X033541Y029526D02*
X034152Y029526D01*
X034152Y029525D02*
X033541Y029525D01*
X033540Y029524D02*
X034153Y029524D01*
X034154Y029523D02*
X033539Y029523D01*
X033538Y029522D02*
X034155Y029522D01*
X034155Y029521D02*
X033538Y029521D01*
X033537Y029520D02*
X034156Y029520D01*
X034157Y029519D02*
X033536Y029519D01*
X033535Y029518D02*
X034158Y029518D01*
X034158Y029517D02*
X033535Y029517D01*
X033534Y029516D02*
X034159Y029516D01*
X034160Y029515D02*
X033533Y029515D01*
X033532Y029514D02*
X034161Y029514D01*
X034161Y029513D02*
X033532Y029513D01*
X033531Y029512D02*
X034162Y029512D01*
X034163Y029511D02*
X033530Y029511D01*
X033529Y029510D02*
X034164Y029510D01*
X034164Y029509D02*
X033529Y029509D01*
X033528Y029508D02*
X034165Y029508D01*
X034166Y029507D02*
X033527Y029507D01*
X033526Y029506D02*
X034167Y029506D01*
X034167Y029505D02*
X033526Y029505D01*
X033525Y029504D02*
X034168Y029504D01*
X034169Y029503D02*
X033524Y029503D01*
X033523Y029502D02*
X034170Y029502D01*
X034170Y029501D02*
X033523Y029501D01*
X033522Y029500D02*
X034171Y029500D01*
X034172Y029499D02*
X033521Y029499D01*
X033520Y029498D02*
X034173Y029498D01*
X034173Y029497D02*
X033520Y029497D01*
X033519Y029496D02*
X034174Y029496D01*
X034175Y029495D02*
X033518Y029495D01*
X033517Y029494D02*
X034176Y029494D01*
X034176Y029493D02*
X033516Y029493D01*
X033516Y029492D02*
X034177Y029492D01*
X034178Y029491D02*
X033515Y029491D01*
X033514Y029490D02*
X034179Y029490D01*
X034179Y029489D02*
X033513Y029489D01*
X033513Y029488D02*
X034180Y029488D01*
X034181Y029487D02*
X033512Y029487D01*
X033511Y029486D02*
X034182Y029486D01*
X034182Y029485D02*
X033511Y029485D01*
X033510Y029484D02*
X034183Y029484D01*
X034183Y029483D02*
X033510Y029483D01*
X033509Y029482D02*
X034184Y029482D01*
X034184Y029481D02*
X033509Y029481D01*
X033508Y029480D02*
X034185Y029480D01*
X034185Y029479D02*
X033508Y029479D01*
X033507Y029478D02*
X034186Y029478D01*
X034186Y029477D02*
X033507Y029477D01*
X033506Y029476D02*
X034187Y029476D01*
X034187Y029475D02*
X033506Y029475D01*
X033505Y029474D02*
X034187Y029474D01*
X034188Y029473D02*
X033505Y029473D01*
X033504Y029472D02*
X034188Y029472D01*
X034189Y029471D02*
X033504Y029471D01*
X033503Y029470D02*
X034189Y029470D01*
X034190Y029469D02*
X033503Y029469D01*
X033502Y029468D02*
X034190Y029468D01*
X034191Y029467D02*
X033502Y029467D01*
X033501Y029466D02*
X034191Y029466D01*
X034192Y029465D02*
X033501Y029465D01*
X033500Y029464D02*
X034192Y029464D01*
X034193Y029463D02*
X033500Y029463D01*
X033499Y029462D02*
X034193Y029462D01*
X034194Y029461D02*
X033499Y029461D01*
X033498Y029460D02*
X034194Y029460D01*
X034195Y029459D02*
X033498Y029459D01*
X033497Y029458D02*
X034195Y029458D01*
X034196Y029457D02*
X033497Y029457D01*
X033496Y029456D02*
X034196Y029456D01*
X034197Y029455D02*
X033496Y029455D01*
X033495Y029454D02*
X034197Y029454D01*
X034198Y029453D02*
X033495Y029453D01*
X033494Y029452D02*
X034198Y029452D01*
X034199Y029451D02*
X033494Y029451D01*
X033493Y029450D02*
X034199Y029450D01*
X034200Y029449D02*
X033493Y029449D01*
X033492Y029448D02*
X034200Y029448D01*
X034201Y029447D02*
X033492Y029447D01*
X033491Y029446D02*
X034201Y029446D01*
X034202Y029445D02*
X033491Y029445D01*
X033490Y029444D02*
X034202Y029444D01*
X034203Y029443D02*
X033490Y029443D01*
X033489Y029442D02*
X034203Y029442D01*
X034204Y029441D02*
X033489Y029441D01*
X033489Y029440D02*
X034204Y029440D01*
X034205Y029439D02*
X033488Y029439D01*
X033488Y029438D02*
X034205Y029438D01*
X034206Y029437D02*
X033487Y029437D01*
X033487Y029436D02*
X034206Y029436D01*
X034207Y029435D02*
X033486Y029435D01*
X033486Y029434D02*
X034207Y029434D01*
X034208Y029433D02*
X033485Y029433D01*
X033485Y029432D02*
X034208Y029432D01*
X034209Y029431D02*
X033484Y029431D01*
X033484Y029430D02*
X034209Y029430D01*
X034210Y029429D02*
X033483Y029429D01*
X033483Y029428D02*
X034210Y029428D01*
X034211Y029427D02*
X033482Y029427D01*
X033482Y029426D02*
X034211Y029426D01*
X034212Y029425D02*
X033481Y029425D01*
X033481Y029424D02*
X034212Y029424D01*
X034213Y029423D02*
X033480Y029423D01*
X033480Y029422D02*
X034213Y029422D01*
X034214Y029421D02*
X033479Y029421D01*
X033479Y029420D02*
X034214Y029420D01*
X034214Y029419D02*
X033479Y029419D01*
X033478Y029418D02*
X034215Y029418D01*
X034215Y029417D02*
X033478Y029417D01*
X033478Y029416D02*
X034215Y029416D01*
X034215Y029415D02*
X033477Y029415D01*
X033477Y029414D02*
X034216Y029414D01*
X034216Y029413D02*
X033477Y029413D01*
X033477Y029412D02*
X034216Y029412D01*
X034217Y029411D02*
X033476Y029411D01*
X033476Y029410D02*
X034217Y029410D01*
X034217Y029409D02*
X033476Y029409D01*
X033475Y029408D02*
X034217Y029408D01*
X034218Y029407D02*
X033475Y029407D01*
X033475Y029406D02*
X034218Y029406D01*
X034218Y029405D02*
X033475Y029405D01*
X033474Y029404D02*
X034219Y029404D01*
X034219Y029403D02*
X033474Y029403D01*
X033474Y029402D02*
X034219Y029402D01*
X034219Y029401D02*
X033473Y029401D01*
X033473Y029400D02*
X034220Y029400D01*
X034220Y029399D02*
X033473Y029399D01*
X033473Y029398D02*
X034220Y029398D01*
X034221Y029397D02*
X033472Y029397D01*
X033472Y029396D02*
X034221Y029396D01*
X034221Y029395D02*
X033472Y029395D01*
X033472Y029394D02*
X034221Y029394D01*
X034222Y029393D02*
X033471Y029393D01*
X033471Y029392D02*
X034222Y029392D01*
X034222Y029391D02*
X033471Y029391D01*
X033470Y029390D02*
X034223Y029390D01*
X034223Y029389D02*
X033470Y029389D01*
X033470Y029388D02*
X034223Y029388D01*
X034223Y029387D02*
X033470Y029387D01*
X033469Y029386D02*
X034224Y029386D01*
X034224Y029385D02*
X033469Y029385D01*
X033469Y029384D02*
X034224Y029384D01*
X034225Y029383D02*
X033468Y029383D01*
X033468Y029382D02*
X034225Y029382D01*
X034225Y029381D02*
X033468Y029381D01*
X033468Y029380D02*
X034225Y029380D01*
X034226Y029379D02*
X033467Y029379D01*
X033467Y029378D02*
X034226Y029378D01*
X034226Y029377D02*
X033467Y029377D01*
X033466Y029376D02*
X034227Y029376D01*
X034227Y029375D02*
X033466Y029375D01*
X033466Y029374D02*
X034227Y029374D01*
X034227Y029373D02*
X033466Y029373D01*
X033465Y029372D02*
X034228Y029372D01*
X034228Y029371D02*
X033465Y029371D01*
X033465Y029370D02*
X034228Y029370D01*
X034229Y029369D02*
X033464Y029369D01*
X033464Y029368D02*
X034229Y029368D01*
X034229Y029367D02*
X033464Y029367D01*
X033464Y029366D02*
X034229Y029366D01*
X034230Y029365D02*
X033463Y029365D01*
X033463Y029364D02*
X034230Y029364D01*
X034230Y029363D02*
X033463Y029363D01*
X033462Y029362D02*
X034231Y029362D01*
X034231Y029361D02*
X033462Y029361D01*
X033462Y029360D02*
X034231Y029360D01*
X034231Y029359D02*
X033462Y029359D01*
X033461Y029358D02*
X034232Y029358D01*
X034232Y029357D02*
X033461Y029357D01*
X033461Y029356D02*
X034232Y029356D01*
X034232Y029355D02*
X033460Y029355D01*
X033460Y029354D02*
X034233Y029354D01*
X034233Y029353D02*
X033460Y029353D01*
X033460Y029352D02*
X034233Y029352D01*
X034234Y029351D02*
X033459Y029351D01*
X033459Y029350D02*
X034234Y029350D01*
X034234Y029349D02*
X033459Y029349D01*
X033459Y029348D02*
X034234Y029348D01*
X034234Y029347D02*
X033459Y029347D01*
X033459Y029346D02*
X034234Y029346D01*
X034234Y029345D02*
X033459Y029345D01*
X033459Y029344D02*
X034234Y029344D01*
X034234Y029343D02*
X033459Y029343D01*
X033459Y029342D02*
X034234Y029342D01*
X034234Y029341D02*
X033458Y029341D01*
X033458Y029340D02*
X034235Y029340D01*
X034235Y029339D02*
X033458Y029339D01*
X033458Y029338D02*
X034235Y029338D01*
X034235Y029337D02*
X033458Y029337D01*
X033458Y029336D02*
X034235Y029336D01*
X034235Y029335D02*
X033458Y029335D01*
X033458Y029334D02*
X034235Y029334D01*
X034235Y029333D02*
X033458Y029333D01*
X033458Y029332D02*
X034235Y029332D01*
X034235Y029331D02*
X033458Y029331D01*
X033457Y029330D02*
X034235Y029330D01*
X034236Y029329D02*
X033457Y029329D01*
X033457Y029328D02*
X034236Y029328D01*
X034236Y029327D02*
X033457Y029327D01*
X033457Y029326D02*
X034236Y029326D01*
X034236Y029325D02*
X033457Y029325D01*
X033457Y029324D02*
X034236Y029324D01*
X034236Y029323D02*
X033457Y029323D01*
X033457Y029322D02*
X034236Y029322D01*
X034236Y029321D02*
X033457Y029321D01*
X033457Y029320D02*
X034236Y029320D01*
X034236Y029319D02*
X033456Y029319D01*
X033456Y029318D02*
X034237Y029318D01*
X034237Y029317D02*
X033456Y029317D01*
X033456Y029316D02*
X034237Y029316D01*
X034237Y029315D02*
X033456Y029315D01*
X033456Y029314D02*
X034237Y029314D01*
X034237Y029313D02*
X033456Y029313D01*
X033456Y029312D02*
X034237Y029312D01*
X034237Y029311D02*
X033456Y029311D01*
X033456Y029310D02*
X034237Y029310D01*
X034237Y029309D02*
X033456Y029309D01*
X033455Y029308D02*
X034237Y029308D01*
X034238Y029307D02*
X033455Y029307D01*
X033455Y029306D02*
X034238Y029306D01*
X034238Y029305D02*
X033455Y029305D01*
X033455Y029304D02*
X034238Y029304D01*
X034238Y029303D02*
X033455Y029303D01*
X033455Y029302D02*
X034238Y029302D01*
X034238Y029301D02*
X033455Y029301D01*
X033455Y029300D02*
X034238Y029300D01*
X034238Y029299D02*
X033455Y029299D01*
X033454Y029298D02*
X034238Y029298D01*
X034239Y029297D02*
X033454Y029297D01*
X033454Y029296D02*
X034239Y029296D01*
X034239Y029295D02*
X033454Y029295D01*
X033454Y029294D02*
X034239Y029294D01*
X034239Y029293D02*
X033454Y029293D01*
X033454Y029292D02*
X034239Y029292D01*
X034239Y029291D02*
X033454Y029291D01*
X033454Y029290D02*
X034239Y029290D01*
X034239Y029289D02*
X033454Y029289D01*
X033454Y029288D02*
X034239Y029288D01*
X034239Y029287D02*
X033453Y029287D01*
X033453Y029286D02*
X034240Y029286D01*
X034240Y029285D02*
X033453Y029285D01*
X033453Y029284D02*
X034240Y029284D01*
X034240Y029283D02*
X033453Y029283D01*
X033453Y029282D02*
X034240Y029282D01*
X034240Y029281D02*
X033453Y029281D01*
X033453Y029280D02*
X034240Y029280D01*
X034240Y029279D02*
X033453Y029279D01*
X033453Y029278D02*
X034240Y029278D01*
X034240Y029277D02*
X033453Y029277D01*
X033453Y029276D02*
X034240Y029276D01*
X034240Y029275D02*
X033453Y029275D01*
X033453Y029274D02*
X034240Y029274D01*
X034240Y029273D02*
X033453Y029273D01*
X033453Y029272D02*
X034239Y029272D01*
X034239Y029271D02*
X033454Y029271D01*
X033454Y029270D02*
X034239Y029270D01*
X034239Y029269D02*
X033454Y029269D01*
X033454Y029268D02*
X034239Y029268D01*
X034239Y029267D02*
X033454Y029267D01*
X033454Y029266D02*
X034239Y029266D01*
X034239Y029265D02*
X033454Y029265D01*
X033454Y029264D02*
X034239Y029264D01*
X034239Y029263D02*
X033454Y029263D01*
X033454Y029262D02*
X034239Y029262D01*
X034238Y029261D02*
X033454Y029261D01*
X033455Y029260D02*
X034238Y029260D01*
X034238Y029259D02*
X033455Y029259D01*
X033455Y029258D02*
X034238Y029258D01*
X034238Y029257D02*
X033455Y029257D01*
X033455Y029256D02*
X034238Y029256D01*
X034238Y029255D02*
X033455Y029255D01*
X033455Y029254D02*
X034238Y029254D01*
X034238Y029253D02*
X033455Y029253D01*
X033455Y029252D02*
X034238Y029252D01*
X034238Y029251D02*
X033455Y029251D01*
X033455Y029250D02*
X034237Y029250D01*
X034237Y029249D02*
X033456Y029249D01*
X033456Y029248D02*
X034237Y029248D01*
X034237Y029247D02*
X033456Y029247D01*
X033456Y029246D02*
X034237Y029246D01*
X034237Y029245D02*
X033456Y029245D01*
X033456Y029244D02*
X034237Y029244D01*
X034237Y029243D02*
X033456Y029243D01*
X033456Y029242D02*
X034237Y029242D01*
X034237Y029241D02*
X033456Y029241D01*
X033456Y029240D02*
X034237Y029240D01*
X034236Y029239D02*
X033456Y029239D01*
X033457Y029238D02*
X034236Y029238D01*
X034236Y029237D02*
X033457Y029237D01*
X033457Y029236D02*
X034236Y029236D01*
X034236Y029235D02*
X033457Y029235D01*
X033457Y029234D02*
X034236Y029234D01*
X034236Y029233D02*
X033457Y029233D01*
X033457Y029232D02*
X034236Y029232D01*
X034236Y029231D02*
X033457Y029231D01*
X033457Y029230D02*
X034236Y029230D01*
X034236Y029229D02*
X033457Y029229D01*
X033457Y029228D02*
X034235Y029228D01*
X034235Y029227D02*
X033458Y029227D01*
X033458Y029226D02*
X034235Y029226D01*
X034235Y029225D02*
X033458Y029225D01*
X033458Y029224D02*
X034235Y029224D01*
X034235Y029223D02*
X033458Y029223D01*
X033458Y029222D02*
X034235Y029222D01*
X034235Y029221D02*
X033458Y029221D01*
X033458Y029220D02*
X034235Y029220D01*
X034235Y029219D02*
X033458Y029219D01*
X033458Y029218D02*
X034234Y029218D01*
X034234Y029217D02*
X033459Y029217D01*
X033459Y029216D02*
X034234Y029216D01*
X034234Y029215D02*
X033459Y029215D01*
X033459Y029214D02*
X034234Y029214D01*
X034234Y029213D02*
X033459Y029213D01*
X033459Y029212D02*
X034234Y029212D01*
X034234Y029211D02*
X033459Y029211D01*
X033459Y029210D02*
X034234Y029210D01*
X034234Y029209D02*
X033459Y029209D01*
X033459Y029208D02*
X034234Y029208D01*
X034233Y029207D02*
X033459Y029207D01*
X033460Y029206D02*
X034233Y029206D01*
X034233Y029205D02*
X033460Y029205D01*
X033460Y029204D02*
X034233Y029204D01*
X034232Y029203D02*
X033461Y029203D01*
X033461Y029202D02*
X034232Y029202D01*
X034232Y029201D02*
X033461Y029201D01*
X033461Y029200D02*
X034232Y029200D01*
X034231Y029199D02*
X033462Y029199D01*
X033462Y029198D02*
X034231Y029198D01*
X034231Y029197D02*
X033462Y029197D01*
X033463Y029196D02*
X034230Y029196D01*
X034230Y029195D02*
X033463Y029195D01*
X033463Y029194D02*
X034230Y029194D01*
X034230Y029193D02*
X033463Y029193D01*
X033464Y029192D02*
X034229Y029192D01*
X034229Y029191D02*
X033464Y029191D01*
X033464Y029190D02*
X034229Y029190D01*
X034228Y029189D02*
X033465Y029189D01*
X033465Y029188D02*
X034228Y029188D01*
X034228Y029187D02*
X033465Y029187D01*
X033465Y029186D02*
X034228Y029186D01*
X034227Y029185D02*
X033466Y029185D01*
X033466Y029184D02*
X034227Y029184D01*
X034227Y029183D02*
X033466Y029183D01*
X033467Y029182D02*
X034226Y029182D01*
X034226Y029181D02*
X033467Y029181D01*
X033467Y029180D02*
X034226Y029180D01*
X034226Y029179D02*
X033467Y029179D01*
X033468Y029178D02*
X034225Y029178D01*
X034225Y029177D02*
X033468Y029177D01*
X033468Y029176D02*
X034225Y029176D01*
X034224Y029175D02*
X033469Y029175D01*
X033469Y029174D02*
X034224Y029174D01*
X034224Y029173D02*
X033469Y029173D01*
X033469Y029172D02*
X034224Y029172D01*
X034223Y029171D02*
X033470Y029171D01*
X033470Y029170D02*
X034223Y029170D01*
X034223Y029169D02*
X033470Y029169D01*
X033470Y029168D02*
X034222Y029168D01*
X034222Y029167D02*
X033471Y029167D01*
X033471Y029166D02*
X034222Y029166D01*
X034222Y029165D02*
X033471Y029165D01*
X033472Y029164D02*
X034221Y029164D01*
X034221Y029163D02*
X033472Y029163D01*
X033472Y029162D02*
X034221Y029162D01*
X034220Y029161D02*
X033472Y029161D01*
X033473Y029160D02*
X034220Y029160D01*
X034220Y029159D02*
X033473Y029159D01*
X033473Y029158D02*
X034220Y029158D01*
X034219Y029157D02*
X033474Y029157D01*
X033474Y029156D02*
X034219Y029156D01*
X034219Y029155D02*
X033474Y029155D01*
X033474Y029154D02*
X034218Y029154D01*
X034218Y029153D02*
X033475Y029153D01*
X033475Y029152D02*
X034218Y029152D01*
X034218Y029151D02*
X033475Y029151D01*
X033476Y029150D02*
X034217Y029150D01*
X034217Y029149D02*
X033476Y029149D01*
X033476Y029148D02*
X034217Y029148D01*
X034216Y029147D02*
X033476Y029147D01*
X033477Y029146D02*
X034216Y029146D01*
X034216Y029145D02*
X033477Y029145D01*
X033477Y029144D02*
X034216Y029144D01*
X034215Y029143D02*
X033478Y029143D01*
X033478Y029142D02*
X034215Y029142D01*
X034215Y029141D02*
X033478Y029141D01*
X033478Y029140D02*
X034214Y029140D01*
X034214Y029139D02*
X033479Y029139D01*
X033479Y029138D02*
X034214Y029138D01*
X034214Y029137D02*
X033479Y029137D01*
X033480Y029136D02*
X034213Y029136D01*
X034213Y029135D02*
X033480Y029135D01*
X033481Y029134D02*
X034212Y029134D01*
X034212Y029133D02*
X033481Y029133D01*
X033482Y029132D02*
X034211Y029132D01*
X034211Y029131D02*
X033482Y029131D01*
X033483Y029130D02*
X034210Y029130D01*
X034210Y029129D02*
X033483Y029129D01*
X033484Y029128D02*
X034209Y029128D01*
X034209Y029127D02*
X033484Y029127D01*
X033485Y029126D02*
X034208Y029126D01*
X034208Y029125D02*
X033485Y029125D01*
X033486Y029124D02*
X034207Y029124D01*
X034207Y029123D02*
X033486Y029123D01*
X033487Y029122D02*
X034206Y029122D01*
X034206Y029121D02*
X033487Y029121D01*
X033488Y029120D02*
X034205Y029120D01*
X034205Y029119D02*
X033488Y029119D01*
X033489Y029118D02*
X034204Y029118D01*
X034204Y029117D02*
X033489Y029117D01*
X033490Y029116D02*
X034203Y029116D01*
X034203Y029115D02*
X033490Y029115D01*
X033491Y029114D02*
X034202Y029114D01*
X034202Y029113D02*
X033491Y029113D01*
X033492Y029112D02*
X034201Y029112D01*
X034201Y029111D02*
X033492Y029111D01*
X033493Y029110D02*
X034200Y029110D01*
X034200Y029109D02*
X033493Y029109D01*
X033494Y029108D02*
X034199Y029108D01*
X034199Y029107D02*
X033494Y029107D01*
X033495Y029106D02*
X034198Y029106D01*
X034198Y029105D02*
X033495Y029105D01*
X033496Y029104D02*
X034197Y029104D01*
X034197Y029103D02*
X033496Y029103D01*
X033497Y029102D02*
X034196Y029102D01*
X034196Y029101D02*
X033497Y029101D01*
X033498Y029100D02*
X034195Y029100D01*
X034195Y029099D02*
X033498Y029099D01*
X033499Y029098D02*
X034194Y029098D01*
X034194Y029097D02*
X033499Y029097D01*
X033500Y029096D02*
X034193Y029096D01*
X034193Y029095D02*
X033500Y029095D01*
X033501Y029094D02*
X034192Y029094D01*
X034192Y029093D02*
X033501Y029093D01*
X033502Y029092D02*
X034191Y029092D01*
X034191Y029091D02*
X033502Y029091D01*
X033503Y029090D02*
X034190Y029090D01*
X034190Y029089D02*
X033503Y029089D01*
X033504Y029088D02*
X034189Y029088D01*
X034189Y029087D02*
X033504Y029087D01*
X033505Y029086D02*
X034188Y029086D01*
X034188Y029085D02*
X033505Y029085D01*
X033506Y029084D02*
X034187Y029084D01*
X034187Y029083D02*
X033506Y029083D01*
X033507Y029082D02*
X034186Y029082D01*
X034186Y029081D02*
X033507Y029081D01*
X033508Y029080D02*
X034185Y029080D01*
X034185Y029079D02*
X033508Y029079D01*
X033509Y029078D02*
X034184Y029078D01*
X033509Y029078D01*
X033510Y029077D02*
X034183Y029077D01*
X034183Y029076D02*
X033510Y029076D01*
X033511Y029075D02*
X034182Y029075D01*
X034182Y029074D02*
X033511Y029074D01*
X033512Y029073D02*
X034181Y029073D01*
X034181Y029072D02*
X033512Y029072D01*
X033513Y029071D02*
X034180Y029071D01*
X034179Y029070D02*
X033514Y029070D01*
X033515Y029069D02*
X034178Y029069D01*
X034178Y029068D02*
X033515Y029068D01*
X033516Y029067D02*
X034177Y029067D01*
X034176Y029066D02*
X033517Y029066D01*
X033518Y029065D02*
X034175Y029065D01*
X034175Y029064D02*
X033518Y029064D01*
X033519Y029063D02*
X034174Y029063D01*
X034173Y029062D02*
X033520Y029062D01*
X033521Y029061D02*
X034172Y029061D01*
X034172Y029060D02*
X033521Y029060D01*
X033522Y029059D02*
X034171Y029059D01*
X034170Y029058D02*
X033523Y029058D01*
X033524Y029057D02*
X034169Y029057D01*
X034169Y029056D02*
X033524Y029056D01*
X033525Y029055D02*
X034168Y029055D01*
X034167Y029054D02*
X033526Y029054D01*
X033527Y029053D02*
X034166Y029053D01*
X034166Y029052D02*
X033527Y029052D01*
X033528Y029051D02*
X034165Y029051D01*
X034164Y029050D02*
X033529Y029050D01*
X033530Y029049D02*
X034163Y029049D01*
X034163Y029048D02*
X033530Y029048D01*
X033531Y029047D02*
X034162Y029047D01*
X034161Y029046D02*
X033532Y029046D01*
X033533Y029045D02*
X034160Y029045D01*
X034159Y029044D02*
X033533Y029044D01*
X033534Y029043D02*
X034159Y029043D01*
X034158Y029042D02*
X033535Y029042D01*
X033536Y029041D02*
X034157Y029041D01*
X034156Y029040D02*
X033536Y029040D01*
X033537Y029039D02*
X034156Y029039D01*
X034155Y029038D02*
X033538Y029038D01*
X033539Y029037D02*
X034154Y029037D01*
X034153Y029036D02*
X033539Y029036D01*
X033540Y029035D02*
X034153Y029035D01*
X034152Y029034D02*
X033541Y029034D01*
X033542Y029033D02*
X034151Y029033D01*
X034150Y029032D02*
X033542Y029032D01*
X033543Y029031D02*
X034150Y029031D01*
X034149Y029030D02*
X033544Y029030D01*
X033545Y029029D02*
X034148Y029029D01*
X034147Y029028D02*
X033545Y029028D01*
X033546Y029027D02*
X034147Y029027D01*
X034146Y029026D02*
X033547Y029026D01*
X033548Y029025D02*
X034145Y029025D01*
X034144Y029024D02*
X033549Y029024D01*
X033549Y029023D02*
X034144Y029023D01*
X034143Y029022D02*
X033550Y029022D01*
X033551Y029021D02*
X034142Y029021D01*
X034141Y029020D02*
X033552Y029020D01*
X033552Y029019D02*
X034141Y029019D01*
X034140Y029018D02*
X033553Y029018D01*
X033554Y029017D02*
X034139Y029017D01*
X034138Y029016D02*
X033555Y029016D01*
X033555Y029015D02*
X034138Y029015D01*
X034137Y029014D02*
X033556Y029014D01*
X033557Y029013D02*
X034136Y029013D01*
X034134Y029012D02*
X033558Y029012D01*
X033560Y029011D02*
X034133Y029011D01*
X034132Y029010D02*
X033561Y029010D01*
X033562Y029009D02*
X034131Y029009D01*
X034130Y029008D02*
X033563Y029008D01*
X033564Y029007D02*
X034129Y029007D01*
X034128Y029006D02*
X033565Y029006D01*
X033566Y029005D02*
X034127Y029005D01*
X034126Y029004D02*
X033567Y029004D01*
X033568Y029003D02*
X034125Y029003D01*
X034123Y029002D02*
X033569Y029002D01*
X033571Y029001D02*
X034122Y029001D01*
X034121Y029000D02*
X033572Y029000D01*
X033573Y028999D02*
X034120Y028999D01*
X034119Y028998D02*
X033574Y028998D01*
X033575Y028997D02*
X034118Y028997D01*
X034117Y028996D02*
X033576Y028996D01*
X033577Y028995D02*
X034116Y028995D01*
X034115Y028994D02*
X033578Y028994D01*
X033579Y028993D02*
X034114Y028993D01*
X034112Y028992D02*
X033580Y028992D01*
X033582Y028991D02*
X034111Y028991D01*
X034110Y028990D02*
X033583Y028990D01*
X033584Y028989D02*
X034109Y028989D01*
X034108Y028988D02*
X033585Y028988D01*
X033586Y028987D02*
X034107Y028987D01*
X034106Y028986D02*
X033587Y028986D01*
X033588Y028985D02*
X034105Y028985D01*
X034104Y028984D02*
X033589Y028984D01*
X033590Y028983D02*
X034103Y028983D01*
X034102Y028982D02*
X033591Y028982D01*
X033592Y028981D02*
X034100Y028981D01*
X034099Y028980D02*
X033594Y028980D01*
X033595Y028979D02*
X034098Y028979D01*
X034097Y028978D02*
X033596Y028978D01*
X033597Y028977D02*
X034096Y028977D01*
X034095Y028976D02*
X033598Y028976D01*
X033599Y028975D02*
X034094Y028975D01*
X034093Y028974D02*
X033600Y028974D01*
X033601Y028973D02*
X034092Y028973D01*
X034091Y028972D02*
X033602Y028972D01*
X033603Y028971D02*
X034089Y028971D01*
X034088Y028970D02*
X033605Y028970D01*
X033606Y028969D02*
X034087Y028969D01*
X034086Y028968D02*
X033607Y028968D01*
X033608Y028967D02*
X034085Y028967D01*
X034084Y028966D02*
X033609Y028966D01*
X033610Y028965D02*
X034083Y028965D01*
X034081Y028964D02*
X033612Y028964D01*
X033614Y028963D02*
X034079Y028963D01*
X034078Y028962D02*
X033615Y028962D01*
X033617Y028961D02*
X034076Y028961D01*
X034074Y028960D02*
X033618Y028960D01*
X033620Y028959D02*
X034073Y028959D01*
X034071Y028958D02*
X033622Y028958D01*
X033623Y028957D02*
X034070Y028957D01*
X034068Y028956D02*
X033625Y028956D01*
X033627Y028955D02*
X034066Y028955D01*
X034065Y028954D02*
X033628Y028954D01*
X033630Y028953D02*
X034063Y028953D01*
X034062Y028952D02*
X033631Y028952D01*
X033633Y028951D02*
X034060Y028951D01*
X034058Y028950D02*
X033635Y028950D01*
X033636Y028949D02*
X034057Y028949D01*
X034055Y028948D02*
X033638Y028948D01*
X033639Y028947D02*
X034053Y028947D01*
X034052Y028946D02*
X033641Y028946D01*
X033643Y028945D02*
X034050Y028945D01*
X034049Y028944D02*
X033644Y028944D01*
X033646Y028943D02*
X034047Y028943D01*
X034045Y028942D02*
X033647Y028942D01*
X033649Y028941D02*
X034044Y028941D01*
X034042Y028940D02*
X033651Y028940D01*
X033652Y028939D02*
X034041Y028939D01*
X034039Y028938D02*
X033654Y028938D01*
X033656Y028937D02*
X034037Y028937D01*
X034036Y028936D02*
X033657Y028936D01*
X033659Y028935D02*
X034034Y028935D01*
X034033Y028934D02*
X033660Y028934D01*
X033662Y028933D02*
X034031Y028933D01*
X034029Y028932D02*
X033664Y028932D01*
X033665Y028931D02*
X034028Y028931D01*
X034026Y028930D02*
X033667Y028930D01*
X033668Y028929D02*
X034024Y028929D01*
X034023Y028928D02*
X033670Y028928D01*
X033672Y028927D02*
X034021Y028927D01*
X034018Y028926D02*
X033675Y028926D01*
X033677Y028925D02*
X034016Y028925D01*
X034013Y028924D02*
X033680Y028924D01*
X033682Y028923D02*
X034010Y028923D01*
X034008Y028922D02*
X033685Y028922D01*
X033688Y028921D02*
X034005Y028921D01*
X034003Y028920D02*
X033690Y028920D01*
X033693Y028919D02*
X034000Y028919D01*
X033998Y028918D02*
X033695Y028918D01*
X033698Y028917D02*
X033995Y028917D01*
X033992Y028916D02*
X033701Y028916D01*
X033703Y028915D02*
X033990Y028915D01*
X033987Y028914D02*
X033706Y028914D01*
X033708Y028913D02*
X033985Y028913D01*
X033982Y028912D02*
X033711Y028912D01*
X033713Y028911D02*
X033980Y028911D01*
X033977Y028910D02*
X033716Y028910D01*
X033719Y028909D02*
X033974Y028909D01*
X033972Y028908D02*
X033721Y028908D01*
X033724Y028907D02*
X033969Y028907D01*
X033967Y028906D02*
X033726Y028906D01*
X033729Y028905D02*
X033964Y028905D01*
X033961Y028904D02*
X033731Y028904D01*
X033734Y028903D02*
X033959Y028903D01*
X033956Y028902D02*
X033737Y028902D01*
X033740Y028901D02*
X033953Y028901D01*
X033948Y028900D02*
X033745Y028900D01*
X033750Y028899D02*
X033943Y028899D01*
X033937Y028898D02*
X033756Y028898D01*
X033761Y028897D02*
X033932Y028897D01*
X033927Y028896D02*
X033766Y028896D01*
X033772Y028895D02*
X033921Y028895D01*
X033916Y028894D02*
X033777Y028894D01*
X033782Y028893D02*
X033910Y028893D01*
X033905Y028892D02*
X033788Y028892D01*
X033793Y028891D02*
X033900Y028891D01*
X033894Y028890D02*
X033798Y028890D01*
X033804Y028889D02*
X033889Y028889D01*
X033884Y028888D02*
X033809Y028888D01*
X039225Y023167D02*
X039806Y023167D01*
X039807Y023166D02*
X039224Y023166D01*
X039224Y023165D02*
X039808Y023165D01*
X039809Y023164D02*
X039223Y023164D01*
X039222Y023163D02*
X039809Y023163D01*
X039810Y023162D02*
X039221Y023162D01*
X039221Y023161D02*
X039811Y023161D01*
X039812Y023160D02*
X039220Y023160D01*
X039219Y023159D02*
X039812Y023159D01*
X039813Y023158D02*
X039218Y023158D01*
X039218Y023157D02*
X039814Y023157D01*
X039815Y023156D02*
X039217Y023156D01*
X039216Y023155D02*
X039815Y023155D01*
X039816Y023154D02*
X039215Y023154D01*
X039215Y023153D02*
X039817Y023153D01*
X039818Y023152D02*
X039214Y023152D01*
X039213Y023151D02*
X039818Y023151D01*
X039819Y023150D02*
X039212Y023150D01*
X039212Y023149D02*
X039820Y023149D01*
X039821Y023148D02*
X039211Y023148D01*
X039210Y023147D02*
X039821Y023147D01*
X039822Y023146D02*
X039209Y023146D01*
X039209Y023145D02*
X039823Y023145D01*
X039824Y023144D02*
X039208Y023144D01*
X039207Y023143D02*
X039824Y023143D01*
X039825Y023142D02*
X039206Y023142D01*
X039206Y023141D02*
X039826Y023141D01*
X039827Y023140D02*
X039205Y023140D01*
X039204Y023139D02*
X039827Y023139D01*
X039828Y023138D02*
X039203Y023138D01*
X039203Y023137D02*
X039829Y023137D01*
X039830Y023136D02*
X039202Y023136D01*
X039201Y023135D02*
X039830Y023135D01*
X039831Y023134D02*
X039200Y023134D01*
X039200Y023133D02*
X039832Y023133D01*
X039833Y023132D02*
X039199Y023132D01*
X039198Y023131D02*
X039833Y023131D01*
X039834Y023130D02*
X039197Y023130D01*
X039197Y023129D02*
X039835Y023129D01*
X039836Y023128D02*
X039196Y023128D01*
X039195Y023127D02*
X039836Y023127D01*
X039837Y023126D02*
X039194Y023126D01*
X039194Y023125D02*
X039838Y023125D01*
X039839Y023124D02*
X039193Y023124D01*
X039192Y023123D02*
X039840Y023123D01*
X039840Y023122D02*
X039191Y023122D01*
X039190Y023121D02*
X039841Y023121D01*
X039842Y023120D02*
X039190Y023120D01*
X039189Y023119D02*
X039843Y023119D01*
X039843Y023118D02*
X039188Y023118D01*
X039187Y023117D02*
X039844Y023117D01*
X039845Y023116D02*
X039187Y023116D01*
X039186Y023115D02*
X039846Y023115D01*
X039846Y023114D02*
X039185Y023114D01*
X039184Y023113D02*
X039847Y023113D01*
X039848Y023112D02*
X039184Y023112D01*
X039183Y023111D02*
X039849Y023111D01*
X039849Y023110D02*
X039182Y023110D01*
X039181Y023109D02*
X039850Y023109D01*
X039851Y023108D02*
X039181Y023108D01*
X039180Y023107D02*
X039851Y023107D01*
X039852Y023106D02*
X039180Y023106D01*
X039179Y023105D02*
X039852Y023105D01*
X039853Y023104D02*
X039179Y023104D01*
X039178Y023103D02*
X039853Y023103D01*
X039854Y023102D02*
X039178Y023102D01*
X039177Y023101D02*
X039854Y023101D01*
X039855Y023100D02*
X039177Y023100D01*
X039176Y023099D02*
X039855Y023099D01*
X039856Y023098D02*
X039176Y023098D01*
X039175Y023097D02*
X039856Y023097D01*
X039857Y023096D02*
X039175Y023096D01*
X039174Y023095D02*
X039857Y023095D01*
X039858Y023094D02*
X039174Y023094D01*
X039173Y023093D02*
X039858Y023093D01*
X039859Y023092D02*
X039173Y023092D01*
X039172Y023091D02*
X039859Y023091D01*
X039860Y023090D02*
X039172Y023090D01*
X039171Y023089D02*
X039860Y023089D01*
X039861Y023088D02*
X039171Y023088D01*
X039170Y023087D02*
X039861Y023087D01*
X039862Y023086D02*
X039170Y023086D01*
X039169Y023085D02*
X039862Y023085D01*
X039863Y023084D02*
X039169Y023084D01*
X039168Y023083D02*
X039863Y023083D01*
X039864Y023082D02*
X039168Y023082D01*
X039167Y023081D02*
X039864Y023081D01*
X039865Y023080D02*
X039167Y023080D01*
X039166Y023079D02*
X039865Y023079D01*
X039866Y023078D02*
X039166Y023078D01*
X039165Y023077D02*
X039866Y023077D01*
X039867Y023076D02*
X039165Y023076D01*
X039164Y023075D02*
X039867Y023075D01*
X039868Y023074D02*
X039164Y023074D01*
X039163Y023073D02*
X039868Y023073D01*
X039869Y023072D02*
X039163Y023072D01*
X039162Y023071D02*
X039869Y023071D01*
X039870Y023070D02*
X039162Y023070D01*
X039161Y023069D02*
X039870Y023069D01*
X039871Y023068D02*
X039161Y023068D01*
X039160Y023067D02*
X039871Y023067D01*
X039872Y023066D02*
X039160Y023066D01*
X039159Y023065D02*
X039872Y023065D01*
X039873Y023064D02*
X039159Y023064D01*
X039158Y023063D02*
X039873Y023063D01*
X039874Y023062D02*
X039158Y023062D01*
X039157Y023061D02*
X039874Y023061D01*
X039875Y023060D02*
X039157Y023060D01*
X039156Y023059D02*
X039875Y023059D01*
X039876Y023058D02*
X039156Y023058D01*
X039155Y023057D02*
X039876Y023057D01*
X039877Y023056D02*
X039155Y023056D01*
X039154Y023055D02*
X039877Y023055D01*
X039878Y023054D02*
X039154Y023054D01*
X039153Y023053D02*
X039878Y023053D01*
X039879Y023052D02*
X039153Y023052D01*
X039152Y023051D02*
X039879Y023051D01*
X039880Y023050D02*
X039152Y023050D01*
X039151Y023049D02*
X039880Y023049D01*
X039881Y023048D02*
X039151Y023048D01*
X039150Y023047D02*
X039881Y023047D01*
X039882Y023046D02*
X039150Y023046D01*
X039149Y023045D02*
X039882Y023045D01*
X039883Y023044D02*
X039149Y023044D01*
X039149Y023043D02*
X039883Y023043D01*
X039883Y023042D02*
X039148Y023042D01*
X039148Y023041D02*
X039884Y023041D01*
X039884Y023040D02*
X039148Y023040D01*
X039147Y023039D02*
X039884Y023039D01*
X039884Y023038D02*
X039147Y023038D01*
X039147Y023037D02*
X039885Y023037D01*
X039885Y023036D02*
X039147Y023036D01*
X039146Y023035D02*
X039885Y023035D01*
X039886Y023034D02*
X039146Y023034D01*
X039146Y023033D02*
X039886Y023033D01*
X039886Y023032D02*
X039145Y023032D01*
X039145Y023031D02*
X039886Y023031D01*
X039887Y023030D02*
X039145Y023030D01*
X039145Y023029D02*
X039887Y023029D01*
X039887Y023028D02*
X039144Y023028D01*
X039144Y023027D02*
X039888Y023027D01*
X039888Y023026D02*
X039144Y023026D01*
X039143Y023025D02*
X039888Y023025D01*
X039888Y023024D02*
X039143Y023024D01*
X039143Y023023D02*
X039889Y023023D01*
X039889Y023022D02*
X039143Y023022D01*
X039142Y023021D02*
X039889Y023021D01*
X039890Y023020D02*
X039142Y023020D01*
X039142Y023019D02*
X039890Y023019D01*
X039890Y023018D02*
X039141Y023018D01*
X039141Y023017D02*
X039890Y023017D01*
X039891Y023016D02*
X039141Y023016D01*
X039141Y023015D02*
X039891Y023015D01*
X039891Y023014D02*
X039140Y023014D01*
X039140Y023013D02*
X039891Y023013D01*
X039892Y023012D02*
X039140Y023012D01*
X039139Y023011D02*
X039892Y023011D01*
X039892Y023010D02*
X039139Y023010D01*
X039139Y023009D02*
X039893Y023009D01*
X039893Y023008D02*
X039139Y023008D01*
X039138Y023007D02*
X039893Y023007D01*
X039893Y023006D02*
X039138Y023006D01*
X039138Y023005D02*
X039894Y023005D01*
X039894Y023004D02*
X039137Y023004D01*
X039137Y023003D02*
X039894Y023003D01*
X039895Y023002D02*
X039137Y023002D01*
X039137Y023001D02*
X039895Y023001D01*
X039895Y023000D02*
X039136Y023000D01*
X039136Y022999D02*
X039895Y022999D01*
X039896Y022998D02*
X039136Y022998D01*
X039135Y022997D02*
X039896Y022997D01*
X039896Y022996D02*
X039135Y022996D01*
X039135Y022995D02*
X039897Y022995D01*
X039897Y022994D02*
X039135Y022994D01*
X039134Y022993D02*
X039897Y022993D01*
X039897Y022992D02*
X039134Y022992D01*
X039134Y022991D02*
X039898Y022991D01*
X039898Y022990D02*
X039133Y022990D01*
X039133Y022989D02*
X039898Y022989D01*
X039899Y022988D02*
X039133Y022988D01*
X039899Y022988D01*
X039899Y022987D02*
X039132Y022987D01*
X039132Y022986D02*
X039899Y022986D01*
X039900Y022985D02*
X039132Y022985D01*
X039131Y022984D02*
X039900Y022984D01*
X039900Y022983D02*
X039131Y022983D01*
X039131Y022982D02*
X039901Y022982D01*
X039901Y022981D02*
X039131Y022981D01*
X039130Y022980D02*
X039901Y022980D01*
X039901Y022979D02*
X039130Y022979D01*
X039130Y022978D02*
X039902Y022978D01*
X039902Y022977D02*
X039129Y022977D01*
X039129Y022976D02*
X039902Y022976D01*
X039903Y022975D02*
X039129Y022975D01*
X039129Y022974D02*
X039903Y022974D01*
X039903Y022973D02*
X039129Y022973D01*
X039129Y022972D02*
X039903Y022972D01*
X039903Y022971D02*
X039128Y022971D01*
X039128Y022970D02*
X039903Y022970D01*
X039903Y022969D02*
X039128Y022969D01*
X039128Y022968D02*
X039903Y022968D01*
X039903Y022967D02*
X039128Y022967D01*
X039128Y022966D02*
X039904Y022966D01*
X039904Y022965D02*
X039128Y022965D01*
X039128Y022964D02*
X039904Y022964D01*
X039904Y022963D02*
X039128Y022963D01*
X039128Y022962D02*
X039904Y022962D01*
X039904Y022961D02*
X039128Y022961D01*
X039127Y022960D02*
X039904Y022960D01*
X039904Y022959D02*
X039127Y022959D01*
X039127Y022958D02*
X039904Y022958D01*
X039904Y022957D02*
X039127Y022957D01*
X039127Y022956D02*
X039904Y022956D01*
X039905Y022955D02*
X039127Y022955D01*
X039127Y022954D02*
X039905Y022954D01*
X039905Y022953D02*
X039127Y022953D01*
X039127Y022952D02*
X039905Y022952D01*
X039905Y022951D02*
X039127Y022951D01*
X039126Y022950D02*
X039905Y022950D01*
X039905Y022949D02*
X039126Y022949D01*
X039126Y022948D02*
X039905Y022948D01*
X039905Y022947D02*
X039126Y022947D01*
X039126Y022946D02*
X039905Y022946D01*
X039905Y022945D02*
X039126Y022945D01*
X039126Y022944D02*
X039906Y022944D01*
X039906Y022943D02*
X039126Y022943D01*
X039126Y022942D02*
X039906Y022942D01*
X039906Y022941D02*
X039126Y022941D01*
X039126Y022940D02*
X039906Y022940D01*
X039906Y022939D02*
X039125Y022939D01*
X039125Y022938D02*
X039906Y022938D01*
X039906Y022937D02*
X039125Y022937D01*
X039125Y022936D02*
X039906Y022936D01*
X039906Y022935D02*
X039125Y022935D01*
X039125Y022934D02*
X039906Y022934D01*
X039907Y022933D02*
X039125Y022933D01*
X039125Y022932D02*
X039907Y022932D01*
X039907Y022931D02*
X039125Y022931D01*
X039125Y022930D02*
X039907Y022930D01*
X039907Y022929D02*
X039125Y022929D01*
X039124Y022928D02*
X039907Y022928D01*
X039907Y022927D02*
X039124Y022927D01*
X039124Y022926D02*
X039907Y022926D01*
X039907Y022925D02*
X039124Y022925D01*
X039124Y022924D02*
X039907Y022924D01*
X039908Y022923D02*
X039124Y022923D01*
X039124Y022922D02*
X039908Y022922D01*
X039908Y022921D02*
X039124Y022921D01*
X039124Y022920D02*
X039908Y022920D01*
X039908Y022919D02*
X039124Y022919D01*
X039124Y022918D02*
X039908Y022918D01*
X039908Y022917D02*
X039123Y022917D01*
X039123Y022916D02*
X039908Y022916D01*
X039908Y022915D02*
X039123Y022915D01*
X039123Y022914D02*
X039908Y022914D01*
X039908Y022913D02*
X039123Y022913D01*
X039123Y022912D02*
X039909Y022912D01*
X039909Y022911D02*
X039123Y022911D01*
X039123Y022910D02*
X039909Y022910D01*
X039909Y022909D02*
X039123Y022909D01*
X039123Y022908D02*
X039909Y022908D01*
X039909Y022907D02*
X039123Y022907D01*
X039122Y022906D02*
X039909Y022906D01*
X039909Y022905D02*
X039122Y022905D01*
X039122Y022904D02*
X039909Y022904D01*
X039909Y022903D02*
X039122Y022903D01*
X039122Y022902D02*
X039909Y022902D01*
X039909Y022901D02*
X039122Y022901D01*
X039122Y022900D02*
X039909Y022900D01*
X039909Y022899D02*
X039122Y022899D01*
X039122Y022898D02*
X039909Y022898D01*
X039909Y022897D02*
X039123Y022897D01*
X039123Y022896D02*
X039909Y022896D01*
X039909Y022895D02*
X039123Y022895D01*
X039123Y022894D02*
X039909Y022894D01*
X039909Y022893D02*
X039123Y022893D01*
X039123Y022892D02*
X039909Y022892D01*
X039908Y022891D02*
X039123Y022891D01*
X039123Y022890D02*
X039908Y022890D01*
X039908Y022889D02*
X039123Y022889D01*
X039123Y022888D02*
X039908Y022888D01*
X039908Y022887D02*
X039123Y022887D01*
X039124Y022886D02*
X039908Y022886D01*
X039908Y022885D02*
X039124Y022885D01*
X039124Y022884D02*
X039908Y022884D01*
X039908Y022883D02*
X039124Y022883D01*
X039124Y022882D02*
X039908Y022882D01*
X039908Y022881D02*
X039124Y022881D01*
X039124Y022880D02*
X039907Y022880D01*
X039907Y022879D02*
X039124Y022879D01*
X039124Y022878D02*
X039907Y022878D01*
X039907Y022877D02*
X039124Y022877D01*
X039124Y022876D02*
X039907Y022876D01*
X039907Y022875D02*
X039125Y022875D01*
X039125Y022874D02*
X039907Y022874D01*
X039907Y022873D02*
X039125Y022873D01*
X039125Y022872D02*
X039907Y022872D01*
X039907Y022871D02*
X039125Y022871D01*
X039125Y022870D02*
X039906Y022870D01*
X039906Y022869D02*
X039125Y022869D01*
X039125Y022868D02*
X039906Y022868D01*
X039906Y022867D02*
X039125Y022867D01*
X039125Y022866D02*
X039906Y022866D01*
X039906Y022865D02*
X039125Y022865D01*
X039126Y022864D02*
X039906Y022864D01*
X039906Y022863D02*
X039126Y022863D01*
X039126Y022862D02*
X039906Y022862D01*
X039906Y022861D02*
X039126Y022861D01*
X039126Y022860D02*
X039906Y022860D01*
X039905Y022859D02*
X039126Y022859D01*
X039126Y022858D02*
X039905Y022858D01*
X039905Y022857D02*
X039126Y022857D01*
X039126Y022856D02*
X039905Y022856D01*
X039905Y022855D02*
X039126Y022855D01*
X039126Y022854D02*
X039905Y022854D01*
X039905Y022853D02*
X039127Y022853D01*
X039127Y022852D02*
X039905Y022852D01*
X039905Y022851D02*
X039127Y022851D01*
X039127Y022850D02*
X039905Y022850D01*
X039905Y022849D02*
X039127Y022849D01*
X039127Y022848D02*
X039904Y022848D01*
X039904Y022847D02*
X039127Y022847D01*
X039127Y022846D02*
X039904Y022846D01*
X039904Y022845D02*
X039127Y022845D01*
X039127Y022844D02*
X039904Y022844D01*
X039904Y022843D02*
X039128Y022843D01*
X039128Y022842D02*
X039904Y022842D01*
X039904Y022841D02*
X039128Y022841D01*
X039128Y022840D02*
X039904Y022840D01*
X039904Y022839D02*
X039128Y022839D01*
X039128Y022838D02*
X039904Y022838D01*
X039903Y022837D02*
X039128Y022837D01*
X039128Y022836D02*
X039903Y022836D01*
X039903Y022835D02*
X039128Y022835D01*
X039128Y022834D02*
X039903Y022834D01*
X039903Y022833D02*
X039128Y022833D01*
X039129Y022832D02*
X039903Y022832D01*
X039903Y022831D02*
X039129Y022831D01*
X039129Y022830D02*
X039903Y022830D01*
X039903Y022829D02*
X039129Y022829D01*
X039129Y022828D02*
X039902Y022828D01*
X039902Y022827D02*
X039129Y022827D01*
X039130Y022826D02*
X039902Y022826D01*
X039901Y022825D02*
X039130Y022825D01*
X039130Y022824D02*
X039901Y022824D01*
X039901Y022823D02*
X039131Y022823D01*
X039131Y022822D02*
X039901Y022822D01*
X039900Y022821D02*
X039131Y022821D01*
X039131Y022820D02*
X039900Y022820D01*
X039900Y022819D02*
X039132Y022819D01*
X039132Y022818D02*
X039899Y022818D01*
X039899Y022817D02*
X039132Y022817D01*
X039133Y022816D02*
X039899Y022816D01*
X039899Y022815D02*
X039133Y022815D01*
X039133Y022814D02*
X039898Y022814D01*
X039898Y022813D02*
X039133Y022813D01*
X039134Y022812D02*
X039898Y022812D01*
X039897Y022811D02*
X039134Y022811D01*
X039134Y022810D02*
X039897Y022810D01*
X039897Y022809D02*
X039135Y022809D01*
X039135Y022808D02*
X039897Y022808D01*
X039896Y022807D02*
X039135Y022807D01*
X039135Y022806D02*
X039896Y022806D01*
X039896Y022805D02*
X039136Y022805D01*
X039136Y022804D02*
X039895Y022804D01*
X039895Y022803D02*
X039136Y022803D01*
X039137Y022802D02*
X039895Y022802D01*
X039895Y022801D02*
X039137Y022801D01*
X039137Y022800D02*
X039894Y022800D01*
X039894Y022799D02*
X039137Y022799D01*
X039138Y022798D02*
X039894Y022798D01*
X039893Y022797D02*
X039138Y022797D01*
X039138Y022796D02*
X039893Y022796D01*
X039893Y022795D02*
X039139Y022795D01*
X039139Y022794D02*
X039893Y022794D01*
X039892Y022793D02*
X039139Y022793D01*
X039139Y022792D02*
X039892Y022792D01*
X039892Y022791D02*
X039140Y022791D01*
X039140Y022790D02*
X039891Y022790D01*
X039891Y022789D02*
X039140Y022789D01*
X039141Y022788D02*
X039891Y022788D01*
X039891Y022787D02*
X039141Y022787D01*
X039141Y022786D02*
X039890Y022786D01*
X039890Y022785D02*
X039141Y022785D01*
X039142Y022784D02*
X039890Y022784D01*
X039890Y022783D02*
X039142Y022783D01*
X039142Y022782D02*
X039889Y022782D01*
X039889Y022781D02*
X039143Y022781D01*
X039143Y022780D02*
X039889Y022780D01*
X039888Y022779D02*
X039143Y022779D01*
X039143Y022778D02*
X039888Y022778D01*
X039888Y022777D02*
X039144Y022777D01*
X039144Y022776D02*
X039888Y022776D01*
X039887Y022775D02*
X039144Y022775D01*
X039145Y022774D02*
X039887Y022774D01*
X039887Y022773D02*
X039145Y022773D01*
X039145Y022772D02*
X039886Y022772D01*
X039886Y022771D02*
X039145Y022771D01*
X039146Y022770D02*
X039886Y022770D01*
X039886Y022769D02*
X039146Y022769D01*
X039146Y022768D02*
X039885Y022768D01*
X039885Y022767D02*
X039147Y022767D01*
X039147Y022766D02*
X039885Y022766D01*
X039884Y022765D02*
X039147Y022765D01*
X039147Y022764D02*
X039884Y022764D01*
X039884Y022763D02*
X039148Y022763D01*
X039148Y022762D02*
X039884Y022762D01*
X039883Y022761D02*
X039148Y022761D01*
X039149Y022760D02*
X039883Y022760D01*
X039883Y022759D02*
X039149Y022759D01*
X039149Y022758D02*
X039882Y022758D01*
X039882Y022757D02*
X039150Y022757D01*
X039150Y022756D02*
X039881Y022756D01*
X039881Y022755D02*
X039151Y022755D01*
X039151Y022754D02*
X039880Y022754D01*
X039880Y022753D02*
X039152Y022753D01*
X039152Y022752D02*
X039879Y022752D01*
X039879Y022751D02*
X039153Y022751D01*
X039153Y022750D02*
X039878Y022750D01*
X039878Y022749D02*
X039154Y022749D01*
X039154Y022748D02*
X039877Y022748D01*
X039877Y022747D02*
X039155Y022747D01*
X039155Y022746D02*
X039876Y022746D01*
X039876Y022745D02*
X039156Y022745D01*
X039156Y022744D02*
X039875Y022744D01*
X039875Y022743D02*
X039157Y022743D01*
X039157Y022742D02*
X039874Y022742D01*
X039874Y022741D02*
X039158Y022741D01*
X039158Y022740D02*
X039873Y022740D01*
X039873Y022739D02*
X039159Y022739D01*
X039159Y022738D02*
X039872Y022738D01*
X039872Y022737D02*
X039160Y022737D01*
X039160Y022736D02*
X039871Y022736D01*
X039871Y022735D02*
X039161Y022735D01*
X039161Y022734D02*
X039870Y022734D01*
X039870Y022733D02*
X039162Y022733D01*
X039162Y022732D02*
X039869Y022732D01*
X039869Y022731D02*
X039163Y022731D01*
X039163Y022730D02*
X039868Y022730D01*
X039868Y022729D02*
X039164Y022729D01*
X039164Y022728D02*
X039867Y022728D01*
X039867Y022727D02*
X039165Y022727D01*
X039165Y022726D02*
X039866Y022726D01*
X039866Y022725D02*
X039166Y022725D01*
X039166Y022724D02*
X039865Y022724D01*
X039865Y022723D02*
X039167Y022723D01*
X039167Y022722D02*
X039864Y022722D01*
X039864Y022721D02*
X039168Y022721D01*
X039168Y022720D02*
X039863Y022720D01*
X039863Y022719D02*
X039169Y022719D01*
X039169Y022718D02*
X039862Y022718D01*
X039862Y022717D02*
X039170Y022717D01*
X039170Y022716D02*
X039861Y022716D01*
X039861Y022715D02*
X039171Y022715D01*
X039171Y022714D02*
X039860Y022714D01*
X039860Y022713D02*
X039172Y022713D01*
X039172Y022712D02*
X039859Y022712D01*
X039859Y022711D02*
X039173Y022711D01*
X039173Y022710D02*
X039858Y022710D01*
X039858Y022709D02*
X039174Y022709D01*
X039174Y022708D02*
X039857Y022708D01*
X039857Y022707D02*
X039175Y022707D01*
X039175Y022706D02*
X039856Y022706D01*
X039856Y022705D02*
X039176Y022705D01*
X039176Y022704D02*
X039855Y022704D01*
X039855Y022703D02*
X039177Y022703D01*
X039177Y022702D02*
X039854Y022702D01*
X039854Y022701D02*
X039178Y022701D01*
X039178Y022700D02*
X039853Y022700D01*
X039853Y022699D02*
X039179Y022699D01*
X039179Y022698D02*
X039852Y022698D01*
X039852Y022697D02*
X039180Y022697D01*
X039180Y022696D02*
X039851Y022696D01*
X039851Y022695D02*
X039181Y022695D01*
X039181Y022694D02*
X039850Y022694D01*
X039849Y022693D02*
X039182Y022693D01*
X039183Y022692D02*
X039849Y022692D01*
X039848Y022691D02*
X039184Y022691D01*
X039184Y022690D02*
X039847Y022690D01*
X039846Y022689D02*
X039185Y022689D01*
X039186Y022688D02*
X039846Y022688D01*
X039845Y022687D02*
X039187Y022687D01*
X039187Y022686D02*
X039844Y022686D01*
X039843Y022685D02*
X039188Y022685D01*
X039189Y022684D02*
X039843Y022684D01*
X039842Y022683D02*
X039190Y022683D01*
X039190Y022682D02*
X039841Y022682D01*
X039840Y022681D02*
X039191Y022681D01*
X039192Y022680D02*
X039840Y022680D01*
X039839Y022679D02*
X039193Y022679D01*
X039193Y022678D02*
X039838Y022678D01*
X039837Y022677D02*
X039194Y022677D01*
X039195Y022676D02*
X039836Y022676D01*
X039836Y022675D02*
X039196Y022675D01*
X039197Y022674D02*
X039835Y022674D01*
X039834Y022673D02*
X039197Y022673D01*
X039198Y022672D02*
X039833Y022672D01*
X039833Y022671D02*
X039199Y022671D01*
X039200Y022670D02*
X039832Y022670D01*
X039831Y022669D02*
X039200Y022669D01*
X039201Y022668D02*
X039830Y022668D01*
X039830Y022667D02*
X039202Y022667D01*
X039203Y022666D02*
X039829Y022666D01*
X039828Y022665D02*
X039203Y022665D01*
X039204Y022664D02*
X039827Y022664D01*
X039827Y022663D02*
X039205Y022663D01*
X039206Y022662D02*
X039826Y022662D01*
X039825Y022661D02*
X039206Y022661D01*
X039207Y022660D02*
X039824Y022660D01*
X039824Y022659D02*
X039208Y022659D01*
X039209Y022658D02*
X039823Y022658D01*
X039822Y022657D02*
X039209Y022657D01*
X039210Y022656D02*
X039821Y022656D01*
X039821Y022655D02*
X039211Y022655D01*
X039212Y022654D02*
X039820Y022654D01*
X039819Y022653D02*
X039212Y022653D01*
X039213Y022652D02*
X039818Y022652D01*
X039818Y022651D02*
X039214Y022651D01*
X039215Y022650D02*
X039817Y022650D01*
X039816Y022649D02*
X039215Y022649D01*
X039216Y022648D02*
X039815Y022648D01*
X039815Y022647D02*
X039217Y022647D01*
X039218Y022646D02*
X039814Y022646D01*
X039813Y022645D02*
X039218Y022645D01*
X039219Y022644D02*
X039812Y022644D01*
X039812Y022643D02*
X039220Y022643D01*
X039221Y022642D02*
X039811Y022642D01*
X039810Y022641D02*
X039221Y022641D01*
X039222Y022640D02*
X039809Y022640D01*
X039809Y022639D02*
X039223Y022639D01*
X039224Y022638D02*
X039808Y022638D01*
X039807Y022637D02*
X039224Y022637D01*
X039225Y022636D02*
X039806Y022636D01*
X039805Y022635D02*
X039226Y022635D01*
X039228Y022634D02*
X039804Y022634D01*
X039803Y022633D02*
X039229Y022633D01*
X039230Y022632D02*
X039802Y022632D01*
X039801Y022631D02*
X039231Y022631D01*
X039232Y022630D02*
X039800Y022630D01*
X039798Y022629D02*
X039233Y022629D01*
X039234Y022628D02*
X039797Y022628D01*
X039796Y022627D02*
X039235Y022627D01*
X039236Y022626D02*
X039795Y022626D01*
X039794Y022625D02*
X039237Y022625D01*
X039238Y022624D02*
X039793Y022624D01*
X039792Y022623D02*
X039240Y022623D01*
X039241Y022622D02*
X039791Y022622D01*
X039790Y022621D02*
X039242Y022621D01*
X039243Y022620D02*
X039789Y022620D01*
X039788Y022619D02*
X039244Y022619D01*
X039245Y022618D02*
X039786Y022618D01*
X039785Y022617D02*
X039246Y022617D01*
X039247Y022616D02*
X039784Y022616D01*
X039783Y022615D02*
X039248Y022615D01*
X039249Y022614D02*
X039782Y022614D01*
X039781Y022613D02*
X039251Y022613D01*
X039252Y022612D02*
X039780Y022612D01*
X039779Y022611D02*
X039253Y022611D01*
X039254Y022610D02*
X039778Y022610D01*
X039777Y022609D02*
X039255Y022609D01*
X039256Y022608D02*
X039775Y022608D01*
X039774Y022607D02*
X039257Y022607D01*
X039258Y022606D02*
X039773Y022606D01*
X039772Y022605D02*
X039259Y022605D01*
X039260Y022604D02*
X039771Y022604D01*
X039770Y022603D02*
X039262Y022603D01*
X039263Y022602D02*
X039769Y022602D01*
X039768Y022601D02*
X039264Y022601D01*
X039265Y022600D02*
X039767Y022600D01*
X039766Y022599D02*
X039266Y022599D01*
X039267Y022598D02*
X039765Y022598D01*
X039763Y022597D02*
X039268Y022597D01*
X039269Y022596D02*
X039762Y022596D01*
X039761Y022595D02*
X039270Y022595D01*
X039271Y022594D02*
X039760Y022594D01*
X039759Y022593D02*
X039272Y022593D01*
X039274Y022592D02*
X039758Y022592D01*
X039757Y022591D02*
X039275Y022591D01*
X039276Y022590D02*
X039756Y022590D01*
X039755Y022589D02*
X039277Y022589D01*
X039278Y022588D02*
X039754Y022588D01*
X039752Y022587D02*
X039279Y022587D01*
X039281Y022586D02*
X039751Y022586D01*
X039749Y022585D02*
X039283Y022585D01*
X039284Y022584D02*
X039747Y022584D01*
X039746Y022583D02*
X039286Y022583D01*
X039287Y022582D02*
X039744Y022582D01*
X039743Y022581D02*
X039289Y022581D01*
X039291Y022580D02*
X039741Y022580D01*
X039739Y022579D02*
X039292Y022579D01*
X039294Y022578D02*
X039738Y022578D01*
X039736Y022577D02*
X039295Y022577D01*
X039297Y022576D02*
X039734Y022576D01*
X039733Y022575D02*
X039299Y022575D01*
X039300Y022574D02*
X039731Y022574D01*
X039730Y022573D02*
X039302Y022573D01*
X039303Y022572D02*
X039728Y022572D01*
X039726Y022571D02*
X039305Y022571D01*
X039307Y022570D02*
X039725Y022570D01*
X039723Y022569D02*
X039308Y022569D01*
X039310Y022568D02*
X039722Y022568D01*
X039720Y022567D02*
X039312Y022567D01*
X039313Y022566D02*
X039718Y022566D01*
X039717Y022565D02*
X039315Y022565D01*
X039316Y022564D02*
X039715Y022564D01*
X039713Y022563D02*
X039318Y022563D01*
X039320Y022562D02*
X039712Y022562D01*
X039710Y022561D02*
X039321Y022561D01*
X039323Y022560D02*
X039709Y022560D01*
X039707Y022559D02*
X039324Y022559D01*
X039326Y022558D02*
X039705Y022558D01*
X039704Y022557D02*
X039328Y022557D01*
X039329Y022556D02*
X039702Y022556D01*
X039701Y022555D02*
X039331Y022555D01*
X039333Y022554D02*
X039699Y022554D01*
X039697Y022553D02*
X039334Y022553D01*
X039336Y022552D02*
X039696Y022552D01*
X039694Y022551D02*
X039337Y022551D01*
X039339Y022550D02*
X039692Y022550D01*
X039691Y022549D02*
X039341Y022549D01*
X039343Y022548D02*
X039688Y022548D01*
X039686Y022547D02*
X039346Y022547D01*
X039349Y022546D02*
X039683Y022546D01*
X039680Y022545D02*
X039351Y022545D01*
X039354Y022544D02*
X039678Y022544D01*
X039675Y022543D02*
X039356Y022543D01*
X039359Y022542D02*
X039673Y022542D01*
X039670Y022541D02*
X039361Y022541D01*
X039364Y022540D02*
X039667Y022540D01*
X039665Y022539D02*
X039367Y022539D01*
X039369Y022538D02*
X039662Y022538D01*
X039660Y022537D02*
X039372Y022537D01*
X039374Y022536D02*
X039657Y022536D01*
X039655Y022535D02*
X039377Y022535D01*
X039380Y022534D02*
X039652Y022534D01*
X039649Y022533D02*
X039382Y022533D01*
X039385Y022532D02*
X039647Y022532D01*
X039644Y022531D02*
X039387Y022531D01*
X039390Y022530D02*
X039642Y022530D01*
X039639Y022529D02*
X039392Y022529D01*
X039395Y022528D02*
X039637Y022528D01*
X039634Y022527D02*
X039398Y022527D01*
X039400Y022526D02*
X039631Y022526D01*
X039629Y022525D02*
X039403Y022525D01*
X039405Y022524D02*
X039626Y022524D01*
X039624Y022523D02*
X039408Y022523D01*
X039413Y022522D02*
X039618Y022522D01*
X039613Y022521D02*
X039418Y022521D01*
X039424Y022520D02*
X039608Y022520D01*
X039602Y022519D02*
X039429Y022519D01*
X039434Y022518D02*
X039597Y022518D01*
X039592Y022517D02*
X039440Y022517D01*
X039445Y022516D02*
X039586Y022516D01*
X039581Y022515D02*
X039450Y022515D01*
X039456Y022514D02*
X039576Y022514D01*
X039570Y022513D02*
X039461Y022513D01*
X039467Y022512D02*
X039565Y022512D01*
X039560Y022511D02*
X039472Y022511D01*
X039477Y022510D02*
X039554Y022510D01*
X039805Y023168D02*
X039226Y023168D01*
X039228Y023169D02*
X039804Y023169D01*
X039803Y023170D02*
X039229Y023170D01*
X039230Y023171D02*
X039802Y023171D01*
X039801Y023172D02*
X039231Y023172D01*
X039232Y023173D02*
X039800Y023173D01*
X039798Y023174D02*
X039233Y023174D01*
X039234Y023175D02*
X039797Y023175D01*
X039796Y023176D02*
X039235Y023176D01*
X039236Y023177D02*
X039795Y023177D01*
X039794Y023178D02*
X039237Y023178D01*
X039239Y023179D02*
X039793Y023179D01*
X039792Y023180D02*
X039240Y023180D01*
X039241Y023181D02*
X039791Y023181D01*
X039790Y023182D02*
X039242Y023182D01*
X039243Y023183D02*
X039789Y023183D01*
X039788Y023184D02*
X039244Y023184D01*
X039245Y023185D02*
X039786Y023185D01*
X039785Y023186D02*
X039246Y023186D01*
X039247Y023187D02*
X039784Y023187D01*
X039783Y023188D02*
X039248Y023188D01*
X039249Y023189D02*
X039782Y023189D01*
X039781Y023190D02*
X039251Y023190D01*
X039252Y023191D02*
X039780Y023191D01*
X039779Y023192D02*
X039253Y023192D01*
X039254Y023193D02*
X039778Y023193D01*
X039777Y023194D02*
X039255Y023194D01*
X039256Y023195D02*
X039775Y023195D01*
X039774Y023196D02*
X039257Y023196D01*
X039258Y023197D02*
X039773Y023197D01*
X039772Y023198D02*
X039259Y023198D01*
X039260Y023199D02*
X039771Y023199D01*
X039770Y023200D02*
X039262Y023200D01*
X039263Y023201D02*
X039769Y023201D01*
X039768Y023202D02*
X039264Y023202D01*
X039265Y023203D02*
X039767Y023203D01*
X039766Y023204D02*
X039266Y023204D01*
X039267Y023205D02*
X039764Y023205D01*
X039763Y023206D02*
X039268Y023206D01*
X039269Y023207D02*
X039762Y023207D01*
X039761Y023208D02*
X039270Y023208D01*
X039271Y023209D02*
X039760Y023209D01*
X039759Y023210D02*
X039272Y023210D01*
X039274Y023211D02*
X039758Y023211D01*
X039757Y023212D02*
X039275Y023212D01*
X039276Y023213D02*
X039756Y023213D01*
X039755Y023214D02*
X039277Y023214D01*
X039278Y023215D02*
X039754Y023215D01*
X039752Y023216D02*
X039279Y023216D01*
X039281Y023217D02*
X039751Y023217D01*
X039749Y023218D02*
X039283Y023218D01*
X039284Y023219D02*
X039747Y023219D01*
X039746Y023220D02*
X039286Y023220D01*
X039287Y023221D02*
X039744Y023221D01*
X039742Y023222D02*
X039289Y023222D01*
X039291Y023223D02*
X039741Y023223D01*
X039739Y023224D02*
X039292Y023224D01*
X039294Y023225D02*
X039738Y023225D01*
X039736Y023226D02*
X039295Y023226D01*
X039297Y023227D02*
X039734Y023227D01*
X039733Y023228D02*
X039299Y023228D01*
X039300Y023229D02*
X039731Y023229D01*
X039730Y023230D02*
X039302Y023230D01*
X039304Y023231D02*
X039728Y023231D01*
X039726Y023232D02*
X039305Y023232D01*
X039307Y023233D02*
X039725Y023233D01*
X039723Y023234D02*
X039308Y023234D01*
X039310Y023235D02*
X039722Y023235D01*
X039720Y023236D02*
X039312Y023236D01*
X039313Y023237D02*
X039718Y023237D01*
X039717Y023238D02*
X039315Y023238D01*
X039316Y023239D02*
X039715Y023239D01*
X039713Y023240D02*
X039318Y023240D01*
X039320Y023241D02*
X039712Y023241D01*
X039710Y023242D02*
X039321Y023242D01*
X039323Y023243D02*
X039709Y023243D01*
X039707Y023244D02*
X039325Y023244D01*
X039326Y023245D02*
X039705Y023245D01*
X039704Y023246D02*
X039328Y023246D01*
X039329Y023247D02*
X039702Y023247D01*
X039701Y023248D02*
X039331Y023248D01*
X039333Y023249D02*
X039699Y023249D01*
X039697Y023250D02*
X039334Y023250D01*
X039336Y023251D02*
X039696Y023251D01*
X039694Y023252D02*
X039337Y023252D01*
X039339Y023253D02*
X039692Y023253D01*
X039691Y023254D02*
X039341Y023254D01*
X039343Y023255D02*
X039688Y023255D01*
X039685Y023256D02*
X039346Y023256D01*
X039349Y023257D02*
X039683Y023257D01*
X039680Y023258D02*
X039351Y023258D01*
X039354Y023259D02*
X039678Y023259D01*
X039675Y023260D02*
X039356Y023260D01*
X039359Y023261D02*
X039673Y023261D01*
X039670Y023262D02*
X039362Y023262D01*
X039364Y023263D02*
X039667Y023263D01*
X039665Y023264D02*
X039367Y023264D01*
X039369Y023265D02*
X039662Y023265D01*
X039660Y023266D02*
X039372Y023266D01*
X039374Y023267D02*
X039657Y023267D01*
X039655Y023268D02*
X039377Y023268D01*
X039380Y023269D02*
X039652Y023269D01*
X039649Y023270D02*
X039382Y023270D01*
X039385Y023271D02*
X039647Y023271D01*
X039644Y023272D02*
X039387Y023272D01*
X039390Y023273D02*
X039642Y023273D01*
X039639Y023274D02*
X039392Y023274D01*
X039395Y023275D02*
X039636Y023275D01*
X039634Y023276D02*
X039398Y023276D01*
X039400Y023277D02*
X039631Y023277D01*
X039629Y023278D02*
X039403Y023278D01*
X039405Y023279D02*
X039626Y023279D01*
X039624Y023280D02*
X039408Y023280D01*
X039413Y023281D02*
X039618Y023281D01*
X039613Y023282D02*
X039419Y023282D01*
X039424Y023283D02*
X039608Y023283D01*
X039602Y023284D02*
X039429Y023284D01*
X039435Y023285D02*
X039597Y023285D01*
X039592Y023286D02*
X039440Y023286D01*
X039445Y023287D02*
X039586Y023287D01*
X039581Y023288D02*
X039451Y023288D01*
X039456Y023289D02*
X039576Y023289D01*
X039570Y023290D02*
X039461Y023290D01*
X039467Y023291D02*
X039565Y023291D01*
X039560Y023292D02*
X039472Y023292D01*
X039477Y023293D02*
X039554Y023293D01*
D18*
X038117Y028897D02*
X038117Y029449D01*
X038117Y028897D02*
X038041Y028897D01*
X038041Y029449D01*
X038117Y029449D01*
X038117Y028971D02*
X038041Y028971D01*
X038041Y029045D02*
X038117Y029045D01*
X038117Y029119D02*
X038041Y029119D01*
X038041Y029193D02*
X038117Y029193D01*
X038117Y029267D02*
X038041Y029267D01*
X038041Y029341D02*
X038117Y029341D01*
X038117Y029415D02*
X038041Y029415D01*
X037920Y029449D02*
X037920Y028897D01*
X037844Y028897D01*
X037844Y029449D01*
X037920Y029449D01*
X037920Y028971D02*
X037844Y028971D01*
X037844Y029045D02*
X037920Y029045D01*
X037920Y029119D02*
X037844Y029119D01*
X037844Y029193D02*
X037920Y029193D01*
X037920Y029267D02*
X037844Y029267D01*
X037844Y029341D02*
X037920Y029341D01*
X037920Y029415D02*
X037844Y029415D01*
X037723Y029449D02*
X037723Y028897D01*
X037647Y028897D01*
X037647Y029449D01*
X037723Y029449D01*
X037723Y028971D02*
X037647Y028971D01*
X037647Y029045D02*
X037723Y029045D01*
X037723Y029119D02*
X037647Y029119D01*
X037647Y029193D02*
X037723Y029193D01*
X037723Y029267D02*
X037647Y029267D01*
X037647Y029341D02*
X037723Y029341D01*
X037723Y029415D02*
X037647Y029415D01*
X037526Y029449D02*
X037526Y028897D01*
X037450Y028897D01*
X037450Y029449D01*
X037526Y029449D01*
X037526Y028971D02*
X037450Y028971D01*
X037450Y029045D02*
X037526Y029045D01*
X037526Y029119D02*
X037450Y029119D01*
X037450Y029193D02*
X037526Y029193D01*
X037526Y029267D02*
X037450Y029267D01*
X037450Y029341D02*
X037526Y029341D01*
X037526Y029415D02*
X037450Y029415D01*
X037329Y029449D02*
X037329Y028897D01*
X037253Y028897D01*
X037253Y029449D01*
X037329Y029449D01*
X037329Y028971D02*
X037253Y028971D01*
X037253Y029045D02*
X037329Y029045D01*
X037329Y029119D02*
X037253Y029119D01*
X037253Y029193D02*
X037329Y029193D01*
X037329Y029267D02*
X037253Y029267D01*
X037253Y029341D02*
X037329Y029341D01*
X037329Y029415D02*
X037253Y029415D01*
X037132Y029449D02*
X037132Y028897D01*
X037056Y028897D01*
X037056Y029449D01*
X037132Y029449D01*
X037132Y028971D02*
X037056Y028971D01*
X037056Y029045D02*
X037132Y029045D01*
X037132Y029119D02*
X037056Y029119D01*
X037056Y029193D02*
X037132Y029193D01*
X037132Y029267D02*
X037056Y029267D01*
X037056Y029341D02*
X037132Y029341D01*
X037132Y029415D02*
X037056Y029415D01*
X036936Y029449D02*
X036936Y028897D01*
X036860Y028897D01*
X036860Y029449D01*
X036936Y029449D01*
X036936Y028971D02*
X036860Y028971D01*
X036860Y029045D02*
X036936Y029045D01*
X036936Y029119D02*
X036860Y029119D01*
X036860Y029193D02*
X036936Y029193D01*
X036936Y029267D02*
X036860Y029267D01*
X036860Y029341D02*
X036936Y029341D01*
X036936Y029415D02*
X036860Y029415D01*
X036739Y029449D02*
X036739Y028897D01*
X036663Y028897D01*
X036663Y029449D01*
X036739Y029449D01*
X036739Y028971D02*
X036663Y028971D01*
X036663Y029045D02*
X036739Y029045D01*
X036739Y029119D02*
X036663Y029119D01*
X036663Y029193D02*
X036739Y029193D01*
X036739Y029267D02*
X036663Y029267D01*
X036663Y029341D02*
X036739Y029341D01*
X036739Y029415D02*
X036663Y029415D01*
X036542Y029449D02*
X036542Y028897D01*
X036466Y028897D01*
X036466Y029449D01*
X036542Y029449D01*
X036542Y028971D02*
X036466Y028971D01*
X036466Y029045D02*
X036542Y029045D01*
X036542Y029119D02*
X036466Y029119D01*
X036466Y029193D02*
X036542Y029193D01*
X036542Y029267D02*
X036466Y029267D01*
X036466Y029341D02*
X036542Y029341D01*
X036542Y029415D02*
X036466Y029415D01*
X036345Y029449D02*
X036345Y028897D01*
X036269Y028897D01*
X036269Y029449D01*
X036345Y029449D01*
X036345Y028971D02*
X036269Y028971D01*
X036269Y029045D02*
X036345Y029045D01*
X036345Y029119D02*
X036269Y029119D01*
X036269Y029193D02*
X036345Y029193D01*
X036345Y029267D02*
X036269Y029267D01*
X036269Y029341D02*
X036345Y029341D01*
X036345Y029415D02*
X036269Y029415D01*
X036148Y029449D02*
X036148Y028897D01*
X036072Y028897D01*
X036072Y029449D01*
X036148Y029449D01*
X036148Y028971D02*
X036072Y028971D01*
X036072Y029045D02*
X036148Y029045D01*
X036148Y029119D02*
X036072Y029119D01*
X036072Y029193D02*
X036148Y029193D01*
X036148Y029267D02*
X036072Y029267D01*
X036072Y029341D02*
X036148Y029341D01*
X036148Y029415D02*
X036072Y029415D01*
X035951Y029449D02*
X035951Y028897D01*
X035875Y028897D01*
X035875Y029449D01*
X035951Y029449D01*
X035951Y028971D02*
X035875Y028971D01*
X035875Y029045D02*
X035951Y029045D01*
X035951Y029119D02*
X035875Y029119D01*
X035875Y029193D02*
X035951Y029193D01*
X035951Y029267D02*
X035875Y029267D01*
X035875Y029341D02*
X035951Y029341D01*
X035951Y029415D02*
X035875Y029415D01*
X035755Y029449D02*
X035755Y028897D01*
X035679Y028897D01*
X035679Y029449D01*
X035755Y029449D01*
X035755Y028971D02*
X035679Y028971D01*
X035679Y029045D02*
X035755Y029045D01*
X035755Y029119D02*
X035679Y029119D01*
X035679Y029193D02*
X035755Y029193D01*
X035755Y029267D02*
X035679Y029267D01*
X035679Y029341D02*
X035755Y029341D01*
X035755Y029415D02*
X035679Y029415D01*
X035558Y029449D02*
X035558Y028897D01*
X035482Y028897D01*
X035482Y029449D01*
X035558Y029449D01*
X035558Y028971D02*
X035482Y028971D01*
X035482Y029045D02*
X035558Y029045D01*
X035558Y029119D02*
X035482Y029119D01*
X035482Y029193D02*
X035558Y029193D01*
X035558Y029267D02*
X035482Y029267D01*
X035482Y029341D02*
X035558Y029341D01*
X035558Y029415D02*
X035482Y029415D01*
X035361Y029449D02*
X035361Y028897D01*
X035285Y028897D01*
X035285Y029449D01*
X035361Y029449D01*
X035361Y028971D02*
X035285Y028971D01*
X035285Y029045D02*
X035361Y029045D01*
X035361Y029119D02*
X035285Y029119D01*
X035285Y029193D02*
X035361Y029193D01*
X035361Y029267D02*
X035285Y029267D01*
X035285Y029341D02*
X035361Y029341D01*
X035361Y029415D02*
X035285Y029415D01*
X035164Y029449D02*
X035164Y028897D01*
X035088Y028897D01*
X035088Y029449D01*
X035164Y029449D01*
X035164Y028971D02*
X035088Y028971D01*
X035088Y029045D02*
X035164Y029045D01*
X035164Y029119D02*
X035088Y029119D01*
X035088Y029193D02*
X035164Y029193D01*
X035164Y029267D02*
X035088Y029267D01*
X035088Y029341D02*
X035164Y029341D01*
X035164Y029415D02*
X035088Y029415D01*
X034646Y029967D02*
X034094Y029967D01*
X034646Y029967D02*
X034646Y029891D01*
X034094Y029891D01*
X034094Y029967D01*
X034094Y029965D02*
X034646Y029965D01*
X034646Y030164D02*
X034094Y030164D01*
X034646Y030164D02*
X034646Y030088D01*
X034094Y030088D01*
X034094Y030164D01*
X034094Y030162D02*
X034646Y030162D01*
X034646Y030361D02*
X034094Y030361D01*
X034646Y030361D02*
X034646Y030285D01*
X034094Y030285D01*
X034094Y030361D01*
X034094Y030359D02*
X034646Y030359D01*
X034646Y030558D02*
X034094Y030558D01*
X034646Y030558D02*
X034646Y030482D01*
X034094Y030482D01*
X034094Y030558D01*
X034094Y030556D02*
X034646Y030556D01*
X034646Y030755D02*
X034094Y030755D01*
X034646Y030755D02*
X034646Y030679D01*
X034094Y030679D01*
X034094Y030755D01*
X034094Y030753D02*
X034646Y030753D01*
X034646Y030951D02*
X034094Y030951D01*
X034646Y030951D02*
X034646Y030875D01*
X034094Y030875D01*
X034094Y030951D01*
X034094Y030949D02*
X034646Y030949D01*
X034646Y031148D02*
X034094Y031148D01*
X034646Y031148D02*
X034646Y031072D01*
X034094Y031072D01*
X034094Y031148D01*
X034094Y031146D02*
X034646Y031146D01*
X034646Y031345D02*
X034094Y031345D01*
X034646Y031345D02*
X034646Y031269D01*
X034094Y031269D01*
X034094Y031345D01*
X034094Y031343D02*
X034646Y031343D01*
X034646Y031542D02*
X034094Y031542D01*
X034646Y031542D02*
X034646Y031466D01*
X034094Y031466D01*
X034094Y031542D01*
X034094Y031540D02*
X034646Y031540D01*
X034646Y031739D02*
X034094Y031739D01*
X034646Y031739D02*
X034646Y031663D01*
X034094Y031663D01*
X034094Y031739D01*
X034094Y031737D02*
X034646Y031737D01*
X034646Y031936D02*
X034094Y031936D01*
X034646Y031936D02*
X034646Y031860D01*
X034094Y031860D01*
X034094Y031936D01*
X034094Y031934D02*
X034646Y031934D01*
X034646Y032132D02*
X034094Y032132D01*
X034646Y032132D02*
X034646Y032056D01*
X034094Y032056D01*
X034094Y032132D01*
X034094Y032130D02*
X034646Y032130D01*
X034646Y032329D02*
X034094Y032329D01*
X034646Y032329D02*
X034646Y032253D01*
X034094Y032253D01*
X034094Y032329D01*
X034094Y032327D02*
X034646Y032327D01*
X034646Y032526D02*
X034094Y032526D01*
X034646Y032526D02*
X034646Y032450D01*
X034094Y032450D01*
X034094Y032526D01*
X034094Y032524D02*
X034646Y032524D01*
X034646Y032723D02*
X034094Y032723D01*
X034646Y032723D02*
X034646Y032647D01*
X034094Y032647D01*
X034094Y032723D01*
X034094Y032721D02*
X034646Y032721D01*
X034646Y032920D02*
X034094Y032920D01*
X034646Y032920D02*
X034646Y032844D01*
X034094Y032844D01*
X034094Y032920D01*
X034094Y032918D02*
X034646Y032918D01*
X035164Y033362D02*
X035164Y033914D01*
X035164Y033362D02*
X035088Y033362D01*
X035088Y033914D01*
X035164Y033914D01*
X035164Y033436D02*
X035088Y033436D01*
X035088Y033510D02*
X035164Y033510D01*
X035164Y033584D02*
X035088Y033584D01*
X035088Y033658D02*
X035164Y033658D01*
X035164Y033732D02*
X035088Y033732D01*
X035088Y033806D02*
X035164Y033806D01*
X035164Y033880D02*
X035088Y033880D01*
X035361Y033914D02*
X035361Y033362D01*
X035285Y033362D01*
X035285Y033914D01*
X035361Y033914D01*
X035361Y033436D02*
X035285Y033436D01*
X035285Y033510D02*
X035361Y033510D01*
X035361Y033584D02*
X035285Y033584D01*
X035285Y033658D02*
X035361Y033658D01*
X035361Y033732D02*
X035285Y033732D01*
X035285Y033806D02*
X035361Y033806D01*
X035361Y033880D02*
X035285Y033880D01*
X035558Y033914D02*
X035558Y033362D01*
X035482Y033362D01*
X035482Y033914D01*
X035558Y033914D01*
X035558Y033436D02*
X035482Y033436D01*
X035482Y033510D02*
X035558Y033510D01*
X035558Y033584D02*
X035482Y033584D01*
X035482Y033658D02*
X035558Y033658D01*
X035558Y033732D02*
X035482Y033732D01*
X035482Y033806D02*
X035558Y033806D01*
X035558Y033880D02*
X035482Y033880D01*
X035755Y033914D02*
X035755Y033362D01*
X035679Y033362D01*
X035679Y033914D01*
X035755Y033914D01*
X035755Y033436D02*
X035679Y033436D01*
X035679Y033510D02*
X035755Y033510D01*
X035755Y033584D02*
X035679Y033584D01*
X035679Y033658D02*
X035755Y033658D01*
X035755Y033732D02*
X035679Y033732D01*
X035679Y033806D02*
X035755Y033806D01*
X035755Y033880D02*
X035679Y033880D01*
X035951Y033914D02*
X035951Y033362D01*
X035875Y033362D01*
X035875Y033914D01*
X035951Y033914D01*
X035951Y033436D02*
X035875Y033436D01*
X035875Y033510D02*
X035951Y033510D01*
X035951Y033584D02*
X035875Y033584D01*
X035875Y033658D02*
X035951Y033658D01*
X035951Y033732D02*
X035875Y033732D01*
X035875Y033806D02*
X035951Y033806D01*
X035951Y033880D02*
X035875Y033880D01*
X036148Y033914D02*
X036148Y033362D01*
X036072Y033362D01*
X036072Y033914D01*
X036148Y033914D01*
X036148Y033436D02*
X036072Y033436D01*
X036072Y033510D02*
X036148Y033510D01*
X036148Y033584D02*
X036072Y033584D01*
X036072Y033658D02*
X036148Y033658D01*
X036148Y033732D02*
X036072Y033732D01*
X036072Y033806D02*
X036148Y033806D01*
X036148Y033880D02*
X036072Y033880D01*
X036345Y033914D02*
X036345Y033362D01*
X036269Y033362D01*
X036269Y033914D01*
X036345Y033914D01*
X036345Y033436D02*
X036269Y033436D01*
X036269Y033510D02*
X036345Y033510D01*
X036345Y033584D02*
X036269Y033584D01*
X036269Y033658D02*
X036345Y033658D01*
X036345Y033732D02*
X036269Y033732D01*
X036269Y033806D02*
X036345Y033806D01*
X036345Y033880D02*
X036269Y033880D01*
X036542Y033914D02*
X036542Y033362D01*
X036466Y033362D01*
X036466Y033914D01*
X036542Y033914D01*
X036542Y033436D02*
X036466Y033436D01*
X036466Y033510D02*
X036542Y033510D01*
X036542Y033584D02*
X036466Y033584D01*
X036466Y033658D02*
X036542Y033658D01*
X036542Y033732D02*
X036466Y033732D01*
X036466Y033806D02*
X036542Y033806D01*
X036542Y033880D02*
X036466Y033880D01*
X036739Y033914D02*
X036739Y033362D01*
X036663Y033362D01*
X036663Y033914D01*
X036739Y033914D01*
X036739Y033436D02*
X036663Y033436D01*
X036663Y033510D02*
X036739Y033510D01*
X036739Y033584D02*
X036663Y033584D01*
X036663Y033658D02*
X036739Y033658D01*
X036739Y033732D02*
X036663Y033732D01*
X036663Y033806D02*
X036739Y033806D01*
X036739Y033880D02*
X036663Y033880D01*
X036936Y033914D02*
X036936Y033362D01*
X036860Y033362D01*
X036860Y033914D01*
X036936Y033914D01*
X036936Y033436D02*
X036860Y033436D01*
X036860Y033510D02*
X036936Y033510D01*
X036936Y033584D02*
X036860Y033584D01*
X036860Y033658D02*
X036936Y033658D01*
X036936Y033732D02*
X036860Y033732D01*
X036860Y033806D02*
X036936Y033806D01*
X036936Y033880D02*
X036860Y033880D01*
X037132Y033914D02*
X037132Y033362D01*
X037056Y033362D01*
X037056Y033914D01*
X037132Y033914D01*
X037132Y033436D02*
X037056Y033436D01*
X037056Y033510D02*
X037132Y033510D01*
X037132Y033584D02*
X037056Y033584D01*
X037056Y033658D02*
X037132Y033658D01*
X037132Y033732D02*
X037056Y033732D01*
X037056Y033806D02*
X037132Y033806D01*
X037132Y033880D02*
X037056Y033880D01*
X037329Y033914D02*
X037329Y033362D01*
X037253Y033362D01*
X037253Y033914D01*
X037329Y033914D01*
X037329Y033436D02*
X037253Y033436D01*
X037253Y033510D02*
X037329Y033510D01*
X037329Y033584D02*
X037253Y033584D01*
X037253Y033658D02*
X037329Y033658D01*
X037329Y033732D02*
X037253Y033732D01*
X037253Y033806D02*
X037329Y033806D01*
X037329Y033880D02*
X037253Y033880D01*
X037526Y033914D02*
X037526Y033362D01*
X037450Y033362D01*
X037450Y033914D01*
X037526Y033914D01*
X037526Y033436D02*
X037450Y033436D01*
X037450Y033510D02*
X037526Y033510D01*
X037526Y033584D02*
X037450Y033584D01*
X037450Y033658D02*
X037526Y033658D01*
X037526Y033732D02*
X037450Y033732D01*
X037450Y033806D02*
X037526Y033806D01*
X037526Y033880D02*
X037450Y033880D01*
X037723Y033914D02*
X037723Y033362D01*
X037647Y033362D01*
X037647Y033914D01*
X037723Y033914D01*
X037723Y033436D02*
X037647Y033436D01*
X037647Y033510D02*
X037723Y033510D01*
X037723Y033584D02*
X037647Y033584D01*
X037647Y033658D02*
X037723Y033658D01*
X037723Y033732D02*
X037647Y033732D01*
X037647Y033806D02*
X037723Y033806D01*
X037723Y033880D02*
X037647Y033880D01*
X037920Y033914D02*
X037920Y033362D01*
X037844Y033362D01*
X037844Y033914D01*
X037920Y033914D01*
X037920Y033436D02*
X037844Y033436D01*
X037844Y033510D02*
X037920Y033510D01*
X037920Y033584D02*
X037844Y033584D01*
X037844Y033658D02*
X037920Y033658D01*
X037920Y033732D02*
X037844Y033732D01*
X037844Y033806D02*
X037920Y033806D01*
X037920Y033880D02*
X037844Y033880D01*
X038117Y033914D02*
X038117Y033362D01*
X038041Y033362D01*
X038041Y033914D01*
X038117Y033914D01*
X038117Y033436D02*
X038041Y033436D01*
X038041Y033510D02*
X038117Y033510D01*
X038117Y033584D02*
X038041Y033584D01*
X038041Y033658D02*
X038117Y033658D01*
X038117Y033732D02*
X038041Y033732D01*
X038041Y033806D02*
X038117Y033806D01*
X038117Y033880D02*
X038041Y033880D01*
X038559Y032920D02*
X039111Y032920D01*
X039111Y032844D01*
X038559Y032844D01*
X038559Y032920D01*
X038559Y032918D02*
X039111Y032918D01*
X039111Y032723D02*
X038559Y032723D01*
X039111Y032723D02*
X039111Y032647D01*
X038559Y032647D01*
X038559Y032723D01*
X038559Y032721D02*
X039111Y032721D01*
X039111Y032526D02*
X038559Y032526D01*
X039111Y032526D02*
X039111Y032450D01*
X038559Y032450D01*
X038559Y032526D01*
X038559Y032524D02*
X039111Y032524D01*
X039111Y032329D02*
X038559Y032329D01*
X039111Y032329D02*
X039111Y032253D01*
X038559Y032253D01*
X038559Y032329D01*
X038559Y032327D02*
X039111Y032327D01*
X039111Y032132D02*
X038559Y032132D01*
X039111Y032132D02*
X039111Y032056D01*
X038559Y032056D01*
X038559Y032132D01*
X038559Y032130D02*
X039111Y032130D01*
X039111Y031936D02*
X038559Y031936D01*
X039111Y031936D02*
X039111Y031860D01*
X038559Y031860D01*
X038559Y031936D01*
X038559Y031934D02*
X039111Y031934D01*
X039111Y031739D02*
X038559Y031739D01*
X039111Y031739D02*
X039111Y031663D01*
X038559Y031663D01*
X038559Y031739D01*
X038559Y031737D02*
X039111Y031737D01*
X039111Y031542D02*
X038559Y031542D01*
X039111Y031542D02*
X039111Y031466D01*
X038559Y031466D01*
X038559Y031542D01*
X038559Y031540D02*
X039111Y031540D01*
X039111Y031345D02*
X038559Y031345D01*
X039111Y031345D02*
X039111Y031269D01*
X038559Y031269D01*
X038559Y031345D01*
X038559Y031343D02*
X039111Y031343D01*
X039111Y031148D02*
X038559Y031148D01*
X039111Y031148D02*
X039111Y031072D01*
X038559Y031072D01*
X038559Y031148D01*
X038559Y031146D02*
X039111Y031146D01*
X039111Y030951D02*
X038559Y030951D01*
X039111Y030951D02*
X039111Y030875D01*
X038559Y030875D01*
X038559Y030951D01*
X038559Y030949D02*
X039111Y030949D01*
X039111Y030755D02*
X038559Y030755D01*
X039111Y030755D02*
X039111Y030679D01*
X038559Y030679D01*
X038559Y030755D01*
X038559Y030753D02*
X039111Y030753D01*
X039111Y030558D02*
X038559Y030558D01*
X039111Y030558D02*
X039111Y030482D01*
X038559Y030482D01*
X038559Y030558D01*
X038559Y030556D02*
X039111Y030556D01*
X039111Y030361D02*
X038559Y030361D01*
X039111Y030361D02*
X039111Y030285D01*
X038559Y030285D01*
X038559Y030361D01*
X038559Y030359D02*
X039111Y030359D01*
X039111Y030164D02*
X038559Y030164D01*
X039111Y030164D02*
X039111Y030088D01*
X038559Y030088D01*
X038559Y030164D01*
X038559Y030162D02*
X039111Y030162D01*
X039111Y029967D02*
X038559Y029967D01*
X039111Y029967D02*
X039111Y029891D01*
X038559Y029891D01*
X038559Y029967D01*
X038559Y029965D02*
X039111Y029965D01*
D19*
X036209Y028138D03*
X035736Y028138D03*
X035264Y028138D03*
D20*
X034634Y028276D03*
X034634Y027921D03*
X034634Y028748D03*
X034634Y029102D03*
X033689Y029969D03*
X033689Y030323D03*
X033689Y030717D03*
X033689Y031071D03*
X038531Y028866D03*
X038531Y028512D03*
X039043Y028512D03*
X039043Y028866D03*
X039555Y028866D03*
X039555Y028512D03*
X039555Y030008D03*
X039555Y030362D03*
X039555Y031465D03*
X039555Y031819D03*
X039555Y032331D03*
X039555Y032685D03*
X034791Y035008D03*
X034791Y035362D03*
X038925Y026071D03*
X038925Y025717D03*
X035303Y024614D03*
X035303Y024260D03*
X034791Y024260D03*
X034791Y024614D03*
X034280Y024614D03*
X034280Y024260D03*
X034004Y021858D03*
X034004Y021504D03*
D21*
X039634Y021622D03*
X039634Y022213D03*
X037823Y026583D03*
X037823Y027173D03*
X034791Y035874D03*
X034791Y036465D03*
X034083Y036465D03*
X034083Y035874D03*
D22*
X037075Y023000D03*
X037075Y021701D03*
D23*
X040392Y022035D03*
X040392Y022429D03*
X040392Y022823D03*
X040392Y023217D03*
X040392Y024791D03*
X040392Y025185D03*
X040392Y025579D03*
X040392Y025972D03*
D24*
X041917Y026484D03*
X041917Y024280D03*
X041917Y023728D03*
X041917Y021524D03*
D25*
X041878Y027406D03*
X041878Y028406D03*
X041878Y029406D03*
X041878Y030406D03*
X041878Y031406D03*
X041878Y032406D03*
X041878Y033406D03*
X041878Y034406D03*
X041878Y035406D03*
X041878Y036406D03*
X040878Y036406D03*
X039878Y036406D03*
X032874Y033406D03*
X031878Y033406D03*
X031878Y032406D03*
X032874Y032406D03*
X032874Y031406D03*
X031878Y031406D03*
X031878Y030406D03*
X032874Y030406D03*
X032874Y029406D03*
X031878Y029406D03*
D26*
X037878Y022406D03*
X038878Y022406D03*
D27*
X038878Y021854D03*
X037878Y021854D03*
D28*
X035106Y022587D03*
X034083Y022587D03*
X034083Y023610D03*
X035106Y023610D03*
D29*
X035205Y023394D03*
X035205Y023197D03*
X035205Y023000D03*
X035205Y022803D03*
X033984Y022803D03*
X033984Y023000D03*
X033984Y023197D03*
X033984Y023394D03*
D30*
X034299Y023709D03*
X034496Y023709D03*
X034693Y023709D03*
X034890Y023709D03*
X034890Y022488D03*
X034693Y022488D03*
X034496Y022488D03*
X034299Y022488D03*
D31*
X033118Y024161D03*
X031819Y024161D03*
X035874Y025894D03*
X037173Y025894D03*
D32*
X040224Y026937D03*
X040224Y027134D03*
X040224Y027331D03*
X040224Y027528D03*
X040224Y027724D03*
X040224Y027921D03*
X041091Y027921D03*
X041091Y027724D03*
X041091Y027528D03*
X041091Y027331D03*
X041091Y027134D03*
X041091Y026937D03*
X041091Y028827D03*
X041091Y029024D03*
X041091Y029220D03*
X041091Y029417D03*
X041091Y029614D03*
X041091Y029811D03*
X041091Y030717D03*
X041091Y030913D03*
X041091Y031110D03*
X041091Y031307D03*
X041091Y031504D03*
X041091Y031701D03*
X040224Y031701D03*
X040224Y031504D03*
X040224Y031307D03*
X040224Y031110D03*
X040224Y030913D03*
X040224Y030717D03*
X040224Y029811D03*
X040224Y029614D03*
X040224Y029417D03*
X040224Y029220D03*
X040224Y029024D03*
X040224Y028827D03*
X040224Y032606D03*
X040224Y032803D03*
X040224Y033000D03*
X040224Y033197D03*
X040224Y033394D03*
X040224Y033591D03*
X040224Y034496D03*
X040224Y034693D03*
X040224Y034890D03*
X040224Y035087D03*
X040224Y035283D03*
X040224Y035480D03*
X041091Y035480D03*
X041091Y035283D03*
X041091Y035087D03*
X041091Y034890D03*
X041091Y034693D03*
X041091Y034496D03*
X041091Y033591D03*
X041091Y033394D03*
X041091Y033197D03*
X041091Y033000D03*
X041091Y032803D03*
X041091Y032606D03*
D33*
X040657Y033098D03*
X040657Y034988D03*
X040657Y031209D03*
X040657Y029319D03*
X040657Y027429D03*
D34*
X040549Y026957D03*
X040766Y026957D03*
X040766Y027902D03*
X040549Y027902D03*
X040549Y028846D03*
X040766Y028846D03*
X040766Y029791D03*
X040549Y029791D03*
X040549Y030736D03*
X040766Y030736D03*
X040766Y031681D03*
X040549Y031681D03*
X040549Y032626D03*
X040766Y032626D03*
X040766Y033571D03*
X040549Y033571D03*
X040549Y034516D03*
X040766Y034516D03*
X040766Y035461D03*
X040549Y035461D03*
D35*
X035441Y035470D03*
X035441Y034970D03*
X035441Y035970D03*
X035441Y036470D03*
D36*
X038748Y027902D03*
X038945Y027902D03*
X039142Y027902D03*
X039339Y027902D03*
X039339Y026957D03*
X039142Y026957D03*
X038945Y026957D03*
X038748Y026957D03*
D37*
X038669Y027232D03*
X038669Y027429D03*
X038669Y027626D03*
X039417Y027626D03*
X039417Y027429D03*
X039417Y027232D03*
D38*
X034024Y027291D03*
X034024Y027094D03*
X034024Y026898D03*
X034024Y026701D03*
X034024Y026504D03*
X034024Y026307D03*
X034024Y026110D03*
X034024Y025913D03*
X034024Y025795D03*
X034024Y025598D03*
X034024Y025480D03*
X034024Y027488D03*
X034024Y027685D03*
X034024Y027803D03*
X034024Y028000D03*
X034024Y028118D03*
D39*
X033531Y027937D03*
X033531Y025661D03*
D40*
X033530Y025096D02*
X033927Y025096D01*
X032273Y025096D02*
X031876Y025096D01*
X031876Y028502D02*
X032273Y028502D01*
X033530Y028502D02*
X033927Y028502D01*
D41*
X036484Y034919D03*
X036878Y034919D03*
X037272Y034919D03*
X037665Y034919D03*
X038059Y034919D03*
D42*
X038571Y036445D03*
X035972Y036445D03*
M02*
