G75*
G70*
%OFA0B0*%
%FSLAX24Y24*%
%IPPOS*%
%LPD*%
%AMOC8*
5,1,8,0,0,1.08239X$1,22.5*
%
%ADD10C,0.0079*%
%ADD11C,0.0594*%
%ADD12R,0.0236X0.0610*%
%ADD13R,0.0472X0.0709*%
%ADD14C,0.0709*%
%ADD15C,0.0436*%
%ADD16R,0.0610X0.0236*%
%ADD17R,0.0709X0.0472*%
%ADD18R,0.0400X0.0200*%
%ADD19C,0.0397*%
%ADD20C,0.0238*%
%ADD21C,0.0394*%
%ADD22C,0.0236*%
%ADD23C,0.0315*%
D10*
X031506Y023531D02*
X031506Y029269D01*
X031542Y029181D01*
X031654Y029070D01*
X031799Y029009D01*
X031957Y029009D01*
X032102Y029070D01*
X032214Y029181D01*
X032274Y029327D01*
X032274Y029484D01*
X032214Y029630D01*
X032102Y029741D01*
X031957Y029802D01*
X031799Y029802D01*
X031654Y029741D01*
X031542Y029630D01*
X031506Y029542D01*
X031506Y030269D01*
X031542Y030181D01*
X031654Y030070D01*
X031799Y030009D01*
X031957Y030009D01*
X032102Y030070D01*
X032214Y030181D01*
X032274Y030327D01*
X032274Y030484D01*
X032214Y030630D01*
X032102Y030741D01*
X031957Y030802D01*
X031799Y030802D01*
X031654Y030741D01*
X031542Y030630D01*
X031506Y030542D01*
X031506Y031269D01*
X031542Y031181D01*
X031654Y031070D01*
X031799Y031009D01*
X031957Y031009D01*
X032102Y031070D01*
X032214Y031181D01*
X032274Y031327D01*
X032274Y031484D01*
X032214Y031630D01*
X032102Y031741D01*
X032042Y031767D01*
X032078Y031803D01*
X032142Y031738D01*
X032323Y031738D01*
X032451Y031866D01*
X032451Y032047D01*
X032323Y032175D01*
X032208Y032175D01*
X032214Y032181D01*
X032274Y032327D01*
X032274Y032484D01*
X032214Y032630D01*
X032102Y032741D01*
X031957Y032802D01*
X031799Y032802D01*
X031654Y032741D01*
X031542Y032630D01*
X031506Y032542D01*
X031506Y033176D01*
X031545Y033121D01*
X031594Y033073D01*
X031649Y033032D01*
X031711Y033001D01*
X031776Y032980D01*
X031839Y032970D01*
X031839Y033366D01*
X031917Y033366D01*
X031917Y032970D01*
X031980Y032980D01*
X032045Y033001D01*
X032107Y033032D01*
X032162Y033073D01*
X032211Y033121D01*
X032251Y033177D01*
X032282Y033238D01*
X032303Y033303D01*
X032313Y033366D01*
X031917Y033366D01*
X031917Y033445D01*
X031839Y033445D01*
X031839Y033841D01*
X031776Y033831D01*
X031711Y033810D01*
X031649Y033779D01*
X031594Y033738D01*
X031545Y033690D01*
X031506Y033635D01*
X031506Y034555D01*
X032350Y034555D01*
X032530Y034567D01*
X032707Y034602D01*
X032878Y034660D01*
X033039Y034740D01*
X033189Y034840D01*
X033325Y034959D01*
X033444Y035094D01*
X033544Y035244D01*
X033623Y035406D01*
X033681Y035576D01*
X033717Y035753D01*
X033728Y035933D01*
X033728Y036778D01*
X035354Y036778D01*
X035261Y036740D01*
X035172Y036650D01*
X035123Y036534D01*
X035123Y036407D01*
X035172Y036291D01*
X035214Y036249D01*
X035213Y036248D01*
X035163Y036198D01*
X035124Y036140D01*
X035097Y036075D01*
X035083Y036006D01*
X035083Y035990D01*
X035421Y035990D01*
X035421Y035951D01*
X035083Y035951D01*
X035083Y035935D01*
X035097Y035866D01*
X035124Y035801D01*
X035163Y035743D01*
X035213Y035693D01*
X035214Y035692D01*
X035172Y035650D01*
X035123Y035534D01*
X035123Y035407D01*
X035140Y035366D01*
X034495Y034721D01*
X034495Y033080D01*
X034576Y032999D01*
X034770Y032806D01*
X034770Y032693D01*
X034898Y032565D01*
X035079Y032565D01*
X035207Y032693D01*
X035207Y032874D01*
X035079Y033002D01*
X034966Y033002D01*
X034773Y033195D01*
X034773Y033674D01*
X034780Y033667D01*
X034961Y033667D01*
X035089Y033795D01*
X035089Y033976D01*
X034961Y034104D01*
X034780Y034104D01*
X034773Y034097D01*
X034773Y034606D01*
X035123Y034957D01*
X035123Y034907D01*
X035172Y034791D01*
X035261Y034701D01*
X035378Y034653D01*
X035504Y034653D01*
X035621Y034701D01*
X035710Y034791D01*
X035758Y034907D01*
X035758Y035034D01*
X035710Y035150D01*
X035640Y035220D01*
X035710Y035291D01*
X035758Y035407D01*
X035758Y035534D01*
X035710Y035650D01*
X035668Y035692D01*
X035669Y035693D01*
X035719Y035743D01*
X035758Y035801D01*
X035785Y035866D01*
X035798Y035935D01*
X035798Y035951D01*
X035461Y035951D01*
X035461Y035990D01*
X035798Y035990D01*
X035798Y036006D01*
X035785Y036075D01*
X035758Y036140D01*
X035719Y036198D01*
X035669Y036248D01*
X035668Y036249D01*
X035710Y036291D01*
X035758Y036407D01*
X035758Y036534D01*
X035710Y036650D01*
X035621Y036740D01*
X035528Y036778D01*
X039742Y036778D01*
X039654Y036741D01*
X039542Y036630D01*
X039482Y036484D01*
X039482Y036327D01*
X039542Y036181D01*
X039654Y036070D01*
X039799Y036009D01*
X039957Y036009D01*
X040102Y036070D01*
X040214Y036181D01*
X040274Y036327D01*
X040274Y036484D01*
X040214Y036630D01*
X040102Y036741D01*
X040014Y036778D01*
X040742Y036778D01*
X040654Y036741D01*
X040542Y036630D01*
X040482Y036484D01*
X040482Y036327D01*
X040542Y036181D01*
X040654Y036070D01*
X040799Y036009D01*
X040957Y036009D01*
X041102Y036070D01*
X041214Y036181D01*
X041274Y036327D01*
X041274Y036484D01*
X041214Y036630D01*
X041102Y036741D01*
X041014Y036778D01*
X041648Y036778D01*
X041594Y036738D01*
X041545Y036690D01*
X041505Y036634D01*
X041474Y036573D01*
X041452Y036508D01*
X041443Y036445D01*
X041839Y036445D01*
X041839Y036366D01*
X041917Y036366D01*
X041917Y035970D01*
X041980Y035980D01*
X042045Y036001D01*
X042107Y036032D01*
X042162Y036073D01*
X042211Y036121D01*
X042250Y036176D01*
X042250Y035542D01*
X042214Y035630D01*
X042102Y035741D01*
X041957Y035802D01*
X041799Y035802D01*
X041654Y035741D01*
X041542Y035630D01*
X041482Y035484D01*
X041482Y035327D01*
X041542Y035181D01*
X041654Y035070D01*
X041799Y035009D01*
X041957Y035009D01*
X042102Y035070D01*
X042214Y035181D01*
X042250Y035269D01*
X042250Y034542D01*
X042214Y034630D01*
X042102Y034741D01*
X041957Y034802D01*
X041799Y034802D01*
X041654Y034741D01*
X041604Y034692D01*
X041584Y034740D01*
X041512Y034812D01*
X041417Y034851D01*
X041032Y034851D01*
X040923Y034806D01*
X040839Y034723D01*
X040794Y034614D01*
X040794Y034340D01*
X039772Y034340D01*
X039663Y034294D01*
X039580Y034211D01*
X039534Y034102D01*
X039534Y033984D01*
X039580Y033876D01*
X039663Y033792D01*
X039772Y033747D01*
X040794Y033747D01*
X040794Y025480D01*
X040827Y025403D01*
X040738Y025403D01*
X040200Y025403D01*
X040207Y025410D01*
X040207Y025590D01*
X040079Y025718D01*
X039898Y025718D01*
X039770Y025590D01*
X039770Y025410D01*
X039898Y025282D01*
X039987Y025282D01*
X039987Y025207D01*
X039819Y025207D01*
X039691Y025079D01*
X039691Y024898D01*
X039819Y024770D01*
X039987Y024770D01*
X039987Y024632D01*
X040045Y024574D01*
X040911Y024574D01*
X040911Y024543D01*
X040979Y024476D01*
X040911Y024409D01*
X040911Y024228D01*
X041039Y024100D01*
X041220Y024100D01*
X041227Y024107D01*
X041227Y023064D01*
X040180Y022017D01*
X039852Y022017D01*
X039852Y022087D01*
X039724Y022214D01*
X039543Y022214D01*
X039415Y022087D01*
X039415Y022017D01*
X038686Y022017D01*
X038332Y022371D01*
X038332Y022496D01*
X038263Y022663D01*
X038135Y022790D01*
X037968Y022859D01*
X037788Y022859D01*
X037621Y022790D01*
X037493Y022663D01*
X037424Y022496D01*
X037424Y022315D01*
X037493Y022149D01*
X037621Y022021D01*
X037788Y021952D01*
X037913Y021952D01*
X038395Y021469D01*
X038504Y021424D01*
X040362Y021424D01*
X040471Y021469D01*
X040554Y021553D01*
X041775Y022773D01*
X041820Y022882D01*
X041820Y025165D01*
X041775Y025274D01*
X041691Y025357D01*
X041387Y025662D01*
X041387Y026700D01*
X041417Y026700D01*
X041512Y026739D01*
X041584Y026811D01*
X041623Y026906D01*
X041623Y027008D01*
X041584Y027102D01*
X041512Y027174D01*
X041417Y027214D01*
X041387Y027214D01*
X041387Y028471D01*
X041417Y028471D01*
X041489Y028501D01*
X041482Y028484D01*
X041482Y028327D01*
X041542Y028181D01*
X041654Y028070D01*
X041799Y028009D01*
X041957Y028009D01*
X042102Y028070D01*
X042214Y028181D01*
X042250Y028269D01*
X042250Y027542D01*
X042214Y027630D01*
X042102Y027741D01*
X041957Y027802D01*
X041799Y027802D01*
X041654Y027741D01*
X041542Y027630D01*
X041482Y027484D01*
X041482Y027327D01*
X041542Y027181D01*
X041654Y027070D01*
X041799Y027009D01*
X041957Y027009D01*
X042102Y027070D01*
X042214Y027181D01*
X042250Y027269D01*
X042250Y021366D01*
X033728Y021366D01*
X033728Y022154D01*
X033717Y022333D01*
X033681Y022510D01*
X033623Y022681D01*
X033544Y022843D01*
X033444Y022992D01*
X033325Y023128D01*
X033189Y023247D01*
X033039Y023347D01*
X032878Y023427D01*
X032707Y023485D01*
X032530Y023520D01*
X032350Y023531D01*
X031506Y023531D01*
X031506Y023564D02*
X033898Y023564D01*
X033866Y023529D01*
X033862Y023528D01*
X033855Y023517D01*
X033847Y023508D01*
X033847Y023504D01*
X033821Y023462D01*
X033818Y023461D01*
X033813Y023449D01*
X033806Y023438D01*
X033807Y023434D01*
X033790Y023389D01*
X033786Y023387D01*
X033784Y023374D01*
X033780Y023363D01*
X033781Y023359D01*
X033772Y023311D01*
X033769Y023309D01*
X033769Y023296D01*
X033767Y023283D01*
X033769Y023280D01*
X033769Y023232D01*
X033767Y023228D01*
X033769Y023216D01*
X033769Y023203D01*
X033772Y023200D01*
X033781Y023153D01*
X033780Y023149D01*
X033784Y023137D01*
X033786Y023125D01*
X033790Y023123D01*
X033807Y023078D01*
X033806Y023074D01*
X033813Y023063D01*
X033818Y023051D01*
X033821Y023049D01*
X033847Y023008D01*
X033847Y023004D01*
X033855Y022995D01*
X033862Y022984D01*
X033866Y022983D01*
X033898Y022947D01*
X033899Y022943D01*
X033909Y022936D01*
X033917Y022926D01*
X033922Y022926D01*
X033960Y022897D01*
X033961Y022893D01*
X033973Y022888D01*
X033983Y022880D01*
X033987Y022880D01*
X034030Y022859D01*
X034032Y022855D01*
X034044Y022852D01*
X034056Y022846D01*
X034060Y022848D01*
X034106Y022834D01*
X034109Y022831D01*
X034121Y022830D01*
X034133Y022827D01*
X034137Y022829D01*
X034183Y022824D01*
X034184Y022823D01*
X034187Y022823D01*
X034188Y022821D01*
X034201Y022823D01*
X034213Y022821D01*
X034215Y022823D01*
X034217Y022823D01*
X034219Y022824D01*
X034265Y022829D01*
X034268Y022827D01*
X034280Y022830D01*
X034293Y022831D01*
X034296Y022834D01*
X034342Y022848D01*
X034346Y022846D01*
X034357Y022852D01*
X034369Y022855D01*
X034371Y022859D01*
X034415Y022880D01*
X034419Y022880D01*
X034429Y022888D01*
X034440Y022893D01*
X034441Y022897D01*
X034480Y022926D01*
X034484Y022926D01*
X034493Y022936D01*
X034503Y022943D01*
X034503Y022947D01*
X034536Y022983D01*
X034540Y022984D01*
X034547Y022995D01*
X034555Y023004D01*
X034555Y023008D01*
X034580Y023049D01*
X034584Y023051D01*
X034589Y023063D01*
X034595Y023074D01*
X034594Y023078D01*
X034612Y023123D01*
X034615Y023125D01*
X034617Y023137D01*
X034622Y023149D01*
X034620Y023153D01*
X034629Y023200D01*
X034632Y023203D01*
X034632Y023216D01*
X034635Y023228D01*
X034632Y023232D01*
X034632Y023280D01*
X034635Y023283D01*
X034632Y023296D01*
X034632Y023309D01*
X034629Y023311D01*
X034620Y023359D01*
X034622Y023363D01*
X034617Y023374D01*
X034615Y023387D01*
X034612Y023389D01*
X034594Y023434D01*
X034595Y023438D01*
X034589Y023449D01*
X034584Y023461D01*
X034580Y023462D01*
X034555Y023504D01*
X034555Y023508D01*
X034547Y023517D01*
X034540Y023528D01*
X034536Y023529D01*
X034503Y023564D01*
X034503Y023568D01*
X034493Y023576D01*
X034484Y023585D01*
X034480Y023586D01*
X034441Y023615D01*
X034440Y023619D01*
X034429Y023624D01*
X034419Y023632D01*
X034415Y023631D01*
X034371Y023653D01*
X034369Y023656D01*
X034357Y023660D01*
X034346Y023666D01*
X034342Y023664D01*
X034296Y023677D01*
X034293Y023681D01*
X034280Y023682D01*
X034268Y023685D01*
X034265Y023683D01*
X034219Y023687D01*
X034217Y023689D01*
X034215Y023689D01*
X034213Y023690D01*
X034201Y023689D01*
X034188Y023690D01*
X034187Y023689D01*
X034184Y023689D01*
X034183Y023687D01*
X034137Y023683D01*
X034133Y023685D01*
X034121Y023682D01*
X034109Y023681D01*
X034106Y023677D01*
X034060Y023664D01*
X034056Y023666D01*
X034044Y023660D01*
X034032Y023656D01*
X034030Y023653D01*
X033987Y023631D01*
X033983Y023632D01*
X033973Y023624D01*
X033961Y023619D01*
X033960Y023615D01*
X033922Y023586D01*
X033917Y023585D01*
X033909Y023576D01*
X033899Y023568D01*
X033898Y023564D01*
X033836Y023487D02*
X032697Y023487D01*
X032913Y023409D02*
X033798Y023409D01*
X033776Y023332D02*
X033062Y023332D01*
X033177Y023255D02*
X033769Y023255D01*
X033777Y023178D02*
X033268Y023178D01*
X033349Y023100D02*
X033798Y023100D01*
X033838Y023023D02*
X033417Y023023D01*
X033475Y022946D02*
X033898Y022946D01*
X034011Y022869D02*
X033526Y022869D01*
X033569Y022791D02*
X036463Y022791D01*
X036463Y022732D02*
X036591Y022604D01*
X036772Y022604D01*
X036900Y022732D01*
X036900Y022913D01*
X036772Y023041D01*
X036591Y023041D01*
X036463Y022913D01*
X036463Y022732D01*
X036481Y022714D02*
X035918Y022714D01*
X035866Y022766D02*
X035994Y022638D01*
X035994Y022457D01*
X035866Y022329D01*
X035685Y022329D01*
X035557Y022457D01*
X035557Y022638D01*
X035685Y022766D01*
X035866Y022766D01*
X035994Y022637D02*
X036558Y022637D01*
X036804Y022637D02*
X037483Y022637D01*
X037451Y022560D02*
X035994Y022560D01*
X035994Y022482D02*
X037424Y022482D01*
X037424Y022405D02*
X035942Y022405D01*
X035609Y022405D02*
X033702Y022405D01*
X033717Y022328D02*
X033909Y022328D01*
X033913Y022333D02*
X033786Y022205D01*
X033786Y022024D01*
X033913Y021896D01*
X034094Y021896D01*
X034161Y021963D01*
X034228Y021896D01*
X034409Y021896D01*
X034476Y021963D01*
X034543Y021896D01*
X034724Y021896D01*
X034852Y022024D01*
X034852Y022205D01*
X034724Y022333D01*
X034543Y022333D01*
X034476Y022266D01*
X034409Y022333D01*
X034228Y022333D01*
X034161Y022266D01*
X034094Y022333D01*
X033913Y022333D01*
X033832Y022251D02*
X033722Y022251D01*
X033727Y022173D02*
X033786Y022173D01*
X033786Y022096D02*
X033728Y022096D01*
X033728Y022019D02*
X033790Y022019D01*
X033728Y021942D02*
X033868Y021942D01*
X033728Y021864D02*
X038000Y021864D01*
X038077Y021787D02*
X034364Y021787D01*
X034331Y021821D02*
X034150Y021821D01*
X034022Y021693D01*
X034022Y021512D01*
X034150Y021384D01*
X034331Y021384D01*
X034459Y021512D01*
X034459Y021693D01*
X034331Y021821D01*
X034441Y021710D02*
X038155Y021710D01*
X038232Y021633D02*
X034459Y021633D01*
X034459Y021555D02*
X038309Y021555D01*
X038386Y021478D02*
X034425Y021478D01*
X034348Y021401D02*
X042250Y021401D01*
X042250Y021478D02*
X040480Y021478D01*
X040554Y021553D02*
X040554Y021553D01*
X040557Y021555D02*
X042250Y021555D01*
X042250Y021633D02*
X040634Y021633D01*
X040712Y021710D02*
X042250Y021710D01*
X042250Y021787D02*
X040789Y021787D01*
X040866Y021864D02*
X042250Y021864D01*
X042250Y021942D02*
X040943Y021942D01*
X041021Y022019D02*
X042250Y022019D01*
X042250Y022096D02*
X041098Y022096D01*
X041175Y022173D02*
X042250Y022173D01*
X042250Y022251D02*
X041252Y022251D01*
X041329Y022328D02*
X042250Y022328D01*
X042250Y022405D02*
X041407Y022405D01*
X041484Y022482D02*
X042250Y022482D01*
X042250Y022560D02*
X041561Y022560D01*
X041638Y022637D02*
X042250Y022637D01*
X042250Y022714D02*
X041716Y022714D01*
X041782Y022791D02*
X042250Y022791D01*
X042250Y022869D02*
X041814Y022869D01*
X041820Y022946D02*
X042250Y022946D01*
X042250Y023023D02*
X041820Y023023D01*
X041820Y023100D02*
X042250Y023100D01*
X042250Y023178D02*
X041820Y023178D01*
X041820Y023255D02*
X042250Y023255D01*
X042250Y023332D02*
X041820Y023332D01*
X041820Y023409D02*
X042250Y023409D01*
X042250Y023487D02*
X041820Y023487D01*
X041820Y023564D02*
X042250Y023564D01*
X042250Y023641D02*
X041820Y023641D01*
X041820Y023718D02*
X042250Y023718D01*
X042250Y023795D02*
X041820Y023795D01*
X041820Y023873D02*
X042250Y023873D01*
X042250Y023950D02*
X041820Y023950D01*
X041820Y024027D02*
X042250Y024027D01*
X042250Y024104D02*
X041820Y024104D01*
X041820Y024182D02*
X042250Y024182D01*
X042250Y024259D02*
X041820Y024259D01*
X041820Y024336D02*
X042250Y024336D01*
X042250Y024413D02*
X041820Y024413D01*
X041820Y024491D02*
X042250Y024491D01*
X042250Y024568D02*
X041820Y024568D01*
X041820Y024645D02*
X042250Y024645D01*
X042250Y024722D02*
X041820Y024722D01*
X041820Y024800D02*
X042250Y024800D01*
X042250Y024877D02*
X041820Y024877D01*
X041820Y024954D02*
X042250Y024954D01*
X042250Y025031D02*
X041820Y025031D01*
X041820Y025109D02*
X042250Y025109D01*
X042250Y025186D02*
X041811Y025186D01*
X041779Y025263D02*
X042250Y025263D01*
X042250Y025340D02*
X041709Y025340D01*
X041691Y025357D02*
X041691Y025357D01*
X041631Y025418D02*
X042250Y025418D01*
X042250Y025495D02*
X041554Y025495D01*
X041477Y025572D02*
X042250Y025572D01*
X042250Y025649D02*
X041400Y025649D01*
X041387Y025726D02*
X042250Y025726D01*
X042250Y025804D02*
X041387Y025804D01*
X041387Y025881D02*
X042250Y025881D01*
X042250Y025958D02*
X041387Y025958D01*
X041387Y026035D02*
X042250Y026035D01*
X042250Y026113D02*
X041387Y026113D01*
X041387Y026190D02*
X042250Y026190D01*
X042250Y026267D02*
X041387Y026267D01*
X041387Y026344D02*
X042250Y026344D01*
X042250Y026422D02*
X041387Y026422D01*
X041387Y026499D02*
X042250Y026499D01*
X042250Y026576D02*
X041387Y026576D01*
X041387Y026653D02*
X042250Y026653D01*
X042250Y026731D02*
X041491Y026731D01*
X041581Y026808D02*
X042250Y026808D01*
X042250Y026885D02*
X041614Y026885D01*
X041623Y026962D02*
X042250Y026962D01*
X042250Y027040D02*
X042030Y027040D01*
X042150Y027117D02*
X042250Y027117D01*
X042250Y027194D02*
X042219Y027194D01*
X042234Y027580D02*
X042250Y027580D01*
X042250Y027657D02*
X042186Y027657D01*
X042250Y027735D02*
X042109Y027735D01*
X042250Y027812D02*
X041387Y027812D01*
X041387Y027889D02*
X042250Y027889D01*
X042250Y027966D02*
X041387Y027966D01*
X041387Y028044D02*
X041716Y028044D01*
X041602Y028121D02*
X041387Y028121D01*
X041387Y028198D02*
X041535Y028198D01*
X041503Y028275D02*
X041387Y028275D01*
X041387Y028353D02*
X041482Y028353D01*
X041482Y028430D02*
X041387Y028430D01*
X040794Y028430D02*
X039302Y028430D01*
X039379Y028353D02*
X040794Y028353D01*
X040794Y028275D02*
X040002Y028275D01*
X040000Y028277D02*
X039819Y028277D01*
X039752Y028210D01*
X039646Y028317D01*
X039465Y028317D01*
X039440Y028292D01*
X038513Y029219D01*
X038513Y029928D01*
X038115Y030326D01*
X038238Y030449D01*
X038238Y030630D01*
X038110Y030758D01*
X037929Y030758D01*
X037801Y030630D01*
X037801Y030521D01*
X035833Y030521D01*
X035757Y030597D01*
X035757Y031502D01*
X035599Y031660D01*
X035518Y031741D01*
X035355Y031741D01*
X035276Y031821D01*
X035246Y031821D01*
X035246Y031968D01*
X035118Y032096D01*
X035089Y032096D01*
X035089Y032244D01*
X034961Y032372D01*
X034780Y032372D01*
X034652Y032244D01*
X034652Y032063D01*
X034653Y032062D01*
X034653Y031387D01*
X034734Y031306D01*
X035007Y031033D01*
X035007Y030364D01*
X035088Y030283D01*
X035088Y030283D01*
X035519Y029852D01*
X035543Y029828D01*
X035478Y029764D01*
X035478Y029583D01*
X035606Y029455D01*
X035787Y029455D01*
X035915Y029583D01*
X035915Y029764D01*
X035908Y029771D01*
X036391Y029771D01*
X036305Y029685D01*
X036305Y029504D01*
X036433Y029376D01*
X036614Y029376D01*
X036742Y029504D01*
X036742Y029685D01*
X036656Y029771D01*
X036939Y029771D01*
X037605Y029104D01*
X037605Y028946D01*
X037687Y028865D01*
X039652Y026900D01*
X039652Y026827D01*
X039780Y026699D01*
X039961Y026699D01*
X039967Y026705D01*
X039967Y026630D01*
X040095Y026502D01*
X040276Y026502D01*
X040403Y026630D01*
X040403Y026811D01*
X040276Y026939D01*
X040095Y026939D01*
X040089Y026933D01*
X040089Y027008D01*
X040021Y027075D01*
X040089Y027142D01*
X040089Y027323D01*
X039970Y027441D01*
X039970Y027598D01*
X039884Y027685D01*
X039931Y027732D01*
X039931Y027841D01*
X040000Y027841D01*
X040128Y027969D01*
X040128Y028150D01*
X040000Y028277D01*
X040079Y028198D02*
X040794Y028198D01*
X040794Y028121D02*
X040128Y028121D01*
X040128Y028044D02*
X040794Y028044D01*
X040794Y027966D02*
X040126Y027966D01*
X040048Y027889D02*
X040794Y027889D01*
X040794Y027812D02*
X039931Y027812D01*
X039931Y027735D02*
X040794Y027735D01*
X040794Y027657D02*
X039911Y027657D01*
X039970Y027580D02*
X040794Y027580D01*
X040794Y027503D02*
X039970Y027503D01*
X039985Y027426D02*
X040794Y027426D01*
X040794Y027349D02*
X040063Y027349D01*
X040089Y027271D02*
X040794Y027271D01*
X040794Y027194D02*
X040089Y027194D01*
X040063Y027117D02*
X040794Y027117D01*
X040794Y027040D02*
X040057Y027040D01*
X040089Y026962D02*
X040794Y026962D01*
X040794Y026885D02*
X040329Y026885D01*
X040403Y026808D02*
X040794Y026808D01*
X040794Y026731D02*
X040403Y026731D01*
X040403Y026653D02*
X040794Y026653D01*
X040794Y026576D02*
X040350Y026576D01*
X040020Y026576D02*
X036466Y026576D01*
X036466Y026499D02*
X039103Y026499D01*
X039110Y026506D02*
X038982Y026378D01*
X038982Y026197D01*
X039110Y026069D01*
X039291Y026069D01*
X039419Y026197D01*
X039419Y026378D01*
X039291Y026506D01*
X039110Y026506D01*
X039026Y026422D02*
X036466Y026422D01*
X036466Y026344D02*
X038982Y026344D01*
X038982Y026267D02*
X036466Y026267D01*
X036466Y026190D02*
X038989Y026190D01*
X039067Y026113D02*
X036466Y026113D01*
X036466Y026035D02*
X040794Y026035D01*
X040794Y025958D02*
X036466Y025958D01*
X036466Y025881D02*
X040794Y025881D01*
X040794Y025804D02*
X036466Y025804D01*
X036466Y025726D02*
X040794Y025726D01*
X040794Y025649D02*
X040148Y025649D01*
X040207Y025572D02*
X040794Y025572D01*
X040794Y025495D02*
X040207Y025495D01*
X040207Y025418D02*
X040820Y025418D01*
X040815Y024988D02*
X040933Y024870D01*
X040911Y024568D02*
X037560Y024568D01*
X037637Y024491D02*
X040964Y024491D01*
X040916Y024413D02*
X039966Y024413D01*
X039961Y024419D02*
X039780Y024419D01*
X039739Y024379D01*
X037749Y024379D01*
X036466Y025662D01*
X036466Y026952D01*
X036578Y027064D01*
X036623Y027173D01*
X036623Y027291D01*
X036578Y027400D01*
X036495Y027483D01*
X036386Y027529D01*
X036268Y027529D01*
X036159Y027483D01*
X036001Y027326D01*
X035918Y027243D01*
X035873Y027134D01*
X035873Y026544D01*
X033198Y026544D01*
X033198Y028440D01*
X033205Y028403D01*
X033231Y028342D01*
X033268Y028287D01*
X033315Y028240D01*
X033370Y028203D01*
X033431Y028177D01*
X033443Y028175D01*
X033433Y028175D01*
X033294Y028036D01*
X033294Y027839D01*
X033433Y027699D01*
X033630Y027699D01*
X033769Y027839D01*
X033769Y028036D01*
X033641Y028164D01*
X033719Y028164D01*
X033719Y028492D01*
X033738Y028492D01*
X033738Y028164D01*
X033960Y028164D01*
X034025Y028177D01*
X034087Y028203D01*
X034142Y028240D01*
X034189Y028287D01*
X034226Y028342D01*
X034252Y028403D01*
X034265Y028469D01*
X034265Y028492D01*
X033738Y028492D01*
X033738Y028512D01*
X033719Y028512D01*
X033719Y028840D01*
X033497Y028840D01*
X033431Y028827D01*
X033370Y028801D01*
X033315Y028764D01*
X033268Y028717D01*
X033231Y028662D01*
X033205Y028600D01*
X033198Y028564D01*
X033198Y029169D01*
X033210Y029181D01*
X033270Y029327D01*
X033270Y029484D01*
X033210Y029630D01*
X033098Y029741D01*
X032953Y029802D01*
X032795Y029802D01*
X032650Y029741D01*
X032538Y029630D01*
X032478Y029484D01*
X032478Y029327D01*
X032538Y029181D01*
X032605Y029114D01*
X032605Y028564D01*
X032598Y028600D01*
X032573Y028662D01*
X032536Y028717D01*
X032489Y028764D01*
X032433Y028801D01*
X032372Y028827D01*
X032306Y028840D01*
X032085Y028840D01*
X032085Y028512D01*
X032065Y028512D01*
X032065Y028840D01*
X031843Y028840D01*
X031778Y028827D01*
X031716Y028801D01*
X031661Y028764D01*
X031614Y028717D01*
X031577Y028662D01*
X031552Y028600D01*
X031539Y028535D01*
X031539Y028512D01*
X032065Y028512D01*
X032065Y028492D01*
X032085Y028492D01*
X032085Y028164D01*
X032306Y028164D01*
X032372Y028177D01*
X032433Y028203D01*
X032489Y028240D01*
X032536Y028287D01*
X032573Y028342D01*
X032598Y028403D01*
X032605Y028440D01*
X032605Y025158D01*
X032598Y025195D01*
X032573Y025256D01*
X032536Y025312D01*
X032489Y025359D01*
X032433Y025396D01*
X032372Y025421D01*
X032306Y025434D01*
X032085Y025434D01*
X032085Y025106D01*
X032065Y025106D01*
X032065Y025087D01*
X031539Y025087D01*
X031539Y025063D01*
X031552Y024998D01*
X031577Y024936D01*
X031614Y024881D01*
X031661Y024834D01*
X031716Y024797D01*
X031778Y024772D01*
X031843Y024759D01*
X032065Y024759D01*
X032065Y025087D01*
X032085Y025087D01*
X032085Y024759D01*
X032306Y024759D01*
X032372Y024772D01*
X032433Y024797D01*
X032489Y024834D01*
X032536Y024881D01*
X032573Y024936D01*
X032598Y024998D01*
X032605Y025035D01*
X032605Y024835D01*
X032228Y024458D01*
X032095Y024458D01*
X031986Y024413D01*
X031902Y024329D01*
X031857Y024220D01*
X031857Y024102D01*
X031902Y023994D01*
X031986Y023910D01*
X032095Y023865D01*
X032409Y023865D01*
X032518Y023910D01*
X032602Y023994D01*
X033153Y024545D01*
X033198Y024654D01*
X033198Y025035D01*
X033205Y024998D01*
X033231Y024936D01*
X033268Y024881D01*
X033315Y024834D01*
X033370Y024797D01*
X033431Y024772D01*
X033497Y024759D01*
X033719Y024759D01*
X033719Y025087D01*
X033738Y025087D01*
X033738Y025106D01*
X034265Y025106D01*
X034265Y025130D01*
X034252Y025195D01*
X034226Y025256D01*
X034189Y025312D01*
X034142Y025359D01*
X034087Y025396D01*
X034025Y025421D01*
X033960Y025434D01*
X033738Y025434D01*
X033738Y025106D01*
X033719Y025106D01*
X033719Y025434D01*
X033641Y025434D01*
X033769Y025563D01*
X033769Y025760D01*
X033630Y025899D01*
X033433Y025899D01*
X033294Y025760D01*
X033294Y025563D01*
X033433Y025424D01*
X033443Y025424D01*
X033431Y025421D01*
X033370Y025396D01*
X033315Y025359D01*
X033268Y025312D01*
X033231Y025256D01*
X033205Y025195D01*
X033198Y025158D01*
X033198Y025952D01*
X035873Y025952D01*
X035873Y025480D01*
X035918Y025372D01*
X036001Y025288D01*
X036001Y025288D01*
X037375Y023915D01*
X037458Y023832D01*
X037567Y023786D01*
X039029Y023786D01*
X039022Y023779D01*
X039022Y023599D01*
X039150Y023471D01*
X039331Y023471D01*
X039459Y023599D01*
X039459Y023779D01*
X039452Y023786D01*
X040004Y023786D01*
X039987Y023770D01*
X039987Y023451D01*
X040025Y023413D01*
X039987Y023376D01*
X039987Y023057D01*
X040045Y022999D01*
X040738Y022999D01*
X040750Y023012D01*
X040803Y022959D01*
X040984Y022959D01*
X041112Y023087D01*
X041112Y023268D01*
X041006Y023374D01*
X041073Y023441D01*
X041073Y023622D01*
X040945Y023750D01*
X040796Y023750D01*
X040796Y023770D01*
X040780Y023786D01*
X040905Y023786D01*
X041033Y023913D01*
X041033Y024094D01*
X040905Y024222D01*
X040724Y024222D01*
X040724Y024221D01*
X040089Y024221D01*
X040089Y024291D01*
X039961Y024419D01*
X040044Y024336D02*
X040911Y024336D01*
X040911Y024259D02*
X040089Y024259D01*
X039870Y024004D02*
X039870Y023925D01*
X039752Y023925D01*
X039752Y024083D01*
X039791Y024083D01*
X039774Y024413D02*
X037714Y024413D01*
X037482Y024645D02*
X039987Y024645D01*
X039987Y024722D02*
X037405Y024722D01*
X037328Y024800D02*
X039789Y024800D01*
X039712Y024877D02*
X037251Y024877D01*
X037174Y024954D02*
X039691Y024954D01*
X039691Y025031D02*
X039572Y025031D01*
X039527Y024986D02*
X039655Y025114D01*
X039655Y025295D01*
X039527Y025423D01*
X039347Y025423D01*
X039219Y025295D01*
X039219Y025114D01*
X039347Y024986D01*
X039527Y024986D01*
X039650Y025109D02*
X039721Y025109D01*
X039655Y025186D02*
X039798Y025186D01*
X039839Y025340D02*
X039610Y025340D01*
X039655Y025263D02*
X039987Y025263D01*
X039770Y025418D02*
X039533Y025418D01*
X039341Y025418D02*
X038317Y025418D01*
X038317Y025370D02*
X038189Y025242D01*
X038008Y025242D01*
X037880Y025370D01*
X037880Y025551D01*
X038008Y025679D01*
X038189Y025679D01*
X038317Y025551D01*
X038317Y025370D01*
X038287Y025340D02*
X039264Y025340D01*
X039219Y025263D02*
X038210Y025263D01*
X037987Y025263D02*
X036865Y025263D01*
X036942Y025186D02*
X039219Y025186D01*
X039224Y025109D02*
X037019Y025109D01*
X037096Y025031D02*
X039302Y025031D01*
X039770Y025495D02*
X038317Y025495D01*
X038296Y025572D02*
X039770Y025572D01*
X039829Y025649D02*
X038219Y025649D01*
X037978Y025649D02*
X036478Y025649D01*
X036556Y025572D02*
X037901Y025572D01*
X037880Y025495D02*
X036633Y025495D01*
X036710Y025418D02*
X037880Y025418D01*
X037910Y025340D02*
X036787Y025340D01*
X036336Y024954D02*
X034233Y024954D01*
X034226Y024936D02*
X034252Y024998D01*
X034265Y025063D01*
X034265Y025087D01*
X033738Y025087D01*
X033738Y024759D01*
X033960Y024759D01*
X034025Y024772D01*
X034087Y024797D01*
X034142Y024834D01*
X034189Y024881D01*
X034226Y024936D01*
X034185Y024877D02*
X036413Y024877D01*
X036490Y024800D02*
X034090Y024800D01*
X034258Y025031D02*
X036258Y025031D01*
X036181Y025109D02*
X034265Y025109D01*
X034253Y025186D02*
X036104Y025186D01*
X036027Y025263D02*
X034222Y025263D01*
X034161Y025340D02*
X035949Y025340D01*
X035899Y025418D02*
X034034Y025418D01*
X033738Y025418D02*
X033719Y025418D01*
X033719Y025340D02*
X033738Y025340D01*
X033738Y025263D02*
X033719Y025263D01*
X033719Y025186D02*
X033738Y025186D01*
X033738Y025109D02*
X033719Y025109D01*
X033719Y025031D02*
X033738Y025031D01*
X033738Y024954D02*
X033719Y024954D01*
X033719Y024877D02*
X033738Y024877D01*
X033738Y024800D02*
X033719Y024800D01*
X033366Y024800D02*
X033198Y024800D01*
X033198Y024877D02*
X033272Y024877D01*
X033223Y024954D02*
X033198Y024954D01*
X033198Y025031D02*
X033198Y025031D01*
X033198Y025186D02*
X033203Y025186D01*
X033198Y025263D02*
X033235Y025263D01*
X033198Y025340D02*
X033296Y025340D01*
X033198Y025418D02*
X033422Y025418D01*
X033362Y025495D02*
X033198Y025495D01*
X033198Y025572D02*
X033294Y025572D01*
X033294Y025649D02*
X033198Y025649D01*
X033198Y025726D02*
X033294Y025726D01*
X033338Y025804D02*
X033198Y025804D01*
X033198Y025881D02*
X033415Y025881D01*
X033648Y025881D02*
X035873Y025881D01*
X035873Y025804D02*
X033725Y025804D01*
X033769Y025726D02*
X035873Y025726D01*
X035873Y025649D02*
X033769Y025649D01*
X033769Y025572D02*
X035873Y025572D01*
X035873Y025495D02*
X033701Y025495D01*
X033198Y024722D02*
X036567Y024722D01*
X036645Y024645D02*
X033194Y024645D01*
X033162Y024568D02*
X036722Y024568D01*
X036799Y024491D02*
X033099Y024491D01*
X033021Y024413D02*
X036876Y024413D01*
X036954Y024336D02*
X032944Y024336D01*
X032867Y024259D02*
X037031Y024259D01*
X037108Y024182D02*
X035237Y024182D01*
X035236Y024183D02*
X035055Y024183D01*
X034927Y024055D01*
X034927Y023874D01*
X035055Y023746D01*
X035236Y023746D01*
X035364Y023874D01*
X035364Y024055D01*
X035236Y024183D01*
X035315Y024104D02*
X037185Y024104D01*
X037263Y024027D02*
X035364Y024027D01*
X035364Y023950D02*
X037340Y023950D01*
X037375Y023915D02*
X037375Y023915D01*
X037417Y023873D02*
X035363Y023873D01*
X035285Y023795D02*
X037545Y023795D01*
X037559Y023277D02*
X037378Y023277D01*
X037250Y023150D01*
X037250Y022969D01*
X037378Y022841D01*
X037559Y022841D01*
X037687Y022969D01*
X037687Y023150D01*
X037559Y023277D01*
X037582Y023255D02*
X038156Y023255D01*
X038156Y023244D02*
X038284Y023116D01*
X038464Y023116D01*
X038592Y023244D01*
X038592Y023425D01*
X038464Y023553D01*
X038284Y023553D01*
X038156Y023425D01*
X038156Y023244D01*
X038156Y023332D02*
X035733Y023332D01*
X035758Y023307D02*
X035691Y023374D01*
X035758Y023441D01*
X035758Y023622D01*
X035630Y023750D01*
X035449Y023750D01*
X035321Y023622D01*
X035321Y023441D01*
X035388Y023374D01*
X035321Y023307D01*
X035321Y023126D01*
X035449Y022998D01*
X035630Y022998D01*
X035758Y023126D01*
X035758Y023307D01*
X035758Y023255D02*
X037355Y023255D01*
X037278Y023178D02*
X035758Y023178D01*
X035732Y023100D02*
X037250Y023100D01*
X037250Y023023D02*
X036790Y023023D01*
X036867Y022946D02*
X037273Y022946D01*
X037350Y022869D02*
X036900Y022869D01*
X036900Y022791D02*
X037624Y022791D01*
X037587Y022869D02*
X041032Y022869D01*
X041110Y022946D02*
X037664Y022946D01*
X037687Y023023D02*
X040021Y023023D01*
X039987Y023100D02*
X037687Y023100D01*
X037659Y023178D02*
X038222Y023178D01*
X038156Y023409D02*
X035726Y023409D01*
X035758Y023487D02*
X038217Y023487D01*
X038531Y023487D02*
X039134Y023487D01*
X039056Y023564D02*
X035758Y023564D01*
X035739Y023641D02*
X039022Y023641D01*
X039022Y023718D02*
X035662Y023718D01*
X035417Y023718D02*
X031506Y023718D01*
X031506Y023641D02*
X034006Y023641D01*
X033953Y023746D02*
X034134Y023746D01*
X034262Y023874D01*
X034262Y024055D01*
X034134Y024183D01*
X033953Y024183D01*
X033825Y024055D01*
X033825Y023874D01*
X033953Y023746D01*
X033904Y023795D02*
X031506Y023795D01*
X031506Y023873D02*
X032076Y023873D01*
X031946Y023950D02*
X031506Y023950D01*
X031506Y024027D02*
X031889Y024027D01*
X031857Y024104D02*
X031506Y024104D01*
X031506Y024182D02*
X031857Y024182D01*
X031873Y024259D02*
X031506Y024259D01*
X031506Y024336D02*
X031909Y024336D01*
X031988Y024413D02*
X031506Y024413D01*
X031506Y024491D02*
X032261Y024491D01*
X032338Y024568D02*
X031506Y024568D01*
X031506Y024645D02*
X032415Y024645D01*
X032492Y024722D02*
X031506Y024722D01*
X031506Y024800D02*
X031713Y024800D01*
X031618Y024877D02*
X031506Y024877D01*
X031506Y024954D02*
X031570Y024954D01*
X031545Y025031D02*
X031506Y025031D01*
X031506Y025109D02*
X031539Y025109D01*
X031539Y025106D02*
X032065Y025106D01*
X032065Y025434D01*
X031843Y025434D01*
X031778Y025421D01*
X031716Y025396D01*
X031661Y025359D01*
X031614Y025312D01*
X031577Y025256D01*
X031552Y025195D01*
X031539Y025130D01*
X031539Y025106D01*
X031550Y025186D02*
X031506Y025186D01*
X031506Y025263D02*
X031581Y025263D01*
X031642Y025340D02*
X031506Y025340D01*
X031506Y025418D02*
X031769Y025418D01*
X031506Y025495D02*
X032605Y025495D01*
X032605Y025572D02*
X031506Y025572D01*
X031506Y025649D02*
X032605Y025649D01*
X032605Y025726D02*
X031506Y025726D01*
X031506Y025804D02*
X032605Y025804D01*
X032605Y025881D02*
X031506Y025881D01*
X031506Y025958D02*
X032605Y025958D01*
X032605Y026035D02*
X031506Y026035D01*
X031506Y026113D02*
X032605Y026113D01*
X032605Y026190D02*
X031506Y026190D01*
X031506Y026267D02*
X032605Y026267D01*
X032605Y026344D02*
X031506Y026344D01*
X031506Y026422D02*
X032605Y026422D01*
X032605Y026499D02*
X031506Y026499D01*
X031506Y026576D02*
X032605Y026576D01*
X032605Y026653D02*
X031506Y026653D01*
X031506Y026731D02*
X032605Y026731D01*
X032605Y026808D02*
X031506Y026808D01*
X031506Y026885D02*
X032605Y026885D01*
X032605Y026962D02*
X031506Y026962D01*
X031506Y027040D02*
X032605Y027040D01*
X032605Y027117D02*
X031506Y027117D01*
X031506Y027194D02*
X032605Y027194D01*
X032605Y027271D02*
X031506Y027271D01*
X031506Y027349D02*
X032605Y027349D01*
X032605Y027426D02*
X031506Y027426D01*
X031506Y027503D02*
X032605Y027503D01*
X032605Y027580D02*
X031506Y027580D01*
X031506Y027657D02*
X032605Y027657D01*
X032605Y027735D02*
X031506Y027735D01*
X031506Y027812D02*
X032605Y027812D01*
X032605Y027889D02*
X031506Y027889D01*
X031506Y027966D02*
X032605Y027966D01*
X032605Y028044D02*
X031506Y028044D01*
X031506Y028121D02*
X032605Y028121D01*
X032605Y028198D02*
X032422Y028198D01*
X032524Y028275D02*
X032605Y028275D01*
X032605Y028353D02*
X032577Y028353D01*
X032603Y028430D02*
X032605Y028430D01*
X032601Y028584D02*
X032605Y028584D01*
X032605Y028662D02*
X032573Y028662D01*
X032605Y028739D02*
X032514Y028739D01*
X032605Y028816D02*
X032398Y028816D01*
X032605Y028893D02*
X031506Y028893D01*
X031506Y028816D02*
X031752Y028816D01*
X031636Y028739D02*
X031506Y028739D01*
X031506Y028662D02*
X031577Y028662D01*
X031548Y028584D02*
X031506Y028584D01*
X031506Y028507D02*
X032065Y028507D01*
X032065Y028492D02*
X031539Y028492D01*
X031539Y028469D01*
X031552Y028403D01*
X031577Y028342D01*
X031614Y028287D01*
X031661Y028240D01*
X031716Y028203D01*
X031778Y028177D01*
X031843Y028164D01*
X032065Y028164D01*
X032065Y028492D01*
X032065Y028430D02*
X032085Y028430D01*
X032085Y028353D02*
X032065Y028353D01*
X032065Y028275D02*
X032085Y028275D01*
X032085Y028198D02*
X032065Y028198D01*
X031727Y028198D02*
X031506Y028198D01*
X031506Y028275D02*
X031625Y028275D01*
X031573Y028353D02*
X031506Y028353D01*
X031506Y028430D02*
X031546Y028430D01*
X032065Y028584D02*
X032085Y028584D01*
X032085Y028662D02*
X032065Y028662D01*
X032065Y028739D02*
X032085Y028739D01*
X032085Y028816D02*
X032065Y028816D01*
X032050Y029048D02*
X032605Y029048D01*
X032605Y028971D02*
X031506Y028971D01*
X031506Y029048D02*
X031706Y029048D01*
X031598Y029125D02*
X031506Y029125D01*
X031506Y029202D02*
X031533Y029202D01*
X031506Y029588D02*
X031525Y029588D01*
X031506Y029666D02*
X031578Y029666D01*
X031506Y029743D02*
X031657Y029743D01*
X031506Y029820D02*
X033621Y029820D01*
X033544Y029897D02*
X031506Y029897D01*
X031506Y029975D02*
X033467Y029975D01*
X033435Y030007D02*
X035443Y027999D01*
X036393Y027999D01*
X036473Y027919D01*
X036653Y027919D01*
X036781Y028047D01*
X036781Y028228D01*
X036653Y028356D01*
X036473Y028356D01*
X036393Y028277D01*
X035557Y028277D01*
X035044Y028790D01*
X035167Y028913D01*
X035167Y029094D01*
X035039Y029222D01*
X034858Y029222D01*
X034735Y029099D01*
X034300Y029534D01*
X034409Y029534D01*
X034537Y029661D01*
X034537Y029842D01*
X034409Y029970D01*
X034228Y029970D01*
X034100Y029842D01*
X034100Y029734D01*
X033631Y030203D01*
X033631Y031845D01*
X033235Y032241D01*
X033270Y032327D01*
X033270Y032484D01*
X033210Y032630D01*
X033098Y032741D01*
X032953Y032802D01*
X032795Y032802D01*
X032650Y032741D01*
X032538Y032630D01*
X032478Y032484D01*
X032478Y032327D01*
X032538Y032181D01*
X032650Y032070D01*
X032795Y032009D01*
X032953Y032009D01*
X033039Y032045D01*
X033353Y031730D01*
X033353Y030088D01*
X033435Y030007D01*
X033390Y030052D02*
X033056Y030052D01*
X033098Y030070D02*
X033210Y030181D01*
X033270Y030327D01*
X033270Y030484D01*
X033210Y030630D01*
X033098Y030741D01*
X032953Y030802D01*
X032795Y030802D01*
X032650Y030741D01*
X032538Y030630D01*
X032478Y030484D01*
X032478Y030327D01*
X032538Y030181D01*
X032650Y030070D01*
X032795Y030009D01*
X032953Y030009D01*
X033098Y030070D01*
X033158Y030129D02*
X033353Y030129D01*
X033353Y030206D02*
X033220Y030206D01*
X033252Y030284D02*
X033353Y030284D01*
X033353Y030361D02*
X033270Y030361D01*
X033270Y030438D02*
X033353Y030438D01*
X033353Y030515D02*
X033257Y030515D01*
X033225Y030593D02*
X033353Y030593D01*
X033353Y030670D02*
X033170Y030670D01*
X033085Y030747D02*
X033353Y030747D01*
X033353Y030824D02*
X031506Y030824D01*
X031506Y030747D02*
X031667Y030747D01*
X031582Y030670D02*
X031506Y030670D01*
X031506Y030593D02*
X031527Y030593D01*
X031506Y030902D02*
X033353Y030902D01*
X033353Y030979D02*
X031506Y030979D01*
X031506Y031056D02*
X031686Y031056D01*
X031590Y031133D02*
X031506Y031133D01*
X031506Y031211D02*
X031530Y031211D01*
X031878Y031406D02*
X031878Y031799D01*
X032035Y031957D01*
X032232Y031957D01*
X032451Y031983D02*
X033100Y031983D01*
X033178Y031906D02*
X032451Y031906D01*
X032413Y031828D02*
X033255Y031828D01*
X033332Y031751D02*
X033075Y031751D01*
X033098Y031741D02*
X032953Y031802D01*
X032795Y031802D01*
X032650Y031741D01*
X032538Y031630D01*
X032478Y031484D01*
X032478Y031327D01*
X032538Y031181D01*
X032650Y031070D01*
X032795Y031009D01*
X032953Y031009D01*
X033098Y031070D01*
X033210Y031181D01*
X033270Y031327D01*
X033270Y031484D01*
X033210Y031630D01*
X033098Y031741D01*
X033166Y031674D02*
X033353Y031674D01*
X033353Y031597D02*
X033224Y031597D01*
X033256Y031520D02*
X033353Y031520D01*
X033353Y031442D02*
X033270Y031442D01*
X033270Y031365D02*
X033353Y031365D01*
X033353Y031288D02*
X033254Y031288D01*
X033222Y031211D02*
X033353Y031211D01*
X033353Y031133D02*
X033162Y031133D01*
X033066Y031056D02*
X033353Y031056D01*
X033631Y031056D02*
X034984Y031056D01*
X035007Y030979D02*
X033631Y030979D01*
X033631Y030902D02*
X033782Y030902D01*
X033835Y030955D02*
X033707Y030827D01*
X033707Y030646D01*
X033835Y030518D01*
X034016Y030518D01*
X034020Y030522D01*
X034020Y030248D01*
X034078Y030190D01*
X034560Y030190D01*
X034574Y030204D01*
X034616Y030204D01*
X034652Y030168D01*
X034652Y030055D01*
X034780Y029927D01*
X034961Y029927D01*
X035089Y030055D01*
X035089Y030236D01*
X034961Y030364D01*
X034848Y030364D01*
X034812Y030400D01*
X034731Y030481D01*
X034618Y030481D01*
X034618Y030531D01*
X034609Y030539D01*
X034618Y030548D01*
X034618Y030831D01*
X034560Y030889D01*
X034082Y030889D01*
X034016Y030955D01*
X033835Y030955D01*
X033707Y030824D02*
X033631Y030824D01*
X033631Y030747D02*
X033707Y030747D01*
X033707Y030670D02*
X033631Y030670D01*
X033631Y030593D02*
X033760Y030593D01*
X033631Y030515D02*
X034020Y030515D01*
X034020Y030438D02*
X033631Y030438D01*
X033631Y030361D02*
X034020Y030361D01*
X034020Y030284D02*
X033631Y030284D01*
X033631Y030206D02*
X034061Y030206D01*
X034319Y030343D02*
X034319Y030389D01*
X034319Y030421D01*
X034319Y030343D02*
X034673Y030343D01*
X034870Y030146D01*
X034652Y030129D02*
X033705Y030129D01*
X033782Y030052D02*
X034655Y030052D01*
X034732Y029975D02*
X033859Y029975D01*
X033937Y029897D02*
X034155Y029897D01*
X034100Y029820D02*
X034014Y029820D01*
X034091Y029743D02*
X034100Y029743D01*
X033930Y029511D02*
X033259Y029511D01*
X033270Y029434D02*
X034008Y029434D01*
X034085Y029357D02*
X033270Y029357D01*
X033251Y029280D02*
X034162Y029280D01*
X034239Y029202D02*
X033219Y029202D01*
X033198Y029125D02*
X034317Y029125D01*
X034394Y029048D02*
X033198Y029048D01*
X033198Y028971D02*
X034471Y028971D01*
X034548Y028893D02*
X033198Y028893D01*
X033198Y028816D02*
X033406Y028816D01*
X033289Y028739D02*
X033198Y028739D01*
X033198Y028662D02*
X033230Y028662D01*
X033202Y028584D02*
X033198Y028584D01*
X033198Y028430D02*
X033200Y028430D01*
X033198Y028353D02*
X033226Y028353D01*
X033198Y028275D02*
X033279Y028275D01*
X033198Y028198D02*
X033381Y028198D01*
X033379Y028121D02*
X033198Y028121D01*
X033198Y028044D02*
X033302Y028044D01*
X033294Y027966D02*
X033198Y027966D01*
X033198Y027889D02*
X033294Y027889D01*
X033320Y027812D02*
X033198Y027812D01*
X033198Y027735D02*
X033397Y027735D01*
X033198Y027657D02*
X036946Y027657D01*
X036937Y027668D02*
X036969Y027632D01*
X036970Y027628D01*
X036980Y027621D01*
X036988Y027611D01*
X036992Y027611D01*
X037031Y027582D01*
X037032Y027578D01*
X037044Y027573D01*
X037054Y027565D01*
X037058Y027566D01*
X037101Y027544D01*
X037103Y027540D01*
X037115Y027537D01*
X037126Y027531D01*
X037130Y027533D01*
X037177Y027519D01*
X037179Y027516D01*
X037192Y027515D01*
X037204Y027512D01*
X037208Y027514D01*
X037254Y027509D01*
X037255Y027508D01*
X037257Y027508D01*
X037259Y027507D01*
X037272Y027508D01*
X037284Y027507D01*
X037286Y027508D01*
X037288Y027508D01*
X037289Y027509D01*
X037335Y027514D01*
X037339Y027512D01*
X037351Y027515D01*
X037364Y027516D01*
X037366Y027519D01*
X037413Y027533D01*
X037417Y027531D01*
X037428Y027537D01*
X037440Y027540D01*
X037442Y027544D01*
X037486Y027566D01*
X037490Y027565D01*
X037500Y027573D01*
X037511Y027578D01*
X037512Y027582D01*
X037551Y027611D01*
X037555Y027611D01*
X037564Y027621D01*
X037574Y027628D01*
X037574Y027632D01*
X037607Y027668D01*
X037611Y027669D01*
X037617Y027680D01*
X037626Y027689D01*
X037626Y027693D01*
X037651Y027734D01*
X037655Y027736D01*
X037659Y027748D01*
X037666Y027759D01*
X037665Y027763D01*
X037683Y027808D01*
X037686Y027810D01*
X037688Y027822D01*
X037693Y027834D01*
X037691Y027838D01*
X037700Y027885D01*
X037703Y027888D01*
X037703Y027901D01*
X037705Y027913D01*
X037703Y027917D01*
X037703Y027965D01*
X037705Y027968D01*
X037703Y027981D01*
X037703Y027994D01*
X037700Y027996D01*
X037691Y028044D01*
X037693Y028048D01*
X037688Y028060D01*
X037686Y028072D01*
X037683Y028074D01*
X037665Y028119D01*
X037666Y028123D01*
X037659Y028134D01*
X037655Y028146D01*
X037651Y028148D01*
X037626Y028189D01*
X037626Y028193D01*
X037617Y028202D01*
X037611Y028213D01*
X037607Y028214D01*
X037574Y028249D01*
X037574Y028253D01*
X037564Y028261D01*
X037555Y028270D01*
X037551Y028271D01*
X037512Y028300D01*
X037511Y028304D01*
X037500Y028309D01*
X037490Y028317D01*
X037486Y028316D01*
X037442Y028338D01*
X037440Y028341D01*
X037428Y028345D01*
X037417Y028351D01*
X037413Y028349D01*
X037366Y028362D01*
X037364Y028366D01*
X037351Y028367D01*
X037339Y028370D01*
X037335Y028368D01*
X037289Y028373D01*
X037288Y028374D01*
X037286Y028374D01*
X037284Y028375D01*
X037272Y028374D01*
X037259Y028375D01*
X037257Y028374D01*
X037255Y028374D01*
X037254Y028373D01*
X037208Y028368D01*
X037204Y028370D01*
X037192Y028367D01*
X037179Y028366D01*
X037177Y028362D01*
X037130Y028349D01*
X037126Y028351D01*
X037115Y028345D01*
X037103Y028341D01*
X037101Y028338D01*
X037058Y028316D01*
X037054Y028317D01*
X037044Y028309D01*
X037032Y028304D01*
X037031Y028300D01*
X036992Y028271D01*
X036988Y028270D01*
X036980Y028261D01*
X036970Y028253D01*
X036969Y028249D01*
X036937Y028214D01*
X036933Y028213D01*
X036926Y028202D01*
X036917Y028193D01*
X036918Y028189D01*
X036892Y028148D01*
X036888Y028146D01*
X036884Y028134D01*
X036877Y028123D01*
X036878Y028119D01*
X036861Y028074D01*
X036857Y028072D01*
X036855Y028060D01*
X036850Y028048D01*
X036852Y028044D01*
X036843Y027996D01*
X036840Y027994D01*
X036840Y027981D01*
X036838Y027968D01*
X036840Y027965D01*
X036840Y027917D01*
X036838Y027913D01*
X036840Y027901D01*
X036840Y027888D01*
X036843Y027885D01*
X036852Y027838D01*
X036850Y027834D01*
X036855Y027822D01*
X036857Y027810D01*
X036861Y027808D01*
X036878Y027763D01*
X036877Y027759D01*
X036884Y027748D01*
X036888Y027736D01*
X036892Y027734D01*
X036918Y027693D01*
X036917Y027689D01*
X036926Y027680D01*
X036933Y027669D01*
X036937Y027668D01*
X036891Y027735D02*
X033666Y027735D01*
X033743Y027812D02*
X036857Y027812D01*
X036840Y027889D02*
X033769Y027889D01*
X033769Y027966D02*
X036425Y027966D01*
X036563Y028138D02*
X035500Y028138D01*
X033492Y030146D01*
X033492Y031787D01*
X032874Y032406D01*
X032586Y032678D02*
X032166Y032678D01*
X032226Y032601D02*
X032526Y032601D01*
X032494Y032524D02*
X032258Y032524D01*
X032274Y032446D02*
X032478Y032446D01*
X032478Y032369D02*
X032274Y032369D01*
X032260Y032292D02*
X032492Y032292D01*
X032524Y032215D02*
X032228Y032215D01*
X032360Y032137D02*
X032582Y032137D01*
X032672Y032060D02*
X032438Y032060D01*
X032336Y031751D02*
X032673Y031751D01*
X032582Y031674D02*
X032170Y031674D01*
X032129Y031751D02*
X032079Y031751D01*
X032228Y031597D02*
X032524Y031597D01*
X032492Y031520D02*
X032260Y031520D01*
X032274Y031442D02*
X032478Y031442D01*
X032478Y031365D02*
X032274Y031365D01*
X032258Y031288D02*
X032494Y031288D01*
X032526Y031211D02*
X032226Y031211D01*
X032166Y031133D02*
X032586Y031133D01*
X032682Y031056D02*
X032070Y031056D01*
X032089Y030747D02*
X032663Y030747D01*
X032578Y030670D02*
X032174Y030670D01*
X032229Y030593D02*
X032523Y030593D01*
X032491Y030515D02*
X032261Y030515D01*
X032274Y030438D02*
X032478Y030438D01*
X032478Y030361D02*
X032274Y030361D01*
X032256Y030284D02*
X032496Y030284D01*
X032528Y030206D02*
X032224Y030206D01*
X032162Y030129D02*
X032590Y030129D01*
X032692Y030052D02*
X032060Y030052D01*
X032099Y029743D02*
X032653Y029743D01*
X032574Y029666D02*
X032178Y029666D01*
X032231Y029588D02*
X032521Y029588D01*
X032489Y029511D02*
X032263Y029511D01*
X032274Y029434D02*
X032478Y029434D01*
X032478Y029357D02*
X032274Y029357D01*
X032255Y029280D02*
X032497Y029280D01*
X032529Y029202D02*
X032223Y029202D01*
X032158Y029125D02*
X032594Y029125D01*
X033227Y029588D02*
X033853Y029588D01*
X033776Y029666D02*
X033174Y029666D01*
X033095Y029743D02*
X033699Y029743D01*
X034323Y029511D02*
X035550Y029511D01*
X035478Y029588D02*
X034464Y029588D01*
X034537Y029666D02*
X035478Y029666D01*
X035478Y029743D02*
X034537Y029743D01*
X034537Y029820D02*
X035535Y029820D01*
X035519Y029852D02*
X035519Y029852D01*
X035473Y029897D02*
X034482Y029897D01*
X034400Y029434D02*
X036375Y029434D01*
X036305Y029511D02*
X035844Y029511D01*
X035915Y029588D02*
X036305Y029588D01*
X036305Y029666D02*
X035915Y029666D01*
X035915Y029743D02*
X036363Y029743D01*
X036684Y029743D02*
X036966Y029743D01*
X037044Y029666D02*
X036742Y029666D01*
X036742Y029588D02*
X037121Y029588D01*
X037198Y029511D02*
X036742Y029511D01*
X036672Y029434D02*
X037275Y029434D01*
X037353Y029357D02*
X034477Y029357D01*
X034554Y029280D02*
X037430Y029280D01*
X037507Y029202D02*
X035059Y029202D01*
X035137Y029125D02*
X037584Y029125D01*
X037605Y029048D02*
X035167Y029048D01*
X035167Y028971D02*
X037605Y028971D01*
X037658Y028893D02*
X037101Y028893D01*
X037087Y028907D02*
X036906Y028907D01*
X036778Y028779D01*
X036778Y028599D01*
X036906Y028471D01*
X037087Y028471D01*
X037214Y028599D01*
X037214Y028779D01*
X037087Y028907D01*
X037178Y028816D02*
X037736Y028816D01*
X037688Y028739D02*
X037813Y028739D01*
X037765Y028662D02*
X037890Y028662D01*
X037967Y028584D02*
X037766Y028584D01*
X037766Y028507D02*
X038045Y028507D01*
X038122Y028430D02*
X037715Y028430D01*
X037766Y028480D02*
X037638Y028352D01*
X037457Y028352D01*
X037329Y028480D01*
X037329Y028661D01*
X037457Y028789D01*
X037638Y028789D01*
X037766Y028661D01*
X037766Y028480D01*
X037638Y028353D02*
X038199Y028353D01*
X038276Y028275D02*
X037545Y028275D01*
X037621Y028198D02*
X037929Y028198D01*
X037969Y028238D02*
X037841Y028110D01*
X037841Y027929D01*
X037969Y027801D01*
X038150Y027801D01*
X038277Y027929D01*
X038277Y028110D01*
X038150Y028238D01*
X037969Y028238D01*
X037851Y028121D02*
X037666Y028121D01*
X037691Y028044D02*
X037841Y028044D01*
X037841Y027966D02*
X037704Y027966D01*
X037703Y027889D02*
X037881Y027889D01*
X037958Y027812D02*
X037686Y027812D01*
X037652Y027735D02*
X038817Y027735D01*
X038740Y027812D02*
X038160Y027812D01*
X038237Y027889D02*
X038663Y027889D01*
X038585Y027966D02*
X038277Y027966D01*
X038277Y028044D02*
X038508Y028044D01*
X038431Y028121D02*
X038267Y028121D01*
X038189Y028198D02*
X038354Y028198D01*
X038228Y027490D02*
X038047Y027490D01*
X037919Y027362D01*
X037919Y027181D01*
X038047Y027053D01*
X038228Y027053D01*
X038356Y027181D01*
X038356Y027362D01*
X038228Y027490D01*
X038293Y027426D02*
X039126Y027426D01*
X039049Y027503D02*
X036447Y027503D01*
X036552Y027426D02*
X037314Y027426D01*
X037339Y027451D02*
X037211Y027323D01*
X037211Y027142D01*
X037339Y027014D01*
X037520Y027014D01*
X037648Y027142D01*
X037648Y027323D01*
X037520Y027451D01*
X037339Y027451D01*
X037236Y027349D02*
X036599Y027349D01*
X036623Y027271D02*
X037211Y027271D01*
X037211Y027194D02*
X036623Y027194D01*
X036600Y027117D02*
X037236Y027117D01*
X037313Y027040D02*
X036553Y027040D01*
X036476Y026962D02*
X039590Y026962D01*
X039652Y026885D02*
X036466Y026885D01*
X036466Y026808D02*
X039671Y026808D01*
X039748Y026731D02*
X036466Y026731D01*
X036466Y026653D02*
X039967Y026653D01*
X039870Y026917D02*
X039831Y026917D01*
X037744Y029004D01*
X037744Y029161D01*
X036996Y029909D01*
X035657Y029909D01*
X035146Y030421D01*
X035146Y031091D01*
X034791Y031445D01*
X034791Y032075D01*
X034870Y032154D01*
X034652Y032137D02*
X033982Y032137D01*
X033976Y032132D02*
X034104Y032260D01*
X034104Y032441D01*
X034037Y032508D01*
X034104Y032575D01*
X034104Y032756D01*
X033976Y032884D01*
X033795Y032884D01*
X033667Y032756D01*
X033667Y032575D01*
X033734Y032508D01*
X033667Y032441D01*
X033667Y032260D01*
X033795Y032132D01*
X033976Y032132D01*
X034059Y032215D02*
X034652Y032215D01*
X034700Y032292D02*
X034104Y032292D01*
X034104Y032369D02*
X034777Y032369D01*
X034963Y032369D02*
X036668Y032369D01*
X036620Y032417D02*
X036748Y032289D01*
X036929Y032289D01*
X037057Y032417D01*
X037057Y032598D01*
X036990Y032665D01*
X037057Y032732D01*
X037057Y032768D01*
X037102Y032723D01*
X037283Y032723D01*
X037411Y032850D01*
X037411Y032919D01*
X037520Y032919D01*
X037648Y033047D01*
X037648Y033228D01*
X037520Y033356D01*
X037339Y033356D01*
X037211Y033228D01*
X037211Y033159D01*
X037175Y033159D01*
X037175Y033228D01*
X037047Y033356D01*
X036866Y033356D01*
X036738Y033228D01*
X036738Y033047D01*
X036746Y033039D01*
X036620Y032913D01*
X036620Y032732D01*
X036687Y032665D01*
X036620Y032598D01*
X036620Y032417D01*
X036620Y032446D02*
X034099Y032446D01*
X034053Y032524D02*
X036620Y032524D01*
X036623Y032601D02*
X035941Y032601D01*
X035994Y032654D02*
X035866Y032526D01*
X035685Y032526D01*
X035557Y032654D01*
X035557Y032835D01*
X035685Y032963D01*
X035754Y032963D01*
X035754Y033071D01*
X035882Y033199D01*
X036063Y033199D01*
X036191Y033071D01*
X036191Y032890D01*
X036063Y032762D01*
X035994Y032762D01*
X035994Y032654D01*
X035994Y032678D02*
X036674Y032678D01*
X036620Y032755D02*
X035994Y032755D01*
X036134Y032833D02*
X036620Y032833D01*
X036620Y032910D02*
X036191Y032910D01*
X036191Y032987D02*
X036694Y032987D01*
X036738Y033064D02*
X036191Y033064D01*
X036120Y033142D02*
X036738Y033142D01*
X036738Y033219D02*
X034773Y033219D01*
X034773Y033296D02*
X036806Y033296D01*
X037107Y033296D02*
X037278Y033296D01*
X037211Y033219D02*
X037175Y033219D01*
X037411Y032910D02*
X038304Y032910D01*
X038227Y032833D02*
X037393Y032833D01*
X037316Y032755D02*
X038150Y032755D01*
X038072Y032678D02*
X037003Y032678D01*
X037054Y032601D02*
X037995Y032601D01*
X037918Y032524D02*
X037057Y032524D01*
X037057Y032446D02*
X037841Y032446D01*
X037763Y032369D02*
X037009Y032369D01*
X036932Y032292D02*
X037686Y032292D01*
X037609Y032215D02*
X035089Y032215D01*
X035089Y032137D02*
X037532Y032137D01*
X037455Y032060D02*
X035154Y032060D01*
X035231Y031983D02*
X037377Y031983D01*
X037308Y031914D02*
X037244Y031978D01*
X037063Y031978D01*
X036935Y031850D01*
X036935Y031669D01*
X037063Y031541D01*
X037132Y031541D01*
X037132Y031506D01*
X037063Y031506D01*
X036935Y031378D01*
X036935Y031197D01*
X037063Y031069D01*
X037132Y031069D01*
X037132Y030961D01*
X037260Y030833D01*
X037441Y030833D01*
X037521Y030912D01*
X037526Y030912D01*
X037607Y030994D01*
X037883Y031269D01*
X037883Y031506D01*
X038121Y031744D01*
X038183Y031681D01*
X038116Y031614D01*
X038116Y031433D01*
X038244Y031305D01*
X038425Y031305D01*
X038553Y031433D01*
X038553Y031614D01*
X038486Y031681D01*
X038553Y031748D01*
X038553Y031929D01*
X038430Y032052D01*
X039337Y032960D01*
X039344Y032960D01*
X039337Y032953D01*
X039337Y032772D01*
X039465Y032644D01*
X039646Y032644D01*
X039752Y032750D01*
X039780Y032723D01*
X039961Y032723D01*
X040089Y032850D01*
X040089Y033031D01*
X039961Y033159D01*
X039848Y033159D01*
X039808Y033200D01*
X039852Y033244D01*
X039852Y033425D01*
X039724Y033553D01*
X039543Y033553D01*
X039464Y033473D01*
X039340Y033473D01*
X039340Y034222D01*
X039730Y034613D01*
X039730Y034504D01*
X039858Y034376D01*
X040039Y034376D01*
X040167Y034504D01*
X040167Y034685D01*
X040039Y034813D01*
X040010Y034813D01*
X040010Y034961D01*
X039962Y035008D01*
X040049Y035095D01*
X040049Y035276D01*
X039982Y035343D01*
X040049Y035410D01*
X040049Y035518D01*
X040197Y035518D01*
X040325Y035646D01*
X040325Y035827D01*
X040197Y035955D01*
X040016Y035955D01*
X039888Y035827D01*
X039888Y035718D01*
X039740Y035718D01*
X039612Y035590D01*
X039612Y035478D01*
X039498Y035363D01*
X039416Y035282D01*
X039416Y034888D01*
X038986Y034458D01*
X038905Y034376D01*
X038905Y033510D01*
X037308Y031914D01*
X037350Y031760D02*
X037154Y031760D01*
X037350Y031760D02*
X039043Y033453D01*
X039043Y034319D01*
X039555Y034831D01*
X039555Y035224D01*
X039831Y035500D01*
X039612Y035536D02*
X038277Y035536D01*
X038277Y035551D02*
X038150Y035679D01*
X037969Y035679D01*
X037841Y035551D01*
X037841Y035370D01*
X037887Y035324D01*
X037585Y035324D01*
X037527Y035266D01*
X037527Y034573D01*
X037585Y034515D01*
X037645Y034515D01*
X037645Y034332D01*
X037565Y034252D01*
X037565Y034071D01*
X037693Y033943D01*
X037874Y033943D01*
X037941Y034010D01*
X038008Y033943D01*
X038189Y033943D01*
X038317Y034071D01*
X038317Y034252D01*
X038237Y034332D01*
X038237Y034515D01*
X038297Y034515D01*
X038355Y034573D01*
X038355Y035266D01*
X038297Y035324D01*
X038231Y035324D01*
X038277Y035370D01*
X038277Y035551D01*
X038215Y035613D02*
X039635Y035613D01*
X039712Y035690D02*
X037469Y035690D01*
X037529Y035630D02*
X037401Y035758D01*
X037221Y035758D01*
X037093Y035630D01*
X037093Y035449D01*
X037221Y035321D01*
X037401Y035321D01*
X037529Y035449D01*
X037529Y035630D01*
X037529Y035613D02*
X037903Y035613D01*
X037841Y035536D02*
X037529Y035536D01*
X037529Y035459D02*
X037841Y035459D01*
X037841Y035382D02*
X037462Y035382D01*
X037565Y035304D02*
X035716Y035304D01*
X035748Y035382D02*
X037160Y035382D01*
X037093Y035459D02*
X036909Y035459D01*
X036850Y035400D02*
X036978Y035528D01*
X036978Y035709D01*
X036850Y035837D01*
X036669Y035837D01*
X036541Y035709D01*
X036541Y035528D01*
X036669Y035400D01*
X036850Y035400D01*
X036978Y035536D02*
X037093Y035536D01*
X037093Y035613D02*
X036978Y035613D01*
X036978Y035690D02*
X037153Y035690D01*
X036919Y035768D02*
X039888Y035768D01*
X039906Y035845D02*
X035776Y035845D01*
X035796Y035922D02*
X039983Y035922D01*
X040109Y036077D02*
X040646Y036077D01*
X040569Y036154D02*
X040187Y036154D01*
X040235Y036231D02*
X040521Y036231D01*
X040489Y036308D02*
X040267Y036308D01*
X040274Y036386D02*
X040482Y036386D01*
X040482Y036463D02*
X040274Y036463D01*
X040251Y036540D02*
X040505Y036540D01*
X040537Y036617D02*
X040219Y036617D01*
X040149Y036695D02*
X040607Y036695D01*
X040727Y036772D02*
X040029Y036772D01*
X039727Y036772D02*
X035543Y036772D01*
X035666Y036695D02*
X039607Y036695D01*
X039537Y036617D02*
X035724Y036617D01*
X035756Y036540D02*
X039505Y036540D01*
X039482Y036463D02*
X036578Y036463D01*
X036575Y036466D02*
X036394Y036466D01*
X036266Y036339D01*
X036266Y036158D01*
X036394Y036030D01*
X036575Y036030D01*
X036703Y036158D01*
X036703Y036339D01*
X036575Y036466D01*
X036656Y036386D02*
X039482Y036386D01*
X039489Y036308D02*
X036703Y036308D01*
X036703Y036231D02*
X039521Y036231D01*
X039569Y036154D02*
X036699Y036154D01*
X036622Y036077D02*
X039646Y036077D01*
X040229Y035922D02*
X042250Y035922D01*
X042250Y035845D02*
X040306Y035845D01*
X040325Y035768D02*
X041717Y035768D01*
X041603Y035690D02*
X040325Y035690D01*
X040292Y035613D02*
X041535Y035613D01*
X041503Y035536D02*
X040215Y035536D01*
X040049Y035459D02*
X041482Y035459D01*
X041482Y035382D02*
X040021Y035382D01*
X040020Y035304D02*
X041491Y035304D01*
X041523Y035227D02*
X040049Y035227D01*
X040049Y035150D02*
X041573Y035150D01*
X041651Y035073D02*
X040027Y035073D01*
X039975Y034995D02*
X042250Y034995D01*
X042250Y034918D02*
X040010Y034918D01*
X040010Y034841D02*
X041006Y034841D01*
X040880Y034764D02*
X040089Y034764D01*
X040166Y034686D02*
X040824Y034686D01*
X040794Y034609D02*
X040167Y034609D01*
X040167Y034532D02*
X040794Y034532D01*
X040794Y034455D02*
X040118Y034455D01*
X040041Y034377D02*
X040794Y034377D01*
X040794Y033682D02*
X039340Y033682D01*
X039340Y033605D02*
X040794Y033605D01*
X040794Y033528D02*
X039750Y033528D01*
X039827Y033451D02*
X040794Y033451D01*
X040794Y033373D02*
X039852Y033373D01*
X039852Y033296D02*
X040794Y033296D01*
X040794Y033219D02*
X039827Y033219D01*
X039713Y033098D02*
X039280Y033098D01*
X037744Y031563D01*
X037744Y031327D01*
X037469Y031051D01*
X037350Y031051D01*
X037132Y031056D02*
X035757Y031056D01*
X035757Y030979D02*
X037132Y030979D01*
X037191Y030902D02*
X035757Y030902D01*
X035757Y030824D02*
X039512Y030824D01*
X039494Y030843D02*
X039622Y030715D01*
X039803Y030715D01*
X039931Y030843D01*
X039931Y031024D01*
X039803Y031151D01*
X039622Y031151D01*
X039494Y031024D01*
X039494Y030843D01*
X039494Y030902D02*
X037510Y030902D01*
X037592Y030979D02*
X039494Y030979D01*
X039527Y031056D02*
X037670Y031056D01*
X037747Y031133D02*
X039604Y031133D01*
X039472Y031211D02*
X040794Y031211D01*
X040794Y031288D02*
X039537Y031288D01*
X039537Y031276D02*
X039409Y031148D01*
X039228Y031148D01*
X039100Y031276D01*
X039100Y031457D01*
X039138Y031494D01*
X039022Y031610D01*
X039022Y031791D01*
X039150Y031919D01*
X039331Y031919D01*
X039459Y031791D01*
X039459Y031610D01*
X039421Y031573D01*
X039537Y031457D01*
X039537Y031276D01*
X039537Y031365D02*
X040794Y031365D01*
X040794Y031442D02*
X039537Y031442D01*
X039474Y031520D02*
X040794Y031520D01*
X040794Y031597D02*
X039445Y031597D01*
X039459Y031674D02*
X040794Y031674D01*
X040794Y031751D02*
X040210Y031751D01*
X040197Y031738D02*
X040325Y031866D01*
X040325Y032047D01*
X040197Y032175D01*
X040016Y032175D01*
X039888Y032047D01*
X039888Y031866D01*
X040016Y031738D01*
X040197Y031738D01*
X040287Y031828D02*
X040794Y031828D01*
X040794Y031906D02*
X040325Y031906D01*
X040325Y031983D02*
X040794Y031983D01*
X040794Y032060D02*
X040312Y032060D01*
X040234Y032137D02*
X040794Y032137D01*
X040794Y032215D02*
X038592Y032215D01*
X038669Y032292D02*
X040794Y032292D01*
X040794Y032369D02*
X038746Y032369D01*
X038824Y032446D02*
X040794Y032446D01*
X040794Y032524D02*
X038901Y032524D01*
X038978Y032601D02*
X040794Y032601D01*
X040794Y032678D02*
X039680Y032678D01*
X039430Y032678D02*
X039055Y032678D01*
X039133Y032755D02*
X039353Y032755D01*
X039337Y032833D02*
X039210Y032833D01*
X039287Y032910D02*
X039337Y032910D01*
X039713Y033098D02*
X039870Y032941D01*
X040089Y032910D02*
X040794Y032910D01*
X040794Y032987D02*
X040089Y032987D01*
X040056Y033064D02*
X040794Y033064D01*
X040794Y033142D02*
X039978Y033142D01*
X040071Y032833D02*
X040794Y032833D01*
X040794Y032755D02*
X039993Y032755D01*
X039978Y032137D02*
X038515Y032137D01*
X038437Y032060D02*
X039901Y032060D01*
X039888Y031983D02*
X038499Y031983D01*
X038553Y031906D02*
X039136Y031906D01*
X039059Y031828D02*
X038553Y031828D01*
X038553Y031751D02*
X039022Y031751D01*
X039022Y031674D02*
X038493Y031674D01*
X038553Y031597D02*
X039035Y031597D01*
X039113Y031520D02*
X038553Y031520D01*
X038553Y031442D02*
X039100Y031442D01*
X039100Y031365D02*
X038485Y031365D01*
X038184Y031365D02*
X037883Y031365D01*
X037883Y031288D02*
X039100Y031288D01*
X039166Y031211D02*
X037824Y031211D01*
X037883Y031442D02*
X038116Y031442D01*
X038116Y031520D02*
X037897Y031520D01*
X037974Y031597D02*
X038116Y031597D01*
X038176Y031674D02*
X038051Y031674D01*
X037587Y031602D02*
X037587Y031406D01*
X037469Y031287D01*
X037154Y031287D01*
X036999Y031133D02*
X035757Y031133D01*
X035757Y031211D02*
X036935Y031211D01*
X036935Y031288D02*
X035757Y031288D01*
X035757Y031365D02*
X036935Y031365D01*
X037000Y031442D02*
X035757Y031442D01*
X035740Y031520D02*
X037132Y031520D01*
X037008Y031597D02*
X035662Y031597D01*
X035585Y031674D02*
X036935Y031674D01*
X036935Y031751D02*
X035345Y031751D01*
X035246Y031828D02*
X036935Y031828D01*
X036991Y031906D02*
X035246Y031906D01*
X035028Y031878D02*
X034949Y031799D01*
X034949Y031484D01*
X035303Y031130D01*
X035303Y030461D01*
X035697Y030067D01*
X037783Y030067D01*
X038059Y029791D01*
X038059Y029083D01*
X039634Y027508D01*
X039752Y027508D01*
X039713Y027232D02*
X037902Y029043D01*
X037902Y029201D01*
X037508Y029594D01*
X037508Y029713D01*
X037823Y030224D02*
X035736Y030224D01*
X035461Y030500D01*
X035461Y031287D01*
X035382Y031366D01*
X035618Y031445D02*
X035618Y030539D01*
X035776Y030382D01*
X037862Y030382D01*
X038374Y029870D01*
X038374Y029161D01*
X039437Y028098D01*
X039555Y028098D01*
X039687Y028275D02*
X039817Y028275D01*
X039858Y028471D02*
X040039Y028471D01*
X040167Y028599D01*
X040167Y028779D01*
X040061Y028886D01*
X040089Y028913D01*
X040089Y029094D01*
X039982Y029201D01*
X040010Y029228D01*
X040010Y029409D01*
X039882Y029537D01*
X039774Y029537D01*
X039774Y029606D01*
X039646Y029734D01*
X039465Y029734D01*
X039337Y029606D01*
X039337Y029425D01*
X039465Y029297D01*
X039573Y029297D01*
X039573Y029228D01*
X039679Y029122D01*
X039652Y029094D01*
X039652Y028913D01*
X039758Y028807D01*
X039730Y028779D01*
X039730Y028599D01*
X039858Y028471D01*
X039822Y028507D02*
X039225Y028507D01*
X039147Y028584D02*
X039745Y028584D01*
X039730Y028662D02*
X039070Y028662D01*
X039118Y028739D02*
X038993Y028739D01*
X039061Y028795D02*
X039189Y028667D01*
X039370Y028667D01*
X039498Y028795D01*
X039498Y028976D01*
X039370Y029104D01*
X039189Y029104D01*
X039061Y028976D01*
X039061Y028795D01*
X039061Y028816D02*
X038916Y028816D01*
X038838Y028893D02*
X039061Y028893D01*
X039061Y028971D02*
X038761Y028971D01*
X038684Y029048D02*
X039133Y029048D01*
X039426Y029048D02*
X039652Y029048D01*
X039652Y028971D02*
X039498Y028971D01*
X039498Y028893D02*
X039672Y028893D01*
X039749Y028816D02*
X039498Y028816D01*
X039441Y028739D02*
X039730Y028739D01*
X040068Y028893D02*
X040794Y028893D01*
X040794Y028816D02*
X040131Y028816D01*
X040167Y028739D02*
X040794Y028739D01*
X040794Y028662D02*
X040167Y028662D01*
X040153Y028584D02*
X040794Y028584D01*
X040794Y028507D02*
X040076Y028507D01*
X040089Y028971D02*
X040794Y028971D01*
X040794Y029048D02*
X040089Y029048D01*
X040058Y029125D02*
X040794Y029125D01*
X040794Y029202D02*
X039984Y029202D01*
X040010Y029280D02*
X040794Y029280D01*
X040794Y029357D02*
X040010Y029357D01*
X039985Y029434D02*
X040794Y029434D01*
X040794Y029511D02*
X039908Y029511D01*
X039774Y029588D02*
X040794Y029588D01*
X040794Y029666D02*
X039714Y029666D01*
X039396Y029666D02*
X039183Y029666D01*
X039183Y029661D02*
X039055Y029534D01*
X038874Y029534D01*
X038746Y029661D01*
X038746Y029842D01*
X038874Y029970D01*
X039055Y029970D01*
X039183Y029842D01*
X039183Y029661D01*
X039183Y029743D02*
X040794Y029743D01*
X040794Y029820D02*
X039183Y029820D01*
X039128Y029897D02*
X039967Y029897D01*
X040016Y029849D02*
X040197Y029849D01*
X040325Y029976D01*
X040325Y030157D01*
X040197Y030285D01*
X040016Y030285D01*
X039888Y030157D01*
X039888Y029976D01*
X040016Y029849D01*
X039890Y029975D02*
X038466Y029975D01*
X038513Y029897D02*
X038801Y029897D01*
X038746Y029820D02*
X038513Y029820D01*
X038513Y029743D02*
X038746Y029743D01*
X038746Y029666D02*
X038513Y029666D01*
X038513Y029588D02*
X038819Y029588D01*
X039110Y029588D02*
X039337Y029588D01*
X039337Y029511D02*
X038513Y029511D01*
X038513Y029434D02*
X039337Y029434D01*
X039405Y029357D02*
X038513Y029357D01*
X038513Y029280D02*
X039573Y029280D01*
X039599Y029202D02*
X038529Y029202D01*
X038607Y029125D02*
X039676Y029125D01*
X039888Y030052D02*
X038388Y030052D01*
X038311Y030129D02*
X039888Y030129D01*
X039937Y030206D02*
X039374Y030206D01*
X039370Y030203D02*
X039498Y030331D01*
X039498Y030512D01*
X039370Y030640D01*
X039189Y030640D01*
X039061Y030512D01*
X039061Y030331D01*
X039189Y030203D01*
X039370Y030203D01*
X039451Y030284D02*
X040014Y030284D01*
X040198Y030284D02*
X040794Y030284D01*
X040794Y030361D02*
X039498Y030361D01*
X039498Y030438D02*
X040794Y030438D01*
X040794Y030515D02*
X039494Y030515D01*
X039417Y030593D02*
X040794Y030593D01*
X040794Y030670D02*
X038198Y030670D01*
X038238Y030593D02*
X039142Y030593D01*
X039065Y030515D02*
X038238Y030515D01*
X038227Y030438D02*
X039061Y030438D01*
X039061Y030361D02*
X038150Y030361D01*
X038157Y030284D02*
X039108Y030284D01*
X039185Y030206D02*
X038234Y030206D01*
X038217Y029831D02*
X037823Y030224D01*
X037801Y030593D02*
X035761Y030593D01*
X035757Y030670D02*
X037841Y030670D01*
X037919Y030747D02*
X035757Y030747D01*
X035007Y030747D02*
X034618Y030747D01*
X034618Y030670D02*
X035007Y030670D01*
X035007Y030593D02*
X034618Y030593D01*
X034618Y030515D02*
X035007Y030515D01*
X035007Y030438D02*
X034774Y030438D01*
X034964Y030361D02*
X035010Y030361D01*
X035041Y030284D02*
X035087Y030284D01*
X035089Y030206D02*
X035164Y030206D01*
X035089Y030129D02*
X035242Y030129D01*
X035319Y030052D02*
X035085Y030052D01*
X035008Y029975D02*
X035396Y029975D01*
X035007Y030824D02*
X034618Y030824D01*
X034319Y030736D02*
X034319Y030689D01*
X034319Y030736D02*
X033925Y030736D01*
X034069Y030902D02*
X035007Y030902D01*
X034907Y031133D02*
X033631Y031133D01*
X033631Y031211D02*
X034829Y031211D01*
X034752Y031288D02*
X033631Y031288D01*
X033631Y031365D02*
X034675Y031365D01*
X034653Y031442D02*
X033631Y031442D01*
X033631Y031520D02*
X034653Y031520D01*
X034653Y031597D02*
X033631Y031597D01*
X033631Y031674D02*
X034653Y031674D01*
X034653Y031751D02*
X033631Y031751D01*
X033631Y031828D02*
X034653Y031828D01*
X034653Y031906D02*
X033570Y031906D01*
X033493Y031983D02*
X034653Y031983D01*
X034653Y032060D02*
X033416Y032060D01*
X033338Y032137D02*
X033790Y032137D01*
X033713Y032215D02*
X033261Y032215D01*
X033256Y032292D02*
X033667Y032292D01*
X033667Y032369D02*
X033270Y032369D01*
X033270Y032446D02*
X033673Y032446D01*
X033719Y032524D02*
X033254Y032524D01*
X033222Y032601D02*
X033667Y032601D01*
X033667Y032678D02*
X033162Y032678D01*
X033065Y032755D02*
X033667Y032755D01*
X033744Y032833D02*
X031506Y032833D01*
X031506Y032910D02*
X034666Y032910D01*
X034743Y032833D02*
X034027Y032833D01*
X034104Y032755D02*
X034770Y032755D01*
X034785Y032678D02*
X034104Y032678D01*
X034104Y032601D02*
X034862Y032601D01*
X034988Y032783D02*
X034634Y033138D01*
X034634Y034663D01*
X035441Y035470D01*
X035758Y035459D02*
X036610Y035459D01*
X036541Y035536D02*
X035757Y035536D01*
X035725Y035613D02*
X036541Y035613D01*
X036541Y035690D02*
X035670Y035690D01*
X035735Y035768D02*
X036601Y035768D01*
X036347Y036077D02*
X035784Y036077D01*
X035798Y035999D02*
X041716Y035999D01*
X041711Y036001D02*
X041776Y035980D01*
X041839Y035970D01*
X041839Y036366D01*
X041443Y036366D01*
X041452Y036303D01*
X041474Y036238D01*
X041505Y036177D01*
X041545Y036121D01*
X041594Y036073D01*
X041649Y036032D01*
X041711Y036001D01*
X041839Y035999D02*
X041917Y035999D01*
X041917Y036077D02*
X041839Y036077D01*
X041839Y036154D02*
X041917Y036154D01*
X041917Y036231D02*
X041839Y036231D01*
X041839Y036308D02*
X041917Y036308D01*
X041839Y036386D02*
X041274Y036386D01*
X041274Y036463D02*
X041445Y036463D01*
X041463Y036540D02*
X041251Y036540D01*
X041219Y036617D02*
X041496Y036617D01*
X041550Y036695D02*
X041149Y036695D01*
X041029Y036772D02*
X041640Y036772D01*
X041452Y036308D02*
X041267Y036308D01*
X041235Y036231D02*
X041477Y036231D01*
X041522Y036154D02*
X041187Y036154D01*
X041109Y036077D02*
X041590Y036077D01*
X042040Y035999D02*
X042250Y035999D01*
X042250Y036077D02*
X042166Y036077D01*
X042234Y036154D02*
X042250Y036154D01*
X042250Y035768D02*
X042039Y035768D01*
X042153Y035690D02*
X042250Y035690D01*
X042250Y035613D02*
X042221Y035613D01*
X042233Y035227D02*
X042250Y035227D01*
X042250Y035150D02*
X042183Y035150D01*
X042250Y035073D02*
X042105Y035073D01*
X042250Y034841D02*
X041443Y034841D01*
X041560Y034764D02*
X041707Y034764D01*
X042049Y034764D02*
X042250Y034764D01*
X042250Y034686D02*
X042157Y034686D01*
X042222Y034609D02*
X042250Y034609D01*
X039857Y034377D02*
X039495Y034377D01*
X039418Y034300D02*
X039677Y034300D01*
X039591Y034223D02*
X039340Y034223D01*
X039340Y034146D02*
X039552Y034146D01*
X039534Y034068D02*
X039340Y034068D01*
X039340Y033991D02*
X039534Y033991D01*
X039564Y033914D02*
X039340Y033914D01*
X039340Y033837D02*
X039618Y033837D01*
X039742Y033759D02*
X039340Y033759D01*
X039340Y033528D02*
X039518Y033528D01*
X039634Y033335D02*
X039319Y033335D01*
X037587Y031602D01*
X037350Y031563D02*
X037350Y031524D01*
X037350Y031563D02*
X039201Y033413D01*
X039201Y034280D01*
X039791Y034870D01*
X039727Y034609D02*
X039730Y034609D01*
X039730Y034532D02*
X039649Y034532D01*
X039572Y034455D02*
X039780Y034455D01*
X039369Y034841D02*
X038355Y034841D01*
X038355Y034918D02*
X039416Y034918D01*
X039416Y034995D02*
X038355Y034995D01*
X038355Y035073D02*
X039416Y035073D01*
X039416Y035150D02*
X038355Y035150D01*
X038355Y035227D02*
X039416Y035227D01*
X039439Y035304D02*
X038317Y035304D01*
X038277Y035382D02*
X039516Y035382D01*
X039593Y035459D02*
X038277Y035459D01*
X038138Y034919D02*
X038098Y034919D01*
X038098Y034161D01*
X037960Y033991D02*
X037922Y033991D01*
X037783Y034161D02*
X037783Y034919D01*
X037744Y034919D01*
X037527Y034918D02*
X035758Y034918D01*
X035758Y034995D02*
X037527Y034995D01*
X037527Y035073D02*
X035742Y035073D01*
X035710Y035150D02*
X037527Y035150D01*
X037527Y035227D02*
X035647Y035227D01*
X035731Y034841D02*
X037527Y034841D01*
X037527Y034764D02*
X035683Y034764D01*
X035585Y034686D02*
X037527Y034686D01*
X037527Y034609D02*
X034776Y034609D01*
X034773Y034532D02*
X037568Y034532D01*
X037645Y034455D02*
X034773Y034455D01*
X034773Y034377D02*
X037645Y034377D01*
X037613Y034300D02*
X035591Y034300D01*
X035590Y034301D02*
X035410Y034301D01*
X035282Y034173D01*
X035282Y033992D01*
X035410Y033864D01*
X035590Y033864D01*
X035718Y033992D01*
X035718Y034173D01*
X035590Y034301D01*
X035669Y034223D02*
X037565Y034223D01*
X037565Y034146D02*
X035718Y034146D01*
X035718Y034068D02*
X037568Y034068D01*
X037645Y033991D02*
X035717Y033991D01*
X035640Y033914D02*
X038905Y033914D01*
X038905Y033991D02*
X038237Y033991D01*
X038314Y034068D02*
X038905Y034068D01*
X038905Y034146D02*
X038317Y034146D01*
X038317Y034223D02*
X038905Y034223D01*
X038905Y034300D02*
X038269Y034300D01*
X038237Y034377D02*
X038906Y034377D01*
X038983Y034455D02*
X038237Y034455D01*
X038314Y034532D02*
X039060Y034532D01*
X039137Y034609D02*
X038355Y034609D01*
X038355Y034686D02*
X039215Y034686D01*
X039292Y034764D02*
X038355Y034764D01*
X038905Y033837D02*
X035089Y033837D01*
X035089Y033914D02*
X035360Y033914D01*
X035283Y033991D02*
X035074Y033991D01*
X034996Y034068D02*
X035282Y034068D01*
X035282Y034146D02*
X034773Y034146D01*
X034773Y034223D02*
X035331Y034223D01*
X035409Y034300D02*
X034773Y034300D01*
X034495Y034300D02*
X034353Y034300D01*
X034354Y034303D02*
X034357Y034306D01*
X034357Y034318D01*
X034359Y034331D01*
X034357Y034334D01*
X034357Y034382D01*
X034359Y034386D01*
X034357Y034398D01*
X034357Y034411D01*
X034354Y034414D01*
X034345Y034461D01*
X034346Y034465D01*
X034342Y034477D01*
X034340Y034489D01*
X034336Y034492D01*
X034319Y034537D01*
X034320Y034541D01*
X034313Y034551D01*
X034308Y034563D01*
X034305Y034565D01*
X034279Y034606D01*
X034279Y034610D01*
X034271Y034619D01*
X034264Y034630D01*
X034260Y034631D01*
X034228Y034667D01*
X034227Y034671D01*
X034217Y034678D01*
X034209Y034688D01*
X034204Y034688D01*
X034166Y034717D01*
X034165Y034721D01*
X034153Y034727D01*
X034143Y034734D01*
X034139Y034734D01*
X034096Y034755D01*
X034094Y034759D01*
X034082Y034762D01*
X034070Y034768D01*
X034066Y034767D01*
X034020Y034780D01*
X034017Y034783D01*
X034005Y034784D01*
X033993Y034788D01*
X033989Y034786D01*
X033943Y034790D01*
X033942Y034791D01*
X033939Y034791D01*
X033938Y034793D01*
X033925Y034792D01*
X033913Y034793D01*
X033911Y034791D01*
X033909Y034791D01*
X033907Y034790D01*
X033861Y034786D01*
X033858Y034788D01*
X033846Y034784D01*
X033833Y034783D01*
X033830Y034780D01*
X033784Y034767D01*
X033780Y034768D01*
X033769Y034762D01*
X033757Y034759D01*
X033755Y034755D01*
X033711Y034734D01*
X033707Y034734D01*
X033697Y034727D01*
X033686Y034721D01*
X033684Y034717D01*
X033646Y034688D01*
X033642Y034688D01*
X033633Y034678D01*
X033623Y034671D01*
X033623Y034667D01*
X033590Y034631D01*
X033586Y034630D01*
X033579Y034619D01*
X033571Y034610D01*
X033571Y034606D01*
X033546Y034565D01*
X033542Y034563D01*
X033537Y034551D01*
X033531Y034541D01*
X033532Y034537D01*
X033514Y034492D01*
X033511Y034489D01*
X033508Y034477D01*
X033504Y034465D01*
X033506Y034461D01*
X033497Y034414D01*
X033494Y034411D01*
X033494Y034398D01*
X033491Y034386D01*
X033494Y034382D01*
X033494Y034334D01*
X033491Y034331D01*
X033494Y034318D01*
X033494Y034306D01*
X033497Y034303D01*
X033506Y034255D01*
X033504Y034252D01*
X033508Y034240D01*
X033511Y034227D01*
X033514Y034225D01*
X033532Y034180D01*
X033531Y034176D01*
X033537Y034165D01*
X033542Y034153D01*
X033546Y034152D01*
X033571Y034111D01*
X033571Y034107D01*
X033579Y034097D01*
X033586Y034086D01*
X033590Y034085D01*
X033623Y034050D01*
X033623Y034046D01*
X033633Y034038D01*
X033642Y034029D01*
X033646Y034029D01*
X033684Y033999D01*
X033686Y033996D01*
X033697Y033990D01*
X033707Y033982D01*
X033711Y033983D01*
X033755Y033961D01*
X033757Y033958D01*
X033769Y033954D01*
X033780Y033949D01*
X033784Y033950D01*
X033830Y033937D01*
X033833Y033934D01*
X033846Y033932D01*
X033858Y033929D01*
X033861Y033931D01*
X033907Y033927D01*
X033909Y033925D01*
X033911Y033925D01*
X033913Y033924D01*
X033925Y033925D01*
X033938Y033924D01*
X033939Y033925D01*
X033942Y033925D01*
X033943Y033927D01*
X033989Y033931D01*
X033993Y033929D01*
X034005Y033932D01*
X034017Y033934D01*
X034020Y033937D01*
X034066Y033950D01*
X034070Y033949D01*
X034082Y033954D01*
X034094Y033958D01*
X034096Y033961D01*
X034139Y033983D01*
X034143Y033982D01*
X034153Y033990D01*
X034165Y033996D01*
X034166Y033999D01*
X034204Y034029D01*
X034209Y034029D01*
X034217Y034038D01*
X034227Y034046D01*
X034228Y034050D01*
X034260Y034085D01*
X034264Y034086D01*
X034271Y034097D01*
X034279Y034107D01*
X034279Y034111D01*
X034305Y034152D01*
X034308Y034153D01*
X034313Y034165D01*
X034320Y034176D01*
X034319Y034180D01*
X034336Y034225D01*
X034340Y034227D01*
X034342Y034240D01*
X034346Y034252D01*
X034345Y034255D01*
X034354Y034303D01*
X034357Y034377D02*
X034495Y034377D01*
X034495Y034455D02*
X034346Y034455D01*
X034321Y034532D02*
X034495Y034532D01*
X034495Y034609D02*
X034279Y034609D01*
X034210Y034686D02*
X034495Y034686D01*
X034538Y034764D02*
X034079Y034764D01*
X033994Y034500D02*
X034023Y034481D01*
X034048Y034456D01*
X034067Y034427D01*
X034079Y034393D01*
X034083Y034358D01*
X034079Y034323D01*
X034067Y034290D01*
X034048Y034260D01*
X034023Y034235D01*
X033994Y034216D01*
X033960Y034205D01*
X033925Y034201D01*
X033890Y034205D01*
X033857Y034216D01*
X033827Y034235D01*
X033802Y034260D01*
X033783Y034290D01*
X033772Y034323D01*
X033768Y034358D01*
X033772Y034393D01*
X033783Y034427D01*
X033802Y034456D01*
X033827Y034481D01*
X033857Y034500D01*
X033890Y034512D01*
X033925Y034516D01*
X033960Y034512D01*
X033994Y034500D01*
X034049Y034455D02*
X033801Y034455D01*
X033770Y034377D02*
X034081Y034377D01*
X034071Y034300D02*
X033780Y034300D01*
X033846Y034223D02*
X034004Y034223D01*
X034156Y033991D02*
X034495Y033991D01*
X034495Y033914D02*
X031506Y033914D01*
X031506Y033991D02*
X033695Y033991D01*
X033606Y034068D02*
X031506Y034068D01*
X031506Y034146D02*
X033549Y034146D01*
X033515Y034223D02*
X031506Y034223D01*
X031506Y034300D02*
X033497Y034300D01*
X033494Y034377D02*
X031506Y034377D01*
X031506Y034455D02*
X033504Y034455D01*
X033530Y034532D02*
X031506Y034532D01*
X031506Y033837D02*
X031812Y033837D01*
X031839Y033837D02*
X031917Y033837D01*
X031917Y033841D02*
X031917Y033445D01*
X032313Y033445D01*
X032303Y033508D01*
X032282Y033573D01*
X032251Y033634D01*
X032211Y033690D01*
X032162Y033738D01*
X032107Y033779D01*
X032045Y033810D01*
X031980Y033831D01*
X031917Y033841D01*
X031944Y033837D02*
X032808Y033837D01*
X032835Y033837D02*
X032913Y033837D01*
X032913Y033841D02*
X032913Y033445D01*
X032835Y033445D01*
X032835Y033841D01*
X032772Y033831D01*
X032707Y033810D01*
X032645Y033779D01*
X032590Y033738D01*
X032541Y033690D01*
X032501Y033634D01*
X032470Y033573D01*
X032449Y033508D01*
X032439Y033445D01*
X032835Y033445D01*
X032835Y033366D01*
X032913Y033366D01*
X032913Y032970D01*
X032976Y032980D01*
X033041Y033001D01*
X033103Y033032D01*
X033158Y033073D01*
X033207Y033121D01*
X033247Y033177D01*
X033278Y033238D01*
X033299Y033303D01*
X033309Y033366D01*
X032913Y033366D01*
X032913Y033445D01*
X033309Y033445D01*
X033299Y033508D01*
X033278Y033573D01*
X033247Y033634D01*
X033207Y033690D01*
X033158Y033738D01*
X033103Y033779D01*
X033041Y033810D01*
X032976Y033831D01*
X032913Y033841D01*
X032940Y033837D02*
X034495Y033837D01*
X034495Y033759D02*
X033129Y033759D01*
X033212Y033682D02*
X034495Y033682D01*
X034495Y033605D02*
X033688Y033605D01*
X033661Y033632D02*
X033789Y033504D01*
X033789Y033323D01*
X033661Y033195D01*
X033480Y033195D01*
X033352Y033323D01*
X033352Y033504D01*
X033480Y033632D01*
X033661Y033632D01*
X033765Y033528D02*
X034495Y033528D01*
X034495Y033451D02*
X033789Y033451D01*
X033789Y033373D02*
X034495Y033373D01*
X034495Y033296D02*
X033762Y033296D01*
X033685Y033219D02*
X034495Y033219D01*
X034495Y033142D02*
X033221Y033142D01*
X033268Y033219D02*
X033457Y033219D01*
X033379Y033296D02*
X033297Y033296D01*
X033352Y033373D02*
X032913Y033373D01*
X032913Y033296D02*
X032835Y033296D01*
X032835Y033366D02*
X032835Y032970D01*
X032772Y032980D01*
X032707Y033001D01*
X032645Y033032D01*
X032590Y033073D01*
X032541Y033121D01*
X032501Y033177D01*
X032470Y033238D01*
X032449Y033303D01*
X032439Y033366D01*
X032835Y033366D01*
X032835Y033373D02*
X031917Y033373D01*
X031917Y033296D02*
X031839Y033296D01*
X031839Y033219D02*
X031917Y033219D01*
X031917Y033142D02*
X031839Y033142D01*
X031839Y033064D02*
X031917Y033064D01*
X031917Y032987D02*
X031839Y032987D01*
X031754Y032987D02*
X031506Y032987D01*
X031506Y033064D02*
X031605Y033064D01*
X031531Y033142D02*
X031506Y033142D01*
X031506Y032755D02*
X031687Y032755D01*
X031590Y032678D02*
X031506Y032678D01*
X031506Y032601D02*
X031530Y032601D01*
X032069Y032755D02*
X032683Y032755D01*
X032750Y032987D02*
X032002Y032987D01*
X032150Y033064D02*
X032601Y033064D01*
X032527Y033142D02*
X032225Y033142D01*
X032272Y033219D02*
X032480Y033219D01*
X032451Y033296D02*
X032301Y033296D01*
X032312Y033451D02*
X032439Y033451D01*
X032455Y033528D02*
X032297Y033528D01*
X032266Y033605D02*
X032486Y033605D01*
X032536Y033682D02*
X032216Y033682D01*
X032133Y033759D02*
X032619Y033759D01*
X032835Y033759D02*
X032913Y033759D01*
X032913Y033682D02*
X032835Y033682D01*
X032835Y033605D02*
X032913Y033605D01*
X032913Y033528D02*
X032835Y033528D01*
X032835Y033451D02*
X032913Y033451D01*
X032913Y033219D02*
X032835Y033219D01*
X032835Y033142D02*
X032913Y033142D01*
X032913Y033064D02*
X032835Y033064D01*
X032835Y032987D02*
X032913Y032987D01*
X032998Y032987D02*
X034588Y032987D01*
X034511Y033064D02*
X033147Y033064D01*
X033309Y033451D02*
X033352Y033451D01*
X033376Y033528D02*
X033293Y033528D01*
X033262Y033605D02*
X033454Y033605D01*
X034245Y034068D02*
X034495Y034068D01*
X034495Y034146D02*
X034301Y034146D01*
X034335Y034223D02*
X034495Y034223D01*
X034853Y034686D02*
X035297Y034686D01*
X035199Y034764D02*
X034930Y034764D01*
X035008Y034841D02*
X035151Y034841D01*
X035123Y034918D02*
X035085Y034918D01*
X034924Y035150D02*
X033481Y035150D01*
X033532Y035227D02*
X035001Y035227D01*
X035079Y035304D02*
X033573Y035304D01*
X033612Y035382D02*
X035134Y035382D01*
X035123Y035459D02*
X033641Y035459D01*
X033668Y035536D02*
X035124Y035536D01*
X035156Y035613D02*
X033689Y035613D01*
X033704Y035690D02*
X035212Y035690D01*
X035146Y035768D02*
X033718Y035768D01*
X033723Y035845D02*
X035106Y035845D01*
X035086Y035922D02*
X033728Y035922D01*
X033728Y035999D02*
X035083Y035999D01*
X035098Y036077D02*
X033728Y036077D01*
X033728Y036154D02*
X035134Y036154D01*
X035196Y036231D02*
X033728Y036231D01*
X033728Y036308D02*
X035164Y036308D01*
X035132Y036386D02*
X033728Y036386D01*
X033728Y036463D02*
X035123Y036463D01*
X035126Y036540D02*
X033728Y036540D01*
X033728Y036617D02*
X035158Y036617D01*
X035216Y036695D02*
X033728Y036695D01*
X033728Y036772D02*
X035339Y036772D01*
X035758Y036463D02*
X036390Y036463D01*
X036313Y036386D02*
X035749Y036386D01*
X035717Y036308D02*
X036266Y036308D01*
X036266Y036231D02*
X035686Y036231D01*
X035748Y036154D02*
X036269Y036154D01*
X034847Y035073D02*
X033425Y035073D01*
X033357Y034995D02*
X034770Y034995D01*
X034692Y034918D02*
X033278Y034918D01*
X033190Y034841D02*
X034615Y034841D01*
X033771Y034764D02*
X033075Y034764D01*
X032931Y034686D02*
X033641Y034686D01*
X033571Y034609D02*
X032728Y034609D01*
X031917Y033759D02*
X031839Y033759D01*
X031839Y033682D02*
X031917Y033682D01*
X031917Y033605D02*
X031839Y033605D01*
X031839Y033528D02*
X031917Y033528D01*
X031917Y033451D02*
X031839Y033451D01*
X031623Y033759D02*
X031506Y033759D01*
X031506Y033682D02*
X031540Y033682D01*
X034773Y033605D02*
X038905Y033605D01*
X038905Y033682D02*
X034975Y033682D01*
X035053Y033759D02*
X038905Y033759D01*
X038905Y033528D02*
X034773Y033528D01*
X034773Y033451D02*
X038845Y033451D01*
X038768Y033373D02*
X034773Y033373D01*
X034826Y033142D02*
X035825Y033142D01*
X035754Y033064D02*
X034904Y033064D01*
X035093Y032987D02*
X035754Y032987D01*
X035632Y032910D02*
X035171Y032910D01*
X035207Y032833D02*
X035557Y032833D01*
X035557Y032755D02*
X035207Y032755D01*
X035192Y032678D02*
X035557Y032678D01*
X035610Y032601D02*
X035114Y032601D01*
X035041Y032292D02*
X036746Y032292D01*
X037057Y032755D02*
X037070Y032755D01*
X037587Y032987D02*
X038381Y032987D01*
X038459Y033064D02*
X037648Y033064D01*
X037648Y033142D02*
X038536Y033142D01*
X038613Y033219D02*
X037648Y033219D01*
X037580Y033296D02*
X038690Y033296D01*
X039344Y031906D02*
X039888Y031906D01*
X039926Y031828D02*
X039421Y031828D01*
X039459Y031751D02*
X040003Y031751D01*
X039821Y031133D02*
X040794Y031133D01*
X040794Y031056D02*
X039899Y031056D01*
X039931Y030979D02*
X040794Y030979D01*
X040794Y030902D02*
X039931Y030902D01*
X039913Y030824D02*
X040794Y030824D01*
X040794Y030747D02*
X039836Y030747D01*
X039590Y030747D02*
X038121Y030747D01*
X038217Y029831D02*
X038217Y029122D01*
X039516Y027823D01*
X039713Y027823D01*
X039713Y027232D02*
X039870Y027232D01*
X039512Y027040D02*
X037545Y027040D01*
X037623Y027117D02*
X037984Y027117D01*
X037919Y027194D02*
X037648Y027194D01*
X037648Y027271D02*
X037919Y027271D01*
X037919Y027349D02*
X037622Y027349D01*
X037545Y027426D02*
X037983Y027426D01*
X038356Y027349D02*
X039203Y027349D01*
X039281Y027271D02*
X038356Y027271D01*
X038356Y027194D02*
X039358Y027194D01*
X039435Y027117D02*
X038292Y027117D01*
X038894Y027657D02*
X037597Y027657D01*
X037512Y027580D02*
X038972Y027580D01*
X039298Y026499D02*
X040794Y026499D01*
X040794Y026422D02*
X039375Y026422D01*
X039419Y026344D02*
X040794Y026344D01*
X040794Y026267D02*
X039419Y026267D01*
X039412Y026190D02*
X040794Y026190D01*
X040794Y026113D02*
X039335Y026113D01*
X040224Y024801D02*
X040382Y024801D01*
X040392Y024791D01*
X040946Y024182D02*
X040958Y024182D01*
X041023Y024104D02*
X041035Y024104D01*
X041033Y024027D02*
X041227Y024027D01*
X041227Y023950D02*
X041033Y023950D01*
X040993Y023873D02*
X041227Y023873D01*
X041227Y023795D02*
X040915Y023795D01*
X040976Y023718D02*
X041227Y023718D01*
X041227Y023641D02*
X041054Y023641D01*
X041073Y023564D02*
X041227Y023564D01*
X041227Y023487D02*
X041073Y023487D01*
X041041Y023409D02*
X041227Y023409D01*
X041227Y023332D02*
X041048Y023332D01*
X041112Y023255D02*
X041227Y023255D01*
X041227Y023178D02*
X041112Y023178D01*
X041112Y023100D02*
X041227Y023100D01*
X041187Y023023D02*
X041048Y023023D01*
X040894Y023177D02*
X040392Y023177D01*
X040392Y023217D01*
X040392Y023610D02*
X040776Y023610D01*
X040854Y023531D01*
X041224Y024104D02*
X041227Y024104D01*
X039987Y023718D02*
X039459Y023718D01*
X039459Y023641D02*
X039987Y023641D01*
X039987Y023564D02*
X039424Y023564D01*
X039347Y023487D02*
X039987Y023487D01*
X040021Y023409D02*
X038592Y023409D01*
X038592Y023332D02*
X039987Y023332D01*
X039987Y023255D02*
X038592Y023255D01*
X038526Y023178D02*
X039987Y023178D01*
X040646Y022482D02*
X038332Y022482D01*
X038332Y022405D02*
X040569Y022405D01*
X040492Y022328D02*
X038374Y022328D01*
X038452Y022251D02*
X040414Y022251D01*
X040337Y022173D02*
X039765Y022173D01*
X039843Y022096D02*
X040260Y022096D01*
X040183Y022019D02*
X039852Y022019D01*
X039634Y021996D02*
X039634Y021720D01*
X039415Y022019D02*
X038683Y022019D01*
X038606Y022096D02*
X039425Y022096D01*
X039502Y022173D02*
X038529Y022173D01*
X038305Y022560D02*
X040723Y022560D01*
X040801Y022637D02*
X038273Y022637D01*
X038211Y022714D02*
X040878Y022714D01*
X040955Y022791D02*
X038132Y022791D01*
X037545Y022714D02*
X036881Y022714D01*
X036572Y023023D02*
X035655Y023023D01*
X035424Y023023D02*
X034564Y023023D01*
X034603Y023100D02*
X035347Y023100D01*
X035321Y023178D02*
X034625Y023178D01*
X034632Y023255D02*
X035321Y023255D01*
X035346Y023332D02*
X034625Y023332D01*
X034604Y023409D02*
X035353Y023409D01*
X035321Y023487D02*
X034565Y023487D01*
X034504Y023564D02*
X035321Y023564D01*
X035340Y023641D02*
X034395Y023641D01*
X034183Y023795D02*
X035006Y023795D01*
X034929Y023873D02*
X034260Y023873D01*
X034262Y023950D02*
X034927Y023950D01*
X034927Y024027D02*
X034262Y024027D01*
X034212Y024104D02*
X034977Y024104D01*
X035054Y024182D02*
X034135Y024182D01*
X033952Y024182D02*
X032790Y024182D01*
X032712Y024104D02*
X033874Y024104D01*
X033825Y024027D02*
X032635Y024027D01*
X032558Y023950D02*
X033825Y023950D01*
X033826Y023873D02*
X032427Y023873D01*
X032437Y024800D02*
X032570Y024800D01*
X032605Y024877D02*
X032531Y024877D01*
X032580Y024954D02*
X032605Y024954D01*
X032605Y025031D02*
X032605Y025031D01*
X032600Y025186D02*
X032605Y025186D01*
X032605Y025263D02*
X032568Y025263D01*
X032605Y025340D02*
X032507Y025340D01*
X032605Y025418D02*
X032381Y025418D01*
X032085Y025418D02*
X032065Y025418D01*
X032065Y025340D02*
X032085Y025340D01*
X032085Y025263D02*
X032065Y025263D01*
X032065Y025186D02*
X032085Y025186D01*
X032085Y025109D02*
X032065Y025109D01*
X032065Y025031D02*
X032085Y025031D01*
X032085Y024954D02*
X032065Y024954D01*
X032065Y024877D02*
X032085Y024877D01*
X032085Y024800D02*
X032065Y024800D01*
X033198Y026576D02*
X035873Y026576D01*
X035873Y026653D02*
X033655Y026653D01*
X033711Y026709D02*
X033583Y026581D01*
X033402Y026581D01*
X033274Y026709D01*
X033274Y026890D01*
X033380Y026996D01*
X033352Y027024D01*
X033352Y027205D01*
X033480Y027333D01*
X033661Y027333D01*
X033789Y027205D01*
X033789Y027024D01*
X033683Y026917D01*
X033711Y026890D01*
X033711Y026709D01*
X033711Y026731D02*
X035873Y026731D01*
X035873Y026808D02*
X033711Y026808D01*
X033711Y026885D02*
X035873Y026885D01*
X035873Y026962D02*
X033728Y026962D01*
X033789Y027040D02*
X035873Y027040D01*
X035873Y027117D02*
X033789Y027117D01*
X033789Y027194D02*
X035898Y027194D01*
X035947Y027271D02*
X033723Y027271D01*
X033419Y027271D02*
X033198Y027271D01*
X033198Y027194D02*
X033352Y027194D01*
X033352Y027117D02*
X033198Y027117D01*
X033198Y027040D02*
X033352Y027040D01*
X033346Y026962D02*
X033198Y026962D01*
X033198Y026885D02*
X033274Y026885D01*
X033274Y026808D02*
X033198Y026808D01*
X033198Y026731D02*
X033274Y026731D01*
X033329Y026653D02*
X033198Y026653D01*
X033198Y027349D02*
X036024Y027349D01*
X036001Y027326D02*
X036001Y027326D01*
X036101Y027426D02*
X033198Y027426D01*
X033198Y027503D02*
X036206Y027503D01*
X036701Y027966D02*
X036839Y027966D01*
X036852Y028044D02*
X036778Y028044D01*
X036781Y028121D02*
X036878Y028121D01*
X036922Y028198D02*
X036781Y028198D01*
X036734Y028275D02*
X036999Y028275D01*
X037142Y028353D02*
X036657Y028353D01*
X036535Y028431D02*
X036663Y028559D01*
X036663Y028740D01*
X036535Y028868D01*
X036354Y028868D01*
X036226Y028740D01*
X036226Y028559D01*
X036354Y028431D01*
X036535Y028431D01*
X036469Y028353D02*
X035481Y028353D01*
X035404Y028430D02*
X037379Y028430D01*
X037401Y028353D02*
X037457Y028353D01*
X037329Y028507D02*
X037123Y028507D01*
X037200Y028584D02*
X037329Y028584D01*
X037329Y028662D02*
X037214Y028662D01*
X037214Y028739D02*
X037406Y028739D01*
X036892Y028893D02*
X035147Y028893D01*
X035070Y028816D02*
X036302Y028816D01*
X036226Y028739D02*
X035095Y028739D01*
X035172Y028662D02*
X036226Y028662D01*
X036226Y028584D02*
X035250Y028584D01*
X035327Y028507D02*
X036278Y028507D01*
X036611Y028507D02*
X036869Y028507D01*
X036792Y028584D02*
X036663Y028584D01*
X036663Y028662D02*
X036778Y028662D01*
X036778Y028739D02*
X036663Y028739D01*
X036587Y028816D02*
X036814Y028816D01*
X037203Y028083D02*
X037237Y028094D01*
X037272Y028098D01*
X037307Y028094D01*
X037340Y028083D01*
X037370Y028064D01*
X037395Y028039D01*
X037414Y028009D01*
X037425Y027976D01*
X037429Y027941D01*
X037425Y027906D01*
X037414Y027873D01*
X037395Y027843D01*
X037370Y027818D01*
X037340Y027799D01*
X037307Y027787D01*
X037272Y027783D01*
X037237Y027787D01*
X037203Y027799D01*
X037173Y027818D01*
X037149Y027843D01*
X037130Y027873D01*
X037118Y027906D01*
X037114Y027941D01*
X037118Y027976D01*
X037130Y028009D01*
X037149Y028039D01*
X037173Y028064D01*
X037203Y028083D01*
X037153Y028044D02*
X037390Y028044D01*
X037426Y027966D02*
X037117Y027966D01*
X037124Y027889D02*
X037419Y027889D01*
X037361Y027812D02*
X037183Y027812D01*
X037032Y027580D02*
X033198Y027580D01*
X033684Y028121D02*
X035321Y028121D01*
X035398Y028044D02*
X033761Y028044D01*
X033738Y028198D02*
X033719Y028198D01*
X033719Y028275D02*
X033738Y028275D01*
X033738Y028353D02*
X033719Y028353D01*
X033719Y028430D02*
X033738Y028430D01*
X033738Y028507D02*
X034934Y028507D01*
X034857Y028584D02*
X034255Y028584D01*
X034252Y028600D02*
X034226Y028662D01*
X034189Y028717D01*
X034142Y028764D01*
X034087Y028801D01*
X034025Y028827D01*
X033960Y028840D01*
X033738Y028840D01*
X033738Y028512D01*
X034265Y028512D01*
X034265Y028535D01*
X034252Y028600D01*
X034226Y028662D02*
X034780Y028662D01*
X034703Y028739D02*
X034168Y028739D01*
X034051Y028816D02*
X034625Y028816D01*
X034709Y029125D02*
X034761Y029125D01*
X034838Y029202D02*
X034632Y029202D01*
X034257Y028430D02*
X035012Y028430D01*
X035089Y028353D02*
X034231Y028353D01*
X034178Y028275D02*
X035166Y028275D01*
X035243Y028198D02*
X034076Y028198D01*
X033738Y028584D02*
X033719Y028584D01*
X033719Y028662D02*
X033738Y028662D01*
X033738Y028739D02*
X033719Y028739D01*
X033719Y028816D02*
X033738Y028816D01*
X031696Y030052D02*
X031506Y030052D01*
X031506Y030129D02*
X031594Y030129D01*
X031532Y030206D02*
X031506Y030206D01*
X035185Y031602D02*
X035461Y031602D01*
X035618Y031445D01*
X040246Y029897D02*
X040794Y029897D01*
X040794Y029975D02*
X040323Y029975D01*
X040325Y030052D02*
X040794Y030052D01*
X040794Y030129D02*
X040325Y030129D01*
X040276Y030206D02*
X040794Y030206D01*
X042221Y028198D02*
X042250Y028198D01*
X042250Y028121D02*
X042154Y028121D01*
X042250Y028044D02*
X042040Y028044D01*
X041647Y027735D02*
X041387Y027735D01*
X041387Y027657D02*
X041570Y027657D01*
X041521Y027580D02*
X041387Y027580D01*
X041387Y027503D02*
X041489Y027503D01*
X041482Y027426D02*
X041387Y027426D01*
X041387Y027349D02*
X041482Y027349D01*
X041505Y027271D02*
X041387Y027271D01*
X041464Y027194D02*
X041537Y027194D01*
X041569Y027117D02*
X041606Y027117D01*
X041610Y027040D02*
X041726Y027040D01*
X036495Y022946D02*
X034503Y022946D01*
X034391Y022869D02*
X036463Y022869D01*
X035634Y022714D02*
X033607Y022714D01*
X033638Y022637D02*
X035557Y022637D01*
X035557Y022560D02*
X033665Y022560D01*
X033687Y022482D02*
X035557Y022482D01*
X034852Y022173D02*
X037483Y022173D01*
X037451Y022251D02*
X034806Y022251D01*
X034729Y022328D02*
X037424Y022328D01*
X037546Y022096D02*
X034852Y022096D01*
X034848Y022019D02*
X037626Y022019D01*
X037923Y021942D02*
X034770Y021942D01*
X034497Y021942D02*
X034455Y021942D01*
X034182Y021942D02*
X034140Y021942D01*
X034116Y021787D02*
X033728Y021787D01*
X033728Y021710D02*
X034039Y021710D01*
X034022Y021633D02*
X033728Y021633D01*
X033728Y021555D02*
X034022Y021555D01*
X034055Y021478D02*
X033728Y021478D01*
X033728Y021401D02*
X034133Y021401D01*
X034099Y022328D02*
X034224Y022328D01*
X034414Y022328D02*
X034539Y022328D01*
X034269Y023114D02*
X034236Y023102D01*
X034201Y023098D01*
X034166Y023102D01*
X034132Y023114D01*
X034103Y023133D01*
X034078Y023158D01*
X034059Y023188D01*
X034047Y023221D01*
X034043Y023256D01*
X034047Y023291D01*
X034059Y023324D01*
X034078Y023354D01*
X034103Y023379D01*
X034132Y023398D01*
X034166Y023409D01*
X034201Y023413D01*
X034236Y023409D01*
X034165Y023409D01*
X034236Y023409D02*
X034269Y023398D01*
X034299Y023379D01*
X034324Y023354D01*
X034343Y023324D01*
X034354Y023291D01*
X034358Y023256D01*
X034354Y023221D01*
X034343Y023188D01*
X034324Y023158D01*
X034299Y023133D01*
X034269Y023114D01*
X034217Y023100D02*
X034184Y023100D01*
X034065Y023178D02*
X034336Y023178D01*
X034358Y023255D02*
X034043Y023255D01*
X034064Y023332D02*
X034338Y023332D01*
D11*
X041878Y027406D03*
X041878Y028406D03*
X041878Y029406D03*
X041878Y030406D03*
X041878Y031406D03*
X041878Y032406D03*
X041878Y033406D03*
X041878Y034406D03*
X041878Y035406D03*
X041878Y036406D03*
X040878Y036406D03*
X039878Y036406D03*
X032874Y033406D03*
X031878Y033406D03*
X031878Y032406D03*
X032874Y032406D03*
X032874Y031406D03*
X031878Y031406D03*
X031878Y030406D03*
X032874Y030406D03*
X032874Y029406D03*
X031878Y029406D03*
D12*
X037744Y034919D03*
X038138Y034919D03*
X038531Y034919D03*
D13*
X039043Y036445D03*
X037232Y036445D03*
D14*
X037878Y022406D03*
X038878Y022406D03*
D15*
X035441Y034970D03*
X035441Y035470D03*
X035441Y035970D03*
X035441Y036470D03*
D16*
X040392Y025185D03*
X040392Y024791D03*
X040392Y024398D03*
X040392Y024004D03*
X040392Y023610D03*
X040392Y023217D03*
X040392Y022823D03*
D17*
X041917Y022311D03*
X041917Y025697D03*
D18*
X034319Y030389D03*
X034319Y030689D03*
D19*
X033927Y028502D02*
X033530Y028502D01*
X032273Y028502D02*
X031876Y028502D01*
X031876Y025096D02*
X032273Y025096D01*
X033530Y025096D02*
X033927Y025096D01*
D20*
X033728Y024634D03*
X034043Y023965D03*
X033531Y023335D03*
X032429Y023650D03*
X032154Y024161D03*
X032508Y024319D03*
X032469Y025539D03*
X032114Y027035D03*
X032390Y028020D03*
X033295Y027665D03*
X033571Y027114D03*
X033492Y026799D03*
X034949Y027626D03*
X035697Y026839D03*
X036051Y026248D03*
X036563Y026878D03*
X036327Y027232D03*
X036563Y028138D03*
X036445Y028650D03*
X036996Y028689D03*
X037547Y028571D03*
X038059Y028020D03*
X038138Y027272D03*
X038374Y026917D03*
X038335Y026406D03*
X039083Y026602D03*
X039201Y026287D03*
X039870Y026917D03*
X039870Y027232D03*
X039752Y027508D03*
X039713Y027823D03*
X039909Y028059D03*
X039555Y028098D03*
X039949Y028689D03*
X039870Y029004D03*
X039791Y029319D03*
X039555Y029516D03*
X038965Y029752D03*
X038335Y030303D03*
X038020Y030539D03*
X038217Y031130D03*
X038335Y031524D03*
X038335Y031839D03*
X039240Y031701D03*
X039319Y031366D03*
X039713Y030933D03*
X039280Y030421D03*
X040106Y030067D03*
X040421Y030303D03*
X041091Y030461D03*
X041366Y030657D03*
X040657Y031012D03*
X040657Y031406D03*
X040106Y031957D03*
X039949Y032311D03*
X040461Y032193D03*
X041091Y032350D03*
X041366Y032587D03*
X040657Y032902D03*
X040657Y033295D03*
X039870Y032941D03*
X039555Y032862D03*
X039634Y033335D03*
X039831Y034043D03*
X040185Y034043D03*
X039949Y034594D03*
X039791Y034870D03*
X039831Y035185D03*
X039831Y035500D03*
X040106Y035736D03*
X040657Y035776D03*
X040657Y035185D03*
X040657Y034791D03*
X041091Y034240D03*
X041366Y034594D03*
X038413Y034398D03*
X038098Y034161D03*
X037783Y034161D03*
X038413Y033925D03*
X037429Y033138D03*
X037193Y032941D03*
X036957Y033138D03*
X036839Y032823D03*
X036839Y032508D03*
X037232Y032154D03*
X037154Y031760D03*
X037350Y031524D03*
X037154Y031287D03*
X037350Y031051D03*
X037311Y030618D03*
X036169Y030697D03*
X035382Y031366D03*
X035185Y031602D03*
X035028Y031878D03*
X034870Y032154D03*
X035461Y032035D03*
X035776Y032744D03*
X035972Y032980D03*
X035421Y032941D03*
X034988Y032783D03*
X033886Y032665D03*
X033886Y032350D03*
X033728Y031445D03*
X033925Y030736D03*
X034870Y030146D03*
X035106Y029909D03*
X035697Y029673D03*
X036524Y029594D03*
X037508Y029713D03*
X037823Y029713D03*
X039280Y028886D03*
X040382Y028413D03*
X041091Y028571D03*
X041366Y028728D03*
X041524Y027941D03*
X040657Y027626D03*
X040657Y027232D03*
X040185Y026720D03*
X040185Y026327D03*
X040657Y026406D03*
X041091Y026681D03*
X041366Y026957D03*
X042114Y026839D03*
X041602Y026091D03*
X040933Y025146D03*
X040933Y024870D03*
X041130Y024634D03*
X041130Y024319D03*
X040815Y024476D03*
X040815Y024004D03*
X040854Y023531D03*
X040894Y023177D03*
X041996Y023059D03*
X041169Y021720D03*
X039634Y021996D03*
X038374Y022902D03*
X038374Y023335D03*
X039240Y023689D03*
X039870Y024201D03*
X039909Y024988D03*
X039988Y025500D03*
X039437Y025205D03*
X038650Y025539D03*
X038098Y025461D03*
X038256Y024909D03*
X038256Y024555D03*
X037508Y024909D03*
X036720Y024280D03*
X035854Y024280D03*
X035461Y023925D03*
X035146Y023965D03*
X035539Y023531D03*
X035539Y023217D03*
X035776Y022547D03*
X034634Y022114D03*
X034319Y022114D03*
X034004Y022114D03*
X034240Y021602D03*
X036681Y022823D03*
X037075Y022193D03*
X037469Y023059D03*
X035697Y025343D03*
X037429Y027232D03*
X039043Y027390D03*
X040657Y029122D03*
X040657Y029516D03*
X037823Y032783D03*
X036366Y032114D03*
X034870Y033886D03*
X035028Y034201D03*
X035500Y034083D03*
X037075Y034437D03*
X037311Y035539D03*
X036760Y035618D03*
X036091Y035736D03*
X036484Y036248D03*
X036366Y036681D03*
X037705Y036681D03*
X037823Y036051D03*
X038335Y035697D03*
X038059Y035461D03*
X034437Y036681D03*
X033650Y035146D03*
X033059Y034437D03*
X033571Y033413D03*
X032311Y032744D03*
X032232Y031957D03*
X032390Y029870D03*
X034319Y029752D03*
X034949Y029004D03*
X031720Y034358D03*
X041996Y024949D03*
D21*
X041524Y025106D02*
X041524Y022941D01*
X040303Y021720D01*
X039634Y021720D01*
X038563Y021720D01*
X037878Y022406D01*
X037626Y024083D02*
X039791Y024083D01*
X041091Y025539D02*
X041524Y025106D01*
X041091Y025539D02*
X041091Y026681D01*
X041091Y026957D01*
X041091Y028571D01*
X041091Y028728D01*
X041091Y030657D01*
X041091Y032350D01*
X041091Y032587D01*
X041091Y034043D01*
X041091Y034240D01*
X041091Y034555D01*
X041091Y034043D02*
X039831Y034043D01*
X032902Y029378D02*
X032874Y029406D01*
X032902Y029378D02*
X032902Y026248D01*
X036051Y026248D01*
X036169Y026248D02*
X036169Y025539D01*
X037626Y024083D01*
X036169Y026248D02*
X036169Y027075D01*
X036327Y027232D01*
X032902Y026248D02*
X032902Y024713D01*
X032350Y024161D01*
X032154Y024161D01*
D22*
X036051Y026248D02*
X036169Y026248D01*
X040224Y025146D02*
X040224Y024801D01*
X040392Y024791D02*
X040854Y024791D01*
X040933Y024870D01*
X040933Y025146D01*
X040894Y025185D01*
X040392Y025185D01*
X040313Y024988D02*
X040815Y024988D01*
X040815Y024004D02*
X040392Y024004D01*
X039870Y024004D01*
X039870Y024201D01*
D23*
X041091Y026957D02*
X041366Y026957D01*
X041366Y028728D02*
X041091Y028728D01*
X041091Y030657D02*
X041366Y030657D01*
X041366Y032587D02*
X041091Y032587D01*
X041091Y034555D02*
X041091Y034594D01*
X041366Y034594D01*
M02*
