G75*
%MOIN*%
%OFA0B0*%
%FSLAX24Y24*%
%IPPOS*%
%LPD*%
%AMOC8*
5,1,8,0,0,1.08239X$1,22.5*
%
%ADD10C,0.0000*%
%ADD11C,0.0060*%
%ADD12C,0.0101*%
%ADD13C,0.0100*%
%ADD14R,0.0394X0.0394*%
%ADD15C,0.0098*%
%ADD16C,0.0124*%
%ADD17C,0.0397*%
%ADD18C,0.0100*%
%ADD19C,0.0100*%
%ADD20C,0.0240*%
%ADD21C,0.0080*%
%ADD22C,0.0160*%
%ADD23C,0.0120*%
%ADD24C,0.0240*%
%ADD25C,0.0320*%
%ADD26C,0.0400*%
D10*
X000100Y000494D02*
X000100Y006793D01*
X000102Y006832D01*
X000108Y006870D01*
X000117Y006907D01*
X000130Y006944D01*
X000147Y006979D01*
X000166Y007012D01*
X000189Y007043D01*
X000215Y007072D01*
X000244Y007098D01*
X000275Y007121D01*
X000308Y007140D01*
X000343Y007157D01*
X000380Y007170D01*
X000417Y007179D01*
X000455Y007185D01*
X000494Y007187D01*
X005737Y007187D01*
X005776Y007185D01*
X005814Y007179D01*
X005851Y007170D01*
X005888Y007157D01*
X005923Y007140D01*
X005956Y007121D01*
X005987Y007098D01*
X006016Y007072D01*
X006042Y007043D01*
X006065Y007012D01*
X006084Y006979D01*
X006101Y006944D01*
X006114Y006907D01*
X006123Y006870D01*
X006129Y006832D01*
X006131Y006793D01*
X006131Y000494D01*
X006129Y000455D01*
X006123Y000417D01*
X006114Y000380D01*
X006101Y000343D01*
X006084Y000308D01*
X006065Y000275D01*
X006042Y000244D01*
X006016Y000215D01*
X005987Y000189D01*
X005956Y000166D01*
X005923Y000147D01*
X005888Y000130D01*
X005851Y000117D01*
X005814Y000108D01*
X005776Y000102D01*
X005737Y000100D01*
X000494Y000100D01*
X000455Y000102D01*
X000417Y000108D01*
X000380Y000117D01*
X000343Y000130D01*
X000308Y000147D01*
X000275Y000166D01*
X000244Y000189D01*
X000215Y000215D01*
X000189Y000244D01*
X000166Y000275D01*
X000147Y000308D01*
X000130Y000343D01*
X000117Y000380D01*
X000108Y000417D01*
X000102Y000455D01*
X000100Y000494D01*
X000454Y000887D02*
X000456Y000928D01*
X000462Y000969D01*
X000472Y001009D01*
X000485Y001048D01*
X000502Y001085D01*
X000523Y001121D01*
X000547Y001155D01*
X000574Y001186D01*
X000603Y001214D01*
X000636Y001240D01*
X000670Y001262D01*
X000707Y001281D01*
X000745Y001296D01*
X000785Y001308D01*
X000825Y001316D01*
X000866Y001320D01*
X000908Y001320D01*
X000949Y001316D01*
X000989Y001308D01*
X001029Y001296D01*
X001067Y001281D01*
X001103Y001262D01*
X001138Y001240D01*
X001171Y001214D01*
X001200Y001186D01*
X001227Y001155D01*
X001251Y001121D01*
X001272Y001085D01*
X001289Y001048D01*
X001302Y001009D01*
X001312Y000969D01*
X001318Y000928D01*
X001320Y000887D01*
X001318Y000846D01*
X001312Y000805D01*
X001302Y000765D01*
X001289Y000726D01*
X001272Y000689D01*
X001251Y000653D01*
X001227Y000619D01*
X001200Y000588D01*
X001171Y000560D01*
X001138Y000534D01*
X001104Y000512D01*
X001067Y000493D01*
X001029Y000478D01*
X000989Y000466D01*
X000949Y000458D01*
X000908Y000454D01*
X000866Y000454D01*
X000825Y000458D01*
X000785Y000466D01*
X000745Y000478D01*
X000707Y000493D01*
X000671Y000512D01*
X000636Y000534D01*
X000603Y000560D01*
X000574Y000588D01*
X000547Y000619D01*
X000523Y000653D01*
X000502Y000689D01*
X000485Y000726D01*
X000472Y000765D01*
X000462Y000805D01*
X000456Y000846D01*
X000454Y000887D01*
X000454Y006399D02*
X000456Y006440D01*
X000462Y006481D01*
X000472Y006521D01*
X000485Y006560D01*
X000502Y006597D01*
X000523Y006633D01*
X000547Y006667D01*
X000574Y006698D01*
X000603Y006726D01*
X000636Y006752D01*
X000670Y006774D01*
X000707Y006793D01*
X000745Y006808D01*
X000785Y006820D01*
X000825Y006828D01*
X000866Y006832D01*
X000908Y006832D01*
X000949Y006828D01*
X000989Y006820D01*
X001029Y006808D01*
X001067Y006793D01*
X001103Y006774D01*
X001138Y006752D01*
X001171Y006726D01*
X001200Y006698D01*
X001227Y006667D01*
X001251Y006633D01*
X001272Y006597D01*
X001289Y006560D01*
X001302Y006521D01*
X001312Y006481D01*
X001318Y006440D01*
X001320Y006399D01*
X001318Y006358D01*
X001312Y006317D01*
X001302Y006277D01*
X001289Y006238D01*
X001272Y006201D01*
X001251Y006165D01*
X001227Y006131D01*
X001200Y006100D01*
X001171Y006072D01*
X001138Y006046D01*
X001104Y006024D01*
X001067Y006005D01*
X001029Y005990D01*
X000989Y005978D01*
X000949Y005970D01*
X000908Y005966D01*
X000866Y005966D01*
X000825Y005970D01*
X000785Y005978D01*
X000745Y005990D01*
X000707Y006005D01*
X000671Y006024D01*
X000636Y006046D01*
X000603Y006072D01*
X000574Y006100D01*
X000547Y006131D01*
X000523Y006165D01*
X000502Y006201D01*
X000485Y006238D01*
X000472Y006277D01*
X000462Y006317D01*
X000456Y006358D01*
X000454Y006399D01*
D11*
X000230Y005563D02*
X000923Y005563D01*
X000924Y005562D01*
X000936Y005563D01*
X000947Y005563D01*
X000948Y005564D01*
X001050Y005575D01*
X001053Y005574D01*
X001063Y005576D01*
X001074Y005577D01*
X001076Y005580D01*
X001176Y005606D01*
X001178Y005605D01*
X001188Y005610D01*
X001198Y005612D01*
X001200Y005615D01*
X001294Y005657D01*
X001297Y005656D01*
X001306Y005662D01*
X001316Y005666D01*
X001317Y005669D01*
X001404Y005725D01*
X001407Y005725D01*
X001414Y005732D01*
X001423Y005738D01*
X001424Y005741D01*
X001501Y005810D01*
X001504Y005810D01*
X001511Y005819D01*
X001519Y005826D01*
X001519Y005829D01*
X001584Y005909D01*
X001587Y005910D01*
X001592Y005919D01*
X001599Y005927D01*
X001598Y005930D01*
X001650Y006019D01*
X001653Y006021D01*
X001657Y006031D01*
X001662Y006040D01*
X001661Y006043D01*
X001699Y006139D01*
X001701Y006141D01*
X001703Y006151D01*
X001707Y006161D01*
X001706Y006164D01*
X001727Y006265D01*
X001730Y006267D01*
X001730Y006277D01*
X001732Y006288D01*
X001731Y006290D01*
X001736Y006392D01*
X001737Y006392D01*
X001737Y006405D01*
X001738Y006417D01*
X001737Y006418D01*
X001897Y006418D01*
X001927Y006388D02*
X001857Y006458D01*
X001819Y006550D01*
X001819Y006650D01*
X001857Y006742D01*
X001927Y006812D01*
X002019Y006850D01*
X002118Y006850D01*
X002210Y006812D01*
X002213Y006810D01*
X002213Y006810D01*
X002250Y006846D01*
X002700Y006846D01*
X002777Y006769D01*
X002878Y006769D01*
X002777Y006769D01*
X002719Y006828D02*
X003342Y006828D01*
X003323Y006808D02*
X003323Y006797D01*
X002906Y006797D01*
X002878Y006769D01*
X002878Y006429D02*
X002782Y006429D01*
X002782Y006354D01*
X002700Y006273D01*
X002250Y006273D01*
X002168Y006354D01*
X002168Y006371D01*
X002118Y006350D01*
X002019Y006350D01*
X001927Y006388D01*
X001996Y006360D02*
X001735Y006360D01*
X001737Y006418D02*
X001737Y007057D01*
X005737Y007057D01*
X005788Y007052D01*
X005883Y007012D01*
X005956Y006939D01*
X005995Y006844D01*
X006001Y006793D01*
X006001Y001722D01*
X005189Y001722D01*
X005100Y001633D01*
X005100Y000450D01*
X005189Y000361D01*
X005962Y000361D01*
X005956Y000347D01*
X005883Y000274D01*
X005788Y000235D01*
X005737Y000230D01*
X001730Y000230D01*
X001730Y000375D01*
X001744Y000361D01*
X002573Y000361D01*
X002662Y000450D01*
X002662Y001633D01*
X002573Y001722D01*
X001744Y001722D01*
X001655Y001633D01*
X001655Y001245D01*
X001636Y001288D01*
X001637Y001291D01*
X001631Y001300D01*
X001627Y001309D01*
X001624Y001310D01*
X001568Y001397D01*
X001568Y001400D01*
X001561Y001408D01*
X001555Y001417D01*
X001552Y001418D01*
X001483Y001495D01*
X001483Y001497D01*
X001474Y001504D01*
X001467Y001512D01*
X001464Y001512D01*
X001384Y001577D01*
X001383Y001580D01*
X001374Y001586D01*
X001366Y001592D01*
X001363Y001592D01*
X001274Y001644D01*
X001272Y001646D01*
X001262Y001650D01*
X001253Y001656D01*
X001250Y001655D01*
X001154Y001692D01*
X001152Y001695D01*
X001142Y001697D01*
X001132Y001701D01*
X001129Y001699D01*
X001028Y001721D01*
X001026Y001723D01*
X001016Y001724D01*
X001005Y001726D01*
X001003Y001724D01*
X000901Y001730D01*
X000901Y001731D01*
X000888Y001731D01*
X000876Y001731D01*
X000875Y001731D01*
X000230Y001731D01*
X000230Y005563D01*
X000230Y005541D02*
X001800Y005541D01*
X001842Y005582D02*
X001479Y005219D01*
X001229Y005219D01*
X001148Y005137D01*
X001148Y004688D01*
X001229Y004606D01*
X001640Y004606D01*
X001721Y004688D01*
X001721Y004783D01*
X001796Y004783D01*
X001845Y004734D01*
X001845Y004546D01*
X001688Y004546D01*
X001721Y004512D02*
X001640Y004594D01*
X001229Y004594D01*
X001148Y004512D01*
X001148Y004063D01*
X001229Y003981D01*
X001640Y003981D01*
X001721Y004063D01*
X001721Y004107D01*
X001895Y003934D01*
X002171Y003934D01*
X002168Y003930D01*
X002159Y003895D01*
X002159Y003867D01*
X002159Y003840D01*
X002168Y003804D01*
X002187Y003772D01*
X002190Y003769D01*
X002159Y003737D01*
X002159Y003603D01*
X002200Y003562D01*
X002100Y003562D01*
X001850Y003812D01*
X001721Y003812D01*
X001721Y003887D01*
X001640Y003969D01*
X001229Y003969D01*
X001148Y003887D01*
X001148Y003438D01*
X001229Y003356D01*
X001640Y003356D01*
X001721Y003438D01*
X001721Y003513D01*
X001725Y003513D01*
X001888Y003350D01*
X001975Y003263D01*
X002553Y003263D01*
X002553Y003210D01*
X002635Y003128D01*
X002769Y003128D01*
X002800Y003159D01*
X002832Y003128D01*
X002965Y003128D01*
X002997Y003159D01*
X003028Y003128D01*
X003162Y003128D01*
X003194Y003159D01*
X003225Y003128D01*
X003359Y003128D01*
X003391Y003159D01*
X003422Y003128D01*
X003556Y003128D01*
X003587Y003159D01*
X003591Y003156D01*
X003623Y003137D01*
X003659Y003128D01*
X003686Y003128D01*
X003713Y003128D01*
X003749Y003137D01*
X003781Y003156D01*
X003807Y003182D01*
X003825Y003214D01*
X003835Y003249D01*
X003835Y003375D01*
X003686Y003375D01*
X003686Y003375D01*
X003686Y003128D01*
X003686Y003375D01*
X003686Y003375D01*
X003835Y003375D01*
X003835Y003501D01*
X003829Y003521D01*
X004147Y003521D01*
X004229Y003603D01*
X004229Y003694D01*
X004251Y003671D01*
X004251Y003421D01*
X004376Y003296D01*
X004452Y003220D01*
X004541Y003220D01*
X004541Y003125D01*
X004623Y003043D01*
X005033Y003043D01*
X005115Y003125D01*
X005115Y003575D01*
X005033Y003657D01*
X004623Y003657D01*
X004541Y003575D01*
X004541Y003499D01*
X004511Y003529D01*
X004511Y003779D01*
X004435Y003855D01*
X004293Y003997D01*
X004229Y003997D01*
X004229Y004131D01*
X004197Y004162D01*
X004229Y004194D01*
X004229Y004288D01*
X004283Y004234D01*
X004283Y004046D01*
X004359Y003970D01*
X004408Y003921D01*
X004484Y003845D01*
X004541Y003845D01*
X004541Y003750D01*
X004623Y003668D01*
X005033Y003668D01*
X005115Y003750D01*
X005115Y004200D01*
X005033Y004282D01*
X004623Y004282D01*
X004542Y004201D01*
X004542Y004341D01*
X004466Y004417D01*
X004359Y004525D01*
X004541Y004525D01*
X004541Y004375D01*
X004623Y004293D01*
X005033Y004293D01*
X005115Y004375D01*
X005115Y004825D01*
X005033Y004907D01*
X004623Y004907D01*
X004541Y004825D01*
X004541Y004785D01*
X004166Y004785D01*
X004147Y004804D01*
X003829Y004804D01*
X003835Y004824D01*
X003835Y004950D01*
X003835Y005076D01*
X003825Y005111D01*
X003807Y005143D01*
X003781Y005169D01*
X003749Y005188D01*
X003713Y005197D01*
X003686Y005197D01*
X003686Y004950D01*
X003835Y004950D01*
X003686Y004950D01*
X003686Y004950D01*
X003686Y004950D01*
X003686Y005197D01*
X003659Y005197D01*
X003623Y005188D01*
X003591Y005169D01*
X003587Y005166D01*
X003556Y005197D01*
X003422Y005197D01*
X003391Y005166D01*
X003359Y005197D01*
X003225Y005197D01*
X003194Y005166D01*
X003162Y005197D01*
X003028Y005197D01*
X002997Y005166D01*
X002965Y005197D01*
X002832Y005197D01*
X002800Y005166D01*
X002769Y005197D01*
X002635Y005197D01*
X002553Y005115D01*
X002553Y004804D01*
X002241Y004804D01*
X002159Y004722D01*
X002159Y004600D01*
X002105Y004654D01*
X002105Y004841D01*
X001980Y004966D01*
X001904Y005042D01*
X001783Y005042D01*
X001983Y005243D01*
X004217Y005243D01*
X004405Y005055D01*
X004541Y005055D01*
X004541Y005000D01*
X004623Y004918D01*
X005033Y004918D01*
X005050Y004935D01*
X005210Y004775D01*
X005210Y004375D01*
X005292Y004293D01*
X005367Y004293D01*
X005367Y004282D01*
X005292Y004282D01*
X005210Y004200D01*
X005210Y003750D01*
X005292Y003668D01*
X005702Y003668D01*
X005784Y003750D01*
X005784Y004200D01*
X005702Y004282D01*
X005627Y004282D01*
X005627Y004293D01*
X005702Y004293D01*
X005784Y004375D01*
X005784Y004825D01*
X005702Y004907D01*
X005446Y004907D01*
X005434Y004918D01*
X005467Y004918D01*
X005467Y005195D01*
X005210Y005195D01*
X005210Y005142D01*
X005115Y005238D01*
X005115Y005450D01*
X005033Y005532D01*
X005020Y005532D01*
X005020Y005604D01*
X005075Y005604D01*
X005157Y005685D01*
X005157Y006096D01*
X005075Y006177D01*
X004826Y006177D01*
X004730Y006273D01*
X005075Y006273D01*
X005157Y006354D01*
X005157Y006390D01*
X005290Y006390D01*
X005290Y006355D01*
X005372Y006273D01*
X005703Y006273D01*
X005785Y006355D01*
X005785Y006686D01*
X005703Y006768D01*
X005372Y006768D01*
X005290Y006686D01*
X005290Y006650D01*
X005157Y006650D01*
X005157Y006765D01*
X005075Y006846D01*
X004625Y006846D01*
X004543Y006765D01*
X004543Y006459D01*
X004501Y006502D01*
X004501Y006715D01*
X004419Y006797D01*
X004002Y006797D01*
X004002Y006808D01*
X003920Y006890D01*
X003705Y006890D01*
X003662Y006848D01*
X003620Y006890D01*
X003405Y006890D01*
X003323Y006808D01*
X003401Y006886D02*
X001737Y006886D01*
X001737Y006828D02*
X001965Y006828D01*
X001884Y006769D02*
X001737Y006769D01*
X001737Y006711D02*
X001844Y006711D01*
X001820Y006652D02*
X001737Y006652D01*
X001737Y006594D02*
X001819Y006594D01*
X001825Y006535D02*
X001737Y006535D01*
X001737Y006477D02*
X001849Y006477D01*
X001731Y006301D02*
X002222Y006301D01*
X002168Y006360D02*
X002141Y006360D01*
X002254Y006168D02*
X002222Y006149D01*
X002196Y006123D01*
X002178Y006092D01*
X002168Y006056D01*
X002168Y005920D01*
X002445Y005920D01*
X002445Y005860D01*
X002505Y005860D01*
X002505Y005604D01*
X002661Y005604D01*
X002696Y005613D01*
X002728Y005631D01*
X002754Y005657D01*
X002772Y005689D01*
X002782Y005724D01*
X002782Y005860D01*
X002505Y005860D01*
X002505Y005920D01*
X002782Y005920D01*
X002782Y006056D01*
X002772Y006092D01*
X002754Y006123D01*
X002728Y006149D01*
X002696Y006168D01*
X002661Y006177D01*
X002505Y006177D01*
X002505Y005920D01*
X002445Y005920D01*
X002445Y006177D01*
X002289Y006177D01*
X002254Y006168D01*
X002198Y006126D02*
X001693Y006126D01*
X001710Y006184D02*
X002824Y006184D01*
X002819Y006184D02*
X003506Y006184D01*
X003533Y006184D02*
X003477Y006184D01*
X003477Y006201D02*
X003477Y006148D01*
X003467Y006113D01*
X003449Y006081D01*
X003423Y006055D01*
X003402Y006042D01*
X003464Y005980D01*
X003484Y005980D01*
X003533Y006029D01*
X003533Y006265D01*
X003487Y006310D01*
X003506Y006291D01*
X003506Y006038D01*
X003407Y006038D01*
X003395Y006049D01*
X002906Y006049D01*
X002895Y006038D01*
X002819Y006038D01*
X002819Y006413D01*
X002895Y006413D01*
X002906Y006401D01*
X003323Y006401D01*
X003323Y006392D01*
X003405Y006310D01*
X003487Y006310D01*
X003475Y006310D01*
X003477Y006302D01*
X003477Y006249D01*
X003175Y006249D01*
X003175Y006201D01*
X003477Y006201D01*
X003506Y006243D02*
X002819Y006243D01*
X002824Y006249D02*
X003127Y006249D01*
X003127Y006201D01*
X002824Y006201D01*
X002824Y006148D01*
X002834Y006113D01*
X002852Y006081D01*
X002878Y006055D01*
X002900Y006042D01*
X002824Y005967D01*
X002824Y005735D01*
X002906Y005653D01*
X003395Y005653D01*
X003462Y005720D01*
X003591Y005720D01*
X003667Y005796D01*
X003792Y005921D01*
X003792Y006310D01*
X003920Y006310D01*
X004002Y006392D01*
X004002Y006401D01*
X004117Y006401D01*
X004136Y006377D01*
X004147Y006375D01*
X004543Y005979D01*
X004543Y005685D01*
X004625Y005604D01*
X004680Y005604D01*
X004680Y005532D01*
X004623Y005532D01*
X004541Y005450D01*
X004541Y005399D01*
X004358Y005582D01*
X001842Y005582D01*
X001742Y005482D02*
X000230Y005482D01*
X000230Y005424D02*
X001683Y005424D01*
X001625Y005365D02*
X000230Y005365D01*
X000230Y005307D02*
X001566Y005307D01*
X001508Y005248D02*
X000230Y005248D01*
X000230Y005190D02*
X000531Y005190D01*
X000532Y005191D02*
X000506Y005165D01*
X000488Y005134D01*
X000479Y005098D01*
X000479Y004942D01*
X000735Y004942D01*
X000735Y004883D01*
X000479Y004883D01*
X000479Y004727D01*
X000488Y004691D01*
X000506Y004660D01*
X000532Y004634D01*
X000564Y004615D01*
X000599Y004606D01*
X000735Y004606D01*
X000735Y004882D01*
X000795Y004882D01*
X000795Y004606D01*
X000931Y004606D01*
X000967Y004615D01*
X000998Y004634D01*
X001024Y004660D01*
X001043Y004691D01*
X001052Y004727D01*
X001052Y004883D01*
X000795Y004883D01*
X000795Y004942D01*
X001052Y004942D01*
X001052Y005098D01*
X001043Y005134D01*
X001024Y005165D01*
X000998Y005191D01*
X000967Y005210D01*
X000931Y005219D01*
X000795Y005219D01*
X000795Y004943D01*
X000735Y004943D01*
X000735Y005219D01*
X000599Y005219D01*
X000564Y005210D01*
X000532Y005191D01*
X000487Y005131D02*
X000230Y005131D01*
X000230Y005073D02*
X000479Y005073D01*
X000479Y005014D02*
X000230Y005014D01*
X000230Y004956D02*
X000479Y004956D01*
X000479Y004839D02*
X000230Y004839D01*
X000230Y004897D02*
X000735Y004897D01*
X000735Y004839D02*
X000795Y004839D01*
X000795Y004897D02*
X001148Y004897D01*
X001148Y004839D02*
X001052Y004839D01*
X001052Y004780D02*
X001148Y004780D01*
X001148Y004722D02*
X001051Y004722D01*
X001026Y004663D02*
X001172Y004663D01*
X001181Y004546D02*
X001019Y004546D01*
X001024Y004540D02*
X000998Y004566D01*
X000967Y004585D01*
X000931Y004594D01*
X000795Y004594D01*
X000795Y004318D01*
X000735Y004318D01*
X000735Y004594D01*
X000599Y004594D01*
X000564Y004585D01*
X000532Y004566D01*
X000506Y004540D01*
X000488Y004509D01*
X000479Y004473D01*
X000479Y004317D01*
X000735Y004317D01*
X000735Y004258D01*
X000479Y004258D01*
X000479Y004102D01*
X000488Y004066D01*
X000506Y004035D01*
X000532Y004009D01*
X000564Y003990D01*
X000599Y003981D01*
X000735Y003981D01*
X000735Y004257D01*
X000795Y004257D01*
X000795Y003981D01*
X000931Y003981D01*
X000967Y003990D01*
X000998Y004009D01*
X001024Y004035D01*
X001043Y004066D01*
X001052Y004102D01*
X001052Y004258D01*
X000795Y004258D01*
X000795Y004317D01*
X001052Y004317D01*
X001052Y004473D01*
X001043Y004509D01*
X001024Y004540D01*
X001048Y004488D02*
X001148Y004488D01*
X001148Y004429D02*
X001052Y004429D01*
X001052Y004371D02*
X001148Y004371D01*
X001148Y004312D02*
X000795Y004312D01*
X000795Y004254D02*
X000735Y004254D01*
X000735Y004312D02*
X000230Y004312D01*
X000230Y004254D02*
X000479Y004254D01*
X000479Y004195D02*
X000230Y004195D01*
X000230Y004137D02*
X000479Y004137D01*
X000485Y004078D02*
X000230Y004078D01*
X000230Y004020D02*
X000522Y004020D01*
X000564Y003960D02*
X000532Y003941D01*
X000506Y003915D01*
X000488Y003884D01*
X000479Y003848D01*
X000479Y003692D01*
X000735Y003692D01*
X000735Y003633D01*
X000479Y003633D01*
X000479Y003477D01*
X000488Y003441D01*
X000506Y003410D01*
X000532Y003384D01*
X000564Y003365D01*
X000599Y003356D01*
X000735Y003356D01*
X000735Y003632D01*
X000795Y003632D01*
X000795Y003356D01*
X000931Y003356D01*
X000967Y003365D01*
X000998Y003384D01*
X001024Y003410D01*
X001043Y003441D01*
X001052Y003477D01*
X001052Y003633D01*
X000795Y003633D01*
X000795Y003692D01*
X001052Y003692D01*
X001052Y003848D01*
X001043Y003884D01*
X001024Y003915D01*
X000998Y003941D01*
X000967Y003960D01*
X000931Y003969D01*
X000795Y003969D01*
X000795Y003693D01*
X000735Y003693D01*
X000735Y003969D01*
X000599Y003969D01*
X000564Y003960D01*
X000569Y003961D02*
X000230Y003961D01*
X000230Y003903D02*
X000499Y003903D01*
X000479Y003844D02*
X000230Y003844D01*
X000230Y003786D02*
X000479Y003786D01*
X000479Y003727D02*
X000230Y003727D01*
X000230Y003669D02*
X000735Y003669D01*
X000735Y003727D02*
X000795Y003727D01*
X000795Y003669D02*
X001148Y003669D01*
X001148Y003727D02*
X001052Y003727D01*
X001052Y003786D02*
X001148Y003786D01*
X001148Y003844D02*
X001052Y003844D01*
X001032Y003903D02*
X001163Y003903D01*
X001221Y003961D02*
X000961Y003961D01*
X001009Y004020D02*
X001191Y004020D01*
X001148Y004078D02*
X001046Y004078D01*
X001052Y004137D02*
X001148Y004137D01*
X001148Y004195D02*
X001052Y004195D01*
X001052Y004254D02*
X001148Y004254D01*
X000795Y004195D02*
X000735Y004195D01*
X000735Y004137D02*
X000795Y004137D01*
X000795Y004078D02*
X000735Y004078D01*
X000735Y004020D02*
X000795Y004020D01*
X000795Y003961D02*
X000735Y003961D01*
X000735Y003903D02*
X000795Y003903D01*
X000795Y003844D02*
X000735Y003844D01*
X000735Y003786D02*
X000795Y003786D01*
X000795Y003610D02*
X000735Y003610D01*
X000735Y003552D02*
X000795Y003552D01*
X000795Y003493D02*
X000735Y003493D01*
X000735Y003435D02*
X000795Y003435D01*
X000795Y003376D02*
X000735Y003376D01*
X000792Y003225D02*
X000539Y003225D01*
X000503Y003215D01*
X000471Y003197D01*
X000445Y003171D01*
X000427Y003139D01*
X000417Y003103D01*
X000417Y002692D01*
X000792Y002692D01*
X000792Y002633D01*
X000417Y002633D01*
X000417Y002222D01*
X000427Y002186D01*
X000445Y002154D01*
X000471Y002128D01*
X000503Y002110D01*
X000539Y002100D01*
X000792Y002100D01*
X000792Y002632D01*
X000852Y002632D01*
X000852Y002100D01*
X001105Y002100D01*
X001141Y002110D01*
X001173Y002128D01*
X001199Y002154D01*
X001217Y002186D01*
X001227Y002222D01*
X001227Y002633D01*
X000852Y002633D01*
X000852Y002692D01*
X001227Y002692D01*
X001227Y003103D01*
X001217Y003139D01*
X001199Y003171D01*
X001173Y003197D01*
X001141Y003215D01*
X001105Y003225D01*
X000852Y003225D01*
X000852Y002693D01*
X000792Y002693D01*
X000792Y003225D01*
X000792Y003201D02*
X000852Y003201D01*
X000852Y003142D02*
X000792Y003142D01*
X000792Y003084D02*
X000852Y003084D01*
X000852Y003025D02*
X000792Y003025D01*
X000792Y002967D02*
X000852Y002967D01*
X000852Y002908D02*
X000792Y002908D01*
X000792Y002850D02*
X000852Y002850D01*
X000852Y002791D02*
X000792Y002791D01*
X000792Y002733D02*
X000852Y002733D01*
X000852Y002674D02*
X001598Y002674D01*
X001598Y002616D02*
X001227Y002616D01*
X001227Y002557D02*
X001598Y002557D01*
X001598Y002499D02*
X001227Y002499D01*
X001227Y002440D02*
X001598Y002440D01*
X001598Y002382D02*
X001227Y002382D01*
X001227Y002323D02*
X001598Y002323D01*
X001598Y002265D02*
X001227Y002265D01*
X001223Y002206D02*
X001598Y002206D01*
X001598Y002182D02*
X001680Y002100D01*
X002326Y002100D01*
X002408Y002182D01*
X002408Y002308D01*
X002435Y002281D01*
X002435Y002230D01*
X002479Y002123D01*
X002561Y002042D01*
X002667Y001998D01*
X002783Y001998D01*
X002889Y002042D01*
X002896Y002048D01*
X002896Y001870D01*
X002973Y001793D01*
X002973Y001620D01*
X002936Y001582D01*
X002836Y001483D01*
X002836Y000745D01*
X002855Y000727D01*
X002855Y000622D01*
X002899Y000516D01*
X002980Y000435D01*
X003086Y000391D01*
X003200Y000391D01*
X003306Y000435D01*
X003388Y000516D01*
X003389Y000519D01*
X003391Y000516D01*
X003472Y000435D01*
X003578Y000391D01*
X003693Y000391D01*
X003799Y000435D01*
X003880Y000516D01*
X003881Y000519D01*
X003883Y000516D01*
X003964Y000435D01*
X004070Y000391D01*
X004185Y000391D01*
X004291Y000435D01*
X004372Y000516D01*
X004376Y000525D01*
X004395Y000495D01*
X004436Y000455D01*
X004483Y000423D01*
X004535Y000402D01*
X004591Y000391D01*
X004600Y000391D01*
X004600Y000660D01*
X004639Y000660D01*
X004639Y000698D01*
X004908Y000698D01*
X004908Y000707D01*
X004897Y000763D01*
X004875Y000816D01*
X004843Y000863D01*
X004803Y000903D01*
X004756Y000935D01*
X004704Y000956D01*
X004648Y000968D01*
X004639Y000968D01*
X004639Y000698D01*
X004600Y000698D01*
X004600Y000968D01*
X004591Y000968D01*
X004535Y000956D01*
X004483Y000935D01*
X004436Y000903D01*
X004395Y000863D01*
X004376Y000833D01*
X004372Y000842D01*
X004291Y000924D01*
X004271Y000932D01*
X004271Y001568D01*
X004341Y001638D01*
X004341Y001812D01*
X004329Y001824D01*
X004375Y001870D01*
X004375Y001899D01*
X004382Y001874D01*
X004400Y001842D01*
X004426Y001816D01*
X004458Y001798D01*
X004494Y001788D01*
X004589Y001788D01*
X004589Y002242D01*
X004649Y002242D01*
X004649Y001788D01*
X004745Y001788D01*
X004781Y001798D01*
X004813Y001816D01*
X004839Y001842D01*
X004857Y001874D01*
X004867Y001910D01*
X004867Y002242D01*
X004649Y002242D01*
X004649Y002302D01*
X004589Y002302D01*
X004589Y002755D01*
X004494Y002755D01*
X004458Y002746D01*
X004426Y002727D01*
X004400Y002701D01*
X004382Y002669D01*
X004375Y002644D01*
X004375Y002673D01*
X004293Y002755D01*
X003962Y002755D01*
X003881Y002675D01*
X003800Y002755D01*
X003470Y002755D01*
X003389Y002675D01*
X003308Y002755D01*
X002978Y002755D01*
X002896Y002673D01*
X002896Y002527D01*
X002889Y002533D01*
X002783Y002577D01*
X002732Y002577D01*
X002560Y002749D01*
X002560Y002749D01*
X002437Y002872D01*
X002408Y002872D01*
X002408Y003143D01*
X002326Y003225D01*
X001680Y003225D01*
X001598Y003143D01*
X001598Y002182D01*
X001633Y002148D02*
X001192Y002148D01*
X000852Y002148D02*
X000792Y002148D01*
X000792Y002206D02*
X000852Y002206D01*
X000852Y002265D02*
X000792Y002265D01*
X000792Y002323D02*
X000852Y002323D01*
X000852Y002382D02*
X000792Y002382D01*
X000792Y002440D02*
X000852Y002440D01*
X000852Y002499D02*
X000792Y002499D01*
X000792Y002557D02*
X000852Y002557D01*
X000852Y002616D02*
X000792Y002616D01*
X000792Y002674D02*
X000230Y002674D01*
X000230Y002616D02*
X000417Y002616D01*
X000417Y002557D02*
X000230Y002557D01*
X000230Y002499D02*
X000417Y002499D01*
X000417Y002440D02*
X000230Y002440D01*
X000230Y002382D02*
X000417Y002382D01*
X000417Y002323D02*
X000230Y002323D01*
X000230Y002265D02*
X000417Y002265D01*
X000421Y002206D02*
X000230Y002206D01*
X000230Y002148D02*
X000452Y002148D01*
X000230Y002089D02*
X002513Y002089D01*
X002469Y002148D02*
X002373Y002148D01*
X002408Y002206D02*
X002445Y002206D01*
X002435Y002265D02*
X002408Y002265D01*
X002588Y002031D02*
X000230Y002031D01*
X000230Y001972D02*
X002896Y001972D01*
X002896Y001914D02*
X000230Y001914D01*
X000230Y001855D02*
X002911Y001855D01*
X002969Y001797D02*
X000230Y001797D01*
X000230Y001738D02*
X002973Y001738D01*
X002973Y001680D02*
X002616Y001680D01*
X002662Y001621D02*
X002973Y001621D01*
X002916Y001563D02*
X002662Y001563D01*
X002662Y001504D02*
X002857Y001504D01*
X002836Y001446D02*
X002662Y001446D01*
X002662Y001387D02*
X002836Y001387D01*
X002836Y001329D02*
X002662Y001329D01*
X002662Y001270D02*
X002836Y001270D01*
X002836Y001212D02*
X002662Y001212D01*
X002662Y001153D02*
X002836Y001153D01*
X002836Y001095D02*
X002662Y001095D01*
X002662Y001036D02*
X002836Y001036D01*
X002836Y000978D02*
X002662Y000978D01*
X002662Y000919D02*
X002836Y000919D01*
X002836Y000861D02*
X002662Y000861D01*
X002662Y000802D02*
X002836Y000802D01*
X002838Y000744D02*
X002662Y000744D01*
X002662Y000685D02*
X002855Y000685D01*
X002855Y000627D02*
X002662Y000627D01*
X002662Y000568D02*
X002877Y000568D01*
X002905Y000510D02*
X002662Y000510D01*
X002662Y000451D02*
X002963Y000451D01*
X003081Y000393D02*
X002605Y000393D01*
X003205Y000393D02*
X003573Y000393D01*
X003697Y000393D02*
X004065Y000393D01*
X004189Y000393D02*
X004582Y000393D01*
X004600Y000393D02*
X004639Y000393D01*
X004639Y000391D02*
X004648Y000391D01*
X004704Y000402D01*
X004756Y000423D01*
X004803Y000455D01*
X004843Y000495D01*
X004875Y000542D01*
X004897Y000595D01*
X004908Y000651D01*
X004908Y000660D01*
X004639Y000660D01*
X004639Y000391D01*
X004657Y000393D02*
X005158Y000393D01*
X005100Y000451D02*
X004797Y000451D01*
X004853Y000510D02*
X005100Y000510D01*
X005100Y000568D02*
X004886Y000568D01*
X004903Y000627D02*
X005100Y000627D01*
X005100Y000685D02*
X004639Y000685D01*
X004639Y000627D02*
X004600Y000627D01*
X004600Y000568D02*
X004639Y000568D01*
X004639Y000510D02*
X004600Y000510D01*
X004600Y000451D02*
X004639Y000451D01*
X004442Y000451D02*
X004307Y000451D01*
X004366Y000510D02*
X004386Y000510D01*
X004600Y000744D02*
X004639Y000744D01*
X004639Y000802D02*
X004600Y000802D01*
X004600Y000861D02*
X004639Y000861D01*
X004639Y000919D02*
X004600Y000919D01*
X004459Y000919D02*
X004295Y000919D01*
X004271Y000978D02*
X005100Y000978D01*
X005100Y001036D02*
X004271Y001036D01*
X004271Y001095D02*
X005100Y001095D01*
X005100Y001153D02*
X004271Y001153D01*
X004271Y001212D02*
X005100Y001212D01*
X005100Y001270D02*
X004271Y001270D01*
X004271Y001329D02*
X005100Y001329D01*
X005100Y001387D02*
X004271Y001387D01*
X004271Y001446D02*
X005100Y001446D01*
X005100Y001504D02*
X004271Y001504D01*
X004271Y001563D02*
X005100Y001563D01*
X005100Y001621D02*
X004324Y001621D01*
X004341Y001680D02*
X005147Y001680D01*
X004846Y001855D02*
X006001Y001855D01*
X006001Y001797D02*
X004777Y001797D01*
X004867Y001914D02*
X006001Y001914D01*
X006001Y001972D02*
X004867Y001972D01*
X004867Y002031D02*
X006001Y002031D01*
X006001Y002089D02*
X004867Y002089D01*
X004867Y002148D02*
X006001Y002148D01*
X006001Y002206D02*
X004867Y002206D01*
X004867Y002302D02*
X004867Y002634D01*
X004857Y002669D01*
X004839Y002701D01*
X004813Y002727D01*
X004781Y002746D01*
X004745Y002755D01*
X004649Y002755D01*
X004649Y002302D01*
X004867Y002302D01*
X004867Y002323D02*
X006001Y002323D01*
X006001Y002265D02*
X004649Y002265D01*
X004649Y002323D02*
X004589Y002323D01*
X004589Y002382D02*
X004649Y002382D01*
X004649Y002440D02*
X004589Y002440D01*
X004589Y002499D02*
X004649Y002499D01*
X004649Y002557D02*
X004589Y002557D01*
X004589Y002616D02*
X004649Y002616D01*
X004649Y002674D02*
X004589Y002674D01*
X004589Y002733D02*
X004649Y002733D01*
X004804Y002733D02*
X006001Y002733D01*
X006001Y002791D02*
X002518Y002791D01*
X002460Y002850D02*
X006001Y002850D01*
X006001Y002908D02*
X004258Y002908D01*
X004274Y002924D02*
X004274Y003023D01*
X004237Y003060D01*
X004274Y003098D01*
X004274Y003197D01*
X004231Y003240D01*
X004231Y003240D01*
X004161Y003311D01*
X004061Y003311D01*
X003991Y003240D01*
X003948Y003197D01*
X003948Y003098D01*
X003991Y003054D01*
X003991Y002967D01*
X004105Y002854D01*
X004204Y002854D01*
X004274Y002924D01*
X004274Y002967D02*
X006001Y002967D01*
X006001Y003025D02*
X004273Y003025D01*
X004260Y003084D02*
X004583Y003084D01*
X004541Y003142D02*
X004274Y003142D01*
X004271Y003201D02*
X004541Y003201D01*
X004413Y003259D02*
X004212Y003259D01*
X004296Y003376D02*
X003835Y003376D01*
X003835Y003318D02*
X004355Y003318D01*
X004251Y003435D02*
X003835Y003435D01*
X003835Y003493D02*
X004251Y003493D01*
X004251Y003552D02*
X004177Y003552D01*
X004229Y003610D02*
X004251Y003610D01*
X004251Y003669D02*
X004229Y003669D01*
X004388Y003903D02*
X004426Y003903D01*
X004408Y003921D02*
X004408Y003921D01*
X004368Y003961D02*
X004329Y003961D01*
X004359Y003970D02*
X004359Y003970D01*
X004309Y004020D02*
X004229Y004020D01*
X004229Y004078D02*
X004283Y004078D01*
X004283Y004137D02*
X004223Y004137D01*
X004229Y004195D02*
X004283Y004195D01*
X004263Y004254D02*
X004229Y004254D01*
X004396Y004488D02*
X004541Y004488D01*
X004541Y004429D02*
X004455Y004429D01*
X004513Y004371D02*
X004545Y004371D01*
X004542Y004312D02*
X004604Y004312D01*
X004595Y004254D02*
X004542Y004254D01*
X004828Y003975D02*
X004850Y003997D01*
X004850Y003975D01*
X005115Y003961D02*
X005210Y003961D01*
X005210Y003903D02*
X005115Y003903D01*
X005115Y003844D02*
X005210Y003844D01*
X005210Y003786D02*
X005115Y003786D01*
X005092Y003727D02*
X005233Y003727D01*
X005292Y003669D02*
X005033Y003669D01*
X005080Y003610D02*
X005245Y003610D01*
X005238Y003603D02*
X005220Y003571D01*
X005210Y003536D01*
X005210Y003380D01*
X005467Y003380D01*
X005467Y003320D01*
X005210Y003320D01*
X005210Y003164D01*
X005220Y003129D01*
X005238Y003097D01*
X005264Y003071D01*
X005296Y003053D01*
X005331Y003043D01*
X005467Y003043D01*
X005467Y003320D01*
X005527Y003320D01*
X005527Y003043D01*
X005663Y003043D01*
X005699Y003053D01*
X005730Y003071D01*
X005756Y003097D01*
X005775Y003129D01*
X005784Y003164D01*
X005784Y003320D01*
X005527Y003320D01*
X005527Y003380D01*
X005467Y003380D01*
X005467Y003657D01*
X005331Y003657D01*
X005296Y003647D01*
X005264Y003629D01*
X005238Y003603D01*
X005215Y003552D02*
X005115Y003552D01*
X005115Y003493D02*
X005210Y003493D01*
X005210Y003435D02*
X005115Y003435D01*
X005115Y003376D02*
X005467Y003376D01*
X005467Y003318D02*
X005527Y003318D01*
X005527Y003376D02*
X006001Y003376D01*
X006001Y003318D02*
X005784Y003318D01*
X005784Y003259D02*
X006001Y003259D01*
X006001Y003201D02*
X005784Y003201D01*
X005778Y003142D02*
X006001Y003142D01*
X006001Y003084D02*
X005742Y003084D01*
X005527Y003084D02*
X005467Y003084D01*
X005467Y003142D02*
X005527Y003142D01*
X005527Y003201D02*
X005467Y003201D01*
X005467Y003259D02*
X005527Y003259D01*
X005527Y003380D02*
X005784Y003380D01*
X005784Y003536D01*
X005775Y003571D01*
X005756Y003603D01*
X005730Y003629D01*
X005699Y003647D01*
X005663Y003657D01*
X005527Y003657D01*
X005527Y003380D01*
X005527Y003435D02*
X005467Y003435D01*
X005467Y003493D02*
X005527Y003493D01*
X005527Y003552D02*
X005467Y003552D01*
X005467Y003610D02*
X005527Y003610D01*
X005702Y003669D02*
X006001Y003669D01*
X006001Y003727D02*
X005761Y003727D01*
X005784Y003786D02*
X006001Y003786D01*
X006001Y003844D02*
X005784Y003844D01*
X005784Y003903D02*
X006001Y003903D01*
X006001Y003961D02*
X005784Y003961D01*
X005784Y004020D02*
X006001Y004020D01*
X006001Y004078D02*
X005784Y004078D01*
X005784Y004137D02*
X006001Y004137D01*
X006001Y004195D02*
X005784Y004195D01*
X005730Y004254D02*
X006001Y004254D01*
X006001Y004312D02*
X005721Y004312D01*
X005780Y004371D02*
X006001Y004371D01*
X006001Y004429D02*
X005784Y004429D01*
X005784Y004488D02*
X006001Y004488D01*
X006001Y004546D02*
X005784Y004546D01*
X005784Y004605D02*
X006001Y004605D01*
X006001Y004663D02*
X005784Y004663D01*
X005784Y004722D02*
X006001Y004722D01*
X006001Y004780D02*
X005784Y004780D01*
X005770Y004839D02*
X006001Y004839D01*
X006001Y004897D02*
X005712Y004897D01*
X005699Y004928D02*
X005730Y004946D01*
X005756Y004972D01*
X005775Y005004D01*
X005784Y005039D01*
X005784Y005195D01*
X005527Y005195D01*
X005527Y004918D01*
X005663Y004918D01*
X005699Y004928D01*
X005740Y004956D02*
X006001Y004956D01*
X006001Y005014D02*
X005777Y005014D01*
X005784Y005073D02*
X006001Y005073D01*
X006001Y005131D02*
X005784Y005131D01*
X005784Y005190D02*
X006001Y005190D01*
X006001Y005248D02*
X005527Y005248D01*
X005527Y005255D02*
X005784Y005255D01*
X005784Y005411D01*
X005775Y005446D01*
X005756Y005478D01*
X005730Y005504D01*
X005699Y005522D01*
X005663Y005532D01*
X005527Y005532D01*
X005527Y005255D01*
X005467Y005255D01*
X005467Y005195D01*
X005527Y005195D01*
X005527Y005255D01*
X005527Y005307D02*
X005467Y005307D01*
X005467Y005255D02*
X005467Y005532D01*
X005331Y005532D01*
X005296Y005522D01*
X005264Y005504D01*
X005238Y005478D01*
X005220Y005446D01*
X005210Y005411D01*
X005210Y005255D01*
X005467Y005255D01*
X005467Y005248D02*
X005115Y005248D01*
X005115Y005307D02*
X005210Y005307D01*
X005210Y005365D02*
X005115Y005365D01*
X005115Y005424D02*
X005214Y005424D01*
X005242Y005482D02*
X005083Y005482D01*
X005020Y005541D02*
X006001Y005541D01*
X006001Y005599D02*
X005020Y005599D01*
X005129Y005658D02*
X006001Y005658D01*
X006001Y005716D02*
X005737Y005716D01*
X005731Y005710D02*
X005757Y005736D01*
X005775Y005768D01*
X005785Y005804D01*
X005785Y005900D01*
X005568Y005900D01*
X005568Y005960D01*
X005785Y005960D01*
X005785Y006055D01*
X005775Y006091D01*
X005757Y006123D01*
X005731Y006149D01*
X005699Y006168D01*
X005663Y006177D01*
X005567Y006177D01*
X005567Y005960D01*
X005508Y005960D01*
X005508Y006177D01*
X005412Y006177D01*
X005376Y006168D01*
X005344Y006149D01*
X005318Y006123D01*
X005300Y006091D01*
X005290Y006055D01*
X005290Y005960D01*
X005507Y005960D01*
X005507Y005900D01*
X005290Y005900D01*
X005290Y005804D01*
X005300Y005768D01*
X005318Y005736D01*
X005344Y005710D01*
X005376Y005692D01*
X005412Y005682D01*
X005508Y005682D01*
X005508Y005900D01*
X005567Y005900D01*
X005567Y005682D01*
X005663Y005682D01*
X005699Y005692D01*
X005731Y005710D01*
X005777Y005775D02*
X006001Y005775D01*
X006001Y005833D02*
X005785Y005833D01*
X005785Y005892D02*
X006001Y005892D01*
X006001Y005950D02*
X005568Y005950D01*
X005567Y005892D02*
X005508Y005892D01*
X005507Y005950D02*
X005157Y005950D01*
X005157Y005892D02*
X005290Y005892D01*
X005290Y005833D02*
X005157Y005833D01*
X005157Y005775D02*
X005298Y005775D01*
X005338Y005716D02*
X005157Y005716D01*
X005157Y006009D02*
X005290Y006009D01*
X005293Y006067D02*
X005157Y006067D01*
X005127Y006126D02*
X005321Y006126D01*
X005344Y006301D02*
X005103Y006301D01*
X005157Y006360D02*
X005290Y006360D01*
X005290Y006652D02*
X005157Y006652D01*
X005157Y006711D02*
X005315Y006711D01*
X005152Y006769D02*
X006001Y006769D01*
X006001Y006711D02*
X005760Y006711D01*
X005785Y006652D02*
X006001Y006652D01*
X006001Y006594D02*
X005785Y006594D01*
X005785Y006535D02*
X006001Y006535D01*
X006001Y006477D02*
X005785Y006477D01*
X005785Y006418D02*
X006001Y006418D01*
X006001Y006360D02*
X005785Y006360D01*
X005731Y006301D02*
X006001Y006301D01*
X006001Y006243D02*
X004760Y006243D01*
X004819Y006184D02*
X006001Y006184D01*
X006001Y006126D02*
X005754Y006126D01*
X005782Y006067D02*
X006001Y006067D01*
X006001Y006009D02*
X005785Y006009D01*
X005567Y006009D02*
X005508Y006009D01*
X005508Y006067D02*
X005567Y006067D01*
X005567Y006126D02*
X005508Y006126D01*
X005508Y005833D02*
X005567Y005833D01*
X005567Y005775D02*
X005508Y005775D01*
X005508Y005716D02*
X005567Y005716D01*
X005527Y005482D02*
X005467Y005482D01*
X005467Y005424D02*
X005527Y005424D01*
X005527Y005365D02*
X005467Y005365D01*
X005467Y005190D02*
X005527Y005190D01*
X005527Y005131D02*
X005467Y005131D01*
X005467Y005073D02*
X005527Y005073D01*
X005527Y005014D02*
X005467Y005014D01*
X005467Y004956D02*
X005527Y004956D01*
X005475Y004694D02*
X005497Y004600D01*
X005210Y004605D02*
X005115Y004605D01*
X005115Y004663D02*
X005210Y004663D01*
X005210Y004722D02*
X005115Y004722D01*
X005115Y004780D02*
X005205Y004780D01*
X005146Y004839D02*
X005101Y004839D01*
X005088Y004897D02*
X005043Y004897D01*
X005163Y005190D02*
X005210Y005190D01*
X004773Y004655D02*
X004828Y004600D01*
X004850Y004622D01*
X004850Y004600D01*
X005115Y004546D02*
X005210Y004546D01*
X005210Y004488D02*
X005115Y004488D01*
X005115Y004429D02*
X005210Y004429D01*
X005215Y004371D02*
X005110Y004371D01*
X005052Y004312D02*
X005273Y004312D01*
X005264Y004254D02*
X005061Y004254D01*
X005115Y004195D02*
X005210Y004195D01*
X005210Y004137D02*
X005115Y004137D01*
X005115Y004078D02*
X005210Y004078D01*
X005210Y004020D02*
X005115Y004020D01*
X004623Y003669D02*
X004511Y003669D01*
X004511Y003727D02*
X004564Y003727D01*
X004541Y003786D02*
X004505Y003786D01*
X004541Y003844D02*
X004446Y003844D01*
X004511Y003610D02*
X004576Y003610D01*
X004541Y003552D02*
X004511Y003552D01*
X004154Y003147D02*
X004068Y003147D01*
X004111Y003191D02*
X004111Y003017D01*
X004154Y002974D01*
X004050Y002908D02*
X002408Y002908D01*
X002408Y002967D02*
X003992Y002967D01*
X003991Y003025D02*
X002408Y003025D01*
X002408Y003084D02*
X003962Y003084D01*
X003948Y003142D02*
X003757Y003142D01*
X003686Y003142D02*
X003686Y003142D01*
X003686Y003201D02*
X003686Y003201D01*
X003686Y003259D02*
X003686Y003259D01*
X003686Y003318D02*
X003686Y003318D01*
X003686Y003375D02*
X003686Y003623D01*
X003686Y003375D01*
X003686Y003375D01*
X003686Y003376D02*
X003686Y003376D01*
X003686Y003435D02*
X003686Y003435D01*
X003686Y003493D02*
X003686Y003493D01*
X003686Y003552D02*
X003686Y003552D01*
X003686Y003610D02*
X003686Y003610D01*
X003686Y003623D02*
X003659Y003623D01*
X003623Y003613D01*
X003591Y003595D01*
X003587Y003591D01*
X003556Y003623D01*
X003422Y003623D01*
X003391Y003591D01*
X003359Y003623D01*
X003225Y003623D01*
X003194Y003591D01*
X003162Y003623D01*
X003028Y003623D01*
X002997Y003591D01*
X002965Y003623D01*
X002832Y003623D01*
X002800Y003591D01*
X002769Y003623D01*
X002654Y003623D01*
X002654Y003737D01*
X002622Y003769D01*
X002626Y003772D01*
X002644Y003804D01*
X002654Y003840D01*
X002654Y003867D01*
X002406Y003867D01*
X002159Y003867D01*
X002406Y003867D01*
X002406Y003867D01*
X002406Y003867D01*
X002654Y003867D01*
X002654Y003895D01*
X002644Y003930D01*
X002626Y003962D01*
X002622Y003966D01*
X002654Y003997D01*
X002654Y004131D01*
X002622Y004163D01*
X002626Y004166D01*
X002644Y004198D01*
X002654Y004234D01*
X002654Y004261D01*
X002654Y004288D01*
X002644Y004324D01*
X002626Y004356D01*
X002622Y004359D01*
X002654Y004391D01*
X002654Y004525D01*
X002622Y004556D01*
X002654Y004588D01*
X002654Y004702D01*
X002769Y004702D01*
X002800Y004734D01*
X002832Y004702D01*
X002965Y004702D01*
X002997Y004734D01*
X003028Y004702D01*
X003162Y004702D01*
X003194Y004734D01*
X003225Y004702D01*
X003359Y004702D01*
X003391Y004734D01*
X003422Y004702D01*
X003556Y004702D01*
X003587Y004734D01*
X003591Y004730D01*
X003623Y004712D01*
X003659Y004702D01*
X003686Y004702D01*
X003713Y004702D01*
X003734Y004708D01*
X003734Y004588D01*
X003765Y004556D01*
X003734Y004525D01*
X003734Y004391D01*
X003765Y004359D01*
X003734Y004328D01*
X003734Y004194D01*
X003765Y004162D01*
X003734Y004131D01*
X003734Y003997D01*
X003765Y003966D01*
X003734Y003934D01*
X003734Y003800D01*
X003765Y003769D01*
X003734Y003737D01*
X003734Y003617D01*
X003713Y003623D01*
X003686Y003623D01*
X003734Y003669D02*
X002654Y003669D01*
X002654Y003727D02*
X003734Y003727D01*
X003748Y003786D02*
X002633Y003786D01*
X002654Y003844D02*
X003734Y003844D01*
X003734Y003903D02*
X003455Y003903D01*
X003481Y003928D02*
X003428Y003876D01*
X002960Y003876D01*
X002907Y003928D01*
X002907Y004397D01*
X002960Y004449D01*
X003428Y004449D01*
X003481Y004397D01*
X003481Y003928D01*
X003481Y003961D02*
X003761Y003961D01*
X003734Y004020D02*
X003481Y004020D01*
X003481Y004078D02*
X003734Y004078D01*
X003739Y004137D02*
X003481Y004137D01*
X003481Y004195D02*
X003734Y004195D01*
X003734Y004254D02*
X003481Y004254D01*
X003481Y004312D02*
X003734Y004312D01*
X003754Y004371D02*
X003481Y004371D01*
X003448Y004429D02*
X003734Y004429D01*
X003734Y004488D02*
X002654Y004488D01*
X002654Y004429D02*
X002939Y004429D01*
X002907Y004371D02*
X002633Y004371D01*
X002647Y004312D02*
X002907Y004312D01*
X002907Y004254D02*
X002654Y004254D01*
X002654Y004261D02*
X002406Y004261D01*
X002406Y004261D01*
X002159Y004261D01*
X002159Y004288D01*
X002168Y004324D01*
X002171Y004328D01*
X002063Y004328D01*
X001921Y004470D01*
X001845Y004546D01*
X001845Y004605D02*
X000230Y004605D01*
X000230Y004663D02*
X000504Y004663D01*
X000480Y004722D02*
X000230Y004722D01*
X000230Y004780D02*
X000479Y004780D01*
X000512Y004546D02*
X000230Y004546D01*
X000230Y004488D02*
X000482Y004488D01*
X000479Y004429D02*
X000230Y004429D01*
X000230Y004371D02*
X000479Y004371D01*
X000735Y004371D02*
X000795Y004371D01*
X000795Y004429D02*
X000735Y004429D01*
X000735Y004488D02*
X000795Y004488D01*
X000795Y004546D02*
X000735Y004546D01*
X000735Y004663D02*
X000795Y004663D01*
X000795Y004722D02*
X000735Y004722D01*
X000735Y004780D02*
X000795Y004780D01*
X000795Y004956D02*
X000735Y004956D01*
X000735Y005014D02*
X000795Y005014D01*
X000795Y005073D02*
X000735Y005073D01*
X000735Y005131D02*
X000795Y005131D01*
X000795Y005190D02*
X000735Y005190D01*
X001000Y005190D02*
X001200Y005190D01*
X001148Y005131D02*
X001043Y005131D01*
X001052Y005073D02*
X001148Y005073D01*
X001148Y005014D02*
X001052Y005014D01*
X001052Y004956D02*
X001148Y004956D01*
X001413Y004913D02*
X001435Y004913D01*
X001697Y004663D02*
X001845Y004663D01*
X001845Y004722D02*
X001721Y004722D01*
X001721Y004780D02*
X001799Y004780D01*
X001991Y004956D02*
X002553Y004956D01*
X002553Y005014D02*
X001932Y005014D01*
X001871Y005131D02*
X002568Y005131D01*
X002553Y005073D02*
X001813Y005073D01*
X001930Y005190D02*
X002627Y005190D01*
X002776Y005190D02*
X002824Y005190D01*
X002973Y005190D02*
X003021Y005190D01*
X003170Y005190D02*
X003217Y005190D01*
X003367Y005190D02*
X003414Y005190D01*
X003564Y005190D02*
X003629Y005190D01*
X003686Y005190D02*
X003686Y005190D01*
X003743Y005190D02*
X004270Y005190D01*
X004329Y005131D02*
X003814Y005131D01*
X003835Y005073D02*
X004387Y005073D01*
X004541Y005014D02*
X003835Y005014D01*
X003835Y004956D02*
X004585Y004956D01*
X004613Y004897D02*
X003835Y004897D01*
X003835Y004839D02*
X004555Y004839D01*
X004541Y005424D02*
X004517Y005424D01*
X004573Y005482D02*
X004458Y005482D01*
X004400Y005541D02*
X004680Y005541D01*
X004680Y005599D02*
X001148Y005599D01*
X001299Y005658D02*
X002196Y005658D01*
X002196Y005657D02*
X002222Y005631D01*
X002254Y005613D01*
X002289Y005604D01*
X002445Y005604D01*
X002445Y005860D01*
X002168Y005860D01*
X002168Y005724D01*
X002178Y005689D01*
X002196Y005657D01*
X002171Y005716D02*
X001389Y005716D01*
X001462Y005775D02*
X002168Y005775D01*
X002168Y005833D02*
X001522Y005833D01*
X001570Y005892D02*
X002445Y005892D01*
X002445Y005950D02*
X002505Y005950D01*
X002505Y005892D02*
X002824Y005892D01*
X002824Y005950D02*
X002782Y005950D01*
X002782Y006009D02*
X002866Y006009D01*
X002866Y006067D02*
X002779Y006067D01*
X002819Y006067D02*
X003506Y006067D01*
X003533Y006067D02*
X003435Y006067D01*
X003436Y006009D02*
X003512Y006009D01*
X003506Y006126D02*
X002819Y006126D01*
X002830Y006126D02*
X002752Y006126D01*
X002824Y006249D02*
X002824Y006302D01*
X002834Y006337D01*
X002852Y006369D01*
X002878Y006395D01*
X002900Y006408D01*
X002878Y006429D01*
X002889Y006418D02*
X002782Y006418D01*
X002782Y006360D02*
X002847Y006360D01*
X002819Y006360D02*
X003355Y006360D01*
X003477Y006301D02*
X003496Y006301D01*
X002819Y006301D01*
X002824Y006301D02*
X002728Y006301D01*
X002505Y006126D02*
X002445Y006126D01*
X002445Y006067D02*
X002505Y006067D01*
X002505Y006009D02*
X002445Y006009D01*
X002445Y005833D02*
X002505Y005833D01*
X002505Y005775D02*
X002445Y005775D01*
X002445Y005716D02*
X002505Y005716D01*
X002505Y005658D02*
X002445Y005658D01*
X002168Y005950D02*
X001610Y005950D01*
X001644Y006009D02*
X002168Y006009D01*
X002171Y006067D02*
X001671Y006067D01*
X001723Y006243D02*
X003127Y006243D01*
X003175Y006243D02*
X003533Y006243D01*
X003533Y006126D02*
X003471Y006126D01*
X003704Y005833D02*
X004150Y005833D01*
X004150Y005827D02*
X003848Y005827D01*
X003848Y005774D01*
X003858Y005739D01*
X003876Y005707D01*
X003902Y005681D01*
X003934Y005662D01*
X003970Y005653D01*
X004150Y005653D01*
X004150Y005827D01*
X004150Y005875D01*
X003848Y005875D01*
X003848Y005928D01*
X003858Y005963D01*
X003876Y005995D01*
X003902Y006021D01*
X003934Y006040D01*
X003970Y006049D01*
X004150Y006049D01*
X004150Y005875D01*
X004198Y005875D01*
X004198Y006049D01*
X004379Y006049D01*
X004415Y006040D01*
X004447Y006021D01*
X004473Y005995D01*
X004491Y005963D01*
X004501Y005928D01*
X004501Y005875D01*
X004198Y005875D01*
X004198Y005827D01*
X004198Y005653D01*
X004379Y005653D01*
X004415Y005662D01*
X004447Y005681D01*
X004473Y005707D01*
X004491Y005739D01*
X004501Y005774D01*
X004501Y005827D01*
X004198Y005827D01*
X004150Y005827D01*
X004198Y005833D02*
X004543Y005833D01*
X004543Y005775D02*
X004501Y005775D01*
X004478Y005716D02*
X004543Y005716D01*
X004571Y005658D02*
X004397Y005658D01*
X004198Y005658D02*
X004150Y005658D01*
X004150Y005716D02*
X004198Y005716D01*
X004198Y005775D02*
X004150Y005775D01*
X004150Y005892D02*
X004198Y005892D01*
X004198Y005950D02*
X004150Y005950D01*
X004150Y006009D02*
X004198Y006009D01*
X004338Y006184D02*
X003792Y006184D01*
X003792Y006126D02*
X004397Y006126D01*
X004455Y006067D02*
X003792Y006067D01*
X003792Y006009D02*
X003889Y006009D01*
X003854Y005950D02*
X003792Y005950D01*
X003763Y005892D02*
X003848Y005892D01*
X003848Y005775D02*
X003646Y005775D01*
X003458Y005716D02*
X003871Y005716D01*
X003952Y005658D02*
X003400Y005658D01*
X003686Y005131D02*
X003686Y005131D01*
X003686Y005073D02*
X003686Y005073D01*
X003686Y005014D02*
X003686Y005014D01*
X003686Y004956D02*
X003686Y004956D01*
X003686Y004950D02*
X003686Y004702D01*
X003686Y004950D01*
X003686Y004950D01*
X003686Y004897D02*
X003686Y004897D01*
X003686Y004839D02*
X003686Y004839D01*
X003686Y004780D02*
X003686Y004780D01*
X003686Y004722D02*
X003686Y004722D01*
X003734Y004663D02*
X002654Y004663D01*
X002654Y004605D02*
X003734Y004605D01*
X003755Y004546D02*
X002633Y004546D01*
X002788Y004722D02*
X002812Y004722D01*
X002985Y004722D02*
X003009Y004722D01*
X003181Y004722D02*
X003206Y004722D01*
X003378Y004722D02*
X003403Y004722D01*
X003575Y004722D02*
X003606Y004722D01*
X002907Y004195D02*
X002643Y004195D01*
X002648Y004137D02*
X002907Y004137D01*
X002907Y004078D02*
X002654Y004078D01*
X002654Y004020D02*
X002907Y004020D01*
X002907Y003961D02*
X002626Y003961D01*
X002652Y003903D02*
X002933Y003903D01*
X002978Y003610D02*
X003016Y003610D01*
X003175Y003610D02*
X003213Y003610D01*
X003372Y003610D02*
X003410Y003610D01*
X003569Y003610D02*
X003618Y003610D01*
X003835Y003259D02*
X004010Y003259D01*
X003991Y003240D02*
X003991Y003240D01*
X003951Y003201D02*
X003818Y003201D01*
X003615Y003142D02*
X003570Y003142D01*
X003408Y003142D02*
X003373Y003142D01*
X003211Y003142D02*
X003177Y003142D01*
X003014Y003142D02*
X002980Y003142D01*
X002817Y003142D02*
X002783Y003142D01*
X002620Y003142D02*
X002408Y003142D01*
X002350Y003201D02*
X002562Y003201D01*
X002553Y003259D02*
X000230Y003259D01*
X000230Y003201D02*
X000477Y003201D01*
X000428Y003142D02*
X000230Y003142D01*
X000230Y003084D02*
X000417Y003084D01*
X000417Y003025D02*
X000230Y003025D01*
X000230Y002967D02*
X000417Y002967D01*
X000417Y002908D02*
X000230Y002908D01*
X000230Y002850D02*
X000417Y002850D01*
X000417Y002791D02*
X000230Y002791D01*
X000230Y002733D02*
X000417Y002733D01*
X000230Y003318D02*
X001920Y003318D01*
X001862Y003376D02*
X001660Y003376D01*
X001718Y003435D02*
X001803Y003435D01*
X001745Y003493D02*
X001721Y003493D01*
X001935Y003727D02*
X002159Y003727D01*
X002159Y003669D02*
X001994Y003669D01*
X002052Y003610D02*
X002159Y003610D01*
X002179Y003786D02*
X001877Y003786D01*
X001721Y003844D02*
X002159Y003844D01*
X002161Y003903D02*
X001706Y003903D01*
X001648Y003961D02*
X001868Y003961D01*
X001809Y004020D02*
X001678Y004020D01*
X001721Y004078D02*
X001751Y004078D01*
X001943Y004254D02*
X002159Y004254D01*
X002159Y004261D02*
X002159Y004234D01*
X002168Y004198D01*
X002171Y004194D01*
X002002Y004194D01*
X001855Y004341D01*
X001779Y004417D01*
X001721Y004417D01*
X001721Y004512D01*
X001721Y004488D02*
X001904Y004488D01*
X001962Y004429D02*
X001721Y004429D01*
X001826Y004371D02*
X002021Y004371D01*
X001884Y004312D02*
X002165Y004312D01*
X002159Y004261D02*
X002406Y004261D01*
X002654Y004261D01*
X002406Y004261D02*
X002406Y004261D01*
X002170Y004195D02*
X002001Y004195D01*
X002154Y004605D02*
X002159Y004605D01*
X002159Y004663D02*
X002105Y004663D01*
X002105Y004722D02*
X002159Y004722D01*
X002105Y004780D02*
X002217Y004780D01*
X002105Y004839D02*
X002553Y004839D01*
X002553Y004897D02*
X002049Y004897D01*
X002754Y005658D02*
X002902Y005658D01*
X002843Y005716D02*
X002779Y005716D01*
X002782Y005775D02*
X002824Y005775D01*
X002824Y005833D02*
X002782Y005833D01*
X002231Y006828D02*
X002173Y006828D01*
X001737Y006945D02*
X005951Y006945D01*
X005978Y006886D02*
X003924Y006886D01*
X003983Y006828D02*
X004606Y006828D01*
X004548Y006769D02*
X004447Y006769D01*
X004501Y006711D02*
X004543Y006711D01*
X004543Y006652D02*
X004501Y006652D01*
X004501Y006594D02*
X004543Y006594D01*
X004543Y006535D02*
X004501Y006535D01*
X004526Y006477D02*
X004543Y006477D01*
X004280Y006243D02*
X003792Y006243D01*
X003792Y006301D02*
X004221Y006301D01*
X004163Y006360D02*
X003970Y006360D01*
X003701Y006886D02*
X003624Y006886D01*
X004459Y006009D02*
X004514Y006009D01*
X004495Y005950D02*
X004543Y005950D01*
X004543Y005892D02*
X004501Y005892D01*
X004850Y006560D02*
X004952Y006520D01*
X005094Y006828D02*
X005997Y006828D01*
X005892Y007003D02*
X001737Y007003D01*
X001148Y003610D02*
X001052Y003610D01*
X001052Y003552D02*
X001148Y003552D01*
X001148Y003493D02*
X001052Y003493D01*
X001039Y003435D02*
X001151Y003435D01*
X001209Y003376D02*
X000985Y003376D01*
X001166Y003201D02*
X001656Y003201D01*
X001598Y003142D02*
X001215Y003142D01*
X001227Y003084D02*
X001598Y003084D01*
X001598Y003025D02*
X001227Y003025D01*
X001227Y002967D02*
X001598Y002967D01*
X001598Y002908D02*
X001227Y002908D01*
X001227Y002850D02*
X001598Y002850D01*
X001598Y002791D02*
X001227Y002791D01*
X001227Y002733D02*
X001598Y002733D01*
X002577Y002733D02*
X002955Y002733D01*
X002896Y002674D02*
X002635Y002674D01*
X002694Y002616D02*
X002896Y002616D01*
X002896Y002557D02*
X002832Y002557D01*
X002862Y002031D02*
X002896Y002031D01*
X003313Y001793D02*
X003313Y001479D01*
X003176Y001342D01*
X003176Y000968D01*
X003200Y000968D01*
X003306Y000924D01*
X003388Y000842D01*
X003389Y000839D01*
X003391Y000842D01*
X003472Y000924D01*
X003491Y000932D01*
X003491Y001568D01*
X003421Y001638D01*
X003421Y001812D01*
X003434Y001824D01*
X003389Y001869D01*
X003313Y001793D01*
X003317Y001797D02*
X003421Y001797D01*
X003421Y001738D02*
X003313Y001738D01*
X003313Y001680D02*
X003421Y001680D01*
X003438Y001621D02*
X003313Y001621D01*
X003313Y001563D02*
X003491Y001563D01*
X003491Y001504D02*
X003313Y001504D01*
X003280Y001446D02*
X003491Y001446D01*
X003491Y001387D02*
X003221Y001387D01*
X003176Y001329D02*
X003491Y001329D01*
X003491Y001270D02*
X003176Y001270D01*
X003176Y001212D02*
X003491Y001212D01*
X003491Y001153D02*
X003176Y001153D01*
X003176Y001095D02*
X003491Y001095D01*
X003491Y001036D02*
X003176Y001036D01*
X003176Y000978D02*
X003491Y000978D01*
X003467Y000919D02*
X003311Y000919D01*
X003370Y000861D02*
X003409Y000861D01*
X003397Y000510D02*
X003381Y000510D01*
X003323Y000451D02*
X003455Y000451D01*
X003815Y000451D02*
X003948Y000451D01*
X003889Y000510D02*
X003873Y000510D01*
X003881Y000839D02*
X003880Y000842D01*
X003799Y000924D01*
X003771Y000935D01*
X003771Y001568D01*
X003841Y001638D01*
X003841Y001812D01*
X003833Y001820D01*
X003881Y001869D01*
X003930Y001820D01*
X003921Y001812D01*
X003921Y001638D01*
X003991Y001568D01*
X003991Y000935D01*
X003964Y000924D01*
X003883Y000842D01*
X003881Y000839D01*
X003862Y000861D02*
X003901Y000861D01*
X003959Y000919D02*
X003803Y000919D01*
X003771Y000978D02*
X003991Y000978D01*
X003991Y001036D02*
X003771Y001036D01*
X003771Y001095D02*
X003991Y001095D01*
X003991Y001153D02*
X003771Y001153D01*
X003771Y001212D02*
X003991Y001212D01*
X003991Y001270D02*
X003771Y001270D01*
X003771Y001329D02*
X003991Y001329D01*
X003991Y001387D02*
X003771Y001387D01*
X003771Y001446D02*
X003991Y001446D01*
X003991Y001504D02*
X003771Y001504D01*
X003771Y001563D02*
X003991Y001563D01*
X003938Y001621D02*
X003824Y001621D01*
X003841Y001680D02*
X003921Y001680D01*
X003921Y001738D02*
X003841Y001738D01*
X003841Y001797D02*
X003921Y001797D01*
X003895Y001855D02*
X003867Y001855D01*
X004127Y002221D02*
X004127Y002272D01*
X004360Y001855D02*
X004393Y001855D01*
X004341Y001797D02*
X004462Y001797D01*
X004589Y001797D02*
X004649Y001797D01*
X004649Y001855D02*
X004589Y001855D01*
X004589Y001914D02*
X004649Y001914D01*
X004649Y001972D02*
X004589Y001972D01*
X004589Y002031D02*
X004649Y002031D01*
X004649Y002089D02*
X004589Y002089D01*
X004589Y002148D02*
X004649Y002148D01*
X004649Y002206D02*
X004589Y002206D01*
X004867Y002382D02*
X006001Y002382D01*
X006001Y002440D02*
X004867Y002440D01*
X004867Y002499D02*
X006001Y002499D01*
X006001Y002557D02*
X004867Y002557D01*
X004867Y002616D02*
X006001Y002616D01*
X006001Y002674D02*
X004855Y002674D01*
X005073Y003084D02*
X005252Y003084D01*
X005216Y003142D02*
X005115Y003142D01*
X005115Y003201D02*
X005210Y003201D01*
X005210Y003259D02*
X005115Y003259D01*
X005115Y003318D02*
X005210Y003318D01*
X005749Y003610D02*
X006001Y003610D01*
X006001Y003552D02*
X005780Y003552D01*
X005784Y003493D02*
X006001Y003493D01*
X006001Y003435D02*
X005784Y003435D01*
X004435Y002733D02*
X004315Y002733D01*
X004374Y002674D02*
X004384Y002674D01*
X003939Y002733D02*
X003823Y002733D01*
X003447Y002733D02*
X003331Y002733D01*
X003635Y002284D02*
X003635Y002272D01*
X003403Y001855D02*
X003375Y001855D01*
X004341Y001738D02*
X006001Y001738D01*
X005100Y000919D02*
X004780Y000919D01*
X004845Y000861D02*
X005100Y000861D01*
X005100Y000802D02*
X004881Y000802D01*
X004901Y000744D02*
X005100Y000744D01*
X004394Y000861D02*
X004354Y000861D01*
X005884Y000276D02*
X001730Y000276D01*
X001730Y000334D02*
X005943Y000334D01*
X002819Y003610D02*
X002781Y003610D01*
X001702Y001680D02*
X001187Y001680D01*
X001313Y001621D02*
X001655Y001621D01*
X001655Y001563D02*
X001403Y001563D01*
X001475Y001504D02*
X001655Y001504D01*
X001655Y001446D02*
X001527Y001446D01*
X001574Y001387D02*
X001655Y001387D01*
X001655Y001329D02*
X001612Y001329D01*
X001644Y001270D02*
X001655Y001270D01*
X000546Y003376D02*
X000230Y003376D01*
X000230Y003435D02*
X000492Y003435D01*
X000479Y003493D02*
X000230Y003493D01*
X000230Y003552D02*
X000479Y003552D01*
X000479Y003610D02*
X000230Y003610D01*
X005752Y005482D02*
X006001Y005482D01*
X006001Y005424D02*
X005781Y005424D01*
X005784Y005365D02*
X006001Y005365D01*
X006001Y005307D02*
X005784Y005307D01*
D12*
X005645Y006037D02*
X005431Y006037D01*
X005645Y006037D02*
X005645Y005823D01*
X005431Y005823D01*
X005431Y006037D01*
X005431Y005923D02*
X005645Y005923D01*
X005645Y006023D02*
X005431Y006023D01*
X005431Y006627D02*
X005645Y006627D01*
X005645Y006413D01*
X005431Y006413D01*
X005431Y006627D01*
X005431Y006513D02*
X005645Y006513D01*
X005645Y006613D02*
X005431Y006613D01*
X002268Y003085D02*
X001738Y003085D01*
X002268Y003085D02*
X002268Y002241D01*
X001738Y002241D01*
X001738Y003085D01*
X001738Y002341D02*
X002268Y002341D01*
X002268Y002441D02*
X001738Y002441D01*
X001738Y002541D02*
X002268Y002541D01*
X002268Y002641D02*
X001738Y002641D01*
X001738Y002741D02*
X002268Y002741D01*
X002268Y002841D02*
X001738Y002841D01*
X001738Y002941D02*
X002268Y002941D01*
X002268Y003041D02*
X001738Y003041D01*
X001087Y002241D02*
X000557Y002241D01*
X000557Y003085D01*
X001087Y003085D01*
X001087Y002241D01*
X001087Y002341D02*
X000557Y002341D01*
X000557Y002441D02*
X001087Y002441D01*
X001087Y002541D02*
X000557Y002541D01*
X000557Y002641D02*
X001087Y002641D01*
X001087Y002741D02*
X000557Y002741D01*
X000557Y002841D02*
X001087Y002841D01*
X001087Y002941D02*
X000557Y002941D01*
X000557Y003041D02*
X001087Y003041D01*
X003036Y002615D02*
X003250Y002615D01*
X003250Y001929D01*
X003036Y001929D01*
X003036Y002615D01*
X003036Y002029D02*
X003250Y002029D01*
X003250Y002129D02*
X003036Y002129D01*
X003036Y002229D02*
X003250Y002229D01*
X003250Y002329D02*
X003036Y002329D01*
X003036Y002429D02*
X003250Y002429D01*
X003250Y002529D02*
X003036Y002529D01*
X003528Y002615D02*
X003742Y002615D01*
X003742Y001929D01*
X003528Y001929D01*
X003528Y002615D01*
X003528Y002029D02*
X003742Y002029D01*
X003742Y002129D02*
X003528Y002129D01*
X003528Y002229D02*
X003742Y002229D01*
X003742Y002329D02*
X003528Y002329D01*
X003528Y002429D02*
X003742Y002429D01*
X003742Y002529D02*
X003528Y002529D01*
X004020Y002615D02*
X004234Y002615D01*
X004234Y001929D01*
X004020Y001929D01*
X004020Y002615D01*
X004020Y002029D02*
X004234Y002029D01*
X004234Y002129D02*
X004020Y002129D01*
X004020Y002229D02*
X004234Y002229D01*
X004234Y002329D02*
X004020Y002329D01*
X004020Y002429D02*
X004234Y002429D01*
X004234Y002529D02*
X004020Y002529D01*
X004512Y002615D02*
X004726Y002615D01*
X004726Y001929D01*
X004512Y001929D01*
X004512Y002615D01*
X004512Y002029D02*
X004726Y002029D01*
X004726Y002129D02*
X004512Y002129D01*
X004512Y002229D02*
X004726Y002229D01*
X004726Y002329D02*
X004512Y002329D01*
X004512Y002429D02*
X004726Y002429D01*
X004726Y002529D02*
X004512Y002529D01*
D13*
X003677Y003268D02*
X003677Y003482D01*
X003695Y003482D01*
X003695Y003268D01*
X003677Y003268D01*
X003677Y003367D02*
X003695Y003367D01*
X003695Y003466D02*
X003677Y003466D01*
X003480Y003482D02*
X003480Y003268D01*
X003480Y003482D02*
X003498Y003482D01*
X003498Y003268D01*
X003480Y003268D01*
X003480Y003367D02*
X003498Y003367D01*
X003498Y003466D02*
X003480Y003466D01*
X003283Y003482D02*
X003283Y003268D01*
X003283Y003482D02*
X003301Y003482D01*
X003301Y003268D01*
X003283Y003268D01*
X003283Y003367D02*
X003301Y003367D01*
X003301Y003466D02*
X003283Y003466D01*
X003086Y003482D02*
X003086Y003268D01*
X003086Y003482D02*
X003104Y003482D01*
X003104Y003268D01*
X003086Y003268D01*
X003086Y003367D02*
X003104Y003367D01*
X003104Y003466D02*
X003086Y003466D01*
X002889Y003482D02*
X002889Y003268D01*
X002889Y003482D02*
X002907Y003482D01*
X002907Y003268D01*
X002889Y003268D01*
X002889Y003367D02*
X002907Y003367D01*
X002907Y003466D02*
X002889Y003466D01*
X002693Y003482D02*
X002693Y003268D01*
X002693Y003482D02*
X002711Y003482D01*
X002711Y003268D01*
X002693Y003268D01*
X002693Y003367D02*
X002711Y003367D01*
X002711Y003466D02*
X002693Y003466D01*
X002513Y003661D02*
X002299Y003661D01*
X002299Y003679D01*
X002513Y003679D01*
X002513Y003661D01*
X002513Y003858D02*
X002299Y003858D01*
X002299Y003876D01*
X002513Y003876D01*
X002513Y003858D01*
X002513Y004055D02*
X002299Y004055D01*
X002299Y004073D01*
X002513Y004073D01*
X002513Y004055D01*
X002513Y004252D02*
X002299Y004252D01*
X002299Y004270D01*
X002513Y004270D01*
X002513Y004252D01*
X002513Y004449D02*
X002299Y004449D01*
X002299Y004467D01*
X002513Y004467D01*
X002513Y004449D01*
X002513Y004646D02*
X002299Y004646D01*
X002299Y004664D01*
X002513Y004664D01*
X002513Y004646D01*
X002711Y004843D02*
X002711Y005057D01*
X002711Y004843D02*
X002693Y004843D01*
X002693Y005057D01*
X002711Y005057D01*
X002711Y004942D02*
X002693Y004942D01*
X002693Y005041D02*
X002711Y005041D01*
X002907Y005057D02*
X002907Y004843D01*
X002889Y004843D01*
X002889Y005057D01*
X002907Y005057D01*
X002907Y004942D02*
X002889Y004942D01*
X002889Y005041D02*
X002907Y005041D01*
X003104Y005057D02*
X003104Y004843D01*
X003086Y004843D01*
X003086Y005057D01*
X003104Y005057D01*
X003104Y004942D02*
X003086Y004942D01*
X003086Y005041D02*
X003104Y005041D01*
X003301Y005057D02*
X003301Y004843D01*
X003283Y004843D01*
X003283Y005057D01*
X003301Y005057D01*
X003301Y004942D02*
X003283Y004942D01*
X003283Y005041D02*
X003301Y005041D01*
X003498Y005057D02*
X003498Y004843D01*
X003480Y004843D01*
X003480Y005057D01*
X003498Y005057D01*
X003498Y004942D02*
X003480Y004942D01*
X003480Y005041D02*
X003498Y005041D01*
X003695Y005057D02*
X003695Y004843D01*
X003677Y004843D01*
X003677Y005057D01*
X003695Y005057D01*
X003695Y004942D02*
X003677Y004942D01*
X003677Y005041D02*
X003695Y005041D01*
X003874Y004664D02*
X004088Y004664D01*
X004088Y004646D01*
X003874Y004646D01*
X003874Y004664D01*
X003874Y004467D02*
X004088Y004467D01*
X004088Y004449D01*
X003874Y004449D01*
X003874Y004467D01*
X003874Y004270D02*
X004088Y004270D01*
X004088Y004252D01*
X003874Y004252D01*
X003874Y004270D01*
X003874Y004073D02*
X004088Y004073D01*
X004088Y004055D01*
X003874Y004055D01*
X003874Y004073D01*
X003874Y003876D02*
X004088Y003876D01*
X004088Y003858D01*
X003874Y003858D01*
X003874Y003876D01*
X003874Y003679D02*
X004088Y003679D01*
X004088Y003661D01*
X003874Y003661D01*
X003874Y003679D01*
D14*
X003194Y004163D03*
D15*
X002642Y005742D02*
X002308Y005742D01*
X002308Y006038D01*
X002642Y006038D01*
X002642Y005742D01*
X002642Y005839D02*
X002308Y005839D01*
X002308Y005936D02*
X002642Y005936D01*
X002642Y006033D02*
X002308Y006033D01*
X002308Y006412D02*
X002642Y006412D01*
X002308Y006412D02*
X002308Y006708D01*
X002642Y006708D01*
X002642Y006412D01*
X002642Y006509D02*
X002308Y006509D01*
X002308Y006606D02*
X002642Y006606D01*
X002642Y006703D02*
X002308Y006703D01*
X001287Y005080D02*
X001287Y004746D01*
X001287Y005080D02*
X001583Y005080D01*
X001583Y004746D01*
X001287Y004746D01*
X001287Y004843D02*
X001583Y004843D01*
X001583Y004940D02*
X001287Y004940D01*
X001287Y005037D02*
X001583Y005037D01*
X001287Y004455D02*
X001287Y004121D01*
X001287Y004455D02*
X001583Y004455D01*
X001583Y004121D01*
X001287Y004121D01*
X001287Y004218D02*
X001583Y004218D01*
X001583Y004315D02*
X001287Y004315D01*
X001287Y004412D02*
X001583Y004412D01*
X001287Y003830D02*
X001287Y003496D01*
X001287Y003830D02*
X001583Y003830D01*
X001583Y003496D01*
X001287Y003496D01*
X001287Y003593D02*
X001583Y003593D01*
X001583Y003690D02*
X001287Y003690D01*
X001287Y003787D02*
X001583Y003787D01*
X000617Y003830D02*
X000617Y003496D01*
X000617Y003830D02*
X000913Y003830D01*
X000913Y003496D01*
X000617Y003496D01*
X000617Y003593D02*
X000913Y003593D01*
X000913Y003690D02*
X000617Y003690D01*
X000617Y003787D02*
X000913Y003787D01*
X000617Y004121D02*
X000617Y004455D01*
X000913Y004455D01*
X000913Y004121D01*
X000617Y004121D01*
X000617Y004218D02*
X000913Y004218D01*
X000913Y004315D02*
X000617Y004315D01*
X000617Y004412D02*
X000913Y004412D01*
X000617Y004746D02*
X000617Y005080D01*
X000913Y005080D01*
X000913Y004746D01*
X000617Y004746D01*
X000617Y004843D02*
X000913Y004843D01*
X000913Y004940D02*
X000617Y004940D01*
X000617Y005037D02*
X000913Y005037D01*
X004976Y005058D02*
X004976Y005392D01*
X004976Y005058D02*
X004680Y005058D01*
X004680Y005392D01*
X004976Y005392D01*
X004976Y005155D02*
X004680Y005155D01*
X004680Y005252D02*
X004976Y005252D01*
X004976Y005349D02*
X004680Y005349D01*
X005017Y005742D02*
X005017Y006038D01*
X005017Y005742D02*
X004683Y005742D01*
X004683Y006038D01*
X005017Y006038D01*
X005017Y005839D02*
X004683Y005839D01*
X004683Y005936D02*
X005017Y005936D01*
X005017Y006033D02*
X004683Y006033D01*
X005017Y006412D02*
X005017Y006708D01*
X005017Y006412D02*
X004683Y006412D01*
X004683Y006708D01*
X005017Y006708D01*
X005017Y006509D02*
X004683Y006509D01*
X004683Y006606D02*
X005017Y006606D01*
X005017Y006703D02*
X004683Y006703D01*
X005645Y005392D02*
X005645Y005058D01*
X005349Y005058D01*
X005349Y005392D01*
X005645Y005392D01*
X005645Y005155D02*
X005349Y005155D01*
X005349Y005252D02*
X005645Y005252D01*
X005645Y005349D02*
X005349Y005349D01*
X005349Y004433D02*
X005645Y004433D01*
X005349Y004433D02*
X005349Y004767D01*
X005645Y004767D01*
X005645Y004433D01*
X005645Y004530D02*
X005349Y004530D01*
X005349Y004627D02*
X005645Y004627D01*
X005645Y004724D02*
X005349Y004724D01*
X004976Y004433D02*
X004680Y004433D01*
X004680Y004767D01*
X004976Y004767D01*
X004976Y004433D01*
X004976Y004530D02*
X004680Y004530D01*
X004680Y004627D02*
X004976Y004627D01*
X004976Y004724D02*
X004680Y004724D01*
X004680Y003808D02*
X004976Y003808D01*
X004680Y003808D02*
X004680Y004142D01*
X004976Y004142D01*
X004976Y003808D01*
X004976Y003905D02*
X004680Y003905D01*
X004680Y004002D02*
X004976Y004002D01*
X004976Y004099D02*
X004680Y004099D01*
X004976Y003517D02*
X004976Y003183D01*
X004680Y003183D01*
X004680Y003517D01*
X004976Y003517D01*
X004976Y003280D02*
X004680Y003280D01*
X004680Y003377D02*
X004976Y003377D01*
X004976Y003474D02*
X004680Y003474D01*
X005645Y003517D02*
X005645Y003183D01*
X005349Y003183D01*
X005349Y003517D01*
X005645Y003517D01*
X005645Y003280D02*
X005349Y003280D01*
X005349Y003377D02*
X005645Y003377D01*
X005645Y003474D02*
X005349Y003474D01*
X005349Y003808D02*
X005645Y003808D01*
X005349Y003808D02*
X005349Y004142D01*
X005645Y004142D01*
X005645Y003808D01*
X005645Y003905D02*
X005349Y003905D01*
X005349Y004002D02*
X005645Y004002D01*
X005645Y004099D02*
X005349Y004099D01*
D16*
X005253Y001569D02*
X005955Y001569D01*
X005955Y000513D01*
X005253Y000513D01*
X005253Y001569D01*
X005253Y000636D02*
X005955Y000636D01*
X005955Y000759D02*
X005253Y000759D01*
X005253Y000882D02*
X005955Y000882D01*
X005955Y001005D02*
X005253Y001005D01*
X005253Y001128D02*
X005955Y001128D01*
X005955Y001251D02*
X005253Y001251D01*
X005253Y001374D02*
X005955Y001374D01*
X005955Y001497D02*
X005253Y001497D01*
X002510Y001569D02*
X001808Y001569D01*
X002510Y001569D02*
X002510Y000513D01*
X001808Y000513D01*
X001808Y001569D01*
X001808Y000636D02*
X002510Y000636D01*
X002510Y000759D02*
X001808Y000759D01*
X001808Y000882D02*
X002510Y000882D01*
X002510Y001005D02*
X001808Y001005D01*
X001808Y001128D02*
X002510Y001128D01*
X002510Y001251D02*
X001808Y001251D01*
X001808Y001374D02*
X002510Y001374D01*
X002510Y001497D02*
X001808Y001497D01*
D17*
X003143Y000679D03*
X003635Y000679D03*
X004127Y000679D03*
X004619Y000679D03*
D18*
X003988Y005793D02*
X003988Y005909D01*
X004360Y005909D01*
X004360Y005793D01*
X003988Y005793D01*
X003988Y005892D02*
X004360Y005892D01*
X003988Y006541D02*
X003988Y006657D01*
X004360Y006657D01*
X004360Y006541D01*
X003988Y006541D01*
X003988Y006640D02*
X004360Y006640D01*
X002965Y006657D02*
X002965Y006541D01*
X002965Y006657D02*
X003337Y006657D01*
X003337Y006541D01*
X002965Y006541D01*
X002965Y006640D02*
X003337Y006640D01*
X002965Y006283D02*
X002965Y006167D01*
X002965Y006283D02*
X003337Y006283D01*
X003337Y006167D01*
X002965Y006167D01*
X002965Y006266D02*
X003337Y006266D01*
X002965Y005909D02*
X002965Y005793D01*
X002965Y005909D02*
X003337Y005909D01*
X003337Y005793D01*
X002965Y005793D01*
X002965Y005892D02*
X003337Y005892D01*
D19*
X003463Y006450D02*
X003563Y006450D01*
X003463Y006450D02*
X003463Y006750D01*
X003563Y006750D01*
X003563Y006450D01*
X003563Y006549D02*
X003463Y006549D01*
X003463Y006648D02*
X003563Y006648D01*
X003563Y006747D02*
X003463Y006747D01*
X003763Y006450D02*
X003863Y006450D01*
X003763Y006450D02*
X003763Y006750D01*
X003863Y006750D01*
X003863Y006450D01*
X003863Y006549D02*
X003763Y006549D01*
X003763Y006648D02*
X003863Y006648D01*
X003863Y006747D02*
X003763Y006747D01*
X003635Y002284D02*
X003631Y001725D01*
X003631Y000683D01*
X004131Y000683D02*
X004131Y001725D01*
X004127Y002221D01*
D20*
X004131Y001725D03*
X003631Y001725D03*
X003881Y001163D03*
X003350Y001163D03*
X004631Y001163D03*
X004631Y001538D03*
X003194Y003756D03*
X003569Y004538D03*
X004100Y005069D03*
X004850Y004600D03*
X004850Y003975D03*
X005225Y006225D03*
X004100Y006225D03*
X002819Y004538D03*
X001413Y004913D03*
X001413Y003663D03*
X001413Y002913D03*
X001413Y002413D03*
X001913Y006225D03*
D21*
X001850Y004913D02*
X001435Y004913D01*
X001850Y004913D02*
X001975Y004788D01*
X001975Y004600D01*
X002117Y004458D01*
X002406Y004458D01*
X002406Y004064D02*
X001948Y004064D01*
X001725Y004288D01*
X001435Y004288D01*
X003152Y005850D02*
X003151Y005851D01*
X003152Y005850D02*
X003538Y005850D01*
X003663Y005975D01*
X003663Y006319D01*
X003513Y006469D01*
X003513Y006600D01*
X003512Y006599D01*
X004173Y006600D02*
X004174Y006599D01*
X004952Y006520D02*
X005538Y006520D01*
X004975Y005194D02*
X004859Y005194D01*
X004828Y005225D01*
X004975Y005194D02*
X005475Y004694D01*
X005497Y004600D02*
X005497Y003975D01*
X004828Y003975D02*
X004538Y003975D01*
X004413Y004100D01*
X004413Y004288D01*
X004242Y004458D01*
X003981Y004458D01*
X003981Y004655D02*
X004773Y004655D01*
X004239Y003867D02*
X004381Y003725D01*
X004381Y003475D01*
X004506Y003350D01*
X004828Y003350D01*
X004239Y003867D02*
X003981Y003867D01*
X004131Y000683D02*
X004127Y000679D01*
X003635Y000679D02*
X003631Y000683D01*
D22*
X003143Y000679D02*
X003006Y000816D01*
X003006Y001413D01*
X003143Y001549D01*
X003143Y002272D01*
X001435Y003663D02*
X001413Y003663D01*
X001413Y004913D02*
X001913Y005413D01*
X004288Y005413D01*
X004475Y005225D01*
X004828Y005225D01*
X004850Y005247D01*
X004850Y005890D01*
X004850Y005913D01*
X004225Y006538D01*
X004175Y006600D01*
X004174Y006599D01*
X004173Y006600D02*
X003813Y006600D01*
X003512Y006599D02*
X003151Y006599D01*
X002538Y006599D01*
X002514Y006599D01*
X002475Y006560D01*
D23*
X001788Y003663D02*
X001435Y003663D01*
X001788Y003663D02*
X002038Y003413D01*
X002664Y003413D01*
X002702Y003375D01*
X002702Y003327D01*
D24*
X002350Y002663D02*
X002725Y002288D01*
X003127Y002288D01*
X003143Y002272D01*
X002350Y002663D02*
X002003Y002663D01*
X002069Y006600D02*
X002538Y006599D01*
D25*
X002069Y006600D03*
D26*
X002725Y002288D03*
M02*
