%
M48
M72
T01C0.0120
T02C0.0197
T03C0.0866
%
T01
X1413Y2413
X1413Y2913
X1413Y3663
X1413Y4913
X1913Y6225
X2819Y4538
X3194Y3756
X3569Y4538
X4100Y5069
X4850Y4600
X4850Y3975
X4131Y1725
X3631Y1725
X3881Y1163
X3350Y1163
X4631Y1163
X4631Y1538
X4100Y6225
X5225Y6225
T02
X2069Y6600
X2725Y2288
X3143Y679
X3635Y679
X4127Y679
X4619Y679
T03
X887Y887
X887Y6399
M30
