G75*
%MOIN*%
%OFA0B0*%
%FSLAX24Y24*%
%IPPOS*%
%LPD*%
%AMOC8*
5,1,8,0,0,1.08239X$1,22.5*
%
%ADD10C,0.0000*%
D10*
X002723Y003381D02*
X007466Y003381D01*
X007466Y003380D02*
X007505Y003382D01*
X007543Y003388D01*
X007580Y003397D01*
X007617Y003410D01*
X007652Y003427D01*
X007685Y003446D01*
X007716Y003469D01*
X007745Y003495D01*
X007771Y003524D01*
X007794Y003555D01*
X007813Y003588D01*
X007830Y003623D01*
X007843Y003660D01*
X007852Y003697D01*
X007858Y003735D01*
X007860Y003774D01*
X007860Y011074D01*
X007858Y011113D01*
X007852Y011151D01*
X007843Y011188D01*
X007830Y011225D01*
X007813Y011260D01*
X007794Y011293D01*
X007771Y011324D01*
X007745Y011353D01*
X007716Y011379D01*
X007685Y011402D01*
X007652Y011421D01*
X007617Y011438D01*
X007580Y011451D01*
X007543Y011460D01*
X007505Y011466D01*
X007466Y011468D01*
X007466Y011467D02*
X002723Y011467D01*
X002723Y011468D02*
X002684Y011466D01*
X002646Y011460D01*
X002609Y011451D01*
X002572Y011438D01*
X002537Y011421D01*
X002504Y011402D01*
X002473Y011379D01*
X002444Y011353D01*
X002418Y011324D01*
X002395Y011293D01*
X002376Y011260D01*
X002359Y011225D01*
X002346Y011188D01*
X002337Y011151D01*
X002331Y011113D01*
X002329Y011074D01*
X002329Y003774D01*
X002331Y003735D01*
X002337Y003697D01*
X002346Y003660D01*
X002359Y003623D01*
X002376Y003588D01*
X002395Y003555D01*
X002418Y003524D01*
X002444Y003495D01*
X002473Y003469D01*
X002504Y003446D01*
X002537Y003427D01*
X002572Y003410D01*
X002609Y003397D01*
X002646Y003388D01*
X002684Y003382D01*
X002723Y003380D01*
M02*
