G75*
%MOIN*%
%OFA0B0*%
%FSLAX24Y24*%
%IPPOS*%
%LPD*%
%AMOC8*
5,1,8,0,0,1.08239X$1,22.5*
%
%ADD10C,0.0000*%
%ADD11C,0.0060*%
%ADD12C,0.0240*%
%ADD13C,0.0160*%
D10*
X002723Y003381D02*
X007466Y003381D01*
X007466Y003380D02*
X007505Y003382D01*
X007543Y003388D01*
X007580Y003397D01*
X007617Y003410D01*
X007652Y003427D01*
X007685Y003446D01*
X007716Y003469D01*
X007745Y003495D01*
X007771Y003524D01*
X007794Y003555D01*
X007813Y003588D01*
X007830Y003623D01*
X007843Y003660D01*
X007852Y003697D01*
X007858Y003735D01*
X007860Y003774D01*
X007860Y011074D01*
X007858Y011113D01*
X007852Y011151D01*
X007843Y011188D01*
X007830Y011225D01*
X007813Y011260D01*
X007794Y011293D01*
X007771Y011324D01*
X007745Y011353D01*
X007716Y011379D01*
X007685Y011402D01*
X007652Y011421D01*
X007617Y011438D01*
X007580Y011451D01*
X007543Y011460D01*
X007505Y011466D01*
X007466Y011468D01*
X007466Y011467D02*
X002723Y011467D01*
X002723Y011468D02*
X002684Y011466D01*
X002646Y011460D01*
X002609Y011451D01*
X002572Y011438D01*
X002537Y011421D01*
X002504Y011402D01*
X002473Y011379D01*
X002444Y011353D01*
X002418Y011324D01*
X002395Y011293D01*
X002376Y011260D01*
X002359Y011225D01*
X002346Y011188D01*
X002337Y011151D01*
X002331Y011113D01*
X002329Y011074D01*
X002329Y003774D01*
X002331Y003735D01*
X002337Y003697D01*
X002346Y003660D01*
X002359Y003623D01*
X002376Y003588D01*
X002395Y003555D01*
X002418Y003524D01*
X002444Y003495D01*
X002473Y003469D01*
X002504Y003446D01*
X002537Y003427D01*
X002572Y003410D01*
X002609Y003397D01*
X002646Y003388D01*
X002684Y003382D01*
X002723Y003380D01*
D11*
X002723Y003511D02*
X002671Y003516D01*
X002576Y003555D01*
X002504Y003628D01*
X002464Y003723D01*
X002459Y003774D01*
X002459Y011074D01*
X002464Y011125D01*
X002504Y011220D01*
X002576Y011293D01*
X002671Y011332D01*
X002723Y011337D01*
X007466Y011337D01*
X007517Y011332D01*
X007612Y011293D01*
X007685Y011220D01*
X007725Y011125D01*
X007730Y011074D01*
X007730Y003774D01*
X007725Y003723D01*
X007685Y003628D01*
X007612Y003555D01*
X007517Y003516D01*
X007466Y003511D01*
X002723Y003511D01*
X002794Y003615D02*
X002517Y003615D01*
X002485Y003673D02*
X002677Y003673D01*
X002626Y003699D02*
X002836Y003594D01*
X002930Y003625D01*
X002975Y003714D01*
X002943Y003808D01*
X002940Y003810D01*
X002943Y003812D01*
X002975Y003906D01*
X002965Y003925D01*
X002982Y003941D01*
X003052Y004011D01*
X003052Y004035D01*
X003082Y004005D01*
X003079Y004005D01*
X003058Y003973D01*
X003032Y003946D01*
X003032Y003933D01*
X003024Y003922D01*
X003032Y003885D01*
X003032Y003847D01*
X003041Y003837D01*
X003044Y003824D01*
X003067Y003809D01*
X003032Y003773D01*
X003032Y003673D01*
X002954Y003673D01*
X002969Y003732D02*
X003032Y003732D01*
X003032Y003673D02*
X003102Y003603D01*
X003376Y003603D01*
X003387Y003596D01*
X003424Y003603D01*
X003462Y003603D01*
X003471Y003613D01*
X003484Y003615D01*
X003505Y003647D01*
X003532Y003673D01*
X007704Y003673D01*
X007725Y003732D02*
X003533Y003732D01*
X003532Y003735D02*
X003532Y003773D01*
X003522Y003782D01*
X003520Y003795D01*
X003496Y003811D01*
X003532Y003847D01*
X003532Y003946D01*
X003521Y003957D01*
X003532Y003968D01*
X003532Y004241D01*
X003462Y004311D01*
X003362Y004311D01*
X003292Y004241D01*
X003292Y004225D01*
X003102Y004225D01*
X003052Y004174D01*
X003052Y004198D01*
X003009Y004241D01*
X002938Y004311D01*
X002835Y004311D01*
X002835Y004340D01*
X002938Y004340D01*
X002982Y004383D01*
X003052Y004453D01*
X003052Y004537D01*
X003102Y004487D01*
X003201Y004487D01*
X003245Y004531D01*
X003319Y004531D01*
X003362Y004487D01*
X003462Y004487D01*
X003532Y004557D01*
X003532Y004744D01*
X003527Y004749D01*
X003532Y004754D01*
X003532Y004853D01*
X003495Y004890D01*
X003532Y004927D01*
X003532Y005027D01*
X003521Y005038D01*
X003532Y005049D01*
X003532Y005148D01*
X003495Y005185D01*
X003532Y005222D01*
X003532Y005321D01*
X003462Y005392D01*
X003145Y005392D01*
X003075Y005321D01*
X003032Y005278D01*
X003032Y005092D01*
X003064Y005059D01*
X003032Y005027D01*
X003032Y004954D01*
X003009Y004978D01*
X002938Y005048D01*
X002808Y005048D01*
X002759Y005048D01*
X002665Y005048D01*
X002622Y005005D01*
X002552Y004934D01*
X002552Y004748D01*
X002595Y004705D01*
X002606Y004694D01*
X002552Y004640D01*
X002552Y004453D01*
X002576Y004430D01*
X002552Y004406D01*
X002552Y004263D01*
X002584Y004230D01*
X002552Y004198D01*
X002552Y004011D01*
X002595Y003968D01*
X002637Y003927D01*
X002626Y003921D01*
X002587Y003908D01*
X002582Y003899D01*
X002574Y003895D01*
X002561Y003856D01*
X002542Y003819D01*
X002545Y003810D01*
X002542Y003801D01*
X002561Y003764D01*
X002574Y003725D01*
X002582Y003720D01*
X002587Y003712D01*
X002626Y003699D01*
X002571Y003732D02*
X002463Y003732D01*
X002459Y003790D02*
X002547Y003790D01*
X002557Y003849D02*
X002459Y003849D01*
X002459Y003907D02*
X002586Y003907D01*
X002597Y003966D02*
X002459Y003966D01*
X002459Y004024D02*
X002552Y004024D01*
X002552Y004083D02*
X002459Y004083D01*
X002459Y004141D02*
X002552Y004141D01*
X002554Y004200D02*
X002459Y004200D01*
X002459Y004258D02*
X002556Y004258D01*
X002552Y004317D02*
X002459Y004317D01*
X002459Y004375D02*
X002552Y004375D01*
X002571Y004434D02*
X002459Y004434D01*
X002459Y004492D02*
X002552Y004492D01*
X002552Y004551D02*
X002459Y004551D01*
X002459Y004609D02*
X002552Y004609D01*
X002580Y004668D02*
X002459Y004668D01*
X002459Y004726D02*
X002574Y004726D01*
X002552Y004785D02*
X002459Y004785D01*
X002459Y004843D02*
X002552Y004843D01*
X002552Y004902D02*
X002459Y004902D01*
X002459Y004960D02*
X002578Y004960D01*
X002636Y005019D02*
X002459Y005019D01*
X002459Y005077D02*
X003046Y005077D01*
X003032Y005019D02*
X002967Y005019D01*
X003026Y004960D02*
X003032Y004960D01*
X003152Y004977D02*
X003412Y004977D01*
X003325Y004890D01*
X003412Y004804D01*
X003152Y004804D01*
X003152Y004694D02*
X003152Y004607D01*
X003152Y004651D02*
X003412Y004651D01*
X003412Y004694D02*
X003412Y004607D01*
X003532Y004609D02*
X007730Y004609D01*
X007730Y004551D02*
X003525Y004551D01*
X003467Y004492D02*
X007730Y004492D01*
X007730Y004434D02*
X003032Y004434D01*
X003052Y004492D02*
X003097Y004492D01*
X002932Y004503D02*
X002932Y004590D01*
X002889Y004633D01*
X002715Y004460D01*
X002672Y004503D01*
X002672Y004590D01*
X002715Y004633D01*
X002889Y004633D01*
X002889Y004754D02*
X002845Y004754D01*
X002802Y004798D01*
X002802Y004885D01*
X002758Y004928D01*
X002715Y004928D01*
X002672Y004885D01*
X002672Y004798D01*
X002715Y004754D01*
X002758Y004754D01*
X002802Y004798D01*
X002802Y004885D02*
X002845Y004928D01*
X002889Y004928D01*
X002932Y004885D01*
X002932Y004798D01*
X002889Y004754D01*
X002932Y004503D02*
X002889Y004460D01*
X002715Y004460D01*
X002715Y004356D02*
X002672Y004356D01*
X002672Y004312D01*
X002715Y004312D01*
X002715Y004356D01*
X002835Y004317D02*
X007730Y004317D01*
X007730Y004375D02*
X002974Y004375D01*
X002991Y004258D02*
X003309Y004258D01*
X003412Y004191D02*
X003412Y004018D01*
X003412Y004105D02*
X003152Y004105D01*
X003062Y004024D02*
X003052Y004024D01*
X003051Y003966D02*
X003006Y003966D01*
X003027Y003907D02*
X002974Y003907D01*
X002956Y003849D02*
X003032Y003849D01*
X003049Y003790D02*
X002949Y003790D01*
X002845Y003723D02*
X002672Y003810D01*
X002845Y003897D01*
X002889Y004018D02*
X002715Y004018D01*
X002889Y004191D01*
X002715Y004191D01*
X002672Y004148D01*
X002672Y004061D01*
X002715Y004018D01*
X002889Y004018D02*
X002932Y004061D01*
X002932Y004148D01*
X002889Y004191D01*
X003050Y004200D02*
X003077Y004200D01*
X003152Y003897D02*
X003412Y003897D01*
X003532Y003907D02*
X007730Y003907D01*
X007730Y003849D02*
X003532Y003849D01*
X003521Y003790D02*
X007730Y003790D01*
X007730Y003966D02*
X003529Y003966D01*
X003532Y004024D02*
X007730Y004024D01*
X007730Y004083D02*
X003532Y004083D01*
X003532Y004141D02*
X007730Y004141D01*
X007730Y004200D02*
X003532Y004200D01*
X003515Y004258D02*
X007730Y004258D01*
X007730Y004668D02*
X003532Y004668D01*
X003532Y004726D02*
X007730Y004726D01*
X007730Y004785D02*
X006093Y004785D01*
X006041Y004733D02*
X006164Y004856D01*
X006164Y005030D01*
X006041Y005153D01*
X005914Y005153D01*
X005066Y006001D01*
X004787Y006001D01*
X004765Y006023D01*
X006733Y006023D01*
X006773Y005983D01*
X006947Y005983D01*
X007070Y006106D01*
X007070Y006280D01*
X006947Y006403D01*
X006773Y006403D01*
X006733Y006363D01*
X006687Y006363D01*
X006687Y007998D01*
X007047Y008358D01*
X007104Y008358D01*
X007227Y008481D01*
X007227Y008655D01*
X007187Y008695D01*
X007187Y010639D01*
X007087Y010738D01*
X006650Y011176D01*
X006206Y011176D01*
X006166Y011216D01*
X005992Y011216D01*
X005869Y011093D01*
X005869Y010919D01*
X005992Y010796D01*
X006166Y010796D01*
X006206Y010836D01*
X006509Y010836D01*
X006847Y010498D01*
X006847Y009488D01*
X005769Y009488D01*
X005729Y009528D01*
X005555Y009528D01*
X005432Y009405D01*
X005432Y009231D01*
X005387Y009231D01*
X005432Y009231D02*
X005555Y009108D01*
X005729Y009108D01*
X005769Y009148D01*
X006847Y009148D01*
X006847Y008695D01*
X006807Y008655D01*
X006807Y008599D01*
X006446Y008238D01*
X006347Y008139D01*
X006347Y006363D01*
X004362Y006363D01*
X004322Y006403D01*
X004148Y006403D01*
X004108Y006363D01*
X003990Y006363D01*
X003249Y007049D01*
X003249Y007254D01*
X003289Y007294D01*
X003289Y007468D01*
X003166Y007591D01*
X002992Y007591D01*
X002869Y007468D01*
X002869Y007294D01*
X002909Y007254D01*
X002909Y007041D01*
X002907Y007038D01*
X002909Y006974D01*
X002647Y006712D01*
X002647Y005620D01*
X002557Y005530D01*
X002557Y005356D01*
X002680Y005233D01*
X002854Y005233D01*
X002977Y005356D01*
X002977Y005530D01*
X002887Y005620D01*
X002887Y006612D01*
X003047Y006773D01*
X003805Y006071D01*
X003852Y006023D01*
X003856Y006023D01*
X003859Y006021D01*
X003926Y006023D01*
X004108Y006023D01*
X004148Y005983D01*
X004322Y005983D01*
X004362Y006023D01*
X004456Y006023D01*
X004400Y005968D01*
X004400Y005794D01*
X004523Y005671D01*
X004697Y005671D01*
X004787Y005761D01*
X004967Y005761D01*
X005744Y004983D01*
X005744Y004856D01*
X005867Y004733D01*
X006041Y004733D01*
X006151Y004843D02*
X007730Y004843D01*
X007730Y004902D02*
X006164Y004902D01*
X006164Y004960D02*
X007730Y004960D01*
X007730Y005019D02*
X006164Y005019D01*
X006117Y005077D02*
X006742Y005077D01*
X006773Y005046D02*
X006947Y005046D01*
X007070Y005169D01*
X007070Y005296D01*
X007387Y005612D01*
X007387Y007243D01*
X007320Y007309D01*
X007320Y007436D01*
X007197Y007559D01*
X007023Y007559D01*
X006900Y007436D01*
X006900Y007262D01*
X007023Y007139D01*
X007147Y007139D01*
X007147Y005712D01*
X006901Y005466D01*
X006773Y005466D01*
X006650Y005343D01*
X006650Y005169D01*
X006773Y005046D01*
X006683Y005136D02*
X006059Y005136D01*
X005873Y005194D02*
X006650Y005194D01*
X006650Y005253D02*
X005814Y005253D01*
X005756Y005311D02*
X006650Y005311D01*
X006677Y005370D02*
X005697Y005370D01*
X005639Y005428D02*
X006736Y005428D01*
X006860Y005256D02*
X007267Y005662D01*
X007267Y007193D01*
X007110Y007349D01*
X007281Y007476D02*
X007730Y007476D01*
X007730Y007534D02*
X007223Y007534D01*
X007320Y007417D02*
X007730Y007417D01*
X007730Y007359D02*
X007320Y007359D01*
X007329Y007300D02*
X007730Y007300D01*
X007730Y007242D02*
X007387Y007242D01*
X007387Y007183D02*
X007730Y007183D01*
X007730Y007125D02*
X007387Y007125D01*
X007387Y007066D02*
X007730Y007066D01*
X007730Y007008D02*
X007387Y007008D01*
X007387Y006949D02*
X007730Y006949D01*
X007730Y006891D02*
X007387Y006891D01*
X007387Y006832D02*
X007730Y006832D01*
X007730Y006774D02*
X007387Y006774D01*
X007387Y006715D02*
X007730Y006715D01*
X007730Y006657D02*
X007387Y006657D01*
X007387Y006598D02*
X007730Y006598D01*
X007730Y006540D02*
X007387Y006540D01*
X007387Y006481D02*
X007730Y006481D01*
X007730Y006423D02*
X007387Y006423D01*
X007387Y006364D02*
X007730Y006364D01*
X007730Y006306D02*
X007387Y006306D01*
X007387Y006247D02*
X007730Y006247D01*
X007730Y006189D02*
X007387Y006189D01*
X007387Y006130D02*
X007730Y006130D01*
X007730Y006072D02*
X007387Y006072D01*
X007387Y006013D02*
X007730Y006013D01*
X007730Y005955D02*
X007387Y005955D01*
X007387Y005896D02*
X007730Y005896D01*
X007730Y005838D02*
X007387Y005838D01*
X007387Y005779D02*
X007730Y005779D01*
X007730Y005721D02*
X007387Y005721D01*
X007387Y005662D02*
X007730Y005662D01*
X007730Y005604D02*
X007378Y005604D01*
X007320Y005545D02*
X007730Y005545D01*
X007730Y005487D02*
X007261Y005487D01*
X007203Y005428D02*
X007730Y005428D01*
X007730Y005370D02*
X007144Y005370D01*
X007086Y005311D02*
X007730Y005311D01*
X007730Y005253D02*
X007070Y005253D01*
X007070Y005194D02*
X007730Y005194D01*
X007730Y005136D02*
X007037Y005136D01*
X006979Y005077D02*
X007730Y005077D01*
X007147Y005721D02*
X005346Y005721D01*
X005288Y005779D02*
X007147Y005779D01*
X007147Y005838D02*
X005229Y005838D01*
X005171Y005896D02*
X007147Y005896D01*
X007147Y005955D02*
X005112Y005955D01*
X005017Y005881D02*
X005954Y004943D01*
X005816Y004785D02*
X003532Y004785D01*
X003532Y004843D02*
X005757Y004843D01*
X005744Y004902D02*
X003506Y004902D01*
X003532Y004960D02*
X005744Y004960D01*
X005709Y005019D02*
X003532Y005019D01*
X003532Y005077D02*
X005650Y005077D01*
X005592Y005136D02*
X003532Y005136D01*
X003504Y005194D02*
X005533Y005194D01*
X005475Y005253D02*
X003532Y005253D01*
X003532Y005311D02*
X005416Y005311D01*
X005358Y005370D02*
X003484Y005370D01*
X003412Y005272D02*
X003195Y005272D01*
X003152Y005228D01*
X003152Y005142D01*
X003195Y005098D01*
X003412Y005098D01*
X003123Y005370D02*
X002977Y005370D01*
X002977Y005428D02*
X005299Y005428D01*
X005241Y005487D02*
X002977Y005487D01*
X002962Y005545D02*
X005182Y005545D01*
X005124Y005604D02*
X002903Y005604D01*
X002887Y005662D02*
X005065Y005662D01*
X005007Y005721D02*
X004747Y005721D01*
X004610Y005881D02*
X005017Y005881D01*
X004775Y006013D02*
X006743Y006013D01*
X006977Y006013D02*
X007147Y006013D01*
X007147Y006072D02*
X007036Y006072D01*
X007070Y006130D02*
X007147Y006130D01*
X007147Y006189D02*
X007070Y006189D01*
X007070Y006247D02*
X007147Y006247D01*
X007147Y006306D02*
X007045Y006306D01*
X006986Y006364D02*
X007147Y006364D01*
X007147Y006423D02*
X006687Y006423D01*
X006687Y006481D02*
X007147Y006481D01*
X007147Y006540D02*
X006687Y006540D01*
X006687Y006598D02*
X007147Y006598D01*
X007147Y006657D02*
X006687Y006657D01*
X006687Y006715D02*
X007147Y006715D01*
X007147Y006774D02*
X006687Y006774D01*
X006687Y006832D02*
X007147Y006832D01*
X007147Y006891D02*
X006687Y006891D01*
X006687Y006949D02*
X007147Y006949D01*
X007147Y007008D02*
X006687Y007008D01*
X006687Y007066D02*
X007147Y007066D01*
X007147Y007125D02*
X006687Y007125D01*
X006687Y007183D02*
X006980Y007183D01*
X006921Y007242D02*
X006687Y007242D01*
X006687Y007300D02*
X006900Y007300D01*
X006900Y007359D02*
X006687Y007359D01*
X006687Y007417D02*
X006900Y007417D01*
X006940Y007476D02*
X006687Y007476D01*
X006687Y007534D02*
X006998Y007534D01*
X006687Y007593D02*
X007730Y007593D01*
X007730Y007651D02*
X006687Y007651D01*
X006687Y007710D02*
X007730Y007710D01*
X007730Y007768D02*
X006687Y007768D01*
X006687Y007827D02*
X007730Y007827D01*
X007730Y007885D02*
X006687Y007885D01*
X006687Y007944D02*
X007730Y007944D01*
X007730Y008002D02*
X006691Y008002D01*
X006750Y008061D02*
X007730Y008061D01*
X007730Y008119D02*
X006808Y008119D01*
X006867Y008178D02*
X007730Y008178D01*
X007730Y008236D02*
X006925Y008236D01*
X006984Y008295D02*
X007730Y008295D01*
X007730Y008353D02*
X007042Y008353D01*
X007157Y008412D02*
X007730Y008412D01*
X007730Y008470D02*
X007216Y008470D01*
X007227Y008529D02*
X007730Y008529D01*
X007730Y008587D02*
X007227Y008587D01*
X007227Y008646D02*
X007730Y008646D01*
X007730Y008704D02*
X007187Y008704D01*
X007187Y008763D02*
X007730Y008763D01*
X007730Y008821D02*
X007187Y008821D01*
X007187Y008880D02*
X007730Y008880D01*
X007730Y008938D02*
X007187Y008938D01*
X007187Y008997D02*
X007730Y008997D01*
X007730Y009055D02*
X007187Y009055D01*
X007187Y009114D02*
X007730Y009114D01*
X007730Y009172D02*
X007187Y009172D01*
X007187Y009231D02*
X007730Y009231D01*
X007730Y009289D02*
X007187Y009289D01*
X007187Y009348D02*
X007730Y009348D01*
X007730Y009406D02*
X007187Y009406D01*
X007187Y009465D02*
X007730Y009465D01*
X007730Y009523D02*
X007187Y009523D01*
X007187Y009582D02*
X007730Y009582D01*
X007730Y009640D02*
X007187Y009640D01*
X007187Y009699D02*
X007730Y009699D01*
X007730Y009757D02*
X007187Y009757D01*
X007187Y009816D02*
X007730Y009816D01*
X007730Y009874D02*
X007187Y009874D01*
X007187Y009933D02*
X007730Y009933D01*
X007730Y009991D02*
X007187Y009991D01*
X007187Y010050D02*
X007730Y010050D01*
X007730Y010108D02*
X007187Y010108D01*
X007187Y010167D02*
X007730Y010167D01*
X007730Y010225D02*
X007187Y010225D01*
X007187Y010284D02*
X007730Y010284D01*
X007730Y010342D02*
X007187Y010342D01*
X007187Y010401D02*
X007730Y010401D01*
X007730Y010459D02*
X007187Y010459D01*
X007187Y010518D02*
X007730Y010518D01*
X007730Y010576D02*
X007187Y010576D01*
X007187Y010635D02*
X007730Y010635D01*
X007730Y010693D02*
X007132Y010693D01*
X007074Y010752D02*
X007730Y010752D01*
X007730Y010810D02*
X007015Y010810D01*
X006957Y010869D02*
X007730Y010869D01*
X007730Y010927D02*
X006898Y010927D01*
X006840Y010986D02*
X007730Y010986D01*
X007730Y011044D02*
X006781Y011044D01*
X006723Y011103D02*
X007727Y011103D01*
X007710Y011161D02*
X006664Y011161D01*
X006534Y010810D02*
X006181Y010810D01*
X005978Y010810D02*
X005712Y010810D01*
X005727Y010825D02*
X005637Y010735D01*
X005637Y010362D01*
X005012Y009737D01*
X005012Y009183D01*
X005022Y009173D01*
X005022Y009743D01*
X005092Y009813D01*
X005615Y010337D01*
X005686Y010407D01*
X005973Y010407D01*
X006098Y010282D01*
X006168Y010212D01*
X006168Y009925D01*
X006039Y009796D01*
X006039Y009669D01*
X005916Y009546D01*
X005742Y009546D01*
X005619Y009669D01*
X005619Y009813D01*
X005387Y009581D01*
X005387Y008581D01*
X004762Y007956D01*
X004691Y007886D01*
X004379Y007886D01*
X004355Y007862D01*
X004355Y007706D01*
X004227Y007577D01*
X004227Y007450D01*
X004157Y007381D01*
X004227Y007311D01*
X004227Y007137D01*
X004104Y007014D01*
X003930Y007014D01*
X003807Y007137D01*
X003807Y007265D01*
X003084Y007987D01*
X003084Y010430D01*
X003154Y010501D01*
X003272Y010618D01*
X003272Y010618D01*
X003342Y010688D01*
X003816Y010688D01*
X003887Y010618D01*
X004074Y010430D01*
X004074Y009956D01*
X004012Y009893D01*
X004012Y009558D01*
X004102Y009468D01*
X004102Y009294D01*
X003979Y009171D01*
X003805Y009171D01*
X003682Y009294D01*
X003682Y009468D01*
X003772Y009558D01*
X003772Y009993D01*
X003834Y010055D01*
X003834Y010331D01*
X003717Y010448D01*
X003441Y010448D01*
X003324Y010331D01*
X003324Y008087D01*
X003807Y007604D01*
X003807Y007624D01*
X003876Y007693D01*
X003840Y007729D01*
X003686Y007729D01*
X003397Y008018D01*
X003397Y009922D01*
X003338Y009981D01*
X003338Y010155D01*
X003461Y010278D01*
X003635Y010278D01*
X003758Y010155D01*
X003758Y009981D01*
X003637Y009860D01*
X003637Y008118D01*
X003785Y007969D01*
X003840Y007969D01*
X003876Y008006D01*
X003807Y008075D01*
X003807Y008249D01*
X003930Y008372D01*
X004104Y008372D01*
X004194Y008282D01*
X004561Y008282D01*
X005022Y008743D01*
X005022Y008839D01*
X004979Y008796D01*
X004805Y008796D01*
X004682Y008919D01*
X004682Y009093D01*
X004772Y009183D01*
X004772Y009837D01*
X005397Y010462D01*
X005397Y010735D01*
X005307Y010825D01*
X005307Y010999D01*
X005430Y011122D01*
X005604Y011122D01*
X005727Y010999D01*
X005727Y010825D01*
X005727Y010869D02*
X005919Y010869D01*
X005869Y010927D02*
X005727Y010927D01*
X005727Y010986D02*
X005869Y010986D01*
X005869Y011044D02*
X005681Y011044D01*
X005623Y011103D02*
X005879Y011103D01*
X005938Y011161D02*
X002479Y011161D01*
X002462Y011103D02*
X005410Y011103D01*
X005352Y011044D02*
X002459Y011044D01*
X002459Y010986D02*
X005307Y010986D01*
X005307Y010927D02*
X002459Y010927D01*
X002459Y010869D02*
X005307Y010869D01*
X005321Y010810D02*
X002459Y010810D01*
X002459Y010752D02*
X005380Y010752D01*
X005397Y010693D02*
X002459Y010693D01*
X002459Y010635D02*
X003288Y010635D01*
X003230Y010576D02*
X002459Y010576D01*
X002459Y010518D02*
X003171Y010518D01*
X003113Y010459D02*
X002459Y010459D01*
X002459Y010401D02*
X003084Y010401D01*
X003084Y010342D02*
X002459Y010342D01*
X002459Y010284D02*
X003084Y010284D01*
X003084Y010225D02*
X002459Y010225D01*
X002459Y010167D02*
X003084Y010167D01*
X003084Y010108D02*
X002459Y010108D01*
X002459Y010050D02*
X003084Y010050D01*
X003084Y009991D02*
X002459Y009991D01*
X002459Y009933D02*
X003084Y009933D01*
X003084Y009874D02*
X002459Y009874D01*
X002459Y009816D02*
X003084Y009816D01*
X003084Y009757D02*
X002459Y009757D01*
X002459Y009699D02*
X003084Y009699D01*
X003084Y009640D02*
X002459Y009640D01*
X002459Y009582D02*
X003084Y009582D01*
X003084Y009523D02*
X002459Y009523D01*
X002459Y009465D02*
X003084Y009465D01*
X003084Y009406D02*
X002459Y009406D01*
X002459Y009348D02*
X003084Y009348D01*
X003084Y009289D02*
X002459Y009289D01*
X002459Y009231D02*
X003084Y009231D01*
X003084Y009172D02*
X002459Y009172D01*
X002459Y009114D02*
X003084Y009114D01*
X003084Y009055D02*
X002459Y009055D01*
X002459Y008997D02*
X003084Y008997D01*
X003084Y008938D02*
X002459Y008938D01*
X002459Y008880D02*
X003084Y008880D01*
X003084Y008821D02*
X002459Y008821D01*
X002459Y008763D02*
X003084Y008763D01*
X003084Y008704D02*
X002459Y008704D01*
X002459Y008646D02*
X003084Y008646D01*
X003084Y008587D02*
X002459Y008587D01*
X002459Y008529D02*
X003084Y008529D01*
X003084Y008470D02*
X002459Y008470D01*
X002459Y008412D02*
X003084Y008412D01*
X003084Y008353D02*
X002459Y008353D01*
X002459Y008295D02*
X003084Y008295D01*
X003084Y008236D02*
X002459Y008236D01*
X002459Y008178D02*
X003084Y008178D01*
X003084Y008119D02*
X002459Y008119D01*
X002459Y008061D02*
X003084Y008061D01*
X003084Y008002D02*
X002459Y008002D01*
X002459Y007944D02*
X003128Y007944D01*
X003186Y007885D02*
X002459Y007885D01*
X002459Y007827D02*
X003245Y007827D01*
X003303Y007768D02*
X002459Y007768D01*
X002459Y007710D02*
X003362Y007710D01*
X003420Y007651D02*
X002459Y007651D01*
X002459Y007593D02*
X003479Y007593D01*
X003537Y007534D02*
X003223Y007534D01*
X003281Y007476D02*
X003596Y007476D01*
X003654Y007417D02*
X003289Y007417D01*
X003289Y007359D02*
X003713Y007359D01*
X003771Y007300D02*
X003289Y007300D01*
X003249Y007242D02*
X003807Y007242D01*
X003807Y007183D02*
X003249Y007183D01*
X003249Y007125D02*
X003819Y007125D01*
X003878Y007066D02*
X003249Y007066D01*
X003293Y007008D02*
X006347Y007008D01*
X006347Y007066D02*
X004155Y007066D01*
X004214Y007125D02*
X006347Y007125D01*
X006347Y007183D02*
X004227Y007183D01*
X004227Y007242D02*
X006347Y007242D01*
X006347Y007300D02*
X004227Y007300D01*
X004179Y007359D02*
X006347Y007359D01*
X006347Y007417D02*
X004194Y007417D01*
X004227Y007476D02*
X006347Y007476D01*
X006347Y007534D02*
X004227Y007534D01*
X004242Y007593D02*
X006347Y007593D01*
X006347Y007651D02*
X004301Y007651D01*
X004355Y007710D02*
X006347Y007710D01*
X006347Y007768D02*
X004355Y007768D01*
X004355Y007827D02*
X006347Y007827D01*
X006347Y007885D02*
X004378Y007885D01*
X004329Y008006D02*
X004235Y007912D01*
X004235Y007756D01*
X004017Y007537D01*
X003834Y007651D02*
X003760Y007651D01*
X003701Y007710D02*
X003859Y007710D01*
X003735Y007849D02*
X003517Y008068D01*
X003517Y010037D01*
X003548Y010068D01*
X003651Y009874D02*
X003772Y009874D01*
X003772Y009816D02*
X003637Y009816D01*
X003637Y009757D02*
X003772Y009757D01*
X003772Y009699D02*
X003637Y009699D01*
X003637Y009640D02*
X003772Y009640D01*
X003772Y009582D02*
X003637Y009582D01*
X003637Y009523D02*
X003737Y009523D01*
X003682Y009465D02*
X003637Y009465D01*
X003637Y009406D02*
X003682Y009406D01*
X003682Y009348D02*
X003637Y009348D01*
X003637Y009289D02*
X003686Y009289D01*
X003637Y009231D02*
X003745Y009231D01*
X003803Y009172D02*
X003637Y009172D01*
X003637Y009114D02*
X004703Y009114D01*
X004682Y009055D02*
X003637Y009055D01*
X003637Y008997D02*
X004682Y008997D01*
X004682Y008938D02*
X003637Y008938D01*
X003637Y008880D02*
X004721Y008880D01*
X004779Y008821D02*
X003637Y008821D01*
X003637Y008763D02*
X005022Y008763D01*
X005022Y008821D02*
X005004Y008821D01*
X004983Y008704D02*
X003637Y008704D01*
X003637Y008646D02*
X004924Y008646D01*
X004866Y008587D02*
X003637Y008587D01*
X003637Y008529D02*
X004807Y008529D01*
X004749Y008470D02*
X003637Y008470D01*
X003637Y008412D02*
X004690Y008412D01*
X004632Y008353D02*
X004122Y008353D01*
X004181Y008295D02*
X004573Y008295D01*
X004610Y008162D02*
X005142Y008693D01*
X005142Y009693D01*
X005735Y010287D01*
X005923Y010287D01*
X006048Y010162D01*
X006048Y009974D01*
X005829Y009756D01*
X005619Y009757D02*
X005563Y009757D01*
X005619Y009699D02*
X005504Y009699D01*
X005446Y009640D02*
X005648Y009640D01*
X005706Y009582D02*
X005387Y009582D01*
X005387Y009523D02*
X005550Y009523D01*
X005491Y009465D02*
X005387Y009465D01*
X005387Y009406D02*
X005433Y009406D01*
X005432Y009348D02*
X005387Y009348D01*
X005387Y009289D02*
X005432Y009289D01*
X005387Y009172D02*
X005491Y009172D01*
X005549Y009114D02*
X005387Y009114D01*
X005387Y009055D02*
X006847Y009055D01*
X006847Y008997D02*
X005387Y008997D01*
X005387Y008938D02*
X006847Y008938D01*
X006847Y008880D02*
X005387Y008880D01*
X005387Y008821D02*
X006847Y008821D01*
X006847Y008763D02*
X005387Y008763D01*
X005387Y008704D02*
X006847Y008704D01*
X006807Y008646D02*
X005387Y008646D01*
X005387Y008587D02*
X006795Y008587D01*
X006737Y008529D02*
X005334Y008529D01*
X005276Y008470D02*
X006678Y008470D01*
X006620Y008412D02*
X005217Y008412D01*
X005159Y008353D02*
X006561Y008353D01*
X006503Y008295D02*
X005100Y008295D01*
X005042Y008236D02*
X006444Y008236D01*
X006386Y008178D02*
X004983Y008178D01*
X004925Y008119D02*
X006347Y008119D01*
X006347Y008061D02*
X004866Y008061D01*
X004808Y008002D02*
X006347Y008002D01*
X006347Y007944D02*
X004749Y007944D01*
X004642Y008006D02*
X004329Y008006D01*
X004642Y008006D02*
X005267Y008631D01*
X005267Y009631D01*
X005704Y010068D01*
X005829Y010068D01*
X006059Y009816D02*
X006847Y009816D01*
X006847Y009874D02*
X006117Y009874D01*
X006168Y009933D02*
X006847Y009933D01*
X006847Y009991D02*
X006168Y009991D01*
X006168Y010050D02*
X006847Y010050D01*
X006847Y010108D02*
X006168Y010108D01*
X006168Y010167D02*
X006847Y010167D01*
X006847Y010225D02*
X006154Y010225D01*
X006096Y010284D02*
X006847Y010284D01*
X006847Y010342D02*
X006037Y010342D01*
X005979Y010401D02*
X006847Y010401D01*
X006847Y010459D02*
X005637Y010459D01*
X005637Y010401D02*
X005679Y010401D01*
X005621Y010342D02*
X005617Y010342D01*
X005562Y010284D02*
X005558Y010284D01*
X005504Y010225D02*
X005500Y010225D01*
X005445Y010167D02*
X005441Y010167D01*
X005387Y010108D02*
X005383Y010108D01*
X005328Y010050D02*
X005324Y010050D01*
X005270Y009991D02*
X005266Y009991D01*
X005211Y009933D02*
X005207Y009933D01*
X005153Y009874D02*
X005149Y009874D01*
X005094Y009816D02*
X005090Y009816D01*
X005036Y009757D02*
X005032Y009757D01*
X005022Y009699D02*
X005012Y009699D01*
X005012Y009640D02*
X005022Y009640D01*
X005012Y009582D02*
X005022Y009582D01*
X005012Y009523D02*
X005022Y009523D01*
X005012Y009465D02*
X005022Y009465D01*
X005012Y009406D02*
X005022Y009406D01*
X005012Y009348D02*
X005022Y009348D01*
X005012Y009289D02*
X005022Y009289D01*
X005012Y009231D02*
X005022Y009231D01*
X004892Y009006D02*
X004892Y009787D01*
X005517Y010412D01*
X005517Y010912D01*
X005653Y010752D02*
X006593Y010752D01*
X006651Y010693D02*
X005637Y010693D01*
X005637Y010635D02*
X006710Y010635D01*
X006768Y010576D02*
X005637Y010576D01*
X005637Y010518D02*
X006827Y010518D01*
X006847Y009757D02*
X006039Y009757D01*
X006039Y009699D02*
X006847Y009699D01*
X006847Y009640D02*
X006011Y009640D01*
X005952Y009582D02*
X006847Y009582D01*
X006847Y009523D02*
X005734Y009523D01*
X005734Y009114D02*
X006847Y009114D01*
X005394Y010459D02*
X004045Y010459D01*
X004074Y010401D02*
X005336Y010401D01*
X005277Y010342D02*
X004074Y010342D01*
X004074Y010284D02*
X005219Y010284D01*
X005160Y010225D02*
X004074Y010225D01*
X004074Y010167D02*
X005102Y010167D01*
X005043Y010108D02*
X004074Y010108D01*
X004074Y010050D02*
X004985Y010050D01*
X004926Y009991D02*
X004074Y009991D01*
X004051Y009933D02*
X004868Y009933D01*
X004809Y009874D02*
X004012Y009874D01*
X004012Y009816D02*
X004772Y009816D01*
X004772Y009757D02*
X004012Y009757D01*
X004012Y009699D02*
X004772Y009699D01*
X004772Y009640D02*
X004012Y009640D01*
X004012Y009582D02*
X004772Y009582D01*
X004772Y009523D02*
X004046Y009523D01*
X004102Y009465D02*
X004772Y009465D01*
X004772Y009406D02*
X004102Y009406D01*
X004102Y009348D02*
X004772Y009348D01*
X004772Y009289D02*
X004097Y009289D01*
X004039Y009231D02*
X004772Y009231D01*
X004761Y009172D02*
X003980Y009172D01*
X003892Y009381D02*
X003892Y009943D01*
X003954Y010006D01*
X003954Y010381D01*
X003767Y010568D01*
X003392Y010568D01*
X003204Y010381D01*
X003204Y008037D01*
X004017Y007224D01*
X003609Y006715D02*
X006347Y006715D01*
X006347Y006657D02*
X003673Y006657D01*
X003736Y006598D02*
X006347Y006598D01*
X006347Y006540D02*
X003799Y006540D01*
X003862Y006481D02*
X006347Y006481D01*
X006347Y006423D02*
X003925Y006423D01*
X003988Y006364D02*
X004109Y006364D01*
X004361Y006364D02*
X006347Y006364D01*
X006687Y006364D02*
X006734Y006364D01*
X006347Y006774D02*
X003546Y006774D01*
X003483Y006832D02*
X006347Y006832D01*
X006347Y006891D02*
X003420Y006891D01*
X003357Y006949D02*
X006347Y006949D01*
X007097Y005662D02*
X005405Y005662D01*
X005463Y005604D02*
X007039Y005604D01*
X006980Y005545D02*
X005522Y005545D01*
X005580Y005487D02*
X006922Y005487D01*
X007672Y003615D02*
X003481Y003615D01*
X003532Y003673D02*
X003532Y003687D01*
X003539Y003698D01*
X003532Y003735D01*
X003412Y003723D02*
X003152Y003897D01*
X003152Y003723D02*
X003412Y003723D01*
X003090Y003615D02*
X002899Y003615D01*
X002575Y003556D02*
X007614Y003556D01*
X004473Y005721D02*
X002887Y005721D01*
X002887Y005779D02*
X004415Y005779D01*
X004400Y005838D02*
X002887Y005838D01*
X002887Y005896D02*
X004400Y005896D01*
X004400Y005955D02*
X002887Y005955D01*
X002887Y006013D02*
X004118Y006013D01*
X004352Y006013D02*
X004446Y006013D01*
X003804Y006072D02*
X002887Y006072D01*
X002887Y006130D02*
X003741Y006130D01*
X003678Y006189D02*
X002887Y006189D01*
X002887Y006247D02*
X003614Y006247D01*
X003551Y006306D02*
X002887Y006306D01*
X002887Y006364D02*
X003488Y006364D01*
X003425Y006423D02*
X002887Y006423D01*
X002887Y006481D02*
X003362Y006481D01*
X003298Y006540D02*
X002887Y006540D01*
X002887Y006598D02*
X003235Y006598D01*
X003172Y006657D02*
X002931Y006657D01*
X002990Y006715D02*
X003109Y006715D01*
X003079Y006974D02*
X002767Y006662D01*
X002767Y005443D01*
X002630Y005604D02*
X002459Y005604D01*
X002459Y005662D02*
X002647Y005662D01*
X002647Y005721D02*
X002459Y005721D01*
X002459Y005779D02*
X002647Y005779D01*
X002647Y005838D02*
X002459Y005838D01*
X002459Y005896D02*
X002647Y005896D01*
X002647Y005955D02*
X002459Y005955D01*
X002459Y006013D02*
X002647Y006013D01*
X002647Y006072D02*
X002459Y006072D01*
X002459Y006130D02*
X002647Y006130D01*
X002647Y006189D02*
X002459Y006189D01*
X002459Y006247D02*
X002647Y006247D01*
X002647Y006306D02*
X002459Y006306D01*
X002459Y006364D02*
X002647Y006364D01*
X002647Y006423D02*
X002459Y006423D01*
X002459Y006481D02*
X002647Y006481D01*
X002647Y006540D02*
X002459Y006540D01*
X002459Y006598D02*
X002647Y006598D01*
X002647Y006657D02*
X002459Y006657D01*
X002459Y006715D02*
X002650Y006715D01*
X002709Y006774D02*
X002459Y006774D01*
X002459Y006832D02*
X002767Y006832D01*
X002826Y006891D02*
X002459Y006891D01*
X002459Y006949D02*
X002884Y006949D01*
X002908Y007008D02*
X002459Y007008D01*
X002459Y007066D02*
X002909Y007066D01*
X002909Y007125D02*
X002459Y007125D01*
X002459Y007183D02*
X002909Y007183D01*
X002909Y007242D02*
X002459Y007242D01*
X002459Y007300D02*
X002869Y007300D01*
X002869Y007359D02*
X002459Y007359D01*
X002459Y007417D02*
X002869Y007417D01*
X002877Y007476D02*
X002459Y007476D01*
X002459Y007534D02*
X002936Y007534D01*
X003350Y008061D02*
X003397Y008061D01*
X003397Y008119D02*
X003324Y008119D01*
X003324Y008178D02*
X003397Y008178D01*
X003397Y008236D02*
X003324Y008236D01*
X003324Y008295D02*
X003397Y008295D01*
X003397Y008353D02*
X003324Y008353D01*
X003324Y008412D02*
X003397Y008412D01*
X003397Y008470D02*
X003324Y008470D01*
X003324Y008529D02*
X003397Y008529D01*
X003397Y008587D02*
X003324Y008587D01*
X003324Y008646D02*
X003397Y008646D01*
X003397Y008704D02*
X003324Y008704D01*
X003324Y008763D02*
X003397Y008763D01*
X003397Y008821D02*
X003324Y008821D01*
X003324Y008880D02*
X003397Y008880D01*
X003397Y008938D02*
X003324Y008938D01*
X003324Y008997D02*
X003397Y008997D01*
X003397Y009055D02*
X003324Y009055D01*
X003324Y009114D02*
X003397Y009114D01*
X003397Y009172D02*
X003324Y009172D01*
X003324Y009231D02*
X003397Y009231D01*
X003397Y009289D02*
X003324Y009289D01*
X003324Y009348D02*
X003397Y009348D01*
X003397Y009406D02*
X003324Y009406D01*
X003324Y009465D02*
X003397Y009465D01*
X003397Y009523D02*
X003324Y009523D01*
X003324Y009582D02*
X003397Y009582D01*
X003397Y009640D02*
X003324Y009640D01*
X003324Y009699D02*
X003397Y009699D01*
X003397Y009757D02*
X003324Y009757D01*
X003324Y009816D02*
X003397Y009816D01*
X003397Y009874D02*
X003324Y009874D01*
X003324Y009933D02*
X003386Y009933D01*
X003338Y009991D02*
X003324Y009991D01*
X003324Y010050D02*
X003338Y010050D01*
X003338Y010108D02*
X003324Y010108D01*
X003324Y010167D02*
X003349Y010167D01*
X003324Y010225D02*
X003408Y010225D01*
X003324Y010284D02*
X003834Y010284D01*
X003834Y010225D02*
X003688Y010225D01*
X003746Y010167D02*
X003834Y010167D01*
X003834Y010108D02*
X003758Y010108D01*
X003758Y010050D02*
X003828Y010050D01*
X003772Y009991D02*
X003758Y009991D01*
X003772Y009933D02*
X003709Y009933D01*
X003823Y010342D02*
X003335Y010342D01*
X003394Y010401D02*
X003764Y010401D01*
X003928Y010576D02*
X005397Y010576D01*
X005397Y010518D02*
X003987Y010518D01*
X003870Y010635D02*
X005397Y010635D01*
X003911Y008353D02*
X003637Y008353D01*
X003637Y008295D02*
X003852Y008295D01*
X003807Y008236D02*
X003637Y008236D01*
X003637Y008178D02*
X003807Y008178D01*
X003807Y008119D02*
X003637Y008119D01*
X003694Y008061D02*
X003821Y008061D01*
X003872Y008002D02*
X003752Y008002D01*
X003735Y007849D02*
X004017Y007849D01*
X004017Y008162D02*
X004610Y008162D01*
X003647Y007768D02*
X003643Y007768D01*
X003588Y007827D02*
X003584Y007827D01*
X003530Y007885D02*
X003526Y007885D01*
X003471Y007944D02*
X003467Y007944D01*
X003413Y008002D02*
X003409Y008002D01*
X002572Y005545D02*
X002459Y005545D01*
X002459Y005487D02*
X002557Y005487D01*
X002557Y005428D02*
X002459Y005428D01*
X002459Y005370D02*
X002557Y005370D01*
X002602Y005311D02*
X002459Y005311D01*
X002459Y005253D02*
X002660Y005253D01*
X002459Y005194D02*
X003032Y005194D01*
X003032Y005136D02*
X002459Y005136D01*
X002808Y005048D02*
X002808Y005048D01*
X002873Y005253D02*
X003032Y005253D01*
X003065Y005311D02*
X002932Y005311D01*
X003206Y004492D02*
X003357Y004492D01*
X002503Y011220D02*
X007685Y011220D01*
X007627Y011278D02*
X002562Y011278D01*
X002717Y011337D02*
X007472Y011337D01*
D12*
X007579Y011131D03*
X007579Y010381D03*
X006642Y010193D03*
X006079Y011006D03*
X005829Y010756D03*
X005517Y010912D03*
X005079Y010568D03*
X004329Y009818D03*
X003892Y009381D03*
X004329Y009006D03*
X004892Y009006D03*
X005642Y009318D03*
X005829Y009756D03*
X005829Y010068D03*
X007017Y008568D03*
X007579Y008662D03*
X007579Y007412D03*
X007110Y007349D03*
X006860Y006193D03*
X006860Y005881D03*
X006860Y005256D03*
X006329Y004943D03*
X005954Y004943D03*
X005204Y004943D03*
X004610Y005881D03*
X004235Y005881D03*
X004235Y006193D03*
X004017Y007224D03*
X004017Y007537D03*
X004017Y007849D03*
X004017Y008162D03*
X003079Y007381D03*
X002985Y008537D03*
X003548Y010068D03*
X003767Y011193D03*
X005110Y007881D03*
X005110Y007443D03*
X005110Y007006D03*
X005548Y007006D03*
X005548Y007443D03*
X005985Y007443D03*
X005985Y007006D03*
X005985Y007881D03*
X005548Y007881D03*
X004017Y004506D03*
X003767Y004506D03*
X002767Y005443D03*
D13*
X003923Y006193D02*
X003079Y006974D01*
X003079Y007381D01*
X003923Y006193D02*
X004235Y006193D01*
X006517Y006193D01*
X006517Y008068D01*
X007017Y008568D01*
X007017Y009318D01*
X005642Y009318D01*
X007017Y009318D02*
X007017Y010568D01*
X006579Y011006D01*
X006079Y011006D01*
X006517Y006193D02*
X006860Y006193D01*
M02*
