G75*
%MOIN*%
%OFA0B0*%
%FSLAX24Y24*%
%IPPOS*%
%LPD*%
%AMOC8*
5,1,8,0,0,1.08239X$1,22.5*
%
%ADD10C,0.0000*%
%ADD11C,0.0906*%
%ADD12R,0.1375X0.1375*%
%ADD13C,0.0107*%
%ADD14C,0.0114*%
%ADD15C,0.0134*%
%ADD16R,0.0394X0.0394*%
%ADD17C,0.0108*%
%ADD18C,0.0118*%
%ADD19C,0.0120*%
%ADD20C,0.0138*%
%ADD21C,0.0138*%
%ADD22C,0.0114*%
%ADD23C,0.0116*%
%ADD24C,0.0108*%
%ADD25OC8,0.0480*%
D10*
X003587Y005150D02*
X010080Y005150D01*
X010119Y005153D01*
X010158Y005159D01*
X010196Y005169D01*
X010233Y005183D01*
X010268Y005200D01*
X010301Y005221D01*
X010332Y005245D01*
X010361Y005271D01*
X010387Y005301D01*
X010410Y005333D01*
X010430Y005367D01*
X010446Y005402D01*
X010458Y005440D01*
X010467Y005478D01*
X010473Y005517D01*
X010474Y005556D01*
X010474Y008150D01*
X010476Y008194D01*
X010482Y008237D01*
X010491Y008279D01*
X010504Y008321D01*
X010521Y008361D01*
X010541Y008400D01*
X010564Y008437D01*
X010591Y008471D01*
X010620Y008504D01*
X010653Y008533D01*
X010687Y008560D01*
X010724Y008583D01*
X010763Y008603D01*
X010803Y008620D01*
X010845Y008633D01*
X010887Y008642D01*
X010930Y008648D01*
X010974Y008650D01*
X011912Y008650D01*
X011956Y008648D01*
X011999Y008642D01*
X012041Y008633D01*
X012083Y008620D01*
X012123Y008603D01*
X012162Y008583D01*
X012199Y008560D01*
X012233Y008533D01*
X012266Y008504D01*
X012295Y008471D01*
X012322Y008437D01*
X012345Y008400D01*
X012365Y008361D01*
X012382Y008321D01*
X012395Y008279D01*
X012404Y008237D01*
X012410Y008194D01*
X012412Y008150D01*
X012412Y005556D01*
X012414Y005517D01*
X012419Y005479D01*
X012428Y005441D01*
X012441Y005404D01*
X012458Y005369D01*
X012478Y005335D01*
X012501Y005304D01*
X012527Y005275D01*
X012555Y005249D01*
X012586Y005225D01*
X012620Y005205D01*
X012655Y005188D01*
X012692Y005175D01*
X012729Y005165D01*
X012768Y005159D01*
X012807Y005157D01*
X012806Y005157D02*
X019299Y005157D01*
X019338Y005159D01*
X019376Y005165D01*
X019413Y005174D01*
X019450Y005187D01*
X019485Y005204D01*
X019518Y005223D01*
X019549Y005246D01*
X019578Y005272D01*
X019604Y005301D01*
X019627Y005332D01*
X019646Y005365D01*
X019663Y005400D01*
X019676Y005437D01*
X019685Y005474D01*
X019691Y005512D01*
X019693Y005551D01*
X019693Y014350D01*
X019691Y014389D01*
X019685Y014427D01*
X019676Y014464D01*
X019663Y014501D01*
X019646Y014536D01*
X019627Y014569D01*
X019604Y014600D01*
X019578Y014629D01*
X019549Y014655D01*
X019518Y014678D01*
X019485Y014697D01*
X019450Y014714D01*
X019413Y014727D01*
X019376Y014736D01*
X019338Y014742D01*
X019299Y014744D01*
X012806Y014744D01*
X012806Y014743D02*
X012767Y014740D01*
X012728Y014734D01*
X012690Y014724D01*
X012653Y014710D01*
X012618Y014693D01*
X012585Y014672D01*
X012554Y014648D01*
X012525Y014622D01*
X012499Y014592D01*
X012476Y014560D01*
X012456Y014526D01*
X012440Y014491D01*
X012428Y014453D01*
X012419Y014415D01*
X012413Y014376D01*
X012412Y014337D01*
X012412Y014338D02*
X012412Y011650D01*
X012410Y011606D01*
X012404Y011563D01*
X012395Y011521D01*
X012382Y011479D01*
X012365Y011439D01*
X012345Y011400D01*
X012322Y011363D01*
X012295Y011329D01*
X012266Y011296D01*
X012233Y011267D01*
X012199Y011240D01*
X012162Y011217D01*
X012123Y011197D01*
X012083Y011180D01*
X012041Y011167D01*
X011999Y011158D01*
X011956Y011152D01*
X011912Y011150D01*
X010974Y011150D01*
X010930Y011152D01*
X010887Y011158D01*
X010845Y011167D01*
X010803Y011180D01*
X010763Y011197D01*
X010724Y011217D01*
X010687Y011240D01*
X010653Y011267D01*
X010620Y011296D01*
X010591Y011329D01*
X010564Y011363D01*
X010541Y011400D01*
X010521Y011439D01*
X010504Y011479D01*
X010491Y011521D01*
X010482Y011563D01*
X010476Y011606D01*
X010474Y011650D01*
X010474Y014338D01*
X010475Y014338D02*
X010473Y014377D01*
X010468Y014415D01*
X010459Y014453D01*
X010446Y014490D01*
X010429Y014525D01*
X010409Y014559D01*
X010386Y014590D01*
X010360Y014619D01*
X010332Y014645D01*
X010301Y014669D01*
X010267Y014689D01*
X010232Y014706D01*
X010195Y014719D01*
X010158Y014729D01*
X010119Y014735D01*
X010080Y014737D01*
X003587Y014737D01*
X003548Y014735D01*
X003510Y014729D01*
X003473Y014720D01*
X003436Y014707D01*
X003401Y014690D01*
X003368Y014671D01*
X003337Y014648D01*
X003308Y014622D01*
X003282Y014593D01*
X003259Y014562D01*
X003240Y014529D01*
X003223Y014494D01*
X003210Y014457D01*
X003201Y014420D01*
X003195Y014382D01*
X003193Y014343D01*
X003193Y005544D01*
X003195Y005505D01*
X003201Y005467D01*
X003210Y005430D01*
X003223Y005393D01*
X003240Y005358D01*
X003259Y005325D01*
X003282Y005294D01*
X003308Y005265D01*
X003337Y005239D01*
X003368Y005216D01*
X003401Y005197D01*
X003436Y005180D01*
X003473Y005167D01*
X003510Y005158D01*
X003548Y005152D01*
X003587Y005150D01*
X003548Y006006D02*
X003550Y006047D01*
X003556Y006088D01*
X003566Y006128D01*
X003579Y006167D01*
X003596Y006204D01*
X003617Y006240D01*
X003641Y006274D01*
X003668Y006305D01*
X003697Y006333D01*
X003730Y006359D01*
X003764Y006381D01*
X003801Y006400D01*
X003839Y006415D01*
X003879Y006427D01*
X003919Y006435D01*
X003960Y006439D01*
X004002Y006439D01*
X004043Y006435D01*
X004083Y006427D01*
X004123Y006415D01*
X004161Y006400D01*
X004197Y006381D01*
X004232Y006359D01*
X004265Y006333D01*
X004294Y006305D01*
X004321Y006274D01*
X004345Y006240D01*
X004366Y006204D01*
X004383Y006167D01*
X004396Y006128D01*
X004406Y006088D01*
X004412Y006047D01*
X004414Y006006D01*
X004412Y005965D01*
X004406Y005924D01*
X004396Y005884D01*
X004383Y005845D01*
X004366Y005808D01*
X004345Y005772D01*
X004321Y005738D01*
X004294Y005707D01*
X004265Y005679D01*
X004232Y005653D01*
X004198Y005631D01*
X004161Y005612D01*
X004123Y005597D01*
X004083Y005585D01*
X004043Y005577D01*
X004002Y005573D01*
X003960Y005573D01*
X003919Y005577D01*
X003879Y005585D01*
X003839Y005597D01*
X003801Y005612D01*
X003765Y005631D01*
X003730Y005653D01*
X003697Y005679D01*
X003668Y005707D01*
X003641Y005738D01*
X003617Y005772D01*
X003596Y005808D01*
X003579Y005845D01*
X003566Y005884D01*
X003556Y005924D01*
X003550Y005965D01*
X003548Y006006D01*
X003548Y013880D02*
X003550Y013921D01*
X003556Y013962D01*
X003566Y014002D01*
X003579Y014041D01*
X003596Y014078D01*
X003617Y014114D01*
X003641Y014148D01*
X003668Y014179D01*
X003697Y014207D01*
X003730Y014233D01*
X003764Y014255D01*
X003801Y014274D01*
X003839Y014289D01*
X003879Y014301D01*
X003919Y014309D01*
X003960Y014313D01*
X004002Y014313D01*
X004043Y014309D01*
X004083Y014301D01*
X004123Y014289D01*
X004161Y014274D01*
X004197Y014255D01*
X004232Y014233D01*
X004265Y014207D01*
X004294Y014179D01*
X004321Y014148D01*
X004345Y014114D01*
X004366Y014078D01*
X004383Y014041D01*
X004396Y014002D01*
X004406Y013962D01*
X004412Y013921D01*
X004414Y013880D01*
X004412Y013839D01*
X004406Y013798D01*
X004396Y013758D01*
X004383Y013719D01*
X004366Y013682D01*
X004345Y013646D01*
X004321Y013612D01*
X004294Y013581D01*
X004265Y013553D01*
X004232Y013527D01*
X004198Y013505D01*
X004161Y013486D01*
X004123Y013471D01*
X004083Y013459D01*
X004043Y013451D01*
X004002Y013447D01*
X003960Y013447D01*
X003919Y013451D01*
X003879Y013459D01*
X003839Y013471D01*
X003801Y013486D01*
X003765Y013505D01*
X003730Y013527D01*
X003697Y013553D01*
X003668Y013581D01*
X003641Y013612D01*
X003617Y013646D01*
X003596Y013682D01*
X003579Y013719D01*
X003566Y013758D01*
X003556Y013798D01*
X003550Y013839D01*
X003548Y013880D01*
X012798Y013880D02*
X012800Y013921D01*
X012806Y013962D01*
X012816Y014002D01*
X012829Y014041D01*
X012846Y014078D01*
X012867Y014114D01*
X012891Y014148D01*
X012918Y014179D01*
X012947Y014207D01*
X012980Y014233D01*
X013014Y014255D01*
X013051Y014274D01*
X013089Y014289D01*
X013129Y014301D01*
X013169Y014309D01*
X013210Y014313D01*
X013252Y014313D01*
X013293Y014309D01*
X013333Y014301D01*
X013373Y014289D01*
X013411Y014274D01*
X013447Y014255D01*
X013482Y014233D01*
X013515Y014207D01*
X013544Y014179D01*
X013571Y014148D01*
X013595Y014114D01*
X013616Y014078D01*
X013633Y014041D01*
X013646Y014002D01*
X013656Y013962D01*
X013662Y013921D01*
X013664Y013880D01*
X013662Y013839D01*
X013656Y013798D01*
X013646Y013758D01*
X013633Y013719D01*
X013616Y013682D01*
X013595Y013646D01*
X013571Y013612D01*
X013544Y013581D01*
X013515Y013553D01*
X013482Y013527D01*
X013448Y013505D01*
X013411Y013486D01*
X013373Y013471D01*
X013333Y013459D01*
X013293Y013451D01*
X013252Y013447D01*
X013210Y013447D01*
X013169Y013451D01*
X013129Y013459D01*
X013089Y013471D01*
X013051Y013486D01*
X013015Y013505D01*
X012980Y013527D01*
X012947Y013553D01*
X012918Y013581D01*
X012891Y013612D01*
X012867Y013646D01*
X012846Y013682D01*
X012829Y013719D01*
X012816Y013758D01*
X012806Y013798D01*
X012800Y013839D01*
X012798Y013880D01*
X012798Y006006D02*
X012800Y006047D01*
X012806Y006088D01*
X012816Y006128D01*
X012829Y006167D01*
X012846Y006204D01*
X012867Y006240D01*
X012891Y006274D01*
X012918Y006305D01*
X012947Y006333D01*
X012980Y006359D01*
X013014Y006381D01*
X013051Y006400D01*
X013089Y006415D01*
X013129Y006427D01*
X013169Y006435D01*
X013210Y006439D01*
X013252Y006439D01*
X013293Y006435D01*
X013333Y006427D01*
X013373Y006415D01*
X013411Y006400D01*
X013447Y006381D01*
X013482Y006359D01*
X013515Y006333D01*
X013544Y006305D01*
X013571Y006274D01*
X013595Y006240D01*
X013616Y006204D01*
X013633Y006167D01*
X013646Y006128D01*
X013656Y006088D01*
X013662Y006047D01*
X013664Y006006D01*
X013662Y005965D01*
X013656Y005924D01*
X013646Y005884D01*
X013633Y005845D01*
X013616Y005808D01*
X013595Y005772D01*
X013571Y005738D01*
X013544Y005707D01*
X013515Y005679D01*
X013482Y005653D01*
X013448Y005631D01*
X013411Y005612D01*
X013373Y005597D01*
X013333Y005585D01*
X013293Y005577D01*
X013252Y005573D01*
X013210Y005573D01*
X013169Y005577D01*
X013129Y005585D01*
X013089Y005597D01*
X013051Y005612D01*
X013015Y005631D01*
X012980Y005653D01*
X012947Y005679D01*
X012918Y005707D01*
X012891Y005738D01*
X012867Y005772D01*
X012846Y005808D01*
X012829Y005845D01*
X012816Y005884D01*
X012806Y005924D01*
X012800Y005965D01*
X012798Y006006D01*
D11*
X013231Y006006D03*
X013231Y013880D03*
X003981Y013880D03*
X003981Y006006D03*
D12*
X007193Y009525D03*
X016443Y009525D03*
D13*
X014691Y008527D02*
X014127Y008527D01*
X014691Y008527D02*
X014691Y007649D01*
X014127Y007649D01*
X014127Y008527D01*
X014127Y007755D02*
X014691Y007755D01*
X014691Y007861D02*
X014127Y007861D01*
X014127Y007967D02*
X014691Y007967D01*
X014691Y008073D02*
X014127Y008073D01*
X014127Y008179D02*
X014691Y008179D01*
X014691Y008285D02*
X014127Y008285D01*
X014127Y008391D02*
X014691Y008391D01*
X014691Y008497D02*
X014127Y008497D01*
X013510Y007649D02*
X012946Y007649D01*
X012946Y008527D01*
X013510Y008527D01*
X013510Y007649D01*
X013510Y007755D02*
X012946Y007755D01*
X012946Y007861D02*
X013510Y007861D01*
X013510Y007967D02*
X012946Y007967D01*
X012946Y008073D02*
X013510Y008073D01*
X013510Y008179D02*
X012946Y008179D01*
X012946Y008285D02*
X013510Y008285D01*
X013510Y008391D02*
X012946Y008391D01*
X012946Y008497D02*
X013510Y008497D01*
X005441Y008527D02*
X004877Y008527D01*
X005441Y008527D02*
X005441Y007649D01*
X004877Y007649D01*
X004877Y008527D01*
X004877Y007755D02*
X005441Y007755D01*
X005441Y007861D02*
X004877Y007861D01*
X004877Y007967D02*
X005441Y007967D01*
X005441Y008073D02*
X004877Y008073D01*
X004877Y008179D02*
X005441Y008179D01*
X005441Y008285D02*
X004877Y008285D01*
X004877Y008391D02*
X005441Y008391D01*
X005441Y008497D02*
X004877Y008497D01*
X004260Y007649D02*
X003696Y007649D01*
X003696Y008527D01*
X004260Y008527D01*
X004260Y007649D01*
X004260Y007755D02*
X003696Y007755D01*
X003696Y007861D02*
X004260Y007861D01*
X004260Y007967D02*
X003696Y007967D01*
X003696Y008073D02*
X004260Y008073D01*
X004260Y008179D02*
X003696Y008179D01*
X003696Y008285D02*
X004260Y008285D01*
X004260Y008391D02*
X003696Y008391D01*
X003696Y008497D02*
X004260Y008497D01*
D14*
X004448Y011985D02*
X004688Y011985D01*
X004448Y011985D02*
X004448Y012225D01*
X004688Y012225D01*
X004688Y011985D01*
X004688Y012098D02*
X004448Y012098D01*
X004448Y012211D02*
X004688Y012211D01*
X004688Y012575D02*
X004448Y012575D01*
X004448Y012815D01*
X004688Y012815D01*
X004688Y012575D01*
X004688Y012688D02*
X004448Y012688D01*
X004448Y012801D02*
X004688Y012801D01*
X003938Y012575D02*
X003698Y012575D01*
X003698Y012815D01*
X003938Y012815D01*
X003938Y012575D01*
X003938Y012688D02*
X003698Y012688D01*
X003698Y012801D02*
X003938Y012801D01*
X003938Y011985D02*
X003698Y011985D01*
X003698Y012225D01*
X003938Y012225D01*
X003938Y011985D01*
X003938Y012098D02*
X003698Y012098D01*
X003698Y012211D02*
X003938Y012211D01*
X012948Y011985D02*
X013188Y011985D01*
X012948Y011985D02*
X012948Y012225D01*
X013188Y012225D01*
X013188Y011985D01*
X013188Y012098D02*
X012948Y012098D01*
X012948Y012211D02*
X013188Y012211D01*
X013188Y012575D02*
X012948Y012575D01*
X012948Y012815D01*
X013188Y012815D01*
X013188Y012575D01*
X013188Y012688D02*
X012948Y012688D01*
X012948Y012801D02*
X013188Y012801D01*
X013698Y012575D02*
X013938Y012575D01*
X013698Y012575D02*
X013698Y012815D01*
X013938Y012815D01*
X013938Y012575D01*
X013938Y012688D02*
X013698Y012688D01*
X013698Y012801D02*
X013938Y012801D01*
X013938Y011985D02*
X013698Y011985D01*
X013698Y012225D01*
X013938Y012225D01*
X013938Y011985D01*
X013938Y012098D02*
X013698Y012098D01*
X013698Y012211D02*
X013938Y012211D01*
D15*
X015858Y012833D02*
X016078Y012833D01*
X015858Y012833D02*
X015858Y012857D01*
X016078Y012857D01*
X016078Y012833D01*
X016078Y013030D02*
X015858Y013030D01*
X015858Y013054D01*
X016078Y013054D01*
X016078Y013030D01*
X016078Y013227D02*
X015858Y013227D01*
X015858Y013251D01*
X016078Y013251D01*
X016078Y013227D01*
X016078Y013424D02*
X015858Y013424D01*
X015858Y013448D01*
X016078Y013448D01*
X016078Y013424D01*
X016078Y013621D02*
X015858Y013621D01*
X015858Y013645D01*
X016078Y013645D01*
X016078Y013621D01*
X016078Y013818D02*
X015858Y013818D01*
X015858Y013842D01*
X016078Y013842D01*
X016078Y013818D01*
X016276Y014015D02*
X016276Y014235D01*
X016276Y014015D02*
X016252Y014015D01*
X016252Y014235D01*
X016276Y014235D01*
X016276Y014148D02*
X016252Y014148D01*
X016472Y014235D02*
X016472Y014015D01*
X016448Y014015D01*
X016448Y014235D01*
X016472Y014235D01*
X016472Y014148D02*
X016448Y014148D01*
X016669Y014235D02*
X016669Y014015D01*
X016645Y014015D01*
X016645Y014235D01*
X016669Y014235D01*
X016669Y014148D02*
X016645Y014148D01*
X016866Y014235D02*
X016866Y014015D01*
X016842Y014015D01*
X016842Y014235D01*
X016866Y014235D01*
X016866Y014148D02*
X016842Y014148D01*
X017063Y014235D02*
X017063Y014015D01*
X017039Y014015D01*
X017039Y014235D01*
X017063Y014235D01*
X017063Y014148D02*
X017039Y014148D01*
X017260Y014235D02*
X017260Y014015D01*
X017236Y014015D01*
X017236Y014235D01*
X017260Y014235D01*
X017260Y014148D02*
X017236Y014148D01*
X017433Y013842D02*
X017653Y013842D01*
X017653Y013818D01*
X017433Y013818D01*
X017433Y013842D01*
X017433Y013645D02*
X017653Y013645D01*
X017653Y013621D01*
X017433Y013621D01*
X017433Y013645D01*
X017433Y013448D02*
X017653Y013448D01*
X017653Y013424D01*
X017433Y013424D01*
X017433Y013448D01*
X017433Y013251D02*
X017653Y013251D01*
X017653Y013227D01*
X017433Y013227D01*
X017433Y013251D01*
X017433Y013054D02*
X017653Y013054D01*
X017653Y013030D01*
X017433Y013030D01*
X017433Y013054D01*
X017433Y012857D02*
X017653Y012857D01*
X017653Y012833D01*
X017433Y012833D01*
X017433Y012857D01*
X017236Y012660D02*
X017236Y012440D01*
X017236Y012660D02*
X017260Y012660D01*
X017260Y012440D01*
X017236Y012440D01*
X017236Y012573D02*
X017260Y012573D01*
X017039Y012660D02*
X017039Y012440D01*
X017039Y012660D02*
X017063Y012660D01*
X017063Y012440D01*
X017039Y012440D01*
X017039Y012573D02*
X017063Y012573D01*
X016842Y012660D02*
X016842Y012440D01*
X016842Y012660D02*
X016866Y012660D01*
X016866Y012440D01*
X016842Y012440D01*
X016842Y012573D02*
X016866Y012573D01*
X016645Y012660D02*
X016645Y012440D01*
X016645Y012660D02*
X016669Y012660D01*
X016669Y012440D01*
X016645Y012440D01*
X016645Y012573D02*
X016669Y012573D01*
X016448Y012660D02*
X016448Y012440D01*
X016448Y012660D02*
X016472Y012660D01*
X016472Y012440D01*
X016448Y012440D01*
X016448Y012573D02*
X016472Y012573D01*
X016252Y012660D02*
X016252Y012440D01*
X016252Y012660D02*
X016276Y012660D01*
X016276Y012440D01*
X016252Y012440D01*
X016252Y012573D02*
X016276Y012573D01*
X008403Y012857D02*
X008183Y012857D01*
X008403Y012857D02*
X008403Y012833D01*
X008183Y012833D01*
X008183Y012857D01*
X008183Y013054D02*
X008403Y013054D01*
X008403Y013030D01*
X008183Y013030D01*
X008183Y013054D01*
X008183Y013251D02*
X008403Y013251D01*
X008403Y013227D01*
X008183Y013227D01*
X008183Y013251D01*
X008183Y013448D02*
X008403Y013448D01*
X008403Y013424D01*
X008183Y013424D01*
X008183Y013448D01*
X008183Y013645D02*
X008403Y013645D01*
X008403Y013621D01*
X008183Y013621D01*
X008183Y013645D01*
X008183Y013842D02*
X008403Y013842D01*
X008403Y013818D01*
X008183Y013818D01*
X008183Y013842D01*
X008010Y014015D02*
X008010Y014235D01*
X008010Y014015D02*
X007986Y014015D01*
X007986Y014235D01*
X008010Y014235D01*
X008010Y014148D02*
X007986Y014148D01*
X007813Y014235D02*
X007813Y014015D01*
X007789Y014015D01*
X007789Y014235D01*
X007813Y014235D01*
X007813Y014148D02*
X007789Y014148D01*
X007616Y014235D02*
X007616Y014015D01*
X007592Y014015D01*
X007592Y014235D01*
X007616Y014235D01*
X007616Y014148D02*
X007592Y014148D01*
X007419Y014235D02*
X007419Y014015D01*
X007395Y014015D01*
X007395Y014235D01*
X007419Y014235D01*
X007419Y014148D02*
X007395Y014148D01*
X007222Y014235D02*
X007222Y014015D01*
X007198Y014015D01*
X007198Y014235D01*
X007222Y014235D01*
X007222Y014148D02*
X007198Y014148D01*
X007026Y014235D02*
X007026Y014015D01*
X007002Y014015D01*
X007002Y014235D01*
X007026Y014235D01*
X007026Y014148D02*
X007002Y014148D01*
X006828Y013818D02*
X006608Y013818D01*
X006608Y013842D01*
X006828Y013842D01*
X006828Y013818D01*
X006828Y013621D02*
X006608Y013621D01*
X006608Y013645D01*
X006828Y013645D01*
X006828Y013621D01*
X006828Y013424D02*
X006608Y013424D01*
X006608Y013448D01*
X006828Y013448D01*
X006828Y013424D01*
X006828Y013227D02*
X006608Y013227D01*
X006608Y013251D01*
X006828Y013251D01*
X006828Y013227D01*
X006828Y013030D02*
X006608Y013030D01*
X006608Y013054D01*
X006828Y013054D01*
X006828Y013030D01*
X006828Y012833D02*
X006608Y012833D01*
X006608Y012857D01*
X006828Y012857D01*
X006828Y012833D01*
X007002Y012660D02*
X007002Y012440D01*
X007002Y012660D02*
X007026Y012660D01*
X007026Y012440D01*
X007002Y012440D01*
X007002Y012573D02*
X007026Y012573D01*
X007198Y012660D02*
X007198Y012440D01*
X007198Y012660D02*
X007222Y012660D01*
X007222Y012440D01*
X007198Y012440D01*
X007198Y012573D02*
X007222Y012573D01*
X007395Y012660D02*
X007395Y012440D01*
X007395Y012660D02*
X007419Y012660D01*
X007419Y012440D01*
X007395Y012440D01*
X007395Y012573D02*
X007419Y012573D01*
X007592Y012660D02*
X007592Y012440D01*
X007592Y012660D02*
X007616Y012660D01*
X007616Y012440D01*
X007592Y012440D01*
X007592Y012573D02*
X007616Y012573D01*
X007789Y012660D02*
X007789Y012440D01*
X007789Y012660D02*
X007813Y012660D01*
X007813Y012440D01*
X007789Y012440D01*
X007789Y012573D02*
X007813Y012573D01*
X007986Y012660D02*
X007986Y012440D01*
X007986Y012660D02*
X008010Y012660D01*
X008010Y012440D01*
X007986Y012440D01*
X007986Y012573D02*
X008010Y012573D01*
D16*
X007506Y013338D03*
X016756Y013338D03*
D17*
X015378Y013457D02*
X015052Y013457D01*
X015378Y013457D02*
X015378Y013093D01*
X015052Y013093D01*
X015052Y013457D01*
X015052Y013200D02*
X015378Y013200D01*
X015378Y013307D02*
X015052Y013307D01*
X015052Y013414D02*
X015378Y013414D01*
X015052Y013718D02*
X015052Y014082D01*
X015378Y014082D01*
X015378Y013718D01*
X015052Y013718D01*
X015052Y013825D02*
X015378Y013825D01*
X015378Y013932D02*
X015052Y013932D01*
X015052Y014039D02*
X015378Y014039D01*
X014383Y014082D02*
X014383Y013718D01*
X014383Y014082D02*
X014709Y014082D01*
X014709Y013718D01*
X014383Y013718D01*
X014383Y013825D02*
X014709Y013825D01*
X014709Y013932D02*
X014383Y013932D01*
X014383Y014039D02*
X014709Y014039D01*
X014709Y013457D02*
X014383Y013457D01*
X014709Y013457D02*
X014709Y013093D01*
X014383Y013093D01*
X014383Y013457D01*
X014383Y013200D02*
X014709Y013200D01*
X014709Y013307D02*
X014383Y013307D01*
X014383Y013414D02*
X014709Y013414D01*
X014709Y012832D02*
X014383Y012832D01*
X014709Y012832D02*
X014709Y012468D01*
X014383Y012468D01*
X014383Y012832D01*
X014383Y012575D02*
X014709Y012575D01*
X014709Y012682D02*
X014383Y012682D01*
X014383Y012789D02*
X014709Y012789D01*
X015052Y012832D02*
X015378Y012832D01*
X015378Y012468D01*
X015052Y012468D01*
X015052Y012832D01*
X015052Y012575D02*
X015378Y012575D01*
X015378Y012682D02*
X015052Y012682D01*
X015052Y012789D02*
X015378Y012789D01*
X015378Y012207D02*
X015052Y012207D01*
X015378Y012207D02*
X015378Y011843D01*
X015052Y011843D01*
X015052Y012207D01*
X015052Y011950D02*
X015378Y011950D01*
X015378Y012057D02*
X015052Y012057D01*
X015052Y012164D02*
X015378Y012164D01*
X014709Y012207D02*
X014383Y012207D01*
X014709Y012207D02*
X014709Y011843D01*
X014383Y011843D01*
X014383Y012207D01*
X014383Y011950D02*
X014709Y011950D01*
X014709Y012057D02*
X014383Y012057D01*
X014383Y012164D02*
X014709Y012164D01*
X013941Y011645D02*
X013615Y011645D01*
X013941Y011645D02*
X013941Y011281D01*
X013615Y011281D01*
X013615Y011645D01*
X013615Y011388D02*
X013941Y011388D01*
X013941Y011495D02*
X013615Y011495D01*
X013615Y011602D02*
X013941Y011602D01*
X013272Y011645D02*
X012946Y011645D01*
X013272Y011645D02*
X013272Y011281D01*
X012946Y011281D01*
X012946Y011645D01*
X012946Y011388D02*
X013272Y011388D01*
X013272Y011495D02*
X012946Y011495D01*
X012946Y011602D02*
X013272Y011602D01*
X012946Y010895D02*
X012946Y010531D01*
X012946Y010895D02*
X013272Y010895D01*
X013272Y010531D01*
X012946Y010531D01*
X012946Y010638D02*
X013272Y010638D01*
X013272Y010745D02*
X012946Y010745D01*
X012946Y010852D02*
X013272Y010852D01*
X013615Y010895D02*
X013615Y010531D01*
X013615Y010895D02*
X013941Y010895D01*
X013941Y010531D01*
X013615Y010531D01*
X013615Y010638D02*
X013941Y010638D01*
X013941Y010745D02*
X013615Y010745D01*
X013615Y010852D02*
X013941Y010852D01*
X013696Y007270D02*
X013696Y006906D01*
X013696Y007270D02*
X014022Y007270D01*
X014022Y006906D01*
X013696Y006906D01*
X013696Y007013D02*
X014022Y007013D01*
X014022Y007120D02*
X013696Y007120D01*
X013696Y007227D02*
X014022Y007227D01*
X014365Y007270D02*
X014365Y006906D01*
X014365Y007270D02*
X014691Y007270D01*
X014691Y006906D01*
X014365Y006906D01*
X014365Y007013D02*
X014691Y007013D01*
X014691Y007120D02*
X014365Y007120D01*
X014365Y007227D02*
X014691Y007227D01*
X018584Y008218D02*
X018584Y008582D01*
X018584Y008218D02*
X018258Y008218D01*
X018258Y008582D01*
X018584Y008582D01*
X018584Y008325D02*
X018258Y008325D01*
X018258Y008432D02*
X018584Y008432D01*
X018584Y008539D02*
X018258Y008539D01*
X018258Y009207D02*
X018584Y009207D01*
X018584Y008843D01*
X018258Y008843D01*
X018258Y009207D01*
X018258Y008950D02*
X018584Y008950D01*
X018584Y009057D02*
X018258Y009057D01*
X018258Y009164D02*
X018584Y009164D01*
X018927Y009207D02*
X019253Y009207D01*
X019253Y008843D01*
X018927Y008843D01*
X018927Y009207D01*
X018927Y008950D02*
X019253Y008950D01*
X019253Y009057D02*
X018927Y009057D01*
X018927Y009164D02*
X019253Y009164D01*
X019253Y008582D02*
X019253Y008218D01*
X018927Y008218D01*
X018927Y008582D01*
X019253Y008582D01*
X019253Y008325D02*
X018927Y008325D01*
X018927Y008432D02*
X019253Y008432D01*
X019253Y008539D02*
X018927Y008539D01*
X019253Y010531D02*
X019253Y010895D01*
X019253Y010531D02*
X018927Y010531D01*
X018927Y010895D01*
X019253Y010895D01*
X019253Y010638D02*
X018927Y010638D01*
X018927Y010745D02*
X019253Y010745D01*
X019253Y010852D02*
X018927Y010852D01*
X018584Y010895D02*
X018584Y010531D01*
X018258Y010531D01*
X018258Y010895D01*
X018584Y010895D01*
X018584Y010638D02*
X018258Y010638D01*
X018258Y010745D02*
X018584Y010745D01*
X018584Y010852D02*
X018258Y010852D01*
X018258Y012156D02*
X018584Y012156D01*
X018258Y012156D02*
X018258Y012520D01*
X018584Y012520D01*
X018584Y012156D01*
X018584Y012263D02*
X018258Y012263D01*
X018258Y012370D02*
X018584Y012370D01*
X018584Y012477D02*
X018258Y012477D01*
X018258Y012781D02*
X018584Y012781D01*
X018258Y012781D02*
X018258Y013145D01*
X018584Y013145D01*
X018584Y012781D01*
X018584Y012888D02*
X018258Y012888D01*
X018258Y012995D02*
X018584Y012995D01*
X018584Y013102D02*
X018258Y013102D01*
X018584Y013406D02*
X018584Y013770D01*
X018584Y013406D02*
X018258Y013406D01*
X018258Y013770D01*
X018584Y013770D01*
X018584Y013513D02*
X018258Y013513D01*
X018258Y013620D02*
X018584Y013620D01*
X018584Y013727D02*
X018258Y013727D01*
X018584Y014031D02*
X018584Y014395D01*
X018584Y014031D02*
X018258Y014031D01*
X018258Y014395D01*
X018584Y014395D01*
X018584Y014138D02*
X018258Y014138D01*
X018258Y014245D02*
X018584Y014245D01*
X018584Y014352D02*
X018258Y014352D01*
X019253Y014395D02*
X019253Y014031D01*
X018927Y014031D01*
X018927Y014395D01*
X019253Y014395D01*
X019253Y014138D02*
X018927Y014138D01*
X018927Y014245D02*
X019253Y014245D01*
X019253Y014352D02*
X018927Y014352D01*
X019253Y013770D02*
X019253Y013406D01*
X018927Y013406D01*
X018927Y013770D01*
X019253Y013770D01*
X019253Y013513D02*
X018927Y013513D01*
X018927Y013620D02*
X019253Y013620D01*
X019253Y013727D02*
X018927Y013727D01*
X018927Y012781D02*
X019253Y012781D01*
X018927Y012781D02*
X018927Y013145D01*
X019253Y013145D01*
X019253Y012781D01*
X019253Y012888D02*
X018927Y012888D01*
X018927Y012995D02*
X019253Y012995D01*
X019253Y013102D02*
X018927Y013102D01*
X018927Y012156D02*
X019253Y012156D01*
X018927Y012156D02*
X018927Y012520D01*
X019253Y012520D01*
X019253Y012156D01*
X019253Y012263D02*
X018927Y012263D01*
X018927Y012370D02*
X019253Y012370D01*
X019253Y012477D02*
X018927Y012477D01*
X010003Y012156D02*
X009677Y012156D01*
X009677Y012520D01*
X010003Y012520D01*
X010003Y012156D01*
X010003Y012263D02*
X009677Y012263D01*
X009677Y012370D02*
X010003Y012370D01*
X010003Y012477D02*
X009677Y012477D01*
X009677Y012781D02*
X010003Y012781D01*
X009677Y012781D02*
X009677Y013145D01*
X010003Y013145D01*
X010003Y012781D01*
X010003Y012888D02*
X009677Y012888D01*
X009677Y012995D02*
X010003Y012995D01*
X010003Y013102D02*
X009677Y013102D01*
X010003Y013406D02*
X010003Y013770D01*
X010003Y013406D02*
X009677Y013406D01*
X009677Y013770D01*
X010003Y013770D01*
X010003Y013513D02*
X009677Y013513D01*
X009677Y013620D02*
X010003Y013620D01*
X010003Y013727D02*
X009677Y013727D01*
X009334Y013770D02*
X009334Y013406D01*
X009008Y013406D01*
X009008Y013770D01*
X009334Y013770D01*
X009334Y013513D02*
X009008Y013513D01*
X009008Y013620D02*
X009334Y013620D01*
X009334Y013727D02*
X009008Y013727D01*
X009334Y014031D02*
X009334Y014395D01*
X009334Y014031D02*
X009008Y014031D01*
X009008Y014395D01*
X009334Y014395D01*
X009334Y014138D02*
X009008Y014138D01*
X009008Y014245D02*
X009334Y014245D01*
X009334Y014352D02*
X009008Y014352D01*
X010003Y014395D02*
X010003Y014031D01*
X009677Y014031D01*
X009677Y014395D01*
X010003Y014395D01*
X010003Y014138D02*
X009677Y014138D01*
X009677Y014245D02*
X010003Y014245D01*
X010003Y014352D02*
X009677Y014352D01*
X009334Y012781D02*
X009008Y012781D01*
X009008Y013145D01*
X009334Y013145D01*
X009334Y012781D01*
X009334Y012888D02*
X009008Y012888D01*
X009008Y012995D02*
X009334Y012995D01*
X009334Y013102D02*
X009008Y013102D01*
X009008Y012156D02*
X009334Y012156D01*
X009008Y012156D02*
X009008Y012520D01*
X009334Y012520D01*
X009334Y012156D01*
X009334Y012263D02*
X009008Y012263D01*
X009008Y012370D02*
X009334Y012370D01*
X009334Y012477D02*
X009008Y012477D01*
X009334Y010895D02*
X009334Y010531D01*
X009008Y010531D01*
X009008Y010895D01*
X009334Y010895D01*
X009334Y010638D02*
X009008Y010638D01*
X009008Y010745D02*
X009334Y010745D01*
X009334Y010852D02*
X009008Y010852D01*
X010003Y010895D02*
X010003Y010531D01*
X009677Y010531D01*
X009677Y010895D01*
X010003Y010895D01*
X010003Y010638D02*
X009677Y010638D01*
X009677Y010745D02*
X010003Y010745D01*
X010003Y010852D02*
X009677Y010852D01*
X009677Y009207D02*
X010003Y009207D01*
X010003Y008843D01*
X009677Y008843D01*
X009677Y009207D01*
X009677Y008950D02*
X010003Y008950D01*
X010003Y009057D02*
X009677Y009057D01*
X009677Y009164D02*
X010003Y009164D01*
X010003Y008582D02*
X010003Y008218D01*
X009677Y008218D01*
X009677Y008582D01*
X010003Y008582D01*
X010003Y008325D02*
X009677Y008325D01*
X009677Y008432D02*
X010003Y008432D01*
X010003Y008539D02*
X009677Y008539D01*
X009334Y008582D02*
X009334Y008218D01*
X009008Y008218D01*
X009008Y008582D01*
X009334Y008582D01*
X009334Y008325D02*
X009008Y008325D01*
X009008Y008432D02*
X009334Y008432D01*
X009334Y008539D02*
X009008Y008539D01*
X009008Y009207D02*
X009334Y009207D01*
X009334Y008843D01*
X009008Y008843D01*
X009008Y009207D01*
X009008Y008950D02*
X009334Y008950D01*
X009334Y009057D02*
X009008Y009057D01*
X009008Y009164D02*
X009334Y009164D01*
X006128Y012207D02*
X005802Y012207D01*
X006128Y012207D02*
X006128Y011843D01*
X005802Y011843D01*
X005802Y012207D01*
X005802Y011950D02*
X006128Y011950D01*
X006128Y012057D02*
X005802Y012057D01*
X005802Y012164D02*
X006128Y012164D01*
X006128Y012832D02*
X005802Y012832D01*
X006128Y012832D02*
X006128Y012468D01*
X005802Y012468D01*
X005802Y012832D01*
X005802Y012575D02*
X006128Y012575D01*
X006128Y012682D02*
X005802Y012682D01*
X005802Y012789D02*
X006128Y012789D01*
X006128Y013457D02*
X005802Y013457D01*
X006128Y013457D02*
X006128Y013093D01*
X005802Y013093D01*
X005802Y013457D01*
X005802Y013200D02*
X006128Y013200D01*
X006128Y013307D02*
X005802Y013307D01*
X005802Y013414D02*
X006128Y013414D01*
X005802Y013718D02*
X005802Y014082D01*
X006128Y014082D01*
X006128Y013718D01*
X005802Y013718D01*
X005802Y013825D02*
X006128Y013825D01*
X006128Y013932D02*
X005802Y013932D01*
X005802Y014039D02*
X006128Y014039D01*
X005133Y014082D02*
X005133Y013718D01*
X005133Y014082D02*
X005459Y014082D01*
X005459Y013718D01*
X005133Y013718D01*
X005133Y013825D02*
X005459Y013825D01*
X005459Y013932D02*
X005133Y013932D01*
X005133Y014039D02*
X005459Y014039D01*
X005459Y013457D02*
X005133Y013457D01*
X005459Y013457D02*
X005459Y013093D01*
X005133Y013093D01*
X005133Y013457D01*
X005133Y013200D02*
X005459Y013200D01*
X005459Y013307D02*
X005133Y013307D01*
X005133Y013414D02*
X005459Y013414D01*
X005459Y012832D02*
X005133Y012832D01*
X005459Y012832D02*
X005459Y012468D01*
X005133Y012468D01*
X005133Y012832D01*
X005133Y012575D02*
X005459Y012575D01*
X005459Y012682D02*
X005133Y012682D01*
X005133Y012789D02*
X005459Y012789D01*
X005459Y012207D02*
X005133Y012207D01*
X005459Y012207D02*
X005459Y011843D01*
X005133Y011843D01*
X005133Y012207D01*
X005133Y011950D02*
X005459Y011950D01*
X005459Y012057D02*
X005133Y012057D01*
X005133Y012164D02*
X005459Y012164D01*
X004691Y011645D02*
X004365Y011645D01*
X004691Y011645D02*
X004691Y011281D01*
X004365Y011281D01*
X004365Y011645D01*
X004365Y011388D02*
X004691Y011388D01*
X004691Y011495D02*
X004365Y011495D01*
X004365Y011602D02*
X004691Y011602D01*
X004022Y011645D02*
X003696Y011645D01*
X004022Y011645D02*
X004022Y011281D01*
X003696Y011281D01*
X003696Y011645D01*
X003696Y011388D02*
X004022Y011388D01*
X004022Y011495D02*
X003696Y011495D01*
X003696Y011602D02*
X004022Y011602D01*
X003696Y010895D02*
X003696Y010531D01*
X003696Y010895D02*
X004022Y010895D01*
X004022Y010531D01*
X003696Y010531D01*
X003696Y010638D02*
X004022Y010638D01*
X004022Y010745D02*
X003696Y010745D01*
X003696Y010852D02*
X004022Y010852D01*
X004365Y010895D02*
X004365Y010531D01*
X004365Y010895D02*
X004691Y010895D01*
X004691Y010531D01*
X004365Y010531D01*
X004365Y010638D02*
X004691Y010638D01*
X004691Y010745D02*
X004365Y010745D01*
X004365Y010852D02*
X004691Y010852D01*
X004446Y007270D02*
X004446Y006906D01*
X004446Y007270D02*
X004772Y007270D01*
X004772Y006906D01*
X004446Y006906D01*
X004446Y007013D02*
X004772Y007013D01*
X004772Y007120D02*
X004446Y007120D01*
X004446Y007227D02*
X004772Y007227D01*
X005115Y007270D02*
X005115Y006906D01*
X005115Y007270D02*
X005441Y007270D01*
X005441Y006906D01*
X005115Y006906D01*
X005115Y007013D02*
X005441Y007013D01*
X005441Y007120D02*
X005115Y007120D01*
X005115Y007227D02*
X005441Y007227D01*
D18*
X004696Y009144D02*
X004696Y009282D01*
X005090Y009282D01*
X005090Y009144D01*
X004696Y009144D01*
X004696Y009261D02*
X005090Y009261D01*
X004696Y009893D02*
X004696Y010031D01*
X005090Y010031D01*
X005090Y009893D01*
X004696Y009893D01*
X004696Y010010D02*
X005090Y010010D01*
X003672Y010031D02*
X003672Y009893D01*
X003672Y010031D02*
X004066Y010031D01*
X004066Y009893D01*
X003672Y009893D01*
X003672Y010010D02*
X004066Y010010D01*
X003672Y009657D02*
X003672Y009519D01*
X003672Y009657D02*
X004066Y009657D01*
X004066Y009519D01*
X003672Y009519D01*
X003672Y009636D02*
X004066Y009636D01*
X003672Y009282D02*
X003672Y009144D01*
X003672Y009282D02*
X004066Y009282D01*
X004066Y009144D01*
X003672Y009144D01*
X003672Y009261D02*
X004066Y009261D01*
X012922Y009144D02*
X012922Y009282D01*
X013316Y009282D01*
X013316Y009144D01*
X012922Y009144D01*
X012922Y009261D02*
X013316Y009261D01*
X012922Y009519D02*
X012922Y009657D01*
X013316Y009657D01*
X013316Y009519D01*
X012922Y009519D01*
X012922Y009636D02*
X013316Y009636D01*
X012922Y009893D02*
X012922Y010031D01*
X013316Y010031D01*
X013316Y009893D01*
X012922Y009893D01*
X012922Y010010D02*
X013316Y010010D01*
X013946Y010031D02*
X013946Y009893D01*
X013946Y010031D02*
X014340Y010031D01*
X014340Y009893D01*
X013946Y009893D01*
X013946Y010010D02*
X014340Y010010D01*
X013946Y009282D02*
X013946Y009144D01*
X013946Y009282D02*
X014340Y009282D01*
X014340Y009144D01*
X013946Y009144D01*
X013946Y009261D02*
X014340Y009261D01*
D19*
X013841Y009928D02*
X013721Y009928D01*
X013721Y010248D01*
X013841Y010248D01*
X013841Y009928D01*
X013841Y010047D02*
X013721Y010047D01*
X013721Y010166D02*
X013841Y010166D01*
X013541Y009928D02*
X013421Y009928D01*
X013421Y010248D01*
X013541Y010248D01*
X013541Y009928D01*
X013541Y010047D02*
X013421Y010047D01*
X013421Y010166D02*
X013541Y010166D01*
X014514Y010553D02*
X014634Y010553D01*
X014514Y010553D02*
X014514Y010873D01*
X014634Y010873D01*
X014634Y010553D01*
X014634Y010672D02*
X014514Y010672D01*
X014514Y010791D02*
X014634Y010791D01*
X014814Y010553D02*
X014934Y010553D01*
X014814Y010553D02*
X014814Y010873D01*
X014934Y010873D01*
X014934Y010553D01*
X014934Y010672D02*
X014814Y010672D01*
X014814Y010791D02*
X014934Y010791D01*
X018608Y009935D02*
X018728Y009935D01*
X018728Y009615D01*
X018608Y009615D01*
X018608Y009935D01*
X018608Y009734D02*
X018728Y009734D01*
X018728Y009853D02*
X018608Y009853D01*
X018908Y009935D02*
X019028Y009935D01*
X019028Y009615D01*
X018908Y009615D01*
X018908Y009935D01*
X018908Y009734D02*
X019028Y009734D01*
X019028Y009853D02*
X018908Y009853D01*
X009778Y009935D02*
X009658Y009935D01*
X009778Y009935D02*
X009778Y009615D01*
X009658Y009615D01*
X009658Y009935D01*
X009658Y009734D02*
X009778Y009734D01*
X009778Y009853D02*
X009658Y009853D01*
X009478Y009935D02*
X009358Y009935D01*
X009478Y009935D02*
X009478Y009615D01*
X009358Y009615D01*
X009358Y009935D01*
X009358Y009734D02*
X009478Y009734D01*
X009478Y009853D02*
X009358Y009853D01*
X005684Y010553D02*
X005564Y010553D01*
X005564Y010873D01*
X005684Y010873D01*
X005684Y010553D01*
X005684Y010672D02*
X005564Y010672D01*
X005564Y010791D02*
X005684Y010791D01*
X005384Y010553D02*
X005264Y010553D01*
X005264Y010873D01*
X005384Y010873D01*
X005384Y010553D01*
X005384Y010672D02*
X005264Y010672D01*
X005264Y010791D02*
X005384Y010791D01*
X004591Y009928D02*
X004471Y009928D01*
X004471Y010248D01*
X004591Y010248D01*
X004591Y009928D01*
X004591Y010047D02*
X004471Y010047D01*
X004471Y010166D02*
X004591Y010166D01*
X004291Y009928D02*
X004171Y009928D01*
X004171Y010248D01*
X004291Y010248D01*
X004291Y009928D01*
X004291Y010047D02*
X004171Y010047D01*
X004171Y010166D02*
X004291Y010166D01*
D20*
X005903Y010116D02*
X006199Y010116D01*
X006199Y010312D02*
X005903Y010312D01*
X005903Y009919D02*
X006199Y009919D01*
X006199Y009722D02*
X005903Y009722D01*
X005903Y009525D02*
X006199Y009525D01*
X006199Y009328D02*
X005903Y009328D01*
X005903Y009131D02*
X006199Y009131D01*
X006199Y008934D02*
X005903Y008934D01*
X005903Y008738D02*
X006199Y008738D01*
X006406Y008531D02*
X006406Y008235D01*
X006603Y008235D02*
X006603Y008531D01*
X006799Y008531D02*
X006799Y008235D01*
X006996Y008235D02*
X006996Y008531D01*
X007193Y008531D02*
X007193Y008235D01*
X007390Y008235D02*
X007390Y008531D01*
X007587Y008531D02*
X007587Y008235D01*
X007784Y008235D02*
X007784Y008531D01*
X007981Y008531D02*
X007981Y008235D01*
X008187Y008934D02*
X008483Y008934D01*
X008483Y009131D02*
X008187Y009131D01*
X008187Y009328D02*
X008483Y009328D01*
X008483Y009525D02*
X008187Y009525D01*
X008187Y009722D02*
X008483Y009722D01*
X008483Y009919D02*
X008187Y009919D01*
X008187Y010116D02*
X008483Y010116D01*
X008483Y010312D02*
X008187Y010312D01*
X007981Y010519D02*
X007981Y010815D01*
X007784Y010815D02*
X007784Y010519D01*
X007587Y010519D02*
X007587Y010815D01*
X007390Y010815D02*
X007390Y010519D01*
X007193Y010519D02*
X007193Y010815D01*
X006996Y010815D02*
X006996Y010519D01*
X006799Y010519D02*
X006799Y010815D01*
X006603Y010815D02*
X006603Y010519D01*
X006406Y010519D02*
X006406Y010815D01*
X015153Y010312D02*
X015449Y010312D01*
X015449Y010116D02*
X015153Y010116D01*
X015153Y009919D02*
X015449Y009919D01*
X015449Y009722D02*
X015153Y009722D01*
X015153Y009525D02*
X015449Y009525D01*
X015449Y009328D02*
X015153Y009328D01*
X015153Y009131D02*
X015449Y009131D01*
X015449Y008934D02*
X015153Y008934D01*
X015153Y008738D02*
X015449Y008738D01*
X015656Y008531D02*
X015656Y008235D01*
X015853Y008235D02*
X015853Y008531D01*
X016049Y008531D02*
X016049Y008235D01*
X016246Y008235D02*
X016246Y008531D01*
X016443Y008531D02*
X016443Y008235D01*
X016640Y008235D02*
X016640Y008531D01*
X016837Y008531D02*
X016837Y008235D01*
X017034Y008235D02*
X017034Y008531D01*
X017231Y008531D02*
X017231Y008235D01*
X017437Y008934D02*
X017733Y008934D01*
X017733Y009131D02*
X017437Y009131D01*
X017437Y009328D02*
X017733Y009328D01*
X017733Y009525D02*
X017437Y009525D01*
X017437Y009722D02*
X017733Y009722D01*
X017733Y009919D02*
X017437Y009919D01*
X017437Y010116D02*
X017733Y010116D01*
X017733Y010312D02*
X017437Y010312D01*
X017231Y010519D02*
X017231Y010815D01*
X017034Y010815D02*
X017034Y010519D01*
X016837Y010519D02*
X016837Y010815D01*
X016640Y010815D02*
X016640Y010519D01*
X016443Y010519D02*
X016443Y010815D01*
X016246Y010815D02*
X016246Y010519D01*
X016049Y010519D02*
X016049Y010815D01*
X015853Y010815D02*
X015853Y010519D01*
X015656Y010519D02*
X015656Y010815D01*
D21*
X017437Y008742D02*
X017733Y008742D01*
X017733Y008734D01*
X017437Y008734D01*
X017437Y008742D01*
X008483Y008742D02*
X008187Y008742D01*
X008483Y008742D02*
X008483Y008734D01*
X008187Y008734D01*
X008187Y008742D01*
D22*
X005863Y011260D02*
X005661Y011260D01*
X005661Y011540D01*
X005863Y011540D01*
X005863Y011260D01*
X005863Y011373D02*
X005661Y011373D01*
X005661Y011486D02*
X005863Y011486D01*
X005351Y011260D02*
X005149Y011260D01*
X005149Y011540D01*
X005351Y011540D01*
X005351Y011260D01*
X005351Y011373D02*
X005149Y011373D01*
X005149Y011486D02*
X005351Y011486D01*
X006461Y011915D02*
X006663Y011915D01*
X006663Y011635D01*
X006461Y011635D01*
X006461Y011915D01*
X006461Y011748D02*
X006663Y011748D01*
X006663Y011861D02*
X006461Y011861D01*
X006973Y011915D02*
X007175Y011915D01*
X007175Y011635D01*
X006973Y011635D01*
X006973Y011915D01*
X006973Y011748D02*
X007175Y011748D01*
X007175Y011861D02*
X006973Y011861D01*
X007557Y011947D02*
X007759Y011947D01*
X007759Y011353D01*
X007557Y011353D01*
X007557Y011947D01*
X007557Y011466D02*
X007759Y011466D01*
X007759Y011579D02*
X007557Y011579D01*
X007557Y011692D02*
X007759Y011692D01*
X007759Y011805D02*
X007557Y011805D01*
X007557Y011918D02*
X007759Y011918D01*
X008030Y011947D02*
X008232Y011947D01*
X008232Y011353D01*
X008030Y011353D01*
X008030Y011947D01*
X008030Y011466D02*
X008232Y011466D01*
X008232Y011579D02*
X008030Y011579D01*
X008030Y011692D02*
X008232Y011692D01*
X008232Y011805D02*
X008030Y011805D01*
X008030Y011918D02*
X008232Y011918D01*
X008502Y011947D02*
X008704Y011947D01*
X008704Y011353D01*
X008502Y011353D01*
X008502Y011947D01*
X008502Y011466D02*
X008704Y011466D01*
X008704Y011579D02*
X008502Y011579D01*
X008502Y011692D02*
X008704Y011692D01*
X008704Y011805D02*
X008502Y011805D01*
X008502Y011918D02*
X008704Y011918D01*
X014399Y011260D02*
X014601Y011260D01*
X014399Y011260D02*
X014399Y011540D01*
X014601Y011540D01*
X014601Y011260D01*
X014601Y011373D02*
X014399Y011373D01*
X014399Y011486D02*
X014601Y011486D01*
X014911Y011260D02*
X015113Y011260D01*
X014911Y011260D02*
X014911Y011540D01*
X015113Y011540D01*
X015113Y011260D01*
X015113Y011373D02*
X014911Y011373D01*
X014911Y011486D02*
X015113Y011486D01*
X015711Y011915D02*
X015913Y011915D01*
X015913Y011635D01*
X015711Y011635D01*
X015711Y011915D01*
X015711Y011748D02*
X015913Y011748D01*
X015913Y011861D02*
X015711Y011861D01*
X016223Y011915D02*
X016425Y011915D01*
X016425Y011635D01*
X016223Y011635D01*
X016223Y011915D01*
X016223Y011748D02*
X016425Y011748D01*
X016425Y011861D02*
X016223Y011861D01*
X016807Y011947D02*
X017009Y011947D01*
X017009Y011353D01*
X016807Y011353D01*
X016807Y011947D01*
X016807Y011466D02*
X017009Y011466D01*
X017009Y011579D02*
X016807Y011579D01*
X016807Y011692D02*
X017009Y011692D01*
X017009Y011805D02*
X016807Y011805D01*
X016807Y011918D02*
X017009Y011918D01*
X017280Y011947D02*
X017482Y011947D01*
X017482Y011353D01*
X017280Y011353D01*
X017280Y011947D01*
X017280Y011466D02*
X017482Y011466D01*
X017482Y011579D02*
X017280Y011579D01*
X017280Y011692D02*
X017482Y011692D01*
X017482Y011805D02*
X017280Y011805D01*
X017280Y011918D02*
X017482Y011918D01*
X017752Y011947D02*
X017954Y011947D01*
X017954Y011353D01*
X017752Y011353D01*
X017752Y011947D01*
X017752Y011466D02*
X017954Y011466D01*
X017954Y011579D02*
X017752Y011579D01*
X017752Y011692D02*
X017954Y011692D01*
X017954Y011805D02*
X017752Y011805D01*
X017752Y011918D02*
X017954Y011918D01*
D23*
X016989Y006992D02*
X016829Y006992D01*
X016829Y007526D01*
X016989Y007526D01*
X016989Y006992D01*
X016989Y007107D02*
X016829Y007107D01*
X016829Y007222D02*
X016989Y007222D01*
X016989Y007337D02*
X016829Y007337D01*
X016829Y007452D02*
X016989Y007452D01*
X016595Y006992D02*
X016435Y006992D01*
X016435Y007526D01*
X016595Y007526D01*
X016595Y006992D01*
X016595Y007107D02*
X016435Y007107D01*
X016435Y007222D02*
X016595Y007222D01*
X016595Y007337D02*
X016435Y007337D01*
X016435Y007452D02*
X016595Y007452D01*
X016201Y006992D02*
X016041Y006992D01*
X016041Y007526D01*
X016201Y007526D01*
X016201Y006992D01*
X016201Y007107D02*
X016041Y007107D01*
X016041Y007222D02*
X016201Y007222D01*
X016201Y007337D02*
X016041Y007337D01*
X016041Y007452D02*
X016201Y007452D01*
X015808Y006992D02*
X015648Y006992D01*
X015648Y007526D01*
X015808Y007526D01*
X015808Y006992D01*
X015808Y007107D02*
X015648Y007107D01*
X015648Y007222D02*
X015808Y007222D01*
X015808Y007337D02*
X015648Y007337D01*
X015648Y007452D02*
X015808Y007452D01*
X007739Y006992D02*
X007579Y006992D01*
X007579Y007526D01*
X007739Y007526D01*
X007739Y006992D01*
X007739Y007107D02*
X007579Y007107D01*
X007579Y007222D02*
X007739Y007222D01*
X007739Y007337D02*
X007579Y007337D01*
X007579Y007452D02*
X007739Y007452D01*
X007345Y006992D02*
X007185Y006992D01*
X007185Y007526D01*
X007345Y007526D01*
X007345Y006992D01*
X007345Y007107D02*
X007185Y007107D01*
X007185Y007222D02*
X007345Y007222D01*
X007345Y007337D02*
X007185Y007337D01*
X007185Y007452D02*
X007345Y007452D01*
X006951Y006992D02*
X006791Y006992D01*
X006791Y007526D01*
X006951Y007526D01*
X006951Y006992D01*
X006951Y007107D02*
X006791Y007107D01*
X006791Y007222D02*
X006951Y007222D01*
X006951Y007337D02*
X006791Y007337D01*
X006791Y007452D02*
X006951Y007452D01*
X006558Y006992D02*
X006398Y006992D01*
X006398Y007526D01*
X006558Y007526D01*
X006558Y006992D01*
X006558Y007107D02*
X006398Y007107D01*
X006398Y007222D02*
X006558Y007222D01*
X006558Y007337D02*
X006398Y007337D01*
X006398Y007452D02*
X006558Y007452D01*
D24*
X006168Y005413D02*
X005764Y005413D01*
X005764Y006053D01*
X006168Y006053D01*
X006168Y005413D01*
X006168Y005520D02*
X005764Y005520D01*
X005764Y005627D02*
X006168Y005627D01*
X006168Y005734D02*
X005764Y005734D01*
X005764Y005841D02*
X006168Y005841D01*
X006168Y005948D02*
X005764Y005948D01*
X007969Y005413D02*
X008373Y005413D01*
X007969Y005413D02*
X007969Y006053D01*
X008373Y006053D01*
X008373Y005413D01*
X008373Y005520D02*
X007969Y005520D01*
X007969Y005627D02*
X008373Y005627D01*
X008373Y005734D02*
X007969Y005734D01*
X007969Y005841D02*
X008373Y005841D01*
X008373Y005948D02*
X007969Y005948D01*
X015014Y005413D02*
X015418Y005413D01*
X015014Y005413D02*
X015014Y006053D01*
X015418Y006053D01*
X015418Y005413D01*
X015418Y005520D02*
X015014Y005520D01*
X015014Y005627D02*
X015418Y005627D01*
X015418Y005734D02*
X015014Y005734D01*
X015014Y005841D02*
X015418Y005841D01*
X015418Y005948D02*
X015014Y005948D01*
X017219Y005413D02*
X017623Y005413D01*
X017219Y005413D02*
X017219Y006053D01*
X017623Y006053D01*
X017623Y005413D01*
X017623Y005520D02*
X017219Y005520D01*
X017219Y005627D02*
X017623Y005627D01*
X017623Y005734D02*
X017219Y005734D01*
X017219Y005841D02*
X017623Y005841D01*
X017623Y005948D02*
X017219Y005948D01*
D25*
X018318Y005938D03*
X018318Y006488D03*
X018318Y007038D03*
X018318Y007588D03*
X019068Y007588D03*
X019068Y007038D03*
X019068Y006488D03*
X019068Y005938D03*
X009818Y005938D03*
X009818Y006488D03*
X009818Y007038D03*
X009818Y007588D03*
X009068Y007588D03*
X009068Y007038D03*
X009068Y006488D03*
X009068Y005938D03*
M02*
