G75*
%MOIN*%
%OFA0B0*%
%FSLAX24Y24*%
%IPPOS*%
%LPD*%
%AMOC8*
5,1,8,0,0,1.08239X$1,22.5*
%
%ADD10C,0.0000*%
%ADD11C,0.0060*%
%ADD12OC8,0.0440*%
%ADD13C,0.0240*%
%ADD14C,0.0160*%
%ADD15C,0.0320*%
%ADD16C,0.0240*%
%ADD17C,0.0120*%
%ADD18C,0.0100*%
D10*
X003587Y005150D02*
X010080Y005150D01*
X010119Y005153D01*
X010158Y005159D01*
X010196Y005169D01*
X010233Y005183D01*
X010268Y005200D01*
X010301Y005221D01*
X010332Y005245D01*
X010361Y005271D01*
X010387Y005301D01*
X010410Y005333D01*
X010430Y005367D01*
X010446Y005402D01*
X010458Y005440D01*
X010467Y005478D01*
X010473Y005517D01*
X010474Y005556D01*
X010474Y008150D01*
X010476Y008194D01*
X010482Y008237D01*
X010491Y008279D01*
X010504Y008321D01*
X010521Y008361D01*
X010541Y008400D01*
X010564Y008437D01*
X010591Y008471D01*
X010620Y008504D01*
X010653Y008533D01*
X010687Y008560D01*
X010724Y008583D01*
X010763Y008603D01*
X010803Y008620D01*
X010845Y008633D01*
X010887Y008642D01*
X010930Y008648D01*
X010974Y008650D01*
X011912Y008650D01*
X011956Y008648D01*
X011999Y008642D01*
X012041Y008633D01*
X012083Y008620D01*
X012123Y008603D01*
X012162Y008583D01*
X012199Y008560D01*
X012233Y008533D01*
X012266Y008504D01*
X012295Y008471D01*
X012322Y008437D01*
X012345Y008400D01*
X012365Y008361D01*
X012382Y008321D01*
X012395Y008279D01*
X012404Y008237D01*
X012410Y008194D01*
X012412Y008150D01*
X012412Y005556D01*
X012414Y005517D01*
X012419Y005479D01*
X012428Y005441D01*
X012441Y005404D01*
X012458Y005369D01*
X012478Y005335D01*
X012501Y005304D01*
X012527Y005275D01*
X012555Y005249D01*
X012586Y005225D01*
X012620Y005205D01*
X012655Y005188D01*
X012692Y005175D01*
X012729Y005165D01*
X012768Y005159D01*
X012807Y005157D01*
X012806Y005157D02*
X019299Y005157D01*
X019338Y005159D01*
X019376Y005165D01*
X019413Y005174D01*
X019450Y005187D01*
X019485Y005204D01*
X019518Y005223D01*
X019549Y005246D01*
X019578Y005272D01*
X019604Y005301D01*
X019627Y005332D01*
X019646Y005365D01*
X019663Y005400D01*
X019676Y005437D01*
X019685Y005474D01*
X019691Y005512D01*
X019693Y005551D01*
X019693Y014350D01*
X019691Y014389D01*
X019685Y014427D01*
X019676Y014464D01*
X019663Y014501D01*
X019646Y014536D01*
X019627Y014569D01*
X019604Y014600D01*
X019578Y014629D01*
X019549Y014655D01*
X019518Y014678D01*
X019485Y014697D01*
X019450Y014714D01*
X019413Y014727D01*
X019376Y014736D01*
X019338Y014742D01*
X019299Y014744D01*
X012806Y014744D01*
X012806Y014743D02*
X012767Y014740D01*
X012728Y014734D01*
X012690Y014724D01*
X012653Y014710D01*
X012618Y014693D01*
X012585Y014672D01*
X012554Y014648D01*
X012525Y014622D01*
X012499Y014592D01*
X012476Y014560D01*
X012456Y014526D01*
X012440Y014491D01*
X012428Y014453D01*
X012419Y014415D01*
X012413Y014376D01*
X012412Y014337D01*
X012412Y014338D02*
X012412Y011650D01*
X012410Y011606D01*
X012404Y011563D01*
X012395Y011521D01*
X012382Y011479D01*
X012365Y011439D01*
X012345Y011400D01*
X012322Y011363D01*
X012295Y011329D01*
X012266Y011296D01*
X012233Y011267D01*
X012199Y011240D01*
X012162Y011217D01*
X012123Y011197D01*
X012083Y011180D01*
X012041Y011167D01*
X011999Y011158D01*
X011956Y011152D01*
X011912Y011150D01*
X010974Y011150D01*
X010930Y011152D01*
X010887Y011158D01*
X010845Y011167D01*
X010803Y011180D01*
X010763Y011197D01*
X010724Y011217D01*
X010687Y011240D01*
X010653Y011267D01*
X010620Y011296D01*
X010591Y011329D01*
X010564Y011363D01*
X010541Y011400D01*
X010521Y011439D01*
X010504Y011479D01*
X010491Y011521D01*
X010482Y011563D01*
X010476Y011606D01*
X010474Y011650D01*
X010474Y014338D01*
X010475Y014338D02*
X010473Y014377D01*
X010468Y014415D01*
X010459Y014453D01*
X010446Y014490D01*
X010429Y014525D01*
X010409Y014559D01*
X010386Y014590D01*
X010360Y014619D01*
X010332Y014645D01*
X010301Y014669D01*
X010267Y014689D01*
X010232Y014706D01*
X010195Y014719D01*
X010158Y014729D01*
X010119Y014735D01*
X010080Y014737D01*
X003587Y014737D01*
X003548Y014735D01*
X003510Y014729D01*
X003473Y014720D01*
X003436Y014707D01*
X003401Y014690D01*
X003368Y014671D01*
X003337Y014648D01*
X003308Y014622D01*
X003282Y014593D01*
X003259Y014562D01*
X003240Y014529D01*
X003223Y014494D01*
X003210Y014457D01*
X003201Y014420D01*
X003195Y014382D01*
X003193Y014343D01*
X003193Y005544D01*
X003195Y005505D01*
X003201Y005467D01*
X003210Y005430D01*
X003223Y005393D01*
X003240Y005358D01*
X003259Y005325D01*
X003282Y005294D01*
X003308Y005265D01*
X003337Y005239D01*
X003368Y005216D01*
X003401Y005197D01*
X003436Y005180D01*
X003473Y005167D01*
X003510Y005158D01*
X003548Y005152D01*
X003587Y005150D01*
X003548Y006006D02*
X003550Y006047D01*
X003556Y006088D01*
X003566Y006128D01*
X003579Y006167D01*
X003596Y006204D01*
X003617Y006240D01*
X003641Y006274D01*
X003668Y006305D01*
X003697Y006333D01*
X003730Y006359D01*
X003764Y006381D01*
X003801Y006400D01*
X003839Y006415D01*
X003879Y006427D01*
X003919Y006435D01*
X003960Y006439D01*
X004002Y006439D01*
X004043Y006435D01*
X004083Y006427D01*
X004123Y006415D01*
X004161Y006400D01*
X004197Y006381D01*
X004232Y006359D01*
X004265Y006333D01*
X004294Y006305D01*
X004321Y006274D01*
X004345Y006240D01*
X004366Y006204D01*
X004383Y006167D01*
X004396Y006128D01*
X004406Y006088D01*
X004412Y006047D01*
X004414Y006006D01*
X004412Y005965D01*
X004406Y005924D01*
X004396Y005884D01*
X004383Y005845D01*
X004366Y005808D01*
X004345Y005772D01*
X004321Y005738D01*
X004294Y005707D01*
X004265Y005679D01*
X004232Y005653D01*
X004198Y005631D01*
X004161Y005612D01*
X004123Y005597D01*
X004083Y005585D01*
X004043Y005577D01*
X004002Y005573D01*
X003960Y005573D01*
X003919Y005577D01*
X003879Y005585D01*
X003839Y005597D01*
X003801Y005612D01*
X003765Y005631D01*
X003730Y005653D01*
X003697Y005679D01*
X003668Y005707D01*
X003641Y005738D01*
X003617Y005772D01*
X003596Y005808D01*
X003579Y005845D01*
X003566Y005884D01*
X003556Y005924D01*
X003550Y005965D01*
X003548Y006006D01*
X003548Y013880D02*
X003550Y013921D01*
X003556Y013962D01*
X003566Y014002D01*
X003579Y014041D01*
X003596Y014078D01*
X003617Y014114D01*
X003641Y014148D01*
X003668Y014179D01*
X003697Y014207D01*
X003730Y014233D01*
X003764Y014255D01*
X003801Y014274D01*
X003839Y014289D01*
X003879Y014301D01*
X003919Y014309D01*
X003960Y014313D01*
X004002Y014313D01*
X004043Y014309D01*
X004083Y014301D01*
X004123Y014289D01*
X004161Y014274D01*
X004197Y014255D01*
X004232Y014233D01*
X004265Y014207D01*
X004294Y014179D01*
X004321Y014148D01*
X004345Y014114D01*
X004366Y014078D01*
X004383Y014041D01*
X004396Y014002D01*
X004406Y013962D01*
X004412Y013921D01*
X004414Y013880D01*
X004412Y013839D01*
X004406Y013798D01*
X004396Y013758D01*
X004383Y013719D01*
X004366Y013682D01*
X004345Y013646D01*
X004321Y013612D01*
X004294Y013581D01*
X004265Y013553D01*
X004232Y013527D01*
X004198Y013505D01*
X004161Y013486D01*
X004123Y013471D01*
X004083Y013459D01*
X004043Y013451D01*
X004002Y013447D01*
X003960Y013447D01*
X003919Y013451D01*
X003879Y013459D01*
X003839Y013471D01*
X003801Y013486D01*
X003765Y013505D01*
X003730Y013527D01*
X003697Y013553D01*
X003668Y013581D01*
X003641Y013612D01*
X003617Y013646D01*
X003596Y013682D01*
X003579Y013719D01*
X003566Y013758D01*
X003556Y013798D01*
X003550Y013839D01*
X003548Y013880D01*
X012798Y013880D02*
X012800Y013921D01*
X012806Y013962D01*
X012816Y014002D01*
X012829Y014041D01*
X012846Y014078D01*
X012867Y014114D01*
X012891Y014148D01*
X012918Y014179D01*
X012947Y014207D01*
X012980Y014233D01*
X013014Y014255D01*
X013051Y014274D01*
X013089Y014289D01*
X013129Y014301D01*
X013169Y014309D01*
X013210Y014313D01*
X013252Y014313D01*
X013293Y014309D01*
X013333Y014301D01*
X013373Y014289D01*
X013411Y014274D01*
X013447Y014255D01*
X013482Y014233D01*
X013515Y014207D01*
X013544Y014179D01*
X013571Y014148D01*
X013595Y014114D01*
X013616Y014078D01*
X013633Y014041D01*
X013646Y014002D01*
X013656Y013962D01*
X013662Y013921D01*
X013664Y013880D01*
X013662Y013839D01*
X013656Y013798D01*
X013646Y013758D01*
X013633Y013719D01*
X013616Y013682D01*
X013595Y013646D01*
X013571Y013612D01*
X013544Y013581D01*
X013515Y013553D01*
X013482Y013527D01*
X013448Y013505D01*
X013411Y013486D01*
X013373Y013471D01*
X013333Y013459D01*
X013293Y013451D01*
X013252Y013447D01*
X013210Y013447D01*
X013169Y013451D01*
X013129Y013459D01*
X013089Y013471D01*
X013051Y013486D01*
X013015Y013505D01*
X012980Y013527D01*
X012947Y013553D01*
X012918Y013581D01*
X012891Y013612D01*
X012867Y013646D01*
X012846Y013682D01*
X012829Y013719D01*
X012816Y013758D01*
X012806Y013798D01*
X012800Y013839D01*
X012798Y013880D01*
X012798Y006006D02*
X012800Y006047D01*
X012806Y006088D01*
X012816Y006128D01*
X012829Y006167D01*
X012846Y006204D01*
X012867Y006240D01*
X012891Y006274D01*
X012918Y006305D01*
X012947Y006333D01*
X012980Y006359D01*
X013014Y006381D01*
X013051Y006400D01*
X013089Y006415D01*
X013129Y006427D01*
X013169Y006435D01*
X013210Y006439D01*
X013252Y006439D01*
X013293Y006435D01*
X013333Y006427D01*
X013373Y006415D01*
X013411Y006400D01*
X013447Y006381D01*
X013482Y006359D01*
X013515Y006333D01*
X013544Y006305D01*
X013571Y006274D01*
X013595Y006240D01*
X013616Y006204D01*
X013633Y006167D01*
X013646Y006128D01*
X013656Y006088D01*
X013662Y006047D01*
X013664Y006006D01*
X013662Y005965D01*
X013656Y005924D01*
X013646Y005884D01*
X013633Y005845D01*
X013616Y005808D01*
X013595Y005772D01*
X013571Y005738D01*
X013544Y005707D01*
X013515Y005679D01*
X013482Y005653D01*
X013448Y005631D01*
X013411Y005612D01*
X013373Y005597D01*
X013333Y005585D01*
X013293Y005577D01*
X013252Y005573D01*
X013210Y005573D01*
X013169Y005577D01*
X013129Y005585D01*
X013089Y005597D01*
X013051Y005612D01*
X013015Y005631D01*
X012980Y005653D01*
X012947Y005679D01*
X012918Y005707D01*
X012891Y005738D01*
X012867Y005772D01*
X012846Y005808D01*
X012829Y005845D01*
X012816Y005884D01*
X012806Y005924D01*
X012800Y005965D01*
X012798Y006006D01*
D11*
X012573Y006781D02*
X012573Y013113D01*
X013266Y013113D01*
X013267Y013112D01*
X013279Y013113D01*
X013290Y013113D01*
X013292Y013114D01*
X013394Y013125D01*
X013396Y013124D01*
X013406Y013126D01*
X013417Y013127D01*
X013419Y013130D01*
X013519Y013156D01*
X013521Y013155D01*
X013531Y013160D01*
X013542Y013162D01*
X013543Y013165D01*
X013637Y013207D01*
X013640Y013206D01*
X013649Y013212D01*
X013659Y013216D01*
X013660Y013219D01*
X013747Y013275D01*
X013750Y013275D01*
X013758Y013282D01*
X013767Y013288D01*
X013767Y013291D01*
X013844Y013360D01*
X013847Y013360D01*
X013854Y013369D01*
X013862Y013376D01*
X013862Y013379D01*
X013927Y013459D01*
X013930Y013460D01*
X013935Y013469D01*
X013942Y013477D01*
X013942Y013480D01*
X013993Y013569D01*
X013996Y013571D01*
X014000Y013581D01*
X014005Y013590D01*
X014005Y013593D01*
X014042Y013689D01*
X014044Y013691D01*
X014046Y013701D01*
X014050Y013711D01*
X014049Y013714D01*
X014071Y013815D01*
X014073Y013817D01*
X014073Y013827D01*
X014076Y013838D01*
X014074Y013840D01*
X014080Y013942D01*
X014080Y013955D01*
X014081Y013967D01*
X014080Y013968D01*
X014080Y014607D01*
X019330Y014607D01*
X019363Y014604D01*
X019446Y014569D01*
X019519Y014497D01*
X019558Y014401D01*
X019563Y014350D01*
X019563Y005551D01*
X019558Y005499D01*
X019519Y005404D01*
X019446Y005332D01*
X019351Y005292D01*
X019299Y005287D01*
X018750Y005287D01*
X018751Y005288D01*
X018930Y005468D01*
X019274Y005468D01*
X019344Y005538D01*
X019532Y005725D01*
X019532Y006731D01*
X019366Y006897D01*
X019378Y006909D01*
X019378Y007166D01*
X019232Y007312D01*
X019378Y007459D01*
X019378Y007716D01*
X019197Y007897D01*
X019188Y007897D01*
X019188Y009325D01*
X018657Y009856D01*
X018657Y010481D01*
X018305Y010832D01*
X018206Y010832D01*
X016118Y010832D01*
X015903Y011047D01*
X015903Y011065D01*
X015983Y011065D01*
X015983Y011001D01*
X016106Y010878D01*
X016280Y010878D01*
X016320Y010918D01*
X018671Y010918D01*
X018671Y010813D01*
X018733Y010751D01*
X018733Y010294D01*
X018731Y010292D01*
X018693Y010200D01*
X018693Y010100D01*
X018731Y010008D01*
X018802Y009938D01*
X018893Y009900D01*
X018993Y009900D01*
X019085Y009938D01*
X019155Y010008D01*
X019193Y010100D01*
X019193Y010200D01*
X019155Y010292D01*
X019153Y010294D01*
X019153Y010924D01*
X019091Y010987D01*
X019091Y011706D01*
X019106Y011690D01*
X019280Y011690D01*
X019403Y011813D01*
X019403Y011987D01*
X019280Y012110D01*
X019106Y012110D01*
X019091Y012094D01*
X019091Y012188D01*
X019280Y012378D01*
X019403Y012501D01*
X019403Y013487D01*
X019280Y013610D01*
X018841Y014049D01*
X018841Y014049D01*
X018718Y014172D01*
X018653Y014172D01*
X018653Y014299D01*
X018530Y014422D01*
X018356Y014422D01*
X018256Y014322D01*
X018155Y014422D01*
X016512Y014422D01*
X016325Y014235D01*
X014731Y014235D01*
X014356Y013860D01*
X014233Y013737D01*
X014233Y013297D01*
X014106Y013297D01*
X013983Y013174D01*
X013983Y013001D01*
X014106Y012878D01*
X014233Y012878D01*
X014233Y011590D01*
X014090Y011446D01*
X013979Y011446D01*
X013897Y011364D01*
X013510Y010977D01*
X013428Y010895D01*
X013428Y010655D01*
X013510Y010573D01*
X013554Y010528D01*
X013554Y009361D01*
X013654Y009261D01*
X014336Y008580D01*
X014336Y008580D01*
X014435Y008480D01*
X015101Y008480D01*
X015046Y008424D01*
X015046Y008251D01*
X015169Y008128D01*
X015343Y008128D01*
X015466Y008251D01*
X015466Y008424D01*
X015410Y008480D01*
X017498Y008480D01*
X018135Y007843D01*
X018008Y007716D01*
X018008Y007459D01*
X018155Y007312D01*
X018008Y007166D01*
X018008Y006909D01*
X018155Y006763D01*
X018008Y006616D01*
X018008Y006517D01*
X018288Y006517D01*
X018288Y006458D01*
X018008Y006458D01*
X018008Y006359D01*
X018155Y006212D01*
X018008Y006066D01*
X018008Y005880D01*
X017626Y006262D01*
X017626Y007137D01*
X016903Y007860D01*
X016903Y007987D01*
X016780Y008110D01*
X016606Y008110D01*
X016537Y008041D01*
X016468Y008110D01*
X016294Y008110D01*
X016251Y008067D01*
X016251Y008075D01*
X016126Y008200D01*
X016055Y008270D01*
X015706Y008270D01*
X015546Y008110D01*
X015481Y008110D01*
X015358Y007987D01*
X015358Y007813D01*
X015481Y007690D01*
X015655Y007690D01*
X015724Y007759D01*
X015761Y007723D01*
X015761Y007225D01*
X016296Y006690D01*
X016296Y006563D01*
X016419Y006440D01*
X016593Y006440D01*
X016716Y006563D01*
X016716Y006737D01*
X016593Y006860D01*
X016465Y006860D01*
X016001Y007325D01*
X016001Y007723D01*
X016011Y007733D01*
X016011Y007663D01*
X016081Y007593D01*
X016268Y007405D01*
X016456Y007405D01*
X017136Y006725D01*
X017136Y006038D01*
X017206Y005968D01*
X017886Y005287D01*
X014073Y005287D01*
X014073Y005966D01*
X014074Y005968D01*
X014073Y005979D01*
X014073Y005991D01*
X014072Y005992D01*
X014061Y006094D01*
X014063Y006096D01*
X014060Y006107D01*
X014059Y006117D01*
X017136Y006117D01*
X017136Y006059D02*
X014065Y006059D01*
X014059Y006117D02*
X014057Y006119D01*
X014030Y006219D01*
X014031Y006222D01*
X014027Y006232D01*
X014024Y006242D01*
X014021Y006243D01*
X013979Y006338D01*
X013980Y006341D01*
X013974Y006350D01*
X013970Y006359D01*
X013967Y006360D01*
X013911Y006447D01*
X013911Y006450D01*
X013904Y006458D01*
X013898Y006467D01*
X013895Y006468D01*
X016391Y006468D01*
X016332Y006527D02*
X013843Y006527D01*
X013826Y006545D02*
X013826Y006547D01*
X013818Y006554D01*
X013810Y006562D01*
X013808Y006562D01*
X013727Y006627D01*
X013727Y006630D01*
X013717Y006636D01*
X013709Y006642D01*
X013706Y006642D01*
X013617Y006694D01*
X013616Y006696D01*
X013606Y006700D01*
X013596Y006706D01*
X013594Y006705D01*
X013497Y006742D01*
X013496Y006745D01*
X013485Y006747D01*
X013475Y006751D01*
X013472Y006749D01*
X013371Y006771D01*
X013369Y006773D01*
X013359Y006774D01*
X013348Y006776D01*
X013346Y006774D01*
X013245Y006780D01*
X013244Y006781D01*
X013231Y006781D01*
X013219Y006781D01*
X013218Y006781D01*
X012573Y006781D01*
X012573Y006819D02*
X016167Y006819D01*
X016225Y006761D02*
X013421Y006761D01*
X013387Y006863D02*
X013177Y006968D01*
X013138Y006981D01*
X013134Y006990D01*
X013125Y006994D01*
X013112Y007033D01*
X013094Y007070D01*
X013097Y007079D01*
X013094Y007088D01*
X013112Y007125D01*
X013125Y007164D01*
X013134Y007169D01*
X013138Y007177D01*
X013177Y007190D01*
X013188Y007196D01*
X013175Y007209D01*
X013147Y007237D01*
X013147Y007237D01*
X013103Y007281D01*
X013103Y007467D01*
X013136Y007500D01*
X013103Y007532D01*
X013103Y007675D01*
X013127Y007699D01*
X013103Y007723D01*
X013103Y007909D01*
X013136Y007942D01*
X013103Y007974D01*
X013103Y008073D01*
X013173Y008144D01*
X013217Y008144D01*
X013390Y008317D01*
X013533Y008317D01*
X013603Y008247D01*
X013603Y007974D01*
X013571Y007942D01*
X013603Y007909D01*
X013603Y007723D01*
X013533Y007652D01*
X013490Y007609D01*
X013387Y007609D01*
X013387Y007581D01*
X013490Y007581D01*
X013527Y007543D01*
X013560Y007510D01*
X013603Y007467D01*
X013603Y007444D01*
X013653Y007494D01*
X013843Y007494D01*
X013843Y007510D01*
X013914Y007581D01*
X014013Y007581D01*
X014083Y007510D01*
X014083Y007237D01*
X014073Y007227D01*
X014083Y007216D01*
X014083Y007116D01*
X014048Y007081D01*
X014071Y007065D01*
X014074Y007052D01*
X014083Y007042D01*
X014083Y007004D01*
X014091Y006967D01*
X014083Y006956D01*
X014083Y006943D01*
X014057Y006916D01*
X014036Y006885D01*
X014023Y006882D01*
X014013Y006873D01*
X013975Y006873D01*
X013938Y006865D01*
X013927Y006873D01*
X013653Y006873D01*
X013583Y006943D01*
X013583Y007042D01*
X013619Y007078D01*
X013595Y007094D01*
X013593Y007107D01*
X013583Y007116D01*
X013583Y007154D01*
X013576Y007191D01*
X013583Y007202D01*
X013583Y007216D01*
X013610Y007242D01*
X013631Y007274D01*
X013633Y007274D01*
X013603Y007304D01*
X013603Y007281D01*
X013533Y007211D01*
X013517Y007194D01*
X013526Y007175D01*
X013495Y007081D01*
X013492Y007079D01*
X013495Y007078D01*
X013526Y006983D01*
X013482Y006894D01*
X013387Y006863D01*
X013358Y006878D02*
X012573Y006878D01*
X012573Y006936D02*
X013241Y006936D01*
X013125Y006995D02*
X012573Y006995D01*
X012573Y007053D02*
X013102Y007053D01*
X013105Y007112D02*
X012573Y007112D01*
X012573Y007170D02*
X013134Y007170D01*
X013155Y007229D02*
X012573Y007229D01*
X012573Y007287D02*
X013103Y007287D01*
X013103Y007346D02*
X012573Y007346D01*
X012573Y007404D02*
X013103Y007404D01*
X013103Y007463D02*
X012573Y007463D01*
X012573Y007521D02*
X013114Y007521D01*
X013103Y007580D02*
X012573Y007580D01*
X012573Y007638D02*
X013103Y007638D01*
X013125Y007697D02*
X012573Y007697D01*
X012573Y007755D02*
X013103Y007755D01*
X013103Y007814D02*
X012573Y007814D01*
X012573Y007872D02*
X013103Y007872D01*
X013125Y007931D02*
X012573Y007931D01*
X012573Y007989D02*
X013103Y007989D01*
X013103Y008048D02*
X012573Y008048D01*
X012573Y008106D02*
X013136Y008106D01*
X013238Y008165D02*
X012573Y008165D01*
X012573Y008223D02*
X013296Y008223D01*
X013355Y008282D02*
X012573Y008282D01*
X012573Y008340D02*
X015046Y008340D01*
X015046Y008282D02*
X013569Y008282D01*
X013603Y008223D02*
X015073Y008223D01*
X015132Y008165D02*
X013603Y008165D01*
X013603Y008106D02*
X015477Y008106D01*
X015419Y008048D02*
X013603Y008048D01*
X013603Y007989D02*
X015360Y007989D01*
X015358Y007931D02*
X013582Y007931D01*
X013603Y007872D02*
X015358Y007872D01*
X015358Y007814D02*
X013603Y007814D01*
X013603Y007755D02*
X015416Y007755D01*
X015475Y007697D02*
X013577Y007697D01*
X013519Y007638D02*
X015761Y007638D01*
X015761Y007580D02*
X014014Y007580D01*
X014073Y007521D02*
X015761Y007521D01*
X015761Y007463D02*
X014083Y007463D01*
X014083Y007404D02*
X015761Y007404D01*
X015761Y007346D02*
X014083Y007346D01*
X014083Y007287D02*
X015761Y007287D01*
X015761Y007229D02*
X014074Y007229D01*
X014083Y007170D02*
X015816Y007170D01*
X015874Y007112D02*
X014079Y007112D01*
X014074Y007053D02*
X015933Y007053D01*
X015991Y006995D02*
X014085Y006995D01*
X014077Y006936D02*
X016050Y006936D01*
X016108Y006878D02*
X014018Y006878D01*
X013963Y006993D02*
X013703Y007166D01*
X013963Y007166D01*
X013963Y007287D02*
X013963Y007461D01*
X013963Y007374D02*
X013703Y007374D01*
X013622Y007463D02*
X013603Y007463D01*
X013549Y007521D02*
X013854Y007521D01*
X013913Y007580D02*
X013491Y007580D01*
X013440Y007461D02*
X013267Y007287D01*
X013223Y007331D01*
X013223Y007417D01*
X013267Y007461D01*
X013440Y007461D01*
X013483Y007417D01*
X013483Y007331D01*
X013440Y007287D01*
X013267Y007287D01*
X013397Y007166D02*
X013223Y007079D01*
X013397Y006993D01*
X013503Y006936D02*
X013590Y006936D01*
X013583Y006995D02*
X013522Y006995D01*
X013503Y007053D02*
X013594Y007053D01*
X013588Y007112D02*
X013505Y007112D01*
X013524Y007170D02*
X013580Y007170D01*
X013596Y007229D02*
X013551Y007229D01*
X013603Y007287D02*
X013620Y007287D01*
X013267Y007582D02*
X013267Y007625D01*
X013223Y007625D01*
X013223Y007582D01*
X013267Y007582D01*
X013267Y007729D02*
X013440Y007903D01*
X013267Y007903D01*
X013223Y007859D01*
X013223Y007772D01*
X013267Y007729D01*
X013440Y007729D01*
X013483Y007772D01*
X013483Y007859D01*
X013440Y007903D01*
X013483Y008024D02*
X013483Y008197D01*
X013440Y008197D01*
X013267Y008024D01*
X013223Y008024D01*
X012573Y008399D02*
X015046Y008399D01*
X015078Y008457D02*
X012573Y008457D01*
X012573Y008516D02*
X014400Y008516D01*
X014341Y008574D02*
X012573Y008574D01*
X012573Y008633D02*
X014283Y008633D01*
X014224Y008691D02*
X012573Y008691D01*
X012573Y008750D02*
X014166Y008750D01*
X014107Y008808D02*
X012573Y008808D01*
X012573Y008867D02*
X014049Y008867D01*
X013990Y008925D02*
X012573Y008925D01*
X012573Y008984D02*
X013932Y008984D01*
X013873Y009042D02*
X012573Y009042D01*
X012573Y009101D02*
X013815Y009101D01*
X013756Y009159D02*
X012573Y009159D01*
X012573Y009218D02*
X013698Y009218D01*
X013639Y009276D02*
X012573Y009276D01*
X012573Y009335D02*
X013581Y009335D01*
X013554Y009393D02*
X012573Y009393D01*
X012573Y009452D02*
X013554Y009452D01*
X013554Y009510D02*
X012573Y009510D01*
X012573Y009569D02*
X013554Y009569D01*
X013554Y009627D02*
X012573Y009627D01*
X012573Y009686D02*
X013554Y009686D01*
X013554Y009744D02*
X012573Y009744D01*
X012573Y009803D02*
X013554Y009803D01*
X013554Y009861D02*
X012573Y009861D01*
X012573Y009920D02*
X013554Y009920D01*
X013554Y009978D02*
X012573Y009978D01*
X012573Y010037D02*
X013554Y010037D01*
X013554Y010095D02*
X012573Y010095D01*
X012573Y010154D02*
X013554Y010154D01*
X013554Y010212D02*
X012573Y010212D01*
X012573Y010271D02*
X013554Y010271D01*
X013554Y010329D02*
X012573Y010329D01*
X012573Y010388D02*
X013554Y010388D01*
X013554Y010446D02*
X012573Y010446D01*
X012573Y010505D02*
X013554Y010505D01*
X013520Y010563D02*
X012573Y010563D01*
X012573Y010622D02*
X013461Y010622D01*
X013428Y010680D02*
X012573Y010680D01*
X012573Y010739D02*
X013428Y010739D01*
X013428Y010797D02*
X012573Y010797D01*
X012573Y010856D02*
X013428Y010856D01*
X013447Y010914D02*
X012573Y010914D01*
X012573Y010973D02*
X013505Y010973D01*
X013510Y010977D02*
X013510Y010977D01*
X013564Y011031D02*
X012573Y011031D01*
X012573Y011090D02*
X013622Y011090D01*
X013681Y011148D02*
X012573Y011148D01*
X012573Y011207D02*
X013739Y011207D01*
X013798Y011265D02*
X012573Y011265D01*
X012573Y011324D02*
X013856Y011324D01*
X013915Y011382D02*
X012573Y011382D01*
X012573Y011441D02*
X013973Y011441D01*
X014142Y011499D02*
X012573Y011499D01*
X012573Y011558D02*
X014201Y011558D01*
X014233Y011616D02*
X012573Y011616D01*
X012573Y011675D02*
X014233Y011675D01*
X014233Y011733D02*
X012573Y011733D01*
X012573Y011792D02*
X014233Y011792D01*
X014233Y011850D02*
X012573Y011850D01*
X012573Y011909D02*
X014233Y011909D01*
X014233Y011967D02*
X012573Y011967D01*
X012573Y012026D02*
X014233Y012026D01*
X014233Y012084D02*
X012573Y012084D01*
X012573Y012143D02*
X014233Y012143D01*
X014233Y012201D02*
X012573Y012201D01*
X012573Y012260D02*
X014233Y012260D01*
X014233Y012318D02*
X012573Y012318D01*
X012573Y012377D02*
X014233Y012377D01*
X014233Y012435D02*
X012573Y012435D01*
X012573Y012494D02*
X014233Y012494D01*
X014233Y012552D02*
X012573Y012552D01*
X012573Y012611D02*
X014233Y012611D01*
X014233Y012669D02*
X012573Y012669D01*
X012573Y012728D02*
X014233Y012728D01*
X014233Y012786D02*
X012573Y012786D01*
X012573Y012845D02*
X014233Y012845D01*
X014081Y012903D02*
X012573Y012903D01*
X012573Y012962D02*
X014022Y012962D01*
X013983Y013020D02*
X012573Y013020D01*
X012573Y013079D02*
X013983Y013079D01*
X013983Y013137D02*
X013446Y013137D01*
X013612Y013196D02*
X014004Y013196D01*
X014063Y013254D02*
X013714Y013254D01*
X013791Y013313D02*
X014233Y013313D01*
X014233Y013371D02*
X013857Y013371D01*
X013903Y013430D02*
X014233Y013430D01*
X014233Y013488D02*
X013946Y013488D01*
X013980Y013547D02*
X014233Y013547D01*
X014233Y013605D02*
X014009Y013605D01*
X014032Y013664D02*
X014233Y013664D01*
X014233Y013722D02*
X014051Y013722D01*
X014063Y013781D02*
X014277Y013781D01*
X014335Y013839D02*
X014075Y013839D01*
X014077Y013898D02*
X014394Y013898D01*
X014452Y013956D02*
X014080Y013956D01*
X014080Y013942D02*
X014080Y013942D01*
X014080Y014015D02*
X014511Y014015D01*
X014569Y014073D02*
X014080Y014073D01*
X014080Y014132D02*
X014628Y014132D01*
X014686Y014190D02*
X014080Y014190D01*
X014080Y014249D02*
X016339Y014249D01*
X016397Y014307D02*
X014080Y014307D01*
X014080Y014366D02*
X016456Y014366D01*
X016686Y014003D02*
X017686Y014003D01*
X017671Y013987D01*
X017671Y013813D01*
X017794Y013690D01*
X017921Y013690D01*
X018323Y013288D01*
X018393Y013218D01*
X018581Y013218D01*
X018698Y013100D01*
X018698Y012825D01*
X017643Y011770D01*
X016268Y011770D01*
X015983Y011485D01*
X015856Y011485D01*
X015733Y011362D01*
X015733Y011297D01*
X015606Y011297D01*
X015483Y011174D01*
X015483Y011001D01*
X015606Y010878D01*
X015733Y010878D01*
X016018Y010593D01*
X018206Y010593D01*
X018417Y010382D01*
X018417Y009757D01*
X018487Y009686D01*
X018948Y009225D01*
X018948Y007897D01*
X018940Y007897D01*
X018758Y007716D01*
X018758Y007459D01*
X018905Y007312D01*
X018758Y007166D01*
X018758Y006909D01*
X018905Y006762D01*
X018758Y006616D01*
X018758Y006359D01*
X018777Y006341D01*
X018751Y006315D01*
X018751Y008262D01*
X018216Y008797D01*
X018216Y008924D01*
X018093Y009047D01*
X017919Y009047D01*
X017796Y008924D01*
X017796Y008751D01*
X017919Y008628D01*
X018046Y008628D01*
X018511Y008163D01*
X018511Y007833D01*
X018488Y007856D01*
X018488Y007970D01*
X017738Y008720D01*
X017639Y008820D01*
X014576Y008820D01*
X013894Y009502D01*
X013894Y010528D01*
X013896Y010530D01*
X014314Y010948D01*
X014396Y011030D01*
X014396Y011158D01*
X014653Y011416D01*
X014653Y013563D01*
X014905Y013815D01*
X016499Y013815D01*
X016622Y013938D01*
X016686Y014003D01*
X016640Y013956D02*
X017671Y013956D01*
X017671Y013898D02*
X016581Y013898D01*
X016523Y013839D02*
X017671Y013839D01*
X017703Y013781D02*
X014871Y013781D01*
X014812Y013722D02*
X014971Y013722D01*
X014948Y013700D02*
X015018Y013770D01*
X016430Y013770D01*
X017118Y013082D01*
X018266Y013082D01*
X018356Y013172D01*
X018530Y013172D01*
X018653Y013049D01*
X018653Y012876D01*
X018530Y012753D01*
X018356Y012753D01*
X018266Y012843D01*
X017018Y012843D01*
X016948Y012913D01*
X016331Y013530D01*
X015118Y013530D01*
X014938Y013350D01*
X014938Y011315D01*
X014948Y011325D01*
X014948Y012387D01*
X015018Y012457D01*
X015054Y012493D01*
X014983Y012563D01*
X014983Y012737D01*
X015106Y012860D01*
X015280Y012860D01*
X015323Y012817D01*
X015323Y012975D01*
X015233Y013065D01*
X015106Y013065D01*
X014983Y013188D01*
X014983Y013362D01*
X015106Y013485D01*
X015280Y013485D01*
X015403Y013362D01*
X015403Y013235D01*
X015563Y013075D01*
X015563Y012582D01*
X017680Y012582D01*
X017715Y012547D01*
X017843Y012547D01*
X017966Y012424D01*
X017966Y012251D01*
X017843Y012128D01*
X017669Y012128D01*
X017546Y012251D01*
X017546Y012343D01*
X015618Y012343D01*
X015438Y012163D01*
X015438Y011100D01*
X015368Y011030D01*
X015001Y010663D01*
X015001Y010452D01*
X015091Y010362D01*
X015091Y010188D01*
X015021Y010119D01*
X015058Y010082D01*
X017706Y010082D01*
X017862Y010239D01*
X018149Y010239D01*
X018219Y010168D01*
X018344Y010043D01*
X018344Y009757D01*
X018274Y009686D01*
X018216Y009628D01*
X018216Y009501D01*
X018093Y009378D01*
X017919Y009378D01*
X017796Y009501D01*
X017796Y009674D01*
X017839Y009718D01*
X015180Y009718D01*
X015157Y009694D01*
X015157Y009694D01*
X015087Y009624D01*
X015016Y009624D01*
X015091Y009549D01*
X015091Y009376D01*
X014968Y009253D01*
X014794Y009253D01*
X014671Y009376D01*
X014671Y009378D01*
X014512Y009378D01*
X014389Y009501D01*
X014389Y009628D01*
X014362Y009655D01*
X014362Y009655D01*
X014292Y009725D01*
X014292Y010856D01*
X014362Y010926D01*
X014698Y011262D01*
X014698Y013450D01*
X014768Y013520D01*
X014948Y013700D01*
X014948Y013700D01*
X014912Y013664D02*
X014754Y013664D01*
X014695Y013605D02*
X014854Y013605D01*
X014795Y013547D02*
X014653Y013547D01*
X014653Y013488D02*
X014737Y013488D01*
X014698Y013430D02*
X014653Y013430D01*
X014653Y013371D02*
X014698Y013371D01*
X014698Y013313D02*
X014653Y013313D01*
X014653Y013254D02*
X014698Y013254D01*
X014698Y013196D02*
X014653Y013196D01*
X014653Y013137D02*
X014698Y013137D01*
X014698Y013079D02*
X014653Y013079D01*
X014653Y013020D02*
X014698Y013020D01*
X014698Y012962D02*
X014653Y012962D01*
X014653Y012903D02*
X014698Y012903D01*
X014698Y012845D02*
X014653Y012845D01*
X014653Y012786D02*
X014698Y012786D01*
X014698Y012728D02*
X014653Y012728D01*
X014653Y012669D02*
X014698Y012669D01*
X014698Y012611D02*
X014653Y012611D01*
X014653Y012552D02*
X014698Y012552D01*
X014698Y012494D02*
X014653Y012494D01*
X014653Y012435D02*
X014698Y012435D01*
X014698Y012377D02*
X014653Y012377D01*
X014653Y012318D02*
X014698Y012318D01*
X014698Y012260D02*
X014653Y012260D01*
X014653Y012201D02*
X014698Y012201D01*
X014698Y012143D02*
X014653Y012143D01*
X014653Y012084D02*
X014698Y012084D01*
X014698Y012026D02*
X014653Y012026D01*
X014653Y011967D02*
X014698Y011967D01*
X014698Y011909D02*
X014653Y011909D01*
X014653Y011850D02*
X014698Y011850D01*
X014698Y011792D02*
X014653Y011792D01*
X014653Y011733D02*
X014698Y011733D01*
X014698Y011675D02*
X014653Y011675D01*
X014653Y011616D02*
X014698Y011616D01*
X014698Y011558D02*
X014653Y011558D01*
X014653Y011499D02*
X014698Y011499D01*
X014698Y011441D02*
X014653Y011441D01*
X014619Y011382D02*
X014698Y011382D01*
X014698Y011324D02*
X014561Y011324D01*
X014502Y011265D02*
X014698Y011265D01*
X014643Y011207D02*
X014444Y011207D01*
X014396Y011148D02*
X014584Y011148D01*
X014526Y011090D02*
X014396Y011090D01*
X014396Y011031D02*
X014467Y011031D01*
X014409Y010973D02*
X014339Y010973D01*
X014314Y010948D02*
X014314Y010948D01*
X014280Y010914D02*
X014350Y010914D01*
X014292Y010856D02*
X014222Y010856D01*
X014163Y010797D02*
X014292Y010797D01*
X014292Y010739D02*
X014105Y010739D01*
X014046Y010680D02*
X014292Y010680D01*
X014292Y010622D02*
X013988Y010622D01*
X013929Y010563D02*
X014292Y010563D01*
X014292Y010505D02*
X013894Y010505D01*
X013894Y010446D02*
X014292Y010446D01*
X014292Y010388D02*
X013894Y010388D01*
X013894Y010329D02*
X014292Y010329D01*
X014292Y010271D02*
X013894Y010271D01*
X013894Y010212D02*
X014292Y010212D01*
X014292Y010154D02*
X013894Y010154D01*
X013894Y010095D02*
X014292Y010095D01*
X014292Y010037D02*
X013894Y010037D01*
X013894Y009978D02*
X014292Y009978D01*
X014292Y009920D02*
X013894Y009920D01*
X013894Y009861D02*
X014292Y009861D01*
X014292Y009803D02*
X013894Y009803D01*
X013894Y009744D02*
X014292Y009744D01*
X014332Y009686D02*
X013894Y009686D01*
X013894Y009627D02*
X014389Y009627D01*
X014389Y009569D02*
X013894Y009569D01*
X013894Y009510D02*
X014389Y009510D01*
X014438Y009452D02*
X013945Y009452D01*
X014003Y009393D02*
X014497Y009393D01*
X014599Y009588D02*
X014412Y009775D01*
X014412Y010806D01*
X014818Y011213D01*
X014818Y013400D01*
X015068Y013650D01*
X016381Y013650D01*
X017068Y012963D01*
X018443Y012963D01*
X018653Y012962D02*
X018698Y012962D01*
X018698Y013020D02*
X018653Y013020D01*
X018624Y013079D02*
X018698Y013079D01*
X018661Y013137D02*
X018566Y013137D01*
X018603Y013196D02*
X017005Y013196D01*
X016946Y013254D02*
X018357Y013254D01*
X018298Y013313D02*
X016888Y013313D01*
X016829Y013371D02*
X018240Y013371D01*
X018181Y013430D02*
X016771Y013430D01*
X016712Y013488D02*
X018123Y013488D01*
X018064Y013547D02*
X016654Y013547D01*
X016595Y013605D02*
X018006Y013605D01*
X017947Y013664D02*
X016537Y013664D01*
X016478Y013722D02*
X017762Y013722D01*
X017881Y013900D02*
X018443Y013338D01*
X018631Y013338D01*
X018818Y013150D01*
X018818Y012775D01*
X017693Y011650D01*
X016318Y011650D01*
X015943Y011275D01*
X015812Y011441D02*
X015438Y011441D01*
X015438Y011499D02*
X015998Y011499D01*
X016056Y011558D02*
X015438Y011558D01*
X015438Y011616D02*
X016115Y011616D01*
X016173Y011675D02*
X015438Y011675D01*
X015438Y011733D02*
X016232Y011733D01*
X016368Y011530D02*
X017743Y011530D01*
X017813Y011600D01*
X018938Y012725D01*
X018938Y013200D01*
X018868Y013270D01*
X018680Y013457D01*
X018493Y013457D01*
X018091Y013860D01*
X018091Y013893D01*
X018108Y013876D01*
X018108Y013876D01*
X018231Y013753D01*
X018544Y013753D01*
X018983Y013313D01*
X018983Y012674D01*
X018794Y012485D01*
X018794Y012485D01*
X018671Y012362D01*
X018671Y011257D01*
X016320Y011257D01*
X016280Y011297D01*
X016153Y011297D01*
X016153Y011315D01*
X016368Y011530D01*
X016337Y011499D02*
X018671Y011499D01*
X018671Y011441D02*
X016278Y011441D01*
X016220Y011382D02*
X018671Y011382D01*
X018671Y011324D02*
X016161Y011324D01*
X016313Y011265D02*
X018671Y011265D01*
X018671Y011558D02*
X017770Y011558D01*
X017829Y011616D02*
X018671Y011616D01*
X018671Y011675D02*
X017887Y011675D01*
X017946Y011733D02*
X018671Y011733D01*
X018671Y011792D02*
X018004Y011792D01*
X018063Y011850D02*
X018671Y011850D01*
X018671Y011909D02*
X018121Y011909D01*
X018180Y011967D02*
X018671Y011967D01*
X018671Y012026D02*
X018238Y012026D01*
X018297Y012084D02*
X018671Y012084D01*
X018671Y012143D02*
X018355Y012143D01*
X018414Y012201D02*
X018671Y012201D01*
X018671Y012260D02*
X018472Y012260D01*
X018531Y012318D02*
X018671Y012318D01*
X018685Y012377D02*
X018589Y012377D01*
X018648Y012435D02*
X018744Y012435D01*
X018706Y012494D02*
X018802Y012494D01*
X018765Y012552D02*
X018861Y012552D01*
X018823Y012611D02*
X018919Y012611D01*
X018882Y012669D02*
X018978Y012669D01*
X018983Y012728D02*
X018938Y012728D01*
X018938Y012786D02*
X018983Y012786D01*
X018983Y012845D02*
X018938Y012845D01*
X018938Y012903D02*
X018983Y012903D01*
X018983Y012962D02*
X018938Y012962D01*
X018938Y013020D02*
X018983Y013020D01*
X018983Y013079D02*
X018938Y013079D01*
X018938Y013137D02*
X018983Y013137D01*
X018983Y013196D02*
X018938Y013196D01*
X018983Y013254D02*
X018884Y013254D01*
X018825Y013313D02*
X018983Y013313D01*
X018925Y013371D02*
X018767Y013371D01*
X018708Y013430D02*
X018867Y013430D01*
X018808Y013488D02*
X018462Y013488D01*
X018404Y013547D02*
X018750Y013547D01*
X018691Y013605D02*
X018345Y013605D01*
X018287Y013664D02*
X018633Y013664D01*
X018574Y013722D02*
X018228Y013722D01*
X018203Y013781D02*
X018170Y013781D01*
X018145Y013839D02*
X018111Y013839D01*
X018212Y014366D02*
X018299Y014366D01*
X018587Y014366D02*
X019562Y014366D01*
X019563Y014307D02*
X018646Y014307D01*
X018653Y014249D02*
X019563Y014249D01*
X019563Y014190D02*
X018653Y014190D01*
X018759Y014132D02*
X019563Y014132D01*
X019563Y014073D02*
X018817Y014073D01*
X018876Y014015D02*
X019563Y014015D01*
X019563Y013956D02*
X018934Y013956D01*
X018993Y013898D02*
X019563Y013898D01*
X019563Y013839D02*
X019051Y013839D01*
X019110Y013781D02*
X019563Y013781D01*
X019563Y013722D02*
X019168Y013722D01*
X019227Y013664D02*
X019563Y013664D01*
X019563Y013605D02*
X019285Y013605D01*
X019280Y013610D02*
X019280Y013610D01*
X019344Y013547D02*
X019563Y013547D01*
X019563Y013488D02*
X019402Y013488D01*
X019403Y013430D02*
X019563Y013430D01*
X019563Y013371D02*
X019403Y013371D01*
X019403Y013313D02*
X019563Y013313D01*
X019563Y013254D02*
X019403Y013254D01*
X019403Y013196D02*
X019563Y013196D01*
X019563Y013137D02*
X019403Y013137D01*
X019403Y013079D02*
X019563Y013079D01*
X019563Y013020D02*
X019403Y013020D01*
X019403Y012962D02*
X019563Y012962D01*
X019563Y012903D02*
X019403Y012903D01*
X019403Y012845D02*
X019563Y012845D01*
X019563Y012786D02*
X019403Y012786D01*
X019403Y012728D02*
X019563Y012728D01*
X019563Y012669D02*
X019403Y012669D01*
X019403Y012611D02*
X019563Y012611D01*
X019563Y012552D02*
X019403Y012552D01*
X019396Y012494D02*
X019563Y012494D01*
X019563Y012435D02*
X019338Y012435D01*
X019280Y012378D02*
X019280Y012378D01*
X019279Y012377D02*
X019563Y012377D01*
X019563Y012318D02*
X019221Y012318D01*
X019162Y012260D02*
X019563Y012260D01*
X019563Y012201D02*
X019104Y012201D01*
X019091Y012143D02*
X019563Y012143D01*
X019563Y012084D02*
X019306Y012084D01*
X019365Y012026D02*
X019563Y012026D01*
X019563Y011967D02*
X019403Y011967D01*
X019403Y011909D02*
X019563Y011909D01*
X019563Y011850D02*
X019403Y011850D01*
X019382Y011792D02*
X019563Y011792D01*
X019563Y011733D02*
X019323Y011733D01*
X019091Y011675D02*
X019563Y011675D01*
X019563Y011616D02*
X019091Y011616D01*
X019091Y011558D02*
X019563Y011558D01*
X019563Y011499D02*
X019091Y011499D01*
X019091Y011441D02*
X019563Y011441D01*
X019563Y011382D02*
X019091Y011382D01*
X019091Y011324D02*
X019563Y011324D01*
X019563Y011265D02*
X019091Y011265D01*
X019091Y011207D02*
X019563Y011207D01*
X019563Y011148D02*
X019091Y011148D01*
X019091Y011090D02*
X019563Y011090D01*
X019563Y011031D02*
X019091Y011031D01*
X019105Y010973D02*
X019563Y010973D01*
X019563Y010914D02*
X019153Y010914D01*
X019153Y010856D02*
X019563Y010856D01*
X019563Y010797D02*
X019153Y010797D01*
X019153Y010739D02*
X019563Y010739D01*
X019563Y010680D02*
X019153Y010680D01*
X019153Y010622D02*
X019563Y010622D01*
X019563Y010563D02*
X019153Y010563D01*
X019153Y010505D02*
X019563Y010505D01*
X019563Y010446D02*
X019153Y010446D01*
X019153Y010388D02*
X019563Y010388D01*
X019563Y010329D02*
X019153Y010329D01*
X019164Y010271D02*
X019563Y010271D01*
X019563Y010212D02*
X019188Y010212D01*
X019193Y010154D02*
X019563Y010154D01*
X019563Y010095D02*
X019191Y010095D01*
X019167Y010037D02*
X019563Y010037D01*
X019563Y009978D02*
X019125Y009978D01*
X019040Y009920D02*
X019563Y009920D01*
X019563Y009861D02*
X018657Y009861D01*
X018657Y009920D02*
X018846Y009920D01*
X018762Y009978D02*
X018657Y009978D01*
X018657Y010037D02*
X018720Y010037D01*
X018695Y010095D02*
X018657Y010095D01*
X018657Y010154D02*
X018693Y010154D01*
X018698Y010212D02*
X018657Y010212D01*
X018657Y010271D02*
X018723Y010271D01*
X018733Y010329D02*
X018657Y010329D01*
X018657Y010388D02*
X018733Y010388D01*
X018733Y010446D02*
X018657Y010446D01*
X018633Y010505D02*
X018733Y010505D01*
X018733Y010563D02*
X018575Y010563D01*
X018516Y010622D02*
X018733Y010622D01*
X018733Y010680D02*
X018458Y010680D01*
X018399Y010739D02*
X018733Y010739D01*
X018687Y010797D02*
X018341Y010797D01*
X018256Y010713D02*
X018537Y010431D01*
X018537Y009806D01*
X019068Y009275D01*
X019068Y007588D01*
X018758Y007580D02*
X018751Y007580D01*
X018751Y007638D02*
X018758Y007638D01*
X018751Y007697D02*
X018758Y007697D01*
X018751Y007755D02*
X018797Y007755D01*
X018751Y007814D02*
X018856Y007814D01*
X018914Y007872D02*
X018751Y007872D01*
X018751Y007931D02*
X018948Y007931D01*
X018948Y007989D02*
X018751Y007989D01*
X018751Y008048D02*
X018948Y008048D01*
X018948Y008106D02*
X018751Y008106D01*
X018751Y008165D02*
X018948Y008165D01*
X018948Y008223D02*
X018751Y008223D01*
X018731Y008282D02*
X018948Y008282D01*
X018948Y008340D02*
X018673Y008340D01*
X018614Y008399D02*
X018948Y008399D01*
X018948Y008457D02*
X018556Y008457D01*
X018497Y008516D02*
X018948Y008516D01*
X018948Y008574D02*
X018439Y008574D01*
X018380Y008633D02*
X018948Y008633D01*
X018948Y008691D02*
X018322Y008691D01*
X018263Y008750D02*
X018948Y008750D01*
X018948Y008808D02*
X018216Y008808D01*
X018216Y008867D02*
X018948Y008867D01*
X018948Y008925D02*
X018215Y008925D01*
X018157Y008984D02*
X018948Y008984D01*
X018948Y009042D02*
X018098Y009042D01*
X017913Y009042D02*
X014354Y009042D01*
X014296Y009101D02*
X018948Y009101D01*
X018948Y009159D02*
X014237Y009159D01*
X014179Y009218D02*
X018948Y009218D01*
X018897Y009276D02*
X014991Y009276D01*
X015050Y009335D02*
X018839Y009335D01*
X018780Y009393D02*
X018108Y009393D01*
X018167Y009452D02*
X018722Y009452D01*
X018663Y009510D02*
X018216Y009510D01*
X018216Y009569D02*
X018605Y009569D01*
X018546Y009627D02*
X018216Y009627D01*
X018273Y009686D02*
X018488Y009686D01*
X018429Y009744D02*
X018332Y009744D01*
X018344Y009803D02*
X018417Y009803D01*
X018417Y009861D02*
X018344Y009861D01*
X018344Y009920D02*
X018417Y009920D01*
X018417Y009978D02*
X018344Y009978D01*
X018344Y010037D02*
X018417Y010037D01*
X018417Y010095D02*
X018293Y010095D01*
X018234Y010154D02*
X018417Y010154D01*
X018417Y010212D02*
X018176Y010212D01*
X018099Y010119D02*
X017912Y010119D01*
X017756Y009963D01*
X014881Y009963D01*
X014662Y010181D01*
X014662Y010681D01*
X015193Y011213D01*
X015193Y012275D01*
X015443Y012525D01*
X015443Y013025D01*
X015193Y013275D01*
X015051Y013430D02*
X015017Y013430D01*
X014992Y013371D02*
X014959Y013371D01*
X014938Y013313D02*
X014983Y013313D01*
X014983Y013254D02*
X014938Y013254D01*
X014938Y013196D02*
X014983Y013196D01*
X014938Y013137D02*
X015034Y013137D01*
X015093Y013079D02*
X014938Y013079D01*
X014938Y013020D02*
X015278Y013020D01*
X015323Y012962D02*
X014938Y012962D01*
X014938Y012903D02*
X015323Y012903D01*
X015323Y012845D02*
X015296Y012845D01*
X015091Y012845D02*
X014938Y012845D01*
X014938Y012786D02*
X015032Y012786D01*
X014983Y012728D02*
X014938Y012728D01*
X014938Y012669D02*
X014983Y012669D01*
X014983Y012611D02*
X014938Y012611D01*
X014938Y012552D02*
X014994Y012552D01*
X014938Y012494D02*
X015053Y012494D01*
X014996Y012435D02*
X014938Y012435D01*
X014938Y012377D02*
X014948Y012377D01*
X014938Y012318D02*
X014948Y012318D01*
X014938Y012260D02*
X014948Y012260D01*
X014938Y012201D02*
X014948Y012201D01*
X014938Y012143D02*
X014948Y012143D01*
X014938Y012084D02*
X014948Y012084D01*
X014938Y012026D02*
X014948Y012026D01*
X014938Y011967D02*
X014948Y011967D01*
X014938Y011909D02*
X014948Y011909D01*
X014938Y011850D02*
X014948Y011850D01*
X014938Y011792D02*
X014948Y011792D01*
X014938Y011733D02*
X014948Y011733D01*
X014938Y011675D02*
X014948Y011675D01*
X014938Y011616D02*
X014948Y011616D01*
X014938Y011558D02*
X014948Y011558D01*
X014938Y011499D02*
X014948Y011499D01*
X014938Y011441D02*
X014948Y011441D01*
X014938Y011382D02*
X014948Y011382D01*
X014938Y011324D02*
X014947Y011324D01*
X015068Y011275D02*
X015068Y012338D01*
X015193Y012463D01*
X015193Y012650D01*
X015563Y012669D02*
X018543Y012669D01*
X018601Y012728D02*
X015563Y012728D01*
X015563Y012786D02*
X018323Y012786D01*
X018484Y012611D02*
X015563Y012611D01*
X015568Y012463D02*
X017631Y012463D01*
X017756Y012338D01*
X017897Y012494D02*
X018367Y012494D01*
X018426Y012552D02*
X017711Y012552D01*
X017955Y012435D02*
X018309Y012435D01*
X018250Y012377D02*
X017966Y012377D01*
X017966Y012318D02*
X018192Y012318D01*
X018133Y012260D02*
X017966Y012260D01*
X017916Y012201D02*
X018075Y012201D01*
X018016Y012143D02*
X017858Y012143D01*
X017958Y012084D02*
X015438Y012084D01*
X015438Y012026D02*
X017899Y012026D01*
X017841Y011967D02*
X015438Y011967D01*
X015438Y011909D02*
X017782Y011909D01*
X017724Y011850D02*
X015438Y011850D01*
X015438Y011792D02*
X017665Y011792D01*
X017654Y012143D02*
X015438Y012143D01*
X015476Y012201D02*
X017595Y012201D01*
X017546Y012260D02*
X015535Y012260D01*
X015593Y012318D02*
X017546Y012318D01*
X017016Y012845D02*
X015563Y012845D01*
X015563Y012903D02*
X016958Y012903D01*
X016899Y012962D02*
X015563Y012962D01*
X015563Y013020D02*
X016841Y013020D01*
X016782Y013079D02*
X015559Y013079D01*
X015501Y013137D02*
X016724Y013137D01*
X016665Y013196D02*
X015442Y013196D01*
X015403Y013254D02*
X016607Y013254D01*
X016548Y013313D02*
X015403Y013313D01*
X015394Y013371D02*
X016490Y013371D01*
X016431Y013430D02*
X015336Y013430D01*
X015076Y013488D02*
X016373Y013488D01*
X017063Y013137D02*
X018321Y013137D01*
X018622Y012845D02*
X018698Y012845D01*
X018698Y012903D02*
X018653Y012903D01*
X018660Y012786D02*
X018564Y012786D01*
X018671Y010914D02*
X016317Y010914D01*
X016095Y010856D02*
X018671Y010856D01*
X018256Y010713D02*
X016068Y010713D01*
X015693Y011088D01*
X015483Y011090D02*
X015427Y011090D01*
X015438Y011148D02*
X015483Y011148D01*
X015515Y011207D02*
X015438Y011207D01*
X015438Y011265D02*
X015574Y011265D01*
X015438Y011324D02*
X015733Y011324D01*
X015753Y011382D02*
X015438Y011382D01*
X015318Y011150D02*
X015318Y012213D01*
X015568Y012463D01*
X015068Y011275D02*
X014537Y010744D01*
X014537Y009994D01*
X014787Y009744D01*
X014881Y009744D01*
X014881Y009463D01*
X015091Y009452D02*
X017845Y009452D01*
X017796Y009510D02*
X015091Y009510D01*
X015072Y009569D02*
X017796Y009569D01*
X017796Y009627D02*
X015090Y009627D01*
X015148Y009686D02*
X017807Y009686D01*
X017943Y009838D02*
X015131Y009838D01*
X015037Y009744D01*
X014881Y009744D01*
X015091Y009393D02*
X017903Y009393D01*
X018006Y009588D02*
X018224Y009806D01*
X018224Y009994D01*
X018099Y010119D01*
X018006Y009900D02*
X017943Y009838D01*
X017719Y010095D02*
X015045Y010095D01*
X015056Y010154D02*
X017777Y010154D01*
X017836Y010212D02*
X015091Y010212D01*
X015091Y010271D02*
X018417Y010271D01*
X018417Y010329D02*
X015091Y010329D01*
X015065Y010388D02*
X018411Y010388D01*
X018352Y010446D02*
X015007Y010446D01*
X015001Y010505D02*
X018294Y010505D01*
X018235Y010563D02*
X015001Y010563D01*
X015001Y010622D02*
X015989Y010622D01*
X015931Y010680D02*
X015018Y010680D01*
X015076Y010739D02*
X015872Y010739D01*
X015814Y010797D02*
X015135Y010797D01*
X015193Y010856D02*
X015755Y010856D01*
X015570Y010914D02*
X015252Y010914D01*
X015310Y010973D02*
X015511Y010973D01*
X015483Y011031D02*
X015369Y011031D01*
X015318Y011150D02*
X014881Y010713D01*
X014881Y010275D01*
X014712Y009335D02*
X014062Y009335D01*
X014120Y009276D02*
X014770Y009276D01*
X014471Y008925D02*
X017796Y008925D01*
X017796Y008867D02*
X014530Y008867D01*
X014413Y008984D02*
X017855Y008984D01*
X017796Y008808D02*
X017651Y008808D01*
X017709Y008750D02*
X017797Y008750D01*
X017768Y008691D02*
X017855Y008691D01*
X017826Y008633D02*
X017914Y008633D01*
X017885Y008574D02*
X018099Y008574D01*
X018158Y008516D02*
X017943Y008516D01*
X018002Y008457D02*
X018216Y008457D01*
X018275Y008399D02*
X018060Y008399D01*
X018119Y008340D02*
X018333Y008340D01*
X018392Y008282D02*
X018177Y008282D01*
X018236Y008223D02*
X018450Y008223D01*
X018509Y008165D02*
X018294Y008165D01*
X018353Y008106D02*
X018511Y008106D01*
X018511Y008048D02*
X018411Y008048D01*
X018470Y007989D02*
X018511Y007989D01*
X018511Y007931D02*
X018488Y007931D01*
X018488Y007872D02*
X018511Y007872D01*
X018631Y008213D02*
X018006Y008838D01*
X017579Y008399D02*
X015466Y008399D01*
X015466Y008340D02*
X017638Y008340D01*
X017696Y008282D02*
X015466Y008282D01*
X015438Y008223D02*
X015659Y008223D01*
X015601Y008165D02*
X015380Y008165D01*
X015568Y007963D02*
X015756Y008150D01*
X016006Y008150D01*
X016131Y008025D01*
X016131Y007713D01*
X016318Y007525D01*
X016506Y007525D01*
X017256Y006775D01*
X017256Y006088D01*
X018006Y005338D01*
X018631Y005338D01*
X018881Y005588D01*
X019224Y005588D01*
X019412Y005775D01*
X019412Y006681D01*
X019068Y007025D01*
X019068Y007038D01*
X018758Y007053D02*
X018751Y007053D01*
X018751Y006995D02*
X018758Y006995D01*
X018751Y006936D02*
X018758Y006936D01*
X018751Y006878D02*
X018790Y006878D01*
X018751Y006819D02*
X018848Y006819D01*
X018903Y006761D02*
X018751Y006761D01*
X018751Y006702D02*
X018844Y006702D01*
X018786Y006644D02*
X018751Y006644D01*
X018751Y006585D02*
X018758Y006585D01*
X018751Y006527D02*
X018758Y006527D01*
X018751Y006468D02*
X018758Y006468D01*
X018751Y006410D02*
X018758Y006410D01*
X018751Y006351D02*
X018766Y006351D01*
X018631Y006275D02*
X018631Y008213D01*
X018106Y007872D02*
X016903Y007872D01*
X016903Y007931D02*
X018047Y007931D01*
X017989Y007989D02*
X016901Y007989D01*
X016843Y008048D02*
X017930Y008048D01*
X017872Y008106D02*
X016784Y008106D01*
X016602Y008106D02*
X016472Y008106D01*
X016530Y008048D02*
X016544Y008048D01*
X016693Y007900D02*
X017506Y007088D01*
X017506Y006213D01*
X018131Y005588D01*
X018506Y005588D01*
X018693Y005775D01*
X018693Y006088D01*
X019031Y006425D01*
X019068Y006488D01*
X018631Y006275D02*
X018318Y005963D01*
X018318Y005938D01*
X018008Y005942D02*
X017946Y005942D01*
X017888Y006000D02*
X018008Y006000D01*
X018008Y006059D02*
X017829Y006059D01*
X017771Y006117D02*
X018059Y006117D01*
X018118Y006176D02*
X017712Y006176D01*
X017654Y006234D02*
X018133Y006234D01*
X018075Y006293D02*
X017626Y006293D01*
X017626Y006351D02*
X018016Y006351D01*
X018008Y006410D02*
X017626Y006410D01*
X017626Y006468D02*
X018288Y006468D01*
X018008Y006527D02*
X017626Y006527D01*
X017626Y006585D02*
X018008Y006585D01*
X018036Y006644D02*
X017626Y006644D01*
X017626Y006702D02*
X018094Y006702D01*
X018153Y006761D02*
X017626Y006761D01*
X017626Y006819D02*
X018098Y006819D01*
X018040Y006878D02*
X017626Y006878D01*
X017626Y006936D02*
X018008Y006936D01*
X018008Y006995D02*
X017626Y006995D01*
X017626Y007053D02*
X018008Y007053D01*
X018008Y007112D02*
X017626Y007112D01*
X017593Y007170D02*
X018012Y007170D01*
X018071Y007229D02*
X017534Y007229D01*
X017476Y007287D02*
X018129Y007287D01*
X018122Y007346D02*
X017417Y007346D01*
X017359Y007404D02*
X018063Y007404D01*
X018008Y007463D02*
X017300Y007463D01*
X017242Y007521D02*
X018008Y007521D01*
X018008Y007580D02*
X017183Y007580D01*
X017125Y007638D02*
X018008Y007638D01*
X018008Y007697D02*
X017066Y007697D01*
X017008Y007755D02*
X018047Y007755D01*
X018106Y007814D02*
X016949Y007814D01*
X016381Y007900D02*
X017381Y006900D01*
X017381Y006150D01*
X018068Y005463D01*
X018568Y005463D01*
X018943Y005838D01*
X019031Y005838D01*
X019068Y005938D01*
X019397Y005591D02*
X019563Y005591D01*
X019563Y005649D02*
X019456Y005649D01*
X019514Y005708D02*
X019563Y005708D01*
X019563Y005766D02*
X019532Y005766D01*
X019532Y005825D02*
X019563Y005825D01*
X019563Y005883D02*
X019532Y005883D01*
X019532Y005942D02*
X019563Y005942D01*
X019563Y006000D02*
X019532Y006000D01*
X019532Y006059D02*
X019563Y006059D01*
X019563Y006117D02*
X019532Y006117D01*
X019532Y006176D02*
X019563Y006176D01*
X019563Y006234D02*
X019532Y006234D01*
X019532Y006293D02*
X019563Y006293D01*
X019563Y006351D02*
X019532Y006351D01*
X019532Y006410D02*
X019563Y006410D01*
X019563Y006468D02*
X019532Y006468D01*
X019532Y006527D02*
X019563Y006527D01*
X019563Y006585D02*
X019532Y006585D01*
X019532Y006644D02*
X019563Y006644D01*
X019563Y006702D02*
X019532Y006702D01*
X019502Y006761D02*
X019563Y006761D01*
X019563Y006819D02*
X019444Y006819D01*
X019385Y006878D02*
X019563Y006878D01*
X019563Y006936D02*
X019378Y006936D01*
X019378Y006995D02*
X019563Y006995D01*
X019563Y007053D02*
X019378Y007053D01*
X019378Y007112D02*
X019563Y007112D01*
X019563Y007170D02*
X019374Y007170D01*
X019316Y007229D02*
X019563Y007229D01*
X019563Y007287D02*
X019257Y007287D01*
X019265Y007346D02*
X019563Y007346D01*
X019563Y007404D02*
X019323Y007404D01*
X019378Y007463D02*
X019563Y007463D01*
X019563Y007521D02*
X019378Y007521D01*
X019378Y007580D02*
X019563Y007580D01*
X019563Y007638D02*
X019378Y007638D01*
X019378Y007697D02*
X019563Y007697D01*
X019563Y007755D02*
X019339Y007755D01*
X019281Y007814D02*
X019563Y007814D01*
X019563Y007872D02*
X019222Y007872D01*
X019188Y007931D02*
X019563Y007931D01*
X019563Y007989D02*
X019188Y007989D01*
X019188Y008048D02*
X019563Y008048D01*
X019563Y008106D02*
X019188Y008106D01*
X019188Y008165D02*
X019563Y008165D01*
X019563Y008223D02*
X019188Y008223D01*
X019188Y008282D02*
X019563Y008282D01*
X019563Y008340D02*
X019188Y008340D01*
X019188Y008399D02*
X019563Y008399D01*
X019563Y008457D02*
X019188Y008457D01*
X019188Y008516D02*
X019563Y008516D01*
X019563Y008574D02*
X019188Y008574D01*
X019188Y008633D02*
X019563Y008633D01*
X019563Y008691D02*
X019188Y008691D01*
X019188Y008750D02*
X019563Y008750D01*
X019563Y008808D02*
X019188Y008808D01*
X019188Y008867D02*
X019563Y008867D01*
X019563Y008925D02*
X019188Y008925D01*
X019188Y008984D02*
X019563Y008984D01*
X019563Y009042D02*
X019188Y009042D01*
X019188Y009101D02*
X019563Y009101D01*
X019563Y009159D02*
X019188Y009159D01*
X019188Y009218D02*
X019563Y009218D01*
X019563Y009276D02*
X019188Y009276D01*
X019178Y009335D02*
X019563Y009335D01*
X019563Y009393D02*
X019120Y009393D01*
X019061Y009452D02*
X019563Y009452D01*
X019563Y009510D02*
X019003Y009510D01*
X018944Y009569D02*
X019563Y009569D01*
X019563Y009627D02*
X018886Y009627D01*
X018827Y009686D02*
X019563Y009686D01*
X019563Y009744D02*
X018769Y009744D01*
X018710Y009803D02*
X019563Y009803D01*
X017813Y008165D02*
X016161Y008165D01*
X016102Y008223D02*
X017755Y008223D01*
X017521Y008457D02*
X015433Y008457D01*
X015568Y007963D02*
X015568Y007900D01*
X015720Y007755D02*
X015729Y007755D01*
X015761Y007697D02*
X015662Y007697D01*
X015881Y007900D02*
X015881Y007275D01*
X016506Y006650D01*
X016716Y006644D02*
X017136Y006644D01*
X017136Y006702D02*
X016716Y006702D01*
X016692Y006761D02*
X017100Y006761D01*
X017042Y006819D02*
X016634Y006819D01*
X016448Y006878D02*
X016983Y006878D01*
X016925Y006936D02*
X016389Y006936D01*
X016331Y006995D02*
X016866Y006995D01*
X016808Y007053D02*
X016272Y007053D01*
X016214Y007112D02*
X016749Y007112D01*
X016691Y007170D02*
X016155Y007170D01*
X016097Y007229D02*
X016632Y007229D01*
X016574Y007287D02*
X016038Y007287D01*
X016001Y007346D02*
X016515Y007346D01*
X016457Y007404D02*
X016001Y007404D01*
X016001Y007463D02*
X016211Y007463D01*
X016152Y007521D02*
X016001Y007521D01*
X016001Y007580D02*
X016094Y007580D01*
X016035Y007638D02*
X016001Y007638D01*
X016001Y007697D02*
X016011Y007697D01*
X016219Y008106D02*
X016290Y008106D01*
X016284Y006702D02*
X013603Y006702D01*
X013704Y006644D02*
X016296Y006644D01*
X016296Y006585D02*
X013780Y006585D01*
X013826Y006545D02*
X013895Y006468D01*
X013935Y006410D02*
X017136Y006410D01*
X017136Y006468D02*
X016621Y006468D01*
X016679Y006527D02*
X017136Y006527D01*
X017136Y006585D02*
X016716Y006585D01*
X017136Y006351D02*
X013974Y006351D01*
X014000Y006293D02*
X017136Y006293D01*
X017136Y006234D02*
X014026Y006234D01*
X014042Y006176D02*
X017136Y006176D01*
X017173Y006000D02*
X014071Y006000D01*
X014073Y005942D02*
X017232Y005942D01*
X017290Y005883D02*
X014073Y005883D01*
X014073Y005825D02*
X017349Y005825D01*
X017407Y005766D02*
X014073Y005766D01*
X014073Y005708D02*
X017466Y005708D01*
X017524Y005649D02*
X014073Y005649D01*
X014073Y005591D02*
X017583Y005591D01*
X017641Y005532D02*
X014073Y005532D01*
X014073Y005474D02*
X017700Y005474D01*
X017758Y005415D02*
X014073Y005415D01*
X014073Y005357D02*
X017817Y005357D01*
X017875Y005298D02*
X014073Y005298D01*
X013648Y006878D02*
X013431Y006878D01*
X013703Y006993D02*
X013963Y006993D01*
X010344Y006995D02*
X010128Y006995D01*
X010128Y007053D02*
X010344Y007053D01*
X010344Y007112D02*
X010128Y007112D01*
X010128Y007166D02*
X009982Y007312D01*
X010128Y007459D01*
X010128Y007716D01*
X009947Y007897D01*
X009938Y007897D01*
X009938Y009325D01*
X009407Y009856D01*
X009407Y010481D01*
X009055Y010832D01*
X008956Y010832D01*
X006868Y010832D01*
X006653Y011047D01*
X006653Y011065D01*
X006733Y011065D01*
X006733Y011001D01*
X006856Y010878D01*
X007030Y010878D01*
X007070Y010918D01*
X009421Y010918D01*
X009421Y010813D01*
X009483Y010751D01*
X009483Y010294D01*
X009481Y010292D01*
X009443Y010200D01*
X009443Y010100D01*
X009481Y010008D01*
X009552Y009938D01*
X009643Y009900D01*
X009743Y009900D01*
X009835Y009938D01*
X009905Y010008D01*
X009943Y010100D01*
X009943Y010200D01*
X009905Y010292D01*
X009903Y010294D01*
X009903Y010924D01*
X009841Y010987D01*
X009841Y011706D01*
X009856Y011690D01*
X010030Y011690D01*
X010153Y011813D01*
X010153Y011987D01*
X010030Y012110D01*
X009856Y012110D01*
X009841Y012094D01*
X009841Y012188D01*
X010153Y012501D01*
X010153Y013487D01*
X009468Y014172D01*
X009403Y014172D01*
X009403Y014299D01*
X009280Y014422D01*
X009106Y014422D01*
X009006Y014322D01*
X008905Y014422D01*
X007262Y014422D01*
X007075Y014235D01*
X005481Y014235D01*
X005106Y013860D01*
X004983Y013737D01*
X004983Y013297D01*
X004856Y013297D01*
X004733Y013174D01*
X004733Y013001D01*
X004856Y012878D01*
X004983Y012878D01*
X004983Y011590D01*
X004840Y011446D01*
X004729Y011446D01*
X004647Y011364D01*
X004260Y010977D01*
X004178Y010895D01*
X004178Y010655D01*
X004260Y010573D01*
X004304Y010528D01*
X004304Y009361D01*
X004404Y009261D01*
X005086Y008580D01*
X005086Y008580D01*
X005185Y008480D01*
X005851Y008480D01*
X005796Y008424D01*
X005796Y008251D01*
X005919Y008128D01*
X006093Y008128D01*
X006216Y008251D01*
X006216Y008424D01*
X006160Y008480D01*
X008248Y008480D01*
X008885Y007843D01*
X008758Y007716D01*
X008758Y007459D01*
X008905Y007312D01*
X008758Y007166D01*
X008758Y006909D01*
X008905Y006762D01*
X008758Y006616D01*
X008758Y006517D01*
X009038Y006517D01*
X009038Y006458D01*
X008758Y006458D01*
X008758Y006359D01*
X008905Y006213D01*
X008758Y006066D01*
X008758Y005880D01*
X008376Y006262D01*
X008376Y007137D01*
X007653Y007860D01*
X007653Y007987D01*
X007530Y008110D01*
X007356Y008110D01*
X007287Y008041D01*
X007218Y008110D01*
X007044Y008110D01*
X007001Y008067D01*
X007001Y008075D01*
X006876Y008200D01*
X006805Y008270D01*
X006456Y008270D01*
X006296Y008110D01*
X006231Y008110D01*
X006108Y007987D01*
X006108Y007813D01*
X006231Y007690D01*
X006405Y007690D01*
X006474Y007759D01*
X006511Y007723D01*
X006511Y007225D01*
X007046Y006690D01*
X007046Y006563D01*
X007169Y006440D01*
X007343Y006440D01*
X007466Y006563D01*
X007466Y006737D01*
X007343Y006860D01*
X007215Y006860D01*
X006751Y007325D01*
X006751Y007723D01*
X006761Y007733D01*
X006761Y007663D01*
X006831Y007593D01*
X007018Y007405D01*
X007206Y007405D01*
X007886Y006725D01*
X007886Y006038D01*
X007956Y005968D01*
X008643Y005280D01*
X004823Y005280D01*
X004823Y005966D01*
X004824Y005968D01*
X004823Y005979D01*
X004823Y005991D01*
X004822Y005992D01*
X004811Y006094D01*
X004813Y006096D01*
X004810Y006107D01*
X004809Y006117D01*
X007886Y006117D01*
X007886Y006059D02*
X004815Y006059D01*
X004809Y006117D02*
X004807Y006119D01*
X004780Y006219D01*
X004781Y006222D01*
X004777Y006232D01*
X004774Y006242D01*
X004771Y006243D01*
X004729Y006338D01*
X004730Y006341D01*
X004724Y006350D01*
X004720Y006359D01*
X004717Y006360D01*
X004661Y006447D01*
X004661Y006450D01*
X004654Y006458D01*
X004648Y006467D01*
X004645Y006468D01*
X007141Y006468D01*
X007082Y006527D02*
X004593Y006527D01*
X004576Y006545D02*
X004576Y006547D01*
X004568Y006554D01*
X004560Y006562D01*
X004558Y006562D01*
X004477Y006627D01*
X004477Y006630D01*
X004467Y006636D01*
X004459Y006642D01*
X004456Y006642D01*
X004367Y006694D01*
X004366Y006696D01*
X004356Y006700D01*
X004346Y006706D01*
X004344Y006705D01*
X004247Y006742D01*
X004246Y006745D01*
X004235Y006747D01*
X004225Y006751D01*
X004222Y006749D01*
X004121Y006771D01*
X004119Y006773D01*
X004109Y006774D01*
X004098Y006776D01*
X004096Y006774D01*
X003995Y006780D01*
X003994Y006781D01*
X003981Y006781D01*
X003969Y006781D01*
X003968Y006781D01*
X003323Y006781D01*
X003323Y013113D01*
X004016Y013113D01*
X004017Y013112D01*
X004029Y013113D01*
X004040Y013113D01*
X004042Y013114D01*
X004144Y013125D01*
X004146Y013124D01*
X004156Y013126D01*
X004167Y013127D01*
X004169Y013130D01*
X004269Y013156D01*
X004271Y013155D01*
X004281Y013160D01*
X004292Y013162D01*
X004293Y013165D01*
X004387Y013207D01*
X004390Y013206D01*
X004399Y013212D01*
X004409Y013216D01*
X004410Y013219D01*
X004497Y013275D01*
X004500Y013275D01*
X004508Y013282D01*
X004517Y013288D01*
X004517Y013291D01*
X004594Y013360D01*
X004597Y013360D01*
X004604Y013369D01*
X004612Y013376D01*
X004612Y013379D01*
X004677Y013459D01*
X004680Y013460D01*
X004685Y013469D01*
X004692Y013477D01*
X004692Y013480D01*
X004743Y013569D01*
X004746Y013571D01*
X004750Y013581D01*
X004755Y013590D01*
X004755Y013593D01*
X004792Y013689D01*
X004794Y013691D01*
X004796Y013701D01*
X004800Y013711D01*
X004799Y013714D01*
X004821Y013815D01*
X004823Y013817D01*
X004823Y013827D01*
X004826Y013838D01*
X004824Y013840D01*
X004830Y013942D01*
X004830Y013955D01*
X004831Y013967D01*
X004830Y013968D01*
X004830Y014607D01*
X010079Y014607D01*
X010131Y014601D01*
X010227Y014561D01*
X010300Y014487D01*
X010339Y014391D01*
X010344Y014345D01*
X010344Y014343D01*
X010344Y005609D01*
X010344Y005608D01*
X010344Y005583D01*
X010344Y005549D01*
X010341Y005513D01*
X010340Y005501D01*
X010301Y005403D01*
X010228Y005328D01*
X010131Y005286D01*
X010078Y005280D01*
X009493Y005280D01*
X009501Y005288D01*
X009680Y005468D01*
X010024Y005468D01*
X010094Y005538D01*
X010282Y005725D01*
X010282Y006731D01*
X010212Y006801D01*
X010116Y006897D01*
X010128Y006909D01*
X010128Y007166D01*
X010124Y007170D02*
X010344Y007170D01*
X010344Y007229D02*
X010066Y007229D01*
X010007Y007287D02*
X010344Y007287D01*
X010344Y007346D02*
X010015Y007346D01*
X010073Y007404D02*
X010344Y007404D01*
X010344Y007463D02*
X010128Y007463D01*
X010128Y007521D02*
X010344Y007521D01*
X010344Y007580D02*
X010128Y007580D01*
X010128Y007638D02*
X010344Y007638D01*
X010344Y007697D02*
X010128Y007697D01*
X010089Y007755D02*
X010344Y007755D01*
X010344Y007814D02*
X010031Y007814D01*
X009972Y007872D02*
X010344Y007872D01*
X010344Y007931D02*
X009938Y007931D01*
X009938Y007989D02*
X010344Y007989D01*
X010344Y008048D02*
X009938Y008048D01*
X009938Y008106D02*
X010344Y008106D01*
X010344Y008165D02*
X009938Y008165D01*
X009938Y008223D02*
X010344Y008223D01*
X010344Y008282D02*
X009938Y008282D01*
X009938Y008340D02*
X010344Y008340D01*
X010344Y008399D02*
X009938Y008399D01*
X009938Y008457D02*
X010344Y008457D01*
X010344Y008516D02*
X009938Y008516D01*
X009938Y008574D02*
X010344Y008574D01*
X010344Y008633D02*
X009938Y008633D01*
X009938Y008691D02*
X010344Y008691D01*
X010344Y008750D02*
X009938Y008750D01*
X009938Y008808D02*
X010344Y008808D01*
X010344Y008867D02*
X009938Y008867D01*
X009938Y008925D02*
X010344Y008925D01*
X010344Y008984D02*
X009938Y008984D01*
X009938Y009042D02*
X010344Y009042D01*
X010344Y009101D02*
X009938Y009101D01*
X009938Y009159D02*
X010344Y009159D01*
X010344Y009218D02*
X009938Y009218D01*
X009938Y009276D02*
X010344Y009276D01*
X010344Y009335D02*
X009928Y009335D01*
X009870Y009393D02*
X010344Y009393D01*
X010344Y009452D02*
X009811Y009452D01*
X009753Y009510D02*
X010344Y009510D01*
X010344Y009569D02*
X009694Y009569D01*
X009636Y009627D02*
X010344Y009627D01*
X010344Y009686D02*
X009577Y009686D01*
X009519Y009744D02*
X010344Y009744D01*
X010344Y009803D02*
X009460Y009803D01*
X009407Y009861D02*
X010344Y009861D01*
X010344Y009920D02*
X009790Y009920D01*
X009875Y009978D02*
X010344Y009978D01*
X010344Y010037D02*
X009917Y010037D01*
X009941Y010095D02*
X010344Y010095D01*
X010344Y010154D02*
X009943Y010154D01*
X009938Y010212D02*
X010344Y010212D01*
X010344Y010271D02*
X009914Y010271D01*
X009903Y010329D02*
X010344Y010329D01*
X010344Y010388D02*
X009903Y010388D01*
X009903Y010446D02*
X010344Y010446D01*
X010344Y010505D02*
X009903Y010505D01*
X009903Y010563D02*
X010344Y010563D01*
X010344Y010622D02*
X009903Y010622D01*
X009903Y010680D02*
X010344Y010680D01*
X010344Y010739D02*
X009903Y010739D01*
X009903Y010797D02*
X010344Y010797D01*
X010344Y010856D02*
X009903Y010856D01*
X009903Y010914D02*
X010344Y010914D01*
X010344Y010973D02*
X009855Y010973D01*
X009841Y011031D02*
X010344Y011031D01*
X010344Y011090D02*
X009841Y011090D01*
X009841Y011148D02*
X010344Y011148D01*
X010344Y011207D02*
X009841Y011207D01*
X009841Y011265D02*
X010344Y011265D01*
X010344Y011324D02*
X009841Y011324D01*
X009841Y011382D02*
X010344Y011382D01*
X010344Y011441D02*
X009841Y011441D01*
X009841Y011499D02*
X010344Y011499D01*
X010344Y011558D02*
X009841Y011558D01*
X009841Y011616D02*
X010344Y011616D01*
X010344Y011675D02*
X009841Y011675D01*
X010073Y011733D02*
X010344Y011733D01*
X010344Y011792D02*
X010132Y011792D01*
X010153Y011850D02*
X010344Y011850D01*
X010344Y011909D02*
X010153Y011909D01*
X010153Y011967D02*
X010344Y011967D01*
X010344Y012026D02*
X010115Y012026D01*
X010056Y012084D02*
X010344Y012084D01*
X010344Y012143D02*
X009841Y012143D01*
X009854Y012201D02*
X010344Y012201D01*
X010344Y012260D02*
X009912Y012260D01*
X009971Y012318D02*
X010344Y012318D01*
X010344Y012377D02*
X010029Y012377D01*
X010088Y012435D02*
X010344Y012435D01*
X010344Y012494D02*
X010146Y012494D01*
X010153Y012552D02*
X010344Y012552D01*
X010344Y012611D02*
X010153Y012611D01*
X010153Y012669D02*
X010344Y012669D01*
X010344Y012728D02*
X010153Y012728D01*
X010153Y012786D02*
X010344Y012786D01*
X010344Y012845D02*
X010153Y012845D01*
X010153Y012903D02*
X010344Y012903D01*
X010344Y012962D02*
X010153Y012962D01*
X010153Y013020D02*
X010344Y013020D01*
X010344Y013079D02*
X010153Y013079D01*
X010153Y013137D02*
X010344Y013137D01*
X010344Y013196D02*
X010153Y013196D01*
X010153Y013254D02*
X010344Y013254D01*
X010344Y013313D02*
X010153Y013313D01*
X010153Y013371D02*
X010344Y013371D01*
X010344Y013430D02*
X010153Y013430D01*
X010152Y013488D02*
X010344Y013488D01*
X010344Y013547D02*
X010094Y013547D01*
X010035Y013605D02*
X010344Y013605D01*
X010344Y013664D02*
X009977Y013664D01*
X009918Y013722D02*
X010344Y013722D01*
X010344Y013781D02*
X009860Y013781D01*
X009801Y013839D02*
X010344Y013839D01*
X010344Y013898D02*
X009743Y013898D01*
X009684Y013956D02*
X010344Y013956D01*
X010344Y014015D02*
X009626Y014015D01*
X009567Y014073D02*
X010344Y014073D01*
X010344Y014132D02*
X009509Y014132D01*
X009403Y014190D02*
X010344Y014190D01*
X010344Y014249D02*
X009403Y014249D01*
X009396Y014307D02*
X010344Y014307D01*
X010342Y014366D02*
X009337Y014366D01*
X009049Y014366D02*
X008962Y014366D01*
X008841Y013893D02*
X008981Y013753D01*
X009294Y013753D01*
X009733Y013313D01*
X009733Y012674D01*
X009544Y012485D01*
X009421Y012362D01*
X009421Y011257D01*
X007070Y011257D01*
X007030Y011297D01*
X006903Y011297D01*
X006903Y011315D01*
X007118Y011530D01*
X008493Y011530D01*
X008563Y011600D01*
X009688Y012725D01*
X009688Y013200D01*
X009618Y013270D01*
X009430Y013457D01*
X009243Y013457D01*
X008841Y013860D01*
X008841Y013893D01*
X008861Y013839D02*
X008895Y013839D01*
X008920Y013781D02*
X008953Y013781D01*
X008978Y013722D02*
X009324Y013722D01*
X009383Y013664D02*
X009037Y013664D01*
X009095Y013605D02*
X009441Y013605D01*
X009500Y013547D02*
X009154Y013547D01*
X009212Y013488D02*
X009558Y013488D01*
X009617Y013430D02*
X009458Y013430D01*
X009517Y013371D02*
X009675Y013371D01*
X009733Y013313D02*
X009575Y013313D01*
X009634Y013254D02*
X009733Y013254D01*
X009733Y013196D02*
X009688Y013196D01*
X009688Y013137D02*
X009733Y013137D01*
X009733Y013079D02*
X009688Y013079D01*
X009688Y013020D02*
X009733Y013020D01*
X009733Y012962D02*
X009688Y012962D01*
X009688Y012903D02*
X009733Y012903D01*
X009733Y012845D02*
X009688Y012845D01*
X009688Y012786D02*
X009733Y012786D01*
X009733Y012728D02*
X009688Y012728D01*
X009728Y012669D02*
X009632Y012669D01*
X009669Y012611D02*
X009573Y012611D01*
X009611Y012552D02*
X009515Y012552D01*
X009552Y012494D02*
X009456Y012494D01*
X009494Y012435D02*
X009398Y012435D01*
X009435Y012377D02*
X009339Y012377D01*
X009281Y012318D02*
X009421Y012318D01*
X009421Y012260D02*
X009222Y012260D01*
X009164Y012201D02*
X009421Y012201D01*
X009421Y012143D02*
X009105Y012143D01*
X009047Y012084D02*
X009421Y012084D01*
X009421Y012026D02*
X008988Y012026D01*
X008930Y011967D02*
X009421Y011967D01*
X009421Y011909D02*
X008871Y011909D01*
X008813Y011850D02*
X009421Y011850D01*
X009421Y011792D02*
X008754Y011792D01*
X008696Y011733D02*
X009421Y011733D01*
X009421Y011675D02*
X008637Y011675D01*
X008579Y011616D02*
X009421Y011616D01*
X009421Y011558D02*
X008520Y011558D01*
X008443Y011650D02*
X007068Y011650D01*
X006693Y011275D01*
X006483Y011297D02*
X006356Y011297D01*
X006233Y011174D01*
X006233Y011001D01*
X006356Y010878D01*
X006483Y010878D01*
X006768Y010593D01*
X008956Y010593D01*
X009167Y010382D01*
X009167Y009757D01*
X009237Y009686D01*
X009698Y009225D01*
X009698Y007897D01*
X009690Y007897D01*
X009508Y007716D01*
X009508Y007459D01*
X009655Y007312D01*
X009508Y007166D01*
X009508Y006909D01*
X009655Y006762D01*
X009508Y006616D01*
X009508Y006359D01*
X009527Y006341D01*
X009501Y006315D01*
X009501Y008262D01*
X008966Y008797D01*
X008966Y008924D01*
X008843Y009047D01*
X008669Y009047D01*
X008546Y008924D01*
X008546Y008751D01*
X008669Y008628D01*
X008796Y008628D01*
X009261Y008163D01*
X009261Y007833D01*
X009238Y007856D01*
X009238Y007970D01*
X008488Y008720D01*
X008389Y008820D01*
X005326Y008820D01*
X004644Y009502D01*
X004644Y010528D01*
X004646Y010530D01*
X005064Y010948D01*
X005146Y011030D01*
X005146Y011158D01*
X005403Y011416D01*
X005403Y013563D01*
X005655Y013815D01*
X007249Y013815D01*
X007372Y013938D01*
X007436Y014003D01*
X008436Y014003D01*
X008421Y013987D01*
X008421Y013813D01*
X008544Y013690D01*
X008671Y013690D01*
X009073Y013288D01*
X009143Y013218D01*
X009331Y013218D01*
X009448Y013100D01*
X009448Y012825D01*
X008393Y011770D01*
X007018Y011770D01*
X006733Y011485D01*
X006606Y011485D01*
X006483Y011362D01*
X006483Y011297D01*
X006483Y011324D02*
X006188Y011324D01*
X006188Y011382D02*
X006503Y011382D01*
X006562Y011441D02*
X006188Y011441D01*
X006188Y011499D02*
X006748Y011499D01*
X006806Y011558D02*
X006188Y011558D01*
X006188Y011616D02*
X006865Y011616D01*
X006923Y011675D02*
X006188Y011675D01*
X006188Y011733D02*
X006982Y011733D01*
X007087Y011499D02*
X009421Y011499D01*
X009421Y011441D02*
X007028Y011441D01*
X006970Y011382D02*
X009421Y011382D01*
X009421Y011324D02*
X006911Y011324D01*
X007063Y011265D02*
X009421Y011265D01*
X009421Y010914D02*
X007067Y010914D01*
X006845Y010856D02*
X009421Y010856D01*
X009437Y010797D02*
X009091Y010797D01*
X009149Y010739D02*
X009483Y010739D01*
X009483Y010680D02*
X009208Y010680D01*
X009266Y010622D02*
X009483Y010622D01*
X009483Y010563D02*
X009325Y010563D01*
X009383Y010505D02*
X009483Y010505D01*
X009483Y010446D02*
X009407Y010446D01*
X009407Y010388D02*
X009483Y010388D01*
X009483Y010329D02*
X009407Y010329D01*
X009407Y010271D02*
X009473Y010271D01*
X009448Y010212D02*
X009407Y010212D01*
X009407Y010154D02*
X009443Y010154D01*
X009445Y010095D02*
X009407Y010095D01*
X009407Y010037D02*
X009470Y010037D01*
X009512Y009978D02*
X009407Y009978D01*
X009407Y009920D02*
X009596Y009920D01*
X009287Y009806D02*
X009287Y010431D01*
X009006Y010713D01*
X006818Y010713D01*
X006443Y011088D01*
X006233Y011090D02*
X006177Y011090D01*
X006188Y011100D02*
X006188Y012163D01*
X006368Y012343D01*
X008296Y012343D01*
X008296Y012251D01*
X008419Y012128D01*
X008593Y012128D01*
X008716Y012251D01*
X008716Y012424D01*
X008593Y012547D01*
X008465Y012547D01*
X008430Y012582D01*
X006313Y012582D01*
X006313Y013075D01*
X006153Y013235D01*
X006153Y013362D01*
X006030Y013485D01*
X005856Y013485D01*
X005733Y013362D01*
X005733Y013188D01*
X005856Y013065D01*
X005983Y013065D01*
X006073Y012975D01*
X006073Y012817D01*
X006030Y012860D01*
X005856Y012860D01*
X005733Y012737D01*
X005733Y012563D01*
X005804Y012493D01*
X005768Y012457D01*
X005698Y012387D01*
X005698Y011325D01*
X005688Y011315D01*
X005688Y013350D01*
X005868Y013530D01*
X007081Y013530D01*
X007698Y012913D01*
X007768Y012843D01*
X009016Y012843D01*
X009106Y012753D01*
X009280Y012753D01*
X009403Y012876D01*
X009403Y013049D01*
X009280Y013172D01*
X009106Y013172D01*
X009016Y013082D01*
X007868Y013082D01*
X007180Y013770D01*
X005768Y013770D01*
X005698Y013700D01*
X005518Y013520D01*
X005448Y013450D01*
X005448Y011262D01*
X005112Y010926D01*
X005042Y010856D01*
X005042Y009725D01*
X005112Y009655D01*
X005112Y009655D01*
X005139Y009628D01*
X005139Y009501D01*
X005262Y009378D01*
X005421Y009378D01*
X005421Y009376D01*
X005544Y009253D01*
X005718Y009253D01*
X005841Y009376D01*
X005841Y009549D01*
X005766Y009624D01*
X005837Y009624D01*
X005907Y009694D01*
X005930Y009718D01*
X008589Y009718D01*
X008546Y009674D01*
X008546Y009501D01*
X008669Y009378D01*
X008843Y009378D01*
X008966Y009501D01*
X008966Y009628D01*
X009024Y009686D01*
X009094Y009757D01*
X009094Y010043D01*
X008969Y010168D01*
X008899Y010239D01*
X008612Y010239D01*
X008456Y010082D01*
X005808Y010082D01*
X005771Y010119D01*
X005841Y010188D01*
X005841Y010362D01*
X005751Y010452D01*
X005751Y010663D01*
X006118Y011030D01*
X006188Y011100D01*
X006188Y011148D02*
X006233Y011148D01*
X006265Y011207D02*
X006188Y011207D01*
X006188Y011265D02*
X006324Y011265D01*
X006233Y011031D02*
X006119Y011031D01*
X006060Y010973D02*
X006261Y010973D01*
X006320Y010914D02*
X006002Y010914D01*
X005943Y010856D02*
X006505Y010856D01*
X006564Y010797D02*
X005885Y010797D01*
X005826Y010739D02*
X006622Y010739D01*
X006681Y010680D02*
X005768Y010680D01*
X005751Y010622D02*
X006739Y010622D01*
X006786Y010914D02*
X006820Y010914D01*
X006761Y010973D02*
X006728Y010973D01*
X006733Y011031D02*
X006669Y011031D01*
X006068Y011150D02*
X006068Y012213D01*
X006318Y012463D01*
X008381Y012463D01*
X008506Y012338D01*
X008647Y012494D02*
X009117Y012494D01*
X009176Y012552D02*
X008461Y012552D01*
X008705Y012435D02*
X009059Y012435D01*
X009000Y012377D02*
X008716Y012377D01*
X008716Y012318D02*
X008942Y012318D01*
X008883Y012260D02*
X008716Y012260D01*
X008666Y012201D02*
X008825Y012201D01*
X008766Y012143D02*
X008608Y012143D01*
X008708Y012084D02*
X006188Y012084D01*
X006188Y012026D02*
X008649Y012026D01*
X008591Y011967D02*
X006188Y011967D01*
X006188Y011909D02*
X008532Y011909D01*
X008474Y011850D02*
X006188Y011850D01*
X006188Y011792D02*
X008415Y011792D01*
X008443Y011650D02*
X009568Y012775D01*
X009568Y013150D01*
X009381Y013338D01*
X009193Y013338D01*
X008631Y013900D01*
X008421Y013898D02*
X007331Y013898D01*
X007273Y013839D02*
X008421Y013839D01*
X008453Y013781D02*
X005621Y013781D01*
X005562Y013722D02*
X005721Y013722D01*
X005662Y013664D02*
X005504Y013664D01*
X005445Y013605D02*
X005604Y013605D01*
X005545Y013547D02*
X005403Y013547D01*
X005403Y013488D02*
X005487Y013488D01*
X005448Y013430D02*
X005403Y013430D01*
X005403Y013371D02*
X005448Y013371D01*
X005448Y013313D02*
X005403Y013313D01*
X005403Y013254D02*
X005448Y013254D01*
X005448Y013196D02*
X005403Y013196D01*
X005403Y013137D02*
X005448Y013137D01*
X005448Y013079D02*
X005403Y013079D01*
X005403Y013020D02*
X005448Y013020D01*
X005448Y012962D02*
X005403Y012962D01*
X005403Y012903D02*
X005448Y012903D01*
X005448Y012845D02*
X005403Y012845D01*
X005403Y012786D02*
X005448Y012786D01*
X005448Y012728D02*
X005403Y012728D01*
X005403Y012669D02*
X005448Y012669D01*
X005448Y012611D02*
X005403Y012611D01*
X005403Y012552D02*
X005448Y012552D01*
X005448Y012494D02*
X005403Y012494D01*
X005403Y012435D02*
X005448Y012435D01*
X005448Y012377D02*
X005403Y012377D01*
X005403Y012318D02*
X005448Y012318D01*
X005448Y012260D02*
X005403Y012260D01*
X005403Y012201D02*
X005448Y012201D01*
X005448Y012143D02*
X005403Y012143D01*
X005403Y012084D02*
X005448Y012084D01*
X005448Y012026D02*
X005403Y012026D01*
X005403Y011967D02*
X005448Y011967D01*
X005448Y011909D02*
X005403Y011909D01*
X005403Y011850D02*
X005448Y011850D01*
X005448Y011792D02*
X005403Y011792D01*
X005403Y011733D02*
X005448Y011733D01*
X005448Y011675D02*
X005403Y011675D01*
X005403Y011616D02*
X005448Y011616D01*
X005448Y011558D02*
X005403Y011558D01*
X005403Y011499D02*
X005448Y011499D01*
X005448Y011441D02*
X005403Y011441D01*
X005369Y011382D02*
X005448Y011382D01*
X005448Y011324D02*
X005311Y011324D01*
X005252Y011265D02*
X005448Y011265D01*
X005393Y011207D02*
X005194Y011207D01*
X005146Y011148D02*
X005334Y011148D01*
X005276Y011090D02*
X005146Y011090D01*
X005146Y011031D02*
X005217Y011031D01*
X005159Y010973D02*
X005089Y010973D01*
X005100Y010914D02*
X005030Y010914D01*
X005042Y010856D02*
X004972Y010856D01*
X004913Y010797D02*
X005042Y010797D01*
X005042Y010739D02*
X004855Y010739D01*
X004796Y010680D02*
X005042Y010680D01*
X005042Y010622D02*
X004738Y010622D01*
X004679Y010563D02*
X005042Y010563D01*
X005042Y010505D02*
X004644Y010505D01*
X004644Y010446D02*
X005042Y010446D01*
X005042Y010388D02*
X004644Y010388D01*
X004644Y010329D02*
X005042Y010329D01*
X005042Y010271D02*
X004644Y010271D01*
X004644Y010212D02*
X005042Y010212D01*
X005042Y010154D02*
X004644Y010154D01*
X004644Y010095D02*
X005042Y010095D01*
X005042Y010037D02*
X004644Y010037D01*
X004644Y009978D02*
X005042Y009978D01*
X005042Y009920D02*
X004644Y009920D01*
X004644Y009861D02*
X005042Y009861D01*
X005042Y009803D02*
X004644Y009803D01*
X004644Y009744D02*
X005042Y009744D01*
X005082Y009686D02*
X004644Y009686D01*
X004644Y009627D02*
X005139Y009627D01*
X005139Y009569D02*
X004644Y009569D01*
X004644Y009510D02*
X005139Y009510D01*
X005188Y009452D02*
X004695Y009452D01*
X004753Y009393D02*
X005247Y009393D01*
X005349Y009588D02*
X005162Y009775D01*
X005162Y010806D01*
X005568Y011213D01*
X005568Y013400D01*
X005818Y013650D01*
X007131Y013650D01*
X007818Y012963D01*
X009193Y012963D01*
X009403Y012962D02*
X009448Y012962D01*
X009448Y013020D02*
X009403Y013020D01*
X009374Y013079D02*
X009448Y013079D01*
X009411Y013137D02*
X009316Y013137D01*
X009353Y013196D02*
X007755Y013196D01*
X007696Y013254D02*
X009107Y013254D01*
X009048Y013313D02*
X007638Y013313D01*
X007579Y013371D02*
X008990Y013371D01*
X008931Y013430D02*
X007521Y013430D01*
X007462Y013488D02*
X008873Y013488D01*
X008814Y013547D02*
X007404Y013547D01*
X007345Y013605D02*
X008756Y013605D01*
X008697Y013664D02*
X007287Y013664D01*
X007228Y013722D02*
X008512Y013722D01*
X008421Y013956D02*
X007390Y013956D01*
X007089Y014249D02*
X004830Y014249D01*
X004830Y014307D02*
X007147Y014307D01*
X007206Y014366D02*
X004830Y014366D01*
X004830Y014424D02*
X010326Y014424D01*
X010302Y014483D02*
X004830Y014483D01*
X004830Y014541D02*
X010247Y014541D01*
X010135Y014600D02*
X004830Y014600D01*
X004830Y014190D02*
X005436Y014190D01*
X005378Y014132D02*
X004830Y014132D01*
X004830Y014073D02*
X005319Y014073D01*
X005261Y014015D02*
X004830Y014015D01*
X004830Y013956D02*
X005202Y013956D01*
X005144Y013898D02*
X004827Y013898D01*
X004830Y013942D02*
X004830Y013942D01*
X004825Y013839D02*
X005085Y013839D01*
X005027Y013781D02*
X004813Y013781D01*
X004801Y013722D02*
X004983Y013722D01*
X004983Y013664D02*
X004782Y013664D01*
X004759Y013605D02*
X004983Y013605D01*
X004983Y013547D02*
X004730Y013547D01*
X004696Y013488D02*
X004983Y013488D01*
X004983Y013430D02*
X004653Y013430D01*
X004607Y013371D02*
X004983Y013371D01*
X004983Y013313D02*
X004541Y013313D01*
X004464Y013254D02*
X004813Y013254D01*
X004754Y013196D02*
X004362Y013196D01*
X004196Y013137D02*
X004733Y013137D01*
X004733Y013079D02*
X003323Y013079D01*
X003323Y013020D02*
X004733Y013020D01*
X004772Y012962D02*
X003323Y012962D01*
X003323Y012903D02*
X004831Y012903D01*
X004983Y012845D02*
X003323Y012845D01*
X003323Y012786D02*
X004983Y012786D01*
X004983Y012728D02*
X003323Y012728D01*
X003323Y012669D02*
X004983Y012669D01*
X004983Y012611D02*
X003323Y012611D01*
X003323Y012552D02*
X004983Y012552D01*
X004983Y012494D02*
X003323Y012494D01*
X003323Y012435D02*
X004983Y012435D01*
X004983Y012377D02*
X003323Y012377D01*
X003323Y012318D02*
X004983Y012318D01*
X004983Y012260D02*
X003323Y012260D01*
X003323Y012201D02*
X004983Y012201D01*
X004983Y012143D02*
X003323Y012143D01*
X003323Y012084D02*
X004983Y012084D01*
X004983Y012026D02*
X003323Y012026D01*
X003323Y011967D02*
X004983Y011967D01*
X004983Y011909D02*
X003323Y011909D01*
X003323Y011850D02*
X004983Y011850D01*
X004983Y011792D02*
X003323Y011792D01*
X003323Y011733D02*
X004983Y011733D01*
X004983Y011675D02*
X003323Y011675D01*
X003323Y011616D02*
X004983Y011616D01*
X004951Y011558D02*
X003323Y011558D01*
X003323Y011499D02*
X004892Y011499D01*
X004723Y011441D02*
X003323Y011441D01*
X003323Y011382D02*
X004665Y011382D01*
X004606Y011324D02*
X003323Y011324D01*
X003323Y011265D02*
X004548Y011265D01*
X004489Y011207D02*
X003323Y011207D01*
X003323Y011148D02*
X004431Y011148D01*
X004372Y011090D02*
X003323Y011090D01*
X003323Y011031D02*
X004314Y011031D01*
X004255Y010973D02*
X003323Y010973D01*
X003323Y010914D02*
X004197Y010914D01*
X004178Y010856D02*
X003323Y010856D01*
X003323Y010797D02*
X004178Y010797D01*
X004178Y010739D02*
X003323Y010739D01*
X003323Y010680D02*
X004178Y010680D01*
X004211Y010622D02*
X003323Y010622D01*
X003323Y010563D02*
X004270Y010563D01*
X004304Y010505D02*
X003323Y010505D01*
X003323Y010446D02*
X004304Y010446D01*
X004304Y010388D02*
X003323Y010388D01*
X003323Y010329D02*
X004304Y010329D01*
X004304Y010271D02*
X003323Y010271D01*
X003323Y010212D02*
X004304Y010212D01*
X004304Y010154D02*
X003323Y010154D01*
X003323Y010095D02*
X004304Y010095D01*
X004304Y010037D02*
X003323Y010037D01*
X003323Y009978D02*
X004304Y009978D01*
X004304Y009920D02*
X003323Y009920D01*
X003323Y009861D02*
X004304Y009861D01*
X004304Y009803D02*
X003323Y009803D01*
X003323Y009744D02*
X004304Y009744D01*
X004304Y009686D02*
X003323Y009686D01*
X003323Y009627D02*
X004304Y009627D01*
X004304Y009569D02*
X003323Y009569D01*
X003323Y009510D02*
X004304Y009510D01*
X004304Y009452D02*
X003323Y009452D01*
X003323Y009393D02*
X004304Y009393D01*
X004331Y009335D02*
X003323Y009335D01*
X003323Y009276D02*
X004389Y009276D01*
X004448Y009218D02*
X003323Y009218D01*
X003323Y009159D02*
X004506Y009159D01*
X004565Y009101D02*
X003323Y009101D01*
X003323Y009042D02*
X004623Y009042D01*
X004682Y008984D02*
X003323Y008984D01*
X003323Y008925D02*
X004740Y008925D01*
X004799Y008867D02*
X003323Y008867D01*
X003323Y008808D02*
X004857Y008808D01*
X004916Y008750D02*
X003323Y008750D01*
X003323Y008691D02*
X004974Y008691D01*
X005033Y008633D02*
X003323Y008633D01*
X003323Y008574D02*
X005091Y008574D01*
X005150Y008516D02*
X003323Y008516D01*
X003323Y008457D02*
X005828Y008457D01*
X005796Y008399D02*
X003323Y008399D01*
X003323Y008340D02*
X005796Y008340D01*
X005796Y008282D02*
X004319Y008282D01*
X004353Y008247D02*
X004283Y008317D01*
X004140Y008317D01*
X003967Y008144D01*
X003923Y008144D01*
X003853Y008073D01*
X003853Y007974D01*
X003886Y007942D01*
X003853Y007909D01*
X003853Y007723D01*
X003877Y007699D01*
X003853Y007675D01*
X003853Y007532D01*
X003886Y007500D01*
X003853Y007467D01*
X003853Y007281D01*
X003897Y007237D01*
X003925Y007209D01*
X003938Y007196D01*
X003927Y007190D01*
X003888Y007177D01*
X003884Y007169D01*
X003875Y007164D01*
X003862Y007125D01*
X003844Y007088D01*
X003847Y007079D01*
X003844Y007070D01*
X003862Y007033D01*
X003875Y006994D01*
X003884Y006990D01*
X003888Y006981D01*
X003927Y006968D01*
X004137Y006863D01*
X004232Y006894D01*
X004276Y006983D01*
X004245Y007078D01*
X004242Y007079D01*
X004245Y007081D01*
X004276Y007175D01*
X004267Y007194D01*
X004283Y007211D01*
X004353Y007281D01*
X004353Y007304D01*
X004383Y007274D01*
X004381Y007274D01*
X004360Y007242D01*
X004333Y007216D01*
X004333Y007202D01*
X004326Y007191D01*
X004333Y007154D01*
X004333Y007116D01*
X004343Y007107D01*
X004345Y007094D01*
X004369Y007078D01*
X004333Y007042D01*
X004333Y006943D01*
X004403Y006873D01*
X004677Y006873D01*
X004688Y006865D01*
X004725Y006873D01*
X004763Y006873D01*
X004773Y006882D01*
X004786Y006885D01*
X004807Y006916D01*
X004833Y006943D01*
X004833Y006956D01*
X004841Y006967D01*
X004833Y007004D01*
X004833Y007042D01*
X004824Y007052D01*
X004821Y007065D01*
X004798Y007081D01*
X004833Y007116D01*
X004833Y007216D01*
X004823Y007227D01*
X004833Y007237D01*
X004833Y007510D01*
X004763Y007581D01*
X004664Y007581D01*
X004593Y007510D01*
X004593Y007494D01*
X004403Y007494D01*
X004353Y007444D01*
X004353Y007467D01*
X004278Y007542D01*
X004240Y007581D01*
X004137Y007581D01*
X004137Y007609D01*
X004240Y007609D01*
X004283Y007652D01*
X004353Y007723D01*
X004353Y007909D01*
X004321Y007942D01*
X004353Y007974D01*
X004353Y008247D01*
X004353Y008223D02*
X005823Y008223D01*
X005882Y008165D02*
X004353Y008165D01*
X004353Y008106D02*
X006227Y008106D01*
X006169Y008048D02*
X004353Y008048D01*
X004353Y007989D02*
X006110Y007989D01*
X006108Y007931D02*
X004332Y007931D01*
X004353Y007872D02*
X006108Y007872D01*
X006108Y007814D02*
X004353Y007814D01*
X004353Y007755D02*
X006166Y007755D01*
X006225Y007697D02*
X004327Y007697D01*
X004269Y007638D02*
X006511Y007638D01*
X006511Y007580D02*
X004764Y007580D01*
X004823Y007521D02*
X006511Y007521D01*
X006511Y007463D02*
X004833Y007463D01*
X004833Y007404D02*
X006511Y007404D01*
X006511Y007346D02*
X004833Y007346D01*
X004833Y007287D02*
X006511Y007287D01*
X006511Y007229D02*
X004824Y007229D01*
X004833Y007170D02*
X006566Y007170D01*
X006624Y007112D02*
X004829Y007112D01*
X004824Y007053D02*
X006683Y007053D01*
X006741Y006995D02*
X004835Y006995D01*
X004827Y006936D02*
X006800Y006936D01*
X006858Y006878D02*
X004768Y006878D01*
X004713Y006993D02*
X004453Y007166D01*
X004713Y007166D01*
X004713Y007287D02*
X004713Y007461D01*
X004713Y007374D02*
X004453Y007374D01*
X004372Y007463D02*
X004353Y007463D01*
X004299Y007521D02*
X004604Y007521D01*
X004663Y007580D02*
X004241Y007580D01*
X004190Y007461D02*
X004017Y007287D01*
X003973Y007331D01*
X003973Y007417D01*
X004017Y007461D01*
X004190Y007461D01*
X004233Y007417D01*
X004233Y007331D01*
X004190Y007287D01*
X004017Y007287D01*
X003905Y007229D02*
X003323Y007229D01*
X003323Y007287D02*
X003853Y007287D01*
X003853Y007346D02*
X003323Y007346D01*
X003323Y007404D02*
X003853Y007404D01*
X003853Y007463D02*
X003323Y007463D01*
X003323Y007521D02*
X003864Y007521D01*
X003853Y007580D02*
X003323Y007580D01*
X003323Y007638D02*
X003853Y007638D01*
X003875Y007697D02*
X003323Y007697D01*
X003323Y007755D02*
X003853Y007755D01*
X003853Y007814D02*
X003323Y007814D01*
X003323Y007872D02*
X003853Y007872D01*
X003875Y007931D02*
X003323Y007931D01*
X003323Y007989D02*
X003853Y007989D01*
X003853Y008048D02*
X003323Y008048D01*
X003323Y008106D02*
X003886Y008106D01*
X003988Y008165D02*
X003323Y008165D01*
X003323Y008223D02*
X004046Y008223D01*
X004105Y008282D02*
X003323Y008282D01*
X003973Y008024D02*
X004017Y008024D01*
X004190Y008197D01*
X004233Y008197D01*
X004233Y008024D01*
X004190Y007903D02*
X004017Y007903D01*
X003973Y007859D01*
X003973Y007772D01*
X004017Y007729D01*
X004190Y007903D01*
X004233Y007859D01*
X004233Y007772D01*
X004190Y007729D01*
X004017Y007729D01*
X004017Y007625D02*
X003973Y007625D01*
X003973Y007582D01*
X004017Y007582D01*
X004017Y007625D01*
X003897Y007237D02*
X003897Y007237D01*
X003884Y007170D02*
X003323Y007170D01*
X003323Y007112D02*
X003855Y007112D01*
X003852Y007053D02*
X003323Y007053D01*
X003323Y006995D02*
X003875Y006995D01*
X003973Y007079D02*
X004147Y007166D01*
X004255Y007112D02*
X004338Y007112D01*
X004330Y007170D02*
X004274Y007170D01*
X004301Y007229D02*
X004346Y007229D01*
X004353Y007287D02*
X004370Y007287D01*
X004344Y007053D02*
X004253Y007053D01*
X004272Y006995D02*
X004333Y006995D01*
X004340Y006936D02*
X004253Y006936D01*
X004181Y006878D02*
X004398Y006878D01*
X004453Y006993D02*
X004713Y006993D01*
X004454Y006644D02*
X007046Y006644D01*
X007046Y006585D02*
X004530Y006585D01*
X004576Y006545D02*
X004645Y006468D01*
X004685Y006410D02*
X007886Y006410D01*
X007886Y006468D02*
X007371Y006468D01*
X007429Y006527D02*
X007886Y006527D01*
X007886Y006585D02*
X007466Y006585D01*
X007466Y006644D02*
X007886Y006644D01*
X007886Y006702D02*
X007466Y006702D01*
X007442Y006761D02*
X007850Y006761D01*
X007792Y006819D02*
X007384Y006819D01*
X007198Y006878D02*
X007733Y006878D01*
X007675Y006936D02*
X007139Y006936D01*
X007081Y006995D02*
X007616Y006995D01*
X007558Y007053D02*
X007022Y007053D01*
X006964Y007112D02*
X007499Y007112D01*
X007441Y007170D02*
X006905Y007170D01*
X006847Y007229D02*
X007382Y007229D01*
X007324Y007287D02*
X006788Y007287D01*
X006751Y007346D02*
X007265Y007346D01*
X007207Y007404D02*
X006751Y007404D01*
X006751Y007463D02*
X006961Y007463D01*
X006902Y007521D02*
X006751Y007521D01*
X006751Y007580D02*
X006844Y007580D01*
X006785Y007638D02*
X006751Y007638D01*
X006751Y007697D02*
X006761Y007697D01*
X006881Y007713D02*
X006881Y008025D01*
X006756Y008150D01*
X006506Y008150D01*
X006318Y007963D01*
X006318Y007900D01*
X006470Y007755D02*
X006479Y007755D01*
X006511Y007697D02*
X006412Y007697D01*
X006631Y007900D02*
X006631Y007275D01*
X007256Y006650D01*
X007034Y006702D02*
X004353Y006702D01*
X004171Y006761D02*
X006975Y006761D01*
X006917Y006819D02*
X003323Y006819D01*
X003323Y006878D02*
X004108Y006878D01*
X004147Y006993D02*
X003973Y007079D01*
X003991Y006936D02*
X003323Y006936D01*
X004724Y006351D02*
X007886Y006351D01*
X007886Y006293D02*
X004750Y006293D01*
X004776Y006234D02*
X007886Y006234D01*
X007886Y006176D02*
X004792Y006176D01*
X004821Y006000D02*
X007923Y006000D01*
X007982Y005942D02*
X004823Y005942D01*
X004823Y005883D02*
X008040Y005883D01*
X008099Y005825D02*
X004823Y005825D01*
X004823Y005766D02*
X008157Y005766D01*
X008216Y005708D02*
X004823Y005708D01*
X004823Y005649D02*
X008274Y005649D01*
X008333Y005591D02*
X004823Y005591D01*
X004823Y005532D02*
X008391Y005532D01*
X008450Y005474D02*
X004823Y005474D01*
X004823Y005415D02*
X008508Y005415D01*
X008567Y005357D02*
X004823Y005357D01*
X004823Y005298D02*
X008625Y005298D01*
X008756Y005338D02*
X008006Y006088D01*
X008006Y006775D01*
X007256Y007525D01*
X007068Y007525D01*
X006881Y007713D01*
X007131Y007900D02*
X008131Y006900D01*
X008131Y006150D01*
X008818Y005463D01*
X009318Y005463D01*
X009693Y005838D01*
X009781Y005838D01*
X009818Y005938D01*
X010162Y005775D02*
X009974Y005588D01*
X009631Y005588D01*
X009381Y005338D01*
X008756Y005338D01*
X008881Y005588D02*
X008256Y006213D01*
X008256Y007088D01*
X007443Y007900D01*
X007294Y008048D02*
X007280Y008048D01*
X007222Y008106D02*
X007352Y008106D01*
X007534Y008106D02*
X008622Y008106D01*
X008680Y008048D02*
X007593Y008048D01*
X007651Y007989D02*
X008739Y007989D01*
X008797Y007931D02*
X007653Y007931D01*
X007653Y007872D02*
X008856Y007872D01*
X008856Y007814D02*
X007699Y007814D01*
X007758Y007755D02*
X008797Y007755D01*
X008758Y007697D02*
X007816Y007697D01*
X007875Y007638D02*
X008758Y007638D01*
X008758Y007580D02*
X007933Y007580D01*
X007992Y007521D02*
X008758Y007521D01*
X008758Y007463D02*
X008050Y007463D01*
X008109Y007404D02*
X008813Y007404D01*
X008872Y007346D02*
X008167Y007346D01*
X008226Y007287D02*
X008879Y007287D01*
X008821Y007229D02*
X008284Y007229D01*
X008343Y007170D02*
X008762Y007170D01*
X008758Y007112D02*
X008376Y007112D01*
X008376Y007053D02*
X008758Y007053D01*
X008758Y006995D02*
X008376Y006995D01*
X008376Y006936D02*
X008758Y006936D01*
X008790Y006878D02*
X008376Y006878D01*
X008376Y006819D02*
X008848Y006819D01*
X008903Y006761D02*
X008376Y006761D01*
X008376Y006702D02*
X008844Y006702D01*
X008786Y006644D02*
X008376Y006644D01*
X008376Y006585D02*
X008758Y006585D01*
X008758Y006527D02*
X008376Y006527D01*
X008376Y006468D02*
X009038Y006468D01*
X008825Y006293D02*
X008376Y006293D01*
X008376Y006351D02*
X008766Y006351D01*
X008758Y006410D02*
X008376Y006410D01*
X008404Y006234D02*
X008883Y006234D01*
X008868Y006176D02*
X008462Y006176D01*
X008521Y006117D02*
X008809Y006117D01*
X008758Y006059D02*
X008579Y006059D01*
X008638Y006000D02*
X008758Y006000D01*
X008758Y005942D02*
X008696Y005942D01*
X008755Y005883D02*
X008758Y005883D01*
X009068Y005938D02*
X009068Y005963D01*
X009381Y006275D01*
X009381Y008213D01*
X008756Y008838D01*
X008907Y008984D02*
X009698Y008984D01*
X009698Y009042D02*
X008848Y009042D01*
X008965Y008925D02*
X009698Y008925D01*
X009698Y008867D02*
X008966Y008867D01*
X008966Y008808D02*
X009698Y008808D01*
X009698Y008750D02*
X009013Y008750D01*
X009072Y008691D02*
X009698Y008691D01*
X009698Y008633D02*
X009130Y008633D01*
X009189Y008574D02*
X009698Y008574D01*
X009698Y008516D02*
X009247Y008516D01*
X009306Y008457D02*
X009698Y008457D01*
X009698Y008399D02*
X009364Y008399D01*
X009423Y008340D02*
X009698Y008340D01*
X009698Y008282D02*
X009481Y008282D01*
X009501Y008223D02*
X009698Y008223D01*
X009698Y008165D02*
X009501Y008165D01*
X009501Y008106D02*
X009698Y008106D01*
X009698Y008048D02*
X009501Y008048D01*
X009501Y007989D02*
X009698Y007989D01*
X009698Y007931D02*
X009501Y007931D01*
X009501Y007872D02*
X009664Y007872D01*
X009606Y007814D02*
X009501Y007814D01*
X009501Y007755D02*
X009547Y007755D01*
X009508Y007697D02*
X009501Y007697D01*
X009501Y007638D02*
X009508Y007638D01*
X009501Y007580D02*
X009508Y007580D01*
X009501Y007521D02*
X009508Y007521D01*
X009501Y007463D02*
X009508Y007463D01*
X009501Y007404D02*
X009563Y007404D01*
X009622Y007346D02*
X009501Y007346D01*
X009501Y007287D02*
X009629Y007287D01*
X009571Y007229D02*
X009501Y007229D01*
X009501Y007170D02*
X009512Y007170D01*
X009508Y007112D02*
X009501Y007112D01*
X009501Y007053D02*
X009508Y007053D01*
X009501Y006995D02*
X009508Y006995D01*
X009501Y006936D02*
X009508Y006936D01*
X009501Y006878D02*
X009540Y006878D01*
X009501Y006819D02*
X009598Y006819D01*
X009653Y006761D02*
X009501Y006761D01*
X009501Y006702D02*
X009594Y006702D01*
X009536Y006644D02*
X009501Y006644D01*
X009501Y006585D02*
X009508Y006585D01*
X009501Y006527D02*
X009508Y006527D01*
X009501Y006468D02*
X009508Y006468D01*
X009501Y006410D02*
X009508Y006410D01*
X009501Y006351D02*
X009516Y006351D01*
X009443Y006088D02*
X009443Y005775D01*
X009256Y005588D01*
X008881Y005588D01*
X009511Y005298D02*
X010159Y005298D01*
X010256Y005357D02*
X009569Y005357D01*
X009628Y005415D02*
X010306Y005415D01*
X010329Y005474D02*
X010030Y005474D01*
X010089Y005532D02*
X010343Y005532D01*
X010344Y005591D02*
X010147Y005591D01*
X010206Y005649D02*
X010344Y005649D01*
X010344Y005708D02*
X010264Y005708D01*
X010282Y005766D02*
X010344Y005766D01*
X010344Y005825D02*
X010282Y005825D01*
X010282Y005883D02*
X010344Y005883D01*
X010344Y005942D02*
X010282Y005942D01*
X010282Y006000D02*
X010344Y006000D01*
X010344Y006059D02*
X010282Y006059D01*
X010282Y006117D02*
X010344Y006117D01*
X010344Y006176D02*
X010282Y006176D01*
X010282Y006234D02*
X010344Y006234D01*
X010344Y006293D02*
X010282Y006293D01*
X010282Y006351D02*
X010344Y006351D01*
X010344Y006410D02*
X010282Y006410D01*
X010282Y006468D02*
X010344Y006468D01*
X010344Y006527D02*
X010282Y006527D01*
X010282Y006585D02*
X010344Y006585D01*
X010344Y006644D02*
X010282Y006644D01*
X010282Y006702D02*
X010344Y006702D01*
X010344Y006761D02*
X010252Y006761D01*
X010194Y006819D02*
X010344Y006819D01*
X010344Y006878D02*
X010135Y006878D01*
X010128Y006936D02*
X010344Y006936D01*
X010162Y006681D02*
X010162Y005775D01*
X009781Y006425D02*
X009443Y006088D01*
X009781Y006425D02*
X009818Y006488D01*
X010162Y006681D02*
X009818Y007025D01*
X009818Y007038D01*
X009818Y007588D02*
X009818Y009275D01*
X009287Y009806D01*
X009167Y009803D02*
X009094Y009803D01*
X009094Y009861D02*
X009167Y009861D01*
X009167Y009920D02*
X009094Y009920D01*
X009094Y009978D02*
X009167Y009978D01*
X009167Y010037D02*
X009094Y010037D01*
X009043Y010095D02*
X009167Y010095D01*
X009167Y010154D02*
X008984Y010154D01*
X008926Y010212D02*
X009167Y010212D01*
X009167Y010271D02*
X005841Y010271D01*
X005841Y010329D02*
X009167Y010329D01*
X009161Y010388D02*
X005815Y010388D01*
X005757Y010446D02*
X009102Y010446D01*
X009044Y010505D02*
X005751Y010505D01*
X005751Y010563D02*
X008985Y010563D01*
X008849Y010119D02*
X008662Y010119D01*
X008506Y009963D01*
X005631Y009963D01*
X005412Y010181D01*
X005412Y010681D01*
X005943Y011213D01*
X005943Y012275D01*
X006193Y012525D01*
X006193Y013025D01*
X005943Y013275D01*
X005801Y013430D02*
X005767Y013430D01*
X005742Y013371D02*
X005709Y013371D01*
X005688Y013313D02*
X005733Y013313D01*
X005733Y013254D02*
X005688Y013254D01*
X005688Y013196D02*
X005733Y013196D01*
X005688Y013137D02*
X005784Y013137D01*
X005843Y013079D02*
X005688Y013079D01*
X005688Y013020D02*
X006028Y013020D01*
X006073Y012962D02*
X005688Y012962D01*
X005688Y012903D02*
X006073Y012903D01*
X006073Y012845D02*
X006046Y012845D01*
X005841Y012845D02*
X005688Y012845D01*
X005688Y012786D02*
X005782Y012786D01*
X005733Y012728D02*
X005688Y012728D01*
X005688Y012669D02*
X005733Y012669D01*
X005733Y012611D02*
X005688Y012611D01*
X005688Y012552D02*
X005744Y012552D01*
X005688Y012494D02*
X005803Y012494D01*
X005746Y012435D02*
X005688Y012435D01*
X005688Y012377D02*
X005698Y012377D01*
X005688Y012318D02*
X005698Y012318D01*
X005688Y012260D02*
X005698Y012260D01*
X005688Y012201D02*
X005698Y012201D01*
X005688Y012143D02*
X005698Y012143D01*
X005688Y012084D02*
X005698Y012084D01*
X005688Y012026D02*
X005698Y012026D01*
X005688Y011967D02*
X005698Y011967D01*
X005688Y011909D02*
X005698Y011909D01*
X005688Y011850D02*
X005698Y011850D01*
X005688Y011792D02*
X005698Y011792D01*
X005688Y011733D02*
X005698Y011733D01*
X005688Y011675D02*
X005698Y011675D01*
X005688Y011616D02*
X005698Y011616D01*
X005688Y011558D02*
X005698Y011558D01*
X005688Y011499D02*
X005698Y011499D01*
X005688Y011441D02*
X005698Y011441D01*
X005688Y011382D02*
X005698Y011382D01*
X005688Y011324D02*
X005697Y011324D01*
X005818Y011275D02*
X005818Y012338D01*
X005943Y012463D01*
X005943Y012650D01*
X006313Y012669D02*
X009293Y012669D01*
X009351Y012728D02*
X006313Y012728D01*
X006313Y012786D02*
X009073Y012786D01*
X009234Y012611D02*
X006313Y012611D01*
X006313Y012845D02*
X007766Y012845D01*
X007708Y012903D02*
X006313Y012903D01*
X006313Y012962D02*
X007649Y012962D01*
X007591Y013020D02*
X006313Y013020D01*
X006309Y013079D02*
X007532Y013079D01*
X007474Y013137D02*
X006251Y013137D01*
X006192Y013196D02*
X007415Y013196D01*
X007357Y013254D02*
X006153Y013254D01*
X006153Y013313D02*
X007298Y013313D01*
X007240Y013371D02*
X006144Y013371D01*
X006086Y013430D02*
X007181Y013430D01*
X007123Y013488D02*
X005826Y013488D01*
X006343Y012318D02*
X008296Y012318D01*
X008296Y012260D02*
X006285Y012260D01*
X006226Y012201D02*
X008345Y012201D01*
X008404Y012143D02*
X006188Y012143D01*
X005818Y011275D02*
X005287Y010744D01*
X005287Y009994D01*
X005537Y009744D01*
X005631Y009744D01*
X005631Y009463D01*
X005841Y009452D02*
X008595Y009452D01*
X008546Y009510D02*
X005841Y009510D01*
X005822Y009569D02*
X008546Y009569D01*
X008546Y009627D02*
X005840Y009627D01*
X005898Y009686D02*
X008557Y009686D01*
X008693Y009838D02*
X005881Y009838D01*
X005787Y009744D01*
X005631Y009744D01*
X005841Y009393D02*
X008653Y009393D01*
X008858Y009393D02*
X009530Y009393D01*
X009472Y009452D02*
X008917Y009452D01*
X008966Y009510D02*
X009413Y009510D01*
X009355Y009569D02*
X008966Y009569D01*
X008966Y009627D02*
X009296Y009627D01*
X009238Y009686D02*
X009023Y009686D01*
X009082Y009744D02*
X009179Y009744D01*
X008974Y009806D02*
X008974Y009994D01*
X008849Y010119D01*
X008756Y009900D02*
X008693Y009838D01*
X008756Y009588D02*
X008974Y009806D01*
X008586Y010212D02*
X005841Y010212D01*
X005806Y010154D02*
X008527Y010154D01*
X008469Y010095D02*
X005795Y010095D01*
X005631Y010275D02*
X005631Y010713D01*
X006068Y011150D01*
X005800Y009335D02*
X009589Y009335D01*
X009647Y009276D02*
X005741Y009276D01*
X005520Y009276D02*
X004870Y009276D01*
X004812Y009335D02*
X005462Y009335D01*
X005163Y008984D02*
X008605Y008984D01*
X008663Y009042D02*
X005104Y009042D01*
X005046Y009101D02*
X009698Y009101D01*
X009698Y009159D02*
X004987Y009159D01*
X004929Y009218D02*
X009698Y009218D01*
X008966Y008457D02*
X008752Y008457D01*
X008810Y008399D02*
X009025Y008399D01*
X009083Y008340D02*
X008869Y008340D01*
X008927Y008282D02*
X009142Y008282D01*
X009200Y008223D02*
X008986Y008223D01*
X009044Y008165D02*
X009259Y008165D01*
X009261Y008106D02*
X009103Y008106D01*
X009161Y008048D02*
X009261Y008048D01*
X009261Y007989D02*
X009220Y007989D01*
X009238Y007931D02*
X009261Y007931D01*
X009261Y007872D02*
X009238Y007872D01*
X008908Y008516D02*
X008693Y008516D01*
X008635Y008574D02*
X008849Y008574D01*
X008664Y008633D02*
X008576Y008633D01*
X008605Y008691D02*
X008518Y008691D01*
X008547Y008750D02*
X008459Y008750D01*
X008401Y008808D02*
X008546Y008808D01*
X008546Y008867D02*
X005280Y008867D01*
X005221Y008925D02*
X008546Y008925D01*
X008271Y008457D02*
X006183Y008457D01*
X006216Y008399D02*
X008329Y008399D01*
X008388Y008340D02*
X006216Y008340D01*
X006216Y008282D02*
X008446Y008282D01*
X008505Y008223D02*
X006852Y008223D01*
X006911Y008165D02*
X008563Y008165D01*
X007040Y008106D02*
X006969Y008106D01*
X006409Y008223D02*
X006188Y008223D01*
X006130Y008165D02*
X006351Y008165D01*
X009314Y012786D02*
X009410Y012786D01*
X009372Y012845D02*
X009448Y012845D01*
X009448Y012903D02*
X009403Y012903D01*
X009071Y013137D02*
X007813Y013137D01*
X014080Y014424D02*
X019549Y014424D01*
X019525Y014483D02*
X014080Y014483D01*
X014080Y014541D02*
X019474Y014541D01*
X019373Y014600D02*
X014080Y014600D01*
X015919Y011031D02*
X015983Y011031D01*
X015978Y010973D02*
X016011Y010973D01*
X016036Y010914D02*
X016070Y010914D01*
X018751Y007521D02*
X018758Y007521D01*
X018751Y007463D02*
X018758Y007463D01*
X018751Y007404D02*
X018813Y007404D01*
X018872Y007346D02*
X018751Y007346D01*
X018751Y007287D02*
X018879Y007287D01*
X018821Y007229D02*
X018751Y007229D01*
X018751Y007170D02*
X018762Y007170D01*
X018758Y007112D02*
X018751Y007112D01*
X018008Y005883D02*
X018005Y005883D01*
X018761Y005298D02*
X019365Y005298D01*
X019471Y005357D02*
X018819Y005357D01*
X018878Y005415D02*
X019523Y005415D01*
X019547Y005474D02*
X019280Y005474D01*
X019339Y005532D02*
X019561Y005532D01*
X019344Y005538D02*
X019344Y005538D01*
D12*
X019068Y005938D03*
X019068Y006488D03*
X019068Y007038D03*
X019068Y007588D03*
X018318Y007588D03*
X018318Y007038D03*
X018318Y006488D03*
X018318Y005938D03*
X009818Y005938D03*
X009818Y006488D03*
X009818Y007038D03*
X009818Y007588D03*
X009068Y007588D03*
X009068Y007038D03*
X009068Y006488D03*
X009068Y005938D03*
D13*
X008568Y006650D03*
X008568Y007025D03*
X008568Y007900D03*
X008756Y008838D03*
X008756Y009213D03*
X008756Y009588D03*
X008756Y009900D03*
X008756Y010463D03*
X009256Y011400D03*
X009256Y011900D03*
X009943Y011900D03*
X010193Y011400D03*
X010193Y010150D03*
X010193Y009463D03*
X007631Y009525D03*
X007631Y009150D03*
X007193Y009150D03*
X007193Y009525D03*
X006756Y009525D03*
X006756Y009150D03*
X006006Y008338D03*
X006318Y007900D03*
X006631Y007900D03*
X007131Y007900D03*
X007443Y007900D03*
X007256Y006650D03*
X007631Y006650D03*
X006006Y006650D03*
X005693Y006650D03*
X005693Y007400D03*
X006006Y007400D03*
X005693Y007900D03*
X004568Y007838D03*
X004568Y008338D03*
X005631Y009150D03*
X005631Y009463D03*
X005349Y009588D03*
X004881Y009588D03*
X004193Y009494D03*
X004881Y010275D03*
X004474Y010713D03*
X004193Y011088D03*
X005631Y010275D03*
X005631Y009963D03*
X006006Y010713D03*
X006443Y011088D03*
X006693Y011275D03*
X006943Y011088D03*
X006818Y012150D03*
X007318Y012150D03*
X007131Y012963D03*
X007881Y013713D03*
X008631Y013900D03*
X009193Y014213D03*
X010193Y013900D03*
X009193Y012963D03*
X008506Y012338D03*
X006381Y014463D03*
X005943Y013275D03*
X005943Y012650D03*
X004943Y013088D03*
X004193Y012400D03*
X013443Y012400D03*
X014193Y013088D03*
X015193Y013275D03*
X015193Y012650D03*
X016068Y012150D03*
X016568Y012150D03*
X016381Y012963D03*
X017131Y013713D03*
X017881Y013900D03*
X018443Y014213D03*
X019443Y013900D03*
X018443Y012963D03*
X017756Y012338D03*
X018506Y011900D03*
X018506Y011400D03*
X019193Y011900D03*
X019443Y011400D03*
X018006Y010463D03*
X018006Y009900D03*
X018006Y009588D03*
X018006Y009213D03*
X018006Y008838D03*
X017818Y007900D03*
X017818Y007025D03*
X017818Y006650D03*
X016881Y006650D03*
X016506Y006650D03*
X015256Y006650D03*
X014943Y006650D03*
X014943Y007400D03*
X015256Y007400D03*
X015568Y007900D03*
X015881Y007900D03*
X016381Y007900D03*
X016693Y007900D03*
X016881Y009150D03*
X016881Y009525D03*
X016443Y009525D03*
X016443Y009150D03*
X016006Y009150D03*
X016006Y009525D03*
X014881Y009463D03*
X014599Y009588D03*
X014131Y009588D03*
X013443Y009494D03*
X014131Y010275D03*
X013724Y010713D03*
X013443Y011088D03*
X014881Y010275D03*
X014881Y009963D03*
X014881Y009150D03*
X015256Y008338D03*
X014943Y007900D03*
X013818Y007838D03*
X013818Y008338D03*
X015256Y010713D03*
X015693Y011088D03*
X015943Y011275D03*
X016193Y011088D03*
X019443Y010150D03*
X019443Y009463D03*
X015631Y014463D03*
D14*
X014443Y013088D02*
X014193Y013088D01*
X014034Y011093D02*
X013724Y010784D01*
X013724Y009431D01*
X014506Y008650D01*
X015256Y008650D01*
X017568Y008650D01*
X018318Y007900D01*
X018318Y007588D01*
X018881Y011088D02*
X016193Y011088D01*
X018881Y011900D02*
X019193Y011900D01*
X018443Y013963D02*
X018443Y014213D01*
X009943Y011900D02*
X009631Y011900D01*
X009631Y011088D02*
X006943Y011088D01*
X004784Y011093D02*
X004474Y010784D01*
X004474Y009431D01*
X005256Y008650D01*
X006006Y008650D01*
X008318Y008650D01*
X009068Y007900D01*
X009068Y007588D01*
X005193Y013088D02*
X004943Y013088D01*
X009193Y013963D02*
X009193Y014213D01*
D15*
X004784Y011093D03*
X009693Y010150D03*
X014034Y011093D03*
X018943Y010150D03*
D16*
X018943Y010838D01*
X018881Y010900D01*
X018881Y011088D01*
X018881Y011900D01*
X018881Y012275D01*
X019193Y012588D01*
X019193Y013400D01*
X018631Y013963D01*
X018443Y013963D01*
X018318Y013963D01*
X018068Y014213D01*
X016599Y014213D01*
X016412Y014025D01*
X014818Y014025D01*
X014443Y013650D01*
X014443Y013088D01*
X014443Y011503D01*
X014034Y011093D01*
X009943Y012588D02*
X009631Y012275D01*
X009631Y011900D01*
X009631Y011088D01*
X009631Y010900D01*
X009693Y010838D01*
X009693Y010150D01*
X009943Y012588D02*
X009943Y013400D01*
X009381Y013963D01*
X009193Y013963D01*
X009068Y013963D01*
X008818Y014213D01*
X007349Y014213D01*
X007162Y014025D01*
X005568Y014025D01*
X005193Y013650D01*
X005193Y013088D01*
X005193Y011503D01*
X004784Y011093D01*
D17*
X006006Y008650D02*
X006006Y008338D01*
X015256Y008338D02*
X015256Y008650D01*
D18*
X013756Y010588D02*
X013693Y010588D01*
X013568Y010713D01*
X013568Y010838D01*
X014037Y011306D01*
X014256Y011306D01*
X014256Y011088D01*
X014224Y011119D01*
X014059Y011119D01*
X014034Y011093D01*
X014034Y011091D01*
X014099Y011025D01*
X013693Y010619D01*
X013693Y010775D01*
X013724Y010806D01*
X013631Y010775D02*
X013974Y011119D01*
X014006Y011119D01*
X014034Y011091D01*
X014256Y011088D02*
X013756Y010588D01*
X013631Y010775D02*
X013599Y010775D01*
X005006Y011088D02*
X004974Y011119D01*
X004809Y011119D01*
X004784Y011093D01*
X004784Y011091D01*
X004849Y011025D01*
X004443Y010619D01*
X004443Y010775D01*
X004474Y010806D01*
X004381Y010775D02*
X004724Y011119D01*
X004756Y011119D01*
X004784Y011091D01*
X004787Y011306D02*
X005006Y011306D01*
X005006Y011088D01*
X004506Y010588D01*
X004443Y010588D01*
X004318Y010713D01*
X004318Y010838D01*
X004787Y011306D01*
X004381Y010775D02*
X004349Y010775D01*
M02*
