G75*
%MOIN*%
%OFA0B0*%
%FSLAX24Y24*%
%IPPOS*%
%LPD*%
%AMOC8*
5,1,8,0,0,1.08239X$1,22.5*
%
%ADD10C,0.0000*%
%ADD11R,0.1187X0.1187*%
%ADD12C,0.0101*%
%ADD13C,0.0100*%
%ADD14C,0.0098*%
%ADD15C,0.0100*%
%ADD16C,0.0100*%
%ADD17C,0.0099*%
D10*
X003587Y005150D02*
X010080Y005150D01*
X010119Y005153D01*
X010158Y005159D01*
X010196Y005169D01*
X010233Y005183D01*
X010268Y005200D01*
X010301Y005221D01*
X010332Y005245D01*
X010361Y005271D01*
X010387Y005301D01*
X010410Y005333D01*
X010430Y005367D01*
X010446Y005402D01*
X010458Y005440D01*
X010467Y005478D01*
X010473Y005517D01*
X010474Y005556D01*
X010474Y008150D01*
X010476Y008194D01*
X010482Y008237D01*
X010491Y008279D01*
X010504Y008321D01*
X010521Y008361D01*
X010541Y008400D01*
X010564Y008437D01*
X010591Y008471D01*
X010620Y008504D01*
X010653Y008533D01*
X010687Y008560D01*
X010724Y008583D01*
X010763Y008603D01*
X010803Y008620D01*
X010845Y008633D01*
X010887Y008642D01*
X010930Y008648D01*
X010974Y008650D01*
X011912Y008650D01*
X011956Y008648D01*
X011999Y008642D01*
X012041Y008633D01*
X012083Y008620D01*
X012123Y008603D01*
X012162Y008583D01*
X012199Y008560D01*
X012233Y008533D01*
X012266Y008504D01*
X012295Y008471D01*
X012322Y008437D01*
X012345Y008400D01*
X012365Y008361D01*
X012382Y008321D01*
X012395Y008279D01*
X012404Y008237D01*
X012410Y008194D01*
X012412Y008150D01*
X012412Y005556D01*
X012414Y005517D01*
X012419Y005479D01*
X012428Y005441D01*
X012441Y005404D01*
X012458Y005369D01*
X012478Y005335D01*
X012501Y005304D01*
X012527Y005275D01*
X012555Y005249D01*
X012586Y005225D01*
X012620Y005205D01*
X012655Y005188D01*
X012692Y005175D01*
X012729Y005165D01*
X012768Y005159D01*
X012807Y005157D01*
X012806Y005157D02*
X019299Y005157D01*
X019338Y005159D01*
X019376Y005165D01*
X019413Y005174D01*
X019450Y005187D01*
X019485Y005204D01*
X019518Y005223D01*
X019549Y005246D01*
X019578Y005272D01*
X019604Y005301D01*
X019627Y005332D01*
X019646Y005365D01*
X019663Y005400D01*
X019676Y005437D01*
X019685Y005474D01*
X019691Y005512D01*
X019693Y005551D01*
X019693Y014350D01*
X019691Y014389D01*
X019685Y014427D01*
X019676Y014464D01*
X019663Y014501D01*
X019646Y014536D01*
X019627Y014569D01*
X019604Y014600D01*
X019578Y014629D01*
X019549Y014655D01*
X019518Y014678D01*
X019485Y014697D01*
X019450Y014714D01*
X019413Y014727D01*
X019376Y014736D01*
X019338Y014742D01*
X019299Y014744D01*
X012806Y014744D01*
X012806Y014743D02*
X012767Y014740D01*
X012728Y014734D01*
X012690Y014724D01*
X012653Y014710D01*
X012618Y014693D01*
X012585Y014672D01*
X012554Y014648D01*
X012525Y014622D01*
X012499Y014592D01*
X012476Y014560D01*
X012456Y014526D01*
X012440Y014491D01*
X012428Y014453D01*
X012419Y014415D01*
X012413Y014376D01*
X012412Y014337D01*
X012412Y014338D02*
X012412Y011650D01*
X012410Y011606D01*
X012404Y011563D01*
X012395Y011521D01*
X012382Y011479D01*
X012365Y011439D01*
X012345Y011400D01*
X012322Y011363D01*
X012295Y011329D01*
X012266Y011296D01*
X012233Y011267D01*
X012199Y011240D01*
X012162Y011217D01*
X012123Y011197D01*
X012083Y011180D01*
X012041Y011167D01*
X011999Y011158D01*
X011956Y011152D01*
X011912Y011150D01*
X010974Y011150D01*
X010930Y011152D01*
X010887Y011158D01*
X010845Y011167D01*
X010803Y011180D01*
X010763Y011197D01*
X010724Y011217D01*
X010687Y011240D01*
X010653Y011267D01*
X010620Y011296D01*
X010591Y011329D01*
X010564Y011363D01*
X010541Y011400D01*
X010521Y011439D01*
X010504Y011479D01*
X010491Y011521D01*
X010482Y011563D01*
X010476Y011606D01*
X010474Y011650D01*
X010474Y014338D01*
X010475Y014338D02*
X010473Y014377D01*
X010468Y014415D01*
X010459Y014453D01*
X010446Y014490D01*
X010429Y014525D01*
X010409Y014559D01*
X010386Y014590D01*
X010360Y014619D01*
X010332Y014645D01*
X010301Y014669D01*
X010267Y014689D01*
X010232Y014706D01*
X010195Y014719D01*
X010158Y014729D01*
X010119Y014735D01*
X010080Y014737D01*
X003587Y014737D01*
X003548Y014735D01*
X003510Y014729D01*
X003473Y014720D01*
X003436Y014707D01*
X003401Y014690D01*
X003368Y014671D01*
X003337Y014648D01*
X003308Y014622D01*
X003282Y014593D01*
X003259Y014562D01*
X003240Y014529D01*
X003223Y014494D01*
X003210Y014457D01*
X003201Y014420D01*
X003195Y014382D01*
X003193Y014343D01*
X003193Y005544D01*
X003195Y005505D01*
X003201Y005467D01*
X003210Y005430D01*
X003223Y005393D01*
X003240Y005358D01*
X003259Y005325D01*
X003282Y005294D01*
X003308Y005265D01*
X003337Y005239D01*
X003368Y005216D01*
X003401Y005197D01*
X003436Y005180D01*
X003473Y005167D01*
X003510Y005158D01*
X003548Y005152D01*
X003587Y005150D01*
X003548Y006006D02*
X003550Y006047D01*
X003556Y006088D01*
X003566Y006128D01*
X003579Y006167D01*
X003596Y006204D01*
X003617Y006240D01*
X003641Y006274D01*
X003668Y006305D01*
X003697Y006333D01*
X003730Y006359D01*
X003764Y006381D01*
X003801Y006400D01*
X003839Y006415D01*
X003879Y006427D01*
X003919Y006435D01*
X003960Y006439D01*
X004002Y006439D01*
X004043Y006435D01*
X004083Y006427D01*
X004123Y006415D01*
X004161Y006400D01*
X004197Y006381D01*
X004232Y006359D01*
X004265Y006333D01*
X004294Y006305D01*
X004321Y006274D01*
X004345Y006240D01*
X004366Y006204D01*
X004383Y006167D01*
X004396Y006128D01*
X004406Y006088D01*
X004412Y006047D01*
X004414Y006006D01*
X004412Y005965D01*
X004406Y005924D01*
X004396Y005884D01*
X004383Y005845D01*
X004366Y005808D01*
X004345Y005772D01*
X004321Y005738D01*
X004294Y005707D01*
X004265Y005679D01*
X004232Y005653D01*
X004198Y005631D01*
X004161Y005612D01*
X004123Y005597D01*
X004083Y005585D01*
X004043Y005577D01*
X004002Y005573D01*
X003960Y005573D01*
X003919Y005577D01*
X003879Y005585D01*
X003839Y005597D01*
X003801Y005612D01*
X003765Y005631D01*
X003730Y005653D01*
X003697Y005679D01*
X003668Y005707D01*
X003641Y005738D01*
X003617Y005772D01*
X003596Y005808D01*
X003579Y005845D01*
X003566Y005884D01*
X003556Y005924D01*
X003550Y005965D01*
X003548Y006006D01*
X003548Y013880D02*
X003550Y013921D01*
X003556Y013962D01*
X003566Y014002D01*
X003579Y014041D01*
X003596Y014078D01*
X003617Y014114D01*
X003641Y014148D01*
X003668Y014179D01*
X003697Y014207D01*
X003730Y014233D01*
X003764Y014255D01*
X003801Y014274D01*
X003839Y014289D01*
X003879Y014301D01*
X003919Y014309D01*
X003960Y014313D01*
X004002Y014313D01*
X004043Y014309D01*
X004083Y014301D01*
X004123Y014289D01*
X004161Y014274D01*
X004197Y014255D01*
X004232Y014233D01*
X004265Y014207D01*
X004294Y014179D01*
X004321Y014148D01*
X004345Y014114D01*
X004366Y014078D01*
X004383Y014041D01*
X004396Y014002D01*
X004406Y013962D01*
X004412Y013921D01*
X004414Y013880D01*
X004412Y013839D01*
X004406Y013798D01*
X004396Y013758D01*
X004383Y013719D01*
X004366Y013682D01*
X004345Y013646D01*
X004321Y013612D01*
X004294Y013581D01*
X004265Y013553D01*
X004232Y013527D01*
X004198Y013505D01*
X004161Y013486D01*
X004123Y013471D01*
X004083Y013459D01*
X004043Y013451D01*
X004002Y013447D01*
X003960Y013447D01*
X003919Y013451D01*
X003879Y013459D01*
X003839Y013471D01*
X003801Y013486D01*
X003765Y013505D01*
X003730Y013527D01*
X003697Y013553D01*
X003668Y013581D01*
X003641Y013612D01*
X003617Y013646D01*
X003596Y013682D01*
X003579Y013719D01*
X003566Y013758D01*
X003556Y013798D01*
X003550Y013839D01*
X003548Y013880D01*
X012798Y013880D02*
X012800Y013921D01*
X012806Y013962D01*
X012816Y014002D01*
X012829Y014041D01*
X012846Y014078D01*
X012867Y014114D01*
X012891Y014148D01*
X012918Y014179D01*
X012947Y014207D01*
X012980Y014233D01*
X013014Y014255D01*
X013051Y014274D01*
X013089Y014289D01*
X013129Y014301D01*
X013169Y014309D01*
X013210Y014313D01*
X013252Y014313D01*
X013293Y014309D01*
X013333Y014301D01*
X013373Y014289D01*
X013411Y014274D01*
X013447Y014255D01*
X013482Y014233D01*
X013515Y014207D01*
X013544Y014179D01*
X013571Y014148D01*
X013595Y014114D01*
X013616Y014078D01*
X013633Y014041D01*
X013646Y014002D01*
X013656Y013962D01*
X013662Y013921D01*
X013664Y013880D01*
X013662Y013839D01*
X013656Y013798D01*
X013646Y013758D01*
X013633Y013719D01*
X013616Y013682D01*
X013595Y013646D01*
X013571Y013612D01*
X013544Y013581D01*
X013515Y013553D01*
X013482Y013527D01*
X013448Y013505D01*
X013411Y013486D01*
X013373Y013471D01*
X013333Y013459D01*
X013293Y013451D01*
X013252Y013447D01*
X013210Y013447D01*
X013169Y013451D01*
X013129Y013459D01*
X013089Y013471D01*
X013051Y013486D01*
X013015Y013505D01*
X012980Y013527D01*
X012947Y013553D01*
X012918Y013581D01*
X012891Y013612D01*
X012867Y013646D01*
X012846Y013682D01*
X012829Y013719D01*
X012816Y013758D01*
X012806Y013798D01*
X012800Y013839D01*
X012798Y013880D01*
X012798Y006006D02*
X012800Y006047D01*
X012806Y006088D01*
X012816Y006128D01*
X012829Y006167D01*
X012846Y006204D01*
X012867Y006240D01*
X012891Y006274D01*
X012918Y006305D01*
X012947Y006333D01*
X012980Y006359D01*
X013014Y006381D01*
X013051Y006400D01*
X013089Y006415D01*
X013129Y006427D01*
X013169Y006435D01*
X013210Y006439D01*
X013252Y006439D01*
X013293Y006435D01*
X013333Y006427D01*
X013373Y006415D01*
X013411Y006400D01*
X013447Y006381D01*
X013482Y006359D01*
X013515Y006333D01*
X013544Y006305D01*
X013571Y006274D01*
X013595Y006240D01*
X013616Y006204D01*
X013633Y006167D01*
X013646Y006128D01*
X013656Y006088D01*
X013662Y006047D01*
X013664Y006006D01*
X013662Y005965D01*
X013656Y005924D01*
X013646Y005884D01*
X013633Y005845D01*
X013616Y005808D01*
X013595Y005772D01*
X013571Y005738D01*
X013544Y005707D01*
X013515Y005679D01*
X013482Y005653D01*
X013448Y005631D01*
X013411Y005612D01*
X013373Y005597D01*
X013333Y005585D01*
X013293Y005577D01*
X013252Y005573D01*
X013210Y005573D01*
X013169Y005577D01*
X013129Y005585D01*
X013089Y005597D01*
X013051Y005612D01*
X013015Y005631D01*
X012980Y005653D01*
X012947Y005679D01*
X012918Y005707D01*
X012891Y005738D01*
X012867Y005772D01*
X012846Y005808D01*
X012829Y005845D01*
X012816Y005884D01*
X012806Y005924D01*
X012800Y005965D01*
X012798Y006006D01*
D11*
X016443Y009525D03*
X007193Y009525D03*
D12*
X005424Y008510D02*
X004894Y008510D01*
X005424Y008510D02*
X005424Y007666D01*
X004894Y007666D01*
X004894Y008510D01*
X004894Y007766D02*
X005424Y007766D01*
X005424Y007866D02*
X004894Y007866D01*
X004894Y007966D02*
X005424Y007966D01*
X005424Y008066D02*
X004894Y008066D01*
X004894Y008166D02*
X005424Y008166D01*
X005424Y008266D02*
X004894Y008266D01*
X004894Y008366D02*
X005424Y008366D01*
X005424Y008466D02*
X004894Y008466D01*
X004243Y007666D02*
X003713Y007666D01*
X003713Y008510D01*
X004243Y008510D01*
X004243Y007666D01*
X004243Y007766D02*
X003713Y007766D01*
X003713Y007866D02*
X004243Y007866D01*
X004243Y007966D02*
X003713Y007966D01*
X003713Y008066D02*
X004243Y008066D01*
X004243Y008166D02*
X003713Y008166D01*
X003713Y008266D02*
X004243Y008266D01*
X004243Y008366D02*
X003713Y008366D01*
X003713Y008466D02*
X004243Y008466D01*
X004461Y011998D02*
X004675Y011998D01*
X004461Y011998D02*
X004461Y012212D01*
X004675Y012212D01*
X004675Y011998D01*
X004675Y012098D02*
X004461Y012098D01*
X004461Y012198D02*
X004675Y012198D01*
X004675Y012588D02*
X004461Y012588D01*
X004461Y012802D01*
X004675Y012802D01*
X004675Y012588D01*
X004675Y012688D02*
X004461Y012688D01*
X004461Y012788D02*
X004675Y012788D01*
X003925Y012588D02*
X003711Y012588D01*
X003711Y012802D01*
X003925Y012802D01*
X003925Y012588D01*
X003925Y012688D02*
X003711Y012688D01*
X003711Y012788D02*
X003925Y012788D01*
X003925Y011998D02*
X003711Y011998D01*
X003711Y012212D01*
X003925Y012212D01*
X003925Y011998D01*
X003925Y012098D02*
X003711Y012098D01*
X003711Y012198D02*
X003925Y012198D01*
X012961Y011998D02*
X013175Y011998D01*
X012961Y011998D02*
X012961Y012212D01*
X013175Y012212D01*
X013175Y011998D01*
X013175Y012098D02*
X012961Y012098D01*
X012961Y012198D02*
X013175Y012198D01*
X013175Y012588D02*
X012961Y012588D01*
X012961Y012802D01*
X013175Y012802D01*
X013175Y012588D01*
X013175Y012688D02*
X012961Y012688D01*
X012961Y012788D02*
X013175Y012788D01*
X013711Y012588D02*
X013925Y012588D01*
X013711Y012588D02*
X013711Y012802D01*
X013925Y012802D01*
X013925Y012588D01*
X013925Y012688D02*
X013711Y012688D01*
X013711Y012788D02*
X013925Y012788D01*
X013925Y011998D02*
X013711Y011998D01*
X013711Y012212D01*
X013925Y012212D01*
X013925Y011998D01*
X013925Y012098D02*
X013711Y012098D01*
X013711Y012198D02*
X013925Y012198D01*
X014144Y008510D02*
X014674Y008510D01*
X014674Y007666D01*
X014144Y007666D01*
X014144Y008510D01*
X014144Y007766D02*
X014674Y007766D01*
X014674Y007866D02*
X014144Y007866D01*
X014144Y007966D02*
X014674Y007966D01*
X014674Y008066D02*
X014144Y008066D01*
X014144Y008166D02*
X014674Y008166D01*
X014674Y008266D02*
X014144Y008266D01*
X014144Y008366D02*
X014674Y008366D01*
X014674Y008466D02*
X014144Y008466D01*
X013493Y007666D02*
X012963Y007666D01*
X012963Y008510D01*
X013493Y008510D01*
X013493Y007666D01*
X013493Y007766D02*
X012963Y007766D01*
X012963Y007866D02*
X013493Y007866D01*
X013493Y007966D02*
X012963Y007966D01*
X012963Y008066D02*
X013493Y008066D01*
X013493Y008166D02*
X012963Y008166D01*
X012963Y008266D02*
X013493Y008266D01*
X013493Y008366D02*
X012963Y008366D01*
X012963Y008466D02*
X013493Y008466D01*
D13*
X016255Y012443D02*
X016255Y012657D01*
X016273Y012657D01*
X016273Y012443D01*
X016255Y012443D01*
X016255Y012542D02*
X016273Y012542D01*
X016273Y012641D02*
X016255Y012641D01*
X016451Y012657D02*
X016451Y012443D01*
X016451Y012657D02*
X016469Y012657D01*
X016469Y012443D01*
X016451Y012443D01*
X016451Y012542D02*
X016469Y012542D01*
X016469Y012641D02*
X016451Y012641D01*
X016648Y012657D02*
X016648Y012443D01*
X016648Y012657D02*
X016666Y012657D01*
X016666Y012443D01*
X016648Y012443D01*
X016648Y012542D02*
X016666Y012542D01*
X016666Y012641D02*
X016648Y012641D01*
X016845Y012657D02*
X016845Y012443D01*
X016845Y012657D02*
X016863Y012657D01*
X016863Y012443D01*
X016845Y012443D01*
X016845Y012542D02*
X016863Y012542D01*
X016863Y012641D02*
X016845Y012641D01*
X017042Y012657D02*
X017042Y012443D01*
X017042Y012657D02*
X017060Y012657D01*
X017060Y012443D01*
X017042Y012443D01*
X017042Y012542D02*
X017060Y012542D01*
X017060Y012641D02*
X017042Y012641D01*
X017239Y012657D02*
X017239Y012443D01*
X017239Y012657D02*
X017257Y012657D01*
X017257Y012443D01*
X017239Y012443D01*
X017239Y012542D02*
X017257Y012542D01*
X017257Y012641D02*
X017239Y012641D01*
X017436Y012854D02*
X017650Y012854D01*
X017650Y012836D01*
X017436Y012836D01*
X017436Y012854D01*
X017436Y013051D02*
X017650Y013051D01*
X017650Y013033D01*
X017436Y013033D01*
X017436Y013051D01*
X017436Y013248D02*
X017650Y013248D01*
X017650Y013230D01*
X017436Y013230D01*
X017436Y013248D01*
X017436Y013445D02*
X017650Y013445D01*
X017650Y013427D01*
X017436Y013427D01*
X017436Y013445D01*
X017436Y013642D02*
X017650Y013642D01*
X017650Y013624D01*
X017436Y013624D01*
X017436Y013642D01*
X017436Y013839D02*
X017650Y013839D01*
X017650Y013821D01*
X017436Y013821D01*
X017436Y013839D01*
X017257Y014018D02*
X017257Y014232D01*
X017257Y014018D02*
X017239Y014018D01*
X017239Y014232D01*
X017257Y014232D01*
X017257Y014117D02*
X017239Y014117D01*
X017239Y014216D02*
X017257Y014216D01*
X017060Y014232D02*
X017060Y014018D01*
X017042Y014018D01*
X017042Y014232D01*
X017060Y014232D01*
X017060Y014117D02*
X017042Y014117D01*
X017042Y014216D02*
X017060Y014216D01*
X016863Y014232D02*
X016863Y014018D01*
X016845Y014018D01*
X016845Y014232D01*
X016863Y014232D01*
X016863Y014117D02*
X016845Y014117D01*
X016845Y014216D02*
X016863Y014216D01*
X016666Y014232D02*
X016666Y014018D01*
X016648Y014018D01*
X016648Y014232D01*
X016666Y014232D01*
X016666Y014117D02*
X016648Y014117D01*
X016648Y014216D02*
X016666Y014216D01*
X016469Y014232D02*
X016469Y014018D01*
X016451Y014018D01*
X016451Y014232D01*
X016469Y014232D01*
X016469Y014117D02*
X016451Y014117D01*
X016451Y014216D02*
X016469Y014216D01*
X016273Y014232D02*
X016273Y014018D01*
X016255Y014018D01*
X016255Y014232D01*
X016273Y014232D01*
X016273Y014117D02*
X016255Y014117D01*
X016255Y014216D02*
X016273Y014216D01*
X016075Y013821D02*
X015861Y013821D01*
X015861Y013839D01*
X016075Y013839D01*
X016075Y013821D01*
X016075Y013624D02*
X015861Y013624D01*
X015861Y013642D01*
X016075Y013642D01*
X016075Y013624D01*
X016075Y013427D02*
X015861Y013427D01*
X015861Y013445D01*
X016075Y013445D01*
X016075Y013427D01*
X016075Y013230D02*
X015861Y013230D01*
X015861Y013248D01*
X016075Y013248D01*
X016075Y013230D01*
X016075Y013033D02*
X015861Y013033D01*
X015861Y013051D01*
X016075Y013051D01*
X016075Y013033D01*
X016075Y012836D02*
X015861Y012836D01*
X015861Y012854D01*
X016075Y012854D01*
X016075Y012836D01*
X008400Y012854D02*
X008186Y012854D01*
X008400Y012854D02*
X008400Y012836D01*
X008186Y012836D01*
X008186Y012854D01*
X008186Y013051D02*
X008400Y013051D01*
X008400Y013033D01*
X008186Y013033D01*
X008186Y013051D01*
X008186Y013248D02*
X008400Y013248D01*
X008400Y013230D01*
X008186Y013230D01*
X008186Y013248D01*
X008186Y013445D02*
X008400Y013445D01*
X008400Y013427D01*
X008186Y013427D01*
X008186Y013445D01*
X008186Y013642D02*
X008400Y013642D01*
X008400Y013624D01*
X008186Y013624D01*
X008186Y013642D01*
X008186Y013839D02*
X008400Y013839D01*
X008400Y013821D01*
X008186Y013821D01*
X008186Y013839D01*
X008007Y014018D02*
X008007Y014232D01*
X008007Y014018D02*
X007989Y014018D01*
X007989Y014232D01*
X008007Y014232D01*
X008007Y014117D02*
X007989Y014117D01*
X007989Y014216D02*
X008007Y014216D01*
X007810Y014232D02*
X007810Y014018D01*
X007792Y014018D01*
X007792Y014232D01*
X007810Y014232D01*
X007810Y014117D02*
X007792Y014117D01*
X007792Y014216D02*
X007810Y014216D01*
X007613Y014232D02*
X007613Y014018D01*
X007595Y014018D01*
X007595Y014232D01*
X007613Y014232D01*
X007613Y014117D02*
X007595Y014117D01*
X007595Y014216D02*
X007613Y014216D01*
X007416Y014232D02*
X007416Y014018D01*
X007398Y014018D01*
X007398Y014232D01*
X007416Y014232D01*
X007416Y014117D02*
X007398Y014117D01*
X007398Y014216D02*
X007416Y014216D01*
X007219Y014232D02*
X007219Y014018D01*
X007201Y014018D01*
X007201Y014232D01*
X007219Y014232D01*
X007219Y014117D02*
X007201Y014117D01*
X007201Y014216D02*
X007219Y014216D01*
X007023Y014232D02*
X007023Y014018D01*
X007005Y014018D01*
X007005Y014232D01*
X007023Y014232D01*
X007023Y014117D02*
X007005Y014117D01*
X007005Y014216D02*
X007023Y014216D01*
X006825Y013821D02*
X006611Y013821D01*
X006611Y013839D01*
X006825Y013839D01*
X006825Y013821D01*
X006825Y013624D02*
X006611Y013624D01*
X006611Y013642D01*
X006825Y013642D01*
X006825Y013624D01*
X006825Y013427D02*
X006611Y013427D01*
X006611Y013445D01*
X006825Y013445D01*
X006825Y013427D01*
X006825Y013230D02*
X006611Y013230D01*
X006611Y013248D01*
X006825Y013248D01*
X006825Y013230D01*
X006825Y013033D02*
X006611Y013033D01*
X006611Y013051D01*
X006825Y013051D01*
X006825Y013033D01*
X006825Y012836D02*
X006611Y012836D01*
X006611Y012854D01*
X006825Y012854D01*
X006825Y012836D01*
X007005Y012657D02*
X007005Y012443D01*
X007005Y012657D02*
X007023Y012657D01*
X007023Y012443D01*
X007005Y012443D01*
X007005Y012542D02*
X007023Y012542D01*
X007023Y012641D02*
X007005Y012641D01*
X007201Y012657D02*
X007201Y012443D01*
X007201Y012657D02*
X007219Y012657D01*
X007219Y012443D01*
X007201Y012443D01*
X007201Y012542D02*
X007219Y012542D01*
X007219Y012641D02*
X007201Y012641D01*
X007398Y012657D02*
X007398Y012443D01*
X007398Y012657D02*
X007416Y012657D01*
X007416Y012443D01*
X007398Y012443D01*
X007398Y012542D02*
X007416Y012542D01*
X007416Y012641D02*
X007398Y012641D01*
X007595Y012657D02*
X007595Y012443D01*
X007595Y012657D02*
X007613Y012657D01*
X007613Y012443D01*
X007595Y012443D01*
X007595Y012542D02*
X007613Y012542D01*
X007613Y012641D02*
X007595Y012641D01*
X007792Y012657D02*
X007792Y012443D01*
X007792Y012657D02*
X007810Y012657D01*
X007810Y012443D01*
X007792Y012443D01*
X007792Y012542D02*
X007810Y012542D01*
X007810Y012641D02*
X007792Y012641D01*
X007989Y012657D02*
X007989Y012443D01*
X007989Y012657D02*
X008007Y012657D01*
X008007Y012443D01*
X007989Y012443D01*
X007989Y012542D02*
X008007Y012542D01*
X008007Y012641D02*
X007989Y012641D01*
D14*
X009023Y012171D02*
X009319Y012171D01*
X009023Y012171D02*
X009023Y012505D01*
X009319Y012505D01*
X009319Y012171D01*
X009319Y012268D02*
X009023Y012268D01*
X009023Y012365D02*
X009319Y012365D01*
X009319Y012462D02*
X009023Y012462D01*
X009023Y012796D02*
X009319Y012796D01*
X009023Y012796D02*
X009023Y013130D01*
X009319Y013130D01*
X009319Y012796D01*
X009319Y012893D02*
X009023Y012893D01*
X009023Y012990D02*
X009319Y012990D01*
X009319Y013087D02*
X009023Y013087D01*
X009319Y013421D02*
X009319Y013755D01*
X009319Y013421D02*
X009023Y013421D01*
X009023Y013755D01*
X009319Y013755D01*
X009319Y013518D02*
X009023Y013518D01*
X009023Y013615D02*
X009319Y013615D01*
X009319Y013712D02*
X009023Y013712D01*
X009319Y014046D02*
X009319Y014380D01*
X009319Y014046D02*
X009023Y014046D01*
X009023Y014380D01*
X009319Y014380D01*
X009319Y014143D02*
X009023Y014143D01*
X009023Y014240D02*
X009319Y014240D01*
X009319Y014337D02*
X009023Y014337D01*
X009988Y014380D02*
X009988Y014046D01*
X009692Y014046D01*
X009692Y014380D01*
X009988Y014380D01*
X009988Y014143D02*
X009692Y014143D01*
X009692Y014240D02*
X009988Y014240D01*
X009988Y014337D02*
X009692Y014337D01*
X009988Y013755D02*
X009988Y013421D01*
X009692Y013421D01*
X009692Y013755D01*
X009988Y013755D01*
X009988Y013518D02*
X009692Y013518D01*
X009692Y013615D02*
X009988Y013615D01*
X009988Y013712D02*
X009692Y013712D01*
X009692Y012796D02*
X009988Y012796D01*
X009692Y012796D02*
X009692Y013130D01*
X009988Y013130D01*
X009988Y012796D01*
X009988Y012893D02*
X009692Y012893D01*
X009692Y012990D02*
X009988Y012990D01*
X009988Y013087D02*
X009692Y013087D01*
X009692Y012171D02*
X009988Y012171D01*
X009692Y012171D02*
X009692Y012505D01*
X009988Y012505D01*
X009988Y012171D01*
X009988Y012268D02*
X009692Y012268D01*
X009692Y012365D02*
X009988Y012365D01*
X009988Y012462D02*
X009692Y012462D01*
X009988Y010880D02*
X009988Y010546D01*
X009692Y010546D01*
X009692Y010880D01*
X009988Y010880D01*
X009988Y010643D02*
X009692Y010643D01*
X009692Y010740D02*
X009988Y010740D01*
X009988Y010837D02*
X009692Y010837D01*
X009319Y010880D02*
X009319Y010546D01*
X009023Y010546D01*
X009023Y010880D01*
X009319Y010880D01*
X009319Y010643D02*
X009023Y010643D01*
X009023Y010740D02*
X009319Y010740D01*
X009319Y010837D02*
X009023Y010837D01*
X008483Y010312D02*
X008187Y010312D01*
X008187Y010116D02*
X008483Y010116D01*
X008483Y009919D02*
X008187Y009919D01*
X008187Y009722D02*
X008483Y009722D01*
X008483Y009525D02*
X008187Y009525D01*
X008187Y009328D02*
X008483Y009328D01*
X008483Y009131D02*
X008187Y009131D01*
X008187Y008934D02*
X008483Y008934D01*
X009023Y009192D02*
X009319Y009192D01*
X009319Y008858D01*
X009023Y008858D01*
X009023Y009192D01*
X009023Y008955D02*
X009319Y008955D01*
X009319Y009052D02*
X009023Y009052D01*
X009023Y009149D02*
X009319Y009149D01*
X009692Y009192D02*
X009988Y009192D01*
X009988Y008858D01*
X009692Y008858D01*
X009692Y009192D01*
X009692Y008955D02*
X009988Y008955D01*
X009988Y009052D02*
X009692Y009052D01*
X009692Y009149D02*
X009988Y009149D01*
X009988Y008567D02*
X009988Y008233D01*
X009692Y008233D01*
X009692Y008567D01*
X009988Y008567D01*
X009988Y008330D02*
X009692Y008330D01*
X009692Y008427D02*
X009988Y008427D01*
X009988Y008524D02*
X009692Y008524D01*
X009319Y008567D02*
X009319Y008233D01*
X009023Y008233D01*
X009023Y008567D01*
X009319Y008567D01*
X009319Y008330D02*
X009023Y008330D01*
X009023Y008427D02*
X009319Y008427D01*
X009319Y008524D02*
X009023Y008524D01*
X007981Y008531D02*
X007981Y008235D01*
X007784Y008235D02*
X007784Y008531D01*
X007587Y008531D02*
X007587Y008235D01*
X007390Y008235D02*
X007390Y008531D01*
X007193Y008531D02*
X007193Y008235D01*
X006996Y008235D02*
X006996Y008531D01*
X006799Y008531D02*
X006799Y008235D01*
X006603Y008235D02*
X006603Y008531D01*
X006406Y008531D02*
X006406Y008235D01*
X006199Y008738D02*
X005903Y008738D01*
X005903Y008934D02*
X006199Y008934D01*
X006199Y009131D02*
X005903Y009131D01*
X005903Y009328D02*
X006199Y009328D01*
X006199Y009525D02*
X005903Y009525D01*
X005903Y009722D02*
X006199Y009722D01*
X006199Y009919D02*
X005903Y009919D01*
X005903Y010116D02*
X006199Y010116D01*
X006199Y010312D02*
X005903Y010312D01*
X006406Y010519D02*
X006406Y010815D01*
X006603Y010815D02*
X006603Y010519D01*
X006799Y010519D02*
X006799Y010815D01*
X006996Y010815D02*
X006996Y010519D01*
X007193Y010519D02*
X007193Y010815D01*
X007390Y010815D02*
X007390Y010519D01*
X007587Y010519D02*
X007587Y010815D01*
X007784Y010815D02*
X007784Y010519D01*
X007981Y010519D02*
X007981Y010815D01*
X006113Y012192D02*
X005817Y012192D01*
X006113Y012192D02*
X006113Y011858D01*
X005817Y011858D01*
X005817Y012192D01*
X005817Y011955D02*
X006113Y011955D01*
X006113Y012052D02*
X005817Y012052D01*
X005817Y012149D02*
X006113Y012149D01*
X006113Y012817D02*
X005817Y012817D01*
X006113Y012817D02*
X006113Y012483D01*
X005817Y012483D01*
X005817Y012817D01*
X005817Y012580D02*
X006113Y012580D01*
X006113Y012677D02*
X005817Y012677D01*
X005817Y012774D02*
X006113Y012774D01*
X006113Y013442D02*
X005817Y013442D01*
X006113Y013442D02*
X006113Y013108D01*
X005817Y013108D01*
X005817Y013442D01*
X005817Y013205D02*
X006113Y013205D01*
X006113Y013302D02*
X005817Y013302D01*
X005817Y013399D02*
X006113Y013399D01*
X005817Y013733D02*
X005817Y014067D01*
X006113Y014067D01*
X006113Y013733D01*
X005817Y013733D01*
X005817Y013830D02*
X006113Y013830D01*
X006113Y013927D02*
X005817Y013927D01*
X005817Y014024D02*
X006113Y014024D01*
X005148Y014067D02*
X005148Y013733D01*
X005148Y014067D02*
X005444Y014067D01*
X005444Y013733D01*
X005148Y013733D01*
X005148Y013830D02*
X005444Y013830D01*
X005444Y013927D02*
X005148Y013927D01*
X005148Y014024D02*
X005444Y014024D01*
X005444Y013442D02*
X005148Y013442D01*
X005444Y013442D02*
X005444Y013108D01*
X005148Y013108D01*
X005148Y013442D01*
X005148Y013205D02*
X005444Y013205D01*
X005444Y013302D02*
X005148Y013302D01*
X005148Y013399D02*
X005444Y013399D01*
X005444Y012817D02*
X005148Y012817D01*
X005444Y012817D02*
X005444Y012483D01*
X005148Y012483D01*
X005148Y012817D01*
X005148Y012580D02*
X005444Y012580D01*
X005444Y012677D02*
X005148Y012677D01*
X005148Y012774D02*
X005444Y012774D01*
X005444Y012192D02*
X005148Y012192D01*
X005444Y012192D02*
X005444Y011858D01*
X005148Y011858D01*
X005148Y012192D01*
X005148Y011955D02*
X005444Y011955D01*
X005444Y012052D02*
X005148Y012052D01*
X005148Y012149D02*
X005444Y012149D01*
X004676Y011630D02*
X004380Y011630D01*
X004676Y011630D02*
X004676Y011296D01*
X004380Y011296D01*
X004380Y011630D01*
X004380Y011393D02*
X004676Y011393D01*
X004676Y011490D02*
X004380Y011490D01*
X004380Y011587D02*
X004676Y011587D01*
X004007Y011630D02*
X003711Y011630D01*
X004007Y011630D02*
X004007Y011296D01*
X003711Y011296D01*
X003711Y011630D01*
X003711Y011393D02*
X004007Y011393D01*
X004007Y011490D02*
X003711Y011490D01*
X003711Y011587D02*
X004007Y011587D01*
X003711Y010880D02*
X003711Y010546D01*
X003711Y010880D02*
X004007Y010880D01*
X004007Y010546D01*
X003711Y010546D01*
X003711Y010643D02*
X004007Y010643D01*
X004007Y010740D02*
X003711Y010740D01*
X003711Y010837D02*
X004007Y010837D01*
X004380Y010880D02*
X004380Y010546D01*
X004380Y010880D02*
X004676Y010880D01*
X004676Y010546D01*
X004380Y010546D01*
X004380Y010643D02*
X004676Y010643D01*
X004676Y010740D02*
X004380Y010740D01*
X004380Y010837D02*
X004676Y010837D01*
X004461Y007255D02*
X004461Y006921D01*
X004461Y007255D02*
X004757Y007255D01*
X004757Y006921D01*
X004461Y006921D01*
X004461Y007018D02*
X004757Y007018D01*
X004757Y007115D02*
X004461Y007115D01*
X004461Y007212D02*
X004757Y007212D01*
X005130Y007255D02*
X005130Y006921D01*
X005130Y007255D02*
X005426Y007255D01*
X005426Y006921D01*
X005130Y006921D01*
X005130Y007018D02*
X005426Y007018D01*
X005426Y007115D02*
X005130Y007115D01*
X005130Y007212D02*
X005426Y007212D01*
X012961Y010546D02*
X012961Y010880D01*
X013257Y010880D01*
X013257Y010546D01*
X012961Y010546D01*
X012961Y010643D02*
X013257Y010643D01*
X013257Y010740D02*
X012961Y010740D01*
X012961Y010837D02*
X013257Y010837D01*
X013630Y010880D02*
X013630Y010546D01*
X013630Y010880D02*
X013926Y010880D01*
X013926Y010546D01*
X013630Y010546D01*
X013630Y010643D02*
X013926Y010643D01*
X013926Y010740D02*
X013630Y010740D01*
X013630Y010837D02*
X013926Y010837D01*
X013926Y011630D02*
X013630Y011630D01*
X013926Y011630D02*
X013926Y011296D01*
X013630Y011296D01*
X013630Y011630D01*
X013630Y011393D02*
X013926Y011393D01*
X013926Y011490D02*
X013630Y011490D01*
X013630Y011587D02*
X013926Y011587D01*
X014398Y012192D02*
X014694Y012192D01*
X014694Y011858D01*
X014398Y011858D01*
X014398Y012192D01*
X014398Y011955D02*
X014694Y011955D01*
X014694Y012052D02*
X014398Y012052D01*
X014398Y012149D02*
X014694Y012149D01*
X014694Y012817D02*
X014398Y012817D01*
X014694Y012817D02*
X014694Y012483D01*
X014398Y012483D01*
X014398Y012817D01*
X014398Y012580D02*
X014694Y012580D01*
X014694Y012677D02*
X014398Y012677D01*
X014398Y012774D02*
X014694Y012774D01*
X014694Y013442D02*
X014398Y013442D01*
X014694Y013442D02*
X014694Y013108D01*
X014398Y013108D01*
X014398Y013442D01*
X014398Y013205D02*
X014694Y013205D01*
X014694Y013302D02*
X014398Y013302D01*
X014398Y013399D02*
X014694Y013399D01*
X014398Y013733D02*
X014398Y014067D01*
X014694Y014067D01*
X014694Y013733D01*
X014398Y013733D01*
X014398Y013830D02*
X014694Y013830D01*
X014694Y013927D02*
X014398Y013927D01*
X014398Y014024D02*
X014694Y014024D01*
X015067Y014067D02*
X015067Y013733D01*
X015067Y014067D02*
X015363Y014067D01*
X015363Y013733D01*
X015067Y013733D01*
X015067Y013830D02*
X015363Y013830D01*
X015363Y013927D02*
X015067Y013927D01*
X015067Y014024D02*
X015363Y014024D01*
X015363Y013442D02*
X015067Y013442D01*
X015363Y013442D02*
X015363Y013108D01*
X015067Y013108D01*
X015067Y013442D01*
X015067Y013205D02*
X015363Y013205D01*
X015363Y013302D02*
X015067Y013302D01*
X015067Y013399D02*
X015363Y013399D01*
X015363Y012817D02*
X015067Y012817D01*
X015363Y012817D02*
X015363Y012483D01*
X015067Y012483D01*
X015067Y012817D01*
X015067Y012580D02*
X015363Y012580D01*
X015363Y012677D02*
X015067Y012677D01*
X015067Y012774D02*
X015363Y012774D01*
X015363Y012192D02*
X015067Y012192D01*
X015363Y012192D02*
X015363Y011858D01*
X015067Y011858D01*
X015067Y012192D01*
X015067Y011955D02*
X015363Y011955D01*
X015363Y012052D02*
X015067Y012052D01*
X015067Y012149D02*
X015363Y012149D01*
X015656Y010815D02*
X015656Y010519D01*
X015853Y010519D02*
X015853Y010815D01*
X016049Y010815D02*
X016049Y010519D01*
X016246Y010519D02*
X016246Y010815D01*
X016443Y010815D02*
X016443Y010519D01*
X016640Y010519D02*
X016640Y010815D01*
X016837Y010815D02*
X016837Y010519D01*
X017034Y010519D02*
X017034Y010815D01*
X017231Y010815D02*
X017231Y010519D01*
X017437Y010312D02*
X017733Y010312D01*
X017733Y010116D02*
X017437Y010116D01*
X017437Y009919D02*
X017733Y009919D01*
X017733Y009722D02*
X017437Y009722D01*
X017437Y009525D02*
X017733Y009525D01*
X017733Y009328D02*
X017437Y009328D01*
X017437Y009131D02*
X017733Y009131D01*
X017733Y008934D02*
X017437Y008934D01*
X017231Y008531D02*
X017231Y008235D01*
X017034Y008235D02*
X017034Y008531D01*
X016837Y008531D02*
X016837Y008235D01*
X016640Y008235D02*
X016640Y008531D01*
X016443Y008531D02*
X016443Y008235D01*
X016246Y008235D02*
X016246Y008531D01*
X016049Y008531D02*
X016049Y008235D01*
X015853Y008235D02*
X015853Y008531D01*
X015656Y008531D02*
X015656Y008235D01*
X015449Y008738D02*
X015153Y008738D01*
X015153Y008934D02*
X015449Y008934D01*
X015449Y009131D02*
X015153Y009131D01*
X015153Y009328D02*
X015449Y009328D01*
X015449Y009525D02*
X015153Y009525D01*
X015153Y009722D02*
X015449Y009722D01*
X015449Y009919D02*
X015153Y009919D01*
X015153Y010116D02*
X015449Y010116D01*
X015449Y010312D02*
X015153Y010312D01*
X013257Y011630D02*
X012961Y011630D01*
X013257Y011630D02*
X013257Y011296D01*
X012961Y011296D01*
X012961Y011630D01*
X012961Y011393D02*
X013257Y011393D01*
X013257Y011490D02*
X012961Y011490D01*
X012961Y011587D02*
X013257Y011587D01*
X013711Y007255D02*
X013711Y006921D01*
X013711Y007255D02*
X014007Y007255D01*
X014007Y006921D01*
X013711Y006921D01*
X013711Y007018D02*
X014007Y007018D01*
X014007Y007115D02*
X013711Y007115D01*
X013711Y007212D02*
X014007Y007212D01*
X014380Y007255D02*
X014380Y006921D01*
X014380Y007255D02*
X014676Y007255D01*
X014676Y006921D01*
X014380Y006921D01*
X014380Y007018D02*
X014676Y007018D01*
X014676Y007115D02*
X014380Y007115D01*
X014380Y007212D02*
X014676Y007212D01*
X018569Y008233D02*
X018569Y008567D01*
X018569Y008233D02*
X018273Y008233D01*
X018273Y008567D01*
X018569Y008567D01*
X018569Y008330D02*
X018273Y008330D01*
X018273Y008427D02*
X018569Y008427D01*
X018569Y008524D02*
X018273Y008524D01*
X018273Y009192D02*
X018569Y009192D01*
X018569Y008858D01*
X018273Y008858D01*
X018273Y009192D01*
X018273Y008955D02*
X018569Y008955D01*
X018569Y009052D02*
X018273Y009052D01*
X018273Y009149D02*
X018569Y009149D01*
X018942Y009192D02*
X019238Y009192D01*
X019238Y008858D01*
X018942Y008858D01*
X018942Y009192D01*
X018942Y008955D02*
X019238Y008955D01*
X019238Y009052D02*
X018942Y009052D01*
X018942Y009149D02*
X019238Y009149D01*
X019238Y008567D02*
X019238Y008233D01*
X018942Y008233D01*
X018942Y008567D01*
X019238Y008567D01*
X019238Y008330D02*
X018942Y008330D01*
X018942Y008427D02*
X019238Y008427D01*
X019238Y008524D02*
X018942Y008524D01*
X019238Y010546D02*
X019238Y010880D01*
X019238Y010546D02*
X018942Y010546D01*
X018942Y010880D01*
X019238Y010880D01*
X019238Y010643D02*
X018942Y010643D01*
X018942Y010740D02*
X019238Y010740D01*
X019238Y010837D02*
X018942Y010837D01*
X018569Y010880D02*
X018569Y010546D01*
X018273Y010546D01*
X018273Y010880D01*
X018569Y010880D01*
X018569Y010643D02*
X018273Y010643D01*
X018273Y010740D02*
X018569Y010740D01*
X018569Y010837D02*
X018273Y010837D01*
X018273Y012171D02*
X018569Y012171D01*
X018273Y012171D02*
X018273Y012505D01*
X018569Y012505D01*
X018569Y012171D01*
X018569Y012268D02*
X018273Y012268D01*
X018273Y012365D02*
X018569Y012365D01*
X018569Y012462D02*
X018273Y012462D01*
X018273Y012796D02*
X018569Y012796D01*
X018273Y012796D02*
X018273Y013130D01*
X018569Y013130D01*
X018569Y012796D01*
X018569Y012893D02*
X018273Y012893D01*
X018273Y012990D02*
X018569Y012990D01*
X018569Y013087D02*
X018273Y013087D01*
X018569Y013421D02*
X018569Y013755D01*
X018569Y013421D02*
X018273Y013421D01*
X018273Y013755D01*
X018569Y013755D01*
X018569Y013518D02*
X018273Y013518D01*
X018273Y013615D02*
X018569Y013615D01*
X018569Y013712D02*
X018273Y013712D01*
X018569Y014046D02*
X018569Y014380D01*
X018569Y014046D02*
X018273Y014046D01*
X018273Y014380D01*
X018569Y014380D01*
X018569Y014143D02*
X018273Y014143D01*
X018273Y014240D02*
X018569Y014240D01*
X018569Y014337D02*
X018273Y014337D01*
X019238Y014380D02*
X019238Y014046D01*
X018942Y014046D01*
X018942Y014380D01*
X019238Y014380D01*
X019238Y014143D02*
X018942Y014143D01*
X018942Y014240D02*
X019238Y014240D01*
X019238Y014337D02*
X018942Y014337D01*
X019238Y013755D02*
X019238Y013421D01*
X018942Y013421D01*
X018942Y013755D01*
X019238Y013755D01*
X019238Y013518D02*
X018942Y013518D01*
X018942Y013615D02*
X019238Y013615D01*
X019238Y013712D02*
X018942Y013712D01*
X018942Y012796D02*
X019238Y012796D01*
X018942Y012796D02*
X018942Y013130D01*
X019238Y013130D01*
X019238Y012796D01*
X019238Y012893D02*
X018942Y012893D01*
X018942Y012990D02*
X019238Y012990D01*
X019238Y013087D02*
X018942Y013087D01*
X018942Y012171D02*
X019238Y012171D01*
X018942Y012171D02*
X018942Y012505D01*
X019238Y012505D01*
X019238Y012171D01*
X019238Y012268D02*
X018942Y012268D01*
X018942Y012365D02*
X019238Y012365D01*
X019238Y012462D02*
X018942Y012462D01*
D15*
X013957Y010020D02*
X013957Y009904D01*
X013957Y010020D02*
X014329Y010020D01*
X014329Y009904D01*
X013957Y009904D01*
X013957Y010003D02*
X014329Y010003D01*
X013957Y009271D02*
X013957Y009155D01*
X013957Y009271D02*
X014329Y009271D01*
X014329Y009155D01*
X013957Y009155D01*
X013957Y009254D02*
X014329Y009254D01*
X012933Y009271D02*
X012933Y009155D01*
X012933Y009271D02*
X013305Y009271D01*
X013305Y009155D01*
X012933Y009155D01*
X012933Y009254D02*
X013305Y009254D01*
X012933Y009530D02*
X012933Y009646D01*
X013305Y009646D01*
X013305Y009530D01*
X012933Y009530D01*
X012933Y009629D02*
X013305Y009629D01*
X012933Y009904D02*
X012933Y010020D01*
X013305Y010020D01*
X013305Y009904D01*
X012933Y009904D01*
X012933Y010003D02*
X013305Y010003D01*
X004707Y009904D02*
X004707Y010020D01*
X005079Y010020D01*
X005079Y009904D01*
X004707Y009904D01*
X004707Y010003D02*
X005079Y010003D01*
X004707Y009271D02*
X004707Y009155D01*
X004707Y009271D02*
X005079Y009271D01*
X005079Y009155D01*
X004707Y009155D01*
X004707Y009254D02*
X005079Y009254D01*
X003683Y009271D02*
X003683Y009155D01*
X003683Y009271D02*
X004055Y009271D01*
X004055Y009155D01*
X003683Y009155D01*
X003683Y009254D02*
X004055Y009254D01*
X003683Y009530D02*
X003683Y009646D01*
X004055Y009646D01*
X004055Y009530D01*
X003683Y009530D01*
X003683Y009629D02*
X004055Y009629D01*
X003683Y009904D02*
X003683Y010020D01*
X004055Y010020D01*
X004055Y009904D01*
X003683Y009904D01*
X003683Y010003D02*
X004055Y010003D01*
D16*
X008188Y008741D02*
X008482Y008741D01*
X008482Y008735D01*
X008188Y008735D01*
X008188Y008741D01*
X017438Y008741D02*
X017732Y008741D01*
X017732Y008735D01*
X017438Y008735D01*
X017438Y008741D01*
D17*
X016978Y007003D02*
X016840Y007003D01*
X016840Y007515D01*
X016978Y007515D01*
X016978Y007003D01*
X016978Y007101D02*
X016840Y007101D01*
X016840Y007199D02*
X016978Y007199D01*
X016978Y007297D02*
X016840Y007297D01*
X016840Y007395D02*
X016978Y007395D01*
X016978Y007493D02*
X016840Y007493D01*
X016584Y007003D02*
X016446Y007003D01*
X016446Y007515D01*
X016584Y007515D01*
X016584Y007003D01*
X016584Y007101D02*
X016446Y007101D01*
X016446Y007199D02*
X016584Y007199D01*
X016584Y007297D02*
X016446Y007297D01*
X016446Y007395D02*
X016584Y007395D01*
X016584Y007493D02*
X016446Y007493D01*
X016190Y007003D02*
X016052Y007003D01*
X016052Y007515D01*
X016190Y007515D01*
X016190Y007003D01*
X016190Y007101D02*
X016052Y007101D01*
X016052Y007199D02*
X016190Y007199D01*
X016190Y007297D02*
X016052Y007297D01*
X016052Y007395D02*
X016190Y007395D01*
X016190Y007493D02*
X016052Y007493D01*
X015797Y007003D02*
X015659Y007003D01*
X015659Y007515D01*
X015797Y007515D01*
X015797Y007003D01*
X015797Y007101D02*
X015659Y007101D01*
X015659Y007199D02*
X015797Y007199D01*
X015797Y007297D02*
X015659Y007297D01*
X015659Y007395D02*
X015797Y007395D01*
X015797Y007493D02*
X015659Y007493D01*
X015403Y005428D02*
X015029Y005428D01*
X015029Y006038D01*
X015403Y006038D01*
X015403Y005428D01*
X015403Y005526D02*
X015029Y005526D01*
X015029Y005624D02*
X015403Y005624D01*
X015403Y005722D02*
X015029Y005722D01*
X015029Y005820D02*
X015403Y005820D01*
X015403Y005918D02*
X015029Y005918D01*
X015029Y006016D02*
X015403Y006016D01*
X017234Y005428D02*
X017608Y005428D01*
X017234Y005428D02*
X017234Y006038D01*
X017608Y006038D01*
X017608Y005428D01*
X017608Y005526D02*
X017234Y005526D01*
X017234Y005624D02*
X017608Y005624D01*
X017608Y005722D02*
X017234Y005722D01*
X017234Y005820D02*
X017608Y005820D01*
X017608Y005918D02*
X017234Y005918D01*
X017234Y006016D02*
X017608Y006016D01*
X015101Y011272D02*
X014923Y011272D01*
X014923Y011528D01*
X015101Y011528D01*
X015101Y011272D01*
X015101Y011370D02*
X014923Y011370D01*
X014923Y011468D02*
X015101Y011468D01*
X014589Y011272D02*
X014411Y011272D01*
X014411Y011528D01*
X014589Y011528D01*
X014589Y011272D01*
X014589Y011370D02*
X014411Y011370D01*
X014411Y011468D02*
X014589Y011468D01*
X015723Y011903D02*
X015901Y011903D01*
X015901Y011647D01*
X015723Y011647D01*
X015723Y011903D01*
X015723Y011745D02*
X015901Y011745D01*
X015901Y011843D02*
X015723Y011843D01*
X016235Y011903D02*
X016413Y011903D01*
X016413Y011647D01*
X016235Y011647D01*
X016235Y011903D01*
X016235Y011745D02*
X016413Y011745D01*
X016413Y011843D02*
X016235Y011843D01*
X016819Y011935D02*
X016997Y011935D01*
X016997Y011365D01*
X016819Y011365D01*
X016819Y011935D01*
X016819Y011463D02*
X016997Y011463D01*
X016997Y011561D02*
X016819Y011561D01*
X016819Y011659D02*
X016997Y011659D01*
X016997Y011757D02*
X016819Y011757D01*
X016819Y011855D02*
X016997Y011855D01*
X017292Y011935D02*
X017470Y011935D01*
X017470Y011365D01*
X017292Y011365D01*
X017292Y011935D01*
X017292Y011463D02*
X017470Y011463D01*
X017470Y011561D02*
X017292Y011561D01*
X017292Y011659D02*
X017470Y011659D01*
X017470Y011757D02*
X017292Y011757D01*
X017292Y011855D02*
X017470Y011855D01*
X017764Y011935D02*
X017942Y011935D01*
X017942Y011365D01*
X017764Y011365D01*
X017764Y011935D01*
X017764Y011463D02*
X017942Y011463D01*
X017942Y011561D02*
X017764Y011561D01*
X017764Y011659D02*
X017942Y011659D01*
X017942Y011757D02*
X017764Y011757D01*
X017764Y011855D02*
X017942Y011855D01*
X008692Y011935D02*
X008514Y011935D01*
X008692Y011935D02*
X008692Y011365D01*
X008514Y011365D01*
X008514Y011935D01*
X008514Y011463D02*
X008692Y011463D01*
X008692Y011561D02*
X008514Y011561D01*
X008514Y011659D02*
X008692Y011659D01*
X008692Y011757D02*
X008514Y011757D01*
X008514Y011855D02*
X008692Y011855D01*
X008220Y011935D02*
X008042Y011935D01*
X008220Y011935D02*
X008220Y011365D01*
X008042Y011365D01*
X008042Y011935D01*
X008042Y011463D02*
X008220Y011463D01*
X008220Y011561D02*
X008042Y011561D01*
X008042Y011659D02*
X008220Y011659D01*
X008220Y011757D02*
X008042Y011757D01*
X008042Y011855D02*
X008220Y011855D01*
X007747Y011935D02*
X007569Y011935D01*
X007747Y011935D02*
X007747Y011365D01*
X007569Y011365D01*
X007569Y011935D01*
X007569Y011463D02*
X007747Y011463D01*
X007747Y011561D02*
X007569Y011561D01*
X007569Y011659D02*
X007747Y011659D01*
X007747Y011757D02*
X007569Y011757D01*
X007569Y011855D02*
X007747Y011855D01*
X007163Y011903D02*
X006985Y011903D01*
X007163Y011903D02*
X007163Y011647D01*
X006985Y011647D01*
X006985Y011903D01*
X006985Y011745D02*
X007163Y011745D01*
X007163Y011843D02*
X006985Y011843D01*
X006651Y011903D02*
X006473Y011903D01*
X006651Y011903D02*
X006651Y011647D01*
X006473Y011647D01*
X006473Y011903D01*
X006473Y011745D02*
X006651Y011745D01*
X006651Y011843D02*
X006473Y011843D01*
X005851Y011272D02*
X005673Y011272D01*
X005673Y011528D01*
X005851Y011528D01*
X005851Y011272D01*
X005851Y011370D02*
X005673Y011370D01*
X005673Y011468D02*
X005851Y011468D01*
X005339Y011272D02*
X005161Y011272D01*
X005161Y011528D01*
X005339Y011528D01*
X005339Y011272D01*
X005339Y011370D02*
X005161Y011370D01*
X005161Y011468D02*
X005339Y011468D01*
X006409Y007003D02*
X006547Y007003D01*
X006409Y007003D02*
X006409Y007515D01*
X006547Y007515D01*
X006547Y007003D01*
X006547Y007101D02*
X006409Y007101D01*
X006409Y007199D02*
X006547Y007199D01*
X006547Y007297D02*
X006409Y007297D01*
X006409Y007395D02*
X006547Y007395D01*
X006547Y007493D02*
X006409Y007493D01*
X006802Y007003D02*
X006940Y007003D01*
X006802Y007003D02*
X006802Y007515D01*
X006940Y007515D01*
X006940Y007003D01*
X006940Y007101D02*
X006802Y007101D01*
X006802Y007199D02*
X006940Y007199D01*
X006940Y007297D02*
X006802Y007297D01*
X006802Y007395D02*
X006940Y007395D01*
X006940Y007493D02*
X006802Y007493D01*
X007196Y007003D02*
X007334Y007003D01*
X007196Y007003D02*
X007196Y007515D01*
X007334Y007515D01*
X007334Y007003D01*
X007334Y007101D02*
X007196Y007101D01*
X007196Y007199D02*
X007334Y007199D01*
X007334Y007297D02*
X007196Y007297D01*
X007196Y007395D02*
X007334Y007395D01*
X007334Y007493D02*
X007196Y007493D01*
X007590Y007003D02*
X007728Y007003D01*
X007590Y007003D02*
X007590Y007515D01*
X007728Y007515D01*
X007728Y007003D01*
X007728Y007101D02*
X007590Y007101D01*
X007590Y007199D02*
X007728Y007199D01*
X007728Y007297D02*
X007590Y007297D01*
X007590Y007395D02*
X007728Y007395D01*
X007728Y007493D02*
X007590Y007493D01*
X007984Y005428D02*
X008358Y005428D01*
X007984Y005428D02*
X007984Y006038D01*
X008358Y006038D01*
X008358Y005428D01*
X008358Y005526D02*
X007984Y005526D01*
X007984Y005624D02*
X008358Y005624D01*
X008358Y005722D02*
X007984Y005722D01*
X007984Y005820D02*
X008358Y005820D01*
X008358Y005918D02*
X007984Y005918D01*
X007984Y006016D02*
X008358Y006016D01*
X006153Y005428D02*
X005779Y005428D01*
X005779Y006038D01*
X006153Y006038D01*
X006153Y005428D01*
X006153Y005526D02*
X005779Y005526D01*
X005779Y005624D02*
X006153Y005624D01*
X006153Y005722D02*
X005779Y005722D01*
X005779Y005820D02*
X006153Y005820D01*
X006153Y005918D02*
X005779Y005918D01*
X005779Y006016D02*
X006153Y006016D01*
M02*
