G75*
%MOIN*%
%OFA0B0*%
%FSLAX24Y24*%
%IPPOS*%
%LPD*%
%AMOC8*
5,1,8,0,0,1.08239X$1,22.5*
%
%ADD10C,0.0000*%
%ADD11C,0.0101*%
%ADD12C,0.0100*%
%ADD13C,0.0098*%
%ADD14C,0.0124*%
%ADD15C,0.0100*%
D10*
X003149Y002980D02*
X003149Y009279D01*
X003148Y009279D02*
X003150Y009318D01*
X003156Y009356D01*
X003165Y009393D01*
X003178Y009430D01*
X003195Y009465D01*
X003214Y009498D01*
X003237Y009529D01*
X003263Y009558D01*
X003292Y009584D01*
X003323Y009607D01*
X003356Y009626D01*
X003391Y009643D01*
X003428Y009656D01*
X003465Y009665D01*
X003503Y009671D01*
X003542Y009673D01*
X003540Y009670D02*
X004560Y009670D01*
X004565Y009670D02*
X004618Y009673D01*
X004672Y009679D01*
X004724Y009689D01*
X004776Y009703D01*
X004826Y009721D01*
X004876Y009742D01*
X004923Y009767D01*
X004969Y009795D01*
X005012Y009826D01*
X005054Y009860D01*
X005092Y009897D01*
X005128Y009936D01*
X005161Y009979D01*
X005191Y010023D01*
X005218Y010069D01*
X005241Y010118D01*
X005261Y010167D01*
X005277Y010218D01*
X005290Y010270D01*
X005299Y010323D01*
X005304Y010376D01*
X005305Y010430D01*
X005421Y010930D02*
X005423Y010957D01*
X005429Y010984D01*
X005438Y011010D01*
X005451Y011034D01*
X005467Y011057D01*
X005486Y011076D01*
X005508Y011093D01*
X005532Y011107D01*
X005557Y011117D01*
X005584Y011124D01*
X005611Y011127D01*
X005639Y011126D01*
X005666Y011121D01*
X005692Y011113D01*
X005716Y011101D01*
X005739Y011085D01*
X005760Y011067D01*
X005777Y011046D01*
X005792Y011022D01*
X005803Y010997D01*
X005811Y010971D01*
X005815Y010944D01*
X005815Y010916D01*
X005811Y010889D01*
X005803Y010863D01*
X005792Y010838D01*
X005777Y010814D01*
X005760Y010793D01*
X005739Y010775D01*
X005717Y010759D01*
X005692Y010747D01*
X005666Y010739D01*
X005639Y010734D01*
X005611Y010733D01*
X005584Y010736D01*
X005557Y010743D01*
X005532Y010753D01*
X005508Y010767D01*
X005486Y010784D01*
X005467Y010803D01*
X005451Y010826D01*
X005438Y010850D01*
X005429Y010876D01*
X005423Y010903D01*
X005421Y010930D01*
X005983Y010930D02*
X005985Y010957D01*
X005991Y010984D01*
X006000Y011010D01*
X006013Y011034D01*
X006029Y011057D01*
X006048Y011076D01*
X006070Y011093D01*
X006094Y011107D01*
X006119Y011117D01*
X006146Y011124D01*
X006173Y011127D01*
X006201Y011126D01*
X006228Y011121D01*
X006254Y011113D01*
X006278Y011101D01*
X006301Y011085D01*
X006322Y011067D01*
X006339Y011046D01*
X006354Y011022D01*
X006365Y010997D01*
X006373Y010971D01*
X006377Y010944D01*
X006377Y010916D01*
X006373Y010889D01*
X006365Y010863D01*
X006354Y010838D01*
X006339Y010814D01*
X006322Y010793D01*
X006301Y010775D01*
X006279Y010759D01*
X006254Y010747D01*
X006228Y010739D01*
X006201Y010734D01*
X006173Y010733D01*
X006146Y010736D01*
X006119Y010743D01*
X006094Y010753D01*
X006070Y010767D01*
X006048Y010784D01*
X006029Y010803D01*
X006013Y010826D01*
X006000Y010850D01*
X005991Y010876D01*
X005985Y010903D01*
X005983Y010930D01*
X006546Y010930D02*
X006548Y010957D01*
X006554Y010984D01*
X006563Y011010D01*
X006576Y011034D01*
X006592Y011057D01*
X006611Y011076D01*
X006633Y011093D01*
X006657Y011107D01*
X006682Y011117D01*
X006709Y011124D01*
X006736Y011127D01*
X006764Y011126D01*
X006791Y011121D01*
X006817Y011113D01*
X006841Y011101D01*
X006864Y011085D01*
X006885Y011067D01*
X006902Y011046D01*
X006917Y011022D01*
X006928Y010997D01*
X006936Y010971D01*
X006940Y010944D01*
X006940Y010916D01*
X006936Y010889D01*
X006928Y010863D01*
X006917Y010838D01*
X006902Y010814D01*
X006885Y010793D01*
X006864Y010775D01*
X006842Y010759D01*
X006817Y010747D01*
X006791Y010739D01*
X006764Y010734D01*
X006736Y010733D01*
X006709Y010736D01*
X006682Y010743D01*
X006657Y010753D01*
X006633Y010767D01*
X006611Y010784D01*
X006592Y010803D01*
X006576Y010826D01*
X006563Y010850D01*
X006554Y010876D01*
X006548Y010903D01*
X006546Y010930D01*
X006546Y009930D02*
X006548Y009957D01*
X006554Y009984D01*
X006563Y010010D01*
X006576Y010034D01*
X006592Y010057D01*
X006611Y010076D01*
X006633Y010093D01*
X006657Y010107D01*
X006682Y010117D01*
X006709Y010124D01*
X006736Y010127D01*
X006764Y010126D01*
X006791Y010121D01*
X006817Y010113D01*
X006841Y010101D01*
X006864Y010085D01*
X006885Y010067D01*
X006902Y010046D01*
X006917Y010022D01*
X006928Y009997D01*
X006936Y009971D01*
X006940Y009944D01*
X006940Y009916D01*
X006936Y009889D01*
X006928Y009863D01*
X006917Y009838D01*
X006902Y009814D01*
X006885Y009793D01*
X006864Y009775D01*
X006842Y009759D01*
X006817Y009747D01*
X006791Y009739D01*
X006764Y009734D01*
X006736Y009733D01*
X006709Y009736D01*
X006682Y009743D01*
X006657Y009753D01*
X006633Y009767D01*
X006611Y009784D01*
X006592Y009803D01*
X006576Y009826D01*
X006563Y009850D01*
X006554Y009876D01*
X006548Y009903D01*
X006546Y009930D01*
X005983Y009930D02*
X005985Y009957D01*
X005991Y009984D01*
X006000Y010010D01*
X006013Y010034D01*
X006029Y010057D01*
X006048Y010076D01*
X006070Y010093D01*
X006094Y010107D01*
X006119Y010117D01*
X006146Y010124D01*
X006173Y010127D01*
X006201Y010126D01*
X006228Y010121D01*
X006254Y010113D01*
X006278Y010101D01*
X006301Y010085D01*
X006322Y010067D01*
X006339Y010046D01*
X006354Y010022D01*
X006365Y009997D01*
X006373Y009971D01*
X006377Y009944D01*
X006377Y009916D01*
X006373Y009889D01*
X006365Y009863D01*
X006354Y009838D01*
X006339Y009814D01*
X006322Y009793D01*
X006301Y009775D01*
X006279Y009759D01*
X006254Y009747D01*
X006228Y009739D01*
X006201Y009734D01*
X006173Y009733D01*
X006146Y009736D01*
X006119Y009743D01*
X006094Y009753D01*
X006070Y009767D01*
X006048Y009784D01*
X006029Y009803D01*
X006013Y009826D01*
X006000Y009850D01*
X005991Y009876D01*
X005985Y009903D01*
X005983Y009930D01*
X005421Y009930D02*
X005423Y009957D01*
X005429Y009984D01*
X005438Y010010D01*
X005451Y010034D01*
X005467Y010057D01*
X005486Y010076D01*
X005508Y010093D01*
X005532Y010107D01*
X005557Y010117D01*
X005584Y010124D01*
X005611Y010127D01*
X005639Y010126D01*
X005666Y010121D01*
X005692Y010113D01*
X005716Y010101D01*
X005739Y010085D01*
X005760Y010067D01*
X005777Y010046D01*
X005792Y010022D01*
X005803Y009997D01*
X005811Y009971D01*
X005815Y009944D01*
X005815Y009916D01*
X005811Y009889D01*
X005803Y009863D01*
X005792Y009838D01*
X005777Y009814D01*
X005760Y009793D01*
X005739Y009775D01*
X005717Y009759D01*
X005692Y009747D01*
X005666Y009739D01*
X005639Y009734D01*
X005611Y009733D01*
X005584Y009736D01*
X005557Y009743D01*
X005532Y009753D01*
X005508Y009767D01*
X005486Y009784D01*
X005467Y009803D01*
X005451Y009826D01*
X005438Y009850D01*
X005429Y009876D01*
X005423Y009903D01*
X005421Y009930D01*
X005305Y010430D02*
X005303Y010484D01*
X005297Y010537D01*
X005288Y010589D01*
X005275Y010641D01*
X005258Y010692D01*
X005237Y010742D01*
X005213Y010789D01*
X005186Y010835D01*
X005155Y010879D01*
X005122Y010921D01*
X005085Y010960D01*
X005046Y010997D01*
X005004Y011030D01*
X004960Y011061D01*
X004914Y011088D01*
X004867Y011112D01*
X004817Y011133D01*
X004766Y011150D01*
X004714Y011163D01*
X004662Y011172D01*
X004609Y011178D01*
X004555Y011180D01*
X004560Y011180D02*
X003540Y011180D01*
X003542Y011180D02*
X003503Y011182D01*
X003465Y011188D01*
X003428Y011197D01*
X003391Y011210D01*
X003356Y011227D01*
X003323Y011246D01*
X003292Y011269D01*
X003263Y011295D01*
X003237Y011324D01*
X003214Y011355D01*
X003195Y011388D01*
X003178Y011423D01*
X003165Y011460D01*
X003156Y011497D01*
X003150Y011535D01*
X003148Y011574D01*
X003149Y011574D02*
X003149Y017873D01*
X003148Y017873D02*
X003150Y017912D01*
X003156Y017950D01*
X003165Y017987D01*
X003178Y018024D01*
X003195Y018059D01*
X003214Y018092D01*
X003237Y018123D01*
X003263Y018152D01*
X003292Y018178D01*
X003323Y018201D01*
X003356Y018220D01*
X003391Y018237D01*
X003428Y018250D01*
X003465Y018259D01*
X003503Y018265D01*
X003542Y018267D01*
X008786Y018267D01*
X008825Y018265D01*
X008863Y018259D01*
X008900Y018250D01*
X008937Y018237D01*
X008972Y018220D01*
X009005Y018201D01*
X009036Y018178D01*
X009065Y018152D01*
X009091Y018123D01*
X009114Y018092D01*
X009133Y018059D01*
X009150Y018024D01*
X009163Y017987D01*
X009172Y017950D01*
X009178Y017912D01*
X009180Y017873D01*
X009180Y017868D02*
X009180Y016305D01*
X009182Y016251D01*
X009188Y016198D01*
X009197Y016146D01*
X009210Y016094D01*
X009227Y016043D01*
X009248Y015993D01*
X009272Y015946D01*
X009299Y015900D01*
X009330Y015856D01*
X009363Y015814D01*
X009400Y015775D01*
X009439Y015738D01*
X009481Y015705D01*
X009525Y015674D01*
X009571Y015647D01*
X009618Y015623D01*
X009668Y015602D01*
X009719Y015585D01*
X009771Y015572D01*
X009823Y015563D01*
X009876Y015557D01*
X009930Y015555D01*
X009233Y015243D02*
X009235Y015270D01*
X009241Y015297D01*
X009250Y015323D01*
X009263Y015347D01*
X009279Y015370D01*
X009298Y015389D01*
X009320Y015406D01*
X009344Y015420D01*
X009369Y015430D01*
X009396Y015437D01*
X009423Y015440D01*
X009451Y015439D01*
X009478Y015434D01*
X009504Y015426D01*
X009528Y015414D01*
X009551Y015398D01*
X009572Y015380D01*
X009589Y015359D01*
X009604Y015335D01*
X009615Y015310D01*
X009623Y015284D01*
X009627Y015257D01*
X009627Y015229D01*
X009623Y015202D01*
X009615Y015176D01*
X009604Y015151D01*
X009589Y015127D01*
X009572Y015106D01*
X009551Y015088D01*
X009529Y015072D01*
X009504Y015060D01*
X009478Y015052D01*
X009451Y015047D01*
X009423Y015046D01*
X009396Y015049D01*
X009369Y015056D01*
X009344Y015066D01*
X009320Y015080D01*
X009298Y015097D01*
X009279Y015116D01*
X009263Y015139D01*
X009250Y015163D01*
X009241Y015189D01*
X009235Y015216D01*
X009233Y015243D01*
X009233Y014680D02*
X009235Y014707D01*
X009241Y014734D01*
X009250Y014760D01*
X009263Y014784D01*
X009279Y014807D01*
X009298Y014826D01*
X009320Y014843D01*
X009344Y014857D01*
X009369Y014867D01*
X009396Y014874D01*
X009423Y014877D01*
X009451Y014876D01*
X009478Y014871D01*
X009504Y014863D01*
X009528Y014851D01*
X009551Y014835D01*
X009572Y014817D01*
X009589Y014796D01*
X009604Y014772D01*
X009615Y014747D01*
X009623Y014721D01*
X009627Y014694D01*
X009627Y014666D01*
X009623Y014639D01*
X009615Y014613D01*
X009604Y014588D01*
X009589Y014564D01*
X009572Y014543D01*
X009551Y014525D01*
X009529Y014509D01*
X009504Y014497D01*
X009478Y014489D01*
X009451Y014484D01*
X009423Y014483D01*
X009396Y014486D01*
X009369Y014493D01*
X009344Y014503D01*
X009320Y014517D01*
X009298Y014534D01*
X009279Y014553D01*
X009263Y014576D01*
X009250Y014600D01*
X009241Y014626D01*
X009235Y014653D01*
X009233Y014680D01*
X009233Y014118D02*
X009235Y014145D01*
X009241Y014172D01*
X009250Y014198D01*
X009263Y014222D01*
X009279Y014245D01*
X009298Y014264D01*
X009320Y014281D01*
X009344Y014295D01*
X009369Y014305D01*
X009396Y014312D01*
X009423Y014315D01*
X009451Y014314D01*
X009478Y014309D01*
X009504Y014301D01*
X009528Y014289D01*
X009551Y014273D01*
X009572Y014255D01*
X009589Y014234D01*
X009604Y014210D01*
X009615Y014185D01*
X009623Y014159D01*
X009627Y014132D01*
X009627Y014104D01*
X009623Y014077D01*
X009615Y014051D01*
X009604Y014026D01*
X009589Y014002D01*
X009572Y013981D01*
X009551Y013963D01*
X009529Y013947D01*
X009504Y013935D01*
X009478Y013927D01*
X009451Y013922D01*
X009423Y013921D01*
X009396Y013924D01*
X009369Y013931D01*
X009344Y013941D01*
X009320Y013955D01*
X009298Y013972D01*
X009279Y013991D01*
X009263Y014014D01*
X009250Y014038D01*
X009241Y014064D01*
X009235Y014091D01*
X009233Y014118D01*
X009180Y013055D02*
X009180Y011555D01*
X009180Y011574D02*
X009178Y011535D01*
X009172Y011497D01*
X009163Y011460D01*
X009150Y011423D01*
X009133Y011388D01*
X009114Y011355D01*
X009091Y011324D01*
X009065Y011295D01*
X009036Y011269D01*
X009005Y011246D01*
X008972Y011227D01*
X008937Y011210D01*
X008900Y011197D01*
X008863Y011188D01*
X008825Y011182D01*
X008786Y011180D01*
X008790Y011180D02*
X007800Y011180D01*
X007805Y011180D02*
X007751Y011178D01*
X007698Y011172D01*
X007646Y011163D01*
X007594Y011150D01*
X007543Y011133D01*
X007493Y011112D01*
X007446Y011088D01*
X007400Y011061D01*
X007356Y011030D01*
X007314Y010997D01*
X007275Y010960D01*
X007238Y010921D01*
X007205Y010879D01*
X007174Y010835D01*
X007147Y010789D01*
X007123Y010742D01*
X007102Y010692D01*
X007085Y010641D01*
X007072Y010589D01*
X007063Y010537D01*
X007057Y010484D01*
X007055Y010430D01*
X007057Y010376D01*
X007063Y010322D01*
X007072Y010268D01*
X007086Y010216D01*
X007103Y010164D01*
X007124Y010114D01*
X007148Y010066D01*
X007176Y010019D01*
X007207Y009975D01*
X007241Y009932D01*
X007278Y009893D01*
X007317Y009856D01*
X007360Y009822D01*
X007404Y009791D01*
X007451Y009763D01*
X007499Y009739D01*
X007549Y009718D01*
X007601Y009701D01*
X007653Y009687D01*
X007707Y009678D01*
X007761Y009672D01*
X007815Y009670D01*
X008790Y009670D01*
X008786Y009673D02*
X008825Y009671D01*
X008863Y009665D01*
X008900Y009656D01*
X008937Y009643D01*
X008972Y009626D01*
X009005Y009607D01*
X009036Y009584D01*
X009065Y009558D01*
X009091Y009529D01*
X009114Y009498D01*
X009133Y009465D01*
X009150Y009430D01*
X009163Y009393D01*
X009172Y009356D01*
X009178Y009318D01*
X009180Y009279D01*
X009180Y009274D02*
X009180Y007711D01*
X009182Y007657D01*
X009188Y007604D01*
X009197Y007552D01*
X009210Y007500D01*
X009227Y007449D01*
X009248Y007399D01*
X009272Y007352D01*
X009299Y007306D01*
X009330Y007262D01*
X009363Y007220D01*
X009400Y007181D01*
X009439Y007144D01*
X009481Y007111D01*
X009525Y007080D01*
X009571Y007053D01*
X009618Y007029D01*
X009668Y007008D01*
X009719Y006991D01*
X009771Y006978D01*
X009823Y006969D01*
X009876Y006963D01*
X009930Y006961D01*
X009233Y006649D02*
X009235Y006676D01*
X009241Y006703D01*
X009250Y006729D01*
X009263Y006753D01*
X009279Y006776D01*
X009298Y006795D01*
X009320Y006812D01*
X009344Y006826D01*
X009369Y006836D01*
X009396Y006843D01*
X009423Y006846D01*
X009451Y006845D01*
X009478Y006840D01*
X009504Y006832D01*
X009528Y006820D01*
X009551Y006804D01*
X009572Y006786D01*
X009589Y006765D01*
X009604Y006741D01*
X009615Y006716D01*
X009623Y006690D01*
X009627Y006663D01*
X009627Y006635D01*
X009623Y006608D01*
X009615Y006582D01*
X009604Y006557D01*
X009589Y006533D01*
X009572Y006512D01*
X009551Y006494D01*
X009529Y006478D01*
X009504Y006466D01*
X009478Y006458D01*
X009451Y006453D01*
X009423Y006452D01*
X009396Y006455D01*
X009369Y006462D01*
X009344Y006472D01*
X009320Y006486D01*
X009298Y006503D01*
X009279Y006522D01*
X009263Y006545D01*
X009250Y006569D01*
X009241Y006595D01*
X009235Y006622D01*
X009233Y006649D01*
X009233Y006086D02*
X009235Y006113D01*
X009241Y006140D01*
X009250Y006166D01*
X009263Y006190D01*
X009279Y006213D01*
X009298Y006232D01*
X009320Y006249D01*
X009344Y006263D01*
X009369Y006273D01*
X009396Y006280D01*
X009423Y006283D01*
X009451Y006282D01*
X009478Y006277D01*
X009504Y006269D01*
X009528Y006257D01*
X009551Y006241D01*
X009572Y006223D01*
X009589Y006202D01*
X009604Y006178D01*
X009615Y006153D01*
X009623Y006127D01*
X009627Y006100D01*
X009627Y006072D01*
X009623Y006045D01*
X009615Y006019D01*
X009604Y005994D01*
X009589Y005970D01*
X009572Y005949D01*
X009551Y005931D01*
X009529Y005915D01*
X009504Y005903D01*
X009478Y005895D01*
X009451Y005890D01*
X009423Y005889D01*
X009396Y005892D01*
X009369Y005899D01*
X009344Y005909D01*
X009320Y005923D01*
X009298Y005940D01*
X009279Y005959D01*
X009263Y005982D01*
X009250Y006006D01*
X009241Y006032D01*
X009235Y006059D01*
X009233Y006086D01*
X009233Y005524D02*
X009235Y005551D01*
X009241Y005578D01*
X009250Y005604D01*
X009263Y005628D01*
X009279Y005651D01*
X009298Y005670D01*
X009320Y005687D01*
X009344Y005701D01*
X009369Y005711D01*
X009396Y005718D01*
X009423Y005721D01*
X009451Y005720D01*
X009478Y005715D01*
X009504Y005707D01*
X009528Y005695D01*
X009551Y005679D01*
X009572Y005661D01*
X009589Y005640D01*
X009604Y005616D01*
X009615Y005591D01*
X009623Y005565D01*
X009627Y005538D01*
X009627Y005510D01*
X009623Y005483D01*
X009615Y005457D01*
X009604Y005432D01*
X009589Y005408D01*
X009572Y005387D01*
X009551Y005369D01*
X009529Y005353D01*
X009504Y005341D01*
X009478Y005333D01*
X009451Y005328D01*
X009423Y005327D01*
X009396Y005330D01*
X009369Y005337D01*
X009344Y005347D01*
X009320Y005361D01*
X009298Y005378D01*
X009279Y005397D01*
X009263Y005420D01*
X009250Y005444D01*
X009241Y005470D01*
X009235Y005497D01*
X009233Y005524D01*
X009180Y004461D02*
X009180Y002961D01*
X009180Y002980D02*
X009178Y002941D01*
X009172Y002903D01*
X009163Y002866D01*
X009150Y002829D01*
X009133Y002794D01*
X009114Y002761D01*
X009091Y002730D01*
X009065Y002701D01*
X009036Y002675D01*
X009005Y002652D01*
X008972Y002633D01*
X008937Y002616D01*
X008900Y002603D01*
X008863Y002594D01*
X008825Y002588D01*
X008786Y002586D01*
X003542Y002586D01*
X003503Y002588D01*
X003465Y002594D01*
X003428Y002603D01*
X003391Y002616D01*
X003356Y002633D01*
X003323Y002652D01*
X003292Y002675D01*
X003263Y002701D01*
X003237Y002730D01*
X003214Y002761D01*
X003195Y002794D01*
X003178Y002829D01*
X003165Y002866D01*
X003156Y002903D01*
X003150Y002941D01*
X003148Y002980D01*
X003503Y003374D02*
X003505Y003415D01*
X003511Y003456D01*
X003521Y003496D01*
X003534Y003535D01*
X003551Y003572D01*
X003572Y003608D01*
X003596Y003642D01*
X003623Y003673D01*
X003652Y003701D01*
X003685Y003727D01*
X003719Y003749D01*
X003756Y003768D01*
X003794Y003783D01*
X003834Y003795D01*
X003874Y003803D01*
X003915Y003807D01*
X003957Y003807D01*
X003998Y003803D01*
X004038Y003795D01*
X004078Y003783D01*
X004116Y003768D01*
X004152Y003749D01*
X004187Y003727D01*
X004220Y003701D01*
X004249Y003673D01*
X004276Y003642D01*
X004300Y003608D01*
X004321Y003572D01*
X004338Y003535D01*
X004351Y003496D01*
X004361Y003456D01*
X004367Y003415D01*
X004369Y003374D01*
X004367Y003333D01*
X004361Y003292D01*
X004351Y003252D01*
X004338Y003213D01*
X004321Y003176D01*
X004300Y003140D01*
X004276Y003106D01*
X004249Y003075D01*
X004220Y003047D01*
X004187Y003021D01*
X004153Y002999D01*
X004116Y002980D01*
X004078Y002965D01*
X004038Y002953D01*
X003998Y002945D01*
X003957Y002941D01*
X003915Y002941D01*
X003874Y002945D01*
X003834Y002953D01*
X003794Y002965D01*
X003756Y002980D01*
X003720Y002999D01*
X003685Y003021D01*
X003652Y003047D01*
X003623Y003075D01*
X003596Y003106D01*
X003572Y003140D01*
X003551Y003176D01*
X003534Y003213D01*
X003521Y003252D01*
X003511Y003292D01*
X003505Y003333D01*
X003503Y003374D01*
X003503Y008885D02*
X003505Y008926D01*
X003511Y008967D01*
X003521Y009007D01*
X003534Y009046D01*
X003551Y009083D01*
X003572Y009119D01*
X003596Y009153D01*
X003623Y009184D01*
X003652Y009212D01*
X003685Y009238D01*
X003719Y009260D01*
X003756Y009279D01*
X003794Y009294D01*
X003834Y009306D01*
X003874Y009314D01*
X003915Y009318D01*
X003957Y009318D01*
X003998Y009314D01*
X004038Y009306D01*
X004078Y009294D01*
X004116Y009279D01*
X004152Y009260D01*
X004187Y009238D01*
X004220Y009212D01*
X004249Y009184D01*
X004276Y009153D01*
X004300Y009119D01*
X004321Y009083D01*
X004338Y009046D01*
X004351Y009007D01*
X004361Y008967D01*
X004367Y008926D01*
X004369Y008885D01*
X004367Y008844D01*
X004361Y008803D01*
X004351Y008763D01*
X004338Y008724D01*
X004321Y008687D01*
X004300Y008651D01*
X004276Y008617D01*
X004249Y008586D01*
X004220Y008558D01*
X004187Y008532D01*
X004153Y008510D01*
X004116Y008491D01*
X004078Y008476D01*
X004038Y008464D01*
X003998Y008456D01*
X003957Y008452D01*
X003915Y008452D01*
X003874Y008456D01*
X003834Y008464D01*
X003794Y008476D01*
X003756Y008491D01*
X003720Y008510D01*
X003685Y008532D01*
X003652Y008558D01*
X003623Y008586D01*
X003596Y008617D01*
X003572Y008651D01*
X003551Y008687D01*
X003534Y008724D01*
X003521Y008763D01*
X003511Y008803D01*
X003505Y008844D01*
X003503Y008885D01*
X003503Y011967D02*
X003505Y012008D01*
X003511Y012049D01*
X003521Y012089D01*
X003534Y012128D01*
X003551Y012165D01*
X003572Y012201D01*
X003596Y012235D01*
X003623Y012266D01*
X003652Y012294D01*
X003685Y012320D01*
X003719Y012342D01*
X003756Y012361D01*
X003794Y012376D01*
X003834Y012388D01*
X003874Y012396D01*
X003915Y012400D01*
X003957Y012400D01*
X003998Y012396D01*
X004038Y012388D01*
X004078Y012376D01*
X004116Y012361D01*
X004152Y012342D01*
X004187Y012320D01*
X004220Y012294D01*
X004249Y012266D01*
X004276Y012235D01*
X004300Y012201D01*
X004321Y012165D01*
X004338Y012128D01*
X004351Y012089D01*
X004361Y012049D01*
X004367Y012008D01*
X004369Y011967D01*
X004367Y011926D01*
X004361Y011885D01*
X004351Y011845D01*
X004338Y011806D01*
X004321Y011769D01*
X004300Y011733D01*
X004276Y011699D01*
X004249Y011668D01*
X004220Y011640D01*
X004187Y011614D01*
X004153Y011592D01*
X004116Y011573D01*
X004078Y011558D01*
X004038Y011546D01*
X003998Y011538D01*
X003957Y011534D01*
X003915Y011534D01*
X003874Y011538D01*
X003834Y011546D01*
X003794Y011558D01*
X003756Y011573D01*
X003720Y011592D01*
X003685Y011614D01*
X003652Y011640D01*
X003623Y011668D01*
X003596Y011699D01*
X003572Y011733D01*
X003551Y011769D01*
X003534Y011806D01*
X003521Y011845D01*
X003511Y011885D01*
X003505Y011926D01*
X003503Y011967D01*
X007810Y009670D02*
X007815Y009670D01*
X009930Y006961D02*
X009984Y006963D01*
X010037Y006969D01*
X010089Y006978D01*
X010141Y006991D01*
X010192Y007008D01*
X010242Y007029D01*
X010289Y007053D01*
X010335Y007080D01*
X010379Y007111D01*
X010421Y007144D01*
X010460Y007181D01*
X010497Y007220D01*
X010530Y007262D01*
X010561Y007306D01*
X010588Y007352D01*
X010612Y007399D01*
X010633Y007449D01*
X010650Y007500D01*
X010663Y007552D01*
X010672Y007604D01*
X010678Y007657D01*
X010680Y007711D01*
X010680Y009279D01*
X010682Y009318D01*
X010688Y009356D01*
X010697Y009393D01*
X010710Y009430D01*
X010727Y009465D01*
X010746Y009498D01*
X010769Y009529D01*
X010795Y009558D01*
X010824Y009584D01*
X010855Y009607D01*
X010888Y009626D01*
X010923Y009643D01*
X010960Y009656D01*
X010997Y009665D01*
X011035Y009671D01*
X011074Y009673D01*
X016317Y009673D01*
X016356Y009671D01*
X016394Y009665D01*
X016431Y009656D01*
X016468Y009643D01*
X016503Y009626D01*
X016536Y009607D01*
X016567Y009584D01*
X016596Y009558D01*
X016622Y009529D01*
X016645Y009498D01*
X016664Y009465D01*
X016681Y009430D01*
X016694Y009393D01*
X016703Y009356D01*
X016709Y009318D01*
X016711Y009279D01*
X016711Y002980D01*
X016709Y002941D01*
X016703Y002903D01*
X016694Y002866D01*
X016681Y002829D01*
X016664Y002794D01*
X016645Y002761D01*
X016622Y002730D01*
X016596Y002701D01*
X016567Y002675D01*
X016536Y002652D01*
X016503Y002633D01*
X016468Y002616D01*
X016431Y002603D01*
X016394Y002594D01*
X016356Y002588D01*
X016317Y002586D01*
X011074Y002586D01*
X011035Y002588D01*
X010997Y002594D01*
X010960Y002603D01*
X010923Y002616D01*
X010888Y002633D01*
X010855Y002652D01*
X010824Y002675D01*
X010795Y002701D01*
X010769Y002730D01*
X010746Y002761D01*
X010727Y002794D01*
X010710Y002829D01*
X010697Y002866D01*
X010688Y002903D01*
X010682Y002941D01*
X010680Y002980D01*
X010680Y004461D01*
X009930Y005211D02*
X009876Y005209D01*
X009823Y005203D01*
X009771Y005194D01*
X009719Y005181D01*
X009668Y005164D01*
X009618Y005143D01*
X009571Y005119D01*
X009525Y005092D01*
X009481Y005061D01*
X009439Y005028D01*
X009400Y004991D01*
X009363Y004952D01*
X009330Y004910D01*
X009299Y004866D01*
X009272Y004820D01*
X009248Y004773D01*
X009227Y004723D01*
X009210Y004672D01*
X009197Y004620D01*
X009188Y004568D01*
X009182Y004515D01*
X009180Y004461D01*
X009930Y005211D02*
X009984Y005209D01*
X010037Y005203D01*
X010089Y005194D01*
X010141Y005181D01*
X010192Y005164D01*
X010242Y005143D01*
X010289Y005119D01*
X010335Y005092D01*
X010379Y005061D01*
X010421Y005028D01*
X010460Y004991D01*
X010497Y004952D01*
X010530Y004910D01*
X010561Y004866D01*
X010588Y004820D01*
X010612Y004773D01*
X010633Y004723D01*
X010650Y004672D01*
X010663Y004620D01*
X010672Y004568D01*
X010678Y004515D01*
X010680Y004461D01*
X010233Y005524D02*
X010235Y005551D01*
X010241Y005578D01*
X010250Y005604D01*
X010263Y005628D01*
X010279Y005651D01*
X010298Y005670D01*
X010320Y005687D01*
X010344Y005701D01*
X010369Y005711D01*
X010396Y005718D01*
X010423Y005721D01*
X010451Y005720D01*
X010478Y005715D01*
X010504Y005707D01*
X010528Y005695D01*
X010551Y005679D01*
X010572Y005661D01*
X010589Y005640D01*
X010604Y005616D01*
X010615Y005591D01*
X010623Y005565D01*
X010627Y005538D01*
X010627Y005510D01*
X010623Y005483D01*
X010615Y005457D01*
X010604Y005432D01*
X010589Y005408D01*
X010572Y005387D01*
X010551Y005369D01*
X010529Y005353D01*
X010504Y005341D01*
X010478Y005333D01*
X010451Y005328D01*
X010423Y005327D01*
X010396Y005330D01*
X010369Y005337D01*
X010344Y005347D01*
X010320Y005361D01*
X010298Y005378D01*
X010279Y005397D01*
X010263Y005420D01*
X010250Y005444D01*
X010241Y005470D01*
X010235Y005497D01*
X010233Y005524D01*
X010233Y006086D02*
X010235Y006113D01*
X010241Y006140D01*
X010250Y006166D01*
X010263Y006190D01*
X010279Y006213D01*
X010298Y006232D01*
X010320Y006249D01*
X010344Y006263D01*
X010369Y006273D01*
X010396Y006280D01*
X010423Y006283D01*
X010451Y006282D01*
X010478Y006277D01*
X010504Y006269D01*
X010528Y006257D01*
X010551Y006241D01*
X010572Y006223D01*
X010589Y006202D01*
X010604Y006178D01*
X010615Y006153D01*
X010623Y006127D01*
X010627Y006100D01*
X010627Y006072D01*
X010623Y006045D01*
X010615Y006019D01*
X010604Y005994D01*
X010589Y005970D01*
X010572Y005949D01*
X010551Y005931D01*
X010529Y005915D01*
X010504Y005903D01*
X010478Y005895D01*
X010451Y005890D01*
X010423Y005889D01*
X010396Y005892D01*
X010369Y005899D01*
X010344Y005909D01*
X010320Y005923D01*
X010298Y005940D01*
X010279Y005959D01*
X010263Y005982D01*
X010250Y006006D01*
X010241Y006032D01*
X010235Y006059D01*
X010233Y006086D01*
X010233Y006649D02*
X010235Y006676D01*
X010241Y006703D01*
X010250Y006729D01*
X010263Y006753D01*
X010279Y006776D01*
X010298Y006795D01*
X010320Y006812D01*
X010344Y006826D01*
X010369Y006836D01*
X010396Y006843D01*
X010423Y006846D01*
X010451Y006845D01*
X010478Y006840D01*
X010504Y006832D01*
X010528Y006820D01*
X010551Y006804D01*
X010572Y006786D01*
X010589Y006765D01*
X010604Y006741D01*
X010615Y006716D01*
X010623Y006690D01*
X010627Y006663D01*
X010627Y006635D01*
X010623Y006608D01*
X010615Y006582D01*
X010604Y006557D01*
X010589Y006533D01*
X010572Y006512D01*
X010551Y006494D01*
X010529Y006478D01*
X010504Y006466D01*
X010478Y006458D01*
X010451Y006453D01*
X010423Y006452D01*
X010396Y006455D01*
X010369Y006462D01*
X010344Y006472D01*
X010320Y006486D01*
X010298Y006503D01*
X010279Y006522D01*
X010263Y006545D01*
X010250Y006569D01*
X010241Y006595D01*
X010235Y006622D01*
X010233Y006649D01*
X011034Y008885D02*
X011036Y008926D01*
X011042Y008967D01*
X011052Y009007D01*
X011065Y009046D01*
X011082Y009083D01*
X011103Y009119D01*
X011127Y009153D01*
X011154Y009184D01*
X011183Y009212D01*
X011216Y009238D01*
X011250Y009260D01*
X011287Y009279D01*
X011325Y009294D01*
X011365Y009306D01*
X011405Y009314D01*
X011446Y009318D01*
X011488Y009318D01*
X011529Y009314D01*
X011569Y009306D01*
X011609Y009294D01*
X011647Y009279D01*
X011683Y009260D01*
X011718Y009238D01*
X011751Y009212D01*
X011780Y009184D01*
X011807Y009153D01*
X011831Y009119D01*
X011852Y009083D01*
X011869Y009046D01*
X011882Y009007D01*
X011892Y008967D01*
X011898Y008926D01*
X011900Y008885D01*
X011898Y008844D01*
X011892Y008803D01*
X011882Y008763D01*
X011869Y008724D01*
X011852Y008687D01*
X011831Y008651D01*
X011807Y008617D01*
X011780Y008586D01*
X011751Y008558D01*
X011718Y008532D01*
X011684Y008510D01*
X011647Y008491D01*
X011609Y008476D01*
X011569Y008464D01*
X011529Y008456D01*
X011488Y008452D01*
X011446Y008452D01*
X011405Y008456D01*
X011365Y008464D01*
X011325Y008476D01*
X011287Y008491D01*
X011251Y008510D01*
X011216Y008532D01*
X011183Y008558D01*
X011154Y008586D01*
X011127Y008617D01*
X011103Y008651D01*
X011082Y008687D01*
X011065Y008724D01*
X011052Y008763D01*
X011042Y008803D01*
X011036Y008844D01*
X011034Y008885D01*
X011074Y011180D02*
X016317Y011180D01*
X016356Y011182D01*
X016394Y011188D01*
X016431Y011197D01*
X016468Y011210D01*
X016503Y011227D01*
X016536Y011246D01*
X016567Y011269D01*
X016596Y011295D01*
X016622Y011324D01*
X016645Y011355D01*
X016664Y011388D01*
X016681Y011423D01*
X016694Y011460D01*
X016703Y011497D01*
X016709Y011535D01*
X016711Y011574D01*
X016711Y017873D01*
X016709Y017912D01*
X016703Y017950D01*
X016694Y017987D01*
X016681Y018024D01*
X016664Y018059D01*
X016645Y018092D01*
X016622Y018123D01*
X016596Y018152D01*
X016567Y018178D01*
X016536Y018201D01*
X016503Y018220D01*
X016468Y018237D01*
X016431Y018250D01*
X016394Y018259D01*
X016356Y018265D01*
X016317Y018267D01*
X011074Y018267D01*
X011035Y018265D01*
X010997Y018259D01*
X010960Y018250D01*
X010923Y018237D01*
X010888Y018220D01*
X010855Y018201D01*
X010824Y018178D01*
X010795Y018152D01*
X010769Y018123D01*
X010746Y018092D01*
X010727Y018059D01*
X010710Y018024D01*
X010697Y017987D01*
X010688Y017950D01*
X010682Y017912D01*
X010680Y017873D01*
X010680Y016305D01*
X010678Y016251D01*
X010672Y016198D01*
X010663Y016146D01*
X010650Y016094D01*
X010633Y016043D01*
X010612Y015993D01*
X010588Y015946D01*
X010561Y015900D01*
X010530Y015856D01*
X010497Y015814D01*
X010460Y015775D01*
X010421Y015738D01*
X010379Y015705D01*
X010335Y015674D01*
X010289Y015647D01*
X010242Y015623D01*
X010192Y015602D01*
X010141Y015585D01*
X010089Y015572D01*
X010037Y015563D01*
X009984Y015557D01*
X009930Y015555D01*
X010233Y015243D02*
X010235Y015270D01*
X010241Y015297D01*
X010250Y015323D01*
X010263Y015347D01*
X010279Y015370D01*
X010298Y015389D01*
X010320Y015406D01*
X010344Y015420D01*
X010369Y015430D01*
X010396Y015437D01*
X010423Y015440D01*
X010451Y015439D01*
X010478Y015434D01*
X010504Y015426D01*
X010528Y015414D01*
X010551Y015398D01*
X010572Y015380D01*
X010589Y015359D01*
X010604Y015335D01*
X010615Y015310D01*
X010623Y015284D01*
X010627Y015257D01*
X010627Y015229D01*
X010623Y015202D01*
X010615Y015176D01*
X010604Y015151D01*
X010589Y015127D01*
X010572Y015106D01*
X010551Y015088D01*
X010529Y015072D01*
X010504Y015060D01*
X010478Y015052D01*
X010451Y015047D01*
X010423Y015046D01*
X010396Y015049D01*
X010369Y015056D01*
X010344Y015066D01*
X010320Y015080D01*
X010298Y015097D01*
X010279Y015116D01*
X010263Y015139D01*
X010250Y015163D01*
X010241Y015189D01*
X010235Y015216D01*
X010233Y015243D01*
X010233Y014680D02*
X010235Y014707D01*
X010241Y014734D01*
X010250Y014760D01*
X010263Y014784D01*
X010279Y014807D01*
X010298Y014826D01*
X010320Y014843D01*
X010344Y014857D01*
X010369Y014867D01*
X010396Y014874D01*
X010423Y014877D01*
X010451Y014876D01*
X010478Y014871D01*
X010504Y014863D01*
X010528Y014851D01*
X010551Y014835D01*
X010572Y014817D01*
X010589Y014796D01*
X010604Y014772D01*
X010615Y014747D01*
X010623Y014721D01*
X010627Y014694D01*
X010627Y014666D01*
X010623Y014639D01*
X010615Y014613D01*
X010604Y014588D01*
X010589Y014564D01*
X010572Y014543D01*
X010551Y014525D01*
X010529Y014509D01*
X010504Y014497D01*
X010478Y014489D01*
X010451Y014484D01*
X010423Y014483D01*
X010396Y014486D01*
X010369Y014493D01*
X010344Y014503D01*
X010320Y014517D01*
X010298Y014534D01*
X010279Y014553D01*
X010263Y014576D01*
X010250Y014600D01*
X010241Y014626D01*
X010235Y014653D01*
X010233Y014680D01*
X010233Y014118D02*
X010235Y014145D01*
X010241Y014172D01*
X010250Y014198D01*
X010263Y014222D01*
X010279Y014245D01*
X010298Y014264D01*
X010320Y014281D01*
X010344Y014295D01*
X010369Y014305D01*
X010396Y014312D01*
X010423Y014315D01*
X010451Y014314D01*
X010478Y014309D01*
X010504Y014301D01*
X010528Y014289D01*
X010551Y014273D01*
X010572Y014255D01*
X010589Y014234D01*
X010604Y014210D01*
X010615Y014185D01*
X010623Y014159D01*
X010627Y014132D01*
X010627Y014104D01*
X010623Y014077D01*
X010615Y014051D01*
X010604Y014026D01*
X010589Y014002D01*
X010572Y013981D01*
X010551Y013963D01*
X010529Y013947D01*
X010504Y013935D01*
X010478Y013927D01*
X010451Y013922D01*
X010423Y013921D01*
X010396Y013924D01*
X010369Y013931D01*
X010344Y013941D01*
X010320Y013955D01*
X010298Y013972D01*
X010279Y013991D01*
X010263Y014014D01*
X010250Y014038D01*
X010241Y014064D01*
X010235Y014091D01*
X010233Y014118D01*
X009930Y013805D02*
X009876Y013803D01*
X009823Y013797D01*
X009771Y013788D01*
X009719Y013775D01*
X009668Y013758D01*
X009618Y013737D01*
X009571Y013713D01*
X009525Y013686D01*
X009481Y013655D01*
X009439Y013622D01*
X009400Y013585D01*
X009363Y013546D01*
X009330Y013504D01*
X009299Y013460D01*
X009272Y013414D01*
X009248Y013367D01*
X009227Y013317D01*
X009210Y013266D01*
X009197Y013214D01*
X009188Y013162D01*
X009182Y013109D01*
X009180Y013055D01*
X009930Y013805D02*
X009984Y013803D01*
X010037Y013797D01*
X010089Y013788D01*
X010141Y013775D01*
X010192Y013758D01*
X010242Y013737D01*
X010289Y013713D01*
X010335Y013686D01*
X010379Y013655D01*
X010421Y013622D01*
X010460Y013585D01*
X010497Y013546D01*
X010530Y013504D01*
X010561Y013460D01*
X010588Y013414D01*
X010612Y013367D01*
X010633Y013317D01*
X010650Y013266D01*
X010663Y013214D01*
X010672Y013162D01*
X010678Y013109D01*
X010680Y013055D01*
X010680Y011574D01*
X010682Y011535D01*
X010688Y011497D01*
X010697Y011460D01*
X010710Y011423D01*
X010727Y011388D01*
X010746Y011355D01*
X010769Y011324D01*
X010795Y011295D01*
X010824Y011269D01*
X010855Y011246D01*
X010888Y011227D01*
X010923Y011210D01*
X010960Y011197D01*
X010997Y011188D01*
X011035Y011182D01*
X011074Y011180D01*
X011034Y011967D02*
X011036Y012008D01*
X011042Y012049D01*
X011052Y012089D01*
X011065Y012128D01*
X011082Y012165D01*
X011103Y012201D01*
X011127Y012235D01*
X011154Y012266D01*
X011183Y012294D01*
X011216Y012320D01*
X011250Y012342D01*
X011287Y012361D01*
X011325Y012376D01*
X011365Y012388D01*
X011405Y012396D01*
X011446Y012400D01*
X011488Y012400D01*
X011529Y012396D01*
X011569Y012388D01*
X011609Y012376D01*
X011647Y012361D01*
X011683Y012342D01*
X011718Y012320D01*
X011751Y012294D01*
X011780Y012266D01*
X011807Y012235D01*
X011831Y012201D01*
X011852Y012165D01*
X011869Y012128D01*
X011882Y012089D01*
X011892Y012049D01*
X011898Y012008D01*
X011900Y011967D01*
X011898Y011926D01*
X011892Y011885D01*
X011882Y011845D01*
X011869Y011806D01*
X011852Y011769D01*
X011831Y011733D01*
X011807Y011699D01*
X011780Y011668D01*
X011751Y011640D01*
X011718Y011614D01*
X011684Y011592D01*
X011647Y011573D01*
X011609Y011558D01*
X011569Y011546D01*
X011529Y011538D01*
X011488Y011534D01*
X011446Y011534D01*
X011405Y011538D01*
X011365Y011546D01*
X011325Y011558D01*
X011287Y011573D01*
X011251Y011592D01*
X011216Y011614D01*
X011183Y011640D01*
X011154Y011668D01*
X011127Y011699D01*
X011103Y011733D01*
X011082Y011769D01*
X011065Y011806D01*
X011052Y011845D01*
X011042Y011885D01*
X011036Y011926D01*
X011034Y011967D01*
X011034Y017479D02*
X011036Y017520D01*
X011042Y017561D01*
X011052Y017601D01*
X011065Y017640D01*
X011082Y017677D01*
X011103Y017713D01*
X011127Y017747D01*
X011154Y017778D01*
X011183Y017806D01*
X011216Y017832D01*
X011250Y017854D01*
X011287Y017873D01*
X011325Y017888D01*
X011365Y017900D01*
X011405Y017908D01*
X011446Y017912D01*
X011488Y017912D01*
X011529Y017908D01*
X011569Y017900D01*
X011609Y017888D01*
X011647Y017873D01*
X011683Y017854D01*
X011718Y017832D01*
X011751Y017806D01*
X011780Y017778D01*
X011807Y017747D01*
X011831Y017713D01*
X011852Y017677D01*
X011869Y017640D01*
X011882Y017601D01*
X011892Y017561D01*
X011898Y017520D01*
X011900Y017479D01*
X011898Y017438D01*
X011892Y017397D01*
X011882Y017357D01*
X011869Y017318D01*
X011852Y017281D01*
X011831Y017245D01*
X011807Y017211D01*
X011780Y017180D01*
X011751Y017152D01*
X011718Y017126D01*
X011684Y017104D01*
X011647Y017085D01*
X011609Y017070D01*
X011569Y017058D01*
X011529Y017050D01*
X011488Y017046D01*
X011446Y017046D01*
X011405Y017050D01*
X011365Y017058D01*
X011325Y017070D01*
X011287Y017085D01*
X011251Y017104D01*
X011216Y017126D01*
X011183Y017152D01*
X011154Y017180D01*
X011127Y017211D01*
X011103Y017245D01*
X011082Y017281D01*
X011065Y017318D01*
X011052Y017357D01*
X011042Y017397D01*
X011036Y017438D01*
X011034Y017479D01*
X003503Y017479D02*
X003505Y017520D01*
X003511Y017561D01*
X003521Y017601D01*
X003534Y017640D01*
X003551Y017677D01*
X003572Y017713D01*
X003596Y017747D01*
X003623Y017778D01*
X003652Y017806D01*
X003685Y017832D01*
X003719Y017854D01*
X003756Y017873D01*
X003794Y017888D01*
X003834Y017900D01*
X003874Y017908D01*
X003915Y017912D01*
X003957Y017912D01*
X003998Y017908D01*
X004038Y017900D01*
X004078Y017888D01*
X004116Y017873D01*
X004152Y017854D01*
X004187Y017832D01*
X004220Y017806D01*
X004249Y017778D01*
X004276Y017747D01*
X004300Y017713D01*
X004321Y017677D01*
X004338Y017640D01*
X004351Y017601D01*
X004361Y017561D01*
X004367Y017520D01*
X004369Y017479D01*
X004367Y017438D01*
X004361Y017397D01*
X004351Y017357D01*
X004338Y017318D01*
X004321Y017281D01*
X004300Y017245D01*
X004276Y017211D01*
X004249Y017180D01*
X004220Y017152D01*
X004187Y017126D01*
X004153Y017104D01*
X004116Y017085D01*
X004078Y017070D01*
X004038Y017058D01*
X003998Y017050D01*
X003957Y017046D01*
X003915Y017046D01*
X003874Y017050D01*
X003834Y017058D01*
X003794Y017070D01*
X003756Y017085D01*
X003720Y017104D01*
X003685Y017126D01*
X003652Y017152D01*
X003623Y017180D01*
X003596Y017211D01*
X003572Y017245D01*
X003551Y017281D01*
X003534Y017318D01*
X003521Y017357D01*
X003511Y017397D01*
X003505Y017438D01*
X003503Y017479D01*
X011034Y003374D02*
X011036Y003415D01*
X011042Y003456D01*
X011052Y003496D01*
X011065Y003535D01*
X011082Y003572D01*
X011103Y003608D01*
X011127Y003642D01*
X011154Y003673D01*
X011183Y003701D01*
X011216Y003727D01*
X011250Y003749D01*
X011287Y003768D01*
X011325Y003783D01*
X011365Y003795D01*
X011405Y003803D01*
X011446Y003807D01*
X011488Y003807D01*
X011529Y003803D01*
X011569Y003795D01*
X011609Y003783D01*
X011647Y003768D01*
X011683Y003749D01*
X011718Y003727D01*
X011751Y003701D01*
X011780Y003673D01*
X011807Y003642D01*
X011831Y003608D01*
X011852Y003572D01*
X011869Y003535D01*
X011882Y003496D01*
X011892Y003456D01*
X011898Y003415D01*
X011900Y003374D01*
X011898Y003333D01*
X011892Y003292D01*
X011882Y003252D01*
X011869Y003213D01*
X011852Y003176D01*
X011831Y003140D01*
X011807Y003106D01*
X011780Y003075D01*
X011751Y003047D01*
X011718Y003021D01*
X011684Y002999D01*
X011647Y002980D01*
X011609Y002965D01*
X011569Y002953D01*
X011529Y002945D01*
X011488Y002941D01*
X011446Y002941D01*
X011405Y002945D01*
X011365Y002953D01*
X011325Y002965D01*
X011287Y002980D01*
X011251Y002999D01*
X011216Y003021D01*
X011183Y003047D01*
X011154Y003075D01*
X011127Y003106D01*
X011103Y003140D01*
X011082Y003176D01*
X011065Y003213D01*
X011052Y003252D01*
X011042Y003292D01*
X011036Y003333D01*
X011034Y003374D01*
D11*
X011137Y004727D02*
X011667Y004727D01*
X011137Y004727D02*
X011137Y005571D01*
X011667Y005571D01*
X011667Y004727D01*
X011667Y004827D02*
X011137Y004827D01*
X011137Y004927D02*
X011667Y004927D01*
X011667Y005027D02*
X011137Y005027D01*
X011137Y005127D02*
X011667Y005127D01*
X011667Y005227D02*
X011137Y005227D01*
X011137Y005327D02*
X011667Y005327D01*
X011667Y005427D02*
X011137Y005427D01*
X011137Y005527D02*
X011667Y005527D01*
X012318Y005571D02*
X012848Y005571D01*
X012848Y004727D01*
X012318Y004727D01*
X012318Y005571D01*
X012318Y004827D02*
X012848Y004827D01*
X012848Y004927D02*
X012318Y004927D01*
X012318Y005027D02*
X012848Y005027D01*
X012848Y005127D02*
X012318Y005127D01*
X012318Y005227D02*
X012848Y005227D01*
X012848Y005327D02*
X012318Y005327D01*
X012318Y005427D02*
X012848Y005427D01*
X012848Y005527D02*
X012318Y005527D01*
X013616Y005101D02*
X013830Y005101D01*
X013830Y004415D01*
X013616Y004415D01*
X013616Y005101D01*
X013616Y004515D02*
X013830Y004515D01*
X013830Y004615D02*
X013616Y004615D01*
X013616Y004715D02*
X013830Y004715D01*
X013830Y004815D02*
X013616Y004815D01*
X013616Y004915D02*
X013830Y004915D01*
X013830Y005015D02*
X013616Y005015D01*
X014108Y005101D02*
X014322Y005101D01*
X014322Y004415D01*
X014108Y004415D01*
X014108Y005101D01*
X014108Y004515D02*
X014322Y004515D01*
X014322Y004615D02*
X014108Y004615D01*
X014108Y004715D02*
X014322Y004715D01*
X014322Y004815D02*
X014108Y004815D01*
X014108Y004915D02*
X014322Y004915D01*
X014322Y005015D02*
X014108Y005015D01*
X014600Y005101D02*
X014814Y005101D01*
X014814Y004415D01*
X014600Y004415D01*
X014600Y005101D01*
X014600Y004515D02*
X014814Y004515D01*
X014814Y004615D02*
X014600Y004615D01*
X014600Y004715D02*
X014814Y004715D01*
X014814Y004815D02*
X014600Y004815D01*
X014600Y004915D02*
X014814Y004915D01*
X014814Y005015D02*
X014600Y005015D01*
X015092Y005101D02*
X015306Y005101D01*
X015306Y004415D01*
X015092Y004415D01*
X015092Y005101D01*
X015092Y004515D02*
X015306Y004515D01*
X015306Y004615D02*
X015092Y004615D01*
X015092Y004715D02*
X015306Y004715D01*
X015306Y004815D02*
X015092Y004815D01*
X015092Y004915D02*
X015306Y004915D01*
X015306Y005015D02*
X015092Y005015D01*
X016011Y008523D02*
X016225Y008523D01*
X016225Y008309D01*
X016011Y008309D01*
X016011Y008523D01*
X016011Y008409D02*
X016225Y008409D01*
X016225Y008509D02*
X016011Y008509D01*
X016011Y009114D02*
X016225Y009114D01*
X016225Y008900D01*
X016011Y008900D01*
X016011Y009114D01*
X016011Y009000D02*
X016225Y009000D01*
X016225Y009100D02*
X016011Y009100D01*
X015306Y013695D02*
X015092Y013695D01*
X015306Y013695D02*
X015306Y013009D01*
X015092Y013009D01*
X015092Y013695D01*
X015092Y013109D02*
X015306Y013109D01*
X015306Y013209D02*
X015092Y013209D01*
X015092Y013309D02*
X015306Y013309D01*
X015306Y013409D02*
X015092Y013409D01*
X015092Y013509D02*
X015306Y013509D01*
X015306Y013609D02*
X015092Y013609D01*
X014814Y013695D02*
X014600Y013695D01*
X014814Y013695D02*
X014814Y013009D01*
X014600Y013009D01*
X014600Y013695D01*
X014600Y013109D02*
X014814Y013109D01*
X014814Y013209D02*
X014600Y013209D01*
X014600Y013309D02*
X014814Y013309D01*
X014814Y013409D02*
X014600Y013409D01*
X014600Y013509D02*
X014814Y013509D01*
X014814Y013609D02*
X014600Y013609D01*
X014322Y013695D02*
X014108Y013695D01*
X014322Y013695D02*
X014322Y013009D01*
X014108Y013009D01*
X014108Y013695D01*
X014108Y013109D02*
X014322Y013109D01*
X014322Y013209D02*
X014108Y013209D01*
X014108Y013309D02*
X014322Y013309D01*
X014322Y013409D02*
X014108Y013409D01*
X014108Y013509D02*
X014322Y013509D01*
X014322Y013609D02*
X014108Y013609D01*
X013830Y013695D02*
X013616Y013695D01*
X013830Y013695D02*
X013830Y013009D01*
X013616Y013009D01*
X013616Y013695D01*
X013616Y013109D02*
X013830Y013109D01*
X013830Y013209D02*
X013616Y013209D01*
X013616Y013309D02*
X013830Y013309D01*
X013830Y013409D02*
X013616Y013409D01*
X013616Y013509D02*
X013830Y013509D01*
X013830Y013609D02*
X013616Y013609D01*
X012848Y014165D02*
X012318Y014165D01*
X012848Y014165D02*
X012848Y013321D01*
X012318Y013321D01*
X012318Y014165D01*
X012318Y013421D02*
X012848Y013421D01*
X012848Y013521D02*
X012318Y013521D01*
X012318Y013621D02*
X012848Y013621D01*
X012848Y013721D02*
X012318Y013721D01*
X012318Y013821D02*
X012848Y013821D01*
X012848Y013921D02*
X012318Y013921D01*
X012318Y014021D02*
X012848Y014021D01*
X012848Y014121D02*
X012318Y014121D01*
X011667Y013321D02*
X011137Y013321D01*
X011137Y014165D01*
X011667Y014165D01*
X011667Y013321D01*
X011667Y013421D02*
X011137Y013421D01*
X011137Y013521D02*
X011667Y013521D01*
X011667Y013621D02*
X011137Y013621D01*
X011137Y013721D02*
X011667Y013721D01*
X011667Y013821D02*
X011137Y013821D01*
X011137Y013921D02*
X011667Y013921D01*
X011667Y014021D02*
X011137Y014021D01*
X011137Y014121D02*
X011667Y014121D01*
X008693Y017117D02*
X008479Y017117D01*
X008693Y017117D02*
X008693Y016903D01*
X008479Y016903D01*
X008479Y017117D01*
X008479Y017003D02*
X008693Y017003D01*
X008693Y017103D02*
X008479Y017103D01*
X008479Y017707D02*
X008693Y017707D01*
X008693Y017493D01*
X008479Y017493D01*
X008479Y017707D01*
X008479Y017593D02*
X008693Y017593D01*
X008693Y017693D02*
X008479Y017693D01*
X005317Y014165D02*
X004787Y014165D01*
X005317Y014165D02*
X005317Y013321D01*
X004787Y013321D01*
X004787Y014165D01*
X004787Y013421D02*
X005317Y013421D01*
X005317Y013521D02*
X004787Y013521D01*
X004787Y013621D02*
X005317Y013621D01*
X005317Y013721D02*
X004787Y013721D01*
X004787Y013821D02*
X005317Y013821D01*
X005317Y013921D02*
X004787Y013921D01*
X004787Y014021D02*
X005317Y014021D01*
X005317Y014121D02*
X004787Y014121D01*
X004136Y013321D02*
X003606Y013321D01*
X003606Y014165D01*
X004136Y014165D01*
X004136Y013321D01*
X004136Y013421D02*
X003606Y013421D01*
X003606Y013521D02*
X004136Y013521D01*
X004136Y013621D02*
X003606Y013621D01*
X003606Y013721D02*
X004136Y013721D01*
X004136Y013821D02*
X003606Y013821D01*
X003606Y013921D02*
X004136Y013921D01*
X004136Y014021D02*
X003606Y014021D01*
X003606Y014121D02*
X004136Y014121D01*
X006085Y013695D02*
X006299Y013695D01*
X006299Y013009D01*
X006085Y013009D01*
X006085Y013695D01*
X006085Y013109D02*
X006299Y013109D01*
X006299Y013209D02*
X006085Y013209D01*
X006085Y013309D02*
X006299Y013309D01*
X006299Y013409D02*
X006085Y013409D01*
X006085Y013509D02*
X006299Y013509D01*
X006299Y013609D02*
X006085Y013609D01*
X006577Y013695D02*
X006791Y013695D01*
X006791Y013009D01*
X006577Y013009D01*
X006577Y013695D01*
X006577Y013109D02*
X006791Y013109D01*
X006791Y013209D02*
X006577Y013209D01*
X006577Y013309D02*
X006791Y013309D01*
X006791Y013409D02*
X006577Y013409D01*
X006577Y013509D02*
X006791Y013509D01*
X006791Y013609D02*
X006577Y013609D01*
X007069Y013695D02*
X007283Y013695D01*
X007283Y013009D01*
X007069Y013009D01*
X007069Y013695D01*
X007069Y013109D02*
X007283Y013109D01*
X007283Y013209D02*
X007069Y013209D01*
X007069Y013309D02*
X007283Y013309D01*
X007283Y013409D02*
X007069Y013409D01*
X007069Y013509D02*
X007283Y013509D01*
X007283Y013609D02*
X007069Y013609D01*
X007561Y013695D02*
X007775Y013695D01*
X007775Y013009D01*
X007561Y013009D01*
X007561Y013695D01*
X007561Y013109D02*
X007775Y013109D01*
X007775Y013209D02*
X007561Y013209D01*
X007561Y013309D02*
X007775Y013309D01*
X007775Y013409D02*
X007561Y013409D01*
X007561Y013509D02*
X007775Y013509D01*
X007775Y013609D02*
X007561Y013609D01*
X008479Y009114D02*
X008693Y009114D01*
X008693Y008900D01*
X008479Y008900D01*
X008479Y009114D01*
X008479Y009000D02*
X008693Y009000D01*
X008693Y009100D02*
X008479Y009100D01*
X008479Y008523D02*
X008693Y008523D01*
X008693Y008309D01*
X008479Y008309D01*
X008479Y008523D01*
X008479Y008409D02*
X008693Y008409D01*
X008693Y008509D02*
X008479Y008509D01*
X005317Y005571D02*
X004787Y005571D01*
X005317Y005571D02*
X005317Y004727D01*
X004787Y004727D01*
X004787Y005571D01*
X004787Y004827D02*
X005317Y004827D01*
X005317Y004927D02*
X004787Y004927D01*
X004787Y005027D02*
X005317Y005027D01*
X005317Y005127D02*
X004787Y005127D01*
X004787Y005227D02*
X005317Y005227D01*
X005317Y005327D02*
X004787Y005327D01*
X004787Y005427D02*
X005317Y005427D01*
X005317Y005527D02*
X004787Y005527D01*
X004136Y004727D02*
X003606Y004727D01*
X003606Y005571D01*
X004136Y005571D01*
X004136Y004727D01*
X004136Y004827D02*
X003606Y004827D01*
X003606Y004927D02*
X004136Y004927D01*
X004136Y005027D02*
X003606Y005027D01*
X003606Y005127D02*
X004136Y005127D01*
X004136Y005227D02*
X003606Y005227D01*
X003606Y005327D02*
X004136Y005327D01*
X004136Y005427D02*
X003606Y005427D01*
X003606Y005527D02*
X004136Y005527D01*
X006085Y005101D02*
X006299Y005101D01*
X006299Y004415D01*
X006085Y004415D01*
X006085Y005101D01*
X006085Y004515D02*
X006299Y004515D01*
X006299Y004615D02*
X006085Y004615D01*
X006085Y004715D02*
X006299Y004715D01*
X006299Y004815D02*
X006085Y004815D01*
X006085Y004915D02*
X006299Y004915D01*
X006299Y005015D02*
X006085Y005015D01*
X006577Y005101D02*
X006791Y005101D01*
X006791Y004415D01*
X006577Y004415D01*
X006577Y005101D01*
X006577Y004515D02*
X006791Y004515D01*
X006791Y004615D02*
X006577Y004615D01*
X006577Y004715D02*
X006791Y004715D01*
X006791Y004815D02*
X006577Y004815D01*
X006577Y004915D02*
X006791Y004915D01*
X006791Y005015D02*
X006577Y005015D01*
X007069Y005101D02*
X007283Y005101D01*
X007283Y004415D01*
X007069Y004415D01*
X007069Y005101D01*
X007069Y004515D02*
X007283Y004515D01*
X007283Y004615D02*
X007069Y004615D01*
X007069Y004715D02*
X007283Y004715D01*
X007283Y004815D02*
X007069Y004815D01*
X007069Y004915D02*
X007283Y004915D01*
X007283Y005015D02*
X007069Y005015D01*
X007561Y005101D02*
X007775Y005101D01*
X007775Y004415D01*
X007561Y004415D01*
X007561Y005101D01*
X007561Y004515D02*
X007775Y004515D01*
X007775Y004615D02*
X007561Y004615D01*
X007561Y004715D02*
X007775Y004715D01*
X007775Y004815D02*
X007561Y004815D01*
X007561Y004915D02*
X007775Y004915D01*
X007775Y005015D02*
X007561Y005015D01*
X016011Y017117D02*
X016225Y017117D01*
X016225Y016903D01*
X016011Y016903D01*
X016011Y017117D01*
X016011Y017003D02*
X016225Y017003D01*
X016225Y017103D02*
X016011Y017103D01*
X016011Y017707D02*
X016225Y017707D01*
X016225Y017493D01*
X016011Y017493D01*
X016011Y017707D01*
X016011Y017593D02*
X016225Y017593D01*
X016225Y017693D02*
X016011Y017693D01*
D12*
X014275Y016137D02*
X014275Y015923D01*
X014257Y015923D01*
X014257Y016137D01*
X014275Y016137D01*
X014275Y016022D02*
X014257Y016022D01*
X014257Y016121D02*
X014275Y016121D01*
X014078Y016137D02*
X014078Y015923D01*
X014060Y015923D01*
X014060Y016137D01*
X014078Y016137D01*
X014078Y016022D02*
X014060Y016022D01*
X014060Y016121D02*
X014078Y016121D01*
X013881Y016137D02*
X013881Y015923D01*
X013863Y015923D01*
X013863Y016137D01*
X013881Y016137D01*
X013881Y016022D02*
X013863Y016022D01*
X013863Y016121D02*
X013881Y016121D01*
X013684Y016137D02*
X013684Y015923D01*
X013666Y015923D01*
X013666Y016137D01*
X013684Y016137D01*
X013684Y016022D02*
X013666Y016022D01*
X013666Y016121D02*
X013684Y016121D01*
X013487Y016137D02*
X013487Y015923D01*
X013469Y015923D01*
X013469Y016137D01*
X013487Y016137D01*
X013487Y016022D02*
X013469Y016022D01*
X013469Y016121D02*
X013487Y016121D01*
X013291Y016137D02*
X013291Y015923D01*
X013273Y015923D01*
X013273Y016137D01*
X013291Y016137D01*
X013291Y016022D02*
X013273Y016022D01*
X013273Y016121D02*
X013291Y016121D01*
X013093Y015726D02*
X012879Y015726D01*
X012879Y015744D01*
X013093Y015744D01*
X013093Y015726D01*
X013093Y015529D02*
X012879Y015529D01*
X012879Y015547D01*
X013093Y015547D01*
X013093Y015529D01*
X013093Y015332D02*
X012879Y015332D01*
X012879Y015350D01*
X013093Y015350D01*
X013093Y015332D01*
X013093Y015135D02*
X012879Y015135D01*
X012879Y015153D01*
X013093Y015153D01*
X013093Y015135D01*
X013093Y014938D02*
X012879Y014938D01*
X012879Y014956D01*
X013093Y014956D01*
X013093Y014938D01*
X013093Y014741D02*
X012879Y014741D01*
X012879Y014759D01*
X013093Y014759D01*
X013093Y014741D01*
X013273Y014562D02*
X013273Y014348D01*
X013273Y014562D02*
X013291Y014562D01*
X013291Y014348D01*
X013273Y014348D01*
X013273Y014447D02*
X013291Y014447D01*
X013291Y014546D02*
X013273Y014546D01*
X013469Y014562D02*
X013469Y014348D01*
X013469Y014562D02*
X013487Y014562D01*
X013487Y014348D01*
X013469Y014348D01*
X013469Y014447D02*
X013487Y014447D01*
X013487Y014546D02*
X013469Y014546D01*
X013666Y014562D02*
X013666Y014348D01*
X013666Y014562D02*
X013684Y014562D01*
X013684Y014348D01*
X013666Y014348D01*
X013666Y014447D02*
X013684Y014447D01*
X013684Y014546D02*
X013666Y014546D01*
X013863Y014562D02*
X013863Y014348D01*
X013863Y014562D02*
X013881Y014562D01*
X013881Y014348D01*
X013863Y014348D01*
X013863Y014447D02*
X013881Y014447D01*
X013881Y014546D02*
X013863Y014546D01*
X014060Y014562D02*
X014060Y014348D01*
X014060Y014562D02*
X014078Y014562D01*
X014078Y014348D01*
X014060Y014348D01*
X014060Y014447D02*
X014078Y014447D01*
X014078Y014546D02*
X014060Y014546D01*
X014257Y014562D02*
X014257Y014348D01*
X014257Y014562D02*
X014275Y014562D01*
X014275Y014348D01*
X014257Y014348D01*
X014257Y014447D02*
X014275Y014447D01*
X014275Y014546D02*
X014257Y014546D01*
X014454Y014759D02*
X014668Y014759D01*
X014668Y014741D01*
X014454Y014741D01*
X014454Y014759D01*
X014454Y014956D02*
X014668Y014956D01*
X014668Y014938D01*
X014454Y014938D01*
X014454Y014956D01*
X014454Y015153D02*
X014668Y015153D01*
X014668Y015135D01*
X014454Y015135D01*
X014454Y015153D01*
X014454Y015350D02*
X014668Y015350D01*
X014668Y015332D01*
X014454Y015332D01*
X014454Y015350D01*
X014454Y015547D02*
X014668Y015547D01*
X014668Y015529D01*
X014454Y015529D01*
X014454Y015547D01*
X014454Y015744D02*
X014668Y015744D01*
X014668Y015726D01*
X014454Y015726D01*
X014454Y015744D01*
X007137Y015744D02*
X006923Y015744D01*
X007137Y015744D02*
X007137Y015726D01*
X006923Y015726D01*
X006923Y015744D01*
X006923Y015547D02*
X007137Y015547D01*
X007137Y015529D01*
X006923Y015529D01*
X006923Y015547D01*
X006923Y015350D02*
X007137Y015350D01*
X007137Y015332D01*
X006923Y015332D01*
X006923Y015350D01*
X006923Y015153D02*
X007137Y015153D01*
X007137Y015135D01*
X006923Y015135D01*
X006923Y015153D01*
X006923Y014956D02*
X007137Y014956D01*
X007137Y014938D01*
X006923Y014938D01*
X006923Y014956D01*
X006923Y014759D02*
X007137Y014759D01*
X007137Y014741D01*
X006923Y014741D01*
X006923Y014759D01*
X006726Y014562D02*
X006726Y014348D01*
X006726Y014562D02*
X006744Y014562D01*
X006744Y014348D01*
X006726Y014348D01*
X006726Y014447D02*
X006744Y014447D01*
X006744Y014546D02*
X006726Y014546D01*
X006529Y014562D02*
X006529Y014348D01*
X006529Y014562D02*
X006547Y014562D01*
X006547Y014348D01*
X006529Y014348D01*
X006529Y014447D02*
X006547Y014447D01*
X006547Y014546D02*
X006529Y014546D01*
X006332Y014562D02*
X006332Y014348D01*
X006332Y014562D02*
X006350Y014562D01*
X006350Y014348D01*
X006332Y014348D01*
X006332Y014447D02*
X006350Y014447D01*
X006350Y014546D02*
X006332Y014546D01*
X006135Y014562D02*
X006135Y014348D01*
X006135Y014562D02*
X006153Y014562D01*
X006153Y014348D01*
X006135Y014348D01*
X006135Y014447D02*
X006153Y014447D01*
X006153Y014546D02*
X006135Y014546D01*
X005938Y014562D02*
X005938Y014348D01*
X005938Y014562D02*
X005956Y014562D01*
X005956Y014348D01*
X005938Y014348D01*
X005938Y014447D02*
X005956Y014447D01*
X005956Y014546D02*
X005938Y014546D01*
X005741Y014562D02*
X005741Y014348D01*
X005741Y014562D02*
X005759Y014562D01*
X005759Y014348D01*
X005741Y014348D01*
X005741Y014447D02*
X005759Y014447D01*
X005759Y014546D02*
X005741Y014546D01*
X005562Y014741D02*
X005348Y014741D01*
X005348Y014759D01*
X005562Y014759D01*
X005562Y014741D01*
X005562Y014938D02*
X005348Y014938D01*
X005348Y014956D01*
X005562Y014956D01*
X005562Y014938D01*
X005562Y015135D02*
X005348Y015135D01*
X005348Y015153D01*
X005562Y015153D01*
X005562Y015135D01*
X005562Y015332D02*
X005348Y015332D01*
X005348Y015350D01*
X005562Y015350D01*
X005562Y015332D01*
X005562Y015529D02*
X005348Y015529D01*
X005348Y015547D01*
X005562Y015547D01*
X005562Y015529D01*
X005562Y015726D02*
X005348Y015726D01*
X005348Y015744D01*
X005562Y015744D01*
X005562Y015726D01*
X005759Y015923D02*
X005759Y016137D01*
X005759Y015923D02*
X005741Y015923D01*
X005741Y016137D01*
X005759Y016137D01*
X005759Y016022D02*
X005741Y016022D01*
X005741Y016121D02*
X005759Y016121D01*
X005956Y016137D02*
X005956Y015923D01*
X005938Y015923D01*
X005938Y016137D01*
X005956Y016137D01*
X005956Y016022D02*
X005938Y016022D01*
X005938Y016121D02*
X005956Y016121D01*
X006153Y016137D02*
X006153Y015923D01*
X006135Y015923D01*
X006135Y016137D01*
X006153Y016137D01*
X006153Y016022D02*
X006135Y016022D01*
X006135Y016121D02*
X006153Y016121D01*
X006350Y016137D02*
X006350Y015923D01*
X006332Y015923D01*
X006332Y016137D01*
X006350Y016137D01*
X006350Y016022D02*
X006332Y016022D01*
X006332Y016121D02*
X006350Y016121D01*
X006547Y016137D02*
X006547Y015923D01*
X006529Y015923D01*
X006529Y016137D01*
X006547Y016137D01*
X006547Y016022D02*
X006529Y016022D01*
X006529Y016121D02*
X006547Y016121D01*
X006744Y016137D02*
X006744Y015923D01*
X006726Y015923D01*
X006726Y016137D01*
X006744Y016137D01*
X006744Y016022D02*
X006726Y016022D01*
X006726Y016121D02*
X006744Y016121D01*
X006744Y007543D02*
X006744Y007329D01*
X006726Y007329D01*
X006726Y007543D01*
X006744Y007543D01*
X006744Y007428D02*
X006726Y007428D01*
X006726Y007527D02*
X006744Y007527D01*
X006547Y007543D02*
X006547Y007329D01*
X006529Y007329D01*
X006529Y007543D01*
X006547Y007543D01*
X006547Y007428D02*
X006529Y007428D01*
X006529Y007527D02*
X006547Y007527D01*
X006350Y007543D02*
X006350Y007329D01*
X006332Y007329D01*
X006332Y007543D01*
X006350Y007543D01*
X006350Y007428D02*
X006332Y007428D01*
X006332Y007527D02*
X006350Y007527D01*
X006153Y007543D02*
X006153Y007329D01*
X006135Y007329D01*
X006135Y007543D01*
X006153Y007543D01*
X006153Y007428D02*
X006135Y007428D01*
X006135Y007527D02*
X006153Y007527D01*
X005956Y007543D02*
X005956Y007329D01*
X005938Y007329D01*
X005938Y007543D01*
X005956Y007543D01*
X005956Y007428D02*
X005938Y007428D01*
X005938Y007527D02*
X005956Y007527D01*
X005759Y007543D02*
X005759Y007329D01*
X005741Y007329D01*
X005741Y007543D01*
X005759Y007543D01*
X005759Y007428D02*
X005741Y007428D01*
X005741Y007527D02*
X005759Y007527D01*
X005562Y007132D02*
X005348Y007132D01*
X005348Y007150D01*
X005562Y007150D01*
X005562Y007132D01*
X005562Y006935D02*
X005348Y006935D01*
X005348Y006953D01*
X005562Y006953D01*
X005562Y006935D01*
X005562Y006738D02*
X005348Y006738D01*
X005348Y006756D01*
X005562Y006756D01*
X005562Y006738D01*
X005562Y006541D02*
X005348Y006541D01*
X005348Y006559D01*
X005562Y006559D01*
X005562Y006541D01*
X005562Y006344D02*
X005348Y006344D01*
X005348Y006362D01*
X005562Y006362D01*
X005562Y006344D01*
X005562Y006148D02*
X005348Y006148D01*
X005348Y006166D01*
X005562Y006166D01*
X005562Y006148D01*
X005741Y005968D02*
X005741Y005754D01*
X005741Y005968D02*
X005759Y005968D01*
X005759Y005754D01*
X005741Y005754D01*
X005741Y005853D02*
X005759Y005853D01*
X005759Y005952D02*
X005741Y005952D01*
X005938Y005968D02*
X005938Y005754D01*
X005938Y005968D02*
X005956Y005968D01*
X005956Y005754D01*
X005938Y005754D01*
X005938Y005853D02*
X005956Y005853D01*
X005956Y005952D02*
X005938Y005952D01*
X006135Y005968D02*
X006135Y005754D01*
X006135Y005968D02*
X006153Y005968D01*
X006153Y005754D01*
X006135Y005754D01*
X006135Y005853D02*
X006153Y005853D01*
X006153Y005952D02*
X006135Y005952D01*
X006332Y005968D02*
X006332Y005754D01*
X006332Y005968D02*
X006350Y005968D01*
X006350Y005754D01*
X006332Y005754D01*
X006332Y005853D02*
X006350Y005853D01*
X006350Y005952D02*
X006332Y005952D01*
X006529Y005968D02*
X006529Y005754D01*
X006529Y005968D02*
X006547Y005968D01*
X006547Y005754D01*
X006529Y005754D01*
X006529Y005853D02*
X006547Y005853D01*
X006547Y005952D02*
X006529Y005952D01*
X006726Y005968D02*
X006726Y005754D01*
X006726Y005968D02*
X006744Y005968D01*
X006744Y005754D01*
X006726Y005754D01*
X006726Y005853D02*
X006744Y005853D01*
X006744Y005952D02*
X006726Y005952D01*
X006923Y006166D02*
X007137Y006166D01*
X007137Y006148D01*
X006923Y006148D01*
X006923Y006166D01*
X006923Y006362D02*
X007137Y006362D01*
X007137Y006344D01*
X006923Y006344D01*
X006923Y006362D01*
X006923Y006559D02*
X007137Y006559D01*
X007137Y006541D01*
X006923Y006541D01*
X006923Y006559D01*
X006923Y006756D02*
X007137Y006756D01*
X007137Y006738D01*
X006923Y006738D01*
X006923Y006756D01*
X006923Y006953D02*
X007137Y006953D01*
X007137Y006935D01*
X006923Y006935D01*
X006923Y006953D01*
X006923Y007150D02*
X007137Y007150D01*
X007137Y007132D01*
X006923Y007132D01*
X006923Y007150D01*
X012879Y007132D02*
X013093Y007132D01*
X012879Y007132D02*
X012879Y007150D01*
X013093Y007150D01*
X013093Y007132D01*
X013093Y006935D02*
X012879Y006935D01*
X012879Y006953D01*
X013093Y006953D01*
X013093Y006935D01*
X013093Y006738D02*
X012879Y006738D01*
X012879Y006756D01*
X013093Y006756D01*
X013093Y006738D01*
X013093Y006541D02*
X012879Y006541D01*
X012879Y006559D01*
X013093Y006559D01*
X013093Y006541D01*
X013093Y006344D02*
X012879Y006344D01*
X012879Y006362D01*
X013093Y006362D01*
X013093Y006344D01*
X013093Y006148D02*
X012879Y006148D01*
X012879Y006166D01*
X013093Y006166D01*
X013093Y006148D01*
X013273Y005968D02*
X013273Y005754D01*
X013273Y005968D02*
X013291Y005968D01*
X013291Y005754D01*
X013273Y005754D01*
X013273Y005853D02*
X013291Y005853D01*
X013291Y005952D02*
X013273Y005952D01*
X013469Y005968D02*
X013469Y005754D01*
X013469Y005968D02*
X013487Y005968D01*
X013487Y005754D01*
X013469Y005754D01*
X013469Y005853D02*
X013487Y005853D01*
X013487Y005952D02*
X013469Y005952D01*
X013666Y005968D02*
X013666Y005754D01*
X013666Y005968D02*
X013684Y005968D01*
X013684Y005754D01*
X013666Y005754D01*
X013666Y005853D02*
X013684Y005853D01*
X013684Y005952D02*
X013666Y005952D01*
X013863Y005968D02*
X013863Y005754D01*
X013863Y005968D02*
X013881Y005968D01*
X013881Y005754D01*
X013863Y005754D01*
X013863Y005853D02*
X013881Y005853D01*
X013881Y005952D02*
X013863Y005952D01*
X014060Y005968D02*
X014060Y005754D01*
X014060Y005968D02*
X014078Y005968D01*
X014078Y005754D01*
X014060Y005754D01*
X014060Y005853D02*
X014078Y005853D01*
X014078Y005952D02*
X014060Y005952D01*
X014257Y005968D02*
X014257Y005754D01*
X014257Y005968D02*
X014275Y005968D01*
X014275Y005754D01*
X014257Y005754D01*
X014257Y005853D02*
X014275Y005853D01*
X014275Y005952D02*
X014257Y005952D01*
X014454Y006166D02*
X014668Y006166D01*
X014668Y006148D01*
X014454Y006148D01*
X014454Y006166D01*
X014454Y006362D02*
X014668Y006362D01*
X014668Y006344D01*
X014454Y006344D01*
X014454Y006362D01*
X014454Y006559D02*
X014668Y006559D01*
X014668Y006541D01*
X014454Y006541D01*
X014454Y006559D01*
X014454Y006756D02*
X014668Y006756D01*
X014668Y006738D01*
X014454Y006738D01*
X014454Y006756D01*
X014454Y006953D02*
X014668Y006953D01*
X014668Y006935D01*
X014454Y006935D01*
X014454Y006953D01*
X014454Y007150D02*
X014668Y007150D01*
X014668Y007132D01*
X014454Y007132D01*
X014454Y007150D01*
X014275Y007329D02*
X014275Y007543D01*
X014275Y007329D02*
X014257Y007329D01*
X014257Y007543D01*
X014275Y007543D01*
X014275Y007428D02*
X014257Y007428D01*
X014257Y007527D02*
X014275Y007527D01*
X014078Y007543D02*
X014078Y007329D01*
X014060Y007329D01*
X014060Y007543D01*
X014078Y007543D01*
X014078Y007428D02*
X014060Y007428D01*
X014060Y007527D02*
X014078Y007527D01*
X013881Y007543D02*
X013881Y007329D01*
X013863Y007329D01*
X013863Y007543D01*
X013881Y007543D01*
X013881Y007428D02*
X013863Y007428D01*
X013863Y007527D02*
X013881Y007527D01*
X013684Y007543D02*
X013684Y007329D01*
X013666Y007329D01*
X013666Y007543D01*
X013684Y007543D01*
X013684Y007428D02*
X013666Y007428D01*
X013666Y007527D02*
X013684Y007527D01*
X013487Y007543D02*
X013487Y007329D01*
X013469Y007329D01*
X013469Y007543D01*
X013487Y007543D01*
X013487Y007428D02*
X013469Y007428D01*
X013469Y007527D02*
X013487Y007527D01*
X013291Y007543D02*
X013291Y007329D01*
X013273Y007329D01*
X013273Y007543D01*
X013291Y007543D01*
X013291Y007428D02*
X013273Y007428D01*
X013273Y007527D02*
X013291Y007527D01*
D13*
X013222Y008229D02*
X012888Y008229D01*
X012888Y008525D01*
X013222Y008525D01*
X013222Y008229D01*
X013222Y008326D02*
X012888Y008326D01*
X012888Y008423D02*
X013222Y008423D01*
X013222Y008520D02*
X012888Y008520D01*
X012888Y008898D02*
X013222Y008898D01*
X012888Y008898D02*
X012888Y009194D01*
X013222Y009194D01*
X013222Y008898D01*
X013222Y008995D02*
X012888Y008995D01*
X012888Y009092D02*
X013222Y009092D01*
X013222Y009189D02*
X012888Y009189D01*
X011867Y007566D02*
X011867Y007232D01*
X011867Y007566D02*
X012163Y007566D01*
X012163Y007232D01*
X011867Y007232D01*
X011867Y007329D02*
X012163Y007329D01*
X012163Y007426D02*
X011867Y007426D01*
X011867Y007523D02*
X012163Y007523D01*
X011867Y006941D02*
X011867Y006607D01*
X011867Y006941D02*
X012163Y006941D01*
X012163Y006607D01*
X011867Y006607D01*
X011867Y006704D02*
X012163Y006704D01*
X012163Y006801D02*
X011867Y006801D01*
X011867Y006898D02*
X012163Y006898D01*
X011867Y006316D02*
X011867Y005982D01*
X011867Y006316D02*
X012163Y006316D01*
X012163Y005982D01*
X011867Y005982D01*
X011867Y006079D02*
X012163Y006079D01*
X012163Y006176D02*
X011867Y006176D01*
X011867Y006273D02*
X012163Y006273D01*
X011197Y006316D02*
X011197Y005982D01*
X011197Y006316D02*
X011493Y006316D01*
X011493Y005982D01*
X011197Y005982D01*
X011197Y006079D02*
X011493Y006079D01*
X011493Y006176D02*
X011197Y006176D01*
X011197Y006273D02*
X011493Y006273D01*
X011197Y006607D02*
X011197Y006941D01*
X011493Y006941D01*
X011493Y006607D01*
X011197Y006607D01*
X011197Y006704D02*
X011493Y006704D01*
X011493Y006801D02*
X011197Y006801D01*
X011197Y006898D02*
X011493Y006898D01*
X011197Y007232D02*
X011197Y007566D01*
X011493Y007566D01*
X011493Y007232D01*
X011197Y007232D01*
X011197Y007329D02*
X011493Y007329D01*
X011493Y007426D02*
X011197Y007426D01*
X011197Y007523D02*
X011493Y007523D01*
X008694Y007544D02*
X008694Y007878D01*
X008694Y007544D02*
X008398Y007544D01*
X008398Y007878D01*
X008694Y007878D01*
X008694Y007641D02*
X008398Y007641D01*
X008398Y007738D02*
X008694Y007738D01*
X008694Y007835D02*
X008398Y007835D01*
X008025Y007878D02*
X008025Y007544D01*
X007729Y007544D01*
X007729Y007878D01*
X008025Y007878D01*
X008025Y007641D02*
X007729Y007641D01*
X007729Y007738D02*
X008025Y007738D01*
X008025Y007835D02*
X007729Y007835D01*
X008066Y008229D02*
X008066Y008525D01*
X008066Y008229D02*
X007732Y008229D01*
X007732Y008525D01*
X008066Y008525D01*
X008066Y008326D02*
X007732Y008326D01*
X007732Y008423D02*
X008066Y008423D01*
X008066Y008520D02*
X007732Y008520D01*
X008066Y008898D02*
X008066Y009194D01*
X008066Y008898D02*
X007732Y008898D01*
X007732Y009194D01*
X008066Y009194D01*
X008066Y008995D02*
X007732Y008995D01*
X007732Y009092D02*
X008066Y009092D01*
X008066Y009189D02*
X007732Y009189D01*
X007729Y006919D02*
X008025Y006919D01*
X007729Y006919D02*
X007729Y007253D01*
X008025Y007253D01*
X008025Y006919D01*
X008025Y007016D02*
X007729Y007016D01*
X007729Y007113D02*
X008025Y007113D01*
X008025Y007210D02*
X007729Y007210D01*
X007729Y006294D02*
X008025Y006294D01*
X007729Y006294D02*
X007729Y006628D01*
X008025Y006628D01*
X008025Y006294D01*
X008025Y006391D02*
X007729Y006391D01*
X007729Y006488D02*
X008025Y006488D01*
X008025Y006585D02*
X007729Y006585D01*
X008025Y006003D02*
X008025Y005669D01*
X007729Y005669D01*
X007729Y006003D01*
X008025Y006003D01*
X008025Y005766D02*
X007729Y005766D01*
X007729Y005863D02*
X008025Y005863D01*
X008025Y005960D02*
X007729Y005960D01*
X008694Y006003D02*
X008694Y005669D01*
X008398Y005669D01*
X008398Y006003D01*
X008694Y006003D01*
X008694Y005766D02*
X008398Y005766D01*
X008398Y005863D02*
X008694Y005863D01*
X008694Y005960D02*
X008398Y005960D01*
X008398Y006294D02*
X008694Y006294D01*
X008398Y006294D02*
X008398Y006628D01*
X008694Y006628D01*
X008694Y006294D01*
X008694Y006391D02*
X008398Y006391D01*
X008398Y006488D02*
X008694Y006488D01*
X008694Y006585D02*
X008398Y006585D01*
X008398Y006919D02*
X008694Y006919D01*
X008398Y006919D02*
X008398Y007253D01*
X008694Y007253D01*
X008694Y006919D01*
X008694Y007016D02*
X008398Y007016D01*
X008398Y007113D02*
X008694Y007113D01*
X008694Y007210D02*
X008398Y007210D01*
X005691Y008229D02*
X005357Y008229D01*
X005357Y008525D01*
X005691Y008525D01*
X005691Y008229D01*
X005691Y008326D02*
X005357Y008326D01*
X005357Y008423D02*
X005691Y008423D01*
X005691Y008520D02*
X005357Y008520D01*
X005357Y008898D02*
X005691Y008898D01*
X005357Y008898D02*
X005357Y009194D01*
X005691Y009194D01*
X005691Y008898D01*
X005691Y008995D02*
X005357Y008995D01*
X005357Y009092D02*
X005691Y009092D01*
X005691Y009189D02*
X005357Y009189D01*
X004335Y007566D02*
X004335Y007232D01*
X004335Y007566D02*
X004631Y007566D01*
X004631Y007232D01*
X004335Y007232D01*
X004335Y007329D02*
X004631Y007329D01*
X004631Y007426D02*
X004335Y007426D01*
X004335Y007523D02*
X004631Y007523D01*
X004335Y006941D02*
X004335Y006607D01*
X004335Y006941D02*
X004631Y006941D01*
X004631Y006607D01*
X004335Y006607D01*
X004335Y006704D02*
X004631Y006704D01*
X004631Y006801D02*
X004335Y006801D01*
X004335Y006898D02*
X004631Y006898D01*
X004335Y006316D02*
X004335Y005982D01*
X004335Y006316D02*
X004631Y006316D01*
X004631Y005982D01*
X004335Y005982D01*
X004335Y006079D02*
X004631Y006079D01*
X004631Y006176D02*
X004335Y006176D01*
X004335Y006273D02*
X004631Y006273D01*
X003666Y006316D02*
X003666Y005982D01*
X003666Y006316D02*
X003962Y006316D01*
X003962Y005982D01*
X003666Y005982D01*
X003666Y006079D02*
X003962Y006079D01*
X003962Y006176D02*
X003666Y006176D01*
X003666Y006273D02*
X003962Y006273D01*
X003666Y006607D02*
X003666Y006941D01*
X003962Y006941D01*
X003962Y006607D01*
X003666Y006607D01*
X003666Y006704D02*
X003962Y006704D01*
X003962Y006801D02*
X003666Y006801D01*
X003666Y006898D02*
X003962Y006898D01*
X003666Y007232D02*
X003666Y007566D01*
X003962Y007566D01*
X003962Y007232D01*
X003666Y007232D01*
X003666Y007329D02*
X003962Y007329D01*
X003962Y007426D02*
X003666Y007426D01*
X003666Y007523D02*
X003962Y007523D01*
X008025Y014263D02*
X008025Y014597D01*
X008025Y014263D02*
X007729Y014263D01*
X007729Y014597D01*
X008025Y014597D01*
X008025Y014360D02*
X007729Y014360D01*
X007729Y014457D02*
X008025Y014457D01*
X008025Y014554D02*
X007729Y014554D01*
X007729Y014888D02*
X008025Y014888D01*
X007729Y014888D02*
X007729Y015222D01*
X008025Y015222D01*
X008025Y014888D01*
X008025Y014985D02*
X007729Y014985D01*
X007729Y015082D02*
X008025Y015082D01*
X008025Y015179D02*
X007729Y015179D01*
X007729Y015513D02*
X008025Y015513D01*
X007729Y015513D02*
X007729Y015847D01*
X008025Y015847D01*
X008025Y015513D01*
X008025Y015610D02*
X007729Y015610D01*
X007729Y015707D02*
X008025Y015707D01*
X008025Y015804D02*
X007729Y015804D01*
X008025Y016138D02*
X008025Y016472D01*
X008025Y016138D02*
X007729Y016138D01*
X007729Y016472D01*
X008025Y016472D01*
X008025Y016235D02*
X007729Y016235D01*
X007729Y016332D02*
X008025Y016332D01*
X008025Y016429D02*
X007729Y016429D01*
X008066Y016822D02*
X008066Y017118D01*
X008066Y016822D02*
X007732Y016822D01*
X007732Y017118D01*
X008066Y017118D01*
X008066Y016919D02*
X007732Y016919D01*
X007732Y017016D02*
X008066Y017016D01*
X008066Y017113D02*
X007732Y017113D01*
X008066Y017492D02*
X008066Y017788D01*
X008066Y017492D02*
X007732Y017492D01*
X007732Y017788D01*
X008066Y017788D01*
X008066Y017589D02*
X007732Y017589D01*
X007732Y017686D02*
X008066Y017686D01*
X008066Y017783D02*
X007732Y017783D01*
X008694Y016472D02*
X008694Y016138D01*
X008398Y016138D01*
X008398Y016472D01*
X008694Y016472D01*
X008694Y016235D02*
X008398Y016235D01*
X008398Y016332D02*
X008694Y016332D01*
X008694Y016429D02*
X008398Y016429D01*
X008398Y015513D02*
X008694Y015513D01*
X008398Y015513D02*
X008398Y015847D01*
X008694Y015847D01*
X008694Y015513D01*
X008694Y015610D02*
X008398Y015610D01*
X008398Y015707D02*
X008694Y015707D01*
X008694Y015804D02*
X008398Y015804D01*
X008398Y014888D02*
X008694Y014888D01*
X008398Y014888D02*
X008398Y015222D01*
X008694Y015222D01*
X008694Y014888D01*
X008694Y014985D02*
X008398Y014985D01*
X008398Y015082D02*
X008694Y015082D01*
X008694Y015179D02*
X008398Y015179D01*
X008694Y014597D02*
X008694Y014263D01*
X008398Y014263D01*
X008398Y014597D01*
X008694Y014597D01*
X008694Y014360D02*
X008398Y014360D01*
X008398Y014457D02*
X008694Y014457D01*
X008694Y014554D02*
X008398Y014554D01*
X005691Y016822D02*
X005357Y016822D01*
X005357Y017118D01*
X005691Y017118D01*
X005691Y016822D01*
X005691Y016919D02*
X005357Y016919D01*
X005357Y017016D02*
X005691Y017016D01*
X005691Y017113D02*
X005357Y017113D01*
X005357Y017492D02*
X005691Y017492D01*
X005357Y017492D02*
X005357Y017788D01*
X005691Y017788D01*
X005691Y017492D01*
X005691Y017589D02*
X005357Y017589D01*
X005357Y017686D02*
X005691Y017686D01*
X005691Y017783D02*
X005357Y017783D01*
X004335Y016160D02*
X004335Y015826D01*
X004335Y016160D02*
X004631Y016160D01*
X004631Y015826D01*
X004335Y015826D01*
X004335Y015923D02*
X004631Y015923D01*
X004631Y016020D02*
X004335Y016020D01*
X004335Y016117D02*
X004631Y016117D01*
X004335Y015535D02*
X004335Y015201D01*
X004335Y015535D02*
X004631Y015535D01*
X004631Y015201D01*
X004335Y015201D01*
X004335Y015298D02*
X004631Y015298D01*
X004631Y015395D02*
X004335Y015395D01*
X004335Y015492D02*
X004631Y015492D01*
X004335Y014910D02*
X004335Y014576D01*
X004335Y014910D02*
X004631Y014910D01*
X004631Y014576D01*
X004335Y014576D01*
X004335Y014673D02*
X004631Y014673D01*
X004631Y014770D02*
X004335Y014770D01*
X004335Y014867D02*
X004631Y014867D01*
X003666Y014910D02*
X003666Y014576D01*
X003666Y014910D02*
X003962Y014910D01*
X003962Y014576D01*
X003666Y014576D01*
X003666Y014673D02*
X003962Y014673D01*
X003962Y014770D02*
X003666Y014770D01*
X003666Y014867D02*
X003962Y014867D01*
X003666Y015201D02*
X003666Y015535D01*
X003962Y015535D01*
X003962Y015201D01*
X003666Y015201D01*
X003666Y015298D02*
X003962Y015298D01*
X003962Y015395D02*
X003666Y015395D01*
X003666Y015492D02*
X003962Y015492D01*
X003666Y015826D02*
X003666Y016160D01*
X003962Y016160D01*
X003962Y015826D01*
X003666Y015826D01*
X003666Y015923D02*
X003962Y015923D01*
X003962Y016020D02*
X003666Y016020D01*
X003666Y016117D02*
X003962Y016117D01*
X011197Y016160D02*
X011197Y015826D01*
X011197Y016160D02*
X011493Y016160D01*
X011493Y015826D01*
X011197Y015826D01*
X011197Y015923D02*
X011493Y015923D01*
X011493Y016020D02*
X011197Y016020D01*
X011197Y016117D02*
X011493Y016117D01*
X011867Y016160D02*
X011867Y015826D01*
X011867Y016160D02*
X012163Y016160D01*
X012163Y015826D01*
X011867Y015826D01*
X011867Y015923D02*
X012163Y015923D01*
X012163Y016020D02*
X011867Y016020D01*
X011867Y016117D02*
X012163Y016117D01*
X011867Y015535D02*
X011867Y015201D01*
X011867Y015535D02*
X012163Y015535D01*
X012163Y015201D01*
X011867Y015201D01*
X011867Y015298D02*
X012163Y015298D01*
X012163Y015395D02*
X011867Y015395D01*
X011867Y015492D02*
X012163Y015492D01*
X011867Y014910D02*
X011867Y014576D01*
X011867Y014910D02*
X012163Y014910D01*
X012163Y014576D01*
X011867Y014576D01*
X011867Y014673D02*
X012163Y014673D01*
X012163Y014770D02*
X011867Y014770D01*
X011867Y014867D02*
X012163Y014867D01*
X011197Y014910D02*
X011197Y014576D01*
X011197Y014910D02*
X011493Y014910D01*
X011493Y014576D01*
X011197Y014576D01*
X011197Y014673D02*
X011493Y014673D01*
X011493Y014770D02*
X011197Y014770D01*
X011197Y014867D02*
X011493Y014867D01*
X011197Y015201D02*
X011197Y015535D01*
X011493Y015535D01*
X011493Y015201D01*
X011197Y015201D01*
X011197Y015298D02*
X011493Y015298D01*
X011493Y015395D02*
X011197Y015395D01*
X011197Y015492D02*
X011493Y015492D01*
X012888Y016822D02*
X013222Y016822D01*
X012888Y016822D02*
X012888Y017118D01*
X013222Y017118D01*
X013222Y016822D01*
X013222Y016919D02*
X012888Y016919D01*
X012888Y017016D02*
X013222Y017016D01*
X013222Y017113D02*
X012888Y017113D01*
X012888Y017492D02*
X013222Y017492D01*
X012888Y017492D02*
X012888Y017788D01*
X013222Y017788D01*
X013222Y017492D01*
X013222Y017589D02*
X012888Y017589D01*
X012888Y017686D02*
X013222Y017686D01*
X013222Y017783D02*
X012888Y017783D01*
X015597Y017788D02*
X015597Y017492D01*
X015263Y017492D01*
X015263Y017788D01*
X015597Y017788D01*
X015597Y017589D02*
X015263Y017589D01*
X015263Y017686D02*
X015597Y017686D01*
X015597Y017783D02*
X015263Y017783D01*
X015597Y017118D02*
X015597Y016822D01*
X015263Y016822D01*
X015263Y017118D01*
X015597Y017118D01*
X015597Y016919D02*
X015263Y016919D01*
X015263Y017016D02*
X015597Y017016D01*
X015597Y017113D02*
X015263Y017113D01*
X015556Y016472D02*
X015556Y016138D01*
X015260Y016138D01*
X015260Y016472D01*
X015556Y016472D01*
X015556Y016235D02*
X015260Y016235D01*
X015260Y016332D02*
X015556Y016332D01*
X015556Y016429D02*
X015260Y016429D01*
X015260Y015513D02*
X015556Y015513D01*
X015260Y015513D02*
X015260Y015847D01*
X015556Y015847D01*
X015556Y015513D01*
X015556Y015610D02*
X015260Y015610D01*
X015260Y015707D02*
X015556Y015707D01*
X015556Y015804D02*
X015260Y015804D01*
X015260Y014888D02*
X015556Y014888D01*
X015260Y014888D02*
X015260Y015222D01*
X015556Y015222D01*
X015556Y014888D01*
X015556Y014985D02*
X015260Y014985D01*
X015260Y015082D02*
X015556Y015082D01*
X015556Y015179D02*
X015260Y015179D01*
X015556Y014597D02*
X015556Y014263D01*
X015260Y014263D01*
X015260Y014597D01*
X015556Y014597D01*
X015556Y014360D02*
X015260Y014360D01*
X015260Y014457D02*
X015556Y014457D01*
X015556Y014554D02*
X015260Y014554D01*
X016225Y014597D02*
X016225Y014263D01*
X015929Y014263D01*
X015929Y014597D01*
X016225Y014597D01*
X016225Y014360D02*
X015929Y014360D01*
X015929Y014457D02*
X016225Y014457D01*
X016225Y014554D02*
X015929Y014554D01*
X015929Y014888D02*
X016225Y014888D01*
X015929Y014888D02*
X015929Y015222D01*
X016225Y015222D01*
X016225Y014888D01*
X016225Y014985D02*
X015929Y014985D01*
X015929Y015082D02*
X016225Y015082D01*
X016225Y015179D02*
X015929Y015179D01*
X015929Y015513D02*
X016225Y015513D01*
X015929Y015513D02*
X015929Y015847D01*
X016225Y015847D01*
X016225Y015513D01*
X016225Y015610D02*
X015929Y015610D01*
X015929Y015707D02*
X016225Y015707D01*
X016225Y015804D02*
X015929Y015804D01*
X016225Y016138D02*
X016225Y016472D01*
X016225Y016138D02*
X015929Y016138D01*
X015929Y016472D01*
X016225Y016472D01*
X016225Y016235D02*
X015929Y016235D01*
X015929Y016332D02*
X016225Y016332D01*
X016225Y016429D02*
X015929Y016429D01*
X015597Y009194D02*
X015597Y008898D01*
X015263Y008898D01*
X015263Y009194D01*
X015597Y009194D01*
X015597Y008995D02*
X015263Y008995D01*
X015263Y009092D02*
X015597Y009092D01*
X015597Y009189D02*
X015263Y009189D01*
X015597Y008525D02*
X015597Y008229D01*
X015263Y008229D01*
X015263Y008525D01*
X015597Y008525D01*
X015597Y008326D02*
X015263Y008326D01*
X015263Y008423D02*
X015597Y008423D01*
X015597Y008520D02*
X015263Y008520D01*
X015556Y007878D02*
X015556Y007544D01*
X015260Y007544D01*
X015260Y007878D01*
X015556Y007878D01*
X015556Y007641D02*
X015260Y007641D01*
X015260Y007738D02*
X015556Y007738D01*
X015556Y007835D02*
X015260Y007835D01*
X015260Y006919D02*
X015556Y006919D01*
X015260Y006919D02*
X015260Y007253D01*
X015556Y007253D01*
X015556Y006919D01*
X015556Y007016D02*
X015260Y007016D01*
X015260Y007113D02*
X015556Y007113D01*
X015556Y007210D02*
X015260Y007210D01*
X015260Y006294D02*
X015556Y006294D01*
X015260Y006294D02*
X015260Y006628D01*
X015556Y006628D01*
X015556Y006294D01*
X015556Y006391D02*
X015260Y006391D01*
X015260Y006488D02*
X015556Y006488D01*
X015556Y006585D02*
X015260Y006585D01*
X015556Y006003D02*
X015556Y005669D01*
X015260Y005669D01*
X015260Y006003D01*
X015556Y006003D01*
X015556Y005766D02*
X015260Y005766D01*
X015260Y005863D02*
X015556Y005863D01*
X015556Y005960D02*
X015260Y005960D01*
X016225Y006003D02*
X016225Y005669D01*
X015929Y005669D01*
X015929Y006003D01*
X016225Y006003D01*
X016225Y005766D02*
X015929Y005766D01*
X015929Y005863D02*
X016225Y005863D01*
X016225Y005960D02*
X015929Y005960D01*
X015929Y006294D02*
X016225Y006294D01*
X015929Y006294D02*
X015929Y006628D01*
X016225Y006628D01*
X016225Y006294D01*
X016225Y006391D02*
X015929Y006391D01*
X015929Y006488D02*
X016225Y006488D01*
X016225Y006585D02*
X015929Y006585D01*
X015929Y006919D02*
X016225Y006919D01*
X015929Y006919D02*
X015929Y007253D01*
X016225Y007253D01*
X016225Y006919D01*
X016225Y007016D02*
X015929Y007016D01*
X015929Y007113D02*
X016225Y007113D01*
X016225Y007210D02*
X015929Y007210D01*
X016225Y007544D02*
X016225Y007878D01*
X016225Y007544D02*
X015929Y007544D01*
X015929Y007878D01*
X016225Y007878D01*
X016225Y007641D02*
X015929Y007641D01*
X015929Y007738D02*
X016225Y007738D01*
X016225Y007835D02*
X015929Y007835D01*
D14*
X015833Y012649D02*
X016535Y012649D01*
X016535Y011593D01*
X015833Y011593D01*
X015833Y012649D01*
X015833Y011716D02*
X016535Y011716D01*
X016535Y011839D02*
X015833Y011839D01*
X015833Y011962D02*
X016535Y011962D01*
X016535Y012085D02*
X015833Y012085D01*
X015833Y012208D02*
X016535Y012208D01*
X016535Y012331D02*
X015833Y012331D01*
X015833Y012454D02*
X016535Y012454D01*
X016535Y012577D02*
X015833Y012577D01*
X013090Y012649D02*
X012388Y012649D01*
X013090Y012649D02*
X013090Y011593D01*
X012388Y011593D01*
X012388Y012649D01*
X012388Y011716D02*
X013090Y011716D01*
X013090Y011839D02*
X012388Y011839D01*
X012388Y011962D02*
X013090Y011962D01*
X013090Y012085D02*
X012388Y012085D01*
X012388Y012208D02*
X013090Y012208D01*
X013090Y012331D02*
X012388Y012331D01*
X012388Y012454D02*
X013090Y012454D01*
X013090Y012577D02*
X012388Y012577D01*
X009003Y012649D02*
X008301Y012649D01*
X009003Y012649D02*
X009003Y011593D01*
X008301Y011593D01*
X008301Y012649D01*
X008301Y011716D02*
X009003Y011716D01*
X009003Y011839D02*
X008301Y011839D01*
X008301Y011962D02*
X009003Y011962D01*
X009003Y012085D02*
X008301Y012085D01*
X008301Y012208D02*
X009003Y012208D01*
X009003Y012331D02*
X008301Y012331D01*
X008301Y012454D02*
X009003Y012454D01*
X009003Y012577D02*
X008301Y012577D01*
X005559Y012649D02*
X004857Y012649D01*
X005559Y012649D02*
X005559Y011593D01*
X004857Y011593D01*
X004857Y012649D01*
X004857Y011716D02*
X005559Y011716D01*
X005559Y011839D02*
X004857Y011839D01*
X004857Y011962D02*
X005559Y011962D01*
X005559Y012085D02*
X004857Y012085D01*
X004857Y012208D02*
X005559Y012208D01*
X005559Y012331D02*
X004857Y012331D01*
X004857Y012454D02*
X005559Y012454D01*
X005559Y012577D02*
X004857Y012577D01*
X004857Y004056D02*
X005559Y004056D01*
X005559Y003000D01*
X004857Y003000D01*
X004857Y004056D01*
X004857Y003123D02*
X005559Y003123D01*
X005559Y003246D02*
X004857Y003246D01*
X004857Y003369D02*
X005559Y003369D01*
X005559Y003492D02*
X004857Y003492D01*
X004857Y003615D02*
X005559Y003615D01*
X005559Y003738D02*
X004857Y003738D01*
X004857Y003861D02*
X005559Y003861D01*
X005559Y003984D02*
X004857Y003984D01*
X008301Y004056D02*
X009003Y004056D01*
X009003Y003000D01*
X008301Y003000D01*
X008301Y004056D01*
X008301Y003123D02*
X009003Y003123D01*
X009003Y003246D02*
X008301Y003246D01*
X008301Y003369D02*
X009003Y003369D01*
X009003Y003492D02*
X008301Y003492D01*
X008301Y003615D02*
X009003Y003615D01*
X009003Y003738D02*
X008301Y003738D01*
X008301Y003861D02*
X009003Y003861D01*
X009003Y003984D02*
X008301Y003984D01*
X012388Y004056D02*
X013090Y004056D01*
X013090Y003000D01*
X012388Y003000D01*
X012388Y004056D01*
X012388Y003123D02*
X013090Y003123D01*
X013090Y003246D02*
X012388Y003246D01*
X012388Y003369D02*
X013090Y003369D01*
X013090Y003492D02*
X012388Y003492D01*
X012388Y003615D02*
X013090Y003615D01*
X013090Y003738D02*
X012388Y003738D01*
X012388Y003861D02*
X013090Y003861D01*
X013090Y003984D02*
X012388Y003984D01*
X015833Y004056D02*
X016535Y004056D01*
X016535Y003000D01*
X015833Y003000D01*
X015833Y004056D01*
X015833Y003123D02*
X016535Y003123D01*
X016535Y003246D02*
X015833Y003246D01*
X015833Y003369D02*
X016535Y003369D01*
X016535Y003492D02*
X015833Y003492D01*
X015833Y003615D02*
X016535Y003615D01*
X016535Y003738D02*
X015833Y003738D01*
X015833Y003861D02*
X016535Y003861D01*
X016535Y003984D02*
X015833Y003984D01*
D15*
X014568Y008279D02*
X014568Y008395D01*
X014940Y008395D01*
X014940Y008279D01*
X014568Y008279D01*
X014568Y008378D02*
X014940Y008378D01*
X014568Y009027D02*
X014568Y009143D01*
X014940Y009143D01*
X014940Y009027D01*
X014568Y009027D01*
X014568Y009126D02*
X014940Y009126D01*
X013545Y009143D02*
X013545Y009027D01*
X013545Y009143D02*
X013917Y009143D01*
X013917Y009027D01*
X013545Y009027D01*
X013545Y009126D02*
X013917Y009126D01*
X013545Y008769D02*
X013545Y008653D01*
X013545Y008769D02*
X013917Y008769D01*
X013917Y008653D01*
X013545Y008653D01*
X013545Y008752D02*
X013917Y008752D01*
X013545Y008395D02*
X013545Y008279D01*
X013545Y008395D02*
X013917Y008395D01*
X013917Y008279D01*
X013545Y008279D01*
X013545Y008378D02*
X013917Y008378D01*
X007037Y008279D02*
X007037Y008395D01*
X007409Y008395D01*
X007409Y008279D01*
X007037Y008279D01*
X007037Y008378D02*
X007409Y008378D01*
X007037Y009027D02*
X007037Y009143D01*
X007409Y009143D01*
X007409Y009027D01*
X007037Y009027D01*
X007037Y009126D02*
X007409Y009126D01*
X006013Y009143D02*
X006013Y009027D01*
X006013Y009143D02*
X006385Y009143D01*
X006385Y009027D01*
X006013Y009027D01*
X006013Y009126D02*
X006385Y009126D01*
X006013Y008769D02*
X006013Y008653D01*
X006013Y008769D02*
X006385Y008769D01*
X006385Y008653D01*
X006013Y008653D01*
X006013Y008752D02*
X006385Y008752D01*
X006013Y008395D02*
X006013Y008279D01*
X006013Y008395D02*
X006385Y008395D01*
X006385Y008279D01*
X006013Y008279D01*
X006013Y008378D02*
X006385Y008378D01*
X006013Y016873D02*
X006013Y016989D01*
X006385Y016989D01*
X006385Y016873D01*
X006013Y016873D01*
X006013Y016972D02*
X006385Y016972D01*
X006013Y017247D02*
X006013Y017363D01*
X006385Y017363D01*
X006385Y017247D01*
X006013Y017247D01*
X006013Y017346D02*
X006385Y017346D01*
X006013Y017621D02*
X006013Y017737D01*
X006385Y017737D01*
X006385Y017621D01*
X006013Y017621D01*
X006013Y017720D02*
X006385Y017720D01*
X007037Y017737D02*
X007037Y017621D01*
X007037Y017737D02*
X007409Y017737D01*
X007409Y017621D01*
X007037Y017621D01*
X007037Y017720D02*
X007409Y017720D01*
X007037Y016989D02*
X007037Y016873D01*
X007037Y016989D02*
X007409Y016989D01*
X007409Y016873D01*
X007037Y016873D01*
X007037Y016972D02*
X007409Y016972D01*
X013545Y016873D02*
X013545Y016989D01*
X013917Y016989D01*
X013917Y016873D01*
X013545Y016873D01*
X013545Y016972D02*
X013917Y016972D01*
X013545Y017247D02*
X013545Y017363D01*
X013917Y017363D01*
X013917Y017247D01*
X013545Y017247D01*
X013545Y017346D02*
X013917Y017346D01*
X013545Y017621D02*
X013545Y017737D01*
X013917Y017737D01*
X013917Y017621D01*
X013545Y017621D01*
X013545Y017720D02*
X013917Y017720D01*
X014568Y017737D02*
X014568Y017621D01*
X014568Y017737D02*
X014940Y017737D01*
X014940Y017621D01*
X014568Y017621D01*
X014568Y017720D02*
X014940Y017720D01*
X014568Y016989D02*
X014568Y016873D01*
X014568Y016989D02*
X014940Y016989D01*
X014940Y016873D01*
X014568Y016873D01*
X014568Y016972D02*
X014940Y016972D01*
M02*
