G75*
%MOIN*%
%OFA0B0*%
%FSLAX24Y24*%
%IPPOS*%
%LPD*%
%AMOC8*
5,1,8,0,0,1.08239X$1,22.5*
%
%ADD10C,0.0000*%
%ADD11C,0.0906*%
%ADD12C,0.0434*%
%ADD13C,0.0107*%
%ADD14C,0.0114*%
%ADD15C,0.0134*%
%ADD16R,0.0394X0.0394*%
%ADD17C,0.0108*%
%ADD18C,0.0130*%
%ADD19C,0.0437*%
%ADD20C,0.0118*%
%ADD21C,0.0120*%
D10*
X003149Y002980D02*
X003149Y009279D01*
X003148Y009279D02*
X003150Y009318D01*
X003156Y009356D01*
X003165Y009393D01*
X003178Y009430D01*
X003195Y009465D01*
X003214Y009498D01*
X003237Y009529D01*
X003263Y009558D01*
X003292Y009584D01*
X003323Y009607D01*
X003356Y009626D01*
X003391Y009643D01*
X003428Y009656D01*
X003465Y009665D01*
X003503Y009671D01*
X003542Y009673D01*
X003540Y009670D02*
X004560Y009670D01*
X004565Y009670D02*
X004618Y009673D01*
X004672Y009679D01*
X004724Y009689D01*
X004776Y009703D01*
X004826Y009721D01*
X004876Y009742D01*
X004923Y009767D01*
X004969Y009795D01*
X005012Y009826D01*
X005054Y009860D01*
X005092Y009897D01*
X005128Y009936D01*
X005161Y009979D01*
X005191Y010023D01*
X005218Y010069D01*
X005241Y010118D01*
X005261Y010167D01*
X005277Y010218D01*
X005290Y010270D01*
X005299Y010323D01*
X005304Y010376D01*
X005305Y010430D01*
X005421Y010930D02*
X005423Y010957D01*
X005429Y010984D01*
X005438Y011010D01*
X005451Y011034D01*
X005467Y011057D01*
X005486Y011076D01*
X005508Y011093D01*
X005532Y011107D01*
X005557Y011117D01*
X005584Y011124D01*
X005611Y011127D01*
X005639Y011126D01*
X005666Y011121D01*
X005692Y011113D01*
X005716Y011101D01*
X005739Y011085D01*
X005760Y011067D01*
X005777Y011046D01*
X005792Y011022D01*
X005803Y010997D01*
X005811Y010971D01*
X005815Y010944D01*
X005815Y010916D01*
X005811Y010889D01*
X005803Y010863D01*
X005792Y010838D01*
X005777Y010814D01*
X005760Y010793D01*
X005739Y010775D01*
X005717Y010759D01*
X005692Y010747D01*
X005666Y010739D01*
X005639Y010734D01*
X005611Y010733D01*
X005584Y010736D01*
X005557Y010743D01*
X005532Y010753D01*
X005508Y010767D01*
X005486Y010784D01*
X005467Y010803D01*
X005451Y010826D01*
X005438Y010850D01*
X005429Y010876D01*
X005423Y010903D01*
X005421Y010930D01*
X005983Y010930D02*
X005985Y010957D01*
X005991Y010984D01*
X006000Y011010D01*
X006013Y011034D01*
X006029Y011057D01*
X006048Y011076D01*
X006070Y011093D01*
X006094Y011107D01*
X006119Y011117D01*
X006146Y011124D01*
X006173Y011127D01*
X006201Y011126D01*
X006228Y011121D01*
X006254Y011113D01*
X006278Y011101D01*
X006301Y011085D01*
X006322Y011067D01*
X006339Y011046D01*
X006354Y011022D01*
X006365Y010997D01*
X006373Y010971D01*
X006377Y010944D01*
X006377Y010916D01*
X006373Y010889D01*
X006365Y010863D01*
X006354Y010838D01*
X006339Y010814D01*
X006322Y010793D01*
X006301Y010775D01*
X006279Y010759D01*
X006254Y010747D01*
X006228Y010739D01*
X006201Y010734D01*
X006173Y010733D01*
X006146Y010736D01*
X006119Y010743D01*
X006094Y010753D01*
X006070Y010767D01*
X006048Y010784D01*
X006029Y010803D01*
X006013Y010826D01*
X006000Y010850D01*
X005991Y010876D01*
X005985Y010903D01*
X005983Y010930D01*
X006546Y010930D02*
X006548Y010957D01*
X006554Y010984D01*
X006563Y011010D01*
X006576Y011034D01*
X006592Y011057D01*
X006611Y011076D01*
X006633Y011093D01*
X006657Y011107D01*
X006682Y011117D01*
X006709Y011124D01*
X006736Y011127D01*
X006764Y011126D01*
X006791Y011121D01*
X006817Y011113D01*
X006841Y011101D01*
X006864Y011085D01*
X006885Y011067D01*
X006902Y011046D01*
X006917Y011022D01*
X006928Y010997D01*
X006936Y010971D01*
X006940Y010944D01*
X006940Y010916D01*
X006936Y010889D01*
X006928Y010863D01*
X006917Y010838D01*
X006902Y010814D01*
X006885Y010793D01*
X006864Y010775D01*
X006842Y010759D01*
X006817Y010747D01*
X006791Y010739D01*
X006764Y010734D01*
X006736Y010733D01*
X006709Y010736D01*
X006682Y010743D01*
X006657Y010753D01*
X006633Y010767D01*
X006611Y010784D01*
X006592Y010803D01*
X006576Y010826D01*
X006563Y010850D01*
X006554Y010876D01*
X006548Y010903D01*
X006546Y010930D01*
X006546Y009930D02*
X006548Y009957D01*
X006554Y009984D01*
X006563Y010010D01*
X006576Y010034D01*
X006592Y010057D01*
X006611Y010076D01*
X006633Y010093D01*
X006657Y010107D01*
X006682Y010117D01*
X006709Y010124D01*
X006736Y010127D01*
X006764Y010126D01*
X006791Y010121D01*
X006817Y010113D01*
X006841Y010101D01*
X006864Y010085D01*
X006885Y010067D01*
X006902Y010046D01*
X006917Y010022D01*
X006928Y009997D01*
X006936Y009971D01*
X006940Y009944D01*
X006940Y009916D01*
X006936Y009889D01*
X006928Y009863D01*
X006917Y009838D01*
X006902Y009814D01*
X006885Y009793D01*
X006864Y009775D01*
X006842Y009759D01*
X006817Y009747D01*
X006791Y009739D01*
X006764Y009734D01*
X006736Y009733D01*
X006709Y009736D01*
X006682Y009743D01*
X006657Y009753D01*
X006633Y009767D01*
X006611Y009784D01*
X006592Y009803D01*
X006576Y009826D01*
X006563Y009850D01*
X006554Y009876D01*
X006548Y009903D01*
X006546Y009930D01*
X005983Y009930D02*
X005985Y009957D01*
X005991Y009984D01*
X006000Y010010D01*
X006013Y010034D01*
X006029Y010057D01*
X006048Y010076D01*
X006070Y010093D01*
X006094Y010107D01*
X006119Y010117D01*
X006146Y010124D01*
X006173Y010127D01*
X006201Y010126D01*
X006228Y010121D01*
X006254Y010113D01*
X006278Y010101D01*
X006301Y010085D01*
X006322Y010067D01*
X006339Y010046D01*
X006354Y010022D01*
X006365Y009997D01*
X006373Y009971D01*
X006377Y009944D01*
X006377Y009916D01*
X006373Y009889D01*
X006365Y009863D01*
X006354Y009838D01*
X006339Y009814D01*
X006322Y009793D01*
X006301Y009775D01*
X006279Y009759D01*
X006254Y009747D01*
X006228Y009739D01*
X006201Y009734D01*
X006173Y009733D01*
X006146Y009736D01*
X006119Y009743D01*
X006094Y009753D01*
X006070Y009767D01*
X006048Y009784D01*
X006029Y009803D01*
X006013Y009826D01*
X006000Y009850D01*
X005991Y009876D01*
X005985Y009903D01*
X005983Y009930D01*
X005421Y009930D02*
X005423Y009957D01*
X005429Y009984D01*
X005438Y010010D01*
X005451Y010034D01*
X005467Y010057D01*
X005486Y010076D01*
X005508Y010093D01*
X005532Y010107D01*
X005557Y010117D01*
X005584Y010124D01*
X005611Y010127D01*
X005639Y010126D01*
X005666Y010121D01*
X005692Y010113D01*
X005716Y010101D01*
X005739Y010085D01*
X005760Y010067D01*
X005777Y010046D01*
X005792Y010022D01*
X005803Y009997D01*
X005811Y009971D01*
X005815Y009944D01*
X005815Y009916D01*
X005811Y009889D01*
X005803Y009863D01*
X005792Y009838D01*
X005777Y009814D01*
X005760Y009793D01*
X005739Y009775D01*
X005717Y009759D01*
X005692Y009747D01*
X005666Y009739D01*
X005639Y009734D01*
X005611Y009733D01*
X005584Y009736D01*
X005557Y009743D01*
X005532Y009753D01*
X005508Y009767D01*
X005486Y009784D01*
X005467Y009803D01*
X005451Y009826D01*
X005438Y009850D01*
X005429Y009876D01*
X005423Y009903D01*
X005421Y009930D01*
X005305Y010430D02*
X005303Y010484D01*
X005297Y010537D01*
X005288Y010589D01*
X005275Y010641D01*
X005258Y010692D01*
X005237Y010742D01*
X005213Y010789D01*
X005186Y010835D01*
X005155Y010879D01*
X005122Y010921D01*
X005085Y010960D01*
X005046Y010997D01*
X005004Y011030D01*
X004960Y011061D01*
X004914Y011088D01*
X004867Y011112D01*
X004817Y011133D01*
X004766Y011150D01*
X004714Y011163D01*
X004662Y011172D01*
X004609Y011178D01*
X004555Y011180D01*
X004560Y011180D02*
X003540Y011180D01*
X003542Y011180D02*
X003503Y011182D01*
X003465Y011188D01*
X003428Y011197D01*
X003391Y011210D01*
X003356Y011227D01*
X003323Y011246D01*
X003292Y011269D01*
X003263Y011295D01*
X003237Y011324D01*
X003214Y011355D01*
X003195Y011388D01*
X003178Y011423D01*
X003165Y011460D01*
X003156Y011497D01*
X003150Y011535D01*
X003148Y011574D01*
X003149Y011574D02*
X003149Y017873D01*
X003148Y017873D02*
X003150Y017912D01*
X003156Y017950D01*
X003165Y017987D01*
X003178Y018024D01*
X003195Y018059D01*
X003214Y018092D01*
X003237Y018123D01*
X003263Y018152D01*
X003292Y018178D01*
X003323Y018201D01*
X003356Y018220D01*
X003391Y018237D01*
X003428Y018250D01*
X003465Y018259D01*
X003503Y018265D01*
X003542Y018267D01*
X008786Y018267D01*
X008825Y018265D01*
X008863Y018259D01*
X008900Y018250D01*
X008937Y018237D01*
X008972Y018220D01*
X009005Y018201D01*
X009036Y018178D01*
X009065Y018152D01*
X009091Y018123D01*
X009114Y018092D01*
X009133Y018059D01*
X009150Y018024D01*
X009163Y017987D01*
X009172Y017950D01*
X009178Y017912D01*
X009180Y017873D01*
X009180Y017868D02*
X009180Y016305D01*
X009182Y016251D01*
X009188Y016198D01*
X009197Y016146D01*
X009210Y016094D01*
X009227Y016043D01*
X009248Y015993D01*
X009272Y015946D01*
X009299Y015900D01*
X009330Y015856D01*
X009363Y015814D01*
X009400Y015775D01*
X009439Y015738D01*
X009481Y015705D01*
X009525Y015674D01*
X009571Y015647D01*
X009618Y015623D01*
X009668Y015602D01*
X009719Y015585D01*
X009771Y015572D01*
X009823Y015563D01*
X009876Y015557D01*
X009930Y015555D01*
X009233Y015243D02*
X009235Y015270D01*
X009241Y015297D01*
X009250Y015323D01*
X009263Y015347D01*
X009279Y015370D01*
X009298Y015389D01*
X009320Y015406D01*
X009344Y015420D01*
X009369Y015430D01*
X009396Y015437D01*
X009423Y015440D01*
X009451Y015439D01*
X009478Y015434D01*
X009504Y015426D01*
X009528Y015414D01*
X009551Y015398D01*
X009572Y015380D01*
X009589Y015359D01*
X009604Y015335D01*
X009615Y015310D01*
X009623Y015284D01*
X009627Y015257D01*
X009627Y015229D01*
X009623Y015202D01*
X009615Y015176D01*
X009604Y015151D01*
X009589Y015127D01*
X009572Y015106D01*
X009551Y015088D01*
X009529Y015072D01*
X009504Y015060D01*
X009478Y015052D01*
X009451Y015047D01*
X009423Y015046D01*
X009396Y015049D01*
X009369Y015056D01*
X009344Y015066D01*
X009320Y015080D01*
X009298Y015097D01*
X009279Y015116D01*
X009263Y015139D01*
X009250Y015163D01*
X009241Y015189D01*
X009235Y015216D01*
X009233Y015243D01*
X009233Y014680D02*
X009235Y014707D01*
X009241Y014734D01*
X009250Y014760D01*
X009263Y014784D01*
X009279Y014807D01*
X009298Y014826D01*
X009320Y014843D01*
X009344Y014857D01*
X009369Y014867D01*
X009396Y014874D01*
X009423Y014877D01*
X009451Y014876D01*
X009478Y014871D01*
X009504Y014863D01*
X009528Y014851D01*
X009551Y014835D01*
X009572Y014817D01*
X009589Y014796D01*
X009604Y014772D01*
X009615Y014747D01*
X009623Y014721D01*
X009627Y014694D01*
X009627Y014666D01*
X009623Y014639D01*
X009615Y014613D01*
X009604Y014588D01*
X009589Y014564D01*
X009572Y014543D01*
X009551Y014525D01*
X009529Y014509D01*
X009504Y014497D01*
X009478Y014489D01*
X009451Y014484D01*
X009423Y014483D01*
X009396Y014486D01*
X009369Y014493D01*
X009344Y014503D01*
X009320Y014517D01*
X009298Y014534D01*
X009279Y014553D01*
X009263Y014576D01*
X009250Y014600D01*
X009241Y014626D01*
X009235Y014653D01*
X009233Y014680D01*
X009233Y014118D02*
X009235Y014145D01*
X009241Y014172D01*
X009250Y014198D01*
X009263Y014222D01*
X009279Y014245D01*
X009298Y014264D01*
X009320Y014281D01*
X009344Y014295D01*
X009369Y014305D01*
X009396Y014312D01*
X009423Y014315D01*
X009451Y014314D01*
X009478Y014309D01*
X009504Y014301D01*
X009528Y014289D01*
X009551Y014273D01*
X009572Y014255D01*
X009589Y014234D01*
X009604Y014210D01*
X009615Y014185D01*
X009623Y014159D01*
X009627Y014132D01*
X009627Y014104D01*
X009623Y014077D01*
X009615Y014051D01*
X009604Y014026D01*
X009589Y014002D01*
X009572Y013981D01*
X009551Y013963D01*
X009529Y013947D01*
X009504Y013935D01*
X009478Y013927D01*
X009451Y013922D01*
X009423Y013921D01*
X009396Y013924D01*
X009369Y013931D01*
X009344Y013941D01*
X009320Y013955D01*
X009298Y013972D01*
X009279Y013991D01*
X009263Y014014D01*
X009250Y014038D01*
X009241Y014064D01*
X009235Y014091D01*
X009233Y014118D01*
X009180Y013055D02*
X009180Y011555D01*
X009180Y011574D02*
X009178Y011535D01*
X009172Y011497D01*
X009163Y011460D01*
X009150Y011423D01*
X009133Y011388D01*
X009114Y011355D01*
X009091Y011324D01*
X009065Y011295D01*
X009036Y011269D01*
X009005Y011246D01*
X008972Y011227D01*
X008937Y011210D01*
X008900Y011197D01*
X008863Y011188D01*
X008825Y011182D01*
X008786Y011180D01*
X008790Y011180D02*
X007800Y011180D01*
X007805Y011180D02*
X007751Y011178D01*
X007698Y011172D01*
X007646Y011163D01*
X007594Y011150D01*
X007543Y011133D01*
X007493Y011112D01*
X007446Y011088D01*
X007400Y011061D01*
X007356Y011030D01*
X007314Y010997D01*
X007275Y010960D01*
X007238Y010921D01*
X007205Y010879D01*
X007174Y010835D01*
X007147Y010789D01*
X007123Y010742D01*
X007102Y010692D01*
X007085Y010641D01*
X007072Y010589D01*
X007063Y010537D01*
X007057Y010484D01*
X007055Y010430D01*
X007057Y010376D01*
X007063Y010322D01*
X007072Y010268D01*
X007086Y010216D01*
X007103Y010164D01*
X007124Y010114D01*
X007148Y010066D01*
X007176Y010019D01*
X007207Y009975D01*
X007241Y009932D01*
X007278Y009893D01*
X007317Y009856D01*
X007360Y009822D01*
X007404Y009791D01*
X007451Y009763D01*
X007499Y009739D01*
X007549Y009718D01*
X007601Y009701D01*
X007653Y009687D01*
X007707Y009678D01*
X007761Y009672D01*
X007815Y009670D01*
X008790Y009670D01*
X008786Y009673D02*
X008825Y009671D01*
X008863Y009665D01*
X008900Y009656D01*
X008937Y009643D01*
X008972Y009626D01*
X009005Y009607D01*
X009036Y009584D01*
X009065Y009558D01*
X009091Y009529D01*
X009114Y009498D01*
X009133Y009465D01*
X009150Y009430D01*
X009163Y009393D01*
X009172Y009356D01*
X009178Y009318D01*
X009180Y009279D01*
X009180Y009274D02*
X009180Y007711D01*
X009182Y007657D01*
X009188Y007604D01*
X009197Y007552D01*
X009210Y007500D01*
X009227Y007449D01*
X009248Y007399D01*
X009272Y007352D01*
X009299Y007306D01*
X009330Y007262D01*
X009363Y007220D01*
X009400Y007181D01*
X009439Y007144D01*
X009481Y007111D01*
X009525Y007080D01*
X009571Y007053D01*
X009618Y007029D01*
X009668Y007008D01*
X009719Y006991D01*
X009771Y006978D01*
X009823Y006969D01*
X009876Y006963D01*
X009930Y006961D01*
X009233Y006649D02*
X009235Y006676D01*
X009241Y006703D01*
X009250Y006729D01*
X009263Y006753D01*
X009279Y006776D01*
X009298Y006795D01*
X009320Y006812D01*
X009344Y006826D01*
X009369Y006836D01*
X009396Y006843D01*
X009423Y006846D01*
X009451Y006845D01*
X009478Y006840D01*
X009504Y006832D01*
X009528Y006820D01*
X009551Y006804D01*
X009572Y006786D01*
X009589Y006765D01*
X009604Y006741D01*
X009615Y006716D01*
X009623Y006690D01*
X009627Y006663D01*
X009627Y006635D01*
X009623Y006608D01*
X009615Y006582D01*
X009604Y006557D01*
X009589Y006533D01*
X009572Y006512D01*
X009551Y006494D01*
X009529Y006478D01*
X009504Y006466D01*
X009478Y006458D01*
X009451Y006453D01*
X009423Y006452D01*
X009396Y006455D01*
X009369Y006462D01*
X009344Y006472D01*
X009320Y006486D01*
X009298Y006503D01*
X009279Y006522D01*
X009263Y006545D01*
X009250Y006569D01*
X009241Y006595D01*
X009235Y006622D01*
X009233Y006649D01*
X009233Y006086D02*
X009235Y006113D01*
X009241Y006140D01*
X009250Y006166D01*
X009263Y006190D01*
X009279Y006213D01*
X009298Y006232D01*
X009320Y006249D01*
X009344Y006263D01*
X009369Y006273D01*
X009396Y006280D01*
X009423Y006283D01*
X009451Y006282D01*
X009478Y006277D01*
X009504Y006269D01*
X009528Y006257D01*
X009551Y006241D01*
X009572Y006223D01*
X009589Y006202D01*
X009604Y006178D01*
X009615Y006153D01*
X009623Y006127D01*
X009627Y006100D01*
X009627Y006072D01*
X009623Y006045D01*
X009615Y006019D01*
X009604Y005994D01*
X009589Y005970D01*
X009572Y005949D01*
X009551Y005931D01*
X009529Y005915D01*
X009504Y005903D01*
X009478Y005895D01*
X009451Y005890D01*
X009423Y005889D01*
X009396Y005892D01*
X009369Y005899D01*
X009344Y005909D01*
X009320Y005923D01*
X009298Y005940D01*
X009279Y005959D01*
X009263Y005982D01*
X009250Y006006D01*
X009241Y006032D01*
X009235Y006059D01*
X009233Y006086D01*
X009233Y005524D02*
X009235Y005551D01*
X009241Y005578D01*
X009250Y005604D01*
X009263Y005628D01*
X009279Y005651D01*
X009298Y005670D01*
X009320Y005687D01*
X009344Y005701D01*
X009369Y005711D01*
X009396Y005718D01*
X009423Y005721D01*
X009451Y005720D01*
X009478Y005715D01*
X009504Y005707D01*
X009528Y005695D01*
X009551Y005679D01*
X009572Y005661D01*
X009589Y005640D01*
X009604Y005616D01*
X009615Y005591D01*
X009623Y005565D01*
X009627Y005538D01*
X009627Y005510D01*
X009623Y005483D01*
X009615Y005457D01*
X009604Y005432D01*
X009589Y005408D01*
X009572Y005387D01*
X009551Y005369D01*
X009529Y005353D01*
X009504Y005341D01*
X009478Y005333D01*
X009451Y005328D01*
X009423Y005327D01*
X009396Y005330D01*
X009369Y005337D01*
X009344Y005347D01*
X009320Y005361D01*
X009298Y005378D01*
X009279Y005397D01*
X009263Y005420D01*
X009250Y005444D01*
X009241Y005470D01*
X009235Y005497D01*
X009233Y005524D01*
X009180Y004461D02*
X009180Y002961D01*
X009180Y002980D02*
X009178Y002941D01*
X009172Y002903D01*
X009163Y002866D01*
X009150Y002829D01*
X009133Y002794D01*
X009114Y002761D01*
X009091Y002730D01*
X009065Y002701D01*
X009036Y002675D01*
X009005Y002652D01*
X008972Y002633D01*
X008937Y002616D01*
X008900Y002603D01*
X008863Y002594D01*
X008825Y002588D01*
X008786Y002586D01*
X003542Y002586D01*
X003503Y002588D01*
X003465Y002594D01*
X003428Y002603D01*
X003391Y002616D01*
X003356Y002633D01*
X003323Y002652D01*
X003292Y002675D01*
X003263Y002701D01*
X003237Y002730D01*
X003214Y002761D01*
X003195Y002794D01*
X003178Y002829D01*
X003165Y002866D01*
X003156Y002903D01*
X003150Y002941D01*
X003148Y002980D01*
X003503Y003374D02*
X003505Y003415D01*
X003511Y003456D01*
X003521Y003496D01*
X003534Y003535D01*
X003551Y003572D01*
X003572Y003608D01*
X003596Y003642D01*
X003623Y003673D01*
X003652Y003701D01*
X003685Y003727D01*
X003719Y003749D01*
X003756Y003768D01*
X003794Y003783D01*
X003834Y003795D01*
X003874Y003803D01*
X003915Y003807D01*
X003957Y003807D01*
X003998Y003803D01*
X004038Y003795D01*
X004078Y003783D01*
X004116Y003768D01*
X004152Y003749D01*
X004187Y003727D01*
X004220Y003701D01*
X004249Y003673D01*
X004276Y003642D01*
X004300Y003608D01*
X004321Y003572D01*
X004338Y003535D01*
X004351Y003496D01*
X004361Y003456D01*
X004367Y003415D01*
X004369Y003374D01*
X004367Y003333D01*
X004361Y003292D01*
X004351Y003252D01*
X004338Y003213D01*
X004321Y003176D01*
X004300Y003140D01*
X004276Y003106D01*
X004249Y003075D01*
X004220Y003047D01*
X004187Y003021D01*
X004153Y002999D01*
X004116Y002980D01*
X004078Y002965D01*
X004038Y002953D01*
X003998Y002945D01*
X003957Y002941D01*
X003915Y002941D01*
X003874Y002945D01*
X003834Y002953D01*
X003794Y002965D01*
X003756Y002980D01*
X003720Y002999D01*
X003685Y003021D01*
X003652Y003047D01*
X003623Y003075D01*
X003596Y003106D01*
X003572Y003140D01*
X003551Y003176D01*
X003534Y003213D01*
X003521Y003252D01*
X003511Y003292D01*
X003505Y003333D01*
X003503Y003374D01*
X003503Y008885D02*
X003505Y008926D01*
X003511Y008967D01*
X003521Y009007D01*
X003534Y009046D01*
X003551Y009083D01*
X003572Y009119D01*
X003596Y009153D01*
X003623Y009184D01*
X003652Y009212D01*
X003685Y009238D01*
X003719Y009260D01*
X003756Y009279D01*
X003794Y009294D01*
X003834Y009306D01*
X003874Y009314D01*
X003915Y009318D01*
X003957Y009318D01*
X003998Y009314D01*
X004038Y009306D01*
X004078Y009294D01*
X004116Y009279D01*
X004152Y009260D01*
X004187Y009238D01*
X004220Y009212D01*
X004249Y009184D01*
X004276Y009153D01*
X004300Y009119D01*
X004321Y009083D01*
X004338Y009046D01*
X004351Y009007D01*
X004361Y008967D01*
X004367Y008926D01*
X004369Y008885D01*
X004367Y008844D01*
X004361Y008803D01*
X004351Y008763D01*
X004338Y008724D01*
X004321Y008687D01*
X004300Y008651D01*
X004276Y008617D01*
X004249Y008586D01*
X004220Y008558D01*
X004187Y008532D01*
X004153Y008510D01*
X004116Y008491D01*
X004078Y008476D01*
X004038Y008464D01*
X003998Y008456D01*
X003957Y008452D01*
X003915Y008452D01*
X003874Y008456D01*
X003834Y008464D01*
X003794Y008476D01*
X003756Y008491D01*
X003720Y008510D01*
X003685Y008532D01*
X003652Y008558D01*
X003623Y008586D01*
X003596Y008617D01*
X003572Y008651D01*
X003551Y008687D01*
X003534Y008724D01*
X003521Y008763D01*
X003511Y008803D01*
X003505Y008844D01*
X003503Y008885D01*
X003503Y011967D02*
X003505Y012008D01*
X003511Y012049D01*
X003521Y012089D01*
X003534Y012128D01*
X003551Y012165D01*
X003572Y012201D01*
X003596Y012235D01*
X003623Y012266D01*
X003652Y012294D01*
X003685Y012320D01*
X003719Y012342D01*
X003756Y012361D01*
X003794Y012376D01*
X003834Y012388D01*
X003874Y012396D01*
X003915Y012400D01*
X003957Y012400D01*
X003998Y012396D01*
X004038Y012388D01*
X004078Y012376D01*
X004116Y012361D01*
X004152Y012342D01*
X004187Y012320D01*
X004220Y012294D01*
X004249Y012266D01*
X004276Y012235D01*
X004300Y012201D01*
X004321Y012165D01*
X004338Y012128D01*
X004351Y012089D01*
X004361Y012049D01*
X004367Y012008D01*
X004369Y011967D01*
X004367Y011926D01*
X004361Y011885D01*
X004351Y011845D01*
X004338Y011806D01*
X004321Y011769D01*
X004300Y011733D01*
X004276Y011699D01*
X004249Y011668D01*
X004220Y011640D01*
X004187Y011614D01*
X004153Y011592D01*
X004116Y011573D01*
X004078Y011558D01*
X004038Y011546D01*
X003998Y011538D01*
X003957Y011534D01*
X003915Y011534D01*
X003874Y011538D01*
X003834Y011546D01*
X003794Y011558D01*
X003756Y011573D01*
X003720Y011592D01*
X003685Y011614D01*
X003652Y011640D01*
X003623Y011668D01*
X003596Y011699D01*
X003572Y011733D01*
X003551Y011769D01*
X003534Y011806D01*
X003521Y011845D01*
X003511Y011885D01*
X003505Y011926D01*
X003503Y011967D01*
X007810Y009670D02*
X007815Y009670D01*
X009930Y006961D02*
X009984Y006963D01*
X010037Y006969D01*
X010089Y006978D01*
X010141Y006991D01*
X010192Y007008D01*
X010242Y007029D01*
X010289Y007053D01*
X010335Y007080D01*
X010379Y007111D01*
X010421Y007144D01*
X010460Y007181D01*
X010497Y007220D01*
X010530Y007262D01*
X010561Y007306D01*
X010588Y007352D01*
X010612Y007399D01*
X010633Y007449D01*
X010650Y007500D01*
X010663Y007552D01*
X010672Y007604D01*
X010678Y007657D01*
X010680Y007711D01*
X010680Y009279D01*
X010682Y009318D01*
X010688Y009356D01*
X010697Y009393D01*
X010710Y009430D01*
X010727Y009465D01*
X010746Y009498D01*
X010769Y009529D01*
X010795Y009558D01*
X010824Y009584D01*
X010855Y009607D01*
X010888Y009626D01*
X010923Y009643D01*
X010960Y009656D01*
X010997Y009665D01*
X011035Y009671D01*
X011074Y009673D01*
X016317Y009673D01*
X016356Y009671D01*
X016394Y009665D01*
X016431Y009656D01*
X016468Y009643D01*
X016503Y009626D01*
X016536Y009607D01*
X016567Y009584D01*
X016596Y009558D01*
X016622Y009529D01*
X016645Y009498D01*
X016664Y009465D01*
X016681Y009430D01*
X016694Y009393D01*
X016703Y009356D01*
X016709Y009318D01*
X016711Y009279D01*
X016711Y002980D01*
X016709Y002941D01*
X016703Y002903D01*
X016694Y002866D01*
X016681Y002829D01*
X016664Y002794D01*
X016645Y002761D01*
X016622Y002730D01*
X016596Y002701D01*
X016567Y002675D01*
X016536Y002652D01*
X016503Y002633D01*
X016468Y002616D01*
X016431Y002603D01*
X016394Y002594D01*
X016356Y002588D01*
X016317Y002586D01*
X011074Y002586D01*
X011035Y002588D01*
X010997Y002594D01*
X010960Y002603D01*
X010923Y002616D01*
X010888Y002633D01*
X010855Y002652D01*
X010824Y002675D01*
X010795Y002701D01*
X010769Y002730D01*
X010746Y002761D01*
X010727Y002794D01*
X010710Y002829D01*
X010697Y002866D01*
X010688Y002903D01*
X010682Y002941D01*
X010680Y002980D01*
X010680Y004461D01*
X009930Y005211D02*
X009876Y005209D01*
X009823Y005203D01*
X009771Y005194D01*
X009719Y005181D01*
X009668Y005164D01*
X009618Y005143D01*
X009571Y005119D01*
X009525Y005092D01*
X009481Y005061D01*
X009439Y005028D01*
X009400Y004991D01*
X009363Y004952D01*
X009330Y004910D01*
X009299Y004866D01*
X009272Y004820D01*
X009248Y004773D01*
X009227Y004723D01*
X009210Y004672D01*
X009197Y004620D01*
X009188Y004568D01*
X009182Y004515D01*
X009180Y004461D01*
X009930Y005211D02*
X009984Y005209D01*
X010037Y005203D01*
X010089Y005194D01*
X010141Y005181D01*
X010192Y005164D01*
X010242Y005143D01*
X010289Y005119D01*
X010335Y005092D01*
X010379Y005061D01*
X010421Y005028D01*
X010460Y004991D01*
X010497Y004952D01*
X010530Y004910D01*
X010561Y004866D01*
X010588Y004820D01*
X010612Y004773D01*
X010633Y004723D01*
X010650Y004672D01*
X010663Y004620D01*
X010672Y004568D01*
X010678Y004515D01*
X010680Y004461D01*
X010233Y005524D02*
X010235Y005551D01*
X010241Y005578D01*
X010250Y005604D01*
X010263Y005628D01*
X010279Y005651D01*
X010298Y005670D01*
X010320Y005687D01*
X010344Y005701D01*
X010369Y005711D01*
X010396Y005718D01*
X010423Y005721D01*
X010451Y005720D01*
X010478Y005715D01*
X010504Y005707D01*
X010528Y005695D01*
X010551Y005679D01*
X010572Y005661D01*
X010589Y005640D01*
X010604Y005616D01*
X010615Y005591D01*
X010623Y005565D01*
X010627Y005538D01*
X010627Y005510D01*
X010623Y005483D01*
X010615Y005457D01*
X010604Y005432D01*
X010589Y005408D01*
X010572Y005387D01*
X010551Y005369D01*
X010529Y005353D01*
X010504Y005341D01*
X010478Y005333D01*
X010451Y005328D01*
X010423Y005327D01*
X010396Y005330D01*
X010369Y005337D01*
X010344Y005347D01*
X010320Y005361D01*
X010298Y005378D01*
X010279Y005397D01*
X010263Y005420D01*
X010250Y005444D01*
X010241Y005470D01*
X010235Y005497D01*
X010233Y005524D01*
X010233Y006086D02*
X010235Y006113D01*
X010241Y006140D01*
X010250Y006166D01*
X010263Y006190D01*
X010279Y006213D01*
X010298Y006232D01*
X010320Y006249D01*
X010344Y006263D01*
X010369Y006273D01*
X010396Y006280D01*
X010423Y006283D01*
X010451Y006282D01*
X010478Y006277D01*
X010504Y006269D01*
X010528Y006257D01*
X010551Y006241D01*
X010572Y006223D01*
X010589Y006202D01*
X010604Y006178D01*
X010615Y006153D01*
X010623Y006127D01*
X010627Y006100D01*
X010627Y006072D01*
X010623Y006045D01*
X010615Y006019D01*
X010604Y005994D01*
X010589Y005970D01*
X010572Y005949D01*
X010551Y005931D01*
X010529Y005915D01*
X010504Y005903D01*
X010478Y005895D01*
X010451Y005890D01*
X010423Y005889D01*
X010396Y005892D01*
X010369Y005899D01*
X010344Y005909D01*
X010320Y005923D01*
X010298Y005940D01*
X010279Y005959D01*
X010263Y005982D01*
X010250Y006006D01*
X010241Y006032D01*
X010235Y006059D01*
X010233Y006086D01*
X010233Y006649D02*
X010235Y006676D01*
X010241Y006703D01*
X010250Y006729D01*
X010263Y006753D01*
X010279Y006776D01*
X010298Y006795D01*
X010320Y006812D01*
X010344Y006826D01*
X010369Y006836D01*
X010396Y006843D01*
X010423Y006846D01*
X010451Y006845D01*
X010478Y006840D01*
X010504Y006832D01*
X010528Y006820D01*
X010551Y006804D01*
X010572Y006786D01*
X010589Y006765D01*
X010604Y006741D01*
X010615Y006716D01*
X010623Y006690D01*
X010627Y006663D01*
X010627Y006635D01*
X010623Y006608D01*
X010615Y006582D01*
X010604Y006557D01*
X010589Y006533D01*
X010572Y006512D01*
X010551Y006494D01*
X010529Y006478D01*
X010504Y006466D01*
X010478Y006458D01*
X010451Y006453D01*
X010423Y006452D01*
X010396Y006455D01*
X010369Y006462D01*
X010344Y006472D01*
X010320Y006486D01*
X010298Y006503D01*
X010279Y006522D01*
X010263Y006545D01*
X010250Y006569D01*
X010241Y006595D01*
X010235Y006622D01*
X010233Y006649D01*
X011034Y008885D02*
X011036Y008926D01*
X011042Y008967D01*
X011052Y009007D01*
X011065Y009046D01*
X011082Y009083D01*
X011103Y009119D01*
X011127Y009153D01*
X011154Y009184D01*
X011183Y009212D01*
X011216Y009238D01*
X011250Y009260D01*
X011287Y009279D01*
X011325Y009294D01*
X011365Y009306D01*
X011405Y009314D01*
X011446Y009318D01*
X011488Y009318D01*
X011529Y009314D01*
X011569Y009306D01*
X011609Y009294D01*
X011647Y009279D01*
X011683Y009260D01*
X011718Y009238D01*
X011751Y009212D01*
X011780Y009184D01*
X011807Y009153D01*
X011831Y009119D01*
X011852Y009083D01*
X011869Y009046D01*
X011882Y009007D01*
X011892Y008967D01*
X011898Y008926D01*
X011900Y008885D01*
X011898Y008844D01*
X011892Y008803D01*
X011882Y008763D01*
X011869Y008724D01*
X011852Y008687D01*
X011831Y008651D01*
X011807Y008617D01*
X011780Y008586D01*
X011751Y008558D01*
X011718Y008532D01*
X011684Y008510D01*
X011647Y008491D01*
X011609Y008476D01*
X011569Y008464D01*
X011529Y008456D01*
X011488Y008452D01*
X011446Y008452D01*
X011405Y008456D01*
X011365Y008464D01*
X011325Y008476D01*
X011287Y008491D01*
X011251Y008510D01*
X011216Y008532D01*
X011183Y008558D01*
X011154Y008586D01*
X011127Y008617D01*
X011103Y008651D01*
X011082Y008687D01*
X011065Y008724D01*
X011052Y008763D01*
X011042Y008803D01*
X011036Y008844D01*
X011034Y008885D01*
X011074Y011180D02*
X016317Y011180D01*
X016356Y011182D01*
X016394Y011188D01*
X016431Y011197D01*
X016468Y011210D01*
X016503Y011227D01*
X016536Y011246D01*
X016567Y011269D01*
X016596Y011295D01*
X016622Y011324D01*
X016645Y011355D01*
X016664Y011388D01*
X016681Y011423D01*
X016694Y011460D01*
X016703Y011497D01*
X016709Y011535D01*
X016711Y011574D01*
X016711Y017873D01*
X016709Y017912D01*
X016703Y017950D01*
X016694Y017987D01*
X016681Y018024D01*
X016664Y018059D01*
X016645Y018092D01*
X016622Y018123D01*
X016596Y018152D01*
X016567Y018178D01*
X016536Y018201D01*
X016503Y018220D01*
X016468Y018237D01*
X016431Y018250D01*
X016394Y018259D01*
X016356Y018265D01*
X016317Y018267D01*
X011074Y018267D01*
X011035Y018265D01*
X010997Y018259D01*
X010960Y018250D01*
X010923Y018237D01*
X010888Y018220D01*
X010855Y018201D01*
X010824Y018178D01*
X010795Y018152D01*
X010769Y018123D01*
X010746Y018092D01*
X010727Y018059D01*
X010710Y018024D01*
X010697Y017987D01*
X010688Y017950D01*
X010682Y017912D01*
X010680Y017873D01*
X010680Y016305D01*
X010678Y016251D01*
X010672Y016198D01*
X010663Y016146D01*
X010650Y016094D01*
X010633Y016043D01*
X010612Y015993D01*
X010588Y015946D01*
X010561Y015900D01*
X010530Y015856D01*
X010497Y015814D01*
X010460Y015775D01*
X010421Y015738D01*
X010379Y015705D01*
X010335Y015674D01*
X010289Y015647D01*
X010242Y015623D01*
X010192Y015602D01*
X010141Y015585D01*
X010089Y015572D01*
X010037Y015563D01*
X009984Y015557D01*
X009930Y015555D01*
X010233Y015243D02*
X010235Y015270D01*
X010241Y015297D01*
X010250Y015323D01*
X010263Y015347D01*
X010279Y015370D01*
X010298Y015389D01*
X010320Y015406D01*
X010344Y015420D01*
X010369Y015430D01*
X010396Y015437D01*
X010423Y015440D01*
X010451Y015439D01*
X010478Y015434D01*
X010504Y015426D01*
X010528Y015414D01*
X010551Y015398D01*
X010572Y015380D01*
X010589Y015359D01*
X010604Y015335D01*
X010615Y015310D01*
X010623Y015284D01*
X010627Y015257D01*
X010627Y015229D01*
X010623Y015202D01*
X010615Y015176D01*
X010604Y015151D01*
X010589Y015127D01*
X010572Y015106D01*
X010551Y015088D01*
X010529Y015072D01*
X010504Y015060D01*
X010478Y015052D01*
X010451Y015047D01*
X010423Y015046D01*
X010396Y015049D01*
X010369Y015056D01*
X010344Y015066D01*
X010320Y015080D01*
X010298Y015097D01*
X010279Y015116D01*
X010263Y015139D01*
X010250Y015163D01*
X010241Y015189D01*
X010235Y015216D01*
X010233Y015243D01*
X010233Y014680D02*
X010235Y014707D01*
X010241Y014734D01*
X010250Y014760D01*
X010263Y014784D01*
X010279Y014807D01*
X010298Y014826D01*
X010320Y014843D01*
X010344Y014857D01*
X010369Y014867D01*
X010396Y014874D01*
X010423Y014877D01*
X010451Y014876D01*
X010478Y014871D01*
X010504Y014863D01*
X010528Y014851D01*
X010551Y014835D01*
X010572Y014817D01*
X010589Y014796D01*
X010604Y014772D01*
X010615Y014747D01*
X010623Y014721D01*
X010627Y014694D01*
X010627Y014666D01*
X010623Y014639D01*
X010615Y014613D01*
X010604Y014588D01*
X010589Y014564D01*
X010572Y014543D01*
X010551Y014525D01*
X010529Y014509D01*
X010504Y014497D01*
X010478Y014489D01*
X010451Y014484D01*
X010423Y014483D01*
X010396Y014486D01*
X010369Y014493D01*
X010344Y014503D01*
X010320Y014517D01*
X010298Y014534D01*
X010279Y014553D01*
X010263Y014576D01*
X010250Y014600D01*
X010241Y014626D01*
X010235Y014653D01*
X010233Y014680D01*
X010233Y014118D02*
X010235Y014145D01*
X010241Y014172D01*
X010250Y014198D01*
X010263Y014222D01*
X010279Y014245D01*
X010298Y014264D01*
X010320Y014281D01*
X010344Y014295D01*
X010369Y014305D01*
X010396Y014312D01*
X010423Y014315D01*
X010451Y014314D01*
X010478Y014309D01*
X010504Y014301D01*
X010528Y014289D01*
X010551Y014273D01*
X010572Y014255D01*
X010589Y014234D01*
X010604Y014210D01*
X010615Y014185D01*
X010623Y014159D01*
X010627Y014132D01*
X010627Y014104D01*
X010623Y014077D01*
X010615Y014051D01*
X010604Y014026D01*
X010589Y014002D01*
X010572Y013981D01*
X010551Y013963D01*
X010529Y013947D01*
X010504Y013935D01*
X010478Y013927D01*
X010451Y013922D01*
X010423Y013921D01*
X010396Y013924D01*
X010369Y013931D01*
X010344Y013941D01*
X010320Y013955D01*
X010298Y013972D01*
X010279Y013991D01*
X010263Y014014D01*
X010250Y014038D01*
X010241Y014064D01*
X010235Y014091D01*
X010233Y014118D01*
X009930Y013805D02*
X009876Y013803D01*
X009823Y013797D01*
X009771Y013788D01*
X009719Y013775D01*
X009668Y013758D01*
X009618Y013737D01*
X009571Y013713D01*
X009525Y013686D01*
X009481Y013655D01*
X009439Y013622D01*
X009400Y013585D01*
X009363Y013546D01*
X009330Y013504D01*
X009299Y013460D01*
X009272Y013414D01*
X009248Y013367D01*
X009227Y013317D01*
X009210Y013266D01*
X009197Y013214D01*
X009188Y013162D01*
X009182Y013109D01*
X009180Y013055D01*
X009930Y013805D02*
X009984Y013803D01*
X010037Y013797D01*
X010089Y013788D01*
X010141Y013775D01*
X010192Y013758D01*
X010242Y013737D01*
X010289Y013713D01*
X010335Y013686D01*
X010379Y013655D01*
X010421Y013622D01*
X010460Y013585D01*
X010497Y013546D01*
X010530Y013504D01*
X010561Y013460D01*
X010588Y013414D01*
X010612Y013367D01*
X010633Y013317D01*
X010650Y013266D01*
X010663Y013214D01*
X010672Y013162D01*
X010678Y013109D01*
X010680Y013055D01*
X010680Y011574D01*
X010682Y011535D01*
X010688Y011497D01*
X010697Y011460D01*
X010710Y011423D01*
X010727Y011388D01*
X010746Y011355D01*
X010769Y011324D01*
X010795Y011295D01*
X010824Y011269D01*
X010855Y011246D01*
X010888Y011227D01*
X010923Y011210D01*
X010960Y011197D01*
X010997Y011188D01*
X011035Y011182D01*
X011074Y011180D01*
X011034Y011967D02*
X011036Y012008D01*
X011042Y012049D01*
X011052Y012089D01*
X011065Y012128D01*
X011082Y012165D01*
X011103Y012201D01*
X011127Y012235D01*
X011154Y012266D01*
X011183Y012294D01*
X011216Y012320D01*
X011250Y012342D01*
X011287Y012361D01*
X011325Y012376D01*
X011365Y012388D01*
X011405Y012396D01*
X011446Y012400D01*
X011488Y012400D01*
X011529Y012396D01*
X011569Y012388D01*
X011609Y012376D01*
X011647Y012361D01*
X011683Y012342D01*
X011718Y012320D01*
X011751Y012294D01*
X011780Y012266D01*
X011807Y012235D01*
X011831Y012201D01*
X011852Y012165D01*
X011869Y012128D01*
X011882Y012089D01*
X011892Y012049D01*
X011898Y012008D01*
X011900Y011967D01*
X011898Y011926D01*
X011892Y011885D01*
X011882Y011845D01*
X011869Y011806D01*
X011852Y011769D01*
X011831Y011733D01*
X011807Y011699D01*
X011780Y011668D01*
X011751Y011640D01*
X011718Y011614D01*
X011684Y011592D01*
X011647Y011573D01*
X011609Y011558D01*
X011569Y011546D01*
X011529Y011538D01*
X011488Y011534D01*
X011446Y011534D01*
X011405Y011538D01*
X011365Y011546D01*
X011325Y011558D01*
X011287Y011573D01*
X011251Y011592D01*
X011216Y011614D01*
X011183Y011640D01*
X011154Y011668D01*
X011127Y011699D01*
X011103Y011733D01*
X011082Y011769D01*
X011065Y011806D01*
X011052Y011845D01*
X011042Y011885D01*
X011036Y011926D01*
X011034Y011967D01*
X011034Y017479D02*
X011036Y017520D01*
X011042Y017561D01*
X011052Y017601D01*
X011065Y017640D01*
X011082Y017677D01*
X011103Y017713D01*
X011127Y017747D01*
X011154Y017778D01*
X011183Y017806D01*
X011216Y017832D01*
X011250Y017854D01*
X011287Y017873D01*
X011325Y017888D01*
X011365Y017900D01*
X011405Y017908D01*
X011446Y017912D01*
X011488Y017912D01*
X011529Y017908D01*
X011569Y017900D01*
X011609Y017888D01*
X011647Y017873D01*
X011683Y017854D01*
X011718Y017832D01*
X011751Y017806D01*
X011780Y017778D01*
X011807Y017747D01*
X011831Y017713D01*
X011852Y017677D01*
X011869Y017640D01*
X011882Y017601D01*
X011892Y017561D01*
X011898Y017520D01*
X011900Y017479D01*
X011898Y017438D01*
X011892Y017397D01*
X011882Y017357D01*
X011869Y017318D01*
X011852Y017281D01*
X011831Y017245D01*
X011807Y017211D01*
X011780Y017180D01*
X011751Y017152D01*
X011718Y017126D01*
X011684Y017104D01*
X011647Y017085D01*
X011609Y017070D01*
X011569Y017058D01*
X011529Y017050D01*
X011488Y017046D01*
X011446Y017046D01*
X011405Y017050D01*
X011365Y017058D01*
X011325Y017070D01*
X011287Y017085D01*
X011251Y017104D01*
X011216Y017126D01*
X011183Y017152D01*
X011154Y017180D01*
X011127Y017211D01*
X011103Y017245D01*
X011082Y017281D01*
X011065Y017318D01*
X011052Y017357D01*
X011042Y017397D01*
X011036Y017438D01*
X011034Y017479D01*
X003503Y017479D02*
X003505Y017520D01*
X003511Y017561D01*
X003521Y017601D01*
X003534Y017640D01*
X003551Y017677D01*
X003572Y017713D01*
X003596Y017747D01*
X003623Y017778D01*
X003652Y017806D01*
X003685Y017832D01*
X003719Y017854D01*
X003756Y017873D01*
X003794Y017888D01*
X003834Y017900D01*
X003874Y017908D01*
X003915Y017912D01*
X003957Y017912D01*
X003998Y017908D01*
X004038Y017900D01*
X004078Y017888D01*
X004116Y017873D01*
X004152Y017854D01*
X004187Y017832D01*
X004220Y017806D01*
X004249Y017778D01*
X004276Y017747D01*
X004300Y017713D01*
X004321Y017677D01*
X004338Y017640D01*
X004351Y017601D01*
X004361Y017561D01*
X004367Y017520D01*
X004369Y017479D01*
X004367Y017438D01*
X004361Y017397D01*
X004351Y017357D01*
X004338Y017318D01*
X004321Y017281D01*
X004300Y017245D01*
X004276Y017211D01*
X004249Y017180D01*
X004220Y017152D01*
X004187Y017126D01*
X004153Y017104D01*
X004116Y017085D01*
X004078Y017070D01*
X004038Y017058D01*
X003998Y017050D01*
X003957Y017046D01*
X003915Y017046D01*
X003874Y017050D01*
X003834Y017058D01*
X003794Y017070D01*
X003756Y017085D01*
X003720Y017104D01*
X003685Y017126D01*
X003652Y017152D01*
X003623Y017180D01*
X003596Y017211D01*
X003572Y017245D01*
X003551Y017281D01*
X003534Y017318D01*
X003521Y017357D01*
X003511Y017397D01*
X003505Y017438D01*
X003503Y017479D01*
X011034Y003374D02*
X011036Y003415D01*
X011042Y003456D01*
X011052Y003496D01*
X011065Y003535D01*
X011082Y003572D01*
X011103Y003608D01*
X011127Y003642D01*
X011154Y003673D01*
X011183Y003701D01*
X011216Y003727D01*
X011250Y003749D01*
X011287Y003768D01*
X011325Y003783D01*
X011365Y003795D01*
X011405Y003803D01*
X011446Y003807D01*
X011488Y003807D01*
X011529Y003803D01*
X011569Y003795D01*
X011609Y003783D01*
X011647Y003768D01*
X011683Y003749D01*
X011718Y003727D01*
X011751Y003701D01*
X011780Y003673D01*
X011807Y003642D01*
X011831Y003608D01*
X011852Y003572D01*
X011869Y003535D01*
X011882Y003496D01*
X011892Y003456D01*
X011898Y003415D01*
X011900Y003374D01*
X011898Y003333D01*
X011892Y003292D01*
X011882Y003252D01*
X011869Y003213D01*
X011852Y003176D01*
X011831Y003140D01*
X011807Y003106D01*
X011780Y003075D01*
X011751Y003047D01*
X011718Y003021D01*
X011684Y002999D01*
X011647Y002980D01*
X011609Y002965D01*
X011569Y002953D01*
X011529Y002945D01*
X011488Y002941D01*
X011446Y002941D01*
X011405Y002945D01*
X011365Y002953D01*
X011325Y002965D01*
X011287Y002980D01*
X011251Y002999D01*
X011216Y003021D01*
X011183Y003047D01*
X011154Y003075D01*
X011127Y003106D01*
X011103Y003140D01*
X011082Y003176D01*
X011065Y003213D01*
X011052Y003252D01*
X011042Y003292D01*
X011036Y003333D01*
X011034Y003374D01*
D11*
X011467Y003374D03*
X011467Y008885D03*
X011467Y011967D03*
X011467Y017479D03*
X003936Y017479D03*
X003936Y011967D03*
X003936Y008885D03*
X003936Y003374D03*
D12*
X009430Y005524D03*
X009430Y006086D03*
X009430Y006649D03*
X010430Y006649D03*
X010430Y006086D03*
X010430Y005524D03*
X006743Y009930D03*
X006180Y009930D03*
X005618Y009930D03*
X005618Y010930D03*
X006180Y010930D03*
X006743Y010930D03*
X009430Y014118D03*
X009430Y014680D03*
X009430Y015243D03*
X010430Y015243D03*
X010430Y014680D03*
X010430Y014118D03*
D13*
X011120Y013304D02*
X011684Y013304D01*
X011120Y013304D02*
X011120Y014182D01*
X011684Y014182D01*
X011684Y013304D01*
X011684Y013410D02*
X011120Y013410D01*
X011120Y013516D02*
X011684Y013516D01*
X011684Y013622D02*
X011120Y013622D01*
X011120Y013728D02*
X011684Y013728D01*
X011684Y013834D02*
X011120Y013834D01*
X011120Y013940D02*
X011684Y013940D01*
X011684Y014046D02*
X011120Y014046D01*
X011120Y014152D02*
X011684Y014152D01*
X012301Y014182D02*
X012865Y014182D01*
X012865Y013304D01*
X012301Y013304D01*
X012301Y014182D01*
X012301Y013410D02*
X012865Y013410D01*
X012865Y013516D02*
X012301Y013516D01*
X012301Y013622D02*
X012865Y013622D01*
X012865Y013728D02*
X012301Y013728D01*
X012301Y013834D02*
X012865Y013834D01*
X012865Y013940D02*
X012301Y013940D01*
X012301Y014046D02*
X012865Y014046D01*
X012865Y014152D02*
X012301Y014152D01*
X005334Y014182D02*
X004770Y014182D01*
X005334Y014182D02*
X005334Y013304D01*
X004770Y013304D01*
X004770Y014182D01*
X004770Y013410D02*
X005334Y013410D01*
X005334Y013516D02*
X004770Y013516D01*
X004770Y013622D02*
X005334Y013622D01*
X005334Y013728D02*
X004770Y013728D01*
X004770Y013834D02*
X005334Y013834D01*
X005334Y013940D02*
X004770Y013940D01*
X004770Y014046D02*
X005334Y014046D01*
X005334Y014152D02*
X004770Y014152D01*
X004153Y013304D02*
X003589Y013304D01*
X003589Y014182D01*
X004153Y014182D01*
X004153Y013304D01*
X004153Y013410D02*
X003589Y013410D01*
X003589Y013516D02*
X004153Y013516D01*
X004153Y013622D02*
X003589Y013622D01*
X003589Y013728D02*
X004153Y013728D01*
X004153Y013834D02*
X003589Y013834D01*
X003589Y013940D02*
X004153Y013940D01*
X004153Y014046D02*
X003589Y014046D01*
X003589Y014152D02*
X004153Y014152D01*
X004153Y004710D02*
X003589Y004710D01*
X003589Y005588D01*
X004153Y005588D01*
X004153Y004710D01*
X004153Y004816D02*
X003589Y004816D01*
X003589Y004922D02*
X004153Y004922D01*
X004153Y005028D02*
X003589Y005028D01*
X003589Y005134D02*
X004153Y005134D01*
X004153Y005240D02*
X003589Y005240D01*
X003589Y005346D02*
X004153Y005346D01*
X004153Y005452D02*
X003589Y005452D01*
X003589Y005558D02*
X004153Y005558D01*
X004770Y005588D02*
X005334Y005588D01*
X005334Y004710D01*
X004770Y004710D01*
X004770Y005588D01*
X004770Y004816D02*
X005334Y004816D01*
X005334Y004922D02*
X004770Y004922D01*
X004770Y005028D02*
X005334Y005028D01*
X005334Y005134D02*
X004770Y005134D01*
X004770Y005240D02*
X005334Y005240D01*
X005334Y005346D02*
X004770Y005346D01*
X004770Y005452D02*
X005334Y005452D01*
X005334Y005558D02*
X004770Y005558D01*
X011120Y004710D02*
X011684Y004710D01*
X011120Y004710D02*
X011120Y005588D01*
X011684Y005588D01*
X011684Y004710D01*
X011684Y004816D02*
X011120Y004816D01*
X011120Y004922D02*
X011684Y004922D01*
X011684Y005028D02*
X011120Y005028D01*
X011120Y005134D02*
X011684Y005134D01*
X011684Y005240D02*
X011120Y005240D01*
X011120Y005346D02*
X011684Y005346D01*
X011684Y005452D02*
X011120Y005452D01*
X011120Y005558D02*
X011684Y005558D01*
X012301Y005588D02*
X012865Y005588D01*
X012865Y004710D01*
X012301Y004710D01*
X012301Y005588D01*
X012301Y004816D02*
X012865Y004816D01*
X012865Y004922D02*
X012301Y004922D01*
X012301Y005028D02*
X012865Y005028D01*
X012865Y005134D02*
X012301Y005134D01*
X012301Y005240D02*
X012865Y005240D01*
X012865Y005346D02*
X012301Y005346D01*
X012301Y005452D02*
X012865Y005452D01*
X012865Y005558D02*
X012301Y005558D01*
D14*
X013603Y005114D02*
X013843Y005114D01*
X013843Y004402D01*
X013603Y004402D01*
X013603Y005114D01*
X013603Y004515D02*
X013843Y004515D01*
X013843Y004628D02*
X013603Y004628D01*
X013603Y004741D02*
X013843Y004741D01*
X013843Y004854D02*
X013603Y004854D01*
X013603Y004967D02*
X013843Y004967D01*
X013843Y005080D02*
X013603Y005080D01*
X014095Y005114D02*
X014335Y005114D01*
X014335Y004402D01*
X014095Y004402D01*
X014095Y005114D01*
X014095Y004515D02*
X014335Y004515D01*
X014335Y004628D02*
X014095Y004628D01*
X014095Y004741D02*
X014335Y004741D01*
X014335Y004854D02*
X014095Y004854D01*
X014095Y004967D02*
X014335Y004967D01*
X014335Y005080D02*
X014095Y005080D01*
X014587Y005114D02*
X014827Y005114D01*
X014827Y004402D01*
X014587Y004402D01*
X014587Y005114D01*
X014587Y004515D02*
X014827Y004515D01*
X014827Y004628D02*
X014587Y004628D01*
X014587Y004741D02*
X014827Y004741D01*
X014827Y004854D02*
X014587Y004854D01*
X014587Y004967D02*
X014827Y004967D01*
X014827Y005080D02*
X014587Y005080D01*
X015079Y005114D02*
X015319Y005114D01*
X015319Y004402D01*
X015079Y004402D01*
X015079Y005114D01*
X015079Y004515D02*
X015319Y004515D01*
X015319Y004628D02*
X015079Y004628D01*
X015079Y004741D02*
X015319Y004741D01*
X015319Y004854D02*
X015079Y004854D01*
X015079Y004967D02*
X015319Y004967D01*
X015319Y005080D02*
X015079Y005080D01*
X015998Y008536D02*
X016238Y008536D01*
X016238Y008296D01*
X015998Y008296D01*
X015998Y008536D01*
X015998Y008409D02*
X016238Y008409D01*
X016238Y008522D02*
X015998Y008522D01*
X015998Y009127D02*
X016238Y009127D01*
X016238Y008887D01*
X015998Y008887D01*
X015998Y009127D01*
X015998Y009000D02*
X016238Y009000D01*
X016238Y009113D02*
X015998Y009113D01*
X015319Y013708D02*
X015079Y013708D01*
X015319Y013708D02*
X015319Y012996D01*
X015079Y012996D01*
X015079Y013708D01*
X015079Y013109D02*
X015319Y013109D01*
X015319Y013222D02*
X015079Y013222D01*
X015079Y013335D02*
X015319Y013335D01*
X015319Y013448D02*
X015079Y013448D01*
X015079Y013561D02*
X015319Y013561D01*
X015319Y013674D02*
X015079Y013674D01*
X014827Y013708D02*
X014587Y013708D01*
X014827Y013708D02*
X014827Y012996D01*
X014587Y012996D01*
X014587Y013708D01*
X014587Y013109D02*
X014827Y013109D01*
X014827Y013222D02*
X014587Y013222D01*
X014587Y013335D02*
X014827Y013335D01*
X014827Y013448D02*
X014587Y013448D01*
X014587Y013561D02*
X014827Y013561D01*
X014827Y013674D02*
X014587Y013674D01*
X014335Y013708D02*
X014095Y013708D01*
X014335Y013708D02*
X014335Y012996D01*
X014095Y012996D01*
X014095Y013708D01*
X014095Y013109D02*
X014335Y013109D01*
X014335Y013222D02*
X014095Y013222D01*
X014095Y013335D02*
X014335Y013335D01*
X014335Y013448D02*
X014095Y013448D01*
X014095Y013561D02*
X014335Y013561D01*
X014335Y013674D02*
X014095Y013674D01*
X013843Y013708D02*
X013603Y013708D01*
X013843Y013708D02*
X013843Y012996D01*
X013603Y012996D01*
X013603Y013708D01*
X013603Y013109D02*
X013843Y013109D01*
X013843Y013222D02*
X013603Y013222D01*
X013603Y013335D02*
X013843Y013335D01*
X013843Y013448D02*
X013603Y013448D01*
X013603Y013561D02*
X013843Y013561D01*
X013843Y013674D02*
X013603Y013674D01*
X015998Y017130D02*
X016238Y017130D01*
X016238Y016890D01*
X015998Y016890D01*
X015998Y017130D01*
X015998Y017003D02*
X016238Y017003D01*
X016238Y017116D02*
X015998Y017116D01*
X015998Y017720D02*
X016238Y017720D01*
X016238Y017480D01*
X015998Y017480D01*
X015998Y017720D01*
X015998Y017593D02*
X016238Y017593D01*
X016238Y017706D02*
X015998Y017706D01*
X008706Y017720D02*
X008466Y017720D01*
X008706Y017720D02*
X008706Y017480D01*
X008466Y017480D01*
X008466Y017720D01*
X008466Y017593D02*
X008706Y017593D01*
X008706Y017706D02*
X008466Y017706D01*
X008466Y017130D02*
X008706Y017130D01*
X008706Y016890D01*
X008466Y016890D01*
X008466Y017130D01*
X008466Y017003D02*
X008706Y017003D01*
X008706Y017116D02*
X008466Y017116D01*
X007788Y013708D02*
X007548Y013708D01*
X007788Y013708D02*
X007788Y012996D01*
X007548Y012996D01*
X007548Y013708D01*
X007548Y013109D02*
X007788Y013109D01*
X007788Y013222D02*
X007548Y013222D01*
X007548Y013335D02*
X007788Y013335D01*
X007788Y013448D02*
X007548Y013448D01*
X007548Y013561D02*
X007788Y013561D01*
X007788Y013674D02*
X007548Y013674D01*
X007296Y013708D02*
X007056Y013708D01*
X007296Y013708D02*
X007296Y012996D01*
X007056Y012996D01*
X007056Y013708D01*
X007056Y013109D02*
X007296Y013109D01*
X007296Y013222D02*
X007056Y013222D01*
X007056Y013335D02*
X007296Y013335D01*
X007296Y013448D02*
X007056Y013448D01*
X007056Y013561D02*
X007296Y013561D01*
X007296Y013674D02*
X007056Y013674D01*
X006804Y013708D02*
X006564Y013708D01*
X006804Y013708D02*
X006804Y012996D01*
X006564Y012996D01*
X006564Y013708D01*
X006564Y013109D02*
X006804Y013109D01*
X006804Y013222D02*
X006564Y013222D01*
X006564Y013335D02*
X006804Y013335D01*
X006804Y013448D02*
X006564Y013448D01*
X006564Y013561D02*
X006804Y013561D01*
X006804Y013674D02*
X006564Y013674D01*
X006312Y013708D02*
X006072Y013708D01*
X006312Y013708D02*
X006312Y012996D01*
X006072Y012996D01*
X006072Y013708D01*
X006072Y013109D02*
X006312Y013109D01*
X006312Y013222D02*
X006072Y013222D01*
X006072Y013335D02*
X006312Y013335D01*
X006312Y013448D02*
X006072Y013448D01*
X006072Y013561D02*
X006312Y013561D01*
X006312Y013674D02*
X006072Y013674D01*
X008466Y009127D02*
X008706Y009127D01*
X008706Y008887D01*
X008466Y008887D01*
X008466Y009127D01*
X008466Y009000D02*
X008706Y009000D01*
X008706Y009113D02*
X008466Y009113D01*
X008466Y008536D02*
X008706Y008536D01*
X008706Y008296D01*
X008466Y008296D01*
X008466Y008536D01*
X008466Y008409D02*
X008706Y008409D01*
X008706Y008522D02*
X008466Y008522D01*
X007788Y005114D02*
X007548Y005114D01*
X007788Y005114D02*
X007788Y004402D01*
X007548Y004402D01*
X007548Y005114D01*
X007548Y004515D02*
X007788Y004515D01*
X007788Y004628D02*
X007548Y004628D01*
X007548Y004741D02*
X007788Y004741D01*
X007788Y004854D02*
X007548Y004854D01*
X007548Y004967D02*
X007788Y004967D01*
X007788Y005080D02*
X007548Y005080D01*
X007296Y005114D02*
X007056Y005114D01*
X007296Y005114D02*
X007296Y004402D01*
X007056Y004402D01*
X007056Y005114D01*
X007056Y004515D02*
X007296Y004515D01*
X007296Y004628D02*
X007056Y004628D01*
X007056Y004741D02*
X007296Y004741D01*
X007296Y004854D02*
X007056Y004854D01*
X007056Y004967D02*
X007296Y004967D01*
X007296Y005080D02*
X007056Y005080D01*
X006804Y005114D02*
X006564Y005114D01*
X006804Y005114D02*
X006804Y004402D01*
X006564Y004402D01*
X006564Y005114D01*
X006564Y004515D02*
X006804Y004515D01*
X006804Y004628D02*
X006564Y004628D01*
X006564Y004741D02*
X006804Y004741D01*
X006804Y004854D02*
X006564Y004854D01*
X006564Y004967D02*
X006804Y004967D01*
X006804Y005080D02*
X006564Y005080D01*
X006312Y005114D02*
X006072Y005114D01*
X006312Y005114D02*
X006312Y004402D01*
X006072Y004402D01*
X006072Y005114D01*
X006072Y004515D02*
X006312Y004515D01*
X006312Y004628D02*
X006072Y004628D01*
X006072Y004741D02*
X006312Y004741D01*
X006312Y004854D02*
X006072Y004854D01*
X006072Y004967D02*
X006312Y004967D01*
X006312Y005080D02*
X006072Y005080D01*
D15*
X006132Y005751D02*
X006132Y005971D01*
X006156Y005971D01*
X006156Y005751D01*
X006132Y005751D01*
X006132Y005884D02*
X006156Y005884D01*
X006329Y005971D02*
X006329Y005751D01*
X006329Y005971D02*
X006353Y005971D01*
X006353Y005751D01*
X006329Y005751D01*
X006329Y005884D02*
X006353Y005884D01*
X006526Y005971D02*
X006526Y005751D01*
X006526Y005971D02*
X006550Y005971D01*
X006550Y005751D01*
X006526Y005751D01*
X006526Y005884D02*
X006550Y005884D01*
X006723Y005971D02*
X006723Y005751D01*
X006723Y005971D02*
X006747Y005971D01*
X006747Y005751D01*
X006723Y005751D01*
X006723Y005884D02*
X006747Y005884D01*
X006920Y006169D02*
X007140Y006169D01*
X007140Y006145D01*
X006920Y006145D01*
X006920Y006169D01*
X006920Y006365D02*
X007140Y006365D01*
X007140Y006341D01*
X006920Y006341D01*
X006920Y006365D01*
X006920Y006562D02*
X007140Y006562D01*
X007140Y006538D01*
X006920Y006538D01*
X006920Y006562D01*
X006920Y006759D02*
X007140Y006759D01*
X007140Y006735D01*
X006920Y006735D01*
X006920Y006759D01*
X006920Y006956D02*
X007140Y006956D01*
X007140Y006932D01*
X006920Y006932D01*
X006920Y006956D01*
X006920Y007153D02*
X007140Y007153D01*
X007140Y007129D01*
X006920Y007129D01*
X006920Y007153D01*
X006747Y007326D02*
X006747Y007546D01*
X006747Y007326D02*
X006723Y007326D01*
X006723Y007546D01*
X006747Y007546D01*
X006747Y007459D02*
X006723Y007459D01*
X006550Y007546D02*
X006550Y007326D01*
X006526Y007326D01*
X006526Y007546D01*
X006550Y007546D01*
X006550Y007459D02*
X006526Y007459D01*
X006353Y007546D02*
X006353Y007326D01*
X006329Y007326D01*
X006329Y007546D01*
X006353Y007546D01*
X006353Y007459D02*
X006329Y007459D01*
X006156Y007546D02*
X006156Y007326D01*
X006132Y007326D01*
X006132Y007546D01*
X006156Y007546D01*
X006156Y007459D02*
X006132Y007459D01*
X005959Y007546D02*
X005959Y007326D01*
X005935Y007326D01*
X005935Y007546D01*
X005959Y007546D01*
X005959Y007459D02*
X005935Y007459D01*
X005762Y007546D02*
X005762Y007326D01*
X005738Y007326D01*
X005738Y007546D01*
X005762Y007546D01*
X005762Y007459D02*
X005738Y007459D01*
X005565Y007129D02*
X005345Y007129D01*
X005345Y007153D01*
X005565Y007153D01*
X005565Y007129D01*
X005565Y006932D02*
X005345Y006932D01*
X005345Y006956D01*
X005565Y006956D01*
X005565Y006932D01*
X005565Y006735D02*
X005345Y006735D01*
X005345Y006759D01*
X005565Y006759D01*
X005565Y006735D01*
X005565Y006538D02*
X005345Y006538D01*
X005345Y006562D01*
X005565Y006562D01*
X005565Y006538D01*
X005565Y006341D02*
X005345Y006341D01*
X005345Y006365D01*
X005565Y006365D01*
X005565Y006341D01*
X005565Y006145D02*
X005345Y006145D01*
X005345Y006169D01*
X005565Y006169D01*
X005565Y006145D01*
X005738Y005971D02*
X005738Y005751D01*
X005738Y005971D02*
X005762Y005971D01*
X005762Y005751D01*
X005738Y005751D01*
X005738Y005884D02*
X005762Y005884D01*
X005935Y005971D02*
X005935Y005751D01*
X005935Y005971D02*
X005959Y005971D01*
X005959Y005751D01*
X005935Y005751D01*
X005935Y005884D02*
X005959Y005884D01*
X012876Y006145D02*
X013096Y006145D01*
X012876Y006145D02*
X012876Y006169D01*
X013096Y006169D01*
X013096Y006145D01*
X013096Y006341D02*
X012876Y006341D01*
X012876Y006365D01*
X013096Y006365D01*
X013096Y006341D01*
X013096Y006538D02*
X012876Y006538D01*
X012876Y006562D01*
X013096Y006562D01*
X013096Y006538D01*
X013096Y006735D02*
X012876Y006735D01*
X012876Y006759D01*
X013096Y006759D01*
X013096Y006735D01*
X013096Y006932D02*
X012876Y006932D01*
X012876Y006956D01*
X013096Y006956D01*
X013096Y006932D01*
X013096Y007129D02*
X012876Y007129D01*
X012876Y007153D01*
X013096Y007153D01*
X013096Y007129D01*
X013294Y007326D02*
X013294Y007546D01*
X013294Y007326D02*
X013270Y007326D01*
X013270Y007546D01*
X013294Y007546D01*
X013294Y007459D02*
X013270Y007459D01*
X013490Y007546D02*
X013490Y007326D01*
X013466Y007326D01*
X013466Y007546D01*
X013490Y007546D01*
X013490Y007459D02*
X013466Y007459D01*
X013687Y007546D02*
X013687Y007326D01*
X013663Y007326D01*
X013663Y007546D01*
X013687Y007546D01*
X013687Y007459D02*
X013663Y007459D01*
X013884Y007546D02*
X013884Y007326D01*
X013860Y007326D01*
X013860Y007546D01*
X013884Y007546D01*
X013884Y007459D02*
X013860Y007459D01*
X014081Y007546D02*
X014081Y007326D01*
X014057Y007326D01*
X014057Y007546D01*
X014081Y007546D01*
X014081Y007459D02*
X014057Y007459D01*
X014278Y007546D02*
X014278Y007326D01*
X014254Y007326D01*
X014254Y007546D01*
X014278Y007546D01*
X014278Y007459D02*
X014254Y007459D01*
X014451Y007153D02*
X014671Y007153D01*
X014671Y007129D01*
X014451Y007129D01*
X014451Y007153D01*
X014451Y006956D02*
X014671Y006956D01*
X014671Y006932D01*
X014451Y006932D01*
X014451Y006956D01*
X014451Y006759D02*
X014671Y006759D01*
X014671Y006735D01*
X014451Y006735D01*
X014451Y006759D01*
X014451Y006562D02*
X014671Y006562D01*
X014671Y006538D01*
X014451Y006538D01*
X014451Y006562D01*
X014451Y006365D02*
X014671Y006365D01*
X014671Y006341D01*
X014451Y006341D01*
X014451Y006365D01*
X014451Y006169D02*
X014671Y006169D01*
X014671Y006145D01*
X014451Y006145D01*
X014451Y006169D01*
X014254Y005971D02*
X014254Y005751D01*
X014254Y005971D02*
X014278Y005971D01*
X014278Y005751D01*
X014254Y005751D01*
X014254Y005884D02*
X014278Y005884D01*
X014057Y005971D02*
X014057Y005751D01*
X014057Y005971D02*
X014081Y005971D01*
X014081Y005751D01*
X014057Y005751D01*
X014057Y005884D02*
X014081Y005884D01*
X013860Y005971D02*
X013860Y005751D01*
X013860Y005971D02*
X013884Y005971D01*
X013884Y005751D01*
X013860Y005751D01*
X013860Y005884D02*
X013884Y005884D01*
X013663Y005971D02*
X013663Y005751D01*
X013663Y005971D02*
X013687Y005971D01*
X013687Y005751D01*
X013663Y005751D01*
X013663Y005884D02*
X013687Y005884D01*
X013466Y005971D02*
X013466Y005751D01*
X013466Y005971D02*
X013490Y005971D01*
X013490Y005751D01*
X013466Y005751D01*
X013466Y005884D02*
X013490Y005884D01*
X013270Y005971D02*
X013270Y005751D01*
X013270Y005971D02*
X013294Y005971D01*
X013294Y005751D01*
X013270Y005751D01*
X013270Y005884D02*
X013294Y005884D01*
X013270Y014345D02*
X013270Y014565D01*
X013294Y014565D01*
X013294Y014345D01*
X013270Y014345D01*
X013270Y014478D02*
X013294Y014478D01*
X013466Y014565D02*
X013466Y014345D01*
X013466Y014565D02*
X013490Y014565D01*
X013490Y014345D01*
X013466Y014345D01*
X013466Y014478D02*
X013490Y014478D01*
X013663Y014565D02*
X013663Y014345D01*
X013663Y014565D02*
X013687Y014565D01*
X013687Y014345D01*
X013663Y014345D01*
X013663Y014478D02*
X013687Y014478D01*
X013860Y014565D02*
X013860Y014345D01*
X013860Y014565D02*
X013884Y014565D01*
X013884Y014345D01*
X013860Y014345D01*
X013860Y014478D02*
X013884Y014478D01*
X014057Y014565D02*
X014057Y014345D01*
X014057Y014565D02*
X014081Y014565D01*
X014081Y014345D01*
X014057Y014345D01*
X014057Y014478D02*
X014081Y014478D01*
X014254Y014565D02*
X014254Y014345D01*
X014254Y014565D02*
X014278Y014565D01*
X014278Y014345D01*
X014254Y014345D01*
X014254Y014478D02*
X014278Y014478D01*
X014451Y014762D02*
X014671Y014762D01*
X014671Y014738D01*
X014451Y014738D01*
X014451Y014762D01*
X014451Y014959D02*
X014671Y014959D01*
X014671Y014935D01*
X014451Y014935D01*
X014451Y014959D01*
X014451Y015156D02*
X014671Y015156D01*
X014671Y015132D01*
X014451Y015132D01*
X014451Y015156D01*
X014451Y015353D02*
X014671Y015353D01*
X014671Y015329D01*
X014451Y015329D01*
X014451Y015353D01*
X014451Y015550D02*
X014671Y015550D01*
X014671Y015526D01*
X014451Y015526D01*
X014451Y015550D01*
X014451Y015747D02*
X014671Y015747D01*
X014671Y015723D01*
X014451Y015723D01*
X014451Y015747D01*
X014278Y015920D02*
X014278Y016140D01*
X014278Y015920D02*
X014254Y015920D01*
X014254Y016140D01*
X014278Y016140D01*
X014278Y016053D02*
X014254Y016053D01*
X014081Y016140D02*
X014081Y015920D01*
X014057Y015920D01*
X014057Y016140D01*
X014081Y016140D01*
X014081Y016053D02*
X014057Y016053D01*
X013884Y016140D02*
X013884Y015920D01*
X013860Y015920D01*
X013860Y016140D01*
X013884Y016140D01*
X013884Y016053D02*
X013860Y016053D01*
X013687Y016140D02*
X013687Y015920D01*
X013663Y015920D01*
X013663Y016140D01*
X013687Y016140D01*
X013687Y016053D02*
X013663Y016053D01*
X013490Y016140D02*
X013490Y015920D01*
X013466Y015920D01*
X013466Y016140D01*
X013490Y016140D01*
X013490Y016053D02*
X013466Y016053D01*
X013294Y016140D02*
X013294Y015920D01*
X013270Y015920D01*
X013270Y016140D01*
X013294Y016140D01*
X013294Y016053D02*
X013270Y016053D01*
X013096Y015723D02*
X012876Y015723D01*
X012876Y015747D01*
X013096Y015747D01*
X013096Y015723D01*
X013096Y015526D02*
X012876Y015526D01*
X012876Y015550D01*
X013096Y015550D01*
X013096Y015526D01*
X013096Y015329D02*
X012876Y015329D01*
X012876Y015353D01*
X013096Y015353D01*
X013096Y015329D01*
X013096Y015132D02*
X012876Y015132D01*
X012876Y015156D01*
X013096Y015156D01*
X013096Y015132D01*
X013096Y014935D02*
X012876Y014935D01*
X012876Y014959D01*
X013096Y014959D01*
X013096Y014935D01*
X013096Y014738D02*
X012876Y014738D01*
X012876Y014762D01*
X013096Y014762D01*
X013096Y014738D01*
X007140Y014762D02*
X006920Y014762D01*
X007140Y014762D02*
X007140Y014738D01*
X006920Y014738D01*
X006920Y014762D01*
X006920Y014959D02*
X007140Y014959D01*
X007140Y014935D01*
X006920Y014935D01*
X006920Y014959D01*
X006920Y015156D02*
X007140Y015156D01*
X007140Y015132D01*
X006920Y015132D01*
X006920Y015156D01*
X006920Y015353D02*
X007140Y015353D01*
X007140Y015329D01*
X006920Y015329D01*
X006920Y015353D01*
X006920Y015550D02*
X007140Y015550D01*
X007140Y015526D01*
X006920Y015526D01*
X006920Y015550D01*
X006920Y015747D02*
X007140Y015747D01*
X007140Y015723D01*
X006920Y015723D01*
X006920Y015747D01*
X006747Y015920D02*
X006747Y016140D01*
X006747Y015920D02*
X006723Y015920D01*
X006723Y016140D01*
X006747Y016140D01*
X006747Y016053D02*
X006723Y016053D01*
X006550Y016140D02*
X006550Y015920D01*
X006526Y015920D01*
X006526Y016140D01*
X006550Y016140D01*
X006550Y016053D02*
X006526Y016053D01*
X006353Y016140D02*
X006353Y015920D01*
X006329Y015920D01*
X006329Y016140D01*
X006353Y016140D01*
X006353Y016053D02*
X006329Y016053D01*
X006156Y016140D02*
X006156Y015920D01*
X006132Y015920D01*
X006132Y016140D01*
X006156Y016140D01*
X006156Y016053D02*
X006132Y016053D01*
X005959Y016140D02*
X005959Y015920D01*
X005935Y015920D01*
X005935Y016140D01*
X005959Y016140D01*
X005959Y016053D02*
X005935Y016053D01*
X005762Y016140D02*
X005762Y015920D01*
X005738Y015920D01*
X005738Y016140D01*
X005762Y016140D01*
X005762Y016053D02*
X005738Y016053D01*
X005565Y015723D02*
X005345Y015723D01*
X005345Y015747D01*
X005565Y015747D01*
X005565Y015723D01*
X005565Y015526D02*
X005345Y015526D01*
X005345Y015550D01*
X005565Y015550D01*
X005565Y015526D01*
X005565Y015329D02*
X005345Y015329D01*
X005345Y015353D01*
X005565Y015353D01*
X005565Y015329D01*
X005565Y015132D02*
X005345Y015132D01*
X005345Y015156D01*
X005565Y015156D01*
X005565Y015132D01*
X005565Y014935D02*
X005345Y014935D01*
X005345Y014959D01*
X005565Y014959D01*
X005565Y014935D01*
X005565Y014738D02*
X005345Y014738D01*
X005345Y014762D01*
X005565Y014762D01*
X005565Y014738D01*
X005738Y014565D02*
X005738Y014345D01*
X005738Y014565D02*
X005762Y014565D01*
X005762Y014345D01*
X005738Y014345D01*
X005738Y014478D02*
X005762Y014478D01*
X005935Y014565D02*
X005935Y014345D01*
X005935Y014565D02*
X005959Y014565D01*
X005959Y014345D01*
X005935Y014345D01*
X005935Y014478D02*
X005959Y014478D01*
X006132Y014565D02*
X006132Y014345D01*
X006132Y014565D02*
X006156Y014565D01*
X006156Y014345D01*
X006132Y014345D01*
X006132Y014478D02*
X006156Y014478D01*
X006329Y014565D02*
X006329Y014345D01*
X006329Y014565D02*
X006353Y014565D01*
X006353Y014345D01*
X006329Y014345D01*
X006329Y014478D02*
X006353Y014478D01*
X006526Y014565D02*
X006526Y014345D01*
X006526Y014565D02*
X006550Y014565D01*
X006550Y014345D01*
X006526Y014345D01*
X006526Y014478D02*
X006550Y014478D01*
X006723Y014565D02*
X006723Y014345D01*
X006723Y014565D02*
X006747Y014565D01*
X006747Y014345D01*
X006723Y014345D01*
X006723Y014478D02*
X006747Y014478D01*
D16*
X006243Y015243D03*
X013774Y015243D03*
X013774Y006649D03*
X006243Y006649D03*
D17*
X007714Y006279D02*
X008040Y006279D01*
X007714Y006279D02*
X007714Y006643D01*
X008040Y006643D01*
X008040Y006279D01*
X008040Y006386D02*
X007714Y006386D01*
X007714Y006493D02*
X008040Y006493D01*
X008040Y006600D02*
X007714Y006600D01*
X007714Y006904D02*
X008040Y006904D01*
X007714Y006904D02*
X007714Y007268D01*
X008040Y007268D01*
X008040Y006904D01*
X008040Y007011D02*
X007714Y007011D01*
X007714Y007118D02*
X008040Y007118D01*
X008040Y007225D02*
X007714Y007225D01*
X008040Y007529D02*
X008040Y007893D01*
X008040Y007529D02*
X007714Y007529D01*
X007714Y007893D01*
X008040Y007893D01*
X008040Y007636D02*
X007714Y007636D01*
X007714Y007743D02*
X008040Y007743D01*
X008040Y007850D02*
X007714Y007850D01*
X008081Y008214D02*
X008081Y008540D01*
X008081Y008214D02*
X007717Y008214D01*
X007717Y008540D01*
X008081Y008540D01*
X008081Y008321D02*
X007717Y008321D01*
X007717Y008428D02*
X008081Y008428D01*
X008081Y008535D02*
X007717Y008535D01*
X008081Y008883D02*
X008081Y009209D01*
X008081Y008883D02*
X007717Y008883D01*
X007717Y009209D01*
X008081Y009209D01*
X008081Y008990D02*
X007717Y008990D01*
X007717Y009097D02*
X008081Y009097D01*
X008081Y009204D02*
X007717Y009204D01*
X008709Y007893D02*
X008709Y007529D01*
X008383Y007529D01*
X008383Y007893D01*
X008709Y007893D01*
X008709Y007636D02*
X008383Y007636D01*
X008383Y007743D02*
X008709Y007743D01*
X008709Y007850D02*
X008383Y007850D01*
X008383Y006904D02*
X008709Y006904D01*
X008383Y006904D02*
X008383Y007268D01*
X008709Y007268D01*
X008709Y006904D01*
X008709Y007011D02*
X008383Y007011D01*
X008383Y007118D02*
X008709Y007118D01*
X008709Y007225D02*
X008383Y007225D01*
X008383Y006279D02*
X008709Y006279D01*
X008383Y006279D02*
X008383Y006643D01*
X008709Y006643D01*
X008709Y006279D01*
X008709Y006386D02*
X008383Y006386D01*
X008383Y006493D02*
X008709Y006493D01*
X008709Y006600D02*
X008383Y006600D01*
X008709Y006018D02*
X008709Y005654D01*
X008383Y005654D01*
X008383Y006018D01*
X008709Y006018D01*
X008709Y005761D02*
X008383Y005761D01*
X008383Y005868D02*
X008709Y005868D01*
X008709Y005975D02*
X008383Y005975D01*
X008040Y006018D02*
X008040Y005654D01*
X007714Y005654D01*
X007714Y006018D01*
X008040Y006018D01*
X008040Y005761D02*
X007714Y005761D01*
X007714Y005868D02*
X008040Y005868D01*
X008040Y005975D02*
X007714Y005975D01*
X005706Y008214D02*
X005342Y008214D01*
X005342Y008540D01*
X005706Y008540D01*
X005706Y008214D01*
X005706Y008321D02*
X005342Y008321D01*
X005342Y008428D02*
X005706Y008428D01*
X005706Y008535D02*
X005342Y008535D01*
X005342Y008883D02*
X005706Y008883D01*
X005342Y008883D02*
X005342Y009209D01*
X005706Y009209D01*
X005706Y008883D01*
X005706Y008990D02*
X005342Y008990D01*
X005342Y009097D02*
X005706Y009097D01*
X005706Y009204D02*
X005342Y009204D01*
X004320Y007581D02*
X004320Y007217D01*
X004320Y007581D02*
X004646Y007581D01*
X004646Y007217D01*
X004320Y007217D01*
X004320Y007324D02*
X004646Y007324D01*
X004646Y007431D02*
X004320Y007431D01*
X004320Y007538D02*
X004646Y007538D01*
X004320Y006956D02*
X004320Y006592D01*
X004320Y006956D02*
X004646Y006956D01*
X004646Y006592D01*
X004320Y006592D01*
X004320Y006699D02*
X004646Y006699D01*
X004646Y006806D02*
X004320Y006806D01*
X004320Y006913D02*
X004646Y006913D01*
X004320Y006331D02*
X004320Y005967D01*
X004320Y006331D02*
X004646Y006331D01*
X004646Y005967D01*
X004320Y005967D01*
X004320Y006074D02*
X004646Y006074D01*
X004646Y006181D02*
X004320Y006181D01*
X004320Y006288D02*
X004646Y006288D01*
X003651Y006331D02*
X003651Y005967D01*
X003651Y006331D02*
X003977Y006331D01*
X003977Y005967D01*
X003651Y005967D01*
X003651Y006074D02*
X003977Y006074D01*
X003977Y006181D02*
X003651Y006181D01*
X003651Y006288D02*
X003977Y006288D01*
X003651Y006592D02*
X003651Y006956D01*
X003977Y006956D01*
X003977Y006592D01*
X003651Y006592D01*
X003651Y006699D02*
X003977Y006699D01*
X003977Y006806D02*
X003651Y006806D01*
X003651Y006913D02*
X003977Y006913D01*
X003651Y007217D02*
X003651Y007581D01*
X003977Y007581D01*
X003977Y007217D01*
X003651Y007217D01*
X003651Y007324D02*
X003977Y007324D01*
X003977Y007431D02*
X003651Y007431D01*
X003651Y007538D02*
X003977Y007538D01*
X008040Y014248D02*
X008040Y014612D01*
X008040Y014248D02*
X007714Y014248D01*
X007714Y014612D01*
X008040Y014612D01*
X008040Y014355D02*
X007714Y014355D01*
X007714Y014462D02*
X008040Y014462D01*
X008040Y014569D02*
X007714Y014569D01*
X007714Y014873D02*
X008040Y014873D01*
X007714Y014873D02*
X007714Y015237D01*
X008040Y015237D01*
X008040Y014873D01*
X008040Y014980D02*
X007714Y014980D01*
X007714Y015087D02*
X008040Y015087D01*
X008040Y015194D02*
X007714Y015194D01*
X007714Y015498D02*
X008040Y015498D01*
X007714Y015498D02*
X007714Y015862D01*
X008040Y015862D01*
X008040Y015498D01*
X008040Y015605D02*
X007714Y015605D01*
X007714Y015712D02*
X008040Y015712D01*
X008040Y015819D02*
X007714Y015819D01*
X008040Y016123D02*
X008040Y016487D01*
X008040Y016123D02*
X007714Y016123D01*
X007714Y016487D01*
X008040Y016487D01*
X008040Y016230D02*
X007714Y016230D01*
X007714Y016337D02*
X008040Y016337D01*
X008040Y016444D02*
X007714Y016444D01*
X008081Y016807D02*
X008081Y017133D01*
X008081Y016807D02*
X007717Y016807D01*
X007717Y017133D01*
X008081Y017133D01*
X008081Y016914D02*
X007717Y016914D01*
X007717Y017021D02*
X008081Y017021D01*
X008081Y017128D02*
X007717Y017128D01*
X008081Y017477D02*
X008081Y017803D01*
X008081Y017477D02*
X007717Y017477D01*
X007717Y017803D01*
X008081Y017803D01*
X008081Y017584D02*
X007717Y017584D01*
X007717Y017691D02*
X008081Y017691D01*
X008081Y017798D02*
X007717Y017798D01*
X008709Y016487D02*
X008709Y016123D01*
X008383Y016123D01*
X008383Y016487D01*
X008709Y016487D01*
X008709Y016230D02*
X008383Y016230D01*
X008383Y016337D02*
X008709Y016337D01*
X008709Y016444D02*
X008383Y016444D01*
X008383Y015498D02*
X008709Y015498D01*
X008383Y015498D02*
X008383Y015862D01*
X008709Y015862D01*
X008709Y015498D01*
X008709Y015605D02*
X008383Y015605D01*
X008383Y015712D02*
X008709Y015712D01*
X008709Y015819D02*
X008383Y015819D01*
X008383Y014873D02*
X008709Y014873D01*
X008383Y014873D02*
X008383Y015237D01*
X008709Y015237D01*
X008709Y014873D01*
X008709Y014980D02*
X008383Y014980D01*
X008383Y015087D02*
X008709Y015087D01*
X008709Y015194D02*
X008383Y015194D01*
X008709Y014612D02*
X008709Y014248D01*
X008383Y014248D01*
X008383Y014612D01*
X008709Y014612D01*
X008709Y014355D02*
X008383Y014355D01*
X008383Y014462D02*
X008709Y014462D01*
X008709Y014569D02*
X008383Y014569D01*
X005706Y016807D02*
X005342Y016807D01*
X005342Y017133D01*
X005706Y017133D01*
X005706Y016807D01*
X005706Y016914D02*
X005342Y016914D01*
X005342Y017021D02*
X005706Y017021D01*
X005706Y017128D02*
X005342Y017128D01*
X005342Y017477D02*
X005706Y017477D01*
X005342Y017477D02*
X005342Y017803D01*
X005706Y017803D01*
X005706Y017477D01*
X005706Y017584D02*
X005342Y017584D01*
X005342Y017691D02*
X005706Y017691D01*
X005706Y017798D02*
X005342Y017798D01*
X004320Y016175D02*
X004320Y015811D01*
X004320Y016175D02*
X004646Y016175D01*
X004646Y015811D01*
X004320Y015811D01*
X004320Y015918D02*
X004646Y015918D01*
X004646Y016025D02*
X004320Y016025D01*
X004320Y016132D02*
X004646Y016132D01*
X004320Y015550D02*
X004320Y015186D01*
X004320Y015550D02*
X004646Y015550D01*
X004646Y015186D01*
X004320Y015186D01*
X004320Y015293D02*
X004646Y015293D01*
X004646Y015400D02*
X004320Y015400D01*
X004320Y015507D02*
X004646Y015507D01*
X004320Y014925D02*
X004320Y014561D01*
X004320Y014925D02*
X004646Y014925D01*
X004646Y014561D01*
X004320Y014561D01*
X004320Y014668D02*
X004646Y014668D01*
X004646Y014775D02*
X004320Y014775D01*
X004320Y014882D02*
X004646Y014882D01*
X003651Y014925D02*
X003651Y014561D01*
X003651Y014925D02*
X003977Y014925D01*
X003977Y014561D01*
X003651Y014561D01*
X003651Y014668D02*
X003977Y014668D01*
X003977Y014775D02*
X003651Y014775D01*
X003651Y014882D02*
X003977Y014882D01*
X003651Y015186D02*
X003651Y015550D01*
X003977Y015550D01*
X003977Y015186D01*
X003651Y015186D01*
X003651Y015293D02*
X003977Y015293D01*
X003977Y015400D02*
X003651Y015400D01*
X003651Y015507D02*
X003977Y015507D01*
X003651Y015811D02*
X003651Y016175D01*
X003977Y016175D01*
X003977Y015811D01*
X003651Y015811D01*
X003651Y015918D02*
X003977Y015918D01*
X003977Y016025D02*
X003651Y016025D01*
X003651Y016132D02*
X003977Y016132D01*
X011182Y016175D02*
X011182Y015811D01*
X011182Y016175D02*
X011508Y016175D01*
X011508Y015811D01*
X011182Y015811D01*
X011182Y015918D02*
X011508Y015918D01*
X011508Y016025D02*
X011182Y016025D01*
X011182Y016132D02*
X011508Y016132D01*
X011852Y016175D02*
X011852Y015811D01*
X011852Y016175D02*
X012178Y016175D01*
X012178Y015811D01*
X011852Y015811D01*
X011852Y015918D02*
X012178Y015918D01*
X012178Y016025D02*
X011852Y016025D01*
X011852Y016132D02*
X012178Y016132D01*
X011852Y015550D02*
X011852Y015186D01*
X011852Y015550D02*
X012178Y015550D01*
X012178Y015186D01*
X011852Y015186D01*
X011852Y015293D02*
X012178Y015293D01*
X012178Y015400D02*
X011852Y015400D01*
X011852Y015507D02*
X012178Y015507D01*
X011852Y014925D02*
X011852Y014561D01*
X011852Y014925D02*
X012178Y014925D01*
X012178Y014561D01*
X011852Y014561D01*
X011852Y014668D02*
X012178Y014668D01*
X012178Y014775D02*
X011852Y014775D01*
X011852Y014882D02*
X012178Y014882D01*
X011182Y014925D02*
X011182Y014561D01*
X011182Y014925D02*
X011508Y014925D01*
X011508Y014561D01*
X011182Y014561D01*
X011182Y014668D02*
X011508Y014668D01*
X011508Y014775D02*
X011182Y014775D01*
X011182Y014882D02*
X011508Y014882D01*
X011182Y015186D02*
X011182Y015550D01*
X011508Y015550D01*
X011508Y015186D01*
X011182Y015186D01*
X011182Y015293D02*
X011508Y015293D01*
X011508Y015400D02*
X011182Y015400D01*
X011182Y015507D02*
X011508Y015507D01*
X012873Y016807D02*
X013237Y016807D01*
X012873Y016807D02*
X012873Y017133D01*
X013237Y017133D01*
X013237Y016807D01*
X013237Y016914D02*
X012873Y016914D01*
X012873Y017021D02*
X013237Y017021D01*
X013237Y017128D02*
X012873Y017128D01*
X012873Y017477D02*
X013237Y017477D01*
X012873Y017477D02*
X012873Y017803D01*
X013237Y017803D01*
X013237Y017477D01*
X013237Y017584D02*
X012873Y017584D01*
X012873Y017691D02*
X013237Y017691D01*
X013237Y017798D02*
X012873Y017798D01*
X015612Y017803D02*
X015612Y017477D01*
X015248Y017477D01*
X015248Y017803D01*
X015612Y017803D01*
X015612Y017584D02*
X015248Y017584D01*
X015248Y017691D02*
X015612Y017691D01*
X015612Y017798D02*
X015248Y017798D01*
X015612Y017133D02*
X015612Y016807D01*
X015248Y016807D01*
X015248Y017133D01*
X015612Y017133D01*
X015612Y016914D02*
X015248Y016914D01*
X015248Y017021D02*
X015612Y017021D01*
X015612Y017128D02*
X015248Y017128D01*
X015571Y016487D02*
X015571Y016123D01*
X015245Y016123D01*
X015245Y016487D01*
X015571Y016487D01*
X015571Y016230D02*
X015245Y016230D01*
X015245Y016337D02*
X015571Y016337D01*
X015571Y016444D02*
X015245Y016444D01*
X015245Y015498D02*
X015571Y015498D01*
X015245Y015498D02*
X015245Y015862D01*
X015571Y015862D01*
X015571Y015498D01*
X015571Y015605D02*
X015245Y015605D01*
X015245Y015712D02*
X015571Y015712D01*
X015571Y015819D02*
X015245Y015819D01*
X015245Y014873D02*
X015571Y014873D01*
X015245Y014873D02*
X015245Y015237D01*
X015571Y015237D01*
X015571Y014873D01*
X015571Y014980D02*
X015245Y014980D01*
X015245Y015087D02*
X015571Y015087D01*
X015571Y015194D02*
X015245Y015194D01*
X015571Y014612D02*
X015571Y014248D01*
X015245Y014248D01*
X015245Y014612D01*
X015571Y014612D01*
X015571Y014355D02*
X015245Y014355D01*
X015245Y014462D02*
X015571Y014462D01*
X015571Y014569D02*
X015245Y014569D01*
X016240Y014612D02*
X016240Y014248D01*
X015914Y014248D01*
X015914Y014612D01*
X016240Y014612D01*
X016240Y014355D02*
X015914Y014355D01*
X015914Y014462D02*
X016240Y014462D01*
X016240Y014569D02*
X015914Y014569D01*
X015914Y014873D02*
X016240Y014873D01*
X015914Y014873D02*
X015914Y015237D01*
X016240Y015237D01*
X016240Y014873D01*
X016240Y014980D02*
X015914Y014980D01*
X015914Y015087D02*
X016240Y015087D01*
X016240Y015194D02*
X015914Y015194D01*
X015914Y015498D02*
X016240Y015498D01*
X015914Y015498D02*
X015914Y015862D01*
X016240Y015862D01*
X016240Y015498D01*
X016240Y015605D02*
X015914Y015605D01*
X015914Y015712D02*
X016240Y015712D01*
X016240Y015819D02*
X015914Y015819D01*
X016240Y016123D02*
X016240Y016487D01*
X016240Y016123D02*
X015914Y016123D01*
X015914Y016487D01*
X016240Y016487D01*
X016240Y016230D02*
X015914Y016230D01*
X015914Y016337D02*
X016240Y016337D01*
X016240Y016444D02*
X015914Y016444D01*
X015612Y009209D02*
X015612Y008883D01*
X015248Y008883D01*
X015248Y009209D01*
X015612Y009209D01*
X015612Y008990D02*
X015248Y008990D01*
X015248Y009097D02*
X015612Y009097D01*
X015612Y009204D02*
X015248Y009204D01*
X015612Y008540D02*
X015612Y008214D01*
X015248Y008214D01*
X015248Y008540D01*
X015612Y008540D01*
X015612Y008321D02*
X015248Y008321D01*
X015248Y008428D02*
X015612Y008428D01*
X015612Y008535D02*
X015248Y008535D01*
X015571Y007893D02*
X015571Y007529D01*
X015245Y007529D01*
X015245Y007893D01*
X015571Y007893D01*
X015571Y007636D02*
X015245Y007636D01*
X015245Y007743D02*
X015571Y007743D01*
X015571Y007850D02*
X015245Y007850D01*
X015245Y006904D02*
X015571Y006904D01*
X015245Y006904D02*
X015245Y007268D01*
X015571Y007268D01*
X015571Y006904D01*
X015571Y007011D02*
X015245Y007011D01*
X015245Y007118D02*
X015571Y007118D01*
X015571Y007225D02*
X015245Y007225D01*
X015245Y006279D02*
X015571Y006279D01*
X015245Y006279D02*
X015245Y006643D01*
X015571Y006643D01*
X015571Y006279D01*
X015571Y006386D02*
X015245Y006386D01*
X015245Y006493D02*
X015571Y006493D01*
X015571Y006600D02*
X015245Y006600D01*
X015571Y006018D02*
X015571Y005654D01*
X015245Y005654D01*
X015245Y006018D01*
X015571Y006018D01*
X015571Y005761D02*
X015245Y005761D01*
X015245Y005868D02*
X015571Y005868D01*
X015571Y005975D02*
X015245Y005975D01*
X016240Y006018D02*
X016240Y005654D01*
X015914Y005654D01*
X015914Y006018D01*
X016240Y006018D01*
X016240Y005761D02*
X015914Y005761D01*
X015914Y005868D02*
X016240Y005868D01*
X016240Y005975D02*
X015914Y005975D01*
X015914Y006279D02*
X016240Y006279D01*
X015914Y006279D02*
X015914Y006643D01*
X016240Y006643D01*
X016240Y006279D01*
X016240Y006386D02*
X015914Y006386D01*
X015914Y006493D02*
X016240Y006493D01*
X016240Y006600D02*
X015914Y006600D01*
X015914Y006904D02*
X016240Y006904D01*
X015914Y006904D02*
X015914Y007268D01*
X016240Y007268D01*
X016240Y006904D01*
X016240Y007011D02*
X015914Y007011D01*
X015914Y007118D02*
X016240Y007118D01*
X016240Y007225D02*
X015914Y007225D01*
X016240Y007529D02*
X016240Y007893D01*
X016240Y007529D02*
X015914Y007529D01*
X015914Y007893D01*
X016240Y007893D01*
X016240Y007636D02*
X015914Y007636D01*
X015914Y007743D02*
X016240Y007743D01*
X016240Y007850D02*
X015914Y007850D01*
X013237Y008214D02*
X012873Y008214D01*
X012873Y008540D01*
X013237Y008540D01*
X013237Y008214D01*
X013237Y008321D02*
X012873Y008321D01*
X012873Y008428D02*
X013237Y008428D01*
X013237Y008535D02*
X012873Y008535D01*
X012873Y008883D02*
X013237Y008883D01*
X012873Y008883D02*
X012873Y009209D01*
X013237Y009209D01*
X013237Y008883D01*
X013237Y008990D02*
X012873Y008990D01*
X012873Y009097D02*
X013237Y009097D01*
X013237Y009204D02*
X012873Y009204D01*
X011852Y007581D02*
X011852Y007217D01*
X011852Y007581D02*
X012178Y007581D01*
X012178Y007217D01*
X011852Y007217D01*
X011852Y007324D02*
X012178Y007324D01*
X012178Y007431D02*
X011852Y007431D01*
X011852Y007538D02*
X012178Y007538D01*
X011852Y006956D02*
X011852Y006592D01*
X011852Y006956D02*
X012178Y006956D01*
X012178Y006592D01*
X011852Y006592D01*
X011852Y006699D02*
X012178Y006699D01*
X012178Y006806D02*
X011852Y006806D01*
X011852Y006913D02*
X012178Y006913D01*
X011852Y006331D02*
X011852Y005967D01*
X011852Y006331D02*
X012178Y006331D01*
X012178Y005967D01*
X011852Y005967D01*
X011852Y006074D02*
X012178Y006074D01*
X012178Y006181D02*
X011852Y006181D01*
X011852Y006288D02*
X012178Y006288D01*
X011182Y006331D02*
X011182Y005967D01*
X011182Y006331D02*
X011508Y006331D01*
X011508Y005967D01*
X011182Y005967D01*
X011182Y006074D02*
X011508Y006074D01*
X011508Y006181D02*
X011182Y006181D01*
X011182Y006288D02*
X011508Y006288D01*
X011182Y006592D02*
X011182Y006956D01*
X011508Y006956D01*
X011508Y006592D01*
X011182Y006592D01*
X011182Y006699D02*
X011508Y006699D01*
X011508Y006806D02*
X011182Y006806D01*
X011182Y006913D02*
X011508Y006913D01*
X011182Y007217D02*
X011182Y007581D01*
X011508Y007581D01*
X011508Y007217D01*
X011182Y007217D01*
X011182Y007324D02*
X011508Y007324D01*
X011508Y007431D02*
X011182Y007431D01*
X011182Y007538D02*
X011508Y007538D01*
D18*
X012371Y004073D02*
X013107Y004073D01*
X013107Y002983D01*
X012371Y002983D01*
X012371Y004073D01*
X012371Y003112D02*
X013107Y003112D01*
X013107Y003241D02*
X012371Y003241D01*
X012371Y003370D02*
X013107Y003370D01*
X013107Y003499D02*
X012371Y003499D01*
X012371Y003628D02*
X013107Y003628D01*
X013107Y003757D02*
X012371Y003757D01*
X012371Y003886D02*
X013107Y003886D01*
X013107Y004015D02*
X012371Y004015D01*
X009020Y004073D02*
X008284Y004073D01*
X009020Y004073D02*
X009020Y002983D01*
X008284Y002983D01*
X008284Y004073D01*
X008284Y003112D02*
X009020Y003112D01*
X009020Y003241D02*
X008284Y003241D01*
X008284Y003370D02*
X009020Y003370D01*
X009020Y003499D02*
X008284Y003499D01*
X008284Y003628D02*
X009020Y003628D01*
X009020Y003757D02*
X008284Y003757D01*
X008284Y003886D02*
X009020Y003886D01*
X009020Y004015D02*
X008284Y004015D01*
X005576Y004073D02*
X004840Y004073D01*
X005576Y004073D02*
X005576Y002983D01*
X004840Y002983D01*
X004840Y004073D01*
X004840Y003112D02*
X005576Y003112D01*
X005576Y003241D02*
X004840Y003241D01*
X004840Y003370D02*
X005576Y003370D01*
X005576Y003499D02*
X004840Y003499D01*
X004840Y003628D02*
X005576Y003628D01*
X005576Y003757D02*
X004840Y003757D01*
X004840Y003886D02*
X005576Y003886D01*
X005576Y004015D02*
X004840Y004015D01*
X004840Y012666D02*
X005576Y012666D01*
X005576Y011576D01*
X004840Y011576D01*
X004840Y012666D01*
X004840Y011705D02*
X005576Y011705D01*
X005576Y011834D02*
X004840Y011834D01*
X004840Y011963D02*
X005576Y011963D01*
X005576Y012092D02*
X004840Y012092D01*
X004840Y012221D02*
X005576Y012221D01*
X005576Y012350D02*
X004840Y012350D01*
X004840Y012479D02*
X005576Y012479D01*
X005576Y012608D02*
X004840Y012608D01*
X008284Y012666D02*
X009020Y012666D01*
X009020Y011576D01*
X008284Y011576D01*
X008284Y012666D01*
X008284Y011705D02*
X009020Y011705D01*
X009020Y011834D02*
X008284Y011834D01*
X008284Y011963D02*
X009020Y011963D01*
X009020Y012092D02*
X008284Y012092D01*
X008284Y012221D02*
X009020Y012221D01*
X009020Y012350D02*
X008284Y012350D01*
X008284Y012479D02*
X009020Y012479D01*
X009020Y012608D02*
X008284Y012608D01*
X012371Y012666D02*
X013107Y012666D01*
X013107Y011576D01*
X012371Y011576D01*
X012371Y012666D01*
X012371Y011705D02*
X013107Y011705D01*
X013107Y011834D02*
X012371Y011834D01*
X012371Y011963D02*
X013107Y011963D01*
X013107Y012092D02*
X012371Y012092D01*
X012371Y012221D02*
X013107Y012221D01*
X013107Y012350D02*
X012371Y012350D01*
X012371Y012479D02*
X013107Y012479D01*
X013107Y012608D02*
X012371Y012608D01*
X015816Y012666D02*
X016552Y012666D01*
X016552Y011576D01*
X015816Y011576D01*
X015816Y012666D01*
X015816Y011705D02*
X016552Y011705D01*
X016552Y011834D02*
X015816Y011834D01*
X015816Y011963D02*
X016552Y011963D01*
X016552Y012092D02*
X015816Y012092D01*
X015816Y012221D02*
X016552Y012221D01*
X016552Y012350D02*
X015816Y012350D01*
X015816Y012479D02*
X016552Y012479D01*
X016552Y012608D02*
X015816Y012608D01*
X015816Y004073D02*
X016552Y004073D01*
X016552Y002983D01*
X015816Y002983D01*
X015816Y004073D01*
X015816Y003112D02*
X016552Y003112D01*
X016552Y003241D02*
X015816Y003241D01*
X015816Y003370D02*
X016552Y003370D01*
X016552Y003499D02*
X015816Y003499D01*
X015816Y003628D02*
X016552Y003628D01*
X016552Y003757D02*
X015816Y003757D01*
X015816Y003886D02*
X016552Y003886D01*
X016552Y004015D02*
X015816Y004015D01*
D19*
X015199Y003165D03*
X014707Y003165D03*
X014215Y003165D03*
X013723Y003165D03*
X007668Y003165D03*
X007176Y003165D03*
X006684Y003165D03*
X006192Y003165D03*
X006192Y011759D03*
X006684Y011759D03*
X007176Y011759D03*
X007668Y011759D03*
X013723Y011759D03*
X014215Y011759D03*
X014707Y011759D03*
X015199Y011759D03*
D20*
X014557Y009154D02*
X014557Y009016D01*
X014557Y009154D02*
X014951Y009154D01*
X014951Y009016D01*
X014557Y009016D01*
X014557Y009133D02*
X014951Y009133D01*
X014557Y008406D02*
X014557Y008268D01*
X014557Y008406D02*
X014951Y008406D01*
X014951Y008268D01*
X014557Y008268D01*
X014557Y008385D02*
X014951Y008385D01*
X013534Y008406D02*
X013534Y008268D01*
X013534Y008406D02*
X013928Y008406D01*
X013928Y008268D01*
X013534Y008268D01*
X013534Y008385D02*
X013928Y008385D01*
X013534Y008642D02*
X013534Y008780D01*
X013928Y008780D01*
X013928Y008642D01*
X013534Y008642D01*
X013534Y008759D02*
X013928Y008759D01*
X013534Y009016D02*
X013534Y009154D01*
X013928Y009154D01*
X013928Y009016D01*
X013534Y009016D01*
X013534Y009133D02*
X013928Y009133D01*
X007026Y009016D02*
X007026Y009154D01*
X007420Y009154D01*
X007420Y009016D01*
X007026Y009016D01*
X007026Y009133D02*
X007420Y009133D01*
X007026Y008406D02*
X007026Y008268D01*
X007026Y008406D02*
X007420Y008406D01*
X007420Y008268D01*
X007026Y008268D01*
X007026Y008385D02*
X007420Y008385D01*
X006002Y008406D02*
X006002Y008268D01*
X006002Y008406D02*
X006396Y008406D01*
X006396Y008268D01*
X006002Y008268D01*
X006002Y008385D02*
X006396Y008385D01*
X006002Y008642D02*
X006002Y008780D01*
X006396Y008780D01*
X006396Y008642D01*
X006002Y008642D01*
X006002Y008759D02*
X006396Y008759D01*
X006002Y009016D02*
X006002Y009154D01*
X006396Y009154D01*
X006396Y009016D01*
X006002Y009016D01*
X006002Y009133D02*
X006396Y009133D01*
X006002Y016862D02*
X006002Y017000D01*
X006396Y017000D01*
X006396Y016862D01*
X006002Y016862D01*
X006002Y016979D02*
X006396Y016979D01*
X006002Y017236D02*
X006002Y017374D01*
X006396Y017374D01*
X006396Y017236D01*
X006002Y017236D01*
X006002Y017353D02*
X006396Y017353D01*
X006002Y017610D02*
X006002Y017748D01*
X006396Y017748D01*
X006396Y017610D01*
X006002Y017610D01*
X006002Y017727D02*
X006396Y017727D01*
X007026Y017748D02*
X007026Y017610D01*
X007026Y017748D02*
X007420Y017748D01*
X007420Y017610D01*
X007026Y017610D01*
X007026Y017727D02*
X007420Y017727D01*
X007026Y017000D02*
X007026Y016862D01*
X007026Y017000D02*
X007420Y017000D01*
X007420Y016862D01*
X007026Y016862D01*
X007026Y016979D02*
X007420Y016979D01*
X013534Y017000D02*
X013534Y016862D01*
X013534Y017000D02*
X013928Y017000D01*
X013928Y016862D01*
X013534Y016862D01*
X013534Y016979D02*
X013928Y016979D01*
X013534Y017236D02*
X013534Y017374D01*
X013928Y017374D01*
X013928Y017236D01*
X013534Y017236D01*
X013534Y017353D02*
X013928Y017353D01*
X013534Y017610D02*
X013534Y017748D01*
X013928Y017748D01*
X013928Y017610D01*
X013534Y017610D01*
X013534Y017727D02*
X013928Y017727D01*
X014557Y017748D02*
X014557Y017610D01*
X014557Y017748D02*
X014951Y017748D01*
X014951Y017610D01*
X014557Y017610D01*
X014557Y017727D02*
X014951Y017727D01*
X014557Y017000D02*
X014557Y016862D01*
X014557Y017000D02*
X014951Y017000D01*
X014951Y016862D01*
X014557Y016862D01*
X014557Y016979D02*
X014951Y016979D01*
D21*
X014453Y017520D02*
X014333Y017520D01*
X014333Y017840D01*
X014453Y017840D01*
X014453Y017520D01*
X014453Y017639D02*
X014333Y017639D01*
X014333Y017758D02*
X014453Y017758D01*
X014153Y017520D02*
X014033Y017520D01*
X014033Y017840D01*
X014153Y017840D01*
X014153Y017520D01*
X014153Y017639D02*
X014033Y017639D01*
X014033Y017758D02*
X014153Y017758D01*
X006921Y017520D02*
X006801Y017520D01*
X006801Y017840D01*
X006921Y017840D01*
X006921Y017520D01*
X006921Y017639D02*
X006801Y017639D01*
X006801Y017758D02*
X006921Y017758D01*
X006621Y017520D02*
X006501Y017520D01*
X006501Y017840D01*
X006621Y017840D01*
X006621Y017520D01*
X006621Y017639D02*
X006501Y017639D01*
X006501Y017758D02*
X006621Y017758D01*
X006621Y008926D02*
X006501Y008926D01*
X006501Y009246D01*
X006621Y009246D01*
X006621Y008926D01*
X006621Y009045D02*
X006501Y009045D01*
X006501Y009164D02*
X006621Y009164D01*
X006801Y008926D02*
X006921Y008926D01*
X006801Y008926D02*
X006801Y009246D01*
X006921Y009246D01*
X006921Y008926D01*
X006921Y009045D02*
X006801Y009045D01*
X006801Y009164D02*
X006921Y009164D01*
X014033Y008926D02*
X014153Y008926D01*
X014033Y008926D02*
X014033Y009246D01*
X014153Y009246D01*
X014153Y008926D01*
X014153Y009045D02*
X014033Y009045D01*
X014033Y009164D02*
X014153Y009164D01*
X014333Y008926D02*
X014453Y008926D01*
X014333Y008926D02*
X014333Y009246D01*
X014453Y009246D01*
X014453Y008926D01*
X014453Y009045D02*
X014333Y009045D01*
X014333Y009164D02*
X014453Y009164D01*
M02*
