G75*
%MOIN*%
%OFA0B0*%
%FSLAX24Y24*%
%IPPOS*%
%LPD*%
%AMOC8*
5,1,8,0,0,1.08239X$1,22.5*
%
%ADD10C,0.0000*%
%ADD11C,0.0060*%
%ADD12C,0.0397*%
%ADD13C,0.0240*%
%ADD14C,0.0160*%
%ADD15C,0.0080*%
%ADD16C,0.0320*%
%ADD17C,0.0400*%
%ADD18C,0.0240*%
D10*
X000100Y000494D02*
X000100Y006793D01*
X000102Y006832D01*
X000108Y006870D01*
X000117Y006907D01*
X000130Y006944D01*
X000147Y006979D01*
X000166Y007012D01*
X000189Y007043D01*
X000215Y007072D01*
X000244Y007098D01*
X000275Y007121D01*
X000308Y007140D01*
X000343Y007157D01*
X000380Y007170D01*
X000417Y007179D01*
X000455Y007185D01*
X000494Y007187D01*
X005737Y007187D01*
X005776Y007185D01*
X005814Y007179D01*
X005851Y007170D01*
X005888Y007157D01*
X005923Y007140D01*
X005956Y007121D01*
X005987Y007098D01*
X006016Y007072D01*
X006042Y007043D01*
X006065Y007012D01*
X006084Y006979D01*
X006101Y006944D01*
X006114Y006907D01*
X006123Y006870D01*
X006129Y006832D01*
X006131Y006793D01*
X006131Y000494D01*
X006129Y000455D01*
X006123Y000417D01*
X006114Y000380D01*
X006101Y000343D01*
X006084Y000308D01*
X006065Y000275D01*
X006042Y000244D01*
X006016Y000215D01*
X005987Y000189D01*
X005956Y000166D01*
X005923Y000147D01*
X005888Y000130D01*
X005851Y000117D01*
X005814Y000108D01*
X005776Y000102D01*
X005737Y000100D01*
X000494Y000100D01*
X000455Y000102D01*
X000417Y000108D01*
X000380Y000117D01*
X000343Y000130D01*
X000308Y000147D01*
X000275Y000166D01*
X000244Y000189D01*
X000215Y000215D01*
X000189Y000244D01*
X000166Y000275D01*
X000147Y000308D01*
X000130Y000343D01*
X000117Y000380D01*
X000108Y000417D01*
X000102Y000455D01*
X000100Y000494D01*
X000454Y000887D02*
X000456Y000928D01*
X000462Y000969D01*
X000472Y001009D01*
X000485Y001048D01*
X000502Y001085D01*
X000523Y001121D01*
X000547Y001155D01*
X000574Y001186D01*
X000603Y001214D01*
X000636Y001240D01*
X000670Y001262D01*
X000707Y001281D01*
X000745Y001296D01*
X000785Y001308D01*
X000825Y001316D01*
X000866Y001320D01*
X000908Y001320D01*
X000949Y001316D01*
X000989Y001308D01*
X001029Y001296D01*
X001067Y001281D01*
X001103Y001262D01*
X001138Y001240D01*
X001171Y001214D01*
X001200Y001186D01*
X001227Y001155D01*
X001251Y001121D01*
X001272Y001085D01*
X001289Y001048D01*
X001302Y001009D01*
X001312Y000969D01*
X001318Y000928D01*
X001320Y000887D01*
X001318Y000846D01*
X001312Y000805D01*
X001302Y000765D01*
X001289Y000726D01*
X001272Y000689D01*
X001251Y000653D01*
X001227Y000619D01*
X001200Y000588D01*
X001171Y000560D01*
X001138Y000534D01*
X001104Y000512D01*
X001067Y000493D01*
X001029Y000478D01*
X000989Y000466D01*
X000949Y000458D01*
X000908Y000454D01*
X000866Y000454D01*
X000825Y000458D01*
X000785Y000466D01*
X000745Y000478D01*
X000707Y000493D01*
X000671Y000512D01*
X000636Y000534D01*
X000603Y000560D01*
X000574Y000588D01*
X000547Y000619D01*
X000523Y000653D01*
X000502Y000689D01*
X000485Y000726D01*
X000472Y000765D01*
X000462Y000805D01*
X000456Y000846D01*
X000454Y000887D01*
X000454Y006399D02*
X000456Y006440D01*
X000462Y006481D01*
X000472Y006521D01*
X000485Y006560D01*
X000502Y006597D01*
X000523Y006633D01*
X000547Y006667D01*
X000574Y006698D01*
X000603Y006726D01*
X000636Y006752D01*
X000670Y006774D01*
X000707Y006793D01*
X000745Y006808D01*
X000785Y006820D01*
X000825Y006828D01*
X000866Y006832D01*
X000908Y006832D01*
X000949Y006828D01*
X000989Y006820D01*
X001029Y006808D01*
X001067Y006793D01*
X001103Y006774D01*
X001138Y006752D01*
X001171Y006726D01*
X001200Y006698D01*
X001227Y006667D01*
X001251Y006633D01*
X001272Y006597D01*
X001289Y006560D01*
X001302Y006521D01*
X001312Y006481D01*
X001318Y006440D01*
X001320Y006399D01*
X001318Y006358D01*
X001312Y006317D01*
X001302Y006277D01*
X001289Y006238D01*
X001272Y006201D01*
X001251Y006165D01*
X001227Y006131D01*
X001200Y006100D01*
X001171Y006072D01*
X001138Y006046D01*
X001104Y006024D01*
X001067Y006005D01*
X001029Y005990D01*
X000989Y005978D01*
X000949Y005970D01*
X000908Y005966D01*
X000866Y005966D01*
X000825Y005970D01*
X000785Y005978D01*
X000745Y005990D01*
X000707Y006005D01*
X000671Y006024D01*
X000636Y006046D01*
X000603Y006072D01*
X000574Y006100D01*
X000547Y006131D01*
X000523Y006165D01*
X000502Y006201D01*
X000485Y006238D01*
X000472Y006277D01*
X000462Y006317D01*
X000456Y006358D01*
X000454Y006399D01*
D11*
X000230Y005563D02*
X000923Y005563D01*
X000924Y005562D01*
X000936Y005563D01*
X000947Y005563D01*
X000948Y005564D01*
X001050Y005575D01*
X001053Y005574D01*
X001063Y005576D01*
X001074Y005577D01*
X001076Y005580D01*
X001176Y005606D01*
X001178Y005605D01*
X001188Y005610D01*
X001198Y005612D01*
X001200Y005615D01*
X001294Y005657D01*
X001297Y005656D01*
X001306Y005662D01*
X001316Y005666D01*
X001317Y005669D01*
X001404Y005725D01*
X001407Y005725D01*
X001414Y005732D01*
X001423Y005738D01*
X001424Y005741D01*
X001501Y005810D01*
X001504Y005810D01*
X001511Y005819D01*
X001519Y005826D01*
X001519Y005829D01*
X001584Y005909D01*
X001587Y005910D01*
X001592Y005919D01*
X001599Y005927D01*
X001598Y005930D01*
X001650Y006019D01*
X001653Y006021D01*
X001657Y006031D01*
X001662Y006040D01*
X001661Y006043D01*
X001699Y006139D01*
X001701Y006141D01*
X001703Y006151D01*
X001707Y006161D01*
X001706Y006164D01*
X001727Y006265D01*
X001730Y006267D01*
X001730Y006277D01*
X001732Y006288D01*
X001731Y006290D01*
X001736Y006392D01*
X001737Y006392D01*
X001737Y006405D01*
X001738Y006417D01*
X001737Y006418D01*
X001897Y006418D01*
X001927Y006388D02*
X001857Y006458D01*
X001819Y006550D01*
X001819Y006650D01*
X001857Y006742D01*
X001927Y006812D01*
X002019Y006850D01*
X002118Y006850D01*
X002210Y006812D01*
X002281Y006742D01*
X002319Y006650D01*
X002319Y006647D01*
X002497Y006468D01*
X002497Y002812D01*
X002732Y002577D01*
X002783Y002577D01*
X002889Y002533D01*
X002971Y002452D01*
X003015Y002345D01*
X003015Y002230D01*
X002971Y002123D01*
X002889Y002042D01*
X002783Y001998D01*
X002667Y001998D01*
X002561Y002042D01*
X002479Y002123D01*
X002435Y002230D01*
X002435Y002281D01*
X002201Y002515D01*
X002078Y002638D01*
X002078Y006294D01*
X002022Y006350D01*
X002019Y006350D01*
X001927Y006388D01*
X001996Y006360D02*
X001735Y006360D01*
X001737Y006418D02*
X001737Y007057D01*
X005683Y007057D01*
X005737Y007057D01*
X005788Y007052D01*
X005883Y007012D01*
X005956Y006939D01*
X005995Y006844D01*
X006001Y006793D01*
X006001Y000494D01*
X005995Y000442D01*
X005956Y000347D01*
X005883Y000274D01*
X005788Y000235D01*
X005737Y000230D01*
X001730Y000230D01*
X001730Y000916D01*
X001731Y000918D01*
X001730Y000929D01*
X001730Y000941D01*
X001729Y000942D01*
X001718Y001044D01*
X001719Y001046D01*
X001717Y001057D01*
X001716Y001067D01*
X001713Y001069D01*
X001687Y001169D01*
X001688Y001172D01*
X001683Y001182D01*
X001681Y001192D01*
X001678Y001193D01*
X001636Y001288D01*
X001637Y001291D01*
X001631Y001300D01*
X001627Y001309D01*
X001624Y001310D01*
X001568Y001397D01*
X001568Y001400D01*
X001561Y001408D01*
X001555Y001417D01*
X001552Y001418D01*
X001483Y001495D01*
X001483Y001497D01*
X001474Y001504D01*
X001467Y001512D01*
X001464Y001512D01*
X001384Y001577D01*
X001383Y001580D01*
X001374Y001586D01*
X001366Y001592D01*
X001363Y001592D01*
X001274Y001644D01*
X001272Y001646D01*
X001262Y001650D01*
X001253Y001656D01*
X001250Y001655D01*
X001154Y001692D01*
X001152Y001695D01*
X001142Y001697D01*
X001132Y001701D01*
X001129Y001699D01*
X001028Y001721D01*
X001026Y001723D01*
X001016Y001724D01*
X001005Y001726D01*
X001003Y001724D01*
X000901Y001730D01*
X000901Y001731D01*
X000888Y001731D01*
X000876Y001731D01*
X000875Y001731D01*
X000230Y001731D01*
X000230Y005563D01*
X000230Y005541D02*
X002078Y005541D01*
X002078Y005599D02*
X001148Y005599D01*
X001299Y005658D02*
X002078Y005658D01*
X002078Y005716D02*
X001389Y005716D01*
X001462Y005775D02*
X002078Y005775D01*
X002078Y005833D02*
X001522Y005833D01*
X001570Y005892D02*
X002078Y005892D01*
X002078Y005950D02*
X001610Y005950D01*
X001644Y006009D02*
X002078Y006009D01*
X002078Y006067D02*
X001671Y006067D01*
X001693Y006126D02*
X002078Y006126D01*
X002078Y006184D02*
X001710Y006184D01*
X001723Y006243D02*
X002078Y006243D01*
X002071Y006301D02*
X001731Y006301D01*
X001737Y006477D02*
X001849Y006477D01*
X001825Y006535D02*
X001737Y006535D01*
X001737Y006594D02*
X001819Y006594D01*
X001820Y006652D02*
X001737Y006652D01*
X001737Y006711D02*
X001844Y006711D01*
X001884Y006769D02*
X001737Y006769D01*
X001737Y006828D02*
X001965Y006828D01*
X002173Y006828D02*
X004426Y006828D01*
X004414Y006815D02*
X004370Y006772D01*
X004370Y006499D01*
X004441Y006428D01*
X004484Y006385D01*
X004670Y006385D01*
X004724Y006439D01*
X004779Y006385D01*
X004965Y006385D01*
X004989Y006409D01*
X005013Y006385D01*
X005155Y006385D01*
X005188Y006418D01*
X005221Y006385D01*
X005407Y006385D01*
X005450Y006428D01*
X005450Y006428D01*
X005479Y006457D01*
X005492Y006470D01*
X005497Y006459D01*
X005510Y006420D01*
X005519Y006416D01*
X005523Y006407D01*
X005562Y006394D01*
X005599Y006375D01*
X005608Y006379D01*
X005617Y006375D01*
X005654Y006394D01*
X005693Y006407D01*
X005698Y006416D01*
X005706Y006420D01*
X005719Y006459D01*
X005825Y006669D01*
X005793Y006764D01*
X005704Y006808D01*
X005610Y006777D01*
X005608Y006773D01*
X005607Y006777D01*
X005512Y006808D01*
X005493Y006799D01*
X005450Y006842D01*
X005407Y006885D01*
X005221Y006885D01*
X005177Y006842D01*
X005107Y006772D01*
X005107Y006668D01*
X005078Y006668D01*
X005078Y006772D01*
X005035Y006815D01*
X004965Y006885D01*
X004779Y006885D01*
X004735Y006842D01*
X004724Y006831D01*
X004713Y006842D01*
X004670Y006885D01*
X004484Y006885D01*
X004414Y006815D01*
X004370Y006769D02*
X002253Y006769D01*
X002294Y006711D02*
X004370Y006711D01*
X004370Y006652D02*
X002318Y006652D01*
X002372Y006594D02*
X004370Y006594D01*
X004370Y006535D02*
X002431Y006535D01*
X002489Y006477D02*
X004392Y006477D01*
X004451Y006418D02*
X002497Y006418D01*
X002497Y006360D02*
X006001Y006360D01*
X006001Y006418D02*
X005703Y006418D01*
X005728Y006477D02*
X006001Y006477D01*
X006001Y006535D02*
X005757Y006535D01*
X005787Y006594D02*
X006001Y006594D01*
X006001Y006652D02*
X005816Y006652D01*
X005811Y006711D02*
X006001Y006711D01*
X006001Y006769D02*
X005782Y006769D01*
X005695Y006678D02*
X005608Y006505D01*
X005522Y006678D01*
X005400Y006722D02*
X005400Y006548D01*
X005227Y006722D01*
X005227Y006548D01*
X005270Y006505D01*
X005357Y006505D01*
X005400Y006548D01*
X005440Y006418D02*
X005514Y006418D01*
X005400Y006722D02*
X005357Y006765D01*
X005270Y006765D01*
X005227Y006722D01*
X005163Y006828D02*
X005022Y006828D01*
X005078Y006769D02*
X005107Y006769D01*
X005107Y006711D02*
X005078Y006711D01*
X005177Y006842D02*
X005177Y006842D01*
X004958Y006722D02*
X004915Y006765D01*
X004828Y006765D01*
X004785Y006722D01*
X004958Y006548D01*
X004915Y006505D01*
X004828Y006505D01*
X004785Y006548D01*
X004785Y006722D01*
X004664Y006722D02*
X004664Y006678D01*
X004620Y006635D01*
X004490Y006635D01*
X004490Y006548D02*
X004490Y006722D01*
X004534Y006765D01*
X004620Y006765D01*
X004664Y006722D01*
X004664Y006548D02*
X004620Y006505D01*
X004534Y006505D01*
X004490Y006548D01*
X004703Y006418D02*
X004746Y006418D01*
X004958Y006548D02*
X004958Y006722D01*
X005062Y006548D02*
X005062Y006505D01*
X005106Y006505D01*
X005106Y006548D01*
X005062Y006548D01*
X005450Y006842D02*
X005450Y006842D01*
X005464Y006828D02*
X005997Y006828D01*
X005978Y006886D02*
X001737Y006886D01*
X001737Y006945D02*
X005951Y006945D01*
X005892Y007003D02*
X001737Y007003D01*
X002497Y006301D02*
X006001Y006301D01*
X006001Y006243D02*
X002497Y006243D01*
X002497Y006184D02*
X006001Y006184D01*
X006001Y006126D02*
X002497Y006126D01*
X002497Y006067D02*
X006001Y006067D01*
X006001Y006009D02*
X002497Y006009D01*
X002497Y005950D02*
X006001Y005950D01*
X006001Y005892D02*
X002497Y005892D01*
X002497Y005833D02*
X006001Y005833D01*
X006001Y005775D02*
X002497Y005775D01*
X002497Y005716D02*
X006001Y005716D01*
X006001Y005658D02*
X002497Y005658D01*
X002497Y005599D02*
X006001Y005599D01*
X006001Y005541D02*
X002497Y005541D01*
X002497Y005482D02*
X006001Y005482D01*
X006001Y005424D02*
X002497Y005424D01*
X002497Y005365D02*
X006001Y005365D01*
X006001Y005307D02*
X002497Y005307D01*
X002497Y005248D02*
X006001Y005248D01*
X006001Y005190D02*
X002497Y005190D01*
X002497Y005131D02*
X006001Y005131D01*
X006001Y005073D02*
X002497Y005073D01*
X002497Y005014D02*
X006001Y005014D01*
X006001Y004956D02*
X002497Y004956D01*
X002497Y004897D02*
X006001Y004897D01*
X006001Y004839D02*
X002497Y004839D01*
X002497Y004780D02*
X004733Y004780D01*
X004763Y004810D02*
X004640Y004687D01*
X004640Y004580D01*
X003579Y003574D01*
X003577Y003574D01*
X003541Y003537D01*
X003503Y003501D01*
X003503Y003499D01*
X003501Y003498D01*
X003501Y003445D01*
X003500Y003393D01*
X003501Y003392D01*
X003501Y001892D01*
X003421Y001812D01*
X003421Y001638D01*
X003544Y001515D01*
X003718Y001515D01*
X003841Y001638D01*
X003841Y001812D01*
X003761Y001892D01*
X003761Y003388D01*
X004818Y004390D01*
X004937Y004390D01*
X005060Y004513D01*
X005060Y004687D01*
X004937Y004810D01*
X004763Y004810D01*
X004675Y004722D02*
X002497Y004722D01*
X002497Y004663D02*
X004640Y004663D01*
X004640Y004605D02*
X002497Y004605D01*
X002497Y004546D02*
X004604Y004546D01*
X004543Y004488D02*
X002497Y004488D01*
X002497Y004429D02*
X004481Y004429D01*
X004419Y004371D02*
X002497Y004371D01*
X002497Y004312D02*
X004358Y004312D01*
X004296Y004254D02*
X002497Y004254D01*
X002497Y004195D02*
X004234Y004195D01*
X004173Y004137D02*
X002497Y004137D01*
X002497Y004078D02*
X004111Y004078D01*
X004049Y004020D02*
X002497Y004020D01*
X002497Y003961D02*
X003988Y003961D01*
X003926Y003903D02*
X002497Y003903D01*
X002497Y003844D02*
X003864Y003844D01*
X003803Y003786D02*
X002497Y003786D01*
X002497Y003727D02*
X003741Y003727D01*
X003679Y003669D02*
X002497Y003669D01*
X002497Y003610D02*
X003618Y003610D01*
X003555Y003552D02*
X002497Y003552D01*
X002497Y003493D02*
X003501Y003493D01*
X003501Y003435D02*
X002497Y003435D01*
X002497Y003376D02*
X003501Y003376D01*
X003501Y003318D02*
X002497Y003318D01*
X002497Y003259D02*
X003501Y003259D01*
X003501Y003201D02*
X002497Y003201D01*
X002497Y003142D02*
X003501Y003142D01*
X003501Y003084D02*
X002497Y003084D01*
X002497Y003025D02*
X003501Y003025D01*
X003501Y002967D02*
X002497Y002967D01*
X002497Y002908D02*
X003501Y002908D01*
X003501Y002850D02*
X002497Y002850D01*
X002518Y002791D02*
X003501Y002791D01*
X003501Y002733D02*
X002577Y002733D01*
X002635Y002674D02*
X003501Y002674D01*
X003501Y002616D02*
X002694Y002616D01*
X002832Y002557D02*
X003501Y002557D01*
X003501Y002499D02*
X002924Y002499D01*
X002976Y002440D02*
X003501Y002440D01*
X003501Y002382D02*
X003000Y002382D01*
X003015Y002323D02*
X003501Y002323D01*
X003501Y002265D02*
X003015Y002265D01*
X003005Y002206D02*
X003501Y002206D01*
X003501Y002148D02*
X002981Y002148D01*
X002937Y002089D02*
X003501Y002089D01*
X003501Y002031D02*
X002862Y002031D01*
X002588Y002031D02*
X000230Y002031D01*
X000230Y002089D02*
X002513Y002089D01*
X002469Y002148D02*
X000230Y002148D01*
X000230Y002206D02*
X002445Y002206D01*
X002435Y002265D02*
X000230Y002265D01*
X000230Y002323D02*
X002393Y002323D01*
X002334Y002382D02*
X000230Y002382D01*
X000230Y002440D02*
X002276Y002440D01*
X002217Y002499D02*
X000230Y002499D01*
X000230Y002557D02*
X002159Y002557D01*
X002100Y002616D02*
X000230Y002616D01*
X000230Y002674D02*
X002078Y002674D01*
X002078Y002733D02*
X000230Y002733D01*
X000230Y002791D02*
X002078Y002791D01*
X002078Y002850D02*
X000230Y002850D01*
X000230Y002908D02*
X002078Y002908D01*
X002078Y002967D02*
X000230Y002967D01*
X000230Y003025D02*
X002078Y003025D01*
X002078Y003084D02*
X000230Y003084D01*
X000230Y003142D02*
X002078Y003142D01*
X002078Y003201D02*
X000230Y003201D01*
X000230Y003259D02*
X002078Y003259D01*
X002078Y003318D02*
X000230Y003318D01*
X000230Y003376D02*
X002078Y003376D01*
X002078Y003435D02*
X000230Y003435D01*
X000230Y003493D02*
X001285Y003493D01*
X001326Y003453D02*
X001203Y003576D01*
X001203Y003749D01*
X001243Y003789D01*
X001243Y004786D01*
X001203Y004826D01*
X001203Y004999D01*
X001326Y005122D01*
X001499Y005122D01*
X001622Y004999D01*
X001622Y004826D01*
X001582Y004786D01*
X001582Y003789D01*
X001622Y003749D01*
X001622Y003576D01*
X001499Y003453D01*
X001326Y003453D01*
X001226Y003552D02*
X000230Y003552D01*
X000230Y003610D02*
X001203Y003610D01*
X001203Y003669D02*
X000230Y003669D01*
X000230Y003727D02*
X001203Y003727D01*
X001239Y003786D02*
X000230Y003786D01*
X000230Y003844D02*
X001243Y003844D01*
X001243Y003903D02*
X000230Y003903D01*
X000230Y003961D02*
X001243Y003961D01*
X001243Y004020D02*
X000230Y004020D01*
X000230Y004078D02*
X001243Y004078D01*
X001243Y004137D02*
X000230Y004137D01*
X000230Y004195D02*
X001243Y004195D01*
X001243Y004254D02*
X000230Y004254D01*
X000230Y004312D02*
X001243Y004312D01*
X001243Y004371D02*
X000230Y004371D01*
X000230Y004429D02*
X001243Y004429D01*
X001243Y004488D02*
X000230Y004488D01*
X000230Y004546D02*
X001243Y004546D01*
X001243Y004605D02*
X000230Y004605D01*
X000230Y004663D02*
X001243Y004663D01*
X001243Y004722D02*
X000230Y004722D01*
X000230Y004780D02*
X001243Y004780D01*
X001203Y004839D02*
X000230Y004839D01*
X000230Y004897D02*
X001203Y004897D01*
X001203Y004956D02*
X000230Y004956D01*
X000230Y005014D02*
X001217Y005014D01*
X001276Y005073D02*
X000230Y005073D01*
X000230Y005131D02*
X002078Y005131D01*
X002078Y005073D02*
X001549Y005073D01*
X001608Y005014D02*
X002078Y005014D01*
X002078Y004956D02*
X001622Y004956D01*
X001622Y004897D02*
X002078Y004897D01*
X002078Y004839D02*
X001622Y004839D01*
X001582Y004780D02*
X002078Y004780D01*
X002078Y004722D02*
X001582Y004722D01*
X001582Y004663D02*
X002078Y004663D01*
X002078Y004605D02*
X001582Y004605D01*
X001582Y004546D02*
X002078Y004546D01*
X002078Y004488D02*
X001582Y004488D01*
X001582Y004429D02*
X002078Y004429D01*
X002078Y004371D02*
X001582Y004371D01*
X001582Y004312D02*
X002078Y004312D01*
X002078Y004254D02*
X001582Y004254D01*
X001582Y004195D02*
X002078Y004195D01*
X002078Y004137D02*
X001582Y004137D01*
X001582Y004078D02*
X002078Y004078D01*
X002078Y004020D02*
X001582Y004020D01*
X001582Y003961D02*
X002078Y003961D01*
X002078Y003903D02*
X001582Y003903D01*
X001582Y003844D02*
X002078Y003844D01*
X002078Y003786D02*
X001586Y003786D01*
X001622Y003727D02*
X002078Y003727D01*
X002078Y003669D02*
X001622Y003669D01*
X001622Y003610D02*
X002078Y003610D01*
X002078Y003552D02*
X001598Y003552D01*
X001540Y003493D02*
X002078Y003493D01*
X003464Y001855D02*
X000230Y001855D01*
X000230Y001797D02*
X003421Y001797D01*
X003421Y001738D02*
X000230Y001738D01*
X000230Y001914D02*
X003501Y001914D01*
X003501Y001972D02*
X000230Y001972D01*
X001187Y001680D02*
X003421Y001680D01*
X003438Y001621D02*
X001313Y001621D01*
X001403Y001563D02*
X003497Y001563D01*
X003766Y001563D02*
X003997Y001563D01*
X004044Y001515D02*
X004218Y001515D01*
X004341Y001638D01*
X004341Y001812D01*
X004261Y001892D01*
X004261Y003261D01*
X004813Y003765D01*
X004937Y003765D01*
X005060Y003888D01*
X005060Y004062D01*
X004937Y004185D01*
X004763Y004185D01*
X004640Y004062D01*
X004640Y003959D01*
X004081Y003449D01*
X004077Y003449D01*
X004041Y003413D01*
X004004Y003378D01*
X004004Y003375D01*
X004001Y003373D01*
X004001Y003322D01*
X003999Y003271D01*
X004001Y003268D01*
X004001Y001892D01*
X003921Y001812D01*
X003921Y001638D01*
X004044Y001515D01*
X003938Y001621D02*
X003824Y001621D01*
X003841Y001680D02*
X003921Y001680D01*
X003921Y001738D02*
X003841Y001738D01*
X003841Y001797D02*
X003921Y001797D01*
X003964Y001855D02*
X003798Y001855D01*
X003761Y001914D02*
X004001Y001914D01*
X004001Y001972D02*
X003761Y001972D01*
X003761Y002031D02*
X004001Y002031D01*
X004001Y002089D02*
X003761Y002089D01*
X003761Y002148D02*
X004001Y002148D01*
X004001Y002206D02*
X003761Y002206D01*
X003761Y002265D02*
X004001Y002265D01*
X004001Y002323D02*
X003761Y002323D01*
X003761Y002382D02*
X004001Y002382D01*
X004001Y002440D02*
X003761Y002440D01*
X003761Y002499D02*
X004001Y002499D01*
X004001Y002557D02*
X003761Y002557D01*
X003761Y002616D02*
X004001Y002616D01*
X004001Y002674D02*
X003761Y002674D01*
X003761Y002733D02*
X004001Y002733D01*
X004001Y002791D02*
X003761Y002791D01*
X003761Y002850D02*
X004001Y002850D01*
X004001Y002908D02*
X003761Y002908D01*
X003761Y002967D02*
X004001Y002967D01*
X004001Y003025D02*
X003761Y003025D01*
X003761Y003084D02*
X004001Y003084D01*
X004001Y003142D02*
X003761Y003142D01*
X003761Y003201D02*
X004001Y003201D01*
X004001Y003259D02*
X003761Y003259D01*
X003761Y003318D02*
X004001Y003318D01*
X004004Y003376D02*
X003761Y003376D01*
X003810Y003435D02*
X004063Y003435D01*
X004129Y003493D02*
X003872Y003493D01*
X003934Y003552D02*
X004193Y003552D01*
X004257Y003610D02*
X003995Y003610D01*
X004057Y003669D02*
X004322Y003669D01*
X004386Y003727D02*
X004119Y003727D01*
X004180Y003786D02*
X004450Y003786D01*
X004514Y003844D02*
X004242Y003844D01*
X004304Y003903D02*
X004578Y003903D01*
X004640Y003961D02*
X004365Y003961D01*
X004427Y004020D02*
X004640Y004020D01*
X004656Y004078D02*
X004489Y004078D01*
X004550Y004137D02*
X004715Y004137D01*
X004674Y004254D02*
X006001Y004254D01*
X006001Y004312D02*
X004735Y004312D01*
X004797Y004371D02*
X006001Y004371D01*
X006001Y004429D02*
X004976Y004429D01*
X005035Y004488D02*
X006001Y004488D01*
X006001Y004546D02*
X005060Y004546D01*
X005060Y004605D02*
X006001Y004605D01*
X006001Y004663D02*
X005060Y004663D01*
X005025Y004722D02*
X006001Y004722D01*
X006001Y004780D02*
X004967Y004780D01*
X004985Y004137D02*
X006001Y004137D01*
X006001Y004195D02*
X004612Y004195D01*
X004771Y003727D02*
X006001Y003727D01*
X006001Y003669D02*
X004707Y003669D01*
X004643Y003610D02*
X006001Y003610D01*
X006001Y003552D02*
X004579Y003552D01*
X004515Y003493D02*
X006001Y003493D01*
X006001Y003435D02*
X004451Y003435D01*
X004387Y003376D02*
X006001Y003376D01*
X006001Y003318D02*
X004323Y003318D01*
X004261Y003259D02*
X006001Y003259D01*
X006001Y003201D02*
X004261Y003201D01*
X004261Y003142D02*
X006001Y003142D01*
X006001Y003084D02*
X004261Y003084D01*
X004261Y003025D02*
X006001Y003025D01*
X006001Y002967D02*
X004261Y002967D01*
X004261Y002908D02*
X006001Y002908D01*
X006001Y002850D02*
X004261Y002850D01*
X004261Y002791D02*
X006001Y002791D01*
X006001Y002733D02*
X004261Y002733D01*
X004261Y002674D02*
X006001Y002674D01*
X006001Y002616D02*
X004261Y002616D01*
X004261Y002557D02*
X006001Y002557D01*
X006001Y002499D02*
X004261Y002499D01*
X004261Y002440D02*
X006001Y002440D01*
X006001Y002382D02*
X004261Y002382D01*
X004261Y002323D02*
X006001Y002323D01*
X006001Y002265D02*
X004261Y002265D01*
X004261Y002206D02*
X006001Y002206D01*
X006001Y002148D02*
X004261Y002148D01*
X004261Y002089D02*
X006001Y002089D01*
X006001Y002031D02*
X004261Y002031D01*
X004261Y001972D02*
X006001Y001972D01*
X006001Y001914D02*
X004261Y001914D01*
X004298Y001855D02*
X006001Y001855D01*
X006001Y001797D02*
X004341Y001797D01*
X004341Y001738D02*
X006001Y001738D01*
X006001Y001680D02*
X004341Y001680D01*
X004324Y001621D02*
X006001Y001621D01*
X006001Y001563D02*
X004266Y001563D01*
X004185Y000968D02*
X004070Y000968D01*
X003964Y000924D01*
X003883Y000842D01*
X003881Y000839D01*
X003880Y000842D01*
X003799Y000924D01*
X003693Y000968D01*
X003578Y000968D01*
X003472Y000924D01*
X003391Y000842D01*
X003389Y000839D01*
X003388Y000842D01*
X003306Y000924D01*
X003200Y000968D01*
X003086Y000968D01*
X002980Y000924D01*
X002899Y000842D01*
X002855Y000736D01*
X002855Y000622D01*
X002899Y000516D01*
X002980Y000435D01*
X003086Y000391D01*
X003200Y000391D01*
X003306Y000435D01*
X003388Y000516D01*
X003389Y000519D01*
X003391Y000516D01*
X003472Y000435D01*
X003578Y000391D01*
X003693Y000391D01*
X003799Y000435D01*
X003880Y000516D01*
X003881Y000519D01*
X003883Y000516D01*
X003964Y000435D01*
X004070Y000391D01*
X004185Y000391D01*
X004291Y000435D01*
X004372Y000516D01*
X004376Y000525D01*
X004395Y000495D01*
X004436Y000455D01*
X004483Y000423D01*
X004535Y000402D01*
X004591Y000391D01*
X004600Y000391D01*
X004600Y000660D01*
X004639Y000660D01*
X004639Y000698D01*
X004908Y000698D01*
X004908Y000707D01*
X004897Y000763D01*
X004875Y000816D01*
X004843Y000863D01*
X004803Y000903D01*
X004756Y000935D01*
X004704Y000956D01*
X004648Y000968D01*
X004639Y000968D01*
X004639Y000698D01*
X004600Y000698D01*
X004600Y000968D01*
X004591Y000968D01*
X004535Y000956D01*
X004483Y000935D01*
X004436Y000903D01*
X004395Y000863D01*
X004376Y000833D01*
X004372Y000842D01*
X004291Y000924D01*
X004185Y000968D01*
X004295Y000919D02*
X004459Y000919D01*
X004394Y000861D02*
X004354Y000861D01*
X004600Y000861D02*
X004639Y000861D01*
X004639Y000919D02*
X004600Y000919D01*
X004600Y000802D02*
X004639Y000802D01*
X004639Y000744D02*
X004600Y000744D01*
X004639Y000685D02*
X006001Y000685D01*
X006001Y000627D02*
X004903Y000627D01*
X004908Y000651D02*
X004908Y000660D01*
X004639Y000660D01*
X004639Y000391D01*
X004648Y000391D01*
X004704Y000402D01*
X004756Y000423D01*
X004803Y000455D01*
X004843Y000495D01*
X004875Y000542D01*
X004897Y000595D01*
X004908Y000651D01*
X004886Y000568D02*
X006001Y000568D01*
X006001Y000510D02*
X004853Y000510D01*
X004797Y000451D02*
X005996Y000451D01*
X005975Y000393D02*
X004657Y000393D01*
X004639Y000393D02*
X004600Y000393D01*
X004582Y000393D02*
X004189Y000393D01*
X004065Y000393D02*
X003697Y000393D01*
X003573Y000393D02*
X003205Y000393D01*
X003081Y000393D02*
X001730Y000393D01*
X001730Y000451D02*
X002963Y000451D01*
X002905Y000510D02*
X001730Y000510D01*
X001730Y000568D02*
X002877Y000568D01*
X002855Y000627D02*
X001730Y000627D01*
X001730Y000685D02*
X002855Y000685D01*
X002858Y000744D02*
X001730Y000744D01*
X001730Y000802D02*
X002882Y000802D01*
X002917Y000861D02*
X001730Y000861D01*
X001731Y000919D02*
X002975Y000919D01*
X003311Y000919D02*
X003467Y000919D01*
X003409Y000861D02*
X003370Y000861D01*
X003381Y000510D02*
X003397Y000510D01*
X003455Y000451D02*
X003323Y000451D01*
X003815Y000451D02*
X003948Y000451D01*
X003889Y000510D02*
X003873Y000510D01*
X003862Y000861D02*
X003901Y000861D01*
X003959Y000919D02*
X003803Y000919D01*
X004307Y000451D02*
X004442Y000451D01*
X004386Y000510D02*
X004366Y000510D01*
X004600Y000510D02*
X004639Y000510D01*
X004639Y000568D02*
X004600Y000568D01*
X004600Y000627D02*
X004639Y000627D01*
X004639Y000451D02*
X004600Y000451D01*
X004901Y000744D02*
X006001Y000744D01*
X006001Y000802D02*
X004881Y000802D01*
X004845Y000861D02*
X006001Y000861D01*
X006001Y000919D02*
X004780Y000919D01*
X005884Y000276D02*
X001730Y000276D01*
X001730Y000334D02*
X005943Y000334D01*
X006001Y000978D02*
X001725Y000978D01*
X001719Y001036D02*
X006001Y001036D01*
X006001Y001095D02*
X001707Y001095D01*
X001691Y001153D02*
X006001Y001153D01*
X006001Y001212D02*
X001670Y001212D01*
X001644Y001270D02*
X006001Y001270D01*
X006001Y001329D02*
X001612Y001329D01*
X001574Y001387D02*
X006001Y001387D01*
X006001Y001446D02*
X001527Y001446D01*
X001475Y001504D02*
X006001Y001504D01*
X006001Y003786D02*
X004958Y003786D01*
X005016Y003844D02*
X006001Y003844D01*
X006001Y003903D02*
X005060Y003903D01*
X005060Y003961D02*
X006001Y003961D01*
X006001Y004020D02*
X005060Y004020D01*
X005044Y004078D02*
X006001Y004078D01*
X002078Y005190D02*
X000230Y005190D01*
X000230Y005248D02*
X002078Y005248D01*
X002078Y005307D02*
X000230Y005307D01*
X000230Y005365D02*
X002078Y005365D01*
X002078Y005424D02*
X000230Y005424D01*
X000230Y005482D02*
X002078Y005482D01*
D12*
X003143Y000679D03*
X003635Y000679D03*
X004127Y000679D03*
X004619Y000679D03*
D13*
X004631Y001163D03*
X004631Y001538D03*
X004131Y001725D03*
X003631Y001725D03*
X003881Y001163D03*
X003350Y001163D03*
X001413Y002413D03*
X001413Y002913D03*
X001413Y003663D03*
X001413Y004913D03*
X001913Y006225D03*
X002819Y004538D03*
X003194Y003756D03*
X003569Y004538D03*
X004100Y005069D03*
X004850Y004600D03*
X004850Y003975D03*
X005225Y006225D03*
X004100Y006225D03*
D14*
X001413Y004913D02*
X001413Y003663D01*
D15*
X003631Y003444D02*
X003631Y001725D01*
X004131Y001725D02*
X004131Y003319D01*
X004850Y003975D01*
X004850Y004600D02*
X003631Y003444D01*
D16*
X002069Y006600D03*
D17*
X002725Y002288D03*
D18*
X002288Y002725D01*
X002288Y006381D01*
X002069Y006600D01*
M02*
