G75*
%MOIN*%
%OFA0B0*%
%FSLAX24Y24*%
%IPPOS*%
%LPD*%
%AMOC8*
5,1,8,0,0,1.08239X$1,22.5*
%
%ADD10C,0.0000*%
%ADD11C,0.0060*%
%ADD12C,0.0160*%
%ADD13C,0.0070*%
%ADD14R,0.0098X0.0098*%
%ADD15C,0.0080*%
%ADD16C,0.0050*%
%ADD17C,0.0100*%
D10*
X002723Y003381D02*
X007466Y003381D01*
X007466Y003380D02*
X007505Y003382D01*
X007543Y003388D01*
X007580Y003397D01*
X007617Y003410D01*
X007652Y003427D01*
X007685Y003446D01*
X007716Y003469D01*
X007745Y003495D01*
X007771Y003524D01*
X007794Y003555D01*
X007813Y003588D01*
X007830Y003623D01*
X007843Y003660D01*
X007852Y003697D01*
X007858Y003735D01*
X007860Y003774D01*
X007860Y011074D01*
X007858Y011113D01*
X007852Y011151D01*
X007843Y011188D01*
X007830Y011225D01*
X007813Y011260D01*
X007794Y011293D01*
X007771Y011324D01*
X007745Y011353D01*
X007716Y011379D01*
X007685Y011402D01*
X007652Y011421D01*
X007617Y011438D01*
X007580Y011451D01*
X007543Y011460D01*
X007505Y011466D01*
X007466Y011468D01*
X007466Y011467D02*
X002723Y011467D01*
X002723Y011468D02*
X002684Y011466D01*
X002646Y011460D01*
X002609Y011451D01*
X002572Y011438D01*
X002537Y011421D01*
X002504Y011402D01*
X002473Y011379D01*
X002444Y011353D01*
X002418Y011324D01*
X002395Y011293D01*
X002376Y011260D01*
X002359Y011225D01*
X002346Y011188D01*
X002337Y011151D01*
X002331Y011113D01*
X002329Y011074D01*
X002329Y003774D01*
X002331Y003735D01*
X002337Y003697D01*
X002346Y003660D01*
X002359Y003623D01*
X002376Y003588D01*
X002395Y003555D01*
X002418Y003524D01*
X002444Y003495D01*
X002473Y003469D01*
X002504Y003446D01*
X002537Y003427D01*
X002572Y003410D01*
X002609Y003397D01*
X002646Y003388D01*
X002684Y003382D01*
X002723Y003380D01*
D11*
X003642Y004662D02*
X004142Y004662D01*
X004142Y004756D01*
X003642Y004756D01*
X003642Y004662D01*
X006803Y005499D02*
X006859Y005442D01*
X007086Y005442D01*
X007143Y005499D01*
X007143Y005612D01*
X007086Y005669D01*
X006973Y005669D01*
X006973Y005555D01*
X006859Y005669D02*
X006803Y005612D01*
X006803Y005499D01*
X006803Y005810D02*
X007143Y006037D01*
X006803Y006037D01*
X006803Y006179D02*
X006803Y006349D01*
X006859Y006405D01*
X007086Y006405D01*
X007143Y006349D01*
X007143Y006179D01*
X006803Y006179D01*
X006803Y005810D02*
X007143Y005810D01*
D12*
X003767Y008974D02*
X003579Y009412D01*
X003392Y008974D01*
X003767Y008974D01*
X003579Y009412D02*
X003579Y008506D01*
D13*
X003887Y008684D02*
X004141Y009065D01*
X003887Y009065D02*
X004141Y008684D01*
D14*
X003128Y011006D03*
X003204Y004081D03*
D15*
X004367Y006262D02*
X004603Y006262D01*
X004367Y006262D02*
X004367Y006498D01*
X003702Y006399D02*
X003702Y006737D01*
X003247Y006887D02*
X003036Y006887D01*
X004367Y008388D02*
X004367Y008624D01*
X004603Y008624D01*
X004055Y009406D02*
X003917Y009544D01*
X003917Y010843D02*
X003917Y010981D01*
X004055Y010981D01*
X005354Y010981D02*
X005492Y010981D01*
X005492Y010843D01*
X005492Y009544D02*
X005492Y009406D01*
X005354Y009406D01*
X006493Y008624D02*
X006729Y008388D01*
X006948Y008797D02*
X007460Y008797D01*
X007460Y010214D02*
X006948Y010214D01*
X006729Y006498D02*
X006729Y006262D01*
X006493Y006262D01*
D16*
X006642Y008624D02*
X006644Y008642D01*
X006650Y008659D01*
X006659Y008675D01*
X006671Y008689D01*
X006685Y008699D01*
X006702Y008707D01*
X006720Y008711D01*
X006738Y008711D01*
X006756Y008707D01*
X006772Y008699D01*
X006787Y008689D01*
X006799Y008675D01*
X006808Y008659D01*
X006814Y008642D01*
X006816Y008624D01*
X006814Y008606D01*
X006808Y008589D01*
X006799Y008573D01*
X006787Y008559D01*
X006773Y008549D01*
X006756Y008541D01*
X006738Y008537D01*
X006720Y008537D01*
X006702Y008541D01*
X006686Y008549D01*
X006671Y008559D01*
X006659Y008573D01*
X006650Y008589D01*
X006644Y008606D01*
X006642Y008624D01*
D17*
X006751Y005311D02*
X006898Y005311D01*
X006898Y004515D01*
X006357Y003738D02*
X005176Y003738D01*
X004636Y004515D02*
X004636Y005311D01*
X004782Y005311D01*
M02*
