G75*
%MOIN*%
%OFA0B0*%
%FSLAX24Y24*%
%IPPOS*%
%LPD*%
%AMOC8*
5,1,8,0,0,1.08239X$1,22.5*
%
%ADD10C,0.0000*%
%ADD11C,0.0080*%
%ADD12C,0.0030*%
%ADD13C,0.0110*%
D10*
X002723Y003381D02*
X007466Y003381D01*
X007466Y003380D02*
X007505Y003382D01*
X007543Y003388D01*
X007580Y003397D01*
X007617Y003410D01*
X007652Y003427D01*
X007685Y003446D01*
X007716Y003469D01*
X007745Y003495D01*
X007771Y003524D01*
X007794Y003555D01*
X007813Y003588D01*
X007830Y003623D01*
X007843Y003660D01*
X007852Y003697D01*
X007858Y003735D01*
X007860Y003774D01*
X007860Y011074D01*
X007858Y011113D01*
X007852Y011151D01*
X007843Y011188D01*
X007830Y011225D01*
X007813Y011260D01*
X007794Y011293D01*
X007771Y011324D01*
X007745Y011353D01*
X007716Y011379D01*
X007685Y011402D01*
X007652Y011421D01*
X007617Y011438D01*
X007580Y011451D01*
X007543Y011460D01*
X007505Y011466D01*
X007466Y011468D01*
X007466Y011467D02*
X002723Y011467D01*
X002723Y011468D02*
X002684Y011466D01*
X002646Y011460D01*
X002609Y011451D01*
X002572Y011438D01*
X002537Y011421D01*
X002504Y011402D01*
X002473Y011379D01*
X002444Y011353D01*
X002418Y011324D01*
X002395Y011293D01*
X002376Y011260D01*
X002359Y011225D01*
X002346Y011188D01*
X002337Y011151D01*
X002331Y011113D01*
X002329Y011074D01*
X002329Y003774D01*
X002331Y003735D01*
X002337Y003697D01*
X002346Y003660D01*
X002359Y003623D01*
X002376Y003588D01*
X002395Y003555D01*
X002418Y003524D01*
X002444Y003495D01*
X002473Y003469D01*
X002504Y003446D01*
X002537Y003427D01*
X002572Y003410D01*
X002609Y003397D01*
X002646Y003388D01*
X002684Y003382D01*
X002723Y003380D01*
D11*
X004525Y003967D02*
X004666Y004107D01*
X004946Y004107D01*
X004876Y004287D02*
X004595Y004287D01*
X004525Y004357D01*
X004525Y004497D01*
X004595Y004568D01*
X004595Y004748D02*
X004525Y004818D01*
X004525Y004958D01*
X004595Y005028D01*
X004595Y004748D02*
X004876Y004748D01*
X004946Y004818D01*
X004946Y004958D01*
X004876Y005028D01*
X004876Y004568D02*
X004946Y004497D01*
X004946Y004357D01*
X004876Y004287D01*
X004525Y003967D02*
X004666Y003827D01*
X004946Y003827D01*
X005213Y003827D02*
X005633Y003827D01*
X005633Y004037D01*
X005563Y004107D01*
X005423Y004107D01*
X005353Y004037D01*
X005353Y003827D01*
X005353Y003967D02*
X005213Y004107D01*
X005213Y004287D02*
X005633Y004568D01*
X005633Y004287D02*
X005213Y004568D01*
X005900Y004568D02*
X006321Y004287D01*
X006321Y004107D02*
X006321Y003827D01*
X006321Y003967D02*
X005900Y003967D01*
X005900Y004287D02*
X006321Y004568D01*
X006588Y004568D02*
X007008Y004568D01*
X007008Y004748D02*
X007008Y004958D01*
X006938Y005028D01*
X006658Y005028D01*
X006588Y004958D01*
X006588Y004748D01*
X007008Y004748D01*
X006588Y004568D02*
X007008Y004287D01*
X006588Y004287D01*
X006658Y004107D02*
X006588Y004037D01*
X006588Y003897D01*
X006658Y003827D01*
X006938Y003827D01*
X007008Y003897D01*
X007008Y004037D01*
X006938Y004107D01*
X006798Y004107D02*
X006798Y003967D01*
X006798Y004107D02*
X006658Y004107D01*
X002899Y006754D02*
X002689Y006754D01*
X002619Y006824D01*
X002689Y006894D01*
X002619Y006964D01*
X002689Y007034D01*
X002899Y007034D01*
X002899Y007215D02*
X002689Y007215D01*
X002619Y007285D01*
X002689Y007355D01*
X002619Y007425D01*
X002689Y007495D01*
X002899Y007495D01*
X002899Y007675D02*
X002689Y007675D01*
X002619Y007745D01*
X002689Y007815D01*
X002619Y007885D01*
X002689Y007955D01*
X002899Y007955D01*
X002689Y008135D02*
X002689Y008205D01*
X002619Y008205D01*
X002619Y008135D01*
X002689Y008135D01*
X002689Y008366D02*
X002619Y008436D01*
X002619Y008576D01*
X002689Y008646D01*
X002829Y008646D01*
X002899Y008576D01*
X002899Y008436D01*
X002829Y008366D01*
X002689Y008366D01*
X002619Y008826D02*
X002619Y008966D01*
X002619Y008896D02*
X003040Y008896D01*
X003040Y008826D01*
X003040Y009133D02*
X003040Y009203D01*
X002619Y009203D01*
X002619Y009133D02*
X002619Y009273D01*
X002619Y009440D02*
X002619Y009580D01*
X002619Y009510D02*
X002899Y009510D01*
X002899Y009440D01*
X003040Y009510D02*
X003110Y009510D01*
X002899Y009747D02*
X002689Y009747D01*
X002619Y009817D01*
X002689Y009887D01*
X002619Y009957D01*
X002689Y010027D01*
X002899Y010027D01*
X002689Y010207D02*
X002689Y010277D01*
X002619Y010277D01*
X002619Y010207D01*
X002689Y010207D01*
X002689Y010437D02*
X002829Y010437D01*
X002899Y010507D01*
X002899Y010648D01*
X002829Y010718D01*
X002759Y010718D01*
X002759Y010437D01*
X002689Y010437D02*
X002619Y010507D01*
X002619Y010648D01*
X002689Y010898D02*
X002619Y010968D01*
X002619Y011178D01*
X002899Y011178D01*
X002899Y010898D02*
X002689Y010898D01*
D12*
X004423Y005287D02*
X007110Y005287D01*
X007130Y005285D01*
X007149Y005281D01*
X007167Y005273D01*
X007183Y005263D01*
X007198Y005250D01*
X007211Y005235D01*
X007221Y005219D01*
X007229Y005201D01*
X007233Y005182D01*
X007235Y005162D01*
X007235Y003662D01*
X007233Y003642D01*
X007229Y003623D01*
X007221Y003605D01*
X007211Y003589D01*
X007198Y003574D01*
X007183Y003561D01*
X007167Y003551D01*
X007149Y003543D01*
X007130Y003539D01*
X007110Y003537D01*
X004423Y003537D01*
X004403Y003539D01*
X004384Y003543D01*
X004366Y003551D01*
X004350Y003561D01*
X004335Y003574D01*
X004322Y003589D01*
X004312Y003605D01*
X004304Y003623D01*
X004300Y003642D01*
X004298Y003662D01*
X004298Y005162D01*
X004300Y005182D01*
X004304Y005201D01*
X004312Y005219D01*
X004322Y005235D01*
X004335Y005250D01*
X004350Y005263D01*
X004366Y005273D01*
X004384Y005281D01*
X004403Y005285D01*
X004423Y005287D01*
D13*
X004305Y007373D02*
X004154Y007373D01*
X004079Y007448D01*
X004079Y007523D01*
X004154Y007598D01*
X004305Y007598D01*
X004380Y007673D01*
X004380Y007748D01*
X004305Y007824D01*
X004154Y007824D01*
X004079Y007748D01*
X004079Y007673D01*
X004154Y007598D01*
X004305Y007598D02*
X004380Y007523D01*
X004380Y007448D01*
X004305Y007373D01*
X004595Y007448D02*
X004670Y007373D01*
X004820Y007373D01*
X004895Y007448D01*
X004595Y007748D01*
X004595Y007448D01*
X004895Y007448D02*
X004895Y007748D01*
X004820Y007824D01*
X004670Y007824D01*
X004595Y007748D01*
X004541Y008213D02*
X004691Y008213D01*
X004766Y008288D01*
X004466Y008588D01*
X004466Y008288D01*
X004541Y008213D01*
X004766Y008288D02*
X004766Y008588D01*
X004691Y008664D01*
X004541Y008664D01*
X004466Y008588D01*
X004251Y008588D02*
X004251Y008288D01*
X003950Y008588D01*
X003950Y008288D01*
X004026Y008213D01*
X004176Y008213D01*
X004251Y008288D01*
X004251Y008588D02*
X004176Y008664D01*
X004026Y008664D01*
X003950Y008588D01*
X003735Y008588D02*
X003735Y008288D01*
X003435Y008588D01*
X003435Y008288D01*
X003510Y008213D01*
X003660Y008213D01*
X003735Y008288D01*
X003735Y008588D02*
X003660Y008664D01*
X003510Y008664D01*
X003435Y008588D01*
X004358Y009053D02*
X004509Y009053D01*
X004433Y009053D02*
X004433Y009353D01*
X004509Y009353D01*
X004433Y009504D02*
X004433Y009579D01*
X004423Y009893D02*
X004272Y009893D01*
X004348Y009893D02*
X004348Y010344D01*
X004423Y010344D01*
X004638Y010193D02*
X004638Y009893D01*
X004863Y009893D01*
X004938Y009968D01*
X004938Y010193D01*
X005154Y010193D02*
X005379Y010193D01*
X005454Y010118D01*
X005454Y009968D01*
X005379Y009893D01*
X005154Y009893D01*
X005154Y010344D01*
X004938Y010733D02*
X004788Y010733D01*
X004863Y010733D02*
X004863Y011184D01*
X004938Y011184D02*
X004788Y011184D01*
X004594Y011184D02*
X004444Y011033D01*
X004294Y011184D01*
X004294Y010733D01*
X004079Y010808D02*
X004004Y010733D01*
X003854Y010733D01*
X003779Y010808D01*
X003779Y011184D01*
X004079Y011184D02*
X004079Y010808D01*
X004594Y010733D02*
X004594Y011184D01*
X004004Y010193D02*
X003854Y010193D01*
X003779Y010118D01*
X003779Y010043D01*
X004079Y010043D01*
X004079Y009968D02*
X004079Y010118D01*
X004004Y010193D01*
X004079Y009968D02*
X004004Y009893D01*
X003854Y009893D01*
X004724Y009278D02*
X004724Y009053D01*
X004724Y009278D02*
X004799Y009353D01*
X005024Y009353D01*
X005024Y009053D01*
X005218Y009053D02*
X005368Y009053D01*
X005293Y009053D02*
X005293Y009353D01*
X005368Y009353D01*
X005293Y009504D02*
X005293Y009579D01*
X005583Y009278D02*
X005583Y009053D01*
X005733Y009053D02*
X005733Y009278D01*
X005658Y009353D01*
X005583Y009278D01*
X005733Y009278D02*
X005809Y009353D01*
X005884Y009353D01*
X005884Y009053D01*
X005798Y008513D02*
X005798Y008288D01*
X005723Y008213D01*
X005497Y008213D01*
X005497Y008513D01*
X005282Y008438D02*
X005282Y008288D01*
X005207Y008213D01*
X005057Y008213D01*
X004982Y008288D01*
X004982Y008363D01*
X005057Y008438D01*
X005282Y008438D01*
X005132Y008588D01*
X004982Y008664D01*
X005444Y007824D02*
X005368Y007748D01*
X005669Y007448D01*
X005594Y007373D01*
X005444Y007373D01*
X005368Y007448D01*
X005368Y007748D01*
X005444Y007824D02*
X005594Y007824D01*
X005669Y007748D01*
X005669Y007448D01*
X005884Y007673D02*
X006034Y007373D01*
X006184Y007673D01*
X006313Y008063D02*
X006313Y008513D01*
X006088Y008513D01*
X006013Y008438D01*
X006013Y008288D01*
X006088Y008213D01*
X006313Y008213D01*
X006529Y008213D02*
X006529Y008438D01*
X006604Y008513D01*
X006679Y008438D01*
X006679Y008213D01*
X006829Y008213D02*
X006829Y008513D01*
X006754Y008513D01*
X006679Y008438D01*
X006485Y009893D02*
X006485Y010193D01*
X006410Y010193D01*
X006335Y010118D01*
X006260Y010193D01*
X006185Y010118D01*
X006185Y009893D01*
X006335Y009893D02*
X006335Y010118D01*
X005970Y010118D02*
X005970Y009968D01*
X005894Y009893D01*
X005744Y009893D01*
X005669Y009968D01*
X005669Y010118D01*
X005744Y010193D01*
X005894Y010193D01*
X005970Y010118D01*
X005819Y010733D02*
X005819Y011184D01*
X005669Y011184D02*
X005970Y011184D01*
X006185Y011184D02*
X006185Y010733D01*
X006485Y011184D01*
X006485Y010733D01*
X005153Y007448D02*
X005078Y007448D01*
X005078Y007373D01*
X005153Y007373D01*
X005153Y007448D01*
M02*
