G75*
%MOIN*%
%OFA0B0*%
%FSLAX24Y24*%
%IPPOS*%
%LPD*%
%AMOC8*
5,1,8,0,0,1.08239X$1,22.5*
%
%ADD10C,0.0000*%
%ADD11C,0.0060*%
%ADD12C,0.0099*%
%ADD13C,0.0101*%
%ADD14C,0.0100*%
%ADD15R,0.0394X0.0394*%
%ADD16C,0.0100*%
%ADD17C,0.0098*%
%ADD18C,0.0100*%
%ADD19C,0.0100*%
%ADD20C,0.0240*%
%ADD21C,0.0120*%
%ADD22C,0.0140*%
%ADD23C,0.0160*%
D10*
X002723Y003381D02*
X007466Y003381D01*
X007466Y003380D02*
X007505Y003382D01*
X007543Y003388D01*
X007580Y003397D01*
X007617Y003410D01*
X007652Y003427D01*
X007685Y003446D01*
X007716Y003469D01*
X007745Y003495D01*
X007771Y003524D01*
X007794Y003555D01*
X007813Y003588D01*
X007830Y003623D01*
X007843Y003660D01*
X007852Y003697D01*
X007858Y003735D01*
X007860Y003774D01*
X007860Y011074D01*
X007858Y011113D01*
X007852Y011151D01*
X007843Y011188D01*
X007830Y011225D01*
X007813Y011260D01*
X007794Y011293D01*
X007771Y011324D01*
X007745Y011353D01*
X007716Y011379D01*
X007685Y011402D01*
X007652Y011421D01*
X007617Y011438D01*
X007580Y011451D01*
X007543Y011460D01*
X007505Y011466D01*
X007466Y011468D01*
X007466Y011467D02*
X002723Y011467D01*
X002723Y011468D02*
X002684Y011466D01*
X002646Y011460D01*
X002609Y011451D01*
X002572Y011438D01*
X002537Y011421D01*
X002504Y011402D01*
X002473Y011379D01*
X002444Y011353D01*
X002418Y011324D01*
X002395Y011293D01*
X002376Y011260D01*
X002359Y011225D01*
X002346Y011188D01*
X002337Y011151D01*
X002331Y011113D01*
X002329Y011074D01*
X002329Y003774D01*
X002331Y003735D01*
X002337Y003697D01*
X002346Y003660D01*
X002359Y003623D01*
X002376Y003588D01*
X002395Y003555D01*
X002418Y003524D01*
X002444Y003495D01*
X002473Y003469D01*
X002504Y003446D01*
X002537Y003427D01*
X002572Y003410D01*
X002609Y003397D01*
X002646Y003388D01*
X002684Y003382D01*
X002723Y003380D01*
D11*
X002723Y003511D02*
X002671Y003516D01*
X002576Y003555D01*
X002504Y003628D01*
X002464Y003723D01*
X002459Y003774D01*
X002459Y011074D01*
X002464Y011125D01*
X002504Y011220D01*
X002576Y011293D01*
X002671Y011332D01*
X002723Y011337D01*
X007466Y011337D01*
X007517Y011332D01*
X007612Y011293D01*
X007685Y011220D01*
X007725Y011125D01*
X007730Y011074D01*
X007730Y003774D01*
X007725Y003723D01*
X007685Y003628D01*
X007612Y003555D01*
X007517Y003516D01*
X007466Y003511D01*
X002723Y003511D01*
X002575Y003556D02*
X004383Y003556D01*
X004420Y003520D02*
X004338Y003601D01*
X004338Y004326D01*
X004420Y004408D01*
X004909Y004408D01*
X004991Y004326D01*
X004991Y003601D01*
X004909Y003520D01*
X004420Y003520D01*
X004338Y003615D02*
X004217Y003615D01*
X004229Y003627D02*
X004248Y003658D01*
X004257Y003694D01*
X004257Y003948D01*
X003922Y003948D01*
X003922Y004008D01*
X003862Y004008D01*
X003862Y004383D01*
X003647Y004383D01*
X003612Y004373D01*
X003580Y004355D01*
X003554Y004329D01*
X003536Y004297D01*
X003526Y004261D01*
X003526Y004008D01*
X003862Y004008D01*
X003862Y003948D01*
X003526Y003948D01*
X003526Y003694D01*
X003536Y003658D01*
X003554Y003627D01*
X003580Y003601D01*
X003612Y003582D01*
X003647Y003573D01*
X003862Y003573D01*
X003862Y003948D01*
X003922Y003948D01*
X003922Y003573D01*
X004136Y003573D01*
X004172Y003582D01*
X004203Y003601D01*
X004229Y003627D01*
X004252Y003673D02*
X004338Y003673D01*
X004338Y003732D02*
X004257Y003732D01*
X004257Y003790D02*
X004338Y003790D01*
X004338Y003849D02*
X004257Y003849D01*
X004257Y003907D02*
X004338Y003907D01*
X004338Y003966D02*
X003922Y003966D01*
X003922Y004008D02*
X004257Y004008D01*
X004257Y004261D01*
X004248Y004297D01*
X004229Y004329D01*
X004203Y004355D01*
X004172Y004373D01*
X004136Y004383D01*
X003922Y004383D01*
X003922Y004008D01*
X003922Y004024D02*
X003862Y004024D01*
X003862Y003966D02*
X003450Y003966D01*
X003452Y003961D02*
X003442Y003997D01*
X003424Y004029D01*
X003397Y004055D01*
X003365Y004073D01*
X003330Y004083D01*
X003234Y004083D01*
X003234Y003865D01*
X003452Y003865D01*
X003452Y003961D01*
X003452Y003907D02*
X003526Y003907D01*
X003526Y003849D02*
X003234Y003849D01*
X003234Y003865D02*
X003234Y003805D01*
X003234Y003588D01*
X003330Y003588D01*
X003365Y003597D01*
X003397Y003616D01*
X003424Y003642D01*
X003442Y003674D01*
X003452Y003710D01*
X003452Y003805D01*
X003234Y003805D01*
X003174Y003805D01*
X003174Y003588D01*
X003079Y003588D01*
X003043Y003597D01*
X003011Y003616D01*
X002985Y003642D01*
X002966Y003674D01*
X002957Y003710D01*
X002957Y003805D01*
X003174Y003805D01*
X003174Y003865D01*
X002957Y003865D01*
X002957Y003961D01*
X002966Y003997D01*
X002985Y004029D01*
X003011Y004055D01*
X003043Y004073D01*
X003079Y004083D01*
X003174Y004083D01*
X003174Y003865D01*
X003234Y003865D01*
X003234Y003907D02*
X003174Y003907D01*
X003174Y003849D02*
X002459Y003849D01*
X002459Y003907D02*
X002957Y003907D01*
X002958Y003966D02*
X002459Y003966D01*
X002459Y004024D02*
X002982Y004024D01*
X003078Y004083D02*
X002459Y004083D01*
X002459Y004141D02*
X003526Y004141D01*
X003526Y004083D02*
X003330Y004083D01*
X003234Y004083D02*
X003174Y004083D01*
X003174Y004024D02*
X003234Y004024D01*
X003234Y003966D02*
X003174Y003966D01*
X003174Y003790D02*
X003234Y003790D01*
X003234Y003732D02*
X003174Y003732D01*
X003174Y003673D02*
X003234Y003673D01*
X003234Y003615D02*
X003174Y003615D01*
X003013Y003615D02*
X002517Y003615D01*
X002485Y003673D02*
X002967Y003673D01*
X002957Y003732D02*
X002463Y003732D01*
X002459Y003790D02*
X002957Y003790D01*
X003039Y004178D02*
X002980Y004237D01*
X002952Y004209D01*
X002581Y004209D01*
X002500Y004291D01*
X002500Y004583D01*
X002581Y004665D01*
X002952Y004665D01*
X002991Y004626D01*
X003039Y004673D01*
X003369Y004673D01*
X003452Y004591D01*
X003452Y004261D01*
X003369Y004178D01*
X003039Y004178D01*
X003018Y004200D02*
X002459Y004200D01*
X002459Y004258D02*
X002533Y004258D01*
X002500Y004317D02*
X002459Y004317D01*
X002459Y004375D02*
X002500Y004375D01*
X002500Y004434D02*
X002459Y004434D01*
X002459Y004492D02*
X002500Y004492D01*
X002500Y004551D02*
X002459Y004551D01*
X002459Y004609D02*
X002525Y004609D01*
X002459Y004668D02*
X003033Y004668D01*
X003019Y004709D02*
X003390Y004709D01*
X003447Y004767D01*
X003594Y004767D01*
X003608Y004754D01*
X004175Y004754D01*
X004257Y004836D01*
X004257Y004989D01*
X004400Y004989D01*
X004499Y005088D01*
X004730Y005319D01*
X004968Y005319D01*
X004968Y005176D01*
X005050Y005094D01*
X005302Y005094D01*
X005373Y005165D01*
X005443Y005094D01*
X005696Y005094D01*
X005767Y005165D01*
X005823Y005109D01*
X005744Y005030D01*
X005744Y004856D01*
X005867Y004733D01*
X006041Y004733D01*
X006164Y004856D01*
X006164Y005030D01*
X006095Y005099D01*
X006165Y005169D01*
X006177Y005148D01*
X006203Y005122D01*
X006235Y005104D01*
X006270Y005094D01*
X006328Y005094D01*
X006328Y005460D01*
X006386Y005460D01*
X006386Y005094D01*
X006444Y005094D01*
X006480Y005104D01*
X006511Y005122D01*
X006537Y005148D01*
X006556Y005180D01*
X006565Y005216D01*
X006565Y005460D01*
X006386Y005460D01*
X006386Y005518D01*
X006565Y005518D01*
X006565Y005763D01*
X006556Y005799D01*
X006537Y005831D01*
X006511Y005857D01*
X006480Y005875D01*
X006444Y005885D01*
X006386Y005885D01*
X006386Y005518D01*
X006328Y005518D01*
X006328Y005885D01*
X006270Y005885D01*
X006235Y005875D01*
X006203Y005857D01*
X006177Y005831D01*
X006165Y005810D01*
X006090Y005885D01*
X005837Y005885D01*
X005767Y005814D01*
X005696Y005885D01*
X005682Y005885D01*
X005620Y005948D01*
X005552Y006015D01*
X005606Y006015D01*
X005646Y006055D01*
X005687Y006015D01*
X005802Y006015D01*
X005843Y006055D01*
X005884Y006015D01*
X005999Y006015D01*
X006040Y006055D01*
X006053Y006042D01*
X006085Y006024D01*
X006120Y006015D01*
X006138Y006015D01*
X006138Y006301D01*
X006138Y006301D01*
X006138Y006015D01*
X006157Y006015D01*
X006192Y006024D01*
X006224Y006042D01*
X006237Y006055D01*
X006278Y006015D01*
X006393Y006015D01*
X006475Y006096D01*
X006475Y006117D01*
X006548Y006043D01*
X006713Y006043D01*
X006773Y005983D01*
X006947Y005983D01*
X007007Y006043D01*
X007134Y006043D01*
X007206Y005971D01*
X007577Y005971D01*
X007659Y006053D01*
X007659Y006345D01*
X007577Y006427D01*
X007512Y006427D01*
X007512Y006603D01*
X007600Y006603D01*
X007682Y006685D01*
X007682Y006901D01*
X007640Y006943D01*
X007682Y006985D01*
X007682Y007201D01*
X007600Y007283D01*
X007346Y007283D01*
X007320Y007309D01*
X007320Y007436D01*
X007231Y007526D01*
X007246Y007522D01*
X007362Y007522D01*
X007362Y007720D01*
X007422Y007720D01*
X007422Y007780D01*
X007659Y007780D01*
X007659Y007856D01*
X007649Y007892D01*
X007631Y007924D01*
X007605Y007950D01*
X007573Y007968D01*
X007538Y007978D01*
X007422Y007978D01*
X007422Y007780D01*
X007362Y007780D01*
X007362Y007978D01*
X007246Y007978D01*
X007210Y007968D01*
X007178Y007950D01*
X007152Y007924D01*
X007134Y007892D01*
X007125Y007856D01*
X007125Y007780D01*
X007362Y007780D01*
X007362Y007720D01*
X007125Y007720D01*
X007125Y007643D01*
X007134Y007608D01*
X007152Y007576D01*
X007169Y007559D01*
X007105Y007559D01*
X007105Y007993D01*
X007035Y008063D01*
X006950Y008148D01*
X006967Y008177D01*
X006976Y008212D01*
X006976Y008231D01*
X006976Y008249D01*
X006967Y008284D01*
X006949Y008316D01*
X006923Y008342D01*
X006891Y008360D01*
X006856Y008370D01*
X006690Y008370D01*
X006690Y008231D01*
X006690Y008231D01*
X006976Y008231D01*
X006690Y008231D01*
X006690Y008231D01*
X006690Y008370D01*
X006524Y008370D01*
X006488Y008360D01*
X006457Y008342D01*
X006431Y008316D01*
X006412Y008284D01*
X006403Y008249D01*
X006403Y008231D01*
X006690Y008231D01*
X006682Y008356D01*
X006657Y008256D01*
X006690Y008236D02*
X006690Y008236D01*
X006690Y008231D02*
X006690Y008231D01*
X006403Y008231D01*
X006403Y008212D01*
X006412Y008177D01*
X006431Y008145D01*
X006444Y008132D01*
X006403Y008091D01*
X006403Y007976D01*
X006444Y007935D01*
X006403Y007895D01*
X006403Y007779D01*
X006444Y007738D01*
X006403Y007698D01*
X006403Y007582D01*
X006444Y007542D01*
X006403Y007501D01*
X006403Y007386D01*
X006444Y007345D01*
X006403Y007304D01*
X006403Y007189D01*
X006444Y007148D01*
X006403Y007107D01*
X006403Y006992D01*
X006444Y006951D01*
X006403Y006910D01*
X006403Y006795D01*
X006442Y006756D01*
X006403Y006717D01*
X006403Y006595D01*
X006485Y006513D01*
X006895Y006513D01*
X006976Y006595D01*
X006976Y006717D01*
X006937Y006756D01*
X006976Y006795D01*
X006976Y006910D01*
X006936Y006951D01*
X006976Y006992D01*
X006976Y007107D01*
X006936Y007148D01*
X006975Y007188D01*
X007023Y007139D01*
X007102Y007139D01*
X007102Y006985D01*
X007144Y006943D01*
X007102Y006901D01*
X007102Y006685D01*
X007184Y006603D01*
X007272Y006603D01*
X007272Y006427D01*
X007206Y006427D01*
X007125Y006345D01*
X007125Y006343D01*
X007007Y006343D01*
X006947Y006403D01*
X006773Y006403D01*
X006713Y006343D01*
X006673Y006343D01*
X006564Y006451D01*
X006475Y006451D01*
X006475Y006507D01*
X006393Y006588D01*
X006278Y006588D01*
X006237Y006548D01*
X006224Y006560D01*
X006192Y006579D01*
X006157Y006588D01*
X006138Y006588D01*
X006120Y006588D01*
X006085Y006579D01*
X006053Y006560D01*
X006040Y006548D01*
X005999Y006588D01*
X005884Y006588D01*
X005843Y006548D01*
X005802Y006588D01*
X005687Y006588D01*
X005646Y006548D01*
X005606Y006588D01*
X005490Y006588D01*
X005449Y006548D01*
X005409Y006588D01*
X005293Y006588D01*
X005253Y006548D01*
X005212Y006588D01*
X005097Y006588D01*
X005056Y006548D01*
X005015Y006588D01*
X004900Y006588D01*
X004859Y006548D01*
X004818Y006588D01*
X004703Y006588D01*
X004621Y006507D01*
X004621Y006451D01*
X004282Y006451D01*
X004233Y006403D01*
X004148Y006403D01*
X004025Y006280D01*
X004025Y006106D01*
X004148Y005983D01*
X004322Y005983D01*
X004445Y006106D01*
X004445Y006151D01*
X004621Y006151D01*
X004621Y006096D01*
X004627Y006091D01*
X004523Y006091D01*
X004400Y005968D01*
X004400Y005794D01*
X004523Y005671D01*
X004697Y005671D01*
X004820Y005794D01*
X004820Y005823D01*
X004988Y005823D01*
X004968Y005803D01*
X004968Y005659D01*
X004589Y005659D01*
X004259Y005329D01*
X004257Y005329D01*
X004257Y005482D01*
X004175Y005564D01*
X004062Y005564D01*
X004062Y005951D01*
X003962Y006051D01*
X003786Y006226D01*
X003714Y006226D01*
X003714Y006301D01*
X003686Y006329D01*
X003686Y006390D01*
X003562Y006514D01*
X003462Y006613D01*
X002821Y006613D01*
X002697Y006489D01*
X002598Y006390D01*
X002598Y006329D01*
X002569Y006301D01*
X002569Y005812D01*
X002651Y005730D01*
X002884Y005730D01*
X002959Y005805D01*
X002971Y005784D01*
X002997Y005758D01*
X003029Y005740D01*
X003065Y005730D01*
X003118Y005730D01*
X003118Y006032D01*
X003166Y006032D01*
X003166Y005730D01*
X003219Y005730D01*
X003254Y005740D01*
X003286Y005758D01*
X003312Y005784D01*
X003324Y005805D01*
X003399Y005730D01*
X003632Y005730D01*
X003714Y005812D01*
X003714Y005818D01*
X003722Y005810D01*
X003722Y005564D01*
X003608Y005564D01*
X003526Y005482D01*
X003526Y005107D01*
X003447Y005107D01*
X003390Y005165D01*
X003019Y005165D01*
X002991Y005138D01*
X002952Y005177D01*
X002887Y005177D01*
X002887Y005266D01*
X002942Y005322D01*
X002947Y005307D01*
X002965Y005275D01*
X002991Y005249D01*
X003023Y005231D01*
X003058Y005221D01*
X003174Y005221D01*
X003174Y005419D01*
X003234Y005419D01*
X003234Y005221D01*
X003350Y005221D01*
X003386Y005231D01*
X003417Y005249D01*
X003443Y005275D01*
X003462Y005307D01*
X003471Y005343D01*
X003471Y005419D01*
X003234Y005419D01*
X003234Y005479D01*
X003174Y005479D01*
X003174Y005677D01*
X003058Y005677D01*
X003023Y005667D01*
X002991Y005649D01*
X002965Y005623D01*
X002947Y005591D01*
X002940Y005567D01*
X002854Y005653D01*
X002680Y005653D01*
X002557Y005530D01*
X002557Y005356D01*
X002647Y005266D01*
X002647Y005177D01*
X002581Y005177D01*
X002500Y005095D01*
X002500Y004803D01*
X002581Y004721D01*
X002952Y004721D01*
X002980Y004749D01*
X003019Y004709D01*
X003002Y004726D02*
X002957Y004726D01*
X002767Y004949D02*
X002767Y005443D01*
X002630Y005604D02*
X002459Y005604D01*
X002459Y005662D02*
X003014Y005662D01*
X002954Y005604D02*
X002903Y005604D01*
X002933Y005779D02*
X002976Y005779D01*
X003118Y005779D02*
X003166Y005779D01*
X003166Y005838D02*
X003118Y005838D01*
X003118Y005896D02*
X003166Y005896D01*
X003166Y005955D02*
X003118Y005955D01*
X003118Y006013D02*
X003166Y006013D01*
X003307Y005779D02*
X003350Y005779D01*
X003350Y005677D02*
X003234Y005677D01*
X003234Y005479D01*
X003471Y005479D01*
X003471Y005556D01*
X003462Y005591D01*
X003443Y005623D01*
X003417Y005649D01*
X003386Y005667D01*
X003350Y005677D01*
X003395Y005662D02*
X003722Y005662D01*
X003722Y005604D02*
X003455Y005604D01*
X003471Y005545D02*
X003589Y005545D01*
X003531Y005487D02*
X003471Y005487D01*
X003526Y005428D02*
X003234Y005428D01*
X003234Y005370D02*
X003174Y005370D01*
X003174Y005311D02*
X003234Y005311D01*
X003234Y005253D02*
X003174Y005253D01*
X002987Y005253D02*
X002887Y005253D01*
X002887Y005194D02*
X003526Y005194D01*
X003526Y005136D02*
X003419Y005136D01*
X003421Y005253D02*
X003526Y005253D01*
X003526Y005311D02*
X003463Y005311D01*
X003471Y005370D02*
X003526Y005370D01*
X003722Y005721D02*
X002459Y005721D01*
X002459Y005779D02*
X002602Y005779D01*
X002569Y005838D02*
X002459Y005838D01*
X002459Y005896D02*
X002569Y005896D01*
X002569Y005955D02*
X002459Y005955D01*
X002459Y006013D02*
X002569Y006013D01*
X002569Y006072D02*
X002459Y006072D01*
X002459Y006130D02*
X002569Y006130D01*
X002569Y006189D02*
X002459Y006189D01*
X002459Y006247D02*
X002569Y006247D01*
X002574Y006306D02*
X002459Y006306D01*
X002459Y006364D02*
X002598Y006364D01*
X002631Y006423D02*
X002459Y006423D01*
X002459Y006481D02*
X002689Y006481D01*
X002748Y006540D02*
X002459Y006540D01*
X002459Y006598D02*
X002806Y006598D01*
X002884Y006754D02*
X002651Y006754D01*
X002569Y006836D01*
X002569Y007324D01*
X002597Y007352D01*
X002597Y007459D01*
X002581Y007459D01*
X002500Y007541D01*
X002500Y007833D01*
X002581Y007915D01*
X002952Y007915D01*
X002975Y007892D01*
X003009Y007926D01*
X003150Y007926D01*
X003160Y007915D01*
X003390Y007915D01*
X003423Y007882D01*
X003456Y007915D01*
X003807Y007915D01*
X003807Y007936D01*
X003876Y008006D01*
X003869Y008013D01*
X003827Y007971D01*
X003456Y007971D01*
X003423Y008005D01*
X003417Y007999D01*
X003386Y007981D01*
X003350Y007971D01*
X003234Y007971D01*
X003234Y008169D01*
X003174Y008169D01*
X002937Y008169D01*
X002797Y008169D01*
X002797Y008229D01*
X003174Y008229D01*
X003174Y008169D01*
X003174Y007971D01*
X003058Y007971D01*
X003023Y007981D01*
X002991Y007999D01*
X002985Y008005D01*
X002980Y007999D01*
X002948Y007981D01*
X002913Y007971D01*
X002797Y007971D01*
X002797Y008169D01*
X002737Y008169D01*
X002737Y007971D01*
X002621Y007971D01*
X002585Y007981D01*
X002553Y007999D01*
X002527Y008025D01*
X002509Y008057D01*
X002500Y008093D01*
X002500Y008169D01*
X002737Y008169D01*
X002737Y008229D01*
X002737Y008427D01*
X002621Y008427D01*
X002585Y008417D01*
X002553Y008399D01*
X002527Y008373D01*
X002509Y008341D01*
X002500Y008306D01*
X002500Y008229D01*
X002737Y008229D01*
X002797Y008229D01*
X002797Y008427D01*
X002913Y008427D01*
X002948Y008417D01*
X002980Y008399D01*
X002985Y008394D01*
X002991Y008399D01*
X003023Y008417D01*
X003058Y008427D01*
X003174Y008427D01*
X003174Y008229D01*
X003234Y008229D01*
X003234Y008427D01*
X003350Y008427D01*
X003386Y008417D01*
X003417Y008399D01*
X003423Y008394D01*
X003456Y008427D01*
X003827Y008427D01*
X003906Y008348D01*
X003930Y008372D01*
X003949Y008372D01*
X003498Y008823D01*
X003200Y008823D01*
X003200Y008735D01*
X003118Y008653D01*
X002902Y008653D01*
X002860Y008695D01*
X002846Y008681D01*
X002814Y008663D01*
X002779Y008653D01*
X002730Y008653D01*
X002730Y008923D01*
X002690Y008923D01*
X002520Y008923D01*
X002520Y008775D01*
X002530Y008739D01*
X002548Y008707D01*
X002574Y008681D01*
X002606Y008663D01*
X002642Y008653D01*
X002690Y008653D01*
X002690Y008923D01*
X002690Y008963D01*
X002520Y008963D01*
X002520Y009112D01*
X002530Y009147D01*
X002548Y009179D01*
X002574Y009205D01*
X002606Y009224D01*
X002642Y009233D01*
X002690Y009233D01*
X002690Y008963D01*
X002730Y008963D01*
X002730Y009233D01*
X002779Y009233D01*
X002814Y009224D01*
X002846Y009205D01*
X002860Y009191D01*
X002902Y009233D01*
X003118Y009233D01*
X003200Y009151D01*
X003200Y009063D01*
X003446Y009063D01*
X003248Y009261D01*
X002842Y009261D01*
X002717Y009386D01*
X002647Y009456D01*
X002647Y009584D01*
X002581Y009584D01*
X002500Y009666D01*
X002500Y009958D01*
X002581Y010040D01*
X002952Y010040D01*
X002985Y010007D01*
X002991Y010012D01*
X003023Y010031D01*
X003058Y010040D01*
X003174Y010040D01*
X003174Y009842D01*
X003234Y009842D01*
X003471Y009842D01*
X003471Y009858D01*
X003588Y009858D01*
X003668Y009778D01*
X003679Y009778D01*
X003669Y009768D01*
X003669Y009634D01*
X003751Y009552D01*
X003766Y009552D01*
X003682Y009468D01*
X003682Y009294D01*
X003805Y009171D01*
X003979Y009171D01*
X004068Y009260D01*
X004073Y009244D01*
X004091Y009212D01*
X004117Y009186D01*
X004149Y009168D01*
X004185Y009158D01*
X004212Y009158D01*
X004212Y009406D01*
X004212Y009406D01*
X004212Y009653D01*
X004185Y009653D01*
X004164Y009648D01*
X004164Y009768D01*
X004133Y009799D01*
X004164Y009831D01*
X004164Y009965D01*
X004133Y009996D01*
X004164Y010028D01*
X004164Y010162D01*
X004133Y010193D01*
X004164Y010225D01*
X004417Y010225D01*
X004417Y010167D02*
X004159Y010167D01*
X004164Y010225D02*
X004164Y010359D01*
X004133Y010390D01*
X004164Y010422D01*
X004164Y010555D01*
X004133Y010587D01*
X004164Y010618D01*
X004164Y010739D01*
X004185Y010733D01*
X004212Y010733D01*
X004212Y010981D01*
X004212Y011228D01*
X004185Y011228D01*
X004149Y011219D01*
X004117Y011200D01*
X004091Y011174D01*
X004073Y011142D01*
X004063Y011106D01*
X004063Y010981D01*
X004212Y010981D01*
X004212Y010981D01*
X004212Y011228D01*
X004239Y011228D01*
X004275Y011219D01*
X004307Y011200D01*
X004310Y011197D01*
X004342Y011228D01*
X004476Y011228D01*
X004507Y011197D01*
X004539Y011228D01*
X004673Y011228D01*
X004704Y011197D01*
X004736Y011228D01*
X004870Y011228D01*
X004901Y011197D01*
X004933Y011228D01*
X005066Y011228D01*
X005098Y011197D01*
X005129Y011228D01*
X005263Y011228D01*
X005307Y011184D01*
X005373Y011251D01*
X005660Y011251D01*
X005785Y011126D01*
X005902Y011126D01*
X005992Y011216D01*
X006166Y011216D01*
X006174Y011207D01*
X006240Y011273D01*
X006532Y011273D01*
X006614Y011191D01*
X006614Y010820D01*
X006580Y010787D01*
X006614Y010754D01*
X006614Y010383D01*
X006532Y010301D01*
X006240Y010301D01*
X006158Y010383D01*
X006158Y010415D01*
X005969Y010226D01*
X006037Y010157D01*
X006054Y010167D01*
X006089Y010177D01*
X006205Y010177D01*
X006205Y009979D01*
X006265Y009979D01*
X006265Y010177D01*
X006381Y010177D01*
X006417Y010167D01*
X006449Y010149D01*
X006475Y010123D01*
X006493Y010091D01*
X006503Y010056D01*
X006503Y009979D01*
X006265Y009979D01*
X006265Y009919D01*
X006265Y009721D01*
X006381Y009721D01*
X006417Y009731D01*
X006449Y009749D01*
X006475Y009775D01*
X006493Y009807D01*
X006503Y009843D01*
X006503Y009919D01*
X006265Y009919D01*
X006205Y009919D01*
X006205Y009721D01*
X006089Y009721D01*
X006054Y009731D01*
X006039Y009739D01*
X006039Y009669D01*
X005916Y009546D01*
X005742Y009546D01*
X005696Y009591D01*
X005657Y009552D01*
X005345Y009552D01*
X005345Y009240D01*
X005263Y009158D01*
X005129Y009158D01*
X005098Y009190D01*
X005066Y009158D01*
X005036Y009158D01*
X005102Y009093D01*
X005102Y009059D01*
X005105Y009055D01*
X005231Y008930D01*
X005231Y009077D01*
X005432Y009278D01*
X005432Y009405D01*
X005555Y009528D01*
X005729Y009528D01*
X005852Y009405D01*
X005852Y009231D01*
X005729Y009108D01*
X005601Y009108D01*
X005471Y008978D01*
X005471Y008849D01*
X005494Y008862D01*
X005530Y008872D01*
X005548Y008872D01*
X005548Y008585D01*
X005548Y008585D01*
X005548Y008872D01*
X005566Y008872D01*
X005602Y008862D01*
X005625Y008849D01*
X005625Y008877D01*
X006004Y009256D01*
X005968Y009291D01*
X005968Y009583D01*
X006050Y009665D01*
X006421Y009665D01*
X006503Y009583D01*
X006503Y009291D01*
X006421Y009209D01*
X006296Y009209D01*
X006285Y009198D01*
X006275Y009188D01*
X006467Y009188D01*
X006522Y009243D01*
X006522Y009805D01*
X006709Y009993D01*
X006779Y010063D01*
X006780Y010063D01*
X006780Y010124D01*
X006861Y010206D01*
X007547Y010206D01*
X007629Y010124D01*
X007629Y009832D01*
X007547Y009750D01*
X006861Y009750D01*
X006834Y009778D01*
X006762Y009706D01*
X006762Y009143D01*
X006744Y009126D01*
X006780Y009126D01*
X006780Y009179D01*
X006861Y009261D01*
X007547Y009261D01*
X007629Y009179D01*
X007629Y008887D01*
X007547Y008805D01*
X006861Y008805D01*
X006781Y008886D01*
X006754Y008886D01*
X006691Y008823D01*
X006442Y008823D01*
X006475Y008790D01*
X006475Y008735D01*
X006886Y008735D01*
X006930Y008778D01*
X007104Y008778D01*
X007227Y008655D01*
X007227Y008570D01*
X007308Y008489D01*
X007577Y008489D01*
X007659Y008408D01*
X007659Y008116D01*
X007577Y008034D01*
X007206Y008034D01*
X007125Y008116D01*
X007125Y008248D01*
X007015Y008358D01*
X006930Y008358D01*
X006853Y008435D01*
X006475Y008435D01*
X006475Y008380D01*
X006393Y008298D01*
X006278Y008298D01*
X006237Y008339D01*
X006196Y008298D01*
X006081Y008298D01*
X006040Y008339D01*
X005999Y008298D01*
X005884Y008298D01*
X005843Y008339D01*
X005802Y008298D01*
X005687Y008298D01*
X005646Y008339D01*
X005633Y008326D01*
X005602Y008308D01*
X005566Y008298D01*
X005548Y008298D01*
X005548Y008585D01*
X005548Y008585D01*
X005548Y008298D01*
X005530Y008298D01*
X005494Y008308D01*
X005462Y008326D01*
X005449Y008339D01*
X005409Y008298D01*
X005293Y008298D01*
X005253Y008339D01*
X005212Y008298D01*
X005097Y008298D01*
X005056Y008339D01*
X005015Y008298D01*
X004900Y008298D01*
X004859Y008339D01*
X004818Y008298D01*
X004703Y008298D01*
X004621Y008380D01*
X004621Y008465D01*
X004196Y008465D01*
X004291Y008370D01*
X004611Y008370D01*
X004693Y008288D01*
X004693Y008173D01*
X004652Y008132D01*
X004693Y008091D01*
X004693Y007976D01*
X004652Y007935D01*
X004693Y007895D01*
X004693Y007779D01*
X004652Y007738D01*
X004693Y007698D01*
X004693Y007582D01*
X004652Y007542D01*
X004693Y007501D01*
X004693Y007386D01*
X004652Y007345D01*
X004693Y007304D01*
X004693Y007189D01*
X004652Y007148D01*
X004693Y007107D01*
X004693Y006992D01*
X004652Y006951D01*
X004665Y006938D01*
X004684Y006906D01*
X004693Y006871D01*
X004693Y006853D01*
X004406Y006853D01*
X004406Y006853D01*
X004119Y006853D01*
X004119Y006871D01*
X004129Y006906D01*
X004147Y006938D01*
X004160Y006951D01*
X004119Y006992D01*
X004119Y007030D01*
X004104Y007014D01*
X003930Y007014D01*
X003807Y007137D01*
X003807Y007311D01*
X003876Y007381D01*
X003807Y007450D01*
X003807Y007459D01*
X003456Y007459D01*
X003423Y007493D01*
X003390Y007459D01*
X003289Y007459D01*
X003289Y007294D01*
X003166Y007171D01*
X002992Y007171D01*
X002966Y007197D01*
X002966Y006836D01*
X002884Y006754D01*
X002904Y006774D02*
X003379Y006774D01*
X003399Y006754D02*
X003317Y006836D01*
X003317Y007324D01*
X003399Y007406D01*
X003632Y007406D01*
X003714Y007324D01*
X003714Y006836D01*
X003632Y006754D01*
X003399Y006754D01*
X003321Y006832D02*
X002962Y006832D01*
X002966Y006891D02*
X003317Y006891D01*
X003317Y006949D02*
X002966Y006949D01*
X002966Y007008D02*
X003317Y007008D01*
X003317Y007066D02*
X002966Y007066D01*
X002966Y007125D02*
X003317Y007125D01*
X003317Y007183D02*
X003179Y007183D01*
X003237Y007242D02*
X003317Y007242D01*
X003317Y007300D02*
X003289Y007300D01*
X003289Y007359D02*
X003352Y007359D01*
X003289Y007417D02*
X003839Y007417D01*
X003854Y007359D02*
X003680Y007359D01*
X003714Y007300D02*
X003807Y007300D01*
X003807Y007242D02*
X003714Y007242D01*
X003714Y007183D02*
X003807Y007183D01*
X003819Y007125D02*
X003714Y007125D01*
X003714Y007066D02*
X003878Y007066D01*
X003714Y007008D02*
X004119Y007008D01*
X004158Y006949D02*
X003714Y006949D01*
X003714Y006891D02*
X004125Y006891D01*
X004119Y006853D02*
X004119Y006834D01*
X004129Y006799D01*
X004147Y006767D01*
X004160Y006754D01*
X004147Y006741D01*
X004129Y006710D01*
X004119Y006674D01*
X004119Y006656D01*
X004406Y006656D01*
X004406Y006795D01*
X004406Y006853D01*
X004406Y006853D01*
X004119Y006853D01*
X004120Y006832D02*
X003710Y006832D01*
X003652Y006774D02*
X004143Y006774D01*
X004132Y006715D02*
X002459Y006715D01*
X002459Y006657D02*
X004119Y006657D01*
X004119Y006656D02*
X004119Y006637D01*
X004129Y006602D01*
X004147Y006570D01*
X004173Y006544D01*
X004205Y006526D01*
X004240Y006517D01*
X004406Y006517D01*
X004406Y006656D01*
X004406Y006656D01*
X004406Y006656D01*
X004406Y006853D01*
X004406Y006853D01*
X004693Y006853D01*
X004693Y006834D01*
X004684Y006799D01*
X004665Y006767D01*
X004652Y006754D01*
X004665Y006741D01*
X004684Y006710D01*
X004693Y006674D01*
X004693Y006656D01*
X004406Y006656D01*
X004119Y006656D01*
X004131Y006598D02*
X003477Y006598D01*
X003536Y006540D02*
X004181Y006540D01*
X004253Y006423D02*
X003653Y006423D01*
X003686Y006364D02*
X004109Y006364D01*
X004051Y006306D02*
X003709Y006306D01*
X003714Y006247D02*
X004025Y006247D01*
X004025Y006189D02*
X003824Y006189D01*
X003883Y006130D02*
X004025Y006130D01*
X004060Y006072D02*
X003941Y006072D01*
X004000Y006013D02*
X004118Y006013D01*
X004058Y005955D02*
X004400Y005955D01*
X004400Y005896D02*
X004062Y005896D01*
X004062Y005838D02*
X004400Y005838D01*
X004415Y005779D02*
X004062Y005779D01*
X004062Y005721D02*
X004473Y005721D01*
X004534Y005604D02*
X004062Y005604D01*
X004062Y005662D02*
X004968Y005662D01*
X004968Y005721D02*
X004747Y005721D01*
X004806Y005779D02*
X004968Y005779D01*
X005048Y005943D02*
X004673Y005943D01*
X004610Y005881D01*
X004504Y006072D02*
X004411Y006072D01*
X004445Y006130D02*
X004621Y006130D01*
X004446Y006013D02*
X004352Y006013D01*
X004475Y005545D02*
X004194Y005545D01*
X004252Y005487D02*
X004417Y005487D01*
X004358Y005428D02*
X004257Y005428D01*
X004257Y005370D02*
X004300Y005370D01*
X004547Y005136D02*
X005008Y005136D01*
X004968Y005194D02*
X004605Y005194D01*
X004664Y005253D02*
X004968Y005253D01*
X004968Y005311D02*
X004722Y005311D01*
X004488Y005077D02*
X005791Y005077D01*
X005796Y005136D02*
X005738Y005136D01*
X005744Y005019D02*
X004430Y005019D01*
X004257Y004960D02*
X005744Y004960D01*
X005744Y004902D02*
X004257Y004902D01*
X004257Y004843D02*
X005757Y004843D01*
X005816Y004785D02*
X004206Y004785D01*
X004164Y004375D02*
X004387Y004375D01*
X004338Y004317D02*
X004236Y004317D01*
X004257Y004258D02*
X004338Y004258D01*
X004338Y004200D02*
X004257Y004200D01*
X004257Y004141D02*
X004338Y004141D01*
X004338Y004083D02*
X004257Y004083D01*
X004257Y004024D02*
X004338Y004024D01*
X003922Y004083D02*
X003862Y004083D01*
X003862Y004141D02*
X003922Y004141D01*
X003922Y004200D02*
X003862Y004200D01*
X003862Y004258D02*
X003922Y004258D01*
X003922Y004317D02*
X003862Y004317D01*
X003862Y004375D02*
X003922Y004375D01*
X003620Y004375D02*
X003452Y004375D01*
X003452Y004317D02*
X003547Y004317D01*
X003526Y004258D02*
X003449Y004258D01*
X003391Y004200D02*
X003526Y004200D01*
X003526Y004024D02*
X003426Y004024D01*
X003452Y003790D02*
X003526Y003790D01*
X003526Y003732D02*
X003452Y003732D01*
X003442Y003673D02*
X003532Y003673D01*
X003566Y003615D02*
X003395Y003615D01*
X003862Y003615D02*
X003922Y003615D01*
X003922Y003673D02*
X003862Y003673D01*
X003862Y003732D02*
X003922Y003732D01*
X003922Y003790D02*
X003862Y003790D01*
X003862Y003849D02*
X003922Y003849D01*
X003922Y003907D02*
X003862Y003907D01*
X003452Y004434D02*
X005320Y004434D01*
X005353Y004466D02*
X005283Y004396D01*
X005239Y004353D01*
X005239Y004253D01*
X005283Y004210D01*
X005283Y004123D01*
X005396Y004009D01*
X005496Y004009D01*
X005566Y004080D01*
X005566Y004179D01*
X005529Y004216D01*
X005566Y004253D01*
X005566Y004353D01*
X005523Y004396D01*
X005523Y004396D01*
X005452Y004466D01*
X005353Y004466D01*
X005283Y004396D02*
X005283Y004396D01*
X005262Y004375D02*
X004942Y004375D01*
X004991Y004317D02*
X005239Y004317D01*
X005239Y004258D02*
X004991Y004258D01*
X004991Y004200D02*
X005283Y004200D01*
X005283Y004141D02*
X004991Y004141D01*
X004991Y004083D02*
X005323Y004083D01*
X005381Y004024D02*
X004991Y004024D01*
X004991Y003966D02*
X006543Y003966D01*
X006543Y004024D02*
X005510Y004024D01*
X005566Y004083D02*
X006543Y004083D01*
X006543Y004141D02*
X005566Y004141D01*
X005545Y004200D02*
X006543Y004200D01*
X006543Y004258D02*
X005566Y004258D01*
X005566Y004317D02*
X006543Y004317D01*
X006543Y004326D02*
X006543Y003601D01*
X006625Y003520D01*
X007113Y003520D01*
X007195Y003601D01*
X007195Y004326D01*
X007113Y004408D01*
X006625Y004408D01*
X006543Y004326D01*
X006592Y004375D02*
X005543Y004375D01*
X005485Y004434D02*
X007130Y004434D01*
X007134Y004420D02*
X007152Y004388D01*
X007178Y004362D01*
X007210Y004344D01*
X007246Y004334D01*
X007362Y004334D01*
X007362Y004532D01*
X007422Y004532D01*
X007422Y004592D01*
X007659Y004592D01*
X007659Y004669D01*
X007649Y004704D01*
X007631Y004736D01*
X007605Y004762D01*
X007573Y004781D01*
X007538Y004790D01*
X007422Y004790D01*
X007422Y004592D01*
X007362Y004592D01*
X007362Y004790D01*
X007246Y004790D01*
X007210Y004781D01*
X007178Y004762D01*
X007152Y004736D01*
X007134Y004704D01*
X007125Y004669D01*
X007125Y004592D01*
X007362Y004592D01*
X007362Y004532D01*
X007125Y004532D01*
X007125Y004456D01*
X007134Y004420D01*
X007146Y004375D02*
X007166Y004375D01*
X007195Y004317D02*
X007730Y004317D01*
X007730Y004375D02*
X007618Y004375D01*
X007605Y004362D02*
X007631Y004388D01*
X007649Y004420D01*
X007659Y004456D01*
X007659Y004532D01*
X007422Y004532D01*
X007422Y004334D01*
X007538Y004334D01*
X007573Y004344D01*
X007605Y004362D01*
X007653Y004434D02*
X007730Y004434D01*
X007730Y004492D02*
X007659Y004492D01*
X007730Y004551D02*
X007422Y004551D01*
X007422Y004609D02*
X007362Y004609D01*
X007362Y004551D02*
X003452Y004551D01*
X003452Y004492D02*
X007125Y004492D01*
X007125Y004609D02*
X003434Y004609D01*
X003375Y004668D02*
X007125Y004668D01*
X007147Y004726D02*
X003406Y004726D01*
X003670Y004937D02*
X003892Y005159D01*
X003722Y005779D02*
X003681Y005779D01*
X003234Y005662D02*
X003174Y005662D01*
X003174Y005604D02*
X003234Y005604D01*
X003234Y005545D02*
X003174Y005545D01*
X003174Y005487D02*
X003234Y005487D01*
X002945Y005311D02*
X002932Y005311D01*
X002647Y005253D02*
X002459Y005253D01*
X002459Y005311D02*
X002602Y005311D01*
X002557Y005370D02*
X002459Y005370D01*
X002459Y005428D02*
X002557Y005428D01*
X002557Y005487D02*
X002459Y005487D01*
X002459Y005545D02*
X002572Y005545D01*
X002647Y005194D02*
X002459Y005194D01*
X002459Y005136D02*
X002540Y005136D01*
X002500Y005077D02*
X002459Y005077D01*
X002459Y005019D02*
X002500Y005019D01*
X002500Y004960D02*
X002459Y004960D01*
X002459Y004902D02*
X002500Y004902D01*
X002500Y004843D02*
X002459Y004843D01*
X002459Y004785D02*
X002518Y004785D01*
X002576Y004726D02*
X002459Y004726D01*
X002767Y004437D02*
X003193Y004437D01*
X003204Y004426D01*
X004991Y003907D02*
X006543Y003907D01*
X006543Y003849D02*
X004991Y003849D01*
X004991Y003790D02*
X006543Y003790D01*
X006543Y003732D02*
X004991Y003732D01*
X004991Y003673D02*
X006543Y003673D01*
X006543Y003615D02*
X004991Y003615D01*
X004945Y003556D02*
X006588Y003556D01*
X007150Y003556D02*
X007614Y003556D01*
X007672Y003615D02*
X007195Y003615D01*
X007195Y003673D02*
X007704Y003673D01*
X007725Y003732D02*
X007195Y003732D01*
X007195Y003790D02*
X007730Y003790D01*
X007730Y003849D02*
X007195Y003849D01*
X007195Y003907D02*
X007730Y003907D01*
X007730Y003966D02*
X007195Y003966D01*
X007195Y004024D02*
X007730Y004024D01*
X007730Y004083D02*
X007195Y004083D01*
X007195Y004141D02*
X007730Y004141D01*
X007730Y004200D02*
X007195Y004200D01*
X007195Y004258D02*
X007730Y004258D01*
X007730Y004609D02*
X007659Y004609D01*
X007659Y004668D02*
X007730Y004668D01*
X007730Y004726D02*
X007637Y004726D01*
X007558Y004785D02*
X007730Y004785D01*
X007730Y004843D02*
X006151Y004843D01*
X006164Y004902D02*
X007151Y004902D01*
X007125Y004928D02*
X007206Y004846D01*
X007577Y004846D01*
X007659Y004928D01*
X007659Y005220D01*
X007577Y005302D01*
X007206Y005302D01*
X007125Y005220D01*
X007125Y005194D01*
X007092Y005194D01*
X007070Y005215D01*
X007070Y005343D01*
X006947Y005466D01*
X006773Y005466D01*
X006650Y005343D01*
X006650Y005169D01*
X006773Y005046D01*
X006901Y005046D01*
X006922Y005024D01*
X006992Y004954D01*
X007125Y004954D01*
X007125Y004928D01*
X007042Y005074D02*
X007392Y005074D01*
X007386Y005131D01*
X007157Y005253D02*
X007070Y005253D01*
X007070Y005311D02*
X007730Y005311D01*
X007730Y005253D02*
X007626Y005253D01*
X007659Y005194D02*
X007730Y005194D01*
X007730Y005136D02*
X007659Y005136D01*
X007659Y005077D02*
X007730Y005077D01*
X007730Y005019D02*
X007659Y005019D01*
X007659Y004960D02*
X007730Y004960D01*
X007730Y004902D02*
X007632Y004902D01*
X007422Y004785D02*
X007362Y004785D01*
X007362Y004726D02*
X007422Y004726D01*
X007422Y004668D02*
X007362Y004668D01*
X007362Y004492D02*
X007422Y004492D01*
X007422Y004434D02*
X007362Y004434D01*
X007362Y004375D02*
X007422Y004375D01*
X007226Y004785D02*
X006093Y004785D01*
X006164Y004960D02*
X006986Y004960D01*
X006928Y005019D02*
X006164Y005019D01*
X006173Y005019D02*
X006610Y005019D01*
X006610Y005006D02*
X006173Y005006D01*
X006173Y005881D01*
X006610Y005881D01*
X006610Y005006D01*
X006610Y005077D02*
X006173Y005077D01*
X006117Y005077D02*
X006742Y005077D01*
X006683Y005136D02*
X006525Y005136D01*
X006560Y005194D02*
X006650Y005194D01*
X006610Y005194D02*
X006173Y005194D01*
X006173Y005136D02*
X006610Y005136D01*
X006610Y005253D02*
X006173Y005253D01*
X006173Y005311D02*
X006610Y005311D01*
X006650Y005311D02*
X006565Y005311D01*
X006565Y005253D02*
X006650Y005253D01*
X006677Y005370D02*
X006565Y005370D01*
X006610Y005370D02*
X006173Y005370D01*
X006173Y005428D02*
X006610Y005428D01*
X006565Y005428D02*
X006736Y005428D01*
X006610Y005487D02*
X006173Y005487D01*
X006173Y005545D02*
X006610Y005545D01*
X006565Y005545D02*
X007134Y005545D01*
X007152Y005513D01*
X007178Y005487D01*
X007210Y005469D01*
X007246Y005459D01*
X007362Y005459D01*
X007362Y005657D01*
X007422Y005657D01*
X007422Y005717D01*
X007659Y005717D01*
X007659Y005794D01*
X007649Y005829D01*
X007631Y005861D01*
X007605Y005887D01*
X007573Y005906D01*
X007538Y005915D01*
X007422Y005915D01*
X007422Y005717D01*
X007362Y005717D01*
X007362Y005915D01*
X007246Y005915D01*
X007210Y005906D01*
X007178Y005887D01*
X007152Y005861D01*
X007134Y005829D01*
X007125Y005794D01*
X007125Y005717D01*
X007362Y005717D01*
X007362Y005657D01*
X007125Y005657D01*
X007125Y005581D01*
X007134Y005545D01*
X007125Y005604D02*
X006565Y005604D01*
X006610Y005604D02*
X006173Y005604D01*
X006173Y005662D02*
X006610Y005662D01*
X006565Y005662D02*
X007362Y005662D01*
X007362Y005604D02*
X007422Y005604D01*
X007422Y005657D02*
X007422Y005459D01*
X007538Y005459D01*
X007573Y005469D01*
X007605Y005487D01*
X007631Y005513D01*
X007649Y005545D01*
X007730Y005545D01*
X007730Y005487D02*
X007604Y005487D01*
X007649Y005545D02*
X007659Y005581D01*
X007659Y005657D01*
X007422Y005657D01*
X007422Y005662D02*
X007730Y005662D01*
X007730Y005604D02*
X007659Y005604D01*
X007659Y005721D02*
X007730Y005721D01*
X007730Y005779D02*
X007659Y005779D01*
X007645Y005838D02*
X007730Y005838D01*
X007730Y005896D02*
X007589Y005896D01*
X007619Y006013D02*
X007730Y006013D01*
X007730Y005955D02*
X005612Y005955D01*
X005554Y006013D02*
X006743Y006013D01*
X006610Y005838D02*
X006173Y005838D01*
X006184Y005838D02*
X006137Y005838D01*
X006173Y005779D02*
X006610Y005779D01*
X006561Y005779D02*
X007125Y005779D01*
X007125Y005721D02*
X006565Y005721D01*
X006610Y005721D02*
X006173Y005721D01*
X006328Y005721D02*
X006386Y005721D01*
X006386Y005779D02*
X006328Y005779D01*
X006328Y005838D02*
X006386Y005838D01*
X006386Y005662D02*
X006328Y005662D01*
X006328Y005604D02*
X006386Y005604D01*
X006386Y005545D02*
X006328Y005545D01*
X006386Y005487D02*
X007180Y005487D01*
X007043Y005370D02*
X007730Y005370D01*
X007730Y005428D02*
X006985Y005428D01*
X006860Y005256D02*
X007042Y005074D01*
X007092Y005194D02*
X007125Y005194D01*
X007362Y005487D02*
X007422Y005487D01*
X007422Y005545D02*
X007362Y005545D01*
X007362Y005721D02*
X007422Y005721D01*
X007422Y005779D02*
X007362Y005779D01*
X007362Y005838D02*
X007422Y005838D01*
X007422Y005896D02*
X007362Y005896D01*
X007194Y005896D02*
X005671Y005896D01*
X005743Y005838D02*
X005790Y005838D01*
X005570Y005828D02*
X005570Y005489D01*
X005570Y005828D02*
X005351Y006046D01*
X005351Y006301D01*
X005154Y006301D02*
X005154Y006049D01*
X005048Y005943D01*
X004621Y006481D02*
X003594Y006481D01*
X004017Y007224D02*
X004235Y007443D01*
X004406Y007443D01*
X004406Y007640D02*
X004120Y007640D01*
X004017Y007537D01*
X004035Y007837D02*
X004406Y007837D01*
X004406Y008034D02*
X004145Y008034D01*
X004017Y008162D01*
X003667Y008162D01*
X003642Y008199D01*
X003842Y008412D02*
X003910Y008412D01*
X003901Y008353D02*
X003911Y008353D01*
X003851Y008470D02*
X002459Y008470D01*
X002459Y008412D02*
X002575Y008412D01*
X002516Y008353D02*
X002459Y008353D01*
X002459Y008295D02*
X002500Y008295D01*
X002500Y008236D02*
X002459Y008236D01*
X002459Y008178D02*
X002737Y008178D01*
X002737Y008236D02*
X002797Y008236D01*
X002797Y008178D02*
X003174Y008178D01*
X003174Y008236D02*
X003234Y008236D01*
X003234Y008295D02*
X003174Y008295D01*
X003174Y008353D02*
X003234Y008353D01*
X003234Y008412D02*
X003174Y008412D01*
X003013Y008412D02*
X002958Y008412D01*
X002797Y008412D02*
X002737Y008412D01*
X002737Y008353D02*
X002797Y008353D01*
X002797Y008295D02*
X002737Y008295D01*
X002737Y008119D02*
X002797Y008119D01*
X002797Y008061D02*
X002737Y008061D01*
X002737Y008002D02*
X002797Y008002D01*
X002983Y008002D02*
X002988Y008002D01*
X003174Y008002D02*
X003234Y008002D01*
X003234Y008061D02*
X003174Y008061D01*
X003174Y008119D02*
X003234Y008119D01*
X003420Y008002D02*
X003425Y008002D01*
X003419Y007885D02*
X003426Y007885D01*
X003642Y007687D02*
X003079Y007756D01*
X003406Y007476D02*
X003440Y007476D01*
X003814Y007944D02*
X002459Y007944D01*
X002459Y008002D02*
X002550Y008002D01*
X002508Y008061D02*
X002459Y008061D01*
X002459Y008119D02*
X002500Y008119D01*
X002459Y007885D02*
X002551Y007885D01*
X002500Y007827D02*
X002459Y007827D01*
X002459Y007768D02*
X002500Y007768D01*
X002500Y007710D02*
X002459Y007710D01*
X002459Y007651D02*
X002500Y007651D01*
X002500Y007593D02*
X002459Y007593D01*
X002459Y007534D02*
X002507Y007534D01*
X002459Y007476D02*
X002565Y007476D01*
X002597Y007417D02*
X002459Y007417D01*
X002459Y007359D02*
X002597Y007359D01*
X002569Y007300D02*
X002459Y007300D01*
X002459Y007242D02*
X002569Y007242D01*
X002569Y007183D02*
X002459Y007183D01*
X002459Y007125D02*
X002569Y007125D01*
X002569Y007066D02*
X002459Y007066D01*
X002459Y007008D02*
X002569Y007008D01*
X002569Y006949D02*
X002459Y006949D01*
X002459Y006891D02*
X002569Y006891D01*
X002573Y006832D02*
X002459Y006832D01*
X002459Y006774D02*
X002631Y006774D01*
X002768Y007080D02*
X002767Y007144D01*
X002966Y007183D02*
X002980Y007183D01*
X003858Y008002D02*
X003872Y008002D01*
X004017Y007849D02*
X004035Y007837D01*
X004261Y008231D02*
X003548Y008943D01*
X003010Y008943D01*
X003200Y008821D02*
X003500Y008821D01*
X003559Y008763D02*
X003200Y008763D01*
X003169Y008704D02*
X003617Y008704D01*
X003676Y008646D02*
X002459Y008646D01*
X002459Y008704D02*
X002551Y008704D01*
X002524Y008763D02*
X002459Y008763D01*
X002459Y008821D02*
X002520Y008821D01*
X002520Y008880D02*
X002459Y008880D01*
X002459Y008938D02*
X002690Y008938D01*
X002690Y008880D02*
X002730Y008880D01*
X002730Y008821D02*
X002690Y008821D01*
X002690Y008763D02*
X002730Y008763D01*
X002730Y008704D02*
X002690Y008704D01*
X002459Y008587D02*
X003734Y008587D01*
X003793Y008529D02*
X002459Y008529D01*
X002459Y008997D02*
X002520Y008997D01*
X002520Y009055D02*
X002459Y009055D01*
X002459Y009114D02*
X002521Y009114D01*
X002544Y009172D02*
X002459Y009172D01*
X002459Y009231D02*
X002633Y009231D01*
X002690Y009231D02*
X002730Y009231D01*
X002788Y009231D02*
X002900Y009231D01*
X002813Y009289D02*
X002459Y009289D01*
X002459Y009348D02*
X002755Y009348D01*
X002696Y009406D02*
X002459Y009406D01*
X002459Y009465D02*
X002647Y009465D01*
X002647Y009523D02*
X002459Y009523D01*
X002459Y009582D02*
X002647Y009582D01*
X002526Y009640D02*
X002459Y009640D01*
X002459Y009699D02*
X002500Y009699D01*
X002500Y009757D02*
X002459Y009757D01*
X002459Y009816D02*
X002500Y009816D01*
X002500Y009874D02*
X002459Y009874D01*
X002459Y009933D02*
X002500Y009933D01*
X002532Y009991D02*
X002459Y009991D01*
X002459Y010050D02*
X003338Y010050D01*
X003338Y010040D02*
X003234Y010040D01*
X003234Y009842D01*
X003234Y009782D01*
X003234Y009584D01*
X003350Y009584D01*
X003386Y009594D01*
X003417Y009612D01*
X003443Y009638D01*
X003462Y009670D01*
X003471Y009706D01*
X003471Y009782D01*
X003234Y009782D01*
X003174Y009782D01*
X003174Y009584D01*
X003058Y009584D01*
X003023Y009594D01*
X002991Y009612D01*
X002985Y009618D01*
X002952Y009584D01*
X002887Y009584D01*
X002887Y009555D01*
X002941Y009501D01*
X003348Y009501D01*
X003418Y009430D01*
X003418Y009430D01*
X004143Y008705D01*
X004621Y008705D01*
X004621Y008790D01*
X004703Y008872D01*
X004729Y008872D01*
X004682Y008919D01*
X004682Y009093D01*
X004747Y009158D01*
X004736Y009158D01*
X004704Y009190D01*
X004673Y009158D01*
X004539Y009158D01*
X004507Y009190D01*
X004476Y009158D01*
X004342Y009158D01*
X004310Y009190D01*
X004307Y009186D01*
X004275Y009168D01*
X004239Y009158D01*
X004212Y009158D01*
X004212Y009406D01*
X004212Y009406D01*
X004212Y009653D01*
X004239Y009653D01*
X004275Y009644D01*
X004307Y009625D01*
X004310Y009622D01*
X004342Y009653D01*
X004476Y009653D01*
X004507Y009622D01*
X004539Y009653D01*
X004673Y009653D01*
X004704Y009622D01*
X004736Y009653D01*
X004870Y009653D01*
X004901Y009622D01*
X004933Y009653D01*
X005066Y009653D01*
X005098Y009622D01*
X005129Y009653D01*
X005244Y009653D01*
X005244Y009768D01*
X005276Y009799D01*
X005244Y009831D01*
X005244Y009965D01*
X005276Y009996D01*
X005244Y010028D01*
X005244Y010162D01*
X005276Y010193D01*
X005244Y010225D01*
X004991Y010225D01*
X004991Y010167D02*
X005249Y010167D01*
X005244Y010225D02*
X005244Y010359D01*
X005276Y010390D01*
X005272Y010394D01*
X005254Y010425D01*
X005244Y010461D01*
X005244Y010488D01*
X005492Y010488D01*
X005492Y010488D01*
X005739Y010488D01*
X005739Y010461D01*
X005729Y010425D01*
X005721Y010412D01*
X005815Y010412D01*
X006022Y010618D01*
X006092Y010688D01*
X006158Y010688D01*
X006158Y010754D01*
X006191Y010787D01*
X006174Y010804D01*
X006166Y010796D01*
X005992Y010796D01*
X005902Y010886D01*
X005727Y010886D01*
X005727Y010825D01*
X005696Y010795D01*
X005739Y010752D01*
X005739Y010618D01*
X005708Y010587D01*
X005711Y010583D01*
X005729Y010551D01*
X005739Y010516D01*
X005739Y010488D01*
X005492Y010488D01*
X005237Y010488D01*
X005329Y010490D01*
X005244Y010488D02*
X005492Y010488D01*
X005492Y010488D01*
X005492Y010685D02*
X005492Y010887D01*
X005517Y010912D01*
X005727Y010869D02*
X005919Y010869D01*
X005978Y010810D02*
X005712Y010810D01*
X005739Y010752D02*
X006158Y010752D01*
X006158Y010693D02*
X005739Y010693D01*
X005739Y010635D02*
X006038Y010635D01*
X005980Y010576D02*
X005715Y010576D01*
X005739Y010518D02*
X005921Y010518D01*
X005863Y010459D02*
X005739Y010459D01*
X005865Y010292D02*
X006142Y010568D01*
X006386Y010568D01*
X006199Y010342D02*
X006085Y010342D01*
X006027Y010284D02*
X007730Y010284D01*
X007730Y010342D02*
X007085Y010342D01*
X007097Y010355D02*
X007116Y010387D01*
X007125Y010422D01*
X007125Y010538D01*
X006928Y010538D01*
X006928Y010598D01*
X007125Y010598D01*
X007125Y010714D01*
X007116Y010750D01*
X007097Y010781D01*
X007092Y010787D01*
X007097Y010792D01*
X007116Y010824D01*
X007125Y010860D01*
X007125Y010976D01*
X006928Y010976D01*
X006928Y011036D01*
X007125Y011036D01*
X007125Y011152D01*
X007116Y011187D01*
X007097Y011219D01*
X007071Y011245D01*
X007040Y011263D01*
X007004Y011273D01*
X006928Y011273D01*
X006928Y011036D01*
X006868Y011036D01*
X006868Y011273D01*
X006791Y011273D01*
X006755Y011263D01*
X006724Y011245D01*
X006698Y011219D01*
X006679Y011187D01*
X006670Y011152D01*
X006670Y011036D01*
X006868Y011036D01*
X006868Y010976D01*
X006928Y010976D01*
X006928Y010739D01*
X006928Y010598D01*
X006868Y010598D01*
X006868Y010976D01*
X006670Y010976D01*
X006670Y010860D01*
X006679Y010824D01*
X006698Y010792D01*
X006703Y010787D01*
X006698Y010781D01*
X006679Y010750D01*
X006670Y010714D01*
X006670Y010598D01*
X006868Y010598D01*
X006868Y010538D01*
X006928Y010538D01*
X006928Y010301D01*
X007004Y010301D01*
X007040Y010311D01*
X007071Y010329D01*
X007097Y010355D01*
X007120Y010401D02*
X007730Y010401D01*
X007730Y010459D02*
X007125Y010459D01*
X007125Y010518D02*
X007730Y010518D01*
X007730Y010576D02*
X006928Y010576D01*
X006928Y010518D02*
X006868Y010518D01*
X006868Y010538D02*
X006868Y010301D01*
X006791Y010301D01*
X006755Y010311D01*
X006724Y010329D01*
X006698Y010355D01*
X006679Y010387D01*
X006670Y010422D01*
X006670Y010538D01*
X006868Y010538D01*
X006868Y010576D02*
X006614Y010576D01*
X006614Y010518D02*
X006670Y010518D01*
X006670Y010459D02*
X006614Y010459D01*
X006614Y010401D02*
X006676Y010401D01*
X006710Y010342D02*
X006573Y010342D01*
X006418Y010167D02*
X006822Y010167D01*
X006780Y010108D02*
X006483Y010108D01*
X006503Y010050D02*
X006766Y010050D01*
X006707Y009991D02*
X006503Y009991D01*
X006503Y009874D02*
X006590Y009874D01*
X006532Y009816D02*
X006495Y009816D01*
X006522Y009757D02*
X006457Y009757D01*
X006522Y009699D02*
X006039Y009699D01*
X006025Y009640D02*
X006011Y009640D01*
X005968Y009582D02*
X005952Y009582D01*
X005968Y009523D02*
X005734Y009523D01*
X005706Y009582D02*
X005687Y009582D01*
X005550Y009523D02*
X005345Y009523D01*
X005345Y009465D02*
X005491Y009465D01*
X005433Y009406D02*
X005345Y009406D01*
X005345Y009348D02*
X005432Y009348D01*
X005432Y009289D02*
X005345Y009289D01*
X005336Y009231D02*
X005384Y009231D01*
X005326Y009172D02*
X005277Y009172D01*
X005267Y009114D02*
X005081Y009114D01*
X005080Y009172D02*
X005115Y009172D01*
X005106Y009055D02*
X005231Y009055D01*
X005231Y008997D02*
X005164Y008997D01*
X005223Y008938D02*
X005231Y008938D01*
X005154Y008837D02*
X004985Y009006D01*
X004892Y009006D01*
X004721Y008880D02*
X003969Y008880D01*
X004027Y008821D02*
X004652Y008821D01*
X004621Y008763D02*
X004086Y008763D01*
X003910Y008938D02*
X004682Y008938D01*
X004682Y008997D02*
X003852Y008997D01*
X003793Y009055D02*
X004682Y009055D01*
X004703Y009114D02*
X003735Y009114D01*
X003676Y009172D02*
X003803Y009172D01*
X003745Y009231D02*
X003618Y009231D01*
X003559Y009289D02*
X003686Y009289D01*
X003682Y009348D02*
X003501Y009348D01*
X003442Y009406D02*
X003682Y009406D01*
X003682Y009465D02*
X003384Y009465D01*
X003298Y009381D02*
X002892Y009381D01*
X002767Y009506D01*
X002767Y009812D01*
X002887Y009582D02*
X003722Y009582D01*
X003737Y009523D02*
X002919Y009523D01*
X003174Y009640D02*
X003234Y009640D01*
X003234Y009699D02*
X003174Y009699D01*
X003174Y009757D02*
X003234Y009757D01*
X003234Y009816D02*
X003631Y009816D01*
X003669Y009757D02*
X003471Y009757D01*
X003469Y009699D02*
X003669Y009699D01*
X003669Y009640D02*
X003444Y009640D01*
X003298Y009381D02*
X004094Y008585D01*
X004761Y008585D01*
X004621Y008412D02*
X004249Y008412D01*
X004261Y008231D02*
X004406Y008231D01*
X004628Y008353D02*
X004648Y008353D01*
X004687Y008295D02*
X006418Y008295D01*
X006403Y008236D02*
X004693Y008236D01*
X004693Y008178D02*
X006412Y008178D01*
X006431Y008119D02*
X004665Y008119D01*
X004693Y008061D02*
X006403Y008061D01*
X006403Y008002D02*
X004693Y008002D01*
X004661Y007944D02*
X006435Y007944D01*
X006403Y007885D02*
X004693Y007885D01*
X004693Y007827D02*
X006403Y007827D01*
X006414Y007768D02*
X004682Y007768D01*
X004681Y007710D02*
X006415Y007710D01*
X006403Y007651D02*
X004693Y007651D01*
X004693Y007593D02*
X006403Y007593D01*
X006436Y007534D02*
X004660Y007534D01*
X004693Y007476D02*
X006403Y007476D01*
X006403Y007417D02*
X004693Y007417D01*
X004666Y007359D02*
X006430Y007359D01*
X006403Y007300D02*
X004693Y007300D01*
X004693Y007242D02*
X006403Y007242D01*
X006408Y007183D02*
X004688Y007183D01*
X004675Y007125D02*
X006420Y007125D01*
X006403Y007066D02*
X004693Y007066D01*
X004693Y007008D02*
X006403Y007008D01*
X006442Y006949D02*
X004654Y006949D01*
X004688Y006891D02*
X006403Y006891D01*
X006403Y006832D02*
X004692Y006832D01*
X004735Y006798D02*
X004720Y006658D01*
X004693Y006657D02*
X006403Y006657D01*
X006403Y006715D02*
X004680Y006715D01*
X004669Y006774D02*
X006424Y006774D01*
X006403Y006598D02*
X004681Y006598D01*
X004684Y006602D02*
X004693Y006637D01*
X004693Y006656D01*
X004406Y006656D01*
X004437Y006647D01*
X004423Y006506D01*
X004406Y006517D02*
X004572Y006517D01*
X004608Y006526D01*
X004639Y006544D01*
X004665Y006570D01*
X004684Y006602D01*
X004654Y006540D02*
X004631Y006540D01*
X004454Y006658D02*
X004377Y006626D01*
X004406Y006656D01*
X004406Y006656D01*
X004406Y006656D01*
X004406Y006517D01*
X004406Y006540D02*
X004406Y006540D01*
X004406Y006598D02*
X004406Y006598D01*
X004406Y006657D02*
X004406Y006657D01*
X004406Y006715D02*
X004406Y006715D01*
X004406Y006774D02*
X004406Y006774D01*
X004406Y006832D02*
X004406Y006832D01*
X004735Y006798D02*
X004735Y006974D01*
X005548Y008353D02*
X005548Y008353D01*
X005548Y008412D02*
X005548Y008412D01*
X005548Y008470D02*
X005548Y008470D01*
X005548Y008529D02*
X005548Y008529D01*
X005548Y008587D02*
X005548Y008587D01*
X005548Y008646D02*
X005548Y008646D01*
X005548Y008704D02*
X005548Y008704D01*
X005548Y008763D02*
X005548Y008763D01*
X005548Y008821D02*
X005548Y008821D01*
X005471Y008880D02*
X005627Y008880D01*
X005686Y008938D02*
X005471Y008938D01*
X005490Y008997D02*
X005744Y008997D01*
X005803Y009055D02*
X005548Y009055D01*
X005734Y009114D02*
X005861Y009114D01*
X005920Y009172D02*
X005793Y009172D01*
X005851Y009231D02*
X005978Y009231D01*
X005970Y009289D02*
X005852Y009289D01*
X005852Y009348D02*
X005968Y009348D01*
X005968Y009406D02*
X005851Y009406D01*
X005792Y009465D02*
X005968Y009465D01*
X006235Y009437D02*
X006235Y009318D01*
X005745Y008828D01*
X005745Y008585D01*
X005942Y008585D02*
X005942Y008837D01*
X006173Y009068D01*
X006517Y009068D01*
X006642Y009193D01*
X006642Y009756D01*
X006829Y009943D01*
X007169Y009943D01*
X007204Y009978D01*
X007174Y009733D02*
X006901Y009733D01*
X006865Y009724D01*
X006833Y009706D01*
X006807Y009680D01*
X006789Y009648D01*
X006780Y009612D01*
X006780Y009536D01*
X007174Y009536D01*
X007174Y009733D01*
X007174Y009699D02*
X007234Y009699D01*
X007234Y009733D02*
X007234Y009536D01*
X007174Y009536D01*
X007174Y009476D01*
X006780Y009476D01*
X006780Y009399D01*
X006789Y009364D01*
X006807Y009332D01*
X006833Y009306D01*
X006865Y009287D01*
X006901Y009278D01*
X007174Y009278D01*
X007174Y009476D01*
X007234Y009476D01*
X007234Y009536D01*
X007629Y009536D01*
X007629Y009612D01*
X007619Y009648D01*
X007601Y009680D01*
X007575Y009706D01*
X007543Y009724D01*
X007508Y009733D01*
X007234Y009733D01*
X007234Y009640D02*
X007174Y009640D01*
X007174Y009582D02*
X007234Y009582D01*
X007234Y009523D02*
X007730Y009523D01*
X007730Y009465D02*
X007629Y009465D01*
X007629Y009476D02*
X007629Y009399D01*
X007619Y009364D01*
X007601Y009332D01*
X007575Y009306D01*
X007543Y009287D01*
X007508Y009278D01*
X007234Y009278D01*
X007234Y009476D01*
X007629Y009476D01*
X007629Y009406D02*
X007730Y009406D01*
X007730Y009348D02*
X007610Y009348D01*
X007546Y009289D02*
X007730Y009289D01*
X007730Y009231D02*
X007577Y009231D01*
X007629Y009172D02*
X007730Y009172D01*
X007730Y009114D02*
X007629Y009114D01*
X007629Y009055D02*
X007730Y009055D01*
X007730Y008997D02*
X007629Y008997D01*
X007629Y008938D02*
X007730Y008938D01*
X007730Y008880D02*
X007621Y008880D01*
X007563Y008821D02*
X007730Y008821D01*
X007730Y008763D02*
X007119Y008763D01*
X007178Y008704D02*
X007730Y008704D01*
X007730Y008646D02*
X007227Y008646D01*
X007227Y008587D02*
X007730Y008587D01*
X007730Y008529D02*
X007268Y008529D01*
X007017Y008568D02*
X007000Y008585D01*
X007020Y008353D02*
X006903Y008353D01*
X006876Y008412D02*
X006475Y008412D01*
X006476Y008353D02*
X006448Y008353D01*
X006690Y008353D02*
X006690Y008353D01*
X006690Y008295D02*
X006690Y008295D01*
X006690Y008034D02*
X006895Y008034D01*
X006985Y007943D01*
X006985Y007474D01*
X007110Y007349D01*
X007392Y007068D01*
X007392Y007093D01*
X007329Y007300D02*
X007730Y007300D01*
X007730Y007242D02*
X007641Y007242D01*
X007682Y007183D02*
X007730Y007183D01*
X007730Y007125D02*
X007682Y007125D01*
X007682Y007066D02*
X007730Y007066D01*
X007730Y007008D02*
X007682Y007008D01*
X007646Y006949D02*
X007730Y006949D01*
X007730Y006891D02*
X007682Y006891D01*
X007682Y006832D02*
X007730Y006832D01*
X007730Y006774D02*
X007682Y006774D01*
X007682Y006715D02*
X007730Y006715D01*
X007730Y006657D02*
X007653Y006657D01*
X007730Y006598D02*
X007512Y006598D01*
X007512Y006540D02*
X007730Y006540D01*
X007730Y006481D02*
X007512Y006481D01*
X007581Y006423D02*
X007730Y006423D01*
X007730Y006364D02*
X007640Y006364D01*
X007659Y006306D02*
X007730Y006306D01*
X007730Y006247D02*
X007659Y006247D01*
X007659Y006189D02*
X007730Y006189D01*
X007730Y006130D02*
X007659Y006130D01*
X007659Y006072D02*
X007730Y006072D01*
X007448Y006193D02*
X007392Y006199D01*
X007392Y006793D01*
X007272Y006598D02*
X006976Y006598D01*
X006976Y006657D02*
X007130Y006657D01*
X007102Y006715D02*
X006976Y006715D01*
X006955Y006774D02*
X007102Y006774D01*
X007102Y006832D02*
X006976Y006832D01*
X006976Y006891D02*
X007102Y006891D01*
X007138Y006949D02*
X006938Y006949D01*
X006976Y007008D02*
X007102Y007008D01*
X007102Y007066D02*
X006976Y007066D01*
X006959Y007125D02*
X007102Y007125D01*
X006980Y007183D02*
X006971Y007183D01*
X007281Y007476D02*
X007730Y007476D01*
X007730Y007534D02*
X007578Y007534D01*
X007573Y007531D02*
X007605Y007550D01*
X007631Y007576D01*
X007649Y007608D01*
X007659Y007643D01*
X007659Y007720D01*
X007422Y007720D01*
X007422Y007522D01*
X007538Y007522D01*
X007573Y007531D01*
X007641Y007593D02*
X007730Y007593D01*
X007730Y007651D02*
X007659Y007651D01*
X007659Y007710D02*
X007730Y007710D01*
X007730Y007768D02*
X007422Y007768D01*
X007422Y007710D02*
X007362Y007710D01*
X007362Y007768D02*
X007105Y007768D01*
X007105Y007710D02*
X007125Y007710D01*
X007125Y007651D02*
X007105Y007651D01*
X007105Y007593D02*
X007143Y007593D01*
X007362Y007593D02*
X007422Y007593D01*
X007422Y007651D02*
X007362Y007651D01*
X007362Y007534D02*
X007422Y007534D01*
X007320Y007417D02*
X007730Y007417D01*
X007730Y007359D02*
X007320Y007359D01*
X007362Y007827D02*
X007422Y007827D01*
X007422Y007885D02*
X007362Y007885D01*
X007362Y007944D02*
X007422Y007944D01*
X007611Y007944D02*
X007730Y007944D01*
X007730Y008002D02*
X007096Y008002D01*
X007105Y007944D02*
X007172Y007944D01*
X007132Y007885D02*
X007105Y007885D01*
X007105Y007827D02*
X007125Y007827D01*
X007179Y008061D02*
X007038Y008061D01*
X006979Y008119D02*
X007125Y008119D01*
X007125Y008178D02*
X006967Y008178D01*
X006976Y008236D02*
X007125Y008236D01*
X007078Y008295D02*
X006961Y008295D01*
X006914Y008763D02*
X006475Y008763D01*
X006444Y008821D02*
X006846Y008821D01*
X006787Y008880D02*
X006748Y008880D01*
X006642Y008943D02*
X006704Y009006D01*
X007177Y009006D01*
X007204Y009033D01*
X007174Y009289D02*
X007234Y009289D01*
X007234Y009348D02*
X007174Y009348D01*
X007174Y009406D02*
X007234Y009406D01*
X007234Y009465D02*
X007174Y009465D01*
X007174Y009523D02*
X006762Y009523D01*
X006762Y009465D02*
X006780Y009465D01*
X006780Y009406D02*
X006762Y009406D01*
X006762Y009348D02*
X006798Y009348D01*
X006762Y009289D02*
X006862Y009289D01*
X006831Y009231D02*
X006762Y009231D01*
X006762Y009172D02*
X006780Y009172D01*
X006642Y008943D02*
X006235Y008943D01*
X006138Y008846D01*
X006138Y008585D01*
X006442Y009231D02*
X006509Y009231D01*
X006501Y009289D02*
X006522Y009289D01*
X006522Y009348D02*
X006503Y009348D01*
X006503Y009406D02*
X006522Y009406D01*
X006522Y009465D02*
X006503Y009465D01*
X006503Y009523D02*
X006522Y009523D01*
X006522Y009582D02*
X006503Y009582D01*
X006522Y009640D02*
X006446Y009640D01*
X006265Y009757D02*
X006205Y009757D01*
X006205Y009816D02*
X006265Y009816D01*
X006265Y009874D02*
X006205Y009874D01*
X006265Y009933D02*
X006649Y009933D01*
X006813Y009757D02*
X006854Y009757D01*
X006827Y009699D02*
X006762Y009699D01*
X006762Y009640D02*
X006787Y009640D01*
X006780Y009582D02*
X006762Y009582D01*
X006265Y009991D02*
X006205Y009991D01*
X006205Y010050D02*
X006265Y010050D01*
X006265Y010108D02*
X006205Y010108D01*
X006205Y010167D02*
X006265Y010167D01*
X006053Y010167D02*
X006028Y010167D01*
X005969Y010225D02*
X007730Y010225D01*
X007730Y010167D02*
X007586Y010167D01*
X007629Y010108D02*
X007730Y010108D01*
X007730Y010050D02*
X007629Y010050D01*
X007629Y009991D02*
X007730Y009991D01*
X007730Y009933D02*
X007629Y009933D01*
X007629Y009874D02*
X007730Y009874D01*
X007730Y009816D02*
X007612Y009816D01*
X007554Y009757D02*
X007730Y009757D01*
X007730Y009699D02*
X007582Y009699D01*
X007621Y009640D02*
X007730Y009640D01*
X007730Y009582D02*
X007629Y009582D01*
X006928Y010342D02*
X006868Y010342D01*
X006868Y010401D02*
X006928Y010401D01*
X006928Y010459D02*
X006868Y010459D01*
X006868Y010635D02*
X006928Y010635D01*
X006928Y010693D02*
X006868Y010693D01*
X006868Y010752D02*
X006928Y010752D01*
X006928Y010810D02*
X006868Y010810D01*
X006868Y010869D02*
X006928Y010869D01*
X006928Y010927D02*
X006868Y010927D01*
X006868Y010986D02*
X006614Y010986D01*
X006614Y011044D02*
X006670Y011044D01*
X006670Y011103D02*
X006614Y011103D01*
X006614Y011161D02*
X006672Y011161D01*
X006698Y011220D02*
X006585Y011220D01*
X006386Y011006D02*
X006079Y011006D01*
X005735Y011006D01*
X005610Y011131D01*
X005423Y011131D01*
X005273Y010981D01*
X005196Y010981D01*
X005098Y010765D02*
X005129Y010733D01*
X005244Y010733D01*
X005244Y010618D01*
X005276Y010587D01*
X005272Y010583D01*
X005254Y010551D01*
X005244Y010516D01*
X005244Y010488D01*
X005245Y010459D02*
X004959Y010459D01*
X004938Y010480D02*
X004991Y010427D01*
X004991Y009959D01*
X004938Y009906D01*
X004470Y009906D01*
X004417Y009959D01*
X004417Y010427D01*
X004470Y010480D01*
X004938Y010480D01*
X004991Y010401D02*
X005268Y010401D01*
X005244Y010342D02*
X004991Y010342D01*
X004991Y010284D02*
X005244Y010284D01*
X005244Y010108D02*
X004991Y010108D01*
X004991Y010050D02*
X005244Y010050D01*
X005270Y009991D02*
X004991Y009991D01*
X004965Y009933D02*
X005244Y009933D01*
X005244Y009874D02*
X004164Y009874D01*
X004164Y009933D02*
X004444Y009933D01*
X004417Y009991D02*
X004138Y009991D01*
X004164Y010050D02*
X004417Y010050D01*
X004417Y010108D02*
X004164Y010108D01*
X004164Y010284D02*
X004417Y010284D01*
X004417Y010342D02*
X004164Y010342D01*
X004143Y010401D02*
X004417Y010401D01*
X004449Y010459D02*
X004164Y010459D01*
X004164Y010518D02*
X005245Y010518D01*
X005268Y010576D02*
X004143Y010576D01*
X004164Y010635D02*
X005244Y010635D01*
X005244Y010693D02*
X004164Y010693D01*
X004212Y010733D02*
X004239Y010733D01*
X004275Y010743D01*
X004307Y010761D01*
X004310Y010765D01*
X004342Y010733D01*
X004476Y010733D01*
X004507Y010765D01*
X004539Y010733D01*
X004673Y010733D01*
X004704Y010765D01*
X004736Y010733D01*
X004870Y010733D01*
X004901Y010765D01*
X004933Y010733D01*
X005066Y010733D01*
X005098Y010765D01*
X005085Y010752D02*
X005111Y010752D01*
X004914Y010752D02*
X004888Y010752D01*
X004717Y010752D02*
X004691Y010752D01*
X004520Y010752D02*
X004494Y010752D01*
X004323Y010752D02*
X004291Y010752D01*
X004220Y010771D02*
X004204Y010787D01*
X004204Y010974D01*
X004212Y010981D02*
X004063Y010981D01*
X004063Y010855D01*
X004068Y010834D01*
X003751Y010834D01*
X003669Y010752D01*
X003669Y010618D01*
X003679Y010608D01*
X003668Y010608D01*
X003498Y010438D01*
X003471Y010438D01*
X003471Y010470D01*
X003390Y010552D01*
X003019Y010552D01*
X002985Y010519D01*
X002952Y010552D01*
X002887Y010552D01*
X002887Y010758D01*
X002949Y010758D01*
X003031Y010840D01*
X003031Y011171D01*
X002949Y011253D01*
X002619Y011253D01*
X002536Y011171D01*
X002536Y010840D01*
X002619Y010758D01*
X002647Y010758D01*
X002647Y010552D01*
X002581Y010552D01*
X002500Y010470D01*
X002500Y010178D01*
X002581Y010096D01*
X002952Y010096D01*
X002985Y010130D01*
X003019Y010096D01*
X003338Y010096D01*
X003338Y010040D01*
X003234Y009991D02*
X003174Y009991D01*
X003174Y009933D02*
X003234Y009933D01*
X003234Y009874D02*
X003174Y009874D01*
X003007Y010108D02*
X002964Y010108D01*
X002767Y010324D02*
X002767Y011085D01*
X002784Y011006D01*
X002536Y010986D02*
X002459Y010986D01*
X002459Y011044D02*
X002536Y011044D01*
X002536Y011103D02*
X002462Y011103D01*
X002479Y011161D02*
X002536Y011161D01*
X002503Y011220D02*
X002585Y011220D01*
X002562Y011278D02*
X007627Y011278D01*
X007685Y011220D02*
X007097Y011220D01*
X007123Y011161D02*
X007710Y011161D01*
X007727Y011103D02*
X007125Y011103D01*
X007125Y011044D02*
X007730Y011044D01*
X007730Y010986D02*
X006928Y010986D01*
X006928Y011044D02*
X006868Y011044D01*
X006868Y011103D02*
X006928Y011103D01*
X006928Y011161D02*
X006868Y011161D01*
X006868Y011220D02*
X006928Y011220D01*
X007125Y010927D02*
X007730Y010927D01*
X007730Y010869D02*
X007125Y010869D01*
X007108Y010810D02*
X007730Y010810D01*
X007730Y010752D02*
X007115Y010752D01*
X007125Y010693D02*
X007730Y010693D01*
X007730Y010635D02*
X007125Y010635D01*
X006670Y010635D02*
X006614Y010635D01*
X006614Y010693D02*
X006670Y010693D01*
X006680Y010752D02*
X006614Y010752D01*
X006603Y010810D02*
X006687Y010810D01*
X006670Y010869D02*
X006614Y010869D01*
X006614Y010927D02*
X006670Y010927D01*
X006187Y011220D02*
X005691Y011220D01*
X005750Y011161D02*
X005938Y011161D01*
X005342Y011220D02*
X005272Y011220D01*
X005121Y011220D02*
X005075Y011220D01*
X004924Y011220D02*
X004878Y011220D01*
X004727Y011220D02*
X004681Y011220D01*
X004530Y011220D02*
X004484Y011220D01*
X004334Y011220D02*
X004271Y011220D01*
X004212Y011220D02*
X004212Y011220D01*
X004154Y011220D02*
X003573Y011220D01*
X003568Y011225D02*
X003536Y011244D01*
X003500Y011253D01*
X003404Y011253D01*
X003404Y011036D01*
X003344Y011036D01*
X003344Y010976D01*
X003127Y010976D01*
X003127Y010880D01*
X003137Y010844D01*
X003155Y010812D01*
X003181Y010786D01*
X003213Y010768D01*
X003249Y010758D01*
X003344Y010758D01*
X003344Y010976D01*
X003404Y010976D01*
X003404Y010758D01*
X003500Y010758D01*
X003536Y010768D01*
X003568Y010786D01*
X003594Y010812D01*
X003612Y010844D01*
X003622Y010880D01*
X003622Y010976D01*
X003404Y010976D01*
X003404Y011036D01*
X003622Y011036D01*
X003622Y011131D01*
X003612Y011167D01*
X003594Y011199D01*
X003568Y011225D01*
X003614Y011161D02*
X004084Y011161D01*
X004063Y011103D02*
X003622Y011103D01*
X003622Y011044D02*
X004063Y011044D01*
X004063Y010986D02*
X003404Y010986D01*
X003404Y011044D02*
X003344Y011044D01*
X003344Y011036D02*
X003344Y011253D01*
X003249Y011253D01*
X003213Y011244D01*
X003181Y011225D01*
X003155Y011199D01*
X003137Y011167D01*
X003127Y011131D01*
X003127Y011036D01*
X003344Y011036D01*
X003344Y010986D02*
X003031Y010986D01*
X003031Y011044D02*
X003127Y011044D01*
X003127Y011103D02*
X003031Y011103D01*
X003031Y011161D02*
X003135Y011161D01*
X003176Y011220D02*
X002983Y011220D01*
X002717Y011337D02*
X007472Y011337D01*
X006158Y010401D02*
X006144Y010401D01*
X005865Y010292D02*
X005492Y010292D01*
X005492Y010095D02*
X005803Y010095D01*
X005829Y010068D01*
X005687Y009898D02*
X005829Y009756D01*
X005687Y009898D02*
X005492Y009898D01*
X005259Y009816D02*
X004149Y009816D01*
X004164Y009757D02*
X005244Y009757D01*
X005244Y009699D02*
X004164Y009699D01*
X004212Y009640D02*
X004212Y009640D01*
X004212Y009582D02*
X004212Y009582D01*
X004212Y009523D02*
X004212Y009523D01*
X004212Y009465D02*
X004212Y009465D01*
X004212Y009406D02*
X004212Y009406D01*
X004212Y009348D02*
X004212Y009348D01*
X004212Y009289D02*
X004212Y009289D01*
X004212Y009231D02*
X004212Y009231D01*
X004212Y009172D02*
X004212Y009172D01*
X004142Y009172D02*
X003980Y009172D01*
X004039Y009231D02*
X004080Y009231D01*
X003917Y009406D02*
X003892Y009381D01*
X003917Y009406D02*
X003917Y009701D01*
X003917Y009898D02*
X003718Y009898D01*
X003548Y010068D01*
X003548Y010318D02*
X003210Y010318D01*
X003204Y010324D01*
X003424Y010518D02*
X003578Y010518D01*
X003636Y010576D02*
X002887Y010576D01*
X002887Y010635D02*
X003669Y010635D01*
X003669Y010693D02*
X002887Y010693D01*
X002887Y010752D02*
X003669Y010752D01*
X003727Y010810D02*
X003592Y010810D01*
X003619Y010869D02*
X004063Y010869D01*
X004063Y010927D02*
X003622Y010927D01*
X003404Y010927D02*
X003344Y010927D01*
X003344Y010869D02*
X003404Y010869D01*
X003404Y010810D02*
X003344Y010810D01*
X003157Y010810D02*
X003001Y010810D01*
X003031Y010869D02*
X003130Y010869D01*
X003127Y010927D02*
X003031Y010927D01*
X003344Y011103D02*
X003404Y011103D01*
X003404Y011161D02*
X003344Y011161D01*
X003344Y011220D02*
X003404Y011220D01*
X003718Y010488D02*
X003548Y010318D01*
X003519Y010459D02*
X003471Y010459D01*
X003718Y010488D02*
X003917Y010488D01*
X004212Y010733D02*
X004212Y010981D01*
X004212Y010981D01*
X004212Y010981D01*
X004212Y010986D02*
X004212Y010986D01*
X004212Y011044D02*
X004212Y011044D01*
X004212Y011103D02*
X004212Y011103D01*
X004212Y011161D02*
X004212Y011161D01*
X004212Y010927D02*
X004212Y010927D01*
X004212Y010869D02*
X004212Y010869D01*
X004212Y010810D02*
X004212Y010810D01*
X004212Y010752D02*
X004212Y010752D01*
X004281Y009640D02*
X004329Y009640D01*
X004489Y009640D02*
X004526Y009640D01*
X004686Y009640D02*
X004723Y009640D01*
X004883Y009640D02*
X004919Y009640D01*
X005079Y009640D02*
X005116Y009640D01*
X004722Y009172D02*
X004687Y009172D01*
X004525Y009172D02*
X004490Y009172D01*
X004328Y009172D02*
X004283Y009172D01*
X003441Y008412D02*
X003395Y008412D01*
X003395Y009114D02*
X003200Y009114D01*
X003179Y009172D02*
X003337Y009172D01*
X003278Y009231D02*
X003121Y009231D01*
X002730Y009172D02*
X002690Y009172D01*
X002690Y009114D02*
X002730Y009114D01*
X002730Y009055D02*
X002690Y009055D01*
X002690Y008997D02*
X002730Y008997D01*
X002569Y010108D02*
X002459Y010108D01*
X002459Y010167D02*
X002511Y010167D01*
X002500Y010225D02*
X002459Y010225D01*
X002459Y010284D02*
X002500Y010284D01*
X002500Y010342D02*
X002459Y010342D01*
X002459Y010401D02*
X002500Y010401D01*
X002500Y010459D02*
X002459Y010459D01*
X002459Y010518D02*
X002547Y010518D01*
X002459Y010576D02*
X002647Y010576D01*
X002647Y010635D02*
X002459Y010635D01*
X002459Y010693D02*
X002647Y010693D01*
X002647Y010752D02*
X002459Y010752D01*
X002459Y010810D02*
X002567Y010810D01*
X002536Y010869D02*
X002459Y010869D01*
X002459Y010927D02*
X002536Y010927D01*
X005154Y008837D02*
X005154Y008585D01*
X005351Y008585D02*
X005351Y009028D01*
X005642Y009318D01*
X007596Y008470D02*
X007730Y008470D01*
X007730Y008412D02*
X007655Y008412D01*
X007659Y008353D02*
X007730Y008353D01*
X007730Y008295D02*
X007659Y008295D01*
X007659Y008236D02*
X007730Y008236D01*
X007730Y008178D02*
X007659Y008178D01*
X007659Y008119D02*
X007730Y008119D01*
X007730Y008061D02*
X007604Y008061D01*
X007651Y007885D02*
X007730Y007885D01*
X007730Y007827D02*
X007659Y007827D01*
X007272Y006540D02*
X006922Y006540D01*
X006986Y006364D02*
X007144Y006364D01*
X007202Y006423D02*
X006593Y006423D01*
X006652Y006364D02*
X006734Y006364D01*
X006475Y006481D02*
X007272Y006481D01*
X007164Y006013D02*
X006977Y006013D01*
X007139Y005838D02*
X006530Y005838D01*
X006520Y006072D02*
X006450Y006072D01*
X006138Y006072D02*
X006138Y006072D01*
X006138Y006130D02*
X006138Y006130D01*
X006138Y006189D02*
X006138Y006189D01*
X006138Y006247D02*
X006138Y006247D01*
X006138Y006301D02*
X006138Y006588D01*
X006138Y006301D01*
X006138Y006301D01*
X006138Y006306D02*
X006138Y006306D01*
X006138Y006364D02*
X006138Y006364D01*
X006138Y006423D02*
X006138Y006423D01*
X006138Y006481D02*
X006138Y006481D01*
X006138Y006540D02*
X006138Y006540D01*
X006442Y006540D02*
X006458Y006540D01*
X005964Y005489D02*
X005964Y004953D01*
X005954Y004943D01*
X006131Y005136D02*
X006190Y005136D01*
X006328Y005136D02*
X006386Y005136D01*
X006386Y005194D02*
X006328Y005194D01*
X006328Y005253D02*
X006386Y005253D01*
X006386Y005311D02*
X006328Y005311D01*
X006328Y005370D02*
X006386Y005370D01*
X006386Y005428D02*
X006328Y005428D01*
X005402Y005136D02*
X005344Y005136D01*
X005403Y004346D02*
X005403Y004173D01*
X005446Y004129D01*
X005446Y004303D02*
X005359Y004303D01*
D12*
X004851Y003659D02*
X004477Y003659D01*
X004477Y004269D01*
X004851Y004269D01*
X004851Y003659D01*
X004851Y003757D02*
X004477Y003757D01*
X004477Y003855D02*
X004851Y003855D01*
X004851Y003953D02*
X004477Y003953D01*
X004477Y004051D02*
X004851Y004051D01*
X004851Y004149D02*
X004477Y004149D01*
X004477Y004247D02*
X004851Y004247D01*
X004118Y004244D02*
X004118Y003712D01*
X003666Y003712D01*
X003666Y004244D01*
X004118Y004244D01*
X004118Y003810D02*
X003666Y003810D01*
X003666Y003908D02*
X004118Y003908D01*
X004118Y004006D02*
X003666Y004006D01*
X003666Y004104D02*
X004118Y004104D01*
X004118Y004202D02*
X003666Y004202D01*
X003332Y004848D02*
X003332Y005026D01*
X003332Y004848D02*
X003076Y004848D01*
X003076Y005026D01*
X003332Y005026D01*
X003332Y004946D02*
X003076Y004946D01*
X002639Y004860D02*
X002639Y005038D01*
X002895Y005038D01*
X002895Y004860D01*
X002639Y004860D01*
X002639Y004958D02*
X002895Y004958D01*
X002639Y004526D02*
X002639Y004348D01*
X002639Y004526D02*
X002895Y004526D01*
X002895Y004348D01*
X002639Y004348D01*
X002639Y004446D02*
X002895Y004446D01*
X003332Y005360D02*
X003332Y005538D01*
X003332Y005360D02*
X003076Y005360D01*
X003076Y005538D01*
X003332Y005538D01*
X003332Y005458D02*
X003076Y005458D01*
X003666Y005425D02*
X003666Y004893D01*
X003666Y005425D02*
X004118Y005425D01*
X004118Y004893D01*
X003666Y004893D01*
X003666Y004991D02*
X004118Y004991D01*
X004118Y005089D02*
X003666Y005089D01*
X003666Y005187D02*
X004118Y005187D01*
X004118Y005285D02*
X003666Y005285D01*
X003666Y005383D02*
X004118Y005383D01*
X005107Y005233D02*
X005245Y005233D01*
X005107Y005233D02*
X005107Y005745D01*
X005245Y005745D01*
X005245Y005233D01*
X005245Y005331D02*
X005107Y005331D01*
X005107Y005429D02*
X005245Y005429D01*
X005245Y005527D02*
X005107Y005527D01*
X005107Y005625D02*
X005245Y005625D01*
X005245Y005723D02*
X005107Y005723D01*
X005501Y005233D02*
X005639Y005233D01*
X005501Y005233D02*
X005501Y005745D01*
X005639Y005745D01*
X005639Y005233D01*
X005639Y005331D02*
X005501Y005331D01*
X005501Y005429D02*
X005639Y005429D01*
X005639Y005527D02*
X005501Y005527D01*
X005501Y005625D02*
X005639Y005625D01*
X005639Y005723D02*
X005501Y005723D01*
X005895Y005233D02*
X006033Y005233D01*
X005895Y005233D02*
X005895Y005745D01*
X006033Y005745D01*
X006033Y005233D01*
X006033Y005331D02*
X005895Y005331D01*
X005895Y005429D02*
X006033Y005429D01*
X006033Y005527D02*
X005895Y005527D01*
X005895Y005625D02*
X006033Y005625D01*
X006033Y005723D02*
X005895Y005723D01*
X006288Y005233D02*
X006426Y005233D01*
X006288Y005233D02*
X006288Y005745D01*
X006426Y005745D01*
X006426Y005233D01*
X006426Y005331D02*
X006288Y005331D01*
X006288Y005429D02*
X006426Y005429D01*
X006426Y005527D02*
X006288Y005527D01*
X006288Y005625D02*
X006426Y005625D01*
X006426Y005723D02*
X006288Y005723D01*
X007264Y005776D02*
X007264Y005598D01*
X007264Y005776D02*
X007520Y005776D01*
X007520Y005598D01*
X007264Y005598D01*
X007264Y005696D02*
X007520Y005696D01*
X007264Y006110D02*
X007264Y006288D01*
X007520Y006288D01*
X007520Y006110D01*
X007264Y006110D01*
X007264Y006208D02*
X007520Y006208D01*
X007520Y005163D02*
X007520Y004985D01*
X007264Y004985D01*
X007264Y005163D01*
X007520Y005163D01*
X007520Y005083D02*
X007264Y005083D01*
X007520Y004651D02*
X007520Y004473D01*
X007264Y004473D01*
X007264Y004651D01*
X007520Y004651D01*
X007520Y004571D02*
X007264Y004571D01*
X007056Y003659D02*
X006682Y003659D01*
X006682Y004269D01*
X007056Y004269D01*
X007056Y003659D01*
X007056Y003757D02*
X006682Y003757D01*
X006682Y003855D02*
X007056Y003855D01*
X007056Y003953D02*
X006682Y003953D01*
X006682Y004051D02*
X007056Y004051D01*
X007056Y004149D02*
X006682Y004149D01*
X006682Y004247D02*
X007056Y004247D01*
X007264Y007661D02*
X007264Y007839D01*
X007520Y007839D01*
X007520Y007661D01*
X007264Y007661D01*
X007264Y007759D02*
X007520Y007759D01*
X007264Y008173D02*
X007264Y008351D01*
X007520Y008351D01*
X007520Y008173D01*
X007264Y008173D01*
X007264Y008271D02*
X007520Y008271D01*
X007489Y008944D02*
X007489Y009122D01*
X007489Y008944D02*
X006919Y008944D01*
X006919Y009122D01*
X007489Y009122D01*
X007489Y009042D02*
X006919Y009042D01*
X007489Y009417D02*
X007489Y009595D01*
X007489Y009417D02*
X006919Y009417D01*
X006919Y009595D01*
X007489Y009595D01*
X007489Y009515D02*
X006919Y009515D01*
X007489Y009889D02*
X007489Y010067D01*
X007489Y009889D02*
X006919Y009889D01*
X006919Y010067D01*
X007489Y010067D01*
X007489Y009987D02*
X006919Y009987D01*
X006987Y010440D02*
X006809Y010440D01*
X006809Y010696D01*
X006987Y010696D01*
X006987Y010440D01*
X006987Y010538D02*
X006809Y010538D01*
X006809Y010636D02*
X006987Y010636D01*
X006987Y010878D02*
X006809Y010878D01*
X006809Y011134D01*
X006987Y011134D01*
X006987Y010878D01*
X006987Y010976D02*
X006809Y010976D01*
X006809Y011074D02*
X006987Y011074D01*
X006475Y010878D02*
X006297Y010878D01*
X006297Y011134D01*
X006475Y011134D01*
X006475Y010878D01*
X006475Y010976D02*
X006297Y010976D01*
X006297Y011074D02*
X006475Y011074D01*
X006475Y010440D02*
X006297Y010440D01*
X006297Y010696D01*
X006475Y010696D01*
X006475Y010440D01*
X006475Y010538D02*
X006297Y010538D01*
X006297Y010636D02*
X006475Y010636D01*
X006363Y010038D02*
X006363Y009860D01*
X006107Y009860D01*
X006107Y010038D01*
X006363Y010038D01*
X006363Y009958D02*
X006107Y009958D01*
X006363Y009526D02*
X006363Y009348D01*
X006107Y009348D01*
X006107Y009526D01*
X006363Y009526D01*
X006363Y009446D02*
X006107Y009446D01*
X003514Y008288D02*
X003514Y008110D01*
X003514Y008288D02*
X003770Y008288D01*
X003770Y008110D01*
X003514Y008110D01*
X003514Y008208D02*
X003770Y008208D01*
X003514Y007776D02*
X003514Y007598D01*
X003514Y007776D02*
X003770Y007776D01*
X003770Y007598D01*
X003514Y007598D01*
X003514Y007696D02*
X003770Y007696D01*
X003332Y007776D02*
X003332Y007598D01*
X003076Y007598D01*
X003076Y007776D01*
X003332Y007776D01*
X003332Y007696D02*
X003076Y007696D01*
X002895Y007776D02*
X002895Y007598D01*
X002639Y007598D01*
X002639Y007776D01*
X002895Y007776D01*
X002895Y007696D02*
X002639Y007696D01*
X002895Y008110D02*
X002895Y008288D01*
X002895Y008110D02*
X002639Y008110D01*
X002639Y008288D01*
X002895Y008288D01*
X002895Y008208D02*
X002639Y008208D01*
X003332Y008288D02*
X003332Y008110D01*
X003076Y008110D01*
X003076Y008288D01*
X003332Y008288D01*
X003332Y008208D02*
X003076Y008208D01*
X003076Y009723D02*
X003076Y009901D01*
X003332Y009901D01*
X003332Y009723D01*
X003076Y009723D01*
X003076Y009821D02*
X003332Y009821D01*
X003076Y010235D02*
X003076Y010413D01*
X003332Y010413D01*
X003332Y010235D01*
X003076Y010235D01*
X003076Y010333D02*
X003332Y010333D01*
X002895Y010413D02*
X002895Y010235D01*
X002639Y010235D01*
X002639Y010413D01*
X002895Y010413D01*
X002895Y010333D02*
X002639Y010333D01*
X002895Y009901D02*
X002895Y009723D01*
X002639Y009723D01*
X002639Y009901D01*
X002895Y009901D01*
X002895Y009821D02*
X002639Y009821D01*
D13*
X002677Y010899D02*
X002677Y011113D01*
X002891Y011113D01*
X002891Y010899D01*
X002677Y010899D01*
X002677Y010999D02*
X002891Y010999D01*
X002891Y011099D02*
X002677Y011099D01*
X003267Y011113D02*
X003267Y010899D01*
X003267Y011113D02*
X003481Y011113D01*
X003481Y010899D01*
X003267Y010899D01*
X003267Y010999D02*
X003481Y010999D01*
X003481Y011099D02*
X003267Y011099D01*
X003311Y004533D02*
X003097Y004533D01*
X003311Y004533D02*
X003311Y004319D01*
X003097Y004319D01*
X003097Y004533D01*
X003097Y004419D02*
X003311Y004419D01*
X003311Y004519D02*
X003097Y004519D01*
X003097Y003942D02*
X003311Y003942D01*
X003311Y003728D01*
X003097Y003728D01*
X003097Y003942D01*
X003097Y003828D02*
X003311Y003828D01*
X003311Y003928D02*
X003097Y003928D01*
D14*
X004203Y009299D02*
X004203Y009513D01*
X004221Y009513D01*
X004221Y009299D01*
X004203Y009299D01*
X004203Y009398D02*
X004221Y009398D01*
X004221Y009497D02*
X004203Y009497D01*
X004400Y009513D02*
X004400Y009299D01*
X004400Y009513D02*
X004418Y009513D01*
X004418Y009299D01*
X004400Y009299D01*
X004400Y009398D02*
X004418Y009398D01*
X004418Y009497D02*
X004400Y009497D01*
X004597Y009513D02*
X004597Y009299D01*
X004597Y009513D02*
X004615Y009513D01*
X004615Y009299D01*
X004597Y009299D01*
X004597Y009398D02*
X004615Y009398D01*
X004615Y009497D02*
X004597Y009497D01*
X004794Y009513D02*
X004794Y009299D01*
X004794Y009513D02*
X004812Y009513D01*
X004812Y009299D01*
X004794Y009299D01*
X004794Y009398D02*
X004812Y009398D01*
X004812Y009497D02*
X004794Y009497D01*
X004990Y009513D02*
X004990Y009299D01*
X004990Y009513D02*
X005008Y009513D01*
X005008Y009299D01*
X004990Y009299D01*
X004990Y009398D02*
X005008Y009398D01*
X005008Y009497D02*
X004990Y009497D01*
X005187Y009513D02*
X005187Y009299D01*
X005187Y009513D02*
X005205Y009513D01*
X005205Y009299D01*
X005187Y009299D01*
X005187Y009398D02*
X005205Y009398D01*
X005205Y009497D02*
X005187Y009497D01*
X005385Y009710D02*
X005599Y009710D01*
X005599Y009692D01*
X005385Y009692D01*
X005385Y009710D01*
X005385Y009907D02*
X005599Y009907D01*
X005599Y009889D01*
X005385Y009889D01*
X005385Y009907D01*
X005385Y010104D02*
X005599Y010104D01*
X005599Y010086D01*
X005385Y010086D01*
X005385Y010104D01*
X005385Y010301D02*
X005599Y010301D01*
X005599Y010283D01*
X005385Y010283D01*
X005385Y010301D01*
X005385Y010497D02*
X005599Y010497D01*
X005599Y010479D01*
X005385Y010479D01*
X005385Y010497D01*
X005385Y010694D02*
X005599Y010694D01*
X005599Y010676D01*
X005385Y010676D01*
X005385Y010694D01*
X005205Y010874D02*
X005205Y011088D01*
X005205Y010874D02*
X005187Y010874D01*
X005187Y011088D01*
X005205Y011088D01*
X005205Y010973D02*
X005187Y010973D01*
X005187Y011072D02*
X005205Y011072D01*
X005008Y011088D02*
X005008Y010874D01*
X004990Y010874D01*
X004990Y011088D01*
X005008Y011088D01*
X005008Y010973D02*
X004990Y010973D01*
X004990Y011072D02*
X005008Y011072D01*
X004812Y011088D02*
X004812Y010874D01*
X004794Y010874D01*
X004794Y011088D01*
X004812Y011088D01*
X004812Y010973D02*
X004794Y010973D01*
X004794Y011072D02*
X004812Y011072D01*
X004615Y011088D02*
X004615Y010874D01*
X004597Y010874D01*
X004597Y011088D01*
X004615Y011088D01*
X004615Y010973D02*
X004597Y010973D01*
X004597Y011072D02*
X004615Y011072D01*
X004418Y011088D02*
X004418Y010874D01*
X004400Y010874D01*
X004400Y011088D01*
X004418Y011088D01*
X004418Y010973D02*
X004400Y010973D01*
X004400Y011072D02*
X004418Y011072D01*
X004221Y011088D02*
X004221Y010874D01*
X004203Y010874D01*
X004203Y011088D01*
X004221Y011088D01*
X004221Y010973D02*
X004203Y010973D01*
X004203Y011072D02*
X004221Y011072D01*
X004024Y010676D02*
X003810Y010676D01*
X003810Y010694D01*
X004024Y010694D01*
X004024Y010676D01*
X004024Y010479D02*
X003810Y010479D01*
X003810Y010497D01*
X004024Y010497D01*
X004024Y010479D01*
X004024Y010283D02*
X003810Y010283D01*
X003810Y010301D01*
X004024Y010301D01*
X004024Y010283D01*
X004024Y010086D02*
X003810Y010086D01*
X003810Y010104D01*
X004024Y010104D01*
X004024Y010086D01*
X004024Y009889D02*
X003810Y009889D01*
X003810Y009907D01*
X004024Y009907D01*
X004024Y009889D01*
X004024Y009692D02*
X003810Y009692D01*
X003810Y009710D01*
X004024Y009710D01*
X004024Y009692D01*
D15*
X004704Y010193D03*
D16*
X003574Y006894D02*
X003458Y006894D01*
X003458Y007266D01*
X003574Y007266D01*
X003574Y006894D01*
X003574Y006993D02*
X003458Y006993D01*
X003458Y007092D02*
X003574Y007092D01*
X003574Y007191D02*
X003458Y007191D01*
X002826Y006894D02*
X002710Y006894D01*
X002710Y007266D01*
X002826Y007266D01*
X002826Y006894D01*
X002826Y006993D02*
X002710Y006993D01*
X002710Y007092D02*
X002826Y007092D01*
X002826Y007191D02*
X002710Y007191D01*
X002710Y005870D02*
X002826Y005870D01*
X002710Y005870D02*
X002710Y006242D01*
X002826Y006242D01*
X002826Y005870D01*
X002826Y005969D02*
X002710Y005969D01*
X002710Y006068D02*
X002826Y006068D01*
X002826Y006167D02*
X002710Y006167D01*
X003084Y005870D02*
X003200Y005870D01*
X003084Y005870D02*
X003084Y006242D01*
X003200Y006242D01*
X003200Y005870D01*
X003200Y005969D02*
X003084Y005969D01*
X003084Y006068D02*
X003200Y006068D01*
X003200Y006167D02*
X003084Y006167D01*
X003458Y005870D02*
X003574Y005870D01*
X003458Y005870D02*
X003458Y006242D01*
X003574Y006242D01*
X003574Y005870D01*
X003574Y005969D02*
X003458Y005969D01*
X003458Y006068D02*
X003574Y006068D01*
X003574Y006167D02*
X003458Y006167D01*
D17*
X004258Y006656D02*
X004554Y006656D01*
X004554Y006853D02*
X004258Y006853D01*
X004258Y007049D02*
X004554Y007049D01*
X004554Y007246D02*
X004258Y007246D01*
X004258Y007443D02*
X004554Y007443D01*
X004554Y007640D02*
X004258Y007640D01*
X004258Y007837D02*
X004554Y007837D01*
X004554Y008034D02*
X004258Y008034D01*
X004258Y008231D02*
X004554Y008231D01*
X004761Y008437D02*
X004761Y008733D01*
X004957Y008733D02*
X004957Y008437D01*
X005154Y008437D02*
X005154Y008733D01*
X005351Y008733D02*
X005351Y008437D01*
X005548Y008437D02*
X005548Y008733D01*
X005745Y008733D02*
X005745Y008437D01*
X005942Y008437D02*
X005942Y008733D01*
X006138Y008733D02*
X006138Y008437D01*
X006335Y008437D02*
X006335Y008733D01*
X006542Y008231D02*
X006838Y008231D01*
X006838Y008034D02*
X006542Y008034D01*
X006542Y007837D02*
X006838Y007837D01*
X006838Y007640D02*
X006542Y007640D01*
X006542Y007443D02*
X006838Y007443D01*
X006838Y007246D02*
X006542Y007246D01*
X006542Y007049D02*
X006838Y007049D01*
X006838Y006853D02*
X006542Y006853D01*
X006335Y006449D02*
X006335Y006153D01*
X006138Y006153D02*
X006138Y006449D01*
X005942Y006449D02*
X005942Y006153D01*
X005745Y006153D02*
X005745Y006449D01*
X005548Y006449D02*
X005548Y006153D01*
X005351Y006153D02*
X005351Y006449D01*
X005154Y006449D02*
X005154Y006153D01*
X004957Y006153D02*
X004957Y006449D01*
X004761Y006449D02*
X004761Y006153D01*
D18*
X006543Y006659D02*
X006837Y006659D01*
X006837Y006653D01*
X006543Y006653D01*
X006543Y006659D01*
D19*
X007542Y006743D02*
X007542Y006843D01*
X007542Y006743D02*
X007242Y006743D01*
X007242Y006843D01*
X007542Y006843D01*
X007542Y006842D02*
X007242Y006842D01*
X007542Y007043D02*
X007542Y007143D01*
X007542Y007043D02*
X007242Y007043D01*
X007242Y007143D01*
X007542Y007143D01*
X007542Y007142D02*
X007242Y007142D01*
X003060Y008793D02*
X002960Y008793D01*
X002960Y009093D01*
X003060Y009093D01*
X003060Y008793D01*
X003060Y008892D02*
X002960Y008892D01*
X002960Y008991D02*
X003060Y008991D01*
X003060Y009090D02*
X002960Y009090D01*
X002760Y008793D02*
X002660Y008793D01*
X002660Y009093D01*
X002760Y009093D01*
X002760Y008793D01*
X002760Y008892D02*
X002660Y008892D01*
X002660Y008991D02*
X002760Y008991D01*
X002760Y009090D02*
X002660Y009090D01*
D20*
X002985Y008537D03*
X003079Y007381D03*
X004017Y007537D03*
X004017Y007849D03*
X004017Y008162D03*
X004329Y009006D03*
X004892Y009006D03*
X004329Y009818D03*
X003892Y009381D03*
X003548Y010068D03*
X003767Y011193D03*
X005079Y010568D03*
X005517Y010912D03*
X005829Y010756D03*
X006079Y011006D03*
X006642Y010193D03*
X005829Y010068D03*
X005829Y009756D03*
X005642Y009318D03*
X005548Y007881D03*
X005985Y007881D03*
X005985Y007443D03*
X005985Y007006D03*
X005548Y007006D03*
X005548Y007443D03*
X005110Y007443D03*
X005110Y007006D03*
X005110Y007881D03*
X004017Y007224D03*
X004235Y006193D03*
X004235Y005881D03*
X004610Y005881D03*
X005204Y004943D03*
X005954Y004943D03*
X006329Y004943D03*
X006860Y005256D03*
X006860Y005881D03*
X006860Y006193D03*
X007110Y007349D03*
X007579Y007412D03*
X007017Y008568D03*
X007579Y008662D03*
X007579Y010381D03*
X007579Y011131D03*
X002767Y005443D03*
X003767Y004506D03*
X004017Y004506D03*
D21*
X004235Y006193D02*
X004344Y006301D01*
X004761Y006301D01*
X004720Y006658D02*
X004454Y006658D01*
X004126Y006658D01*
X004423Y006631D02*
X004423Y006506D01*
X005548Y008256D02*
X005548Y008881D01*
X006335Y008585D02*
X007000Y008585D01*
X007017Y008568D02*
X007323Y008262D01*
X007392Y008262D01*
X007017Y008229D02*
X006360Y008229D01*
X006657Y008256D02*
X006657Y008365D01*
X006142Y006631D02*
X006142Y006006D01*
X006335Y006301D02*
X006502Y006301D01*
X006610Y006193D01*
X006860Y006193D01*
X007448Y006193D01*
X004204Y009178D02*
X004204Y009678D01*
X005220Y010490D02*
X005329Y010490D01*
X005720Y010490D01*
X004204Y010974D02*
X003970Y010974D01*
D22*
X004220Y010771D02*
X004220Y011209D01*
D23*
X003079Y007756D02*
X003079Y007381D01*
X003204Y007687D02*
X003642Y007687D01*
X003204Y007687D02*
X002767Y007687D01*
X002767Y007144D01*
X002892Y006443D02*
X002768Y006319D01*
X002768Y006056D01*
X002892Y006443D02*
X003392Y006443D01*
X003516Y006319D01*
X003516Y006056D01*
X003716Y006056D01*
X003892Y005881D01*
X003892Y005159D01*
X004329Y005159D01*
X004660Y005489D01*
X005176Y005489D01*
X003670Y004937D02*
X003204Y004937D01*
M02*
