G75*
%MOIN*%
%OFA0B0*%
%FSLAX24Y24*%
%IPPOS*%
%LPD*%
%AMOC8*
5,1,8,0,0,1.08239X$1,22.5*
%
%ADD10C,0.0000*%
%ADD11C,0.0060*%
%ADD12C,0.0397*%
%ADD13C,0.0240*%
%ADD14C,0.0160*%
%ADD15C,0.0080*%
%ADD16C,0.0320*%
%ADD17C,0.0400*%
%ADD18C,0.0240*%
D10*
X003149Y002980D02*
X003149Y009279D01*
X003148Y009279D02*
X003150Y009318D01*
X003156Y009356D01*
X003165Y009393D01*
X003178Y009430D01*
X003195Y009465D01*
X003214Y009498D01*
X003237Y009529D01*
X003263Y009558D01*
X003292Y009584D01*
X003323Y009607D01*
X003356Y009626D01*
X003391Y009643D01*
X003428Y009656D01*
X003465Y009665D01*
X003503Y009671D01*
X003542Y009673D01*
X003540Y009670D02*
X004560Y009670D01*
X004565Y009670D02*
X004618Y009673D01*
X004672Y009679D01*
X004724Y009689D01*
X004776Y009703D01*
X004826Y009721D01*
X004876Y009742D01*
X004923Y009767D01*
X004969Y009795D01*
X005012Y009826D01*
X005054Y009860D01*
X005092Y009897D01*
X005128Y009936D01*
X005161Y009979D01*
X005191Y010023D01*
X005218Y010069D01*
X005241Y010118D01*
X005261Y010167D01*
X005277Y010218D01*
X005290Y010270D01*
X005299Y010323D01*
X005304Y010376D01*
X005305Y010430D01*
X005421Y010930D02*
X005423Y010957D01*
X005429Y010984D01*
X005438Y011010D01*
X005451Y011034D01*
X005467Y011057D01*
X005486Y011076D01*
X005508Y011093D01*
X005532Y011107D01*
X005557Y011117D01*
X005584Y011124D01*
X005611Y011127D01*
X005639Y011126D01*
X005666Y011121D01*
X005692Y011113D01*
X005716Y011101D01*
X005739Y011085D01*
X005760Y011067D01*
X005777Y011046D01*
X005792Y011022D01*
X005803Y010997D01*
X005811Y010971D01*
X005815Y010944D01*
X005815Y010916D01*
X005811Y010889D01*
X005803Y010863D01*
X005792Y010838D01*
X005777Y010814D01*
X005760Y010793D01*
X005739Y010775D01*
X005717Y010759D01*
X005692Y010747D01*
X005666Y010739D01*
X005639Y010734D01*
X005611Y010733D01*
X005584Y010736D01*
X005557Y010743D01*
X005532Y010753D01*
X005508Y010767D01*
X005486Y010784D01*
X005467Y010803D01*
X005451Y010826D01*
X005438Y010850D01*
X005429Y010876D01*
X005423Y010903D01*
X005421Y010930D01*
X005983Y010930D02*
X005985Y010957D01*
X005991Y010984D01*
X006000Y011010D01*
X006013Y011034D01*
X006029Y011057D01*
X006048Y011076D01*
X006070Y011093D01*
X006094Y011107D01*
X006119Y011117D01*
X006146Y011124D01*
X006173Y011127D01*
X006201Y011126D01*
X006228Y011121D01*
X006254Y011113D01*
X006278Y011101D01*
X006301Y011085D01*
X006322Y011067D01*
X006339Y011046D01*
X006354Y011022D01*
X006365Y010997D01*
X006373Y010971D01*
X006377Y010944D01*
X006377Y010916D01*
X006373Y010889D01*
X006365Y010863D01*
X006354Y010838D01*
X006339Y010814D01*
X006322Y010793D01*
X006301Y010775D01*
X006279Y010759D01*
X006254Y010747D01*
X006228Y010739D01*
X006201Y010734D01*
X006173Y010733D01*
X006146Y010736D01*
X006119Y010743D01*
X006094Y010753D01*
X006070Y010767D01*
X006048Y010784D01*
X006029Y010803D01*
X006013Y010826D01*
X006000Y010850D01*
X005991Y010876D01*
X005985Y010903D01*
X005983Y010930D01*
X006546Y010930D02*
X006548Y010957D01*
X006554Y010984D01*
X006563Y011010D01*
X006576Y011034D01*
X006592Y011057D01*
X006611Y011076D01*
X006633Y011093D01*
X006657Y011107D01*
X006682Y011117D01*
X006709Y011124D01*
X006736Y011127D01*
X006764Y011126D01*
X006791Y011121D01*
X006817Y011113D01*
X006841Y011101D01*
X006864Y011085D01*
X006885Y011067D01*
X006902Y011046D01*
X006917Y011022D01*
X006928Y010997D01*
X006936Y010971D01*
X006940Y010944D01*
X006940Y010916D01*
X006936Y010889D01*
X006928Y010863D01*
X006917Y010838D01*
X006902Y010814D01*
X006885Y010793D01*
X006864Y010775D01*
X006842Y010759D01*
X006817Y010747D01*
X006791Y010739D01*
X006764Y010734D01*
X006736Y010733D01*
X006709Y010736D01*
X006682Y010743D01*
X006657Y010753D01*
X006633Y010767D01*
X006611Y010784D01*
X006592Y010803D01*
X006576Y010826D01*
X006563Y010850D01*
X006554Y010876D01*
X006548Y010903D01*
X006546Y010930D01*
X006546Y009930D02*
X006548Y009957D01*
X006554Y009984D01*
X006563Y010010D01*
X006576Y010034D01*
X006592Y010057D01*
X006611Y010076D01*
X006633Y010093D01*
X006657Y010107D01*
X006682Y010117D01*
X006709Y010124D01*
X006736Y010127D01*
X006764Y010126D01*
X006791Y010121D01*
X006817Y010113D01*
X006841Y010101D01*
X006864Y010085D01*
X006885Y010067D01*
X006902Y010046D01*
X006917Y010022D01*
X006928Y009997D01*
X006936Y009971D01*
X006940Y009944D01*
X006940Y009916D01*
X006936Y009889D01*
X006928Y009863D01*
X006917Y009838D01*
X006902Y009814D01*
X006885Y009793D01*
X006864Y009775D01*
X006842Y009759D01*
X006817Y009747D01*
X006791Y009739D01*
X006764Y009734D01*
X006736Y009733D01*
X006709Y009736D01*
X006682Y009743D01*
X006657Y009753D01*
X006633Y009767D01*
X006611Y009784D01*
X006592Y009803D01*
X006576Y009826D01*
X006563Y009850D01*
X006554Y009876D01*
X006548Y009903D01*
X006546Y009930D01*
X005983Y009930D02*
X005985Y009957D01*
X005991Y009984D01*
X006000Y010010D01*
X006013Y010034D01*
X006029Y010057D01*
X006048Y010076D01*
X006070Y010093D01*
X006094Y010107D01*
X006119Y010117D01*
X006146Y010124D01*
X006173Y010127D01*
X006201Y010126D01*
X006228Y010121D01*
X006254Y010113D01*
X006278Y010101D01*
X006301Y010085D01*
X006322Y010067D01*
X006339Y010046D01*
X006354Y010022D01*
X006365Y009997D01*
X006373Y009971D01*
X006377Y009944D01*
X006377Y009916D01*
X006373Y009889D01*
X006365Y009863D01*
X006354Y009838D01*
X006339Y009814D01*
X006322Y009793D01*
X006301Y009775D01*
X006279Y009759D01*
X006254Y009747D01*
X006228Y009739D01*
X006201Y009734D01*
X006173Y009733D01*
X006146Y009736D01*
X006119Y009743D01*
X006094Y009753D01*
X006070Y009767D01*
X006048Y009784D01*
X006029Y009803D01*
X006013Y009826D01*
X006000Y009850D01*
X005991Y009876D01*
X005985Y009903D01*
X005983Y009930D01*
X005421Y009930D02*
X005423Y009957D01*
X005429Y009984D01*
X005438Y010010D01*
X005451Y010034D01*
X005467Y010057D01*
X005486Y010076D01*
X005508Y010093D01*
X005532Y010107D01*
X005557Y010117D01*
X005584Y010124D01*
X005611Y010127D01*
X005639Y010126D01*
X005666Y010121D01*
X005692Y010113D01*
X005716Y010101D01*
X005739Y010085D01*
X005760Y010067D01*
X005777Y010046D01*
X005792Y010022D01*
X005803Y009997D01*
X005811Y009971D01*
X005815Y009944D01*
X005815Y009916D01*
X005811Y009889D01*
X005803Y009863D01*
X005792Y009838D01*
X005777Y009814D01*
X005760Y009793D01*
X005739Y009775D01*
X005717Y009759D01*
X005692Y009747D01*
X005666Y009739D01*
X005639Y009734D01*
X005611Y009733D01*
X005584Y009736D01*
X005557Y009743D01*
X005532Y009753D01*
X005508Y009767D01*
X005486Y009784D01*
X005467Y009803D01*
X005451Y009826D01*
X005438Y009850D01*
X005429Y009876D01*
X005423Y009903D01*
X005421Y009930D01*
X005305Y010430D02*
X005303Y010484D01*
X005297Y010537D01*
X005288Y010589D01*
X005275Y010641D01*
X005258Y010692D01*
X005237Y010742D01*
X005213Y010789D01*
X005186Y010835D01*
X005155Y010879D01*
X005122Y010921D01*
X005085Y010960D01*
X005046Y010997D01*
X005004Y011030D01*
X004960Y011061D01*
X004914Y011088D01*
X004867Y011112D01*
X004817Y011133D01*
X004766Y011150D01*
X004714Y011163D01*
X004662Y011172D01*
X004609Y011178D01*
X004555Y011180D01*
X004560Y011180D02*
X003540Y011180D01*
X003542Y011180D02*
X003503Y011182D01*
X003465Y011188D01*
X003428Y011197D01*
X003391Y011210D01*
X003356Y011227D01*
X003323Y011246D01*
X003292Y011269D01*
X003263Y011295D01*
X003237Y011324D01*
X003214Y011355D01*
X003195Y011388D01*
X003178Y011423D01*
X003165Y011460D01*
X003156Y011497D01*
X003150Y011535D01*
X003148Y011574D01*
X003149Y011574D02*
X003149Y017873D01*
X003148Y017873D02*
X003150Y017912D01*
X003156Y017950D01*
X003165Y017987D01*
X003178Y018024D01*
X003195Y018059D01*
X003214Y018092D01*
X003237Y018123D01*
X003263Y018152D01*
X003292Y018178D01*
X003323Y018201D01*
X003356Y018220D01*
X003391Y018237D01*
X003428Y018250D01*
X003465Y018259D01*
X003503Y018265D01*
X003542Y018267D01*
X008786Y018267D01*
X008825Y018265D01*
X008863Y018259D01*
X008900Y018250D01*
X008937Y018237D01*
X008972Y018220D01*
X009005Y018201D01*
X009036Y018178D01*
X009065Y018152D01*
X009091Y018123D01*
X009114Y018092D01*
X009133Y018059D01*
X009150Y018024D01*
X009163Y017987D01*
X009172Y017950D01*
X009178Y017912D01*
X009180Y017873D01*
X009180Y017868D02*
X009180Y016305D01*
X009182Y016251D01*
X009188Y016198D01*
X009197Y016146D01*
X009210Y016094D01*
X009227Y016043D01*
X009248Y015993D01*
X009272Y015946D01*
X009299Y015900D01*
X009330Y015856D01*
X009363Y015814D01*
X009400Y015775D01*
X009439Y015738D01*
X009481Y015705D01*
X009525Y015674D01*
X009571Y015647D01*
X009618Y015623D01*
X009668Y015602D01*
X009719Y015585D01*
X009771Y015572D01*
X009823Y015563D01*
X009876Y015557D01*
X009930Y015555D01*
X009233Y015243D02*
X009235Y015270D01*
X009241Y015297D01*
X009250Y015323D01*
X009263Y015347D01*
X009279Y015370D01*
X009298Y015389D01*
X009320Y015406D01*
X009344Y015420D01*
X009369Y015430D01*
X009396Y015437D01*
X009423Y015440D01*
X009451Y015439D01*
X009478Y015434D01*
X009504Y015426D01*
X009528Y015414D01*
X009551Y015398D01*
X009572Y015380D01*
X009589Y015359D01*
X009604Y015335D01*
X009615Y015310D01*
X009623Y015284D01*
X009627Y015257D01*
X009627Y015229D01*
X009623Y015202D01*
X009615Y015176D01*
X009604Y015151D01*
X009589Y015127D01*
X009572Y015106D01*
X009551Y015088D01*
X009529Y015072D01*
X009504Y015060D01*
X009478Y015052D01*
X009451Y015047D01*
X009423Y015046D01*
X009396Y015049D01*
X009369Y015056D01*
X009344Y015066D01*
X009320Y015080D01*
X009298Y015097D01*
X009279Y015116D01*
X009263Y015139D01*
X009250Y015163D01*
X009241Y015189D01*
X009235Y015216D01*
X009233Y015243D01*
X009233Y014680D02*
X009235Y014707D01*
X009241Y014734D01*
X009250Y014760D01*
X009263Y014784D01*
X009279Y014807D01*
X009298Y014826D01*
X009320Y014843D01*
X009344Y014857D01*
X009369Y014867D01*
X009396Y014874D01*
X009423Y014877D01*
X009451Y014876D01*
X009478Y014871D01*
X009504Y014863D01*
X009528Y014851D01*
X009551Y014835D01*
X009572Y014817D01*
X009589Y014796D01*
X009604Y014772D01*
X009615Y014747D01*
X009623Y014721D01*
X009627Y014694D01*
X009627Y014666D01*
X009623Y014639D01*
X009615Y014613D01*
X009604Y014588D01*
X009589Y014564D01*
X009572Y014543D01*
X009551Y014525D01*
X009529Y014509D01*
X009504Y014497D01*
X009478Y014489D01*
X009451Y014484D01*
X009423Y014483D01*
X009396Y014486D01*
X009369Y014493D01*
X009344Y014503D01*
X009320Y014517D01*
X009298Y014534D01*
X009279Y014553D01*
X009263Y014576D01*
X009250Y014600D01*
X009241Y014626D01*
X009235Y014653D01*
X009233Y014680D01*
X009233Y014118D02*
X009235Y014145D01*
X009241Y014172D01*
X009250Y014198D01*
X009263Y014222D01*
X009279Y014245D01*
X009298Y014264D01*
X009320Y014281D01*
X009344Y014295D01*
X009369Y014305D01*
X009396Y014312D01*
X009423Y014315D01*
X009451Y014314D01*
X009478Y014309D01*
X009504Y014301D01*
X009528Y014289D01*
X009551Y014273D01*
X009572Y014255D01*
X009589Y014234D01*
X009604Y014210D01*
X009615Y014185D01*
X009623Y014159D01*
X009627Y014132D01*
X009627Y014104D01*
X009623Y014077D01*
X009615Y014051D01*
X009604Y014026D01*
X009589Y014002D01*
X009572Y013981D01*
X009551Y013963D01*
X009529Y013947D01*
X009504Y013935D01*
X009478Y013927D01*
X009451Y013922D01*
X009423Y013921D01*
X009396Y013924D01*
X009369Y013931D01*
X009344Y013941D01*
X009320Y013955D01*
X009298Y013972D01*
X009279Y013991D01*
X009263Y014014D01*
X009250Y014038D01*
X009241Y014064D01*
X009235Y014091D01*
X009233Y014118D01*
X009180Y013055D02*
X009180Y011555D01*
X009180Y011574D02*
X009178Y011535D01*
X009172Y011497D01*
X009163Y011460D01*
X009150Y011423D01*
X009133Y011388D01*
X009114Y011355D01*
X009091Y011324D01*
X009065Y011295D01*
X009036Y011269D01*
X009005Y011246D01*
X008972Y011227D01*
X008937Y011210D01*
X008900Y011197D01*
X008863Y011188D01*
X008825Y011182D01*
X008786Y011180D01*
X008790Y011180D02*
X007800Y011180D01*
X007805Y011180D02*
X007751Y011178D01*
X007698Y011172D01*
X007646Y011163D01*
X007594Y011150D01*
X007543Y011133D01*
X007493Y011112D01*
X007446Y011088D01*
X007400Y011061D01*
X007356Y011030D01*
X007314Y010997D01*
X007275Y010960D01*
X007238Y010921D01*
X007205Y010879D01*
X007174Y010835D01*
X007147Y010789D01*
X007123Y010742D01*
X007102Y010692D01*
X007085Y010641D01*
X007072Y010589D01*
X007063Y010537D01*
X007057Y010484D01*
X007055Y010430D01*
X007057Y010376D01*
X007063Y010322D01*
X007072Y010268D01*
X007086Y010216D01*
X007103Y010164D01*
X007124Y010114D01*
X007148Y010066D01*
X007176Y010019D01*
X007207Y009975D01*
X007241Y009932D01*
X007278Y009893D01*
X007317Y009856D01*
X007360Y009822D01*
X007404Y009791D01*
X007451Y009763D01*
X007499Y009739D01*
X007549Y009718D01*
X007601Y009701D01*
X007653Y009687D01*
X007707Y009678D01*
X007761Y009672D01*
X007815Y009670D01*
X008790Y009670D01*
X008786Y009673D02*
X008825Y009671D01*
X008863Y009665D01*
X008900Y009656D01*
X008937Y009643D01*
X008972Y009626D01*
X009005Y009607D01*
X009036Y009584D01*
X009065Y009558D01*
X009091Y009529D01*
X009114Y009498D01*
X009133Y009465D01*
X009150Y009430D01*
X009163Y009393D01*
X009172Y009356D01*
X009178Y009318D01*
X009180Y009279D01*
X009180Y009274D02*
X009180Y007711D01*
X009182Y007657D01*
X009188Y007604D01*
X009197Y007552D01*
X009210Y007500D01*
X009227Y007449D01*
X009248Y007399D01*
X009272Y007352D01*
X009299Y007306D01*
X009330Y007262D01*
X009363Y007220D01*
X009400Y007181D01*
X009439Y007144D01*
X009481Y007111D01*
X009525Y007080D01*
X009571Y007053D01*
X009618Y007029D01*
X009668Y007008D01*
X009719Y006991D01*
X009771Y006978D01*
X009823Y006969D01*
X009876Y006963D01*
X009930Y006961D01*
X009233Y006649D02*
X009235Y006676D01*
X009241Y006703D01*
X009250Y006729D01*
X009263Y006753D01*
X009279Y006776D01*
X009298Y006795D01*
X009320Y006812D01*
X009344Y006826D01*
X009369Y006836D01*
X009396Y006843D01*
X009423Y006846D01*
X009451Y006845D01*
X009478Y006840D01*
X009504Y006832D01*
X009528Y006820D01*
X009551Y006804D01*
X009572Y006786D01*
X009589Y006765D01*
X009604Y006741D01*
X009615Y006716D01*
X009623Y006690D01*
X009627Y006663D01*
X009627Y006635D01*
X009623Y006608D01*
X009615Y006582D01*
X009604Y006557D01*
X009589Y006533D01*
X009572Y006512D01*
X009551Y006494D01*
X009529Y006478D01*
X009504Y006466D01*
X009478Y006458D01*
X009451Y006453D01*
X009423Y006452D01*
X009396Y006455D01*
X009369Y006462D01*
X009344Y006472D01*
X009320Y006486D01*
X009298Y006503D01*
X009279Y006522D01*
X009263Y006545D01*
X009250Y006569D01*
X009241Y006595D01*
X009235Y006622D01*
X009233Y006649D01*
X009233Y006086D02*
X009235Y006113D01*
X009241Y006140D01*
X009250Y006166D01*
X009263Y006190D01*
X009279Y006213D01*
X009298Y006232D01*
X009320Y006249D01*
X009344Y006263D01*
X009369Y006273D01*
X009396Y006280D01*
X009423Y006283D01*
X009451Y006282D01*
X009478Y006277D01*
X009504Y006269D01*
X009528Y006257D01*
X009551Y006241D01*
X009572Y006223D01*
X009589Y006202D01*
X009604Y006178D01*
X009615Y006153D01*
X009623Y006127D01*
X009627Y006100D01*
X009627Y006072D01*
X009623Y006045D01*
X009615Y006019D01*
X009604Y005994D01*
X009589Y005970D01*
X009572Y005949D01*
X009551Y005931D01*
X009529Y005915D01*
X009504Y005903D01*
X009478Y005895D01*
X009451Y005890D01*
X009423Y005889D01*
X009396Y005892D01*
X009369Y005899D01*
X009344Y005909D01*
X009320Y005923D01*
X009298Y005940D01*
X009279Y005959D01*
X009263Y005982D01*
X009250Y006006D01*
X009241Y006032D01*
X009235Y006059D01*
X009233Y006086D01*
X009233Y005524D02*
X009235Y005551D01*
X009241Y005578D01*
X009250Y005604D01*
X009263Y005628D01*
X009279Y005651D01*
X009298Y005670D01*
X009320Y005687D01*
X009344Y005701D01*
X009369Y005711D01*
X009396Y005718D01*
X009423Y005721D01*
X009451Y005720D01*
X009478Y005715D01*
X009504Y005707D01*
X009528Y005695D01*
X009551Y005679D01*
X009572Y005661D01*
X009589Y005640D01*
X009604Y005616D01*
X009615Y005591D01*
X009623Y005565D01*
X009627Y005538D01*
X009627Y005510D01*
X009623Y005483D01*
X009615Y005457D01*
X009604Y005432D01*
X009589Y005408D01*
X009572Y005387D01*
X009551Y005369D01*
X009529Y005353D01*
X009504Y005341D01*
X009478Y005333D01*
X009451Y005328D01*
X009423Y005327D01*
X009396Y005330D01*
X009369Y005337D01*
X009344Y005347D01*
X009320Y005361D01*
X009298Y005378D01*
X009279Y005397D01*
X009263Y005420D01*
X009250Y005444D01*
X009241Y005470D01*
X009235Y005497D01*
X009233Y005524D01*
X009180Y004461D02*
X009180Y002961D01*
X009180Y002980D02*
X009178Y002941D01*
X009172Y002903D01*
X009163Y002866D01*
X009150Y002829D01*
X009133Y002794D01*
X009114Y002761D01*
X009091Y002730D01*
X009065Y002701D01*
X009036Y002675D01*
X009005Y002652D01*
X008972Y002633D01*
X008937Y002616D01*
X008900Y002603D01*
X008863Y002594D01*
X008825Y002588D01*
X008786Y002586D01*
X003542Y002586D01*
X003503Y002588D01*
X003465Y002594D01*
X003428Y002603D01*
X003391Y002616D01*
X003356Y002633D01*
X003323Y002652D01*
X003292Y002675D01*
X003263Y002701D01*
X003237Y002730D01*
X003214Y002761D01*
X003195Y002794D01*
X003178Y002829D01*
X003165Y002866D01*
X003156Y002903D01*
X003150Y002941D01*
X003148Y002980D01*
X003503Y003374D02*
X003505Y003415D01*
X003511Y003456D01*
X003521Y003496D01*
X003534Y003535D01*
X003551Y003572D01*
X003572Y003608D01*
X003596Y003642D01*
X003623Y003673D01*
X003652Y003701D01*
X003685Y003727D01*
X003719Y003749D01*
X003756Y003768D01*
X003794Y003783D01*
X003834Y003795D01*
X003874Y003803D01*
X003915Y003807D01*
X003957Y003807D01*
X003998Y003803D01*
X004038Y003795D01*
X004078Y003783D01*
X004116Y003768D01*
X004152Y003749D01*
X004187Y003727D01*
X004220Y003701D01*
X004249Y003673D01*
X004276Y003642D01*
X004300Y003608D01*
X004321Y003572D01*
X004338Y003535D01*
X004351Y003496D01*
X004361Y003456D01*
X004367Y003415D01*
X004369Y003374D01*
X004367Y003333D01*
X004361Y003292D01*
X004351Y003252D01*
X004338Y003213D01*
X004321Y003176D01*
X004300Y003140D01*
X004276Y003106D01*
X004249Y003075D01*
X004220Y003047D01*
X004187Y003021D01*
X004153Y002999D01*
X004116Y002980D01*
X004078Y002965D01*
X004038Y002953D01*
X003998Y002945D01*
X003957Y002941D01*
X003915Y002941D01*
X003874Y002945D01*
X003834Y002953D01*
X003794Y002965D01*
X003756Y002980D01*
X003720Y002999D01*
X003685Y003021D01*
X003652Y003047D01*
X003623Y003075D01*
X003596Y003106D01*
X003572Y003140D01*
X003551Y003176D01*
X003534Y003213D01*
X003521Y003252D01*
X003511Y003292D01*
X003505Y003333D01*
X003503Y003374D01*
X003503Y008885D02*
X003505Y008926D01*
X003511Y008967D01*
X003521Y009007D01*
X003534Y009046D01*
X003551Y009083D01*
X003572Y009119D01*
X003596Y009153D01*
X003623Y009184D01*
X003652Y009212D01*
X003685Y009238D01*
X003719Y009260D01*
X003756Y009279D01*
X003794Y009294D01*
X003834Y009306D01*
X003874Y009314D01*
X003915Y009318D01*
X003957Y009318D01*
X003998Y009314D01*
X004038Y009306D01*
X004078Y009294D01*
X004116Y009279D01*
X004152Y009260D01*
X004187Y009238D01*
X004220Y009212D01*
X004249Y009184D01*
X004276Y009153D01*
X004300Y009119D01*
X004321Y009083D01*
X004338Y009046D01*
X004351Y009007D01*
X004361Y008967D01*
X004367Y008926D01*
X004369Y008885D01*
X004367Y008844D01*
X004361Y008803D01*
X004351Y008763D01*
X004338Y008724D01*
X004321Y008687D01*
X004300Y008651D01*
X004276Y008617D01*
X004249Y008586D01*
X004220Y008558D01*
X004187Y008532D01*
X004153Y008510D01*
X004116Y008491D01*
X004078Y008476D01*
X004038Y008464D01*
X003998Y008456D01*
X003957Y008452D01*
X003915Y008452D01*
X003874Y008456D01*
X003834Y008464D01*
X003794Y008476D01*
X003756Y008491D01*
X003720Y008510D01*
X003685Y008532D01*
X003652Y008558D01*
X003623Y008586D01*
X003596Y008617D01*
X003572Y008651D01*
X003551Y008687D01*
X003534Y008724D01*
X003521Y008763D01*
X003511Y008803D01*
X003505Y008844D01*
X003503Y008885D01*
X003503Y011967D02*
X003505Y012008D01*
X003511Y012049D01*
X003521Y012089D01*
X003534Y012128D01*
X003551Y012165D01*
X003572Y012201D01*
X003596Y012235D01*
X003623Y012266D01*
X003652Y012294D01*
X003685Y012320D01*
X003719Y012342D01*
X003756Y012361D01*
X003794Y012376D01*
X003834Y012388D01*
X003874Y012396D01*
X003915Y012400D01*
X003957Y012400D01*
X003998Y012396D01*
X004038Y012388D01*
X004078Y012376D01*
X004116Y012361D01*
X004152Y012342D01*
X004187Y012320D01*
X004220Y012294D01*
X004249Y012266D01*
X004276Y012235D01*
X004300Y012201D01*
X004321Y012165D01*
X004338Y012128D01*
X004351Y012089D01*
X004361Y012049D01*
X004367Y012008D01*
X004369Y011967D01*
X004367Y011926D01*
X004361Y011885D01*
X004351Y011845D01*
X004338Y011806D01*
X004321Y011769D01*
X004300Y011733D01*
X004276Y011699D01*
X004249Y011668D01*
X004220Y011640D01*
X004187Y011614D01*
X004153Y011592D01*
X004116Y011573D01*
X004078Y011558D01*
X004038Y011546D01*
X003998Y011538D01*
X003957Y011534D01*
X003915Y011534D01*
X003874Y011538D01*
X003834Y011546D01*
X003794Y011558D01*
X003756Y011573D01*
X003720Y011592D01*
X003685Y011614D01*
X003652Y011640D01*
X003623Y011668D01*
X003596Y011699D01*
X003572Y011733D01*
X003551Y011769D01*
X003534Y011806D01*
X003521Y011845D01*
X003511Y011885D01*
X003505Y011926D01*
X003503Y011967D01*
X007810Y009670D02*
X007815Y009670D01*
X009930Y006961D02*
X009984Y006963D01*
X010037Y006969D01*
X010089Y006978D01*
X010141Y006991D01*
X010192Y007008D01*
X010242Y007029D01*
X010289Y007053D01*
X010335Y007080D01*
X010379Y007111D01*
X010421Y007144D01*
X010460Y007181D01*
X010497Y007220D01*
X010530Y007262D01*
X010561Y007306D01*
X010588Y007352D01*
X010612Y007399D01*
X010633Y007449D01*
X010650Y007500D01*
X010663Y007552D01*
X010672Y007604D01*
X010678Y007657D01*
X010680Y007711D01*
X010680Y009279D01*
X010682Y009318D01*
X010688Y009356D01*
X010697Y009393D01*
X010710Y009430D01*
X010727Y009465D01*
X010746Y009498D01*
X010769Y009529D01*
X010795Y009558D01*
X010824Y009584D01*
X010855Y009607D01*
X010888Y009626D01*
X010923Y009643D01*
X010960Y009656D01*
X010997Y009665D01*
X011035Y009671D01*
X011074Y009673D01*
X016317Y009673D01*
X016356Y009671D01*
X016394Y009665D01*
X016431Y009656D01*
X016468Y009643D01*
X016503Y009626D01*
X016536Y009607D01*
X016567Y009584D01*
X016596Y009558D01*
X016622Y009529D01*
X016645Y009498D01*
X016664Y009465D01*
X016681Y009430D01*
X016694Y009393D01*
X016703Y009356D01*
X016709Y009318D01*
X016711Y009279D01*
X016711Y002980D01*
X016709Y002941D01*
X016703Y002903D01*
X016694Y002866D01*
X016681Y002829D01*
X016664Y002794D01*
X016645Y002761D01*
X016622Y002730D01*
X016596Y002701D01*
X016567Y002675D01*
X016536Y002652D01*
X016503Y002633D01*
X016468Y002616D01*
X016431Y002603D01*
X016394Y002594D01*
X016356Y002588D01*
X016317Y002586D01*
X011074Y002586D01*
X011035Y002588D01*
X010997Y002594D01*
X010960Y002603D01*
X010923Y002616D01*
X010888Y002633D01*
X010855Y002652D01*
X010824Y002675D01*
X010795Y002701D01*
X010769Y002730D01*
X010746Y002761D01*
X010727Y002794D01*
X010710Y002829D01*
X010697Y002866D01*
X010688Y002903D01*
X010682Y002941D01*
X010680Y002980D01*
X010680Y004461D01*
X009930Y005211D02*
X009876Y005209D01*
X009823Y005203D01*
X009771Y005194D01*
X009719Y005181D01*
X009668Y005164D01*
X009618Y005143D01*
X009571Y005119D01*
X009525Y005092D01*
X009481Y005061D01*
X009439Y005028D01*
X009400Y004991D01*
X009363Y004952D01*
X009330Y004910D01*
X009299Y004866D01*
X009272Y004820D01*
X009248Y004773D01*
X009227Y004723D01*
X009210Y004672D01*
X009197Y004620D01*
X009188Y004568D01*
X009182Y004515D01*
X009180Y004461D01*
X009930Y005211D02*
X009984Y005209D01*
X010037Y005203D01*
X010089Y005194D01*
X010141Y005181D01*
X010192Y005164D01*
X010242Y005143D01*
X010289Y005119D01*
X010335Y005092D01*
X010379Y005061D01*
X010421Y005028D01*
X010460Y004991D01*
X010497Y004952D01*
X010530Y004910D01*
X010561Y004866D01*
X010588Y004820D01*
X010612Y004773D01*
X010633Y004723D01*
X010650Y004672D01*
X010663Y004620D01*
X010672Y004568D01*
X010678Y004515D01*
X010680Y004461D01*
X010233Y005524D02*
X010235Y005551D01*
X010241Y005578D01*
X010250Y005604D01*
X010263Y005628D01*
X010279Y005651D01*
X010298Y005670D01*
X010320Y005687D01*
X010344Y005701D01*
X010369Y005711D01*
X010396Y005718D01*
X010423Y005721D01*
X010451Y005720D01*
X010478Y005715D01*
X010504Y005707D01*
X010528Y005695D01*
X010551Y005679D01*
X010572Y005661D01*
X010589Y005640D01*
X010604Y005616D01*
X010615Y005591D01*
X010623Y005565D01*
X010627Y005538D01*
X010627Y005510D01*
X010623Y005483D01*
X010615Y005457D01*
X010604Y005432D01*
X010589Y005408D01*
X010572Y005387D01*
X010551Y005369D01*
X010529Y005353D01*
X010504Y005341D01*
X010478Y005333D01*
X010451Y005328D01*
X010423Y005327D01*
X010396Y005330D01*
X010369Y005337D01*
X010344Y005347D01*
X010320Y005361D01*
X010298Y005378D01*
X010279Y005397D01*
X010263Y005420D01*
X010250Y005444D01*
X010241Y005470D01*
X010235Y005497D01*
X010233Y005524D01*
X010233Y006086D02*
X010235Y006113D01*
X010241Y006140D01*
X010250Y006166D01*
X010263Y006190D01*
X010279Y006213D01*
X010298Y006232D01*
X010320Y006249D01*
X010344Y006263D01*
X010369Y006273D01*
X010396Y006280D01*
X010423Y006283D01*
X010451Y006282D01*
X010478Y006277D01*
X010504Y006269D01*
X010528Y006257D01*
X010551Y006241D01*
X010572Y006223D01*
X010589Y006202D01*
X010604Y006178D01*
X010615Y006153D01*
X010623Y006127D01*
X010627Y006100D01*
X010627Y006072D01*
X010623Y006045D01*
X010615Y006019D01*
X010604Y005994D01*
X010589Y005970D01*
X010572Y005949D01*
X010551Y005931D01*
X010529Y005915D01*
X010504Y005903D01*
X010478Y005895D01*
X010451Y005890D01*
X010423Y005889D01*
X010396Y005892D01*
X010369Y005899D01*
X010344Y005909D01*
X010320Y005923D01*
X010298Y005940D01*
X010279Y005959D01*
X010263Y005982D01*
X010250Y006006D01*
X010241Y006032D01*
X010235Y006059D01*
X010233Y006086D01*
X010233Y006649D02*
X010235Y006676D01*
X010241Y006703D01*
X010250Y006729D01*
X010263Y006753D01*
X010279Y006776D01*
X010298Y006795D01*
X010320Y006812D01*
X010344Y006826D01*
X010369Y006836D01*
X010396Y006843D01*
X010423Y006846D01*
X010451Y006845D01*
X010478Y006840D01*
X010504Y006832D01*
X010528Y006820D01*
X010551Y006804D01*
X010572Y006786D01*
X010589Y006765D01*
X010604Y006741D01*
X010615Y006716D01*
X010623Y006690D01*
X010627Y006663D01*
X010627Y006635D01*
X010623Y006608D01*
X010615Y006582D01*
X010604Y006557D01*
X010589Y006533D01*
X010572Y006512D01*
X010551Y006494D01*
X010529Y006478D01*
X010504Y006466D01*
X010478Y006458D01*
X010451Y006453D01*
X010423Y006452D01*
X010396Y006455D01*
X010369Y006462D01*
X010344Y006472D01*
X010320Y006486D01*
X010298Y006503D01*
X010279Y006522D01*
X010263Y006545D01*
X010250Y006569D01*
X010241Y006595D01*
X010235Y006622D01*
X010233Y006649D01*
X011034Y008885D02*
X011036Y008926D01*
X011042Y008967D01*
X011052Y009007D01*
X011065Y009046D01*
X011082Y009083D01*
X011103Y009119D01*
X011127Y009153D01*
X011154Y009184D01*
X011183Y009212D01*
X011216Y009238D01*
X011250Y009260D01*
X011287Y009279D01*
X011325Y009294D01*
X011365Y009306D01*
X011405Y009314D01*
X011446Y009318D01*
X011488Y009318D01*
X011529Y009314D01*
X011569Y009306D01*
X011609Y009294D01*
X011647Y009279D01*
X011683Y009260D01*
X011718Y009238D01*
X011751Y009212D01*
X011780Y009184D01*
X011807Y009153D01*
X011831Y009119D01*
X011852Y009083D01*
X011869Y009046D01*
X011882Y009007D01*
X011892Y008967D01*
X011898Y008926D01*
X011900Y008885D01*
X011898Y008844D01*
X011892Y008803D01*
X011882Y008763D01*
X011869Y008724D01*
X011852Y008687D01*
X011831Y008651D01*
X011807Y008617D01*
X011780Y008586D01*
X011751Y008558D01*
X011718Y008532D01*
X011684Y008510D01*
X011647Y008491D01*
X011609Y008476D01*
X011569Y008464D01*
X011529Y008456D01*
X011488Y008452D01*
X011446Y008452D01*
X011405Y008456D01*
X011365Y008464D01*
X011325Y008476D01*
X011287Y008491D01*
X011251Y008510D01*
X011216Y008532D01*
X011183Y008558D01*
X011154Y008586D01*
X011127Y008617D01*
X011103Y008651D01*
X011082Y008687D01*
X011065Y008724D01*
X011052Y008763D01*
X011042Y008803D01*
X011036Y008844D01*
X011034Y008885D01*
X011074Y011180D02*
X016317Y011180D01*
X016356Y011182D01*
X016394Y011188D01*
X016431Y011197D01*
X016468Y011210D01*
X016503Y011227D01*
X016536Y011246D01*
X016567Y011269D01*
X016596Y011295D01*
X016622Y011324D01*
X016645Y011355D01*
X016664Y011388D01*
X016681Y011423D01*
X016694Y011460D01*
X016703Y011497D01*
X016709Y011535D01*
X016711Y011574D01*
X016711Y017873D01*
X016709Y017912D01*
X016703Y017950D01*
X016694Y017987D01*
X016681Y018024D01*
X016664Y018059D01*
X016645Y018092D01*
X016622Y018123D01*
X016596Y018152D01*
X016567Y018178D01*
X016536Y018201D01*
X016503Y018220D01*
X016468Y018237D01*
X016431Y018250D01*
X016394Y018259D01*
X016356Y018265D01*
X016317Y018267D01*
X011074Y018267D01*
X011035Y018265D01*
X010997Y018259D01*
X010960Y018250D01*
X010923Y018237D01*
X010888Y018220D01*
X010855Y018201D01*
X010824Y018178D01*
X010795Y018152D01*
X010769Y018123D01*
X010746Y018092D01*
X010727Y018059D01*
X010710Y018024D01*
X010697Y017987D01*
X010688Y017950D01*
X010682Y017912D01*
X010680Y017873D01*
X010680Y016305D01*
X010678Y016251D01*
X010672Y016198D01*
X010663Y016146D01*
X010650Y016094D01*
X010633Y016043D01*
X010612Y015993D01*
X010588Y015946D01*
X010561Y015900D01*
X010530Y015856D01*
X010497Y015814D01*
X010460Y015775D01*
X010421Y015738D01*
X010379Y015705D01*
X010335Y015674D01*
X010289Y015647D01*
X010242Y015623D01*
X010192Y015602D01*
X010141Y015585D01*
X010089Y015572D01*
X010037Y015563D01*
X009984Y015557D01*
X009930Y015555D01*
X010233Y015243D02*
X010235Y015270D01*
X010241Y015297D01*
X010250Y015323D01*
X010263Y015347D01*
X010279Y015370D01*
X010298Y015389D01*
X010320Y015406D01*
X010344Y015420D01*
X010369Y015430D01*
X010396Y015437D01*
X010423Y015440D01*
X010451Y015439D01*
X010478Y015434D01*
X010504Y015426D01*
X010528Y015414D01*
X010551Y015398D01*
X010572Y015380D01*
X010589Y015359D01*
X010604Y015335D01*
X010615Y015310D01*
X010623Y015284D01*
X010627Y015257D01*
X010627Y015229D01*
X010623Y015202D01*
X010615Y015176D01*
X010604Y015151D01*
X010589Y015127D01*
X010572Y015106D01*
X010551Y015088D01*
X010529Y015072D01*
X010504Y015060D01*
X010478Y015052D01*
X010451Y015047D01*
X010423Y015046D01*
X010396Y015049D01*
X010369Y015056D01*
X010344Y015066D01*
X010320Y015080D01*
X010298Y015097D01*
X010279Y015116D01*
X010263Y015139D01*
X010250Y015163D01*
X010241Y015189D01*
X010235Y015216D01*
X010233Y015243D01*
X010233Y014680D02*
X010235Y014707D01*
X010241Y014734D01*
X010250Y014760D01*
X010263Y014784D01*
X010279Y014807D01*
X010298Y014826D01*
X010320Y014843D01*
X010344Y014857D01*
X010369Y014867D01*
X010396Y014874D01*
X010423Y014877D01*
X010451Y014876D01*
X010478Y014871D01*
X010504Y014863D01*
X010528Y014851D01*
X010551Y014835D01*
X010572Y014817D01*
X010589Y014796D01*
X010604Y014772D01*
X010615Y014747D01*
X010623Y014721D01*
X010627Y014694D01*
X010627Y014666D01*
X010623Y014639D01*
X010615Y014613D01*
X010604Y014588D01*
X010589Y014564D01*
X010572Y014543D01*
X010551Y014525D01*
X010529Y014509D01*
X010504Y014497D01*
X010478Y014489D01*
X010451Y014484D01*
X010423Y014483D01*
X010396Y014486D01*
X010369Y014493D01*
X010344Y014503D01*
X010320Y014517D01*
X010298Y014534D01*
X010279Y014553D01*
X010263Y014576D01*
X010250Y014600D01*
X010241Y014626D01*
X010235Y014653D01*
X010233Y014680D01*
X010233Y014118D02*
X010235Y014145D01*
X010241Y014172D01*
X010250Y014198D01*
X010263Y014222D01*
X010279Y014245D01*
X010298Y014264D01*
X010320Y014281D01*
X010344Y014295D01*
X010369Y014305D01*
X010396Y014312D01*
X010423Y014315D01*
X010451Y014314D01*
X010478Y014309D01*
X010504Y014301D01*
X010528Y014289D01*
X010551Y014273D01*
X010572Y014255D01*
X010589Y014234D01*
X010604Y014210D01*
X010615Y014185D01*
X010623Y014159D01*
X010627Y014132D01*
X010627Y014104D01*
X010623Y014077D01*
X010615Y014051D01*
X010604Y014026D01*
X010589Y014002D01*
X010572Y013981D01*
X010551Y013963D01*
X010529Y013947D01*
X010504Y013935D01*
X010478Y013927D01*
X010451Y013922D01*
X010423Y013921D01*
X010396Y013924D01*
X010369Y013931D01*
X010344Y013941D01*
X010320Y013955D01*
X010298Y013972D01*
X010279Y013991D01*
X010263Y014014D01*
X010250Y014038D01*
X010241Y014064D01*
X010235Y014091D01*
X010233Y014118D01*
X009930Y013805D02*
X009876Y013803D01*
X009823Y013797D01*
X009771Y013788D01*
X009719Y013775D01*
X009668Y013758D01*
X009618Y013737D01*
X009571Y013713D01*
X009525Y013686D01*
X009481Y013655D01*
X009439Y013622D01*
X009400Y013585D01*
X009363Y013546D01*
X009330Y013504D01*
X009299Y013460D01*
X009272Y013414D01*
X009248Y013367D01*
X009227Y013317D01*
X009210Y013266D01*
X009197Y013214D01*
X009188Y013162D01*
X009182Y013109D01*
X009180Y013055D01*
X009930Y013805D02*
X009984Y013803D01*
X010037Y013797D01*
X010089Y013788D01*
X010141Y013775D01*
X010192Y013758D01*
X010242Y013737D01*
X010289Y013713D01*
X010335Y013686D01*
X010379Y013655D01*
X010421Y013622D01*
X010460Y013585D01*
X010497Y013546D01*
X010530Y013504D01*
X010561Y013460D01*
X010588Y013414D01*
X010612Y013367D01*
X010633Y013317D01*
X010650Y013266D01*
X010663Y013214D01*
X010672Y013162D01*
X010678Y013109D01*
X010680Y013055D01*
X010680Y011574D01*
X010682Y011535D01*
X010688Y011497D01*
X010697Y011460D01*
X010710Y011423D01*
X010727Y011388D01*
X010746Y011355D01*
X010769Y011324D01*
X010795Y011295D01*
X010824Y011269D01*
X010855Y011246D01*
X010888Y011227D01*
X010923Y011210D01*
X010960Y011197D01*
X010997Y011188D01*
X011035Y011182D01*
X011074Y011180D01*
X011034Y011967D02*
X011036Y012008D01*
X011042Y012049D01*
X011052Y012089D01*
X011065Y012128D01*
X011082Y012165D01*
X011103Y012201D01*
X011127Y012235D01*
X011154Y012266D01*
X011183Y012294D01*
X011216Y012320D01*
X011250Y012342D01*
X011287Y012361D01*
X011325Y012376D01*
X011365Y012388D01*
X011405Y012396D01*
X011446Y012400D01*
X011488Y012400D01*
X011529Y012396D01*
X011569Y012388D01*
X011609Y012376D01*
X011647Y012361D01*
X011683Y012342D01*
X011718Y012320D01*
X011751Y012294D01*
X011780Y012266D01*
X011807Y012235D01*
X011831Y012201D01*
X011852Y012165D01*
X011869Y012128D01*
X011882Y012089D01*
X011892Y012049D01*
X011898Y012008D01*
X011900Y011967D01*
X011898Y011926D01*
X011892Y011885D01*
X011882Y011845D01*
X011869Y011806D01*
X011852Y011769D01*
X011831Y011733D01*
X011807Y011699D01*
X011780Y011668D01*
X011751Y011640D01*
X011718Y011614D01*
X011684Y011592D01*
X011647Y011573D01*
X011609Y011558D01*
X011569Y011546D01*
X011529Y011538D01*
X011488Y011534D01*
X011446Y011534D01*
X011405Y011538D01*
X011365Y011546D01*
X011325Y011558D01*
X011287Y011573D01*
X011251Y011592D01*
X011216Y011614D01*
X011183Y011640D01*
X011154Y011668D01*
X011127Y011699D01*
X011103Y011733D01*
X011082Y011769D01*
X011065Y011806D01*
X011052Y011845D01*
X011042Y011885D01*
X011036Y011926D01*
X011034Y011967D01*
X011034Y017479D02*
X011036Y017520D01*
X011042Y017561D01*
X011052Y017601D01*
X011065Y017640D01*
X011082Y017677D01*
X011103Y017713D01*
X011127Y017747D01*
X011154Y017778D01*
X011183Y017806D01*
X011216Y017832D01*
X011250Y017854D01*
X011287Y017873D01*
X011325Y017888D01*
X011365Y017900D01*
X011405Y017908D01*
X011446Y017912D01*
X011488Y017912D01*
X011529Y017908D01*
X011569Y017900D01*
X011609Y017888D01*
X011647Y017873D01*
X011683Y017854D01*
X011718Y017832D01*
X011751Y017806D01*
X011780Y017778D01*
X011807Y017747D01*
X011831Y017713D01*
X011852Y017677D01*
X011869Y017640D01*
X011882Y017601D01*
X011892Y017561D01*
X011898Y017520D01*
X011900Y017479D01*
X011898Y017438D01*
X011892Y017397D01*
X011882Y017357D01*
X011869Y017318D01*
X011852Y017281D01*
X011831Y017245D01*
X011807Y017211D01*
X011780Y017180D01*
X011751Y017152D01*
X011718Y017126D01*
X011684Y017104D01*
X011647Y017085D01*
X011609Y017070D01*
X011569Y017058D01*
X011529Y017050D01*
X011488Y017046D01*
X011446Y017046D01*
X011405Y017050D01*
X011365Y017058D01*
X011325Y017070D01*
X011287Y017085D01*
X011251Y017104D01*
X011216Y017126D01*
X011183Y017152D01*
X011154Y017180D01*
X011127Y017211D01*
X011103Y017245D01*
X011082Y017281D01*
X011065Y017318D01*
X011052Y017357D01*
X011042Y017397D01*
X011036Y017438D01*
X011034Y017479D01*
X003503Y017479D02*
X003505Y017520D01*
X003511Y017561D01*
X003521Y017601D01*
X003534Y017640D01*
X003551Y017677D01*
X003572Y017713D01*
X003596Y017747D01*
X003623Y017778D01*
X003652Y017806D01*
X003685Y017832D01*
X003719Y017854D01*
X003756Y017873D01*
X003794Y017888D01*
X003834Y017900D01*
X003874Y017908D01*
X003915Y017912D01*
X003957Y017912D01*
X003998Y017908D01*
X004038Y017900D01*
X004078Y017888D01*
X004116Y017873D01*
X004152Y017854D01*
X004187Y017832D01*
X004220Y017806D01*
X004249Y017778D01*
X004276Y017747D01*
X004300Y017713D01*
X004321Y017677D01*
X004338Y017640D01*
X004351Y017601D01*
X004361Y017561D01*
X004367Y017520D01*
X004369Y017479D01*
X004367Y017438D01*
X004361Y017397D01*
X004351Y017357D01*
X004338Y017318D01*
X004321Y017281D01*
X004300Y017245D01*
X004276Y017211D01*
X004249Y017180D01*
X004220Y017152D01*
X004187Y017126D01*
X004153Y017104D01*
X004116Y017085D01*
X004078Y017070D01*
X004038Y017058D01*
X003998Y017050D01*
X003957Y017046D01*
X003915Y017046D01*
X003874Y017050D01*
X003834Y017058D01*
X003794Y017070D01*
X003756Y017085D01*
X003720Y017104D01*
X003685Y017126D01*
X003652Y017152D01*
X003623Y017180D01*
X003596Y017211D01*
X003572Y017245D01*
X003551Y017281D01*
X003534Y017318D01*
X003521Y017357D01*
X003511Y017397D01*
X003505Y017438D01*
X003503Y017479D01*
X011034Y003374D02*
X011036Y003415D01*
X011042Y003456D01*
X011052Y003496D01*
X011065Y003535D01*
X011082Y003572D01*
X011103Y003608D01*
X011127Y003642D01*
X011154Y003673D01*
X011183Y003701D01*
X011216Y003727D01*
X011250Y003749D01*
X011287Y003768D01*
X011325Y003783D01*
X011365Y003795D01*
X011405Y003803D01*
X011446Y003807D01*
X011488Y003807D01*
X011529Y003803D01*
X011569Y003795D01*
X011609Y003783D01*
X011647Y003768D01*
X011683Y003749D01*
X011718Y003727D01*
X011751Y003701D01*
X011780Y003673D01*
X011807Y003642D01*
X011831Y003608D01*
X011852Y003572D01*
X011869Y003535D01*
X011882Y003496D01*
X011892Y003456D01*
X011898Y003415D01*
X011900Y003374D01*
X011898Y003333D01*
X011892Y003292D01*
X011882Y003252D01*
X011869Y003213D01*
X011852Y003176D01*
X011831Y003140D01*
X011807Y003106D01*
X011780Y003075D01*
X011751Y003047D01*
X011718Y003021D01*
X011684Y002999D01*
X011647Y002980D01*
X011609Y002965D01*
X011569Y002953D01*
X011529Y002945D01*
X011488Y002941D01*
X011446Y002941D01*
X011405Y002945D01*
X011365Y002953D01*
X011325Y002965D01*
X011287Y002980D01*
X011251Y002999D01*
X011216Y003021D01*
X011183Y003047D01*
X011154Y003075D01*
X011127Y003106D01*
X011103Y003140D01*
X011082Y003176D01*
X011065Y003213D01*
X011052Y003252D01*
X011042Y003292D01*
X011036Y003333D01*
X011034Y003374D01*
D11*
X011608Y004207D02*
X011606Y004209D01*
X011596Y004210D01*
X011585Y004212D01*
X011583Y004211D01*
X011481Y004216D01*
X011481Y004217D01*
X011468Y004217D01*
X011456Y004218D01*
X011455Y004217D01*
X010810Y004217D01*
X010810Y004636D01*
X010810Y004637D01*
X010810Y007535D01*
X010810Y007536D01*
X010810Y008049D01*
X011503Y008049D01*
X011504Y008048D01*
X011516Y008049D01*
X011527Y008049D01*
X011528Y008051D01*
X011630Y008061D01*
X011633Y008060D01*
X011643Y008063D01*
X011654Y008064D01*
X011656Y008066D01*
X011756Y008093D01*
X011758Y008092D01*
X011768Y008096D01*
X011778Y008099D01*
X011780Y008101D01*
X011874Y008143D01*
X011877Y008142D01*
X011886Y008148D01*
X011896Y008153D01*
X011897Y008155D01*
X011984Y008211D01*
X011987Y008211D01*
X011994Y008218D01*
X012003Y008224D01*
X012004Y008227D01*
X012081Y008296D01*
X012084Y008296D01*
X012091Y008305D01*
X012099Y008312D01*
X012099Y008315D01*
X012164Y008395D01*
X012167Y008396D01*
X012172Y008405D01*
X012179Y008413D01*
X012178Y008416D01*
X012230Y008506D01*
X012233Y008507D01*
X012237Y008517D01*
X012242Y008526D01*
X012241Y008529D01*
X012279Y008625D01*
X012281Y008627D01*
X012283Y008637D01*
X012287Y008647D01*
X012286Y008650D01*
X012307Y008751D01*
X012310Y008753D01*
X012310Y008764D01*
X012312Y008774D01*
X012311Y008777D01*
X012316Y008878D01*
X012317Y008879D01*
X012317Y008891D01*
X012318Y008903D01*
X012317Y008904D01*
X012317Y009543D01*
X016317Y009543D01*
X016368Y009538D01*
X016463Y009498D01*
X016536Y009426D01*
X016575Y009331D01*
X016581Y009279D01*
X016581Y002980D01*
X016575Y002929D01*
X016536Y002833D01*
X016463Y002761D01*
X016368Y002721D01*
X016317Y002716D01*
X012310Y002716D01*
X012310Y003402D01*
X012311Y003404D01*
X012310Y003415D01*
X012310Y003427D01*
X012309Y003428D01*
X012298Y003530D01*
X012299Y003533D01*
X012297Y003543D01*
X012296Y003554D01*
X012293Y003556D01*
X012267Y003655D01*
X012268Y003658D01*
X012263Y003668D01*
X012261Y003678D01*
X012258Y003680D01*
X012216Y003774D01*
X012217Y003777D01*
X012211Y003786D01*
X012207Y003796D01*
X012204Y003797D01*
X012148Y003884D01*
X012148Y003886D01*
X012141Y003894D01*
X012135Y003903D01*
X012132Y003904D01*
X012063Y003981D01*
X012063Y003984D01*
X012054Y003990D01*
X012047Y003998D01*
X012044Y003999D01*
X011964Y004064D01*
X011963Y004066D01*
X011954Y004072D01*
X011946Y004079D01*
X011943Y004078D01*
X011854Y004130D01*
X011852Y004133D01*
X011842Y004137D01*
X011833Y004142D01*
X011830Y004141D01*
X011734Y004178D01*
X011732Y004181D01*
X011722Y004183D01*
X011712Y004187D01*
X011709Y004186D01*
X011608Y004207D01*
X011481Y004217D02*
X014001Y004217D01*
X014001Y004275D02*
X010810Y004275D01*
X010810Y004334D02*
X014037Y004334D01*
X014001Y004298D02*
X014081Y004378D01*
X014081Y005878D01*
X014080Y005880D01*
X014081Y005932D01*
X014081Y005984D01*
X014083Y005985D01*
X014083Y005987D01*
X014121Y006023D01*
X014157Y006060D01*
X014159Y006060D01*
X015220Y007066D01*
X015220Y007173D01*
X015343Y007296D01*
X015517Y007296D01*
X015640Y007173D01*
X015640Y006999D01*
X015517Y006876D01*
X015398Y006876D01*
X014341Y005874D01*
X014341Y004378D01*
X014421Y004298D01*
X014421Y004124D01*
X014298Y004001D01*
X014124Y004001D01*
X014001Y004124D01*
X014001Y004298D01*
X014081Y004392D02*
X010810Y004392D01*
X010810Y004451D02*
X014081Y004451D01*
X014081Y004509D02*
X013424Y004509D01*
X013469Y004528D02*
X013363Y004484D01*
X013247Y004484D01*
X013141Y004528D01*
X013059Y004609D01*
X013015Y004716D01*
X013015Y004767D01*
X012781Y005001D01*
X012658Y005124D01*
X012658Y008781D01*
X012602Y008836D01*
X012599Y008836D01*
X012507Y008874D01*
X012437Y008945D01*
X012399Y009037D01*
X012399Y009136D01*
X012437Y009228D01*
X012507Y009298D01*
X012599Y009336D01*
X012698Y009336D01*
X012790Y009298D01*
X012861Y009228D01*
X012899Y009136D01*
X012899Y009133D01*
X013077Y008954D01*
X013077Y005298D01*
X013312Y005064D01*
X013363Y005064D01*
X013469Y005020D01*
X013551Y004938D01*
X013595Y004831D01*
X013595Y004716D01*
X013551Y004609D01*
X013469Y004528D01*
X013509Y004568D02*
X014081Y004568D01*
X014081Y004626D02*
X013558Y004626D01*
X013582Y004685D02*
X014081Y004685D01*
X014081Y004743D02*
X013595Y004743D01*
X013595Y004802D02*
X014081Y004802D01*
X014081Y004860D02*
X013583Y004860D01*
X013559Y004919D02*
X014081Y004919D01*
X014081Y004977D02*
X013512Y004977D01*
X013431Y005036D02*
X014081Y005036D01*
X014081Y005094D02*
X013282Y005094D01*
X013223Y005153D02*
X014081Y005153D01*
X014081Y005211D02*
X013165Y005211D01*
X013106Y005270D02*
X014081Y005270D01*
X014081Y005328D02*
X013077Y005328D01*
X013077Y005387D02*
X014081Y005387D01*
X014081Y005445D02*
X013077Y005445D01*
X013077Y005504D02*
X014081Y005504D01*
X014081Y005562D02*
X013077Y005562D01*
X013077Y005621D02*
X014081Y005621D01*
X014081Y005679D02*
X013077Y005679D01*
X013077Y005738D02*
X014081Y005738D01*
X014081Y005796D02*
X013077Y005796D01*
X013077Y005855D02*
X014081Y005855D01*
X014081Y005913D02*
X013077Y005913D01*
X013077Y005972D02*
X014081Y005972D01*
X014127Y006030D02*
X013077Y006030D01*
X013077Y006089D02*
X014189Y006089D01*
X014251Y006147D02*
X013077Y006147D01*
X013077Y006206D02*
X014313Y006206D01*
X014374Y006264D02*
X013077Y006264D01*
X013077Y006323D02*
X014436Y006323D01*
X014498Y006381D02*
X013077Y006381D01*
X013077Y006440D02*
X014559Y006440D01*
X014621Y006498D02*
X013077Y006498D01*
X013077Y006557D02*
X014683Y006557D01*
X014744Y006615D02*
X013077Y006615D01*
X013077Y006674D02*
X014806Y006674D01*
X014868Y006732D02*
X013077Y006732D01*
X013077Y006791D02*
X014929Y006791D01*
X014991Y006849D02*
X013077Y006849D01*
X013077Y006908D02*
X015053Y006908D01*
X015114Y006966D02*
X013077Y006966D01*
X013077Y007025D02*
X015176Y007025D01*
X015220Y007083D02*
X013077Y007083D01*
X013077Y007142D02*
X015220Y007142D01*
X015247Y007200D02*
X013077Y007200D01*
X013077Y007259D02*
X015305Y007259D01*
X015555Y007259D02*
X016581Y007259D01*
X016581Y007317D02*
X013077Y007317D01*
X013077Y007376D02*
X016581Y007376D01*
X016581Y007434D02*
X013077Y007434D01*
X013077Y007493D02*
X016581Y007493D01*
X016581Y007551D02*
X013077Y007551D01*
X013077Y007610D02*
X016581Y007610D01*
X016581Y007668D02*
X013077Y007668D01*
X013077Y007727D02*
X016581Y007727D01*
X016581Y007785D02*
X013077Y007785D01*
X013077Y007844D02*
X016581Y007844D01*
X016581Y007902D02*
X013077Y007902D01*
X013077Y007961D02*
X016581Y007961D01*
X016581Y008019D02*
X013077Y008019D01*
X013077Y008078D02*
X016581Y008078D01*
X016581Y008136D02*
X013077Y008136D01*
X013077Y008195D02*
X016581Y008195D01*
X016581Y008253D02*
X013077Y008253D01*
X013077Y008312D02*
X016581Y008312D01*
X016581Y008370D02*
X013077Y008370D01*
X013077Y008429D02*
X016581Y008429D01*
X016581Y008487D02*
X013077Y008487D01*
X013077Y008546D02*
X016581Y008546D01*
X016581Y008604D02*
X013077Y008604D01*
X013077Y008663D02*
X016581Y008663D01*
X016581Y008721D02*
X013077Y008721D01*
X013077Y008780D02*
X016581Y008780D01*
X016581Y008838D02*
X013077Y008838D01*
X013077Y008897D02*
X015039Y008897D01*
X015021Y008915D02*
X015064Y008871D01*
X015250Y008871D01*
X015304Y008926D01*
X015359Y008871D01*
X015545Y008871D01*
X015569Y008895D01*
X015593Y008871D01*
X015735Y008871D01*
X015768Y008904D01*
X015801Y008871D01*
X015987Y008871D01*
X016030Y008915D01*
X016059Y008943D01*
X016072Y008956D01*
X016077Y008945D01*
X016090Y008906D01*
X016099Y008902D01*
X016103Y008893D01*
X016142Y008880D01*
X016179Y008862D01*
X016188Y008865D01*
X016197Y008862D01*
X016234Y008880D01*
X016273Y008893D01*
X016278Y008902D01*
X016286Y008906D01*
X016299Y008945D01*
X016405Y009156D01*
X016373Y009250D01*
X016284Y009294D01*
X016190Y009263D01*
X016188Y009260D01*
X016187Y009263D01*
X016092Y009294D01*
X016073Y009285D01*
X016057Y009301D01*
X015987Y009371D01*
X015801Y009371D01*
X015757Y009328D01*
X015725Y009295D01*
X015687Y009258D01*
X015687Y009155D01*
X015658Y009155D01*
X015658Y009258D01*
X015615Y009301D01*
X015545Y009371D01*
X015359Y009371D01*
X015315Y009328D01*
X015304Y009317D01*
X015293Y009328D01*
X015250Y009371D01*
X015064Y009371D01*
X014994Y009301D01*
X014950Y009258D01*
X014950Y008985D01*
X015021Y008915D01*
X014980Y008955D02*
X013077Y008955D01*
X013018Y009014D02*
X014950Y009014D01*
X014950Y009072D02*
X012960Y009072D01*
X012901Y009131D02*
X014950Y009131D01*
X014950Y009189D02*
X012877Y009189D01*
X012841Y009248D02*
X014950Y009248D01*
X014998Y009306D02*
X012771Y009306D01*
X012526Y009306D02*
X012317Y009306D01*
X012317Y009248D02*
X012456Y009248D01*
X012421Y009189D02*
X012317Y009189D01*
X012317Y009131D02*
X012399Y009131D01*
X012399Y009072D02*
X012317Y009072D01*
X012317Y009014D02*
X012408Y009014D01*
X012433Y008955D02*
X012317Y008955D01*
X012317Y008897D02*
X012485Y008897D01*
X012595Y008838D02*
X012314Y008838D01*
X012311Y008780D02*
X012658Y008780D01*
X012658Y008721D02*
X012301Y008721D01*
X012289Y008663D02*
X012658Y008663D01*
X012658Y008604D02*
X012270Y008604D01*
X012248Y008546D02*
X012658Y008546D01*
X012658Y008487D02*
X012219Y008487D01*
X012186Y008429D02*
X012658Y008429D01*
X012658Y008370D02*
X012144Y008370D01*
X012098Y008312D02*
X012658Y008312D01*
X012658Y008253D02*
X012033Y008253D01*
X011958Y008195D02*
X012658Y008195D01*
X012658Y008136D02*
X011858Y008136D01*
X011699Y008078D02*
X012658Y008078D01*
X012658Y008019D02*
X010810Y008019D01*
X010810Y007961D02*
X012658Y007961D01*
X012658Y007902D02*
X010810Y007902D01*
X010810Y007844D02*
X012658Y007844D01*
X012658Y007785D02*
X010810Y007785D01*
X010810Y007727D02*
X012658Y007727D01*
X012658Y007668D02*
X010810Y007668D01*
X010810Y007610D02*
X012658Y007610D01*
X012658Y007551D02*
X012137Y007551D01*
X012079Y007609D02*
X011906Y007609D01*
X011783Y007486D01*
X011783Y007312D01*
X011823Y007272D01*
X011823Y006276D01*
X011783Y006236D01*
X011783Y006062D01*
X011906Y005939D01*
X012079Y005939D01*
X012202Y006062D01*
X012202Y006236D01*
X012162Y006276D01*
X012162Y007272D01*
X012202Y007312D01*
X012202Y007486D01*
X012079Y007609D01*
X012196Y007493D02*
X012658Y007493D01*
X012658Y007434D02*
X012202Y007434D01*
X012202Y007376D02*
X012658Y007376D01*
X012658Y007317D02*
X012202Y007317D01*
X012162Y007259D02*
X012658Y007259D01*
X012658Y007200D02*
X012162Y007200D01*
X012162Y007142D02*
X012658Y007142D01*
X012658Y007083D02*
X012162Y007083D01*
X012162Y007025D02*
X012658Y007025D01*
X012658Y006966D02*
X012162Y006966D01*
X012162Y006908D02*
X012658Y006908D01*
X012658Y006849D02*
X012162Y006849D01*
X012162Y006791D02*
X012658Y006791D01*
X012658Y006732D02*
X012162Y006732D01*
X012162Y006674D02*
X012658Y006674D01*
X012658Y006615D02*
X012162Y006615D01*
X012162Y006557D02*
X012658Y006557D01*
X012658Y006498D02*
X012162Y006498D01*
X012162Y006440D02*
X012658Y006440D01*
X012658Y006381D02*
X012162Y006381D01*
X012162Y006323D02*
X012658Y006323D01*
X012658Y006264D02*
X012174Y006264D01*
X012202Y006206D02*
X012658Y006206D01*
X012658Y006147D02*
X012202Y006147D01*
X012202Y006089D02*
X012658Y006089D01*
X012658Y006030D02*
X012171Y006030D01*
X012112Y005972D02*
X012658Y005972D01*
X012658Y005913D02*
X010810Y005913D01*
X010810Y005855D02*
X012658Y005855D01*
X012658Y005796D02*
X010810Y005796D01*
X010810Y005738D02*
X012658Y005738D01*
X012658Y005679D02*
X010810Y005679D01*
X010810Y005621D02*
X012658Y005621D01*
X012658Y005562D02*
X010810Y005562D01*
X010810Y005504D02*
X012658Y005504D01*
X012658Y005445D02*
X010810Y005445D01*
X010810Y005387D02*
X012658Y005387D01*
X012658Y005328D02*
X010810Y005328D01*
X010810Y005270D02*
X012658Y005270D01*
X012658Y005211D02*
X010810Y005211D01*
X010810Y005153D02*
X012658Y005153D01*
X012688Y005094D02*
X010810Y005094D01*
X010810Y005036D02*
X012746Y005036D01*
X012805Y004977D02*
X010810Y004977D01*
X010810Y004919D02*
X012863Y004919D01*
X012922Y004860D02*
X010810Y004860D01*
X010810Y004802D02*
X012980Y004802D01*
X013015Y004743D02*
X010810Y004743D01*
X010810Y004685D02*
X013028Y004685D01*
X013052Y004626D02*
X010810Y004626D01*
X010810Y004568D02*
X013101Y004568D01*
X013186Y004509D02*
X010810Y004509D01*
X011787Y004158D02*
X014001Y004158D01*
X014026Y004100D02*
X011906Y004100D01*
X011992Y004041D02*
X014084Y004041D01*
X014338Y004041D02*
X014584Y004041D01*
X014624Y004001D02*
X014501Y004124D01*
X014501Y004298D01*
X014581Y004378D01*
X014581Y005755D01*
X014579Y005757D01*
X014581Y005808D01*
X014581Y005859D01*
X014584Y005861D01*
X014584Y005865D01*
X014621Y005899D01*
X014657Y005935D01*
X014661Y005935D01*
X015220Y006446D01*
X015220Y006548D01*
X015343Y006671D01*
X015517Y006671D01*
X015640Y006548D01*
X015640Y006374D01*
X015517Y006251D01*
X015393Y006251D01*
X014841Y005748D01*
X014841Y004378D01*
X014921Y004298D01*
X014921Y004124D01*
X014798Y004001D01*
X014624Y004001D01*
X014526Y004100D02*
X014397Y004100D01*
X014421Y004158D02*
X014501Y004158D01*
X014501Y004217D02*
X014421Y004217D01*
X014421Y004275D02*
X014501Y004275D01*
X014537Y004334D02*
X014386Y004334D01*
X014341Y004392D02*
X014581Y004392D01*
X014581Y004451D02*
X014341Y004451D01*
X014341Y004509D02*
X014581Y004509D01*
X014581Y004568D02*
X014341Y004568D01*
X014341Y004626D02*
X014581Y004626D01*
X014581Y004685D02*
X014341Y004685D01*
X014341Y004743D02*
X014581Y004743D01*
X014581Y004802D02*
X014341Y004802D01*
X014341Y004860D02*
X014581Y004860D01*
X014581Y004919D02*
X014341Y004919D01*
X014341Y004977D02*
X014581Y004977D01*
X014581Y005036D02*
X014341Y005036D01*
X014341Y005094D02*
X014581Y005094D01*
X014581Y005153D02*
X014341Y005153D01*
X014341Y005211D02*
X014581Y005211D01*
X014581Y005270D02*
X014341Y005270D01*
X014341Y005328D02*
X014581Y005328D01*
X014581Y005387D02*
X014341Y005387D01*
X014341Y005445D02*
X014581Y005445D01*
X014581Y005504D02*
X014341Y005504D01*
X014341Y005562D02*
X014581Y005562D01*
X014581Y005621D02*
X014341Y005621D01*
X014341Y005679D02*
X014581Y005679D01*
X014581Y005738D02*
X014341Y005738D01*
X014341Y005796D02*
X014581Y005796D01*
X014581Y005855D02*
X014341Y005855D01*
X014382Y005913D02*
X014635Y005913D01*
X014701Y005972D02*
X014444Y005972D01*
X014506Y006030D02*
X014765Y006030D01*
X014829Y006089D02*
X014567Y006089D01*
X014629Y006147D02*
X014893Y006147D01*
X014957Y006206D02*
X014691Y006206D01*
X014752Y006264D02*
X015021Y006264D01*
X015085Y006323D02*
X014814Y006323D01*
X014876Y006381D02*
X015149Y006381D01*
X015213Y006440D02*
X014937Y006440D01*
X014999Y006498D02*
X015220Y006498D01*
X015228Y006557D02*
X015061Y006557D01*
X015122Y006615D02*
X015287Y006615D01*
X015184Y006674D02*
X016581Y006674D01*
X016581Y006732D02*
X015246Y006732D01*
X015307Y006791D02*
X016581Y006791D01*
X016581Y006849D02*
X015369Y006849D01*
X015548Y006908D02*
X016581Y006908D01*
X016581Y006966D02*
X015607Y006966D01*
X015640Y007025D02*
X016581Y007025D01*
X016581Y007083D02*
X015640Y007083D01*
X015640Y007142D02*
X016581Y007142D01*
X016581Y007200D02*
X015613Y007200D01*
X015573Y006615D02*
X016581Y006615D01*
X016581Y006557D02*
X015632Y006557D01*
X015640Y006498D02*
X016581Y006498D01*
X016581Y006440D02*
X015640Y006440D01*
X015640Y006381D02*
X016581Y006381D01*
X016581Y006323D02*
X015588Y006323D01*
X015530Y006264D02*
X016581Y006264D01*
X016581Y006206D02*
X015343Y006206D01*
X015279Y006147D02*
X016581Y006147D01*
X016581Y006089D02*
X015215Y006089D01*
X015151Y006030D02*
X016581Y006030D01*
X016581Y005972D02*
X015086Y005972D01*
X015022Y005913D02*
X016581Y005913D01*
X016581Y005855D02*
X014958Y005855D01*
X014894Y005796D02*
X016581Y005796D01*
X016581Y005738D02*
X014841Y005738D01*
X014841Y005679D02*
X016581Y005679D01*
X016581Y005621D02*
X014841Y005621D01*
X014841Y005562D02*
X016581Y005562D01*
X016581Y005504D02*
X014841Y005504D01*
X014841Y005445D02*
X016581Y005445D01*
X016581Y005387D02*
X014841Y005387D01*
X014841Y005328D02*
X016581Y005328D01*
X016581Y005270D02*
X014841Y005270D01*
X014841Y005211D02*
X016581Y005211D01*
X016581Y005153D02*
X014841Y005153D01*
X014841Y005094D02*
X016581Y005094D01*
X016581Y005036D02*
X014841Y005036D01*
X014841Y004977D02*
X016581Y004977D01*
X016581Y004919D02*
X014841Y004919D01*
X014841Y004860D02*
X016581Y004860D01*
X016581Y004802D02*
X014841Y004802D01*
X014841Y004743D02*
X016581Y004743D01*
X016581Y004685D02*
X014841Y004685D01*
X014841Y004626D02*
X016581Y004626D01*
X016581Y004568D02*
X014841Y004568D01*
X014841Y004509D02*
X016581Y004509D01*
X016581Y004451D02*
X014841Y004451D01*
X014841Y004392D02*
X016581Y004392D01*
X016581Y004334D02*
X014886Y004334D01*
X014921Y004275D02*
X016581Y004275D01*
X016581Y004217D02*
X014921Y004217D01*
X014921Y004158D02*
X016581Y004158D01*
X016581Y004100D02*
X014897Y004100D01*
X014838Y004041D02*
X016581Y004041D01*
X016581Y003983D02*
X012063Y003983D01*
X012114Y003924D02*
X016581Y003924D01*
X016581Y003866D02*
X012159Y003866D01*
X012197Y003807D02*
X016581Y003807D01*
X016581Y003749D02*
X012228Y003749D01*
X012254Y003690D02*
X016581Y003690D01*
X016581Y003632D02*
X012273Y003632D01*
X012289Y003573D02*
X016581Y003573D01*
X016581Y003515D02*
X012300Y003515D01*
X012306Y003456D02*
X016581Y003456D01*
X016581Y003398D02*
X015371Y003398D01*
X015383Y003389D02*
X015336Y003421D01*
X015284Y003443D01*
X015228Y003454D01*
X015219Y003454D01*
X015219Y003185D01*
X015180Y003185D01*
X015180Y003454D01*
X015171Y003454D01*
X015115Y003443D01*
X015063Y003421D01*
X015016Y003389D01*
X014975Y003349D01*
X014956Y003320D01*
X014952Y003329D01*
X014871Y003410D01*
X014765Y003454D01*
X014650Y003454D01*
X014544Y003410D01*
X014463Y003329D01*
X014461Y003325D01*
X014460Y003329D01*
X014379Y003410D01*
X014273Y003454D01*
X014158Y003454D01*
X014052Y003410D01*
X013971Y003329D01*
X013969Y003325D01*
X013968Y003329D01*
X013886Y003410D01*
X013780Y003454D01*
X013666Y003454D01*
X013560Y003410D01*
X013479Y003329D01*
X013435Y003223D01*
X013435Y003108D01*
X013479Y003002D01*
X013560Y002921D01*
X013666Y002877D01*
X013780Y002877D01*
X013886Y002921D01*
X013968Y003002D01*
X013969Y003006D01*
X013971Y003002D01*
X014052Y002921D01*
X014158Y002877D01*
X014273Y002877D01*
X014379Y002921D01*
X014460Y003002D01*
X014461Y003006D01*
X014463Y003002D01*
X014544Y002921D01*
X014650Y002877D01*
X014765Y002877D01*
X014871Y002921D01*
X014952Y003002D01*
X014956Y003011D01*
X014975Y002981D01*
X015016Y002941D01*
X015063Y002910D01*
X015115Y002888D01*
X015171Y002877D01*
X015180Y002877D01*
X015180Y003146D01*
X015219Y003146D01*
X015219Y003185D01*
X015488Y003185D01*
X015488Y003194D01*
X015477Y003249D01*
X015455Y003302D01*
X015423Y003349D01*
X015383Y003389D01*
X015430Y003339D02*
X016581Y003339D01*
X016581Y003281D02*
X015464Y003281D01*
X015482Y003222D02*
X016581Y003222D01*
X016581Y003164D02*
X015219Y003164D01*
X015219Y003146D02*
X015488Y003146D01*
X015488Y003137D01*
X015477Y003081D01*
X015455Y003029D01*
X015423Y002981D01*
X015383Y002941D01*
X015336Y002910D01*
X015284Y002888D01*
X015228Y002877D01*
X015219Y002877D01*
X015219Y003146D01*
X015219Y003105D02*
X015180Y003105D01*
X015180Y003047D02*
X015219Y003047D01*
X015219Y002988D02*
X015180Y002988D01*
X015180Y002930D02*
X015219Y002930D01*
X015366Y002930D02*
X016576Y002930D01*
X016581Y002988D02*
X015428Y002988D01*
X015462Y003047D02*
X016581Y003047D01*
X016581Y003105D02*
X015482Y003105D01*
X015219Y003222D02*
X015180Y003222D01*
X015180Y003281D02*
X015219Y003281D01*
X015219Y003339D02*
X015180Y003339D01*
X015180Y003398D02*
X015219Y003398D01*
X015028Y003398D02*
X014883Y003398D01*
X014942Y003339D02*
X014969Y003339D01*
X014971Y002988D02*
X014938Y002988D01*
X014879Y002930D02*
X015033Y002930D01*
X014535Y002930D02*
X014387Y002930D01*
X014446Y002988D02*
X014477Y002988D01*
X014473Y003339D02*
X014449Y003339D01*
X014391Y003398D02*
X014532Y003398D01*
X014039Y003398D02*
X013899Y003398D01*
X013957Y003339D02*
X013981Y003339D01*
X013985Y002988D02*
X013954Y002988D01*
X013895Y002930D02*
X014043Y002930D01*
X013551Y002930D02*
X012310Y002930D01*
X012310Y002988D02*
X013492Y002988D01*
X013460Y003047D02*
X012310Y003047D01*
X012310Y003105D02*
X013436Y003105D01*
X013435Y003164D02*
X012310Y003164D01*
X012310Y003222D02*
X013435Y003222D01*
X013459Y003281D02*
X012310Y003281D01*
X012310Y003339D02*
X013489Y003339D01*
X013547Y003398D02*
X012310Y003398D01*
X012310Y002871D02*
X016552Y002871D01*
X016515Y002813D02*
X012310Y002813D01*
X012310Y002754D02*
X016447Y002754D01*
X011873Y005972D02*
X010810Y005972D01*
X010810Y006030D02*
X011814Y006030D01*
X011783Y006089D02*
X010810Y006089D01*
X010810Y006147D02*
X011783Y006147D01*
X011783Y006206D02*
X010810Y006206D01*
X010810Y006264D02*
X011811Y006264D01*
X011823Y006323D02*
X010810Y006323D01*
X010810Y006381D02*
X011823Y006381D01*
X011823Y006440D02*
X010810Y006440D01*
X010810Y006498D02*
X011823Y006498D01*
X011823Y006557D02*
X010810Y006557D01*
X010810Y006615D02*
X011823Y006615D01*
X011823Y006674D02*
X010810Y006674D01*
X010810Y006732D02*
X011823Y006732D01*
X011823Y006791D02*
X010810Y006791D01*
X010810Y006849D02*
X011823Y006849D01*
X011823Y006908D02*
X010810Y006908D01*
X010810Y006966D02*
X011823Y006966D01*
X011823Y007025D02*
X010810Y007025D01*
X010810Y007083D02*
X011823Y007083D01*
X011823Y007142D02*
X010810Y007142D01*
X010810Y007200D02*
X011823Y007200D01*
X011823Y007259D02*
X010810Y007259D01*
X010810Y007317D02*
X011783Y007317D01*
X011783Y007376D02*
X010810Y007376D01*
X010810Y007434D02*
X011783Y007434D01*
X011789Y007493D02*
X010810Y007493D01*
X010810Y007551D02*
X011848Y007551D01*
X012317Y009365D02*
X015057Y009365D01*
X015114Y009251D02*
X015200Y009251D01*
X015244Y009208D01*
X015244Y009165D01*
X015200Y009121D01*
X015070Y009121D01*
X015070Y009035D02*
X015070Y009208D01*
X015114Y009251D01*
X015257Y009365D02*
X015352Y009365D01*
X015315Y009328D02*
X015315Y009328D01*
X015408Y009251D02*
X015365Y009208D01*
X015538Y009035D01*
X015495Y008991D01*
X015408Y008991D01*
X015365Y009035D01*
X015365Y009208D01*
X015408Y009251D02*
X015495Y009251D01*
X015538Y009208D01*
X015538Y009035D01*
X015642Y009035D02*
X015642Y008991D01*
X015686Y008991D01*
X015686Y009035D01*
X015642Y009035D01*
X015658Y009189D02*
X015687Y009189D01*
X015687Y009248D02*
X015658Y009248D01*
X015610Y009306D02*
X015735Y009306D01*
X015794Y009365D02*
X015552Y009365D01*
X015807Y009208D02*
X015980Y009035D01*
X015937Y008991D01*
X015850Y008991D01*
X015807Y009035D01*
X015807Y009208D01*
X015850Y009251D01*
X015937Y009251D01*
X015980Y009208D01*
X015980Y009035D01*
X016070Y008955D02*
X016072Y008955D01*
X016030Y008915D02*
X016030Y008915D01*
X016012Y008897D02*
X016101Y008897D01*
X016188Y008991D02*
X016102Y009165D01*
X016052Y009306D02*
X016578Y009306D01*
X016581Y009248D02*
X016374Y009248D01*
X016393Y009189D02*
X016581Y009189D01*
X016581Y009131D02*
X016392Y009131D01*
X016363Y009072D02*
X016581Y009072D01*
X016581Y009014D02*
X016334Y009014D01*
X016304Y008955D02*
X016581Y008955D01*
X016581Y008897D02*
X016275Y008897D01*
X016188Y008991D02*
X016275Y009165D01*
X015994Y009365D02*
X016561Y009365D01*
X016537Y009423D02*
X012317Y009423D01*
X012317Y009482D02*
X016480Y009482D01*
X016345Y009540D02*
X012317Y009540D01*
X012310Y011310D02*
X012310Y011996D01*
X012311Y011998D01*
X012310Y012009D01*
X012310Y012021D01*
X012309Y012022D01*
X012298Y012124D01*
X012299Y012126D01*
X012297Y012137D01*
X012296Y012147D01*
X012293Y012149D01*
X012267Y012249D01*
X012268Y012252D01*
X012263Y012262D01*
X012261Y012272D01*
X012258Y012273D01*
X012216Y012368D01*
X012217Y012371D01*
X012211Y012380D01*
X012207Y012389D01*
X012204Y012390D01*
X012148Y012477D01*
X012148Y012480D01*
X012141Y012488D01*
X012135Y012497D01*
X012132Y012498D01*
X012063Y012575D01*
X012063Y012577D01*
X012054Y012584D01*
X012047Y012592D01*
X012044Y012592D01*
X011964Y012657D01*
X011963Y012660D01*
X011954Y012666D01*
X011946Y012672D01*
X011943Y012672D01*
X011854Y012724D01*
X011852Y012726D01*
X011842Y012730D01*
X011833Y012736D01*
X011830Y012735D01*
X011734Y012772D01*
X011732Y012775D01*
X011722Y012777D01*
X011712Y012781D01*
X011709Y012779D01*
X011608Y012801D01*
X011606Y012803D01*
X011596Y012804D01*
X011585Y012806D01*
X011583Y012804D01*
X011481Y012810D01*
X011481Y012811D01*
X011468Y012811D01*
X011456Y012811D01*
X011455Y012811D01*
X010810Y012811D01*
X010810Y013230D01*
X010810Y013231D01*
X010810Y016129D01*
X010810Y016130D01*
X010810Y016643D01*
X011503Y016643D01*
X011504Y016642D01*
X011516Y016643D01*
X011527Y016643D01*
X011528Y016644D01*
X011630Y016655D01*
X011633Y016654D01*
X011643Y016656D01*
X011654Y016657D01*
X011656Y016660D01*
X011756Y016686D01*
X011758Y016685D01*
X011768Y016690D01*
X011778Y016692D01*
X011780Y016695D01*
X011874Y016737D01*
X011877Y016736D01*
X011886Y016742D01*
X011896Y016746D01*
X011897Y016749D01*
X011984Y016805D01*
X011987Y016805D01*
X011994Y016812D01*
X012003Y016818D01*
X012004Y016821D01*
X012081Y016890D01*
X012084Y016890D01*
X012091Y016899D01*
X012099Y016906D01*
X012099Y016909D01*
X012164Y016989D01*
X012167Y016990D01*
X012172Y016999D01*
X012179Y017007D01*
X012178Y017010D01*
X012230Y017099D01*
X012233Y017101D01*
X012237Y017111D01*
X012242Y017120D01*
X012241Y017123D01*
X012279Y017219D01*
X012281Y017221D01*
X012283Y017231D01*
X012287Y017241D01*
X012286Y017244D01*
X012307Y017345D01*
X012310Y017347D01*
X012310Y017357D01*
X012312Y017368D01*
X012311Y017370D01*
X012316Y017472D01*
X012317Y017472D01*
X012317Y017485D01*
X012318Y017497D01*
X012317Y017498D01*
X012317Y018137D01*
X016317Y018137D01*
X016368Y018132D01*
X016463Y018092D01*
X016536Y018019D01*
X016575Y017924D01*
X016581Y017873D01*
X016581Y011574D01*
X016575Y011522D01*
X016536Y011427D01*
X016463Y011354D01*
X016368Y011315D01*
X016317Y011310D01*
X012310Y011310D01*
X012310Y011354D02*
X016461Y011354D01*
X016521Y011412D02*
X012310Y011412D01*
X012310Y011471D02*
X016554Y011471D01*
X016576Y011529D02*
X015374Y011529D01*
X015383Y011535D02*
X015423Y011575D01*
X015455Y011622D01*
X015477Y011675D01*
X015488Y011731D01*
X015488Y011740D01*
X015219Y011740D01*
X015219Y011778D01*
X015488Y011778D01*
X015488Y011787D01*
X015477Y011843D01*
X015455Y011896D01*
X015423Y011943D01*
X015383Y011983D01*
X015336Y012015D01*
X015284Y012036D01*
X015228Y012048D01*
X015219Y012048D01*
X015219Y011778D01*
X015180Y011778D01*
X015180Y012048D01*
X015171Y012048D01*
X015115Y012036D01*
X015063Y012015D01*
X015016Y011983D01*
X014975Y011943D01*
X014956Y011913D01*
X014952Y011922D01*
X014871Y012004D01*
X014765Y012048D01*
X014650Y012048D01*
X014544Y012004D01*
X014463Y011922D01*
X014461Y011919D01*
X014460Y011922D01*
X014379Y012004D01*
X014273Y012048D01*
X014158Y012048D01*
X014052Y012004D01*
X013971Y011922D01*
X013969Y011919D01*
X013968Y011922D01*
X013886Y012004D01*
X013780Y012048D01*
X013666Y012048D01*
X013560Y012004D01*
X013479Y011922D01*
X013435Y011816D01*
X013435Y011702D01*
X013479Y011596D01*
X013560Y011515D01*
X013666Y011471D01*
X013780Y011471D01*
X013886Y011515D01*
X013968Y011596D01*
X013969Y011599D01*
X013971Y011596D01*
X014052Y011515D01*
X014158Y011471D01*
X014273Y011471D01*
X014379Y011515D01*
X014460Y011596D01*
X014461Y011599D01*
X014463Y011596D01*
X014544Y011515D01*
X014650Y011471D01*
X014765Y011471D01*
X014871Y011515D01*
X014952Y011596D01*
X014956Y011605D01*
X014975Y011575D01*
X015016Y011535D01*
X015063Y011503D01*
X015115Y011482D01*
X015171Y011471D01*
X015180Y011471D01*
X015180Y011740D01*
X015219Y011740D01*
X015219Y011471D01*
X015228Y011471D01*
X015284Y011482D01*
X015336Y011503D01*
X015383Y011535D01*
X015432Y011588D02*
X016581Y011588D01*
X016581Y011646D02*
X015465Y011646D01*
X015483Y011705D02*
X016581Y011705D01*
X016581Y011763D02*
X015219Y011763D01*
X015219Y011705D02*
X015180Y011705D01*
X015180Y011646D02*
X015219Y011646D01*
X015219Y011588D02*
X015180Y011588D01*
X015180Y011529D02*
X015219Y011529D01*
X015025Y011529D02*
X014885Y011529D01*
X014944Y011588D02*
X014967Y011588D01*
X015180Y011822D02*
X015219Y011822D01*
X015219Y011880D02*
X015180Y011880D01*
X015180Y011939D02*
X015219Y011939D01*
X015219Y011997D02*
X015180Y011997D01*
X015036Y011997D02*
X014877Y011997D01*
X014936Y011939D02*
X014972Y011939D01*
X015362Y011997D02*
X016581Y011997D01*
X016581Y011939D02*
X015426Y011939D01*
X015462Y011880D02*
X016581Y011880D01*
X016581Y011822D02*
X015481Y011822D01*
X014798Y012595D02*
X014921Y012718D01*
X014921Y012892D01*
X014841Y012972D01*
X014841Y014341D01*
X015393Y014845D01*
X015517Y014845D01*
X015640Y014968D01*
X015640Y015142D01*
X015517Y015265D01*
X015343Y015265D01*
X015220Y015142D01*
X015220Y015039D01*
X014943Y015039D01*
X014882Y014981D02*
X015156Y014981D01*
X015220Y015039D02*
X014661Y014529D01*
X014657Y014529D01*
X014621Y014493D01*
X014584Y014458D01*
X014584Y014455D01*
X014581Y014453D01*
X014581Y014402D01*
X014579Y014351D01*
X014581Y014348D01*
X014581Y012972D01*
X014501Y012892D01*
X014501Y012718D01*
X014624Y012595D01*
X014798Y012595D01*
X014844Y012641D02*
X016581Y012641D01*
X016581Y012699D02*
X014902Y012699D01*
X014921Y012758D02*
X016581Y012758D01*
X016581Y012816D02*
X014921Y012816D01*
X014921Y012875D02*
X016581Y012875D01*
X016581Y012933D02*
X014880Y012933D01*
X014841Y012992D02*
X016581Y012992D01*
X016581Y013050D02*
X014841Y013050D01*
X014841Y013109D02*
X016581Y013109D01*
X016581Y013167D02*
X014841Y013167D01*
X014841Y013226D02*
X016581Y013226D01*
X016581Y013284D02*
X014841Y013284D01*
X014841Y013343D02*
X016581Y013343D01*
X016581Y013401D02*
X014841Y013401D01*
X014841Y013460D02*
X016581Y013460D01*
X016581Y013518D02*
X014841Y013518D01*
X014841Y013577D02*
X016581Y013577D01*
X016581Y013635D02*
X014841Y013635D01*
X014841Y013694D02*
X016581Y013694D01*
X016581Y013752D02*
X014841Y013752D01*
X014841Y013811D02*
X016581Y013811D01*
X016581Y013869D02*
X014841Y013869D01*
X014841Y013928D02*
X016581Y013928D01*
X016581Y013986D02*
X014841Y013986D01*
X014841Y014045D02*
X016581Y014045D01*
X016581Y014103D02*
X014841Y014103D01*
X014841Y014162D02*
X016581Y014162D01*
X016581Y014220D02*
X014841Y014220D01*
X014841Y014279D02*
X016581Y014279D01*
X016581Y014337D02*
X014841Y014337D01*
X014901Y014396D02*
X016581Y014396D01*
X016581Y014454D02*
X014965Y014454D01*
X015029Y014513D02*
X016581Y014513D01*
X016581Y014571D02*
X015093Y014571D01*
X015157Y014630D02*
X016581Y014630D01*
X016581Y014688D02*
X015221Y014688D01*
X015285Y014747D02*
X016581Y014747D01*
X016581Y014805D02*
X015349Y014805D01*
X015536Y014864D02*
X016581Y014864D01*
X016581Y014922D02*
X015594Y014922D01*
X015640Y014981D02*
X016581Y014981D01*
X016581Y015039D02*
X015640Y015039D01*
X015640Y015098D02*
X016581Y015098D01*
X016581Y015156D02*
X015626Y015156D01*
X015567Y015215D02*
X016581Y015215D01*
X016581Y015273D02*
X015190Y015273D01*
X015128Y015215D02*
X015293Y015215D01*
X015234Y015156D02*
X015067Y015156D01*
X015005Y015098D02*
X015220Y015098D01*
X015092Y014922D02*
X014820Y014922D01*
X014758Y014864D02*
X015028Y014864D01*
X014963Y014805D02*
X014697Y014805D01*
X014635Y014747D02*
X014899Y014747D01*
X014835Y014688D02*
X014573Y014688D01*
X014512Y014630D02*
X014771Y014630D01*
X014707Y014571D02*
X014450Y014571D01*
X014388Y014513D02*
X014641Y014513D01*
X014583Y014454D02*
X014341Y014454D01*
X014341Y014468D02*
X015398Y015470D01*
X015517Y015470D01*
X015640Y015593D01*
X015640Y015767D01*
X015517Y015890D01*
X015343Y015890D01*
X015220Y015767D01*
X015220Y015660D01*
X014159Y014654D01*
X014157Y014654D01*
X014121Y014617D01*
X014083Y014581D01*
X014083Y014579D01*
X014081Y014578D01*
X014081Y014525D01*
X014080Y014473D01*
X014081Y014472D01*
X014081Y012972D01*
X014001Y012892D01*
X014001Y012718D01*
X014124Y012595D01*
X014298Y012595D01*
X014421Y012718D01*
X014421Y012892D01*
X014341Y012972D01*
X014341Y014468D01*
X014341Y014396D02*
X014581Y014396D01*
X014581Y014337D02*
X014341Y014337D01*
X014341Y014279D02*
X014581Y014279D01*
X014581Y014220D02*
X014341Y014220D01*
X014341Y014162D02*
X014581Y014162D01*
X014581Y014103D02*
X014341Y014103D01*
X014341Y014045D02*
X014581Y014045D01*
X014581Y013986D02*
X014341Y013986D01*
X014341Y013928D02*
X014581Y013928D01*
X014581Y013869D02*
X014341Y013869D01*
X014341Y013811D02*
X014581Y013811D01*
X014581Y013752D02*
X014341Y013752D01*
X014341Y013694D02*
X014581Y013694D01*
X014581Y013635D02*
X014341Y013635D01*
X014341Y013577D02*
X014581Y013577D01*
X014581Y013518D02*
X014341Y013518D01*
X014341Y013460D02*
X014581Y013460D01*
X014581Y013401D02*
X014341Y013401D01*
X014341Y013343D02*
X014581Y013343D01*
X014581Y013284D02*
X014341Y013284D01*
X014341Y013226D02*
X014581Y013226D01*
X014581Y013167D02*
X014341Y013167D01*
X014341Y013109D02*
X014581Y013109D01*
X014581Y013050D02*
X014341Y013050D01*
X014341Y012992D02*
X014581Y012992D01*
X014542Y012933D02*
X014380Y012933D01*
X014421Y012875D02*
X014501Y012875D01*
X014501Y012816D02*
X014421Y012816D01*
X014421Y012758D02*
X014501Y012758D01*
X014520Y012699D02*
X014402Y012699D01*
X014344Y012641D02*
X014579Y012641D01*
X014079Y012641D02*
X011985Y012641D01*
X012057Y012582D02*
X016581Y012582D01*
X016581Y012524D02*
X012109Y012524D01*
X012156Y012465D02*
X016581Y012465D01*
X016581Y012407D02*
X012194Y012407D01*
X012225Y012348D02*
X016581Y012348D01*
X016581Y012290D02*
X012251Y012290D01*
X012272Y012231D02*
X016581Y012231D01*
X016581Y012173D02*
X012287Y012173D01*
X012299Y012114D02*
X016581Y012114D01*
X016581Y012056D02*
X012305Y012056D01*
X012311Y011997D02*
X013553Y011997D01*
X013495Y011939D02*
X012310Y011939D01*
X012310Y011880D02*
X013461Y011880D01*
X013437Y011822D02*
X012310Y011822D01*
X012310Y011763D02*
X013435Y011763D01*
X013435Y011705D02*
X012310Y011705D01*
X012310Y011646D02*
X013458Y011646D01*
X013487Y011588D02*
X012310Y011588D01*
X012310Y011529D02*
X013545Y011529D01*
X013901Y011529D02*
X014037Y011529D01*
X013979Y011588D02*
X013959Y011588D01*
X013951Y011939D02*
X013987Y011939D01*
X014045Y011997D02*
X013893Y011997D01*
X014385Y011997D02*
X014537Y011997D01*
X014479Y011939D02*
X014444Y011939D01*
X014452Y011588D02*
X014471Y011588D01*
X014529Y011529D02*
X014393Y011529D01*
X014020Y012699D02*
X011896Y012699D01*
X011772Y012758D02*
X014001Y012758D01*
X014001Y012816D02*
X010810Y012816D01*
X010810Y012875D02*
X014001Y012875D01*
X014042Y012933D02*
X010810Y012933D01*
X010810Y012992D02*
X014081Y012992D01*
X014081Y013050D02*
X010810Y013050D01*
X010810Y013109D02*
X013172Y013109D01*
X013141Y013122D02*
X013247Y013078D01*
X013363Y013078D01*
X013469Y013122D01*
X013551Y013203D01*
X013595Y013310D01*
X013595Y013425D01*
X013551Y013532D01*
X013469Y013613D01*
X013363Y013657D01*
X013312Y013657D01*
X013077Y013892D01*
X013077Y017548D01*
X012899Y017727D01*
X012899Y017730D01*
X012861Y017822D01*
X012790Y017892D01*
X012698Y017930D01*
X012599Y017930D01*
X012507Y017892D01*
X012437Y017822D01*
X012399Y017730D01*
X012317Y017730D01*
X012317Y017672D02*
X012399Y017672D01*
X012399Y017630D02*
X012399Y017730D01*
X012423Y017789D02*
X012317Y017789D01*
X012317Y017847D02*
X012462Y017847D01*
X012540Y017906D02*
X012317Y017906D01*
X012317Y017964D02*
X015063Y017964D01*
X015064Y017965D02*
X014994Y017895D01*
X014950Y017852D01*
X014950Y017579D01*
X015021Y017508D01*
X015064Y017465D01*
X015250Y017465D01*
X015304Y017519D01*
X015359Y017465D01*
X015545Y017465D01*
X015569Y017489D01*
X015593Y017465D01*
X015735Y017465D01*
X015768Y017498D01*
X015801Y017465D01*
X015987Y017465D01*
X016030Y017508D01*
X016072Y017550D01*
X016077Y017539D01*
X016090Y017500D01*
X016099Y017496D01*
X016103Y017487D01*
X016142Y017474D01*
X016179Y017455D01*
X016188Y017459D01*
X016197Y017455D01*
X016234Y017474D01*
X016273Y017487D01*
X016278Y017496D01*
X016286Y017500D01*
X016299Y017539D01*
X016405Y017749D01*
X016373Y017844D01*
X016284Y017888D01*
X016190Y017857D01*
X016188Y017853D01*
X016187Y017857D01*
X016092Y017888D01*
X016073Y017879D01*
X016057Y017895D01*
X015987Y017965D01*
X015801Y017965D01*
X015757Y017922D01*
X015687Y017852D01*
X015687Y017748D01*
X015658Y017748D01*
X015658Y017852D01*
X015545Y017965D01*
X015359Y017965D01*
X015315Y017922D01*
X015304Y017911D01*
X015293Y017922D01*
X015250Y017965D01*
X015064Y017965D01*
X015004Y017906D02*
X012757Y017906D01*
X012835Y017847D02*
X014950Y017847D01*
X014950Y017789D02*
X012874Y017789D01*
X012899Y017730D02*
X014950Y017730D01*
X014950Y017672D02*
X012954Y017672D01*
X013013Y017613D02*
X014950Y017613D01*
X014974Y017555D02*
X013071Y017555D01*
X013077Y017496D02*
X015033Y017496D01*
X015114Y017585D02*
X015070Y017628D01*
X015070Y017802D01*
X015114Y017845D01*
X015200Y017845D01*
X015244Y017802D01*
X015244Y017758D01*
X015200Y017715D01*
X015070Y017715D01*
X015114Y017585D02*
X015200Y017585D01*
X015244Y017628D01*
X015365Y017628D02*
X015408Y017585D01*
X015495Y017585D01*
X015538Y017628D01*
X015365Y017802D01*
X015365Y017628D01*
X015327Y017496D02*
X015281Y017496D01*
X015538Y017628D02*
X015538Y017802D01*
X015495Y017845D01*
X015408Y017845D01*
X015365Y017802D01*
X015315Y017922D02*
X015315Y017922D01*
X015357Y017964D02*
X015251Y017964D01*
X015546Y017964D02*
X015799Y017964D01*
X015741Y017906D02*
X015604Y017906D01*
X015658Y017847D02*
X015687Y017847D01*
X015687Y017789D02*
X015658Y017789D01*
X015807Y017802D02*
X015980Y017628D01*
X015937Y017585D01*
X015850Y017585D01*
X015807Y017628D01*
X015807Y017802D01*
X015850Y017845D01*
X015937Y017845D01*
X015980Y017802D01*
X015980Y017628D01*
X016018Y017496D02*
X016098Y017496D01*
X016188Y017585D02*
X016102Y017758D01*
X016046Y017906D02*
X016577Y017906D01*
X016581Y017847D02*
X016366Y017847D01*
X016391Y017789D02*
X016581Y017789D01*
X016581Y017730D02*
X016395Y017730D01*
X016366Y017672D02*
X016581Y017672D01*
X016581Y017613D02*
X016336Y017613D01*
X016307Y017555D02*
X016581Y017555D01*
X016581Y017496D02*
X016279Y017496D01*
X016188Y017585D02*
X016275Y017758D01*
X016559Y017964D02*
X015988Y017964D01*
X015686Y017628D02*
X015642Y017628D01*
X015642Y017585D01*
X015686Y017585D01*
X015686Y017628D01*
X015766Y017496D02*
X015769Y017496D01*
X016581Y017438D02*
X013077Y017438D01*
X013077Y017379D02*
X016581Y017379D01*
X016581Y017321D02*
X013077Y017321D01*
X013077Y017262D02*
X016581Y017262D01*
X016581Y017204D02*
X013077Y017204D01*
X013077Y017145D02*
X016581Y017145D01*
X016581Y017087D02*
X013077Y017087D01*
X013077Y017028D02*
X016581Y017028D01*
X016581Y016970D02*
X013077Y016970D01*
X013077Y016911D02*
X016581Y016911D01*
X016581Y016853D02*
X013077Y016853D01*
X013077Y016794D02*
X016581Y016794D01*
X016581Y016736D02*
X013077Y016736D01*
X013077Y016677D02*
X016581Y016677D01*
X016581Y016619D02*
X013077Y016619D01*
X013077Y016560D02*
X016581Y016560D01*
X016581Y016502D02*
X013077Y016502D01*
X013077Y016443D02*
X016581Y016443D01*
X016581Y016385D02*
X013077Y016385D01*
X013077Y016326D02*
X016581Y016326D01*
X016581Y016268D02*
X013077Y016268D01*
X013077Y016209D02*
X016581Y016209D01*
X016581Y016151D02*
X013077Y016151D01*
X013077Y016092D02*
X016581Y016092D01*
X016581Y016034D02*
X013077Y016034D01*
X013077Y015975D02*
X016581Y015975D01*
X016581Y015917D02*
X013077Y015917D01*
X013077Y015858D02*
X015311Y015858D01*
X015253Y015800D02*
X013077Y015800D01*
X013077Y015741D02*
X015220Y015741D01*
X015220Y015683D02*
X013077Y015683D01*
X013077Y015624D02*
X015182Y015624D01*
X015120Y015566D02*
X013077Y015566D01*
X013077Y015507D02*
X015059Y015507D01*
X014997Y015449D02*
X013077Y015449D01*
X013077Y015390D02*
X014936Y015390D01*
X014874Y015332D02*
X013077Y015332D01*
X013077Y015273D02*
X014812Y015273D01*
X014751Y015215D02*
X013077Y015215D01*
X013077Y015156D02*
X014689Y015156D01*
X014627Y015098D02*
X013077Y015098D01*
X013077Y015039D02*
X014566Y015039D01*
X014504Y014981D02*
X013077Y014981D01*
X013077Y014922D02*
X014442Y014922D01*
X014381Y014864D02*
X013077Y014864D01*
X013077Y014805D02*
X014319Y014805D01*
X014257Y014747D02*
X013077Y014747D01*
X013077Y014688D02*
X014196Y014688D01*
X014133Y014630D02*
X013077Y014630D01*
X013077Y014571D02*
X014081Y014571D01*
X014081Y014513D02*
X013077Y014513D01*
X013077Y014454D02*
X014081Y014454D01*
X014081Y014396D02*
X013077Y014396D01*
X013077Y014337D02*
X014081Y014337D01*
X014081Y014279D02*
X013077Y014279D01*
X013077Y014220D02*
X014081Y014220D01*
X014081Y014162D02*
X013077Y014162D01*
X013077Y014103D02*
X014081Y014103D01*
X014081Y014045D02*
X013077Y014045D01*
X013077Y013986D02*
X014081Y013986D01*
X014081Y013928D02*
X013077Y013928D01*
X013100Y013869D02*
X014081Y013869D01*
X014081Y013811D02*
X013159Y013811D01*
X013217Y013752D02*
X014081Y013752D01*
X014081Y013694D02*
X013276Y013694D01*
X013417Y013635D02*
X014081Y013635D01*
X014081Y013577D02*
X013506Y013577D01*
X013557Y013518D02*
X014081Y013518D01*
X014081Y013460D02*
X013581Y013460D01*
X013595Y013401D02*
X014081Y013401D01*
X014081Y013343D02*
X013595Y013343D01*
X013584Y013284D02*
X014081Y013284D01*
X014081Y013226D02*
X013560Y013226D01*
X013515Y013167D02*
X014081Y013167D01*
X014081Y013109D02*
X013438Y013109D01*
X013141Y013122D02*
X013059Y013203D01*
X013015Y013310D01*
X013015Y013361D01*
X012781Y013595D01*
X012658Y013718D01*
X012658Y017374D01*
X012602Y017430D01*
X012599Y017430D01*
X012507Y017468D01*
X012437Y017538D01*
X012399Y017630D01*
X012406Y017613D02*
X012317Y017613D01*
X012317Y017555D02*
X012430Y017555D01*
X012479Y017496D02*
X012318Y017496D01*
X012315Y017438D02*
X012581Y017438D01*
X012653Y017379D02*
X012311Y017379D01*
X012302Y017321D02*
X012658Y017321D01*
X012658Y017262D02*
X012290Y017262D01*
X012273Y017204D02*
X012658Y017204D01*
X012658Y017145D02*
X012250Y017145D01*
X012223Y017087D02*
X012658Y017087D01*
X012658Y017028D02*
X012189Y017028D01*
X012148Y016970D02*
X012658Y016970D01*
X012658Y016911D02*
X012101Y016911D01*
X012039Y016853D02*
X012658Y016853D01*
X012658Y016794D02*
X011966Y016794D01*
X011872Y016736D02*
X012658Y016736D01*
X012658Y016677D02*
X011721Y016677D01*
X011906Y016202D02*
X011783Y016079D01*
X011783Y015906D01*
X011823Y015866D01*
X011823Y014869D01*
X011783Y014829D01*
X011783Y014656D01*
X011906Y014533D01*
X012079Y014533D01*
X012202Y014656D01*
X012202Y014829D01*
X012162Y014869D01*
X012162Y015866D01*
X012202Y015906D01*
X012202Y016079D01*
X012079Y016202D01*
X011906Y016202D01*
X011854Y016151D02*
X010810Y016151D01*
X010810Y016209D02*
X012658Y016209D01*
X012658Y016151D02*
X012131Y016151D01*
X012190Y016092D02*
X012658Y016092D01*
X012658Y016034D02*
X012202Y016034D01*
X012202Y015975D02*
X012658Y015975D01*
X012658Y015917D02*
X012202Y015917D01*
X012162Y015858D02*
X012658Y015858D01*
X012658Y015800D02*
X012162Y015800D01*
X012162Y015741D02*
X012658Y015741D01*
X012658Y015683D02*
X012162Y015683D01*
X012162Y015624D02*
X012658Y015624D01*
X012658Y015566D02*
X012162Y015566D01*
X012162Y015507D02*
X012658Y015507D01*
X012658Y015449D02*
X012162Y015449D01*
X012162Y015390D02*
X012658Y015390D01*
X012658Y015332D02*
X012162Y015332D01*
X012162Y015273D02*
X012658Y015273D01*
X012658Y015215D02*
X012162Y015215D01*
X012162Y015156D02*
X012658Y015156D01*
X012658Y015098D02*
X012162Y015098D01*
X012162Y015039D02*
X012658Y015039D01*
X012658Y014981D02*
X012162Y014981D01*
X012162Y014922D02*
X012658Y014922D01*
X012658Y014864D02*
X012168Y014864D01*
X012202Y014805D02*
X012658Y014805D01*
X012658Y014747D02*
X012202Y014747D01*
X012202Y014688D02*
X012658Y014688D01*
X012658Y014630D02*
X012177Y014630D01*
X012118Y014571D02*
X012658Y014571D01*
X012658Y014513D02*
X010810Y014513D01*
X010810Y014571D02*
X011867Y014571D01*
X011808Y014630D02*
X010810Y014630D01*
X010810Y014688D02*
X011783Y014688D01*
X011783Y014747D02*
X010810Y014747D01*
X010810Y014805D02*
X011783Y014805D01*
X011817Y014864D02*
X010810Y014864D01*
X010810Y014922D02*
X011823Y014922D01*
X011823Y014981D02*
X010810Y014981D01*
X010810Y015039D02*
X011823Y015039D01*
X011823Y015098D02*
X010810Y015098D01*
X010810Y015156D02*
X011823Y015156D01*
X011823Y015215D02*
X010810Y015215D01*
X010810Y015273D02*
X011823Y015273D01*
X011823Y015332D02*
X010810Y015332D01*
X010810Y015390D02*
X011823Y015390D01*
X011823Y015449D02*
X010810Y015449D01*
X010810Y015507D02*
X011823Y015507D01*
X011823Y015566D02*
X010810Y015566D01*
X010810Y015624D02*
X011823Y015624D01*
X011823Y015683D02*
X010810Y015683D01*
X010810Y015741D02*
X011823Y015741D01*
X011823Y015800D02*
X010810Y015800D01*
X010810Y015858D02*
X011823Y015858D01*
X011783Y015917D02*
X010810Y015917D01*
X010810Y015975D02*
X011783Y015975D01*
X011783Y016034D02*
X010810Y016034D01*
X010810Y016092D02*
X011795Y016092D01*
X012658Y016268D02*
X010810Y016268D01*
X010810Y016326D02*
X012658Y016326D01*
X012658Y016385D02*
X010810Y016385D01*
X010810Y016443D02*
X012658Y016443D01*
X012658Y016502D02*
X010810Y016502D01*
X010810Y016560D02*
X012658Y016560D01*
X012658Y016619D02*
X010810Y016619D01*
X009050Y016619D02*
X005546Y016619D01*
X005546Y016677D02*
X009050Y016677D01*
X009050Y016736D02*
X005546Y016736D01*
X005546Y016794D02*
X009050Y016794D01*
X009050Y016853D02*
X005546Y016853D01*
X005546Y016911D02*
X009050Y016911D01*
X009050Y016970D02*
X005546Y016970D01*
X005546Y017028D02*
X009050Y017028D01*
X009050Y017087D02*
X005546Y017087D01*
X005546Y017145D02*
X009050Y017145D01*
X009050Y017204D02*
X005546Y017204D01*
X005546Y017262D02*
X009050Y017262D01*
X009050Y017321D02*
X005546Y017321D01*
X005546Y017379D02*
X009050Y017379D01*
X009050Y017438D02*
X005546Y017438D01*
X005546Y017496D02*
X007502Y017496D01*
X007489Y017508D02*
X007533Y017465D01*
X007719Y017465D01*
X007773Y017519D01*
X007827Y017465D01*
X008013Y017465D01*
X008037Y017489D01*
X008061Y017465D01*
X008204Y017465D01*
X008237Y017498D01*
X008269Y017465D01*
X008455Y017465D01*
X008499Y017508D01*
X008540Y017550D01*
X008546Y017539D01*
X008559Y017500D01*
X008568Y017496D01*
X008572Y017487D01*
X008611Y017474D01*
X008648Y017455D01*
X008657Y017459D01*
X008666Y017455D01*
X008703Y017474D01*
X008742Y017487D01*
X008746Y017496D01*
X008755Y017500D01*
X008768Y017539D01*
X008873Y017749D01*
X008842Y017844D01*
X008753Y017888D01*
X008659Y017857D01*
X008657Y017853D01*
X008655Y017857D01*
X008561Y017888D01*
X008542Y017879D01*
X008526Y017895D01*
X008455Y017965D01*
X008269Y017965D01*
X008226Y017922D01*
X008156Y017852D01*
X008156Y017748D01*
X008127Y017748D01*
X008127Y017852D01*
X008084Y017895D01*
X008013Y017965D01*
X007827Y017965D01*
X007784Y017922D01*
X007784Y017922D01*
X007773Y017911D01*
X007762Y017922D01*
X007719Y017965D01*
X007533Y017965D01*
X007462Y017895D01*
X007419Y017852D01*
X007419Y017579D01*
X007489Y017508D01*
X007443Y017555D02*
X005540Y017555D01*
X005546Y017548D02*
X005367Y017727D01*
X005367Y017730D01*
X007419Y017730D01*
X007419Y017672D02*
X005423Y017672D01*
X005367Y017730D02*
X005329Y017822D01*
X005259Y017892D01*
X005167Y017930D01*
X005068Y017930D01*
X004976Y017892D01*
X004906Y017822D01*
X004868Y017730D01*
X004786Y017730D01*
X004786Y017672D02*
X004868Y017672D01*
X004868Y017630D02*
X004868Y017730D01*
X004892Y017789D02*
X004786Y017789D01*
X004786Y017847D02*
X004931Y017847D01*
X005009Y017906D02*
X004786Y017906D01*
X004786Y017964D02*
X007532Y017964D01*
X007473Y017906D02*
X005226Y017906D01*
X005304Y017847D02*
X007419Y017847D01*
X007419Y017789D02*
X005343Y017789D01*
X005481Y017613D02*
X007419Y017613D01*
X007539Y017628D02*
X007539Y017802D01*
X007582Y017845D01*
X007669Y017845D01*
X007712Y017802D01*
X007712Y017758D01*
X007669Y017715D01*
X007539Y017715D01*
X007539Y017628D02*
X007582Y017585D01*
X007669Y017585D01*
X007712Y017628D01*
X007834Y017628D02*
X007834Y017802D01*
X008007Y017628D01*
X007964Y017585D01*
X007877Y017585D01*
X007834Y017628D01*
X007796Y017496D02*
X007750Y017496D01*
X008007Y017628D02*
X008007Y017802D01*
X007964Y017845D01*
X007877Y017845D01*
X007834Y017802D01*
X007826Y017964D02*
X007720Y017964D01*
X008015Y017964D02*
X008268Y017964D01*
X008210Y017906D02*
X008073Y017906D01*
X008127Y017847D02*
X008156Y017847D01*
X008156Y017789D02*
X008127Y017789D01*
X008276Y017802D02*
X008276Y017628D01*
X008319Y017585D01*
X008406Y017585D01*
X008449Y017628D01*
X008276Y017802D01*
X008319Y017845D01*
X008406Y017845D01*
X008449Y017802D01*
X008449Y017628D01*
X008487Y017496D02*
X008567Y017496D01*
X008657Y017585D02*
X008570Y017758D01*
X008515Y017906D02*
X009046Y017906D01*
X009044Y017924D02*
X009049Y017873D01*
X009049Y017819D01*
X009050Y017819D01*
X009050Y011628D01*
X009049Y011628D01*
X009049Y011574D01*
X009044Y011522D01*
X009005Y011427D01*
X008932Y011354D01*
X008837Y011315D01*
X008786Y011310D01*
X007630Y011310D01*
X007629Y011310D01*
X004779Y011310D01*
X004779Y011996D01*
X004780Y011998D01*
X004779Y012009D01*
X004779Y012021D01*
X004777Y012022D01*
X004767Y012124D01*
X004768Y012126D01*
X004765Y012137D01*
X004764Y012147D01*
X004762Y012149D01*
X004735Y012249D01*
X004736Y012252D01*
X004732Y012262D01*
X004729Y012272D01*
X004727Y012273D01*
X004685Y012368D01*
X004686Y012371D01*
X004680Y012380D01*
X004675Y012389D01*
X004673Y012390D01*
X004617Y012477D01*
X004617Y012480D01*
X004610Y012488D01*
X004604Y012497D01*
X004601Y012498D01*
X004532Y012575D01*
X004532Y012577D01*
X004523Y012584D01*
X004516Y012592D01*
X004513Y012592D01*
X004433Y012657D01*
X004432Y012660D01*
X004423Y012666D01*
X004415Y012672D01*
X004412Y012672D01*
X004322Y012724D01*
X004321Y012726D01*
X004311Y012730D01*
X004302Y012736D01*
X004299Y012735D01*
X004203Y012772D01*
X004201Y012775D01*
X004191Y012777D01*
X004181Y012781D01*
X004178Y012779D01*
X004077Y012801D01*
X004075Y012803D01*
X004064Y012804D01*
X004054Y012806D01*
X004051Y012804D01*
X003950Y012810D01*
X003949Y012811D01*
X003937Y012811D01*
X003925Y012811D01*
X003924Y012811D01*
X003279Y012811D01*
X003279Y016643D01*
X003971Y016643D01*
X003973Y016642D01*
X003984Y016643D01*
X003996Y016643D01*
X003997Y016644D01*
X004099Y016655D01*
X004102Y016654D01*
X004112Y016656D01*
X004123Y016657D01*
X004124Y016660D01*
X004224Y016686D01*
X004227Y016685D01*
X004237Y016690D01*
X004247Y016692D01*
X004249Y016695D01*
X004343Y016737D01*
X004346Y016736D01*
X004355Y016742D01*
X004365Y016746D01*
X004366Y016749D01*
X004452Y016805D01*
X004455Y016805D01*
X004463Y016812D01*
X004472Y016818D01*
X004473Y016821D01*
X004550Y016890D01*
X004553Y016890D01*
X004559Y016899D01*
X004567Y016906D01*
X004567Y016909D01*
X004633Y016989D01*
X004635Y016990D01*
X004641Y016999D01*
X004648Y017007D01*
X004647Y017010D01*
X004699Y017099D01*
X004702Y017101D01*
X004705Y017111D01*
X004711Y017120D01*
X004710Y017123D01*
X004747Y017219D01*
X004750Y017221D01*
X004752Y017231D01*
X004756Y017241D01*
X004755Y017244D01*
X004776Y017345D01*
X004778Y017347D01*
X004779Y017357D01*
X004781Y017368D01*
X004780Y017370D01*
X004785Y017472D01*
X004786Y017472D01*
X004786Y017485D01*
X004786Y017497D01*
X004786Y017498D01*
X004786Y018137D01*
X008786Y018137D01*
X008837Y018132D01*
X008932Y018092D01*
X009005Y018019D01*
X009044Y017924D01*
X009028Y017964D02*
X008457Y017964D01*
X008744Y017758D02*
X008657Y017585D01*
X008776Y017555D02*
X009050Y017555D01*
X009050Y017613D02*
X008805Y017613D01*
X008834Y017672D02*
X009050Y017672D01*
X009050Y017730D02*
X008864Y017730D01*
X008860Y017789D02*
X009050Y017789D01*
X009049Y017847D02*
X008835Y017847D01*
X009002Y018023D02*
X004786Y018023D01*
X004786Y018081D02*
X008943Y018081D01*
X009050Y017496D02*
X008747Y017496D01*
X008238Y017496D02*
X008235Y017496D01*
X008154Y017585D02*
X008111Y017585D01*
X008111Y017628D01*
X008154Y017628D01*
X008154Y017585D01*
X009050Y016560D02*
X005546Y016560D01*
X005546Y016502D02*
X009050Y016502D01*
X009050Y016443D02*
X005546Y016443D01*
X005546Y016385D02*
X009050Y016385D01*
X009050Y016326D02*
X005546Y016326D01*
X005546Y016268D02*
X009050Y016268D01*
X009050Y016209D02*
X005546Y016209D01*
X005546Y016151D02*
X009050Y016151D01*
X009050Y016092D02*
X005546Y016092D01*
X005546Y016034D02*
X009050Y016034D01*
X009050Y015975D02*
X005546Y015975D01*
X005546Y015917D02*
X009050Y015917D01*
X009050Y015858D02*
X008018Y015858D01*
X007986Y015890D02*
X007812Y015890D01*
X007689Y015767D01*
X007689Y015660D01*
X006628Y014654D01*
X006626Y014654D01*
X006589Y014617D01*
X006551Y014581D01*
X006551Y014579D01*
X006550Y014578D01*
X006550Y014525D01*
X006549Y014473D01*
X006550Y014472D01*
X006550Y012972D01*
X006470Y012892D01*
X006470Y012718D01*
X006593Y012595D01*
X006767Y012595D01*
X006890Y012718D01*
X006890Y012892D01*
X006810Y012972D01*
X006810Y014468D01*
X007866Y015470D01*
X007986Y015470D01*
X008109Y015593D01*
X008109Y015767D01*
X007986Y015890D01*
X008076Y015800D02*
X009050Y015800D01*
X009050Y015741D02*
X008109Y015741D01*
X008109Y015683D02*
X009050Y015683D01*
X009050Y015624D02*
X008109Y015624D01*
X008081Y015566D02*
X009050Y015566D01*
X009050Y015507D02*
X008023Y015507D01*
X007844Y015449D02*
X009050Y015449D01*
X009050Y015390D02*
X007782Y015390D01*
X007720Y015332D02*
X009050Y015332D01*
X009050Y015273D02*
X007659Y015273D01*
X007597Y015215D02*
X007761Y015215D01*
X007812Y015265D02*
X007689Y015142D01*
X007689Y015039D01*
X007130Y014529D01*
X007126Y014529D01*
X007090Y014493D01*
X007053Y014458D01*
X007052Y014455D01*
X007050Y014453D01*
X007050Y014402D01*
X007048Y014351D01*
X007050Y014348D01*
X007050Y012972D01*
X006970Y012892D01*
X006970Y012718D01*
X007093Y012595D01*
X007267Y012595D01*
X007390Y012718D01*
X007390Y012892D01*
X007310Y012972D01*
X007310Y014341D01*
X007862Y014845D01*
X007986Y014845D01*
X008109Y014968D01*
X008109Y015142D01*
X007986Y015265D01*
X007812Y015265D01*
X007703Y015156D02*
X007535Y015156D01*
X007474Y015098D02*
X007689Y015098D01*
X007688Y015039D02*
X007412Y015039D01*
X007350Y014981D02*
X007624Y014981D01*
X007560Y014922D02*
X007289Y014922D01*
X007227Y014864D02*
X007496Y014864D01*
X007432Y014805D02*
X007165Y014805D01*
X007104Y014747D02*
X007368Y014747D01*
X007304Y014688D02*
X007042Y014688D01*
X006980Y014630D02*
X007240Y014630D01*
X007176Y014571D02*
X006919Y014571D01*
X006857Y014513D02*
X007110Y014513D01*
X007051Y014454D02*
X006810Y014454D01*
X006810Y014396D02*
X007050Y014396D01*
X007050Y014337D02*
X006810Y014337D01*
X006810Y014279D02*
X007050Y014279D01*
X007050Y014220D02*
X006810Y014220D01*
X006810Y014162D02*
X007050Y014162D01*
X007050Y014103D02*
X006810Y014103D01*
X006810Y014045D02*
X007050Y014045D01*
X007050Y013986D02*
X006810Y013986D01*
X006810Y013928D02*
X007050Y013928D01*
X007050Y013869D02*
X006810Y013869D01*
X006810Y013811D02*
X007050Y013811D01*
X007050Y013752D02*
X006810Y013752D01*
X006810Y013694D02*
X007050Y013694D01*
X007050Y013635D02*
X006810Y013635D01*
X006810Y013577D02*
X007050Y013577D01*
X007050Y013518D02*
X006810Y013518D01*
X006810Y013460D02*
X007050Y013460D01*
X007050Y013401D02*
X006810Y013401D01*
X006810Y013343D02*
X007050Y013343D01*
X007050Y013284D02*
X006810Y013284D01*
X006810Y013226D02*
X007050Y013226D01*
X007050Y013167D02*
X006810Y013167D01*
X006810Y013109D02*
X007050Y013109D01*
X007050Y013050D02*
X006810Y013050D01*
X006810Y012992D02*
X007050Y012992D01*
X007011Y012933D02*
X006849Y012933D01*
X006890Y012875D02*
X006970Y012875D01*
X006970Y012816D02*
X006890Y012816D01*
X006890Y012758D02*
X006970Y012758D01*
X006989Y012699D02*
X006871Y012699D01*
X006813Y012641D02*
X007047Y012641D01*
X007313Y012641D02*
X009050Y012641D01*
X009050Y012699D02*
X007371Y012699D01*
X007390Y012758D02*
X009050Y012758D01*
X009050Y012816D02*
X007390Y012816D01*
X007390Y012875D02*
X009050Y012875D01*
X009050Y012933D02*
X007349Y012933D01*
X007310Y012992D02*
X009050Y012992D01*
X009050Y013050D02*
X007310Y013050D01*
X007310Y013109D02*
X009050Y013109D01*
X009050Y013167D02*
X007310Y013167D01*
X007310Y013226D02*
X009050Y013226D01*
X009050Y013284D02*
X007310Y013284D01*
X007310Y013343D02*
X009050Y013343D01*
X009050Y013401D02*
X007310Y013401D01*
X007310Y013460D02*
X009050Y013460D01*
X009050Y013518D02*
X007310Y013518D01*
X007310Y013577D02*
X009050Y013577D01*
X009050Y013635D02*
X007310Y013635D01*
X007310Y013694D02*
X009050Y013694D01*
X009050Y013752D02*
X007310Y013752D01*
X007310Y013811D02*
X009050Y013811D01*
X009050Y013869D02*
X007310Y013869D01*
X007310Y013928D02*
X009050Y013928D01*
X009050Y013986D02*
X007310Y013986D01*
X007310Y014045D02*
X009050Y014045D01*
X009050Y014103D02*
X007310Y014103D01*
X007310Y014162D02*
X009050Y014162D01*
X009050Y014220D02*
X007310Y014220D01*
X007310Y014279D02*
X009050Y014279D01*
X009050Y014337D02*
X007310Y014337D01*
X007369Y014396D02*
X009050Y014396D01*
X009050Y014454D02*
X007433Y014454D01*
X007497Y014513D02*
X009050Y014513D01*
X009050Y014571D02*
X007562Y014571D01*
X007626Y014630D02*
X009050Y014630D01*
X009050Y014688D02*
X007690Y014688D01*
X007754Y014747D02*
X009050Y014747D01*
X009050Y014805D02*
X007818Y014805D01*
X008004Y014864D02*
X009050Y014864D01*
X009050Y014922D02*
X008063Y014922D01*
X008109Y014981D02*
X009050Y014981D01*
X009050Y015039D02*
X008109Y015039D01*
X008109Y015098D02*
X009050Y015098D01*
X009050Y015156D02*
X008095Y015156D01*
X008036Y015215D02*
X009050Y015215D01*
X007780Y015858D02*
X005546Y015858D01*
X005546Y015800D02*
X007721Y015800D01*
X007689Y015741D02*
X005546Y015741D01*
X005546Y015683D02*
X007689Y015683D01*
X007651Y015624D02*
X005546Y015624D01*
X005546Y015566D02*
X007589Y015566D01*
X007528Y015507D02*
X005546Y015507D01*
X005546Y015449D02*
X007466Y015449D01*
X007404Y015390D02*
X005546Y015390D01*
X005546Y015332D02*
X007343Y015332D01*
X007281Y015273D02*
X005546Y015273D01*
X005546Y015215D02*
X007219Y015215D01*
X007158Y015156D02*
X005546Y015156D01*
X005546Y015098D02*
X007096Y015098D01*
X007034Y015039D02*
X005546Y015039D01*
X005546Y014981D02*
X006973Y014981D01*
X006911Y014922D02*
X005546Y014922D01*
X005546Y014864D02*
X006849Y014864D01*
X006788Y014805D02*
X005546Y014805D01*
X005546Y014747D02*
X006726Y014747D01*
X006664Y014688D02*
X005546Y014688D01*
X005546Y014630D02*
X006602Y014630D01*
X006550Y014571D02*
X005546Y014571D01*
X005546Y014513D02*
X006550Y014513D01*
X006550Y014454D02*
X005546Y014454D01*
X005546Y014396D02*
X006550Y014396D01*
X006550Y014337D02*
X005546Y014337D01*
X005546Y014279D02*
X006550Y014279D01*
X006550Y014220D02*
X005546Y014220D01*
X005546Y014162D02*
X006550Y014162D01*
X006550Y014103D02*
X005546Y014103D01*
X005546Y014045D02*
X006550Y014045D01*
X006550Y013986D02*
X005546Y013986D01*
X005546Y013928D02*
X006550Y013928D01*
X006550Y013869D02*
X005569Y013869D01*
X005546Y013892D02*
X005546Y017548D01*
X005126Y017374D02*
X005126Y013718D01*
X005249Y013595D01*
X005484Y013361D01*
X005484Y013310D01*
X005528Y013203D01*
X005609Y013122D01*
X005716Y013078D01*
X005831Y013078D01*
X005938Y013122D01*
X006020Y013203D01*
X006064Y013310D01*
X006064Y013425D01*
X006020Y013532D01*
X005938Y013613D01*
X005831Y013657D01*
X005781Y013657D01*
X005546Y013892D01*
X005628Y013811D02*
X006550Y013811D01*
X006550Y013752D02*
X005686Y013752D01*
X005745Y013694D02*
X006550Y013694D01*
X006550Y013635D02*
X005886Y013635D01*
X005975Y013577D02*
X006550Y013577D01*
X006550Y013518D02*
X006025Y013518D01*
X006050Y013460D02*
X006550Y013460D01*
X006550Y013401D02*
X006064Y013401D01*
X006064Y013343D02*
X006550Y013343D01*
X006550Y013284D02*
X006053Y013284D01*
X006029Y013226D02*
X006550Y013226D01*
X006550Y013167D02*
X005983Y013167D01*
X005906Y013109D02*
X006550Y013109D01*
X006550Y013050D02*
X003279Y013050D01*
X003279Y012992D02*
X006550Y012992D01*
X006511Y012933D02*
X003279Y012933D01*
X003279Y012875D02*
X006470Y012875D01*
X006470Y012816D02*
X003279Y012816D01*
X003279Y013109D02*
X005641Y013109D01*
X005564Y013167D02*
X003279Y013167D01*
X003279Y013226D02*
X005519Y013226D01*
X005494Y013284D02*
X003279Y013284D01*
X003279Y013343D02*
X005484Y013343D01*
X005443Y013401D02*
X003279Y013401D01*
X003279Y013460D02*
X005385Y013460D01*
X005326Y013518D02*
X003279Y013518D01*
X003279Y013577D02*
X005268Y013577D01*
X005209Y013635D02*
X003279Y013635D01*
X003279Y013694D02*
X005151Y013694D01*
X005126Y013752D02*
X003279Y013752D01*
X003279Y013811D02*
X005126Y013811D01*
X005126Y013869D02*
X003279Y013869D01*
X003279Y013928D02*
X005126Y013928D01*
X005126Y013986D02*
X003279Y013986D01*
X003279Y014045D02*
X005126Y014045D01*
X005126Y014103D02*
X003279Y014103D01*
X003279Y014162D02*
X005126Y014162D01*
X005126Y014220D02*
X003279Y014220D01*
X003279Y014279D02*
X005126Y014279D01*
X005126Y014337D02*
X003279Y014337D01*
X003279Y014396D02*
X005126Y014396D01*
X005126Y014454D02*
X003279Y014454D01*
X003279Y014513D02*
X005126Y014513D01*
X005126Y014571D02*
X004587Y014571D01*
X004548Y014533D02*
X004671Y014656D01*
X004671Y014829D01*
X004631Y014869D01*
X004631Y015866D01*
X004671Y015906D01*
X004671Y016079D01*
X004548Y016202D01*
X004374Y016202D01*
X004251Y016079D01*
X004251Y015906D01*
X004291Y015866D01*
X004291Y014869D01*
X004251Y014829D01*
X004251Y014656D01*
X004374Y014533D01*
X004548Y014533D01*
X004645Y014630D02*
X005126Y014630D01*
X005126Y014688D02*
X004671Y014688D01*
X004671Y014747D02*
X005126Y014747D01*
X005126Y014805D02*
X004671Y014805D01*
X004637Y014864D02*
X005126Y014864D01*
X005126Y014922D02*
X004631Y014922D01*
X004631Y014981D02*
X005126Y014981D01*
X005126Y015039D02*
X004631Y015039D01*
X004631Y015098D02*
X005126Y015098D01*
X005126Y015156D02*
X004631Y015156D01*
X004631Y015215D02*
X005126Y015215D01*
X005126Y015273D02*
X004631Y015273D01*
X004631Y015332D02*
X005126Y015332D01*
X005126Y015390D02*
X004631Y015390D01*
X004631Y015449D02*
X005126Y015449D01*
X005126Y015507D02*
X004631Y015507D01*
X004631Y015566D02*
X005126Y015566D01*
X005126Y015624D02*
X004631Y015624D01*
X004631Y015683D02*
X005126Y015683D01*
X005126Y015741D02*
X004631Y015741D01*
X004631Y015800D02*
X005126Y015800D01*
X005126Y015858D02*
X004631Y015858D01*
X004671Y015917D02*
X005126Y015917D01*
X005126Y015975D02*
X004671Y015975D01*
X004671Y016034D02*
X005126Y016034D01*
X005126Y016092D02*
X004659Y016092D01*
X004600Y016151D02*
X005126Y016151D01*
X005126Y016209D02*
X003279Y016209D01*
X003279Y016151D02*
X004322Y016151D01*
X004264Y016092D02*
X003279Y016092D01*
X003279Y016034D02*
X004251Y016034D01*
X004251Y015975D02*
X003279Y015975D01*
X003279Y015917D02*
X004251Y015917D01*
X004291Y015858D02*
X003279Y015858D01*
X003279Y015800D02*
X004291Y015800D01*
X004291Y015741D02*
X003279Y015741D01*
X003279Y015683D02*
X004291Y015683D01*
X004291Y015624D02*
X003279Y015624D01*
X003279Y015566D02*
X004291Y015566D01*
X004291Y015507D02*
X003279Y015507D01*
X003279Y015449D02*
X004291Y015449D01*
X004291Y015390D02*
X003279Y015390D01*
X003279Y015332D02*
X004291Y015332D01*
X004291Y015273D02*
X003279Y015273D01*
X003279Y015215D02*
X004291Y015215D01*
X004291Y015156D02*
X003279Y015156D01*
X003279Y015098D02*
X004291Y015098D01*
X004291Y015039D02*
X003279Y015039D01*
X003279Y014981D02*
X004291Y014981D01*
X004291Y014922D02*
X003279Y014922D01*
X003279Y014864D02*
X004285Y014864D01*
X004251Y014805D02*
X003279Y014805D01*
X003279Y014747D02*
X004251Y014747D01*
X004251Y014688D02*
X003279Y014688D01*
X003279Y014630D02*
X004277Y014630D01*
X004336Y014571D02*
X003279Y014571D01*
X003279Y016268D02*
X005126Y016268D01*
X005126Y016326D02*
X003279Y016326D01*
X003279Y016385D02*
X005126Y016385D01*
X005126Y016443D02*
X003279Y016443D01*
X003279Y016502D02*
X005126Y016502D01*
X005126Y016560D02*
X003279Y016560D01*
X003279Y016619D02*
X005126Y016619D01*
X005126Y016677D02*
X004190Y016677D01*
X004340Y016736D02*
X005126Y016736D01*
X005126Y016794D02*
X004435Y016794D01*
X004508Y016853D02*
X005126Y016853D01*
X005126Y016911D02*
X004570Y016911D01*
X004617Y016970D02*
X005126Y016970D01*
X005126Y017028D02*
X004658Y017028D01*
X004692Y017087D02*
X005126Y017087D01*
X005126Y017145D02*
X004719Y017145D01*
X004741Y017204D02*
X005126Y017204D01*
X005126Y017262D02*
X004759Y017262D01*
X004771Y017321D02*
X005126Y017321D01*
X005126Y017374D02*
X005071Y017430D01*
X005068Y017430D01*
X004976Y017468D01*
X004906Y017538D01*
X004868Y017630D01*
X004875Y017613D02*
X004786Y017613D01*
X004786Y017555D02*
X004899Y017555D01*
X004948Y017496D02*
X004786Y017496D01*
X004783Y017438D02*
X005049Y017438D01*
X005121Y017379D02*
X004780Y017379D01*
X004241Y012758D02*
X006470Y012758D01*
X006489Y012699D02*
X004365Y012699D01*
X004454Y012641D02*
X006547Y012641D01*
X006627Y012048D02*
X006521Y012004D01*
X006439Y011922D01*
X006438Y011919D01*
X006436Y011922D01*
X006355Y012004D01*
X006249Y012048D01*
X006134Y012048D01*
X006028Y012004D01*
X005947Y011922D01*
X005903Y011816D01*
X005903Y011702D01*
X005947Y011596D01*
X006028Y011515D01*
X006134Y011471D01*
X006249Y011471D01*
X006355Y011515D01*
X006436Y011596D01*
X006438Y011599D01*
X006439Y011596D01*
X006521Y011515D01*
X006627Y011471D01*
X006741Y011471D01*
X006847Y011515D01*
X006928Y011596D01*
X006930Y011599D01*
X006932Y011596D01*
X007013Y011515D01*
X007119Y011471D01*
X007233Y011471D01*
X007339Y011515D01*
X007421Y011596D01*
X007424Y011605D01*
X007444Y011575D01*
X007484Y011535D01*
X007532Y011503D01*
X007584Y011482D01*
X007640Y011471D01*
X007649Y011471D01*
X007649Y011740D01*
X007687Y011740D01*
X007687Y011471D01*
X007697Y011471D01*
X007752Y011482D01*
X007805Y011503D01*
X007852Y011535D01*
X007892Y011575D01*
X007924Y011622D01*
X007946Y011675D01*
X007957Y011731D01*
X007957Y011740D01*
X007687Y011740D01*
X007687Y011778D01*
X007649Y011778D01*
X007649Y012048D01*
X007640Y012048D01*
X007584Y012036D01*
X007532Y012015D01*
X007484Y011983D01*
X007444Y011943D01*
X007424Y011913D01*
X007421Y011922D01*
X007339Y012004D01*
X007233Y012048D01*
X007119Y012048D01*
X007013Y012004D01*
X006932Y011922D01*
X006930Y011919D01*
X006928Y011922D01*
X006847Y012004D01*
X006741Y012048D01*
X006627Y012048D01*
X006514Y011997D02*
X006362Y011997D01*
X006420Y011939D02*
X006456Y011939D01*
X006448Y011588D02*
X006428Y011588D01*
X006370Y011529D02*
X006506Y011529D01*
X006862Y011529D02*
X006998Y011529D01*
X006940Y011588D02*
X006920Y011588D01*
X006912Y011939D02*
X006948Y011939D01*
X007006Y011997D02*
X006854Y011997D01*
X007346Y011997D02*
X007505Y011997D01*
X007441Y011939D02*
X007404Y011939D01*
X007649Y011939D02*
X007687Y011939D01*
X007687Y011997D02*
X007649Y011997D01*
X007687Y012048D02*
X007687Y011778D01*
X007957Y011778D01*
X007957Y011787D01*
X007946Y011843D01*
X007924Y011896D01*
X007892Y011943D01*
X007852Y011983D01*
X007805Y012015D01*
X007752Y012036D01*
X007697Y012048D01*
X007687Y012048D01*
X007831Y011997D02*
X009050Y011997D01*
X009050Y011939D02*
X007895Y011939D01*
X007930Y011880D02*
X009050Y011880D01*
X009050Y011822D02*
X007950Y011822D01*
X007951Y011705D02*
X009050Y011705D01*
X009050Y011763D02*
X007687Y011763D01*
X007687Y011705D02*
X007649Y011705D01*
X007649Y011646D02*
X007687Y011646D01*
X007687Y011588D02*
X007649Y011588D01*
X007649Y011529D02*
X007687Y011529D01*
X007843Y011529D02*
X009045Y011529D01*
X009049Y011588D02*
X007900Y011588D01*
X007934Y011646D02*
X009050Y011646D01*
X009023Y011471D02*
X004779Y011471D01*
X004779Y011529D02*
X006014Y011529D01*
X005955Y011588D02*
X004779Y011588D01*
X004779Y011646D02*
X005926Y011646D01*
X005903Y011705D02*
X004779Y011705D01*
X004779Y011763D02*
X005903Y011763D01*
X005905Y011822D02*
X004779Y011822D01*
X004779Y011880D02*
X005930Y011880D01*
X005963Y011939D02*
X004779Y011939D01*
X004779Y011997D02*
X006022Y011997D01*
X007354Y011529D02*
X007493Y011529D01*
X007436Y011588D02*
X007412Y011588D01*
X007649Y011822D02*
X007687Y011822D01*
X007687Y011880D02*
X007649Y011880D01*
X008930Y011354D02*
X004779Y011354D01*
X004779Y011412D02*
X008990Y011412D01*
X009050Y012056D02*
X004774Y012056D01*
X004768Y012114D02*
X009050Y012114D01*
X009050Y012173D02*
X004756Y012173D01*
X004740Y012231D02*
X009050Y012231D01*
X009050Y012290D02*
X004720Y012290D01*
X004694Y012348D02*
X009050Y012348D01*
X009050Y012407D02*
X004662Y012407D01*
X004624Y012465D02*
X009050Y012465D01*
X009050Y012524D02*
X004578Y012524D01*
X004526Y012582D02*
X009050Y012582D01*
X010810Y013167D02*
X013095Y013167D01*
X013050Y013226D02*
X010810Y013226D01*
X010810Y013284D02*
X013026Y013284D01*
X013015Y013343D02*
X010810Y013343D01*
X010810Y013401D02*
X012974Y013401D01*
X012916Y013460D02*
X010810Y013460D01*
X010810Y013518D02*
X012857Y013518D01*
X012799Y013577D02*
X010810Y013577D01*
X010810Y013635D02*
X012740Y013635D01*
X012682Y013694D02*
X010810Y013694D01*
X010810Y013752D02*
X012658Y013752D01*
X012658Y013811D02*
X010810Y013811D01*
X010810Y013869D02*
X012658Y013869D01*
X012658Y013928D02*
X010810Y013928D01*
X010810Y013986D02*
X012658Y013986D01*
X012658Y014045D02*
X010810Y014045D01*
X010810Y014103D02*
X012658Y014103D01*
X012658Y014162D02*
X010810Y014162D01*
X010810Y014220D02*
X012658Y014220D01*
X012658Y014279D02*
X010810Y014279D01*
X010810Y014337D02*
X012658Y014337D01*
X012658Y014396D02*
X010810Y014396D01*
X010810Y014454D02*
X012658Y014454D01*
X015252Y015332D02*
X016581Y015332D01*
X016581Y015390D02*
X015313Y015390D01*
X015375Y015449D02*
X016581Y015449D01*
X016581Y015507D02*
X015554Y015507D01*
X015613Y015566D02*
X016581Y015566D01*
X016581Y015624D02*
X015640Y015624D01*
X015640Y015683D02*
X016581Y015683D01*
X016581Y015741D02*
X015640Y015741D01*
X015607Y015800D02*
X016581Y015800D01*
X016581Y015858D02*
X015549Y015858D01*
X016533Y018023D02*
X012317Y018023D01*
X012317Y018081D02*
X016474Y018081D01*
X008932Y009498D02*
X009005Y009426D01*
X009044Y009331D01*
X009049Y009279D01*
X009049Y009225D01*
X009050Y009225D01*
X009050Y003034D01*
X009049Y003034D01*
X009049Y002980D01*
X009044Y002929D01*
X009005Y002833D01*
X008932Y002761D01*
X008837Y002721D01*
X008786Y002716D01*
X004779Y002716D01*
X004779Y003402D01*
X004780Y003404D01*
X004779Y003415D01*
X004779Y003427D01*
X004777Y003428D01*
X004767Y003530D01*
X004768Y003533D01*
X004765Y003543D01*
X004764Y003554D01*
X004762Y003556D01*
X004735Y003655D01*
X004736Y003658D01*
X004732Y003668D01*
X004729Y003678D01*
X004727Y003680D01*
X004685Y003774D01*
X004686Y003777D01*
X004680Y003786D01*
X004675Y003796D01*
X004673Y003797D01*
X004617Y003884D01*
X004617Y003886D01*
X004610Y003894D01*
X004604Y003903D01*
X004601Y003904D01*
X004532Y003981D01*
X004532Y003984D01*
X004523Y003990D01*
X004516Y003998D01*
X004513Y003999D01*
X004433Y004064D01*
X004432Y004066D01*
X004423Y004072D01*
X004415Y004079D01*
X004412Y004078D01*
X004322Y004130D01*
X004321Y004133D01*
X004311Y004137D01*
X004302Y004142D01*
X004299Y004141D01*
X004203Y004178D01*
X004201Y004181D01*
X004191Y004183D01*
X004181Y004187D01*
X004178Y004186D01*
X004077Y004207D01*
X004075Y004209D01*
X004064Y004210D01*
X004054Y004212D01*
X004051Y004211D01*
X003950Y004216D01*
X003949Y004217D01*
X003937Y004217D01*
X003925Y004218D01*
X003924Y004217D01*
X003279Y004217D01*
X003279Y008049D01*
X003971Y008049D01*
X003973Y008048D01*
X003984Y008049D01*
X003996Y008049D01*
X003997Y008051D01*
X004099Y008061D01*
X004102Y008060D01*
X004112Y008063D01*
X004123Y008064D01*
X004124Y008066D01*
X004224Y008093D01*
X004227Y008092D01*
X004237Y008096D01*
X004247Y008099D01*
X004249Y008101D01*
X004343Y008143D01*
X004346Y008142D01*
X004355Y008148D01*
X004365Y008153D01*
X004366Y008155D01*
X004452Y008211D01*
X004455Y008211D01*
X004463Y008218D01*
X004472Y008224D01*
X004473Y008227D01*
X004550Y008296D01*
X004553Y008296D01*
X004559Y008305D01*
X004567Y008312D01*
X004567Y008315D01*
X004633Y008395D01*
X004635Y008396D01*
X004641Y008405D01*
X004648Y008413D01*
X004647Y008416D01*
X004699Y008506D01*
X004702Y008507D01*
X004705Y008517D01*
X004711Y008526D01*
X004710Y008529D01*
X004747Y008625D01*
X004750Y008627D01*
X004752Y008637D01*
X004756Y008647D01*
X004755Y008650D01*
X004776Y008751D01*
X004778Y008753D01*
X004779Y008764D01*
X004781Y008774D01*
X004780Y008777D01*
X004785Y008878D01*
X004786Y008879D01*
X004786Y008891D01*
X004786Y008903D01*
X004786Y008904D01*
X004786Y009543D01*
X007664Y009543D01*
X007674Y009540D01*
X008815Y009540D01*
X008837Y009538D01*
X008932Y009498D01*
X008949Y009482D02*
X004786Y009482D01*
X004786Y009540D02*
X007674Y009540D01*
X007719Y009371D02*
X007533Y009371D01*
X007462Y009301D01*
X007419Y009258D01*
X007419Y008985D01*
X007489Y008915D01*
X007533Y008871D01*
X007719Y008871D01*
X007773Y008926D01*
X007827Y008871D01*
X008013Y008871D01*
X008037Y008895D01*
X008061Y008871D01*
X008204Y008871D01*
X008237Y008904D01*
X008269Y008871D01*
X008455Y008871D01*
X008499Y008915D01*
X008527Y008943D01*
X008540Y008956D01*
X008546Y008945D01*
X008559Y008906D01*
X008568Y008902D01*
X008572Y008893D01*
X008611Y008880D01*
X008648Y008862D01*
X008657Y008865D01*
X008666Y008862D01*
X008703Y008880D01*
X008742Y008893D01*
X008746Y008902D01*
X008755Y008906D01*
X008768Y008945D01*
X008873Y009156D01*
X008842Y009250D01*
X008753Y009294D01*
X008659Y009263D01*
X008657Y009260D01*
X008655Y009263D01*
X008561Y009294D01*
X008542Y009285D01*
X008526Y009301D01*
X008455Y009371D01*
X008269Y009371D01*
X008199Y009301D01*
X008156Y009258D01*
X008156Y009155D01*
X008127Y009155D01*
X008127Y009258D01*
X008084Y009301D01*
X008013Y009371D01*
X007827Y009371D01*
X007784Y009328D01*
X007773Y009317D01*
X007762Y009328D01*
X007719Y009371D01*
X007726Y009365D02*
X007820Y009365D01*
X007877Y009251D02*
X007834Y009208D01*
X008007Y009035D01*
X007964Y008991D01*
X007877Y008991D01*
X007834Y009035D01*
X007834Y009208D01*
X007877Y009251D02*
X007964Y009251D01*
X008007Y009208D01*
X008007Y009035D01*
X008111Y009035D02*
X008111Y008991D01*
X008154Y008991D01*
X008154Y009035D01*
X008111Y009035D01*
X008127Y009189D02*
X008156Y009189D01*
X008156Y009248D02*
X008127Y009248D01*
X008079Y009306D02*
X008204Y009306D01*
X008262Y009365D02*
X008020Y009365D01*
X008276Y009208D02*
X008449Y009035D01*
X008406Y008991D01*
X008319Y008991D01*
X008276Y009035D01*
X008276Y009208D01*
X008319Y009251D01*
X008406Y009251D01*
X008449Y009208D01*
X008449Y009035D01*
X008539Y008955D02*
X008541Y008955D01*
X008499Y008915D02*
X008499Y008915D01*
X008481Y008897D02*
X008570Y008897D01*
X008657Y008991D02*
X008570Y009165D01*
X008521Y009306D02*
X009047Y009306D01*
X009049Y009248D02*
X008843Y009248D01*
X008862Y009189D02*
X009050Y009189D01*
X009050Y009131D02*
X008861Y009131D01*
X008832Y009072D02*
X009050Y009072D01*
X009050Y009014D02*
X008802Y009014D01*
X008773Y008955D02*
X009050Y008955D01*
X009050Y008897D02*
X008744Y008897D01*
X008657Y008991D02*
X008744Y009165D01*
X008462Y009365D02*
X009030Y009365D01*
X009006Y009423D02*
X004786Y009423D01*
X004786Y009365D02*
X007526Y009365D01*
X007467Y009306D02*
X005240Y009306D01*
X005259Y009298D02*
X005167Y009336D01*
X005068Y009336D01*
X004976Y009298D01*
X004906Y009228D01*
X004868Y009136D01*
X004868Y009037D01*
X004906Y008945D01*
X004976Y008874D01*
X005068Y008836D01*
X005071Y008836D01*
X005126Y008781D01*
X005126Y005124D01*
X005249Y005001D01*
X005484Y004767D01*
X005484Y004716D01*
X005528Y004609D01*
X005609Y004528D01*
X005716Y004484D01*
X005831Y004484D01*
X005938Y004528D01*
X006020Y004609D01*
X006064Y004716D01*
X006064Y004831D01*
X006020Y004938D01*
X005938Y005020D01*
X005831Y005064D01*
X005781Y005064D01*
X005546Y005298D01*
X005546Y008954D01*
X005367Y009133D01*
X005367Y009136D01*
X005329Y009228D01*
X005259Y009298D01*
X005310Y009248D02*
X007419Y009248D01*
X007419Y009189D02*
X005346Y009189D01*
X005370Y009131D02*
X007419Y009131D01*
X007419Y009072D02*
X005429Y009072D01*
X005487Y009014D02*
X007419Y009014D01*
X007449Y008955D02*
X005546Y008955D01*
X005546Y008897D02*
X007507Y008897D01*
X007582Y008991D02*
X007539Y009035D01*
X007539Y009208D01*
X007582Y009251D01*
X007669Y009251D01*
X007712Y009208D01*
X007712Y009165D01*
X007669Y009121D01*
X007539Y009121D01*
X007582Y008991D02*
X007669Y008991D01*
X007712Y009035D01*
X007744Y008897D02*
X007802Y008897D01*
X008229Y008897D02*
X008244Y008897D01*
X009050Y008838D02*
X005546Y008838D01*
X005546Y008780D02*
X009050Y008780D01*
X009050Y008721D02*
X005546Y008721D01*
X005546Y008663D02*
X009050Y008663D01*
X009050Y008604D02*
X005546Y008604D01*
X005546Y008546D02*
X009050Y008546D01*
X009050Y008487D02*
X005546Y008487D01*
X005546Y008429D02*
X009050Y008429D01*
X009050Y008370D02*
X005546Y008370D01*
X005546Y008312D02*
X009050Y008312D01*
X009050Y008253D02*
X005546Y008253D01*
X005546Y008195D02*
X009050Y008195D01*
X009050Y008136D02*
X005546Y008136D01*
X005546Y008078D02*
X009050Y008078D01*
X009050Y008019D02*
X005546Y008019D01*
X005546Y007961D02*
X009050Y007961D01*
X009050Y007902D02*
X005546Y007902D01*
X005546Y007844D02*
X009050Y007844D01*
X009050Y007785D02*
X005546Y007785D01*
X005546Y007727D02*
X009050Y007727D01*
X009050Y007668D02*
X005546Y007668D01*
X005546Y007610D02*
X009050Y007610D01*
X009050Y007551D02*
X005546Y007551D01*
X005546Y007493D02*
X009050Y007493D01*
X009050Y007434D02*
X005546Y007434D01*
X005546Y007376D02*
X009050Y007376D01*
X009050Y007317D02*
X005546Y007317D01*
X005546Y007259D02*
X007774Y007259D01*
X007812Y007296D02*
X007689Y007173D01*
X007689Y007066D01*
X006628Y006060D01*
X006626Y006060D01*
X006589Y006023D01*
X006551Y005987D01*
X006551Y005985D01*
X006550Y005984D01*
X006550Y005932D01*
X006549Y005880D01*
X006550Y005878D01*
X006550Y004378D01*
X006470Y004298D01*
X006470Y004124D01*
X006593Y004001D01*
X006767Y004001D01*
X006890Y004124D01*
X006890Y004298D01*
X006810Y004378D01*
X006810Y005874D01*
X007866Y006876D01*
X007986Y006876D01*
X008109Y006999D01*
X008109Y007173D01*
X007986Y007296D01*
X007812Y007296D01*
X007716Y007200D02*
X005546Y007200D01*
X005546Y007142D02*
X007689Y007142D01*
X007689Y007083D02*
X005546Y007083D01*
X005546Y007025D02*
X007645Y007025D01*
X007583Y006966D02*
X005546Y006966D01*
X005546Y006908D02*
X007521Y006908D01*
X007460Y006849D02*
X005546Y006849D01*
X005546Y006791D02*
X007398Y006791D01*
X007336Y006732D02*
X005546Y006732D01*
X005546Y006674D02*
X007275Y006674D01*
X007213Y006615D02*
X005546Y006615D01*
X005546Y006557D02*
X007152Y006557D01*
X007090Y006498D02*
X005546Y006498D01*
X005546Y006440D02*
X007028Y006440D01*
X006967Y006381D02*
X005546Y006381D01*
X005546Y006323D02*
X006905Y006323D01*
X006843Y006264D02*
X005546Y006264D01*
X005546Y006206D02*
X006782Y006206D01*
X006720Y006147D02*
X005546Y006147D01*
X005546Y006089D02*
X006658Y006089D01*
X006596Y006030D02*
X005546Y006030D01*
X005546Y005972D02*
X006550Y005972D01*
X006550Y005913D02*
X005546Y005913D01*
X005546Y005855D02*
X006550Y005855D01*
X006550Y005796D02*
X005546Y005796D01*
X005546Y005738D02*
X006550Y005738D01*
X006550Y005679D02*
X005546Y005679D01*
X005546Y005621D02*
X006550Y005621D01*
X006550Y005562D02*
X005546Y005562D01*
X005546Y005504D02*
X006550Y005504D01*
X006550Y005445D02*
X005546Y005445D01*
X005546Y005387D02*
X006550Y005387D01*
X006550Y005328D02*
X005546Y005328D01*
X005575Y005270D02*
X006550Y005270D01*
X006550Y005211D02*
X005633Y005211D01*
X005692Y005153D02*
X006550Y005153D01*
X006550Y005094D02*
X005750Y005094D01*
X005900Y005036D02*
X006550Y005036D01*
X006550Y004977D02*
X005981Y004977D01*
X006028Y004919D02*
X006550Y004919D01*
X006550Y004860D02*
X006052Y004860D01*
X006064Y004802D02*
X006550Y004802D01*
X006550Y004743D02*
X006064Y004743D01*
X006051Y004685D02*
X006550Y004685D01*
X006550Y004626D02*
X006026Y004626D01*
X005978Y004568D02*
X006550Y004568D01*
X006550Y004509D02*
X005892Y004509D01*
X005655Y004509D02*
X003279Y004509D01*
X003279Y004451D02*
X006550Y004451D01*
X006550Y004392D02*
X003279Y004392D01*
X003279Y004334D02*
X006505Y004334D01*
X006470Y004275D02*
X003279Y004275D01*
X003279Y004568D02*
X005570Y004568D01*
X005521Y004626D02*
X003279Y004626D01*
X003279Y004685D02*
X005497Y004685D01*
X005484Y004743D02*
X003279Y004743D01*
X003279Y004802D02*
X005449Y004802D01*
X005390Y004860D02*
X003279Y004860D01*
X003279Y004919D02*
X005332Y004919D01*
X005273Y004977D02*
X003279Y004977D01*
X003279Y005036D02*
X005215Y005036D01*
X005156Y005094D02*
X003279Y005094D01*
X003279Y005153D02*
X005126Y005153D01*
X005126Y005211D02*
X003279Y005211D01*
X003279Y005270D02*
X005126Y005270D01*
X005126Y005328D02*
X003279Y005328D01*
X003279Y005387D02*
X005126Y005387D01*
X005126Y005445D02*
X003279Y005445D01*
X003279Y005504D02*
X005126Y005504D01*
X005126Y005562D02*
X003279Y005562D01*
X003279Y005621D02*
X005126Y005621D01*
X005126Y005679D02*
X003279Y005679D01*
X003279Y005738D02*
X005126Y005738D01*
X005126Y005796D02*
X003279Y005796D01*
X003279Y005855D02*
X005126Y005855D01*
X005126Y005913D02*
X003279Y005913D01*
X003279Y005972D02*
X004341Y005972D01*
X004374Y005939D02*
X004548Y005939D01*
X004671Y006062D01*
X004671Y006236D01*
X004631Y006276D01*
X004631Y007272D01*
X004671Y007312D01*
X004671Y007486D01*
X004548Y007609D01*
X004374Y007609D01*
X004251Y007486D01*
X004251Y007312D01*
X004291Y007272D01*
X004291Y006276D01*
X004251Y006236D01*
X004251Y006062D01*
X004374Y005939D01*
X004283Y006030D02*
X003279Y006030D01*
X003279Y006089D02*
X004251Y006089D01*
X004251Y006147D02*
X003279Y006147D01*
X003279Y006206D02*
X004251Y006206D01*
X004280Y006264D02*
X003279Y006264D01*
X003279Y006323D02*
X004291Y006323D01*
X004291Y006381D02*
X003279Y006381D01*
X003279Y006440D02*
X004291Y006440D01*
X004291Y006498D02*
X003279Y006498D01*
X003279Y006557D02*
X004291Y006557D01*
X004291Y006615D02*
X003279Y006615D01*
X003279Y006674D02*
X004291Y006674D01*
X004291Y006732D02*
X003279Y006732D01*
X003279Y006791D02*
X004291Y006791D01*
X004291Y006849D02*
X003279Y006849D01*
X003279Y006908D02*
X004291Y006908D01*
X004291Y006966D02*
X003279Y006966D01*
X003279Y007025D02*
X004291Y007025D01*
X004291Y007083D02*
X003279Y007083D01*
X003279Y007142D02*
X004291Y007142D01*
X004291Y007200D02*
X003279Y007200D01*
X003279Y007259D02*
X004291Y007259D01*
X004251Y007317D02*
X003279Y007317D01*
X003279Y007376D02*
X004251Y007376D01*
X004251Y007434D02*
X003279Y007434D01*
X003279Y007493D02*
X004258Y007493D01*
X004317Y007551D02*
X003279Y007551D01*
X003279Y007610D02*
X005126Y007610D01*
X005126Y007668D02*
X003279Y007668D01*
X003279Y007727D02*
X005126Y007727D01*
X005126Y007785D02*
X003279Y007785D01*
X003279Y007844D02*
X005126Y007844D01*
X005126Y007902D02*
X003279Y007902D01*
X003279Y007961D02*
X005126Y007961D01*
X005126Y008019D02*
X003279Y008019D01*
X004168Y008078D02*
X005126Y008078D01*
X005126Y008136D02*
X004327Y008136D01*
X004426Y008195D02*
X005126Y008195D01*
X005126Y008253D02*
X004502Y008253D01*
X004567Y008312D02*
X005126Y008312D01*
X005126Y008370D02*
X004612Y008370D01*
X004654Y008429D02*
X005126Y008429D01*
X005126Y008487D02*
X004688Y008487D01*
X004717Y008546D02*
X005126Y008546D01*
X005126Y008604D02*
X004739Y008604D01*
X004757Y008663D02*
X005126Y008663D01*
X005126Y008721D02*
X004770Y008721D01*
X004780Y008780D02*
X005126Y008780D01*
X005063Y008838D02*
X004783Y008838D01*
X004786Y008897D02*
X004954Y008897D01*
X004901Y008955D02*
X004786Y008955D01*
X004786Y009014D02*
X004877Y009014D01*
X004868Y009072D02*
X004786Y009072D01*
X004786Y009131D02*
X004868Y009131D01*
X004889Y009189D02*
X004786Y009189D01*
X004786Y009248D02*
X004925Y009248D01*
X004995Y009306D02*
X004786Y009306D01*
X004606Y007551D02*
X005126Y007551D01*
X005126Y007493D02*
X004664Y007493D01*
X004671Y007434D02*
X005126Y007434D01*
X005126Y007376D02*
X004671Y007376D01*
X004671Y007317D02*
X005126Y007317D01*
X005126Y007259D02*
X004631Y007259D01*
X004631Y007200D02*
X005126Y007200D01*
X005126Y007142D02*
X004631Y007142D01*
X004631Y007083D02*
X005126Y007083D01*
X005126Y007025D02*
X004631Y007025D01*
X004631Y006966D02*
X005126Y006966D01*
X005126Y006908D02*
X004631Y006908D01*
X004631Y006849D02*
X005126Y006849D01*
X005126Y006791D02*
X004631Y006791D01*
X004631Y006732D02*
X005126Y006732D01*
X005126Y006674D02*
X004631Y006674D01*
X004631Y006615D02*
X005126Y006615D01*
X005126Y006557D02*
X004631Y006557D01*
X004631Y006498D02*
X005126Y006498D01*
X005126Y006440D02*
X004631Y006440D01*
X004631Y006381D02*
X005126Y006381D01*
X005126Y006323D02*
X004631Y006323D01*
X004643Y006264D02*
X005126Y006264D01*
X005126Y006206D02*
X004671Y006206D01*
X004671Y006147D02*
X005126Y006147D01*
X005126Y006089D02*
X004671Y006089D01*
X004640Y006030D02*
X005126Y006030D01*
X005126Y005972D02*
X004581Y005972D01*
X003950Y004217D02*
X006470Y004217D01*
X006470Y004158D02*
X004256Y004158D01*
X004375Y004100D02*
X006495Y004100D01*
X006553Y004041D02*
X004461Y004041D01*
X004532Y003983D02*
X009050Y003983D01*
X009050Y004041D02*
X007307Y004041D01*
X007267Y004001D02*
X007390Y004124D01*
X007390Y004298D01*
X007310Y004378D01*
X007310Y005748D01*
X007862Y006251D01*
X007986Y006251D01*
X008109Y006374D01*
X008109Y006548D01*
X007986Y006671D01*
X007812Y006671D01*
X007689Y006548D01*
X007689Y006446D01*
X007130Y005935D01*
X007126Y005935D01*
X007090Y005899D01*
X007053Y005865D01*
X007052Y005861D01*
X007050Y005859D01*
X007050Y005808D01*
X007048Y005757D01*
X007050Y005755D01*
X007050Y004378D01*
X006970Y004298D01*
X006970Y004124D01*
X007093Y004001D01*
X007267Y004001D01*
X007365Y004100D02*
X009050Y004100D01*
X009050Y004158D02*
X007390Y004158D01*
X007390Y004217D02*
X009050Y004217D01*
X009050Y004275D02*
X007390Y004275D01*
X007355Y004334D02*
X009050Y004334D01*
X009050Y004392D02*
X007310Y004392D01*
X007310Y004451D02*
X009050Y004451D01*
X009050Y004509D02*
X007310Y004509D01*
X007310Y004568D02*
X009050Y004568D01*
X009050Y004626D02*
X007310Y004626D01*
X007310Y004685D02*
X009050Y004685D01*
X009050Y004743D02*
X007310Y004743D01*
X007310Y004802D02*
X009050Y004802D01*
X009050Y004860D02*
X007310Y004860D01*
X007310Y004919D02*
X009050Y004919D01*
X009050Y004977D02*
X007310Y004977D01*
X007310Y005036D02*
X009050Y005036D01*
X009050Y005094D02*
X007310Y005094D01*
X007310Y005153D02*
X009050Y005153D01*
X009050Y005211D02*
X007310Y005211D01*
X007310Y005270D02*
X009050Y005270D01*
X009050Y005328D02*
X007310Y005328D01*
X007310Y005387D02*
X009050Y005387D01*
X009050Y005445D02*
X007310Y005445D01*
X007310Y005504D02*
X009050Y005504D01*
X009050Y005562D02*
X007310Y005562D01*
X007310Y005621D02*
X009050Y005621D01*
X009050Y005679D02*
X007310Y005679D01*
X007310Y005738D02*
X009050Y005738D01*
X009050Y005796D02*
X007363Y005796D01*
X007427Y005855D02*
X009050Y005855D01*
X009050Y005913D02*
X007491Y005913D01*
X007555Y005972D02*
X009050Y005972D01*
X009050Y006030D02*
X007619Y006030D01*
X007683Y006089D02*
X009050Y006089D01*
X009050Y006147D02*
X007747Y006147D01*
X007811Y006206D02*
X009050Y006206D01*
X009050Y006264D02*
X007999Y006264D01*
X008057Y006323D02*
X009050Y006323D01*
X009050Y006381D02*
X008109Y006381D01*
X008109Y006440D02*
X009050Y006440D01*
X009050Y006498D02*
X008109Y006498D01*
X008100Y006557D02*
X009050Y006557D01*
X009050Y006615D02*
X008042Y006615D01*
X008017Y006908D02*
X009050Y006908D01*
X009050Y006966D02*
X008076Y006966D01*
X008109Y007025D02*
X009050Y007025D01*
X009050Y007083D02*
X008109Y007083D01*
X008109Y007142D02*
X009050Y007142D01*
X009050Y007200D02*
X008082Y007200D01*
X008023Y007259D02*
X009050Y007259D01*
X009050Y006849D02*
X007838Y006849D01*
X007776Y006791D02*
X009050Y006791D01*
X009050Y006732D02*
X007714Y006732D01*
X007653Y006674D02*
X009050Y006674D01*
X007756Y006615D02*
X007591Y006615D01*
X007529Y006557D02*
X007697Y006557D01*
X007689Y006498D02*
X007468Y006498D01*
X007406Y006440D02*
X007682Y006440D01*
X007618Y006381D02*
X007344Y006381D01*
X007283Y006323D02*
X007554Y006323D01*
X007490Y006264D02*
X007221Y006264D01*
X007159Y006206D02*
X007426Y006206D01*
X007362Y006147D02*
X007098Y006147D01*
X007036Y006089D02*
X007298Y006089D01*
X007234Y006030D02*
X006974Y006030D01*
X006913Y005972D02*
X007170Y005972D01*
X007104Y005913D02*
X006851Y005913D01*
X006810Y005855D02*
X007050Y005855D01*
X007049Y005796D02*
X006810Y005796D01*
X006810Y005738D02*
X007050Y005738D01*
X007050Y005679D02*
X006810Y005679D01*
X006810Y005621D02*
X007050Y005621D01*
X007050Y005562D02*
X006810Y005562D01*
X006810Y005504D02*
X007050Y005504D01*
X007050Y005445D02*
X006810Y005445D01*
X006810Y005387D02*
X007050Y005387D01*
X007050Y005328D02*
X006810Y005328D01*
X006810Y005270D02*
X007050Y005270D01*
X007050Y005211D02*
X006810Y005211D01*
X006810Y005153D02*
X007050Y005153D01*
X007050Y005094D02*
X006810Y005094D01*
X006810Y005036D02*
X007050Y005036D01*
X007050Y004977D02*
X006810Y004977D01*
X006810Y004919D02*
X007050Y004919D01*
X007050Y004860D02*
X006810Y004860D01*
X006810Y004802D02*
X007050Y004802D01*
X007050Y004743D02*
X006810Y004743D01*
X006810Y004685D02*
X007050Y004685D01*
X007050Y004626D02*
X006810Y004626D01*
X006810Y004568D02*
X007050Y004568D01*
X007050Y004509D02*
X006810Y004509D01*
X006810Y004451D02*
X007050Y004451D01*
X007050Y004392D02*
X006810Y004392D01*
X006855Y004334D02*
X007005Y004334D01*
X006970Y004275D02*
X006890Y004275D01*
X006890Y004217D02*
X006970Y004217D01*
X006970Y004158D02*
X006890Y004158D01*
X006865Y004100D02*
X006995Y004100D01*
X007053Y004041D02*
X006807Y004041D01*
X006741Y003454D02*
X006627Y003454D01*
X006521Y003410D01*
X006439Y003329D01*
X006438Y003325D01*
X006436Y003329D01*
X006355Y003410D01*
X006249Y003454D01*
X006134Y003454D01*
X006028Y003410D01*
X005947Y003329D01*
X005903Y003223D01*
X005903Y003108D01*
X005947Y003002D01*
X006028Y002921D01*
X006134Y002877D01*
X006249Y002877D01*
X006355Y002921D01*
X006436Y003002D01*
X006438Y003006D01*
X006439Y003002D01*
X006521Y002921D01*
X006627Y002877D01*
X006741Y002877D01*
X006847Y002921D01*
X006928Y003002D01*
X006930Y003006D01*
X006932Y003002D01*
X007013Y002921D01*
X007119Y002877D01*
X007233Y002877D01*
X007339Y002921D01*
X007421Y003002D01*
X007424Y003011D01*
X007444Y002981D01*
X007484Y002941D01*
X007532Y002910D01*
X007584Y002888D01*
X007640Y002877D01*
X007649Y002877D01*
X007649Y003146D01*
X007687Y003146D01*
X007687Y002877D01*
X007697Y002877D01*
X007752Y002888D01*
X007805Y002910D01*
X007852Y002941D01*
X007892Y002981D01*
X007924Y003029D01*
X007946Y003081D01*
X007957Y003137D01*
X007957Y003146D01*
X007687Y003146D01*
X007687Y003185D01*
X007649Y003185D01*
X007649Y003454D01*
X007640Y003454D01*
X007584Y003443D01*
X007532Y003421D01*
X007484Y003389D01*
X007444Y003349D01*
X007424Y003320D01*
X007421Y003329D01*
X007339Y003410D01*
X007233Y003454D01*
X007119Y003454D01*
X007013Y003410D01*
X006932Y003329D01*
X006930Y003325D01*
X006928Y003329D01*
X006847Y003410D01*
X006741Y003454D01*
X006860Y003398D02*
X007000Y003398D01*
X006942Y003339D02*
X006918Y003339D01*
X006915Y002988D02*
X006945Y002988D01*
X007004Y002930D02*
X006856Y002930D01*
X006512Y002930D02*
X006364Y002930D01*
X006422Y002988D02*
X006453Y002988D01*
X006450Y003339D02*
X006426Y003339D01*
X006368Y003398D02*
X006508Y003398D01*
X006016Y003398D02*
X004779Y003398D01*
X004774Y003456D02*
X009050Y003456D01*
X009050Y003398D02*
X007840Y003398D01*
X007852Y003389D02*
X007805Y003421D01*
X007752Y003443D01*
X007697Y003454D01*
X007687Y003454D01*
X007687Y003185D01*
X007957Y003185D01*
X007957Y003194D01*
X007946Y003249D01*
X007924Y003302D01*
X007892Y003349D01*
X007852Y003389D01*
X007899Y003339D02*
X009050Y003339D01*
X009050Y003281D02*
X007933Y003281D01*
X007951Y003222D02*
X009050Y003222D01*
X009050Y003164D02*
X007687Y003164D01*
X007687Y003222D02*
X007649Y003222D01*
X007649Y003281D02*
X007687Y003281D01*
X007687Y003339D02*
X007649Y003339D01*
X007649Y003398D02*
X007687Y003398D01*
X007497Y003398D02*
X007352Y003398D01*
X007410Y003339D02*
X007437Y003339D01*
X007649Y003105D02*
X007687Y003105D01*
X007687Y003047D02*
X007649Y003047D01*
X007649Y002988D02*
X007687Y002988D01*
X007687Y002930D02*
X007649Y002930D01*
X007502Y002930D02*
X007348Y002930D01*
X007407Y002988D02*
X007440Y002988D01*
X007834Y002930D02*
X009044Y002930D01*
X009049Y002988D02*
X007897Y002988D01*
X007931Y003047D02*
X009050Y003047D01*
X009050Y003105D02*
X007950Y003105D01*
X008916Y002754D02*
X004779Y002754D01*
X004779Y002813D02*
X008984Y002813D01*
X009020Y002871D02*
X004779Y002871D01*
X004779Y002930D02*
X006020Y002930D01*
X005961Y002988D02*
X004779Y002988D01*
X004779Y003047D02*
X005929Y003047D01*
X005905Y003105D02*
X004779Y003105D01*
X004779Y003164D02*
X005903Y003164D01*
X005903Y003222D02*
X004779Y003222D01*
X004779Y003281D02*
X005927Y003281D01*
X005958Y003339D02*
X004779Y003339D01*
X004768Y003515D02*
X009050Y003515D01*
X009050Y003573D02*
X004757Y003573D01*
X004742Y003632D02*
X009050Y003632D01*
X009050Y003690D02*
X004722Y003690D01*
X004696Y003749D02*
X009050Y003749D01*
X009050Y003807D02*
X004666Y003807D01*
X004628Y003866D02*
X009050Y003866D01*
X009050Y003924D02*
X004583Y003924D01*
X015070Y009035D02*
X015114Y008991D01*
X015200Y008991D01*
X015244Y009035D01*
X015275Y008897D02*
X015333Y008897D01*
X015761Y008897D02*
X015775Y008897D01*
D12*
X015199Y011759D03*
X014707Y011759D03*
X014215Y011759D03*
X013723Y011759D03*
X007668Y011759D03*
X007176Y011759D03*
X006684Y011759D03*
X006192Y011759D03*
X006192Y003165D03*
X006684Y003165D03*
X007176Y003165D03*
X007668Y003165D03*
X013723Y003165D03*
X014215Y003165D03*
X014707Y003165D03*
X015199Y003165D03*
D13*
X015211Y003649D03*
X015211Y004024D03*
X014711Y004211D03*
X014211Y004211D03*
X014461Y003649D03*
X013930Y003649D03*
X011993Y004899D03*
X011993Y005399D03*
X011993Y006149D03*
X011993Y007399D03*
X012493Y008711D03*
X013399Y007024D03*
X014149Y007024D03*
X014680Y007555D03*
X015430Y007086D03*
X015430Y006461D03*
X013774Y006243D03*
X014680Y008711D03*
X015805Y008711D03*
X015211Y012243D03*
X015211Y012618D03*
X014711Y012805D03*
X014461Y012243D03*
X014211Y012805D03*
X013930Y012243D03*
X011993Y013493D03*
X011993Y013993D03*
X011993Y014743D03*
X011993Y015993D03*
X012493Y017305D03*
X013399Y015618D03*
X013774Y014836D03*
X014149Y015618D03*
X014680Y016149D03*
X015430Y015680D03*
X015430Y015055D03*
X015805Y017305D03*
X014680Y017305D03*
X008274Y017305D03*
X007149Y017305D03*
X007149Y016149D03*
X006618Y015618D03*
X006243Y014836D03*
X005868Y015618D03*
X004461Y015993D03*
X004461Y014743D03*
X004461Y013993D03*
X004461Y013493D03*
X006399Y012243D03*
X006680Y012805D03*
X007180Y012805D03*
X006930Y012243D03*
X007680Y012243D03*
X007680Y012618D03*
X007899Y015055D03*
X007899Y015680D03*
X004961Y017305D03*
X004961Y008711D03*
X004461Y007399D03*
X004461Y006149D03*
X004461Y005399D03*
X004461Y004899D03*
X006243Y006243D03*
X006618Y007024D03*
X007149Y007555D03*
X007899Y007086D03*
X007899Y006461D03*
X005868Y007024D03*
X007149Y008711D03*
X008274Y008711D03*
X007180Y004211D03*
X006680Y004211D03*
X006930Y003649D03*
X006399Y003649D03*
X007680Y003649D03*
X007680Y004024D03*
D14*
X004461Y006149D02*
X004461Y007399D01*
X004461Y014743D02*
X004461Y015993D01*
X011993Y015993D02*
X011993Y014743D01*
X011993Y007399D02*
X011993Y006149D01*
D15*
X014211Y005930D02*
X014211Y004211D01*
X014711Y004211D02*
X014711Y005805D01*
X015430Y006461D01*
X015430Y007086D02*
X014211Y005930D01*
X007899Y006461D02*
X007180Y005805D01*
X007180Y004211D01*
X006680Y004211D02*
X006680Y005930D01*
X007899Y007086D01*
X007180Y012805D02*
X007180Y014399D01*
X007899Y015055D01*
X007899Y015680D02*
X006680Y014524D01*
X006680Y012805D01*
X014211Y012805D02*
X014211Y014524D01*
X015430Y015680D01*
X015430Y015055D02*
X014711Y014399D01*
X014711Y012805D01*
D16*
X012649Y009086D03*
X005118Y009086D03*
X005118Y017680D03*
X012649Y017680D03*
D17*
X013305Y013368D03*
X005774Y013368D03*
X005774Y004774D03*
X013305Y004774D03*
D18*
X012868Y005211D01*
X012868Y008868D01*
X012649Y009086D01*
X013305Y013368D02*
X012868Y013805D01*
X012868Y017461D01*
X012649Y017680D01*
X005774Y013368D02*
X005336Y013805D01*
X005336Y017461D01*
X005118Y017680D01*
X005118Y009086D02*
X005336Y008868D01*
X005336Y005211D01*
X005774Y004774D01*
M02*
