G75*
%MOIN*%
%OFA0B0*%
%FSLAX24Y24*%
%IPPOS*%
%LPD*%
%AMOC8*
5,1,8,0,0,1.08239X$1,22.5*
%
%ADD10C,0.0000*%
%ADD11C,0.0060*%
%ADD12OC8,0.0440*%
%ADD13C,0.0240*%
%ADD14C,0.0160*%
%ADD15C,0.0320*%
%ADD16C,0.0320*%
%ADD17C,0.0240*%
%ADD18C,0.0120*%
%ADD19C,0.0100*%
D10*
X003193Y001223D02*
X003193Y010022D01*
X003195Y010061D01*
X003201Y010099D01*
X003210Y010136D01*
X003223Y010173D01*
X003240Y010208D01*
X003259Y010241D01*
X003282Y010272D01*
X003308Y010301D01*
X003337Y010327D01*
X003368Y010350D01*
X003401Y010369D01*
X003436Y010386D01*
X003473Y010399D01*
X003510Y010408D01*
X003548Y010414D01*
X003587Y010416D01*
X010080Y010416D01*
X010119Y010414D01*
X010157Y010408D01*
X010194Y010399D01*
X010231Y010386D01*
X010266Y010369D01*
X010299Y010350D01*
X010330Y010327D01*
X010359Y010301D01*
X010385Y010272D01*
X010408Y010241D01*
X010427Y010208D01*
X010444Y010173D01*
X010457Y010136D01*
X010466Y010099D01*
X010472Y010061D01*
X010474Y010022D01*
X010474Y001223D01*
X010472Y001184D01*
X010466Y001146D01*
X010457Y001109D01*
X010444Y001072D01*
X010427Y001037D01*
X010408Y001004D01*
X010385Y000973D01*
X010359Y000944D01*
X010330Y000918D01*
X010299Y000895D01*
X010266Y000876D01*
X010231Y000859D01*
X010194Y000846D01*
X010157Y000837D01*
X010119Y000831D01*
X010080Y000829D01*
X003587Y000829D01*
X003548Y000831D01*
X003510Y000837D01*
X003473Y000846D01*
X003436Y000859D01*
X003401Y000876D01*
X003368Y000895D01*
X003337Y000918D01*
X003308Y000944D01*
X003282Y000973D01*
X003259Y001004D01*
X003240Y001037D01*
X003223Y001072D01*
X003210Y001109D01*
X003201Y001146D01*
X003195Y001184D01*
X003193Y001223D01*
X003548Y001685D02*
X003550Y001726D01*
X003556Y001767D01*
X003566Y001807D01*
X003579Y001846D01*
X003596Y001883D01*
X003617Y001919D01*
X003641Y001953D01*
X003668Y001984D01*
X003697Y002012D01*
X003730Y002038D01*
X003764Y002060D01*
X003801Y002079D01*
X003839Y002094D01*
X003879Y002106D01*
X003919Y002114D01*
X003960Y002118D01*
X004002Y002118D01*
X004043Y002114D01*
X004083Y002106D01*
X004123Y002094D01*
X004161Y002079D01*
X004197Y002060D01*
X004232Y002038D01*
X004265Y002012D01*
X004294Y001984D01*
X004321Y001953D01*
X004345Y001919D01*
X004366Y001883D01*
X004383Y001846D01*
X004396Y001807D01*
X004406Y001767D01*
X004412Y001726D01*
X004414Y001685D01*
X004412Y001644D01*
X004406Y001603D01*
X004396Y001563D01*
X004383Y001524D01*
X004366Y001487D01*
X004345Y001451D01*
X004321Y001417D01*
X004294Y001386D01*
X004265Y001358D01*
X004232Y001332D01*
X004198Y001310D01*
X004161Y001291D01*
X004123Y001276D01*
X004083Y001264D01*
X004043Y001256D01*
X004002Y001252D01*
X003960Y001252D01*
X003919Y001256D01*
X003879Y001264D01*
X003839Y001276D01*
X003801Y001291D01*
X003765Y001310D01*
X003730Y001332D01*
X003697Y001358D01*
X003668Y001386D01*
X003641Y001417D01*
X003617Y001451D01*
X003596Y001487D01*
X003579Y001524D01*
X003566Y001563D01*
X003556Y001603D01*
X003550Y001644D01*
X003548Y001685D01*
X003548Y009559D02*
X003550Y009600D01*
X003556Y009641D01*
X003566Y009681D01*
X003579Y009720D01*
X003596Y009757D01*
X003617Y009793D01*
X003641Y009827D01*
X003668Y009858D01*
X003697Y009886D01*
X003730Y009912D01*
X003764Y009934D01*
X003801Y009953D01*
X003839Y009968D01*
X003879Y009980D01*
X003919Y009988D01*
X003960Y009992D01*
X004002Y009992D01*
X004043Y009988D01*
X004083Y009980D01*
X004123Y009968D01*
X004161Y009953D01*
X004197Y009934D01*
X004232Y009912D01*
X004265Y009886D01*
X004294Y009858D01*
X004321Y009827D01*
X004345Y009793D01*
X004366Y009757D01*
X004383Y009720D01*
X004396Y009681D01*
X004406Y009641D01*
X004412Y009600D01*
X004414Y009559D01*
X004412Y009518D01*
X004406Y009477D01*
X004396Y009437D01*
X004383Y009398D01*
X004366Y009361D01*
X004345Y009325D01*
X004321Y009291D01*
X004294Y009260D01*
X004265Y009232D01*
X004232Y009206D01*
X004198Y009184D01*
X004161Y009165D01*
X004123Y009150D01*
X004083Y009138D01*
X004043Y009130D01*
X004002Y009126D01*
X003960Y009126D01*
X003919Y009130D01*
X003879Y009138D01*
X003839Y009150D01*
X003801Y009165D01*
X003765Y009184D01*
X003730Y009206D01*
X003697Y009232D01*
X003668Y009260D01*
X003641Y009291D01*
X003617Y009325D01*
X003596Y009361D01*
X003579Y009398D01*
X003566Y009437D01*
X003556Y009477D01*
X003550Y009518D01*
X003548Y009559D01*
D11*
X003323Y008792D02*
X004016Y008792D01*
X004017Y008791D01*
X004029Y008792D01*
X004040Y008792D01*
X004042Y008794D01*
X004144Y008804D01*
X004146Y008803D01*
X004156Y008806D01*
X004167Y008807D01*
X004169Y008809D01*
X004269Y008835D01*
X004271Y008834D01*
X004281Y008839D01*
X004292Y008842D01*
X004293Y008844D01*
X004387Y008886D01*
X004390Y008885D01*
X004399Y008891D01*
X004409Y008896D01*
X004410Y008898D01*
X004497Y008954D01*
X004500Y008954D01*
X004508Y008961D01*
X004517Y008967D01*
X004517Y008970D01*
X004594Y009039D01*
X004597Y009039D01*
X004604Y009048D01*
X004612Y009055D01*
X004612Y009058D01*
X004677Y009138D01*
X004680Y009139D01*
X004685Y009148D01*
X004692Y009156D01*
X004692Y009159D01*
X004743Y009249D01*
X004746Y009250D01*
X004750Y009260D01*
X004755Y009269D01*
X004755Y009272D01*
X004792Y009368D01*
X004794Y009370D01*
X004796Y009380D01*
X004800Y009390D01*
X004799Y009393D01*
X004821Y009494D01*
X004823Y009496D01*
X004823Y009507D01*
X004826Y009517D01*
X004824Y009519D01*
X004830Y009621D01*
X004830Y009622D01*
X004830Y009634D01*
X004831Y009646D01*
X004830Y009647D01*
X004830Y010286D01*
X010080Y010286D01*
X010131Y010281D01*
X010226Y010241D01*
X010299Y010169D01*
X010339Y010074D01*
X010344Y010022D01*
X010344Y001223D01*
X010339Y001171D01*
X010299Y001076D01*
X010226Y001004D01*
X010131Y000964D01*
X010080Y000959D01*
X009493Y000959D01*
X009501Y000967D01*
X009680Y001147D01*
X010024Y001147D01*
X010094Y001217D01*
X010282Y001404D01*
X010282Y002410D01*
X010212Y002480D01*
X010116Y002576D01*
X010128Y002588D01*
X010128Y002845D01*
X009982Y002992D01*
X010128Y003138D01*
X010128Y003395D01*
X009947Y003577D01*
X009938Y003577D01*
X009938Y005004D01*
X009407Y005535D01*
X009407Y006160D01*
X009126Y006441D01*
X009126Y006441D01*
X009055Y006512D01*
X006868Y006512D01*
X006653Y006726D01*
X006653Y006744D01*
X006733Y006744D01*
X006733Y006680D01*
X006856Y006557D01*
X007030Y006557D01*
X007070Y006597D01*
X009421Y006597D01*
X009421Y006492D01*
X009483Y006430D01*
X009483Y005973D01*
X009481Y005971D01*
X009443Y005879D01*
X009443Y005779D01*
X009481Y005688D01*
X009552Y005617D01*
X009643Y005579D01*
X009743Y005579D01*
X009835Y005617D01*
X009905Y005688D01*
X009943Y005779D01*
X009943Y005879D01*
X009905Y005971D01*
X009903Y005973D01*
X009903Y006604D01*
X009841Y006666D01*
X009841Y007385D01*
X009856Y007369D01*
X010030Y007369D01*
X010153Y007492D01*
X010153Y007666D01*
X010030Y007789D01*
X009856Y007789D01*
X009841Y007774D01*
X009841Y007867D01*
X010153Y008180D01*
X010153Y009166D01*
X010030Y009289D01*
X009591Y009729D01*
X009468Y009852D01*
X009403Y009852D01*
X009403Y009979D01*
X009280Y010102D01*
X009106Y010102D01*
X009006Y010001D01*
X008905Y010102D01*
X007262Y010102D01*
X007075Y009914D01*
X005481Y009914D01*
X004983Y009416D01*
X004983Y008977D01*
X004856Y008977D01*
X004733Y008854D01*
X004733Y008680D01*
X004856Y008557D01*
X004983Y008557D01*
X004983Y007278D01*
X004807Y007125D01*
X004698Y007125D01*
X004616Y007043D01*
X004260Y006688D01*
X004178Y006606D01*
X004178Y006334D01*
X004260Y006252D01*
X004336Y006176D01*
X004336Y005009D01*
X004435Y004909D01*
X005185Y004159D01*
X005851Y004159D01*
X005796Y004104D01*
X005796Y003930D01*
X004306Y003930D01*
X004310Y003926D02*
X004240Y003996D01*
X004110Y003996D01*
X004110Y003996D01*
X004061Y003996D01*
X003967Y003996D01*
X003923Y003953D01*
X003853Y003883D01*
X003853Y003697D01*
X003907Y003642D01*
X003853Y003588D01*
X003853Y003402D01*
X003877Y003378D01*
X003853Y003354D01*
X003853Y003211D01*
X003886Y003179D01*
X003853Y003146D01*
X003853Y002960D01*
X003897Y002917D01*
X003938Y002875D01*
X003927Y002870D01*
X003888Y002857D01*
X003884Y002848D01*
X003875Y002844D01*
X003862Y002804D01*
X003844Y002768D01*
X003847Y002758D01*
X003844Y002749D01*
X003862Y002712D01*
X003875Y002673D01*
X003884Y002669D01*
X003888Y002660D01*
X003927Y002647D01*
X004137Y002542D01*
X004232Y002574D01*
X004276Y002662D01*
X004245Y002757D01*
X004242Y002758D01*
X004245Y002760D01*
X004276Y002854D01*
X004267Y002873D01*
X004283Y002890D01*
X004353Y002960D01*
X004353Y002983D01*
X004383Y002953D01*
X004381Y002953D01*
X004360Y002922D01*
X004333Y002895D01*
X004333Y002881D01*
X004326Y002870D01*
X004333Y002833D01*
X004333Y002795D01*
X004343Y002786D01*
X004345Y002773D01*
X004369Y002757D01*
X004333Y002721D01*
X004333Y002622D01*
X004403Y002552D01*
X004677Y002552D01*
X004688Y002544D01*
X004725Y002552D01*
X004763Y002552D01*
X004773Y002561D01*
X004786Y002564D01*
X004807Y002595D01*
X004833Y002622D01*
X004833Y002635D01*
X004841Y002646D01*
X004833Y002684D01*
X004833Y002721D01*
X004824Y002731D01*
X004821Y002744D01*
X004798Y002760D01*
X006655Y002760D01*
X006597Y002818D02*
X004833Y002818D01*
X004833Y002795D02*
X004833Y002895D01*
X004823Y002906D01*
X004833Y002917D01*
X004833Y003190D01*
X004763Y003260D01*
X004664Y003260D01*
X004593Y003190D01*
X004593Y003173D01*
X004403Y003173D01*
X004353Y003123D01*
X004353Y003146D01*
X004310Y003190D01*
X004240Y003260D01*
X004137Y003260D01*
X004137Y003288D01*
X004240Y003288D01*
X004283Y003332D01*
X004353Y003402D01*
X004353Y003588D01*
X004310Y003631D01*
X004299Y003642D01*
X004353Y003697D01*
X004353Y003883D01*
X004310Y003926D01*
X004353Y003871D02*
X005854Y003871D01*
X005913Y003813D02*
X004353Y003813D01*
X004353Y003754D02*
X006196Y003754D01*
X006231Y003789D02*
X006108Y003666D01*
X006108Y003492D01*
X006231Y003369D01*
X006405Y003369D01*
X006474Y003438D01*
X006511Y003402D01*
X006511Y002904D01*
X007046Y002369D01*
X007046Y002242D01*
X007169Y002119D01*
X007343Y002119D01*
X007466Y002242D01*
X007466Y002416D01*
X007343Y002539D01*
X007215Y002539D01*
X006751Y003004D01*
X006751Y003402D01*
X006761Y003412D01*
X006761Y003342D01*
X006831Y003272D01*
X007018Y003084D01*
X007206Y003084D01*
X007886Y002404D01*
X007886Y001717D01*
X007956Y001647D01*
X008643Y000959D01*
X004823Y000959D01*
X004823Y001645D01*
X004824Y001647D01*
X004823Y001658D01*
X004823Y001670D01*
X004822Y001671D01*
X004811Y001773D01*
X004813Y001776D01*
X004810Y001786D01*
X004809Y001797D01*
X004807Y001798D01*
X004780Y001898D01*
X004781Y001901D01*
X004777Y001911D01*
X004774Y001921D01*
X004771Y001923D01*
X004729Y002017D01*
X004730Y002020D01*
X004724Y002029D01*
X004720Y002039D01*
X004717Y002040D01*
X004661Y002126D01*
X004661Y002129D01*
X004654Y002137D01*
X004648Y002146D01*
X004645Y002147D01*
X004576Y002224D01*
X004576Y002227D01*
X004568Y002233D01*
X007055Y002233D01*
X007046Y002292D02*
X004496Y002292D01*
X004477Y002307D02*
X004477Y002309D01*
X004467Y002315D01*
X004459Y002322D01*
X004456Y002321D01*
X004367Y002373D01*
X004366Y002376D01*
X004356Y002380D01*
X004346Y002385D01*
X004344Y002384D01*
X004247Y002421D01*
X004246Y002424D01*
X004235Y002426D01*
X004225Y002430D01*
X004222Y002429D01*
X004121Y002450D01*
X004119Y002452D01*
X004109Y002453D01*
X004098Y002455D01*
X004096Y002454D01*
X003995Y002459D01*
X003994Y002460D01*
X003981Y002460D01*
X003969Y002460D01*
X003968Y002460D01*
X003323Y002460D01*
X003323Y008792D01*
X003323Y008785D02*
X004733Y008785D01*
X004733Y008727D02*
X003323Y008727D01*
X003323Y008668D02*
X004745Y008668D01*
X004803Y008610D02*
X003323Y008610D01*
X003323Y008551D02*
X004983Y008551D01*
X004983Y008493D02*
X003323Y008493D01*
X003323Y008434D02*
X004983Y008434D01*
X004983Y008376D02*
X003323Y008376D01*
X003323Y008317D02*
X004983Y008317D01*
X004983Y008259D02*
X003323Y008259D01*
X003323Y008200D02*
X004983Y008200D01*
X004983Y008142D02*
X003323Y008142D01*
X003323Y008083D02*
X004983Y008083D01*
X004983Y008025D02*
X003323Y008025D01*
X003323Y007966D02*
X004983Y007966D01*
X004983Y007908D02*
X003323Y007908D01*
X003323Y007849D02*
X004983Y007849D01*
X004983Y007791D02*
X003323Y007791D01*
X003323Y007732D02*
X004983Y007732D01*
X004983Y007674D02*
X003323Y007674D01*
X003323Y007615D02*
X004983Y007615D01*
X004983Y007557D02*
X003323Y007557D01*
X003323Y007498D02*
X004983Y007498D01*
X004983Y007440D02*
X003323Y007440D01*
X003323Y007381D02*
X004983Y007381D01*
X004983Y007323D02*
X003323Y007323D01*
X003323Y007264D02*
X004967Y007264D01*
X004900Y007206D02*
X003323Y007206D01*
X003323Y007147D02*
X004833Y007147D01*
X004661Y007089D02*
X003323Y007089D01*
X003323Y007030D02*
X004602Y007030D01*
X004544Y006972D02*
X003323Y006972D01*
X003323Y006913D02*
X004485Y006913D01*
X004427Y006855D02*
X003323Y006855D01*
X003323Y006796D02*
X004368Y006796D01*
X004310Y006738D02*
X003323Y006738D01*
X003323Y006679D02*
X004251Y006679D01*
X004193Y006621D02*
X003323Y006621D01*
X003323Y006562D02*
X004178Y006562D01*
X004178Y006504D02*
X003323Y006504D01*
X003323Y006445D02*
X004178Y006445D01*
X004178Y006387D02*
X003323Y006387D01*
X003323Y006328D02*
X004184Y006328D01*
X004242Y006270D02*
X003323Y006270D01*
X003323Y006211D02*
X004301Y006211D01*
X004336Y006153D02*
X003323Y006153D01*
X003323Y006094D02*
X004336Y006094D01*
X004336Y006036D02*
X003323Y006036D01*
X003323Y005977D02*
X004336Y005977D01*
X004336Y005919D02*
X003323Y005919D01*
X003323Y005860D02*
X004336Y005860D01*
X004336Y005802D02*
X003323Y005802D01*
X003323Y005743D02*
X004336Y005743D01*
X004336Y005685D02*
X003323Y005685D01*
X003323Y005626D02*
X004336Y005626D01*
X004336Y005568D02*
X003323Y005568D01*
X003323Y005509D02*
X004336Y005509D01*
X004336Y005451D02*
X003323Y005451D01*
X003323Y005392D02*
X004336Y005392D01*
X004336Y005334D02*
X003323Y005334D01*
X003323Y005275D02*
X004336Y005275D01*
X004336Y005217D02*
X003323Y005217D01*
X003323Y005158D02*
X004336Y005158D01*
X004336Y005100D02*
X003323Y005100D01*
X003323Y005041D02*
X004336Y005041D01*
X004362Y004983D02*
X003323Y004983D01*
X003323Y004924D02*
X004420Y004924D01*
X004479Y004866D02*
X003323Y004866D01*
X003323Y004807D02*
X004537Y004807D01*
X004596Y004749D02*
X003323Y004749D01*
X003323Y004690D02*
X004654Y004690D01*
X004713Y004632D02*
X003323Y004632D01*
X003323Y004573D02*
X004771Y004573D01*
X004830Y004515D02*
X003323Y004515D01*
X003323Y004456D02*
X004888Y004456D01*
X004947Y004398D02*
X003323Y004398D01*
X003323Y004339D02*
X005005Y004339D01*
X005064Y004281D02*
X003323Y004281D01*
X003323Y004222D02*
X005122Y004222D01*
X005181Y004164D02*
X003323Y004164D01*
X003323Y004105D02*
X005797Y004105D01*
X005796Y004047D02*
X003323Y004047D01*
X003323Y003988D02*
X003959Y003988D01*
X003900Y003930D02*
X003323Y003930D01*
X003323Y003871D02*
X003853Y003871D01*
X003853Y003813D02*
X003323Y003813D01*
X003323Y003754D02*
X003853Y003754D01*
X003854Y003696D02*
X003323Y003696D01*
X003323Y003637D02*
X003902Y003637D01*
X003853Y003579D02*
X003323Y003579D01*
X003323Y003520D02*
X003853Y003520D01*
X003853Y003462D02*
X003323Y003462D01*
X003323Y003403D02*
X003853Y003403D01*
X003853Y003345D02*
X003323Y003345D01*
X003323Y003286D02*
X003853Y003286D01*
X003853Y003228D02*
X003323Y003228D01*
X003323Y003169D02*
X003876Y003169D01*
X003853Y003111D02*
X003323Y003111D01*
X003323Y003052D02*
X003853Y003052D01*
X003853Y002994D02*
X003323Y002994D01*
X003323Y002935D02*
X003878Y002935D01*
X003936Y002877D02*
X003323Y002877D01*
X003323Y002818D02*
X003867Y002818D01*
X003846Y002760D02*
X003323Y002760D01*
X003323Y002701D02*
X003866Y002701D01*
X003936Y002643D02*
X003323Y002643D01*
X003323Y002584D02*
X004053Y002584D01*
X004147Y002672D02*
X003973Y002758D01*
X004147Y002845D01*
X004264Y002818D02*
X004333Y002818D01*
X004330Y002877D02*
X004270Y002877D01*
X004329Y002935D02*
X004369Y002935D01*
X004453Y002845D02*
X004713Y002845D01*
X004798Y002760D02*
X004833Y002795D01*
X004833Y002877D02*
X006538Y002877D01*
X006511Y002935D02*
X004833Y002935D01*
X004833Y002994D02*
X006511Y002994D01*
X006511Y003052D02*
X004833Y003052D01*
X004833Y003111D02*
X006511Y003111D01*
X006511Y003169D02*
X004833Y003169D01*
X004795Y003228D02*
X006511Y003228D01*
X006511Y003286D02*
X004137Y003286D01*
X004017Y003304D02*
X004017Y003261D01*
X003973Y003261D01*
X003973Y003304D01*
X004017Y003304D01*
X004017Y003408D02*
X003973Y003452D01*
X003973Y003538D01*
X004017Y003582D01*
X004190Y003582D01*
X004017Y003408D01*
X004190Y003408D01*
X004233Y003452D01*
X004233Y003538D01*
X004190Y003582D01*
X004190Y003703D02*
X004147Y003703D01*
X004103Y003746D01*
X004103Y003833D01*
X004060Y003876D01*
X004017Y003876D01*
X003973Y003833D01*
X003973Y003746D01*
X004017Y003703D01*
X004060Y003703D01*
X004103Y003746D01*
X004103Y003833D02*
X004147Y003876D01*
X004190Y003876D01*
X004233Y003833D01*
X004233Y003746D01*
X004190Y003703D01*
X004304Y003637D02*
X006108Y003637D01*
X006108Y003579D02*
X004353Y003579D01*
X004353Y003520D02*
X006108Y003520D01*
X006139Y003462D02*
X004353Y003462D01*
X004353Y003403D02*
X006197Y003403D01*
X006318Y003579D02*
X006318Y003642D01*
X006506Y003829D01*
X006756Y003829D01*
X006881Y003704D01*
X006881Y003392D01*
X007068Y003204D01*
X007256Y003204D01*
X008006Y002454D01*
X008006Y001767D01*
X008756Y001017D01*
X009381Y001017D01*
X009631Y001267D01*
X009974Y001267D01*
X010162Y001454D01*
X010162Y002360D01*
X009818Y002704D01*
X009818Y002717D01*
X009598Y002935D02*
X009501Y002935D01*
X009501Y002877D02*
X009540Y002877D01*
X009508Y002845D02*
X009508Y002588D01*
X009655Y002442D01*
X009508Y002295D01*
X009508Y002038D01*
X009527Y002020D01*
X009501Y001994D01*
X009501Y003941D01*
X008966Y004476D01*
X008966Y004604D01*
X008843Y004727D01*
X008669Y004727D01*
X008546Y004604D01*
X008546Y004430D01*
X008669Y004307D01*
X008796Y004307D01*
X009261Y003842D01*
X009261Y003513D01*
X009238Y003535D01*
X009238Y003650D01*
X008488Y004400D01*
X008389Y004499D01*
X005326Y004499D01*
X004676Y005150D01*
X004676Y006239D01*
X005064Y006627D01*
X005089Y006652D01*
X005120Y006667D01*
X005128Y006691D01*
X005146Y006709D01*
X005146Y006744D01*
X005157Y006777D01*
X005146Y006800D01*
X005146Y006863D01*
X005272Y006972D01*
X005280Y006972D01*
X005336Y007028D01*
X005396Y007080D01*
X005397Y007089D01*
X005403Y007095D01*
X005403Y007175D01*
X005409Y007254D01*
X005403Y007260D01*
X005403Y009242D01*
X005655Y009494D01*
X007249Y009494D01*
X007372Y009617D01*
X007436Y009682D01*
X008436Y009682D01*
X008421Y009666D01*
X008421Y009492D01*
X008544Y009369D01*
X008671Y009369D01*
X009073Y008967D01*
X009143Y008897D01*
X009331Y008897D01*
X009448Y008779D01*
X009448Y008504D01*
X008393Y007449D01*
X007018Y007449D01*
X006733Y007164D01*
X006606Y007164D01*
X006483Y007041D01*
X006483Y006977D01*
X006356Y006977D01*
X006233Y006854D01*
X006233Y006680D01*
X006356Y006557D01*
X006483Y006557D01*
X006768Y006272D01*
X008956Y006272D01*
X009167Y006061D01*
X009167Y005436D01*
X009698Y004904D01*
X009698Y003577D01*
X009690Y003577D01*
X009508Y003395D01*
X009508Y003138D01*
X009655Y002992D01*
X009508Y002845D01*
X009501Y002818D02*
X009508Y002818D01*
X009501Y002760D02*
X009508Y002760D01*
X009501Y002701D02*
X009508Y002701D01*
X009501Y002643D02*
X009508Y002643D01*
X009501Y002584D02*
X009512Y002584D01*
X009501Y002526D02*
X009571Y002526D01*
X009629Y002467D02*
X009501Y002467D01*
X009501Y002409D02*
X009622Y002409D01*
X009563Y002350D02*
X009501Y002350D01*
X009501Y002292D02*
X009508Y002292D01*
X009501Y002233D02*
X009508Y002233D01*
X009501Y002175D02*
X009508Y002175D01*
X009501Y002116D02*
X009508Y002116D01*
X009501Y002058D02*
X009508Y002058D01*
X009501Y001999D02*
X009506Y001999D01*
X009381Y001954D02*
X009381Y003892D01*
X008756Y004517D01*
X008636Y004339D02*
X008549Y004339D01*
X008578Y004398D02*
X008490Y004398D01*
X008546Y004456D02*
X008432Y004456D01*
X008546Y004515D02*
X005311Y004515D01*
X005252Y004573D02*
X008546Y004573D01*
X008574Y004632D02*
X005194Y004632D01*
X005135Y004690D02*
X008632Y004690D01*
X008879Y004690D02*
X009698Y004690D01*
X009698Y004632D02*
X008938Y004632D01*
X008966Y004573D02*
X009698Y004573D01*
X009698Y004515D02*
X008966Y004515D01*
X008986Y004456D02*
X009698Y004456D01*
X009698Y004398D02*
X009044Y004398D01*
X009103Y004339D02*
X009698Y004339D01*
X009698Y004281D02*
X009161Y004281D01*
X009220Y004222D02*
X009698Y004222D01*
X009698Y004164D02*
X009278Y004164D01*
X009337Y004105D02*
X009698Y004105D01*
X009698Y004047D02*
X009395Y004047D01*
X009454Y003988D02*
X009698Y003988D01*
X009698Y003930D02*
X009501Y003930D01*
X009501Y003871D02*
X009698Y003871D01*
X009698Y003813D02*
X009501Y003813D01*
X009501Y003754D02*
X009698Y003754D01*
X009698Y003696D02*
X009501Y003696D01*
X009501Y003637D02*
X009698Y003637D01*
X009698Y003579D02*
X009501Y003579D01*
X009501Y003520D02*
X009633Y003520D01*
X009575Y003462D02*
X009501Y003462D01*
X009501Y003403D02*
X009516Y003403D01*
X009508Y003345D02*
X009501Y003345D01*
X009501Y003286D02*
X009508Y003286D01*
X009501Y003228D02*
X009508Y003228D01*
X009501Y003169D02*
X009508Y003169D01*
X009501Y003111D02*
X009536Y003111D01*
X009501Y003052D02*
X009594Y003052D01*
X009653Y002994D02*
X009501Y002994D01*
X009818Y003267D02*
X009818Y004954D01*
X009287Y005485D01*
X009287Y006110D01*
X009006Y006392D01*
X006818Y006392D01*
X006443Y006767D01*
X006292Y006621D02*
X006029Y006621D01*
X005971Y006562D02*
X006351Y006562D01*
X006234Y006679D02*
X006088Y006679D01*
X006118Y006709D02*
X006188Y006779D01*
X006188Y007842D01*
X006368Y008022D01*
X008296Y008022D01*
X008296Y007930D01*
X008419Y007807D01*
X008593Y007807D01*
X008716Y007930D01*
X008716Y008104D01*
X008593Y008227D01*
X008465Y008227D01*
X008430Y008262D01*
X006313Y008262D01*
X006313Y008754D01*
X006153Y008914D01*
X006153Y009041D01*
X006030Y009164D01*
X005856Y009164D01*
X005733Y009041D01*
X005733Y008867D01*
X005856Y008744D01*
X005983Y008744D01*
X006073Y008654D01*
X006073Y008496D01*
X006030Y008539D01*
X005856Y008539D01*
X005733Y008416D01*
X005733Y008242D01*
X005804Y008172D01*
X005768Y008137D01*
X005698Y008066D01*
X005698Y007004D01*
X005688Y006994D01*
X005688Y009029D01*
X005868Y009209D01*
X007081Y009209D01*
X007698Y008592D01*
X007768Y008522D01*
X009016Y008522D01*
X009106Y008432D01*
X009280Y008432D01*
X009403Y008555D01*
X009403Y008729D01*
X009280Y008852D01*
X009106Y008852D01*
X009016Y008762D01*
X007868Y008762D01*
X007180Y009449D01*
X005768Y009449D01*
X005698Y009379D01*
X005518Y009199D01*
X005448Y009129D01*
X005448Y006941D01*
X005112Y006605D01*
X005042Y006535D01*
X005042Y005404D01*
X005112Y005334D01*
X005202Y005244D01*
X005202Y005117D01*
X005325Y004994D01*
X005421Y004994D01*
X005421Y004867D01*
X005544Y004744D01*
X005718Y004744D01*
X005841Y004867D01*
X005841Y005041D01*
X005751Y005131D01*
X005751Y005303D01*
X005837Y005303D01*
X005907Y005373D01*
X005930Y005397D01*
X008589Y005397D01*
X008546Y005354D01*
X008546Y005180D01*
X008669Y005057D01*
X008843Y005057D01*
X008966Y005180D01*
X008966Y005307D01*
X009024Y005365D01*
X009094Y005436D01*
X009094Y005723D01*
X008969Y005848D01*
X008899Y005918D01*
X008612Y005918D01*
X008456Y005762D01*
X005808Y005762D01*
X005771Y005798D01*
X005841Y005867D01*
X005841Y006041D01*
X005751Y006131D01*
X005751Y006342D01*
X006118Y006709D01*
X006146Y006738D02*
X006233Y006738D01*
X006233Y006796D02*
X006188Y006796D01*
X006188Y006855D02*
X006234Y006855D01*
X006188Y006913D02*
X006293Y006913D01*
X006351Y006972D02*
X006188Y006972D01*
X006188Y007030D02*
X006483Y007030D01*
X006531Y007089D02*
X006188Y007089D01*
X006188Y007147D02*
X006589Y007147D01*
X006775Y007206D02*
X006188Y007206D01*
X006188Y007264D02*
X006833Y007264D01*
X006892Y007323D02*
X006188Y007323D01*
X006188Y007381D02*
X006950Y007381D01*
X007009Y007440D02*
X006188Y007440D01*
X006188Y007498D02*
X008443Y007498D01*
X008501Y007557D02*
X006188Y007557D01*
X006188Y007615D02*
X008560Y007615D01*
X008618Y007674D02*
X006188Y007674D01*
X006188Y007732D02*
X008677Y007732D01*
X008735Y007791D02*
X006188Y007791D01*
X006195Y007849D02*
X008376Y007849D01*
X008318Y007908D02*
X006254Y007908D01*
X006312Y007966D02*
X008296Y007966D01*
X008381Y008142D02*
X008506Y008017D01*
X008381Y008142D02*
X006318Y008142D01*
X006068Y007892D01*
X006068Y006829D01*
X005631Y006392D01*
X005631Y005954D01*
X005775Y005802D02*
X008496Y005802D01*
X008554Y005860D02*
X005834Y005860D01*
X005841Y005919D02*
X009167Y005919D01*
X009167Y005977D02*
X005841Y005977D01*
X005841Y006036D02*
X009167Y006036D01*
X009133Y006094D02*
X005788Y006094D01*
X005751Y006153D02*
X009075Y006153D01*
X009016Y006211D02*
X005751Y006211D01*
X005751Y006270D02*
X008958Y006270D01*
X009180Y006387D02*
X009483Y006387D01*
X009483Y006328D02*
X009239Y006328D01*
X009297Y006270D02*
X009483Y006270D01*
X009483Y006211D02*
X009356Y006211D01*
X009407Y006153D02*
X009483Y006153D01*
X009483Y006094D02*
X009407Y006094D01*
X009407Y006036D02*
X009483Y006036D01*
X009483Y005977D02*
X009407Y005977D01*
X009407Y005919D02*
X009460Y005919D01*
X009443Y005860D02*
X009407Y005860D01*
X009407Y005802D02*
X009443Y005802D01*
X009458Y005743D02*
X009407Y005743D01*
X009407Y005685D02*
X009484Y005685D01*
X009543Y005626D02*
X009407Y005626D01*
X009407Y005568D02*
X010344Y005568D01*
X010344Y005626D02*
X009844Y005626D01*
X009902Y005685D02*
X010344Y005685D01*
X010344Y005743D02*
X009928Y005743D01*
X009943Y005802D02*
X010344Y005802D01*
X010344Y005860D02*
X009943Y005860D01*
X009927Y005919D02*
X010344Y005919D01*
X010344Y005977D02*
X009903Y005977D01*
X009903Y006036D02*
X010344Y006036D01*
X010344Y006094D02*
X009903Y006094D01*
X009903Y006153D02*
X010344Y006153D01*
X010344Y006211D02*
X009903Y006211D01*
X009903Y006270D02*
X010344Y006270D01*
X010344Y006328D02*
X009903Y006328D01*
X009903Y006387D02*
X010344Y006387D01*
X010344Y006445D02*
X009903Y006445D01*
X009903Y006504D02*
X010344Y006504D01*
X010344Y006562D02*
X009903Y006562D01*
X009886Y006621D02*
X010344Y006621D01*
X010344Y006679D02*
X009841Y006679D01*
X009841Y006738D02*
X010344Y006738D01*
X010344Y006796D02*
X009841Y006796D01*
X009841Y006855D02*
X010344Y006855D01*
X010344Y006913D02*
X009841Y006913D01*
X009841Y006972D02*
X010344Y006972D01*
X010344Y007030D02*
X009841Y007030D01*
X009841Y007089D02*
X010344Y007089D01*
X010344Y007147D02*
X009841Y007147D01*
X009841Y007206D02*
X010344Y007206D01*
X010344Y007264D02*
X009841Y007264D01*
X009841Y007323D02*
X010344Y007323D01*
X010344Y007381D02*
X010042Y007381D01*
X010101Y007440D02*
X010344Y007440D01*
X010344Y007498D02*
X010153Y007498D01*
X010153Y007557D02*
X010344Y007557D01*
X010344Y007615D02*
X010153Y007615D01*
X010146Y007674D02*
X010344Y007674D01*
X010344Y007732D02*
X010087Y007732D01*
X009841Y007791D02*
X010344Y007791D01*
X010344Y007849D02*
X009841Y007849D01*
X009881Y007908D02*
X010344Y007908D01*
X010344Y007966D02*
X009940Y007966D01*
X009998Y008025D02*
X010344Y008025D01*
X010344Y008083D02*
X010057Y008083D01*
X010115Y008142D02*
X010344Y008142D01*
X010344Y008200D02*
X010153Y008200D01*
X010153Y008259D02*
X010344Y008259D01*
X010344Y008317D02*
X010153Y008317D01*
X010153Y008376D02*
X010344Y008376D01*
X010344Y008434D02*
X010153Y008434D01*
X010153Y008493D02*
X010344Y008493D01*
X010344Y008551D02*
X010153Y008551D01*
X010153Y008610D02*
X010344Y008610D01*
X010344Y008668D02*
X010153Y008668D01*
X010153Y008727D02*
X010344Y008727D01*
X010344Y008785D02*
X010153Y008785D01*
X010153Y008844D02*
X010344Y008844D01*
X010344Y008902D02*
X010153Y008902D01*
X010153Y008961D02*
X010344Y008961D01*
X010344Y009019D02*
X010153Y009019D01*
X010153Y009078D02*
X010344Y009078D01*
X010344Y009136D02*
X010153Y009136D01*
X010125Y009195D02*
X010344Y009195D01*
X010344Y009253D02*
X010066Y009253D01*
X010030Y009289D02*
X010030Y009289D01*
X010008Y009312D02*
X010344Y009312D01*
X010344Y009370D02*
X009949Y009370D01*
X009891Y009429D02*
X010344Y009429D01*
X010344Y009487D02*
X009832Y009487D01*
X009774Y009546D02*
X010344Y009546D01*
X010344Y009604D02*
X009715Y009604D01*
X009657Y009663D02*
X010344Y009663D01*
X010344Y009721D02*
X009598Y009721D01*
X009591Y009729D02*
X009591Y009729D01*
X009540Y009780D02*
X010344Y009780D01*
X010344Y009838D02*
X009481Y009838D01*
X009403Y009897D02*
X010344Y009897D01*
X010344Y009955D02*
X009403Y009955D01*
X009368Y010014D02*
X010344Y010014D01*
X010339Y010072D02*
X009310Y010072D01*
X009077Y010072D02*
X008935Y010072D01*
X008993Y010014D02*
X009018Y010014D01*
X008841Y009572D02*
X008981Y009432D01*
X009294Y009432D01*
X009733Y008992D01*
X009733Y008354D01*
X009544Y008164D01*
X009421Y008041D01*
X009421Y006937D01*
X007070Y006937D01*
X007030Y006977D01*
X006903Y006977D01*
X006903Y006994D01*
X007118Y007209D01*
X008493Y007209D01*
X008563Y007279D01*
X009688Y008404D01*
X009688Y008879D01*
X009618Y008949D01*
X009430Y009137D01*
X009243Y009137D01*
X008841Y009539D01*
X008841Y009572D01*
X008841Y009546D02*
X008867Y009546D01*
X008892Y009487D02*
X008926Y009487D01*
X008951Y009429D02*
X009297Y009429D01*
X009355Y009370D02*
X009009Y009370D01*
X009068Y009312D02*
X009414Y009312D01*
X009472Y009253D02*
X009126Y009253D01*
X009185Y009195D02*
X009531Y009195D01*
X009589Y009136D02*
X009431Y009136D01*
X009489Y009078D02*
X009648Y009078D01*
X009706Y009019D02*
X009548Y009019D01*
X009606Y008961D02*
X009733Y008961D01*
X009733Y008902D02*
X009665Y008902D01*
X009688Y008844D02*
X009733Y008844D01*
X009733Y008785D02*
X009688Y008785D01*
X009688Y008727D02*
X009733Y008727D01*
X009733Y008668D02*
X009688Y008668D01*
X009688Y008610D02*
X009733Y008610D01*
X009733Y008551D02*
X009688Y008551D01*
X009688Y008493D02*
X009733Y008493D01*
X009733Y008434D02*
X009688Y008434D01*
X009659Y008376D02*
X009733Y008376D01*
X009697Y008317D02*
X009601Y008317D01*
X009638Y008259D02*
X009542Y008259D01*
X009580Y008200D02*
X009484Y008200D01*
X009521Y008142D02*
X009425Y008142D01*
X009463Y008083D02*
X009367Y008083D01*
X009421Y008025D02*
X009308Y008025D01*
X009250Y007966D02*
X009421Y007966D01*
X009421Y007908D02*
X009191Y007908D01*
X009133Y007849D02*
X009421Y007849D01*
X009421Y007791D02*
X009074Y007791D01*
X009016Y007732D02*
X009421Y007732D01*
X009421Y007674D02*
X008957Y007674D01*
X008899Y007615D02*
X009421Y007615D01*
X009421Y007557D02*
X008840Y007557D01*
X008782Y007498D02*
X009421Y007498D01*
X009421Y007440D02*
X008723Y007440D01*
X008665Y007381D02*
X009421Y007381D01*
X009421Y007323D02*
X008606Y007323D01*
X008548Y007264D02*
X009421Y007264D01*
X009421Y007206D02*
X007114Y007206D01*
X007056Y007147D02*
X009421Y007147D01*
X009421Y007089D02*
X006997Y007089D01*
X006939Y007030D02*
X009421Y007030D01*
X009421Y006972D02*
X007035Y006972D01*
X006733Y006738D02*
X006653Y006738D01*
X006700Y006679D02*
X006734Y006679D01*
X006759Y006621D02*
X006792Y006621D01*
X006817Y006562D02*
X006851Y006562D01*
X007036Y006562D02*
X009421Y006562D01*
X009421Y006504D02*
X009063Y006504D01*
X009122Y006445D02*
X009468Y006445D01*
X009167Y005860D02*
X008957Y005860D01*
X009015Y005802D02*
X009167Y005802D01*
X009167Y005743D02*
X009074Y005743D01*
X009094Y005685D02*
X009167Y005685D01*
X009167Y005626D02*
X009094Y005626D01*
X009094Y005568D02*
X009167Y005568D01*
X009167Y005509D02*
X009094Y005509D01*
X009094Y005451D02*
X009167Y005451D01*
X009210Y005392D02*
X009051Y005392D01*
X008992Y005334D02*
X009269Y005334D01*
X009327Y005275D02*
X008966Y005275D01*
X008966Y005217D02*
X009386Y005217D01*
X009444Y005158D02*
X008944Y005158D01*
X008886Y005100D02*
X009503Y005100D01*
X009561Y005041D02*
X005841Y005041D01*
X005841Y004983D02*
X009620Y004983D01*
X009678Y004924D02*
X005841Y004924D01*
X005839Y004866D02*
X009698Y004866D01*
X009698Y004807D02*
X005781Y004807D01*
X005722Y004749D02*
X009698Y004749D01*
X009938Y004749D02*
X010344Y004749D01*
X010344Y004807D02*
X009938Y004807D01*
X009938Y004866D02*
X010344Y004866D01*
X010344Y004924D02*
X009938Y004924D01*
X009938Y004983D02*
X010344Y004983D01*
X010344Y005041D02*
X009901Y005041D01*
X009842Y005100D02*
X010344Y005100D01*
X010344Y005158D02*
X009784Y005158D01*
X009725Y005217D02*
X010344Y005217D01*
X010344Y005275D02*
X009667Y005275D01*
X009608Y005334D02*
X010344Y005334D01*
X010344Y005392D02*
X009550Y005392D01*
X009491Y005451D02*
X010344Y005451D01*
X010344Y005509D02*
X009433Y005509D01*
X008974Y005485D02*
X008974Y005673D01*
X008849Y005798D01*
X008662Y005798D01*
X008506Y005642D01*
X005631Y005642D01*
X005412Y005860D01*
X005412Y006360D01*
X005943Y006892D01*
X005943Y007954D01*
X006193Y008204D01*
X006193Y008704D01*
X005943Y008954D01*
X005733Y008961D02*
X005688Y008961D01*
X005688Y009019D02*
X005733Y009019D01*
X005736Y009078D02*
X005770Y009078D01*
X005795Y009136D02*
X005828Y009136D01*
X005853Y009195D02*
X007095Y009195D01*
X007154Y009136D02*
X006058Y009136D01*
X006117Y009078D02*
X007212Y009078D01*
X007271Y009019D02*
X006153Y009019D01*
X006153Y008961D02*
X007329Y008961D01*
X007388Y008902D02*
X006165Y008902D01*
X006223Y008844D02*
X007446Y008844D01*
X007505Y008785D02*
X006282Y008785D01*
X006313Y008727D02*
X007563Y008727D01*
X007622Y008668D02*
X006313Y008668D01*
X006313Y008610D02*
X007680Y008610D01*
X007739Y008551D02*
X006313Y008551D01*
X006313Y008493D02*
X009045Y008493D01*
X009104Y008434D02*
X006313Y008434D01*
X006313Y008376D02*
X009320Y008376D01*
X009283Y008434D02*
X009379Y008434D01*
X009341Y008493D02*
X009437Y008493D01*
X009448Y008551D02*
X009400Y008551D01*
X009403Y008610D02*
X009448Y008610D01*
X009448Y008668D02*
X009403Y008668D01*
X009403Y008727D02*
X009448Y008727D01*
X009442Y008785D02*
X009347Y008785D01*
X009384Y008844D02*
X009288Y008844D01*
X009138Y008902D02*
X007727Y008902D01*
X007669Y008961D02*
X009079Y008961D01*
X009021Y009019D02*
X007610Y009019D01*
X007552Y009078D02*
X008962Y009078D01*
X008904Y009136D02*
X007493Y009136D01*
X007435Y009195D02*
X008845Y009195D01*
X008787Y009253D02*
X007376Y009253D01*
X007318Y009312D02*
X008728Y009312D01*
X008543Y009370D02*
X007259Y009370D01*
X007201Y009429D02*
X008484Y009429D01*
X008426Y009487D02*
X005648Y009487D01*
X005590Y009429D02*
X005748Y009429D01*
X005690Y009370D02*
X005531Y009370D01*
X005473Y009312D02*
X005631Y009312D01*
X005573Y009253D02*
X005414Y009253D01*
X005403Y009195D02*
X005514Y009195D01*
X005456Y009136D02*
X005403Y009136D01*
X005403Y009078D02*
X005448Y009078D01*
X005448Y009019D02*
X005403Y009019D01*
X005403Y008961D02*
X005448Y008961D01*
X005448Y008902D02*
X005403Y008902D01*
X005403Y008844D02*
X005448Y008844D01*
X005448Y008785D02*
X005403Y008785D01*
X005403Y008727D02*
X005448Y008727D01*
X005448Y008668D02*
X005403Y008668D01*
X005403Y008610D02*
X005448Y008610D01*
X005448Y008551D02*
X005403Y008551D01*
X005403Y008493D02*
X005448Y008493D01*
X005448Y008434D02*
X005403Y008434D01*
X005403Y008376D02*
X005448Y008376D01*
X005448Y008317D02*
X005403Y008317D01*
X005403Y008259D02*
X005448Y008259D01*
X005448Y008200D02*
X005403Y008200D01*
X005403Y008142D02*
X005448Y008142D01*
X005448Y008083D02*
X005403Y008083D01*
X005403Y008025D02*
X005448Y008025D01*
X005448Y007966D02*
X005403Y007966D01*
X005403Y007908D02*
X005448Y007908D01*
X005448Y007849D02*
X005403Y007849D01*
X005403Y007791D02*
X005448Y007791D01*
X005448Y007732D02*
X005403Y007732D01*
X005403Y007674D02*
X005448Y007674D01*
X005448Y007615D02*
X005403Y007615D01*
X005403Y007557D02*
X005448Y007557D01*
X005448Y007498D02*
X005403Y007498D01*
X005403Y007440D02*
X005448Y007440D01*
X005448Y007381D02*
X005403Y007381D01*
X005403Y007323D02*
X005448Y007323D01*
X005448Y007264D02*
X005403Y007264D01*
X005405Y007206D02*
X005448Y007206D01*
X005448Y007147D02*
X005403Y007147D01*
X005397Y007089D02*
X005448Y007089D01*
X005448Y007030D02*
X005339Y007030D01*
X005271Y006972D02*
X005448Y006972D01*
X005420Y006913D02*
X005204Y006913D01*
X005146Y006855D02*
X005361Y006855D01*
X005303Y006796D02*
X005147Y006796D01*
X005146Y006738D02*
X005244Y006738D01*
X005186Y006679D02*
X005124Y006679D01*
X005127Y006621D02*
X005058Y006621D01*
X005069Y006562D02*
X004999Y006562D01*
X005042Y006504D02*
X004941Y006504D01*
X004882Y006445D02*
X005042Y006445D01*
X005042Y006387D02*
X004824Y006387D01*
X004765Y006328D02*
X005042Y006328D01*
X005042Y006270D02*
X004707Y006270D01*
X004676Y006211D02*
X005042Y006211D01*
X005042Y006153D02*
X004676Y006153D01*
X004676Y006094D02*
X005042Y006094D01*
X005042Y006036D02*
X004676Y006036D01*
X004676Y005977D02*
X005042Y005977D01*
X005042Y005919D02*
X004676Y005919D01*
X004676Y005860D02*
X005042Y005860D01*
X005042Y005802D02*
X004676Y005802D01*
X004676Y005743D02*
X005042Y005743D01*
X005042Y005685D02*
X004676Y005685D01*
X004676Y005626D02*
X005042Y005626D01*
X005042Y005568D02*
X004676Y005568D01*
X004676Y005509D02*
X005042Y005509D01*
X005042Y005451D02*
X004676Y005451D01*
X004676Y005392D02*
X005054Y005392D01*
X005113Y005334D02*
X004676Y005334D01*
X004676Y005275D02*
X005171Y005275D01*
X005202Y005217D02*
X004676Y005217D01*
X004676Y005158D02*
X005202Y005158D01*
X005219Y005100D02*
X004726Y005100D01*
X004784Y005041D02*
X005278Y005041D01*
X005421Y004983D02*
X004843Y004983D01*
X004901Y004924D02*
X005421Y004924D01*
X005422Y004866D02*
X004960Y004866D01*
X005018Y004807D02*
X005481Y004807D01*
X005539Y004749D02*
X005077Y004749D01*
X005412Y005204D02*
X005162Y005454D01*
X005162Y006485D01*
X005568Y006892D01*
X005568Y009079D01*
X005818Y009329D01*
X007131Y009329D01*
X007818Y008642D01*
X009193Y008642D01*
X009040Y008785D02*
X007844Y008785D01*
X007786Y008844D02*
X009098Y008844D01*
X009193Y009017D02*
X009381Y009017D01*
X009568Y008829D01*
X009568Y008454D01*
X008443Y007329D01*
X007068Y007329D01*
X006693Y006954D01*
X006536Y006504D02*
X005912Y006504D01*
X005854Y006445D02*
X006595Y006445D01*
X006653Y006387D02*
X005795Y006387D01*
X005751Y006328D02*
X006712Y006328D01*
X005881Y005517D02*
X005787Y005423D01*
X005631Y005423D01*
X005631Y004954D01*
X005782Y005100D02*
X008626Y005100D01*
X008567Y005158D02*
X005751Y005158D01*
X005751Y005217D02*
X008546Y005217D01*
X008546Y005275D02*
X005751Y005275D01*
X005867Y005334D02*
X008546Y005334D01*
X008584Y005392D02*
X005926Y005392D01*
X005881Y005517D02*
X008693Y005517D01*
X008756Y005579D01*
X008974Y005485D02*
X008756Y005267D01*
X008822Y004281D02*
X008607Y004281D01*
X008666Y004222D02*
X008880Y004222D01*
X008939Y004164D02*
X008724Y004164D01*
X008783Y004105D02*
X008997Y004105D01*
X009056Y004047D02*
X008841Y004047D01*
X008900Y003988D02*
X009114Y003988D01*
X009173Y003930D02*
X008958Y003930D01*
X009017Y003871D02*
X009231Y003871D01*
X009261Y003813D02*
X009075Y003813D01*
X009134Y003754D02*
X009261Y003754D01*
X009261Y003696D02*
X009192Y003696D01*
X009238Y003637D02*
X009261Y003637D01*
X009261Y003579D02*
X009238Y003579D01*
X009253Y003520D02*
X009261Y003520D01*
X008885Y003522D02*
X008758Y003395D01*
X008758Y003138D01*
X008905Y002992D01*
X008758Y002845D01*
X008758Y002588D01*
X008905Y002442D01*
X008758Y002295D01*
X008758Y002197D01*
X009038Y002197D01*
X009038Y002137D01*
X008758Y002137D01*
X008758Y002038D01*
X008905Y001892D01*
X008758Y001745D01*
X008758Y001559D01*
X008376Y001941D01*
X008376Y002816D01*
X007653Y003539D01*
X007653Y003666D01*
X007530Y003789D01*
X007356Y003789D01*
X007287Y003720D01*
X007218Y003789D01*
X007044Y003789D01*
X007001Y003746D01*
X007001Y003754D01*
X006876Y003879D01*
X006805Y003949D01*
X006456Y003949D01*
X006296Y003789D01*
X006231Y003789D01*
X006319Y003813D02*
X006099Y003813D01*
X006093Y003807D02*
X006216Y003930D01*
X006216Y004104D01*
X006160Y004159D01*
X008248Y004159D01*
X008885Y003522D01*
X008883Y003520D02*
X007672Y003520D01*
X007653Y003579D02*
X008828Y003579D01*
X008770Y003637D02*
X007653Y003637D01*
X007624Y003696D02*
X008711Y003696D01*
X008653Y003754D02*
X007565Y003754D01*
X007443Y003579D02*
X008256Y002767D01*
X008256Y001892D01*
X008881Y001267D01*
X009256Y001267D01*
X009443Y001454D01*
X009443Y001767D01*
X009781Y002104D01*
X009818Y002167D01*
X010282Y002175D02*
X010344Y002175D01*
X010344Y002233D02*
X010282Y002233D01*
X010282Y002292D02*
X010344Y002292D01*
X010344Y002350D02*
X010282Y002350D01*
X010282Y002409D02*
X010344Y002409D01*
X010344Y002467D02*
X010225Y002467D01*
X010166Y002526D02*
X010344Y002526D01*
X010344Y002584D02*
X010124Y002584D01*
X010128Y002643D02*
X010344Y002643D01*
X010344Y002701D02*
X010128Y002701D01*
X010128Y002760D02*
X010344Y002760D01*
X010344Y002818D02*
X010128Y002818D01*
X010097Y002877D02*
X010344Y002877D01*
X010344Y002935D02*
X010038Y002935D01*
X009984Y002994D02*
X010344Y002994D01*
X010344Y003052D02*
X010042Y003052D01*
X010101Y003111D02*
X010344Y003111D01*
X010344Y003169D02*
X010128Y003169D01*
X010128Y003228D02*
X010344Y003228D01*
X010344Y003286D02*
X010128Y003286D01*
X010128Y003345D02*
X010344Y003345D01*
X010344Y003403D02*
X010120Y003403D01*
X010062Y003462D02*
X010344Y003462D01*
X010344Y003520D02*
X010003Y003520D01*
X009938Y003579D02*
X010344Y003579D01*
X010344Y003637D02*
X009938Y003637D01*
X009938Y003696D02*
X010344Y003696D01*
X010344Y003754D02*
X009938Y003754D01*
X009938Y003813D02*
X010344Y003813D01*
X010344Y003871D02*
X009938Y003871D01*
X009938Y003930D02*
X010344Y003930D01*
X010344Y003988D02*
X009938Y003988D01*
X009938Y004047D02*
X010344Y004047D01*
X010344Y004105D02*
X009938Y004105D01*
X009938Y004164D02*
X010344Y004164D01*
X010344Y004222D02*
X009938Y004222D01*
X009938Y004281D02*
X010344Y004281D01*
X010344Y004339D02*
X009938Y004339D01*
X009938Y004398D02*
X010344Y004398D01*
X010344Y004456D02*
X009938Y004456D01*
X009938Y004515D02*
X010344Y004515D01*
X010344Y004573D02*
X009938Y004573D01*
X009938Y004632D02*
X010344Y004632D01*
X010344Y004690D02*
X009938Y004690D01*
X008594Y003813D02*
X006942Y003813D01*
X006883Y003871D02*
X008536Y003871D01*
X008477Y003930D02*
X006825Y003930D01*
X007000Y003754D02*
X007009Y003754D01*
X007131Y003579D02*
X008131Y002579D01*
X008131Y001829D01*
X008818Y001142D01*
X009318Y001142D01*
X009693Y001517D01*
X009781Y001517D01*
X009818Y001617D01*
X010175Y001297D02*
X010344Y001297D01*
X010344Y001239D02*
X010116Y001239D01*
X010058Y001180D02*
X010339Y001180D01*
X010318Y001122D02*
X009655Y001122D01*
X009597Y001063D02*
X010286Y001063D01*
X010228Y001005D02*
X009538Y001005D01*
X009068Y001617D02*
X009068Y001642D01*
X009381Y001954D01*
X009038Y002175D02*
X008376Y002175D01*
X008376Y002233D02*
X008758Y002233D01*
X008758Y002292D02*
X008376Y002292D01*
X008376Y002350D02*
X008813Y002350D01*
X008872Y002409D02*
X008376Y002409D01*
X008376Y002467D02*
X008879Y002467D01*
X008821Y002526D02*
X008376Y002526D01*
X008376Y002584D02*
X008762Y002584D01*
X008758Y002643D02*
X008376Y002643D01*
X008376Y002701D02*
X008758Y002701D01*
X008758Y002760D02*
X008376Y002760D01*
X008374Y002818D02*
X008758Y002818D01*
X008790Y002877D02*
X008315Y002877D01*
X008257Y002935D02*
X008848Y002935D01*
X008903Y002994D02*
X008198Y002994D01*
X008140Y003052D02*
X008844Y003052D01*
X008786Y003111D02*
X008081Y003111D01*
X008023Y003169D02*
X008758Y003169D01*
X008758Y003228D02*
X007964Y003228D01*
X007906Y003286D02*
X008758Y003286D01*
X008758Y003345D02*
X007847Y003345D01*
X007789Y003403D02*
X008766Y003403D01*
X008825Y003462D02*
X007730Y003462D01*
X007321Y003754D02*
X007253Y003754D01*
X006761Y003403D02*
X006752Y003403D01*
X006751Y003345D02*
X006761Y003345D01*
X006751Y003286D02*
X006816Y003286D01*
X006875Y003228D02*
X006751Y003228D01*
X006751Y003169D02*
X006933Y003169D01*
X006992Y003111D02*
X006751Y003111D01*
X006751Y003052D02*
X007238Y003052D01*
X007296Y002994D02*
X006761Y002994D01*
X006819Y002935D02*
X007355Y002935D01*
X007413Y002877D02*
X006878Y002877D01*
X006936Y002818D02*
X007472Y002818D01*
X007530Y002760D02*
X006995Y002760D01*
X007053Y002701D02*
X007589Y002701D01*
X007647Y002643D02*
X007112Y002643D01*
X007170Y002584D02*
X007706Y002584D01*
X007764Y002526D02*
X007356Y002526D01*
X007415Y002467D02*
X007823Y002467D01*
X007881Y002409D02*
X007466Y002409D01*
X007466Y002350D02*
X007886Y002350D01*
X007886Y002292D02*
X007466Y002292D01*
X007457Y002233D02*
X007886Y002233D01*
X007886Y002175D02*
X007398Y002175D01*
X007256Y002329D02*
X006631Y002954D01*
X006631Y003579D01*
X006510Y003403D02*
X006439Y003403D01*
X006511Y003345D02*
X004296Y003345D01*
X004272Y003228D02*
X004632Y003228D01*
X004713Y003140D02*
X004713Y002966D01*
X004713Y003053D02*
X004453Y003053D01*
X004400Y003169D02*
X004330Y003169D01*
X004310Y003190D02*
X004310Y003190D01*
X004233Y003096D02*
X004190Y003140D01*
X004017Y002966D01*
X003973Y003010D01*
X003973Y003096D01*
X004017Y003140D01*
X004190Y003140D01*
X004233Y003096D02*
X004233Y003010D01*
X004190Y002966D01*
X004017Y002966D01*
X004244Y002760D02*
X004365Y002760D01*
X004333Y002701D02*
X004263Y002701D01*
X004266Y002643D02*
X004333Y002643D01*
X004371Y002584D02*
X004237Y002584D01*
X004280Y002409D02*
X007006Y002409D01*
X007046Y002350D02*
X004406Y002350D01*
X004477Y002307D02*
X004558Y002241D01*
X004560Y002241D01*
X004568Y002233D01*
X004620Y002175D02*
X007113Y002175D01*
X006948Y002467D02*
X003323Y002467D01*
X003323Y002526D02*
X006889Y002526D01*
X006831Y002584D02*
X004799Y002584D01*
X004838Y002643D02*
X006772Y002643D01*
X006714Y002701D02*
X004833Y002701D01*
X004713Y002672D02*
X004453Y002845D01*
X004453Y002672D02*
X004713Y002672D01*
X004668Y002116D02*
X007886Y002116D01*
X007886Y002058D02*
X004705Y002058D01*
X004737Y001999D02*
X007886Y001999D01*
X007886Y001941D02*
X004763Y001941D01*
X004784Y001882D02*
X007886Y001882D01*
X007886Y001824D02*
X004800Y001824D01*
X004812Y001765D02*
X007886Y001765D01*
X007896Y001707D02*
X004818Y001707D01*
X004824Y001648D02*
X007954Y001648D01*
X008013Y001590D02*
X004823Y001590D01*
X004823Y001531D02*
X008071Y001531D01*
X008130Y001473D02*
X004823Y001473D01*
X004823Y001414D02*
X008188Y001414D01*
X008247Y001356D02*
X004823Y001356D01*
X004823Y001297D02*
X008305Y001297D01*
X008364Y001239D02*
X004823Y001239D01*
X004823Y001180D02*
X008422Y001180D01*
X008481Y001122D02*
X004823Y001122D01*
X004823Y001063D02*
X008539Y001063D01*
X008598Y001005D02*
X004823Y001005D01*
X004352Y003696D02*
X006138Y003696D01*
X006093Y003807D02*
X005919Y003807D01*
X005796Y003930D01*
X005796Y003988D02*
X004248Y003988D01*
X005537Y005423D02*
X005631Y005423D01*
X005537Y005423D02*
X005287Y005673D01*
X005287Y006423D01*
X005818Y006954D01*
X005818Y008017D01*
X005943Y008142D01*
X005943Y008329D01*
X005733Y008317D02*
X005688Y008317D01*
X005688Y008259D02*
X005733Y008259D01*
X005775Y008200D02*
X005688Y008200D01*
X005688Y008142D02*
X005774Y008142D01*
X005715Y008083D02*
X005688Y008083D01*
X005688Y008025D02*
X005698Y008025D01*
X005688Y007966D02*
X005698Y007966D01*
X005688Y007908D02*
X005698Y007908D01*
X005688Y007849D02*
X005698Y007849D01*
X005688Y007791D02*
X005698Y007791D01*
X005688Y007732D02*
X005698Y007732D01*
X005688Y007674D02*
X005698Y007674D01*
X005688Y007615D02*
X005698Y007615D01*
X005688Y007557D02*
X005698Y007557D01*
X005688Y007498D02*
X005698Y007498D01*
X005688Y007440D02*
X005698Y007440D01*
X005688Y007381D02*
X005698Y007381D01*
X005688Y007323D02*
X005698Y007323D01*
X005688Y007264D02*
X005698Y007264D01*
X005688Y007206D02*
X005698Y007206D01*
X005688Y007147D02*
X005698Y007147D01*
X005688Y007089D02*
X005698Y007089D01*
X005688Y007030D02*
X005698Y007030D01*
X005688Y008376D02*
X005733Y008376D01*
X005751Y008434D02*
X005688Y008434D01*
X005688Y008493D02*
X005810Y008493D01*
X005688Y008551D02*
X006073Y008551D01*
X006073Y008610D02*
X005688Y008610D01*
X005688Y008668D02*
X006059Y008668D01*
X006001Y008727D02*
X005688Y008727D01*
X005688Y008785D02*
X005815Y008785D01*
X005757Y008844D02*
X005688Y008844D01*
X005688Y008902D02*
X005733Y008902D01*
X006313Y008317D02*
X009262Y008317D01*
X009203Y008259D02*
X008433Y008259D01*
X008619Y008200D02*
X009145Y008200D01*
X009086Y008142D02*
X008678Y008142D01*
X008716Y008083D02*
X009028Y008083D01*
X008969Y008025D02*
X008716Y008025D01*
X008716Y007966D02*
X008911Y007966D01*
X008852Y007908D02*
X008694Y007908D01*
X008635Y007849D02*
X008794Y007849D01*
X009841Y007381D02*
X009844Y007381D01*
X009193Y009017D02*
X008631Y009579D01*
X008421Y009604D02*
X007359Y009604D01*
X007300Y009546D02*
X008421Y009546D01*
X008421Y009663D02*
X007417Y009663D01*
X007116Y009955D02*
X004830Y009955D01*
X004830Y009897D02*
X005464Y009897D01*
X005405Y009838D02*
X004830Y009838D01*
X004830Y009780D02*
X005347Y009780D01*
X005288Y009721D02*
X004830Y009721D01*
X004830Y009663D02*
X005230Y009663D01*
X005171Y009604D02*
X004829Y009604D01*
X004825Y009546D02*
X005113Y009546D01*
X005054Y009487D02*
X004819Y009487D01*
X004807Y009429D02*
X004996Y009429D01*
X004983Y009370D02*
X004794Y009370D01*
X004770Y009312D02*
X004983Y009312D01*
X004983Y009253D02*
X004747Y009253D01*
X004712Y009195D02*
X004983Y009195D01*
X004983Y009136D02*
X004676Y009136D01*
X004628Y009078D02*
X004983Y009078D01*
X004983Y009019D02*
X004572Y009019D01*
X004507Y008961D02*
X004840Y008961D01*
X004782Y008902D02*
X004416Y008902D01*
X004293Y008844D02*
X004733Y008844D01*
X004830Y010014D02*
X007174Y010014D01*
X007233Y010072D02*
X004830Y010072D01*
X004830Y010131D02*
X010315Y010131D01*
X010279Y010189D02*
X004830Y010189D01*
X004830Y010248D02*
X010211Y010248D01*
X008302Y004105D02*
X006214Y004105D01*
X006216Y004047D02*
X008360Y004047D01*
X008419Y003988D02*
X006216Y003988D01*
X006216Y003930D02*
X006436Y003930D01*
X006378Y003871D02*
X006157Y003871D01*
X008376Y002116D02*
X008758Y002116D01*
X008758Y002058D02*
X008376Y002058D01*
X008376Y001999D02*
X008797Y001999D01*
X008856Y001941D02*
X008376Y001941D01*
X008435Y001882D02*
X008895Y001882D01*
X008837Y001824D02*
X008493Y001824D01*
X008552Y001765D02*
X008778Y001765D01*
X008758Y001707D02*
X008610Y001707D01*
X008669Y001648D02*
X008758Y001648D01*
X008758Y001590D02*
X008727Y001590D01*
X010233Y001356D02*
X010344Y001356D01*
X010344Y001414D02*
X010282Y001414D01*
X010282Y001473D02*
X010344Y001473D01*
X010344Y001531D02*
X010282Y001531D01*
X010282Y001590D02*
X010344Y001590D01*
X010344Y001648D02*
X010282Y001648D01*
X010282Y001707D02*
X010344Y001707D01*
X010344Y001765D02*
X010282Y001765D01*
X010282Y001824D02*
X010344Y001824D01*
X010344Y001882D02*
X010282Y001882D01*
X010282Y001941D02*
X010344Y001941D01*
X010344Y001999D02*
X010282Y001999D01*
X010282Y002058D02*
X010344Y002058D01*
X010344Y002116D02*
X010282Y002116D01*
D12*
X009818Y002167D03*
X009818Y002717D03*
X009818Y003267D03*
X009068Y003267D03*
X009068Y002717D03*
X009068Y002167D03*
X009068Y001617D03*
X009818Y001617D03*
D13*
X008568Y002329D03*
X008568Y002704D03*
X008568Y003579D03*
X008756Y004517D03*
X008756Y004892D03*
X008756Y005267D03*
X008756Y005579D03*
X008756Y006142D03*
X009256Y007079D03*
X009256Y007579D03*
X009943Y007579D03*
X010193Y007079D03*
X010193Y005829D03*
X010193Y005142D03*
X007631Y005204D03*
X007631Y004829D03*
X007193Y004829D03*
X007193Y005204D03*
X006756Y005204D03*
X006756Y004829D03*
X006006Y004017D03*
X006318Y003579D03*
X006631Y003579D03*
X007131Y003579D03*
X007443Y003579D03*
X007256Y002329D03*
X007631Y002329D03*
X006006Y002329D03*
X005693Y002329D03*
X005693Y003079D03*
X006006Y003079D03*
X005693Y003579D03*
X005631Y004642D03*
X005631Y004954D03*
X005412Y005204D03*
X005631Y005642D03*
X005631Y005954D03*
X006006Y006392D03*
X006443Y006767D03*
X006693Y006954D03*
X006943Y006767D03*
X006818Y007829D03*
X007318Y007829D03*
X007131Y008642D03*
X007881Y009392D03*
X008631Y009579D03*
X009193Y009892D03*
X010193Y009579D03*
X009193Y008642D03*
X008506Y008017D03*
X006381Y010142D03*
X005943Y008954D03*
X005943Y008329D03*
X004943Y008767D03*
X004193Y008079D03*
X004193Y006767D03*
X004474Y006392D03*
X004881Y005954D03*
X004881Y005204D03*
X004224Y005079D03*
X004568Y004017D03*
X004568Y003517D03*
D14*
X005256Y004329D02*
X006006Y004329D01*
X008318Y004329D01*
X009068Y003579D01*
X009068Y003267D01*
X009631Y006767D02*
X006943Y006767D01*
X005193Y008767D02*
X004943Y008767D01*
X004506Y006557D02*
X004506Y005079D01*
X005256Y004329D01*
X009631Y007579D02*
X009943Y007579D01*
X009193Y009642D02*
X009193Y009892D01*
D15*
X004721Y006773D02*
X004506Y006557D01*
D16*
X004721Y006773D03*
X009693Y005829D03*
D17*
X009693Y006517D01*
X009631Y006579D01*
X009631Y006767D01*
X009631Y007579D01*
X009631Y007954D01*
X009943Y008267D01*
X009943Y009079D01*
X009381Y009642D01*
X009193Y009642D01*
X009068Y009642D01*
X008818Y009892D01*
X007349Y009892D01*
X007162Y009704D01*
X005568Y009704D01*
X005193Y009329D01*
X005193Y008767D01*
X005193Y007182D01*
X004721Y006773D01*
X004809Y006798D02*
X004912Y006798D01*
D18*
X006006Y004329D02*
X006006Y004017D01*
D19*
X004506Y006267D02*
X004443Y006267D01*
X004318Y006392D01*
X004318Y006548D01*
X004756Y006985D01*
X005006Y006985D01*
X005006Y006767D01*
X004912Y006798D01*
X005006Y006767D02*
X004506Y006267D01*
X004443Y006298D02*
X004443Y006454D01*
X004474Y006485D01*
X004381Y006517D02*
X004724Y006860D01*
X004756Y006798D01*
X004784Y006770D01*
X004721Y006773D01*
X004809Y006798D01*
X004784Y006770D02*
X004849Y006704D01*
X004443Y006298D01*
X004349Y006454D02*
X004381Y006517D01*
M02*
