%
M48
M72
T01C0.0120
T02C0.0157
T03C0.0240
T04C0.0866
%
T01
X4568Y3517
X4568Y4017
X4224Y5079
X4881Y5204
X5412Y5204
X5631Y4954
X5631Y4642
X6006Y4017
X6318Y3579
X6631Y3579
X7131Y3579
X7443Y3579
X8568Y3579
X8568Y2704
X8568Y2329
X7631Y2329
X7256Y2329
X6006Y2329
X5693Y2329
X5693Y3079
X6006Y3079
X5693Y3579
X6756Y4829
X6756Y5204
X7193Y5204
X7193Y4829
X7631Y4829
X7631Y5204
X8756Y5267
X8756Y5579
X8756Y6142
X9256Y7079
X9256Y7579
X9943Y7579
X10193Y7079
X10193Y5829
X10193Y5142
X8756Y4892
X8756Y4517
X6943Y6767
X6693Y6954
X6443Y6767
X6006Y6392
X5631Y5954
X5631Y5642
X4881Y5954
X4474Y6392
X4193Y6767
X4193Y8079
X4943Y8767
X5943Y8954
X5943Y8329
X6818Y7829
X7318Y7829
X7131Y8642
X7881Y9392
X8631Y9579
X9193Y9892
X10193Y9579
X9193Y8642
X8506Y8017
X6381Y10142
T02
X4721Y6773
X9693Y5829
T03
X9818Y3267
X9818Y2717
X9818Y2167
X9818Y1617
X9068Y1617
X9068Y2167
X9068Y2717
X9068Y3267
T04
X3981Y1685
X3981Y9559
M30
