%
M48
M72
T01C0.0120
T02C0.0157
T03C0.0240
T04C0.0866
%
T01
X5693Y6650
X6006Y6650
X6006Y7400
X5693Y7400
X5693Y7900
X6006Y8338
X6318Y7900
X6631Y7900
X7131Y7900
X7443Y7900
X8568Y7900
X8568Y7025
X8568Y6650
X7631Y6650
X7256Y6650
X8756Y8838
X8756Y9213
X8756Y9588
X8756Y9900
X8756Y10463
X9256Y11400
X9256Y11900
X9943Y11900
X10193Y11400
X10193Y10150
X10193Y9463
X7631Y9525
X7631Y9150
X7193Y9150
X7193Y9525
X6756Y9525
X6756Y9150
X5631Y9150
X5631Y9463
X5349Y9588
X4881Y9588
X4193Y9494
X4881Y10275
X4474Y10713
X4193Y11088
X5631Y10275
X5631Y9963
X6006Y10713
X6443Y11088
X6693Y11275
X6943Y11088
X6818Y12150
X7318Y12150
X7131Y12963
X7881Y13713
X8631Y13900
X9193Y14213
X10193Y13900
X9193Y12963
X8506Y12338
X6381Y14463
X5943Y13275
X5943Y12650
X4943Y13088
X4193Y12400
X4568Y8338
X4568Y7838
X13443Y9494
X14131Y9588
X14599Y9588
X14881Y9463
X14881Y9150
X14881Y9963
X14881Y10275
X15256Y10713
X15693Y11088
X15943Y11275
X16193Y11088
X16068Y12150
X16568Y12150
X16381Y12963
X17131Y13713
X17881Y13900
X18443Y14213
X19443Y13900
X18443Y12963
X17756Y12338
X18506Y11900
X18506Y11400
X19193Y11900
X19443Y11400
X18006Y10463
X18006Y9900
X18006Y9588
X18006Y9213
X18006Y8838
X17818Y7900
X17818Y7025
X17818Y6650
X16881Y6650
X16506Y6650
X15256Y6650
X14943Y6650
X14943Y7400
X15256Y7400
X15568Y7900
X15881Y7900
X16381Y7900
X16693Y7900
X16881Y9150
X16881Y9525
X16443Y9525
X16443Y9150
X16006Y9150
X16006Y9525
X15256Y8338
X14943Y7900
X13818Y7838
X13818Y8338
X14131Y10275
X13724Y10713
X13443Y11088
X13443Y12400
X14193Y13088
X15193Y13275
X15193Y12650
X15631Y14463
X19443Y10150
X19443Y9463
T02
X18943Y10150
X14034Y11093
X9693Y10150
X4784Y11093
T03
X9068Y7588
X9068Y7038
X9068Y6488
X9068Y5938
X9818Y5938
X9818Y6488
X9818Y7038
X9818Y7588
X18318Y7588
X18318Y7038
X18318Y6488
X18318Y5938
X19068Y5938
X19068Y6488
X19068Y7038
X19068Y7588
T04
X3981Y6006
X3981Y13880
X13231Y13880
X13231Y6006
M30
