G75*
%MOIN*%
%OFA0B0*%
%FSLAX24Y24*%
%IPPOS*%
%LPD*%
%AMOC8*
5,1,8,0,0,1.08239X$1,22.5*
%
%ADD10C,0.0000*%
%ADD11C,0.0906*%
%ADD12OC8,0.0480*%
D10*
X003587Y005150D02*
X010080Y005150D01*
X010119Y005153D01*
X010158Y005159D01*
X010196Y005169D01*
X010233Y005183D01*
X010268Y005200D01*
X010301Y005221D01*
X010332Y005245D01*
X010361Y005271D01*
X010387Y005301D01*
X010410Y005333D01*
X010430Y005367D01*
X010446Y005402D01*
X010458Y005440D01*
X010467Y005478D01*
X010473Y005517D01*
X010474Y005556D01*
X010474Y008150D01*
X010476Y008194D01*
X010482Y008237D01*
X010491Y008279D01*
X010504Y008321D01*
X010521Y008361D01*
X010541Y008400D01*
X010564Y008437D01*
X010591Y008471D01*
X010620Y008504D01*
X010653Y008533D01*
X010687Y008560D01*
X010724Y008583D01*
X010763Y008603D01*
X010803Y008620D01*
X010845Y008633D01*
X010887Y008642D01*
X010930Y008648D01*
X010974Y008650D01*
X011912Y008650D01*
X011956Y008648D01*
X011999Y008642D01*
X012041Y008633D01*
X012083Y008620D01*
X012123Y008603D01*
X012162Y008583D01*
X012199Y008560D01*
X012233Y008533D01*
X012266Y008504D01*
X012295Y008471D01*
X012322Y008437D01*
X012345Y008400D01*
X012365Y008361D01*
X012382Y008321D01*
X012395Y008279D01*
X012404Y008237D01*
X012410Y008194D01*
X012412Y008150D01*
X012412Y005556D01*
X012414Y005517D01*
X012419Y005479D01*
X012428Y005441D01*
X012441Y005404D01*
X012458Y005369D01*
X012478Y005335D01*
X012501Y005304D01*
X012527Y005275D01*
X012555Y005249D01*
X012586Y005225D01*
X012620Y005205D01*
X012655Y005188D01*
X012692Y005175D01*
X012729Y005165D01*
X012768Y005159D01*
X012807Y005157D01*
X012806Y005157D02*
X019299Y005157D01*
X019338Y005159D01*
X019376Y005165D01*
X019413Y005174D01*
X019450Y005187D01*
X019485Y005204D01*
X019518Y005223D01*
X019549Y005246D01*
X019578Y005272D01*
X019604Y005301D01*
X019627Y005332D01*
X019646Y005365D01*
X019663Y005400D01*
X019676Y005437D01*
X019685Y005474D01*
X019691Y005512D01*
X019693Y005551D01*
X019693Y014350D01*
X019691Y014389D01*
X019685Y014427D01*
X019676Y014464D01*
X019663Y014501D01*
X019646Y014536D01*
X019627Y014569D01*
X019604Y014600D01*
X019578Y014629D01*
X019549Y014655D01*
X019518Y014678D01*
X019485Y014697D01*
X019450Y014714D01*
X019413Y014727D01*
X019376Y014736D01*
X019338Y014742D01*
X019299Y014744D01*
X012806Y014744D01*
X012806Y014743D02*
X012767Y014740D01*
X012728Y014734D01*
X012690Y014724D01*
X012653Y014710D01*
X012618Y014693D01*
X012585Y014672D01*
X012554Y014648D01*
X012525Y014622D01*
X012499Y014592D01*
X012476Y014560D01*
X012456Y014526D01*
X012440Y014491D01*
X012428Y014453D01*
X012419Y014415D01*
X012413Y014376D01*
X012412Y014337D01*
X012412Y014338D02*
X012412Y011650D01*
X012410Y011606D01*
X012404Y011563D01*
X012395Y011521D01*
X012382Y011479D01*
X012365Y011439D01*
X012345Y011400D01*
X012322Y011363D01*
X012295Y011329D01*
X012266Y011296D01*
X012233Y011267D01*
X012199Y011240D01*
X012162Y011217D01*
X012123Y011197D01*
X012083Y011180D01*
X012041Y011167D01*
X011999Y011158D01*
X011956Y011152D01*
X011912Y011150D01*
X010974Y011150D01*
X010930Y011152D01*
X010887Y011158D01*
X010845Y011167D01*
X010803Y011180D01*
X010763Y011197D01*
X010724Y011217D01*
X010687Y011240D01*
X010653Y011267D01*
X010620Y011296D01*
X010591Y011329D01*
X010564Y011363D01*
X010541Y011400D01*
X010521Y011439D01*
X010504Y011479D01*
X010491Y011521D01*
X010482Y011563D01*
X010476Y011606D01*
X010474Y011650D01*
X010474Y014338D01*
X010475Y014338D02*
X010473Y014377D01*
X010468Y014415D01*
X010459Y014453D01*
X010446Y014490D01*
X010429Y014525D01*
X010409Y014559D01*
X010386Y014590D01*
X010360Y014619D01*
X010332Y014645D01*
X010301Y014669D01*
X010267Y014689D01*
X010232Y014706D01*
X010195Y014719D01*
X010158Y014729D01*
X010119Y014735D01*
X010080Y014737D01*
X003587Y014737D01*
X003548Y014735D01*
X003510Y014729D01*
X003473Y014720D01*
X003436Y014707D01*
X003401Y014690D01*
X003368Y014671D01*
X003337Y014648D01*
X003308Y014622D01*
X003282Y014593D01*
X003259Y014562D01*
X003240Y014529D01*
X003223Y014494D01*
X003210Y014457D01*
X003201Y014420D01*
X003195Y014382D01*
X003193Y014343D01*
X003193Y005544D01*
X003195Y005505D01*
X003201Y005467D01*
X003210Y005430D01*
X003223Y005393D01*
X003240Y005358D01*
X003259Y005325D01*
X003282Y005294D01*
X003308Y005265D01*
X003337Y005239D01*
X003368Y005216D01*
X003401Y005197D01*
X003436Y005180D01*
X003473Y005167D01*
X003510Y005158D01*
X003548Y005152D01*
X003587Y005150D01*
X003548Y006006D02*
X003550Y006047D01*
X003556Y006088D01*
X003566Y006128D01*
X003579Y006167D01*
X003596Y006204D01*
X003617Y006240D01*
X003641Y006274D01*
X003668Y006305D01*
X003697Y006333D01*
X003730Y006359D01*
X003764Y006381D01*
X003801Y006400D01*
X003839Y006415D01*
X003879Y006427D01*
X003919Y006435D01*
X003960Y006439D01*
X004002Y006439D01*
X004043Y006435D01*
X004083Y006427D01*
X004123Y006415D01*
X004161Y006400D01*
X004197Y006381D01*
X004232Y006359D01*
X004265Y006333D01*
X004294Y006305D01*
X004321Y006274D01*
X004345Y006240D01*
X004366Y006204D01*
X004383Y006167D01*
X004396Y006128D01*
X004406Y006088D01*
X004412Y006047D01*
X004414Y006006D01*
X004412Y005965D01*
X004406Y005924D01*
X004396Y005884D01*
X004383Y005845D01*
X004366Y005808D01*
X004345Y005772D01*
X004321Y005738D01*
X004294Y005707D01*
X004265Y005679D01*
X004232Y005653D01*
X004198Y005631D01*
X004161Y005612D01*
X004123Y005597D01*
X004083Y005585D01*
X004043Y005577D01*
X004002Y005573D01*
X003960Y005573D01*
X003919Y005577D01*
X003879Y005585D01*
X003839Y005597D01*
X003801Y005612D01*
X003765Y005631D01*
X003730Y005653D01*
X003697Y005679D01*
X003668Y005707D01*
X003641Y005738D01*
X003617Y005772D01*
X003596Y005808D01*
X003579Y005845D01*
X003566Y005884D01*
X003556Y005924D01*
X003550Y005965D01*
X003548Y006006D01*
X003548Y013880D02*
X003550Y013921D01*
X003556Y013962D01*
X003566Y014002D01*
X003579Y014041D01*
X003596Y014078D01*
X003617Y014114D01*
X003641Y014148D01*
X003668Y014179D01*
X003697Y014207D01*
X003730Y014233D01*
X003764Y014255D01*
X003801Y014274D01*
X003839Y014289D01*
X003879Y014301D01*
X003919Y014309D01*
X003960Y014313D01*
X004002Y014313D01*
X004043Y014309D01*
X004083Y014301D01*
X004123Y014289D01*
X004161Y014274D01*
X004197Y014255D01*
X004232Y014233D01*
X004265Y014207D01*
X004294Y014179D01*
X004321Y014148D01*
X004345Y014114D01*
X004366Y014078D01*
X004383Y014041D01*
X004396Y014002D01*
X004406Y013962D01*
X004412Y013921D01*
X004414Y013880D01*
X004412Y013839D01*
X004406Y013798D01*
X004396Y013758D01*
X004383Y013719D01*
X004366Y013682D01*
X004345Y013646D01*
X004321Y013612D01*
X004294Y013581D01*
X004265Y013553D01*
X004232Y013527D01*
X004198Y013505D01*
X004161Y013486D01*
X004123Y013471D01*
X004083Y013459D01*
X004043Y013451D01*
X004002Y013447D01*
X003960Y013447D01*
X003919Y013451D01*
X003879Y013459D01*
X003839Y013471D01*
X003801Y013486D01*
X003765Y013505D01*
X003730Y013527D01*
X003697Y013553D01*
X003668Y013581D01*
X003641Y013612D01*
X003617Y013646D01*
X003596Y013682D01*
X003579Y013719D01*
X003566Y013758D01*
X003556Y013798D01*
X003550Y013839D01*
X003548Y013880D01*
X012798Y013880D02*
X012800Y013921D01*
X012806Y013962D01*
X012816Y014002D01*
X012829Y014041D01*
X012846Y014078D01*
X012867Y014114D01*
X012891Y014148D01*
X012918Y014179D01*
X012947Y014207D01*
X012980Y014233D01*
X013014Y014255D01*
X013051Y014274D01*
X013089Y014289D01*
X013129Y014301D01*
X013169Y014309D01*
X013210Y014313D01*
X013252Y014313D01*
X013293Y014309D01*
X013333Y014301D01*
X013373Y014289D01*
X013411Y014274D01*
X013447Y014255D01*
X013482Y014233D01*
X013515Y014207D01*
X013544Y014179D01*
X013571Y014148D01*
X013595Y014114D01*
X013616Y014078D01*
X013633Y014041D01*
X013646Y014002D01*
X013656Y013962D01*
X013662Y013921D01*
X013664Y013880D01*
X013662Y013839D01*
X013656Y013798D01*
X013646Y013758D01*
X013633Y013719D01*
X013616Y013682D01*
X013595Y013646D01*
X013571Y013612D01*
X013544Y013581D01*
X013515Y013553D01*
X013482Y013527D01*
X013448Y013505D01*
X013411Y013486D01*
X013373Y013471D01*
X013333Y013459D01*
X013293Y013451D01*
X013252Y013447D01*
X013210Y013447D01*
X013169Y013451D01*
X013129Y013459D01*
X013089Y013471D01*
X013051Y013486D01*
X013015Y013505D01*
X012980Y013527D01*
X012947Y013553D01*
X012918Y013581D01*
X012891Y013612D01*
X012867Y013646D01*
X012846Y013682D01*
X012829Y013719D01*
X012816Y013758D01*
X012806Y013798D01*
X012800Y013839D01*
X012798Y013880D01*
X012798Y006006D02*
X012800Y006047D01*
X012806Y006088D01*
X012816Y006128D01*
X012829Y006167D01*
X012846Y006204D01*
X012867Y006240D01*
X012891Y006274D01*
X012918Y006305D01*
X012947Y006333D01*
X012980Y006359D01*
X013014Y006381D01*
X013051Y006400D01*
X013089Y006415D01*
X013129Y006427D01*
X013169Y006435D01*
X013210Y006439D01*
X013252Y006439D01*
X013293Y006435D01*
X013333Y006427D01*
X013373Y006415D01*
X013411Y006400D01*
X013447Y006381D01*
X013482Y006359D01*
X013515Y006333D01*
X013544Y006305D01*
X013571Y006274D01*
X013595Y006240D01*
X013616Y006204D01*
X013633Y006167D01*
X013646Y006128D01*
X013656Y006088D01*
X013662Y006047D01*
X013664Y006006D01*
X013662Y005965D01*
X013656Y005924D01*
X013646Y005884D01*
X013633Y005845D01*
X013616Y005808D01*
X013595Y005772D01*
X013571Y005738D01*
X013544Y005707D01*
X013515Y005679D01*
X013482Y005653D01*
X013448Y005631D01*
X013411Y005612D01*
X013373Y005597D01*
X013333Y005585D01*
X013293Y005577D01*
X013252Y005573D01*
X013210Y005573D01*
X013169Y005577D01*
X013129Y005585D01*
X013089Y005597D01*
X013051Y005612D01*
X013015Y005631D01*
X012980Y005653D01*
X012947Y005679D01*
X012918Y005707D01*
X012891Y005738D01*
X012867Y005772D01*
X012846Y005808D01*
X012829Y005845D01*
X012816Y005884D01*
X012806Y005924D01*
X012800Y005965D01*
X012798Y006006D01*
D11*
X013231Y006006D03*
X013231Y013880D03*
X003981Y013880D03*
X003981Y006006D03*
D12*
X009068Y005938D03*
X009068Y006488D03*
X009068Y007038D03*
X009068Y007588D03*
X009818Y007588D03*
X009818Y007038D03*
X009818Y006488D03*
X009818Y005938D03*
X018318Y005938D03*
X018318Y006488D03*
X018318Y007038D03*
X018318Y007588D03*
X019068Y007588D03*
X019068Y007038D03*
X019068Y006488D03*
X019068Y005938D03*
M02*
