G75*
%MOIN*%
%OFA0B0*%
%FSLAX24Y24*%
%IPPOS*%
%LPD*%
%AMOC8*
5,1,8,0,0,1.08239X$1,22.5*
%
%ADD10C,0.0000*%
%ADD11R,0.1125X0.1125*%
%ADD12R,0.0875X0.1500*%
%ADD13C,0.0142*%
%ADD14C,0.0098*%
%ADD15C,0.0099*%
%ADD16C,0.0100*%
%ADD17C,0.0099*%
%ADD18C,0.0101*%
%ADD19C,0.0100*%
%ADD20C,0.0101*%
%ADD21C,0.0130*%
D10*
X000425Y000238D02*
X015425Y000238D01*
X015455Y000240D01*
X015485Y000245D01*
X015514Y000254D01*
X015541Y000267D01*
X015567Y000282D01*
X015591Y000301D01*
X015612Y000322D01*
X015631Y000346D01*
X015646Y000372D01*
X015659Y000399D01*
X015668Y000428D01*
X015673Y000458D01*
X015675Y000488D01*
X015675Y007738D01*
X015673Y007768D01*
X015668Y007798D01*
X015659Y007827D01*
X015646Y007854D01*
X015631Y007880D01*
X015612Y007904D01*
X015591Y007925D01*
X015567Y007944D01*
X015541Y007959D01*
X015514Y007972D01*
X015485Y007981D01*
X015455Y007986D01*
X015425Y007988D01*
X010425Y007988D01*
X010371Y007990D01*
X010318Y007996D01*
X010266Y008005D01*
X010214Y008018D01*
X010163Y008035D01*
X010113Y008056D01*
X010066Y008080D01*
X010020Y008107D01*
X009976Y008138D01*
X009934Y008171D01*
X009895Y008208D01*
X009858Y008247D01*
X009825Y008289D01*
X009794Y008333D01*
X009767Y008379D01*
X009743Y008426D01*
X009722Y008476D01*
X009705Y008527D01*
X009692Y008579D01*
X009683Y008631D01*
X009677Y008684D01*
X009675Y008738D01*
X009675Y009738D01*
X009677Y009792D01*
X009683Y009845D01*
X009692Y009897D01*
X009705Y009949D01*
X009722Y010000D01*
X009743Y010050D01*
X009767Y010097D01*
X009794Y010143D01*
X009825Y010187D01*
X009858Y010229D01*
X009895Y010268D01*
X009934Y010305D01*
X009976Y010338D01*
X010020Y010369D01*
X010066Y010396D01*
X010113Y010420D01*
X010163Y010441D01*
X010214Y010458D01*
X010266Y010471D01*
X010318Y010480D01*
X010371Y010486D01*
X010425Y010488D01*
X015425Y010488D01*
X015455Y010490D01*
X015485Y010495D01*
X015514Y010504D01*
X015541Y010517D01*
X015567Y010532D01*
X015591Y010551D01*
X015612Y010572D01*
X015631Y010596D01*
X015646Y010622D01*
X015659Y010649D01*
X015668Y010678D01*
X015673Y010708D01*
X015675Y010738D01*
X015675Y017988D01*
X015673Y018018D01*
X015668Y018048D01*
X015659Y018077D01*
X015646Y018104D01*
X015631Y018130D01*
X015612Y018154D01*
X015591Y018175D01*
X015567Y018194D01*
X015541Y018209D01*
X015514Y018222D01*
X015485Y018231D01*
X015455Y018236D01*
X015425Y018238D01*
X000425Y018238D01*
X000395Y018236D01*
X000365Y018231D01*
X000336Y018222D01*
X000309Y018209D01*
X000283Y018194D01*
X000259Y018175D01*
X000238Y018154D01*
X000219Y018130D01*
X000204Y018104D01*
X000191Y018077D01*
X000182Y018048D01*
X000177Y018018D01*
X000175Y017988D01*
X000175Y010738D01*
X000177Y010708D01*
X000182Y010678D01*
X000191Y010649D01*
X000204Y010622D01*
X000219Y010596D01*
X000238Y010572D01*
X000259Y010551D01*
X000283Y010532D01*
X000309Y010517D01*
X000336Y010504D01*
X000365Y010495D01*
X000395Y010490D01*
X000425Y010488D01*
X005425Y010488D01*
X005479Y010486D01*
X005532Y010480D01*
X005584Y010471D01*
X005636Y010458D01*
X005687Y010441D01*
X005737Y010420D01*
X005784Y010396D01*
X005830Y010369D01*
X005874Y010338D01*
X005916Y010305D01*
X005955Y010268D01*
X005992Y010229D01*
X006025Y010187D01*
X006056Y010143D01*
X006083Y010097D01*
X006107Y010050D01*
X006128Y010000D01*
X006145Y009949D01*
X006158Y009897D01*
X006167Y009845D01*
X006173Y009792D01*
X006175Y009738D01*
X006175Y008738D01*
X006173Y008684D01*
X006167Y008631D01*
X006158Y008579D01*
X006145Y008527D01*
X006128Y008476D01*
X006107Y008426D01*
X006083Y008379D01*
X006056Y008333D01*
X006025Y008289D01*
X005992Y008247D01*
X005955Y008208D01*
X005916Y008171D01*
X005874Y008138D01*
X005830Y008107D01*
X005784Y008080D01*
X005737Y008056D01*
X005687Y008035D01*
X005636Y008018D01*
X005584Y008005D01*
X005532Y007996D01*
X005479Y007990D01*
X005425Y007988D01*
X000425Y007988D01*
X000395Y007986D01*
X000365Y007981D01*
X000336Y007972D01*
X000309Y007959D01*
X000283Y007944D01*
X000259Y007925D01*
X000238Y007904D01*
X000219Y007880D01*
X000204Y007854D01*
X000191Y007827D01*
X000182Y007798D01*
X000177Y007768D01*
X000175Y007738D01*
X000175Y000488D01*
X000177Y000458D01*
X000182Y000428D01*
X000191Y000399D01*
X000204Y000372D01*
X000219Y000346D01*
X000238Y000322D01*
X000259Y000301D01*
X000283Y000282D01*
X000309Y000267D01*
X000336Y000254D01*
X000365Y000245D01*
X000395Y000240D01*
X000425Y000238D01*
D11*
X007113Y005300D03*
X007113Y015550D03*
D12*
X010925Y016488D03*
X010925Y014238D03*
X010925Y011988D03*
X010925Y006238D03*
X010925Y003988D03*
X010925Y001738D03*
D13*
X008826Y001529D02*
X008826Y000727D01*
X008024Y000727D01*
X008024Y001529D01*
X008826Y001529D01*
X008826Y000868D02*
X008024Y000868D01*
X008024Y001009D02*
X008826Y001009D01*
X008826Y001150D02*
X008024Y001150D01*
X008024Y001291D02*
X008826Y001291D01*
X008826Y001432D02*
X008024Y001432D01*
X008024Y002696D02*
X008024Y003498D01*
X008826Y003498D01*
X008826Y002696D01*
X008024Y002696D01*
X008024Y002837D02*
X008826Y002837D01*
X008826Y002978D02*
X008024Y002978D01*
X008024Y003119D02*
X008826Y003119D01*
X008826Y003260D02*
X008024Y003260D01*
X008024Y003401D02*
X008826Y003401D01*
X008826Y010977D02*
X008826Y011779D01*
X008826Y010977D02*
X008024Y010977D01*
X008024Y011779D01*
X008826Y011779D01*
X008826Y011118D02*
X008024Y011118D01*
X008024Y011259D02*
X008826Y011259D01*
X008826Y011400D02*
X008024Y011400D01*
X008024Y011541D02*
X008826Y011541D01*
X008826Y011682D02*
X008024Y011682D01*
X008024Y012946D02*
X008024Y013748D01*
X008826Y013748D01*
X008826Y012946D01*
X008024Y012946D01*
X008024Y013087D02*
X008826Y013087D01*
X008826Y013228D02*
X008024Y013228D01*
X008024Y013369D02*
X008826Y013369D01*
X008826Y013510D02*
X008024Y013510D01*
X008024Y013651D02*
X008826Y013651D01*
D14*
X007900Y014260D02*
X007900Y014556D01*
X007703Y014556D02*
X007703Y014260D01*
X007506Y014260D02*
X007506Y014556D01*
X007309Y014556D02*
X007309Y014260D01*
X007113Y014260D02*
X007113Y014556D01*
X006916Y014556D02*
X006916Y014260D01*
X006719Y014260D02*
X006719Y014556D01*
X006522Y014556D02*
X006522Y014260D01*
X006325Y014260D02*
X006325Y014556D01*
X006119Y014763D02*
X005823Y014763D01*
X005823Y014959D02*
X006119Y014959D01*
X006119Y015156D02*
X005823Y015156D01*
X005823Y015353D02*
X006119Y015353D01*
X006119Y015550D02*
X005823Y015550D01*
X005823Y015747D02*
X006119Y015747D01*
X006119Y015944D02*
X005823Y015944D01*
X005823Y016141D02*
X006119Y016141D01*
X006325Y016544D02*
X006325Y016840D01*
X006522Y016840D02*
X006522Y016544D01*
X006719Y016544D02*
X006719Y016840D01*
X006916Y016840D02*
X006916Y016544D01*
X007113Y016544D02*
X007113Y016840D01*
X007309Y016840D02*
X007309Y016544D01*
X007506Y016544D02*
X007506Y016840D01*
X007703Y016840D02*
X007703Y016544D01*
X007900Y016544D02*
X007900Y016840D01*
X008106Y016337D02*
X008402Y016337D01*
X008402Y016141D02*
X008106Y016141D01*
X008106Y015944D02*
X008402Y015944D01*
X008402Y015747D02*
X008106Y015747D01*
X008106Y015550D02*
X008402Y015550D01*
X008402Y015353D02*
X008106Y015353D01*
X008106Y015156D02*
X008402Y015156D01*
X008402Y014959D02*
X008106Y014959D01*
X008106Y014763D02*
X008402Y014763D01*
X008571Y017176D02*
X008905Y017176D01*
X008905Y016880D01*
X008571Y016880D01*
X008571Y017176D01*
X008571Y016977D02*
X008905Y016977D01*
X008905Y017074D02*
X008571Y017074D01*
X008571Y017171D02*
X008905Y017171D01*
X008905Y017845D02*
X008571Y017845D01*
X008905Y017845D02*
X008905Y017549D01*
X008571Y017549D01*
X008571Y017845D01*
X008571Y017646D02*
X008905Y017646D01*
X008905Y017743D02*
X008571Y017743D01*
X008571Y017840D02*
X008905Y017840D01*
X005217Y017845D02*
X004883Y017845D01*
X005217Y017845D02*
X005217Y017549D01*
X004883Y017549D01*
X004883Y017845D01*
X004883Y017646D02*
X005217Y017646D01*
X005217Y017743D02*
X004883Y017743D01*
X004883Y017840D02*
X005217Y017840D01*
X005217Y017176D02*
X004883Y017176D01*
X005217Y017176D02*
X005217Y016880D01*
X004883Y016880D01*
X004883Y017176D01*
X004883Y016977D02*
X005217Y016977D01*
X005217Y017074D02*
X004883Y017074D01*
X004883Y017171D02*
X005217Y017171D01*
X004883Y016564D02*
X004883Y016268D01*
X004883Y016564D02*
X005217Y016564D01*
X005217Y016268D01*
X004883Y016268D01*
X004883Y016365D02*
X005217Y016365D01*
X005217Y016462D02*
X004883Y016462D01*
X004883Y016559D02*
X005217Y016559D01*
X004883Y015895D02*
X004883Y015599D01*
X004883Y015895D02*
X005217Y015895D01*
X005217Y015599D01*
X004883Y015599D01*
X004883Y015696D02*
X005217Y015696D01*
X005217Y015793D02*
X004883Y015793D01*
X004883Y015890D02*
X005217Y015890D01*
X004283Y015780D02*
X004283Y015446D01*
X003987Y015446D01*
X003987Y015780D01*
X004283Y015780D01*
X004283Y015543D02*
X003987Y015543D01*
X003987Y015640D02*
X004283Y015640D01*
X004283Y015737D02*
X003987Y015737D01*
X003613Y015780D02*
X003613Y015446D01*
X003317Y015446D01*
X003317Y015780D01*
X003613Y015780D01*
X003613Y015543D02*
X003317Y015543D01*
X003317Y015640D02*
X003613Y015640D01*
X003613Y015737D02*
X003317Y015737D01*
X004883Y013924D02*
X005217Y013924D01*
X004883Y013924D02*
X004883Y014220D01*
X005217Y014220D01*
X005217Y013924D01*
X005217Y014021D02*
X004883Y014021D01*
X004883Y014118D02*
X005217Y014118D01*
X005217Y014215D02*
X004883Y014215D01*
X004883Y013255D02*
X005217Y013255D01*
X004883Y013255D02*
X004883Y013551D01*
X005217Y013551D01*
X005217Y013255D01*
X005217Y013352D02*
X004883Y013352D01*
X004883Y013449D02*
X005217Y013449D01*
X005217Y013546D02*
X004883Y013546D01*
X003987Y012905D02*
X003987Y012571D01*
X003987Y012905D02*
X004283Y012905D01*
X004283Y012571D01*
X003987Y012571D01*
X003987Y012668D02*
X004283Y012668D01*
X004283Y012765D02*
X003987Y012765D01*
X003987Y012862D02*
X004283Y012862D01*
X005238Y012780D02*
X005238Y012446D01*
X004942Y012446D01*
X004942Y012780D01*
X005238Y012780D01*
X005238Y012543D02*
X004942Y012543D01*
X004942Y012640D02*
X005238Y012640D01*
X005238Y012737D02*
X004942Y012737D01*
X005908Y012780D02*
X005908Y012446D01*
X005612Y012446D01*
X005612Y012780D01*
X005908Y012780D01*
X005908Y012543D02*
X005612Y012543D01*
X005612Y012640D02*
X005908Y012640D01*
X005908Y012737D02*
X005612Y012737D01*
X006317Y012780D02*
X006317Y012446D01*
X006317Y012780D02*
X006613Y012780D01*
X006613Y012446D01*
X006317Y012446D01*
X006317Y012543D02*
X006613Y012543D01*
X006613Y012640D02*
X006317Y012640D01*
X006317Y012737D02*
X006613Y012737D01*
X006987Y012780D02*
X006987Y012446D01*
X006987Y012780D02*
X007283Y012780D01*
X007283Y012446D01*
X006987Y012446D01*
X006987Y012543D02*
X007283Y012543D01*
X007283Y012640D02*
X006987Y012640D01*
X006987Y012737D02*
X007283Y012737D01*
X007283Y012030D02*
X006987Y012030D01*
X007283Y012030D02*
X007283Y011696D01*
X006987Y011696D01*
X006987Y012030D01*
X006987Y011793D02*
X007283Y011793D01*
X007283Y011890D02*
X006987Y011890D01*
X006987Y011987D02*
X007283Y011987D01*
X006613Y012030D02*
X006317Y012030D01*
X006613Y012030D02*
X006613Y011696D01*
X006317Y011696D01*
X006317Y012030D01*
X006317Y011793D02*
X006613Y011793D01*
X006613Y011890D02*
X006317Y011890D01*
X006317Y011987D02*
X006613Y011987D01*
X005908Y011696D02*
X005612Y011696D01*
X005612Y012030D01*
X005908Y012030D01*
X005908Y011696D01*
X005908Y011793D02*
X005612Y011793D01*
X005612Y011890D02*
X005908Y011890D01*
X005908Y011987D02*
X005612Y011987D01*
X005238Y011696D02*
X004942Y011696D01*
X004942Y012030D01*
X005238Y012030D01*
X005238Y011696D01*
X005238Y011793D02*
X004942Y011793D01*
X004942Y011890D02*
X005238Y011890D01*
X005238Y011987D02*
X004942Y011987D01*
X003317Y012571D02*
X003317Y012905D01*
X003613Y012905D01*
X003613Y012571D01*
X003317Y012571D01*
X003317Y012668D02*
X003613Y012668D01*
X003613Y012765D02*
X003317Y012765D01*
X003317Y012862D02*
X003613Y012862D01*
X004883Y007595D02*
X005217Y007595D01*
X005217Y007299D01*
X004883Y007299D01*
X004883Y007595D01*
X004883Y007396D02*
X005217Y007396D01*
X005217Y007493D02*
X004883Y007493D01*
X004883Y007590D02*
X005217Y007590D01*
X005217Y006926D02*
X004883Y006926D01*
X005217Y006926D02*
X005217Y006630D01*
X004883Y006630D01*
X004883Y006926D01*
X004883Y006727D02*
X005217Y006727D01*
X005217Y006824D02*
X004883Y006824D01*
X004883Y006921D02*
X005217Y006921D01*
X004883Y006314D02*
X004883Y006018D01*
X004883Y006314D02*
X005217Y006314D01*
X005217Y006018D01*
X004883Y006018D01*
X004883Y006115D02*
X005217Y006115D01*
X005217Y006212D02*
X004883Y006212D01*
X004883Y006309D02*
X005217Y006309D01*
X005823Y005891D02*
X006119Y005891D01*
X006119Y005694D02*
X005823Y005694D01*
X005823Y005497D02*
X006119Y005497D01*
X006119Y005300D02*
X005823Y005300D01*
X005823Y005103D02*
X006119Y005103D01*
X006119Y004906D02*
X005823Y004906D01*
X005823Y004709D02*
X006119Y004709D01*
X006119Y004513D02*
X005823Y004513D01*
X006325Y004306D02*
X006325Y004010D01*
X006522Y004010D02*
X006522Y004306D01*
X006719Y004306D02*
X006719Y004010D01*
X006916Y004010D02*
X006916Y004306D01*
X007113Y004306D02*
X007113Y004010D01*
X007309Y004010D02*
X007309Y004306D01*
X007506Y004306D02*
X007506Y004010D01*
X007703Y004010D02*
X007703Y004306D01*
X007900Y004306D02*
X007900Y004010D01*
X008106Y004513D02*
X008402Y004513D01*
X008402Y004709D02*
X008106Y004709D01*
X008106Y004906D02*
X008402Y004906D01*
X008402Y005103D02*
X008106Y005103D01*
X008106Y005300D02*
X008402Y005300D01*
X008402Y005497D02*
X008106Y005497D01*
X008106Y005694D02*
X008402Y005694D01*
X008402Y005891D02*
X008106Y005891D01*
X008106Y006087D02*
X008402Y006087D01*
X008571Y006926D02*
X008905Y006926D01*
X008905Y006630D01*
X008571Y006630D01*
X008571Y006926D01*
X008571Y006727D02*
X008905Y006727D01*
X008905Y006824D02*
X008571Y006824D01*
X008571Y006921D02*
X008905Y006921D01*
X008905Y007595D02*
X008571Y007595D01*
X008905Y007595D02*
X008905Y007299D01*
X008571Y007299D01*
X008571Y007595D01*
X008571Y007396D02*
X008905Y007396D01*
X008905Y007493D02*
X008571Y007493D01*
X008571Y007590D02*
X008905Y007590D01*
X007900Y006590D02*
X007900Y006294D01*
X007703Y006294D02*
X007703Y006590D01*
X007506Y006590D02*
X007506Y006294D01*
X007309Y006294D02*
X007309Y006590D01*
X007113Y006590D02*
X007113Y006294D01*
X006916Y006294D02*
X006916Y006590D01*
X006719Y006590D02*
X006719Y006294D01*
X006522Y006294D02*
X006522Y006590D01*
X006325Y006590D02*
X006325Y006294D01*
X004883Y005645D02*
X004883Y005349D01*
X004883Y005645D02*
X005217Y005645D01*
X005217Y005349D01*
X004883Y005349D01*
X004883Y005446D02*
X005217Y005446D01*
X005217Y005543D02*
X004883Y005543D01*
X004883Y005640D02*
X005217Y005640D01*
X004283Y005530D02*
X004283Y005196D01*
X003987Y005196D01*
X003987Y005530D01*
X004283Y005530D01*
X004283Y005293D02*
X003987Y005293D01*
X003987Y005390D02*
X004283Y005390D01*
X004283Y005487D02*
X003987Y005487D01*
X003613Y005530D02*
X003613Y005196D01*
X003317Y005196D01*
X003317Y005530D01*
X003613Y005530D01*
X003613Y005293D02*
X003317Y005293D01*
X003317Y005390D02*
X003613Y005390D01*
X003613Y005487D02*
X003317Y005487D01*
X004883Y003674D02*
X005217Y003674D01*
X004883Y003674D02*
X004883Y003970D01*
X005217Y003970D01*
X005217Y003674D01*
X005217Y003771D02*
X004883Y003771D01*
X004883Y003868D02*
X005217Y003868D01*
X005217Y003965D02*
X004883Y003965D01*
X004883Y003005D02*
X005217Y003005D01*
X004883Y003005D02*
X004883Y003301D01*
X005217Y003301D01*
X005217Y003005D01*
X005217Y003102D02*
X004883Y003102D01*
X004883Y003199D02*
X005217Y003199D01*
X005217Y003296D02*
X004883Y003296D01*
X003987Y002655D02*
X003987Y002321D01*
X003987Y002655D02*
X004283Y002655D01*
X004283Y002321D01*
X003987Y002321D01*
X003987Y002418D02*
X004283Y002418D01*
X004283Y002515D02*
X003987Y002515D01*
X003987Y002612D02*
X004283Y002612D01*
X005238Y002530D02*
X005238Y002196D01*
X004942Y002196D01*
X004942Y002530D01*
X005238Y002530D01*
X005238Y002293D02*
X004942Y002293D01*
X004942Y002390D02*
X005238Y002390D01*
X005238Y002487D02*
X004942Y002487D01*
X005908Y002530D02*
X005908Y002196D01*
X005612Y002196D01*
X005612Y002530D01*
X005908Y002530D01*
X005908Y002293D02*
X005612Y002293D01*
X005612Y002390D02*
X005908Y002390D01*
X005908Y002487D02*
X005612Y002487D01*
X006317Y002530D02*
X006317Y002196D01*
X006317Y002530D02*
X006613Y002530D01*
X006613Y002196D01*
X006317Y002196D01*
X006317Y002293D02*
X006613Y002293D01*
X006613Y002390D02*
X006317Y002390D01*
X006317Y002487D02*
X006613Y002487D01*
X006987Y002530D02*
X006987Y002196D01*
X006987Y002530D02*
X007283Y002530D01*
X007283Y002196D01*
X006987Y002196D01*
X006987Y002293D02*
X007283Y002293D01*
X007283Y002390D02*
X006987Y002390D01*
X006987Y002487D02*
X007283Y002487D01*
X007283Y001780D02*
X006987Y001780D01*
X007283Y001780D02*
X007283Y001446D01*
X006987Y001446D01*
X006987Y001780D01*
X006987Y001543D02*
X007283Y001543D01*
X007283Y001640D02*
X006987Y001640D01*
X006987Y001737D02*
X007283Y001737D01*
X006613Y001780D02*
X006317Y001780D01*
X006613Y001780D02*
X006613Y001446D01*
X006317Y001446D01*
X006317Y001780D01*
X006317Y001543D02*
X006613Y001543D01*
X006613Y001640D02*
X006317Y001640D01*
X006317Y001737D02*
X006613Y001737D01*
X005908Y001446D02*
X005612Y001446D01*
X005612Y001780D01*
X005908Y001780D01*
X005908Y001446D01*
X005908Y001543D02*
X005612Y001543D01*
X005612Y001640D02*
X005908Y001640D01*
X005908Y001737D02*
X005612Y001737D01*
X005238Y001446D02*
X004942Y001446D01*
X004942Y001780D01*
X005238Y001780D01*
X005238Y001446D01*
X005238Y001543D02*
X004942Y001543D01*
X004942Y001640D02*
X005238Y001640D01*
X005238Y001737D02*
X004942Y001737D01*
X003317Y002321D02*
X003317Y002655D01*
X003613Y002655D01*
X003613Y002321D01*
X003317Y002321D01*
X003317Y002418D02*
X003613Y002418D01*
X003613Y002515D02*
X003317Y002515D01*
X003317Y002612D02*
X003613Y002612D01*
X013113Y003664D02*
X013113Y003998D01*
X013113Y003664D02*
X012817Y003664D01*
X012817Y003998D01*
X013113Y003998D01*
X013113Y003761D02*
X012817Y003761D01*
X012817Y003858D02*
X013113Y003858D01*
X013113Y003955D02*
X012817Y003955D01*
X013783Y003998D02*
X013783Y003664D01*
X013487Y003664D01*
X013487Y003998D01*
X013783Y003998D01*
X013783Y003761D02*
X013487Y003761D01*
X013487Y003858D02*
X013783Y003858D01*
X013783Y003955D02*
X013487Y003955D01*
X013155Y005301D02*
X012821Y005301D01*
X013155Y005301D02*
X013155Y005005D01*
X012821Y005005D01*
X012821Y005301D01*
X012821Y005102D02*
X013155Y005102D01*
X013155Y005199D02*
X012821Y005199D01*
X012821Y005296D02*
X013155Y005296D01*
X013155Y005970D02*
X012821Y005970D01*
X013155Y005970D02*
X013155Y005674D01*
X012821Y005674D01*
X012821Y005970D01*
X012821Y005771D02*
X013155Y005771D01*
X013155Y005868D02*
X012821Y005868D01*
X012821Y005965D02*
X013155Y005965D01*
X013113Y007258D02*
X013113Y007592D01*
X013113Y007258D02*
X012817Y007258D01*
X012817Y007592D01*
X013113Y007592D01*
X013113Y007355D02*
X012817Y007355D01*
X012817Y007452D02*
X013113Y007452D01*
X013113Y007549D02*
X012817Y007549D01*
X013783Y007592D02*
X013783Y007258D01*
X013487Y007258D01*
X013487Y007592D01*
X013783Y007592D01*
X013783Y007355D02*
X013487Y007355D01*
X013487Y007452D02*
X013783Y007452D01*
X013783Y007549D02*
X013487Y007549D01*
X013783Y013914D02*
X013783Y014248D01*
X013783Y013914D02*
X013487Y013914D01*
X013487Y014248D01*
X013783Y014248D01*
X013783Y014011D02*
X013487Y014011D01*
X013487Y014108D02*
X013783Y014108D01*
X013783Y014205D02*
X013487Y014205D01*
X013113Y014248D02*
X013113Y013914D01*
X012817Y013914D01*
X012817Y014248D01*
X013113Y014248D01*
X013113Y014011D02*
X012817Y014011D01*
X012817Y014108D02*
X013113Y014108D01*
X013113Y014205D02*
X012817Y014205D01*
X012821Y015551D02*
X013155Y015551D01*
X013155Y015255D01*
X012821Y015255D01*
X012821Y015551D01*
X012821Y015352D02*
X013155Y015352D01*
X013155Y015449D02*
X012821Y015449D01*
X012821Y015546D02*
X013155Y015546D01*
X013155Y016220D02*
X012821Y016220D01*
X013155Y016220D02*
X013155Y015924D01*
X012821Y015924D01*
X012821Y016220D01*
X012821Y016021D02*
X013155Y016021D01*
X013155Y016118D02*
X012821Y016118D01*
X012821Y016215D02*
X013155Y016215D01*
X013113Y017508D02*
X013113Y017842D01*
X013113Y017508D02*
X012817Y017508D01*
X012817Y017842D01*
X013113Y017842D01*
X013113Y017605D02*
X012817Y017605D01*
X012817Y017702D02*
X013113Y017702D01*
X013113Y017799D02*
X012817Y017799D01*
X013783Y017842D02*
X013783Y017508D01*
X013487Y017508D01*
X013487Y017842D01*
X013783Y017842D01*
X013783Y017605D02*
X013487Y017605D01*
X013487Y017702D02*
X013783Y017702D01*
X013783Y017799D02*
X013487Y017799D01*
D15*
X011909Y017319D02*
X011909Y017157D01*
X011909Y017319D02*
X012361Y017319D01*
X012361Y017157D01*
X011909Y017157D01*
X011909Y017255D02*
X012361Y017255D01*
X011909Y016819D02*
X011909Y016657D01*
X011909Y016819D02*
X012361Y016819D01*
X012361Y016657D01*
X011909Y016657D01*
X011909Y016755D02*
X012361Y016755D01*
X011909Y016319D02*
X011909Y016157D01*
X011909Y016319D02*
X012361Y016319D01*
X012361Y016157D01*
X011909Y016157D01*
X011909Y016255D02*
X012361Y016255D01*
X011909Y015819D02*
X011909Y015657D01*
X011909Y015819D02*
X012361Y015819D01*
X012361Y015657D01*
X011909Y015657D01*
X011909Y015755D02*
X012361Y015755D01*
X011909Y015069D02*
X011909Y014907D01*
X011909Y015069D02*
X012361Y015069D01*
X012361Y014907D01*
X011909Y014907D01*
X011909Y015005D02*
X012361Y015005D01*
X011909Y014569D02*
X011909Y014407D01*
X011909Y014569D02*
X012361Y014569D01*
X012361Y014407D01*
X011909Y014407D01*
X011909Y014505D02*
X012361Y014505D01*
X011909Y014069D02*
X011909Y013907D01*
X011909Y014069D02*
X012361Y014069D01*
X012361Y013907D01*
X011909Y013907D01*
X011909Y014005D02*
X012361Y014005D01*
X011909Y013569D02*
X011909Y013407D01*
X011909Y013569D02*
X012361Y013569D01*
X012361Y013407D01*
X011909Y013407D01*
X011909Y013505D02*
X012361Y013505D01*
X011909Y012819D02*
X011909Y012657D01*
X011909Y012819D02*
X012361Y012819D01*
X012361Y012657D01*
X011909Y012657D01*
X011909Y012755D02*
X012361Y012755D01*
X011909Y012319D02*
X011909Y012157D01*
X011909Y012319D02*
X012361Y012319D01*
X012361Y012157D01*
X011909Y012157D01*
X011909Y012255D02*
X012361Y012255D01*
X011909Y011819D02*
X011909Y011657D01*
X011909Y011819D02*
X012361Y011819D01*
X012361Y011657D01*
X011909Y011657D01*
X011909Y011755D02*
X012361Y011755D01*
X011909Y011319D02*
X011909Y011157D01*
X011909Y011319D02*
X012361Y011319D01*
X012361Y011157D01*
X011909Y011157D01*
X011909Y011255D02*
X012361Y011255D01*
X009489Y011319D02*
X009489Y011157D01*
X009489Y011319D02*
X009941Y011319D01*
X009941Y011157D01*
X009489Y011157D01*
X009489Y011255D02*
X009941Y011255D01*
X009489Y011657D02*
X009489Y011819D01*
X009941Y011819D01*
X009941Y011657D01*
X009489Y011657D01*
X009489Y011755D02*
X009941Y011755D01*
X009489Y012157D02*
X009489Y012319D01*
X009941Y012319D01*
X009941Y012157D01*
X009489Y012157D01*
X009489Y012255D02*
X009941Y012255D01*
X009489Y012657D02*
X009489Y012819D01*
X009941Y012819D01*
X009941Y012657D01*
X009489Y012657D01*
X009489Y012755D02*
X009941Y012755D01*
X009489Y013407D02*
X009489Y013569D01*
X009941Y013569D01*
X009941Y013407D01*
X009489Y013407D01*
X009489Y013505D02*
X009941Y013505D01*
X009489Y013907D02*
X009489Y014069D01*
X009941Y014069D01*
X009941Y013907D01*
X009489Y013907D01*
X009489Y014005D02*
X009941Y014005D01*
X009489Y014407D02*
X009489Y014569D01*
X009941Y014569D01*
X009941Y014407D01*
X009489Y014407D01*
X009489Y014505D02*
X009941Y014505D01*
X009489Y014907D02*
X009489Y015069D01*
X009941Y015069D01*
X009941Y014907D01*
X009489Y014907D01*
X009489Y015005D02*
X009941Y015005D01*
X009489Y015657D02*
X009489Y015819D01*
X009941Y015819D01*
X009941Y015657D01*
X009489Y015657D01*
X009489Y015755D02*
X009941Y015755D01*
X009489Y016157D02*
X009489Y016319D01*
X009941Y016319D01*
X009941Y016157D01*
X009489Y016157D01*
X009489Y016255D02*
X009941Y016255D01*
X009489Y016657D02*
X009489Y016819D01*
X009941Y016819D01*
X009941Y016657D01*
X009489Y016657D01*
X009489Y016755D02*
X009941Y016755D01*
X009489Y017157D02*
X009489Y017319D01*
X009941Y017319D01*
X009941Y017157D01*
X009489Y017157D01*
X009489Y017255D02*
X009941Y017255D01*
X009489Y007069D02*
X009489Y006907D01*
X009489Y007069D02*
X009941Y007069D01*
X009941Y006907D01*
X009489Y006907D01*
X009489Y007005D02*
X009941Y007005D01*
X009489Y006569D02*
X009489Y006407D01*
X009489Y006569D02*
X009941Y006569D01*
X009941Y006407D01*
X009489Y006407D01*
X009489Y006505D02*
X009941Y006505D01*
X009489Y006069D02*
X009489Y005907D01*
X009489Y006069D02*
X009941Y006069D01*
X009941Y005907D01*
X009489Y005907D01*
X009489Y006005D02*
X009941Y006005D01*
X009489Y005569D02*
X009489Y005407D01*
X009489Y005569D02*
X009941Y005569D01*
X009941Y005407D01*
X009489Y005407D01*
X009489Y005505D02*
X009941Y005505D01*
X009489Y004819D02*
X009489Y004657D01*
X009489Y004819D02*
X009941Y004819D01*
X009941Y004657D01*
X009489Y004657D01*
X009489Y004755D02*
X009941Y004755D01*
X009489Y004319D02*
X009489Y004157D01*
X009489Y004319D02*
X009941Y004319D01*
X009941Y004157D01*
X009489Y004157D01*
X009489Y004255D02*
X009941Y004255D01*
X009489Y003819D02*
X009489Y003657D01*
X009489Y003819D02*
X009941Y003819D01*
X009941Y003657D01*
X009489Y003657D01*
X009489Y003755D02*
X009941Y003755D01*
X009489Y003319D02*
X009489Y003157D01*
X009489Y003319D02*
X009941Y003319D01*
X009941Y003157D01*
X009489Y003157D01*
X009489Y003255D02*
X009941Y003255D01*
X009489Y002569D02*
X009489Y002407D01*
X009489Y002569D02*
X009941Y002569D01*
X009941Y002407D01*
X009489Y002407D01*
X009489Y002505D02*
X009941Y002505D01*
X009489Y002069D02*
X009489Y001907D01*
X009489Y002069D02*
X009941Y002069D01*
X009941Y001907D01*
X009489Y001907D01*
X009489Y002005D02*
X009941Y002005D01*
X009489Y001569D02*
X009489Y001407D01*
X009489Y001569D02*
X009941Y001569D01*
X009941Y001407D01*
X009489Y001407D01*
X009489Y001505D02*
X009941Y001505D01*
X009489Y001069D02*
X009489Y000907D01*
X009489Y001069D02*
X009941Y001069D01*
X009941Y000907D01*
X009489Y000907D01*
X009489Y001005D02*
X009941Y001005D01*
X011909Y001069D02*
X011909Y000907D01*
X011909Y001069D02*
X012361Y001069D01*
X012361Y000907D01*
X011909Y000907D01*
X011909Y001005D02*
X012361Y001005D01*
X011909Y001407D02*
X011909Y001569D01*
X012361Y001569D01*
X012361Y001407D01*
X011909Y001407D01*
X011909Y001505D02*
X012361Y001505D01*
X011909Y001907D02*
X011909Y002069D01*
X012361Y002069D01*
X012361Y001907D01*
X011909Y001907D01*
X011909Y002005D02*
X012361Y002005D01*
X011909Y002407D02*
X011909Y002569D01*
X012361Y002569D01*
X012361Y002407D01*
X011909Y002407D01*
X011909Y002505D02*
X012361Y002505D01*
X011909Y003157D02*
X011909Y003319D01*
X012361Y003319D01*
X012361Y003157D01*
X011909Y003157D01*
X011909Y003255D02*
X012361Y003255D01*
X011909Y003657D02*
X011909Y003819D01*
X012361Y003819D01*
X012361Y003657D01*
X011909Y003657D01*
X011909Y003755D02*
X012361Y003755D01*
X011909Y004157D02*
X011909Y004319D01*
X012361Y004319D01*
X012361Y004157D01*
X011909Y004157D01*
X011909Y004255D02*
X012361Y004255D01*
X011909Y004657D02*
X011909Y004819D01*
X012361Y004819D01*
X012361Y004657D01*
X011909Y004657D01*
X011909Y004755D02*
X012361Y004755D01*
X011909Y005407D02*
X011909Y005569D01*
X012361Y005569D01*
X012361Y005407D01*
X011909Y005407D01*
X011909Y005505D02*
X012361Y005505D01*
X011909Y005907D02*
X011909Y006069D01*
X012361Y006069D01*
X012361Y005907D01*
X011909Y005907D01*
X011909Y006005D02*
X012361Y006005D01*
X011909Y006407D02*
X011909Y006569D01*
X012361Y006569D01*
X012361Y006407D01*
X011909Y006407D01*
X011909Y006505D02*
X012361Y006505D01*
X011909Y006907D02*
X011909Y007069D01*
X012361Y007069D01*
X012361Y006907D01*
X011909Y006907D01*
X011909Y007005D02*
X012361Y007005D01*
D16*
X006118Y006084D02*
X005824Y006084D01*
X005824Y006090D01*
X006118Y006090D01*
X006118Y006084D01*
X006118Y016334D02*
X005824Y016334D01*
X005824Y016340D01*
X006118Y016340D01*
X006118Y016334D01*
D17*
X006149Y013140D02*
X006327Y013140D01*
X006149Y013140D02*
X006149Y013710D01*
X006327Y013710D01*
X006327Y013140D01*
X006327Y013238D02*
X006149Y013238D01*
X006149Y013336D02*
X006327Y013336D01*
X006327Y013434D02*
X006149Y013434D01*
X006149Y013532D02*
X006327Y013532D01*
X006327Y013630D02*
X006149Y013630D01*
X005854Y013140D02*
X005676Y013140D01*
X005676Y013710D01*
X005854Y013710D01*
X005854Y013140D01*
X005854Y013238D02*
X005676Y013238D01*
X005676Y013336D02*
X005854Y013336D01*
X005854Y013434D02*
X005676Y013434D01*
X005676Y013532D02*
X005854Y013532D01*
X005854Y013630D02*
X005676Y013630D01*
X006621Y013140D02*
X006799Y013140D01*
X006621Y013140D02*
X006621Y013710D01*
X006799Y013710D01*
X006799Y013140D01*
X006799Y013238D02*
X006621Y013238D01*
X006621Y013336D02*
X006799Y013336D01*
X006799Y013434D02*
X006621Y013434D01*
X006621Y013532D02*
X006799Y013532D01*
X006799Y013630D02*
X006621Y013630D01*
X002090Y013147D02*
X002090Y013009D01*
X002090Y013147D02*
X002602Y013147D01*
X002602Y013009D01*
X002090Y013009D01*
X002090Y013107D02*
X002602Y013107D01*
X002090Y012753D02*
X002090Y012615D01*
X002090Y012753D02*
X002602Y012753D01*
X002602Y012615D01*
X002090Y012615D01*
X002090Y012713D02*
X002602Y012713D01*
X002090Y012360D02*
X002090Y012222D01*
X002090Y012360D02*
X002602Y012360D01*
X002602Y012222D01*
X002090Y012222D01*
X002090Y012320D02*
X002602Y012320D01*
X002090Y011966D02*
X002090Y011828D01*
X002090Y011966D02*
X002602Y011966D01*
X002602Y011828D01*
X002090Y011828D01*
X002090Y011926D02*
X002602Y011926D01*
X000516Y011572D02*
X000516Y011198D01*
X000516Y011572D02*
X001126Y011572D01*
X001126Y011198D01*
X000516Y011198D01*
X000516Y011296D02*
X001126Y011296D01*
X001126Y011394D02*
X000516Y011394D01*
X000516Y011492D02*
X001126Y011492D01*
X000516Y013403D02*
X000516Y013777D01*
X001126Y013777D01*
X001126Y013403D01*
X000516Y013403D01*
X000516Y013501D02*
X001126Y013501D01*
X001126Y013599D02*
X000516Y013599D01*
X000516Y013697D02*
X001126Y013697D01*
X000516Y003527D02*
X000516Y003153D01*
X000516Y003527D02*
X001126Y003527D01*
X001126Y003153D01*
X000516Y003153D01*
X000516Y003251D02*
X001126Y003251D01*
X001126Y003349D02*
X000516Y003349D01*
X000516Y003447D02*
X001126Y003447D01*
X002090Y002897D02*
X002090Y002759D01*
X002090Y002897D02*
X002602Y002897D01*
X002602Y002759D01*
X002090Y002759D01*
X002090Y002857D02*
X002602Y002857D01*
X002090Y002503D02*
X002090Y002365D01*
X002090Y002503D02*
X002602Y002503D01*
X002602Y002365D01*
X002090Y002365D01*
X002090Y002463D02*
X002602Y002463D01*
X002090Y002110D02*
X002090Y001972D01*
X002090Y002110D02*
X002602Y002110D01*
X002602Y001972D01*
X002090Y001972D01*
X002090Y002070D02*
X002602Y002070D01*
X002090Y001716D02*
X002090Y001578D01*
X002090Y001716D02*
X002602Y001716D01*
X002602Y001578D01*
X002090Y001578D01*
X002090Y001676D02*
X002602Y001676D01*
X000516Y001322D02*
X000516Y000948D01*
X000516Y001322D02*
X001126Y001322D01*
X001126Y000948D01*
X000516Y000948D01*
X000516Y001046D02*
X001126Y001046D01*
X001126Y001144D02*
X000516Y001144D01*
X000516Y001242D02*
X001126Y001242D01*
X005676Y002890D02*
X005854Y002890D01*
X005676Y002890D02*
X005676Y003460D01*
X005854Y003460D01*
X005854Y002890D01*
X005854Y002988D02*
X005676Y002988D01*
X005676Y003086D02*
X005854Y003086D01*
X005854Y003184D02*
X005676Y003184D01*
X005676Y003282D02*
X005854Y003282D01*
X005854Y003380D02*
X005676Y003380D01*
X006149Y002890D02*
X006327Y002890D01*
X006149Y002890D02*
X006149Y003460D01*
X006327Y003460D01*
X006327Y002890D01*
X006327Y002988D02*
X006149Y002988D01*
X006149Y003086D02*
X006327Y003086D01*
X006327Y003184D02*
X006149Y003184D01*
X006149Y003282D02*
X006327Y003282D01*
X006327Y003380D02*
X006149Y003380D01*
X006621Y002890D02*
X006799Y002890D01*
X006621Y002890D02*
X006621Y003460D01*
X006799Y003460D01*
X006799Y002890D01*
X006799Y002988D02*
X006621Y002988D01*
X006621Y003086D02*
X006799Y003086D01*
X006799Y003184D02*
X006621Y003184D01*
X006621Y003282D02*
X006799Y003282D01*
X006799Y003380D02*
X006621Y003380D01*
X013760Y002897D02*
X013760Y002759D01*
X013248Y002759D01*
X013248Y002897D01*
X013760Y002897D01*
X013760Y002857D02*
X013248Y002857D01*
X013760Y002503D02*
X013760Y002365D01*
X013248Y002365D01*
X013248Y002503D01*
X013760Y002503D01*
X013760Y002463D02*
X013248Y002463D01*
X013760Y002110D02*
X013760Y001972D01*
X013248Y001972D01*
X013248Y002110D01*
X013760Y002110D01*
X013760Y002070D02*
X013248Y002070D01*
X013760Y001716D02*
X013760Y001578D01*
X013248Y001578D01*
X013248Y001716D01*
X013760Y001716D01*
X013760Y001676D02*
X013248Y001676D01*
X015334Y001322D02*
X015334Y000948D01*
X014724Y000948D01*
X014724Y001322D01*
X015334Y001322D01*
X015334Y001046D02*
X014724Y001046D01*
X014724Y001144D02*
X015334Y001144D01*
X015334Y001242D02*
X014724Y001242D01*
X015334Y003153D02*
X015334Y003527D01*
X015334Y003153D02*
X014724Y003153D01*
X014724Y003527D01*
X015334Y003527D01*
X015334Y003251D02*
X014724Y003251D01*
X014724Y003349D02*
X015334Y003349D01*
X015334Y003447D02*
X014724Y003447D01*
X015334Y011198D02*
X015334Y011572D01*
X015334Y011198D02*
X014724Y011198D01*
X014724Y011572D01*
X015334Y011572D01*
X015334Y011296D02*
X014724Y011296D01*
X014724Y011394D02*
X015334Y011394D01*
X015334Y011492D02*
X014724Y011492D01*
X013760Y011828D02*
X013760Y011966D01*
X013760Y011828D02*
X013248Y011828D01*
X013248Y011966D01*
X013760Y011966D01*
X013760Y011926D02*
X013248Y011926D01*
X013760Y012222D02*
X013760Y012360D01*
X013760Y012222D02*
X013248Y012222D01*
X013248Y012360D01*
X013760Y012360D01*
X013760Y012320D02*
X013248Y012320D01*
X013760Y012615D02*
X013760Y012753D01*
X013760Y012615D02*
X013248Y012615D01*
X013248Y012753D01*
X013760Y012753D01*
X013760Y012713D02*
X013248Y012713D01*
X013760Y013009D02*
X013760Y013147D01*
X013760Y013009D02*
X013248Y013009D01*
X013248Y013147D01*
X013760Y013147D01*
X013760Y013107D02*
X013248Y013107D01*
X015334Y013403D02*
X015334Y013777D01*
X015334Y013403D02*
X014724Y013403D01*
X014724Y013777D01*
X015334Y013777D01*
X015334Y013501D02*
X014724Y013501D01*
X014724Y013599D02*
X015334Y013599D01*
X015334Y013697D02*
X014724Y013697D01*
D18*
X006988Y011220D02*
X006988Y011006D01*
X006988Y011220D02*
X007202Y011220D01*
X007202Y011006D01*
X006988Y011006D01*
X006988Y011106D02*
X007202Y011106D01*
X007202Y011206D02*
X006988Y011206D01*
X006398Y011220D02*
X006398Y011006D01*
X006398Y011220D02*
X006612Y011220D01*
X006612Y011006D01*
X006398Y011006D01*
X006398Y011106D02*
X006612Y011106D01*
X006612Y011206D02*
X006398Y011206D01*
X005827Y011220D02*
X005827Y011006D01*
X005613Y011006D01*
X005613Y011220D01*
X005827Y011220D01*
X005827Y011106D02*
X005613Y011106D01*
X005613Y011206D02*
X005827Y011206D01*
X005237Y011220D02*
X005237Y011006D01*
X005023Y011006D01*
X005023Y011220D01*
X005237Y011220D01*
X005237Y011106D02*
X005023Y011106D01*
X005023Y011206D02*
X005237Y011206D01*
X004222Y013257D02*
X004222Y013787D01*
X004222Y013257D02*
X003378Y013257D01*
X003378Y013787D01*
X004222Y013787D01*
X004222Y013357D02*
X003378Y013357D01*
X003378Y013457D02*
X004222Y013457D01*
X004222Y013557D02*
X003378Y013557D01*
X003378Y013657D02*
X004222Y013657D01*
X004222Y013757D02*
X003378Y013757D01*
X003378Y014438D02*
X003378Y014968D01*
X004222Y014968D01*
X004222Y014438D01*
X003378Y014438D01*
X003378Y014538D02*
X004222Y014538D01*
X004222Y014638D02*
X003378Y014638D01*
X003378Y014738D02*
X004222Y014738D01*
X004222Y014838D02*
X003378Y014838D01*
X003378Y014938D02*
X004222Y014938D01*
X004222Y016132D02*
X004222Y016662D01*
X004222Y016132D02*
X003378Y016132D01*
X003378Y016662D01*
X004222Y016662D01*
X004222Y016232D02*
X003378Y016232D01*
X003378Y016332D02*
X004222Y016332D01*
X004222Y016432D02*
X003378Y016432D01*
X003378Y016532D02*
X004222Y016532D01*
X004222Y016632D02*
X003378Y016632D01*
X003378Y017313D02*
X003378Y017843D01*
X004222Y017843D01*
X004222Y017313D01*
X003378Y017313D01*
X003378Y017413D02*
X004222Y017413D01*
X004222Y017513D02*
X003378Y017513D01*
X003378Y017613D02*
X004222Y017613D01*
X004222Y017713D02*
X003378Y017713D01*
X003378Y017813D02*
X004222Y017813D01*
X003378Y007593D02*
X003378Y007063D01*
X003378Y007593D02*
X004222Y007593D01*
X004222Y007063D01*
X003378Y007063D01*
X003378Y007163D02*
X004222Y007163D01*
X004222Y007263D02*
X003378Y007263D01*
X003378Y007363D02*
X004222Y007363D01*
X004222Y007463D02*
X003378Y007463D01*
X003378Y007563D02*
X004222Y007563D01*
X004222Y006412D02*
X004222Y005882D01*
X003378Y005882D01*
X003378Y006412D01*
X004222Y006412D01*
X004222Y005982D02*
X003378Y005982D01*
X003378Y006082D02*
X004222Y006082D01*
X004222Y006182D02*
X003378Y006182D01*
X003378Y006282D02*
X004222Y006282D01*
X004222Y006382D02*
X003378Y006382D01*
X003378Y004718D02*
X003378Y004188D01*
X003378Y004718D02*
X004222Y004718D01*
X004222Y004188D01*
X003378Y004188D01*
X003378Y004288D02*
X004222Y004288D01*
X004222Y004388D02*
X003378Y004388D01*
X003378Y004488D02*
X004222Y004488D01*
X004222Y004588D02*
X003378Y004588D01*
X003378Y004688D02*
X004222Y004688D01*
X004222Y003537D02*
X004222Y003007D01*
X003378Y003007D01*
X003378Y003537D01*
X004222Y003537D01*
X004222Y003107D02*
X003378Y003107D01*
X003378Y003207D02*
X004222Y003207D01*
X004222Y003307D02*
X003378Y003307D01*
X003378Y003407D02*
X004222Y003407D01*
X004222Y003507D02*
X003378Y003507D01*
X005237Y000970D02*
X005237Y000756D01*
X005023Y000756D01*
X005023Y000970D01*
X005237Y000970D01*
X005237Y000856D02*
X005023Y000856D01*
X005023Y000956D02*
X005237Y000956D01*
X005827Y000970D02*
X005827Y000756D01*
X005613Y000756D01*
X005613Y000970D01*
X005827Y000970D01*
X005827Y000856D02*
X005613Y000856D01*
X005613Y000956D02*
X005827Y000956D01*
X006398Y000970D02*
X006398Y000756D01*
X006398Y000970D02*
X006612Y000970D01*
X006612Y000756D01*
X006398Y000756D01*
X006398Y000856D02*
X006612Y000856D01*
X006612Y000956D02*
X006398Y000956D01*
X006988Y000970D02*
X006988Y000756D01*
X006988Y000970D02*
X007202Y000970D01*
X007202Y000756D01*
X006988Y000756D01*
X006988Y000856D02*
X007202Y000856D01*
X007202Y000956D02*
X006988Y000956D01*
D19*
X004188Y000921D02*
X004188Y000805D01*
X004188Y000921D02*
X004560Y000921D01*
X004560Y000805D01*
X004188Y000805D01*
X004188Y000904D02*
X004560Y000904D01*
X004188Y001554D02*
X004188Y001670D01*
X004560Y001670D01*
X004560Y001554D01*
X004188Y001554D01*
X004188Y001653D02*
X004560Y001653D01*
X003165Y001670D02*
X003165Y001554D01*
X003165Y001670D02*
X003537Y001670D01*
X003537Y001554D01*
X003165Y001554D01*
X003165Y001653D02*
X003537Y001653D01*
X003165Y001296D02*
X003165Y001180D01*
X003165Y001296D02*
X003537Y001296D01*
X003537Y001180D01*
X003165Y001180D01*
X003165Y001279D02*
X003537Y001279D01*
X003165Y000921D02*
X003165Y000805D01*
X003165Y000921D02*
X003537Y000921D01*
X003537Y000805D01*
X003165Y000805D01*
X003165Y000904D02*
X003537Y000904D01*
X003165Y011055D02*
X003165Y011171D01*
X003537Y011171D01*
X003537Y011055D01*
X003165Y011055D01*
X003165Y011154D02*
X003537Y011154D01*
X003165Y011430D02*
X003165Y011546D01*
X003537Y011546D01*
X003537Y011430D01*
X003165Y011430D01*
X003165Y011529D02*
X003537Y011529D01*
X003165Y011804D02*
X003165Y011920D01*
X003537Y011920D01*
X003537Y011804D01*
X003165Y011804D01*
X003165Y011903D02*
X003537Y011903D01*
X004188Y011920D02*
X004188Y011804D01*
X004188Y011920D02*
X004560Y011920D01*
X004560Y011804D01*
X004188Y011804D01*
X004188Y011903D02*
X004560Y011903D01*
X004188Y011171D02*
X004188Y011055D01*
X004188Y011171D02*
X004560Y011171D01*
X004560Y011055D01*
X004188Y011055D01*
X004188Y011154D02*
X004560Y011154D01*
D20*
X002775Y014628D02*
X002395Y014628D01*
X002395Y015408D01*
X002775Y015408D01*
X002775Y014628D01*
X002775Y014728D02*
X002395Y014728D01*
X002395Y014828D02*
X002775Y014828D01*
X002775Y014928D02*
X002395Y014928D01*
X002395Y015028D02*
X002775Y015028D01*
X002775Y015128D02*
X002395Y015128D01*
X002395Y015228D02*
X002775Y015228D01*
X002775Y015328D02*
X002395Y015328D01*
X001865Y014628D02*
X001485Y014628D01*
X001485Y015408D01*
X001865Y015408D01*
X001865Y014628D01*
X001865Y014728D02*
X001485Y014728D01*
X001485Y014828D02*
X001865Y014828D01*
X001865Y014928D02*
X001485Y014928D01*
X001485Y015028D02*
X001865Y015028D01*
X001865Y015128D02*
X001485Y015128D01*
X001485Y015228D02*
X001865Y015228D01*
X001865Y015328D02*
X001485Y015328D01*
X000955Y014628D02*
X000575Y014628D01*
X000575Y015408D01*
X000955Y015408D01*
X000955Y014628D01*
X000955Y014728D02*
X000575Y014728D01*
X000575Y014828D02*
X000955Y014828D01*
X000955Y014928D02*
X000575Y014928D01*
X000575Y015028D02*
X000955Y015028D01*
X000955Y015128D02*
X000575Y015128D01*
X000575Y015228D02*
X000955Y015228D01*
X000955Y015328D02*
X000575Y015328D01*
X000575Y004378D02*
X000955Y004378D01*
X000575Y004378D02*
X000575Y005158D01*
X000955Y005158D01*
X000955Y004378D01*
X000955Y004478D02*
X000575Y004478D01*
X000575Y004578D02*
X000955Y004578D01*
X000955Y004678D02*
X000575Y004678D01*
X000575Y004778D02*
X000955Y004778D01*
X000955Y004878D02*
X000575Y004878D01*
X000575Y004978D02*
X000955Y004978D01*
X000955Y005078D02*
X000575Y005078D01*
X001485Y004378D02*
X001865Y004378D01*
X001485Y004378D02*
X001485Y005158D01*
X001865Y005158D01*
X001865Y004378D01*
X001865Y004478D02*
X001485Y004478D01*
X001485Y004578D02*
X001865Y004578D01*
X001865Y004678D02*
X001485Y004678D01*
X001485Y004778D02*
X001865Y004778D01*
X001865Y004878D02*
X001485Y004878D01*
X001485Y004978D02*
X001865Y004978D01*
X001865Y005078D02*
X001485Y005078D01*
X002395Y004378D02*
X002775Y004378D01*
X002395Y004378D02*
X002395Y005158D01*
X002775Y005158D01*
X002775Y004378D01*
X002775Y004478D02*
X002395Y004478D01*
X002395Y004578D02*
X002775Y004578D01*
X002775Y004678D02*
X002395Y004678D01*
X002395Y004778D02*
X002775Y004778D01*
X002775Y004878D02*
X002395Y004878D01*
X002395Y004978D02*
X002775Y004978D01*
X002775Y005078D02*
X002395Y005078D01*
D21*
X002318Y006840D02*
X001032Y006840D01*
X001032Y007576D01*
X002318Y007576D01*
X002318Y006840D01*
X002318Y006969D02*
X001032Y006969D01*
X001032Y007098D02*
X002318Y007098D01*
X002318Y007227D02*
X001032Y007227D01*
X001032Y007356D02*
X002318Y007356D01*
X002318Y007485D02*
X001032Y007485D01*
X001032Y017090D02*
X002318Y017090D01*
X001032Y017090D02*
X001032Y017826D01*
X002318Y017826D01*
X002318Y017090D01*
X002318Y017219D02*
X001032Y017219D01*
X001032Y017348D02*
X002318Y017348D01*
X002318Y017477D02*
X001032Y017477D01*
X001032Y017606D02*
X002318Y017606D01*
X002318Y017735D02*
X001032Y017735D01*
M02*
