G75*
%MOIN*%
%OFA0B0*%
%FSLAX24Y24*%
%IPPOS*%
%LPD*%
%AMOC8*
5,1,8,0,0,1.08239X$1,22.5*
%
%ADD10C,0.0000*%
%ADD11R,0.1750X0.1000*%
%ADD12C,0.0780*%
%ADD13OC8,0.0480*%
%ADD14C,0.0110*%
%ADD15C,0.0120*%
D10*
X000425Y000238D02*
X015425Y000238D01*
X015455Y000240D01*
X015485Y000245D01*
X015514Y000254D01*
X015541Y000267D01*
X015567Y000282D01*
X015591Y000301D01*
X015612Y000322D01*
X015631Y000346D01*
X015646Y000372D01*
X015659Y000399D01*
X015668Y000428D01*
X015673Y000458D01*
X015675Y000488D01*
X015675Y007738D01*
X015673Y007768D01*
X015668Y007798D01*
X015659Y007827D01*
X015646Y007854D01*
X015631Y007880D01*
X015612Y007904D01*
X015591Y007925D01*
X015567Y007944D01*
X015541Y007959D01*
X015514Y007972D01*
X015485Y007981D01*
X015455Y007986D01*
X015425Y007988D01*
X010425Y007988D01*
X010371Y007990D01*
X010318Y007996D01*
X010266Y008005D01*
X010214Y008018D01*
X010163Y008035D01*
X010113Y008056D01*
X010066Y008080D01*
X010020Y008107D01*
X009976Y008138D01*
X009934Y008171D01*
X009895Y008208D01*
X009858Y008247D01*
X009825Y008289D01*
X009794Y008333D01*
X009767Y008379D01*
X009743Y008426D01*
X009722Y008476D01*
X009705Y008527D01*
X009692Y008579D01*
X009683Y008631D01*
X009677Y008684D01*
X009675Y008738D01*
X009675Y009738D01*
X009677Y009792D01*
X009683Y009845D01*
X009692Y009897D01*
X009705Y009949D01*
X009722Y010000D01*
X009743Y010050D01*
X009767Y010097D01*
X009794Y010143D01*
X009825Y010187D01*
X009858Y010229D01*
X009895Y010268D01*
X009934Y010305D01*
X009976Y010338D01*
X010020Y010369D01*
X010066Y010396D01*
X010113Y010420D01*
X010163Y010441D01*
X010214Y010458D01*
X010266Y010471D01*
X010318Y010480D01*
X010371Y010486D01*
X010425Y010488D01*
X015425Y010488D01*
X015455Y010490D01*
X015485Y010495D01*
X015514Y010504D01*
X015541Y010517D01*
X015567Y010532D01*
X015591Y010551D01*
X015612Y010572D01*
X015631Y010596D01*
X015646Y010622D01*
X015659Y010649D01*
X015668Y010678D01*
X015673Y010708D01*
X015675Y010738D01*
X015675Y017988D01*
X015673Y018018D01*
X015668Y018048D01*
X015659Y018077D01*
X015646Y018104D01*
X015631Y018130D01*
X015612Y018154D01*
X015591Y018175D01*
X015567Y018194D01*
X015541Y018209D01*
X015514Y018222D01*
X015485Y018231D01*
X015455Y018236D01*
X015425Y018238D01*
X000425Y018238D01*
X000395Y018236D01*
X000365Y018231D01*
X000336Y018222D01*
X000309Y018209D01*
X000283Y018194D01*
X000259Y018175D01*
X000238Y018154D01*
X000219Y018130D01*
X000204Y018104D01*
X000191Y018077D01*
X000182Y018048D01*
X000177Y018018D01*
X000175Y017988D01*
X000175Y010738D01*
X000177Y010708D01*
X000182Y010678D01*
X000191Y010649D01*
X000204Y010622D01*
X000219Y010596D01*
X000238Y010572D01*
X000259Y010551D01*
X000283Y010532D01*
X000309Y010517D01*
X000336Y010504D01*
X000365Y010495D01*
X000395Y010490D01*
X000425Y010488D01*
X005425Y010488D01*
X005479Y010486D01*
X005532Y010480D01*
X005584Y010471D01*
X005636Y010458D01*
X005687Y010441D01*
X005737Y010420D01*
X005784Y010396D01*
X005830Y010369D01*
X005874Y010338D01*
X005916Y010305D01*
X005955Y010268D01*
X005992Y010229D01*
X006025Y010187D01*
X006056Y010143D01*
X006083Y010097D01*
X006107Y010050D01*
X006128Y010000D01*
X006145Y009949D01*
X006158Y009897D01*
X006167Y009845D01*
X006173Y009792D01*
X006175Y009738D01*
X006175Y008738D01*
X006173Y008684D01*
X006167Y008631D01*
X006158Y008579D01*
X006145Y008527D01*
X006128Y008476D01*
X006107Y008426D01*
X006083Y008379D01*
X006056Y008333D01*
X006025Y008289D01*
X005992Y008247D01*
X005955Y008208D01*
X005916Y008171D01*
X005874Y008138D01*
X005830Y008107D01*
X005784Y008080D01*
X005737Y008056D01*
X005687Y008035D01*
X005636Y008018D01*
X005584Y008005D01*
X005532Y007996D01*
X005479Y007990D01*
X005425Y007988D01*
X000425Y007988D01*
X000395Y007986D01*
X000365Y007981D01*
X000336Y007972D01*
X000309Y007959D01*
X000283Y007944D01*
X000259Y007925D01*
X000238Y007904D01*
X000219Y007880D01*
X000204Y007854D01*
X000191Y007827D01*
X000182Y007798D01*
X000177Y007768D01*
X000175Y007738D01*
X000175Y000488D01*
X000177Y000458D01*
X000182Y000428D01*
X000191Y000399D01*
X000204Y000372D01*
X000219Y000346D01*
X000238Y000322D01*
X000259Y000301D01*
X000283Y000282D01*
X000309Y000267D01*
X000336Y000254D01*
X000365Y000245D01*
X000395Y000240D01*
X000425Y000238D01*
D11*
X001113Y001363D03*
X001113Y003113D03*
X001113Y011613D03*
X001113Y013363D03*
X012738Y014175D03*
X012738Y011175D03*
X012738Y003925D03*
X012738Y000925D03*
D12*
X014363Y004613D03*
X014363Y005613D03*
X014363Y006613D03*
X014363Y014863D03*
X014363Y015863D03*
X014363Y016863D03*
D13*
X007675Y017738D03*
X007125Y017738D03*
X006575Y017738D03*
X006025Y017738D03*
X006025Y007488D03*
X006575Y007488D03*
X007125Y007488D03*
X007675Y007488D03*
D14*
X003358Y004018D02*
X002968Y004018D01*
X003358Y004018D02*
X003358Y003458D01*
X002968Y003458D01*
X002968Y004018D01*
X002968Y003567D02*
X003358Y003567D01*
X003358Y003676D02*
X002968Y003676D01*
X002968Y003785D02*
X003358Y003785D01*
X003358Y003894D02*
X002968Y003894D01*
X002968Y004003D02*
X003358Y004003D01*
X002758Y004018D02*
X002368Y004018D01*
X002758Y004018D02*
X002758Y003458D01*
X002368Y003458D01*
X002368Y004018D01*
X002368Y003567D02*
X002758Y003567D01*
X002758Y003676D02*
X002368Y003676D01*
X002368Y003785D02*
X002758Y003785D01*
X002758Y003894D02*
X002368Y003894D01*
X002368Y004003D02*
X002758Y004003D01*
X002758Y014268D02*
X002368Y014268D01*
X002758Y014268D02*
X002758Y013708D01*
X002368Y013708D01*
X002368Y014268D01*
X002368Y013817D02*
X002758Y013817D01*
X002758Y013926D02*
X002368Y013926D01*
X002368Y014035D02*
X002758Y014035D01*
X002758Y014144D02*
X002368Y014144D01*
X002368Y014253D02*
X002758Y014253D01*
X002968Y014268D02*
X003358Y014268D01*
X003358Y013708D01*
X002968Y013708D01*
X002968Y014268D01*
X002968Y013817D02*
X003358Y013817D01*
X003358Y013926D02*
X002968Y013926D01*
X002968Y014035D02*
X003358Y014035D01*
X003358Y014144D02*
X002968Y014144D01*
X002968Y014253D02*
X003358Y014253D01*
X012130Y012895D02*
X012520Y012895D01*
X012130Y012895D02*
X012130Y013455D01*
X012520Y013455D01*
X012520Y012895D01*
X012520Y013004D02*
X012130Y013004D01*
X012130Y013113D02*
X012520Y013113D01*
X012520Y013222D02*
X012130Y013222D01*
X012130Y013331D02*
X012520Y013331D01*
X012520Y013440D02*
X012130Y013440D01*
X012730Y012895D02*
X013120Y012895D01*
X012730Y012895D02*
X012730Y013455D01*
X013120Y013455D01*
X013120Y012895D01*
X013120Y013004D02*
X012730Y013004D01*
X012730Y013113D02*
X013120Y013113D01*
X013120Y013222D02*
X012730Y013222D01*
X012730Y013331D02*
X013120Y013331D01*
X013120Y013440D02*
X012730Y013440D01*
X013330Y012895D02*
X013720Y012895D01*
X013330Y012895D02*
X013330Y013455D01*
X013720Y013455D01*
X013720Y012895D01*
X013720Y013004D02*
X013330Y013004D01*
X013330Y013113D02*
X013720Y013113D01*
X013720Y013222D02*
X013330Y013222D01*
X013330Y013331D02*
X013720Y013331D01*
X013720Y013440D02*
X013330Y013440D01*
X013330Y002645D02*
X013720Y002645D01*
X013330Y002645D02*
X013330Y003205D01*
X013720Y003205D01*
X013720Y002645D01*
X013720Y002754D02*
X013330Y002754D01*
X013330Y002863D02*
X013720Y002863D01*
X013720Y002972D02*
X013330Y002972D01*
X013330Y003081D02*
X013720Y003081D01*
X013720Y003190D02*
X013330Y003190D01*
X013120Y002645D02*
X012730Y002645D01*
X012730Y003205D01*
X013120Y003205D01*
X013120Y002645D01*
X013120Y002754D02*
X012730Y002754D01*
X012730Y002863D02*
X013120Y002863D01*
X013120Y002972D02*
X012730Y002972D01*
X012730Y003081D02*
X013120Y003081D01*
X013120Y003190D02*
X012730Y003190D01*
X012520Y002645D02*
X012130Y002645D01*
X012130Y003205D01*
X012520Y003205D01*
X012520Y002645D01*
X012520Y002754D02*
X012130Y002754D01*
X012130Y002863D02*
X012520Y002863D01*
X012520Y002972D02*
X012130Y002972D01*
X012130Y003081D02*
X012520Y003081D01*
X012520Y003190D02*
X012130Y003190D01*
D15*
X008960Y005903D02*
X008960Y006023D01*
X008960Y005903D02*
X008640Y005903D01*
X008640Y006023D01*
X008960Y006023D01*
X008960Y006022D02*
X008640Y006022D01*
X008960Y006203D02*
X008960Y006323D01*
X008960Y006203D02*
X008640Y006203D01*
X008640Y006323D01*
X008960Y006323D01*
X008960Y006322D02*
X008640Y006322D01*
X008273Y006323D02*
X008273Y006203D01*
X007953Y006203D01*
X007953Y006323D01*
X008273Y006323D01*
X008273Y006322D02*
X007953Y006322D01*
X008273Y006023D02*
X008273Y005903D01*
X007953Y005903D01*
X007953Y006023D01*
X008273Y006023D01*
X008273Y006022D02*
X007953Y006022D01*
X008273Y016153D02*
X008273Y016273D01*
X008273Y016153D02*
X007953Y016153D01*
X007953Y016273D01*
X008273Y016273D01*
X008273Y016272D02*
X007953Y016272D01*
X008273Y016453D02*
X008273Y016573D01*
X008273Y016453D02*
X007953Y016453D01*
X007953Y016573D01*
X008273Y016573D01*
X008273Y016572D02*
X007953Y016572D01*
X008960Y016573D02*
X008960Y016453D01*
X008640Y016453D01*
X008640Y016573D01*
X008960Y016573D01*
X008960Y016572D02*
X008640Y016572D01*
X008960Y016273D02*
X008960Y016153D01*
X008640Y016153D01*
X008640Y016273D01*
X008960Y016273D01*
X008960Y016272D02*
X008640Y016272D01*
M02*
