%
M48
M72
T01C0.0120
T02C0.0157
T03C0.0236
T04C0.0240
T05C0.0400
%
T01
X2863Y1988
X2863Y2300
X1175Y4050
X863Y3925
X5425Y3488
X5550Y3988
X5550Y4456
X5550Y5144
X5550Y5863
X6081Y6863
X7113Y5738
X7550Y5738
X7550Y5300
X7550Y4863
X7113Y4863
X7113Y5300
X6675Y5300
X6675Y4863
X7488Y3738
X7331Y3456
X8269Y3894
X8581Y3894
X8644Y4456
X8644Y4800
X9081Y5394
X8331Y6769
X7675Y6863
X7363Y6863
X2863Y12238
X2863Y12550
X1175Y14300
X863Y14175
X5425Y13738
X5550Y14238
X5550Y14706
X5550Y15394
X5550Y16113
X6081Y17113
X7113Y15988
X7550Y15988
X7550Y15550
X7550Y15113
X7113Y15113
X7113Y15550
X6675Y15550
X6675Y15113
X7488Y13988
X7331Y13706
X8269Y14144
X8581Y14144
X8644Y14706
X8644Y15050
X9081Y15644
X8331Y17019
X7675Y17113
X7363Y17113
X13988Y12613
X13988Y12300
X13988Y2363
X13988Y2050
T02
X2175Y1238
X2488Y1238
X2800Y1238
X3488Y1925
X3800Y1925
X2831Y3175
X2519Y3175
X2206Y3175
X3488Y4300
X3800Y4300
X4113Y4300
X4113Y7175
X3800Y7175
X3488Y7175
X738Y5925
X738Y5550
X2175Y11488
X2488Y11488
X2800Y11488
X3488Y12175
X3800Y12175
X2831Y13425
X2519Y13425
X2206Y13425
X3488Y14550
X3800Y14550
X4113Y14550
X4113Y17425
X3800Y17425
X3488Y17425
X738Y16175
X738Y15800
X6113Y11425
X8113Y11675
X8425Y11675
X8738Y11675
X8738Y13019
X8425Y13019
X8113Y13019
X10363Y13081
X10675Y13675
X10925Y13988
X11175Y14300
X10675Y14300
X11175Y13675
X10925Y13081
X11488Y13081
X11175Y12050
X10925Y11738
X11175Y11425
X10675Y11425
X10675Y12050
X12925Y12300
X12925Y12613
X14019Y13300
X14019Y13613
X15175Y14363
X15175Y15363
X15175Y16363
X15175Y17363
X11488Y17581
X10925Y17581
X10363Y17581
X10675Y16550
X10925Y16238
X11175Y16550
X11175Y15925
X10675Y15925
X10925Y15331
X11488Y15331
X10363Y15331
X10363Y7331
X10925Y7331
X11488Y7331
X11175Y6300
X10925Y5988
X10675Y6300
X10675Y5675
X11175Y5675
X10925Y5081
X11488Y5081
X11175Y4050
X10925Y3738
X10675Y4050
X10675Y3425
X11175Y3425
X10925Y2831
X11488Y2831
X11175Y1800
X10925Y1488
X10675Y1800
X10675Y1175
X11175Y1175
X10363Y2831
X8738Y2769
X8425Y2769
X8113Y2769
X8113Y1425
X8425Y1425
X8738Y1425
X6113Y1175
X10363Y5081
X12925Y2363
X12925Y2050
X14019Y3050
X14019Y3363
X15175Y4113
X15175Y5113
X15175Y6113
X15175Y7113
T03
X2581Y5925
X2581Y5550
X2581Y15800
X2581Y16175
T04
X6025Y17738
X6575Y17738
X7125Y17738
X7675Y17738
X7675Y7488
X7125Y7488
X6575Y7488
X6025Y7488
T05
X14363Y6613
X14363Y5613
X14363Y4613
X14363Y14863
X14363Y15863
X14363Y16863
M30
