G75*
%MOIN*%
%OFA0B0*%
%FSLAX24Y24*%
%IPPOS*%
%LPD*%
%AMOC8*
5,1,8,0,0,1.08239X$1,22.5*
%
%ADD10C,0.0000*%
%ADD11C,0.0060*%
%ADD12C,0.0080*%
%ADD13C,0.0150*%
%ADD14C,0.0050*%
%ADD15C,0.0100*%
%ADD16R,0.0098X0.0098*%
D10*
X000425Y000238D02*
X015425Y000238D01*
X015455Y000240D01*
X015485Y000245D01*
X015514Y000254D01*
X015541Y000267D01*
X015567Y000282D01*
X015591Y000301D01*
X015612Y000322D01*
X015631Y000346D01*
X015646Y000372D01*
X015659Y000399D01*
X015668Y000428D01*
X015673Y000458D01*
X015675Y000488D01*
X015675Y007738D01*
X015673Y007768D01*
X015668Y007798D01*
X015659Y007827D01*
X015646Y007854D01*
X015631Y007880D01*
X015612Y007904D01*
X015591Y007925D01*
X015567Y007944D01*
X015541Y007959D01*
X015514Y007972D01*
X015485Y007981D01*
X015455Y007986D01*
X015425Y007988D01*
X010425Y007988D01*
X010371Y007990D01*
X010318Y007996D01*
X010266Y008005D01*
X010214Y008018D01*
X010163Y008035D01*
X010113Y008056D01*
X010066Y008080D01*
X010020Y008107D01*
X009976Y008138D01*
X009934Y008171D01*
X009895Y008208D01*
X009858Y008247D01*
X009825Y008289D01*
X009794Y008333D01*
X009767Y008379D01*
X009743Y008426D01*
X009722Y008476D01*
X009705Y008527D01*
X009692Y008579D01*
X009683Y008631D01*
X009677Y008684D01*
X009675Y008738D01*
X009675Y009738D01*
X009677Y009792D01*
X009683Y009845D01*
X009692Y009897D01*
X009705Y009949D01*
X009722Y010000D01*
X009743Y010050D01*
X009767Y010097D01*
X009794Y010143D01*
X009825Y010187D01*
X009858Y010229D01*
X009895Y010268D01*
X009934Y010305D01*
X009976Y010338D01*
X010020Y010369D01*
X010066Y010396D01*
X010113Y010420D01*
X010163Y010441D01*
X010214Y010458D01*
X010266Y010471D01*
X010318Y010480D01*
X010371Y010486D01*
X010425Y010488D01*
X015425Y010488D01*
X015455Y010490D01*
X015485Y010495D01*
X015514Y010504D01*
X015541Y010517D01*
X015567Y010532D01*
X015591Y010551D01*
X015612Y010572D01*
X015631Y010596D01*
X015646Y010622D01*
X015659Y010649D01*
X015668Y010678D01*
X015673Y010708D01*
X015675Y010738D01*
X015675Y017988D01*
X015673Y018018D01*
X015668Y018048D01*
X015659Y018077D01*
X015646Y018104D01*
X015631Y018130D01*
X015612Y018154D01*
X015591Y018175D01*
X015567Y018194D01*
X015541Y018209D01*
X015514Y018222D01*
X015485Y018231D01*
X015455Y018236D01*
X015425Y018238D01*
X000425Y018238D01*
X000395Y018236D01*
X000365Y018231D01*
X000336Y018222D01*
X000309Y018209D01*
X000283Y018194D01*
X000259Y018175D01*
X000238Y018154D01*
X000219Y018130D01*
X000204Y018104D01*
X000191Y018077D01*
X000182Y018048D01*
X000177Y018018D01*
X000175Y017988D01*
X000175Y010738D01*
X000177Y010708D01*
X000182Y010678D01*
X000191Y010649D01*
X000204Y010622D01*
X000219Y010596D01*
X000238Y010572D01*
X000259Y010551D01*
X000283Y010532D01*
X000309Y010517D01*
X000336Y010504D01*
X000365Y010495D01*
X000395Y010490D01*
X000425Y010488D01*
X005425Y010488D01*
X005479Y010486D01*
X005532Y010480D01*
X005584Y010471D01*
X005636Y010458D01*
X005687Y010441D01*
X005737Y010420D01*
X005784Y010396D01*
X005830Y010369D01*
X005874Y010338D01*
X005916Y010305D01*
X005955Y010268D01*
X005992Y010229D01*
X006025Y010187D01*
X006056Y010143D01*
X006083Y010097D01*
X006107Y010050D01*
X006128Y010000D01*
X006145Y009949D01*
X006158Y009897D01*
X006167Y009845D01*
X006173Y009792D01*
X006175Y009738D01*
X006175Y008738D01*
X006173Y008684D01*
X006167Y008631D01*
X006158Y008579D01*
X006145Y008527D01*
X006128Y008476D01*
X006107Y008426D01*
X006083Y008379D01*
X006056Y008333D01*
X006025Y008289D01*
X005992Y008247D01*
X005955Y008208D01*
X005916Y008171D01*
X005874Y008138D01*
X005830Y008107D01*
X005784Y008080D01*
X005737Y008056D01*
X005687Y008035D01*
X005636Y008018D01*
X005584Y008005D01*
X005532Y007996D01*
X005479Y007990D01*
X005425Y007988D01*
X000425Y007988D01*
X000395Y007986D01*
X000365Y007981D01*
X000336Y007972D01*
X000309Y007959D01*
X000283Y007944D01*
X000259Y007925D01*
X000238Y007904D01*
X000219Y007880D01*
X000204Y007854D01*
X000191Y007827D01*
X000182Y007798D01*
X000177Y007768D01*
X000175Y007738D01*
X000175Y000488D01*
X000177Y000458D01*
X000182Y000428D01*
X000191Y000399D01*
X000204Y000372D01*
X000219Y000346D01*
X000238Y000322D01*
X000259Y000301D01*
X000283Y000282D01*
X000309Y000267D01*
X000336Y000254D01*
X000365Y000245D01*
X000395Y000240D01*
X000425Y000238D01*
D11*
X002455Y000457D02*
X002512Y000400D01*
X002739Y000400D01*
X002795Y000457D01*
X002795Y000627D01*
X002455Y000627D01*
X002455Y000457D01*
X002455Y000769D02*
X002795Y000769D01*
X002795Y000995D02*
X002455Y000769D01*
X002455Y000995D02*
X002795Y000995D01*
X002739Y001137D02*
X002795Y001194D01*
X002795Y001307D01*
X002739Y001364D01*
X002512Y001364D01*
X002455Y001307D01*
X002455Y001194D01*
X002512Y001137D01*
X002625Y001137D01*
X002625Y001250D01*
X002768Y001550D02*
X002994Y001777D01*
X003108Y001918D02*
X003108Y002145D01*
X003108Y002032D02*
X002768Y002032D01*
X002768Y002362D02*
X002994Y002589D01*
X002938Y002731D02*
X002881Y002787D01*
X002881Y002958D01*
X002768Y002958D02*
X003108Y002958D01*
X003108Y002787D01*
X003051Y002731D01*
X002938Y002731D01*
X002881Y002844D02*
X002768Y002731D01*
X002768Y002589D02*
X002994Y002362D01*
X002768Y001777D02*
X002994Y001550D01*
X002739Y003150D02*
X002795Y003207D01*
X002795Y003320D01*
X002739Y003377D01*
X002512Y003377D01*
X002455Y003320D01*
X002455Y003207D01*
X002512Y003150D01*
X002512Y003519D02*
X002455Y003575D01*
X002455Y003689D01*
X002512Y003745D01*
X002739Y003745D01*
X002795Y003689D01*
X002795Y003575D01*
X002739Y003519D01*
X002795Y003887D02*
X002568Y003887D01*
X002455Y004000D01*
X002568Y004114D01*
X002795Y004114D01*
X003269Y003769D02*
X003269Y003675D01*
X004331Y003675D01*
X004331Y003769D01*
X003269Y003769D01*
X003269Y006550D02*
X003269Y006644D01*
X004331Y006644D01*
X004331Y006550D01*
X003269Y006550D01*
X006213Y006861D02*
X006269Y006805D01*
X006440Y006805D01*
X006440Y007145D01*
X006269Y007145D01*
X006213Y007088D01*
X006213Y006861D01*
X006581Y006805D02*
X006581Y007145D01*
X006695Y007032D01*
X006808Y007145D01*
X006808Y006805D01*
X006949Y006861D02*
X007006Y006805D01*
X007120Y006805D01*
X007176Y006861D01*
X007176Y006918D01*
X007120Y006975D01*
X007006Y006975D01*
X006949Y007032D01*
X006949Y007088D01*
X007006Y007145D01*
X007120Y007145D01*
X007176Y007088D01*
X010075Y007238D02*
X010075Y005238D01*
X011775Y005238D01*
X011775Y007238D01*
X011125Y007238D01*
X011125Y007158D01*
X010725Y007158D01*
X010725Y007238D01*
X011125Y007238D01*
X010725Y007238D02*
X010075Y007238D01*
X010075Y004988D02*
X010725Y004988D01*
X010725Y004908D01*
X011125Y004908D01*
X011125Y004988D01*
X011775Y004988D01*
X011775Y002988D01*
X010075Y002988D01*
X010075Y004988D01*
X010725Y004988D02*
X011125Y004988D01*
X012626Y003427D02*
X012569Y003370D01*
X012569Y003143D01*
X012626Y003086D01*
X012739Y003086D01*
X012796Y003143D01*
X012796Y003256D01*
X012682Y003256D01*
X012796Y003370D02*
X012739Y003427D01*
X012626Y003427D01*
X012937Y003427D02*
X012937Y003086D01*
X013164Y003086D02*
X012937Y003427D01*
X013164Y003427D02*
X013164Y003086D01*
X013305Y003086D02*
X013476Y003086D01*
X013532Y003143D01*
X013532Y003370D01*
X013476Y003427D01*
X013305Y003427D01*
X013305Y003086D01*
X013113Y002588D02*
X012886Y002361D01*
X012886Y002588D02*
X013113Y002361D01*
X013113Y002026D02*
X012886Y001799D01*
X012744Y001799D02*
X012631Y001912D01*
X012688Y001912D02*
X012518Y001912D01*
X012518Y001799D02*
X012518Y002139D01*
X012688Y002139D01*
X012744Y002082D01*
X012744Y001969D01*
X012688Y001912D01*
X012886Y002026D02*
X013113Y001799D01*
X013107Y001364D02*
X012994Y001364D01*
X012937Y001307D01*
X012937Y001080D01*
X012994Y001024D01*
X013107Y001024D01*
X013164Y001080D01*
X013305Y001080D02*
X013362Y001024D01*
X013476Y001024D01*
X013532Y001080D01*
X013305Y001080D02*
X013305Y001307D01*
X013362Y001364D01*
X013476Y001364D01*
X013532Y001307D01*
X013164Y001307D02*
X013107Y001364D01*
X012796Y001364D02*
X012796Y001137D01*
X012682Y001024D01*
X012569Y001137D01*
X012569Y001364D01*
X012631Y002361D02*
X012631Y002702D01*
X012518Y002702D02*
X012744Y002702D01*
X011775Y002738D02*
X011125Y002738D01*
X011125Y002658D01*
X010725Y002658D01*
X010725Y002738D01*
X011125Y002738D01*
X010725Y002738D02*
X010075Y002738D01*
X010075Y000738D01*
X011775Y000738D01*
X011775Y002738D01*
X009019Y002519D02*
X009019Y002425D01*
X007831Y002425D01*
X007831Y002519D01*
X009019Y002519D01*
X002739Y010650D02*
X002512Y010650D01*
X002455Y010707D01*
X002455Y010877D01*
X002795Y010877D01*
X002795Y010707D01*
X002739Y010650D01*
X002795Y011019D02*
X002455Y011019D01*
X002795Y011245D01*
X002455Y011245D01*
X002512Y011387D02*
X002625Y011387D01*
X002625Y011500D01*
X002512Y011387D02*
X002455Y011444D01*
X002455Y011557D01*
X002512Y011614D01*
X002739Y011614D01*
X002795Y011557D01*
X002795Y011444D01*
X002739Y011387D01*
X002768Y011800D02*
X002994Y012027D01*
X003108Y012168D02*
X003108Y012395D01*
X003108Y012282D02*
X002768Y012282D01*
X002768Y012027D02*
X002994Y011800D01*
X002994Y012612D02*
X002768Y012839D01*
X002768Y012981D02*
X002881Y013094D01*
X002881Y013037D02*
X002881Y013208D01*
X002768Y013208D02*
X003108Y013208D01*
X003108Y013037D01*
X003051Y012981D01*
X002938Y012981D01*
X002881Y013037D01*
X002994Y012839D02*
X002768Y012612D01*
X002739Y013400D02*
X002795Y013457D01*
X002795Y013570D01*
X002739Y013627D01*
X002512Y013627D01*
X002455Y013570D01*
X002455Y013457D01*
X002512Y013400D01*
X002512Y013769D02*
X002455Y013825D01*
X002455Y013939D01*
X002512Y013995D01*
X002739Y013995D01*
X002795Y013939D01*
X002795Y013825D01*
X002739Y013769D01*
X002795Y014137D02*
X002568Y014137D01*
X002455Y014250D01*
X002568Y014364D01*
X002795Y014364D01*
X003269Y014019D02*
X003269Y013925D01*
X004331Y013925D01*
X004331Y014019D01*
X003269Y014019D01*
X003269Y016800D02*
X003269Y016894D01*
X004331Y016894D01*
X004331Y016800D01*
X003269Y016800D01*
X006213Y017111D02*
X006269Y017055D01*
X006440Y017055D01*
X006440Y017395D01*
X006269Y017395D01*
X006213Y017338D01*
X006213Y017111D01*
X006581Y017055D02*
X006581Y017395D01*
X006695Y017282D01*
X006808Y017395D01*
X006808Y017055D01*
X006949Y017111D02*
X007006Y017055D01*
X007120Y017055D01*
X007176Y017111D01*
X007176Y017168D01*
X007120Y017225D01*
X007006Y017225D01*
X006949Y017282D01*
X006949Y017338D01*
X007006Y017395D01*
X007120Y017395D01*
X007176Y017338D01*
X010075Y017488D02*
X010075Y015488D01*
X011775Y015488D01*
X011775Y017488D01*
X011125Y017488D01*
X011125Y017408D01*
X010725Y017408D01*
X010725Y017488D01*
X011125Y017488D01*
X010725Y017488D02*
X010075Y017488D01*
X010075Y015238D02*
X010725Y015238D01*
X010725Y015158D01*
X011125Y015158D01*
X011125Y015238D01*
X011775Y015238D01*
X011775Y013238D01*
X010075Y013238D01*
X010075Y015238D01*
X010725Y015238D02*
X011125Y015238D01*
X012626Y013677D02*
X012569Y013620D01*
X012569Y013393D01*
X012626Y013336D01*
X012739Y013336D01*
X012796Y013393D01*
X012796Y013506D01*
X012682Y013506D01*
X012796Y013620D02*
X012739Y013677D01*
X012626Y013677D01*
X012937Y013677D02*
X012937Y013336D01*
X013164Y013336D02*
X012937Y013677D01*
X013164Y013677D02*
X013164Y013336D01*
X013305Y013336D02*
X013476Y013336D01*
X013532Y013393D01*
X013532Y013620D01*
X013476Y013677D01*
X013305Y013677D01*
X013305Y013336D01*
X013113Y012838D02*
X012886Y012611D01*
X012886Y012838D02*
X013113Y012611D01*
X013113Y012276D02*
X012886Y012049D01*
X012744Y012049D02*
X012631Y012162D01*
X012688Y012162D02*
X012518Y012162D01*
X012518Y012049D02*
X012518Y012389D01*
X012688Y012389D01*
X012744Y012332D01*
X012744Y012219D01*
X012688Y012162D01*
X012886Y012276D02*
X013113Y012049D01*
X013107Y011614D02*
X012994Y011614D01*
X012937Y011557D01*
X012937Y011330D01*
X012994Y011274D01*
X013107Y011274D01*
X013164Y011330D01*
X013305Y011330D02*
X013305Y011557D01*
X013362Y011614D01*
X013476Y011614D01*
X013532Y011557D01*
X013532Y011330D02*
X013476Y011274D01*
X013362Y011274D01*
X013305Y011330D01*
X013164Y011557D02*
X013107Y011614D01*
X012796Y011614D02*
X012796Y011387D01*
X012682Y011274D01*
X012569Y011387D01*
X012569Y011614D01*
X012631Y012611D02*
X012631Y012952D01*
X012518Y012952D02*
X012744Y012952D01*
X011775Y012988D02*
X011125Y012988D01*
X011125Y012908D01*
X010725Y012908D01*
X010725Y012988D01*
X011125Y012988D01*
X010725Y012988D02*
X010075Y012988D01*
X010075Y010988D01*
X011775Y010988D01*
X011775Y012988D01*
X009019Y012769D02*
X009019Y012675D01*
X007831Y012675D01*
X007831Y012769D01*
X009019Y012769D01*
D12*
X008294Y014369D02*
X008057Y014369D01*
X008294Y014369D02*
X008294Y014605D01*
X006946Y013681D02*
X006946Y013169D01*
X006168Y014369D02*
X005931Y014605D01*
X005529Y013681D02*
X005529Y013169D01*
X004182Y011593D02*
X004182Y011382D01*
X004032Y010928D02*
X003693Y010928D01*
X001910Y011104D02*
X001910Y010684D01*
X001630Y011104D01*
X001630Y010684D01*
X001463Y010684D02*
X001323Y010684D01*
X001393Y010684D02*
X001393Y011104D01*
X001323Y011104D02*
X001463Y011104D01*
X000385Y006638D02*
X002965Y006638D01*
X002965Y005338D01*
X000385Y005338D01*
X000385Y006638D01*
X004182Y001343D02*
X004182Y001132D01*
X004032Y000678D02*
X003693Y000678D01*
X001910Y000854D02*
X001910Y000434D01*
X001630Y000854D01*
X001630Y000434D01*
X001463Y000434D02*
X001323Y000434D01*
X001393Y000434D02*
X001393Y000854D01*
X001323Y000854D02*
X001463Y000854D01*
X005529Y002919D02*
X005529Y003431D01*
X006168Y004119D02*
X005931Y004355D01*
X006946Y003431D02*
X006946Y002919D01*
X008057Y004119D02*
X008294Y004119D01*
X008294Y004355D01*
X008294Y006245D02*
X008294Y006481D01*
X008057Y006481D01*
X006168Y006481D02*
X005931Y006481D01*
X005931Y006245D01*
X013303Y010754D02*
X013373Y010684D01*
X013513Y010684D01*
X013583Y010754D01*
X013583Y011034D01*
X013513Y011104D01*
X013373Y011104D01*
X013303Y011034D01*
X013303Y010754D01*
X013763Y010754D02*
X013833Y010684D01*
X013973Y010684D01*
X014043Y010754D01*
X014043Y011104D01*
X014223Y011104D02*
X014504Y011104D01*
X014363Y011104D02*
X014363Y010684D01*
X013763Y010754D02*
X013763Y011104D01*
X014113Y014363D02*
X013863Y014613D01*
X013863Y015113D01*
X014113Y015363D01*
X013863Y015613D01*
X013863Y016113D01*
X014113Y016363D01*
X013863Y016613D01*
X013863Y017113D01*
X014113Y017363D01*
X014613Y017363D01*
X014863Y017113D01*
X014863Y016613D01*
X014613Y016363D01*
X014863Y016113D01*
X014863Y015613D01*
X014613Y015363D01*
X014863Y015113D01*
X014863Y014613D01*
X014613Y014363D01*
X014113Y014363D01*
X014996Y015309D02*
X015136Y015449D01*
X014996Y015589D01*
X015416Y015589D01*
X015346Y015769D02*
X015416Y015839D01*
X015416Y015979D01*
X015346Y016049D01*
X015066Y016049D01*
X014996Y015979D01*
X014996Y015839D01*
X015066Y015769D01*
X015346Y015769D01*
X015416Y015309D02*
X014996Y015309D01*
X014996Y016230D02*
X014996Y016510D01*
X014996Y016370D02*
X015416Y016370D01*
X008294Y016495D02*
X008294Y016731D01*
X008057Y016731D01*
X006168Y016731D02*
X005931Y016731D01*
X005931Y016495D01*
X002965Y016888D02*
X002965Y015588D01*
X000385Y015588D01*
X000385Y016888D01*
X002965Y016888D01*
X013863Y006863D02*
X013863Y006363D01*
X014113Y006113D01*
X013863Y005863D01*
X013863Y005363D01*
X014113Y005113D01*
X013863Y004863D01*
X013863Y004363D01*
X014113Y004113D01*
X014613Y004113D01*
X014863Y004363D01*
X014863Y004863D01*
X014613Y005113D01*
X014863Y005363D01*
X014863Y005863D01*
X014613Y006113D01*
X014863Y006363D01*
X014863Y006863D01*
X014613Y007113D01*
X014113Y007113D01*
X013863Y006863D01*
X014996Y006260D02*
X014996Y005980D01*
X014996Y006120D02*
X015416Y006120D01*
X015346Y005799D02*
X015066Y005799D01*
X014996Y005729D01*
X014996Y005589D01*
X015066Y005519D01*
X015346Y005519D01*
X015416Y005589D01*
X015416Y005729D01*
X015346Y005799D01*
X015416Y005339D02*
X014996Y005339D01*
X015136Y005199D01*
X014996Y005059D01*
X015416Y005059D01*
X014504Y000854D02*
X014223Y000854D01*
X014363Y000854D02*
X014363Y000434D01*
X014043Y000504D02*
X014043Y000854D01*
X013763Y000854D02*
X013763Y000504D01*
X013833Y000434D01*
X013973Y000434D01*
X014043Y000504D01*
X013583Y000504D02*
X013583Y000784D01*
X013513Y000854D01*
X013373Y000854D01*
X013303Y000784D01*
X013303Y000504D01*
X013373Y000434D01*
X013513Y000434D01*
X013583Y000504D01*
D13*
X010200Y002563D02*
X010202Y002576D01*
X010207Y002589D01*
X010216Y002600D01*
X010227Y002607D01*
X010240Y002612D01*
X010253Y002613D01*
X010267Y002610D01*
X010279Y002604D01*
X010289Y002595D01*
X010296Y002583D01*
X010300Y002570D01*
X010300Y002556D01*
X010296Y002543D01*
X010289Y002531D01*
X010279Y002522D01*
X010267Y002516D01*
X010253Y002513D01*
X010240Y002514D01*
X010227Y002519D01*
X010216Y002526D01*
X010207Y002537D01*
X010202Y002550D01*
X010200Y002563D01*
X010200Y004813D02*
X010202Y004826D01*
X010207Y004839D01*
X010216Y004850D01*
X010227Y004857D01*
X010240Y004862D01*
X010253Y004863D01*
X010267Y004860D01*
X010279Y004854D01*
X010289Y004845D01*
X010296Y004833D01*
X010300Y004820D01*
X010300Y004806D01*
X010296Y004793D01*
X010289Y004781D01*
X010279Y004772D01*
X010267Y004766D01*
X010253Y004763D01*
X010240Y004764D01*
X010227Y004769D01*
X010216Y004776D01*
X010207Y004787D01*
X010202Y004800D01*
X010200Y004813D01*
X010200Y007063D02*
X010202Y007076D01*
X010207Y007089D01*
X010216Y007100D01*
X010227Y007107D01*
X010240Y007112D01*
X010253Y007113D01*
X010267Y007110D01*
X010279Y007104D01*
X010289Y007095D01*
X010296Y007083D01*
X010300Y007070D01*
X010300Y007056D01*
X010296Y007043D01*
X010289Y007031D01*
X010279Y007022D01*
X010267Y007016D01*
X010253Y007013D01*
X010240Y007014D01*
X010227Y007019D01*
X010216Y007026D01*
X010207Y007037D01*
X010202Y007050D01*
X010200Y007063D01*
X010200Y012813D02*
X010202Y012826D01*
X010207Y012839D01*
X010216Y012850D01*
X010227Y012857D01*
X010240Y012862D01*
X010253Y012863D01*
X010267Y012860D01*
X010279Y012854D01*
X010289Y012845D01*
X010296Y012833D01*
X010300Y012820D01*
X010300Y012806D01*
X010296Y012793D01*
X010289Y012781D01*
X010279Y012772D01*
X010267Y012766D01*
X010253Y012763D01*
X010240Y012764D01*
X010227Y012769D01*
X010216Y012776D01*
X010207Y012787D01*
X010202Y012800D01*
X010200Y012813D01*
X010200Y015063D02*
X010202Y015076D01*
X010207Y015089D01*
X010216Y015100D01*
X010227Y015107D01*
X010240Y015112D01*
X010253Y015113D01*
X010267Y015110D01*
X010279Y015104D01*
X010289Y015095D01*
X010296Y015083D01*
X010300Y015070D01*
X010300Y015056D01*
X010296Y015043D01*
X010289Y015031D01*
X010279Y015022D01*
X010267Y015016D01*
X010253Y015013D01*
X010240Y015014D01*
X010227Y015019D01*
X010216Y015026D01*
X010207Y015037D01*
X010202Y015050D01*
X010200Y015063D01*
X010200Y017313D02*
X010202Y017326D01*
X010207Y017339D01*
X010216Y017350D01*
X010227Y017357D01*
X010240Y017362D01*
X010253Y017363D01*
X010267Y017360D01*
X010279Y017354D01*
X010289Y017345D01*
X010296Y017333D01*
X010300Y017320D01*
X010300Y017306D01*
X010296Y017293D01*
X010289Y017281D01*
X010279Y017272D01*
X010267Y017266D01*
X010253Y017263D01*
X010240Y017264D01*
X010227Y017269D01*
X010216Y017276D01*
X010207Y017287D01*
X010202Y017300D01*
X010200Y017313D01*
D14*
X005844Y014369D02*
X005846Y014387D01*
X005852Y014404D01*
X005861Y014420D01*
X005873Y014434D01*
X005887Y014444D01*
X005904Y014452D01*
X005922Y014456D01*
X005940Y014456D01*
X005958Y014452D01*
X005974Y014444D01*
X005989Y014434D01*
X006001Y014420D01*
X006010Y014404D01*
X006016Y014387D01*
X006018Y014369D01*
X006016Y014351D01*
X006010Y014334D01*
X006001Y014318D01*
X005989Y014304D01*
X005975Y014294D01*
X005958Y014286D01*
X005940Y014282D01*
X005922Y014282D01*
X005904Y014286D01*
X005888Y014294D01*
X005873Y014304D01*
X005861Y014318D01*
X005852Y014334D01*
X005846Y014351D01*
X005844Y014369D01*
X005844Y004119D02*
X005846Y004137D01*
X005852Y004154D01*
X005861Y004170D01*
X005873Y004184D01*
X005887Y004194D01*
X005904Y004202D01*
X005922Y004206D01*
X005940Y004206D01*
X005958Y004202D01*
X005974Y004194D01*
X005989Y004184D01*
X006001Y004170D01*
X006010Y004154D01*
X006016Y004137D01*
X006018Y004119D01*
X006016Y004101D01*
X006010Y004084D01*
X006001Y004068D01*
X005989Y004054D01*
X005975Y004044D01*
X005958Y004036D01*
X005940Y004032D01*
X005922Y004032D01*
X005904Y004036D01*
X005888Y004044D01*
X005873Y004054D01*
X005861Y004068D01*
X005852Y004084D01*
X005846Y004101D01*
X005844Y004119D01*
D15*
X002168Y003369D02*
X002168Y003222D01*
X002168Y003369D02*
X001372Y003369D01*
X000595Y002828D02*
X000595Y001647D01*
X001372Y001106D02*
X002168Y001106D01*
X002168Y001253D01*
X002168Y011356D02*
X001372Y011356D01*
X002168Y011356D02*
X002168Y011503D01*
X000595Y011897D02*
X000595Y013078D01*
X001372Y013619D02*
X002168Y013619D01*
X002168Y013472D01*
X013682Y013619D02*
X013682Y013472D01*
X013682Y013619D02*
X014478Y013619D01*
X015255Y013078D02*
X015255Y011897D01*
X014478Y011356D02*
X013682Y011356D01*
X013682Y011503D01*
X013682Y003369D02*
X013682Y003222D01*
X013682Y003369D02*
X014478Y003369D01*
X015255Y002828D02*
X015255Y001647D01*
X014478Y001106D02*
X013682Y001106D01*
X013682Y001253D01*
D16*
X006849Y000863D03*
X005376Y000863D03*
X005376Y011113D03*
X006849Y011113D03*
M02*
