%
M48
M72
T01C0.0120
%
T01
X3767Y4506
X4017Y4506
X4235Y5881
X4235Y6193
X4610Y5881
X5204Y4943
X5954Y4943
X6329Y4943
X6860Y5256
X6860Y5881
X6860Y6193
X7110Y7349
X7579Y7412
X7017Y8568
X7579Y8662
X6642Y10193
X6079Y11006
X5829Y10756
X5517Y10912
X5079Y10568
X4329Y9818
X3892Y9381
X4329Y9006
X4892Y9006
X5642Y9318
X5829Y9756
X5829Y10068
X7579Y10381
X7579Y11131
X5985Y7881
X5548Y7881
X5110Y7881
X5110Y7443
X5110Y7006
X5548Y7006
X5548Y7443
X5985Y7443
X5985Y7006
X4017Y7224
X4017Y7537
X4017Y7849
X4017Y8162
X3079Y7381
X2985Y8537
X3548Y10068
X3767Y11193
X2767Y5443
M30
