G75*
%MOIN*%
%OFA0B0*%
%FSLAX24Y24*%
%IPPOS*%
%LPD*%
%AMOC8*
5,1,8,0,0,1.08239X$1,22.5*
%
%ADD10C,0.0000*%
%ADD11C,0.1300*%
%ADD12R,0.1437X0.1700*%
%ADD13R,0.1000X0.1688*%
%ADD14C,0.0780*%
%ADD15C,0.0107*%
%ADD16C,0.0108*%
%ADD17C,0.0114*%
%ADD18C,0.0148*%
%ADD19C,0.0114*%
%ADD20C,0.0109*%
%ADD21C,0.0121*%
%ADD22C,0.0124*%
%ADD23C,0.0394*%
%ADD24C,0.0136*%
%ADD25C,0.0108*%
%ADD26C,0.0106*%
%ADD27R,0.0394X0.0236*%
%ADD28C,0.0109*%
%ADD29C,0.0134*%
%ADD30R,0.0394X0.0394*%
%ADD31C,0.0437*%
%ADD32C,0.0516*%
%ADD33C,0.1142*%
D10*
X000588Y000721D02*
X000588Y019224D01*
X000587Y019224D02*
X000589Y019270D01*
X000594Y019316D01*
X000603Y019362D01*
X000616Y019407D01*
X000632Y019450D01*
X000651Y019492D01*
X000674Y019533D01*
X000700Y019571D01*
X000729Y019608D01*
X000760Y019642D01*
X000794Y019673D01*
X000831Y019702D01*
X000869Y019728D01*
X000910Y019751D01*
X000952Y019770D01*
X000995Y019786D01*
X001040Y019799D01*
X001086Y019808D01*
X001132Y019813D01*
X001178Y019815D01*
X019682Y019815D01*
X019728Y019813D01*
X019774Y019808D01*
X019820Y019799D01*
X019865Y019786D01*
X019908Y019770D01*
X019950Y019751D01*
X019991Y019728D01*
X020029Y019702D01*
X020066Y019673D01*
X020100Y019642D01*
X020131Y019608D01*
X020160Y019571D01*
X020186Y019533D01*
X020209Y019492D01*
X020228Y019450D01*
X020244Y019407D01*
X020257Y019362D01*
X020266Y019316D01*
X020271Y019270D01*
X020273Y019224D01*
X020273Y000721D01*
X020271Y000675D01*
X020266Y000629D01*
X020257Y000583D01*
X020244Y000538D01*
X020228Y000495D01*
X020209Y000453D01*
X020186Y000412D01*
X020160Y000374D01*
X020131Y000337D01*
X020100Y000303D01*
X020066Y000272D01*
X020029Y000243D01*
X019991Y000217D01*
X019950Y000194D01*
X019908Y000175D01*
X019865Y000159D01*
X019820Y000146D01*
X019774Y000137D01*
X019728Y000132D01*
X019682Y000130D01*
X001178Y000130D01*
X001132Y000132D01*
X001086Y000137D01*
X001040Y000146D01*
X000995Y000159D01*
X000952Y000175D01*
X000910Y000194D01*
X000869Y000217D01*
X000831Y000243D01*
X000794Y000272D01*
X000760Y000303D01*
X000729Y000337D01*
X000700Y000374D01*
X000674Y000412D01*
X000651Y000453D01*
X000632Y000495D01*
X000616Y000538D01*
X000603Y000583D01*
X000594Y000629D01*
X000589Y000675D01*
X000587Y000721D01*
X000942Y001114D02*
X000944Y001164D01*
X000950Y001214D01*
X000960Y001263D01*
X000974Y001311D01*
X000991Y001358D01*
X001012Y001403D01*
X001037Y001447D01*
X001065Y001488D01*
X001097Y001527D01*
X001131Y001564D01*
X001168Y001598D01*
X001208Y001628D01*
X001250Y001655D01*
X001294Y001679D01*
X001340Y001700D01*
X001387Y001716D01*
X001435Y001729D01*
X001485Y001738D01*
X001534Y001743D01*
X001585Y001744D01*
X001635Y001741D01*
X001684Y001734D01*
X001733Y001723D01*
X001781Y001708D01*
X001827Y001690D01*
X001872Y001668D01*
X001915Y001642D01*
X001956Y001613D01*
X001995Y001581D01*
X002031Y001546D01*
X002063Y001508D01*
X002093Y001468D01*
X002120Y001425D01*
X002143Y001381D01*
X002162Y001335D01*
X002178Y001287D01*
X002190Y001238D01*
X002198Y001189D01*
X002202Y001139D01*
X002202Y001089D01*
X002198Y001039D01*
X002190Y000990D01*
X002178Y000941D01*
X002162Y000893D01*
X002143Y000847D01*
X002120Y000803D01*
X002093Y000760D01*
X002063Y000720D01*
X002031Y000682D01*
X001995Y000647D01*
X001956Y000615D01*
X001915Y000586D01*
X001872Y000560D01*
X001827Y000538D01*
X001781Y000520D01*
X001733Y000505D01*
X001684Y000494D01*
X001635Y000487D01*
X001585Y000484D01*
X001534Y000485D01*
X001485Y000490D01*
X001435Y000499D01*
X001387Y000512D01*
X001340Y000528D01*
X001294Y000549D01*
X001250Y000573D01*
X001208Y000600D01*
X001168Y000630D01*
X001131Y000664D01*
X001097Y000701D01*
X001065Y000740D01*
X001037Y000781D01*
X001012Y000825D01*
X000991Y000870D01*
X000974Y000917D01*
X000960Y000965D01*
X000950Y001014D01*
X000944Y001064D01*
X000942Y001114D01*
X002286Y004514D02*
X002288Y004540D01*
X002294Y004566D01*
X002304Y004591D01*
X002317Y004614D01*
X002333Y004634D01*
X002353Y004652D01*
X002375Y004667D01*
X002398Y004679D01*
X002424Y004687D01*
X002450Y004691D01*
X002476Y004691D01*
X002502Y004687D01*
X002528Y004679D01*
X002552Y004667D01*
X002573Y004652D01*
X002593Y004634D01*
X002609Y004614D01*
X002622Y004591D01*
X002632Y004566D01*
X002638Y004540D01*
X002640Y004514D01*
X002638Y004488D01*
X002632Y004462D01*
X002622Y004437D01*
X002609Y004414D01*
X002593Y004394D01*
X002573Y004376D01*
X002551Y004361D01*
X002528Y004349D01*
X002502Y004341D01*
X002476Y004337D01*
X002450Y004337D01*
X002424Y004341D01*
X002398Y004349D01*
X002374Y004361D01*
X002353Y004376D01*
X002333Y004394D01*
X002317Y004414D01*
X002304Y004437D01*
X002294Y004462D01*
X002288Y004488D01*
X002286Y004514D01*
X002286Y006246D02*
X002288Y006272D01*
X002294Y006298D01*
X002304Y006323D01*
X002317Y006346D01*
X002333Y006366D01*
X002353Y006384D01*
X002375Y006399D01*
X002398Y006411D01*
X002424Y006419D01*
X002450Y006423D01*
X002476Y006423D01*
X002502Y006419D01*
X002528Y006411D01*
X002552Y006399D01*
X002573Y006384D01*
X002593Y006366D01*
X002609Y006346D01*
X002622Y006323D01*
X002632Y006298D01*
X002638Y006272D01*
X002640Y006246D01*
X002638Y006220D01*
X002632Y006194D01*
X002622Y006169D01*
X002609Y006146D01*
X002593Y006126D01*
X002573Y006108D01*
X002551Y006093D01*
X002528Y006081D01*
X002502Y006073D01*
X002476Y006069D01*
X002450Y006069D01*
X002424Y006073D01*
X002398Y006081D01*
X002374Y006093D01*
X002353Y006108D01*
X002333Y006126D01*
X002317Y006146D01*
X002304Y006169D01*
X002294Y006194D01*
X002288Y006220D01*
X002286Y006246D01*
X000942Y018831D02*
X000944Y018881D01*
X000950Y018931D01*
X000960Y018980D01*
X000974Y019028D01*
X000991Y019075D01*
X001012Y019120D01*
X001037Y019164D01*
X001065Y019205D01*
X001097Y019244D01*
X001131Y019281D01*
X001168Y019315D01*
X001208Y019345D01*
X001250Y019372D01*
X001294Y019396D01*
X001340Y019417D01*
X001387Y019433D01*
X001435Y019446D01*
X001485Y019455D01*
X001534Y019460D01*
X001585Y019461D01*
X001635Y019458D01*
X001684Y019451D01*
X001733Y019440D01*
X001781Y019425D01*
X001827Y019407D01*
X001872Y019385D01*
X001915Y019359D01*
X001956Y019330D01*
X001995Y019298D01*
X002031Y019263D01*
X002063Y019225D01*
X002093Y019185D01*
X002120Y019142D01*
X002143Y019098D01*
X002162Y019052D01*
X002178Y019004D01*
X002190Y018955D01*
X002198Y018906D01*
X002202Y018856D01*
X002202Y018806D01*
X002198Y018756D01*
X002190Y018707D01*
X002178Y018658D01*
X002162Y018610D01*
X002143Y018564D01*
X002120Y018520D01*
X002093Y018477D01*
X002063Y018437D01*
X002031Y018399D01*
X001995Y018364D01*
X001956Y018332D01*
X001915Y018303D01*
X001872Y018277D01*
X001827Y018255D01*
X001781Y018237D01*
X001733Y018222D01*
X001684Y018211D01*
X001635Y018204D01*
X001585Y018201D01*
X001534Y018202D01*
X001485Y018207D01*
X001435Y018216D01*
X001387Y018229D01*
X001340Y018245D01*
X001294Y018266D01*
X001250Y018290D01*
X001208Y018317D01*
X001168Y018347D01*
X001131Y018381D01*
X001097Y018418D01*
X001065Y018457D01*
X001037Y018498D01*
X001012Y018542D01*
X000991Y018587D01*
X000974Y018634D01*
X000960Y018682D01*
X000950Y018731D01*
X000944Y018781D01*
X000942Y018831D01*
X018659Y018831D02*
X018661Y018881D01*
X018667Y018931D01*
X018677Y018980D01*
X018691Y019028D01*
X018708Y019075D01*
X018729Y019120D01*
X018754Y019164D01*
X018782Y019205D01*
X018814Y019244D01*
X018848Y019281D01*
X018885Y019315D01*
X018925Y019345D01*
X018967Y019372D01*
X019011Y019396D01*
X019057Y019417D01*
X019104Y019433D01*
X019152Y019446D01*
X019202Y019455D01*
X019251Y019460D01*
X019302Y019461D01*
X019352Y019458D01*
X019401Y019451D01*
X019450Y019440D01*
X019498Y019425D01*
X019544Y019407D01*
X019589Y019385D01*
X019632Y019359D01*
X019673Y019330D01*
X019712Y019298D01*
X019748Y019263D01*
X019780Y019225D01*
X019810Y019185D01*
X019837Y019142D01*
X019860Y019098D01*
X019879Y019052D01*
X019895Y019004D01*
X019907Y018955D01*
X019915Y018906D01*
X019919Y018856D01*
X019919Y018806D01*
X019915Y018756D01*
X019907Y018707D01*
X019895Y018658D01*
X019879Y018610D01*
X019860Y018564D01*
X019837Y018520D01*
X019810Y018477D01*
X019780Y018437D01*
X019748Y018399D01*
X019712Y018364D01*
X019673Y018332D01*
X019632Y018303D01*
X019589Y018277D01*
X019544Y018255D01*
X019498Y018237D01*
X019450Y018222D01*
X019401Y018211D01*
X019352Y018204D01*
X019302Y018201D01*
X019251Y018202D01*
X019202Y018207D01*
X019152Y018216D01*
X019104Y018229D01*
X019057Y018245D01*
X019011Y018266D01*
X018967Y018290D01*
X018925Y018317D01*
X018885Y018347D01*
X018848Y018381D01*
X018814Y018418D01*
X018782Y018457D01*
X018754Y018498D01*
X018729Y018542D01*
X018708Y018587D01*
X018691Y018634D01*
X018677Y018682D01*
X018667Y018731D01*
X018661Y018781D01*
X018659Y018831D01*
X018659Y001114D02*
X018661Y001164D01*
X018667Y001214D01*
X018677Y001263D01*
X018691Y001311D01*
X018708Y001358D01*
X018729Y001403D01*
X018754Y001447D01*
X018782Y001488D01*
X018814Y001527D01*
X018848Y001564D01*
X018885Y001598D01*
X018925Y001628D01*
X018967Y001655D01*
X019011Y001679D01*
X019057Y001700D01*
X019104Y001716D01*
X019152Y001729D01*
X019202Y001738D01*
X019251Y001743D01*
X019302Y001744D01*
X019352Y001741D01*
X019401Y001734D01*
X019450Y001723D01*
X019498Y001708D01*
X019544Y001690D01*
X019589Y001668D01*
X019632Y001642D01*
X019673Y001613D01*
X019712Y001581D01*
X019748Y001546D01*
X019780Y001508D01*
X019810Y001468D01*
X019837Y001425D01*
X019860Y001381D01*
X019879Y001335D01*
X019895Y001287D01*
X019907Y001238D01*
X019915Y001189D01*
X019919Y001139D01*
X019919Y001089D01*
X019915Y001039D01*
X019907Y000990D01*
X019895Y000941D01*
X019879Y000893D01*
X019860Y000847D01*
X019837Y000803D01*
X019810Y000760D01*
X019780Y000720D01*
X019748Y000682D01*
X019712Y000647D01*
X019673Y000615D01*
X019632Y000586D01*
X019589Y000560D01*
X019544Y000538D01*
X019498Y000520D01*
X019450Y000505D01*
X019401Y000494D01*
X019352Y000487D01*
X019302Y000484D01*
X019251Y000485D01*
X019202Y000490D01*
X019152Y000499D01*
X019104Y000512D01*
X019057Y000528D01*
X019011Y000549D01*
X018967Y000573D01*
X018925Y000600D01*
X018885Y000630D01*
X018848Y000664D01*
X018814Y000701D01*
X018782Y000740D01*
X018754Y000781D01*
X018729Y000825D01*
X018708Y000870D01*
X018691Y000917D01*
X018677Y000965D01*
X018667Y001014D01*
X018661Y001064D01*
X018659Y001114D01*
D11*
X019289Y001114D03*
X001572Y001114D03*
X001572Y018831D03*
X019289Y018831D03*
D12*
X017369Y001080D03*
X015807Y001080D03*
D13*
X017150Y012568D03*
X017150Y014818D03*
X017150Y017068D03*
X011525Y017068D03*
X011525Y014818D03*
X011525Y012568D03*
X006025Y012568D03*
X006025Y014818D03*
X006025Y017068D03*
D14*
X005588Y019005D03*
X004588Y019005D03*
X003588Y019005D03*
X002338Y016630D03*
X002338Y015630D03*
X002338Y014630D03*
X002338Y013630D03*
X001338Y013630D03*
X001338Y012630D03*
X001338Y014630D03*
X001338Y015630D03*
X001338Y016630D03*
X009088Y019005D03*
X010088Y019005D03*
X011088Y019005D03*
X014588Y019005D03*
X015588Y019005D03*
X016588Y019005D03*
X019463Y009380D03*
X019463Y008380D03*
X019463Y007130D03*
X019463Y006130D03*
X019463Y005130D03*
X019463Y004130D03*
X019463Y003130D03*
X017088Y002380D03*
X016088Y002380D03*
X009338Y000880D03*
X008338Y000880D03*
X007338Y000880D03*
X006338Y000880D03*
X005338Y000880D03*
X004338Y000880D03*
X003338Y000880D03*
X003338Y002130D03*
X004338Y002130D03*
X005338Y002130D03*
X006338Y002130D03*
X002338Y008380D03*
X001338Y008380D03*
D15*
X016590Y007879D02*
X017154Y007879D01*
X016590Y007879D02*
X016590Y008757D01*
X017154Y008757D01*
X017154Y007879D01*
X017154Y007985D02*
X016590Y007985D01*
X016590Y008091D02*
X017154Y008091D01*
X017154Y008197D02*
X016590Y008197D01*
X016590Y008303D02*
X017154Y008303D01*
X017154Y008409D02*
X016590Y008409D01*
X016590Y008515D02*
X017154Y008515D01*
X017154Y008621D02*
X016590Y008621D01*
X016590Y008727D02*
X017154Y008727D01*
X017771Y008757D02*
X018335Y008757D01*
X018335Y007879D01*
X017771Y007879D01*
X017771Y008757D01*
X017771Y007985D02*
X018335Y007985D01*
X018335Y008091D02*
X017771Y008091D01*
X017771Y008197D02*
X018335Y008197D01*
X018335Y008303D02*
X017771Y008303D01*
X017771Y008409D02*
X018335Y008409D01*
X018335Y008515D02*
X017771Y008515D01*
X017771Y008621D02*
X018335Y008621D01*
X018335Y008727D02*
X017771Y008727D01*
D16*
X015742Y006542D02*
X015416Y006542D01*
X015416Y006906D01*
X015742Y006906D01*
X015742Y006542D01*
X015742Y006649D02*
X015416Y006649D01*
X015416Y006756D02*
X015742Y006756D01*
X015742Y006863D02*
X015416Y006863D01*
X015072Y006542D02*
X014746Y006542D01*
X014746Y006906D01*
X015072Y006906D01*
X015072Y006542D01*
X015072Y006649D02*
X014746Y006649D01*
X014746Y006756D02*
X015072Y006756D01*
X015072Y006863D02*
X014746Y006863D01*
X014228Y006906D02*
X014228Y006542D01*
X014228Y006906D02*
X014554Y006906D01*
X014554Y006542D01*
X014228Y006542D01*
X014228Y006649D02*
X014554Y006649D01*
X014554Y006756D02*
X014228Y006756D01*
X014228Y006863D02*
X014554Y006863D01*
X013559Y006906D02*
X013559Y006542D01*
X013559Y006906D02*
X013885Y006906D01*
X013885Y006542D01*
X013559Y006542D01*
X013559Y006649D02*
X013885Y006649D01*
X013885Y006756D02*
X013559Y006756D01*
X013559Y006863D02*
X013885Y006863D01*
X013395Y005833D02*
X013031Y005833D01*
X013031Y006159D01*
X013395Y006159D01*
X013395Y005833D01*
X013395Y005940D02*
X013031Y005940D01*
X013031Y006047D02*
X013395Y006047D01*
X013395Y006154D02*
X013031Y006154D01*
X013031Y005164D02*
X013395Y005164D01*
X013031Y005164D02*
X013031Y005490D01*
X013395Y005490D01*
X013395Y005164D01*
X013395Y005271D02*
X013031Y005271D01*
X013031Y005378D02*
X013395Y005378D01*
X013395Y005485D02*
X013031Y005485D01*
X013031Y004909D02*
X013395Y004909D01*
X013395Y004583D01*
X013031Y004583D01*
X013031Y004909D01*
X013031Y004690D02*
X013395Y004690D01*
X013395Y004797D02*
X013031Y004797D01*
X013031Y004904D02*
X013395Y004904D01*
X013395Y004240D02*
X013031Y004240D01*
X013395Y004240D02*
X013395Y003914D01*
X013031Y003914D01*
X013031Y004240D01*
X013031Y004021D02*
X013395Y004021D01*
X013395Y004128D02*
X013031Y004128D01*
X013031Y004235D02*
X013395Y004235D01*
X012585Y004281D02*
X012585Y003917D01*
X012259Y003917D01*
X012259Y004281D01*
X012585Y004281D01*
X012585Y004024D02*
X012259Y004024D01*
X012259Y004131D02*
X012585Y004131D01*
X012585Y004238D02*
X012259Y004238D01*
X011916Y004281D02*
X011916Y003917D01*
X011590Y003917D01*
X011590Y004281D01*
X011916Y004281D01*
X011916Y004024D02*
X011590Y004024D01*
X011590Y004131D02*
X011916Y004131D01*
X011916Y004238D02*
X011590Y004238D01*
X011335Y004281D02*
X011335Y003917D01*
X011009Y003917D01*
X011009Y004281D01*
X011335Y004281D01*
X011335Y004024D02*
X011009Y004024D01*
X011009Y004131D02*
X011335Y004131D01*
X011335Y004238D02*
X011009Y004238D01*
X010666Y004281D02*
X010666Y003917D01*
X010340Y003917D01*
X010340Y004281D01*
X010666Y004281D01*
X010666Y004024D02*
X010340Y004024D01*
X010340Y004131D02*
X010666Y004131D01*
X010666Y004238D02*
X010340Y004238D01*
X009395Y002878D02*
X009031Y002878D01*
X009395Y002878D02*
X009395Y002552D01*
X009031Y002552D01*
X009031Y002878D01*
X009031Y002659D02*
X009395Y002659D01*
X009395Y002766D02*
X009031Y002766D01*
X009031Y002873D02*
X009395Y002873D01*
X008406Y002878D02*
X008406Y002552D01*
X008406Y002878D02*
X008770Y002878D01*
X008770Y002552D01*
X008406Y002552D01*
X008406Y002659D02*
X008770Y002659D01*
X008770Y002766D02*
X008406Y002766D01*
X008406Y002873D02*
X008770Y002873D01*
X007781Y002878D02*
X007781Y002552D01*
X007781Y002878D02*
X008145Y002878D01*
X008145Y002552D01*
X007781Y002552D01*
X007781Y002659D02*
X008145Y002659D01*
X008145Y002766D02*
X007781Y002766D01*
X007781Y002873D02*
X008145Y002873D01*
X007156Y002878D02*
X007156Y002552D01*
X007156Y002878D02*
X007520Y002878D01*
X007520Y002552D01*
X007156Y002552D01*
X007156Y002659D02*
X007520Y002659D01*
X007520Y002766D02*
X007156Y002766D01*
X007156Y002873D02*
X007520Y002873D01*
X007156Y002208D02*
X007156Y001882D01*
X007156Y002208D02*
X007520Y002208D01*
X007520Y001882D01*
X007156Y001882D01*
X007156Y001989D02*
X007520Y001989D01*
X007520Y002096D02*
X007156Y002096D01*
X007156Y002203D02*
X007520Y002203D01*
X007781Y002208D02*
X007781Y001882D01*
X007781Y002208D02*
X008145Y002208D01*
X008145Y001882D01*
X007781Y001882D01*
X007781Y001989D02*
X008145Y001989D01*
X008145Y002096D02*
X007781Y002096D01*
X007781Y002203D02*
X008145Y002203D01*
X008406Y002208D02*
X008406Y001882D01*
X008406Y002208D02*
X008770Y002208D01*
X008770Y001882D01*
X008406Y001882D01*
X008406Y001989D02*
X008770Y001989D01*
X008770Y002096D02*
X008406Y002096D01*
X008406Y002203D02*
X008770Y002203D01*
X009031Y002208D02*
X009395Y002208D01*
X009395Y001882D01*
X009031Y001882D01*
X009031Y002208D01*
X009031Y001989D02*
X009395Y001989D01*
X009395Y002096D02*
X009031Y002096D01*
X009031Y002203D02*
X009395Y002203D01*
X006270Y003320D02*
X005906Y003320D01*
X005906Y003646D01*
X006270Y003646D01*
X006270Y003320D01*
X006270Y003427D02*
X005906Y003427D01*
X005906Y003534D02*
X006270Y003534D01*
X006270Y003641D02*
X005906Y003641D01*
X005906Y003989D02*
X006270Y003989D01*
X005906Y003989D02*
X005906Y004315D01*
X006270Y004315D01*
X006270Y003989D01*
X006270Y004096D02*
X005906Y004096D01*
X005906Y004203D02*
X006270Y004203D01*
X006270Y004310D02*
X005906Y004310D01*
X005398Y004323D02*
X005072Y004323D01*
X005072Y004687D01*
X005398Y004687D01*
X005398Y004323D01*
X005398Y004430D02*
X005072Y004430D01*
X005072Y004537D02*
X005398Y004537D01*
X005398Y004644D02*
X005072Y004644D01*
X005072Y004948D02*
X005398Y004948D01*
X005072Y004948D02*
X005072Y005312D01*
X005398Y005312D01*
X005398Y004948D01*
X005398Y005055D02*
X005072Y005055D01*
X005072Y005162D02*
X005398Y005162D01*
X005398Y005269D02*
X005072Y005269D01*
X005072Y005573D02*
X005398Y005573D01*
X005072Y005573D02*
X005072Y005937D01*
X005398Y005937D01*
X005398Y005573D01*
X005398Y005680D02*
X005072Y005680D01*
X005072Y005787D02*
X005398Y005787D01*
X005398Y005894D02*
X005072Y005894D01*
X004729Y005573D02*
X004403Y005573D01*
X004403Y005937D01*
X004729Y005937D01*
X004729Y005573D01*
X004729Y005680D02*
X004403Y005680D01*
X004403Y005787D02*
X004729Y005787D01*
X004729Y005894D02*
X004403Y005894D01*
X004403Y004948D02*
X004729Y004948D01*
X004403Y004948D02*
X004403Y005312D01*
X004729Y005312D01*
X004729Y004948D01*
X004729Y005055D02*
X004403Y005055D01*
X004403Y005162D02*
X004729Y005162D01*
X004729Y005269D02*
X004403Y005269D01*
X004403Y004323D02*
X004729Y004323D01*
X004403Y004323D02*
X004403Y004687D01*
X004729Y004687D01*
X004729Y004323D01*
X004729Y004430D02*
X004403Y004430D01*
X004403Y004537D02*
X004729Y004537D01*
X004729Y004644D02*
X004403Y004644D01*
X004403Y004062D02*
X004729Y004062D01*
X004729Y003698D01*
X004403Y003698D01*
X004403Y004062D01*
X004403Y003805D02*
X004729Y003805D01*
X004729Y003912D02*
X004403Y003912D01*
X004403Y004019D02*
X004729Y004019D01*
X005072Y004062D02*
X005398Y004062D01*
X005398Y003698D01*
X005072Y003698D01*
X005072Y004062D01*
X005072Y003805D02*
X005398Y003805D01*
X005398Y003912D02*
X005072Y003912D01*
X005072Y004019D02*
X005398Y004019D01*
X005398Y003073D02*
X005072Y003073D01*
X005072Y003437D01*
X005398Y003437D01*
X005398Y003073D01*
X005398Y003180D02*
X005072Y003180D01*
X005072Y003287D02*
X005398Y003287D01*
X005398Y003394D02*
X005072Y003394D01*
X004729Y003073D02*
X004403Y003073D01*
X004403Y003437D01*
X004729Y003437D01*
X004729Y003073D01*
X004729Y003180D02*
X004403Y003180D01*
X004403Y003287D02*
X004729Y003287D01*
X004729Y003394D02*
X004403Y003394D01*
X005906Y008958D02*
X006270Y008958D01*
X006270Y008632D01*
X005906Y008632D01*
X005906Y008958D01*
X005906Y008739D02*
X006270Y008739D01*
X006270Y008846D02*
X005906Y008846D01*
X005906Y008953D02*
X006270Y008953D01*
X006270Y009628D02*
X005906Y009628D01*
X006270Y009628D02*
X006270Y009302D01*
X005906Y009302D01*
X005906Y009628D01*
X005906Y009409D02*
X006270Y009409D01*
X006270Y009516D02*
X005906Y009516D01*
X005906Y009623D02*
X006270Y009623D01*
X006270Y009851D02*
X005906Y009851D01*
X005906Y010177D01*
X006270Y010177D01*
X006270Y009851D01*
X006270Y009958D02*
X005906Y009958D01*
X005906Y010065D02*
X006270Y010065D01*
X006270Y010172D02*
X005906Y010172D01*
X005906Y010520D02*
X006270Y010520D01*
X005906Y010520D02*
X005906Y010846D01*
X006270Y010846D01*
X006270Y010520D01*
X006270Y010627D02*
X005906Y010627D01*
X005906Y010734D02*
X006270Y010734D01*
X006270Y010841D02*
X005906Y010841D01*
X006531Y010846D02*
X006531Y010520D01*
X006531Y010846D02*
X006895Y010846D01*
X006895Y010520D01*
X006531Y010520D01*
X006531Y010627D02*
X006895Y010627D01*
X006895Y010734D02*
X006531Y010734D01*
X006531Y010841D02*
X006895Y010841D01*
X007156Y010846D02*
X007156Y010520D01*
X007156Y010846D02*
X007520Y010846D01*
X007520Y010520D01*
X007156Y010520D01*
X007156Y010627D02*
X007520Y010627D01*
X007520Y010734D02*
X007156Y010734D01*
X007156Y010841D02*
X007520Y010841D01*
X007156Y010177D02*
X007156Y009851D01*
X007156Y010177D02*
X007520Y010177D01*
X007520Y009851D01*
X007156Y009851D01*
X007156Y009958D02*
X007520Y009958D01*
X007520Y010065D02*
X007156Y010065D01*
X007156Y010172D02*
X007520Y010172D01*
X006531Y010177D02*
X006531Y009851D01*
X006531Y010177D02*
X006895Y010177D01*
X006895Y009851D01*
X006531Y009851D01*
X006531Y009958D02*
X006895Y009958D01*
X006895Y010065D02*
X006531Y010065D01*
X006531Y010172D02*
X006895Y010172D01*
X009156Y010177D02*
X009156Y009851D01*
X009156Y010177D02*
X009520Y010177D01*
X009520Y009851D01*
X009156Y009851D01*
X009156Y009958D02*
X009520Y009958D01*
X009520Y010065D02*
X009156Y010065D01*
X009156Y010172D02*
X009520Y010172D01*
X009781Y010177D02*
X009781Y009851D01*
X009781Y010177D02*
X010145Y010177D01*
X010145Y009851D01*
X009781Y009851D01*
X009781Y009958D02*
X010145Y009958D01*
X010145Y010065D02*
X009781Y010065D01*
X009781Y010172D02*
X010145Y010172D01*
X010406Y009851D02*
X010770Y009851D01*
X010406Y009851D02*
X010406Y010177D01*
X010770Y010177D01*
X010770Y009851D01*
X010770Y009958D02*
X010406Y009958D01*
X010406Y010065D02*
X010770Y010065D01*
X010770Y010172D02*
X010406Y010172D01*
X010406Y010520D02*
X010770Y010520D01*
X010406Y010520D02*
X010406Y010846D01*
X010770Y010846D01*
X010770Y010520D01*
X010770Y010627D02*
X010406Y010627D01*
X010406Y010734D02*
X010770Y010734D01*
X010770Y010841D02*
X010406Y010841D01*
X009781Y010846D02*
X009781Y010520D01*
X009781Y010846D02*
X010145Y010846D01*
X010145Y010520D01*
X009781Y010520D01*
X009781Y010627D02*
X010145Y010627D01*
X010145Y010734D02*
X009781Y010734D01*
X009781Y010841D02*
X010145Y010841D01*
X009156Y010846D02*
X009156Y010520D01*
X009156Y010846D02*
X009520Y010846D01*
X009520Y010520D01*
X009156Y010520D01*
X009156Y010627D02*
X009520Y010627D01*
X009520Y010734D02*
X009156Y010734D01*
X009156Y010841D02*
X009520Y010841D01*
X010406Y009628D02*
X010770Y009628D01*
X010770Y009302D01*
X010406Y009302D01*
X010406Y009628D01*
X010406Y009409D02*
X010770Y009409D01*
X010770Y009516D02*
X010406Y009516D01*
X010406Y009623D02*
X010770Y009623D01*
X010770Y008958D02*
X010406Y008958D01*
X010770Y008958D02*
X010770Y008632D01*
X010406Y008632D01*
X010406Y008958D01*
X010406Y008739D02*
X010770Y008739D01*
X010770Y008846D02*
X010406Y008846D01*
X010406Y008953D02*
X010770Y008953D01*
X011590Y007281D02*
X011590Y006917D01*
X011590Y007281D02*
X011916Y007281D01*
X011916Y006917D01*
X011590Y006917D01*
X011590Y007024D02*
X011916Y007024D01*
X011916Y007131D02*
X011590Y007131D01*
X011590Y007238D02*
X011916Y007238D01*
X012259Y007281D02*
X012259Y006917D01*
X012259Y007281D02*
X012585Y007281D01*
X012585Y006917D01*
X012259Y006917D01*
X012259Y007024D02*
X012585Y007024D01*
X012585Y007131D02*
X012259Y007131D01*
X012259Y007238D02*
X012585Y007238D01*
X012854Y007667D02*
X012854Y008031D01*
X012854Y007667D02*
X012528Y007667D01*
X012528Y008031D01*
X012854Y008031D01*
X012854Y007774D02*
X012528Y007774D01*
X012528Y007881D02*
X012854Y007881D01*
X012854Y007988D02*
X012528Y007988D01*
X013523Y008031D02*
X013523Y007667D01*
X013197Y007667D01*
X013197Y008031D01*
X013523Y008031D01*
X013523Y007774D02*
X013197Y007774D01*
X013197Y007881D02*
X013523Y007881D01*
X013523Y007988D02*
X013197Y007988D01*
X013197Y009979D02*
X013197Y010343D01*
X013523Y010343D01*
X013523Y009979D01*
X013197Y009979D01*
X013197Y010086D02*
X013523Y010086D01*
X013523Y010193D02*
X013197Y010193D01*
X013197Y010300D02*
X013523Y010300D01*
X012528Y010343D02*
X012528Y009979D01*
X012528Y010343D02*
X012854Y010343D01*
X012854Y009979D01*
X012528Y009979D01*
X012528Y010086D02*
X012854Y010086D01*
X012854Y010193D02*
X012528Y010193D01*
X012528Y010300D02*
X012854Y010300D01*
X014812Y012052D02*
X015176Y012052D01*
X015176Y011726D01*
X014812Y011726D01*
X014812Y012052D01*
X014812Y011833D02*
X015176Y011833D01*
X015176Y011940D02*
X014812Y011940D01*
X014812Y012047D02*
X015176Y012047D01*
X015176Y012721D02*
X014812Y012721D01*
X015176Y012721D02*
X015176Y012395D01*
X014812Y012395D01*
X014812Y012721D01*
X014812Y012502D02*
X015176Y012502D01*
X015176Y012609D02*
X014812Y012609D01*
X014812Y012716D02*
X015176Y012716D01*
X013957Y017021D02*
X013593Y017021D01*
X013957Y017021D02*
X013957Y016695D01*
X013593Y016695D01*
X013593Y017021D01*
X013593Y016802D02*
X013957Y016802D01*
X013957Y016909D02*
X013593Y016909D01*
X013593Y017016D02*
X013957Y017016D01*
X013957Y017690D02*
X013593Y017690D01*
X013957Y017690D02*
X013957Y017364D01*
X013593Y017364D01*
X013593Y017690D01*
X013593Y017471D02*
X013957Y017471D01*
X013957Y017578D02*
X013593Y017578D01*
X013593Y017685D02*
X013957Y017685D01*
X008395Y017690D02*
X008031Y017690D01*
X008395Y017690D02*
X008395Y017364D01*
X008031Y017364D01*
X008031Y017690D01*
X008031Y017471D02*
X008395Y017471D01*
X008395Y017578D02*
X008031Y017578D01*
X008031Y017685D02*
X008395Y017685D01*
X008395Y017021D02*
X008031Y017021D01*
X008395Y017021D02*
X008395Y016695D01*
X008031Y016695D01*
X008031Y017021D01*
X008031Y016802D02*
X008395Y016802D01*
X008395Y016909D02*
X008031Y016909D01*
X008031Y017016D02*
X008395Y017016D01*
X003210Y011198D02*
X002884Y011198D01*
X002884Y011562D01*
X003210Y011562D01*
X003210Y011198D01*
X003210Y011305D02*
X002884Y011305D01*
X002884Y011412D02*
X003210Y011412D01*
X003210Y011519D02*
X002884Y011519D01*
X002541Y011198D02*
X002215Y011198D01*
X002215Y011562D01*
X002541Y011562D01*
X002541Y011198D01*
X002541Y011305D02*
X002215Y011305D01*
X002215Y011412D02*
X002541Y011412D01*
X002541Y011519D02*
X002215Y011519D01*
X002215Y010573D02*
X002541Y010573D01*
X002215Y010573D02*
X002215Y010937D01*
X002541Y010937D01*
X002541Y010573D01*
X002541Y010680D02*
X002215Y010680D01*
X002215Y010787D02*
X002541Y010787D01*
X002541Y010894D02*
X002215Y010894D01*
X002215Y010312D02*
X002541Y010312D01*
X002541Y009948D01*
X002215Y009948D01*
X002215Y010312D01*
X002215Y010055D02*
X002541Y010055D01*
X002541Y010162D02*
X002215Y010162D01*
X002215Y010269D02*
X002541Y010269D01*
X002884Y010312D02*
X003210Y010312D01*
X003210Y009948D01*
X002884Y009948D01*
X002884Y010312D01*
X002884Y010055D02*
X003210Y010055D01*
X003210Y010162D02*
X002884Y010162D01*
X002884Y010269D02*
X003210Y010269D01*
X003210Y010573D02*
X002884Y010573D01*
X002884Y010937D01*
X003210Y010937D01*
X003210Y010573D01*
X003210Y010680D02*
X002884Y010680D01*
X002884Y010787D02*
X003210Y010787D01*
X003210Y010894D02*
X002884Y010894D01*
X002884Y009687D02*
X003210Y009687D01*
X003210Y009323D01*
X002884Y009323D01*
X002884Y009687D01*
X002884Y009430D02*
X003210Y009430D01*
X003210Y009537D02*
X002884Y009537D01*
X002884Y009644D02*
X003210Y009644D01*
X002541Y009687D02*
X002215Y009687D01*
X002541Y009687D02*
X002541Y009323D01*
X002215Y009323D01*
X002215Y009687D01*
X002215Y009430D02*
X002541Y009430D01*
X002541Y009537D02*
X002215Y009537D01*
X002215Y009644D02*
X002541Y009644D01*
X014281Y004003D02*
X014281Y003677D01*
X014281Y004003D02*
X014645Y004003D01*
X014645Y003677D01*
X014281Y003677D01*
X014281Y003784D02*
X014645Y003784D01*
X014645Y003891D02*
X014281Y003891D01*
X014281Y003998D02*
X014645Y003998D01*
X015031Y004003D02*
X015031Y003677D01*
X015031Y004003D02*
X015395Y004003D01*
X015395Y003677D01*
X015031Y003677D01*
X015031Y003784D02*
X015395Y003784D01*
X015395Y003891D02*
X015031Y003891D01*
X015031Y003998D02*
X015395Y003998D01*
X016031Y004003D02*
X016031Y003677D01*
X016031Y004003D02*
X016395Y004003D01*
X016395Y003677D01*
X016031Y003677D01*
X016031Y003784D02*
X016395Y003784D01*
X016395Y003891D02*
X016031Y003891D01*
X016031Y003998D02*
X016395Y003998D01*
X016395Y004757D02*
X016031Y004757D01*
X016031Y005083D01*
X016395Y005083D01*
X016395Y004757D01*
X016395Y004864D02*
X016031Y004864D01*
X016031Y004971D02*
X016395Y004971D01*
X016395Y005078D02*
X016031Y005078D01*
X016031Y005427D02*
X016395Y005427D01*
X016031Y005427D02*
X016031Y005753D01*
X016395Y005753D01*
X016395Y005427D01*
X016395Y005534D02*
X016031Y005534D01*
X016031Y005641D02*
X016395Y005641D01*
X016395Y005748D02*
X016031Y005748D01*
X016031Y003333D02*
X016031Y003007D01*
X016031Y003333D02*
X016395Y003333D01*
X016395Y003007D01*
X016031Y003007D01*
X016031Y003114D02*
X016395Y003114D01*
X016395Y003221D02*
X016031Y003221D01*
X016031Y003328D02*
X016395Y003328D01*
X015031Y003333D02*
X015031Y003007D01*
X015031Y003333D02*
X015395Y003333D01*
X015395Y003007D01*
X015031Y003007D01*
X015031Y003114D02*
X015395Y003114D01*
X015395Y003221D02*
X015031Y003221D01*
X015031Y003328D02*
X015395Y003328D01*
X014281Y003333D02*
X014281Y003007D01*
X014281Y003333D02*
X014645Y003333D01*
X014645Y003007D01*
X014281Y003007D01*
X014281Y003114D02*
X014645Y003114D01*
X014645Y003221D02*
X014281Y003221D01*
X014281Y003328D02*
X014645Y003328D01*
X014281Y002753D02*
X014281Y002427D01*
X014281Y002753D02*
X014645Y002753D01*
X014645Y002427D01*
X014281Y002427D01*
X014281Y002534D02*
X014645Y002534D01*
X014645Y002641D02*
X014281Y002641D01*
X014281Y002748D02*
X014645Y002748D01*
X014281Y002083D02*
X014281Y001757D01*
X014281Y002083D02*
X014645Y002083D01*
X014645Y001757D01*
X014281Y001757D01*
X014281Y001864D02*
X014645Y001864D01*
X014645Y001971D02*
X014281Y001971D01*
X014281Y002078D02*
X014645Y002078D01*
D17*
X016745Y004158D02*
X016931Y004158D01*
X016931Y003682D01*
X016745Y003682D01*
X016745Y004158D01*
X016745Y003795D02*
X016931Y003795D01*
X016931Y003908D02*
X016745Y003908D01*
X016745Y004021D02*
X016931Y004021D01*
X016931Y004134D02*
X016745Y004134D01*
X017245Y004158D02*
X017431Y004158D01*
X017431Y003682D01*
X017245Y003682D01*
X017245Y004158D01*
X017245Y003795D02*
X017431Y003795D01*
X017431Y003908D02*
X017245Y003908D01*
X017245Y004021D02*
X017431Y004021D01*
X017431Y004134D02*
X017245Y004134D01*
X017745Y004158D02*
X017931Y004158D01*
X017931Y003682D01*
X017745Y003682D01*
X017745Y004158D01*
X017745Y003795D02*
X017931Y003795D01*
X017931Y003908D02*
X017745Y003908D01*
X017745Y004021D02*
X017931Y004021D01*
X017931Y004134D02*
X017745Y004134D01*
X018245Y004158D02*
X018431Y004158D01*
X018431Y003682D01*
X018245Y003682D01*
X018245Y004158D01*
X018245Y003795D02*
X018431Y003795D01*
X018431Y003908D02*
X018245Y003908D01*
X018245Y004021D02*
X018431Y004021D01*
X018431Y004134D02*
X018245Y004134D01*
X018245Y006578D02*
X018431Y006578D01*
X018431Y006102D01*
X018245Y006102D01*
X018245Y006578D01*
X018245Y006215D02*
X018431Y006215D01*
X018431Y006328D02*
X018245Y006328D01*
X018245Y006441D02*
X018431Y006441D01*
X018431Y006554D02*
X018245Y006554D01*
X017931Y006578D02*
X017745Y006578D01*
X017931Y006578D02*
X017931Y006102D01*
X017745Y006102D01*
X017745Y006578D01*
X017745Y006215D02*
X017931Y006215D01*
X017931Y006328D02*
X017745Y006328D01*
X017745Y006441D02*
X017931Y006441D01*
X017931Y006554D02*
X017745Y006554D01*
X017431Y006578D02*
X017245Y006578D01*
X017431Y006578D02*
X017431Y006102D01*
X017245Y006102D01*
X017245Y006578D01*
X017245Y006215D02*
X017431Y006215D01*
X017431Y006328D02*
X017245Y006328D01*
X017245Y006441D02*
X017431Y006441D01*
X017431Y006554D02*
X017245Y006554D01*
X016931Y006578D02*
X016745Y006578D01*
X016931Y006578D02*
X016931Y006102D01*
X016745Y006102D01*
X016745Y006578D01*
X016745Y006215D02*
X016931Y006215D01*
X016931Y006328D02*
X016745Y006328D01*
X016745Y006441D02*
X016931Y006441D01*
X016931Y006554D02*
X016745Y006554D01*
X016178Y011725D02*
X016178Y011911D01*
X016178Y011725D02*
X015702Y011725D01*
X015702Y011911D01*
X016178Y011911D01*
X016178Y011838D02*
X015702Y011838D01*
X016178Y012225D02*
X016178Y012411D01*
X016178Y012225D02*
X015702Y012225D01*
X015702Y012411D01*
X016178Y012411D01*
X016178Y012338D02*
X015702Y012338D01*
X016178Y012725D02*
X016178Y012911D01*
X016178Y012725D02*
X015702Y012725D01*
X015702Y012911D01*
X016178Y012911D01*
X016178Y012838D02*
X015702Y012838D01*
X016178Y013225D02*
X016178Y013411D01*
X016178Y013225D02*
X015702Y013225D01*
X015702Y013411D01*
X016178Y013411D01*
X016178Y013338D02*
X015702Y013338D01*
X016178Y013975D02*
X016178Y014161D01*
X016178Y013975D02*
X015702Y013975D01*
X015702Y014161D01*
X016178Y014161D01*
X016178Y014088D02*
X015702Y014088D01*
X016178Y014475D02*
X016178Y014661D01*
X016178Y014475D02*
X015702Y014475D01*
X015702Y014661D01*
X016178Y014661D01*
X016178Y014588D02*
X015702Y014588D01*
X016178Y014975D02*
X016178Y015161D01*
X016178Y014975D02*
X015702Y014975D01*
X015702Y015161D01*
X016178Y015161D01*
X016178Y015088D02*
X015702Y015088D01*
X016178Y015475D02*
X016178Y015661D01*
X016178Y015475D02*
X015702Y015475D01*
X015702Y015661D01*
X016178Y015661D01*
X016178Y015588D02*
X015702Y015588D01*
X016178Y016225D02*
X016178Y016411D01*
X016178Y016225D02*
X015702Y016225D01*
X015702Y016411D01*
X016178Y016411D01*
X016178Y016338D02*
X015702Y016338D01*
X016178Y016725D02*
X016178Y016911D01*
X016178Y016725D02*
X015702Y016725D01*
X015702Y016911D01*
X016178Y016911D01*
X016178Y016838D02*
X015702Y016838D01*
X016178Y017225D02*
X016178Y017411D01*
X016178Y017225D02*
X015702Y017225D01*
X015702Y017411D01*
X016178Y017411D01*
X016178Y017338D02*
X015702Y017338D01*
X016178Y017725D02*
X016178Y017911D01*
X016178Y017725D02*
X015702Y017725D01*
X015702Y017911D01*
X016178Y017911D01*
X016178Y017838D02*
X015702Y017838D01*
X018598Y017911D02*
X018598Y017725D01*
X018122Y017725D01*
X018122Y017911D01*
X018598Y017911D01*
X018598Y017838D02*
X018122Y017838D01*
X018598Y017411D02*
X018598Y017225D01*
X018122Y017225D01*
X018122Y017411D01*
X018598Y017411D01*
X018598Y017338D02*
X018122Y017338D01*
X018598Y016911D02*
X018598Y016725D01*
X018122Y016725D01*
X018122Y016911D01*
X018598Y016911D01*
X018598Y016838D02*
X018122Y016838D01*
X018598Y016411D02*
X018598Y016225D01*
X018122Y016225D01*
X018122Y016411D01*
X018598Y016411D01*
X018598Y016338D02*
X018122Y016338D01*
X018598Y015661D02*
X018598Y015475D01*
X018122Y015475D01*
X018122Y015661D01*
X018598Y015661D01*
X018598Y015588D02*
X018122Y015588D01*
X018598Y015161D02*
X018598Y014975D01*
X018122Y014975D01*
X018122Y015161D01*
X018598Y015161D01*
X018598Y015088D02*
X018122Y015088D01*
X018598Y014661D02*
X018598Y014475D01*
X018122Y014475D01*
X018122Y014661D01*
X018598Y014661D01*
X018598Y014588D02*
X018122Y014588D01*
X018598Y014161D02*
X018598Y013975D01*
X018122Y013975D01*
X018122Y014161D01*
X018598Y014161D01*
X018598Y014088D02*
X018122Y014088D01*
X018598Y013411D02*
X018598Y013225D01*
X018122Y013225D01*
X018122Y013411D01*
X018598Y013411D01*
X018598Y013338D02*
X018122Y013338D01*
X018598Y012911D02*
X018598Y012725D01*
X018122Y012725D01*
X018122Y012911D01*
X018598Y012911D01*
X018598Y012838D02*
X018122Y012838D01*
X018598Y012411D02*
X018598Y012225D01*
X018122Y012225D01*
X018122Y012411D01*
X018598Y012411D01*
X018598Y012338D02*
X018122Y012338D01*
X018598Y011911D02*
X018598Y011725D01*
X018122Y011725D01*
X018122Y011911D01*
X018598Y011911D01*
X018598Y011838D02*
X018122Y011838D01*
X012973Y011911D02*
X012973Y011725D01*
X012497Y011725D01*
X012497Y011911D01*
X012973Y011911D01*
X012973Y011838D02*
X012497Y011838D01*
X012973Y012225D02*
X012973Y012411D01*
X012973Y012225D02*
X012497Y012225D01*
X012497Y012411D01*
X012973Y012411D01*
X012973Y012338D02*
X012497Y012338D01*
X012973Y012725D02*
X012973Y012911D01*
X012973Y012725D02*
X012497Y012725D01*
X012497Y012911D01*
X012973Y012911D01*
X012973Y012838D02*
X012497Y012838D01*
X012973Y013225D02*
X012973Y013411D01*
X012973Y013225D02*
X012497Y013225D01*
X012497Y013411D01*
X012973Y013411D01*
X012973Y013338D02*
X012497Y013338D01*
X012973Y013975D02*
X012973Y014161D01*
X012973Y013975D02*
X012497Y013975D01*
X012497Y014161D01*
X012973Y014161D01*
X012973Y014088D02*
X012497Y014088D01*
X012973Y014475D02*
X012973Y014661D01*
X012973Y014475D02*
X012497Y014475D01*
X012497Y014661D01*
X012973Y014661D01*
X012973Y014588D02*
X012497Y014588D01*
X012973Y014975D02*
X012973Y015161D01*
X012973Y014975D02*
X012497Y014975D01*
X012497Y015161D01*
X012973Y015161D01*
X012973Y015088D02*
X012497Y015088D01*
X012973Y015475D02*
X012973Y015661D01*
X012973Y015475D02*
X012497Y015475D01*
X012497Y015661D01*
X012973Y015661D01*
X012973Y015588D02*
X012497Y015588D01*
X012973Y016225D02*
X012973Y016411D01*
X012973Y016225D02*
X012497Y016225D01*
X012497Y016411D01*
X012973Y016411D01*
X012973Y016338D02*
X012497Y016338D01*
X012973Y016725D02*
X012973Y016911D01*
X012973Y016725D02*
X012497Y016725D01*
X012497Y016911D01*
X012973Y016911D01*
X012973Y016838D02*
X012497Y016838D01*
X012973Y017225D02*
X012973Y017411D01*
X012973Y017225D02*
X012497Y017225D01*
X012497Y017411D01*
X012973Y017411D01*
X012973Y017338D02*
X012497Y017338D01*
X012973Y017725D02*
X012973Y017911D01*
X012973Y017725D02*
X012497Y017725D01*
X012497Y017911D01*
X012973Y017911D01*
X012973Y017838D02*
X012497Y017838D01*
X010553Y017911D02*
X010553Y017725D01*
X010077Y017725D01*
X010077Y017911D01*
X010553Y017911D01*
X010553Y017838D02*
X010077Y017838D01*
X010553Y017411D02*
X010553Y017225D01*
X010077Y017225D01*
X010077Y017411D01*
X010553Y017411D01*
X010553Y017338D02*
X010077Y017338D01*
X010553Y016911D02*
X010553Y016725D01*
X010077Y016725D01*
X010077Y016911D01*
X010553Y016911D01*
X010553Y016838D02*
X010077Y016838D01*
X010553Y016411D02*
X010553Y016225D01*
X010077Y016225D01*
X010077Y016411D01*
X010553Y016411D01*
X010553Y016338D02*
X010077Y016338D01*
X010553Y015661D02*
X010553Y015475D01*
X010077Y015475D01*
X010077Y015661D01*
X010553Y015661D01*
X010553Y015588D02*
X010077Y015588D01*
X010553Y015161D02*
X010553Y014975D01*
X010077Y014975D01*
X010077Y015161D01*
X010553Y015161D01*
X010553Y015088D02*
X010077Y015088D01*
X010553Y014661D02*
X010553Y014475D01*
X010077Y014475D01*
X010077Y014661D01*
X010553Y014661D01*
X010553Y014588D02*
X010077Y014588D01*
X010553Y014161D02*
X010553Y013975D01*
X010077Y013975D01*
X010077Y014161D01*
X010553Y014161D01*
X010553Y014088D02*
X010077Y014088D01*
X010553Y013411D02*
X010553Y013225D01*
X010077Y013225D01*
X010077Y013411D01*
X010553Y013411D01*
X010553Y013338D02*
X010077Y013338D01*
X010553Y012911D02*
X010553Y012725D01*
X010077Y012725D01*
X010077Y012911D01*
X010553Y012911D01*
X010553Y012838D02*
X010077Y012838D01*
X010553Y012411D02*
X010553Y012225D01*
X010077Y012225D01*
X010077Y012411D01*
X010553Y012411D01*
X010553Y012338D02*
X010077Y012338D01*
X010553Y011911D02*
X010553Y011725D01*
X010077Y011725D01*
X010077Y011911D01*
X010553Y011911D01*
X010553Y011838D02*
X010077Y011838D01*
X007473Y011911D02*
X007473Y011725D01*
X006997Y011725D01*
X006997Y011911D01*
X007473Y011911D01*
X007473Y011838D02*
X006997Y011838D01*
X007473Y012225D02*
X007473Y012411D01*
X007473Y012225D02*
X006997Y012225D01*
X006997Y012411D01*
X007473Y012411D01*
X007473Y012338D02*
X006997Y012338D01*
X007473Y012725D02*
X007473Y012911D01*
X007473Y012725D02*
X006997Y012725D01*
X006997Y012911D01*
X007473Y012911D01*
X007473Y012838D02*
X006997Y012838D01*
X007473Y013225D02*
X007473Y013411D01*
X007473Y013225D02*
X006997Y013225D01*
X006997Y013411D01*
X007473Y013411D01*
X007473Y013338D02*
X006997Y013338D01*
X007473Y013975D02*
X007473Y014161D01*
X007473Y013975D02*
X006997Y013975D01*
X006997Y014161D01*
X007473Y014161D01*
X007473Y014088D02*
X006997Y014088D01*
X007473Y014475D02*
X007473Y014661D01*
X007473Y014475D02*
X006997Y014475D01*
X006997Y014661D01*
X007473Y014661D01*
X007473Y014588D02*
X006997Y014588D01*
X007473Y014975D02*
X007473Y015161D01*
X007473Y014975D02*
X006997Y014975D01*
X006997Y015161D01*
X007473Y015161D01*
X007473Y015088D02*
X006997Y015088D01*
X007473Y015475D02*
X007473Y015661D01*
X007473Y015475D02*
X006997Y015475D01*
X006997Y015661D01*
X007473Y015661D01*
X007473Y015588D02*
X006997Y015588D01*
X007473Y016225D02*
X007473Y016411D01*
X007473Y016225D02*
X006997Y016225D01*
X006997Y016411D01*
X007473Y016411D01*
X007473Y016338D02*
X006997Y016338D01*
X007473Y016725D02*
X007473Y016911D01*
X007473Y016725D02*
X006997Y016725D01*
X006997Y016911D01*
X007473Y016911D01*
X007473Y016838D02*
X006997Y016838D01*
X007473Y017225D02*
X007473Y017411D01*
X007473Y017225D02*
X006997Y017225D01*
X006997Y017411D01*
X007473Y017411D01*
X007473Y017338D02*
X006997Y017338D01*
X007473Y017725D02*
X007473Y017911D01*
X007473Y017725D02*
X006997Y017725D01*
X006997Y017911D01*
X007473Y017911D01*
X007473Y017838D02*
X006997Y017838D01*
X005053Y017911D02*
X005053Y017725D01*
X004577Y017725D01*
X004577Y017911D01*
X005053Y017911D01*
X005053Y017838D02*
X004577Y017838D01*
X005053Y017411D02*
X005053Y017225D01*
X004577Y017225D01*
X004577Y017411D01*
X005053Y017411D01*
X005053Y017338D02*
X004577Y017338D01*
X005053Y016911D02*
X005053Y016725D01*
X004577Y016725D01*
X004577Y016911D01*
X005053Y016911D01*
X005053Y016838D02*
X004577Y016838D01*
X005053Y016411D02*
X005053Y016225D01*
X004577Y016225D01*
X004577Y016411D01*
X005053Y016411D01*
X005053Y016338D02*
X004577Y016338D01*
X005053Y015661D02*
X005053Y015475D01*
X004577Y015475D01*
X004577Y015661D01*
X005053Y015661D01*
X005053Y015588D02*
X004577Y015588D01*
X005053Y015161D02*
X005053Y014975D01*
X004577Y014975D01*
X004577Y015161D01*
X005053Y015161D01*
X005053Y015088D02*
X004577Y015088D01*
X005053Y014661D02*
X005053Y014475D01*
X004577Y014475D01*
X004577Y014661D01*
X005053Y014661D01*
X005053Y014588D02*
X004577Y014588D01*
X005053Y014161D02*
X005053Y013975D01*
X004577Y013975D01*
X004577Y014161D01*
X005053Y014161D01*
X005053Y014088D02*
X004577Y014088D01*
X005053Y013411D02*
X005053Y013225D01*
X004577Y013225D01*
X004577Y013411D01*
X005053Y013411D01*
X005053Y013338D02*
X004577Y013338D01*
X005053Y012911D02*
X005053Y012725D01*
X004577Y012725D01*
X004577Y012911D01*
X005053Y012911D01*
X005053Y012838D02*
X004577Y012838D01*
X005053Y012411D02*
X005053Y012225D01*
X004577Y012225D01*
X004577Y012411D01*
X005053Y012411D01*
X005053Y012338D02*
X004577Y012338D01*
X005053Y011911D02*
X005053Y011725D01*
X004577Y011725D01*
X004577Y011911D01*
X005053Y011911D01*
X005053Y011838D02*
X004577Y011838D01*
D18*
X009006Y013290D02*
X009006Y014126D01*
X009006Y013290D02*
X008170Y013290D01*
X008170Y014126D01*
X009006Y014126D01*
X009006Y013437D02*
X008170Y013437D01*
X008170Y013584D02*
X009006Y013584D01*
X009006Y013731D02*
X008170Y013731D01*
X008170Y013878D02*
X009006Y013878D01*
X009006Y014025D02*
X008170Y014025D01*
X008170Y015259D02*
X008170Y016095D01*
X009006Y016095D01*
X009006Y015259D01*
X008170Y015259D01*
X008170Y015406D02*
X009006Y015406D01*
X009006Y015553D02*
X008170Y015553D01*
X008170Y015700D02*
X009006Y015700D01*
X009006Y015847D02*
X008170Y015847D01*
X008170Y015994D02*
X009006Y015994D01*
X013732Y016095D02*
X013732Y015259D01*
X013732Y016095D02*
X014568Y016095D01*
X014568Y015259D01*
X013732Y015259D01*
X013732Y015406D02*
X014568Y015406D01*
X014568Y015553D02*
X013732Y015553D01*
X013732Y015700D02*
X014568Y015700D01*
X014568Y015847D02*
X013732Y015847D01*
X013732Y015994D02*
X014568Y015994D01*
X014568Y014126D02*
X014568Y013290D01*
X013732Y013290D01*
X013732Y014126D01*
X014568Y014126D01*
X014568Y013437D02*
X013732Y013437D01*
X013732Y013584D02*
X014568Y013584D01*
X014568Y013731D02*
X013732Y013731D01*
X013732Y013878D02*
X014568Y013878D01*
X014568Y014025D02*
X013732Y014025D01*
D19*
X008490Y010843D02*
X008490Y010603D01*
X008490Y010843D02*
X008810Y010843D01*
X008810Y010603D01*
X008490Y010603D01*
X008490Y010716D02*
X008810Y010716D01*
X008810Y010829D02*
X008490Y010829D01*
X008490Y010095D02*
X008490Y009855D01*
X008490Y010095D02*
X008810Y010095D01*
X008810Y009855D01*
X008490Y009855D01*
X008490Y009968D02*
X008810Y009968D01*
X008810Y010081D02*
X008490Y010081D01*
X003833Y008795D02*
X003593Y008795D01*
X003833Y008795D02*
X003833Y008555D01*
X003593Y008555D01*
X003593Y008795D01*
X003593Y008668D02*
X003833Y008668D01*
X003833Y008781D02*
X003593Y008781D01*
X003333Y008795D02*
X003093Y008795D01*
X003333Y008795D02*
X003333Y008555D01*
X003093Y008555D01*
X003093Y008795D01*
X003093Y008668D02*
X003333Y008668D01*
X003333Y008781D02*
X003093Y008781D01*
X003093Y008205D02*
X003333Y008205D01*
X003333Y007965D01*
X003093Y007965D01*
X003093Y008205D01*
X003093Y008078D02*
X003333Y008078D01*
X003333Y008191D02*
X003093Y008191D01*
X003593Y008205D02*
X003833Y008205D01*
X003833Y007965D01*
X003593Y007965D01*
X003593Y008205D01*
X003593Y008078D02*
X003833Y008078D01*
X003833Y008191D02*
X003593Y008191D01*
X013968Y001358D02*
X014208Y001358D01*
X014208Y001118D01*
X013968Y001118D01*
X013968Y001358D01*
X013968Y001231D02*
X014208Y001231D01*
X014208Y001344D02*
X013968Y001344D01*
X013968Y000767D02*
X014208Y000767D01*
X014208Y000527D01*
X013968Y000527D01*
X013968Y000767D01*
X013968Y000640D02*
X014208Y000640D01*
X014208Y000753D02*
X013968Y000753D01*
D20*
X012807Y000439D02*
X012807Y001171D01*
X013119Y001171D01*
X013119Y000439D01*
X012807Y000439D01*
X012807Y000547D02*
X013119Y000547D01*
X013119Y000655D02*
X012807Y000655D01*
X012807Y000763D02*
X013119Y000763D01*
X013119Y000871D02*
X012807Y000871D01*
X012807Y000979D02*
X013119Y000979D01*
X013119Y001087D02*
X012807Y001087D01*
X011494Y001171D02*
X011494Y000439D01*
X011182Y000439D01*
X011182Y001171D01*
X011494Y001171D01*
X011494Y000547D02*
X011182Y000547D01*
X011182Y000655D02*
X011494Y000655D01*
X011494Y000763D02*
X011182Y000763D01*
X011182Y000871D02*
X011494Y000871D01*
X011494Y000979D02*
X011182Y000979D01*
X011182Y001087D02*
X011494Y001087D01*
X011494Y002839D02*
X011494Y003571D01*
X011494Y002839D02*
X011182Y002839D01*
X011182Y003571D01*
X011494Y003571D01*
X011494Y002947D02*
X011182Y002947D01*
X011182Y003055D02*
X011494Y003055D01*
X011494Y003163D02*
X011182Y003163D01*
X011182Y003271D02*
X011494Y003271D01*
X011494Y003379D02*
X011182Y003379D01*
X011182Y003487D02*
X011494Y003487D01*
X012807Y003571D02*
X012807Y002839D01*
X012807Y003571D02*
X013119Y003571D01*
X013119Y002839D01*
X012807Y002839D01*
X012807Y002947D02*
X013119Y002947D01*
X013119Y003055D02*
X012807Y003055D01*
X012807Y003163D02*
X013119Y003163D01*
X013119Y003271D02*
X012807Y003271D01*
X012807Y003379D02*
X013119Y003379D01*
X013119Y003487D02*
X012807Y003487D01*
X015964Y007889D02*
X015964Y008301D01*
X015964Y007889D02*
X015152Y007889D01*
X015152Y008301D01*
X015964Y008301D01*
X015964Y007997D02*
X015152Y007997D01*
X015152Y008105D02*
X015964Y008105D01*
X015964Y008213D02*
X015152Y008213D01*
X015964Y008799D02*
X015964Y009211D01*
X015964Y008799D02*
X015152Y008799D01*
X015152Y009211D01*
X015964Y009211D01*
X015964Y008907D02*
X015152Y008907D01*
X015152Y009015D02*
X015964Y009015D01*
X015964Y009123D02*
X015152Y009123D01*
X015964Y009709D02*
X015964Y010121D01*
X015964Y009709D02*
X015152Y009709D01*
X015152Y010121D01*
X015964Y010121D01*
X015964Y009817D02*
X015152Y009817D01*
X015152Y009925D02*
X015964Y009925D01*
X015964Y010033D02*
X015152Y010033D01*
D21*
X003899Y005952D02*
X002995Y005952D01*
X002995Y006068D01*
X003899Y006068D01*
X003899Y005952D01*
X003899Y005637D02*
X002995Y005637D01*
X002995Y005753D01*
X003899Y005753D01*
X003899Y005637D01*
X003899Y005322D02*
X002995Y005322D01*
X002995Y005438D01*
X003899Y005438D01*
X003899Y005322D01*
X003899Y005007D02*
X002995Y005007D01*
X002995Y005123D01*
X003899Y005123D01*
X003899Y005007D01*
X003899Y004692D02*
X002995Y004692D01*
X002995Y004808D01*
X003899Y004808D01*
X003899Y004692D01*
D22*
X003897Y003257D02*
X002997Y003257D01*
X002997Y003959D01*
X003897Y003959D01*
X003897Y003257D01*
X003897Y003380D02*
X002997Y003380D01*
X002997Y003503D02*
X003897Y003503D01*
X003897Y003626D02*
X002997Y003626D01*
X002997Y003749D02*
X003897Y003749D01*
X003897Y003872D02*
X002997Y003872D01*
X001732Y003257D02*
X000832Y003257D01*
X000832Y003959D01*
X001732Y003959D01*
X001732Y003257D01*
X001732Y003380D02*
X000832Y003380D01*
X000832Y003503D02*
X001732Y003503D01*
X001732Y003626D02*
X000832Y003626D01*
X000832Y003749D02*
X001732Y003749D01*
X001732Y003872D02*
X000832Y003872D01*
X000832Y006801D02*
X001732Y006801D01*
X000832Y006801D02*
X000832Y007503D01*
X001732Y007503D01*
X001732Y006801D01*
X001732Y006924D02*
X000832Y006924D01*
X000832Y007047D02*
X001732Y007047D01*
X001732Y007170D02*
X000832Y007170D01*
X000832Y007293D02*
X001732Y007293D01*
X001732Y007416D02*
X000832Y007416D01*
X002997Y006801D02*
X003897Y006801D01*
X002997Y006801D02*
X002997Y007503D01*
X003897Y007503D01*
X003897Y006801D01*
X003897Y006924D02*
X002997Y006924D01*
X002997Y007047D02*
X003897Y007047D01*
X003897Y007170D02*
X002997Y007170D01*
X002997Y007293D02*
X003897Y007293D01*
X003897Y007416D02*
X002997Y007416D01*
D23*
X002463Y006246D03*
X002463Y004514D03*
D24*
X013503Y008345D02*
X013503Y009665D01*
X013503Y008345D02*
X012733Y008345D01*
X012733Y009665D01*
X013503Y009665D01*
X013503Y008480D02*
X012733Y008480D01*
X012733Y008615D02*
X013503Y008615D01*
X013503Y008750D02*
X012733Y008750D01*
X012733Y008885D02*
X013503Y008885D01*
X013503Y009020D02*
X012733Y009020D01*
X012733Y009155D02*
X013503Y009155D01*
X013503Y009290D02*
X012733Y009290D01*
X012733Y009425D02*
X013503Y009425D01*
X013503Y009560D02*
X012733Y009560D01*
D25*
X016696Y009596D02*
X017128Y009596D01*
X017128Y009164D01*
X016696Y009164D01*
X016696Y009596D01*
X016696Y009271D02*
X017128Y009271D01*
X017128Y009378D02*
X016696Y009378D01*
X016696Y009485D02*
X017128Y009485D01*
X017128Y009592D02*
X016696Y009592D01*
X016696Y010471D02*
X017128Y010471D01*
X017128Y010039D01*
X016696Y010039D01*
X016696Y010471D01*
X016696Y010146D02*
X017128Y010146D01*
X017128Y010253D02*
X016696Y010253D01*
X016696Y010360D02*
X017128Y010360D01*
X017128Y010467D02*
X016696Y010467D01*
X017798Y010039D02*
X018230Y010039D01*
X017798Y010039D02*
X017798Y010471D01*
X018230Y010471D01*
X018230Y010039D01*
X018230Y010146D02*
X017798Y010146D01*
X017798Y010253D02*
X018230Y010253D01*
X018230Y010360D02*
X017798Y010360D01*
X017798Y010467D02*
X018230Y010467D01*
X018230Y009164D02*
X017798Y009164D01*
X017798Y009596D01*
X018230Y009596D01*
X018230Y009164D01*
X018230Y009271D02*
X017798Y009271D01*
X017798Y009378D02*
X018230Y009378D01*
X018230Y009485D02*
X017798Y009485D01*
X017798Y009592D02*
X018230Y009592D01*
D26*
X011783Y009314D02*
X011783Y009878D01*
X012267Y009878D01*
X012267Y009314D01*
X011783Y009314D01*
X011783Y009419D02*
X012267Y009419D01*
X012267Y009524D02*
X011783Y009524D01*
X011783Y009629D02*
X012267Y009629D01*
X012267Y009734D02*
X011783Y009734D01*
X011783Y009839D02*
X012267Y009839D01*
X012267Y008696D02*
X012267Y008132D01*
X011783Y008132D01*
X011783Y008696D01*
X012267Y008696D01*
X012267Y008237D02*
X011783Y008237D01*
X011783Y008342D02*
X012267Y008342D01*
X012267Y008447D02*
X011783Y008447D01*
X011783Y008552D02*
X012267Y008552D01*
X012267Y008657D02*
X011783Y008657D01*
D27*
X013742Y011751D03*
X013742Y012066D03*
X013742Y012381D03*
X013742Y012696D03*
X014372Y012696D03*
X014372Y012381D03*
X014372Y012066D03*
X014372Y011751D03*
X019148Y011352D03*
X019148Y011037D03*
X019148Y010723D03*
X019148Y010408D03*
X019778Y010408D03*
X019778Y010723D03*
X019778Y011037D03*
X019778Y011352D03*
X008840Y011751D03*
X008840Y012066D03*
X008840Y012381D03*
X008840Y012696D03*
X008210Y012696D03*
X008210Y012381D03*
X008210Y012066D03*
X008210Y011751D03*
D28*
X011328Y006667D02*
X011328Y005987D01*
X011328Y006667D02*
X011692Y006667D01*
X011692Y005987D01*
X011328Y005987D01*
X011328Y006095D02*
X011692Y006095D01*
X011692Y006203D02*
X011328Y006203D01*
X011328Y006311D02*
X011692Y006311D01*
X011692Y006419D02*
X011328Y006419D01*
X011328Y006527D02*
X011692Y006527D01*
X011692Y006635D02*
X011328Y006635D01*
X012234Y006667D02*
X012234Y005987D01*
X012234Y006667D02*
X012598Y006667D01*
X012598Y005987D01*
X012234Y005987D01*
X012234Y006095D02*
X012598Y006095D01*
X012598Y006203D02*
X012234Y006203D01*
X012234Y006311D02*
X012598Y006311D01*
X012598Y006419D02*
X012234Y006419D01*
X012234Y006527D02*
X012598Y006527D01*
X012598Y006635D02*
X012234Y006635D01*
X012234Y005210D02*
X012234Y004530D01*
X012234Y005210D02*
X012598Y005210D01*
X012598Y004530D01*
X012234Y004530D01*
X012234Y004638D02*
X012598Y004638D01*
X012598Y004746D02*
X012234Y004746D01*
X012234Y004854D02*
X012598Y004854D01*
X012598Y004962D02*
X012234Y004962D01*
X012234Y005070D02*
X012598Y005070D01*
X012598Y005178D02*
X012234Y005178D01*
X011328Y005210D02*
X011328Y004530D01*
X011328Y005210D02*
X011692Y005210D01*
X011692Y004530D01*
X011328Y004530D01*
X011328Y004638D02*
X011692Y004638D01*
X011692Y004746D02*
X011328Y004746D01*
X011328Y004854D02*
X011692Y004854D01*
X011692Y004962D02*
X011328Y004962D01*
X011328Y005070D02*
X011692Y005070D01*
X011692Y005178D02*
X011328Y005178D01*
D29*
X010771Y005175D02*
X010393Y005175D01*
X010771Y005175D02*
X010771Y005151D01*
X010393Y005151D01*
X010393Y005175D01*
X010393Y005372D02*
X010771Y005372D01*
X010771Y005348D01*
X010393Y005348D01*
X010393Y005372D01*
X010393Y005569D02*
X010771Y005569D01*
X010771Y005545D01*
X010393Y005545D01*
X010393Y005569D01*
X010393Y005766D02*
X010771Y005766D01*
X010771Y005742D01*
X010393Y005742D01*
X010393Y005766D01*
X010393Y005962D02*
X010771Y005962D01*
X010771Y005938D01*
X010393Y005938D01*
X010393Y005962D01*
X010393Y006159D02*
X010771Y006159D01*
X010771Y006135D01*
X010393Y006135D01*
X010393Y006159D01*
X010393Y006356D02*
X010771Y006356D01*
X010771Y006332D01*
X010393Y006332D01*
X010393Y006356D01*
X010393Y006553D02*
X010771Y006553D01*
X010771Y006529D01*
X010393Y006529D01*
X010393Y006553D01*
X010393Y006750D02*
X010771Y006750D01*
X010771Y006726D01*
X010393Y006726D01*
X010393Y006750D01*
X010393Y006947D02*
X010771Y006947D01*
X010771Y006923D01*
X010393Y006923D01*
X010393Y006947D01*
X010393Y007143D02*
X010771Y007143D01*
X010771Y007119D01*
X010393Y007119D01*
X010393Y007143D01*
X010393Y007340D02*
X010771Y007340D01*
X010771Y007316D01*
X010393Y007316D01*
X010393Y007340D01*
X010393Y007537D02*
X010771Y007537D01*
X010771Y007513D01*
X010393Y007513D01*
X010393Y007537D01*
X010393Y007734D02*
X010771Y007734D01*
X010771Y007710D01*
X010393Y007710D01*
X010393Y007734D01*
X010393Y007931D02*
X010771Y007931D01*
X010771Y007907D01*
X010393Y007907D01*
X010393Y007931D01*
X009826Y008876D02*
X009802Y008876D01*
X009826Y008876D02*
X009826Y008498D01*
X009802Y008498D01*
X009802Y008876D01*
X009802Y008631D02*
X009826Y008631D01*
X009826Y008764D02*
X009802Y008764D01*
X009629Y008876D02*
X009605Y008876D01*
X009629Y008876D02*
X009629Y008498D01*
X009605Y008498D01*
X009605Y008876D01*
X009605Y008631D02*
X009629Y008631D01*
X009629Y008764D02*
X009605Y008764D01*
X009433Y008876D02*
X009409Y008876D01*
X009433Y008876D02*
X009433Y008498D01*
X009409Y008498D01*
X009409Y008876D01*
X009409Y008631D02*
X009433Y008631D01*
X009433Y008764D02*
X009409Y008764D01*
X009236Y008876D02*
X009212Y008876D01*
X009236Y008876D02*
X009236Y008498D01*
X009212Y008498D01*
X009212Y008876D01*
X009212Y008631D02*
X009236Y008631D01*
X009236Y008764D02*
X009212Y008764D01*
X009039Y008876D02*
X009015Y008876D01*
X009039Y008876D02*
X009039Y008498D01*
X009015Y008498D01*
X009015Y008876D01*
X009015Y008631D02*
X009039Y008631D01*
X009039Y008764D02*
X009015Y008764D01*
X008842Y008876D02*
X008818Y008876D01*
X008842Y008876D02*
X008842Y008498D01*
X008818Y008498D01*
X008818Y008876D01*
X008818Y008631D02*
X008842Y008631D01*
X008842Y008764D02*
X008818Y008764D01*
X008645Y008876D02*
X008621Y008876D01*
X008645Y008876D02*
X008645Y008498D01*
X008621Y008498D01*
X008621Y008876D01*
X008621Y008631D02*
X008645Y008631D01*
X008645Y008764D02*
X008621Y008764D01*
X008448Y008876D02*
X008424Y008876D01*
X008448Y008876D02*
X008448Y008498D01*
X008424Y008498D01*
X008424Y008876D01*
X008424Y008631D02*
X008448Y008631D01*
X008448Y008764D02*
X008424Y008764D01*
X008251Y008876D02*
X008227Y008876D01*
X008251Y008876D02*
X008251Y008498D01*
X008227Y008498D01*
X008227Y008876D01*
X008227Y008631D02*
X008251Y008631D01*
X008251Y008764D02*
X008227Y008764D01*
X008055Y008876D02*
X008031Y008876D01*
X008055Y008876D02*
X008055Y008498D01*
X008031Y008498D01*
X008031Y008876D01*
X008031Y008631D02*
X008055Y008631D01*
X008055Y008764D02*
X008031Y008764D01*
X007858Y008876D02*
X007834Y008876D01*
X007858Y008876D02*
X007858Y008498D01*
X007834Y008498D01*
X007834Y008876D01*
X007834Y008631D02*
X007858Y008631D01*
X007858Y008764D02*
X007834Y008764D01*
X007661Y008876D02*
X007637Y008876D01*
X007661Y008876D02*
X007661Y008498D01*
X007637Y008498D01*
X007637Y008876D01*
X007637Y008631D02*
X007661Y008631D01*
X007661Y008764D02*
X007637Y008764D01*
X007464Y008876D02*
X007440Y008876D01*
X007464Y008876D02*
X007464Y008498D01*
X007440Y008498D01*
X007440Y008876D01*
X007440Y008631D02*
X007464Y008631D01*
X007464Y008764D02*
X007440Y008764D01*
X007267Y008876D02*
X007243Y008876D01*
X007267Y008876D02*
X007267Y008498D01*
X007243Y008498D01*
X007243Y008876D01*
X007243Y008631D02*
X007267Y008631D01*
X007267Y008764D02*
X007243Y008764D01*
X007070Y008876D02*
X007046Y008876D01*
X007070Y008876D02*
X007070Y008498D01*
X007046Y008498D01*
X007046Y008876D01*
X007046Y008631D02*
X007070Y008631D01*
X007070Y008764D02*
X007046Y008764D01*
X006873Y008876D02*
X006849Y008876D01*
X006873Y008876D02*
X006873Y008498D01*
X006849Y008498D01*
X006849Y008876D01*
X006849Y008631D02*
X006873Y008631D01*
X006873Y008764D02*
X006849Y008764D01*
X006283Y007931D02*
X005905Y007931D01*
X006283Y007931D02*
X006283Y007907D01*
X005905Y007907D01*
X005905Y007931D01*
X005905Y007734D02*
X006283Y007734D01*
X006283Y007710D01*
X005905Y007710D01*
X005905Y007734D01*
X005905Y007537D02*
X006283Y007537D01*
X006283Y007513D01*
X005905Y007513D01*
X005905Y007537D01*
X005905Y007340D02*
X006283Y007340D01*
X006283Y007316D01*
X005905Y007316D01*
X005905Y007340D01*
X005905Y007143D02*
X006283Y007143D01*
X006283Y007119D01*
X005905Y007119D01*
X005905Y007143D01*
X005905Y006947D02*
X006283Y006947D01*
X006283Y006923D01*
X005905Y006923D01*
X005905Y006947D01*
X005905Y006750D02*
X006283Y006750D01*
X006283Y006726D01*
X005905Y006726D01*
X005905Y006750D01*
X005905Y006553D02*
X006283Y006553D01*
X006283Y006529D01*
X005905Y006529D01*
X005905Y006553D01*
X005905Y006356D02*
X006283Y006356D01*
X006283Y006332D01*
X005905Y006332D01*
X005905Y006356D01*
X005905Y006159D02*
X006283Y006159D01*
X006283Y006135D01*
X005905Y006135D01*
X005905Y006159D01*
X005905Y005962D02*
X006283Y005962D01*
X006283Y005938D01*
X005905Y005938D01*
X005905Y005962D01*
X005905Y005766D02*
X006283Y005766D01*
X006283Y005742D01*
X005905Y005742D01*
X005905Y005766D01*
X005905Y005569D02*
X006283Y005569D01*
X006283Y005545D01*
X005905Y005545D01*
X005905Y005569D01*
X005905Y005372D02*
X006283Y005372D01*
X006283Y005348D01*
X005905Y005348D01*
X005905Y005372D01*
X005905Y005175D02*
X006283Y005175D01*
X006283Y005151D01*
X005905Y005151D01*
X005905Y005175D01*
X005905Y004978D02*
X006283Y004978D01*
X006283Y004954D01*
X005905Y004954D01*
X005905Y004978D01*
X006849Y004387D02*
X006873Y004387D01*
X006873Y004009D01*
X006849Y004009D01*
X006849Y004387D01*
X006849Y004142D02*
X006873Y004142D01*
X006873Y004275D02*
X006849Y004275D01*
X007046Y004387D02*
X007070Y004387D01*
X007070Y004009D01*
X007046Y004009D01*
X007046Y004387D01*
X007046Y004142D02*
X007070Y004142D01*
X007070Y004275D02*
X007046Y004275D01*
X007243Y004387D02*
X007267Y004387D01*
X007267Y004009D01*
X007243Y004009D01*
X007243Y004387D01*
X007243Y004142D02*
X007267Y004142D01*
X007267Y004275D02*
X007243Y004275D01*
X007440Y004387D02*
X007464Y004387D01*
X007464Y004009D01*
X007440Y004009D01*
X007440Y004387D01*
X007440Y004142D02*
X007464Y004142D01*
X007464Y004275D02*
X007440Y004275D01*
X007637Y004387D02*
X007661Y004387D01*
X007661Y004009D01*
X007637Y004009D01*
X007637Y004387D01*
X007637Y004142D02*
X007661Y004142D01*
X007661Y004275D02*
X007637Y004275D01*
X007834Y004387D02*
X007858Y004387D01*
X007858Y004009D01*
X007834Y004009D01*
X007834Y004387D01*
X007834Y004142D02*
X007858Y004142D01*
X007858Y004275D02*
X007834Y004275D01*
X008031Y004387D02*
X008055Y004387D01*
X008055Y004009D01*
X008031Y004009D01*
X008031Y004387D01*
X008031Y004142D02*
X008055Y004142D01*
X008055Y004275D02*
X008031Y004275D01*
X008227Y004387D02*
X008251Y004387D01*
X008251Y004009D01*
X008227Y004009D01*
X008227Y004387D01*
X008227Y004142D02*
X008251Y004142D01*
X008251Y004275D02*
X008227Y004275D01*
X008424Y004387D02*
X008448Y004387D01*
X008448Y004009D01*
X008424Y004009D01*
X008424Y004387D01*
X008424Y004142D02*
X008448Y004142D01*
X008448Y004275D02*
X008424Y004275D01*
X008621Y004387D02*
X008645Y004387D01*
X008645Y004009D01*
X008621Y004009D01*
X008621Y004387D01*
X008621Y004142D02*
X008645Y004142D01*
X008645Y004275D02*
X008621Y004275D01*
X008818Y004387D02*
X008842Y004387D01*
X008842Y004009D01*
X008818Y004009D01*
X008818Y004387D01*
X008818Y004142D02*
X008842Y004142D01*
X008842Y004275D02*
X008818Y004275D01*
X009015Y004387D02*
X009039Y004387D01*
X009039Y004009D01*
X009015Y004009D01*
X009015Y004387D01*
X009015Y004142D02*
X009039Y004142D01*
X009039Y004275D02*
X009015Y004275D01*
X009212Y004387D02*
X009236Y004387D01*
X009236Y004009D01*
X009212Y004009D01*
X009212Y004387D01*
X009212Y004142D02*
X009236Y004142D01*
X009236Y004275D02*
X009212Y004275D01*
X009409Y004387D02*
X009433Y004387D01*
X009433Y004009D01*
X009409Y004009D01*
X009409Y004387D01*
X009409Y004142D02*
X009433Y004142D01*
X009433Y004275D02*
X009409Y004275D01*
X009605Y004387D02*
X009629Y004387D01*
X009629Y004009D01*
X009605Y004009D01*
X009605Y004387D01*
X009605Y004142D02*
X009629Y004142D01*
X009629Y004275D02*
X009605Y004275D01*
X009802Y004387D02*
X009826Y004387D01*
X009826Y004009D01*
X009802Y004009D01*
X009802Y004387D01*
X009802Y004142D02*
X009826Y004142D01*
X009826Y004275D02*
X009802Y004275D01*
X010393Y004978D02*
X010771Y004978D01*
X010771Y004954D01*
X010393Y004954D01*
X010393Y004978D01*
X013815Y004972D02*
X014035Y004972D01*
X014035Y004948D01*
X013815Y004948D01*
X013815Y004972D01*
X013815Y005169D02*
X014035Y005169D01*
X014035Y005145D01*
X013815Y005145D01*
X013815Y005169D01*
X013815Y005365D02*
X014035Y005365D01*
X014035Y005341D01*
X013815Y005341D01*
X013815Y005365D01*
X013815Y005562D02*
X014035Y005562D01*
X014035Y005538D01*
X013815Y005538D01*
X013815Y005562D01*
X013815Y005759D02*
X014035Y005759D01*
X014035Y005735D01*
X013815Y005735D01*
X013815Y005759D01*
X014209Y005932D02*
X014209Y006152D01*
X014233Y006152D01*
X014233Y005932D01*
X014209Y005932D01*
X014209Y006065D02*
X014233Y006065D01*
X014406Y006152D02*
X014406Y005932D01*
X014406Y006152D02*
X014430Y006152D01*
X014430Y005932D01*
X014406Y005932D01*
X014406Y006065D02*
X014430Y006065D01*
X014602Y006152D02*
X014602Y005932D01*
X014602Y006152D02*
X014626Y006152D01*
X014626Y005932D01*
X014602Y005932D01*
X014602Y006065D02*
X014626Y006065D01*
X014799Y006152D02*
X014799Y005932D01*
X014799Y006152D02*
X014823Y006152D01*
X014823Y005932D01*
X014799Y005932D01*
X014799Y006065D02*
X014823Y006065D01*
X014996Y006152D02*
X014996Y005932D01*
X014996Y006152D02*
X015020Y006152D01*
X015020Y005932D01*
X014996Y005932D01*
X014996Y006065D02*
X015020Y006065D01*
X015193Y006152D02*
X015193Y005932D01*
X015193Y006152D02*
X015217Y006152D01*
X015217Y005932D01*
X015193Y005932D01*
X015193Y006065D02*
X015217Y006065D01*
X015390Y005735D02*
X015610Y005735D01*
X015390Y005735D02*
X015390Y005759D01*
X015610Y005759D01*
X015610Y005735D01*
X015610Y005538D02*
X015390Y005538D01*
X015390Y005562D01*
X015610Y005562D01*
X015610Y005538D01*
X015610Y005341D02*
X015390Y005341D01*
X015390Y005365D01*
X015610Y005365D01*
X015610Y005341D01*
X015610Y005145D02*
X015390Y005145D01*
X015390Y005169D01*
X015610Y005169D01*
X015610Y005145D01*
X015610Y004948D02*
X015390Y004948D01*
X015390Y004972D01*
X015610Y004972D01*
X015610Y004948D01*
X015610Y004751D02*
X015390Y004751D01*
X015390Y004775D01*
X015610Y004775D01*
X015610Y004751D01*
X015217Y004578D02*
X015217Y004358D01*
X015193Y004358D01*
X015193Y004578D01*
X015217Y004578D01*
X015217Y004491D02*
X015193Y004491D01*
X015020Y004578D02*
X015020Y004358D01*
X014996Y004358D01*
X014996Y004578D01*
X015020Y004578D01*
X015020Y004491D02*
X014996Y004491D01*
X014823Y004578D02*
X014823Y004358D01*
X014799Y004358D01*
X014799Y004578D01*
X014823Y004578D01*
X014823Y004491D02*
X014799Y004491D01*
X014626Y004578D02*
X014626Y004358D01*
X014602Y004358D01*
X014602Y004578D01*
X014626Y004578D01*
X014626Y004491D02*
X014602Y004491D01*
X014430Y004578D02*
X014430Y004358D01*
X014406Y004358D01*
X014406Y004578D01*
X014430Y004578D01*
X014430Y004491D02*
X014406Y004491D01*
X014233Y004578D02*
X014233Y004358D01*
X014209Y004358D01*
X014209Y004578D01*
X014233Y004578D01*
X014233Y004491D02*
X014209Y004491D01*
X014035Y004775D02*
X013815Y004775D01*
X014035Y004775D02*
X014035Y004751D01*
X013815Y004751D01*
X013815Y004775D01*
D30*
X014713Y005255D03*
D31*
X001390Y009767D03*
X001390Y010259D03*
X001390Y010751D03*
X001390Y011243D03*
D32*
X003463Y013539D03*
X003463Y014130D03*
X003463Y014721D03*
D33*
X015838Y001130D03*
X017338Y001130D03*
M02*
