G75*
%MOIN*%
%OFA0B0*%
%FSLAX24Y24*%
%IPPOS*%
%LPD*%
%AMOC8*
5,1,8,0,0,1.08239X$1,22.5*
%
%ADD10C,0.0000*%
%ADD11C,0.0080*%
%ADD12C,0.0030*%
%ADD13C,0.0110*%
D10*
X003149Y002980D02*
X003149Y009279D01*
X003148Y009279D02*
X003150Y009318D01*
X003156Y009356D01*
X003165Y009393D01*
X003178Y009430D01*
X003195Y009465D01*
X003214Y009498D01*
X003237Y009529D01*
X003263Y009558D01*
X003292Y009584D01*
X003323Y009607D01*
X003356Y009626D01*
X003391Y009643D01*
X003428Y009656D01*
X003465Y009665D01*
X003503Y009671D01*
X003542Y009673D01*
X003540Y009670D02*
X004560Y009670D01*
X004565Y009670D02*
X004618Y009673D01*
X004672Y009679D01*
X004724Y009689D01*
X004776Y009703D01*
X004826Y009721D01*
X004876Y009742D01*
X004923Y009767D01*
X004969Y009795D01*
X005012Y009826D01*
X005054Y009860D01*
X005092Y009897D01*
X005128Y009936D01*
X005161Y009979D01*
X005191Y010023D01*
X005218Y010069D01*
X005241Y010118D01*
X005261Y010167D01*
X005277Y010218D01*
X005290Y010270D01*
X005299Y010323D01*
X005304Y010376D01*
X005305Y010430D01*
X005421Y010930D02*
X005423Y010957D01*
X005429Y010984D01*
X005438Y011010D01*
X005451Y011034D01*
X005467Y011057D01*
X005486Y011076D01*
X005508Y011093D01*
X005532Y011107D01*
X005557Y011117D01*
X005584Y011124D01*
X005611Y011127D01*
X005639Y011126D01*
X005666Y011121D01*
X005692Y011113D01*
X005716Y011101D01*
X005739Y011085D01*
X005760Y011067D01*
X005777Y011046D01*
X005792Y011022D01*
X005803Y010997D01*
X005811Y010971D01*
X005815Y010944D01*
X005815Y010916D01*
X005811Y010889D01*
X005803Y010863D01*
X005792Y010838D01*
X005777Y010814D01*
X005760Y010793D01*
X005739Y010775D01*
X005717Y010759D01*
X005692Y010747D01*
X005666Y010739D01*
X005639Y010734D01*
X005611Y010733D01*
X005584Y010736D01*
X005557Y010743D01*
X005532Y010753D01*
X005508Y010767D01*
X005486Y010784D01*
X005467Y010803D01*
X005451Y010826D01*
X005438Y010850D01*
X005429Y010876D01*
X005423Y010903D01*
X005421Y010930D01*
X005983Y010930D02*
X005985Y010957D01*
X005991Y010984D01*
X006000Y011010D01*
X006013Y011034D01*
X006029Y011057D01*
X006048Y011076D01*
X006070Y011093D01*
X006094Y011107D01*
X006119Y011117D01*
X006146Y011124D01*
X006173Y011127D01*
X006201Y011126D01*
X006228Y011121D01*
X006254Y011113D01*
X006278Y011101D01*
X006301Y011085D01*
X006322Y011067D01*
X006339Y011046D01*
X006354Y011022D01*
X006365Y010997D01*
X006373Y010971D01*
X006377Y010944D01*
X006377Y010916D01*
X006373Y010889D01*
X006365Y010863D01*
X006354Y010838D01*
X006339Y010814D01*
X006322Y010793D01*
X006301Y010775D01*
X006279Y010759D01*
X006254Y010747D01*
X006228Y010739D01*
X006201Y010734D01*
X006173Y010733D01*
X006146Y010736D01*
X006119Y010743D01*
X006094Y010753D01*
X006070Y010767D01*
X006048Y010784D01*
X006029Y010803D01*
X006013Y010826D01*
X006000Y010850D01*
X005991Y010876D01*
X005985Y010903D01*
X005983Y010930D01*
X006546Y010930D02*
X006548Y010957D01*
X006554Y010984D01*
X006563Y011010D01*
X006576Y011034D01*
X006592Y011057D01*
X006611Y011076D01*
X006633Y011093D01*
X006657Y011107D01*
X006682Y011117D01*
X006709Y011124D01*
X006736Y011127D01*
X006764Y011126D01*
X006791Y011121D01*
X006817Y011113D01*
X006841Y011101D01*
X006864Y011085D01*
X006885Y011067D01*
X006902Y011046D01*
X006917Y011022D01*
X006928Y010997D01*
X006936Y010971D01*
X006940Y010944D01*
X006940Y010916D01*
X006936Y010889D01*
X006928Y010863D01*
X006917Y010838D01*
X006902Y010814D01*
X006885Y010793D01*
X006864Y010775D01*
X006842Y010759D01*
X006817Y010747D01*
X006791Y010739D01*
X006764Y010734D01*
X006736Y010733D01*
X006709Y010736D01*
X006682Y010743D01*
X006657Y010753D01*
X006633Y010767D01*
X006611Y010784D01*
X006592Y010803D01*
X006576Y010826D01*
X006563Y010850D01*
X006554Y010876D01*
X006548Y010903D01*
X006546Y010930D01*
X006546Y009930D02*
X006548Y009957D01*
X006554Y009984D01*
X006563Y010010D01*
X006576Y010034D01*
X006592Y010057D01*
X006611Y010076D01*
X006633Y010093D01*
X006657Y010107D01*
X006682Y010117D01*
X006709Y010124D01*
X006736Y010127D01*
X006764Y010126D01*
X006791Y010121D01*
X006817Y010113D01*
X006841Y010101D01*
X006864Y010085D01*
X006885Y010067D01*
X006902Y010046D01*
X006917Y010022D01*
X006928Y009997D01*
X006936Y009971D01*
X006940Y009944D01*
X006940Y009916D01*
X006936Y009889D01*
X006928Y009863D01*
X006917Y009838D01*
X006902Y009814D01*
X006885Y009793D01*
X006864Y009775D01*
X006842Y009759D01*
X006817Y009747D01*
X006791Y009739D01*
X006764Y009734D01*
X006736Y009733D01*
X006709Y009736D01*
X006682Y009743D01*
X006657Y009753D01*
X006633Y009767D01*
X006611Y009784D01*
X006592Y009803D01*
X006576Y009826D01*
X006563Y009850D01*
X006554Y009876D01*
X006548Y009903D01*
X006546Y009930D01*
X005983Y009930D02*
X005985Y009957D01*
X005991Y009984D01*
X006000Y010010D01*
X006013Y010034D01*
X006029Y010057D01*
X006048Y010076D01*
X006070Y010093D01*
X006094Y010107D01*
X006119Y010117D01*
X006146Y010124D01*
X006173Y010127D01*
X006201Y010126D01*
X006228Y010121D01*
X006254Y010113D01*
X006278Y010101D01*
X006301Y010085D01*
X006322Y010067D01*
X006339Y010046D01*
X006354Y010022D01*
X006365Y009997D01*
X006373Y009971D01*
X006377Y009944D01*
X006377Y009916D01*
X006373Y009889D01*
X006365Y009863D01*
X006354Y009838D01*
X006339Y009814D01*
X006322Y009793D01*
X006301Y009775D01*
X006279Y009759D01*
X006254Y009747D01*
X006228Y009739D01*
X006201Y009734D01*
X006173Y009733D01*
X006146Y009736D01*
X006119Y009743D01*
X006094Y009753D01*
X006070Y009767D01*
X006048Y009784D01*
X006029Y009803D01*
X006013Y009826D01*
X006000Y009850D01*
X005991Y009876D01*
X005985Y009903D01*
X005983Y009930D01*
X005421Y009930D02*
X005423Y009957D01*
X005429Y009984D01*
X005438Y010010D01*
X005451Y010034D01*
X005467Y010057D01*
X005486Y010076D01*
X005508Y010093D01*
X005532Y010107D01*
X005557Y010117D01*
X005584Y010124D01*
X005611Y010127D01*
X005639Y010126D01*
X005666Y010121D01*
X005692Y010113D01*
X005716Y010101D01*
X005739Y010085D01*
X005760Y010067D01*
X005777Y010046D01*
X005792Y010022D01*
X005803Y009997D01*
X005811Y009971D01*
X005815Y009944D01*
X005815Y009916D01*
X005811Y009889D01*
X005803Y009863D01*
X005792Y009838D01*
X005777Y009814D01*
X005760Y009793D01*
X005739Y009775D01*
X005717Y009759D01*
X005692Y009747D01*
X005666Y009739D01*
X005639Y009734D01*
X005611Y009733D01*
X005584Y009736D01*
X005557Y009743D01*
X005532Y009753D01*
X005508Y009767D01*
X005486Y009784D01*
X005467Y009803D01*
X005451Y009826D01*
X005438Y009850D01*
X005429Y009876D01*
X005423Y009903D01*
X005421Y009930D01*
X005305Y010430D02*
X005303Y010484D01*
X005297Y010537D01*
X005288Y010589D01*
X005275Y010641D01*
X005258Y010692D01*
X005237Y010742D01*
X005213Y010789D01*
X005186Y010835D01*
X005155Y010879D01*
X005122Y010921D01*
X005085Y010960D01*
X005046Y010997D01*
X005004Y011030D01*
X004960Y011061D01*
X004914Y011088D01*
X004867Y011112D01*
X004817Y011133D01*
X004766Y011150D01*
X004714Y011163D01*
X004662Y011172D01*
X004609Y011178D01*
X004555Y011180D01*
X004560Y011180D02*
X003540Y011180D01*
X003542Y011180D02*
X003503Y011182D01*
X003465Y011188D01*
X003428Y011197D01*
X003391Y011210D01*
X003356Y011227D01*
X003323Y011246D01*
X003292Y011269D01*
X003263Y011295D01*
X003237Y011324D01*
X003214Y011355D01*
X003195Y011388D01*
X003178Y011423D01*
X003165Y011460D01*
X003156Y011497D01*
X003150Y011535D01*
X003148Y011574D01*
X003149Y011574D02*
X003149Y017873D01*
X003148Y017873D02*
X003150Y017912D01*
X003156Y017950D01*
X003165Y017987D01*
X003178Y018024D01*
X003195Y018059D01*
X003214Y018092D01*
X003237Y018123D01*
X003263Y018152D01*
X003292Y018178D01*
X003323Y018201D01*
X003356Y018220D01*
X003391Y018237D01*
X003428Y018250D01*
X003465Y018259D01*
X003503Y018265D01*
X003542Y018267D01*
X008786Y018267D01*
X008825Y018265D01*
X008863Y018259D01*
X008900Y018250D01*
X008937Y018237D01*
X008972Y018220D01*
X009005Y018201D01*
X009036Y018178D01*
X009065Y018152D01*
X009091Y018123D01*
X009114Y018092D01*
X009133Y018059D01*
X009150Y018024D01*
X009163Y017987D01*
X009172Y017950D01*
X009178Y017912D01*
X009180Y017873D01*
X009180Y017868D02*
X009180Y016305D01*
X009182Y016251D01*
X009188Y016198D01*
X009197Y016146D01*
X009210Y016094D01*
X009227Y016043D01*
X009248Y015993D01*
X009272Y015946D01*
X009299Y015900D01*
X009330Y015856D01*
X009363Y015814D01*
X009400Y015775D01*
X009439Y015738D01*
X009481Y015705D01*
X009525Y015674D01*
X009571Y015647D01*
X009618Y015623D01*
X009668Y015602D01*
X009719Y015585D01*
X009771Y015572D01*
X009823Y015563D01*
X009876Y015557D01*
X009930Y015555D01*
X009233Y015243D02*
X009235Y015270D01*
X009241Y015297D01*
X009250Y015323D01*
X009263Y015347D01*
X009279Y015370D01*
X009298Y015389D01*
X009320Y015406D01*
X009344Y015420D01*
X009369Y015430D01*
X009396Y015437D01*
X009423Y015440D01*
X009451Y015439D01*
X009478Y015434D01*
X009504Y015426D01*
X009528Y015414D01*
X009551Y015398D01*
X009572Y015380D01*
X009589Y015359D01*
X009604Y015335D01*
X009615Y015310D01*
X009623Y015284D01*
X009627Y015257D01*
X009627Y015229D01*
X009623Y015202D01*
X009615Y015176D01*
X009604Y015151D01*
X009589Y015127D01*
X009572Y015106D01*
X009551Y015088D01*
X009529Y015072D01*
X009504Y015060D01*
X009478Y015052D01*
X009451Y015047D01*
X009423Y015046D01*
X009396Y015049D01*
X009369Y015056D01*
X009344Y015066D01*
X009320Y015080D01*
X009298Y015097D01*
X009279Y015116D01*
X009263Y015139D01*
X009250Y015163D01*
X009241Y015189D01*
X009235Y015216D01*
X009233Y015243D01*
X009233Y014680D02*
X009235Y014707D01*
X009241Y014734D01*
X009250Y014760D01*
X009263Y014784D01*
X009279Y014807D01*
X009298Y014826D01*
X009320Y014843D01*
X009344Y014857D01*
X009369Y014867D01*
X009396Y014874D01*
X009423Y014877D01*
X009451Y014876D01*
X009478Y014871D01*
X009504Y014863D01*
X009528Y014851D01*
X009551Y014835D01*
X009572Y014817D01*
X009589Y014796D01*
X009604Y014772D01*
X009615Y014747D01*
X009623Y014721D01*
X009627Y014694D01*
X009627Y014666D01*
X009623Y014639D01*
X009615Y014613D01*
X009604Y014588D01*
X009589Y014564D01*
X009572Y014543D01*
X009551Y014525D01*
X009529Y014509D01*
X009504Y014497D01*
X009478Y014489D01*
X009451Y014484D01*
X009423Y014483D01*
X009396Y014486D01*
X009369Y014493D01*
X009344Y014503D01*
X009320Y014517D01*
X009298Y014534D01*
X009279Y014553D01*
X009263Y014576D01*
X009250Y014600D01*
X009241Y014626D01*
X009235Y014653D01*
X009233Y014680D01*
X009233Y014118D02*
X009235Y014145D01*
X009241Y014172D01*
X009250Y014198D01*
X009263Y014222D01*
X009279Y014245D01*
X009298Y014264D01*
X009320Y014281D01*
X009344Y014295D01*
X009369Y014305D01*
X009396Y014312D01*
X009423Y014315D01*
X009451Y014314D01*
X009478Y014309D01*
X009504Y014301D01*
X009528Y014289D01*
X009551Y014273D01*
X009572Y014255D01*
X009589Y014234D01*
X009604Y014210D01*
X009615Y014185D01*
X009623Y014159D01*
X009627Y014132D01*
X009627Y014104D01*
X009623Y014077D01*
X009615Y014051D01*
X009604Y014026D01*
X009589Y014002D01*
X009572Y013981D01*
X009551Y013963D01*
X009529Y013947D01*
X009504Y013935D01*
X009478Y013927D01*
X009451Y013922D01*
X009423Y013921D01*
X009396Y013924D01*
X009369Y013931D01*
X009344Y013941D01*
X009320Y013955D01*
X009298Y013972D01*
X009279Y013991D01*
X009263Y014014D01*
X009250Y014038D01*
X009241Y014064D01*
X009235Y014091D01*
X009233Y014118D01*
X009180Y013055D02*
X009180Y011555D01*
X009180Y011574D02*
X009178Y011535D01*
X009172Y011497D01*
X009163Y011460D01*
X009150Y011423D01*
X009133Y011388D01*
X009114Y011355D01*
X009091Y011324D01*
X009065Y011295D01*
X009036Y011269D01*
X009005Y011246D01*
X008972Y011227D01*
X008937Y011210D01*
X008900Y011197D01*
X008863Y011188D01*
X008825Y011182D01*
X008786Y011180D01*
X008790Y011180D02*
X007800Y011180D01*
X007805Y011180D02*
X007751Y011178D01*
X007698Y011172D01*
X007646Y011163D01*
X007594Y011150D01*
X007543Y011133D01*
X007493Y011112D01*
X007446Y011088D01*
X007400Y011061D01*
X007356Y011030D01*
X007314Y010997D01*
X007275Y010960D01*
X007238Y010921D01*
X007205Y010879D01*
X007174Y010835D01*
X007147Y010789D01*
X007123Y010742D01*
X007102Y010692D01*
X007085Y010641D01*
X007072Y010589D01*
X007063Y010537D01*
X007057Y010484D01*
X007055Y010430D01*
X007057Y010376D01*
X007063Y010322D01*
X007072Y010268D01*
X007086Y010216D01*
X007103Y010164D01*
X007124Y010114D01*
X007148Y010066D01*
X007176Y010019D01*
X007207Y009975D01*
X007241Y009932D01*
X007278Y009893D01*
X007317Y009856D01*
X007360Y009822D01*
X007404Y009791D01*
X007451Y009763D01*
X007499Y009739D01*
X007549Y009718D01*
X007601Y009701D01*
X007653Y009687D01*
X007707Y009678D01*
X007761Y009672D01*
X007815Y009670D01*
X008790Y009670D01*
X008786Y009673D02*
X008825Y009671D01*
X008863Y009665D01*
X008900Y009656D01*
X008937Y009643D01*
X008972Y009626D01*
X009005Y009607D01*
X009036Y009584D01*
X009065Y009558D01*
X009091Y009529D01*
X009114Y009498D01*
X009133Y009465D01*
X009150Y009430D01*
X009163Y009393D01*
X009172Y009356D01*
X009178Y009318D01*
X009180Y009279D01*
X009180Y009274D02*
X009180Y007711D01*
X009182Y007657D01*
X009188Y007604D01*
X009197Y007552D01*
X009210Y007500D01*
X009227Y007449D01*
X009248Y007399D01*
X009272Y007352D01*
X009299Y007306D01*
X009330Y007262D01*
X009363Y007220D01*
X009400Y007181D01*
X009439Y007144D01*
X009481Y007111D01*
X009525Y007080D01*
X009571Y007053D01*
X009618Y007029D01*
X009668Y007008D01*
X009719Y006991D01*
X009771Y006978D01*
X009823Y006969D01*
X009876Y006963D01*
X009930Y006961D01*
X009233Y006649D02*
X009235Y006676D01*
X009241Y006703D01*
X009250Y006729D01*
X009263Y006753D01*
X009279Y006776D01*
X009298Y006795D01*
X009320Y006812D01*
X009344Y006826D01*
X009369Y006836D01*
X009396Y006843D01*
X009423Y006846D01*
X009451Y006845D01*
X009478Y006840D01*
X009504Y006832D01*
X009528Y006820D01*
X009551Y006804D01*
X009572Y006786D01*
X009589Y006765D01*
X009604Y006741D01*
X009615Y006716D01*
X009623Y006690D01*
X009627Y006663D01*
X009627Y006635D01*
X009623Y006608D01*
X009615Y006582D01*
X009604Y006557D01*
X009589Y006533D01*
X009572Y006512D01*
X009551Y006494D01*
X009529Y006478D01*
X009504Y006466D01*
X009478Y006458D01*
X009451Y006453D01*
X009423Y006452D01*
X009396Y006455D01*
X009369Y006462D01*
X009344Y006472D01*
X009320Y006486D01*
X009298Y006503D01*
X009279Y006522D01*
X009263Y006545D01*
X009250Y006569D01*
X009241Y006595D01*
X009235Y006622D01*
X009233Y006649D01*
X009233Y006086D02*
X009235Y006113D01*
X009241Y006140D01*
X009250Y006166D01*
X009263Y006190D01*
X009279Y006213D01*
X009298Y006232D01*
X009320Y006249D01*
X009344Y006263D01*
X009369Y006273D01*
X009396Y006280D01*
X009423Y006283D01*
X009451Y006282D01*
X009478Y006277D01*
X009504Y006269D01*
X009528Y006257D01*
X009551Y006241D01*
X009572Y006223D01*
X009589Y006202D01*
X009604Y006178D01*
X009615Y006153D01*
X009623Y006127D01*
X009627Y006100D01*
X009627Y006072D01*
X009623Y006045D01*
X009615Y006019D01*
X009604Y005994D01*
X009589Y005970D01*
X009572Y005949D01*
X009551Y005931D01*
X009529Y005915D01*
X009504Y005903D01*
X009478Y005895D01*
X009451Y005890D01*
X009423Y005889D01*
X009396Y005892D01*
X009369Y005899D01*
X009344Y005909D01*
X009320Y005923D01*
X009298Y005940D01*
X009279Y005959D01*
X009263Y005982D01*
X009250Y006006D01*
X009241Y006032D01*
X009235Y006059D01*
X009233Y006086D01*
X009233Y005524D02*
X009235Y005551D01*
X009241Y005578D01*
X009250Y005604D01*
X009263Y005628D01*
X009279Y005651D01*
X009298Y005670D01*
X009320Y005687D01*
X009344Y005701D01*
X009369Y005711D01*
X009396Y005718D01*
X009423Y005721D01*
X009451Y005720D01*
X009478Y005715D01*
X009504Y005707D01*
X009528Y005695D01*
X009551Y005679D01*
X009572Y005661D01*
X009589Y005640D01*
X009604Y005616D01*
X009615Y005591D01*
X009623Y005565D01*
X009627Y005538D01*
X009627Y005510D01*
X009623Y005483D01*
X009615Y005457D01*
X009604Y005432D01*
X009589Y005408D01*
X009572Y005387D01*
X009551Y005369D01*
X009529Y005353D01*
X009504Y005341D01*
X009478Y005333D01*
X009451Y005328D01*
X009423Y005327D01*
X009396Y005330D01*
X009369Y005337D01*
X009344Y005347D01*
X009320Y005361D01*
X009298Y005378D01*
X009279Y005397D01*
X009263Y005420D01*
X009250Y005444D01*
X009241Y005470D01*
X009235Y005497D01*
X009233Y005524D01*
X009180Y004461D02*
X009180Y002961D01*
X009180Y002980D02*
X009178Y002941D01*
X009172Y002903D01*
X009163Y002866D01*
X009150Y002829D01*
X009133Y002794D01*
X009114Y002761D01*
X009091Y002730D01*
X009065Y002701D01*
X009036Y002675D01*
X009005Y002652D01*
X008972Y002633D01*
X008937Y002616D01*
X008900Y002603D01*
X008863Y002594D01*
X008825Y002588D01*
X008786Y002586D01*
X003542Y002586D01*
X003503Y002588D01*
X003465Y002594D01*
X003428Y002603D01*
X003391Y002616D01*
X003356Y002633D01*
X003323Y002652D01*
X003292Y002675D01*
X003263Y002701D01*
X003237Y002730D01*
X003214Y002761D01*
X003195Y002794D01*
X003178Y002829D01*
X003165Y002866D01*
X003156Y002903D01*
X003150Y002941D01*
X003148Y002980D01*
X003503Y003374D02*
X003505Y003415D01*
X003511Y003456D01*
X003521Y003496D01*
X003534Y003535D01*
X003551Y003572D01*
X003572Y003608D01*
X003596Y003642D01*
X003623Y003673D01*
X003652Y003701D01*
X003685Y003727D01*
X003719Y003749D01*
X003756Y003768D01*
X003794Y003783D01*
X003834Y003795D01*
X003874Y003803D01*
X003915Y003807D01*
X003957Y003807D01*
X003998Y003803D01*
X004038Y003795D01*
X004078Y003783D01*
X004116Y003768D01*
X004152Y003749D01*
X004187Y003727D01*
X004220Y003701D01*
X004249Y003673D01*
X004276Y003642D01*
X004300Y003608D01*
X004321Y003572D01*
X004338Y003535D01*
X004351Y003496D01*
X004361Y003456D01*
X004367Y003415D01*
X004369Y003374D01*
X004367Y003333D01*
X004361Y003292D01*
X004351Y003252D01*
X004338Y003213D01*
X004321Y003176D01*
X004300Y003140D01*
X004276Y003106D01*
X004249Y003075D01*
X004220Y003047D01*
X004187Y003021D01*
X004153Y002999D01*
X004116Y002980D01*
X004078Y002965D01*
X004038Y002953D01*
X003998Y002945D01*
X003957Y002941D01*
X003915Y002941D01*
X003874Y002945D01*
X003834Y002953D01*
X003794Y002965D01*
X003756Y002980D01*
X003720Y002999D01*
X003685Y003021D01*
X003652Y003047D01*
X003623Y003075D01*
X003596Y003106D01*
X003572Y003140D01*
X003551Y003176D01*
X003534Y003213D01*
X003521Y003252D01*
X003511Y003292D01*
X003505Y003333D01*
X003503Y003374D01*
X003503Y008885D02*
X003505Y008926D01*
X003511Y008967D01*
X003521Y009007D01*
X003534Y009046D01*
X003551Y009083D01*
X003572Y009119D01*
X003596Y009153D01*
X003623Y009184D01*
X003652Y009212D01*
X003685Y009238D01*
X003719Y009260D01*
X003756Y009279D01*
X003794Y009294D01*
X003834Y009306D01*
X003874Y009314D01*
X003915Y009318D01*
X003957Y009318D01*
X003998Y009314D01*
X004038Y009306D01*
X004078Y009294D01*
X004116Y009279D01*
X004152Y009260D01*
X004187Y009238D01*
X004220Y009212D01*
X004249Y009184D01*
X004276Y009153D01*
X004300Y009119D01*
X004321Y009083D01*
X004338Y009046D01*
X004351Y009007D01*
X004361Y008967D01*
X004367Y008926D01*
X004369Y008885D01*
X004367Y008844D01*
X004361Y008803D01*
X004351Y008763D01*
X004338Y008724D01*
X004321Y008687D01*
X004300Y008651D01*
X004276Y008617D01*
X004249Y008586D01*
X004220Y008558D01*
X004187Y008532D01*
X004153Y008510D01*
X004116Y008491D01*
X004078Y008476D01*
X004038Y008464D01*
X003998Y008456D01*
X003957Y008452D01*
X003915Y008452D01*
X003874Y008456D01*
X003834Y008464D01*
X003794Y008476D01*
X003756Y008491D01*
X003720Y008510D01*
X003685Y008532D01*
X003652Y008558D01*
X003623Y008586D01*
X003596Y008617D01*
X003572Y008651D01*
X003551Y008687D01*
X003534Y008724D01*
X003521Y008763D01*
X003511Y008803D01*
X003505Y008844D01*
X003503Y008885D01*
X003503Y011967D02*
X003505Y012008D01*
X003511Y012049D01*
X003521Y012089D01*
X003534Y012128D01*
X003551Y012165D01*
X003572Y012201D01*
X003596Y012235D01*
X003623Y012266D01*
X003652Y012294D01*
X003685Y012320D01*
X003719Y012342D01*
X003756Y012361D01*
X003794Y012376D01*
X003834Y012388D01*
X003874Y012396D01*
X003915Y012400D01*
X003957Y012400D01*
X003998Y012396D01*
X004038Y012388D01*
X004078Y012376D01*
X004116Y012361D01*
X004152Y012342D01*
X004187Y012320D01*
X004220Y012294D01*
X004249Y012266D01*
X004276Y012235D01*
X004300Y012201D01*
X004321Y012165D01*
X004338Y012128D01*
X004351Y012089D01*
X004361Y012049D01*
X004367Y012008D01*
X004369Y011967D01*
X004367Y011926D01*
X004361Y011885D01*
X004351Y011845D01*
X004338Y011806D01*
X004321Y011769D01*
X004300Y011733D01*
X004276Y011699D01*
X004249Y011668D01*
X004220Y011640D01*
X004187Y011614D01*
X004153Y011592D01*
X004116Y011573D01*
X004078Y011558D01*
X004038Y011546D01*
X003998Y011538D01*
X003957Y011534D01*
X003915Y011534D01*
X003874Y011538D01*
X003834Y011546D01*
X003794Y011558D01*
X003756Y011573D01*
X003720Y011592D01*
X003685Y011614D01*
X003652Y011640D01*
X003623Y011668D01*
X003596Y011699D01*
X003572Y011733D01*
X003551Y011769D01*
X003534Y011806D01*
X003521Y011845D01*
X003511Y011885D01*
X003505Y011926D01*
X003503Y011967D01*
X007810Y009670D02*
X007815Y009670D01*
X009930Y006961D02*
X009984Y006963D01*
X010037Y006969D01*
X010089Y006978D01*
X010141Y006991D01*
X010192Y007008D01*
X010242Y007029D01*
X010289Y007053D01*
X010335Y007080D01*
X010379Y007111D01*
X010421Y007144D01*
X010460Y007181D01*
X010497Y007220D01*
X010530Y007262D01*
X010561Y007306D01*
X010588Y007352D01*
X010612Y007399D01*
X010633Y007449D01*
X010650Y007500D01*
X010663Y007552D01*
X010672Y007604D01*
X010678Y007657D01*
X010680Y007711D01*
X010680Y009279D01*
X010682Y009318D01*
X010688Y009356D01*
X010697Y009393D01*
X010710Y009430D01*
X010727Y009465D01*
X010746Y009498D01*
X010769Y009529D01*
X010795Y009558D01*
X010824Y009584D01*
X010855Y009607D01*
X010888Y009626D01*
X010923Y009643D01*
X010960Y009656D01*
X010997Y009665D01*
X011035Y009671D01*
X011074Y009673D01*
X016317Y009673D01*
X016356Y009671D01*
X016394Y009665D01*
X016431Y009656D01*
X016468Y009643D01*
X016503Y009626D01*
X016536Y009607D01*
X016567Y009584D01*
X016596Y009558D01*
X016622Y009529D01*
X016645Y009498D01*
X016664Y009465D01*
X016681Y009430D01*
X016694Y009393D01*
X016703Y009356D01*
X016709Y009318D01*
X016711Y009279D01*
X016711Y002980D01*
X016709Y002941D01*
X016703Y002903D01*
X016694Y002866D01*
X016681Y002829D01*
X016664Y002794D01*
X016645Y002761D01*
X016622Y002730D01*
X016596Y002701D01*
X016567Y002675D01*
X016536Y002652D01*
X016503Y002633D01*
X016468Y002616D01*
X016431Y002603D01*
X016394Y002594D01*
X016356Y002588D01*
X016317Y002586D01*
X011074Y002586D01*
X011035Y002588D01*
X010997Y002594D01*
X010960Y002603D01*
X010923Y002616D01*
X010888Y002633D01*
X010855Y002652D01*
X010824Y002675D01*
X010795Y002701D01*
X010769Y002730D01*
X010746Y002761D01*
X010727Y002794D01*
X010710Y002829D01*
X010697Y002866D01*
X010688Y002903D01*
X010682Y002941D01*
X010680Y002980D01*
X010680Y004461D01*
X009930Y005211D02*
X009876Y005209D01*
X009823Y005203D01*
X009771Y005194D01*
X009719Y005181D01*
X009668Y005164D01*
X009618Y005143D01*
X009571Y005119D01*
X009525Y005092D01*
X009481Y005061D01*
X009439Y005028D01*
X009400Y004991D01*
X009363Y004952D01*
X009330Y004910D01*
X009299Y004866D01*
X009272Y004820D01*
X009248Y004773D01*
X009227Y004723D01*
X009210Y004672D01*
X009197Y004620D01*
X009188Y004568D01*
X009182Y004515D01*
X009180Y004461D01*
X009930Y005211D02*
X009984Y005209D01*
X010037Y005203D01*
X010089Y005194D01*
X010141Y005181D01*
X010192Y005164D01*
X010242Y005143D01*
X010289Y005119D01*
X010335Y005092D01*
X010379Y005061D01*
X010421Y005028D01*
X010460Y004991D01*
X010497Y004952D01*
X010530Y004910D01*
X010561Y004866D01*
X010588Y004820D01*
X010612Y004773D01*
X010633Y004723D01*
X010650Y004672D01*
X010663Y004620D01*
X010672Y004568D01*
X010678Y004515D01*
X010680Y004461D01*
X010233Y005524D02*
X010235Y005551D01*
X010241Y005578D01*
X010250Y005604D01*
X010263Y005628D01*
X010279Y005651D01*
X010298Y005670D01*
X010320Y005687D01*
X010344Y005701D01*
X010369Y005711D01*
X010396Y005718D01*
X010423Y005721D01*
X010451Y005720D01*
X010478Y005715D01*
X010504Y005707D01*
X010528Y005695D01*
X010551Y005679D01*
X010572Y005661D01*
X010589Y005640D01*
X010604Y005616D01*
X010615Y005591D01*
X010623Y005565D01*
X010627Y005538D01*
X010627Y005510D01*
X010623Y005483D01*
X010615Y005457D01*
X010604Y005432D01*
X010589Y005408D01*
X010572Y005387D01*
X010551Y005369D01*
X010529Y005353D01*
X010504Y005341D01*
X010478Y005333D01*
X010451Y005328D01*
X010423Y005327D01*
X010396Y005330D01*
X010369Y005337D01*
X010344Y005347D01*
X010320Y005361D01*
X010298Y005378D01*
X010279Y005397D01*
X010263Y005420D01*
X010250Y005444D01*
X010241Y005470D01*
X010235Y005497D01*
X010233Y005524D01*
X010233Y006086D02*
X010235Y006113D01*
X010241Y006140D01*
X010250Y006166D01*
X010263Y006190D01*
X010279Y006213D01*
X010298Y006232D01*
X010320Y006249D01*
X010344Y006263D01*
X010369Y006273D01*
X010396Y006280D01*
X010423Y006283D01*
X010451Y006282D01*
X010478Y006277D01*
X010504Y006269D01*
X010528Y006257D01*
X010551Y006241D01*
X010572Y006223D01*
X010589Y006202D01*
X010604Y006178D01*
X010615Y006153D01*
X010623Y006127D01*
X010627Y006100D01*
X010627Y006072D01*
X010623Y006045D01*
X010615Y006019D01*
X010604Y005994D01*
X010589Y005970D01*
X010572Y005949D01*
X010551Y005931D01*
X010529Y005915D01*
X010504Y005903D01*
X010478Y005895D01*
X010451Y005890D01*
X010423Y005889D01*
X010396Y005892D01*
X010369Y005899D01*
X010344Y005909D01*
X010320Y005923D01*
X010298Y005940D01*
X010279Y005959D01*
X010263Y005982D01*
X010250Y006006D01*
X010241Y006032D01*
X010235Y006059D01*
X010233Y006086D01*
X010233Y006649D02*
X010235Y006676D01*
X010241Y006703D01*
X010250Y006729D01*
X010263Y006753D01*
X010279Y006776D01*
X010298Y006795D01*
X010320Y006812D01*
X010344Y006826D01*
X010369Y006836D01*
X010396Y006843D01*
X010423Y006846D01*
X010451Y006845D01*
X010478Y006840D01*
X010504Y006832D01*
X010528Y006820D01*
X010551Y006804D01*
X010572Y006786D01*
X010589Y006765D01*
X010604Y006741D01*
X010615Y006716D01*
X010623Y006690D01*
X010627Y006663D01*
X010627Y006635D01*
X010623Y006608D01*
X010615Y006582D01*
X010604Y006557D01*
X010589Y006533D01*
X010572Y006512D01*
X010551Y006494D01*
X010529Y006478D01*
X010504Y006466D01*
X010478Y006458D01*
X010451Y006453D01*
X010423Y006452D01*
X010396Y006455D01*
X010369Y006462D01*
X010344Y006472D01*
X010320Y006486D01*
X010298Y006503D01*
X010279Y006522D01*
X010263Y006545D01*
X010250Y006569D01*
X010241Y006595D01*
X010235Y006622D01*
X010233Y006649D01*
X011034Y008885D02*
X011036Y008926D01*
X011042Y008967D01*
X011052Y009007D01*
X011065Y009046D01*
X011082Y009083D01*
X011103Y009119D01*
X011127Y009153D01*
X011154Y009184D01*
X011183Y009212D01*
X011216Y009238D01*
X011250Y009260D01*
X011287Y009279D01*
X011325Y009294D01*
X011365Y009306D01*
X011405Y009314D01*
X011446Y009318D01*
X011488Y009318D01*
X011529Y009314D01*
X011569Y009306D01*
X011609Y009294D01*
X011647Y009279D01*
X011683Y009260D01*
X011718Y009238D01*
X011751Y009212D01*
X011780Y009184D01*
X011807Y009153D01*
X011831Y009119D01*
X011852Y009083D01*
X011869Y009046D01*
X011882Y009007D01*
X011892Y008967D01*
X011898Y008926D01*
X011900Y008885D01*
X011898Y008844D01*
X011892Y008803D01*
X011882Y008763D01*
X011869Y008724D01*
X011852Y008687D01*
X011831Y008651D01*
X011807Y008617D01*
X011780Y008586D01*
X011751Y008558D01*
X011718Y008532D01*
X011684Y008510D01*
X011647Y008491D01*
X011609Y008476D01*
X011569Y008464D01*
X011529Y008456D01*
X011488Y008452D01*
X011446Y008452D01*
X011405Y008456D01*
X011365Y008464D01*
X011325Y008476D01*
X011287Y008491D01*
X011251Y008510D01*
X011216Y008532D01*
X011183Y008558D01*
X011154Y008586D01*
X011127Y008617D01*
X011103Y008651D01*
X011082Y008687D01*
X011065Y008724D01*
X011052Y008763D01*
X011042Y008803D01*
X011036Y008844D01*
X011034Y008885D01*
X011074Y011180D02*
X016317Y011180D01*
X016356Y011182D01*
X016394Y011188D01*
X016431Y011197D01*
X016468Y011210D01*
X016503Y011227D01*
X016536Y011246D01*
X016567Y011269D01*
X016596Y011295D01*
X016622Y011324D01*
X016645Y011355D01*
X016664Y011388D01*
X016681Y011423D01*
X016694Y011460D01*
X016703Y011497D01*
X016709Y011535D01*
X016711Y011574D01*
X016711Y017873D01*
X016709Y017912D01*
X016703Y017950D01*
X016694Y017987D01*
X016681Y018024D01*
X016664Y018059D01*
X016645Y018092D01*
X016622Y018123D01*
X016596Y018152D01*
X016567Y018178D01*
X016536Y018201D01*
X016503Y018220D01*
X016468Y018237D01*
X016431Y018250D01*
X016394Y018259D01*
X016356Y018265D01*
X016317Y018267D01*
X011074Y018267D01*
X011035Y018265D01*
X010997Y018259D01*
X010960Y018250D01*
X010923Y018237D01*
X010888Y018220D01*
X010855Y018201D01*
X010824Y018178D01*
X010795Y018152D01*
X010769Y018123D01*
X010746Y018092D01*
X010727Y018059D01*
X010710Y018024D01*
X010697Y017987D01*
X010688Y017950D01*
X010682Y017912D01*
X010680Y017873D01*
X010680Y016305D01*
X010678Y016251D01*
X010672Y016198D01*
X010663Y016146D01*
X010650Y016094D01*
X010633Y016043D01*
X010612Y015993D01*
X010588Y015946D01*
X010561Y015900D01*
X010530Y015856D01*
X010497Y015814D01*
X010460Y015775D01*
X010421Y015738D01*
X010379Y015705D01*
X010335Y015674D01*
X010289Y015647D01*
X010242Y015623D01*
X010192Y015602D01*
X010141Y015585D01*
X010089Y015572D01*
X010037Y015563D01*
X009984Y015557D01*
X009930Y015555D01*
X010233Y015243D02*
X010235Y015270D01*
X010241Y015297D01*
X010250Y015323D01*
X010263Y015347D01*
X010279Y015370D01*
X010298Y015389D01*
X010320Y015406D01*
X010344Y015420D01*
X010369Y015430D01*
X010396Y015437D01*
X010423Y015440D01*
X010451Y015439D01*
X010478Y015434D01*
X010504Y015426D01*
X010528Y015414D01*
X010551Y015398D01*
X010572Y015380D01*
X010589Y015359D01*
X010604Y015335D01*
X010615Y015310D01*
X010623Y015284D01*
X010627Y015257D01*
X010627Y015229D01*
X010623Y015202D01*
X010615Y015176D01*
X010604Y015151D01*
X010589Y015127D01*
X010572Y015106D01*
X010551Y015088D01*
X010529Y015072D01*
X010504Y015060D01*
X010478Y015052D01*
X010451Y015047D01*
X010423Y015046D01*
X010396Y015049D01*
X010369Y015056D01*
X010344Y015066D01*
X010320Y015080D01*
X010298Y015097D01*
X010279Y015116D01*
X010263Y015139D01*
X010250Y015163D01*
X010241Y015189D01*
X010235Y015216D01*
X010233Y015243D01*
X010233Y014680D02*
X010235Y014707D01*
X010241Y014734D01*
X010250Y014760D01*
X010263Y014784D01*
X010279Y014807D01*
X010298Y014826D01*
X010320Y014843D01*
X010344Y014857D01*
X010369Y014867D01*
X010396Y014874D01*
X010423Y014877D01*
X010451Y014876D01*
X010478Y014871D01*
X010504Y014863D01*
X010528Y014851D01*
X010551Y014835D01*
X010572Y014817D01*
X010589Y014796D01*
X010604Y014772D01*
X010615Y014747D01*
X010623Y014721D01*
X010627Y014694D01*
X010627Y014666D01*
X010623Y014639D01*
X010615Y014613D01*
X010604Y014588D01*
X010589Y014564D01*
X010572Y014543D01*
X010551Y014525D01*
X010529Y014509D01*
X010504Y014497D01*
X010478Y014489D01*
X010451Y014484D01*
X010423Y014483D01*
X010396Y014486D01*
X010369Y014493D01*
X010344Y014503D01*
X010320Y014517D01*
X010298Y014534D01*
X010279Y014553D01*
X010263Y014576D01*
X010250Y014600D01*
X010241Y014626D01*
X010235Y014653D01*
X010233Y014680D01*
X010233Y014118D02*
X010235Y014145D01*
X010241Y014172D01*
X010250Y014198D01*
X010263Y014222D01*
X010279Y014245D01*
X010298Y014264D01*
X010320Y014281D01*
X010344Y014295D01*
X010369Y014305D01*
X010396Y014312D01*
X010423Y014315D01*
X010451Y014314D01*
X010478Y014309D01*
X010504Y014301D01*
X010528Y014289D01*
X010551Y014273D01*
X010572Y014255D01*
X010589Y014234D01*
X010604Y014210D01*
X010615Y014185D01*
X010623Y014159D01*
X010627Y014132D01*
X010627Y014104D01*
X010623Y014077D01*
X010615Y014051D01*
X010604Y014026D01*
X010589Y014002D01*
X010572Y013981D01*
X010551Y013963D01*
X010529Y013947D01*
X010504Y013935D01*
X010478Y013927D01*
X010451Y013922D01*
X010423Y013921D01*
X010396Y013924D01*
X010369Y013931D01*
X010344Y013941D01*
X010320Y013955D01*
X010298Y013972D01*
X010279Y013991D01*
X010263Y014014D01*
X010250Y014038D01*
X010241Y014064D01*
X010235Y014091D01*
X010233Y014118D01*
X009930Y013805D02*
X009876Y013803D01*
X009823Y013797D01*
X009771Y013788D01*
X009719Y013775D01*
X009668Y013758D01*
X009618Y013737D01*
X009571Y013713D01*
X009525Y013686D01*
X009481Y013655D01*
X009439Y013622D01*
X009400Y013585D01*
X009363Y013546D01*
X009330Y013504D01*
X009299Y013460D01*
X009272Y013414D01*
X009248Y013367D01*
X009227Y013317D01*
X009210Y013266D01*
X009197Y013214D01*
X009188Y013162D01*
X009182Y013109D01*
X009180Y013055D01*
X009930Y013805D02*
X009984Y013803D01*
X010037Y013797D01*
X010089Y013788D01*
X010141Y013775D01*
X010192Y013758D01*
X010242Y013737D01*
X010289Y013713D01*
X010335Y013686D01*
X010379Y013655D01*
X010421Y013622D01*
X010460Y013585D01*
X010497Y013546D01*
X010530Y013504D01*
X010561Y013460D01*
X010588Y013414D01*
X010612Y013367D01*
X010633Y013317D01*
X010650Y013266D01*
X010663Y013214D01*
X010672Y013162D01*
X010678Y013109D01*
X010680Y013055D01*
X010680Y011574D01*
X010682Y011535D01*
X010688Y011497D01*
X010697Y011460D01*
X010710Y011423D01*
X010727Y011388D01*
X010746Y011355D01*
X010769Y011324D01*
X010795Y011295D01*
X010824Y011269D01*
X010855Y011246D01*
X010888Y011227D01*
X010923Y011210D01*
X010960Y011197D01*
X010997Y011188D01*
X011035Y011182D01*
X011074Y011180D01*
X011034Y011967D02*
X011036Y012008D01*
X011042Y012049D01*
X011052Y012089D01*
X011065Y012128D01*
X011082Y012165D01*
X011103Y012201D01*
X011127Y012235D01*
X011154Y012266D01*
X011183Y012294D01*
X011216Y012320D01*
X011250Y012342D01*
X011287Y012361D01*
X011325Y012376D01*
X011365Y012388D01*
X011405Y012396D01*
X011446Y012400D01*
X011488Y012400D01*
X011529Y012396D01*
X011569Y012388D01*
X011609Y012376D01*
X011647Y012361D01*
X011683Y012342D01*
X011718Y012320D01*
X011751Y012294D01*
X011780Y012266D01*
X011807Y012235D01*
X011831Y012201D01*
X011852Y012165D01*
X011869Y012128D01*
X011882Y012089D01*
X011892Y012049D01*
X011898Y012008D01*
X011900Y011967D01*
X011898Y011926D01*
X011892Y011885D01*
X011882Y011845D01*
X011869Y011806D01*
X011852Y011769D01*
X011831Y011733D01*
X011807Y011699D01*
X011780Y011668D01*
X011751Y011640D01*
X011718Y011614D01*
X011684Y011592D01*
X011647Y011573D01*
X011609Y011558D01*
X011569Y011546D01*
X011529Y011538D01*
X011488Y011534D01*
X011446Y011534D01*
X011405Y011538D01*
X011365Y011546D01*
X011325Y011558D01*
X011287Y011573D01*
X011251Y011592D01*
X011216Y011614D01*
X011183Y011640D01*
X011154Y011668D01*
X011127Y011699D01*
X011103Y011733D01*
X011082Y011769D01*
X011065Y011806D01*
X011052Y011845D01*
X011042Y011885D01*
X011036Y011926D01*
X011034Y011967D01*
X011034Y017479D02*
X011036Y017520D01*
X011042Y017561D01*
X011052Y017601D01*
X011065Y017640D01*
X011082Y017677D01*
X011103Y017713D01*
X011127Y017747D01*
X011154Y017778D01*
X011183Y017806D01*
X011216Y017832D01*
X011250Y017854D01*
X011287Y017873D01*
X011325Y017888D01*
X011365Y017900D01*
X011405Y017908D01*
X011446Y017912D01*
X011488Y017912D01*
X011529Y017908D01*
X011569Y017900D01*
X011609Y017888D01*
X011647Y017873D01*
X011683Y017854D01*
X011718Y017832D01*
X011751Y017806D01*
X011780Y017778D01*
X011807Y017747D01*
X011831Y017713D01*
X011852Y017677D01*
X011869Y017640D01*
X011882Y017601D01*
X011892Y017561D01*
X011898Y017520D01*
X011900Y017479D01*
X011898Y017438D01*
X011892Y017397D01*
X011882Y017357D01*
X011869Y017318D01*
X011852Y017281D01*
X011831Y017245D01*
X011807Y017211D01*
X011780Y017180D01*
X011751Y017152D01*
X011718Y017126D01*
X011684Y017104D01*
X011647Y017085D01*
X011609Y017070D01*
X011569Y017058D01*
X011529Y017050D01*
X011488Y017046D01*
X011446Y017046D01*
X011405Y017050D01*
X011365Y017058D01*
X011325Y017070D01*
X011287Y017085D01*
X011251Y017104D01*
X011216Y017126D01*
X011183Y017152D01*
X011154Y017180D01*
X011127Y017211D01*
X011103Y017245D01*
X011082Y017281D01*
X011065Y017318D01*
X011052Y017357D01*
X011042Y017397D01*
X011036Y017438D01*
X011034Y017479D01*
X003503Y017479D02*
X003505Y017520D01*
X003511Y017561D01*
X003521Y017601D01*
X003534Y017640D01*
X003551Y017677D01*
X003572Y017713D01*
X003596Y017747D01*
X003623Y017778D01*
X003652Y017806D01*
X003685Y017832D01*
X003719Y017854D01*
X003756Y017873D01*
X003794Y017888D01*
X003834Y017900D01*
X003874Y017908D01*
X003915Y017912D01*
X003957Y017912D01*
X003998Y017908D01*
X004038Y017900D01*
X004078Y017888D01*
X004116Y017873D01*
X004152Y017854D01*
X004187Y017832D01*
X004220Y017806D01*
X004249Y017778D01*
X004276Y017747D01*
X004300Y017713D01*
X004321Y017677D01*
X004338Y017640D01*
X004351Y017601D01*
X004361Y017561D01*
X004367Y017520D01*
X004369Y017479D01*
X004367Y017438D01*
X004361Y017397D01*
X004351Y017357D01*
X004338Y017318D01*
X004321Y017281D01*
X004300Y017245D01*
X004276Y017211D01*
X004249Y017180D01*
X004220Y017152D01*
X004187Y017126D01*
X004153Y017104D01*
X004116Y017085D01*
X004078Y017070D01*
X004038Y017058D01*
X003998Y017050D01*
X003957Y017046D01*
X003915Y017046D01*
X003874Y017050D01*
X003834Y017058D01*
X003794Y017070D01*
X003756Y017085D01*
X003720Y017104D01*
X003685Y017126D01*
X003652Y017152D01*
X003623Y017180D01*
X003596Y017211D01*
X003572Y017245D01*
X003551Y017281D01*
X003534Y017318D01*
X003521Y017357D01*
X003511Y017397D01*
X003505Y017438D01*
X003503Y017479D01*
X011034Y003374D02*
X011036Y003415D01*
X011042Y003456D01*
X011052Y003496D01*
X011065Y003535D01*
X011082Y003572D01*
X011103Y003608D01*
X011127Y003642D01*
X011154Y003673D01*
X011183Y003701D01*
X011216Y003727D01*
X011250Y003749D01*
X011287Y003768D01*
X011325Y003783D01*
X011365Y003795D01*
X011405Y003803D01*
X011446Y003807D01*
X011488Y003807D01*
X011529Y003803D01*
X011569Y003795D01*
X011609Y003783D01*
X011647Y003768D01*
X011683Y003749D01*
X011718Y003727D01*
X011751Y003701D01*
X011780Y003673D01*
X011807Y003642D01*
X011831Y003608D01*
X011852Y003572D01*
X011869Y003535D01*
X011882Y003496D01*
X011892Y003456D01*
X011898Y003415D01*
X011900Y003374D01*
X011898Y003333D01*
X011892Y003292D01*
X011882Y003252D01*
X011869Y003213D01*
X011852Y003176D01*
X011831Y003140D01*
X011807Y003106D01*
X011780Y003075D01*
X011751Y003047D01*
X011718Y003021D01*
X011684Y002999D01*
X011647Y002980D01*
X011609Y002965D01*
X011569Y002953D01*
X011529Y002945D01*
X011488Y002941D01*
X011446Y002941D01*
X011405Y002945D01*
X011365Y002953D01*
X011325Y002965D01*
X011287Y002980D01*
X011251Y002999D01*
X011216Y003021D01*
X011183Y003047D01*
X011154Y003075D01*
X011127Y003106D01*
X011103Y003140D01*
X011082Y003176D01*
X011065Y003213D01*
X011052Y003252D01*
X011042Y003292D01*
X011036Y003333D01*
X011034Y003374D01*
D11*
X013220Y003954D02*
X013360Y004094D01*
X013640Y004094D01*
X013570Y004274D02*
X013290Y004274D01*
X013220Y004344D01*
X013220Y004484D01*
X013290Y004554D01*
X013290Y004735D02*
X013220Y004805D01*
X013220Y004945D01*
X013290Y005015D01*
X013570Y005015D02*
X013640Y004945D01*
X013640Y004805D01*
X013570Y004735D01*
X013290Y004735D01*
X013570Y004554D02*
X013640Y004484D01*
X013640Y004344D01*
X013570Y004274D01*
X013908Y004274D02*
X013908Y004484D01*
X013978Y004554D01*
X014258Y004554D01*
X014328Y004484D01*
X014328Y004274D01*
X013908Y004274D01*
X013978Y004094D02*
X013908Y004024D01*
X013908Y003884D01*
X013978Y003814D01*
X014118Y003884D02*
X014118Y004024D01*
X014048Y004094D01*
X013978Y004094D01*
X014118Y003884D02*
X014188Y003814D01*
X014258Y003814D01*
X014328Y003884D01*
X014328Y004024D01*
X014258Y004094D01*
X014595Y004024D02*
X014595Y003884D01*
X014665Y003814D01*
X014805Y003884D02*
X014805Y004024D01*
X014735Y004094D01*
X014665Y004094D01*
X014595Y004024D01*
X014805Y003884D02*
X014875Y003814D01*
X014945Y003814D01*
X015015Y003884D01*
X015015Y004024D01*
X014945Y004094D01*
X014945Y004274D02*
X014665Y004274D01*
X014595Y004344D01*
X014595Y004484D01*
X014665Y004554D01*
X014595Y004735D02*
X014595Y005015D01*
X014328Y004875D02*
X014188Y005015D01*
X013908Y005015D01*
X014118Y005015D02*
X014118Y004735D01*
X014188Y004735D02*
X014328Y004875D01*
X014188Y004735D02*
X013908Y004735D01*
X014595Y004735D02*
X015015Y004735D01*
X014945Y004554D02*
X015015Y004484D01*
X015015Y004344D01*
X014945Y004274D01*
X015283Y004274D02*
X015703Y004274D01*
X015283Y004554D01*
X015703Y004554D01*
X015703Y004735D02*
X015703Y004945D01*
X015633Y005015D01*
X015353Y005015D01*
X015283Y004945D01*
X015283Y004735D01*
X015703Y004735D01*
X015633Y004094D02*
X015703Y004024D01*
X015703Y003884D01*
X015633Y003814D01*
X015353Y003814D01*
X015283Y003884D01*
X015283Y004024D01*
X015353Y004094D01*
X015493Y004094D01*
X015493Y003954D01*
X013640Y003814D02*
X013360Y003814D01*
X013220Y003954D01*
X013189Y006501D02*
X013329Y006501D01*
X013259Y006501D02*
X013259Y006781D01*
X013329Y006781D01*
X013259Y006922D02*
X013259Y006992D01*
X013566Y006922D02*
X013566Y006501D01*
X013636Y006501D02*
X013496Y006501D01*
X013803Y006501D02*
X013943Y006501D01*
X013873Y006501D02*
X013873Y006922D01*
X013943Y006922D01*
X014123Y006711D02*
X014193Y006781D01*
X014334Y006781D01*
X014404Y006711D01*
X014404Y006571D01*
X014334Y006501D01*
X014193Y006501D01*
X014123Y006571D01*
X014123Y006711D01*
X014564Y006571D02*
X014564Y006501D01*
X014634Y006501D01*
X014634Y006571D01*
X014564Y006571D01*
X014814Y006571D02*
X014814Y006781D01*
X014814Y006571D02*
X014884Y006501D01*
X014954Y006571D01*
X015024Y006501D01*
X015094Y006571D01*
X015094Y006781D01*
X015274Y006781D02*
X015274Y006571D01*
X015344Y006501D01*
X015414Y006571D01*
X015485Y006501D01*
X015555Y006571D01*
X015555Y006781D01*
X015735Y006781D02*
X015735Y006571D01*
X015805Y006501D01*
X015875Y006571D01*
X015945Y006501D01*
X016015Y006571D01*
X016015Y006781D01*
X013636Y006922D02*
X013566Y006922D01*
X013022Y006781D02*
X013022Y006571D01*
X012952Y006501D01*
X012882Y006571D01*
X012812Y006501D01*
X012742Y006571D01*
X012742Y006781D01*
X012562Y006571D02*
X012492Y006571D01*
X012492Y006501D01*
X012562Y006501D01*
X012562Y006571D01*
X012332Y006571D02*
X012332Y006711D01*
X012262Y006781D01*
X012122Y006781D01*
X012052Y006711D01*
X012052Y006641D01*
X012332Y006641D01*
X012332Y006571D02*
X012262Y006501D01*
X012122Y006501D01*
X011871Y006571D02*
X011871Y006781D01*
X011871Y006571D02*
X011801Y006501D01*
X011591Y006501D01*
X011591Y006781D01*
X008484Y006781D02*
X008484Y006571D01*
X008414Y006501D01*
X008344Y006571D01*
X008274Y006501D01*
X008204Y006571D01*
X008204Y006781D01*
X008023Y006781D02*
X008023Y006571D01*
X007953Y006501D01*
X007883Y006571D01*
X007813Y006501D01*
X007743Y006571D01*
X007743Y006781D01*
X007563Y006781D02*
X007563Y006571D01*
X007493Y006501D01*
X007423Y006571D01*
X007353Y006501D01*
X007283Y006571D01*
X007283Y006781D01*
X007103Y006571D02*
X007033Y006571D01*
X007033Y006501D01*
X007103Y006501D01*
X007103Y006571D01*
X006872Y006571D02*
X006872Y006711D01*
X006802Y006781D01*
X006662Y006781D01*
X006592Y006711D01*
X006592Y006571D01*
X006662Y006501D01*
X006802Y006501D01*
X006872Y006571D01*
X006412Y006501D02*
X006272Y006501D01*
X006342Y006501D02*
X006342Y006922D01*
X006412Y006922D01*
X006105Y006922D02*
X006035Y006922D01*
X006035Y006501D01*
X006105Y006501D02*
X005965Y006501D01*
X005798Y006501D02*
X005658Y006501D01*
X005728Y006501D02*
X005728Y006781D01*
X005798Y006781D01*
X005728Y006922D02*
X005728Y006992D01*
X005491Y006781D02*
X005491Y006571D01*
X005421Y006501D01*
X005351Y006571D01*
X005281Y006501D01*
X005211Y006571D01*
X005211Y006781D01*
X005031Y006571D02*
X004961Y006571D01*
X004961Y006501D01*
X005031Y006501D01*
X005031Y006571D01*
X004801Y006571D02*
X004801Y006711D01*
X004731Y006781D01*
X004590Y006781D01*
X004520Y006711D01*
X004520Y006641D01*
X004801Y006641D01*
X004801Y006571D02*
X004731Y006501D01*
X004590Y006501D01*
X004340Y006571D02*
X004340Y006781D01*
X004340Y006571D02*
X004270Y006501D01*
X004060Y006501D01*
X004060Y006781D01*
X005759Y005015D02*
X005689Y004945D01*
X005689Y004805D01*
X005759Y004735D01*
X006039Y004735D01*
X006109Y004805D01*
X006109Y004945D01*
X006039Y005015D01*
X006376Y005015D02*
X006656Y005015D01*
X006797Y004875D01*
X006656Y004735D01*
X006376Y004735D01*
X006446Y004554D02*
X006376Y004484D01*
X006376Y004274D01*
X006797Y004274D01*
X006797Y004484D01*
X006727Y004554D01*
X006446Y004554D01*
X006586Y004735D02*
X006586Y005015D01*
X007064Y005015D02*
X007064Y004735D01*
X007484Y004735D01*
X007414Y004554D02*
X007484Y004484D01*
X007484Y004344D01*
X007414Y004274D01*
X007134Y004274D01*
X007064Y004344D01*
X007064Y004484D01*
X007134Y004554D01*
X007134Y004094D02*
X007064Y004024D01*
X007064Y003884D01*
X007134Y003814D01*
X007274Y003884D02*
X007274Y004024D01*
X007204Y004094D01*
X007134Y004094D01*
X007274Y003884D02*
X007344Y003814D01*
X007414Y003814D01*
X007484Y003884D01*
X007484Y004024D01*
X007414Y004094D01*
X007751Y004024D02*
X007751Y003884D01*
X007821Y003814D01*
X008102Y003814D01*
X008172Y003884D01*
X008172Y004024D01*
X008102Y004094D01*
X007961Y004094D02*
X007961Y003954D01*
X007961Y004094D02*
X007821Y004094D01*
X007751Y004024D01*
X007751Y004274D02*
X008172Y004274D01*
X007751Y004554D01*
X008172Y004554D01*
X008172Y004735D02*
X008172Y004945D01*
X008102Y005015D01*
X007821Y005015D01*
X007751Y004945D01*
X007751Y004735D01*
X008172Y004735D01*
X006797Y004024D02*
X006797Y003884D01*
X006727Y003814D01*
X006656Y003814D01*
X006586Y003884D01*
X006586Y004024D01*
X006516Y004094D01*
X006446Y004094D01*
X006376Y004024D01*
X006376Y003884D01*
X006446Y003814D01*
X006727Y004094D02*
X006797Y004024D01*
X006109Y004094D02*
X005829Y004094D01*
X005689Y003954D01*
X005829Y003814D01*
X006109Y003814D01*
X006039Y004274D02*
X005759Y004274D01*
X005689Y004344D01*
X005689Y004484D01*
X005759Y004554D01*
X006039Y004554D02*
X006109Y004484D01*
X006109Y004344D01*
X006039Y004274D01*
X006109Y012408D02*
X005829Y012408D01*
X005689Y012548D01*
X005829Y012688D01*
X006109Y012688D01*
X006039Y012868D02*
X005759Y012868D01*
X005689Y012938D01*
X005689Y013078D01*
X005759Y013148D01*
X005759Y013328D02*
X005689Y013398D01*
X005689Y013538D01*
X005759Y013609D01*
X005759Y013328D02*
X006039Y013328D01*
X006109Y013398D01*
X006109Y013538D01*
X006039Y013609D01*
X006376Y013609D02*
X006656Y013609D01*
X006797Y013468D01*
X006656Y013328D01*
X006376Y013328D01*
X006446Y013148D02*
X006376Y013078D01*
X006376Y012868D01*
X006797Y012868D01*
X006797Y013078D01*
X006727Y013148D01*
X006446Y013148D01*
X006586Y013328D02*
X006586Y013609D01*
X006109Y013078D02*
X006109Y012938D01*
X006039Y012868D01*
X006109Y013078D02*
X006039Y013148D01*
X006446Y012688D02*
X006376Y012618D01*
X006376Y012478D01*
X006446Y012408D01*
X006586Y012478D02*
X006586Y012618D01*
X006516Y012688D01*
X006446Y012688D01*
X006586Y012478D02*
X006656Y012408D01*
X006727Y012408D01*
X006797Y012478D01*
X006797Y012618D01*
X006727Y012688D01*
X007064Y012618D02*
X007064Y012478D01*
X007134Y012408D01*
X007274Y012478D02*
X007274Y012618D01*
X007204Y012688D01*
X007134Y012688D01*
X007064Y012618D01*
X007274Y012478D02*
X007344Y012408D01*
X007414Y012408D01*
X007484Y012478D01*
X007484Y012618D01*
X007414Y012688D01*
X007414Y012868D02*
X007134Y012868D01*
X007064Y012938D01*
X007064Y013078D01*
X007134Y013148D01*
X007064Y013328D02*
X007064Y013609D01*
X007064Y013328D02*
X007484Y013328D01*
X007414Y013148D02*
X007484Y013078D01*
X007484Y012938D01*
X007414Y012868D01*
X007751Y012868D02*
X008172Y012868D01*
X007751Y013148D01*
X008172Y013148D01*
X008172Y013328D02*
X008172Y013538D01*
X008102Y013609D01*
X007821Y013609D01*
X007751Y013538D01*
X007751Y013328D01*
X008172Y013328D01*
X008102Y012688D02*
X008172Y012618D01*
X008172Y012478D01*
X008102Y012408D01*
X007821Y012408D01*
X007751Y012478D01*
X007751Y012618D01*
X007821Y012688D01*
X007961Y012688D01*
X007961Y012548D01*
X007953Y015095D02*
X007883Y015165D01*
X007813Y015095D01*
X007743Y015165D01*
X007743Y015375D01*
X007563Y015375D02*
X007563Y015165D01*
X007493Y015095D01*
X007423Y015165D01*
X007353Y015095D01*
X007283Y015165D01*
X007283Y015375D01*
X007103Y015165D02*
X007033Y015165D01*
X007033Y015095D01*
X007103Y015095D01*
X007103Y015165D01*
X006872Y015165D02*
X006872Y015305D01*
X006802Y015375D01*
X006662Y015375D01*
X006592Y015305D01*
X006592Y015165D01*
X006662Y015095D01*
X006802Y015095D01*
X006872Y015165D01*
X006412Y015095D02*
X006272Y015095D01*
X006342Y015095D02*
X006342Y015515D01*
X006412Y015515D01*
X006105Y015515D02*
X006035Y015515D01*
X006035Y015095D01*
X006105Y015095D02*
X005965Y015095D01*
X005798Y015095D02*
X005658Y015095D01*
X005728Y015095D02*
X005728Y015375D01*
X005798Y015375D01*
X005728Y015515D02*
X005728Y015585D01*
X005491Y015375D02*
X005491Y015165D01*
X005421Y015095D01*
X005351Y015165D01*
X005281Y015095D01*
X005211Y015165D01*
X005211Y015375D01*
X005031Y015165D02*
X004961Y015165D01*
X004961Y015095D01*
X005031Y015095D01*
X005031Y015165D01*
X004801Y015165D02*
X004801Y015305D01*
X004731Y015375D01*
X004590Y015375D01*
X004520Y015305D01*
X004520Y015235D01*
X004801Y015235D01*
X004801Y015165D02*
X004731Y015095D01*
X004590Y015095D01*
X004340Y015165D02*
X004340Y015375D01*
X004340Y015165D02*
X004270Y015095D01*
X004060Y015095D01*
X004060Y015375D01*
X007953Y015095D02*
X008023Y015165D01*
X008023Y015375D01*
X008204Y015375D02*
X008204Y015165D01*
X008274Y015095D01*
X008344Y015165D01*
X008414Y015095D01*
X008484Y015165D01*
X008484Y015375D01*
X011591Y015375D02*
X011591Y015095D01*
X011801Y015095D01*
X011871Y015165D01*
X011871Y015375D01*
X012052Y015305D02*
X012052Y015235D01*
X012332Y015235D01*
X012332Y015165D02*
X012332Y015305D01*
X012262Y015375D01*
X012122Y015375D01*
X012052Y015305D01*
X012122Y015095D02*
X012262Y015095D01*
X012332Y015165D01*
X012492Y015165D02*
X012492Y015095D01*
X012562Y015095D01*
X012562Y015165D01*
X012492Y015165D01*
X012742Y015165D02*
X012742Y015375D01*
X012742Y015165D02*
X012812Y015095D01*
X012882Y015165D01*
X012952Y015095D01*
X013022Y015165D01*
X013022Y015375D01*
X013189Y015095D02*
X013329Y015095D01*
X013259Y015095D02*
X013259Y015375D01*
X013329Y015375D01*
X013259Y015515D02*
X013259Y015585D01*
X013566Y015515D02*
X013566Y015095D01*
X013636Y015095D02*
X013496Y015095D01*
X013803Y015095D02*
X013943Y015095D01*
X013873Y015095D02*
X013873Y015515D01*
X013943Y015515D01*
X014123Y015305D02*
X014193Y015375D01*
X014334Y015375D01*
X014404Y015305D01*
X014404Y015165D01*
X014334Y015095D01*
X014193Y015095D01*
X014123Y015165D01*
X014123Y015305D01*
X014564Y015165D02*
X014564Y015095D01*
X014634Y015095D01*
X014634Y015165D01*
X014564Y015165D01*
X014814Y015165D02*
X014814Y015375D01*
X014814Y015165D02*
X014884Y015095D01*
X014954Y015165D01*
X015024Y015095D01*
X015094Y015165D01*
X015094Y015375D01*
X015274Y015375D02*
X015274Y015165D01*
X015344Y015095D01*
X015414Y015165D01*
X015485Y015095D01*
X015555Y015165D01*
X015555Y015375D01*
X015735Y015375D02*
X015735Y015165D01*
X015805Y015095D01*
X015875Y015165D01*
X015945Y015095D01*
X016015Y015165D01*
X016015Y015375D01*
X015633Y013609D02*
X015353Y013609D01*
X015283Y013538D01*
X015283Y013328D01*
X015703Y013328D01*
X015703Y013538D01*
X015633Y013609D01*
X015703Y013148D02*
X015283Y013148D01*
X015703Y012868D01*
X015283Y012868D01*
X015353Y012688D02*
X015493Y012688D01*
X015493Y012548D01*
X015633Y012688D02*
X015703Y012618D01*
X015703Y012478D01*
X015633Y012408D01*
X015353Y012408D01*
X015283Y012478D01*
X015283Y012618D01*
X015353Y012688D01*
X015015Y012618D02*
X015015Y012478D01*
X014945Y012408D01*
X014875Y012408D01*
X014805Y012478D01*
X014805Y012618D01*
X014735Y012688D01*
X014665Y012688D01*
X014595Y012618D01*
X014595Y012478D01*
X014665Y012408D01*
X014945Y012688D02*
X015015Y012618D01*
X014945Y012868D02*
X014665Y012868D01*
X014595Y012938D01*
X014595Y013078D01*
X014665Y013148D01*
X014595Y013328D02*
X014595Y013609D01*
X014595Y013328D02*
X015015Y013328D01*
X014945Y013148D02*
X015015Y013078D01*
X015015Y012938D01*
X014945Y012868D01*
X014328Y012868D02*
X014328Y013078D01*
X014258Y013148D01*
X013978Y013148D01*
X013908Y013078D01*
X013908Y012868D01*
X014328Y012868D01*
X014258Y012688D02*
X014328Y012618D01*
X014328Y012478D01*
X014258Y012408D01*
X014188Y012408D01*
X014118Y012478D01*
X014118Y012618D01*
X014048Y012688D01*
X013978Y012688D01*
X013908Y012618D01*
X013908Y012478D01*
X013978Y012408D01*
X013640Y012408D02*
X013360Y012408D01*
X013220Y012548D01*
X013360Y012688D01*
X013640Y012688D01*
X013570Y012868D02*
X013290Y012868D01*
X013220Y012938D01*
X013220Y013078D01*
X013290Y013148D01*
X013290Y013328D02*
X013220Y013398D01*
X013220Y013538D01*
X013290Y013609D01*
X013570Y013609D02*
X013640Y013538D01*
X013640Y013398D01*
X013570Y013328D01*
X013290Y013328D01*
X013570Y013148D02*
X013640Y013078D01*
X013640Y012938D01*
X013570Y012868D01*
X013908Y013328D02*
X014188Y013328D01*
X014328Y013468D01*
X014188Y013609D01*
X013908Y013609D01*
X014118Y013609D02*
X014118Y013328D01*
X013636Y015515D02*
X013566Y015515D01*
D12*
X013118Y013993D02*
X015805Y013993D01*
X015825Y013991D01*
X015844Y013987D01*
X015862Y013979D01*
X015878Y013969D01*
X015893Y013956D01*
X015906Y013941D01*
X015916Y013925D01*
X015924Y013907D01*
X015928Y013888D01*
X015930Y013868D01*
X015930Y011430D01*
X015924Y011408D01*
X015915Y011387D01*
X015903Y011368D01*
X015888Y011350D01*
X015871Y011335D01*
X015853Y011323D01*
X015832Y011313D01*
X015810Y011306D01*
X015788Y011303D01*
X015765Y011302D01*
X015743Y011305D01*
X013118Y011305D01*
X013098Y011307D01*
X013079Y011311D01*
X013061Y011319D01*
X013045Y011329D01*
X013030Y011342D01*
X013017Y011357D01*
X013007Y011373D01*
X012999Y011391D01*
X012995Y011410D01*
X012993Y011430D01*
X012993Y013868D01*
X012995Y013888D01*
X012999Y013907D01*
X013007Y013925D01*
X013017Y013941D01*
X013030Y013956D01*
X013045Y013969D01*
X013061Y013979D01*
X013079Y013987D01*
X013098Y013991D01*
X013118Y013993D01*
X008399Y013868D02*
X008399Y011430D01*
X008393Y011408D01*
X008384Y011387D01*
X008372Y011368D01*
X008357Y011350D01*
X008340Y011335D01*
X008322Y011323D01*
X008301Y011313D01*
X008279Y011306D01*
X008257Y011303D01*
X008234Y011302D01*
X008212Y011305D01*
X008211Y011305D02*
X005586Y011305D01*
X005566Y011307D01*
X005547Y011311D01*
X005529Y011319D01*
X005513Y011329D01*
X005498Y011342D01*
X005485Y011357D01*
X005475Y011373D01*
X005467Y011391D01*
X005463Y011410D01*
X005461Y011430D01*
X005461Y013868D01*
X005463Y013888D01*
X005467Y013907D01*
X005475Y013925D01*
X005485Y013941D01*
X005498Y013956D01*
X005513Y013969D01*
X005529Y013979D01*
X005547Y013987D01*
X005566Y013991D01*
X005586Y013993D01*
X008274Y013993D01*
X008294Y013991D01*
X008313Y013987D01*
X008331Y013979D01*
X008347Y013969D01*
X008362Y013956D01*
X008375Y013941D01*
X008385Y013925D01*
X008393Y013907D01*
X008397Y013888D01*
X008399Y013868D01*
X008274Y005399D02*
X005586Y005399D01*
X005566Y005397D01*
X005547Y005393D01*
X005529Y005385D01*
X005513Y005375D01*
X005498Y005362D01*
X005485Y005347D01*
X005475Y005331D01*
X005467Y005313D01*
X005463Y005294D01*
X005461Y005274D01*
X005461Y002836D01*
X005463Y002816D01*
X005467Y002797D01*
X005475Y002779D01*
X005485Y002763D01*
X005498Y002748D01*
X005513Y002735D01*
X005529Y002725D01*
X005547Y002717D01*
X005566Y002713D01*
X005586Y002711D01*
X008211Y002711D01*
X008212Y002712D02*
X008234Y002709D01*
X008257Y002710D01*
X008279Y002713D01*
X008301Y002720D01*
X008322Y002730D01*
X008340Y002742D01*
X008357Y002757D01*
X008372Y002775D01*
X008384Y002794D01*
X008393Y002815D01*
X008399Y002837D01*
X008399Y002836D02*
X008399Y005274D01*
X008397Y005294D01*
X008393Y005313D01*
X008385Y005331D01*
X008375Y005347D01*
X008362Y005362D01*
X008347Y005375D01*
X008331Y005385D01*
X008313Y005393D01*
X008294Y005397D01*
X008274Y005399D01*
X012993Y005274D02*
X012993Y002836D01*
X012995Y002816D01*
X012999Y002797D01*
X013007Y002779D01*
X013017Y002763D01*
X013030Y002748D01*
X013045Y002735D01*
X013061Y002725D01*
X013079Y002717D01*
X013098Y002713D01*
X013118Y002711D01*
X015743Y002711D01*
X015743Y002712D02*
X015765Y002709D01*
X015788Y002710D01*
X015810Y002713D01*
X015832Y002720D01*
X015853Y002730D01*
X015871Y002742D01*
X015888Y002757D01*
X015903Y002775D01*
X015915Y002794D01*
X015924Y002815D01*
X015930Y002837D01*
X015930Y002836D02*
X015930Y005274D01*
X015928Y005294D01*
X015924Y005313D01*
X015916Y005331D01*
X015906Y005347D01*
X015893Y005362D01*
X015878Y005375D01*
X015862Y005385D01*
X015844Y005393D01*
X015825Y005397D01*
X015805Y005399D01*
X013118Y005399D01*
X013098Y005397D01*
X013079Y005393D01*
X013061Y005385D01*
X013045Y005375D01*
X013030Y005362D01*
X013017Y005347D01*
X013007Y005331D01*
X012999Y005313D01*
X012995Y005294D01*
X012993Y005274D01*
D13*
X012975Y007391D02*
X013125Y007391D01*
X013050Y007391D02*
X013050Y007842D01*
X013125Y007842D01*
X013340Y007692D02*
X013340Y007391D01*
X013566Y007391D01*
X013641Y007466D01*
X013641Y007692D01*
X013856Y007692D02*
X014081Y007692D01*
X014156Y007616D01*
X014156Y007466D01*
X014081Y007391D01*
X013856Y007391D01*
X013856Y007842D01*
X013566Y008231D02*
X013415Y008231D01*
X013340Y008306D01*
X013340Y008682D01*
X013641Y008682D02*
X013641Y008306D01*
X013566Y008231D01*
X013856Y008456D02*
X013931Y008381D01*
X014156Y008381D01*
X014156Y008231D02*
X014156Y008682D01*
X013931Y008682D01*
X013856Y008607D01*
X013856Y008456D01*
X014372Y008231D02*
X014372Y008682D01*
X014522Y008532D01*
X014672Y008682D01*
X014672Y008231D01*
X014597Y007692D02*
X014672Y007616D01*
X014672Y007466D01*
X014597Y007391D01*
X014447Y007391D01*
X014372Y007466D01*
X014372Y007616D01*
X014447Y007692D01*
X014597Y007692D01*
X014887Y007616D02*
X014887Y007391D01*
X015037Y007391D02*
X015037Y007616D01*
X014962Y007692D01*
X014887Y007616D01*
X015037Y007616D02*
X015112Y007692D01*
X015188Y007692D01*
X015188Y007391D01*
X012781Y007466D02*
X012706Y007391D01*
X012556Y007391D01*
X012481Y007541D02*
X012781Y007541D01*
X012781Y007466D02*
X012781Y007616D01*
X012706Y007692D01*
X012556Y007692D01*
X012481Y007616D01*
X012481Y007541D01*
X007656Y007391D02*
X007656Y007692D01*
X007581Y007692D01*
X007506Y007616D01*
X007431Y007692D01*
X007356Y007616D01*
X007356Y007391D01*
X007506Y007391D02*
X007506Y007616D01*
X007141Y007616D02*
X007141Y007466D01*
X007066Y007391D01*
X006915Y007391D01*
X006840Y007466D01*
X006840Y007616D01*
X006915Y007692D01*
X007066Y007692D01*
X007141Y007616D01*
X006625Y007616D02*
X006550Y007692D01*
X006325Y007692D01*
X006325Y007842D02*
X006325Y007391D01*
X006550Y007391D01*
X006625Y007466D01*
X006625Y007616D01*
X006109Y007692D02*
X006109Y007466D01*
X006034Y007391D01*
X005809Y007391D01*
X005809Y007692D01*
X005594Y007842D02*
X005519Y007842D01*
X005519Y007391D01*
X005594Y007391D02*
X005444Y007391D01*
X005250Y007466D02*
X005250Y007616D01*
X005175Y007692D01*
X005025Y007692D01*
X004950Y007616D01*
X004950Y007541D01*
X005250Y007541D01*
X005250Y007466D02*
X005175Y007391D01*
X005025Y007391D01*
X005884Y008231D02*
X005809Y008306D01*
X005809Y008682D01*
X006109Y008682D02*
X006109Y008306D01*
X006034Y008231D01*
X005884Y008231D01*
X006325Y008456D02*
X006400Y008381D01*
X006625Y008381D01*
X006625Y008231D02*
X006625Y008682D01*
X006400Y008682D01*
X006325Y008607D01*
X006325Y008456D01*
X006840Y008682D02*
X006840Y008231D01*
X007141Y008231D02*
X007141Y008682D01*
X006990Y008532D01*
X006840Y008682D01*
X006915Y015985D02*
X006840Y016060D01*
X006840Y016210D01*
X006915Y016285D01*
X007066Y016285D01*
X007141Y016210D01*
X007141Y016060D01*
X007066Y015985D01*
X006915Y015985D01*
X006625Y016060D02*
X006625Y016210D01*
X006550Y016285D01*
X006325Y016285D01*
X006325Y016435D02*
X006325Y015985D01*
X006550Y015985D01*
X006625Y016060D01*
X006109Y016060D02*
X006034Y015985D01*
X005809Y015985D01*
X005809Y016285D01*
X005594Y016435D02*
X005519Y016435D01*
X005519Y015985D01*
X005594Y015985D02*
X005444Y015985D01*
X005250Y016060D02*
X005250Y016210D01*
X005175Y016285D01*
X005025Y016285D01*
X004950Y016210D01*
X004950Y016135D01*
X005250Y016135D01*
X005250Y016060D02*
X005175Y015985D01*
X005025Y015985D01*
X005884Y016825D02*
X005809Y016900D01*
X005809Y017275D01*
X006109Y017275D02*
X006109Y016900D01*
X006034Y016825D01*
X005884Y016825D01*
X006325Y017050D02*
X006400Y016975D01*
X006625Y016975D01*
X006625Y016825D02*
X006625Y017275D01*
X006400Y017275D01*
X006325Y017200D01*
X006325Y017050D01*
X006840Y017275D02*
X006840Y016825D01*
X007141Y016825D02*
X007141Y017275D01*
X006990Y017125D01*
X006840Y017275D01*
X007431Y016285D02*
X007356Y016210D01*
X007356Y015985D01*
X007506Y015985D02*
X007506Y016210D01*
X007431Y016285D01*
X007506Y016210D02*
X007581Y016285D01*
X007656Y016285D01*
X007656Y015985D01*
X006109Y016060D02*
X006109Y016285D01*
X012481Y016210D02*
X012481Y016135D01*
X012781Y016135D01*
X012781Y016060D02*
X012781Y016210D01*
X012706Y016285D01*
X012556Y016285D01*
X012481Y016210D01*
X012556Y015985D02*
X012706Y015985D01*
X012781Y016060D01*
X012975Y015985D02*
X013125Y015985D01*
X013050Y015985D02*
X013050Y016435D01*
X013125Y016435D01*
X013340Y016285D02*
X013340Y015985D01*
X013566Y015985D01*
X013641Y016060D01*
X013641Y016285D01*
X013856Y016285D02*
X014081Y016285D01*
X014156Y016210D01*
X014156Y016060D01*
X014081Y015985D01*
X013856Y015985D01*
X013856Y016435D01*
X013566Y016825D02*
X013415Y016825D01*
X013340Y016900D01*
X013340Y017275D01*
X013641Y017275D02*
X013641Y016900D01*
X013566Y016825D01*
X013856Y017050D02*
X013931Y016975D01*
X014156Y016975D01*
X014156Y016825D02*
X014156Y017275D01*
X013931Y017275D01*
X013856Y017200D01*
X013856Y017050D01*
X014372Y017275D02*
X014372Y016825D01*
X014672Y016825D02*
X014672Y017275D01*
X014522Y017125D01*
X014372Y017275D01*
X014447Y016285D02*
X014597Y016285D01*
X014672Y016210D01*
X014672Y016060D01*
X014597Y015985D01*
X014447Y015985D01*
X014372Y016060D01*
X014372Y016210D01*
X014447Y016285D01*
X014887Y016210D02*
X014887Y015985D01*
X015037Y015985D02*
X015037Y016210D01*
X014962Y016285D01*
X014887Y016210D01*
X015037Y016210D02*
X015112Y016285D01*
X015188Y016285D01*
X015188Y015985D01*
M02*
